<svg xmlns="http://www.w3.org/2000/svg" version="1.1" width="325" height="324.99999999999994" viewBox="0 0 325 324.99999999999994"><defs><clipPath id="clip-1"><rect x="0" y="24.999999999999993" width="300" height="300"/></clipPath><clipPath id="clip-2"><rect x="0" y="24.999999999999993" width="300" height="300" transform=""/></clipPath><clipPath id="clip-3"><rect x="0" y="24.999999999999993" width="300" height="300" transform="rotate(-180 114.6 84.99999999999999)"/></clipPath></defs><path fill="none" stroke="#000000" d="M 0,325 L 0,25" style="stroke-width: 2px;opacity: 0.1" stroke-width="2" opacity="0.1"/><path fill="none" stroke="#000000" d="M 37.5,325 L 37.5,25" style="stroke-width: 2px;opacity: 0.1" stroke-width="2" opacity="0.1"/><path fill="none" stroke="#000000" d="M 75,325 L 75,25" style="stroke-width: 2px;opacity: 0.1" stroke-width="2" opacity="0.1"/><path fill="none" stroke="#000000" d="M 112.5,325 L 112.5,25" style="stroke-width: 2px;opacity: 0.1" stroke-width="2" opacity="0.1"/><path fill="none" stroke="#000000" d="M 150,325 L 150,25" style="stroke-width: 2px;opacity: 0.1" stroke-width="2" opacity="0.1"/><path fill="none" stroke="#000000" d="M 187.5,325 L 187.5,25" style="stroke-width: 2px;opacity: 0.1" stroke-width="2" opacity="0.1"/><path fill="none" stroke="#000000" d="M 225,325 L 225,25" style="stroke-width: 2px;opacity: 0.1" stroke-width="2" opacity="0.1"/><path fill="none" stroke="#000000" d="M 262.5,325 L 262.5,25" style="stroke-width: 2px;opacity: 0.1" stroke-width="2" opacity="0.1"/><path fill="none" stroke="#000000" d="M 300,325 L 300,25" style="stroke-width: 2px;opacity: 0.1" stroke-width="2" opacity="0.1"/><path fill="none" stroke="#000000" d="M 0,325 L 300,325" style="stroke-width: 2px;opacity: 0.1" stroke-width="2" opacity="0.1"/><path fill="none" stroke="#000000" d="M 0,295 L 300,295" style="stroke-width: 2px;opacity: 0.1" stroke-width="2" opacity="0.1"/><path fill="none" stroke="#000000" d="M 0,265 L 300,265" style="stroke-width: 2px;opacity: 0.1" stroke-width="2" opacity="0.1"/><path fill="none" stroke="#000000" d="M 0,235 L 300,235" style="stroke-width: 2px;opacity: 0.1" stroke-width="2" opacity="0.1"/><path fill="none" stroke="#000000" d="M 0,205 L 300,205" style="stroke-width: 2px;opacity: 0.1" stroke-width="2" opacity="0.1"/><path fill="none" stroke="#000000" d="M 0,175 L 300,175" style="stroke-width: 2px;opacity: 0.1" stroke-width="2" opacity="0.1"/><path fill="none" stroke="#000000" d="M 0,145 L 300,145" style="stroke-width: 2px;opacity: 0.1" stroke-width="2" opacity="0.1"/><path fill="none" stroke="#000000" d="M 0,115 L 300,115" style="stroke-width: 2px;opacity: 0.1" stroke-width="2" opacity="0.1"/><path fill="none" stroke="#000000" d="M 0,85 L 300,85" style="stroke-width: 2px;opacity: 0.1" stroke-width="2" opacity="0.1"/><path fill="none" stroke="#000000" d="M 0,55 L 300,55" style="stroke-width: 2px;opacity: 0.1" stroke-width="2" opacity="0.1"/><path fill="none" stroke="#000000" d="M 0,25 L 300,25" style="stroke-width: 2px;opacity: 0.1" stroke-width="2" opacity="0.1"/><path fill="none" stroke="#000000" d="M -3.45,180.6 C -3.1,178.5 0.75,175.35 1.8,175 C 0.75,174.65 -3.1,171.5 -3.45,169.4" transform="rotate(180 1.8000000000000114 175)" style="stroke-width: 2px;opacity: 1;stroke-linejoin: round;stroke-linecap: round" stroke-width="2" opacity="1" stroke-linejoin="round" stroke-linecap="round"/><path fill="none" stroke="#000000" d="M 150,175 S 150,175 1.05,175" style="stroke-width: 2px;opacity: 1" stroke-width="2" opacity="1"/><path fill="none" stroke="#000000" d="M 294.45,180.6 C 294.8,178.5 298.65,175.35 299.7,175 C 298.65,174.65 294.8,171.5 294.45,169.4" transform="" style="stroke-width: 2px;opacity: 1;stroke-linejoin: round;stroke-linecap: round" stroke-width="2" opacity="1" stroke-linejoin="round" stroke-linecap="round"/><path fill="none" stroke="#000000" d="M 150,175 S 150,175 298.95,175" style="stroke-width: 2px;opacity: 1" stroke-width="2" opacity="1"/><path fill="none" stroke="#000000" d="M 145.5,329.55 C 145.85,327.45 149.7,324.3 150.75,323.95 C 149.7,323.6 145.85,320.45 145.5,318.35" transform="rotate(90 150.75 323.95)" style="stroke-width: 2px;opacity: 1;stroke-linejoin: round;stroke-linecap: round" stroke-width="2" opacity="1" stroke-linejoin="round" stroke-linecap="round"/><path fill="none" stroke="#000000" d="M 150,175 S 150,175 150,323.95" style="stroke-width: 2px;opacity: 1" stroke-width="2" opacity="1"/><path fill="none" stroke="#000000" d="M 145.5,31.65 C 145.85,29.55 149.7,26.4 150.75,26.05 C 149.7,25.7 145.85,22.55 145.5,20.45" transform="rotate(-90 150.75 26.05000000000001)" style="stroke-width: 2px;opacity: 1;stroke-linejoin: round;stroke-linecap: round" stroke-width="2" opacity="1" stroke-linejoin="round" stroke-linecap="round"/><path fill="none" stroke="#000000" d="M 150,175 S 150,175 150,26.05" style="stroke-width: 2px;opacity: 1" stroke-width="2" opacity="1"/><path fill="none" stroke="#000000" d="M 225,180 L 225,170" style="stroke-width: 1px;opacity: 1" stroke-width="1" opacity="1"/><path fill="none" stroke="#000000" d="M 75,180 L 75,170" style="stroke-width: 1px;opacity: 1" stroke-width="1" opacity="1"/><path fill="none" stroke="#000000" d="M 145,145 L 155,145" style="stroke-width: 1px;opacity: 1" stroke-width="1" opacity="1"/><path fill="none" stroke="#000000" d="M 145,115 L 155,115" style="stroke-width: 1px;opacity: 1" stroke-width="1" opacity="1"/><path fill="none" stroke="#000000" d="M 145,85 L 155,85" style="stroke-width: 1px;opacity: 1" stroke-width="1" opacity="1"/><path fill="none" stroke="#000000" d="M 145,55 L 155,55" style="stroke-width: 1px;opacity: 1" stroke-width="1" opacity="1"/><path fill="none" stroke="#000000" d="M 145,205 L 155,205" style="stroke-width: 1px;opacity: 1" stroke-width="1" opacity="1"/><path fill="none" stroke="#000000" d="M 145,235 L 155,235" style="stroke-width: 1px;opacity: 1" stroke-width="1" opacity="1"/><path fill="none" stroke="#000000" d="M 145,265 L 155,265" style="stroke-width: 1px;opacity: 1" stroke-width="1" opacity="1"/><path fill="none" stroke="#000000" d="M 145,295 L 155,295" style="stroke-width: 1px;opacity: 1" stroke-width="1" opacity="1"/><path fill="none" stroke="#9cdceb" d="M 0,175 L 0.5,173.743 L 1,172.485 L 1.5,171.225 L 2,169.962 L 2.5,168.694 L 3,167.42 L 3.5,166.14 L 4,164.852 L 4.5,163.554 L 5,162.247 L 5.5,160.927 L 6,159.595 L 6.5,158.248 L 7,156.885 L 7.5,155.505 L 8,154.106 L 8.5,152.686 L 9,151.244 L 9.5,149.778 L 10,148.286 L 10.5,146.766 L 11,145.216 L 11.5,143.633 L 12,142.015 L 12.5,140.359 L 13,138.663 L 13.5,136.923 L 14,135.136 L 14.5,133.299 L 15,131.407 L 15.5,129.458 L 16,127.445 L 16.5,125.364 L 17,123.209 L 17.5,120.976 L 18,118.656 L 18.5,116.244 L 19,113.73 L 19.5,111.106 L 20,108.363 L 20.5,105.489 L 21,102.472 L 21.5,99.2988 L 22,95.9529 L 22.5,92.4171 L 23,88.6713 L 23.5,84.6927 L 24,80.4551 L 24.5,75.9282 L 25,71.077 L 25.5,65.8604 L 26,60.2306 L 26.5,54.1308 L 27,47.4935 L 27.5,40.2378 L 28,32.2656 L 28.5,23.4573 L 29,13.6649 L 29.5,2.70347 L 30,-9.66101 L 30.5,-23.7296 L 31,-39.8958 L 31.5,-58.6846 L 32,-80.8113 L 32.5,-107.278 L 33,-139.531 L 33.5,-179.741 L 34,-231.319 L 34.5,-299.949 L 35,-395.862 L 35.5,-539.521 L 36,-778.673 L 36.5,-1256.56 L 37,-2689.37" style="stroke-width: 2.75px" stroke-width="2.75" clip-path="url(#clip-1)"/><path fill="none" stroke="#9cdceb" d="M0,0" style="stroke-width: 2.75px" stroke-width="2.75" clip-path="url(#clip-1)"/><path fill="none" stroke="#9cdceb" d="M 38.5,1606.56 L 39,1128.67 L 39.5,889.521 L 40,745.862 L 40.5,649.949 L 41,581.319 L 41.5,529.741 L 42,489.531 L 42.5,457.278 L 43,430.811 L 43.5,408.685 L 44,389.896 L 44.5,373.73 L 45,359.661 L 45.5,347.297 L 46,336.335 L 46.5,326.543 L 47,317.734 L 47.5,309.762 L 48,302.506 L 48.5,295.869 L 49,289.769 L 49.5,284.14 L 50,278.923 L 50.5,274.072 L 51,269.545 L 51.5,265.307 L 52,261.329 L 52.5,257.583 L 53,254.047 L 53.5,250.701 L 54,247.528 L 54.5,244.511 L 55,241.637 L 55.5,238.894 L 56,236.27 L 56.5,233.756 L 57,231.344 L 57.5,229.024 L 58,226.791 L 58.5,224.636 L 59,222.555 L 59.5,220.542 L 60,218.593 L 60.5,216.701 L 61,214.864 L 61.5,213.077 L 62,211.337 L 62.5,209.641 L 63,207.985 L 63.5,206.367 L 64,204.784 L 64.5,203.234 L 65,201.714 L 65.5,200.222 L 66,198.756 L 66.5,197.314 L 67,195.894 L 67.5,194.495 L 68,193.115 L 68.5,191.752 L 69,190.405 L 69.5,189.073 L 70,187.753 L 70.5,186.446 L 71,185.148 L 71.5,183.86 L 72,182.58 L 72.5,181.306 L 73,180.038 L 73.5,178.775 L 74,177.515 L 74.5,176.257 L 75,175 L 75.5,173.743 L 76,172.485 L 76.5,171.225 L 77,169.962 L 77.5,168.694 L 78,167.42 L 78.5,166.14 L 79,164.852 L 79.5,163.554 L 80,162.247 L 80.5,160.927 L 81,159.595 L 81.5,158.248 L 82,156.885 L 82.5,155.505 L 83,154.106 L 83.5,152.686 L 84,151.244 L 84.5,149.778 L 85,148.286 L 85.5,146.766 L 86,145.216 L 86.5,143.633 L 87,142.015 L 87.5,140.359 L 88,138.663 L 88.5,136.923 L 89,135.136 L 89.5,133.299 L 90,131.407 L 90.5,129.458 L 91,127.445 L 91.5,125.364 L 92,123.209 L 92.5,120.976 L 93,118.656 L 93.5,116.244 L 94,113.73 L 94.5,111.106 L 95,108.363 L 95.5,105.489 L 96,102.472 L 96.5,99.2988 L 97,95.9529 L 97.5,92.4171 L 98,88.6713 L 98.5,84.6927 L 99,80.4551 L 99.5,75.9282 L 100,71.077 L 100.5,65.8604 L 101,60.2306 L 101.5,54.1308 L 102,47.4935 L 102.5,40.2378 L 103,32.2656 L 103.5,23.4573 L 104,13.6649 L 104.5,2.70347 L 105,-9.66101 L 105.5,-23.7296 L 106,-39.8958 L 106.5,-58.6846 L 107,-80.8113 L 107.5,-107.278 L 108,-139.531 L 108.5,-179.741 L 109,-231.319 L 109.5,-299.949 L 110,-395.862 L 110.5,-539.521 L 111,-778.673 L 111.5,-1256.56 L 112,-2689.37" style="stroke-width: 2.75px" stroke-width="2.75" clip-path="url(#clip-1)"/><path fill="none" stroke="#9cdceb" d="M0,0" style="stroke-width: 2.75px" stroke-width="2.75" clip-path="url(#clip-1)"/><path fill="none" stroke="#9cdceb" d="M 113.5,1606.56 L 114,1128.67 L 114.5,889.521 L 115,745.862 L 115.5,649.949 L 116,581.319 L 116.5,529.741 L 117,489.531 L 117.5,457.278 L 118,430.811 L 118.5,408.685 L 119,389.896 L 119.5,373.73 L 120,359.661 L 120.5,347.297 L 121,336.335 L 121.5,326.543 L 122,317.734 L 122.5,309.762 L 123,302.506 L 123.5,295.869 L 124,289.769 L 124.5,284.14 L 125,278.923 L 125.5,274.072 L 126,269.545 L 126.5,265.307 L 127,261.329 L 127.5,257.583 L 128,254.047 L 128.5,250.701 L 129,247.528 L 129.5,244.511 L 130,241.637 L 130.5,238.894 L 131,236.27 L 131.5,233.756 L 132,231.344 L 132.5,229.024 L 133,226.791 L 133.5,224.636 L 134,222.555 L 134.5,220.542 L 135,218.593 L 135.5,216.701 L 136,214.864 L 136.5,213.077 L 137,211.337 L 137.5,209.641 L 138,207.985 L 138.5,206.367 L 139,204.784 L 139.5,203.234 L 140,201.714 L 140.5,200.222 L 141,198.756 L 141.5,197.314 L 142,195.894 L 142.5,194.495 L 143,193.115 L 143.5,191.752 L 144,190.405 L 144.5,189.073 L 145,187.753 L 145.5,186.446 L 146,185.148 L 146.5,183.86 L 147,182.58 L 147.5,181.306 L 148,180.038 L 148.5,178.775 L 149,177.515 L 149.5,176.257 L 150,175 L 150.5,173.743 L 151,172.485 L 151.5,171.225 L 152,169.962 L 152.5,168.694 L 153,167.42 L 153.5,166.14 L 154,164.852 L 154.5,163.554 L 155,162.247 L 155.5,160.927 L 156,159.595 L 156.5,158.248 L 157,156.885 L 157.5,155.505 L 158,154.106 L 158.5,152.686 L 159,151.244 L 159.5,149.778 L 160,148.286 L 160.5,146.766 L 161,145.216 L 161.5,143.633 L 162,142.015 L 162.5,140.359 L 163,138.663 L 163.5,136.923 L 164,135.136 L 164.5,133.299 L 165,131.407 L 165.5,129.458 L 166,127.445 L 166.5,125.364 L 167,123.209 L 167.5,120.976 L 168,118.656 L 168.5,116.244 L 169,113.73 L 169.5,111.106 L 170,108.363 L 170.5,105.489 L 171,102.472 L 171.5,99.2988 L 172,95.9529 L 172.5,92.4171 L 173,88.6713 L 173.5,84.6927 L 174,80.4551 L 174.5,75.9282 L 175,71.077 L 175.5,65.8604 L 176,60.2306 L 176.5,54.1308 L 177,47.4935 L 177.5,40.2378 L 178,32.2656 L 178.5,23.4573 L 179,13.6649 L 179.5,2.70347 L 180,-9.66101 L 180.5,-23.7296 L 181,-39.8959 L 181.5,-58.6846 L 182,-80.8113 L 182.5,-107.278 L 183,-139.531 L 183.5,-179.741 L 184,-231.319 L 184.5,-299.949 L 185,-395.862 L 185.5,-539.521 L 186,-778.673 L 186.5,-1256.56 L 187,-2689.37" style="stroke-width: 2.75px" stroke-width="2.75" clip-path="url(#clip-1)"/><path fill="none" stroke="#9cdceb" d="M 188,3039.37 L 188.5,1606.56 L 189,1128.67 L 189.5,889.521 L 190,745.862 L 190.5,649.949 L 191,581.319 L 191.5,529.741 L 192,489.531 L 192.5,457.278 L 193,430.811 L 193.5,408.685 L 194,389.896 L 194.5,373.73 L 195,359.661 L 195.5,347.297 L 196,336.335 L 196.5,326.543 L 197,317.734 L 197.5,309.762 L 198,302.506 L 198.5,295.869 L 199,289.769 L 199.5,284.14 L 200,278.923 L 200.5,274.072 L 201,269.545 L 201.5,265.307 L 202,261.329 L 202.5,257.583 L 203,254.047 L 203.5,250.701 L 204,247.528 L 204.5,244.511 L 205,241.637 L 205.5,238.894 L 206,236.27 L 206.5,233.756 L 207,231.344 L 207.5,229.024 L 208,226.791 L 208.5,224.636 L 209,222.555 L 209.5,220.542 L 210,218.593 L 210.5,216.701 L 211,214.864 L 211.5,213.077 L 212,211.337 L 212.5,209.641 L 213,207.985 L 213.5,206.367 L 214,204.784 L 214.5,203.234 L 215,201.714 L 215.5,200.222 L 216,198.756 L 216.5,197.314 L 217,195.894 L 217.5,194.495 L 218,193.115 L 218.5,191.752 L 219,190.405 L 219.5,189.073 L 220,187.753 L 220.5,186.446 L 221,185.148 L 221.5,183.86 L 222,182.58 L 222.5,181.306 L 223,180.038 L 223.5,178.775 L 224,177.515 L 224.5,176.257 L 225,175 L 225.5,173.743 L 226,172.485 L 226.5,171.225 L 227,169.962 L 227.5,168.694 L 228,167.42 L 228.5,166.14 L 229,164.852 L 229.5,163.554 L 230,162.247 L 230.5,160.927 L 231,159.595 L 231.5,158.248 L 232,156.885 L 232.5,155.505 L 233,154.106 L 233.5,152.686 L 234,151.244 L 234.5,149.778 L 235,148.286 L 235.5,146.766 L 236,145.216 L 236.5,143.633 L 237,142.015 L 237.5,140.359 L 238,138.663 L 238.5,136.923 L 239,135.136 L 239.5,133.299 L 240,131.407 L 240.5,129.458 L 241,127.445 L 241.5,125.364 L 242,123.209 L 242.5,120.976 L 243,118.656 L 243.5,116.244 L 244,113.73 L 244.5,111.106 L 245,108.363 L 245.5,105.489 L 246,102.472 L 246.5,99.2988 L 247,95.9529 L 247.5,92.4171 L 248,88.6713 L 248.5,84.6927 L 249,80.4551 L 249.5,75.9282 L 250,71.0769 L 250.5,65.8604 L 251,60.2306 L 251.5,54.1308 L 252,47.4935 L 252.5,40.2378 L 253,32.2656 L 253.5,23.4573 L 254,13.6649 L 254.5,2.70347 L 255,-9.66102 L 255.5,-23.7296 L 256,-39.8959 L 256.5,-58.6846 L 257,-80.8113 L 257.5,-107.278 L 258,-139.531 L 258.5,-179.741 L 259,-231.319 L 259.5,-299.949 L 260,-395.862 L 260.5,-539.521 L 261,-778.673 L 261.5,-1256.56 L 262,-2689.37" style="stroke-width: 2.75px" stroke-width="2.75" clip-path="url(#clip-1)"/><path fill="none" stroke="#9cdceb" d="M 263,3039.37 L 263.5,1606.56 L 264,1128.67 L 264.5,889.521 L 265,745.862 L 265.5,649.949 L 266,581.319 L 266.5,529.741 L 267,489.531 L 267.5,457.278 L 268,430.811 L 268.5,408.685 L 269,389.896 L 269.5,373.73 L 270,359.661 L 270.5,347.297 L 271,336.335 L 271.5,326.543 L 272,317.734 L 272.5,309.762 L 273,302.506 L 273.5,295.869 L 274,289.769 L 274.5,284.14 L 275,278.923 L 275.5,274.072 L 276,269.545 L 276.5,265.307 L 277,261.329 L 277.5,257.583 L 278,254.047 L 278.5,250.701 L 279,247.528 L 279.5,244.511 L 280,241.637 L 280.5,238.894 L 281,236.27 L 281.5,233.756 L 282,231.344 L 282.5,229.024 L 283,226.791 L 283.5,224.636 L 284,222.555 L 284.5,220.542 L 285,218.593 L 285.5,216.701 L 286,214.864 L 286.5,213.077 L 287,211.337 L 287.5,209.641 L 288,207.985 L 288.5,206.367 L 289,204.784 L 289.5,203.234 L 290,201.714 L 290.5,200.222 L 291,198.756 L 291.5,197.314 L 292,195.894 L 292.5,194.495 L 293,193.115 L 293.5,191.752 L 294,190.405 L 294.5,189.073 L 295,187.753 L 295.5,186.446 L 296,185.148 L 296.5,183.86 L 297,182.58 L 297.5,181.306 L 298,180.038 L 298.5,178.775 L 299,177.515 L 299.5,176.257 L 300,175" style="stroke-width: 2.75px" stroke-width="2.75" clip-path="url(#clip-1)"/><path fill="none" stroke="#1c758a" d="M0,0" style="stroke-width: 3px" stroke-width="3" clip-path="url(#clip-1)"/><path fill="none" stroke="#1c758a" d="M0,0" style="stroke-width: 3px" stroke-width="3" clip-path="url(#clip-1)"/><path fill="none" stroke="#1c758a" d="M 113.5,1606.56 L 114,1128.67 L 114.5,889.521 L 115,745.862 L 115.5,649.949 L 116,581.319 L 116.5,529.741 L 117,489.531 L 117.5,457.278 L 118,430.811 L 118.5,408.685 L 119,389.896 L 119.5,373.73 L 120,359.661 L 120.5,347.297 L 121,336.335 L 121.5,326.543 L 122,317.734 L 122.5,309.762 L 123,302.506 L 123.5,295.869 L 124,289.769 L 124.5,284.14 L 125,278.923 L 125.5,274.072 L 126,269.545 L 126.5,265.307 L 127,261.329 L 127.5,257.583 L 128,254.047 L 128.5,250.701 L 129,247.528 L 129.5,244.511 L 130,241.637 L 130.5,238.894 L 131,236.27 L 131.5,233.756 L 132,231.344 L 132.5,229.024 L 133,226.791 L 133.5,224.636 L 134,222.555 L 134.5,220.542 L 135,218.593 L 135.5,216.701 L 136,214.864 L 136.5,213.077 L 137,211.337 L 137.5,209.641 L 138,207.985 L 138.5,206.367 L 139,204.784 L 139.5,203.234 L 140,201.714 L 140.5,200.222 L 141,198.756 L 141.5,197.314 L 142,195.894 L 142.5,194.495 L 143,193.115 L 143.5,191.752 L 144,190.405 L 144.5,189.073 L 145,187.753 L 145.5,186.446 L 146,185.148 L 146.5,183.86 L 147,182.58 L 147.5,181.306 L 148,180.038 L 148.5,178.775 L 149,177.515 L 149.5,176.257 L 150,175 L 150.5,173.743 L 151,172.485 L 151.5,171.225 L 152,169.962 L 152.5,168.694 L 153,167.42 L 153.5,166.14 L 154,164.852 L 154.5,163.554 L 155,162.247 L 155.5,160.927 L 156,159.595 L 156.5,158.248 L 157,156.885 L 157.5,155.505 L 158,154.106 L 158.5,152.686 L 159,151.244 L 159.5,149.778 L 160,148.286 L 160.5,146.766 L 161,145.216 L 161.5,143.633 L 162,142.015 L 162.5,140.359 L 163,138.663 L 163.5,136.923 L 164,135.136 L 164.5,133.299 L 165,131.407 L 165.5,129.458 L 166,127.445 L 166.5,125.364 L 167,123.209 L 167.5,120.976 L 168,118.656 L 168.5,116.244 L 169,113.73 L 169.5,111.106 L 170,108.363 L 170.5,105.489 L 171,102.472 L 171.5,99.2988 L 172,95.9529 L 172.5,92.4171 L 173,88.6713 L 173.5,84.6927 L 174,80.4551 L 174.5,75.9282 L 175,71.077 L 175.5,65.8604 L 176,60.2306 L 176.5,54.1308 L 177,47.4935 L 177.5,40.2378 L 178,32.2656 L 178.5,23.4573 L 179,13.6649 L 179.5,2.70347 L 180,-9.66101 L 180.5,-23.7296 L 181,-39.8959 L 181.5,-58.6846 L 182,-80.8113 L 182.5,-107.278 L 183,-139.531 L 183.5,-179.741 L 184,-231.319 L 184.5,-299.949 L 185,-395.862 L 185.5,-539.521 L 186,-778.673 L 186.5,-1256.56 L 187,-2689.37" style="stroke-width: 3px" stroke-width="3" clip-path="url(#clip-1)"/><path fill="none" stroke="#e1a158" d="M 112.5,325 L 112.5,25" style="stroke-width: 3px" stroke-width="3" clip-path="url(#clip-1)" stroke-dasharray="9,3"/><path fill="none" stroke="#e1a158" d="M 187.5,325 L 187.5,25" style="stroke-width: 3px" stroke-width="3" clip-path="url(#clip-1)" stroke-dasharray="9,3"/><path fill="none" stroke="#e65a4c" d="M 180.15,92.2 C 180.6,89.5 185.55,85.45 186.9,85 C 185.55,84.55 180.6,80.5 180.15,77.8" transform="" style="stroke-width: 3px;stroke-linejoin: round;stroke-linecap: round" stroke-width="3" clip-path="url(#clip-2)" stroke-linejoin="round" stroke-linecap="round"/><path fill="none" stroke="#e65a4c" d="M 112.5,85 S 112.5,85 186.15,85" style="stroke-width: 3px" stroke-width="3" clip-path="url(#clip-1)"/><path fill="none" stroke="#e65a4c" d="M 107.85,92.2 C 108.3,89.5 113.25,85.45 114.6,85 C 113.25,84.55 108.3,80.5 107.85,77.8" transform="rotate(180 114.6 84.99999999999999)" style="stroke-width: 3px;stroke-linejoin: round;stroke-linecap: round" stroke-width="3" clip-path="url(#clip-3)" stroke-linejoin="round" stroke-linecap="round"/><path fill="none" stroke="#e65a4c" d="M 187.5,85 S 187.5,85 113.85,85" style="stroke-width: 3px" stroke-width="3" clip-path="url(#clip-1)"/></svg>