<svg xmlns="http://www.w3.org/2000/svg" width="277.3" height="277.3" viewBox="0 0 73.4 73.4">
  <path d="M44.3 209.9v-36.7h73.4v73.4H44.3Z" style="fill:#fefefe;stroke-width:.352778" transform="translate(-44.5 -173.2)"/>
  <path d="m81.2 242.6-2.2-1.1-1.7.6c-3.8 1.3-7.8.3-13.4-3.4-5.7-3.8-7.4-6.3-7.7-11.1a7 7 0 0 0-.6-2.6c-.8-.8-.2-6.5 1.3-12.5a35 35 0 0 0 1-7c.1-6.5 2.4-11.7 7.2-16.5 3.5-3.5 9-7.1 11-7.2a7 7 0 0 0 1.7-.3 7 7 0 0 1 2.8.5l2.1.6v-1c0-3.5 2-6.3 4.3-6.3 2.2 0 4.6 1 6.6 3 2.1 2.1 2.2 2.5 1 6l-.9 2.6 1.2.2c1.6.4 4.3 1.8 4.2 2.2 0 .3.5.8 1.2 1.2 2.3 1 3.7 5.1 3 8-.4 1.5-.4 1.6.8 3.7 2.2 4 2.7 7.6 1.7 12.5-.7 3.3-1.8 5.9-3.3 7.5-.9 1-1 1.5-1 3 0 6.3-6.3 14.3-14 17.7-2.6 1.1-3.8 1-6.3-.3zM63.6 206l-1.5-.8-1.4-.8 1.2 1.2c.7.7 1.4 1 1.5.8l.2-.4zm26.6-23.4c1-3.3.9-3.7-.7-4.2a10 10 0 0 0-2.3-.4c-1 0-1 0-1 2.4.1 1.3.2 2.7.4 3 .2.7 2 1.7 2.6 1.5.2 0 .7-1 1-2.3z" style="fill:#f5d4a6;stroke-width:.352778" transform="translate(-44.5 -173.2)"/>
  <path d="m81.3 242.6-2.2-1.2-2 .7c-3.8 1.3-7.5.3-13.2-3.4-5.7-3.8-7.4-6.3-7.7-11.1a7 7 0 0 0-.6-2.6c-.8-.8-.2-6.5 1.3-12.5a35 35 0 0 0 1-7c0-4 .9-7 2.9-11 2.6-5 11.8-12.6 15.5-12.7.9 0 1.6-.2 1.7-.3l2.5.5 2.2.7v-1.2c0-3.4 2-6.2 4.3-6.2 2.2 0 4.6 1 6.6 3 2.2 2.1 2.2 2.5 1 6.2-1 3-1 3-.6 2.6.6-.3 5 1.6 5 2.2 0 .2.6.8 1.3 1.2 2.3 1 3.7 5.1 3 8-.4 1.5-.4 1.6.8 3.7 2.2 4 2.7 7.6 1.7 12.5a15 15 0 0 1-3.2 7.4c-1 1-1.2 1.4-1.2 2.8 0 6.1-5.5 13.5-12.6 17.2-1.8.9-3.7 1.6-4.3 1.6-.5 0-2-.5-3.2-1.1zm-11.7-16.4c.4-.5 1-1.8.7-2a55 55 0 0 0-4.5-2.6c-1.2-.7-1.4-.8-1.9-.2-.7.6-.7 1.2 0 1.2.9 0 3 2.2 3.2 3.5.3 1.9.8 2.3 1.5 1.3.3-.4.7-1 1-1.2zm-9.6-9.8c.5-.2.5-.3 0-1-1-1-2-.7-1.4.6.2.6.5.7 1.4.4zm3.5-10.6c-.2-.5-1.9-1.4-3.2-1.7-.9-.2-.8-.1.7.9a7 7 0 0 1 1.9 1.6c.1.4.2.4.5 0 .1-.2.2-.5 0-.8zm20.2-.2c.3-.3.4-.6.4-.8 0-.4-3.1-2.1-3.3-2l-.5 1c-.4.8-.1 1.2 1.4 1.8 1.2.5 1.5.5 2 0zm-15.1-10 1.9-2.8-1.6 1.5c-2 2-3 1.9-3 0v-1.4l-.8 1a5 5 0 0 0-1 2.4c0 1 0 1.3.9 1.7a5 5 0 0 0 1.3.6c.3 0 1.3-1.3 2.3-3zm21.6-12.9c1-3.3.9-3.7-.7-4.2a10 10 0 0 0-2.3-.4c-1 0-1 0-1 2.4.1 1.3.2 2.7.4 3 .2.7 2 1.7 2.6 1.5.2 0 .7-1 1-2.3z" style="fill:#f5c895;stroke-width:.352778" transform="translate(-44.5 -173.2)"/>
  <path d="m81.3 242.6-2.2-1.2-2 .7c-3.8 1.3-7.5.3-13.2-3.4-5.7-3.8-7.4-6.3-7.7-11.1a7 7 0 0 0-.6-2.6c-.8-.8-.2-6.5 1.3-12.5a35 35 0 0 0 1-7c0-4 .9-7 2.9-11 2.6-5 11.8-12.6 15.5-12.7.9 0 1.6-.2 1.7-.3l2.5.5 2.2.7v-1.2c0-3.4 2-6.2 4.3-6.2 2.2 0 4.6 1 6.6 3 2.2 2.1 2.2 2.5 1 6.2-1 3-1 3-.6 2.6.6-.3 5 1.6 5 2.2 0 .2.6.8 1.3 1.2 2.3 1 3.7 5.1 3 8-.4 1.5-.4 1.6.8 3.7 2.2 4 2.7 7.6 1.7 12.5a15 15 0 0 1-3.2 7.4c-1 1-1.2 1.4-1.2 2.8 0 6.1-5.5 13.5-12.6 17.2-1.8.9-3.7 1.6-4.3 1.6-.5 0-2-.5-3.2-1.1zm-12-16c1.3-2 1.3-2.4 0-3a7 7 0 0 1-1.7-1c-.4-.4-.7-.7-.7-.5l-1-.6c-1.4-.9-1.5-.9-2.5.3-1 1-1 1.4-.2 1.7 1.5.5 2.2 1 2.6 1.9.4.9 2 2.8 2.3 2.8.1 0 .7-.7 1.2-1.6zm5.7-2c0-.3-.6-.9-1.3-1.3-1.3-.8-1.6-.4-.6 1 .6.8 1.9 1 1.9.3zM60.7 216c0-.2-.4-.8-1-1.4-1.5-1.1-2-.7-1.3 1 .3.7.5 1 1.3.8.5 0 1-.3 1-.4zm2.8-10.3c-.2-.5-1.9-1.4-3.2-1.7-.9-.2-.8-.1.7.9a7 7 0 0 1 1.9 1.6c.1.4.2.4.5 0 .1-.2.2-.5 0-.8zm22.1-2.5c.6-1 1-2 1-2.1-.2-.1-.5.1-.7.5-.3.4-.7.8-1 .8-.2 0-.4.1-.4.3 0 .7-1.4.4-1.8-.5-.3-.7-.2-1.2 1-3.5 1-2 1.2-2.5.7-2a24 24 0 0 0-4 6.2c-.7 1.9-.5 2.1 1.5 2.8 1.7.6 2 .3 3.7-2.5zm-17.5-6.6c.8-1.2 2.3-3.2 3.4-4.4a18 18 0 0 0 2-2.4c0-.3-3.7 2.8-4.6 3.8-.4.5-.8.6-1.3.5-1-.3-1-.5.3-2.3.6-.9 1-1.8 1-2 0-.2.4-.7.8-1 .4-.4.6-.7.5-.8a23 23 0 0 0-5 5.4l-1.4 2.8c-.1 1 0 1.1 1.2 1.8.7.5 1.4.8 1.6.8l1.5-2.2zm22.1-14c1-3.3.9-3.7-.7-4.2a10 10 0 0 0-2.3-.4c-1 0-1 0-1 2.4.1 1.3.2 2.7.4 3 .2.7 2 1.7 2.6 1.5.2 0 .7-1 1-2.3z" style="fill:#a5ced7;stroke-width:.352778" transform="translate(-44.5 -173.2)"/>
  <path d="m81.2 242.5-2.2-1.2-2.1.8c-3.8 1.2-7.9 0-13.7-4-5-3.5-7-6.4-7-10.5 0-1-.2-2.3-.5-3.2a4 4 0 0 1-.2-3.1c.2-.9.4-2.2.4-3a4226.6 4226.6 0 0 0 2.1-10.7c.3-1 .2-1.5 0-1.8-.5-.6.2-4.4 1.3-7.4a23 23 0 0 1 8-11.4c3.5-2.8 8-5.4 9-5.1.4 0 1 0 1.4-.2.4-.2 1.2-.1 2.8.3l2.2.7.2-1.7c.4-2.9.5-3.3 1.9-4.5 1.2-1.1 1.4-1.2 2.9-1a10.3 10.3 0 0 1 7.7 5.6l-.8 3c-1 2.9-1.1 3.4-.6 3 .6-.3 5 1.6 5 2.2 0 .2.6.9 1.5 1.4 1.2.9 1.6 1.4 2.3 3.4.8 2.2.8 2.6.4 4.3-.4 1.8-.4 1.9.7 3.7 1.7 3.2 2.2 4.8 2.2 8.4a17.6 17.6 0 0 1-3.7 11.7c-.8.7-1 1.2-1 2.6 0 6.2-5.5 13.6-12.6 17.3-1.8.9-3.7 1.6-4.3 1.6-.5 0-2-.5-3.3-1.2zm-11.9-16c1.3-2 1.3-2.3 0-2.8a7 7 0 0 1-1.7-1.2c-.4-.3-.7-.6-.7-.4l-1-.6c-1.4-.9-1.5-.9-2.5.3-1 1-1 1.4-.2 1.7 1.5.5 2.2 1 2.6 1.9.4.9 2 2.8 2.3 2.8.1 0 .7-.7 1.2-1.6zm5.7-2c0-.2-.6-.8-1.3-1.2-1.3-.8-1.6-.4-.6 1 .6.8 1.9 1 1.9.3zm-14.3-8.4c0-.2-.4-.8-1-1.4-1.5-1.1-2-.7-1.3 1 .3.7.5 1 1.3.8.5 0 1-.3 1-.4zm19.3-.8.5-1-2.3-1.3c-2.4-1.4-3.7-1.7-3.5-1 0 .3.8.9 1.6 1.3a9 9 0 0 1 2.3 1.9l.9 1 .5-1zm-18-10.6c-2-1.1-3.3-1.3-3.3-.5l1.6 1c.9.4 1.9 1.1 2.2 1.6l.7.9.5-1 .6-.9zm23.6-1.4c.6-1 1-2 1-2.1-.2-.1-.5.1-.7.5-.3.4-.7.8-1 .8-.2 0-.4.1-.4.3 0 .7-1.4.4-1.8-.5-.3-.7-.2-1.2 1-3.5 1-2 1.2-2.5.7-2a24 24 0 0 0-4 6.2c-.7 1.9-.5 2.1 1.5 2.8 1.7.6 2 .3 3.7-2.5zm-17.5-6.6c.8-1.2 2.3-3.2 3.4-4.4a18 18 0 0 0 2-2.4c0-.3-3.7 2.8-4.6 3.8-.4.5-.8.6-1.3.5-1-.3-1-.5.3-2.3.6-.9 1-1.8 1-2 0-.2.4-.7.8-1 .4-.4.6-.7.5-.8a20.3 20.3 0 0 0-4.7 4.8c-.2 0-.4.3-.4.6s-.1.5-.3.5c-.4 0-1 1.4-.8 1.9 0 .1-.1.2-.3.2-.2 0-.2.3-.1.7.1.5 2.3 2.1 3 2.1l1.5-2.2zM90.2 183c1.2-4.2 1.2-4-.3-4.5-.8-.2-2-.4-2.7-.4h-1.3l.2 2.4c.3 3.6.4 3.9 1.5 4.3 1.8.6 2 .5 2.6-1.8z" style="fill:#e1b78a;stroke-width:.352778" transform="translate(-44.5 -173.2)"/>
  <path d="m81.3 242.6-2.3-1.3-2.1.7c-3.8 1.3-7.9.1-13.7-4-5-3.4-7-6.3-7-10.4 0-1-.2-2.3-.5-3.2a4 4 0 0 1-.2-3.1c.2-.9.4-2.2.4-3a4226.6 4226.6 0 0 0 2.1-10.7c.3-1 .2-1.5 0-1.8-.8-1 .8-7 3-11.3 2-4 5.8-7.6 11.3-11 2.3-1.2 3.2-1.6 4.8-1.7 1.7-.1 3.5.2 5.1.8.4.1.5-.3.7-1.5.4-3 .5-3.4 1.9-4.6 1.2-1.1 1.4-1.2 2.9-1a10.3 10.3 0 0 1 7.7 5.6l-.8 3c-1 2.9-1.1 3.4-.6 3 .5-.3 5 1.7 5 2.2 0 .2.6.9 1.5 1.4 1.2.9 1.6 1.4 2.3 3.4.8 2.2.8 2.6.4 4.3-.4 1.8-.4 1.9.7 3.7 1.7 3.2 2.2 4.8 2.2 8.4a17.6 17.6 0 0 1-3.7 11.7c-.7.6-1 1.2-1 2.1 0 .7-.2 2.3-.5 3.4a23.7 23.7 0 0 1-12.8 14.8c-3 1.5-4.1 1.5-6.8 0zm-12.8-13.8c-.1-.3 0-.6.2-.6s.2-.1.1-.3v-.4c.6-.3 2.3-2.7 2-3 0 0 0-.2.3-.2s0-.3-.6-.7c-.7-.4-1.4-.6-1.6-.4-.2.1-.3 0-.1-.2.2-.4-1.7-1.6-2-1.2-.2 0-.3 0-.3-.2 0-.3-.1-.4-.3-.3-.2.2-.5 0-.6-.3-.6-1.4-2-.6-3.3 2l-.6 1.1 2 1.4c1.3.8 2 1.5 1.9 1.7-.2.3-.1.3.1.2.2-.1.9.2 1.5.8 1.3 1.2 1.6 1.3 1.3.6zm7.2-3.8c1-.5.8-1-.9-1.7-.9-.4-1.6-.9-1.6-1 0-.3-.1-.4-.3-.2-.6.3-.5 1.6.2 2.5.6.9 1.5 1 2.6.4zm-14.5-9.4c0-.6 0-.8-.3-.6-.3.1-.9-.2-1.4-.7-1-1-1-1-1.3-.2v1.6c.3.8.4 1 1.6.8 1 0 1.3-.2 1.4-1zm18.8-.3.5-1-2.3-1.3c-2.4-1.4-3.7-1.7-3.5-1 0 .3.8.9 1.6 1.3a9 9 0 0 1 2.3 1.9l.9 1 .5-1zm-18-10.6c-2-1.1-3.3-1.3-3.3-.5l1.6 1c.9.4 1.9 1.1 2.2 1.6l.7.9.5-1 .6-.9zm22.7.3a141.3 141.3 0 0 1 3.7-5.9c0-.4-1.4.6-2.7 2-1.1 1.1-1.4 1.3-2.1 1-.5-.3-.8-.7-.7-1a21 21 0 0 1 2.4-4.7c.9-1.3.8-1.6-.3-.6a29.8 29.8 0 0 0-4.5 6.3c-1.1 2.7-1.1 2.8.5 3.6 2 .9 2.8.7 3.7-.7zm-16.5-8.2c.6-1.1 2-3 3.2-4.3l2.2-2.6c0-.1-1.3.8-2.8 2-1.6 1.4-3 2.3-3.3 2.2-.9-.2-.8-.4.4-2.2.6-.9 1-1.7 1-1.9 0-.2.7-1.1 1.5-2.1 1-1.1.2-.6-1.8 1.5-3.4 3.4-5.4 6.5-5 7.6.2.6 2.5 2 3 1.8.3 0 1-1 1.6-2zm19.1-3.3.7-.9c-.1 0-.6.4-1 .9l-.7.9c.1 0 .6-.4 1-1zm3-10.5c1.1-4.2 1.1-4-.4-4.5-.8-.2-2-.4-2.7-.4h-1.3l.2 2.4c.3 3.6.4 3.9 1.5 4.3 1.8.6 2 .5 2.6-1.8z" style="fill:#eaac72;stroke-width:.352778" transform="translate(-44.5 -173.2)"/>
  <path d="m81.3 242.6-2.3-1.3-2.1.7c-3.8 1.3-7.9.1-13.7-4-5-3.4-7-6.3-7-10.4 0-1-.2-2.3-.5-3.2a4 4 0 0 1-.2-3.1c.2-.9.4-2.2.4-3a4226.6 4226.6 0 0 0 2.1-10.7c.3-1 .2-1.5 0-1.8-.8-1 .8-7 3-11.3 2-4 5.8-7.6 11.3-11 3.3-1.8 5.5-2.2 8.5-1.3l1.8.5.3-1.7c.4-2.9.5-3.3 1.9-4.5 1.2-1.1 1.4-1.2 2.9-1a10.3 10.3 0 0 1 7.7 5.6l-.8 3c-1 2.9-1.1 3.4-.6 3 .5-.3 5 1.7 5 2.2 0 .2.6.9 1.5 1.4 1.2.9 1.6 1.4 2.3 3.4.8 2.2.8 2.6.4 4.3-.4 1.8-.4 1.9.7 3.7 1.7 3.2 2.2 4.8 2.2 8.4a17.6 17.6 0 0 1-3.7 11.7c-.7.6-1 1.2-1 2.1 0 .7-.2 2.3-.5 3.4a23.7 23.7 0 0 1-12.8 14.8c-3 1.5-4.1 1.5-6.8 0zm-12.8-13.8c-.1-.3 0-.6.2-.6s.2-.1.1-.3v-.4c.6-.3 2.3-2.7 2-3 0 0 0-.2.3-.2s0-.3-.6-.7c-.7-.4-1.4-.6-1.6-.4-.2.1-.3 0-.1-.2.2-.4-1.7-1.6-2-1.2-.2 0-.3 0-.3-.2 0-.3-.1-.4-.3-.3-.2.2-.5 0-.6-.3-.6-1.4-2-.6-3.3 2l-.6 1.1 2 1.4c1.3.8 2 1.5 1.9 1.7-.2.3-.1.3.1.2.2-.1.9.2 1.5.8 1.3 1.2 1.6 1.3 1.3.6zm7.4-3.7c1.1-.7.1-2.5-1.6-3-.4-.2-.7-.5-.7-.9 0-1-1 .7-1 1.7 0 2 1.8 3.2 3.3 2.2zm-14.7-9.4c.5-1.2.5-2 0-1.8-.1.1-.5 0-.8-.4-.7-1.1-1.5-1.2-2-.2-.8 2-.3 3.3 1.3 3.3 1 0 1.3-.2 1.5-1zm18.8-.4.5-1-2.3-1.3c-2.4-1.4-3.7-1.7-3.5-1 0 .3.8.9 1.6 1.3a9 9 0 0 1 2.3 1.9l.9 1 .5-1zm-18-10.6c-2-1.1-3.3-1.3-3.3-.5l1.6 1c.9.4 1.9 1.1 2.2 1.6l.7.9.5-1 .6-.9zm23.4-.5c.7-1.3 2.3-3.6 3.4-5l3.2-4 1.1-1.4-1.1 1-2.3 1.7c-1.3 1.1-2.7 1.6-2.7 1 0-.2-.5 0-1 .4-1.6 1-1.7.9-.5-.9.6-.8 1.1-1.6 1.1-1.8 0-.1.4-.8 1-1.4 1.6-2.2.6-1.6-1.7 1a36 36 0 0 0-5.8 8c-1 1.8-1 2-.3 2.3a19 19 0 0 0 3.8 1.6c.2 0 1-1.1 1.8-2.5zm-12.5-13.1c2-2.1 3.5-3.9 3.5-4 0-.3-2 .8-2.3 1.3-.1.2-.4.2-.6.1-.1 0-.3 0-.3.3s-.2.2-.6-.2c-.5-.5-.5-.6 0-1.8.4-.7.6-1.4.5-1.5 0 0-1.7 1.3-3.6 3.2-3.4 3.2-6.2 7-6.2 8.4 0 .3.7 1 1.9 1.5l1.8.9 1.2-2.3a39 39 0 0 1 4.7-6zm17.3-8.1c1.2-4.2 1.2-4-.3-4.5-.8-.2-2-.4-2.7-.4h-1.3l.2 2.4c.3 3.6.4 3.9 1.5 4.3 1.8.6 2 .5 2.6-1.8z" style="fill:#4bd6e4;stroke-width:.352778" transform="translate(-44.5 -173.2)"/>
  <path d="m81.3 242.6-2.3-1.3-2.1.7c-3.8 1.3-7.9.1-13.7-4-5-3.4-7-6.3-7-10.4 0-1-.2-2.3-.5-3.2a4 4 0 0 1-.2-3.1c.2-.9.4-2.2.4-3a4226.6 4226.6 0 0 0 2.1-10.7c.3-1 .2-1.5 0-1.8-.7-1 .9-7.2 2.7-10.8l.6-1.1.5 1c.3.5.4 1 .2 1.3-.1.3 0 .3.4 0 .5-.4.6-.4.8.4.1.6.7 1.2 2 1.8l1.8.9 1.2-2.3a39 39 0 0 1 4.7-6c2-2 3.5-3.8 3.5-3.9 0-.3-2 .8-2.3 1.3-.1.2-.4.2-.6.1-.1 0-.3 0-.3.3s-.2.2-.6-.2c-.5-.5-.5-.6 0-1.8.4-.7.6-1.4.5-1.5l-2.3 1.9c-1.2 1-2.2 1.8-2.2 1.5 0-.2.2-.3.4-.3s.2-.5 0-1.2c-.5-1.4-.5-1.3.2-1.3.2 0 .5-.2.5-.3a10 10 0 0 1 2.7-2c3.2-2 5.4-2.3 8.4-1.4l1.8.5.3-1.7c.4-2.8.5-3.1 1.9-4.5 1.2-1.1 1.4-1.2 2.9-1a10.3 10.3 0 0 1 7.7 5.6l-.8 3c-1 2.9-1.1 3.4-.6 3 .5-.3 5 1.7 5 2.2 0 .2.6.9 1.5 1.4 1.2.9 1.6 1.4 2.3 3.4.8 2.2.8 2.6.4 4.3-.4 1.8-.4 1.9.7 3.7 1.7 3.2 2.2 4.8 2.2 8.4a17.6 17.6 0 0 1-3.7 11.7c-.7.6-1 1.2-1 2.1 0 .7-.2 2.3-.5 3.4a23.7 23.7 0 0 1-12.8 14.8c-3 1.5-4.1 1.5-6.8 0zm-12.8-13.8c-.1-.3 0-.6.2-.6s.2-.1.1-.3v-.4c.6-.3 2.3-2.7 2-3 0 0 0-.2.3-.2s0-.3-.6-.7c-.7-.4-1.4-.6-1.6-.4-.2.1-.3 0-.1-.2.2-.4-1.7-1.6-2-1.2-.2 0-.3 0-.3-.2 0-.3-.1-.4-.3-.3-.2.2-.5 0-.6-.3-.6-1.4-2-.6-3.3 2l-.6 1.1 2 1.4c1.3.8 2 1.5 1.9 1.7-.2.3-.1.3.1.2.2-.1.9.2 1.5.8 1.3 1.2 1.6 1.3 1.3.6zm7.4-3.7c1.1-.7.1-2.5-1.6-3-.4-.2-.7-.5-.7-.9 0-1-1 .7-1 1.7 0 2 1.8 3.2 3.3 2.2zm-14.7-9.4c.5-1.2.5-2 0-1.8-.1.1-.5 0-.8-.4-.7-1.1-1.5-1.2-2-.2-.8 2-.3 3.3 1.3 3.3 1 0 1.3-.2 1.5-1zm18.8-.4.5-1-2.3-1.3c-2.4-1.4-3.7-1.7-3.5-1 0 .3.8.9 1.6 1.3a9 9 0 0 1 2.3 1.9l.9 1 .5-1zm-18-10.6c-2-1.1-3.3-1.3-3.3-.5l1.6 1c.9.4 1.9 1.1 2.2 1.6l.7.9.5-1 .6-.9zm23.4-.5c.7-1.3 2.3-3.6 3.4-5l3.2-4 1.1-1.4-1.1 1-2.3 1.7c-1.3 1.1-2.7 1.6-2.7 1 0-.2-.5 0-1 .4-1.6 1-1.7.9-.5-.9.6-.8 1.1-1.6 1.1-1.8 0-.1.4-.8 1-1.4 1.6-2.2.6-1.6-1.7 1a36 36 0 0 0-5.8 8c-1 1.8-1 2-.3 2.3a19 19 0 0 0 3.8 1.6c.2 0 1-1.1 1.8-2.5zm-9.6 0c.2-.1 0-.4-.1-.5-.6-.3-.4-1.1.2-1.1.3 0 .5.1.5.3 0 .1.4.2 1 .2 1.1-.1 1.5-1.2.4-1.4-.8-.2-1-1-.2-1 .3 0 .6.2.6.4s0 .3.2.2v-1c-.3-.6-.4-.6-.6-.3-.3.4-.3.4-.3 0s-.4-.9-1-1a3 3 0 0 1-1.2-1c-.3-.4-.6-.7-.8-.6-.3 0-.4-.2-.4-.6 0-.5.2-.6.8-.5.5 0 .8 0 .7-.3-.1-.2-.4-.4-.6-.3-.3 0-.4-.1-.3-.4.4-.9-.2-.7-1.1.3-.5.6-1 .9-1.5.8-.4-.1-.7 0-.8.4-.1.4-.4.6-.7.6-.6-.3-2 2-1.7 3 0 .3.3.6.5.5.1-.1.3 0 .3.3s.4.7.9 1c.5.1.9.5.9.7 0 .4 0 .4.2 0 0-.2.3-.4.5-.4.1 0 .2.2 0 .5-.2.8 3.2 2 3.6 1.3zm.2-6.8.4-.8c.5-.6.5-.6-.1-.2-.3.3-.6.8-.6 1 0 .4 0 .5.2.4.1-.1.1-.3 0-.4zM90.2 183c1.2-4.2 1.2-4-.3-4.5-.8-.2-2-.4-2.7-.4h-1.3l.2 2.4c.3 3.6.4 3.9 1.5 4.3 1.8.6 2 .5 2.6-1.8zm-5.2-6c-.3-.3-.8.4-.6 1 .2.4.3.4.5-.2.1-.3.2-.7.1-.8z" style="fill:#44c7d6;stroke-width:.352778" transform="translate(-44.5 -173.2)"/>
  <path d="m81.3 242.6-2.3-1.3-2.1.7c-3.8 1.3-7.9.1-13.7-4-5-3.4-7-6.3-7-10.4 0-1-.2-2.3-.5-3.2a4 4 0 0 1-.2-3.1c.2-.9.4-2.2.4-3a4226.6 4226.6 0 0 0 2.1-10.7c.3-1 .2-1.5 0-1.8-.5-.7.2-4.6 1.5-8 1-2.6 2-4.4 1.6-2.9-.3 1 .4 2.5 1.2 2.5.4 0 .7 0 .7-.3 0-.2.3 0 .6.3s1.2.9 2 1.2l1.4.7 1.2-2.3a35 35 0 0 1 4.7-6c2-2 3.5-3.8 3.5-3.9 0-.3-2 .8-2.3 1.3-.1.2-.4.2-.6.1-.1 0-.3 0-.3.3s-.2.2-.6-.2c-.5-.5-.5-.6 0-1.8.8-1.6.8-1.8-.2-1-.5.3-.4.2.2-.5 1-1 1-1.1.4-1.4-.5-.3-.4-.5.8-1.2 1.7-1 4.6-1.2 7-.5l1.8.4.4-2c0-1 .4-2.3.6-2.8.5-.8.5-.8.7.7.3 1.7.6 1.4 1-1 .2-.9.1-1.1-.2-1l.3-.5c.6-.6 1-.7 2.3-.5 2.4.3 5 1.7 6.5 3.6.7.9 1.2 1.8 1.2 2l-.8 3c-1 2.9-1.1 3.4-.6 3 .5-.3 5 1.7 5 2.2 0 .2.6.9 1.5 1.4 1.2.9 1.6 1.4 2.3 3.4.8 2.2.8 2.6.4 4.3-.4 1.8-.4 1.9.7 3.7 1.7 3.2 2.2 4.8 2.2 8.4a17.6 17.6 0 0 1-3.7 11.7c-.7.6-1 1.2-1 2.1 0 .7-.2 2.3-.5 3.4a23.7 23.7 0 0 1-12.8 14.8c-3 1.5-4.1 1.5-6.8 0zm-12.8-13.8c-.1-.3 0-.6.2-.6s.2-.1.1-.3v-.4c.6-.3 2.3-2.7 2-3 0 0 0-.2.3-.2s0-.3-.6-.7c-.7-.4-1.4-.6-1.6-.4-.2.1-.3 0-.1-.2.2-.4-1.7-1.6-2-1.2-.2 0-.3 0-.3-.2 0-.3-.1-.4-.3-.3-.2.2-.5 0-.6-.3-.6-1.4-2-.6-3.3 2l-.6 1.1 2 1.4c1.3.8 2 1.5 1.9 1.7-.2.3-.1.3.1.2.2-.1.9.2 1.5.8 1.3 1.2 1.6 1.3 1.3.6zm7.4-3.7c1.1-.7.1-2.5-1.6-3-.4-.2-.7-.5-.7-.9 0-1-1 .7-1 1.7 0 2 1.8 3.2 3.3 2.2zm-14.7-9.4c.5-1.2.5-2 0-1.8-.1.1-.5 0-.8-.4-.7-1.1-1.5-1.2-2-.2-.8 2-.3 3.3 1.3 3.3 1 0 1.3-.2 1.5-1zm18.8-.4.5-1-2.3-1.3c-2.4-1.4-3.7-1.7-3.5-1 0 .3.8.9 1.6 1.3a9 9 0 0 1 2.3 1.9l.9 1 .5-1zm7.7-6.4c.3-.4.6-.6.8-.6.2.1.6-.3 1-1 .2-.6 1-1.6 1.6-2.2.6-.6 1.2-1.3 1.2-1.5 0-.2.2-.5.5-.7.7-.7.3-1.8-.7-1.6a9.3 9.3 0 0 0-4.5 4 7 7 0 0 1-1 1.7c-.2 0-.3.6-.3 1 0 1.6.7 2 1.4.9zM62 204.7c-2-1.1-3.3-1.3-3.3-.5l1.6 1c.9.4 1.9 1.1 2.2 1.6l.7.9.5-1 .6-.9zm23.4-.5c.7-1.3 2.3-3.6 3.4-5l3.2-4 1.1-1.4-1.1 1-2.3 1.7c-1.3 1.1-2.7 1.6-2.7 1 0-.2-.5 0-1 .4-1.6 1-1.7.9-.5-.9.6-.8 1.1-1.6 1.1-1.8 0-.1.4-.8 1-1.4 1.6-2.2.6-1.6-1.7 1a36 36 0 0 0-5.8 8c-1 1.8-1 2-.3 2.3a19 19 0 0 0 3.8 1.6c.2 0 1-1.1 1.8-2.5zm-7.2 1.2a20 20 0 0 0 2.9-6.3c-.1-.3 0-.5.5-.5s.8-.2.8-.4-.2-.3-.3-.2c-.2.1-.4 0-.5-.3-.2-.3 0-.4.5-.3.7.1.9-.4.2-.7-.3-.1-.2-.4.3-.8.5-.5.7-.9.5-1.4-.2-.4-.3-.5-.3-.1s-.1.4-.4 0c-.2-.3-.2-.6 0-.7l.2-.9c0-.6 0-.6-.4 0-.3.3-.6.5-.8.4-.1-.2 0-.4.2-.6.5-.3.2-1.4-.4-1.4-.7 0-1 .4-.6 1 .3.6.3.7-.2.7-.3 0-.4-.1-.3-.3.1-.2 0-.7-.2-1-.3-.6-.3-.8 0-.8.4 0 .4 0 .2-.2-.2 0-.3-.6-.3-1.2.2-1 .1-1-.5-1-.8.2-1.5.8-1.3 1.1.1.2 0 .3-.3.3s-1 .5-1.8 1.1l-1.7 1.6c-4 3.4-7.4 9.3-5.4 9.3.3 0 .5.1.4.3-.2.3 3 2.4 3.4 2.2.1 0 .3.1.3.3 0 .3 0 .4.2.3 0-.2 1 0 2 .4 2.3.8 2.4.8 3 0zm.8-16c0-.2 0-.3.2-.3s.4.1.4.3l-.2.4-.4-.4zm4.4 2.5c0-.2-.2-.4-.5-.4s-.5-.1-.3-.4c.2-.2 0-.3-.2-.1-.6.3-.5.8.3 1l.7.2v-.3zm6.8-9c1.2-4.1 1.2-3.9-.3-4.4-.8-.2-2-.4-2.7-.4h-1.3l.2 2.4c.3 3.6.4 3.9 1.5 4.3 1.8.6 2 .5 2.6-1.8zm2.8-4.4-1-.7c-1-.4-1.1.1-.2.7.8.4 1.2.4 1.2 0zm-23 9 1-.9-.6.9-1 .9.6-1z" style="fill:#49baca;stroke-width:.352778" transform="translate(-44.5 -173.2)"/>
  <path d="m81.3 242.6-2.3-1.3-2.1.7c-3.8 1.3-7.9.1-13.7-4-5-3.4-7-6.3-7-10.4 0-1-.2-2.3-.5-3.2a4 4 0 0 1-.2-3.1c.2-.9.4-2.2.4-3a4226.6 4226.6 0 0 0 2.1-10.7c.3-1 .2-1.5 0-1.8-.6-.8 1-8.2 2.1-9.4.2-.2.7.1 1.3.6 1 1 1.6 1.1 1.6.6 0-.2.9 0 2 .7l2 1 1.2-2.2c.7-1.4 2.6-3.8 4.7-6 2-2.1 3.5-3.9 3.5-4 0-.3-2 .8-2.3 1.3-.1.2-.4.2-.6.1-.1 0-.3 0-.3.3s-.2.2-.6-.2c-.5-.5-.5-.6 0-1.8.8-1.5.8-1.8 0-1.2-.4.2 0 0 .7-.8.8-.7 1.3-1.3 1.1-1.5-.4-.4-1-.2-.7.3.1.3 0 .5-.1.3-1.1-.6.7-1.7 3.5-2 1.3-.2 2.5 0 3.7.3l1.8.4.4-2c0-1 .4-2.3.6-2.6.3-.7.4-.6.7.7l.5 1.4.3-1.8.3-2c-.4-.5.9-1 1.9-.8l1.3.2.7.5c.3.3.8.5 1.1.4.4-.1 1 0 1.6.4a12 12 0 0 1 3.4 4.1l-.8 3c-1 2.9-1.1 3.4-.6 3 .5-.3 5 1.7 5 2.2 0 .2.6.9 1.5 1.4 1.2.9 1.6 1.4 2.3 3.4.8 2.2.8 2.6.4 4.3-.4 1.8-.4 1.9.7 3.7 1.7 3.2 2.2 4.8 2.2 8.4a17.6 17.6 0 0 1-3.7 11.7c-.7.6-1 1.2-1 2.1 0 .7-.2 2.3-.5 3.4a23.7 23.7 0 0 1-12.8 14.8c-3 1.5-4.1 1.5-6.8 0zm-12.8-13.8c-.1-.3 0-.6.2-.6s.2-.1.1-.3v-.4c.6-.3 2.3-2.7 2-3 0 0 0-.2.3-.2s0-.3-.6-.7c-.7-.4-1.4-.6-1.6-.4-.2.1-.3 0-.1-.2.2-.4-1.7-1.6-2-1.2-.2 0-.3 0-.3-.2 0-.3-.1-.4-.3-.3-.2.2-.5 0-.6-.3-.6-1.4-2-.6-3.3 2l-.6 1.1 2 1.4c1.3.8 2 1.5 1.9 1.7-.2.3-.1.3.1.2.2-.1.9.2 1.5.8 1.3 1.2 1.6 1.3 1.3.6zm-9-1.6-1.2-.9-1.1-.7.8 1c.9 1 1.5 1.2 1.5.6zm-2.3-2.3c0-.3-.2-.6-.4-.6-.6 0-.7.5-.3.9.4.4.7.2.7-.3zm18.7.2c1.1-.7.1-2.5-1.6-3-.4-.2-.7-.5-.7-.9 0-1-1 .7-1 1.7 0 2 1.8 3.2 3.3 2.2zm-14.7-9.4c.5-1.2.5-2 0-1.8-.1.1-.5 0-.8-.4-.7-1.1-1.5-1.2-2-.2-.8 2-.3 3.3 1.3 3.3 1 0 1.3-.2 1.5-1zm18.8-.4.5-1-2.3-1.3c-2.4-1.4-3.7-1.7-3.5-1 0 .3.8.9 1.6 1.3a9 9 0 0 1 2.3 1.9l.9 1 .5-1zm7.7-5.6c0-.3.1-.5.3-.4.1.1.4 0 .7-.4a388.4 388.4 0 0 0 3.7-5.3c1.2-1.8 1-2.6-.5-2.4-1.2.1-4.2 2.7-4.2 3.6 0 .3-.2.7-.5 1a7 7 0 0 0-1 2c-.5 1.5-.5 1.5.2 2 1 .5 1.3.5 1.3-.1zm-25.7-5c-2-1.1-3.3-1.3-3.3-.5l1.6 1c.9.4 1.9 1.1 2.2 1.6l.7.9.5-1 .6-.9zm23.4-.5c.7-1.3 2.3-3.6 3.4-5l3.2-4 1.1-1.4-1.1 1-2.3 1.7c-1.3 1.1-2.7 1.6-2.7 1 0-.2-.5 0-1 .4-1.6 1-1.7.9-.5-.9.6-.8 1.1-1.6 1.1-1.8 0-.1.4-.8 1-1.4 1.2-1.7.8-1.9-.7-.2a5 5 0 0 1-1.4 1.2c-.2 0-.3 0-.2.2.4.6-1 1.6-1.8 1.3-1-.3-1-.9 0-.9l.6-.1.3-.8c.2-.6.1-.6-.4 0s-.6.6-.4.1c.1-.4 0-.6-.3-.6s-.6.2-.6.4 0 .3-.1.2c-.3-.3.2-1.3.5-1.1.2.1.3 0 .3-.2s-.2-.4-.4-.4 0-.2.4-.5c.5-.3.7-.5.5-.5-.3 0-.4-.2-.2-.4.1-.3 0-.4-.4-.2-.5.2-.5.2 0-.7.3-.4.4-.8.2-.8s-.4.2-.5.5c-.1.3-.7.5-1.4.4h-1.2l1.1-.5c1-.5 1-.5 0-.3-.5.2-.9 0-.9-.1 0-.3-.2-.3-.4-.2-.3.2-.3.1 0-.3.4-.5.4-.6 0-.7-1.2-.5-3.1.9-7.8 5.6-3.4 3.4-5.2 7.2-3.8 8.1.3.3.7.4.8.3.2 0 .2 0 0 .3 0 .4.3.6 1.1.8.7.1 1.3.3 1.3.5s3.3 1.4 4.5 1.6l.7.3c.6.6 1.2.1 2-1.7l1-2c.2 0 0 .6-.3 1.2-.5 1-.5 1.1 0 1.5a19 19 0 0 0 4 1.6c.1 0 .9-1.1 1.7-2.5zm-3.9-4.9c0-.2 0-.4.2-.5.1-.1.4 0 .5.1.1.2 0 .4-.1.6-.2 0-.5 0-.6-.2zm1.4-1.6c0-.3 0-.5.3-.5.1 0 .2.1.2.3 0 .2 0 .4-.2.5-.2.1-.3 0-.3-.3zm-1.1-5.2c.2-.3.5-.5.5-.4.2.2-.3.8-.7.8-.1 0-.1-.2.2-.4zm12.4 7.3c.7-.7.7-1.2 0-1-.2.1-.5.5-.6.9-.2.8-.1.8.6.1zm-3.8-17.4.8-3c0-.6-2.4-1.3-4-1.3h-1.3l.2 2.4c.3 3.6.4 3.9 1.5 4.3 1.8.7 2 .5 2.8-2.4zm2-3c.9-.4.6-1-.7-1.9l-1.2-.8.5.8c.3.4.6 1 .6 1.4 0 .7 0 .7.8.4z" style="fill:#949d98;stroke-width:.352778" transform="translate(-44.5 -173.2)"/>
  <path d="M81.3 242.5c-2.4-1.2-2.4-1.2-4-.6a12 12 0 0 1-7.7-.2c-2.7-1-8-4.6-10.3-6.9-2-2-3-4.4-3-7.3 0-.9-.3-2.3-.6-3-.3-.8-.5-1.8-.3-2.4l.5-3.8c.3-2.2 1.4-7.9 2-9.8.2-.4.3-.4.7.2.6 1 2.7 1.2 3.2.4.2-.3.4-.1.6.4.2.7.3.8.6.4a7 7 0 0 0 .5-1.9c.2-.9.5-1.4 1-1.6.6-.2.3-.5-1.8-1.6-3.2-1.6-3.8-1.7-4.2 0-.1.8-.3 1.1-.5 1-.6-.7 1.2-8.5 2.1-9.4.2-.2.7.1 1.3.6.5.5 1.2.8 1.5.7.4 0 1.4.2 2.4.7l1.7 1 1.2-2.3c.7-1.4 2.6-3.8 4.7-6 2-2.1 3.5-3.9 3.5-4 0-.3-2 .8-2.3 1.3-.1.2-.4.2-.6.1-.1 0-.3 0-.3.3s-.2.2-.6-.2c-.5-.5-.5-.6 0-1.8.4-.7.6-1.4.5-1.6-.1-.1.2-.4.7-.7.9-.4 1-1 .1-1.4-.3 0-.4 0-.2.5.1.3 0 .5-.1.3-1.1-.6.7-1.7 3.5-2 1.3-.2 2.5 0 3.7.3 2 .6 2.3.4 2.3-1.7 0-.7.2-1.7.4-2.3l.4-1 .4 1.5.5 1.4.3-1.8.3-2c-.4-.5.9-1 1.9-.8l1.3.2.7.5c.3.3.8.5 1.1.4.4-.1 1 0 1.6.4 1.1.8 3.4 3.5 3.4 4.1l-.8 2.8c-1 2.5-1.2 3.6-.6 3.2.2 0 1.4.3 2.7.8 1.6.7 2.3 1.1 2.3 1.6 0 .3.3.7.6.8 1.6.5 2.5 1.7 3.3 4 .6 2 .6 2.6.3 4-.4 1.7-.4 1.8 1.1 4.7 1.4 2.9 1.5 3.3 1.7 6.5a18 18 0 0 1-3.3 12.3c-1 1-1.3 1.8-1.3 2.6 0 1.9-1 5.2-2.1 7.6A26 26 0 0 1 87 243c-2.6 1-3 1-5.7-.5zm-11.8-14.9L71 225c.5-.7.5-1 .2-1.2l-3.5-2a11.9 11.9 0 0 0-3.5-1.8c-.6.2-2.6 3.4-2.4 3.8 0 .2 0 .3-.2.3s-.4.2-.4.4a17 17 0 0 0 6 4h.3c-.2 1.6 1 1 2-.8zm-5.8-1.5a8 8 0 0 1-2-1.7c.2-.2 4 2.3 4.3 2.8.3.5 0 .4-2.3-1.1zm-4.2 1.1-1.2-.9-1.1-.7.8 1c.9 1 1.5 1.2 1.5.6zm-2.3-2.3c0-.3-.2-.6-.4-.6-.6 0-.7.5-.3.9.4.4.7.2.7-.3zm18.7.2c1.1-.7.1-2.5-1.6-3-.4-.2-.7-.5-.7-.9 0-1-1 .7-1 1.7 0 2 1.8 3.2 3.3 2.2zm3.9-8.3c.3-1.2.8-2 1.1-2 .8-.2-4.7-3.2-5.7-3.2-.8 0-1 .3-1.3 2-.4 1.7-.4 2.2 0 3 .7 1 2.5 1.4 3.7.5.9-.5 1-.5 1 .5 0 1.7.5 1.3 1.2-.8zm-18.6-1.1c.5-1.2.5-2 0-1.8-.1.1-.5 0-.8-.4-.7-1.1-1.5-1.2-2-.2-.8 2-.3 3.3 1.3 3.3 1 0 1.3-.2 1.5-1zm26.5-6c0-.3.1-.5.3-.4.1.1.4 0 .7-.4a388.4 388.4 0 0 0 3.7-5.3c1.2-1.8 1-2.6-.5-2.4-1.2.1-4.2 2.7-4.2 3.6 0 .3-.2.7-.5 1a7 7 0 0 0-1 2c-.5 1.5-.5 1.5.2 2 1 .5 1.3.5 1.3-.1zm-2.3-5.5c.7-1.3 2.3-3.6 3.4-5l3.2-4 1.1-1.4-1.1 1-2.3 1.7c-1.3 1.1-2.7 1.6-2.7 1 0-.2-.5 0-1 .4-1.6 1-1.7.9-.5-.9.6-.8 1.1-1.6 1.1-1.8 0-.1.4-.8 1-1.4.4-.7.8-1.3.7-1.4-.1-.2-3.3 2.9-3.7 3.6-.2.4-.6.5-1.1.3-1-.3-1-.9 0-.9l.6-.1.3-.8c.2-.6.1-.6-.4 0s-.6.6-.4.1c.1-.4 0-.6-.3-.6s-.6.2-.6.4 0 .3-.1.2c-.3-.3.2-1.3.5-1.1.2.1.3 0 .3-.2s-.2-.4-.4-.4 0-.2.4-.5c.5-.3.7-.5.5-.5-.3 0-.4-.2-.2-.4.1-.3 0-.4-.4-.2-.5.2-.5.2 0-.7.3-.4.4-.8.2-.8s-.4.2-.5.5c-.1.3-.7.5-1.4.4h-1.2l1.1-.5c1-.5 1-.5 0-.3-.5.2-.9 0-.9-.1 0-.3-.2-.3-.4-.2-.3.2-.3.1 0-.3.4-.5.4-.6 0-.7-1.2-.5-3.1.9-7.8 5.6-3.4 3.4-5.2 7.2-3.8 8.1.3.3.7.4.8.3.2 0 .2 0 0 .3 0 .4.3.6 1.1.8.7.1 1.3.3 1.3.5s3.3 1.4 4.5 1.6l.7.3c.5.5 1.5.2 1.7-.5.2-.7.9-.9 1.4-.4.3.3 3 1.5 3.5 1.5.2 0 1-1.1 1.8-2.5zm-3.9-4.9c0-.2 0-.4.2-.5.2-.1.3 0 .3.3 0 .6-.2.7-.5.2zm.3-6.8c.2-.3.5-.5.5-.4.2.2-.3.8-.7.8-.1 0-.1-.2.2-.4zm12.4 7.3c.7-.7.7-1.2 0-1-.2.1-.5.5-.6.9-.2.8-.1.8.6.1zm-3.8-17.4c.5-1.5.8-3 .8-3.1 0-.5-2.4-1.2-4-1.2h-1.4l.2 2.2.3 3c0 .6.3 1 1.1 1.4 2 .8 2.2.7 3-2.3zm2-3c.9-.4.6-1-.7-1.9l-1.2-.8.5.8c.3.4.6 1 .6 1.4 0 .7 0 .7.8.4z" style="fill:#3cb4c6;stroke-width:.352778" transform="translate(-44.5 -173.2)"/>
  <path d="M81.3 242.5c-2.4-1.2-2.4-1.2-4-.6a12 12 0 0 1-7.7-.2c-2.7-1-8-4.6-10.3-6.9-2-2-3-4.4-3-7.3 0-.9-.3-2.3-.6-3-.3-.8-.5-1.8-.3-2.4l.5-3.8c.3-2.2 1.4-7.9 2-9.8.2-.4.3-.4.7.2.6 1 2.7 1.2 3.2.4.2-.3.4-.1.6.4.2.7.3.8.6.4a7 7 0 0 0 .5-1.9c.2-.9.5-1.4 1-1.6.6-.2.3-.5-1.8-1.6-3.2-1.6-3.8-1.7-4.2 0-.1.8-.3 1.1-.5 1-.4-.5.2-4 1.2-7.1l.7-2.2.7 1.4c.4.8.8 1.3 1 1.2 0 0 .3 0 .6.3.5.4.5.3.3-.2-.1-.3 0-.6.2-.6s.2-.2.1-.4c-.5-.7.8-.6 2.5.2l1.7 1 1.2-2.3c.7-1.4 2.6-3.8 4.7-6 2-2.1 3.5-3.9 3.5-4 0-.3-2 .8-2.3 1.3-.1.2-.4.2-.6.1-.1 0-.3 0-.3.3s-.2.2-.6-.2c-.5-.5-.5-.6 0-1.8.4-.7.6-1.4.5-1.6-.1-.1.2-.4.7-.7.4-.2.8-.5.8-.7 0-.2.3-.4.6-.4.6 0 .7-1 0-1.1-.2-.1.6-.3 1.7-.4 1.5-.2 2.7 0 3.9.3 2 .6 2.3.4 2.3-1.8 0-.8.2-1.7.3-2 .3-.7.3-.7.7.2l.4 1.5c0 .2.2.6.4.7.2.1.3-.4.3-1.4 0-2.4.6-3.4 2-3.4 1.7 0 4 1.3 4 2.2 0 .6-.1.7-.8.5-.4-.2-1.6-.4-2.7-.5l-1.9-.2.2 2.3.3 3c0 .7.3 1 1.2 1.4 2 .8 2.2.7 2.8-2 .5-1.7.8-2.3 1.3-2.4.4 0 1-.3 1.4-.8l.9-.7.7 1c1 1 1 1.3 0 4.1-1 2.5-1.2 3.6-.6 3.2.2 0 1.4.3 2.7.8 1.6.7 2.3 1.1 2.3 1.6 0 .3.3.7.6.8 1.6.5 2.5 1.7 3.3 4 .6 2 .6 2.6.3 4-.4 1.7-.4 1.8 1.1 4.7 1.4 2.9 1.5 3.3 1.7 6.5a18 18 0 0 1-3.3 12.3c-1 1-1.3 1.8-1.3 2.6 0 1.9-1 5.2-2.1 7.6A26 26 0 0 1 87 243c-2.6 1-3 1-5.7-.5zm-11.8-14.9L71 225c.5-.7.5-1 .2-1.2l-3.5-2a11.9 11.9 0 0 0-3.5-1.8c-.6.2-2.6 3.4-2.4 3.8 0 .2 0 .3-.2.3s-.4.2-.4.4a17 17 0 0 0 6 4h.3c-.2 1.6 1 1 2-.8zm-5.8-1.5a8 8 0 0 1-2-1.7c.2-.2 4 2.3 4.3 2.8.3.5 0 .4-2.3-1.1zm-4.2 1.1-1.2-.9-1.1-.7.8 1c.9 1 1.5 1.2 1.5.6zm-2.3-2.3c0-.3-.2-.6-.4-.6-.6 0-.7.5-.3.9.4.4.7.2.7-.3zm18.7.2c1.1-.7.1-2.5-1.6-3-.4-.2-.7-.5-.7-.9 0-1-1 .7-1 1.7 0 2 1.8 3.2 3.3 2.2zm3.9-8.3c.3-1.2.8-2 1.1-2 .8-.2-4.7-3.2-5.7-3.2-.8 0-1 .3-1.3 2-.4 1.7-.4 2.2 0 3 .7 1 2.5 1.4 3.7.5.9-.5 1-.5 1 .5 0 1.7.5 1.3 1.2-.8zm-18.6-1.1c.5-1.2.5-2 0-1.8-.1.1-.5 0-.8-.4-.7-1.1-1.5-1.2-2-.2-.8 2-.3 3.3 1.3 3.3 1 0 1.3-.2 1.5-1zm28-6.8c1.5-2.8 4.1-6 4.1-5.1 0 .3-.2.8-.4 1l-.2.5c.2 0 2.7-3.4 2.7-3.7 0-.2 1.8-3 2.2-3.4l.6-1.2c.4-1 .4-1-.1-.5a15 15 0 0 0-1.8 2.4c-.7 1-1.4 1.8-1.5 1.7 0-.1 0-.5.3-.9.7-.7 2.1-3.5 2.3-4.4 0-.3 0-.6-.2-.6s-.4.2-.4.5c0 .5-2.9 3-3.5 3-.3 0-.4.1-.2.3l-1.3 1.5c-2.4 2-4 4-5.3 6.4-1.8 3.4-1.7 5 .5 4.6.8-.1 1.2-.5 2.1-2.1zM78 207c-.1-.3.8-2.2 1.1-2.2l1.6.7c3 1.4 3 1.4 4.6-1.4.7-1.3 2.3-3.6 3.4-5l3.2-4 1.1-1.4-1.1 1-2.3 1.7c-1.3 1.1-2.7 1.6-2.7 1 0-.2-.5 0-1 .4-1.6 1-1.7.9-.5-.9.6-.8 1.1-1.6 1.1-1.8l.9-1.4c1.2-1.5 1.1-1.9 0-.8-.6.4-.8.6-.6.2.3-.3.4-.6.2-.6s0-.3.4-.6c.8-.7 1.8-2.6 1.3-2.6-.2 0-.5.2-.7.5-.4.3-.4.3-.2-.2.1-.4 0-.6-.2-.6s-.3-.2-.2-.3c0-.2-.6-.3-1.6-.3-1.6 0-1.7 0-1.1-.6.5-.7.5-.7 0-.5-.6.2-1.2-.6-.9-1.1.2-.3-2.7-.4-3 0l-1.2 1a90.7 90.7 0 0 0-9.6 9.2c-1.4 1.9-2.8 5.6-2.3 6.4 0 .1 0 .3-.2.3s-.3.2-.2.5c.2.5.3.5.7 0 .5-.7.5-.7.7 0 .1.3.5.5.9.5 1 0 1.8.4 1.6.8-.3.4 1.8 1.4 2.3 1.2.2-.1.3 0 .3.2 0 .4 0 .4.3 0s.4-.4.5 0c.2.4.6.5 1.3.5.6 0 1.2 0 1.3.2.2.4.9.4.8 0zm-6.1-1.8c-.1-.2 0-.4.1-.4.2 0 .4.2.4.4l-.1.3-.4-.3zm27.1-10c.1-.4 0-.5-.1-.4l-.4.5c0 .5.3.4.5-.2zm-7-17.9c-1.2-.7-1.6-1.3-.5-.7.8.4 2 1.4 1.8 1.4l-1.3-.7z" style="fill:#52a6b8;stroke-width:.352778" transform="translate(-44.5 -173.2)"/>
  <path d="M81.3 242.5c-2.4-1.2-2.4-1.2-4-.6a12 12 0 0 1-7.7-.2c-2.7-1-8-4.6-10.3-6.9-2-2-3-4.4-3-7.4v-1.8l1.1 1.1 2 1.5 1.6.8c3.7 2.3 4.3 2.6 5.6 2.6 1.4 0 1.5 0 1-.9-.3-.5-.4-.5-.4 0 0 .3-.3.1-.6-.5-.3-.5-.8-.9-1-.8-.3.1-.4 0-.2-.4 0-.3 0-.4-.2-.3-.2.1-.6-.1-.8-.5a7 7 0 0 0-2.1-1.5 12 12 0 0 1-2-1.2c-.7-.6-.6-2.6 0-2.6.3 0 .6-.1.6-.3 0-.2.2-.6.5-.8 1-1 .8-1.4-.9-1.5-1.1-.1-1.6 0-2 .4-.2.4-.4.5-.4.2 0-.2.1-.5.3-.6.2-.1.3-.4.3-.6 0-.3-.3-.1-.7.4-.8 1-.8.8-.1-.6.6-1.1.7-2.6.2-2.6-.2 0-.8.7-1.3 1.5l-1 1.5.2-2a55 55 0 0 1 1-5.5c1.1-4.8 1-4.6 1.6-3.7.6 1 2.7 1.2 3.2.4.2-.3.4-.1.6.4.2.7.3.8.6.4a7 7 0 0 0 .5-1.9c.2-.9.5-1.4 1-1.6.6-.2.3-.5-1.8-1.6-3.2-1.6-3.8-1.7-4.1 0-.2.6-.4 1.1-.6 1-.5-.3 0-3 1-6.3l.9-2.8.8 1.4 1.1 1.4c.2 0 .3.1.2.3 0 .1 0 .2.2 0 .2 0 .5-.6.6-1.2.1-.6.3-1 .5-1l2 .8 1.7 1 1.2-2.3c.7-1.4 2.6-3.8 4.7-6 2-2.1 3.5-3.9 3.5-4 0-.3-2 .8-2.3 1.3-.1.2-.4.2-.6.1-.1 0-.3 0-.3.3s-.2.2-.6-.2c-.5-.5-.5-.6 0-1.8.4-.6.6-1.3.6-1.5 0-.2.8-1 1.9-1.7 1-.7 1.6-1.2 1.3-1.1l-1-.1c-1-.6 3.6-.8 5.4-.2l2 .5c.2 0 .3-.7.3-1.7 0-.9.2-2 .3-2.5l.3-.9.4 1 .4 1.5c0 .2.2.6.4.7.2.1.3-.4.3-1.4 0-2.4.6-3.4 2-3.4 1.7 0 4 1.3 4 2.2 0 .6-.1.7-.8.5a19 19 0 0 0-2.7-.5l-1.9-.2.3 3c.1 1.6.3 3 .5 3.2l1.5.8c1.4.5 1.4.5 1.7-.4l.8-2.5c.3-1.1.6-1.6 1.2-1.7.5-.1.8-.3.8-.5 0 0 .3-.4.7-.6.6-.4.8-.3 1.4.6l.8 1-1 2.8c-.9 2.9-1 3.8-.5 3.4.6-.3 5 1.7 5 2.3 0 .3.5.9 1.2 1.2 1.3.6 1.9 1.5 2.8 4.4.5 1.6.6 2 .1 3.5-.5 1.7-.5 1.7.7 3.6a15 15 0 0 1 2.2 8.5c0 4.6-1.3 8.9-3.5 11.3-.7 1-1 1.7-1 2.5 0 1.9-1 5.2-2.2 7.6A26 26 0 0 1 87 243c-2.6 1-3 1-5.7-.5zm-12-10.9-.3-.4c-.2-.1-.4 0-.4.2s.2.4.4.4.3-.1.3-.2zm-.1-3.5c.3-.6 1-1.8 1.7-2.6l.9-1.6c-1.2-1-7.3-4.1-7.6-4-.6.2-2.6 3.4-2.4 3.8 0 .2 0 .3-.2.3s-.4.2-.4.4c0 .7 5.3 4.3 5.9 4l.4.1c-.2 1.2 1 1 1.7-.4zm-5.5-2a8 8 0 0 1-2-1.7c.2-.2 4 2.3 4.3 2.8.3.5 0 .4-2.3-1.1zm12.2-1c1.1-.7.1-2.5-1.6-3-.4-.2-.7-.5-.7-.9 0-1-1 .7-1 1.7 0 2 1.8 3.2 3.3 2.2zm3.9-8.3c.3-1.2.8-2 1.1-2 .8-.2-4.7-3.2-5.7-3.2-.8 0-1 .3-1.3 2-.4 1.7-.4 2.2 0 3 .7 1 2.5 1.4 3.7.5.9-.5 1-.5 1 .5 0 1.7.5 1.3 1.2-.8zm-18.6-1.1c.5-1.2.5-2 0-1.8-.1.1-.5 0-.8-.4-.7-1.1-1.5-1.2-2-.2-.8 2-.3 3.3 1.3 3.3 1 0 1.3-.2 1.5-1zm28-6.8c1.5-2.8 4.1-6 4.1-5.1 0 .3-.2.8-.4 1l-.2.5c.2 0 2.7-3.4 2.7-3.7 0-.2 1.8-3 2.2-3.4l.6-1.2c.4-1 .4-1-.1-.5a15 15 0 0 0-1.8 2.4c-.7 1-1.4 1.8-1.5 1.7 0-.1 0-.5.3-.9.7-.7 2.1-3.5 2.3-4.4 0-.3 0-.6-.2-.6s-.4.2-.4.5c0 .5-2.9 3-3.5 3-.3 0-.4.1-.2.3l-1.3 1.5c-2.4 2-4 4-5.3 6.4-1.8 3.4-1.7 5 .5 4.6.8-.1 1.2-.5 2.1-2.1zm-10.8-2.5c.3-.8.6-1.5.8-1.5l1.6.7c3 1.4 3 1.4 4.6-1.4.7-1.3 2.3-3.6 3.4-5l3.2-4 1.1-1.4-1.1 1-2.3 1.7c-1.3 1.1-2.7 1.6-2.7 1 0-.2-.5 0-1 .4-1.6 1-1.7.9-.5-.9.6-.8 1.1-1.6 1.1-1.8l.9-1.4.9-1.4c0-.2.3-.6.6-1 .6-.7.6-.7 0-.3-.7.6-.8.1-.3-1 .5-.8 0-1-.6-.2-.4.3-.4.3-.2-.2.1-.4 0-.6-.2-.6s-.3-.2-.2-.3c0-.2-.6-.3-1.6-.3-1.6 0-1.7 0-1.1-.6.5-.7.5-.7 0-.5-.6.2-1.2-.6-.9-1.1.2-.3-2.7-.4-3 0l-1.2 1a90.7 90.7 0 0 0-9.6 9.2c-1.4 1.9-2.8 5.6-2.3 6.4 0 .1 0 .3-.2.3s-.3.2-.2.5c.2.5.3.5.7 0 .5-.7.5-.7.7 0 .1.3.5.5.9.5 1 0 1.8.4 1.6.8-.3.4 1.8 1.4 2.3 1.2.2-.1.3 0 .3.2 0 .4 0 .4.3 0s.4-.4.5 0c.2.4.6.5 1.3.5.7 0 1.2 0 1.3.4.3.7.5.6 1-1zm-6.4-1.1c-.1-.2 0-.4.1-.4.2 0 .4.2.4.4l-.1.3-.4-.3zm15-12.9.8-.6c.7-.3.7-.3.3.2-.5.6-1.1.8-1.1.4zm12.1 2.8c.1-.3 0-.4-.1-.3l-.4.5c0 .5.3.4.5-.2zm-40.6 29.3c-.3-.8.1-1 .6-.2.3.5.3.8 0 .8-.2 0-.5-.3-.6-.6zm-1-.9c-.1-.2-.2-.4 0-.5 0-.1.2 0 .3.3.3.7 0 .8-.3.2zm0-1.5c.2-.3.4-.6.6-.6.2 0 .2.2 0 .6l-.6.5v-.5zm34.2-44.9c-.6-.5-.6-.5.1-.1l.8.5c0 .3-.2.2-.9-.4z" style="fill:#cc8c53;stroke-width:.352778" transform="translate(-44.5 -173.2)"/>
  <path d="M81.3 242.5c-2.4-1.2-2.4-1.2-4-.6a12 12 0 0 1-7.7-.2c-2.7-1-8-4.6-10.3-6.9-2-2-3-4.4-3-7.4v-1.8l1.1 1.1 2 1.5 1.6.8c3.7 2.3 4.3 2.6 5.6 2.6 1.4 0 1.5 0 1-.9-.3-.5-.4-.5-.4 0 0 .3-.3.1-.6-.5-.3-.5-.8-.9-1-.8-.3.1-.4 0-.2-.4 0-.3 0-.4-.2-.3-.2.1-.6-.1-.8-.5a7 7 0 0 0-2.1-1.5 12 12 0 0 1-2-1.2c-.7-.6-.6-2.6 0-2.6.3 0 .6-.1.6-.3 0-.2.2-.6.5-.8 1-1 .8-1.4-.9-1.5-1.1-.1-1.6 0-2 .4-.2.4-.4.5-.4.2 0-.2.1-.5.3-.6.2-.1.3-.4.3-.6 0-.3-.3-.1-.7.4-.8 1-.8.8-.1-.6.6-1.1.7-2.6.2-2.6-.2 0-.8.7-1.3 1.5l-1 1.5.2-2a55 55 0 0 1 1-5.5c1.1-4.8 1-4.6 1.6-3.7.6 1 2.7 1.2 3.2.4.2-.3.4-.1.6.4.2.7.3.8.6.4a7 7 0 0 0 .5-1.9c.2-.9.5-1.4 1-1.6.6-.2.3-.5-1.8-1.6-3.2-1.6-3.8-1.7-4.1 0-.2.6-.4 1.1-.6 1-.5-.3 0-3 1-6.3l.9-2.8.8 1.4 1.1 1.4c.2 0 .3.3.3.6s0 .6.2.6c.4 0 .8-1.3.5-1.8-.2-.3-.1-.3.2-.1.3.2.4 0 .3-.5-.2-.7-.2-.7 1.5.1a7 7 0 0 1 1.7 1L66 201c-.3.7-.5 1.6-.5 2 0 .5.4-.2.8-1.5 1.7-5 3.6-7.6 9.7-13.5 3.2-3 3.9-4 3.5-4.3-.3-.4-.2-.6.2-.7.3-.2.5-.4.3-.6 0-.2.1-.3.5-.2 2.6.8 2.6.8 2.6-1 0-1 .2-2.1.3-2.6l.3-.9.4 1 .4 1.5c0 .2.2.6.4.7.2.1.3-.4.3-1.4 0-2.4.6-3.4 2-3.4 1.7 0 4 1.3 4 2.2 0 .6-.1.7-.8.5a19 19 0 0 0-2.7-.5l-1.9-.2.3 3c.1 1.6.3 3 .5 3.2l1.5.8c1.4.5 1.4.5 1.7-.4l.8-2.5c.3-1.1.6-1.6 1.2-1.7.5-.1.8-.3.8-.5 0 0 .3-.4.7-.6.6-.4.8-.3 1.4.6l.8 1-1 2.8c-.9 2.9-1 3.8-.5 3.4.6-.3 5 1.7 5 2.3 0 .3.5.9 1.2 1.2 1.3.6 1.9 1.5 2.8 4.4.5 1.6.6 2 .1 3.5-.5 1.7-.5 1.7.7 3.6a15 15 0 0 1 2.2 8.5c0 4.6-1.3 8.9-3.5 11.3-.7 1-1 1.7-1 2.5 0 1.9-1 5.2-2.2 7.6A26 26 0 0 1 87 243c-2.6 1-3 1-5.7-.5zm-12-10.9-.3-.4c-.2-.1-.4 0-.4.2s.2.4.4.4.3-.1.3-.2zm-.1-3.5c.3-.6 1-1.8 1.7-2.6l.9-1.6c-1.2-1-7.3-4.1-7.6-4-.6.2-2.6 3.4-2.4 3.8 0 .2 0 .3-.2.3s-.4.2-.4.4c0 .7 5.3 4.3 5.9 4l.4.1c-.2 1.2 1 1 1.7-.4zm-5.5-2a8 8 0 0 1-2-1.7c.2-.2 4 2.3 4.3 2.8.3.5 0 .4-2.3-1.1zm13-2.2c.2-.7.2-1.3 0-1.1-.1 0-.4-.2-.5-.6-.1-.4-.7-1-1.2-1.2-.6-.3-1-.7-1.2-1-.2-.5-1.3 2-1.3 3 0 .5.3 1.2.6 1.6.4.7.8.8 1.8.7 1 0 1.3-.2 1.7-1.4zm3-7.1c.4-1.2 1-2 1.2-2 .8-.2-4.7-3.2-5.7-3.2-.8 0-1 .3-1.3 2-.4 1.7-.4 2.2 0 3 .7 1 2.5 1.4 3.7.5.9-.5 1-.5 1 .5 0 1.7.5 1.3 1.2-.8zm-19.3-.2c.5 0 1.5-2 1.5-3 0-.3-.2-.5-.5-.5a1 1 0 0 1-.8-.5 2 2 0 0 0-.9-.7c-1.2-.4-2.1 2.8-1.3 4.4.3.4.6.6 1 .5l1-.2zm28.7-7.7c1.6-2.8 4.2-6 4.2-5.1 0 .3-.2.8-.4 1l-.2.5c.2 0 2.7-3.4 2.7-3.7 0-.2 1.8-3 2.2-3.4l.6-1.2c.4-1 .4-1-.1-.5a15 15 0 0 0-1.8 2.4c-.7 1-1.4 1.8-1.5 1.7 0-.1 0-.5.3-.9.7-.7 2.1-3.5 2.3-4.4 0-.3 0-.6-.2-.6s-.4.2-.4.5c0 .5-2.9 3-3.5 3-.3 0-.4.1-.2.3l-1.3 1.5c-2.4 2-4 4-5.3 6.4-1.8 3.4-1.7 5 .5 4.6.8-.1 1.2-.5 2.1-2.1zm-10.8-1.1c.2-.4.1-1 0-1.1-.2-.3-.1-.4.2-.2.4.2.4.2.3-.3-.2-.3-.1-.6 0-.6.3 0 .4-.1.2-.3-.2-.3.6 0 4 1.3.2.1.4.4.4.6 0 .2.8-.9 1.7-2.4 1.5-2.7 3.1-4.9 7.3-9.7 1.9-2.2 2.3-3 1.7-2.8-.9.1-1.6-.2-2.5-1-1-1-2-1.5-1.7-.9.1.2-.2.7-.6 1.1-.5.5-1 .7-1 .6 0-.2-.1-.2-.3 0-.3.3-.6.5-.8.5-.2 0 0-.3.3-.6.8-.7 1.8-2.6 1.3-2.6-.2 0-.5.2-.7.5-.4.3-.4.3-.2-.2.1-.4 0-.6-.2-.6s-.3-.2-.2-.3c0-.2-.6-.3-1.6-.3-1.6 0-1.7 0-1.1-.6.5-.7.5-.7 0-.5-.6.2-1.2-.6-.9-1.1.2-.3-2.7-.4-3 0l-1.2 1a90.7 90.7 0 0 0-9.6 9.2c-1.4 1.9-2.8 5.6-2.3 6.4 0 .1 0 .3-.2.3s-.3.2-.2.5c.2.5.3.5.7 0 .5-.7.5-.7.7 0 .1.3.5.5.9.5 1 0 1.8.4 1.6.8-.3.4 1.8 1.4 2.3 1.2.2-.1.3 0 .3.2 0 .4 0 .4.3 0s.4-.4.5 0c.2.4.6.5 1.3.5 1-.1 2.1.8 1.6 1.3-.2.2-.1.3.1.3s.5-.3.6-.7zm-6.3-2.5c-.1-.2 0-.4.1-.4.2 0 .4.2.4.4l-.1.3-.4-.3zm-10-2.6c0-.9-.4-.6-.6.4 0 .5 0 .7.2.6.2-.1.3-.5.3-1zm.3-1.3c0-.2 0-.3-.2-.3l-.4.3c0 .2 0 .4.2.4s.4-.2.4-.4zm36.8-6.2c.1-.3 0-.4-.1-.3l-.4.5c0 .5.3.4.5-.2zm-10-4c.5-.5.5-.5-.1 0l-.6.6c0 .2.3 0 .7-.5zm-30.6 33.3c-.3-.8.1-1 .6-.2.3.5.3.8 0 .8-.2 0-.5-.3-.6-.6zm-1-.9c-.1-.2-.2-.4 0-.5 0-.1.2 0 .3.3.3.7 0 .8-.3.2zm0-1.5c.2-.3.4-.6.6-.6.2 0 .2.2 0 .6l-.6.5v-.5zm18-39.6c-.6-.5-.6-.5.4-.5.6 0 1.4 0 1.8-.2.6-.2.6-.2 0 .3-.4.3-1 .5-1.3.3-.3 0-.4 0-.2.3.3.5.2.5-.7-.2zm16.2-5.3c-.6-.5-.6-.5.1-.1l.8.5c0 .3-.2.2-.9-.4z" style="fill:#b5885e;stroke-width:.352778" transform="translate(-44.5 -173.2)"/>
  <path d="m81.4 242.5-2.3-1.3-1.8.7c-4 1.3-7.5.5-13-3.1-6-4-8-6.9-8-11.4v-1.8l1.1 1.1 2 1.5 1.6.8c3.7 2.3 4.3 2.6 5.6 2.6 1.4 0 1.5 0 1-.9-.3-.5-.4-.5-.4 0 0 .3-.3.1-.6-.5-.3-.5-.8-.9-1-.8-.3.1-.4 0-.2-.4 0-.3 0-.4-.2-.3-.2.1-.6-.1-.8-.5a7 7 0 0 0-2.1-1.5 12 12 0 0 1-2-1.2c-.7-.6-.6-2.6 0-2.6.3 0 .6-.1.6-.3 0-.2.2-.6.5-.8 1-1 .8-1.4-.9-1.5-1.1-.1-1.6 0-2 .4-.2.4-.4.5-.4.2 0-.2.1-.5.3-.6.2-.1.3-.4.3-.6 0-.3-.3-.1-.7.4-.8 1-.8.8-.1-.6.6-1.1.7-2.6.2-2.6-.2 0-.8.7-1.3 1.5l-1 1.5.2-2a55 55 0 0 1 1-5.5c1.1-4.8 1-4.6 1.6-3.7.6 1 2.7 1.2 3.2.4.2-.3.4-.1.6.4.2.7.3.8.6.4a7 7 0 0 0 .5-2c.2-.8.5-1.3 1-1.5.3 0 .6-.4.6-.6 0-.3-.2-.5-.3-.3-.2 0-1-.2-1.8-.6-1.3-.6-1.4-.8-1.2-1.6.2-1 1.5-5 1.7-5.3.2-.2 3 1.3 3 1.5l-.5 1.3-.7 2.6c-.1.8.3.1 1-2 1.8-4.8 3-6.6 8.6-12.3 3.8-3.9 4.9-5.2 4.6-5.6-.3-.3-.2-.5.2-.6.3-.2.5-.4.4-.6h.7c2 .8 2.3.6 2.3-1.3 0-.9.2-2 .3-2.5l.3-.9.4 1 .4 1.5c0 .2.2.6.4.7.2.1.3-.4.3-1.4 0-2.4.6-3.4 2-3.4 1.7 0 4 1.3 4 2.2 0 .6-.1.7-.8.5a19 19 0 0 0-2.7-.5l-1.9-.2.3 3c.1 1.6.3 3 .5 3.2l1.5.8c1.4.5 1.4.5 1.7-.4l.8-2.5c.3-1.1.6-1.6 1.2-1.7.5-.1.8-.3.8-.5 0 0 .3-.4.7-.6.6-.4.8-.3 1.4.6l.8 1-1 2.8c-1 3.2-1 3.6-.2 3.5 1 0 4.7 1.8 4.7 2.3 0 .3.5.8 1.2 1 1.3.7 1.9 1.6 2.8 4.5.5 1.6.6 2 .1 3.5-.5 1.7-.5 1.7.7 3.6a15 15 0 0 1 2.2 8.5c0 4.6-1.3 8.9-3.4 11.3-.9 1-1.2 1.7-1.5 3.7a20.8 20.8 0 0 1-10.3 15.2 19 19 0 0 1-6.6 3c-.3 0-1.6-.6-2.8-1.3zm-12-10.9-.4-.4c-.2-.1-.4 0-.4.2s.2.4.4.4.3-.1.3-.2zm-.2-3.5c.3-.6 1-1.8 1.7-2.6l.9-1.6c-.6-.5-7.2-4.1-7.4-4.1-.6 0-3.6 4.7-3.2 5l5.8 4c1.2.7 1.6.5 2.2-.7zm6.3-2.7c.8-.3 1.1-.8 1.7-2.7.2-.6.2-.8-.2-.8-.9 0-2.9-1.3-3.1-2-.2-.5-.4-.2-1 1-1 2.2-1 2.3 0 3.7.7 1.2 1.1 1.4 2.6.8zm4.3-8.6c.3-1.1.8-2 1-2 1 0 .4-.6-1.8-1.7a8 8 0 0 1-2.3-1.4c0-.1-.5-.2-1.2-.1-1.1.1-1.2.2-1.6 2-.4 1.7-.4 2.2 0 3 .7 1 2.5 1.4 3.7.5.9-.5 1-.5 1 .5 0 1.7.5 1.3 1.2-.8zm-19-.5c.4-.3.9-1.2 1-2 .4-1.1.4-1.2-.3-1.2-.3 0-.7-.3-.9-.6 0-.3-.4-.5-.7-.5-.2 0-.5-.2-.5-.4 0-1-1.3 2.1-1.3 3.2 0 2 1.2 2.8 2.7 1.5zm28.3-7.4c1.6-2.8 4.2-6 4.2-5.1 0 .3-.2.8-.4 1l-.2.5c.2 0 2.7-3.4 2.7-3.7 0-.2 1.8-3 2.2-3.4l.6-1.2c.4-1 .4-1-.1-.5a15 15 0 0 0-1.8 2.4c-.7 1-1.4 1.8-1.5 1.7 0-.1 0-.5.3-.9.7-.7 2.1-3.5 2.3-4.4 0-.3 0-.6-.2-.6s-.4.2-.4.5c0 .5-2.9 3-3.5 3-.3 0-.4.1-.2.3l-1.3 1.5c-2.4 2-4 4-5.3 6.4-1.8 3.4-1.7 5 .5 4.6.8-.1 1.2-.5 2.1-2.1zm-11.1-.5c.5-1.4 1-2.7 1.2-2.9.4-.4 4.3 1.3 4 1.8-.4 1.2.7-.1 1.5-1.8 1.7-3.3 4.7-7.2 10-13 1.4-1.6 1.6-1.9.6-1-1 .9-1.4 1-2.2.7a6 6 0 0 1-1.6-1c-.6-.6-.7-.8-.3-1.2 1-1.3 0-.8-1.8.8-1 1-2 1.8-2.3 1.8-.1 0 0-.3.4-.6.8-.7 1.8-2.6 1.3-2.6-.2 0-.5.2-.7.5-.4.3-.4.3-.2-.2.1-.4 0-.6-.2-.6s-.3-.2-.2-.3c0-.2-.6-.3-1.6-.3-1.6 0-1.7 0-1.1-.6.5-.7.5-.7 0-.5-.6.2-1.2-.6-.9-1.1.2-.3-2.7-.4-3 0l-1.2 1a90.7 90.7 0 0 0-9.6 9.2c-1.4 1.9-2.8 5.6-2.3 6.4 0 .1 0 .3-.2.3s-.3.2-.2.5c.2.5.3.5.7 0 .5-.7.5-.7.7 0 .1.3.5.5.9.5 1 0 1.8.4 1.6.8-.3.4 1.8 1.4 2.3 1.2.2-.1.3 0 .3.2 0 .4 0 .4.3 0s.4-.4.5 0c.2.4.6.5 1.3.5 1.4-.1 1.9.6 1.2 2.1-.4 1.2-.6 2-.3 2l1-2.6zm-6-3.1c-.1-.2 0-.4.1-.4.2 0 .4.2.4.4l-.1.3-.4-.3zm27.1-10c.1-.4 0-.5-.1-.4l-.4.5c0 .5.3.4.5-.2zm-40.6 29.2c-.3-.8.1-1 .6-.2.3.5.3.8 0 .8-.2 0-.5-.3-.6-.6zm-1-.9c-.1-.2-.2-.4 0-.5 0-.1.2 0 .3.3.3.7 0 .8-.3.2zm0-1.5c.2-.3.4-.6.6-.6.2 0 .2.2 0 .6l-.6.5v-.5zm.4-16.4c-.3-.5.3-3.8 1.3-6.7l.7-2.3.8 1.4c.5.8 1 1.3 1.1 1.3.4-.1.4.5-.2 2.6-.4 1.8-.5 1.8-1.6 1.6-1.1-.1-1.2 0-1.5 1.2-.2.9-.4 1.2-.6 1zm17.4-23.4c-.3-.2 0-.3.9-.3.7 0 1.3.1 1.1.3-.3.3-1.5.3-2 0zm16.4-5c-.6-.6-.6-.6.1-.2l.8.5c0 .3-.2.2-.9-.4z" style="fill:#38a6b9;stroke-width:.352778" transform="translate(-44.5 -173.2)"/>
  <path d="m81.4 242.5-2.3-1.3-1.8.7c-4 1.3-7.5.5-13-3.1-6-4-8-6.9-8-11.4v-1.8l1.1 1.1 2 1.5 1.6.8a1707.4 1707.4 0 0 1 8.2 4.8 1687.5 1687.5 0 0 0 3 .6c1.1.1 2.4-.6 3.5-2 1.6-2 1.7-3.1.2-2.3-.4.2-.9.4-1 .3-.2 0-.3.1-.2.4.3.6-.8 1.6-1.4 1.4-.3 0-.7 0-1 .2-.3.3-.7.3-1.7 0-.6-.3-1.3-.7-1.4-1-.1-.2-.5-.2-.8-.1-.3 0-.6 0-.7-.4-.1-.4-.3-.5-.5-.2-.1.2-.4 0-.7-.5-.3-.5-.7-.9-1-.8-.2.1-.3 0-.1-.4 0-.3 0-.4-.2-.3-.2.1-.6-.1-.8-.5a7 7 0 0 0-2.1-1.5 12 12 0 0 1-2-1.2c-.7-.6-.6-2.6 0-2.6.3 0 .6-.1.6-.3 0-.2.2-.6.5-.8 1-1 .8-1.4-.9-1.5-1.1-.1-1.6 0-2 .4-.2.4-.4.5-.4.2 0-.2.1-.5.3-.6.2-.1.3-.4.3-.6 0-.3-.3-.1-.7.4-.8 1-.8.8-.1-.6.6-1.1.7-2.6.2-2.6-.2 0-.8.7-1.3 1.5l-1 1.5.2-2a55 55 0 0 1 1-5.5c1.1-4.8 1-4.6 1.6-3.7.6 1 2.7 1.2 3.2.4.2-.3.4-.1.6.4.2.7.3.8.6.4a7 7 0 0 0 .5-2c.2-.8.5-1.3 1-1.5.3 0 .6-.4.6-.6 0-.3-.2-.5-.3-.3-.2 0-1-.2-1.8-.6-1.3-.6-1.4-.8-1.2-1.6.2-1 1.5-5 1.7-5.3.2-.2 3 1.3 3 1.5l-.5 1.3-.7 2.6c-.1.8.3.1 1-2 1.8-4.8 3-6.6 8.6-12.3 3.8-3.9 4.9-5.2 4.6-5.6-.3-.3-.2-.5.2-.6.3-.2.5-.4.4-.6h.7c2 .8 2.3.6 2.3-1.3 0-.9.2-2 .3-2.5l.3-.9.2.9.7 2.3.6 1.4v-2c0-2.9.6-4.2 1.7-4.2 1.4 0 4.1 1.5 4.3 2.3 0 .5 0 .6-.8.4-.4-.2-1.6-.4-2.7-.5l-1.9-.2.2 2.3.3 3c0 .7.3 1 1.5 1.5.8.4 1.6.6 1.7.4l.8-2c.4-1.4.9-2 1.7-2.5 1.9-1 2.6-1.2 3-.3.4.6.3 1.2-.4 3.3-1 3.2-1.1 3.6-.3 3.5 1 0 4.7 1.8 4.7 2.3 0 .3.5.8 1.2 1 1.3.7 1.9 1.6 2.8 4.5.5 1.6.6 2 .1 3.5-.5 1.7-.5 1.7.7 3.6a15 15 0 0 1 2.2 8.5c0 4.6-1.3 8.9-3.4 11.3-.9 1-1.2 1.7-1.5 3.7a20.8 20.8 0 0 1-10.3 15.2 19 19 0 0 1-6.6 3c-.3 0-1.6-.6-2.8-1.3zm-10.1-13.3c.6.2 1.1-.6 1.3-1.9 0-.9 0-1-.8-1-.6 0-1 .3-1.5 1.2-.7 1.2-.6 2.6.1 1.9.3-.2.6-.3.9-.2zm-2.1-1c.3-.7 1-1.9 1.6-2.7 1.3-1.8 1.2-1.9-2.3-3.7l-3.3-1.7c-.8-.5-1-.4-1.9.7-1 1.3-2.3 3.8-2 4 .6.6 5.2 3.7 5.7 4 1.2.7 1.6.5 2.2-.7zm6.3-2.8c.8-.3 1.1-.8 1.7-2.7.2-.6.2-.8-.2-.8-.9 0-2.9-1.3-3.1-2-.2-.5-.4-.2-1 1-1 2.2-1 2.3 0 3.7.7 1.2 1.1 1.4 2.6.8zm4.3-8.6c.3-1.1.8-2 1-2 1 0 .4-.6-1.8-1.7a8 8 0 0 1-2.3-1.4c0-.1-.5-.2-1.2-.1-1.1.1-1.2.2-1.6 2-.4 1.7-.4 2.2 0 3 .7 1 2.5 1.4 3.7.5.9-.5 1-.5 1 .5 0 1.7.5 1.3 1.2-.8zm-19-.5c.4-.3.9-1.2 1-2 .4-1.1.4-1.2-.3-1.2-.3 0-.7-.3-.9-.6 0-.3-.4-.5-.7-.5-.2 0-.5-.2-.5-.4 0-1-1.3 2.1-1.3 3.2 0 2 1.2 2.8 2.7 1.5zm29.1-7.8c.3-.3.6-.9.7-1.2.4-1.1 1-.6.7.7l-.2 1.4.8-1c.4-.5.7-1.2.7-1.5 0-.3.3-.7.7-.9.4-.2.7-.5.6-.7-.1-.1.2-.7.8-1.3a16 16 0 0 0 2.9-4c0-.1.5-1 1.2-1.9.7-1 1.2-1.8 1.1-2 0-.3 0-.7.3-1 .2-.2.4-.8.3-1.3l-.2-.9-.8 1c-.5.5-.9 1.1-.9 1.3l-.4.2c-.2 0 0-.5.4-1.2.5-.7.7-1.4.5-1.5-.1-.2-.3 0-.4.2 0 .2-.3.3-.4.2a68 68 0 0 0-9.4 9.5 20 20 0 0 0-4.2 7.3c-.3 1.5.4 2.3 1.5 2 .5-.2.8-.1.8.2 0 .2.5-.4 1.2-1.3l1.7-2.3zm-12-.1 1.3-2.9c.4-.4 4.3 1.3 4 1.8-.4 1.2.7-.1 1.5-1.8 1.7-3.3 4.7-7.2 10-13 1.4-1.6 1.6-1.9.6-1-1 .9-1.4 1-2.2.7-1.4-.5-2.4-1.6-2-2.2.6-.6.2-2.3-.5-2.1-.2.1-.5 0-.5-.2 0-.3-.1-.3-.3-.2-.2 0-.4 0-.5-.2-.2-.2-.4-.3-.6-.2-.1.1-.3 0-.5-.4-.2-.5-.3-.5-.5 0-.3.3-.4.3-.4 0s-.2-.5-.5-.5-.5-.1-.5-.3c0-.2-.2-.3-.3-.2-.2 0-.9-.1-1.6-.5l-1.3-.7-2.7 2A66.4 66.4 0 0 0 69 198c-1 2-2 5.3-1.9 6 .2.8 1.6 1.6 1.9 1 .2-.2.4-.2.8.2.3.3.7.5 1 .5.1 0 .4.3.5.6.1.2.7.6 1.2.7.6.1 1 .4 1.2.7.2.5 1.6 1 1.6.5 0-.2.2-.3.4-.3s.3.2.2.4c0 .3.3.4.7.4.7-.1.8 0 .5.8-.4.9-.5 1.5-.2 1.5l1-2.5zm-19.4 16.1c-.3-.8.1-1 .6-.2.3.5.3.8 0 .8-.2 0-.5-.3-.6-.6zm-1-.9c-.1-.2-.2-.4 0-.5 0-.1.2 0 .3.3.3.7 0 .8-.3.2zm0-1.5c.2-.3.4-.6.6-.6.2 0 .2.2 0 .6l-.6.5v-.5zm.4-16.4c-.3-.5.3-3.7 1-6.2l.6-1.7 1.2 1.3 1.3 1c.1 0 0 .7-.3 1.8-.6 1.9-.6 2-1.7 1.7-1.1-.1-1.2 0-1.5 1.2-.2.9-.4 1.2-.6 1zm18.8-23.3c0-.2.2-.4.4-.4s.3.2.2.4c-.1.2-.3.3-.4.3 0 0-.2-.1-.2-.3z" style="fill:#4b97ab;stroke-width:.352778" transform="translate(-44.5 -173.2)"/>
  <path d="m81.4 242.5-2.3-1.3-1.8.7c-3.8 1.3-7 .6-12-2.6-6.5-4-8.5-6.6-9-11.2l-.1-2.2 1.2 1.1c.6.6 2 1.6 3.1 2.1a44.2 44.2 0 0 1 5.3 3c.3 0 2 .8 3.4 1.7a1687.5 1687.5 0 0 0 3 .6c1.1.1 2.4-.6 3.5-2 1.6-2 1.7-3.1.2-2.3-.4.2-.9.4-1 .3-.2 0-.3.1-.2.4.3.6-.8 1.6-1.4 1.4-.3 0-.7 0-1 .3-.3.3-.7.3-1.4-.1-1.1-.5-1.5-1.4-.7-1.4.4 0 .5-.2.5-1-.1-.7 0-.9.4-.8.8.1 1.3-.6 1.5-1.9 0-.9 0-1-.8-1-.7 0-1 .3-1.8 1.8-.4 1-1 1.9-1.3 1.9-.6 0-.5-.2.2-1.3 2.4-3.6 2.9-4.4 2.9-4.6 0-1-5.6-4.4-7.7-4.8-1.1-.2-1.2-.2-1 .5a2 2 0 0 1-.5 1.7c-.8 1-1 .6-.2-.5.7-.9.3-1.6-.9-1.6-.7 0-1.4-.4-2.3-1.3l-1.2-1.3-.6.7-1 1.4c-.4.6-.5.4-.3-1.3a77 77 0 0 1 1.8-9.1c.2-.4.3-.4.7.2.6 1 2.7 1.2 3.2.4.2-.3.4-.1.6.4.2.7.3.8.6.4a7 7 0 0 0 .5-2c.2-.8.5-1.3 1-1.5.3 0 .6-.4.6-.6 0-.3-.2-.5-.3-.3-.2 0-1-.2-1.8-.6-1.3-.6-1.4-.8-1.2-1.6.2-1 1.5-5 1.7-5.3.2-.2 3 1.3 3 1.5l-.5 1.3-.7 2.6c-.1.8.3.1 1-2 1.8-4.8 3-6.6 8.6-12.3 3.8-3.9 4.9-5.2 4.6-5.6-.3-.3-.2-.5.2-.6.3-.2.5-.4.4-.5-.1-.2.5-.1 1.4.2l1.6.4v-1.6c0-1 .2-2 .3-2.6.2-.8.3-.8.5-.1l.7 2 .6 1.5v-2c0-2.9.6-4.2 1.7-4.2 1.4 0 4.1 1.5 4.3 2.3 0 .5 0 .6-.8.4-.4-.2-1.6-.4-2.7-.5l-1.9-.2.3 3c.2 3.2.4 3.5 2.2 4.1 1.3.4 1.2.5 2-2 .4-1.3.9-2 1.7-2.4 3-1.8 3.8-1 2.5 3-1 3.2-1 3.6-.2 3.5 1 0 4.7 1.8 4.7 2.3 0 .3.6.8 1.3 1.3 2.2 1.2 3.6 5.1 2.7 7.8-.4 1.6-.4 1.7.6 3.3 1.9 3 2.5 5.6 2.3 9.6-.2 4.3-1.2 7.4-3 10a7.4 7.4 0 0 0-1.8 4.1 20 20 0 0 1-6.3 12.2 26 26 0 0 1-10.6 6c-.3 0-1.6-.6-2.8-1.3zm-6-17c1-.4 1.2-.9 1.8-2.8.2-.6.2-.8-.2-.8-.9 0-2.9-1.3-3.1-2-.2-.5-.4-.2-1 1-1 2.2-1 2.3 0 3.7.7 1.2 1.1 1.4 2.6.8zm4.4-8.7c.3-1.1.8-2 1-2 1 0 .4-.6-1.8-1.7a8 8 0 0 1-2.3-1.4c0-.1-.5-.2-1.2-.1-1.1.1-1.2.2-1.6 2-.4 1.7-.4 2.2 0 3 .7 1 2.5 1.4 3.7.5.9-.5 1-.5 1 .5 0 1.7.5 1.3 1.2-.8zm-19-.5c.4-.3.9-1.2 1-2 .4-1.1.4-1.2-.3-1.2-.3 0-.7-.3-.9-.6 0-.3-.4-.5-.7-.5-.2 0-.5-.2-.5-.4 0-1-1.3 2.1-1.3 3.2 0 2 1.2 2.8 2.7 1.5zm29.1-7.8c.3-.3.6-.9.7-1.2.4-1.1 1-.6.7.7l-.2 1.4.8-1c.4-.5.7-1.2.7-1.5 0-.3.3-.7.7-.9.4-.2.7-.5.6-.7-.1-.1.2-.7.8-1.3a16 16 0 0 0 2.9-4c0-.1.5-1 1.2-1.9.7-1 1.2-1.8 1.1-2 0-.3 0-.7.3-1 .2-.2.4-.8.3-1.3l-.2-.9-.8 1c-.5.5-.9 1.1-.9 1.3l-.4.2c-.2 0 0-.5.4-1.2.5-.7.7-1.4.5-1.5-.1-.2-.3 0-.4.2 0 .2-.3.3-.4.2a68 68 0 0 0-9.4 9.5 20 20 0 0 0-4.2 7.3c-.3 1.5.4 2.3 1.5 2 .5-.2.8-.1.8.2 0 .2.5-.4 1.2-1.3l1.7-2.3zm-12-.1 1.3-2.9c.4-.4 4.3 1.3 4 1.8-.4 1.2.7-.1 1.5-1.8 1.7-3.3 4.7-7.2 10-13 1.4-1.6 1.6-1.9.6-1-1 .9-1.4 1-2.2.7a6 6 0 0 1-1.6-1l-.8-.7 1-1.3c.8-1 .9-1.2.3-.7-.8.7-.8.7-.8 0 0-.6-.2-.8-.5-.6-.3 0-.6 0-.6-.2 0-.3-.1-.3-.3-.2-.2 0-.4 0-.5-.2-.2-.2-.4-.3-.6-.2-.1.1-.3 0-.5-.4-.2-.5-.3-.5-.5 0-.3.3-.4.3-.4 0s-.2-.5-.5-.5-.5-.1-.5-.3c0-.2-.2-.3-.3-.2-.2 0-.9-.1-1.6-.5l-1.3-.7-2.7 2A66.4 66.4 0 0 0 69 198c-1 2-2 5.3-1.9 6 .2.8 1.6 1.6 1.9 1 .2-.2.4-.2.8.2.3.3.7.5 1 .5.1 0 .4.3.5.6.1.2.7.6 1.2.7.6.1 1 .4 1.2.7.2.5 1.6 1 1.6.5 0-.2.2-.3.4-.3s.3.2.2.4c0 .2.2.4.6.4.5 0 .6.1.4 1.1-.4 2 0 1.5 1-1.3zM61 223.6a.7.7 0 0 1 .1-.7c.5-.5.9.1.5.7-.2.4-.4.4-.6 0zm-3-17.8c-.3-.5.1-3 1-6l.5-2 1.2 1.3c.8.8 1.2 1.5 1.1 1.9l-.4 1.7c-.2 1-.3 1-1.4.9-1.1-.1-1.2 0-1.5 1.2-.2.8-.4 1.2-.6 1zm18.7-23.4c0-.2.2-.4.4-.4s.3.2.2.4c-.1.2-.3.3-.4.3 0 0-.2-.1-.2-.3z" style="fill:#3393ab;stroke-width:.352778" transform="translate(-44.5 -173.2)"/>
  <path d="m81.4 242.5-2.3-1.3-1.8.7c-3.8 1.3-7 .6-12-2.6-6.5-4-8.5-6.6-9-11.2l-.1-2.2 1.2 1.1a22 22 0 0 0 3.6 2.4l3 1.8a28 28 0 0 0 6.7 3.4c1.8.5 2 .5 3 0a8 8 0 0 0 2.2-2c1-1.4 2.3-3.6 2.2-3.7-.4-.2-1.7-.2-1.7 0 0 .4-1.9 1.1-2.1.8a5 5 0 0 1-.5-1.7 4 4 0 0 0-.7-2.2 6 6 0 0 1-1-1.7c-.3-.8-1-1.4-3.6-2.8a24 24 0 0 0-4.4-2c-1.2-.2-1.2-.2-1 .7.2 1 .2 1-.2.2-.3-.5-.7-.8-1.4-.8s-1.4-.4-2.3-1.3l-1.2-1.3-.6.7-1 1.4c-.4.6-.5.4-.3-1.3a77 77 0 0 1 1.8-9.1c.2-.4.3-.4.7.2.6 1 2.7 1.2 3.2.4.2-.3.4-.1.6.4.2.7.3.8.6.4a7 7 0 0 0 .5-2c.2-.8.5-1.3 1-1.5.3 0 .6-.4.6-.6 0-.3-.2-.5-.3-.3-.2 0-1-.2-1.8-.6-1.3-.6-1.4-.8-1.2-1.6.2-1 1.5-5 1.7-5.3.2-.2 3 1.3 3 1.5l-.5 1.3-.7 2.6c-.1.8.3.1 1-2 1.8-4.8 3-6.6 8.6-12.3 3.8-3.9 4.9-5.2 4.6-5.6-.3-.3-.2-.5.2-.6.3-.2.5-.4.4-.5-.1-.2.5-.1 1.4.2l1.6.4v-1.6c0-1.9.6-4 .7-2.7 0 .4.2 1.2.5 1.8.3.5.6 1.2.6 1.5 0 .3.1.8.3 1 .3.4.3-.3.2-2.2-.3-4.5.7-5.5 4.3-3.8 1.5.7 2.1 2.1.7 1.7-.4-.2-1.6-.4-2.6-.5l-1.9-.2v1.4c.1 3.4.5 4.9 1.4 5.3.9.5.9.5-.5.5-.7 0-2-.2-2.7-.4-1.3-.4-1.5-.4-2.7.5l-6.4 5.8a25.4 25.4 0 0 0-6.5 7.6c-1.7 3.3-2.2 7-1 7.8.3.3.5.5.3.5s0 .4.6.9c.7.7.8 1 .5 1.3-.4.3-.3.4 0 .2.2-.2.4-.1.4.1s.2.4.4.4.3-.2.2-.4c-.2-.2 0-.3.4-.4.4 0 .4 0 .2-.2a.8.8 0 0 1-.5-.6c0-.2-.2-.4-.6-.4-.3 0-.6-.3-.7-.7-.1-.5 0-.6.3-.3s.8.5 1.2.6c.4 0 1 .4 1.3.8.5.5.7.5 1.1.2.4-.3.6-.3.8 0 .1.2 0 .3-.3.4l.6.3c.6.2 1.2.2 1.3.1.2 0 .3 0 .3.2s.3.4.5.4c.3 0 .7.2.9.5.2.4.5 0 1.3-2 .5-1.4 1-2.7 1.2-2.9.4-.4 4.3 1.3 4 1.8-.4 1.2.7-.1 1.5-1.8 1.7-3.3 4.7-7.2 10-13 1.4-1.6 1.6-1.9.6-1-1 .9-1.4 1-2.2.7a6 6 0 0 1-1.6-1l-.8-.7 1-1.2c.9-1.2.9-1.3.3-1.5-2.1-.8-2.8-1.2-3-1.9-.1-.4 0-.7.2-.6.2 0 .6-.6.8-1.4.7-1.9 2.3-3.4 3.8-3.5.7 0 1.3 0 1.4.3 0 .3-.2 1.6-.7 3-1 3.2-1 3.6-.2 3.5 1 0 4.7 1.8 4.7 2.4 0 .2.2.5.5.7.5.1.5.3.1.9A96.4 96.4 0 0 0 89.1 202c-3.7 4.1-5.5 8-4.6 10l.3.6 1.1.1c1 .3 1.2.2 2-.6.4-.6.8-1 .8-1.2 0-.2.4-.7 1-1.2.8-.8.8-.8.8 0 0 .6.1.6 1.3-.6.6-.7 1.3-1.3 1.5-1.3.2 0 .9-1.1 1.3-2.3.1-.3.4-.5.7-.4l1-.5c.3-.4.4-.7.2-.7s-.5.3-.7.6c-.3.5-.3.5-.4 0 0-.6.8-1.4 1.5-1.2.2 0 .6-.3.8-.7.3-.5.5-.7.6-.6.3.2 2.4-4.1 2.4-4.8 0-.3.2-.7.4-1 .3-.2.6-1.7.7-3 0-1.2.6-.3 1.2 1.8.5 1.7.5 2.2 0 3.6-.4 1.6-.4 1.7.6 3.3 1.9 3 2.5 5.6 2.3 9.6-.2 4.3-1.2 7.4-3 10a7.4 7.4 0 0 0-1.8 4.1 20 20 0 0 1-6.3 12.2 26 26 0 0 1-10.6 6c-.3 0-1.6-.6-2.8-1.3zm-6-17c1-.4 1.2-.9 1.8-2.8.2-.6.2-.8-.2-.8-.9 0-2.9-1.3-3.1-2-.2-.5-.4-.2-1 1-1 2.2-1 2.3 0 3.7.7 1.2 1.1 1.4 2.6.8zm4.4-8.7c.3-1.1.8-2 1-2 1 0 .4-.6-1.8-1.7a8 8 0 0 1-2.3-1.4c0-.1-.5-.2-1.2-.1-1.1.1-1.2.2-1.6 2-.4 1.7-.4 2.2 0 3 .7 1 2.5 1.4 3.7.5.9-.5 1-.5 1 .5 0 1.7.5 1.3 1.2-.8zm-19-.5c.4-.3.9-1.2 1-2 .4-1.1.4-1.2-.3-1.2-.3 0-.7-.3-.9-.6 0-.3-.4-.5-.7-.5-.2 0-.5-.2-.5-.4 0-1-1.3 2.1-1.3 3.2 0 2 1.2 2.8 2.7 1.5zm10-1.9c.4.3.5.2.5-.2 0-.5-.2-.6-1-.5-.8.1-1 .2-.5.7.2.3.4.4.5 0 .1-.2.3-.2.6 0zm1.4-4.5-.2-.4-.4.4c0 .2 0 .3.2.3s.4-.1.4-.3zm-4 19.8c0-.2.3-.5.6-.8.4-.3.5-.3.5.3 0 .5-.2.8-.5.8s-.5-.1-.5-.3zm2.5-3.9c0-.4.7-.9 1-.7 0 .1-.1.4-.4.6-.4.3-.6.4-.6.1zm-9.6-2.1c-.3-.5 0-.9.4-.7.3 0 .3.3.1.6-.2.3-.4.4-.5 0zm-3.2-18c-.2-.4.4-4.2.9-5 .2-.4.3-.4.3 0 0 .2.2.3.4.2.1-.1.3 0 .3.2s.2.2.4.1c.3-.1.4-.1.2 0-.1.2 0 .8.3 1.3.7 1.3.7 1.3-.7 1.1-1.1-.1-1.2 0-1.5 1.2-.2.8-.4 1.2-.6 1zm42-13.4.9-1c.2-.1.2 0 0 .5a3 3 0 0 1-.8 1c-.3.2-.3 0 0-.5zm-23.2-10c0-.1.2-.3.4-.3s.3.2.2.4c-.1.2-.3.3-.4.3 0 0-.2-.1-.2-.3z" style="fill:#ab7648;stroke-width:.352778" transform="translate(-44.5 -173.2)"/>
  <path d="m81.5 242.5-2.4-1.2-1.8.6c-3.8 1.3-7 .6-12-2.6-6.5-4-8.5-6.6-9-11.2l-.1-2.2 1.2 1.1a22 22 0 0 0 3.6 2.4l3 1.8a28 28 0 0 0 6.7 3.4c1.8.5 2 .5 3 0a8 8 0 0 0 2.2-2c1-1.4 2.3-3.6 2.2-3.7-.4-.2-1.7-.2-1.7 0 0 .4-1.9 1.1-2.1.8-.2-.1-.4-.9-.5-1.7 0-.8-.5-2-.9-2.4-1-1.3-1-1.9 0-.7.9 1 1 1 2.3.7 1-.3 1.4-.6 1.7-1.6 1-2.8 1-2.8.4-2.6-.3.1-.6 0-.8-.4 0-.3-.6-.5-1-.5-.5 0-1-.3-1.1-.6-.4-1-1.1-.4-1.8 1.7-.4 1.2-.8 2-.8 1.8 0-.5-6.3-3.9-7.7-4.1-1.2-.2-1.2-.2-1 .7.2 1 .2 1-.2.2-.3-.5-.7-.8-1.4-.8s-1.4-.4-2.3-1.3l-1.2-1.3-.6.7-1 1.4c-.4.6-.5.4-.3-1.3a77 77 0 0 1 1.8-9.1c.2-.4.3-.4.7.2.6 1 2.7 1.2 3.2.4.2-.3.4-.1.6.4.2.7.3.8.6.4a7 7 0 0 0 .5-2c.2-.8.5-1.3.9-1.4.4-.1.8-1.1 1.4-3 1.5-5.3 3-7.9 7.6-12.8a59.8 59.8 0 0 1 6.5-6.3c1.3-1.1 2.1-1.7 2.6-1.6.5.2.6 0 .6-1.4 0-1.9.6-4 .7-2.7 0 .4.2 1.2.5 1.8.3.5.6 1.2.6 1.5 0 .3.1.8.3 1 .3.4.3-.3.2-2.2-.3-4.5.7-5.5 4.3-3.8 1.5.7 2.1 2.1.7 1.7-.4-.2-1.6-.4-2.6-.5l-1.9-.2v1.4c.1 3.4.5 4.9 1.4 5.3.9.5.9.5-.5.5-.7 0-2-.2-2.7-.4-1.3-.4-1.5-.4-2.7.5l-6.4 5.8a25.4 25.4 0 0 0-6.5 7.6c-1.7 3.3-2.2 7-1 7.8.3.3.5.5.3.5s0 .4.6.9c.7.7.8 1 .5 1.3-.4.3-.3.4 0 .2.2-.2.4-.1.4.1s.2.4.4.4.3-.2.2-.4c-.2-.2 0-.3.4-.4.4 0 .4 0 .2-.2a.8.8 0 0 1-.5-.6c0-.2-.2-.4-.6-.4-.3 0-.6-.3-.7-.7-.1-.5 0-.6.3-.3s.8.5 1.2.6c.4 0 1 .4 1.3.8.5.5.7.5 1.1.2.4-.3.6-.3.8 0 .1.2 0 .3-.3.4l.6.3c.6.2 1.2.2 1.3.1.2 0 .3 0 .3.2 0 .1.4.4.8.5 1.1.3.7 1.4-.7 1.6-1 0-1.1.2-1.5 2-.4 1.7-.4 2.2 0 3 .7 1 2.5 1.4 3.7.5.9-.5 1-.5 1 .5 0 1.7.5 1.3 1.2-.8.3-1.1.8-2 1-2 .2 0 .8-1.4 1.4-3 1-3.5 3.5-8.3 5.5-11 2.2-3 8.3-9.8 9.6-10.8 1.4-1 1.7-1.1 1.7-.4 0 .2.2.5.5.7.5.1.5.3.1.9A96.4 96.4 0 0 0 89.1 202c-3.7 4.1-5.5 8-4.6 10l.3.6 1.1.1c1 .3 1.2.2 2-.6.4-.6.8-1 .8-1.2 0-.2.4-.7 1-1.2.8-.8.8-.8.8 0 0 .6.1.6 1.3-.6.6-.7 1.3-1.3 1.5-1.3.2 0 .9-1.1 1.3-2.3.1-.3.4-.5.7-.4l1-.5c.3-.4.4-.7.2-.7s-.5.3-.7.6c-.3.5-.3.5-.4 0 0-.6.8-1.4 1.5-1.2.2 0 .6-.3.8-.7.3-.5.5-.7.6-.6.3.2 2.4-4.1 2.4-4.8 0-.3.2-.7.4-1 .3-.2.6-1.7.7-3 0-1.2.6-.3 1.2 1.8.5 1.7.5 2.2 0 3.6-.4 1.6-.4 1.7.6 3.3 1.9 3 2.5 5.6 2.3 9.6-.2 4.3-1.2 7.4-3.1 10-.8 1-1.8 3-2.3 4.4l-1.5 3.6c-.8 1.6-.8 2.1.2 1 1.8-2.2.4 1-1.7 4.1a25.6 25.6 0 0 1-13 9.1c-.4 0-1.7-.5-3-1.2zm9.2-5c-.1-.1-.4 0-.6.2-.4.4-.4.4.2.2.3-.1.5-.3.4-.4zm2-.8c.4-.5-.1-.5-.8 0-.4.3-.4.3 0 .3s.8-.1.9-.3zM61 216.4c.8-.8 1.4-3.3 1-3.8-.3-.2-.4-.3-.4-.1l-1.2-.7-1.1-1-.8 1.9c-.7 1.6-.8 2-.4 3 .3 1 .5 1.2 1.4 1.2.5 0 1.2-.2 1.5-.5zm9.9-2c.3.3.4.2.4-.2 0-.5-.2-.6-1-.5-.8.1-1 .2-.5.7.2.3.4.4.5 0 .1-.2.3-.2.6 0zm1.3-4.5-.2-.4-.4.4c0 .2 0 .3.2.3s.4-.1.4-.3zm-4 19.8c0-.2.3-.5.6-.8.4-.3.5-.3.5.3 0 .5-.2.8-.5.8s-.5-.1-.5-.3zm2.5-3.9c0-.4.7-.9 1-.7 0 .1-.1.4-.4.6-.4.3-.6.4-.6.1zm-9.6-2.1c-.3-.5 0-.9.4-.7.3 0 .3.3.1.6-.2.3-.4.4-.5 0zM78.8 213l-2-1 .7-1.9c2.1-5.2 1.7-4.8 4-3.9 1 .3 1.6.7 1.6.8l-2.2 7-2.1-1zm-20.9-7.2c-.2-.5.4-4.3.9-5 .2-.5.3-.5.3-.2s.2.4.4.3c.1-.1.3 0 .3.2s.2.2.4.1c.3-.1.4-.1.2 0-.1.2 0 .8.3 1.3.7 1.3.7 1.3-.7 1.1-1.1-.1-1.2 0-1.5 1.2-.2.8-.4 1.2-.6 1zm5-1c-1.1-.7-1.2-.8-1-2 .5-1.8 1-2.9 1.5-2.6.4.2 1.3-.5 1.3-1 0-.2-.3-.3-.7-.2-.4.2-.7 0-.7-.2 0-.9.5-.9 1.8-.2 1.3.8 1.3.8.9 1.9-.3.6-.7 2-.9 3.1-.2 1.1-.5 2-.6 2l-1.5-.8zm37-12.5.9-1c.2-.1.2 0 0 .5a3 3 0 0 1-.8 1c-.3.2-.3 0 0-.5zm-8.7-4.8c-1.2-.5-2-1-2.1-1.5-.2-.5-.2-.8 0-.7.3 0 .7-.6 1-1.4.6-2 2.2-3.4 3.7-3.5.7 0 1.3 0 1.4.3 0 .3-.2 1.6-.7 3-.5 1.5-.8 3-.7 3.3.3 1.1-.6 1.3-2.6.5z" style="fill:#ab6c37;stroke-width:.352778" transform="translate(-44.5 -173.2)"/>
  <path d="m81.5 242.5-2.4-1.2-1.8.6c-3.8 1.3-7 .6-12-2.6-6.5-4-8.5-6.6-9-11.2l-.1-2.2 1.2 1.1a22 22 0 0 0 3.6 2.4l3 1.8a28 28 0 0 0 6.7 3.4c1.8.5 2 .5 3 0a8 8 0 0 0 2.2-2c1-1.4 2.3-3.6 2.2-3.7-.4-.2-1.7-.2-1.7 0 0 .4-1.9 1.1-2.1.8-.2-.1-.4-.9-.5-1.7 0-.8-.5-2-.9-2.4l-.7-1.3c0-.2.3 0 .7.5.8 1 2.3 1.3 3.2.5a6 6 0 0 0 1.2-2.1c.5-1.7.5-1.8-.1-2.3-1.1-.8-3.4-1.9-3.7-1.6l-1 2.4c-.3 1.2-.7 2-.7 1.7 0-.5-6.3-3.9-7.7-4.1-1.2-.2-1.2-.2-1 .7.2 1 .2 1-.2.2-.3-.5-.7-.8-1.4-.8s-1.4-.4-2.3-1.3l-1.2-1.3-.6.7-1 1.4c-.4.6-.5.4-.3-1.3a77 77 0 0 1 1.8-9.1c.2-.4.3-.4.7.2.6 1 2.7 1.2 3.2.4.2-.3.4-.1.6.4.2.7.3.8.6.4a7 7 0 0 0 .5-2c.2-.8.5-1.3.9-1.4.4-.1.8-1.1 1.4-3 1.3-4.5 3.1-8 5.8-10.9 4.4-5 10.4-10.2 11.1-9.7.3.1.4-.4.4-1.5 0-1.8.6-4.1.7-2.7 0 .4.2 1.2.5 1.8.3.5.6 1.2.6 1.5 0 .3.1.8.3 1 .3.4.3-.3.2-2.2-.3-4.5.7-5.5 4.3-3.8 1.5.7 2.1 2.1.7 1.7-.4-.2-1.6-.4-2.6-.5l-1.9-.2v1.4c.1 3.4.5 4.9 1.4 5.3.9.5.9.5-.5.5-.7 0-2-.2-2.7-.4-1.3-.4-1.5-.4-2.7.5l-6.4 5.8a25.4 25.4 0 0 0-6.5 7.6c-1.7 3.3-2.2 7-1 7.8.3.3.5.5.3.5s0 .4.6.9c.7.7.8 1 .5 1.3-.4.3-.3.4 0 .2.2-.2.4-.1.4.1s.2.4.4.4.3-.2.2-.4c-.2-.2 0-.3.4-.4.4 0 .4 0 .2-.2a.8.8 0 0 1-.5-.6c0-.2-.2-.4-.6-.4-.3 0-.6-.3-.7-.7-.1-.5 0-.6.3-.3s.8.5 1.2.6c.4 0 1 .4 1.3.8.5.5.7.5 1.1.2.4-.3.6-.3.8 0 .1.2 0 .3-.3.4l.6.3c.6.2 1.2.2 1.3.1.2 0 .3 0 .3.2 0 .1.4.4.8.5 1.1.3.7 1.4-.7 1.6-1 0-1.1.2-1.5 2-.4 1.7-.4 2.2 0 3 .7 1 2.5 1.4 3.7.5.9-.5 1-.5 1 .5 0 1.7.5 1.3 1.2-.8.3-1.1.8-2 1-2 .2 0 .9-1.5 1.5-3.4 1.4-4.2 4-8.8 6.7-12.2a101 101 0 0 1 9.7-10.1c.1 0 .3.2.3.5 0 .2.2.5.5.7.5.1.5.3.1.9A96.4 96.4 0 0 0 89.1 202c-3.7 4.1-5.5 8-4.6 10l.3.6 1.1.1c1 .3 1.2.2 2-.6.4-.6.8-1 .8-1.2 0-.2.4-.7 1-1.2.8-.8.8-.8.8 0 0 .6.1.6 1.3-.6.6-.7 1.3-1.3 1.5-1.3.2 0 .9-1.1 1.3-2.3.1-.3.4-.5.7-.4l1-.5c.3-.4.4-.7.2-.7s-.5.3-.7.6c-.3.5-.3.5-.4 0 0-.6.8-1.4 1.5-1.2.2 0 .6-.3.8-.7.3-.5.5-.7.6-.6.3.2 2.4-4.1 2.4-4.8 0-.3.2-.7.4-1 .3-.2.6-1.7.7-3 0-1.2.6-.3 1.2 1.8.5 1.7.5 2.2 0 3.6-.4 1.6-.4 1.7.6 3.3 1.9 3 2.5 5.6 2.3 9.6-.2 4.3-1.2 7.4-3.1 10-.8 1-1.8 3-2.3 4.3-1 2.9-2 4.5-3.6 6.6-1.5 1.9-1 1.9 1 0 .8-.8 1.5-1.4 1.6-1.3.4.5-3.6 5.7-5.7 7.5-2.4 2-8.1 5.1-9.3 5.1-.4 0-1.7-.5-3-1.2zm9.2-5c-.1-.1-.4 0-.6.2-.4.4-.4.4.2.2.3-.1.5-.3.4-.4zm3.7-1.9c.8-.7 1.3-1.4 1.1-1.4-.2 0-.5.2-.6.4-.1.2-1 .9-1.9 1.4-1 .7-1.4 1-.9 1 .4 0 1.4-.6 2.3-1.4zm-33-19.6c.2-.6.6-1.6.7-2.3.2-1.3.2-1.3-1.2-2-.8-.5-1.6-.7-1.7-.6-.2 0-.6 1-1 2-.8 2.6-.4 3.8 1.4 3.8 1 0 1.3-.2 1.8-1zm9.5-1.6c.3.3.4.2.4-.2 0-.5-.2-.6-1-.5-.8.1-1 .2-.5.7.2.3.4.4.5 0 .1-.2.3-.2.6 0zm1.3-4.5-.2-.4-.4.4c0 .2 0 .3.2.3s.4-.1.4-.3zm-4 19.8c0-.2.3-.5.6-.8.4-.3.5-.3.5.3 0 .5-.2.8-.5.8s-.5-.1-.5-.3zm2.5-3.9c0-.4.7-.9 1-.7 0 .1-.1.4-.4.6-.4.3-.6.4-.6.1zm-9.6-2.1c-.3-.5 0-.9.4-.7.3 0 .3.3.1.6-.2.3-.4.4-.5 0zM78.9 213c-2-1-2.3-1.8-1-2.6.5-.4 1-.5 1.5-.3.4.2.9.2 1 .1.1 0 .2 0 .2.3s.1.3.6 0c.6-.5.6-.3 0 1.8l-.4 1.6zm-21-7.3c-.2-.5.4-4.3.9-5 .2-.5.3-.5.3-.2s.2.4.4.3c.1-.1.3 0 .3.2s.2.2.4.1c.3-.1.4-.1.2 0-.1.2 0 .8.3 1.3.7 1.3.7 1.3-.7 1.1-1.1-.1-1.2 0-1.5 1.2-.2.8-.4 1.2-.6 1zm5-1c-1-.6-1.4-1.4-.4-1 .7.2 2 1.5 1.6 1.5l-1.2-.6zm37-12.5.9-1c.2-.1.2 0 0 .5a3 3 0 0 1-.8 1c-.3.2-.3 0 0-.5zm-9-5c-1-.3-1.7-.8-1.8-1.3-.2-.5-.2-.8 0-.7.3 0 .7-.6 1-1.4.6-2 2.2-3.4 3.7-3.5.7 0 1.3 0 1.4.3 0 .2-.2 1.8-.7 3.4l-1 3.5c-.2.5-.7.5-2.6-.2z" style="fill:#2f859a;stroke-width:.352778" transform="translate(-44.5 -173.2)"/>
  <path d="m81.5 242.5-2.4-1.2-1.8.6c-3.8 1.3-7 .6-12-2.6-6.5-4-8.5-6.6-9-11.2l-.1-2.2 1.2 1.1c.6.6 1.7 1.4 2.4 1.7l4 2.6c4.6 3 8.3 4.6 9.6 3.9 2.1-1.1 5.8-6.4 5.3-7.6-.2-.4-.3-.5-.4-.2-.1.3-.4.4-.5.3-.2-.1-.4 0-.4.1 0 .5-1.5.7-2.2.4-.3-.2-.6-.5-.6-.7 0-.2-.5-.9-1.2-1.5-.7-.7-1.2-1.4-1.2-1.7 0-.2.3 0 .7.5.8 1 2.3 1.3 3.2.5a6 6 0 0 0 1.2-2.1c.5-1.7.5-1.8-.1-2.3-1-.7-3.3-1.8-3.6-1.7-.2.1-.5.8-.7 1.6-.6 1.6-1 2.1-1.4 1.4-.2-.2-.4-.4-.6-.4-.8 0-2.1-.5-4.6-1.7-2.1-1.1-2.8-1.3-3.4-1-1 .6-2.6.1-3.8-1.2l-1-1.1-.7.7-1 1.4c-.4.6-.5.4-.3-1.3a77 77 0 0 1 1.8-9.1c.2-.4.3-.4.7.2.6 1 2.7 1.2 3.2.4.2-.3.4-.1.6.4.2.7.3.8.6.4a7 7 0 0 0 .5-2c.2-.8.5-1.3.9-1.4.4-.1.8-1.1 1.4-3 1.3-4.5 3.1-8 5.8-10.9 4.4-5 10.4-10.2 11.1-9.7.2.1.4-.1.4-.7 0-.4.2-1 .4-1 .4-.1.3-.3 0-.6-.5-.4-.5-.4 0-.3.5.2 1.2 1.4 1.5 2.9.4 2 .8.8.5-1.8-.3-2.8 0-5 .9-5 1.7-.2 4.8 1 4.8 2 0 .4-.2.5-.8.3-.4-.2-1.6-.4-2.7-.5l-1.9-.2.3 3c.1 1.6.4 3.1.6 3.4.6.7-1.3 1-2.5.3a5 5 0 0 0-1.5-.6c-1.1 0-12.4 11-13.8 13.4-2 3.4-3 8.4-2 9 .2.1.3.6.3 1.1 0 .5.3 1.1.7 1.5 1.3 1.2 2.3 1.8 2.7 1.7.3-.1.5 0 .6.2.1.3.4.2.8-.2.4-.6.6-.6.4-.2-.1.4 0 .7.6.8.4.1.8 0 .9-.1 0-.2.2-.3.4-.2.2.1.3 0 .3-.4s.1-.5.5-.2c.2.2.7.3 1 .2.4 0 .6.1.5.4 0 .2-.6.4-1.2.5-1 0-1.1.3-1.3 1.3-.2 1.1-.3 1.2-.8.8-1.1-1-1.5-1-1.3-.4.2.6.2.6-.2 0-.2-.3-.6-.5-.9-.4-.3.2-.4 0-.4-.7.1-.7 0-.8-.3-.5-.4.3-.5.3-.5 0s-.2-.3-.4-.2c-.2.1-.6-.1-1-.5l-.5-.8-.5.7c-.7 1.1.3 2.6 2.8 4 2.1 1 3.1 1.3 3.1.5 0-.2.3.2.6.8.5 1 .9 1.3 1.8 1.4a4 4 0 0 0 2-.5c.9-.5 1-.5 1 .5 0 1.7.5 1.3 1.2-.8.3-1.1.8-2 1-2 .2 0 .9-1.5 1.5-3.4 1.5-4.5 4.2-9.2 7.7-13.4 3.1-3.7 8.5-9.2 8.7-9l.4 1c.2.5-.4 1.3-2.5 3.5a78.1 78.1 0 0 0-11.4 13.4c-1.7 3.5-1.7 7.2 0 7.2.4 0 .4 0-.2.6-.7.5-.7.5 0 .4.7-.2.8 0 .7.4 0 .3 0 .2.3-.3.5-1.1 1.3-2 1.8-2 .2 0 .5-.3.5-.7.3-1.5 1.8-3 1.8-1.7 0 .4.4.2 1.2-.6l3.3-3.1c1.2-1.1 2.2-2.3 2.3-2.6.2-.3.4-.6.6-.6.2 0 .4-.2.4-.5s.2-.7.5-.9c.7-.6 2.8-4.9 3.4-7.1l.6-2.2.6 2c.5 1.6.5 2 0 3.4-.4 1.5-.4 1.6 1.2 4.7l1.6 3.1v4.1c0 5-.8 8.1-3 11-.8 1-1.8 3-2.3 4.3-1 2.9-2 4.5-3.6 6.6-1.5 1.9-1 1.9 1 0 .8-.8 1.5-1.4 1.6-1.3.4.5-3.6 5.7-5.7 7.5-2.4 2-8.1 5.1-9.3 5.1-.4 0-1.7-.5-3-1.2zm9.2-5c-.1-.1-.4 0-.6.2-.4.4-.4.4.2.2.3-.1.5-.3.4-.4zm3.7-1.9c.8-.7 1.3-1.4 1.1-1.4-.2 0-.5.2-.6.4-.1.2-1 .9-1.9 1.4-1 .7-1.4 1-.9 1 .4 0 1.4-.6 2.3-1.4zm-33-19.6c.2-.6.6-1.6.7-2.3.2-1.3.2-1.3-1.2-2-.8-.5-1.6-.7-1.7-.6-.2 0-.6 1-1 2-.8 2.6-.4 3.8 1.4 3.8 1 0 1.3-.2 1.8-1zm38.3-4.5-.4-.4c-.2-.1-.3 0-.3.2s.1.3.3.3l.4-.1zm1.7-4.3c0-.2-.1 0-.3.2l-.4.9c0 .2.2.1.4-.2l.3-.9zm-33 22 .4-.3.2.4c0 .2-.2.3-.4.3s-.3-.1-.1-.3zm10.5-16c-2-1-2.3-1.9-1-2.7.5-.4 1-.5 1.5-.3.4.2.9.2 1 .1.1 0 .2 0 .2.3s.1.3.6 0c.6-.5.6-.3 0 1.8l-.4 1.6zm-21-7.4a7 7 0 0 1 .2-2.6l.4-2.2 1 1.2 1 1.2h-.9c-.6.1-.9.5-1.1 1.5-.2.7-.4 1.1-.5.9zm5-1c-1-.6-1.4-1.4-.4-1 .7.2 2 1.5 1.6 1.5l-1.2-.6zm28.7-17.3c-2.7-.8-2.5-.7-2-2.4.3-.9 1.1-2.2 1.7-2.8 1-1.1 1.3-1.3 2.5-1.1 1.5.2 1.5.4.6 3.1-.4 1.1-.7 2.3-.7 2.7 0 .9-.4 1-2 .5z" style="fill:#497989;stroke-width:.352778" transform="translate(-44.5 -173.2)"/>
  <path d="m81.4 242.5-2.4-1.3-1.8.6c-4 1.3-7.7.3-13.4-3.5-5-3.3-6.9-5.9-7.4-10.4l-.2-2 1.7 1.6c1 .9 2.6 2 3.7 2.6a60 60 0 0 1 3.7 2.2c3.5 2.3 7 3.5 8.1 2.9 2.1-1.1 5.8-6.4 5.3-7.6-.2-.4-.3-.5-.4-.2-.1.3-.4.4-.5.3-.2-.1-.4 0-.4.1 0 .5-1.5.7-2.2.4-.3-.2-.6-.7-.6-1 0-.4-.2-.7-.5-.7-.5 0-2-1.7-2-2.2 0-.2.4 0 .8.5.8 1 2.3 1.3 3.2.5a6 6 0 0 0 1.2-2.1c.5-1.7.5-1.8-.1-2.3l-3.5-1.8c-.2 0-1.3 2.6-1.2 2.9 0 .4-.7.2-1-.3-.5-.9-3-2.1-5.3-2.6-2.7-.5-3-.5-4.3-.2-.7.2-1.2 0-1.7-.5l-1-.8c-.2 0-.6-.2-.8-.5-.4-.5-.6-.3-1.5 1l-1 1.5.2-2c.1-1 .5-3.1 1-4.6l.6-3.6c0-1.2.4-1.4 1.3-.4.8 1 1.7 1.1 2.6.5.3-.2.6 0 .9.3.4.5.5.4.8-1 .6-2.3.7-2.4 1.2-2.4.3 0 .8-1.2 1.3-3 1.3-4.4 3.1-7.8 5.8-10.8 2.8-3.1 6.3-6.5 9-8.5 1.5-1.2 1.9-1.4 2.2-1 .2.4.3.2.3-.6 0-.6.2-1.2.4-1.3.4-.1.3-.3 0-.6-.5-.4-.5-.4 0-.3.5.2 1.2 1.4 1.5 2.9.4 2 .8.8.5-1.8-.3-2.8 0-5 .9-5 1.6-.2 4.8 1 4.8 2 0 .3-.2.4-.6.3-1.3-.5-3.8-1-4.3-.8-.4.2-.4.8-.3 3.3.2 1.7.5 3.2.7 3.3.9.6-1.4.7-2.5.2a5 5 0 0 0-1.5-.6c-1.1 0-12.4 11-13.8 13.4-2 3.4-3 8.4-2 9 .2.1.3.6.3 1.1 0 .5.3 1.1.7 1.5 1.3 1.2 2.3 1.8 2.7 1.7.3-.1.5 0 .6.2.1.3.4.2.8-.2.4-.6.6-.6.4-.2-.1.4 0 .7.6.8.4.1.8 0 .9-.1 0-.2.2-.3.4-.2.2.1.3 0 .3-.4s.1-.5.5-.2l.8.4c.1 0 .4.2.4.4.1.3 0 .4-.4.2-.8-.3-2 .4-2 1.2 0 1-.3 1-1.3.5-.8-.6-.8-.5-.6 0 .2.7.2.7-.2.1-.2-.3-.6-.5-.9-.4-.3.2-.4 0-.4-.7.1-.7 0-.8-.3-.5-.4.3-.5.3-.5 0s-.2-.3-.4-.2c-.2.1-.6-.1-1-.5l-.5-.8-.5.7c-.4.7-.4.9.1 1.8.7 1 4.2 3.2 5.2 3.2.4 0 1 .5 1.6 1 1 1.2 2.6 1.5 3.7.5.6-.5.6-.5.6.4 0 1.5.6 1 1.3-1 .3-1.1.8-2 1-2 .2 0 .9-1.5 1.5-3.4 1.5-4.5 4.2-9.2 7.7-13.4 3.1-3.7 8.5-9.2 8.7-9l.4 1c.2.5-.4 1.3-2.5 3.5a78.1 78.1 0 0 0-11.4 13.4c-1.7 3.5-1.7 7.2 0 7.2.4 0 .4 0-.2.6-.7.5-.7.5 0 .4.7-.2.8 0 .7.4 0 .3 0 .2.3-.3.5-1.1 1.3-2 1.8-2 .2 0 .5-.3.5-.7.3-1.5 1.8-3 1.8-1.7 0 .4.4.2 1.2-.6l3.3-3.1c1.2-1.1 2.2-2.3 2.3-2.6.2-.3.4-.6.6-.6.2 0 .4-.2.4-.4 0-.3.2-.7.5-1 1-1 3-5.5 3.5-7.4l.4-2 .4 1.3c.5 1.5.6 3.5.2 4.7-.3.7-.1 1.4 1.2 4 1.5 2.8 1.7 3.4 1.8 6.1.3 4.8-1.2 10.4-3.5 12.7a9 9 0 0 0-1.5 2.8c-.9 2.7-2.5 6-4 7.7-1.5 1.9-1 1.9 1 0 .8-.8 1.5-1.4 1.6-1.3.4.5-3.6 5.7-5.7 7.5-2.4 2-8.1 5.1-9.3 5.1-.4 0-1.7-.5-3-1.2zm9.3-5c-.1-.1-.4 0-.6.2-.4.4-.4.4.2.2.3-.1.5-.3.4-.4zm3.7-1.9c.8-.7 1.3-1.4 1.1-1.4-.2 0-.5.2-.6.4-.1.2-1 .9-1.9 1.4-1 .7-1.4 1-.9 1 .4 0 1.4-.6 2.3-1.4zm-33-19.6c.2-.6.6-1.6.7-2.3.2-1.3.2-1.3-1.2-2-.8-.5-1.6-.7-1.7-.6-.2 0-.6 1-1 2-.8 2.6-.4 3.8 1.4 3.8 1 0 1.3-.2 1.8-1zm38.3-4.5-.4-.4c-.2-.1-.3 0-.3.2s.1.3.3.3l.4-.1zm1.7-4.3c0-.2-.1 0-.3.2l-.4.9c0 .2.2.1.4-.2l.3-.9zm-22.5 6c-2-1-2.3-1.9-1-2.7.5-.4 1-.5 1.5-.3.4.2.9.2 1 .1.1 0 .2 0 .2.3s.1.3.6 0c.6-.5.6-.3 0 1.8l-.4 1.6zm-20.8-8.4c0-.6 0-1.7.2-2.4l.2-1.4 1 1.2 1 1.2-1 .1c-.7.2-1 .5-1.1 1.3l-.3 1zm4.8 0c-1-.6-1.4-1.4-.4-1 .7.2 2 1.5 1.6 1.5l-1.2-.6zm28.7-17.3c-2.7-.8-2.5-.7-1.8-2.5.3-1 1-2.2 1.5-2.8.9-1 1-1.2 2.3-1l1.4.3-.6 2.3c-.4 1.3-.8 2.6-.8 3-.2 1.2-.3 1.2-2 .7z" style="fill:#2a708a;stroke-width:.352778" transform="translate(-44.5 -173.2)"/>
  <path d="m81.4 242.5-2.4-1.3-1.8.6c-4 1.3-7.7.3-13.4-3.5-5-3.3-6.8-5.8-7.4-10.3l-.2-1.7 1 1a48.3 48.3 0 0 0 8 5.3c3.5 2.1 6.6 3.3 8 3 1.5-.4 3.4-2.5 4.7-5 2-3.8 1.7-4.8-1-3.6-1 .6-1.2.6-1.7 0-.4-.3-.8-.5-1.1-.5-.5 0-2-1.7-2-2.2 0-.2.4 0 .8.5.8 1 2.3 1.3 3.2.5a6 6 0 0 0 1.2-2.1c.6-2 .5-2.1-2.1-3.4-1.4-.7-2-.7-2 0 0 .3-.2.8-.5 1.2-.4.6-.5.6-2.5-.6-3.3-1.9-4-2-7-2-2 .1-2.8 0-3-.3 0-.3-.3-.5-.7-.5-.3 0-.8-.2-1.1-.5-.6-.5-.7-.4-1.6 1l-1 1.5.3-1.8c.1-1 .5-3 1-4.7l.6-3.7c0-1.2.4-1.4 1.3-.4.8 1 1.7 1.1 2.6.5.3-.2.6 0 .9.3.4.5.5.4.8-1 .6-2.3.7-2.4 1.2-2.4.3 0 .8-1.2 1.3-3 1.5-5 3-7.8 7-12a73.5 73.5 0 0 1 7-6.7c1.3-1 2.5-2 2.7-2 .6 0 .1.9-1.3 2l-6.7 6.5a28.2 28.2 0 0 0-6.4 7.8c-1.6 3.5-2.2 6.6-1.6 8.4.2.8.3 2 .2 2.7-.4 2 0 2.8 2.2 4.2a18 18 0 0 0 3.4 1.7c.8.2 1.7.7 2 1.2.9 1 2.6 1 3.6.2.6-.5.6-.5.6.4 0 1.5.6 1 1.3-1 .3-1.1.8-2 1-2 .2 0 .9-1.5 1.5-3.4 1.4-4.2 4-8.8 6.7-12.2a101 101 0 0 1 9.7-10.1c.1 0 .3.3.3.7 0 .5-1.2 2-3.1 4-10 10.4-12 13.3-12.4 18.3-.3 2.9 0 4.4.8 5 .5.4.5.5-.2.7-.7.3-.7.3 0 .7 1 .7 2 .8 2.6.4a8 8 0 0 0 1.1-3l1.3-4 .7-1.5-.2 2v1.4a10 10 0 0 1 2.3-3.9c.6-.3.7-.3.7 0s.4 0 .9-.4.9-.7.9-.5l.8-.2c.4-.3 1-.4 1.2-.4.2 0 .5-.4.6-1 .2-.6.4-1 .5-.8.3.4 1.5.5 1.5.1l-.4-.6-.1-.3c.3.2 1.9-1.4 1.9-2 0-.2.2-.8.5-1.3 1-1.8 1.6-3.6 1.7-4.5.1-1 .6-1.6.6-.8l-.4 1.7c-.3 1.2-.2 1.6 1.4 4.6l1.6 3.3v3.7c0 5.1-1.2 9.2-3.4 11.4a9 9 0 0 0-1.5 2.8c-.9 2.7-2.5 6-4 7.7-1.5 1.9-1 1.9 1 0 .8-.8 1.5-1.4 1.6-1.3.4.5-3.6 5.7-5.7 7.5-2.4 2-8.1 5.1-9.3 5.1-.4 0-1.7-.5-3-1.2zm9.3-5c-.1-.1-.4 0-.6.2-.4.4-.4.4.2.2.3-.1.5-.3.4-.4zm-23.2-.3c-.3-.4-.3-.5 0-.5s.3-.1 0-.5c-.2-.2-.7-.4-1-.3-.4.1-.7 0-.7-.2s-.3-.4-.7-.5c-.7-.2-.9 0-.7 1.1 0 .4 0 .5-.5 0-.3-.2-.6-.2-.6 0 0 .6 1.2.8 1.7.1.4-.6.4-.5.2 0-.2.6 0 .7.5.6.4-.1.8 0 1 .2 0 .2.3.4.7.4.4 0 .4 0 .1-.4zm26.9-1.6c.8-.7 1.3-1.4 1.1-1.4-.2 0-.5.2-.6.4-.1.2-1 .9-1.9 1.4-1 .7-1.4 1-.9 1 .4 0 1.4-.6 2.3-1.4zm-30.7 0c.2 0 .2-.2.1-.5-.1-.4-.3-.5-.7-.1-.4.3-.4.3-.2-.3.1-.4 0-.5-.2-.4-.3.2-1.8-1.2-1.8-1.7 0-.4-1.1-1.2-1.4-1-.2 0-.4-.2-.5-.6-.2-.8-1-.8-1.2 0v.3c.2-.1.6.3 1 .9 1 2.4 3 4 4.1 3.6l.8-.2zm-5.3-6c0-.2 0-.3-.2-.3l-.3.3c-.2.2 0 .4.1.4.2 0 .4-.2.4-.4zM99 220s-.3-.4-.7-.6c-.5-.5-.5-.5 0 0 .4.7.7.9.7.6zm-1.7-2c-.3-.3-.5-.4-.5-.1 0 .4.5.9.7.6.1 0 0-.4-.2-.6zm4.4-8.3c0-4 0-5.8-.3-5.5-.2.3-.3.8-.3 1.2 0 .3-.2.6-.3.6a46.2 46.2 0 0 1-5.5 8.8c0 .2.3.3.5.2.7-.5 1.8-.5 1.5 0-.3.5-.5 1.4-.2 1 .4-.3 1.5 1 1.5 1.8 0 .6.1.6.7-.3.7-1 1-.9.7.4 0 .3.1.4.3.3.2-.1.5 0 .7.2.4.8.7-2.3.7-8.7zm-3.8 3.9c0-.5.1-.5.2-.3.2.3.1.6 0 .7-.1.1-.2 0-.2-.4zM61.4 216c.2-.6.6-1.6.7-2.3.2-1.3.2-1.3-1.2-2-.8-.5-1.6-.7-1.7-.6-.2 0-.6 1-1 2-.8 2.6-.4 3.8 1.4 3.8 1 0 1.3-.2 1.8-1zm34.6.2c.2-.3.1-.3-.1-.2-.2.1-.5 0-.6-.2 0-.3-.2-.2-.2.2 0 .7.5.8.9.2zm-17-3c-2-1-2.4-1.9-1.2-2.7.6-.4 1-.5 1.6-.3.4.2.9.2 1 .1.1 0 .2 0 .2.3s.1.3.6 0c.6-.5.6-.3 0 1.8l-.4 1.6zm-21-8.4c0-.4 0-.6.2-.4v.9c-.1.2-.2 0-.2-.5zm4.8-.2c-1-.5-1.4-1.3-.4-1 .7.3 2 1.6 1.6 1.6l-1.2-.6zm28.5-17.4c-1-.3-1.8-.8-1.9-1-.2-.8 2.2-4.3 3-4.3.3 0 .8.3 1.2.8.7.6.7.8.3 2.2l-.5 2c0 1-.2 1-2.1.3zm-6.8-2.5c-1-.5-1-1-.3-1 .3 0 .7.3 1 .7l.2.7-1-.4zm1.2-1.2.1-1.2c.2 0 .4.5.4 1.2v1.2c-.2 0-.4-.5-.5-1.2zm-.3-3.2c-.2-2.5.2-4 1.3-4 1.5 0 4.9 1.7 4.4 2.3l-2.2-.4a7.5 7.5 0 0 0-2.6-.4c-.3.1-.5 1-.6 2.2v2z" style="fill:#5e6060;stroke-width:.352778" transform="translate(-44.5 -173.2)"/>
  <path d="M83.4 243.4c-.5-.1-1.7-.7-2.6-1.2l-1.6-1-2 .6c-4 1.3-7.7.3-13.4-3.5-5-3.3-6.8-5.8-7.4-10.3l-.2-1.7 1 1a48.3 48.3 0 0 0 8 5.3c3.5 2.1 6.6 3.3 8 3 1.5-.4 3.4-2.5 4.7-5 2-3.7 1.6-5-.8-3.6-1.1.6-1.8.7-1.8 0 0-.2-.4-.5-1-.6-.5-.2-1.1-.6-1.4-1-.5-.9-.5-.9.2-.3.8.8 2.2.8 3 .2a6 6 0 0 0 1.2-2.1c.5-1.7.5-1.8-.1-2.3-.7-.5-3.3-1.8-3.7-1.8-.1 0-.4.5-.6 1.2l-.6 1.2-2.2-1.1c-3.2-1.9-4.1-2.2-6.4-2-2.5.3-3.7 0-3.4-.6.1-.3 0-.4-.4-.3-.4.1-1 0-1.3-.3-.5-.4-.4-.4.8-.3 1.3 0 1.5 0 2-1 .2-.5.6-1.5.7-2.2.2-1.2.2-1.3-1.2-2-1.5-.8-2.6-.7-2.3.2.1.2 0 .5-.2.5s-.3.1-.2.3c.1.2 0 .4-.2.4s-.3.2-.2.5c.1.3 0 .6-.1.7-.2.1-.4.5-.4 1 0 .3.2.5.4.4.6-.4.4.3-.7 2.1l-1.1 1.8.2-1.6c0-.9.5-3.2 1-5 .7-3.4.7-3.5 1.3-2.8.3.4.7.6.8.5.1-.1 1 .2 1.9.7.9.5 1.7.9 1.9.8.1-.1.6-1.4.9-2.9.4-1.7.8-2.6 1.1-2.6.3 0 .4-.2.3-.5-.3-.8 1.4-5.8 2.8-8.7a57.8 57.8 0 0 1 14.4-14.8c.6 0 .1.9-1.3 2l-6.7 6.5a28.2 28.2 0 0 0-6.4 7.8c-1.5 3.4-2.2 6.6-1.6 8.4.2.7.3 2 .1 3-.2 1.8-.1 2 .8 2.8.6.5 2 1.5 3.3 2 2 1 2.3 1.4 2.3 2 0 .7.5 1.2 2.9 2.4 3.6 2 4.2 2 4.7 0l1-3c.3-1 .3-1.7 0-2-.4-.6 1.5-5.9 3.4-9.5a47 47 0 0 1 3.8-5.7 97.2 97.2 0 0 1 9.9-10.3c.1 0 .3.3.3.7 0 .5-1.2 2-3.1 4-10 10.4-12 13.3-12.4 18.3-.3 2.9 0 4.4.8 5 .5.4.5.5-.2.7-.7.3-.7.3 0 .7 1 .7 2 .8 2.6.4a8 8 0 0 0 1.1-3l1.3-4 .7-1.5-.2 2v1.4a10 10 0 0 1 2.3-3.9c.6-.3.7-.3.7 0s.4 0 .9-.4.9-.7.9-.5l.8-.2c.4-.3 1-.4 1.2-.4.2 0 .5-.4.6-1 .2-.6.4-1 .5-.8.3.4 1.5.5 1.5.1l-.4-.6-.1-.3c.3.2 1.9-1.4 1.9-2 0-.2.2-.8.5-1.3 1-1.8 1.6-3.6 1.7-4.5.1-1 .6-1.6.6-.8l-.4 1.7c-.3 1.2-.2 1.6 1.4 4.6l1.6 3.3v3.7c0 5.2-1.2 9.2-3.5 11.5-.8.7-2.3 4.1-2.7 6 0 .2-.3.6-.6 1l-.5.9c.1 0-.1.4-.5.7-.4.3-.4.4 0 .3l-.4.5c-.5.3-1 .8-1 1 0 .3-3 3.2-3 3 0-.2-.1 0-.3.3-.2.4-.5.6-.7.5-.2-.2-.3 0-.3.1 0 .3-.2.3-.4.2-.2-.1-.3 0-.3.2s.2.3.6.3c.7 0 3.7-2.6 3.4-2.9-.2-.1 0-.2.2-.2.3 0 1.2-.7 2-1.5.9-.8 1.6-1.4 1.7-1.3A24.3 24.3 0 0 1 88.7 242c-3 1.6-4 1.9-5.3 1.5zm7.3-6c-.1 0-.4 0-.6.3-.4.4-.4.4.2.2.3-.1.5-.3.4-.4zm-23.2-.2c-.3-.4-.3-.5 0-.5s.3-.1 0-.5c-.2-.2-.7-.4-1-.3-.4.1-.7 0-.7-.2s-.3-.4-.7-.5c-.7-.2-.9 0-.7 1.1 0 .4 0 .5-.5 0-.3-.2-.6-.2-.6 0 0 .6 1.2.8 1.7.1.4-.6.4-.5.2 0-.2.6 0 .7.5.6.4-.1.8 0 1 .2 0 .2.3.4.7.4.4 0 .4 0 .1-.4zm-3.8-1.6c.2 0 .2-.2.1-.5-.1-.4-.3-.5-.7-.1-.4.3-.4.3-.2-.3.1-.4 0-.5-.2-.4-.3.2-1.8-1.2-1.8-1.7 0-.4-1.1-1.2-1.4-1-.2 0-.4-.2-.5-.6-.2-.8-1-.8-1.2 0v.3c.2-.1.6.3 1 .9 1 2.4 3 4 4.1 3.6l.8-.2zm-5.3-6c0-.2 0-.3-.2-.3l-.3.3c-.2.2 0 .4.1.4.2 0 .4-.2.4-.4zM99 220s-.3-.4-.7-.6c-.5-.5-.5-.5 0 0 .4.7.7.9.7.6zm-1.7-2c-.3-.3-.5-.4-.5-.1 0 .4.5.9.7.6.1 0 0-.4-.2-.6zm4.4-8.3c0-4 0-5.8-.3-5.5-.2.3-.3.8-.3 1.2 0 .3-.2.6-.3.6a46.2 46.2 0 0 1-5.5 8.8c0 .2.3.3.5.2.7-.5 1.8-.5 1.5 0-.3.5-.5 1.4-.2 1 .4-.3 1.5 1 1.5 1.8 0 .6.1.6.7-.3.7-1 1-.9.7.4 0 .3.1.4.3.3.2-.1.5 0 .7.2.4.8.7-2.3.7-8.7zm-3.8 3.9c0-.5.1-.5.2-.3.2.3.1.6 0 .7-.1.1-.2 0-.2-.4zm-1.9 2.6c.2-.3.1-.3-.1-.2-.2.1-.5 0-.6-.2 0-.3-.2-.2-.2.2 0 .7.5.8.9.2zm-17-3c-2-1-2.4-1.9-1.2-2.7.6-.4 1-.5 1.6-.3.4.2.9.2 1 .1.1 0 .2 0 .2.3s.1.3.6 0c.6-.5.6-.3 0 1.8l-.4 1.6zm-21-8.4c0-.4 0-.6.2-.4v.9c-.1.2-.2 0-.2-.5zm4.8-.2c-1-.5-1.4-1.3-.4-1 .7.3 2 1.6 1.6 1.6l-1.2-.6zm28-17.5c-.7-.3-1.3-.7-1.4-.9-.2-.8 2.2-4.3 3-4.3.5 0 1.9 1.2 1.9 1.6l-.6 2.2c-.6 2-.8 2.1-3 1.4zm-6.3-2.4c-1-.5-1-1-.3-1 .3 0 .7.3 1 .7l.2.7-1-.4zm1.2-1.2.1-1.2c.2 0 .4.5.4 1.2v1.2c-.2 0-.4-.5-.5-1.2zm-.3-3.2c-.2-2.5.2-4 1.3-4 1.5 0 4.9 1.7 4.4 2.3l-2.2-.4a7.5 7.5 0 0 0-2.6-.4c-.3.1-.5 1-.6 2.2v2z" style="fill:#8a5931;stroke-width:.352778" transform="translate(-44.5 -173.2)"/>
  <path d="M83.4 243.4c-.5-.1-1.7-.7-2.6-1.2l-1.6-1-2 .6c-4 1.3-7.7.3-13.4-3.5-5-3.3-6.8-5.8-7.4-10.3l-.2-1.7 1 1a48.3 48.3 0 0 0 8 5.3c3.5 2.1 6.6 3.3 8 3 1.5-.4 3.4-2.5 4.7-5 2-3.7 1.6-5-.8-3.6-1.2.6-1.8.6-1.8 0 0-.3-.2-.5-.6-.5-.3 0-.8-.2-1.1-.4-.5-.3-.4-.3.2-.2.4.1 1.3 0 2-.3 1-.4 1.3-.8 1.6-1.8.5-2 .5-2.7-.2-3.2-.5-.4-.3-.4.5 0 2 1 2.5.8 3-1 .1-.8.5-2.1.8-3 .3-1 .4-1.7.2-1.9-.7-.7 3-9.7 5.7-13.4 1.8-2.4 8.5-9.8 10-11 1.4-1.1 1.4-1.1 1.5-.4 0 .5-1 1.8-3 4-10 10.3-12 13.2-12.4 18.2-.3 2.9 0 4.4.8 5 .5.4.5.5-.2.7-.7.3-.7.3 0 .7 1 .7 2 .8 2.6.4a8 8 0 0 0 1.1-3l1.3-4 .7-1.5-.2 2v1.4a10 10 0 0 1 2.3-3.9c.6-.3.7-.3.7 0s.4 0 .9-.4.9-.7.9-.5l.8-.2c.4-.3 1-.4 1.2-.4.2 0 .5-.4.6-1 .2-.6.4-1 .5-.8.3.4 1.5.5 1.5.1l-.4-.6-.1-.3c.3.2 1.9-1.4 1.9-2 0-.2.2-.8.5-1.3 1-1.8 1.6-3.6 1.7-4.5.1-1 .6-1.6.6-.8l-.4 1.7c-.3 1.2-.2 1.6 1.4 4.6l1.6 3.3v3.7c0 5.3-1.3 9.4-3.6 11.6-.6.6-1.1 1.2-1.1 1.5 0 1.9-4 8.6-6 10.5a21.2 21.2 0 0 1-7.5 4c-2.6.8-3.5 1.4-2 1.4 1.4 0 5.9-1.1 7.7-2l2-.7c.2.2-1.7 2-3.5 3.4-1.4 1-5.4 3-6.6 3.3l-1.8-.1zm.8-3.7c.1-.5 0-1-.1-1.3-.2-.3-.3-.3-.3-.2 0 .2-.2.1-.5-.1l-.6-.2-.8-.1c-1.2-.5-1.7.2-1 1.3 1 1.6 3 2 3.3.6zm-16.7-2.5c-.3-.4-.3-.5 0-.5s.3-.1 0-.5c-.2-.2-.7-.4-1-.3-.4.1-.7 0-.7-.2s-.3-.4-.7-.5c-.7-.2-.9 0-.7 1.1 0 .4 0 .5-.5 0-.3-.2-.6-.2-.6 0 0 .6 1.2.8 1.7.1.4-.6.4-.5.2 0-.2.6 0 .7.5.6.4-.1.8 0 1 .2 0 .2.3.4.7.4.4 0 .4 0 .1-.4zm-3.8-1.6c.2 0 .2-.2.1-.5-.1-.4-.3-.5-.7-.1-.4.3-.4.3-.2-.3.1-.4 0-.5-.2-.4-.3.2-1.8-1.2-1.8-1.7 0-.4-1.1-1.2-1.4-1-.2 0-.4-.2-.5-.6-.2-.8-1-.8-1.2 0v.3c.2-.1.6.3 1 .9 1 2.4 3 4 4.1 3.6l.8-.2zm-5.3-6c0-.2 0-.3-.2-.3l-.3.3c-.2.2 0 .4.1.4.2 0 .4-.2.4-.4zM99 220s-.3-.4-.7-.6c-.5-.5-.5-.5 0 0 .4.7.7.9.7.6zm-1.7-2c-.3-.3-.5-.4-.5-.1 0 .4.5.9.7.6.1 0 0-.4-.2-.6zm4.4-8.3c0-4 0-5.8-.3-5.5-.2.3-.3.8-.3 1.2 0 .3-.2.6-.3.6a46.2 46.2 0 0 1-5.5 8.8c0 .2.3.3.5.2.7-.5 1.8-.5 1.5 0-.3.5-.5 1.4-.2 1 .4-.3 1.5 1 1.5 1.8 0 .6.1.6.7-.3.7-1 1-.9.7.4 0 .3.1.4.3.3.2-.1.5 0 .7.2.4.8.7-2.3.7-8.7zm-3.8 3.9c0-.5.1-.5.2-.3.2.3.1.6 0 .7-.1.1-.2 0-.2-.4zm-1.9 2.6c.2-.3.1-.3-.1-.2-.2.1-.5 0-.6-.2 0-.3-.2-.2-.2.2 0 .7.5.8.9.2zM71.3 221l-3-1.6c-2-1-2.4-1.1-4.5-1-2.6.3-3.8 0-3.5-.6.1-.3 0-.4-.6-.3-.4.1-.2 0 .5-.4s1.3-1 1.5-1.8l1.1-2.8c.5-1 1-2.6 1.3-3.8.3-1.3.6-2 1-2a31.5 31.5 0 0 1 3.4-9.7c2-4 14.2-15.7 14.2-13.7a184.4 184.4 0 0 0-8.2 8 27 27 0 0 0-6.4 7.7c-1.5 3.4-2.2 6.6-1.6 8.4.2.7.3 2 .1 3-.2 1.8-.1 2 .8 2.8.6.5 2 1.5 3.3 2 1.8 1 2.3 1.4 2.2 1.8 0 .4 0 .9.3 1.1.3.4.2.9-.2 2-.7 1.6-.7 1.6-1.7 1zm4.2-1.4c-.7-.6-.7-.6 0-.2l.9.5c0 .3-.2.2-1-.3zM56 218c0-.9.5-3.1 1-5 .6-3 .8-3.4 1.2-3 .5.5.4.8-.2 2.7a8.5 8.5 0 0 0-.6 3.1c.1.7-.1 1.4-.7 2.4l-1 1.4zm2-13c0-.5 0-.7.2-.5v.9c-.1.2-.2 0-.2-.5zm32.8-17.8c-.7-.3-1.3-.7-1.4-.9-.2-.8 2.2-4.3 3-4.3.5 0 1.9 1.2 1.9 1.6l-.6 2.2c-.6 2-.8 2.1-3 1.4zm-6.3-2.4c-1-.5-1-1-.3-1 .3 0 .7.3 1 .7l.2.7-1-.4zm1.2-1.2.1-1.2c.2 0 .4.5.4 1.2v1.2c-.2 0-.4-.5-.5-1.2zm-.3-3.2c-.2-2.5.2-4 1.3-4 1.5 0 4.9 1.7 4.4 2.3l-2.2-.4a7.5 7.5 0 0 0-2.6-.4c-.3.1-.5 1-.6 2.2v2z" style="fill:#24637a;stroke-width:.352778" transform="translate(-44.5 -173.2)"/>
  <path d="M83.4 243.4c-.5-.1-1.7-.7-2.6-1.2l-1.6-1-2.1.6c-2.9.9-5.6.6-8.6-.8a37.3 37.3 0 0 1-8.4-5.6l-.8-1 1.2 1c.7.5 1.5 1 1.7 1a8 8 0 0 1 2.1 1.1l2.8 1.8c1 .5 1.3.5 1.7 0 .6-.5 1.2-.6 2.4-.5.3 0 .6-.1.8-.3.1-.2 0-.4-.2-.3-.3 0-.7-.3-.8-.7-.2-.4-1-1-1.6-1.2-.6-.2-1.1-.6-1.1-.7 0-.2-.3-.3-.6-.3-.2 0-.5-.2-.5-.4s-.3-.3-.6-.3c-.3.1-1.3-.4-2.2-1a6.8 6.8 0 0 0-1.9-1.3c-.2 0-.4-.3-.5-.6-.2-.9.2-.8 1.7.2l3.9 2.2c3.2 1.7 5.9 1.9 7.5.6.6-.5 1.1-.8 1.2-.7l-.8 1.8c-.5.9-.8 1.6-.6 1.6.4 0 1.3-1 1-1-.3 0-.1-.2.2-.4.4-.2.6-.5.5-.7-.1-.2.1-.4.5-.5.4-.2.7-.4.7-.6 0-.2.2-.3.3-.2.3.2.3 0 .2-.3-.2-.5-.1-.6.1-.4.3.2.4 0 .2-.3 0-.3 0-.5.2-.5.5 0 .5-.4 0-1.1-.3-.5-.3-.5-.6 0-.6.9-.5.3.5-2l.9-2.6c0-.5-1.8-.8-2.3-.3-.5.3-.6.3-.6 0 0-.4 0-.4-.4 0-.5.3-3-.2-3-.6h.6a4 4 0 0 0 2-.3c.9-.4 1.2-.8 1.5-1.8.5-2 .5-2.7-.2-3.2-.5-.4-.3-.4.5 0 2 1 2.5.8 3-1 .1-.8.5-2.1.8-3 .3-1 .4-1.7.2-1.9-.7-.7 3-9.7 5.7-13.4 1.8-2.4 8.5-9.8 10-11 1.2-1 1.4-1 1.5-.5 0 .3-1 1.5-2.2 2.7a73.8 73.8 0 0 0-6.2 6.8A22.1 22.1 0 0 0 83 216c0 2.6 0 2.8 1.7 3.3l1.6.6c1 .4 1.9-2 2-6.2 0-.2.2-.3.4-.3s.4.6.5 1.3v1.4l.7-1.8c1-2.6 1.1-2.8 2-2.7.4 0 .7 0 .7-.3 0-.2-.1-.3-.3-.2-.2.1-.5 0-.6-.2-.2-.3.1-.4 1-.2.8.1 1.4 0 1.5-.2.2-.2.4-.1.6.3.3.4.2.7 0 1-.4.3-.5.2-.3-.3.1-.3 0-.5 0-.4-.3.1-.5.6-.5 1-.2.7 0 .8.7.7.8-.2.9-.1.4.4-.3.4-.3.6 0 .6.2 0 .5-.4.7-1 .2-.4.5-.8.7-.8.2 0 .3-.1.2-.3 0-.2.2-.6.6-.9.3-.3.6-.8.5-1.1-.1-.3-.1-.5 0-.4.2.1.5 0 .6-.4.1-.3.3-.4.4-.3.1 0-.7 1.6-1.8 3.3a75.5 75.5 0 0 0-2.2 3.4l-1 1.1-1 .8.7.8c.4.5.5.7.2.5-.4-.2-.4-.1-.3.3.2.5.1.6-.4.3s-.8-.3-1 0c-.2.4.6 1.4 1 1.2.1-.1.2.2.1.8 0 1 0 1 .4-.2.4-.8.8-1.1 1.3-1.1h.8l-.8.4-.8.5.7.6c.8.7.8.7.5 0-.2-.6-.2-.6.4-.1.6.5.7.4.4-.1-.1-.4 0-.6.1-.5.2.2.4.5.4.8 0 .3.1.5.2.4.5-.5 1.2 1.5.8 2-.2.4-.2.6 0 .7.4.2.4.2.3-.1-.2-.2-.1-.4 0-.4.3 0 .5.2.7.4 0 .2.5-.1 1-.8l1-1.2-.2 2.1c-.2 2-1.2 4.8-1.8 4.8l-.2.4c0 .5-2.1 3.4-3.2 4.4a21 21 0 0 1-7.5 4c-2.6.8-3.5 1.4-2 1.4 1.4 0 5.9-1.1 7.7-2l2-.7c.2.2-1.7 2-3.5 3.4-1.4 1-5.4 3-6.6 3.3l-1.8-.1zm.8-3.7c.1-.5 0-1-.1-1.3-.2-.3-.3-.3-.3-.2 0 .2-.2.1-.5-.1l-.6-.2-.8-.1c-1.2-.5-1.7.2-1 1.3 1 1.6 3 2 3.3.6zm-9.3-1.3c0-.6 0-.7-.3-.3-.1.3-.2.6-.1.8.3.4.3.3.4-.5zm10.8-8.8.4-2.4c.5-2.5 1-5.8.7-5-.1.2-.8.5-1.4.6-.7.1-1.3.3-1.3.5s.3.2.6.1c.7-.3.6.3-.2 1-.4.4-.6.8-.5 1 .2.3.1.4-.1.2-.5-.3-.5-.2-.6 1.5 0 .6-.2 1.2-.3 1.3-.1.2-.3.5-.3.9s.1.4.4 0c.1-.3.5-.5.9-.6.5 0 .5 0 0 .8-.8 1.2-.4 1.6.8 1 .6-.4 1-.8 1-.9zm-.5-7.2-.3-.3c-.2-.2-.4-.1-.4.1s.2.4.4.4c.1 0 .3 0 .3-.2zm6.7-1-.3-.4c-.2-.1-.4 0-.4.1 0 .3.2.4.4.4l.3-.1zM69.7 238c0-.2.1-.3.3-.3.2 0 .4.1.4.3 0 .2-.2.4-.4.4a.4.4 0 0 1-.3-.4zm7-4.5c-.2-.2-.3-.4 0-.6.2 0 .4 0 .5.3.3.7.2.7-.4.3zm-16.5-3c-.4-.2-.7-.6-.7-.9 0-.2-.2-.4-.4-.4a.4.4 0 0 1-.4-.4c0-.4 2.8 1.5 2.9 1.9 0 .3-.3.3-1.4-.2zm38-7.3c0-.4.3-.8.5-1 .2 0 .3 0 .2.1-.2.2-.1.5 0 .7.3.3.3.5-.1.7-.4.1-.5 0-.5-.5zm3.4-3.4.2-10.4c.1-7.6.2-8.4.7-8.4.7 0 2.8 5 3.2 7.3.7 5-.9 11.2-3.4 13.5l-1 .9zM71.7 221c-.3-.3-.8-.5-1-.5-.4 0-.7-.2-.8-.4-.6-1-3.6-1.9-6.4-2-1.5 0-2.9-.2-3-.4 0-.2-.4-.3-.8-.2-.5.1-.3 0 .5-.4a3 3 0 0 0 1.5-1.8l1.1-2.8c.5-1 1-2.6 1.3-3.8.3-1.3.6-2 1-2a31.5 31.5 0 0 1 3.4-9.7c1.7-3.4 12.3-14 14-14 .2 0-.2.7-1 1.4-10.3 9.3-12.6 12-14.3 16.7-1 2.8-1 3.1-1 9l.1 2.4 1.7 1.3a17 17 0 0 0 3.4 1.9c1.3.5 1.7.8 1.5 1.3 0 .4 0 .9.3 1.1.3.4.2.9-.3 2-.6 1.4-.6 1.5-1.2 1zm-1.9-3.9c.1-.3 0-.5-.1-.3-.2 0-.4.3-.4.5 0 .5.3.4.5-.2zm5.7 2.5c-.7-.6-.7-.6 0-.2l.9.5c0 .3-.2.2-1-.3zm-19.2-2.8c0-.6.2-1 .5-1 .7 0 1 .6.7 1.3-.4.9-1.2.6-1.2-.3zm32.4-4c0-.2.2-.5.4-.6.2-.1.3 0 .3.1 0 .2-.1.5-.3.6-.2.1-.4 0-.4-.2zm2-25.8-1.3-.6.8-1.2c1.2-2 1.6-2.2 2.7-1.1.4.5.7.7.6.5-.1-.3 0-.5.2-.5.4 0 .4.5 0 2.2-.5 1.5-1 1.6-3 .7zm-5-7.1c-.1-1.5 0-2.6.3-3 .5-.6.6-.6 2.4 0 1 .3 2.1.8 2.4 1 .6.5.1 1-.7.6a8 8 0 0 0-2.3-.5H86l-.2 2-.2 2.2z" style="fill:#22586f;stroke-width:.352778" transform="translate(-44.5 -173.2)"/>
  <path d="M83.4 243.4c-.5-.1-1.7-.7-2.6-1.2l-1.6-1-2.1.6c-2.6.8-5.4.6-8.2-.6-2-1-7.1-4.1-6.9-4.4.2-.2 1.5.5 3 1.5.8.6 3.7 1.9 5.4 2.4.8.2 1.2.1 1.1-.3 0-.1 0-.4.3-.5 1-.7.5-3.8-.6-3.4-.3.1-1-.2-1.6-.7-.6-.5-1.3-.8-1.6-.7-.2 0-.4 0-.4-.2s-1-.8-2-1.3a18 18 0 0 1-3-1.8c-.7-.7-.6-.6.7.1 5.8 3.4 9.3 4.4 11.5 3l1.2-.7-1 2c-1 2.2-1.3 4-.7 4 .2 0 .3-.3.3-.6 0-.5.1-.5.4 0l.3.8v-1.7l.3-.6c.7-.5 1.6-1.9 1.1-1.6-.2.1-.1 0 .3-.5.4-.3.8-.8.8-1 0-.2.4-.6.8-1 .4-.2.6-.5.5-.5-.2 0 0-.2.3-.5.7-.7.7-1.7 0-2.3-.5-.4-.7-.4-1 0-.4.6-.3.3.7-2.4.9-2.2.2-2.6-3.3-2-1 .2-1.7 0-2.1-.2-.6-.3-.6-.4.1-.2.4.1 1.3 0 2-.3 1-.4 1.3-.8 1.6-1.8.5-2 .5-2.7-.2-3.2-.5-.4-.3-.4.5 0 2 1 2.5.8 3-1 .1-.8.5-2.1.8-3 .3-1 .4-1.7.2-1.9-.7-.7 3-9.7 5.7-13.4 1.8-2.5 8.5-9.8 10.1-11.1 2.4-1.9 1.4-.3-1.9 3.1-9.6 10-12.4 14.5-12.7 20.8a20 20 0 0 1-.4 3.6c-.2.4 2.2 2.7 3.3 3 1.5.3 2-.6 2.4-4.5l.4-2c.1-.2.3 3 .2 3.6 0 .3 0 .3.2 0 .2-.2.5-.9.6-1.5l.5-1.8c.3-.5.4-.4.8.4.2.5.5.9.7.8.4-.3.4.2 0 .9-.2.3-.2.6 0 .7.6.4-.4 2.2-1.2 2.4-1 .2-1.8 2.5-1 2.5.3 0 .7.3 1 .6.3.3.4.5 0 .5-.2 0 0 .4.5 1l.8.9-.8-.6c-.9-.6-1-.6-1.3.2-.3.5-.5.6-.5.2 0-.3.2-.7.4-1 .4-.4.4-.5 0-.6a.4.4 0 0 1-.2-.6c.1-.2.1-.3 0-.1-.2.1-.4.4-.4.7l-.4 1.2.1.8 1 .1c.6.1.8 0 .7-.3-.3-.7.2-.6 1.2.3.8.8.8.8 1.3 0 .7-.8.5-1.3-.4-1.3-.4 0-1-.2-1-.3-.2-.2 0-.2.3 0 .3 0 .6 0 .6-.3s.3 0 .8.4c.7.6.8.9.5 1.1-.3.2-.3.3 0 .3.5 0 .5 0 .1.3-.3.2-.2.5.7 1.1.6.5 1 .7 1 .4-.2-.2-.2-.4 0-.4s.3-.2.2-.5c-.2-.5-.2-.6.5-.1.5.3.6.5.3.6-.5.2-.8 1.1-.3 1h1.3c1 0 1 .1.3.6-.4.3-.5.5-.3.4.3 0 .4.1.4.3 0 .2-.2.3-.5.2-.5 0-.5 0-.2.4.4.4.3.7 0 1.2-.4.4-.6 1-.6 1.3 0 1.5-4.8 4.8-9 6-2.5.7-3.4 1.3-2 1.3 1.5 0 6-1.1 7.8-2l2-.7c.2.2-1.7 2-3.5 3.4-1.4 1-5.4 3-6.6 3.3l-1.8-.1zm.8-3.7c.1-.5 0-1-.1-1.3-.2-.3-.3-.3-.3-.2 0 .2-.2.1-.5-.1l-.6-.2-.8-.1c-1.2-.5-1.7.2-1 1.3 1 1.6 3 2 3.3.6zm1-6.9a115 115 0 0 0 2-10.3c.2-1 .1-1-.9-.9-.6.1-1.1 0-1.2-.2 0-.2-.4-.2-1 .1-.4.3-1 .5-1.4.4-.4 0-.4 0 0 .3.2.3.2.7.1 1-.1.4 0 .5.3.3s.4-.2.3.1c0 .3-.3.4-.4.4-.2 0-.5.2-.8.6-.4.5-.4.7.1 1 .5.4.5.5-.2.3-.5 0-.8 0-.7.3.1.2.3.4.5.4s.3.4.3 1.1c0 .7-.1 1.2-.3 1.2-.2 0 0 .4.2.8.4.7.4 1 0 2-.5 1.7-.2 2.6.5 1.4.3-.4.5-.6.4-.2-.3.8 0 1 .7.4.3-.3.7-.4 1-.2.2.1.1.3-.3.3-.7.2-.8.7 0 .7.2 0 .6-.5.8-1.3zm6-5.8c-.2-.2-.2-.6 0-.7 0-.2 0-.2-.3 0s-.3.3 0 .7c.2.3.5.5.6.5l-.2-.5zm-2.7-4.3v-1.2c-.2 0-.4.2-.4.5 0 .2 0 1-.2 1.6-.2.8-.1 1 0 .7.2-.2.5-1 .6-1.6zm13.2-8.3c.1-8.9.4-13 .8-13 .5 0 2 2.9 2.7 5.1.8 2.9.5 8.4-.6 11.2-.8 2.1-2 4.2-2.6 4.4-.3 0-.4-2.6-.3-7.7zm-26.2 5.2c-.7-.6-.7-.6 0-.2l.9.5c0 .3-.2.2-1-.3zm-3-1.5c-.5-.5-.4-.5.3-.2.8.5 1 .8.5.8-.2 0-.6-.3-.8-.6zm-6 0c-.3-.2-3-.5-5.7-.5H59l1.1-.6c.8-.4 1.3-1 1.5-1.7l1.1-2.8c.5-1 1-2.6 1.3-3.8.3-1.3.6-2 1-2a31.5 31.5 0 0 1 3.4-9.7 54.5 54.5 0 0 1 14-13.9c.1.1-.7 1-1.8 2a78.7 78.7 0 0 0-12.5 13.5A21.2 21.2 0 0 0 66 209v3.2l1.4 1.2c.8.6 2.3 1.5 3.4 2s2 1.1 2 1.4c0 .5-1.4 0-3.6-1.3-1-.6-1.2-.6-1.6-.2-.4.5-.4.7 0 1 .7 1-.4 2.7-1.2 1.8zm25.8-1.5c0-.7.1-1 .2-.6.1.3.3.5.6.3.2 0 .2.1-.1.5l-.6.8-.1-1zm-.1-2.2c-.4-.2-.6-.5-.6-.7 0-.4 0-.4.2 0l1 .5c.4 0 .5.2.3.3-.2.2-.6.1-1 0zm-.9-27.2c-.6-.2-1.1-.6-1-.8 0-1 .3-1.6.6-1.6.2 0 .3-.1.1-.3 0-.2 0-.4.2-.5.2-.2.5 0 .6.3 0 .3.4.5.6.5 1 0 1.3.7 1.1 1.8-.3 1.2-.5 1.2-2.2.6zm-5.7-8.1c0-2 .5-2.8 1.7-2.5a5 5 0 0 1 1.3.5l1.3.5c.5 0 1 .4 1 .7 0 .4-.3.4-1.4 0-.7-.3-1.8-.5-2.4-.5-1 0-1.2 0-1.3 1.3l-.1 1.3v-1.3z" style="fill:#724929;stroke-width:.352778" transform="translate(-44.5 -173.2)"/>
  <path d="m81.2 242.3-2.1-1.1-2 .6c-2.6.8-5.5.6-8.2-.6-2-1-7.1-4.1-6.9-4.4.2-.2 1.5.5 3 1.5.8.6 3.7 1.9 5.4 2.4.8.2 1.2.1 1.1-.3 0-.1 0-.4.3-.5 1-.7.5-3.8-.6-3.4-.3.1-1-.2-1.6-.7-.6-.5-1.3-.8-1.6-.7-.2 0-.4 0-.4-.2s-1-.8-2-1.3a18 18 0 0 1-3-1.8c-.7-.7-.6-.6.7.1 5.8 3.4 9.3 4.4 11.5 3l1.2-.7-1 2c-1 2.2-1.3 4-.7 4 .2 0 .3-.3.3-.6 0-.5.1-.5.4 0l.3.8v-1.7l.3-.6c.7-.5 1.6-1.9 1.1-1.6-.2.1-.1 0 .3-.5.4-.3.8-.8.8-1 0-.2.4-.6.8-1 .4-.2.6-.5.5-.5-.2 0 0-.2.3-.5.7-.7.7-1.7 0-2.3-.5-.4-.7-.4-1 0-.4.9-.3.1.4-1.5.6-1.3.7-2.1.5-3.6-.1-1-.3-2-.5-2.1-.1-.1-.5.4-.8 1.2-.4 1-.8 1.4-1.5 1.6h-1c-.2-.1 0-.2.2-.2 1 0 1.7-1.2 2.2-3.1.4-1.7.5-1.8 1.4-1.8.8 0 1-.2 1.3-1.5.2-.9.6-2.2 1-3.1.2-.9.3-1.7.1-1.9a28 28 0 0 1 3.2-8.9 35 35 0 0 1 3.7-5.8 75 75 0 0 1 9.8-9.9c.2 0-1 1.4-2.6 3.1-9.7 9.9-12.6 14.6-12.9 21a20 20 0 0 1-.4 3.5c-.2.4 2.2 2.7 3.3 3 1.5.3 2-.6 2.4-4.5l.4-2c.1-.2.3 3 .2 3.6 0 .3 0 .3.2 0 .2-.2.5-.9.6-1.5l.5-1.8c.3-.5.4-.4.8.4.2.5.5.9.7.8.4-.3.4.2 0 .9-.2.3-.2.6 0 .7.6.4-.4 2.2-1.2 2.4-1 .2-1.8 2.5-1 2.5.3 0 .7.3 1 .6.3.3.4.5 0 .5-.2 0 0 .4.5 1l.8.9-.8-.6c-.9-.6-1-.6-1.3.2-.3.5-.5.6-.5.2 0-.3.2-.7.4-1 .4-.4.4-.5 0-.6a.4.4 0 0 1-.2-.6c.1-.2.1-.3 0-.1-.2.1-.4.4-.4.7l-.4 1.2.1.8 1 .1c.6.1.8 0 .7-.3-.3-.7.2-.6 1.2.3.8.8.8.8 1.3 0 .7-.8.5-1.3-.4-1.3-.4 0-1-.2-1-.3-.2-.2 0-.2.3 0 .3 0 .6 0 .6-.3s.3 0 .8.4c.7.6.8.9.5 1.1-.3.2-.3.3 0 .3.5 0 .5 0 .1.3-.3.2-.2.5.7 1.1.6.5 1 .7 1 .4-.2-.2-.2-.4 0-.4s.3-.2.2-.5c-.2-.5-.2-.6.5-.1.5.3.6.5.3.6-.5.2-.8 1.1-.3 1h1.3c1 0 1 .1.3.6-.4.3-.5.5-.3.4.2 0 .4.1.4.3 0 .2-.2.3-.5.2-.5 0-.5 0-.2.4.4.4.3.7 0 1.2-.4.4-.6 1-.6 1.2 0 .9-2.8 3.3-5 4.4a20.2 20.2 0 0 1-7.2 2 7.9 7.9 0 0 0-3.6-1l-.4 1.9-.3 1.6 1.6.7c1.6.7 2.5.7 2.5-.2 0-.3.3-.7.6-1 .6-.4 4-.7 4.2-.3.1.2.6.4 1 .4.8 0 .8 0 0 .6-1.3 1-4.2 2.2-5.4 2.2a9 9 0 0 1-3.3-1.1zm4-9.5a115 115 0 0 0 2-10.3c.2-1 .1-1-.9-.9-.6.1-1.1 0-1.2-.2 0-.2-.4-.2-1 .1-.4.3-1 .5-1.4.4-.4 0-.4 0 0 .3.2.3.2.7.1 1-.1.4 0 .5.3.3s.4-.2.3.1c0 .3-.3.4-.4.4-.2 0-.5.2-.8.6-.4.5-.4.7.1 1 .5.4.5.5-.2.3-.5 0-.8 0-.7.3.1.2.3.4.5.4s.3.4.3 1.1c0 .7-.1 1.2-.3 1.2-.2 0 0 .4.2.8.4.7.4 1 0 2-.5 1.7-.2 2.6.5 1.4.3-.4.5-.6.4-.2-.3.8 0 1 .7.4.3-.3.7-.4 1-.2.2.1.1.3-.3.3-.7.2-.8.7 0 .7.2 0 .6-.5.8-1.3zm6-5.8c-.2-.2-.2-.6 0-.7 0-.2 0-.2-.3 0s-.3.3 0 .7c.2.3.5.5.6.5l-.2-.5zm-2.7-4.3v-1.2c-.2 0-.4.2-.4.5 0 .2 0 1-.2 1.6-.2.8-.1 1 0 .7.2-.2.5-1 .6-1.6zm13.2-8.3c.1-8.9.4-13 .8-13 .5 0 2 2.9 2.7 5.1.8 2.9.5 8.4-.6 11.2-.8 2.1-2 4.2-2.6 4.4-.3 0-.4-2.6-.3-7.7zM72.5 218c-.5-.5-.4-.5.3-.2.8.5 1 .8.5.8-.2 0-.6-.3-.8-.6zm-6 0c-.3-.2-3.2-.5-4.8-.5-.4 0-.9-.1-1-.3-.1-.2 0-.4.1-.4.2 0 .7-.9 1.1-2l1.2-3 1-3.2c.2-1 .6-2 .8-2 .3 0 .5-.4.5-.8a35 35 0 0 1 3.5-9.5A60 60 0 0 1 79.5 185c3-2.4 4.3-2.7 1.5-.4l-6.8 6.5a24 24 0 0 0-6 7.4A21.2 21.2 0 0 0 66 209v3.2l1.4 1.2c.8.6 2.3 1.5 3.4 2s2 1.1 2 1.4c0 .5-1.4 0-3.6-1.3-1-.6-1.2-.6-1.6-.2-.4.5-.4.7 0 1 .7 1-.4 2.7-1.2 1.8zm-3.2-1.5-.1-.4-.4.4c-.1.2 0 .3.2.3s.3-.1.3-.3zm.3-3.3c-.1-.2-.2 0-.2.5 0 .4 0 .6.2.4v-.9zm28.7 3.3c0-.7.1-1 .2-.6.1.3.3.5.6.3.2 0 .2.1-.1.5l-.6.8-.1-1zm-.1-2.2c-.4-.2-.6-.5-.6-.7 0-.4 0-.4.2 0l1 .5c.4 0 .5.2.3.3-.2.2-.6.1-1 0zm-.9-27.2c-.6-.2-1.1-.6-1-.8 0-1 .3-1.6.6-1.6.2 0 .3-.1.1-.3 0-.2 0-.4.2-.5.2-.2.5 0 .6.3 0 .3.4.5.6.5 1 0 1.3.7 1.1 1.8-.3 1.2-.5 1.2-2.2.6zm-5.7-8.1c0-2 .5-2.8 1.7-2.5a5 5 0 0 1 1.3.5l1.3.5c.5 0 1 .4 1 .7 0 .4-.3.4-1.4 0-.7-.3-1.8-.5-2.4-.5-1 0-1.2 0-1.3 1.3l-.1 1.3V179z" style="fill:#1d5167;stroke-width:.352778" transform="translate(-44.5 -173.2)"/>
  <path d="M81 242.2c-1.2-.7-2.5-1.1-2.8-1-.4.1-.4 0 .1-.4.4-.3.6-.6.5-.6-.1 0 0-.6.4-1.3.4-.7.5-1.4.4-1.5-.2-.1-.4-.6-.5-1.2-.3-.9.5-3 1.2-3.4.2-.1.4-.3.4-.5-.1-.7 0-1.3.1-1.1.2.2.3 1 .5 3.8 0 .4.3.6.6.6s.5.3.5.6c0 .5 0 .5.5 0 .8-.7 1-.7.7 0-.2.4 0 .2.5-.3.5-.7 1-2.2 1.5-4.6 1-4.6 1.3-5.2 1.2-2.1 0 1.3-.2 2.6-.3 2.9-.2.2-.1.6 0 .8.4.3.5.3.5 0 0-.8 0-1 .6-1.6.5-.6.5-.7 0-.4-.2.1-.1 0 .3-.5.5-.5.8-.6 1.3-.3 1 .4 2.8.6 2.5.2 0-.2 0-.2.4 0 .3 0 .4.2.3.4 0 .2 0 .4.2.5.2.1.3-.2.2-.7 0-.6 0-.8.2-.6.5.4.5 1.5.1 2.4-.2.6-.2.6.3.1.3-.2.5-.6.4-.7 0-.2.1-.2.4 0 .3 0 .5.2.3.4-.2 0-.5.5-.8.8-.4.6-.4.6.1.4 1-.4 1.2 1 .2 1.7-2.3 1.8-8.8 4.1-9.7 3.5a7.9 7.9 0 0 0-3.6-1l-.4 1.9-.3 1.6 1.6.7c1.6.7 2.5.7 2.5-.2 0-.3.3-.7.6-1 .6-.4 4-.7 4.2-.3.1.2.6.4 1 .4.8 0 .8 0 0 .6-1.3 1-4.2 2.2-5.4 2.2-.7 0-2.2-.5-3.5-1.2zm-.7-5.7-.4-.3c-.2-.2-.3 0-.3.1 0 .2.1.4.3.4.2 0 .4 0 .4-.2zm11-5.2c.2.2.3 0 .1-.2-.3-.6-.8-.5-1 .2-.2.4-.2.5.2.2.3-.3.6-.3.8-.2zm-18.7 10.2c0-.5.2-1 .4-1 .1 0 .2.3.1.5 0 .3.1.5.5.5s.7 0 .7-.2.1-.4.3-.4c.3 0 .3.2.2.4-.1.1 0 .4.2.5h.3c0-.2.5-.4 1.1-.4 2 0 .5.6-1.7.8l-2.2.2zm-4.1-.6c-.3-.4.1-.4.8 0 .5.3.5.4 0 .4-.4 0-.7-.2-.8-.4zm4.6-1.6c-.1-.2 0-.6.1-.7.5-.2.5-1.8 0-2-.5-.1 0-.7 1.3-1.4l1-.5-.6 1.2-.6 1.7c0 .2-.3.6-.5.8-.3.3-.5.7-.4 1 .2.2.2.5 0 .5l-.3-.6zm3.8-.5c0-.1.2-.4.6-.5.6-.1.7-.3.3-.7-.6-.7.2-1 .8-.2.6.6.5 1.8-.2 1.8-.2 0-.1-.3.2-.6.4-.6.4-.6-.5 0-.5.3-1 .4-1.2.2zm-6.3-3-1.6-.7c0-.2.1-.2.5 0l2 .5c.6.1 1 .3.8.5-.2 0-1 0-1.7-.3zm24-3c-.2-.2 0-.2.3-.1.6.2.7.5.2.5-.2 0-.4-.2-.5-.4zm-1-2.1c0-.2.2-.3.4-.2l.4.4-.4.1c-.2 0-.3-.1-.3-.3zm-13.7-.5c-.2-.3-.5-1.9-.6-3.5-.1-3.3-.5-4-1.2-2.2-.4 1.2-2.1 2.4-2.7 1.8 0 0 0-.2.3-.2 1 0 1.7-1.2 2.2-3.1.4-1.7.5-1.8 1.4-1.8.8 0 1-.2 1.3-1.5.2-.9.6-2.2 1-3.1.2-.9.3-1.7.1-1.9a28 28 0 0 1 3.2-8.9 35 35 0 0 1 3.7-5.8 70 70 0 0 1 9.8-9.9 94.4 94.4 0 0 0-11.2 12.5c-2.7 3.6-4.3 8-4.7 13.1-.2 2.7-.1 3 .6 3.6.4.3.7.8.7 1 0 .4-1.7 1.3-2 1-.2 0-.3.6-.3 1.3 0 .8-.3 1.6-.4 1.8-.2.3-.3 1.7-.3 3.2 0 2.8-.1 3.5-.9 2.6zm8.8-1.3c-.3-.2-.3-.3 0-.3l.6.3c.2.5.1.5-.6 0zm-2-2.8c0-.2 0-.4.3-.5.2-.1.2 0 .1.3-.2.6-.5.7-.5.2zm.7-3.2c0-.5 0-.6.2-.4v.9c-.1.2-.2 0-.2-.5zm14.4-8.6c0-8.2.2-12.9.7-12.9l1.3 2a18.1 18.1 0 0 1-1.3 18.1l-.7 1v-8.2zm-14.5 7c-.2-.3-.2-.5.2-.6.3-.1.6-.8.7-1.5.3-1.2.3-1.3.6-.6.3 1 .8 1 .5.1 0-.3.1-.9.5-1.1.5-.5.6-.5 1 .1.4.7.3 1-1.3 2.4-1.4 1.3-1.9 1.6-2.2 1.3zm-25.3-4a1 1 0 0 0-1.1 0c-.5.1-.5 0 0-.5.4-.3.8-1.2 1-1.9l1-2.7c.4-.8 1-2.3 1.2-3.5.2-1 .6-2 .8-2 .3 0 .5-.4.5-.8a35 35 0 0 1 3.5-9.5 60 60 0 0 1 10.6-11.3c3-2.3 4.3-2.8 1.7-.5-3.8 3-11 10.5-12.2 12.4-2 3.2-3 6.6-3 10.6-.2 2-.1 3.8 0 4.3 0 .4.8 1.1 1.6 1.7 1.6 1.1 1.6 1.3 0 .9-.8-.3-1-.2-1 .3.1.3 0 .7-.2.8-.3.1-.2.4 0 .7.4.4.4.6 0 .9-.5.4-3.8.5-4.4.1zm1.3-.7-.1-.4-.4.4c-.1.2 0 .3.2.3s.3-.1.3-.3zm.3-3.3c-.1-.2-.2 0-.2.5 0 .4 0 .6.2.4v-.9zm8.7 3.3c0-.2-.5-.4-.8-.4-.3 0-1-.3-1.5-.7-.8-.6-.8-.6 1 0 2 1 2 1 1.8 1.3-.1 0-.3 0-.5-.2zM92 187.4c-.2 0 0-.4.4-1 1-1.1 1.2-1 1 .2-.2 1-.5 1.2-1.4.8zm-1.6-.7c-.1-.2 0-.3.5-.3.3 0 .5.1.4.3l-.4.3a.6.6 0 0 1-.5-.3zM89 178a9 9 0 0 0-2-.3c-.8 0-1.2-.2-1.2-.6 0-.7 1-.6 3 .4 1.8.8 1.8 1 .2.5z" style="fill:#1a475a;stroke-width:.352778" transform="translate(-44.5 -173.2)"/>
  <path d="M81.2 242.3c-2.5-1.3-2.4-1.8.2-.7 1.8.8 2.7.8 2.7 0 0-.4.3-.8.6-1 .6-.5 4-.8 4.2-.4.1.2.6.4 1 .4.8 0 .8 0 0 .6-1.3 1-4.2 2.2-5.4 2.2a9 9 0 0 1-3.3-1.1zm3-4c-.3-.4-.4-.5-.1-.5.2 0 .5-.5.6-1.1.2-1 .9-1.5.9-.6 0 .6 1.3.5 1.7 0 .2-.4.5-.4 1-.1l1 .2c.2-.1 0-.2-.2-.2-.3 0-.2-.2.3-.4s1-.3 1-.1l-.2.1c-.2 0-.3.3-.2.5.4 1.2-5 3.1-5.9 2.1zm-4.8-12.6c-.3-2.4-.6-2.8-1.3-1.3-.5 1.2-1.8 2.2-2.5 2-.3-.2-.3-.2.1-.3 1 0 1.7-1.2 2.2-3 .4-1.7.5-2 1.4-2 1-.1 1.1-.3 2-3 .4-1.8.6-3.2.4-3.4a23 23 0 0 1 2.3-6.9v.5a31 31 0 0 0-2 10.5c0 1-.1 1.7-.4 2-.6.2-1.7 5.2-1.4 6.3 0 .4 0 .8-.2.8s-.5-1-.6-2.2zm22.4-11.4c0-7.4.3-12.5.7-12.5l.7 1c2.5 5.4 2.6 12 .3 16.8-1.6 3-1.7 2.5-1.7-5.3zM62.4 217l-1-.5.7-2c.3-1 .8-2 1-2.1l.6-1.8c.8-3.3 1.1-4 1.4-3.5.2.3.3 0 .3-.7a18 18 0 0 1 1.7-6l-.6 2.3a45 45 0 0 0-.9 5.5l-.2 3.5 1 1c.6.7.8 1 .4.9-.5-.2-.7 0-.9.8 0 .6-.3 1.1-.5 1.1s-.3.3-.1.7c.3 1-1.5 1.5-2.9.8zm1-.4-.2-.4-.4.4c-.1.2 0 .3.2.3s.3-.1.3-.3zm.2-3.3c-.1-.2-.2 0-.2.5 0 .4 0 .6.2.4v-.9zm20.5-6c0-.4 1.5-3 1.7-3l-.6 1.4c-.8 1.7-1 2-1 1.6zm2.4-4.4a54.5 54.5 0 0 1 3.7-4.4A56 56 0 0 0 86 204s.1-.5.5-1zm-19-3.7c0-.4.3-1 .5-1.1.1-.2.1.1-.1.8-.4 1.2-.9 1.5-.5.3zM69 196a61 61 0 0 1 13.6-12.9 83.8 83.8 0 0 0-12.7 12.5c-1.7 2.3-2 2.5-.9.4zm24.3-1.5 1.4-1.2-1 1.2-1.4 1.3 1-1.3zm3.9-3.4.6-.7c.6-.4.6-.4.2.2-.5.6-.8.7-.8.5zm-4.6-4c0-.3.2-.5.4-.5s.3.1.3.3c0 .2-.1.5-.3.6-.2.1-.4 0-.4-.4zm-6.3-9.7c0-.2.1-.3.3-.3.2 0 .4.1.5.3.2.2 0 .4-.3.4s-.5-.2-.5-.4z" style="fill:#58361c;stroke-width:.352778" transform="translate(-44.5 -173.2)"/>
  <path d="M84 238.1c-.1-.2 0-.3.1-.3.2 0 .5-.5.6-1.1.2-1 .9-1.5.9-.6 0 .6 1.3.5 1.7 0 .2-.4.5-.4 1-.1l1 .2c.2-.1 0-.2-.2-.2-.3 0-.2-.2.3-.4s1-.3 1-.1l-.2.1c-.2 0-.3.3-.2.6.5 1-5.4 3-6 1.9zm-4.4-11.2c0-.8 0-.9.3-.4.5.7.5 1.4 0 1.4-.2 0-.3-.5-.3-1zm.6-3.4a34 34 0 0 1 1-5.4c.5-1.7.8-3 .7-3.2l.3-1.7c.5-1.3.5-1.3.3 1a10 10 0 0 1-.5 2.8 4 4 0 0 0 0 1.9c0 1 0 1.4-.4 1.7-.3.2-.8 1.5-1.1 2.9l-.5 2.4zm21.6-9.2c0-7.4.3-12.5.7-12.5l.7 1c2.5 5.4 2.6 12 .3 16.8-1.6 3-1.7 2.5-1.7-5.3zm-38.3 3 .5-2.6c.2-2 .2-2.3-.2-2.3-.6 0-.5-.4.5-3.9.3-1.3.6-1.8.8-1.4.2.3.3.1.5-.6v2c-.2 3.1-.2 3.2.8 4.3.6.6.8 1 .4.8-.5-.2-.7 0-.9.8 0 .6-.3 1.1-.5 1.1s-.3.3-.1.7c.1.4-.1.7-1 1-.5.2-.9.2-.8 0zm10-26.2zm19.1-4c0-.3.2-.5.4-.5s.3.1.3.3c0 .2-.1.5-.3.6-.2.1-.4 0-.4-.4zm-11.8-2.6c.3-.4.7-.7.8-.7l-.4.7-.9.7.5-.7zm5.5-7c0-.3.1-.4.3-.4.2 0 .4.1.5.3.2.2 0 .4-.3.4s-.5-.2-.5-.4z" style="fill:#153747;stroke-width:.352778" transform="translate(-44.5 -173.2)"/>
  <path d="m84.5 238.2.4-.8c.2-.4.3-.4.3.3 0 .4-.2.8-.3.8-.2 0-.4-.2-.4-.3zm-4.6-14c0-.5.1-.6.3-.3v.7c-.2.1-.3 0-.3-.5zm.4-2.9c0-.4.1-.5.2-.2v.7c-.1.1-.2-.1-.2-.5zm21.7-4.5.2-3.8c0-.6.1-1 .4-1 .2 0 0-.2-.3-.5-.4-.3-.6-.6-.5-.7.5-.5 1.3.8 1.2 1.8 0 .5 0 1.2.2 1.6.2.4.2.7 0 .8-.3.2-.2.5.1 1 .5.7.5 1-.1 2.3-1.1 2.4-1.5 1.9-1.2-1.5zm-21 2c0-.4.1-.4.2-.2v.7c-.1.1-.2 0-.2-.5zm-17.1-3.5.3-2.5c.1-.3 0-.4-.3-.4-.7 0-.7-.2-.1-1.2l.5-1.5c0-.4.3-1 .6-1.2.4-.4.4-.2.3 1.2-.1 1.1 0 1.8.4 2.5.5.7.5.9 0 .9-.2 0-.6.6-.8 1.6-.7 2.7-1.1 3-1 .6zM102 210c-.3-.4-.3-.5.2-.3.3.2.5.4.5.6 0 .4-.2.4-.7-.3zm-.3-1.5c0-.4.1-.7.3-.7.4 0 .8.9.5 1.2-.4.4-.8.2-.8-.5zm-36.3-2.7c0-.4 0-.5.2-.2v.7c-.2 0-.2-.1-.2-.5zm6.7-13.4c.4-.5.9-.9 1-.9l-.7 1-1 .8.7-.9zm3.5-3.4 1.1-1.2 1.2-1-1 1.1c-1 1-1.3 1.3-1.3 1zm3.2-2.9.6-.6c.5-.4.5-.4.1.1-.5.6-.7.8-.7.5zm1.7-1.4.6-.6c.6-.5.6-.4.2.1-.5.6-.8.8-.8.5z" style="fill:#1a2d36;stroke-width:.352778" transform="translate(-44.5 -173.2)"/>
</svg>