<svg xmlns="http://www.w3.org/2000/svg" width="277.3" height="277.3" viewBox="0 0 73.4 73.4">
  <path d="M44.2 210.3v-36.7h73.4v73.3H44.2Z" style="fill:#fefefe;stroke-width:.352778" transform="translate(-44.5 -173.2)"/>
  <path d="M77.9 236a32 32 0 0 1-19.4-7.9c-3-2.9-3.8-4.7-5-11l-1.9-7.7c-1.1-4-.8-7.5 1.2-11.3 1.2-2.4 6-7 9.3-8.6 2.6-1.3 3-1.5 5.5-1.5a21 21 0 0 0 6.2-1 34.5 34.5 0 0 1 15.4-1c2.8.6 3.7 1 7.2 3l6.4 3.7c2.6 1.4 5.8 4.7 7 7a11 11 0 0 1 .8 8.2c-.4 1.4-1.2 5-1.8 8.2-1.3 6.5-2 8.3-4.8 11.3a29 29 0 0 1-18.5 8.5l-3.5.2c-.5.1-2.4 0-4.1-.1z" style="fill:#e1c9a9;stroke-width:.352778" transform="translate(-44.5 -173.2)"/>
  <path d="M74.3 235.5c-3.3-.6-6.8-1.8-9.8-3.3a20.3 20.3 0 0 1-6.4-4.6c-2.6-2.6-3.2-4-4.7-11l-2-8.8c-1.7-6.5 3-14.2 11.4-18.6 2-1 2.6-1.2 5-1.2 2 0 3.7-.3 6.6-1.1 3.6-1 4.2-1.2 8.8-1.1 6.3 0 8.9.6 12.5 2.9 1.5 1 4.2 2.6 6.1 3.6 7.7 4.2 10.3 9.2 8.4 16.6a167 167 0 0 0-1.6 7.7c-1.1 6-2.3 8.5-5.5 11.7a30.7 30.7 0 0 1-12.5 6.7c-3.6 1-12.5 1.2-16.3.5z" style="fill:#e6c874;stroke-width:.352778" transform="translate(-44.5 -173.2)"/>
  <path d="M74.3 235.5c-3.3-.6-6.8-1.8-9.8-3.3a20.3 20.3 0 0 1-6.4-4.6c-2.6-2.6-3.2-4-4.7-11l-2-8.8c-1.6-6.1 2.4-13.2 10-17.8 3-1.7 3-1.8 6.6-2 2.4-.1 4.6-.5 7-1.2 3-1 3.7-1 8.2-1 6.3 0 8.9.6 12.5 2.9 1.5 1 4.2 2.6 6.1 3.6 7.7 4.2 10.3 9.2 8.4 16.6a167 167 0 0 0-1.6 7.7c-1.1 6-2.3 8.5-5.5 11.7a30.7 30.7 0 0 1-12.5 6.7c-3.6 1-12.5 1.2-16.3.5zm-2-5.4c.2 0 0-.3-.3-.5-.7-.4-.8-1.3-.1-1.3.8 0 .5-1.5-.6-2.6-1-1.1-2-1.4-2.7-.9-.3.3-.6.2-1-.2-.5-.4-.8-.5-1.1-.2-.7.7-.5 1.5.2 1.2.8-.2 1.7.7 1.3 1.3-.1.2-.5.3-1 .2-.4-.1-.6 0-.4.2.7 1.7 1.1 2.4 1.6 2.4a5 5 0 0 1 2 .4c.1.2 1 .1 2 0zm-4.2-1.4-.2-.7c0-.4 0-.5.5-.1.3.2.5.6.5.7 0 .4-.5.5-.8.1zm1.4-.9c0-.6 0-1.5.2-2 .3-.8.3-.8.9-.3.6.6.3 1.3-.5 1.3-.5 0-.5.1-.2.5.5.5.6 1.7.1 1.7-.2 0-.4-.6-.5-1.2zm-1-4.8c-.4-.4-1.7-.7-1.7-.4 0 .2.3.4.8.5l.9.2v-.3z" style="fill:#d1b394;stroke-width:.352778" transform="translate(-44.5 -173.2)"/>
  <path d="M74.6 235.5c-6.4-1.2-12-3.8-15.7-7.2-3.2-3-4.2-5.1-5.5-12l-1.6-7c-2.3-7 1.3-14.3 9.7-19.3 2.9-1.7 3-1.8 6.5-2a33 33 0 0 0 7-1.2c3-.9 4.3-1 7.7-1 6.4 0 8.9.5 13.1 3.1l6.3 3.6a22 22 0 0 1 4.6 3.3 12 12 0 0 1 3.5 12.9l-1.6 7.7c-1.2 6.2-2.2 8.4-5.2 11.4A31 31 0 0 1 81 236c-2 0-4.9-.3-6.3-.5zm-2.3-5.4c.2 0 0-.3-.3-.5-.7-.4-.8-1.3-.1-1.3.8 0 .5-1.5-.6-2.6-1-1.1-2-1.4-2.7-.9-.3.3-.6.2-1-.2-.5-.4-.8-.5-1.1-.2-.7.7-.5 1.5.2 1.2.8-.2 1.7.7 1.3 1.3-.1.2-.5.3-1 .2-.4-.1-.6 0-.4.2.7 1.7 1.1 2.4 1.6 2.4a5 5 0 0 1 2 .4c.1.2 1 .1 2 0zm-4.2-1.4-.2-.7c0-.4 0-.5.5-.1.3.2.5.6.5.7 0 .4-.5.5-.8.1zm1.4-.9c0-.6 0-1.5.2-2 .3-.8.3-.8.9-.3.6.6.3 1.3-.5 1.3-.5 0-.5.1-.2.5.5.5.6 1.7.1 1.7-.2 0-.4-.6-.5-1.2zm-1-4.8c-.4-.4-1.7-.7-1.7-.4 0 .2.3.4.8.5l.9.2v-.3z" style="fill:#fac458;stroke-width:.352778" transform="translate(-44.5 -173.2)"/>
  <path d="M74.6 235.5c-6.4-1.2-12-3.8-15.7-7.2-3.2-3-4.2-5.1-5.5-12l-1.6-7c-2.3-7 1.3-14.3 9.7-19.3 2.9-1.7 3-1.8 6.5-2a33 33 0 0 0 7-1.2c3-.9 4.3-1 7.7-1 6.4 0 8.9.5 13.1 3.1l6.3 3.6a22 22 0 0 1 4.6 3.3 12 12 0 0 1 3.5 12.9l-1.6 7.7c-1.2 6.2-2.2 8.4-5.2 11.4A31 31 0 0 1 81 236c-2 0-4.9-.3-6.3-.5zm-2.3-5.4c.2 0 0-.3-.3-.5-.7-.4-.8-1.3-.1-1.3.8 0 .5-1.5-.6-2.6-1-1.1-2-1.4-2.7-.9-.3.3-.6.2-1-.2-.5-.4-.8-.5-1.1-.2-.7.7-.5 1.5.2 1.2.8-.2 1.7.7 1.3 1.3-.1.2-.5.3-1 .2-.4-.1-.6 0-.4.2.7 1.7 1.1 2.4 1.6 2.4a5 5 0 0 1 2 .4c.1.2 1 .1 2 0zm-4.2-1.4-.2-.7c0-.4 0-.5.5-.1.3.2.5.6.5.7 0 .4-.5.5-.8.1zm1.4-.9c0-.6 0-1.5.2-2 .3-.8.3-.8.9-.3.6.6.3 1.3-.5 1.3-.5 0-.5.1-.2.5.5.5.6 1.7.1 1.7-.2 0-.4-.6-.5-1.2zm-1-4.8c-.4-.4-1.7-.7-1.7-.4 0 .2.3.4.8.5l.9.2v-.3zm20-18.7a8 8 0 0 0-1.8-7.1c-2.6-2.7-3-1.6-.9 3.5.8 2 1.5 3.7 1.5 4 0 .5.3 1 .7 1l.6-1.4zm-19.6-13-2.3-1.3c-.7-.5-1-.6-.8-.2.2.6 3 2.1 3.8 2.1.3 0 0-.3-.7-.6zm15.3-4c.2-.2 0-.3-.4-.3-.5 0-1 .2-1.4.5-.5.5-.4.5.5.3a4 4 0 0 0 1.3-.5z" style="fill:#ddc272;stroke-width:.352778" transform="translate(-44.5 -173.2)"/>
  <path d="M74.6 235.5c-6.4-1.2-12-3.8-15.7-7.2-3.2-3-4.2-5.1-5.5-12l-1.6-7c-1.2-3.6-1-6.8.9-10.5 1.5-3.2 6-7.4 9.8-9.3 2.6-1.3 3.2-1.5 5.5-1.5a27 27 0 0 0 6.5-1c3.5-1 4.7-1.2 8.2-1.2 6.4 0 8.9.5 13.1 3.1l6.3 3.6a22 22 0 0 1 4.6 3.3 12 12 0 0 1 3.5 12.9l-1.6 7.7c-1.2 6.2-2.2 8.4-5.2 11.4A31 31 0 0 1 81 236c-2 0-4.9-.3-6.3-.5zm-.1-4.5c.4.3 1.2.4 1.9.4 1 0 1 0 .4-.3-.9-.4-1-.6-.5-1.4.2-.3.5-.4.7-.2.3.2.4 0 .3-.4 0-.4-.4-.7-.8-.7s-.9-.3-1-.7c-.3-.4-.8-.7-1.4-.7-1 0-3-1.7-2.4-2 .2-.2.5 0 .6.2.3.5 1.5 1 1.5.5 0-.8-.5-1.7-.9-1.7-.2 0-.7-.3-1-.8-.3-.4-.5-.6-.5-.4 0 .3-.6.2-1.8-.2a11 11 0 0 0-3.1-.7c-.8 0-1.5-.2-1.6-.4l-.6-.3c-.2 0-.1.2.2.6.7.7.7 1.7 0 1.4-.3-.1-.4 0-.3.4.2.4.1.5-.2.2-.3-.1-.4-.1-.2.2.1.2.3.3.5.2.6-.4 1 .7.5 1.4-.4.6-.6.6-.8.2-.2-.3-.4-.4-.4-.2 0 .6.5 1.1 1 1 .4 0 .6.3.7 1 0 .6 0 1-.3.8-.2 0-.3 0-.3.2s.2.4.5.4c.2 0 .6.2.9.5.2.3.8.5 1.2.5.5 0 1.6.3 2.4.7 1.4.6 1.7.6 1.8.2.3-.8 1-.6 1 .2s0 .8.6.2c.5-.5.8-.6 1.4-.3zm.1-.7c-.6-.6-.5-1.4.2-1.3.4 0 .7.5.7 1 .2.8-.2 1-.9.3zm-7.7-3.6c-.3-.8.1-1.2.7-.6.3.3.3.5 0 .8-.3.3-.5.3-.7-.2zm2.7-.8c0-.3.2-.5.4-.4.7.2.8 1 .2 1a.6.6 0 0 1-.6-.6zm-2.2-1.4c-.1-.1-.3-.5-.3-.9 0-.6.2-.6.8-.3.7.4 1 1.4.2 1.4-.3 0-.6 0-.7-.2zm21.2-20.2a8 8 0 0 0-1.9-7.1c-2.6-2.7-3-1.6-.9 3.5.8 2 1.5 3.7 1.5 4 0 .5.3 1 .7 1l.6-1.4zm-19.7-13-2.3-1.3c-.7-.5-1-.6-.8-.2.2.6 3 2.1 3.8 2.1.3 0 0-.3-.7-.6zm15.3-4c.2-.2 0-.3-.4-.3-.5 0-1 .2-1.4.5-.5.5-.4.5.5.3a4 4 0 0 0 1.3-.5z" style="fill:#d4b767;stroke-width:.352778" transform="translate(-44.5 -173.2)"/>
  <path d="M74.6 235.5c-6.4-1.2-12-3.8-15.7-7.2-3.1-3-4.2-5.2-5.3-11a127.5 127.5 0 0 0-2.5-11c-.3-1.7.6-5.9 1.8-8a28 28 0 0 1 9.7-8.8c2.5-1.3 3.1-1.5 5.4-1.5 1.7 0 3.7-.3 6.6-1.1a24 24 0 0 1 8.6-1.1c6.2 0 8.5.6 13.2 3.4 2 1.3 4.8 2.8 6 3.5 1.3.6 3.2 2 4.3 3.1 3.9 3.8 5 7.7 3.5 12.7l-1.6 7.8c-1.2 6.2-2 8.2-5 11.4a30.6 30.6 0 0 1-22.7 8.3c-2 0-4.9-.3-6.3-.5zm2.7-3.2c.6-.3 1.1-.7 1.1-.9 0-.2.3-.3.6-.3s1-.3 1.5-.7c1-.9 2-1 1.7-.2-.1.3 0 .5.1.5.2 0 .4-.2.4-.5s.2-.4.5-.3c.3.1.5 0 .5-.2 0-.5 1-.5 1.2 0 .1.3.2.3.2-.1 0-.8-.5-1.1-1.8-1-.5 0-1-.2-1-.4s.2-.3.5-.2c.3.1.7 0 1-.3.4-.5 0-.7-1.6-.6-.4 0-.7-.2-.8-.8-.3-1.2-.9-1.4-4-1.7-2.3-.3-2.8-.4-3.5-1.2-.4-.6-.7-.7-.5-.4.1.5 0 .7-.4.7s-.7-.4-.8-.7c-.1-.5-.5-.7-1.1-.8-1.5 0-7.5-1.6-8.2-2.2l-.8-.6c-.4 0-.3 1.6.2 2.3.3.4.5 1.2.4 1.8a4 4 0 0 0 .3 2.1c.3.6.4 1.3.4 1.5-.1.2 0 .5.4.7.3 0 .5.4.5.6 0 .6 2.4 2.3 3.3 2.3a8 8 0 0 1 2.3.7c.9.4 2.5.8 3.5.9 1 0 2 .2 2.1.3.3.3.6.3 1.8-.3zm-1-2.1c0-.3.2-.5.4-.5s.3.2.3.5-.1.5-.3.5c-.2 0-.4-.2-.4-.5zm-1.6-.3c-.3-.8.1-1.2.6-.7.4.4.4.6 0 .9-.3.3-.4.2-.6-.2zm5.4-1.5c-.5-.5-.2-.9.5-.8.4 0 .7.3.7.5 0 .4-.9.6-1.2.3zm-13.1-2c-.2-.1 0-.3.1-.3.2 0 .4.2.4.4s0 .3-.2.3l-.3-.3zm12.7.2c-.4-.4-.2-.8.5-.8.4 0 .7.2.7.5 0 .5-.7.7-1.2.3zM63 224.7l.4-.5c.2-.1.3 0 .3.3s-.1.6-.3.6a.4.4 0 0 1-.4-.4zm4.6-.9c0-.3.2-.4.4-.3l.3.5c0 .2-.2.4-.3.4-.2 0-.4-.3-.4-.6zm-3.3-1.1c-.2-.3-.2-.6 0-.7.2-.3.6.1.4.7-.1.3-.2.3-.4 0zm-2-2c0-.4.2-.5.4-.4.2.1.3.4.3.6 0 .1-.1.3-.3.3-.2 0-.4-.3-.4-.6zm26.8 10c0-.2-.1-.3-.3-.3-.2 0-.4.3-.4.8 0 .6 0 .7.4.2l.3-.8zm-5 0c-.2-.1-.6-.2-.8 0-.2 0 0 .3.4.4.8.3 1.2 0 .5-.4zm4.1-1.1c0-.3.3-.4.7-.4.3.1.6 0 .6-.2 0-.7-1-.4-1.6.4a3 3 0 0 0-.5 1.1c0 .5.8-.4.8-1zm2.8-1.2c1 .3 1.4 0 .8-.9-.4-.6-.4-.6-1.2.1-.4.4-.8 1-.7 1.3 0 .4 0 .4.2 0 0-.5.4-.7 1-.5zm2-2c0-.7-1-1-1.2-.4-.1.3 0 .4.1.3.2 0 .4 0 .6.2.3.5.5.4.5-.1zm-4.3-22.1a8 8 0 0 0-1.9-7.1c-2.6-2.7-3-1.6-.9 3.5.8 2 1.5 3.7 1.5 4 0 .5.3 1 .7 1l.6-1.4zm-19.7-13-2.3-1.3c-.7-.5-1-.6-.8-.2.2.6 3 2.1 3.8 2.1.3 0 0-.3-.7-.6zm15.3-4c.2-.2 0-.3-.4-.3-.5 0-1 .2-1.4.5-.5.5-.4.5.5.3a4 4 0 0 0 1.3-.5z" style="fill:#ecac48;stroke-width:.352778" transform="translate(-44.5 -173.2)"/>
  <path d="M74.6 235.5c-6.4-1.2-12-3.8-15.7-7.2-3.1-3-4.2-5.2-5.3-11a127.5 127.5 0 0 0-2.5-11c-.3-1.6.6-5.7 1.6-7.7s4.5-5.7 7.1-7.5c3.5-2.3 5.4-3 8.2-3a25 25 0 0 0 6.6-1.2 24 24 0 0 1 8.6-1.1c6.2 0 8.5.6 13.2 3.4 2 1.3 4.8 2.8 6 3.5 1.3.6 3.2 2 4.3 3.1 3.9 3.8 5 7.7 3.5 12.7l-1.6 7.8c-1.2 6.2-2 8.2-5 11.4a30.6 30.6 0 0 1-22.7 8.3c-2 0-4.9-.3-6.3-.5zm2.7-3.2c.6-.3 1.1-.7 1.1-.9 0-.2.3-.3.6-.3s1-.3 1.5-.7c1-.9 2-1 1.7-.2-.1.3 0 .5.1.5.2 0 .4-.2.4-.5s.2-.4.5-.3c.3.1.5 0 .5-.2 0-.5 1-.5 1.2 0 .1.3.2.3.2-.1 0-.8-.5-1.1-1.8-1-.5 0-1-.2-1-.4s.2-.3.5-.2c.3.1.7 0 1-.3.4-.5 0-.7-1.6-.6-.4 0-.7-.2-.8-.8-.3-1.2-.9-1.4-4-1.7-2.3-.3-2.8-.4-3.5-1.2-.4-.6-.7-.7-.5-.4.1.5 0 .7-.4.7s-.7-.4-.8-.7c-.1-.5-.5-.7-1.1-.8-1.5 0-7.5-1.6-8.2-2.2l-.8-.6c-.4 0-.3 1.6.2 2.3.3.4.5 1.2.4 1.8a4 4 0 0 0 .3 2.1c.3.6.4 1.3.4 1.5-.1.2 0 .5.4.7.3 0 .5.4.5.6 0 .6 2.4 2.3 3.3 2.3a8 8 0 0 1 2.3.7c.9.4 2.5.8 3.5.9 1 0 2 .2 2.1.3.3.3.6.3 1.8-.3zm-1-2.1c0-.3.2-.5.4-.5s.3.2.3.5-.1.5-.3.5c-.2 0-.4-.2-.4-.5zm-1.6-.3c-.3-.8.1-1.2.6-.7.4.4.4.6 0 .9-.3.3-.4.2-.6-.2zm5.4-1.5c-.5-.5-.2-.9.5-.8.4 0 .7.3.7.5 0 .4-.9.6-1.2.3zm-13.1-2c-.2-.1 0-.3.1-.3.2 0 .4.2.4.4s0 .3-.2.3l-.3-.3zm12.7.2c-.4-.4-.2-.8.5-.8.4 0 .7.2.7.5 0 .5-.7.7-1.2.3zM63 224.7l.4-.5c.2-.1.3 0 .3.3s-.1.6-.3.6a.4.4 0 0 1-.4-.4zm4.6-.9c0-.3.2-.4.4-.3l.3.5c0 .2-.2.4-.3.4-.2 0-.4-.3-.4-.6zm-3.3-1.1c-.2-.3-.2-.6 0-.7.2-.3.6.1.4.7-.1.3-.2.3-.4 0zm-2-2c0-.4.2-.5.4-.4.2.1.3.4.3.6 0 .1-.1.3-.3.3-.2 0-.4-.3-.4-.6zm26.8 10c0-.2-.1-.3-.3-.3-.2 0-.4.3-.4.8 0 .6 0 .7.4.2l.3-.8zm-5 0c-.2-.1-.6-.2-.8 0-.2 0 0 .3.4.4.8.3 1.2 0 .5-.4zm4.1-1.1c0-.3.3-.4.7-.4.3.1.6 0 .6-.2 0-.7-1-.4-1.6.4a3 3 0 0 0-.5 1.1c0 .5.8-.4.8-1zm2.8-1.2c1 .3 1.4 0 .8-.9-.4-.6-.4-.6-1.2.1-.4.4-.8 1-.7 1.3 0 .4 0 .4.2 0 0-.5.4-.7 1-.5zm2-2c0-.7-1-1-1.2-.4-.1.3 0 .4.1.3.2 0 .4 0 .6.2.3.5.5.4.5-.1zm-4.6-20c2.1-4.5-.3-11-4-11-.7 0-1.3.2-1.3.4l.9 2.2c1 2.4 1.6 4.9 1.7 7.7 0 1.3.2 2.5.4 2.7.4.8 1.5-.1 2.3-2zM65 202c2.7-.5 5.1-1.4 2.8-1l-3.3.4c-1.3.2-2.2.4-2.3.7-.3.6-.5.6 2.8 0zm9.3-3.1 1-.7c0-.2-2 .8-2.4 1-.3.4.5.2 1.4-.3zm23.6-4.7c-.3-.4-1.4-1-3.1-1.5a44 44 0 0 1-4.4-1.5c-1-.4-2.3-.7-3-.7-1.4 0-4.6 1.3-4.6 1.7h2c1.4-.2 2.2-.1 2.4.1 0 .2.4.4.5.4.2 0 .3-.1.2-.3-.1-.2 0-.4.1-.4.2 0 .4.3.4.5 0 .3.2.6.5.6 1.2.1 2 .3 4.5.9 1.4.3 3 .6 3.6.5.5 0 1 .2 1 .4s0 .3.1.2c.1-.1 0-.5-.2-.9zm-30 0H67c-.3.2-.2.2.2.3.4 0 .6-.1.5-.2zm2.6-2.5-3.2-1.7c-1.2-.7-1.5-.7-1.5-.3 0 .7 1.4 1.6 3.8 2.3 2.8 1 3 .8 1-.3zm9.6-2.9c.3 0 .6.3.7.6.1.4.6.5 2.2.3 2-.2 3.4-.9 4-2 .8-1.5-1.8-1.8-5.1-.6a14 14 0 0 1-2.8.7 3 3 0 0 0-1.4.5c-.7.6-.7.6 0 1.3 1 .7 1 .7 1.4 0 .3-.4.7-.8 1-.8z" style="fill:#f6a738;stroke-width:.352778" transform="translate(-44.5 -173.2)"/>
  <path d="M74.6 235.5c-6.4-1.2-12-3.8-15.7-7.2-3.1-3-4.2-5.2-5.3-11a127.5 127.5 0 0 0-2.5-11c-.3-1.6.6-5.7 1.6-7.7s4.5-5.7 7.1-7.5c3.5-2.3 5.4-3 8.2-3a25 25 0 0 0 6.6-1.2 24 24 0 0 1 8.6-1.1c6.2 0 8.5.6 13.2 3.4 2 1.3 4.8 2.8 6 3.5 1.3.6 3.2 2 4.3 3.1 3.9 3.8 5 7.7 3.5 12.7l-1.6 7.8c-1.2 6.2-2 8.2-5 11.4a30.6 30.6 0 0 1-22.7 8.3c-2 0-4.9-.3-6.3-.5zm2.7-3.2c.6-.3 1.1-.7 1.1-.9 0-.2.3-.3.6-.3s1-.3 1.5-.7c1-.9 2-1 1.7-.2-.1.3 0 .5.1.5.2 0 .4-.2.4-.5s.2-.4.5-.3c.3.1.5 0 .5-.2 0-.5 1-.5 1.2 0 .1.3.2.3.2-.1 0-.8-.5-1.1-1.8-1-.5 0-1-.2-1-.4s.2-.3.5-.2c.3.1.7 0 1-.3.4-.5 0-.7-1.6-.6-.4 0-.7-.2-.8-.8-.3-1.2-.9-1.4-4-1.7-2.3-.3-2.8-.4-3.5-1.2-.4-.6-.7-.7-.5-.4.1.5 0 .7-.4.7s-.7-.4-.8-.7c-.1-.5-.5-.7-1.1-.8-1.5 0-7.5-1.6-8.2-2.2l-.8-.6c-.4 0-.3 1.6.2 2.3.3.4.5 1.2.4 1.8a4 4 0 0 0 .3 2.1c.3.6.4 1.3.4 1.5-.1.2 0 .5.4.7.3 0 .5.4.5.6 0 .6 2.4 2.3 3.3 2.3a8 8 0 0 1 2.3.7c.9.4 2.5.8 3.5.9 1 0 2 .2 2.1.3.3.3.6.3 1.8-.3zm-1-2.1c0-.3.2-.5.4-.5s.3.2.3.5-.1.5-.3.5c-.2 0-.4-.2-.4-.5zm-1.6-.3c-.3-.8.1-1.2.6-.7.4.4.4.6 0 .9-.3.3-.4.2-.6-.2zm5.4-1.5c-.5-.5-.2-.9.5-.8.4 0 .7.3.7.5 0 .4-.9.6-1.2.3zm-13.1-2c-.2-.1 0-.3.1-.3.2 0 .4.2.4.4s0 .3-.2.3l-.3-.3zm12.7.2c-.4-.4-.2-.8.5-.8.4 0 .7.2.7.5 0 .5-.7.7-1.2.3zM63 224.7l.4-.5c.2-.1.3 0 .3.3s-.1.6-.3.6a.4.4 0 0 1-.4-.4zm4.6-.9c0-.3.2-.4.4-.3l.3.5c0 .2-.2.4-.3.4-.2 0-.4-.3-.4-.6zm-3.3-1.1c-.2-.3-.2-.6 0-.7.2-.3.6.1.4.7-.1.3-.2.3-.4 0zm-2-2c0-.4.2-.5.4-.4.2.1.3.4.3.6 0 .1-.1.3-.3.3-.2 0-.4-.3-.4-.6zm26.8 10c0-.2-.1-.3-.3-.3-.2 0-.4.3-.4.8 0 .6 0 .7.4.2l.3-.8zm-5 0c-.2-.1-.6-.2-.8 0-.2 0 0 .3.4.4.8.3 1.2 0 .5-.4zm4.1-1.1c0-.3.3-.4.7-.4.3.1.6 0 .6-.2 0-.7-1-.4-1.6.4a3 3 0 0 0-.5 1.1c0 .5.8-.4.8-1zm2.8-1.2c1 .3 1.4 0 .8-.9-.4-.6-.4-.6-1.2.1-.4.4-.8 1-.7 1.3 0 .4 0 .4.2 0 0-.5.4-.7 1-.5zm2-2c0-.7-1-1-1.2-.4-.1.3 0 .4.1.3.2 0 .4 0 .6.2.3.5.5.4.5-.1zm-4.6-20c2.1-4.5-.4-11.3-4-11.3-1.5 0-1.6.4-.4 2.9 1 2.4 1.6 4.9 1.7 7.7 0 1.3.2 2.5.4 2.7.4.8 1.5-.1 2.3-2zm-23-4.6c3-.6 5.3-1.4 4.5-1.4l-2.7.5c-1.2.3-2.8.5-3.5.5-.8 0-1.4.2-1.5.6-.3.6-.4.6 3.3-.2zm10.2-1.5h.6c.5.1 1-.8.7-1.3a9 9 0 0 1 1.7-2.3c2.1-2.3 2-3-.1-1-.9.8-2.8 2-4.4 2.9-1.8 1-2.4 1.4-1.7 1.2.8-.1 1.2 0 1.3.3.2.5 1.4.6 1.9.2zm-11-5.5c1 .1 3.4-.4 3.4-.7 0-.4 2.3-1.3 3.7-1.6.5 0 2 0 3.1.4l3 .7c.9.2 1.2-.4 1.2-2.6 0-1.2.2-1.8.7-2 .5-.4.7-.3 1 .2.3.5.7.6 2.3.4 2-.2 3.4-.9 4-2 .8-1.5-1.8-1.8-5-.6-1.5.5-2.6.6-3.7.4-3.1-.4-6.8 1.5-6.8 3.6 0 .5.2 1 .4 1s.3 0 .2.1c-.2.3-2.9-1-5-2.3l-1.6-1-1.7.8c-2.2 1.1-2.8 1.8-2.3 2.7.3.4.3.7 0 .9-.1 0-.2.3 0 .5 0 .2 0 .3-.3.3s-.1.4.3.7c.7.6 1 .7 1.5.4a3 3 0 0 1 1.5-.3zm33.3-.7c-.3-.4-1.4-1-3.1-1.5l-4-1.3c-2.2-1-3-1.1-4.9-.6-1.5.4-4.7 2.2-4.4 2.5l2-.6c2-.7 3.3-.9 3.7-.3.1.2.4.3.5.3.2 0 .3-.1.2-.3-.1-.2 0-.4.1-.4.2 0 .4.3.4.5 0 .3.2.6.5.6 1.2.1 2 .3 4.5.9 1.4.3 3 .6 3.6.5.5 0 1 .2 1 .4s0 .3.1.2c.1-.1 0-.5-.2-.9z" style="fill:#d1a957;stroke-width:.352778" transform="translate(-44.5 -173.2)"/>
  <path d="M74.6 235.5c-6.4-1.2-12-3.8-15.7-7.2-3.2-3-4.2-5.2-5.5-11.9L52 210a14.1 14.1 0 0 1 3.6-15c1.2-1.3 3-3 4.1-3.7a14 14 0 0 1 8.6-3.2c2-.1 5.1-.7 7-1.2 2.8-.9 4-1 7.9-1 6.2 0 8.5.6 13.2 3.4 2 1.3 4.8 2.8 6 3.5 2.9 1.4 6 4.5 7.3 7 1.3 2.6 1.5 5.2.5 8.7l-1.6 7.9c-1.2 6.2-2 8.2-5 11.4a30.6 30.6 0 0 1-22.7 8.3c-2 0-4.9-.3-6.3-.5zm2.8-2.7c0-.2.4-.3.8-.3.5.1 1 0 1.4-.3.4-.3.6-.3.8 0 0 .1.6.3 1 .3.7 0 1-.2 1-.7 0-.6.1-.6 1.3-.5 1.3.2 1.4.1 1.5-.8.2-.7 0-1.2-.4-1.7-.4-.4-.7-1-.7-1.4 0-.3-.2-.5-.4-.4-.2.2-.6 0-.9-.2-.4-.4-.6-.3-.9 0-.2.5-.3.5-.3 0 0-.2-.4-1-1-1.8-.7-1.1-1-1.3-2-1.3-.8 0-1.2.1-1 .3.3.6-2.4 0-3.5-.7-.5-.4-2.3-1-3.9-1.3-1.6-.3-4.2-1.1-6-1.9l-3.2-1.4c-.2 0 0 .9.3 2 .2.4-.2.1-1-.7-.7-.8-1.4-1.3-1.5-1.1-.2.1 0 .4.3.6.8.4.8 1.5.1 2.1-.4.5-.4.7.3 2 .7 1.5 1 1.5 1.4.2.1-.5.2-.4.4.5.2.8.5 1.1 1 1.1.4 0 .6.3.6 1 0 .5.2 1.3.5 1.7.6 1.2 3 3 4 3a5 5 0 0 1 1.9.5c.5.3 2 .7 3.3.9 1.3.1 2.5.4 2.6.5.3.4 2.2.2 2.2-.2zm6.5-2.4c-.3-.5.1-1.2.6-.9.4.3.4 1.2 0 1.2-.2 0-.5-.1-.6-.3zm-3.7-2.4c0-.6.8-.5 1 .2 0 .2-.1.4-.4.4a.6.6 0 0 1-.6-.6zm-.2-1.9c.1-.2.4-.2.6-.1.5.3.4.5-.2.5-.3 0-.5-.2-.4-.4zm-18-1.8c-.3-.2-.5-.7-.5-1 0-.4 0-.4.6 0 .3.4.5.8.4 1 0 .3-.2.3-.6 0zm26 6.7c.2.2.3.6.1.9-.1.2.2 0 .8-.6.6-.7 1-1 1-.7.2.3.5.5.8.5.2 0 .4-.2.3-.3-.1-.2.2-.9.8-1.6l1.3-1.9c.4-.6.4-.6.7 0 .1.4 0 1-.7 1.7-1 1-1.2 2-.6 2 1 0 2.3-.8 2.7-1.9.6-1.3 1-1.6.6-.4-.1.5 0 .6.2.5.2-.2.7-.1 1.1.1.6.3.7.3.7-.2 0-1.3-.5-2.4-.8-2-.5.8-.9.5-.6-.6.2-.7.2-1.1 0-1.3-.3-.1-.3 0-.2.2.2.2.2.4 0 .4l-.5-.9c-.3-.8-.4-.8-1.2-.5-.6.2-1 .2-1 0-.4-.6-.8-.4-1.7.9-.5.6-1 1.2-1.2 1.2-.2 0-.7.3-1.1.7l-1.1.7c-.2 0-.4-.3-.5-.7-.1-.4-.4-.7-.7-.7-.3 0-.3 0 0 .4.2.2.4.6.4.9 0 .6-1 .6-1.2 0 0-.2-.2 0-.2.3 0 .4.2.9.6 1 .4.2.5.5.3 1.3v1.5c.2.3.4.1.5-.5.1-.6.3-.7.5-.4zm-29-10.7c-.3-.8-.4-.5-.1.4.1.3.3.5.4.4 0-.1 0-.5-.2-.8zm29.3-13.8c2.1-4.6-.4-11.4-4-11.4-1.5 0-1.6.4-.4 2.9 1 2.4 1.6 4.9 1.7 7.7 0 1.3.2 2.5.4 2.7.4.8 1.5-.1 2.3-2zm-23-4.7c3-.6 5.3-1.4 4.5-1.4l-2.7.5c-1.2.3-2.8.5-3.5.5-.8 0-1.4.2-1.5.6-.3.6-.4.6 3.3-.2zm10.2-1.5h.6c.5.1 1-.8.7-1.3a9 9 0 0 1 1.7-2.3c2.1-2.3 2-3-.1-1-.9.8-2.8 2-4.4 2.9-1.8 1-2.4 1.4-1.7 1.2.8-.1 1.2 0 1.3.3.2.5 1.4.6 1.9.2zm-11-5.5c1 .1 3.4-.4 3.4-.7 0-.4 2.3-1.3 3.7-1.6.5 0 2 0 3.1.4l3 .7c.9.2 1.2-.4 1.2-2.6 0-2 .8-2.7 2-1.6.6.6.8.6 2.3.3 2.2-.5 3.2-1.1 3.7-2 .3-.6.3-.9 0-1.1-.9-.5-3-.4-5 .4-1.5.5-2.6.6-3.7.4-3.1-.4-6.8 1.5-6.8 3.6 0 .5.2 1 .4 1s.3 0 .2.1c-.2.3-2.9-1-5-2.3l-1.6-1-1.7.8c-2.2 1.1-2.8 1.8-2.3 2.7.3.4.3.7 0 .9-.1 0-.2.3 0 .5 0 .2 0 .3-.3.3s-.1.4.3.7c.7.6 1 .7 1.5.4a3 3 0 0 1 1.5-.3zm33.3-.7c-.3-.4-1.4-1-3.1-1.5l-4-1.3c-2.2-1-3-1.1-4.9-.6-1.5.4-4.7 2.2-4.4 2.5l2-.6c2-.7 3.3-.9 3.7-.3.1.2.4.3.5.3.2 0 .3-.1.2-.3-.1-.2 0-.4.1-.4.2 0 .4.3.4.5 0 .3.2.6.5.6 1.2.1 2 .3 4.5.9 1.4.3 3 .6 3.6.5.5 0 1 .2 1 .4s0 .3.1.2c.1-.1 0-.5-.2-.9z" style="fill:#cba756;stroke-width:.352778" transform="translate(-44.5 -173.2)"/>
  <path d="M74.7 235.5a32.7 32.7 0 0 1-15.7-7.1c-3.3-3.2-4.2-5.2-5.6-12.3l-1.6-7a15 15 0 0 1 .1-8.4A23 23 0 0 1 63.2 189a12 12 0 0 1 5.3-1c2-.2 4.8-.7 6-1 5.2-1.7 9.8-1.9 15.6-.7 2 .5 3.5 1.1 6.3 2.8 2 1.3 4.8 2.8 6 3.5 6.3 3.2 9.6 9.4 8 15l-1.8 8.2a51 51 0 0 1-2 7.7 27.1 27.1 0 0 1-8.5 8.3c-6.4 3.6-15.7 5-23.4 3.6zm4-2.1 2.9-.2c.6 0 1.4-.2 1.8-.6.3-.3.8-.4 1-.3.7.5 3.9.5 4.3 0 .2-.2.7-.3 1.2-.3.5.1 1.1 0 1.4-.2.2-.2.7-.3 1-.2.4.2 1.1-.2 2.1-1 1.2-1 1.7-1.2 2.6-1 .9.1 1 0 1-.8 0-.5 0-.9-.2-.9s-.3-.1-.2-.3c.4-.6.5-2.5.2-2.3-.2 0-.3-.1-.3-.5s.1-.8.3-1c.2 0 .4.1.4.4 0 .5.1.6.4.3.3-.4 0-1.5-.4-1.5-.2 0-.4.1-.5.3-.5.7-.8.4-1-.8-.1-.6 0-1.3.2-1.6.5-.6-.4-.5-1.7.2a39 39 0 0 1-8 2.4c-4.3 1-4.9 1.1-6 .4a14 14 0 0 0-4.2-.9 36.5 36.5 0 0 1-16.7-5c-1.4-1.1-2.6-.6-2.3.9l.2 2.1c.3 3.2.6 3.8 2.4 4.8 1.2.6 1.8 1.2 2 1.8.2 1.1 3.6 3.8 4.8 3.8.4 0 1.3.2 1.8.5s1.6.6 2.4.7a6 6 0 0 1 2.1.8c.4.3 1.2.4 2 .3l3-.3zM61 224.5c-.3-.9-.2-1 .2-.4l.2.8c0 .1-.3 0-.4-.4zm28.5.1c0-.2.4-.4.8-.4.3 0 .7.2.7.4.1.3-.2.5-.7.5-.6 0-1-.2-.8-.5zm4-2c.6-.7 2-1 1.7-.3-.2.2-.5.3-.7.2-.3-.1-.7 0-1 .2-.3.4-.3.3 0-.2zm-34.2-2a1 1 0 0 1-.3-.6c0-.2.2-.2.4 0 .3.3.4.6.3.7h-.4zm29-14.1c2.1-4.6-.4-11.4-4-11.4-1.5 0-1.6.4-.4 2.9 1 2.4 1.6 4.9 1.7 7.7 0 1.3.2 2.5.4 2.7.4.8 1.5-.1 2.3-2zm-23-4.7c3-.6 5.3-1.4 4.5-1.4l-2.7.5c-1.2.3-2.8.5-3.5.5-.8 0-1.4.2-1.5.6-.3.6-.4.6 3.3-.2zm10.2-1.5h.6c.5.1 1-.8.7-1.3a9 9 0 0 1 1.7-2.3c2.1-2.3 2-3-.1-1-.9.8-2.8 2-4.4 2.9-1.8 1-2.4 1.4-1.7 1.2.8-.1 1.2 0 1.3.3.2.5 1.4.6 1.9.2zm-11-5.5c1 .1 3.4-.4 3.4-.7 0-.4 2.3-1.3 3.7-1.6.5 0 2 0 3.1.4l3 .7c.9.2 1.2-.4 1.2-2.6 0-2 .8-2.7 2-1.6.6.6.8.6 2.3.3 2.2-.5 3.2-1.1 3.7-2 .3-.6.3-.9 0-1.1-.9-.5-3-.4-5 .4-1.5.5-2.6.6-3.7.4-3.1-.4-6.8 1.5-6.8 3.6 0 .5.2 1 .4 1s.3 0 .2.1c-.2.3-2.9-1-5-2.3l-1.6-1-1.7.8c-2.2 1.1-2.8 1.8-2.3 2.7.3.4.3.7 0 .9-.1 0-.2.3 0 .5 0 .2 0 .3-.3.3s-.1.4.3.7c.7.6 1 .7 1.5.4a3 3 0 0 1 1.5-.3zm33.3-.7c-.3-.4-1.4-1-3.1-1.5l-4-1.3c-2.2-1-3-1.1-4.9-.6-1.5.4-4.7 2.2-4.4 2.5l2-.6c2-.7 3.3-.9 3.7-.3.1.2.4.3.5.3.2 0 .3-.1.2-.3-.1-.2 0-.4.1-.4.2 0 .4.3.4.5 0 .3.2.6.5.6 1.2.1 2 .3 4.5.9 1.4.3 3 .6 3.6.5.5 0 1 .2 1 .4s0 .3.1.2c.1-.1 0-.5-.2-.9z" style="fill:#e9a438;stroke-width:.352778" transform="translate(-44.5 -173.2)"/>
  <path d="M74.7 235.5a32.7 32.7 0 0 1-15.7-7.1c-3.3-3.2-4.2-5.2-5.6-12.3l-1.6-7a15 15 0 0 1 .1-8.4A23 23 0 0 1 63.2 189a12 12 0 0 1 5.3-1c2-.2 4.8-.7 6-1 5.2-1.7 9.8-1.9 15.6-.7 2 .5 3.5 1.1 6.3 2.8 2 1.3 4.8 2.8 6 3.5 6.3 3.2 9.6 9.4 8 15l-1.8 8.2a51 51 0 0 1-2 7.7 27.1 27.1 0 0 1-8.5 8.3c-6.4 3.6-15.7 5-23.4 3.6zm4-2.1 2.9-.2c.6 0 1.4-.2 1.8-.6.3-.3.8-.4 1-.3.7.5 3.9.5 4.3 0 .2-.2.7-.3 1.2-.3.5.1 1.1 0 1.4-.2.2-.2.7-.3 1-.2.4.2 1.1-.2 2.1-1 1.2-1 1.7-1.2 2.6-1 .9.1 1 0 1-.8 0-.5 0-.9-.2-.9s-.3-.1-.2-.3c.4-.6.5-2.5.2-2.3-.2 0-.3-.1-.3-.5s.1-.8.3-1c.2 0 .4.1.4.4 0 .5.1.6.4.3.3-.4 0-1.5-.4-1.5-.2 0-.4.1-.5.3-.5.7-.8.4-1-.8-.1-.6 0-1.3.2-1.6.5-.6-.4-.5-1.7.2a39 39 0 0 1-8 2.4c-4.3 1-4.9 1.1-6 .4a14 14 0 0 0-4.2-.9 36.5 36.5 0 0 1-16.7-5c-1.4-1.1-2.6-.6-2.3.9l.2 2.1c.3 3.2.6 3.8 2.4 4.8 1.2.6 1.8 1.2 2 1.8.2 1.1 3.6 3.8 4.8 3.8.4 0 1.3.2 1.8.5s1.6.6 2.4.7a6 6 0 0 1 2.1.8c.4.3 1.2.4 2 .3l3-.3zM61 224.5c-.3-.9-.2-1 .2-.4l.2.8c0 .1-.3 0-.4-.4zm28.5.1c0-.2.4-.4.8-.4.3 0 .7.2.7.4.1.3-.2.5-.7.5-.6 0-1-.2-.8-.5zm4-2c.6-.7 2-1 1.7-.3-.2.2-.5.3-.7.2-.3-.1-.7 0-1 .2-.3.4-.3.3 0-.2zm-34.2-2a1 1 0 0 1-.3-.6c0-.2.2-.2.4 0 .3.3.4.6.3.7h-.4zm28-12.4c1.2-1.3 2-3.7 2.2-7 .2-4.9-.8-6.2-5.4-6.7a6.6 6.6 0 0 1-2.3-.5c-.2-.3 2.2-1.1 4.3-1.6.8-.1 1.2 0 1.2.3 0 .2 0 .3.2.2 0-.1.7 0 1.4.3 1 .4 1.2.4 1.2 0 0-.3 0-.3.2 0 .2.2 1.1.5 2.2.6 1 .2 1.9.4 2 .6 0 0 .8.2 1.6.1.9 0 1.7.1 1.8.4.2.2.3.2.3 0 0-.7-1-1.5-2.5-2-3-1.1-4-1.5-5.2-2.2-1.8-1-4.4-.6-7.3 1-1.3.7-2.3 1.5-2.3 1.7 0 .3-.3.2-.6-.2-.4-.4-.6-1.1-.6-2.1 0-2 .2-2.2 1.2-1.6.7.5 1.6.5 4-.2l.6-.1c.5 0 1.7-.9 1.9-1.5.2-1-1-1.5-3.1-1.3l-4.9.5c-5 .6-7 1.5-7.9 3.5-.6 1.5-1.4 1.5-3 0-1.8-1.8-2.7-1.9-4.8-.8-2.2 1.1-2.8 1.8-2.3 2.7.3.4.3.7 0 .9-.1 0-.2.3 0 .5 0 .2 0 .3-.2.3-.3 0-.2.4.2 1 .6.8.7.9 3.3.7 1.4 0 3-.3 3.3-.4 1.5-.3 3.4-1.4 3.4-1.9 0-.4.4-.5 2.4-.3 3.5.3 5.1.6 5.4 1 .4.7-2.6 3.2-5.5 4.5a25.7 25.7 0 0 1-10.7 2.7c-3 .2-3.6.3-3.7.9-.2.5 0 .7 1 .6 1 0 7.3-1.3 10-2.1 1.4-.5 1.5-.4 2.3.4 1.4 1.7 3 1.9 4.6.7 1-.6 1.2-1.4 1.3-3.5 0-1 .3-1.7.8-2 .4-.4 1-1 1.2-1.4.3-.6.4-.6 1.5.5l1.8 2.6a26 26 0 0 1 1.7 8.2c0 2.6.7 3.3 1.9 2z" style="fill:#e89631;stroke-width:.352778" transform="translate(-44.5 -173.2)"/>
  <path d="M74.7 235.5a32.7 32.7 0 0 1-15.7-7.1c-3.3-3.2-4.2-5.2-5.6-12.3l-1.6-7a15 15 0 0 1 .1-8.4c1-2.6 2.3-4.6 5-7.1 2-2 3.2-2.7 2-1.4-.6.8-1.3 3.2-1.2 4.2.1 1.2 1.5 1.6 4 1.1l2.7-.3c.4 0 .6-.2.6-.4 0-.1.5-.3 1-.3.6 0 2-.4 3.1-1a11 11 0 0 1 2.4-.8c.1 0 .2 0 .2-.2s.6-.5 1.3-.8c1.4-.5 3.4-.3 4 .5.3.3.8.5 1.2.5 1.4 0-1.5 2.5-4.5 4-4 1.8-6.6 2.4-11.6 2.5-4.4.1-5.9.5-5.9 1.5 0 .7 3.7.7 7.3 0a12 12 0 0 1 3.9-.4c.8.1 1.1 0 1-.3-.2-.3-.2-.3.1 0 .3.3.7.4 1 .3h.5c0 .4.5.5 2 .6.2 0 .3.2.2.4-.1.2.5.3 1.7.1 1.7-.2 4-1.6 4.2-2.4a11 11 0 0 1 2.3-4.3c.3 0 .5-.6.5-1.1v-1l1 1c.7.6 1.5 1.7 1.9 2.4a26 26 0 0 1 1.7 8.3c0 3.3 1.3 3.4 2.9 0 .7-1.4 1-2.5 1-5 .3-4.8-.6-6.1-4.6-6.7-2.5-.4-2.9-.8-1.4-1.4 1.9-.8 3.9-1 3.9-.5 0 .2 0 .3.2.2 0-.1.7 0 1.4.3 1 .4 1.2.4 1.2 0 0-.3 0-.3.2 0 .2.2 1.1.5 2.2.6 1 .2 1.9.4 2 .6 0 0 .8.2 1.6.1.9 0 1.7.1 1.8.4.2.2.3.2.3 0 0-.7-1-1.5-2.5-2-3-1.1-4-1.5-5.2-2.2-2-1-4.5-.6-7.6 1.2-2.6 1.5-3 1.5-3.1-.3 0-1.1 0-2.2.2-2.4 0-.1.5 0 .9.3.7.5 1.6.5 4-.2l.6-.1 1-.4c1-.5 1.2-1.7.4-2.2-.8-.4-9.1-.1-11.1.4-3 .8-5.8 2.8-5.6 4 .2.8-.4.7-1.3-.3a11.7 11.7 0 0 0-2.3-2.1c-.6-.5-.5-.5 1.8-.6 1.5 0 3.6-.3 5.5-.8a30 30 0 0 1 16.2-.8c2 .5 3.5 1.1 6.3 2.8 2 1.3 4.8 2.8 6 3.5 6.3 3.2 9.6 9.4 8 15l-1.8 8.2a51 51 0 0 1-2 7.7 27.1 27.1 0 0 1-8.5 8.3c-6.4 3.6-15.7 5-23.4 3.6zm4-2.1 2.9-.2c.6 0 1.4-.2 1.8-.6.3-.3.8-.4 1-.3.7.5 3.9.5 4.3 0 .2-.2.7-.3 1.2-.3.5.1 1.1 0 1.4-.2.2-.2.7-.3 1-.2.4.2 1.1-.2 2.1-1 1.2-1 1.7-1.2 2.6-1 .9.1 1 0 1-.8 0-.5 0-.9-.2-.9s-.3-.1-.2-.3c.4-.6.5-2.5.2-2.3-.2 0-.3-.1-.3-.5s.1-.8.3-1c.2 0 .4.1.4.4 0 .5.1.6.4.3.3-.4 0-1.5-.4-1.5-.2 0-.4.1-.5.3-.5.7-.8.4-1-.8-.1-.6 0-1.3.2-1.6.5-.6-.4-.5-1.7.2a39 39 0 0 1-8 2.4c-4.3 1-4.9 1.1-6 .4a14 14 0 0 0-4.2-.9 36.5 36.5 0 0 1-16.7-5c-1.4-1.1-2.6-.6-2.3.9l.2 2.1c.3 3.2.6 3.8 2.4 4.8 1.2.6 1.8 1.2 2 1.8.2 1.1 3.6 3.8 4.8 3.8.4 0 1.3.2 1.8.5s1.6.6 2.4.7a6 6 0 0 1 2.1.8c.4.3 1.2.4 2 .3l3-.3zM61 224.5c-.3-.9-.2-1 .2-.4l.2.8c0 .1-.3 0-.4-.4zm28.5.1c0-.2.4-.4.8-.4.3 0 .7.2.7.4.1.3-.2.5-.7.5-.6 0-1-.2-.8-.5zm4-2c.6-.7 2-1 1.7-.3-.2.2-.5.3-.7.2-.3-.1-.7 0-1 .2-.3.4-.3.3 0-.2zm-34.2-2a1 1 0 0 1-.3-.6c0-.2.2-.2.4 0 .3.3.4.6.3.7h-.4zm4.7-31.9.9-.3c.1 0 0 .2-.2.3-.3.2-.7.4-1 .4-.1 0 0-.2.3-.4z" style="fill:#ca9646;stroke-width:.352778" transform="translate(-44.5 -173.2)"/>
  <path d="M74.7 235.5a32.7 32.7 0 0 1-15.7-7.1c-3.3-3.2-4.2-5.2-5.6-12.3l-1.6-7c-.8-2-.7-6 .2-8.5.8-2.5 2.2-4.5 4.8-7 2-2 3.3-2.7 2.2-1.4a8 8 0 0 0-1.3 4.2c.1 1.2 1.5 1.6 4 1.1l2.7-.3c.4 0 .6-.2.6-.4 0-.1.5-.3 1-.3.6 0 2-.4 3.1-1a11 11 0 0 1 2.4-.8c.1 0 .2 0 .2-.2s.6-.5 1.3-.8c1.4-.5 3.4-.3 4 .5.3.3.8.5 1.2.5 1.4 0-1.5 2.5-4.5 4-4 1.8-6.6 2.4-11.6 2.5-4.4.1-5.9.5-5.9 1.5 0 .7 3.7.7 7.3 0a12 12 0 0 1 3.9-.4c.8.1 1.1 0 1-.3-.2-.3-.2-.3.1 0 .3.3.7.4 1 .3h.5c0 .4.5.5 2 .6.2 0 .3.2.2.4-.1.2.5.3 1.7.1 1.7-.2 4-1.6 4.2-2.4a11 11 0 0 1 2.3-4.3c.3 0 .5-.6.5-1.1v-1l1 1c.7.6 1.5 1.7 1.9 2.4a26 26 0 0 1 1.7 8.3c0 3.3 1.3 3.4 2.9 0 .7-1.4 1-2.5 1-5 .3-4.8-.6-6.1-4.6-6.7-2.5-.4-2.9-.8-1.4-1.4 1.9-.8 3.9-1 3.9-.5 0 .2 0 .3.2.2 0-.1.7 0 1.4.3 1 .4 1.2.4 1.2 0 0-.3 0-.3.2 0 .2.2 1.1.5 2.2.6 1 .2 1.9.4 2 .6 0 0 .8.2 1.6.1.9 0 1.7.1 1.8.4.2.2.3.2.3 0 0-.7-1-1.5-2.5-2-3-1.1-4-1.5-5.2-2.2-2-1-4.5-.6-7.6 1.2a9 9 0 0 1-2.6 1.3l-.5-1.4c-.5-2.4.4-3.6 1.3-1.7.3.7.5.8 2.1.6l2-.2-1-.5c-1-.5-1-.5-.1-.5.5 0 1-.2 1.3-.5.3-.2.4-.3.4-.1l.7-.1c1-.6 1.2-1.8.4-2.2-.8-.4-9.1-.1-11.1.4-3 .8-5.8 2.8-5.6 4 .1.3 0 .6-.2.6a7 7 0 0 1-2.1-2.1c0-.2-.4-.5-.8-.7-.7-.3-.5-.4 1.3-.6 1.1 0 4-.7 6.3-1.3 3.7-1 4.8-1.1 8.5-1.1 6 0 8.6.7 13.2 3.4 2 1.3 4.8 2.8 6 3.5 3 1.5 6.2 4.7 7.3 7.2a11 11 0 0 1 .5 8.3c-.4 1.4-1 4.8-1.6 7.6-1.3 7.5-2.1 9.2-6.1 12.9a34.2 34.2 0 0 1-27.8 6.8zm5.3-2c.6-.2 1.2-.2 1.5 0 .4.2.9.2 1.2 0 .3-.2 1.9-.4 3.4-.5a24 24 0 0 0 9.3-1.8c.3-.3 1-.5 1.3-.5 1.4 0 2.2-.6 3-2.4.6-1.2.8-1.8.6-2-.3-.3-.3-.5 0-.7.2-.1.4.3.6 1 0 .7.3 1.3.4 1.3.5 0 1.1-.8 1.1-1.3 0-.3.3-1 .7-1.4.4-.5.7-.7.7-.5 0 .2.2.3.4.2.2-.1.4-.7.3-1.4 0-2 0-2.5.4-2 .2.4.4.3.7-.5.5-1.3.7-4 .3-4-.2 0-.3.2-.3.6-.1 2-.5 2.5-1.4 1.7-.7-.7-.8-.7-1.5 0-.4.6-.8.8-1.1.6-.8-.6-4.3-.2-6.6.7a27 27 0 0 1-9.7 2.7c-.8 0-1.5.2-1.8.6-.5.6-.5.6-1 0-.4-.5-1.3-.7-4.3-1a33 33 0 0 1-17-4.8l-3-1.9-1.2-.5v2.8c0 2.3 0 2.7.4 2.6.5-.2.6 0 .6 1 0 1.7.8 3.5 1.8 4 .4.3 1 .5 1.1.5.2 0 .2 0 0 .2-.4.8 4.5 4.6 6 4.6a8 8 0 0 1 2.3.7 8 8 0 0 0 2.3.8c.4 0 1.2.2 1.6.5 1 .6 5.5.7 7 .1zm19-6 .4-.3.2.3c0 .2-.2.4-.4.4s-.2-.2-.1-.4zm-.4-2.5c.2-.4.4-.6.5-.5.3.2-.2 1.3-.6 1.3-.2 0-.2-.3 0-.8zm2.8-.5c0-.2.2-.7.5-1 .3-.4.5-.5.5-.3l-.5 1c-.3.4-.5.5-.5.3zm-1-2.7c0-.3 0-.7.3-.8.2-.1.3 0 .3.3s-.1.7-.3.8c-.2.1-.4 0-.4-.3zm2-.9c0-.2.3-.5.6-.8.5-.4.5-.4.4.2-.1.7-1 1.2-1 .6zm-20.8-30.5c0-.1.2-.3.5-.4.3 0 .6 0 .6.2s-.3.3-.6.3l-.5-.1zM64 188.7l.9-.3c.1 0 0 .2-.2.3-.3.2-.7.4-1 .4-.1 0 0-.2.3-.4z" style="fill:#d79638;stroke-width:.352778" transform="translate(-44.5 -173.2)"/>
  <path d="M74.7 235.5a32.7 32.7 0 0 1-15.7-7.1c-3.3-3.2-4.2-5.2-5.6-12.3l-1.6-7a14.6 14.6 0 0 1 4.2-14.7c1.6-1.7 4-3.5 3-2.3-.7.9-1.4 3.3-1.3 4.3 0 1 1.4 1.6 3 1.3.8 0 2.4-.3 3.6-.5 3.8-.6 6.2-1.1 6.7-1.6 1.5-1.1 3.8-2.2 4.4-2 1.6.6 3 1.3 3 1.5 0 .6-2.8 2.6-4.9 3.6-3.6 1.6-7 2.4-11 2.4s-6 .5-6.2 1.5c-.1.5.2.6 2.1.6a22 22 0 0 0 5-.6c1.6-.3 3.3-.4 4-.3.8.1 1.1 0 1-.3-.2-.3-.2-.3.1 0 .3.3.7.4 1 .3.2-.1.5 0 .5.1 0 .2.2.3.5.3l1.8.7c.8.4 2 .7 2.9.7 1.2 0 1.7-.2 2.7-1.3 1-1 1.3-1.6 1.6-3.5.2-1.3.6-2.4.9-2.5.3-.2.5-.6.5-1s.2-.6.4-.5c.6.2 2.2 2.8 2.8 4.2.4 1.2.4 4.5 0 6.4-.8 2.6-.8 3.6-.3 4.2l.7 1c.1.3.4.2 1-.2 1.6-1.1 2-1.5 2.7-2.8l1-1.7a24 24 0 0 0 2-5.6c.2-1.2.6-1.6 1.4-2l1-.4-.8-.7a19 19 0 0 0-7-3c-2.3-.5-2.6-.8-.9-1.2a9 9 0 0 1 4.8 1.2l1.4.7c.4.2 1 .4 1.4.4.4 0 1.3.3 2 .6a12.8 12.8 0 0 0 3.8 1c1.1.3 1.9-.2 2.1-1.5.2-.8-.1-1-2.5-2.5l-3.9-2.3c-.7-.4-2-1-3.2-1.1-1-.3-1.7-.5-1.3-.5.9 0 .7-.9-.4-2.1a4 4 0 0 0-2-1.2c-.7 0-.8 0-.5-.2a18 18 0 0 1 9.8 3.2c2 1.3 4.8 2.8 6 3.5 3 1.5 6.2 4.7 7.3 7.2a11 11 0 0 1 .5 8.3c-.4 1.4-1 4.8-1.6 7.6-1.3 7.5-2.1 9.2-6.1 12.9a34.2 34.2 0 0 1-27.8 6.8zm5.3-2c.6-.2 1.2-.2 1.5 0 .4.2.9.2 1.2 0 .3-.2 1.9-.4 3.4-.5a24 24 0 0 0 9.3-1.8c.3-.3 1-.5 1.3-.5 1.4 0 2.2-.6 3-2.4.6-1.2.8-1.8.6-2-.3-.3-.3-.5 0-.7.2-.1.4.3.6 1 0 .7.3 1.3.4 1.3.5 0 1.1-.8 1.1-1.3 0-.3.3-1 .7-1.4.4-.5.7-.7.7-.5 0 .2.2.3.4.2.2-.1.4-.7.3-1.4 0-2 0-2.5.4-2 .2.4.4.3.7-.5.5-1.3.7-4 .3-4-.2 0-.3.2-.3.6-.1 2-.5 2.5-1.4 1.7-.7-.7-.8-.7-1.5 0-.4.6-.8.8-1.1.6-.8-.6-4.3-.2-6.6.7a27 27 0 0 1-9.7 2.7c-.8 0-1.5.2-1.8.6-.5.6-.5.6-1 0-.4-.5-1.3-.7-4.3-1a33 33 0 0 1-17-4.8l-3-1.9-1.2-.5v2.8c0 2.3 0 2.7.4 2.6.5-.2.6 0 .6 1 0 1.7.8 3.5 1.8 4 .4.3 1 .5 1.1.5.2 0 .2 0 0 .2-.4.8 4.5 4.6 6 4.6a8 8 0 0 1 2.3.7 8 8 0 0 0 2.3.8c.4 0 1.2.2 1.6.5 1 .6 5.5.7 7 .1zm19-6 .4-.3.2.3c0 .2-.2.4-.4.4s-.2-.2-.1-.4zm-.4-2.5c.2-.4.4-.6.5-.5.3.2-.2 1.3-.6 1.3-.2 0-.2-.3 0-.8zm2.8-.5c0-.2.2-.7.5-1 .3-.4.5-.5.5-.3l-.5 1c-.3.4-.5.5-.5.3zm-1-2.7c0-.3 0-.7.3-.8.2-.1.3 0 .3.3s-.1.7-.3.8c-.2.1-.4 0-.4-.3zm2-.9c0-.2.3-.5.6-.8.5-.4.5-.4.4.2-.1.7-1 1.2-1 .6zm-22.2-29-.3-1h1.5c.9 0 1.8-.1 2.1-.3 1-.3.6.4-.6 1.2-2 1.2-2.3 1.2-2.7.1zm-10.3-2c0-.2-.9-.6-1.9-.9l-1.7-.5 2-.3c1.2 0 4.1-.7 6.4-1.3 4.3-1 12-1.8 10.8-1-.4.2-2.4.4-4.6.6a33 33 0 0 0-5.5.6c-1.8.6-4.7 2.2-4.7 2.7 0 .4-.6.5-.8 0zm-6-1.2 1-.3c.1 0 0 .2-.2.3-.3.2-.7.4-1 .4-.1 0 0-.2.3-.4z" style="fill:#bb8f49;stroke-width:.352778" transform="translate(-44.5 -173.2)"/>
  <path d="M74.7 235.5c-3.6-.7-8.6-2.4-11.4-4a22.8 22.8 0 0 1-7.6-7c-.6-1.3-1.3-3.7-2.2-7.9-.6-3.3-1.4-6.7-1.7-7.5a15 15 0 0 1 1.8-11.9c1.3-1.7 3.7-4.1 4.9-5 1-.7 1-.7.5 0a8 8 0 0 0-1.3 4.2c0 1 1.4 1.6 3 1.3.8 0 2.4-.3 3.6-.5 3.8-.6 6.2-1.1 6.7-1.6 1.5-1.1 3.8-2.2 4.4-2 1.6.6 3 1.3 3 1.5 0 .6-2.8 2.6-4.9 3.6-3.6 1.6-7 2.4-11 2.4s-6 .5-6.2 1.5c-.1.5.2.6 2.1.6a22 22 0 0 0 5-.6c1.6-.3 3.3-.4 4-.3.8.1 1.1 0 1-.3-.2-.3-.2-.3.1 0 .3.3.7.4 1 .3.2-.1.5 0 .5.1 0 .2.2.3.5.3l1.8.7c.8.4 2 .7 2.9.7 1.2 0 1.7-.2 2.7-1.3 1-1 1.3-1.6 1.6-3.5.2-1.3.6-2.4.9-2.5.3-.2.5-.6.5-1s.2-.6.4-.5c.6.2 2.2 2.8 2.8 4.2.4 1.2.4 4.5 0 6.4-.8 2.6-.8 3.6-.3 4.2l.7 1c.1.3.4.2 1-.2 1.6-1.1 2-1.5 2.7-2.8l1-1.7a24 24 0 0 0 2-5.6c.2-1.2.6-1.6 1.4-2l1-.4-.8-.7a19 19 0 0 0-7-3c-2.3-.5-2.6-.8-.9-1.2a9 9 0 0 1 4.8 1.2l1.4.7c.4.2 1 .4 1.4.4.4 0 1.3.3 2 .6a12.8 12.8 0 0 0 3.8 1c1.1.3 1.9-.2 2.1-1.5.2-.8-.1-1-2.5-2.5l-3.9-2.3c-.7-.4-2-1-3.2-1.1-1-.3-1.7-.5-1.3-.5 1.6-.1-.7-3.2-2.5-3.3-.5 0-.8 0-.6-.2.3 0 1.8.1 3.4.5 2.4.4 3.6 1 6.6 2.8l6.2 3.5c6.3 3.4 9.4 9.3 7.8 14.8a89 89 0 0 0-1.8 8.2c-1.4 7.2-2.2 8.9-5.6 12.3a18 18 0 0 1-6.2 4.3c-2 1-5 2.2-6.7 2.6-4 1-11.3 1.2-15.4.5zm10.8-1.8 3-.6c.7-.2 1.4-.2 1.5-.1.3.2 1.5-.1 3.3-.8a8 8 0 0 1 1-.3 3 3 0 0 0 1-.6c.4-.3 1-.6 1.4-.6 1.4 0 2.2-.6 3.2-2.5.7-1.6 1-1.8 1-1l.4.7c.4 0 1.1-.8 1.1-1.3 0-.3.3-1 .7-1.4.4-.5.7-.7.7-.5 0 .2.2.3.4.2.2-.1.4-.7.3-1.4 0-2 0-2.5.4-2 .2.4.4.3.7-.5.5-1.3.7-4 .3-4-.2 0-.3.2-.3.6-.1 2-.5 2.5-1.4 1.7-.7-.7-.8-.7-1.5.1-.5.6-.8.7-1 .4-1-.9-6.5 0-8.3 1.4l-2.8 1c-2 .4-3.7.6-8.5.6a55 55 0 0 1-13.2-1.3c-2.2-.4-6.3-2.4-9.7-4.7-1.5-1-2.6-1.5-3-1.3-.4 0-.7 0-.7-.3s0-.4-.2-.3l.2 1.4c.2.6.4 2 .4 2.8 0 .9.3 2 .6 2.4l1.1 2.2c.6 1.5 4 5.3 4.8 5.3.3 0 .7.3 1 .6.6.9 3 2.2 4 2.2.6 0 1.3.2 1.7.5.3.3 1 .5 1.4.5.4 0 1.3.3 2 .7 1 .5 1.9.6 6.1.5a91 91 0 0 0 6.9-.3zm13-8.4c0-.3.2-.6.4-.6s.2.3.1.6c0 .2-.2.5-.3.5l-.2-.5zm2.9-.8c0-.2.2-.7.5-1 .3-.4.5-.5.5-.3l-.5 1c-.3.4-.5.5-.5.3zm-1-2.7c0-.3 0-.7.3-.8.2-.1.3 0 .3.3s-.1.7-.3.8c-.2.1-.4 0-.4-.3zm2-.9c0-.2.3-.5.6-.8.5-.4.5-.4.4.2-.1.7-1 1.2-1 .6zm-22.2-29-.3-1h1.5c.9 0 1.8-.1 2.1-.3 1-.3.6.4-.6 1.2-2 1.2-2.3 1.2-2.7.1zm-10.3-2c0-.2-.9-.6-1.9-.9l-1.7-.5 2-.3c1.2 0 4.1-.7 6.4-1.3 4.4-1 11.3-1.8 10.6-1-.2.2-2.1.4-4.3.6-2.2 0-4.7.4-5.6.6-1.8.6-4.7 2.2-4.7 2.7 0 .4-.6.5-.8 0zm-6-1.2 1-.3c.1 0 0 .2-.2.3-.3.2-.7.4-1 .4-.1 0 0-.2.3-.4z" style="fill:#c78837;stroke-width:.352778" transform="translate(-44.5 -173.2)"/>
  <path d="M74.7 235.5c-3.6-.7-8.6-2.4-11.4-4a22.8 22.8 0 0 1-7.6-7c-.6-1.3-1.3-3.7-2.2-7.9a102 102 0 0 0-1.7-7.6c-1-2.7-.6-6.8.8-9.7 1-2.3 3.9-5.7 5.9-7.1 1-.7 1-.7.5 0a8 8 0 0 0-1.3 4.2c0 1 1.4 1.6 3 1.3.8 0 2.4-.3 3.6-.5 3.8-.6 6.2-1.1 6.7-1.6 1.5-1.1 3.8-2.2 4.4-2 1.6.6 3 1.3 3 1.5 0 .6-2.8 2.6-4.9 3.6-3.6 1.6-7 2.4-11 2.4s-6 .5-6.2 1.5c-.1.5.2.6 2.1.6a22 22 0 0 0 5-.6c1.6-.3 3.3-.4 4-.3.8.1 1.1 0 1-.3-.2-.3-.2-.3.1 0 .3.3.7.4 1 .3.2-.1.5 0 .5.1 0 .2.2.3.5.3l1.8.7c2 1 4.1.9 5.2-.1.4-.4.9-.7 1-.6.2.2.9-2.2 1.2-4.3.1-.8.4-1.6.7-1.7.3 0 .5-.5.5-.9 0-1.1.8-.5 1.9 1.4.7 1.4 1 2.4 1.2 4.4.2 3-.3 4.7-2.3 7.8-.9 1.5-1 1.9-.6 2 .3.2.6 0 .7-.1.1-.2.6 0 1.2.4 1 .6 1.1.7 2 .2.6-.3 1.4-1 2-1.5 1.1-1.3 3.2-5.7 3.8-8.3.6-2.7.9-3 2-3 .5 0 1.2.2 1.6.4.6.3.7-.3.1-1.2-.2-.4-.2-.4.4-.2l3 1 2.7.7c.1 0 .6 0 1-.2.7-.2.9-.5.7-1 0-.4 0-.8.3-1 .4-.4.2-.7-1.2-1.9a21 21 0 0 0-3-2l-1.6-1.1a21.2 21.2 0 0 0-7.4-3c.7-.2.8-2.1.3-2.8-.9-1.1 3.4.5 6.7 2.5l6.2 3.5c4.5 2.5 7.6 6.6 8.1 10.6.2 1.4 0 2.8-.8 6-1 4-1.2 5-1.7 8-.7 5-1.8 7.4-5.2 10.7a18 18 0 0 1-6.2 4.3c-2 1-5 2.2-6.7 2.6-4 1-11.3 1.2-15.4.5zm10.8-1.8 3-.6c.7-.2 1.3-.2 1.5-.1.3.2 3.5-.7 5.4-1.5l2.4-.8c1.6-.4 5.7-4 6.6-5.8a5 5 0 0 1 1.2-1.5c.4-.2.8-1 .9-1.6.1-.6.5-1.7.8-2.3.5-1 .5-1.3.1-1.4-.2 0-.4-.7-.4-1.5s-.2-1.4-.3-1.4c-.2 0-.4.2-.4.4l-.3.3c-.2 0-.3-.3-.2-.6.1-.4-.6.3-1.7 1.4-2 2-3.4 2.9-4.5 2.5-.6-.1-5.4 1.3-6.2 2l-2.8 1c-2 .4-3.7.6-8.5.6a55 55 0 0 1-13.2-1.3c-2.3-.5-7-2.7-9-4.3-1.5-1.3-2.8-1.8-3.8-1.7-.3 0-.6-.1-.6-.3 0-.3 0-.4-.2-.3l.2 1.4c.2.6.4 2 .4 2.8 0 .9.3 2 .6 2.4l1.1 2.2c.6 1.5 4 5.3 4.8 5.3.3 0 .7.3 1 .6.6.9 3 2.2 4 2.2.6 0 1.3.2 1.7.5.3.3 1 .5 1.4.5.4 0 1.3.3 2 .7 1 .5 1.9.6 6.1.5a91 91 0 0 0 6.9-.3zm-4.8-41.5c-.3-.5.5-1 1.6-1 .8 0 .8 0 .2.7-.7.8-1.4 1-1.8.3zM69.9 190c0-.2-.9-.6-1.9-.9l-1.7-.5 2.3-.3c1.2-.1 4-.7 6.3-1.3 4.1-1 11.4-1.8 10.2-1-.3.2-2.3.5-4.4.6-2 0-4.4.4-5.3.6-1.8.6-4.7 2.2-4.7 2.7 0 .4-.6.5-.8 0zm-6-1.2 1-.3c.1 0 0 .2-.2.3-.3.2-.7.4-1 .4-.1 0 0-.2.3-.4z" style="fill:#d78628;stroke-width:.352778" transform="translate(-44.5 -173.2)"/>
  <path d="M74.7 235.5c-3.6-.7-8.6-2.4-11.4-4a22.8 22.8 0 0 1-7.6-7c-.6-1.3-1.3-3.7-2.2-7.9a102 102 0 0 0-1.7-7.6c-1.3-3.8 0-10.2 2.6-12.6l1-1v1.2l-.4 2c-.3.7.5 2.3 1 1.9.1-.1.2 0 .2.2s-.7.7-1.6 1.2c-1.4.7-1.6.9-1.6 1.9 0 1 0 1.1 1 .8.9-.4 8-1 9.8-.9.6 0 2 .3 3 .6 2.3.7 7 1 8.6.6 1.3-.3 3-1.8 3.6-3.1.3-.5 1-2.1 1.5-3.7l1-2.8 1 1.5a10 10 0 0 1 1.6 6c0 2-.7 4-2.4 6.6-.9 1.5-1 1.9-.6 2 .3.2.6 0 .7-.1.1-.2.6 0 1.2.4 1 .6 1.1.7 2 .2.6-.3 1.4-1 2-1.5 1-1.2 3.7-6.5 4.5-9.1.5-1.8.6-1.8 2-1.8s1.6-.2 1-1.2c-.2-.4-.2-.4.4-.2l3 1 2.7.7c.1 0 .6 0 1-.2.7-.2.9-.5.7-1 0-.4 0-.8.3-1 .4-.4.2-.7-1.2-1.9a21 21 0 0 0-3-2l-1.6-1c-.6-.7-2.8-2-4-2.4-.8-.2-1.4-.6-1.4-.9l-.5-1c-.4-.3-.8-.9-1-1.3-.5-.7-.4-.7 1.2-.4a26 26 0 0 1 5.3 2.6l6.2 3.5c4.5 2.5 7.6 6.6 8.1 10.6.2 1.4 0 2.8-.8 6-1 4-1.2 5-1.7 8-.7 5-1.8 7.4-5.2 10.7a18 18 0 0 1-6.2 4.3c-2 1-5 2.2-6.7 2.6-4 1-11.3 1.2-15.4.5zm10.8-1.8 3-.6c.7-.2 1.3-.2 1.5-.1.3.2 3.5-.7 5.4-1.5l2.4-.8c1.6-.4 5.7-4 6.6-5.8a5 5 0 0 1 1.2-1.5c.4-.2.8-1 .9-1.6.1-.6.5-1.7.8-2.3.5-1 .5-1.3.1-1.4-.2 0-.4-.7-.4-1.5s-.2-1.4-.3-1.4c-.2 0-.4.2-.4.4l-.3.3c-.2 0-.3-.3-.2-.6.1-.4-.6.3-1.7 1.4-2 2-3.4 2.9-4.5 2.5-.6-.1-5.4 1.3-6.2 2l-2.8 1c-2 .4-3.7.6-8.5.6a55 55 0 0 1-13.2-1.3c-2.3-.5-7-2.7-9-4.3-1.5-1.3-2.8-1.8-3.8-1.7-.3 0-.6-.1-.6-.3 0-.3 0-.4-.2-.3l.2 1.4c.2.6.4 2 .4 2.8 0 .9.3 2 .6 2.4l1.1 2.2c.6 1.5 4 5.3 4.8 5.3.3 0 .7.3 1 .6.6.9 3 2.2 4 2.2.6 0 1.3.2 1.7.5.3.3 1 .5 1.4.5.4 0 1.3.3 2 .7 1 .5 1.9.6 6.1.5a91 91 0 0 0 6.9-.3zm-23-33.4c.2-.2.3-.6.2-.8-.1-.3.3-.5 1.3-.6 1.5-.2 2.7-.6 8-3.1 2.1-1 4.6-1.3 5.4-.4 1 1-5 4.3-9.2 5-2.5.4-6.1.3-5.7-.1zm18.2-8c-.3-.6.5-1 1.6-1 .8 0 .8 0 .2.6-.7.8-1.4 1-1.8.3zm-11.6-3.5-1.4-.3 1.4-.2 2.9-.6c2.1-.5 2.2-.5.2.5l-1.7.8-1.4-.2zm12.9-3c-1 0-.7-.2 1.1-.2l2.4.1c0 .3-2.3.4-3.5.2z" style="fill:#c8842a;stroke-width:.352778" transform="translate(-44.5 -173.2)"/>
  <path d="M74.7 235.5c-3.6-.7-8.6-2.4-11.4-4a22.8 22.8 0 0 1-7.6-7c-.6-1.3-1.3-3.7-2.2-7.9a102 102 0 0 0-1.7-7.6c-1.3-3.8 0-10.2 2.6-12.6l1-1v1.2l-.4 2c-.3.7.5 2.3 1 1.9.1-.1.2 0 .2.2s-.7.7-1.6 1.2c-1.4.7-1.6.9-1.6 1.9 0 1 0 1.1 1 .8.9-.4 8-1 9.8-.9 1.3 0 6 1.5 7.3 2.2 1.5.8 3.6 1 4.7.4A10.6 10.6 0 0 0 81 198c0-.4.2-1 .5-1.3.4-.6.5-.6 1 .3a10 10 0 0 1 1.7 5.6c0 2.3-.7 4.2-2.4 6.9-1.3 2-1.4 2.5-.5 2.5.4 0 1 .4 1.2 1l.5.8 1.7-1.1c.9-.6 2.4-2 3.3-3 .9-1 1.7-2 1.9-2 1 0 2.7-2.6 2.7-4.2 0-1.4.8-2.4 2-2.4.6 0 1.3-.2 1.5-.3.7-.5.2-1.6-.9-2.1-.5-.3-.8-.5-.7-.7l1 .2a30 30 0 0 0 6 1.6c.6 0 1.2.3 1.4.6.4.7.7.3.9-1.6.1-1.3 0-1.7-.5-1.8-.3-.2-.8-.5-1-.9a10 10 0 0 0-2.2-1.6l-2.2-1.6a10.9 10.9 0 0 0-4-2.6c-1.2-.5-2-.8-1.6-.8.2 0 0-.4-.5-.8s-1.1-1-1.3-1.4c-.4-.7-.3-.8 1-.5.7.1 3 1.2 5 2.5l6.2 3.5c4.5 2.5 7.6 6.6 8.1 10.6.2 1.4 0 2.8-.8 6a79.2 79.2 0 0 0-1.8 7.6l-.3 1.9c0 3-1.6 6-4.8 9.2a18.6 18.6 0 0 1-6.2 4.3c-2 1-5 2.2-6.7 2.6-4 1-11.3 1.2-15.4.5zm10.8-1.8 3-.6c.7-.2 1.3-.2 1.5-.1.3.2 3.5-.7 5.4-1.5l2.4-.8c1.6-.4 5.7-4 6.6-5.8l1.2-1.6c.8-.7 2.3-5 1.8-5.2-.2 0-.4-.8-.4-1.5 0-.8-.2-1.4-.3-1.4-.2 0-.4.2-.4.4l-.3.3c-.2 0-.3-.3-.2-.6.1-.4-.6.3-1.7 1.4-2 2-3.4 2.9-4.5 2.5-.6-.1-5.4 1.3-6.2 2l-2.8 1c-2 .4-3.7.6-8.5.6a55 55 0 0 1-13.2-1.3c-2.3-.5-7-2.7-9-4.3-1.5-1.3-2.8-1.8-3.8-1.7-.3 0-.6-.1-.6-.3 0-.3 0-.4-.2-.3l.2 1.4c.2.6.4 2 .4 2.8 0 .9.3 2 .6 2.4l1.1 2.2c.6 1.5 4 5.3 4.8 5.3.3 0 .7.3 1 .6.6.9 3 2.2 4 2.2.6 0 1.3.2 1.7.5.3.3 1 .5 1.4.5.4 0 1.3.3 2 .7 1 .5 1.9.6 6.1.5a91 91 0 0 0 6.9-.3zm-23-33.4c.2-.2.3-.6.2-.8-.2-.4 0-.5.7-.5 2 0 9.7-2.8 10-3.6.2-.4 3-.4 3.6 0 .9.6-.3 1.7-3.4 3.1-1.7.8-4.1 1.7-5.3 1.9-2.6.4-6.3.4-5.8-.1zM81 192c0-.4.5-.6 1.1-.7l1.1-.1-.8.7c-1 .9-1.6 1-1.4.1zm-11.6-3.2c-1.2-.3-.8-.6 1.4-1 .8 0 1.9-.2 2.3-.3.5-.2.1.2-.8.7l-1.8.9-1-.3zm12.5-3.1h2.4c.8 0 .3.1-1.1.1-1.4 0-2 0-1.3-.1z" style="fill:#b88538;stroke-width:.352778" transform="translate(-44.5 -173.2)"/>
  <path d="M74.7 235.5c-3.6-.7-8.6-2.4-11.4-4-1.2-.6-3.2-2.1-4.5-3.3-3-3-4-5.1-5.2-11.6a70 70 0 0 0-1.7-7.2c-1.4-4.2-.2-10.4 2.5-13l1-1v1.2l-.4 2c-.3.7.5 2.3 1 1.9.1-.1.2 0 .2.2s-.7.7-1.6 1.2c-1.4.7-1.6.9-1.6 1.9 0 1 0 1.1 1 .8.9-.4 8-1 9.8-.9 1.3 0 6 1.5 7.3 2.2 1.5.8 3.6 1 4.7.4A10.6 10.6 0 0 0 81 198c0-.4.2-1 .5-1.3.4-.6.5-.6 1 .3.9 1.2 1.7 4 1.7 5.4 0 2-1 4.8-2.5 7-1.4 2-1.5 2.6-.3 2.6.3 0 .8.4 1.1 1l.5.8 1.7-1.1c.9-.6 2.4-2 3.3-3 .9-1 1.7-2 1.9-2 1 0 2.7-2.6 2.7-4.2 0-1.4.8-2.4 2-2.4 1.4 0 2-.5 1.8-1.2-.3-.9.7-.7 2.5.3a7 7 0 0 0 2.8.9c1.3 0 2.3-.8 2-1.6-.1-.3 0-.8.2-1 .4-.5.2-.8-.7-1.7l-3-2.3-2.3-1.6a10.9 10.9 0 0 0-4-2.6c-1.2-.5-2-.8-1.6-.8.2 0 0-.4-.5-.8s-1.1-1-1.3-1.4c-.4-.7-.3-.8 1-.5.7.1 3 1.2 5 2.5l6.2 3.5c4.5 2.5 7.6 6.6 8.1 10.6.2 1.4 0 2.8-.8 6a79.2 79.2 0 0 0-1.8 7.6l-.3 1.9c0 3-1.6 6-4.8 9.2a18.6 18.6 0 0 1-6.2 4.3c-2 1-5 2.2-6.7 2.6-4 1-11.3 1.2-15.4.5zm9.3-1.1c.1 0 .4 0 .7.3.3.3.6.2 1-.2.4-.3 2-.7 3.5-.9a37 37 0 0 0 9.1-2.6 19.9 19.9 0 0 0 6.8-6.7c1-1 2.8-6 2.3-6.3-.2 0-.4-.8-.3-1.6 0-1.2 0-1.4-.6-1.5-.4 0-1.3.4-2.1 1-1.6 1.4-2.9 2-6.2 3.2l-5.8 2a51.1 51.1 0 0 1-25.5-.6 40.5 40.5 0 0 1-13.3-8.5c-.8 0 1.9 10.2 3.4 12.5a23 23 0 0 0 5.4 5.2l2 1.4c1.2 1 1.9 1.4 3 1.4.7 0 1.5.2 1.8.5 1.5 1.2 6.8 2 11.9 1.7l3-.3zm-21.5-34.1c.2-.2.3-.6.2-.8-.2-.4 0-.5.7-.5 2 0 9.7-2.8 10-3.6.2-.4 3-.4 3.6 0 .9.6-.3 1.7-3.4 3.1-1.7.8-4.1 1.7-5.3 1.9-2.6.4-6.3.4-5.8-.1zM81 192c0-.3.3-.5.6-.5.6 0 .5.7-.2 1-.2 0-.4-.2-.4-.5zm-11.5-3.3c-1-.3-1-.3 1-.7l2.7-.6c.5-.2.1.2-.8.7l-1.8.9-1-.3zm12.5-3.1h2l-1.2.1c-1.1 0-1.6 0-1-.1z" style="fill:#c77b27;stroke-width:.352778" transform="translate(-44.5 -173.2)"/>
  <path d="M74.7 235.5c-3.6-.7-8.6-2.4-11.4-4-1.2-.6-3.2-2.1-4.5-3.3-3-3-4-5.1-5.2-11.6-.5-2.8-1.3-6-1.7-7.2a14.2 14.2 0 0 1 2.6-13.2l.9-.7-.1 1.1-.3 2c-.2.6-.1 1.1.1 1.2.8.5.4 1.7-.8 2.2-1 .5-1.3.8-1.3 1.8 0 1.1 0 1.1 1 .8a32.2 32.2 0 0 1 9.5-.5c.3.3.8.5 1.2.5.8 0 2.3.7 4.1 1.8.6.4 2 .8 2.8.9l1.9.3c.3 0 3.9-1.4 3.9-1.6l1.3-1.7a13 13 0 0 0 2.7-6.9l.3-1.4.6.9c.9 1 1.8 4 1.8 5.5 0 2-1 4.8-2.4 6.9-1.5 2-2.3 3.7-2 4 0 .2.6.4 1.3.4.6 0 1.2.3 1.3.5.3.4 3.5-2.2 5.5-4.2.5-.7 1.1-1.2 1.3-1.2.8 0 2.7-1.6 3-2.5 0-.5.3-1 .5-1.2.2 0 .3-.5.3-.9 0-.3.2-.6.4-.6.1 0 .3-.4.3-.8 0-.7.2-.7 1.4-.6 2.7.4 3.5-.5 2-2.2-1-1 0-.9 1.8.2 1.6.9 3.4 1.1 4.3.6.2-.2.6-1 .8-1.7.3-1.3.2-1.4-1.6-3-1-.8-2.6-2.4-3.6-3.4a7.7 7.7 0 0 0-3.5-2.3c-.9-.2-1.7-.6-1.8-1 0-.2-1-1-1.8-1.7l-1.7-1.1 1.4.2c.8.1 3 1.2 5.1 2.5l6.2 3.5c4.6 2.5 7.7 6.6 8.1 10.8a11 11 0 0 1-.6 4.9c-1.5 5-2.7 7.3-3.3 6.4-.3-.7-.8-.5-2.4 1-1.6 1.4-2.7 2-6.2 3.2l-5.8 2a51.1 51.1 0 0 1-25.5-.6 40.5 40.5 0 0 1-13.3-8.5c-.8 0 1.9 10.2 3.4 12.5a23 23 0 0 0 5.4 5.2l2 1.4c1.2 1 1.9 1.4 3 1.4.7 0 1.5.2 1.8.5 1.6 1.3 9.5 2.2 13.7 1.6.9-.1 1.7 0 1.9.1.2.3.5.2 1-.2a9 9 0 0 1 3.4-.9 37 37 0 0 0 9.1-2.6 19.9 19.9 0 0 0 6.9-6.9c.6-.6 1.4-1.8 1.8-2.8.4-1 .7-1.4.7-1 0 1.6-2.1 5.2-4.7 7.8-2 2-3.2 2.8-6.2 4.3-2 1-5 2.2-6.7 2.6-4 1-11.3 1.2-15.4.5zm33-16.6c0-.4.1-.5.3-.2v.6c-.2.2-.3 0-.3-.4zM65 200c0-.2.5-.4 1.2-.4s2.3-.7 4.3-1.8c3.3-1.9 5.5-2.5 6-1.7.4.6-.8 1.5-3.8 2.7-2.7 1.1-7.7 1.9-7.7 1.2zm15.9-8c0-.3.3-.5.6-.5.6 0 .5.7-.2 1-.2 0-.4-.2-.4-.5zm-10.8-3c-.9-.4-.5-.8.8-1l2.2-.4c.5-.2.1.2-.8.7l-1.8.9-.4-.2zm13.4-3.2h1c.3 0 0 .2-.6.2s-.8-.1-.4-.2z" style="fill:#a57949;stroke-width:.352778" transform="translate(-44.5 -173.2)"/>
  <path d="M77.9 235.8c-5.3-.7-10.4-2-10.5-2.8 0-.6 1.2-.6 1.8 0 1.6 1.3 9.4 2.2 13.7 1.6.9-.1 1.7 0 1.9.1.2.3.5.2 1-.2a9 9 0 0 1 3.4-.9 37 37 0 0 0 9.1-2.6 19.9 19.9 0 0 0 6.9-6.9c.6-.6 1.4-1.8 1.8-2.8.6-1.4.7-1.5.5-.5a15 15 0 0 1-4.6 7.3c-4.6 4.6-12 7.4-20 7.7h-5zm-14.8-4.5a22.8 22.8 0 0 1-7.5-7.3 59 59 0 0 1-2-7.7c-.7-3.3-1.5-6.7-1.9-7.5a14.3 14.3 0 0 1 2.8-12.6l.9-.7-.1 1.1-.3 2c-.2.6-.1 1.1.1 1.2.8.5.4 1.7-.8 2.2-1 .5-1.3.8-1.3 1.8 0 1.1 0 1.1 1 .8a32.2 32.2 0 0 1 9.5-.5c.3.3.8.5 1.2.5.8 0 2.3.7 4.1 1.8.6.4 2 .8 2.8.9l1.9.3c.3 0 3.9-1.4 3.9-1.6l1.3-1.7a13 13 0 0 0 2.7-6.9l.3-1.4.6.9c.9 1 1.8 4 1.8 5.5 0 2-1 4.8-2.4 6.9-1.5 2-2.3 3.7-2 4 0 .2.6.4 1.3.4.6 0 1.2.3 1.3.5.3.4 3.5-2.2 5.5-4.2.5-.7 1.1-1.2 1.3-1.2.8 0 2.7-1.6 3-2.5 0-.5.3-1 .5-1.2.2 0 .3-.5.3-.9 0-.3.2-.6.4-.6.1 0 .3-.4.3-.8 0-.7.2-.7 1.4-.6 2.7.4 3.5-.5 2-2.2-1-1 0-.9 1.8.2 1.6.9 3.4 1.1 4.3.6.2-.2.6-1 .8-1.7.3-1.3.2-1.4-1.6-3-1-.8-2.6-2.4-3.6-3.4a7.7 7.7 0 0 0-3.5-2.3c-.9-.2-1.7-.6-1.8-1 0-.2-1-1-1.8-1.7l-1.7-1.1 1.4.2c.8.1 2.2.7 3.2 1.4l6.1 3.6c8.9 5 11.5 9.7 9.5 16.7-1.5 5-2.7 7.3-3.3 6.4-.3-.7-.8-.5-2.4 1-1.6 1.4-2.7 2-6.2 3.2l-5.8 2a51.1 51.1 0 0 1-25.5-.6 40.5 40.5 0 0 1-13.3-8.5c-.8 0 1.9 10.2 3.4 12.5a23 23 0 0 0 5.4 5.2c.5 0 3.6 2.8 3.2 2.8-.2 0-1.3-.5-2.5-1.2zm44.6-12.4c0-.4.1-.5.3-.2v.6c-.2.2-.3 0-.3-.4zM65 200c0-.2.5-.4 1.2-.4s2.3-.7 4.3-1.8c3.3-1.9 5.5-2.5 6-1.7.4.6-.8 1.5-3.8 2.7-2.7 1.1-7.7 1.9-7.7 1.2zm15.9-8c0-.3.3-.5.6-.5.6 0 .5.7-.2 1-.2 0-.4-.2-.4-.5zm-10.8-3c-.9-.4-.5-.8.8-1a26 26 0 0 0 2.2-.4c.5-.1.1.2-.8.7l-1.8.9-.4-.2zm13.4-3.2h1c.3 0 0 .2-.6.2s-.8-.1-.4-.2z" style="fill:#ca741c;stroke-width:.352778" transform="translate(-44.5 -173.2)"/>
  <path d="M77.9 235.8c-5.3-.7-10.4-2-10.5-2.8 0-.6 1.2-.6 1.8 0 1.6 1.3 9.4 2.2 13.7 1.6.9-.1 1.7 0 1.9.1.2.3.5.2 1-.2a9 9 0 0 1 3.4-.9 37 37 0 0 0 9.1-2.6 19.9 19.9 0 0 0 6.9-6.9c.6-.6 1.4-1.8 1.8-2.8.6-1.4.7-1.5.5-.5a15 15 0 0 1-4.6 7.3c-4.6 4.6-12 7.4-20 7.7h-5zm-14.8-4.5a22.8 22.8 0 0 1-7.5-7.3 54 54 0 0 1-2-7.7 72 72 0 0 0-1.8-7.4c-.6-1.3-.7-2-.2-1.7.1.1.4 0 .7-.1.3-.2 1.2 0 2.2.2 1.7.5 3 .5 7.4-.1a39 39 0 0 1 4-.3c1.4 0 2.6-.1 2.7-.3.2-.2.4-.2.7 0 .3.3 1.3.5 2.3.7l1.9.3c.3 0 3.9-1.4 3.9-1.6l1.3-1.7a13 13 0 0 0 2.7-6.9l.3-1.4.6.9c.9 1 1.8 4 1.8 5.5 0 2-1 4.8-2.4 6.9-1.5 2-2.3 3.7-2 4 0 .2.6.4 1.3.4.6 0 1.2.3 1.3.5.3.4 3.5-2.2 5.5-4.2.5-.7 1.1-1.2 1.3-1.2.8 0 2.7-1.6 3-2.5 0-.5.3-1 .5-1.2.2 0 .3-.5.3-.9 0-.3.2-.6.4-.6.1 0 .3-.4.3-.8 0-.7.2-.7 1.4-.6 2.7.4 3.5-.5 2-2.2-1-1 0-.9 1.8.2 1.6.9 3.4 1.1 4.3.6.2-.2.6-1 .8-1.7.3-1.3.2-1.4-1.6-3-1-.8-2.6-2.4-3.6-3.4a7.7 7.7 0 0 0-3.5-2.3c-.9-.2-1.7-.6-1.8-1 0-.2-1-1-1.8-1.7l-1.7-1.1 1.4.2c.8.1 2.2.7 3.2 1.4l6.1 3.6c8.9 5 11.5 9.7 9.5 16.7-1.5 5-2.7 7.3-3.3 6.4-.3-.7-.8-.5-2.4 1-1.6 1.4-2.7 2-6.2 3.2l-5.8 2a51.1 51.1 0 0 1-25.5-.6 40.5 40.5 0 0 1-13.3-8.5c-.8 0 1.9 10.2 3.4 12.5a23 23 0 0 0 5.4 5.2c.5 0 3.6 2.8 3.2 2.8-.2 0-1.3-.5-2.5-1.2zm44.6-12.4c0-.4.1-.5.3-.2v.6c-.2.2-.3 0-.3-.4zm-40.2-19.1c0-.2 1.4-1 3-2 2.1-1.2 3.6-1.8 4.5-1.8 2.8 0 1.9 1.2-2.4 3-2.4 1-5.1 1.4-5 .8zM81 192c0-.3.3-.5.6-.5.6 0 .5.7-.2 1-.2 0-.4-.2-.4-.5zm-11-3.7c-.2-.2.2-.3 1-.4 1.7-.3 1.9-.1.5.3-.5.2-1.2.2-1.4.1zm13.6-2.7h1c.3 0 0 .2-.6.2s-.8-.1-.4-.2z" style="fill:#b87525;stroke-width:.352778" transform="translate(-44.5 -173.2)"/>
  <path d="M77.7 235.8a38 38 0 0 1-10.3-2.6c-.7-.6.8-.8 1.8-.2 2.8 1.6 4.3 1.8 10.5 1.7a63.7 63.7 0 0 0 10.9-1.1 50 50 0 0 0 8.3-2.3 35.3 35.3 0 0 1-21.2 4.5zm-14.6-4.5a22.8 22.8 0 0 1-7.5-7.3c-.7-1.4-3.1-12-2.8-12.2l1.4 5c.8 3.2 1.8 6 2.4 7 1.2 2.2 3.5 4.4 6.4 6.3 2 1.4 3 2.4 2.5 2.4l-2.4-1.2zm38.5-2.7a21 21 0 0 0 2.6-2.7c0-.2.7-1 1.5-1.9l1.4-1.6-.8 1.6c-1 1.7-5 6-6.4 6.7-.5.2.3-.7 1.7-2zM72.8 222A35 35 0 0 1 54 211.7c-2-2.3-3.5-5-2.5-4.5.1.1.4 0 .7-.1.3-.2 1.2 0 2.3.2 1 .3 2.3.5 3.2.3 5.3-.7 10.3-.4 12.7.8 1.4.7 4 .7 5.2 0 .5-.4 1-.6 1-.4l1.6-1.5c2-2 2.8-3.9 3.3-7l.5-2.5c.4-.5 1.4 2.8 1.6 5 0 2.4 0 2.9-1 4.9-.6 1.2-1.7 2.9-2.4 3.7-1.8 2-3 4-3 4.9 0 .5.4.7 1.4.8 2.5.3 3.8-.2 6.4-2.9a14 14 0 0 1 3.5-2.6c.5-.2 1.4-.5 2-.9 1.2-.6 3.4-2.8 3.4-3.4 0-.5 1.3-1.5 1.9-1.5.3 0 .6-.2.7-.4.1-.1.7-.2 1.4 0 1.2.1 1.2.1 1.2-1.3a5 5 0 0 0-.5-2.2c-.5-.7-.3-.6 1.3.4 1 .7 2.3 1.4 2.7 1.5.4.1.8.4.8.6 0 .2.1.3.3.1.3-.1.8 0 1.3.4.5.3.9.4 1 .1.2-.2.2-.4 0-.5 0-.1.1-.5.4-.7.3-.3.4-.7.3-.9-.1-.2 0-.3.2-.3 1.5 0-7.6-9.7-10.2-11l-2.2-.6c-.4 0-.5-.2-.4-.5 0-.3-.5-1-1.4-1.6-2-1.5-.7-1.5 1.5 0l6.1 3.6c6.7 3.7 9.3 6.6 10.2 11.3.3 1.8.2 2.4-.6 5.1-.8 3-2 5.5-2.5 5.5-.7 0-2.8 1.4-4 2.6-1.2 1.1-2.6 1.8-7.4 3.5-3.2 1.2-6.6 2.3-7.4 2.5-2.4.6-11.7.4-16-.3zm-2.3-22.7c.3-.7 3-2.3 4.5-2.5 2.2-.4 1.3.7-1.7 1.9s-3 1.2-2.8.6zm-.3-10.8c-.1-.2.3-.4 1-.5 1.4-.2 1.5 0 .2.4-.6.2-1.1.3-1.2.1z" style="fill:#b4681a;stroke-width:.352778" transform="translate(-44.5 -173.2)"/>
  <path d="M77.7 235.8a38 38 0 0 1-10.3-2.6c-.7-.6.8-.8 1.8-.2 2.8 1.6 4.3 1.8 10.5 1.7a63.7 63.7 0 0 0 10.9-1.1 50 50 0 0 0 8.3-2.3 35.3 35.3 0 0 1-21.2 4.5zm-14.6-4.5a22.8 22.8 0 0 1-7.5-7.3c-.7-1.4-3.1-12-2.8-12.2l1.4 5c.8 3.2 1.8 6 2.4 7 1.2 2.2 3.5 4.4 6.4 6.3 2 1.4 3 2.4 2.5 2.4l-2.4-1.2zm38.5-2.7a21 21 0 0 0 2.6-2.7c0-.2.7-1 1.5-1.9l1.4-1.6-.8 1.6c-1 1.7-5 6-6.4 6.7-.5.2.3-.7 1.7-2zM72.8 222c-2-.3-4.2-.8-4.8-1-6.2-2.7-12-6.4-13.2-8.6l-.7-1.3.9-.4c.6-.2 1.8-.2 3.8.1 2.9.5 4.4.3 6.1-.5a6 6 0 0 1 2.6-.2l2-.1c.2-.2.8-.2 1.4 0 .6.3 1.4.4 1.7.2.4-.2 1-.3 1.4-.3.3 0 1.1-.5 1.7-1.1.6-.6 1-.9.8-.6-.2.3 0 .3.6-.2.5-.3.9-.7.8-.8l1.2-1.4c.8-.8 1.3-1.5 1.2-1.6-.1 0 0-.2.2-.2s.4-.2.4-.5c0-.2.2-1 .5-1.5s.6-1.8.6-2.7c0-1.1.1-1.7.4-1.6.7.3 1.3 2.5 1.3 5 0 1.8-.2 2.6-1 4.4-.6 1.2-1.7 2.8-2.4 3.7a15 15 0 0 0-3.5 5.6c0 1-.2 1 3.5.5 1.3-.2 2-.6 3.3-1.9a14 14 0 0 1 5.8-3.7c2-.7 3.4-1.7 4.2-3.3.3-.5.8-1 1-.9.2 0 .4 0 .4-.3 0-.2.2-.3.3-.2l1.7.4a61 61 0 0 1 3.9.7c.6.1.7 0 .8-1 0-1.2-.6-3-1-3-.3 0-.4-.2-.4-.5 0-.2-.5-1-1.1-1.6l-1.2-1.2 2 1.2c1 .7 2.3 1.4 2.7 1.5.4.1.8.4.8.6 0 .2.1.3.3.1.3-.1.8 0 1.3.4.8.5 1.5.2 1-.5 0-.2 0-.4.2-.4.3 0 .3.4.2 1-.2 1 .2 2.4.8 2.9a12 12 0 0 1 1.4 3.5c.1.7-.2 1.3-1.4 2.4a8 8 0 0 1-1.7 1.5c-.2 0-1 .7-2 1.5-1.4 1.4-2.5 1.9-7.5 3.7-3.2 1.2-6.6 2.3-7.4 2.5-2.4.6-11.7.4-16-.3zm36.5-20.5c-.4-.7-.5-.7-.5-.2 0 .6-3.9-3.3-6.4-6.5-2.1-2.6-2.6-3-5.3-3.9a7.4 7.4 0 0 1-2.3-1c.2-.3-1.1-1.5-2.4-2.2-.9-.5-1-.6-.4-.6.4 0 1.4.5 2.3 1l6.1 3.7c5.7 3.2 8.5 5.8 9.7 9.3.5 1.3 0 1.5-.8.4zm-39-13.3h.6c.1.2 0 .3-.4.3s-.5-.1-.2-.3z" style="fill:#a86924;stroke-width:.352778" transform="translate(-44.5 -173.2)"/>
  <path d="M76.4 235.6c-1.5-.1-2.7-.3-2.8-.4l5.3-.1c5.5 0 12-.8 14.4-1.8 1.8-.6 3-.6 1.4.1-4.4 2-12.7 3-18.3 2.2zm-6.7-1.5c-2.2-.8-3.4-1.5-1.8-1.2L71 234c2.8 1.1 1.8 1.2-1.3.1zm-6.5-2.8a19.8 19.8 0 0 1-6.7-6c-2-3-2-3.8.1-1a25 25 0 0 0 7.4 6.9c2.2 1.6 1.9 1.7-.8.1zm39.2-2.9 1-.9-.6 1-1 .8.6-.9zm1.8-1.8.5-1c.3-.4.5-.5.5-.3l-.5 1c-.3.4-.5.5-.5.3zm-27.7-4.4c-3.5-.3-7.5-1.1-8-1.7-.3-.2-.8-.4-1.3-.4-.4 0-1.4-.3-2.1-.8a62 62 0 0 0-3.8-2.1 20 20 0 0 1-6.6-5L54 211l1-.4c.6-.2 1.8-.2 3.8.1 2.9.5 4.4.3 6.1-.5a6 6 0 0 1 2.6-.2c1 0 1.9 0 2-.2.3-.2.7-.2 1.2.1 1 .6 2.5.3 6-1 2.2-1 2.8-1.4 2.8-1.9 0-.4.3-1.1.7-1.7.9-1.2 1.8-4.4 1.8-6.3 0-.8.1-1.4.3-1.4.3 0 1.4 3.7 1.4 5 0 2-1 4.3-3.4 7.2-2.8 3.6-4.4 6.8-3.6 7.6.9 1 6.7-.3 6.7-1.5 0-.6 3.1-3.5 3.8-3.5.3 0 1-.3 1.3-.5.4-.3 1.1-.6 1.6-.6.7 0 1.5-.5 2.6-1.7 1-1 1.8-1.7 2-1.6.2.1.3-.2.3-.7 0-.5.2-.9.3-.8l1.7.4a61 61 0 0 1 3.9.7c.6.1.7 0 .8-1 0-1.2-.6-3-1-3-.2 0-.4-.4-.5-.7-.2-.9-.3-.9 3.1 1.4a13 13 0 0 0 2.9 1.7c.7 0 2 2.5 2.5 4.6.1.7-.2 1.3-1.4 2.4-.8.8-1.6 1.5-1.9 1.5a41.8 41.8 0 0 1-15.3 7c-2.8.9-8 1.1-13.6.7zm32.8-20.8c-.4-.7-.5-.7-.5-.2 0 .6-3.9-3.3-6.4-6.5-2.1-2.6-2.6-3-5.3-3.9-1.3-.4-2.3-.9-2.2-1 0-.2-.5-.8-1.3-1.5-1.7-1.6-1.4-1.7.7-.3.9.6 3.6 2.3 6.1 3.6 5.7 3.3 8.3 5.8 9.8 9.6.4 1.2-.1 1.3-.9.2z" style="fill:#996728;stroke-width:.352778" transform="translate(-44.5 -173.2)"/>
  <path d="M80.9 235.7c1.3-.5 2.6-.5 2.3 0-.1.2-.9.3-1.7.3-1.3 0-1.4-.1-.6-.3zm6.2-.7c3.7-.8 5.3-.9 3-.2-.9.3-2.6.6-3.9.7l-2.3.2zm-27-5.8c-2.1-1.7-5.3-5.7-4.8-6.1l.6.6c.7 1.4 3.2 4.1 5.2 5.8 1 .9 1.8 1.6 1.6 1.6-.2 0-1.3-.9-2.6-1.9zm44.4-3.4c.3-.4.5-.7.7-.6 0 .2-.1.5-.5.9-.6.5-.6.5-.2-.3zm-31.8-4.1a21.9 21.9 0 0 1-5.5-1.6c-.4 0-1.4-.3-2.1-.8a62 62 0 0 0-3.8-2.1 20 20 0 0 1-6.6-5L54 211l1-.4c.6-.2 1.8-.2 3.8.1 2.9.5 4.4.3 6.1-.5a6 6 0 0 1 2.6-.2c1 0 1.9 0 2-.2.3-.2.7-.2 1.2.1 1 .6 2.5.3 6-1 2.2-1 2.8-1.4 2.8-1.9 0-.4.3-1.1.7-1.7.9-1.2 1.8-4.4 1.8-6.3 0-1.8.4-1.8 1-.1 1.3 4.4.7 6.6-2.7 11-2.8 3.5-4.4 6.7-3.6 7.5.9 1 6.7-.3 6.7-1.5 0-.6 3.1-3.5 3.8-3.5.3 0 1-.3 1.3-.5.4-.3 1.1-.6 1.6-.6.7 0 1.5-.5 2.6-1.7 1-1 1.8-1.7 2-1.6.2.1.3-.2.3-.7 0-.5.2-.9.3-.8l1.7.4a61 61 0 0 1 3.9.7c.6.1.7 0 .8-1 0-1.2-.6-3-1-3-.2 0-.4-.4-.5-.7-.2-.9-.3-.9 3.1 1.4a13 13 0 0 0 2.9 1.7c.7 0 2 2.5 2.5 4.6.1.7-.2 1.3-1.4 2.4-.8.8-1.6 1.5-1.9 1.5a35.1 35.1 0 0 1-14.8 6.6 55.2 55.2 0 0 1-18 .5zm36.6-20.3c-.4-.7-.5-.7-.5-.2 0 .6-3.9-3.3-6.4-6.5-2.1-2.6-2.6-3-5.3-3.9-1.4-.4-2.3-.9-2.2-1l-1-1.4c-.7-.6-1-1-.8-1l3.9 2.3c1.9 1.2 4.3 2.6 5.4 3 3.3 1.7 6.6 5.3 7.8 8.5.4 1.2-.1 1.3-.9.2z" style="fill:#a9641a;stroke-width:.352778" transform="translate(-44.5 -173.2)"/>
  <path d="M80.9 235.7c1.3-.5 2.6-.5 2.3 0-.1.2-.9.3-1.7.3-1.3 0-1.4-.1-.6-.3zm6.2-.7c3.7-.8 5.3-.9 3-.2-.9.3-2.6.6-3.9.7l-2.3.2zm-27-5.8c-2.1-1.7-5.3-5.7-4.8-6.1l.6.6c.7 1.4 3.2 4.1 5.2 5.8 1 .9 1.8 1.6 1.6 1.6-.2 0-1.3-.9-2.6-1.9zm12.6-7.5a21.9 21.9 0 0 1-5.5-1.6c-.4 0-1.4-.5-2.4-1.2-.9-.7-2.6-1.8-3.9-2.4-2-1-2.2-1.2-2.2-2 0-1.2-.5-1.4-1-.5-.3.5-.4.5-1.2 0-1-.8-1.8-2-1.6-2.2l2.3-.3a9 9 0 0 1 4.4.7c.4.2.6.2.5 0-.2-.3.4-.3 4-.1h2.1c1.8-.1 3.5 0 3.3.3-.2.4.7.6 2 .3.6-.1 1.6-.8 2.4-1.7.7-.8 1.5-1.4 1.7-1.4.2 0 .7-.4 1.1-1 .4-.4.9-.8 1.1-.8.2 0 .4-.4.4-.9s.1-.9.3-.9c.5 0 1.5-3.3 1.7-5.8.2-2.4.2-2.4.7-1.4.8 2 1 4.5.3 6.2-.6 1.4-3.3 5-5.6 7.5-.5.6-1 1.2-1 1.4 0 .2-.2.7-.5 1-.3.4-.7 1.4-.8 2.2l-.1 1.6h2c3.4 0 4.6-.5 6.8-2.8 1.6-1.7 2.2-2.1 2.9-2 .5 0 1.6-.3 2.6-.7a7 7 0 0 1 2-.8l1.3-1c1-1 3.3-2.2 3.6-2l2.5.3 2.5.4h1c.7-.2.8-.5.7-1.6-.1-1.2 0-1.3.6-1.2h.8a6 6 0 0 0-1.2-1.6c-1.3-1.4-.8-1.7.5-.4l2.1 1.9c.8.7 1.5 1.6 1.5 2 0 .5-.1.5-.4 0-.3-.4-.3-.4-.3 0s.1.7.3.7c.3 0 .3.2.2.5 0 .4 0 .5.5.4.5-.1.6 0 .5.5-.4.7-2.8 3.2-3.3 3.2a37.6 37.6 0 0 1-14.8 6.8c-4.1 1-13 1.1-17.4.4zm32.6-25c-4.5-4.4-6-5.4-8.8-6.2-.8-.2-1.4-.5-1.3-.7.1-.2-.2-.8-.8-1.3l-1-.9 1 .6 8 4.6c2.5 1.2 5.7 4.3 6.9 6.5.5 1 .8 1.8.7 1.8l-4.7-4.4z" style="fill:#a45c16;stroke-width:.352778" transform="translate(-44.5 -173.2)"/>
  <path d="M80.9 235.7c1.3-.5 2.6-.5 2.3 0-.1.2-.9.3-1.7.3-1.3 0-1.4-.1-.6-.3zm6.2-.7c3.7-.8 5.3-.9 3-.2-.9.3-2.6.6-3.9.7l-2.3.2zm-27-5.8c-2.1-1.7-5.3-5.7-4.8-6.1l.6.6c.7 1.4 3.2 4.1 5.2 5.8 1 .9 1.8 1.6 1.6 1.6-.2 0-1.3-.9-2.6-1.9zm12.7-7.5c-3-.5-4.5-1-4.7-1.7-.1-.3-.7-.6-1.3-.7-.5-.2-1.5-.7-2-1.3-.7-.6-1.5-1-1.8-1-1.3 0-2.8-2.3-1.5-2.3.3 0 .6-.2.8-.3 0-.2.9-.1 1.7.2 1.2.4 1.8.4 2.6.1.7-.2 1-.2 1.2.1 0 .2.3.3.4.2.4-.2 3.2 1.2 3.6 1.7 0 .2.3.3.4.3.8-.1 1.2 0 1.7 1 1.4 2.4 6.4 2 9.3-.6 1.8-1.7 2.7-2.1 6.6-3.3 1.6-.5 3.2-1.2 3.7-1.6 1.2-1.2 2.6-1.2 6.1 0l3.9 1c1 0 .9.3-1.3 2.4a13 13 0 0 1-5.4 3.3 37 37 0 0 1-15.5 2.9c-3.5 0-6.9-.1-8.5-.4zm5-10.1c0-.2 0-.5.3-.7l1.2-1.5c2-2.3 3.2-5.9 3.3-9.3 0-1.5.7-.5 1 1.5.2 1.6 0 2.1-.9 4-1 1.8-5 6.7-5 6zm27.4-16c-1.2-1-2.5-2-2.8-2.5-1-1.3 2.4 1 4.1 2.7 2.3 2.3 1.6 2.2-1.3-.1zm-7-4.5a7.9 7.9 0 0 1-3-1.9c-.9-1-.8-1 2 .6 2.6 1.6 3.5 2.2 3 2l-2-.7z" style="fill:#945d22;stroke-width:.352778" transform="translate(-44.5 -173.2)"/>
  <path d="m57.1 226.2-.6-1 .8.8.6 1c-.1.1-.5-.2-.8-.8zm14.5-4.8a9.1 9.1 0 0 1-3.2-1.2c-.4-.4-1.2-.8-1.8-1-.6-.2-1.5-.8-2-1.3s-1.2-1-1.6-1c-1.3 0-2.8-2.2-1.5-2.2.3 0 .6-.2.8-.3 0-.2.9-.1 1.7.2 1.2.4 1.8.4 2.6.1.7-.2 1-.2 1.2.1 0 .2.3.3.4.2.4-.2 3.2 1.2 3.6 1.7 0 .2.3.3.4.3.8-.1 1.2 0 1.7 1 1.4 2.4 6.4 2 9.3-.6 1.8-1.7 2.7-2.1 6.6-3.3 1.6-.5 3.2-1.2 3.7-1.6 1.2-1.2 2.6-1.2 6.1 0l3.9 1c.4 0 .7 0 .7.2 0 .7-3.5 3.6-4.8 4l-2.8 1.1c-4 1.6-6.7 2-11.7 2.4-10.1.7-10.8.7-13.3.2zm6.1-9.8.4-.7 1.2-1.5c2-2.3 3.2-5.9 3.3-9.4.1-1.8.8.2.8 2.2 0 2.6-1 4.6-3.7 7.5-1 1.2-2 2-2 1.9zm27.5-16c-1.2-1-2.5-2-2.8-2.5-1-1.2 1.7.6 3.9 2.6 2.5 2.4 1.8 2.4-1 0zm-7.4-4.7c-1-.3-2-1-2.4-1.5-.7-1-.6-1 1.6.4 3.3 2 3.4 2 .8 1.1z" style="fill:#985715;stroke-width:.352778" transform="translate(-44.5 -173.2)"/>
  <path d="m57.1 226.2-.6-1 .8.8.6 1c-.1.1-.5-.2-.8-.8zM82 221c-.8-.3-.9-.3-.3-.6.4-.1 1-.6 1.5-1 .7-.6 3.1-1.6 4.7-1.9.3 0 .7-.2.9-.4.2-.2.9-.4 1.5-.4s1.2-.1 1.3-.3c.2-.2.9-.4 1.7-.6a6 6 0 0 0 1.6-.5c.3-.6 1.8-.4 3.5.4 1.8.9 1.7 1.2-.8 2.3a27.1 27.1 0 0 1-15.6 3zm-12.5-1.2c-.5-.2-1-.5-1-.7 0-.2 2.4.5 2.8 1 .3.2-.7.1-1.8-.3zM98 191c-.8-.3-1.5-.7-1.5-1 0-.2.6 0 1.6.5l1.6 1v.1L98 191z" style="fill:#894d12;stroke-width:.352778" transform="translate(-44.5 -173.2)"/>
</svg>