<svg xmlns="http://www.w3.org/2000/svg" width="277.3" height="277.3" viewBox="0 0 73.4 73.4">
  <path d="M44.6 210v-36.7H118v73.4H44.6Z" style="fill:#fefefe;stroke-width:.352778" transform="translate(-44.5 -173.2)"/>
  <path d="M51.5 238.1c-.8-1.3-1-2.7-.5-3.6.4-.7.3-1.4-.5-4.7-.5-2.2-1.5-5.4-2.2-7.3-1.7-4.8-1.5-5.6 2.7-8.9 2-1.4 2-1.6 1.7-2.5-.2-1 0-2.6.6-4 .2-.7 2.7-2.7 3.9-3.4.4-.2 1.7-.5 2.8-.6 1.8-.2 2.3-.5 3.6-1.7 1.3-1.3 1.5-1.6 1.5-3 0-2 1-4 2.8-6 1.4-1.4 1.6-1.5 3.4-1.5 1.7 0 2 0 3.1-1.3.7-.7 1.3-1.6 1.3-2 0-1.1 1.2-2.8 2.3-3.4a11 11 0 0 0 1.5-.9c.8-.6 6.3 0 7.4.8.5.4 2.2 1.1 3.8 1.7 3.5 1.2 9.4 3.8 12.8 5.6A65.7 65.7 0 0 1 116 200c.4.7-2.2 12-4.3 19.2-.2.6-.6 1-1.5 1.2L62 236.1a84 84 0 0 1-9 2.8c-.5 0-1-.3-1.4-.8z" style="fill:#fbe3a9;stroke-width:.352778" transform="translate(-44.5 -173.2)"/>
  <path d="M51.5 238.1c-.8-1.3-1-2.3-.5-3.5.5-1.5 0-4.4-2.2-10.8-1.2-3.6-1.4-4.4-1-4.7.4-.2.4-.3 0-.3-.2 0-.4-.4-.4-1 0-1 1.2-2.4 4.1-4.4 1.4-1 1.5-1.1 1.3-3-.2-2.5.4-3.6 2.6-5.4a8 8 0 0 1 4.4-1.8c2.1-.4 2.6-.7 3.9-1.9 1-1 1.4-1.6 1.4-2.5 0-2.3.8-4.1 2.6-6 1.8-1.8 1.9-1.9 3.8-1.9 1.7 0 2 0 3-1.3.5-.7 1.2-2 1.5-2.8.2-1 .7-1.7 1.4-2l1.8-1.3c.8-.5 1.3-.6 3.6-.3 1.4.1 3 .5 3.6.8 1.8 1 2.4 1.2 5.7 2.4a74.9 74.9 0 0 1 23.7 13.3c.4.5-.2 4.1-2 11-2.2 8.9-2.4 9.4-3.6 9.6A4287 4287 0 0 0 62 236.1a99.3 99.3 0 0 1-9.1 2.8c-.5 0-1-.3-1.4-.8zm46.2-21.4c.5-.5 1-.6 1-.4.2.2.1.4-.1.4-.3 0-.4 0-.3.2.2.1.9-.3 1.7-.9.7-.6 1.6-1 1.9-1 .6 0 1.4-1 1.1-1.5-.2-.4.8-2.1 1.4-2.1.2 0 .1.2-.2.3-.3.3-.3.4 0 .4.2 0 .4.2.4.5 0 1 .7.9 1.3-.2.3-.7.7-1.3.9-1.4.4-.3 1-3.8.5-4-.1-.2-.2-.6-.1-1 .1-.5 0-.6-.3-.2-.4.3-.5.3-.6-.3 0-.6 0-.6-.4 0-.2.2-.6.4-.9.3-.2 0-.7 0-1 .3a3 3 0 0 1-1.3.6c-.4 0-1 .4-1.3.8-.4.5-.7.6-.9.4-.2-.4-1.5-.3-2.2.1l-2.6.6c-2 .3-7.6 2.3-6.9 2.5h1l1 .4c0 .2 0 .2-.3 0-.5-.2-.5-.1 0 .3.4.5.5.5 2 .6 1 0 1 .8.3 1.6-.4.3-.4.6-.2.7.2.2.2.5 0 1-.5.8-.3.8 1.3.1 1.5-.6 2-.7 1.7-.1-.2.2 0 .3.5.1.8-.3 1 .4.2.8-.3 0-.5.3-.5.5 0 .6 1.2.3 2-.4z" style="fill:#f1daa3;stroke-width:.352778" transform="translate(-44.5 -173.2)"/>
  <path d="M51.5 238.1c-.2-.4-.6-1.1-.7-1.6-.3-1 0-2.3.6-2h.3c0-1-2-8.3-3-11.4-1.1-3-1.3-3.7-.9-4 .4-.2.4-.3 0-.3-.5 0-.5-1.4.2-2.4.3-.4 1.5-1.5 2.7-2.4l2.2-1.6-.1-2c-.1-2.4.2-3.2 1.8-4.7a9.7 9.7 0 0 1 5.7-2.6c1.8-.2 2.2-.5 3.4-1.7 1.1-1.2 1.4-1.7 1.4-2.9 0-1.9 1.4-4.7 3.2-6.3 1.2-1.1 1.6-1.3 3.3-1.3 1.7 0 2 0 2.9-1.3.5-.7 1.2-2 1.5-2.9.5-1.3.9-1.7 2.5-2.7 1.9-1 2-1 4.5-.8 1.6.2 3.2.6 4.2 1.2l5.2 2.2a90 90 0 0 1 18.8 9.6c4.2 3 4.7 3.4 4.7 4.3a108 108 0 0 1-4.7 19.2 2577.3 2577.3 0 0 0-31.7 10.5 1169 1169 0 0 1-27 8.8c-.2 0-.7-.3-1-.8zM95 218c1.1-.2 2.2-.5 2.6-1 .8-.7 1.3-.8.6 0-.8 1 .6.5 1.6-.6.6-.6 1.3-1 1.7-1 .3 0 1-.3 1.3-.7.8-.8 1.7-1 1.3-.4-.4.6.2.4 1-.4 1.8-1.9 2.3-2.7 2.5-4a6 6 0 0 0 0-3.3c-.2-.9-.2-1.1.1-1 .2.2.3.5.2.8-.1.3 0 .5.1.5.6 0 .8-1.3.4-1.7-.3-.3-.3-.4 0-.4.2 0 .4-.3.4-.6 0-.5 0-.5-.5 0-.4.4-.8.5-1 .5-.3-.1-1.5.3-2.6.8-1.7 1-2.4 1.1-5.2 1.2-2.6 0-3.5.2-4.5.8-.6.4-2.4 1-3.8 1.3l-4 1.3-3.4 1-3 1.1c-.6.4-1.8.8-2.7 1-2.4.7-3.8 1.2-3.8 1.5 0 .2-.3.2-.6 0-.4 0-.5 0-.3.3.1.2.4.3.7.2.3 0 .6 0 .7.2.1.2.6.3 1 .3s1 .2 1.3.5c.3.3.4.3.2 0-.2-.4-.1-.5.4-.3 1.1.3 5.7.1 5.7-.3 0-.1.4-.2 1-.2.4 0 .8.1.8.3 0 .2.3.4.7.4.9 0 1 .7 0 1.5-.3.4-.6 1-.6 1.5 0 1 .4.7.7-.4.1-.6.2-.5.6.5.5 1.2.7 1.3 1.3.7.5-.4 1.3 0 1 .4-.1.2.8-.2 2-.8 1.3-.8 3-1.4 4.1-1.5zm-12.2 1.5c-.3-.3-.5-.3-.9 0-.3.4-.2.5.5.5.6 0 .7-.1.4-.5zm18.5-2.7c.3-.7-.5-.7-1.1 0-.6.6-.6.6.1.4.4 0 .9-.3 1-.4zm6.8-13.8c0-.2-.1-.3-.3-.3-.2 0-.4.1-.5.3-.1.1 0 .3.3.3s.5-.2.5-.3z" style="fill:#f3d99b;stroke-width:.352778" transform="translate(-44.5 -173.2)"/>
  <path d="M51.5 238.1c-.2-.4-.6-1.1-.7-1.6-.3-1 0-2.3.6-2h.3c0-1-2.3-9.3-3.2-11.8-1.2-3.4-1.2-3.4-.4-3.7.6-.1.6-.1 0-.2-.8 0-.9-1.3-.1-2.4.3-.4 1.5-1.5 2.7-2.4l2.2-1.6-.1-2c-.1-2.4.2-3.2 1.8-4.7a9.7 9.7 0 0 1 5.7-2.6c1.8-.2 2.2-.5 3.4-1.7 1.1-1.2 1.4-1.7 1.4-2.9 0-1.9 1.4-4.7 3.2-6.3 1.2-1.1 1.6-1.3 3.3-1.3 1.7 0 2 0 2.9-1.3.5-.7 1.2-2 1.5-2.9.5-1.3.9-1.7 2.5-2.7 1.9-1 2-1 4.5-.8 1.6.2 3.2.6 4.2 1.2l5.2 2.2a90 90 0 0 1 18.8 9.6c4.2 3 4.7 3.4 4.7 4.3a108 108 0 0 1-4.7 19.2 2577.3 2577.3 0 0 0-31.7 10.5 1169 1169 0 0 1-27 8.8c-.2 0-.7-.3-1-.8zm41.8-19.5 1 .2s0 .2-.3.5c-.3.4-.3.6 0 .6.2 0 .4-.4.6-.8.1-.6.4-.9 1.1-1 .9 0 1 0 .3.4-1 .6-1.1 1.6-.2 1.8.6.2.7.1.4-.2-.6-.6-.5-1 .1-.8h.5c-.1-.7 0-1 .7-1.1.4 0 .6.2.6.6 0 .5-.2.7-.5.5-.2 0-.4 0-.4.2 0 .6.6.4 4.6-.9 3.8-1.2 3.8-1.2 4.3-2.7l1.3-3.6a44 44 0 0 0 1.4-5.5c1.2-5.9 1.2-5.6.4-5.6a5 5 0 0 0-1.8.5l-1.2.5-2.8.5c-2.8.7-5.3 2-5.3 2.7 0 .3-.7.7-1.5 1-.9.2-2 .7-2.6 1-.5.5-2.2 1-3.6 1.4-1.4.3-3 .9-3.4 1.2-.5.4-1.2.7-1.6.7-1 0-3.9.9-4.9 1.5-.4.3-1.5.7-2.4 1-2.4.6-3.8 1.1-3.8 1.4 0 .2-.3.2-.6 0-.4 0-.5 0-.3.3.1.2.4.3.7.2.3 0 .6 0 .7.2.1.2.6.3 1 .3s1 .2 1.3.5c.3.3.4.3.2 0-.2-.4-.1-.5.4-.3 1.1.3 5.7.1 5.7-.3 0-.1.4-.2 1-.2.4 0 .8.1.8.3 0 .2.3.4.7.4.9 0 1 .7 0 1.5-.3.4-.6 1-.6 1.5 0 1 .4.7.7-.4.1-.6.2-.5.6.5.4 1.1.8 1.4 1.2.8.4-.6 1-.5 1 .2 0 .4.3.3 1.8-.5a7 7 0 0 1 2.7-1zm-10.5.8c-.3-.3-.5-.3-.9 0-.3.4-.2.5.5.5.6 0 .7-.1.4-.5zm-8.7-7.8c2.5-.9 3-1.2 2-1-2 .2-7.6 2.1-6.4 2.2.5 0 2.4-.6 4.4-1.2zm8.4-2.5c1.4-.5 2.2-.8 1.8-.8-.7 0-6.2 1.6-6.5 2-.3.2 2.1-.3 4.7-1.2z" style="fill:#e9d29b;stroke-width:.352778" transform="translate(-44.5 -173.2)"/>
  <path d="M51.5 238.1c-.2-.4-.6-1.1-.7-1.6-.3-1 0-2.3.6-2 .7.5-1.1-7-2.9-11.8l-1-3.2c0-.2.3-.4.7-.5l.8-.1h-.8c-.5 0-.8-.3-.8-.8 0-1.3.7-2 3.1-4l2.4-1.7-.1-2.2c-.1-2.3-.1-2.3 1.4-4 1.9-2 3.4-2.8 6.1-3.1 1.9-.2 2.3-.4 3.4-1.7 1-1.2 1.4-1.8 1.4-2.9 0-1.9 1.4-4.7 3.2-6.3 1.2-1.1 1.6-1.3 3.3-1.3 1.7 0 2 0 2.9-1.3.6-.7 1.2-1.8 1.3-2.3.4-1.6 1.2-2.6 2.4-3 .7-.3 1.4-.7 1.7-1 .8-.6 5.3 0 7.3 1a39 39 0 0 0 5.2 2.3c6 2.1 13.7 6 18.9 9.7l4.7 3.3-.3 2.3c-.2 2.6-3.9 17.1-4.4 17.8-.2.3-1 .6-1.5.7a2727.3 2727.3 0 0 1-57.2 18.5c-.3 0-.8-.3-1-.8zM68.1 226c.1-.2-.1-.4-.5-.4-.5 0-.7.2-.6.4.1.2.4.3.6.3.1 0 .4-.1.5-.3zm4.6-1.4 1.5-1c.5-.5 2.9-.7 2.9-.1 0 .1-.2.4-.5.5l.4.2c.4 0 .8-.2 1-.4 0-.2.5-.3.8-.3.4 0 1.7-.5 3-1.1a11 11 0 0 1 4.7-1.2c1.2 0 2.4-.2 2.5-.3.4-.4.7-.2.8.5.2 1 .8 1 2.1.6l1.6-.5c1.5-.3 12.5-4 12.7-4.4l.4-1 1.1-3.7c1-2.7 2.6-11.1 2.4-11.4-.3-.3-1.6-.4-1.6-.1 0 .3-3 1.3-6.8 2.3-1.3.3-2.4.8-2.4 1 0 .2 0 .3-.2.1a4 4 0 0 0-1.5.5l-3.2 1.2a9 9 0 0 0-2.8 1.5c-.6.7-1.6 1.1-4.2 1.8l-4.6 1a3 3 0 0 0-1.8.9c-.4.4-1.4.8-2.7 1a29.8 29.8 0 0 0-12.6 4.4c-1.5.7-2.7 1.5-2.7 1.7 0 .3-.4.5-.8.5-1.4 0-3.8.8-4 1.4-.2.3-.8.5-1.7.5-1.4 0-1.4 0-.8.7.8.8 1.8.9 2.2.2a8 8 0 0 1 2-1.4c1.8-1 3-1.3 2-.5-.5.3-.6.5-.2.8.8.6 1.4.6 1.2-.1-.2-.6 0-.7.5-.5.5.1.6.3.2.6-.5.6-.1.7.7.1.8-.4 2-.1 1.7.4-.4.6.2.4 1.5-.3 1.2-.8 2.4-1 2-.4-.1.2 0 .4.5.4.8 0 .9 1.2.2 2-.3.4-.2.5.4.3.3-.1.9 0 1.1.1.7.4.2 1.1-.5.9-.5-.2-1.5.7-1.5 1.3 0 .4 1.6 0 3-.7zm-4.4-6c0-.3.1-.3.3-.2.2 0 .4.3.4.3l-.4.2c-.2 0-.3-.2-.3-.4zm-1 5.6c.2-.2 0-.4-.3-.4s-.4.2-.3.4c0 .2.3.3.3.3l.4-.3zm-7.5-.7c0-.2-.3-.2-.7-.1-.4 0-.7.2-.7.3l.7.1c.4 0 .7-.1.7-.3zm5.8-1.4c.3-.4-1.2-1-1.8-.8-.3 0-.5.3-.5.5s.3.3.6.1c.2 0 .5 0 .5.2 0 .4 1 .4 1.2 0zm-4.7-1.5c0-.2-.2-.2-.4-.1s-.4.4-.4.6c0 .2.2.2.4 0 .2 0 .4-.3.4-.5zm-2-4.5c.5-.2.5-.3.2-.3s-.8 0-1 .3c-.7.4-.2.4.8 0zM77 211l8.4-2.4c.1-.1 0-.2-.2-.4-.7-.2-15.7 4-16.4 4.7-.5.5-.3.5 8.2-2z" style="fill:#e3cc97;stroke-width:.352778" transform="translate(-44.5 -173.2)"/>
  <path d="M51.5 238.1c-.2-.4-.6-1.1-.7-1.6-.3-1 0-2.3.6-2 .1.1.3 0 .3-.2 0-1-1.8-7.7-2.8-10.7-1.7-4.7-1.6-4.4-.7-4.5.8-.2.8-.2 0-.3-.5 0-.8-.2-.8-.7 0-1.3.7-2 3.1-4l2.4-1.7-.1-2.2c-.1-2.3-.1-2.3 1.4-4 1.9-2 3.5-2.8 6.2-3.1 2-.2 2.3-.4 3.4-1.7a6 6 0 0 0 1.4-3.4 9.7 9.7 0 0 1 3.2-6c1.1-1 1.6-1 3.2-1 1.8 0 2-.2 3-1.4.6-.8 1-1.6 1-1.8 0-1.1 1.3-2.8 2.5-3.4l1.8-1c.9-.7 5.3 0 7.3 1l5.2 2.2a96.3 96.3 0 0 1 21.8 11.8l1.8 1.2-.3 2.2c-.2 2.6-3.9 17.3-4.4 18a1800.1 1800.1 0 0 0-45.3 15l-13.3 4.1c-.4 0-.9-.3-1.2-.8zm5-7.3c-.1-.1 0-.4.3-.5.4-.2.5 0 .4.3-.2.4 0 .5 1.1.2.1 0 0-.2-.3-.5-.3-.5-.3-.6.2-.6.4 0 .8-.2 1-.6.5-.5 1.1-.8 2.6-.9a2 2 0 0 0 1-.3c.2-.2 0-.2-.2-.1-.3.1-.8 0-1-.3-.3-.4-.2-.5.6-.7.6 0 1 0 1 .2-.2.1-.1.3 0 .3.3 0 .7 0 1 .2.4.1.5 0 .4-.6-.1-.4 0-.7.3-.7.2 0 .6-.2.9-.5.2-.3.6-.5.8-.5.2 0 0 .3-.2.6-.9 1-.2 1.3 1.2.6 1.4-.6 5-1.4 6.5-1.4 1.4 0 5.4-1 5.4-1.3l1-.6c1-.3 1-.3 1 .1-.2.3 0 .5.1.5.2 0 .4-.2.4-.5 0-.5 1.4-1.4 1.7-1l-.3.1c-.3 0-.1.4.4 1l.9.9-1-.2c-.4-.2-.6-.2-.4 0 .3 0 .4.3.3.5l1.3-.2c20-6.6 21.1-7 21.6-7.7a47 47 0 0 0 3.3-16c-.5-.5-.7-.5-1.7.1a30 30 0 0 1-5 1.8c-2.1.6-4.6 1.5-5.5 2a52.8 52.8 0 0 1-12.1 3.6c-1.1 0-5.1 1-8.8 2-7.7 2.3-8.8 2.6-9.5 3.4-.4.4-.4.4.2.2a178.8 178.8 0 0 1 13-3.4c-.3 0-.7.3-1 .6-.3.3-3 1.2-5.9 2a26.7 26.7 0 0 0-10.8 4.5c-1.3.6-2 .7-4.8.7-3 0-3.4 0-5 1a79.7 79.7 0 0 1-3 2v1c0 .7.2 1 .8 1 .6 0 .6 0 .3.5-.3.3-.3.5-.1.5.5 0 1-.8.9-1.3-.1-.3 0-.5.2-.5s.3.2.2.3c-.3.6.9.8 1.6.4 1-.6 1.2-.2.6 1-.6 1.3-.4 1.8.7 1.6l1-.2-1.2 1-1 1.3c.1 0 0 .3-.4.6-.4.4-.5.4-.3-.2.2-.6.1-.7-.5-.7-1 .1-1.3 1.3-.4 2.3.6.8 1.2 1 4 1.4.2 0 .3 0 .2-.3zm-.6-3c0-.7.8-1.2 1.9-1.2.7 0 1 .2.8.5-.1.3 0 .5.2.5s.3.1.2.3c-.2 0-.6-.1-1-.5-.8-.7-1.4-.4-.7.4.4.4.3.5-.5.5-.5 0-.9-.2-.9-.5zm4-1.7c.4-.4.9-.6 1.4-.4.7.2.7.3 0 .6-.3.2-1 .4-1.4.4-.8 0-.8 0 0-.6zm4.3-1.7.4-.3.1.3c0 .2-.1.4-.3.4-.2 0-.3-.2-.2-.4zm2-1.4c0-.2.1-.3.3-.3.2 0 .3.1.3.3 0 .2-.1.4-.3.4a.4.4 0 0 1-.4-.4zm18 .2c-.4-.2-.2-1.2.3-1.2.2 0 .3.1.2.3-.1.2 0 .5.4.7.5.3.5.4 0 .3l-.9-.1zm-22.3 6-.5-.3c-.3-.1-.5 0-.5.3s.2.4.5.3l.5-.3zm-9.6-2.9h-.7c-.3.1-.2.2.2.2s.6 0 .5-.2zm-2.1-7.7h-.7c-.3 0-.2.2.2.2s.6 0 .5-.2zm7.5-2.1 2.2-.7c.9-.2 1.2-.5.5-.5S55 217 55.6 217c.3 0 1.3-.2 2.1-.5z" style="fill:#ddc792;stroke-width:.352778" transform="translate(-44.5 -173.2)"/>
  <path d="M51.5 238.1c-.7-1-1-2.8-.5-3.4.2-.4.3-.4.3-.1 0 .2.2.4.3.4a46 46 0 0 0-3.4-13.6c-.4-1-.6-2-.5-2 .5-.3 3-.6 3-.4l-1 1c-.8.8-.9 1-.7 2.1a3 3 0 0 0 1.1 1.8c.9.6 1.2 1.7.5 2.1-.3.2-.2.5.1.9.3.3.5 1 .6 1.6 0 1 1.4 3.4 1.8 3.2 0 0 .5 0 .9.2.6.2.6.3 0 .3-.3 0-.6.2-.6.4s.2.3.4.1c.2 0 .7 0 1 .2.4.2.8.3.8.1 0-.1.4-.3.8-.3 1.6-.2 2-.3 2-.5s.3-.3.7-.4c.4-.1.7-.5.7-.7 0-.7 4.3-2.7 8.5-3.8 3-.9 4.4-1 4.4-.5 0 .2.1.5.3.7.1.2.2.1.2 0-.2-1 0-1.4.5-1 .5.4.5.6.1 1-.6.7-.4.7 17.2-5.2l15.5-5.1 1.2-3.7a67.6 67.6 0 0 0 2.7-12c.3-.2-1-1.4-1.5-1.4-.2 0-.8.3-1.2.7-.3.3-2.5 1.1-4.8 1.8a36 36 0 0 0-5.2 1.7c-2 1.3-11.5 4-12.3 3.7a91 91 0 0 0-19.5 6.1s1-.1 1.9-.4c3-1 2.9-.5-.2.5-1.7.6-3.8 1.4-4.8 2-2 .8-4.2 1.3-5.3.9-.4-.2 0-.4 1.6-1l2.6-.8c.6-.5-2.9.3-5.8 1.4-2.9 1-6.9 2.1-8 2.1-.5 0-.6-1.2 0-2.1a15 15 0 0 1 2.6-2.5l2.4-1.8-.1-2.2c-.1-2.3-.1-2.3 1.4-4 1.9-2 3.5-2.8 6.2-3.1 2-.2 2.3-.4 3.4-1.7a6 6 0 0 0 1.4-3.4 9.7 9.7 0 0 1 3.2-6c1.1-1 1.6-1 3.2-1 1.8 0 2-.2 3-1.4a5 5 0 0 0 1-1.8c0-1.3 1.3-2.9 2.7-3.6l1.8-1c.3-.5 5.5.3 6.8 1a32 32 0 0 0 4.2 1.9 105 105 0 0 1 14.7 6.6 85.2 85.2 0 0 1 9.3 6.3c.5.3.8.8.8 1.4 0 1.5-1.2 7.2-2.7 12.8-1.7 6.4-1.7 6.4-2.3 6.7-1 .5-57.8 19-58.3 19-.3 0-.8-.3-1-.8zm1.1-12.5c-.1-.2 0-.5.2-.6.5-.4.8 0 .4.5-.3.3-.5.3-.6 0zM71 212.9h.7c.1.2-.1.2-.5.2s-.5 0-.2-.2zm2.2-.6c1.6-.6 2.2-.6.9 0a5 5 0 0 1-1.6.5c-.3 0 0-.3.7-.5z" style="fill:#dac38d;stroke-width:.352778" transform="translate(-44.5 -173.2)"/>
  <path d="M51.5 238.1c-.7-1-1-2.8-.5-3.4.2-.3.3-.4.3-.1 0 .2.3.4.5.6.5.1.5 0 .2-.7-.2-.5-.3-1.3-.3-1.7 0-.5.2-.3.5.6l.6 1.5 27-8.8 26.7-8.9.4-1.1a67 67 0 0 0 3-11l.6-3.8-.8-.8-.9-.9-.8.8c-1 .9-1.7 1.2-6 2.4l-4.5 1.5a46.1 46.1 0 0 1-11.8 3.6 151.4 151.4 0 0 0-23.4 6.8c-1 .2-4 1-6.7 2-6.4 2-7.7 2.3-8 1.6-.4-1 .4-2.2 3-4l2.3-1.9-.1-2.2c-.1-2.3-.1-2.3 1.4-4 1.9-2 3.5-2.8 6.2-3.1 2-.2 2.3-.4 3.4-1.7a6 6 0 0 0 1.4-3.4 9.7 9.7 0 0 1 3.2-6c1.1-1 1.6-1 3.2-1 1.8 0 2-.2 3-1.4a5 5 0 0 0 1-1.8c0-1.3 1.3-2.9 2.7-3.6l1.8-1c.3-.5 5.5.3 6.8 1a32 32 0 0 0 4.2 1.9 105 105 0 0 1 14.7 6.6 85.2 85.2 0 0 1 9.3 6.3c.5.3.8.8.8 1.4 0 1.5-1.2 7.2-2.7 12.8-1.7 6.4-1.7 6.4-2.3 6.7-1 .5-57.8 19-58.3 19-.3 0-.8-.3-1-.8zm-1.7-12.8c-.2-.5-.2-.6.2-.2.2.2.3.5.2.6-.1.1-.3-.1-.4-.4zm-1.8-4.8c-.3-.8.1-1.5.6-1 .2.2.2.5 0 1-.4.5-.4.5-.6 0z" style="fill:#d7b58b;stroke-width:.352778" transform="translate(-44.5 -173.2)"/>
  <path d="M52.1 238.6c-.6-.4-1.5-2.8-1.2-3.4 0-.4.3-.4.7-.1.5.3 6.3-1.5 27.6-8.7a802 802 0 0 0 27.4-9.5 49.3 49.3 0 0 0 4-15.7c0-.2-.7-.8-1.6-1.4-1.1-.8-1.5-1-1.4-.5.4 1.3-.7 1.9-6.4 3.6-3 .9-6.2 2-7 2.4-1.7.8-7.8 2.6-9.2 2.6-1.6 0-18 4.8-29.1 8.6-5.6 2-8 2.4-8.4 1.7-.3-1 .6-2.1 3-4l2.4-1.7V210c0-2.4 0-2.5 1.4-3.9a9.8 9.8 0 0 1 6.2-3c1.7-.2 2.2-.4 3.2-1.4 1-1 1.2-1.6 1.4-3.4a10 10 0 0 1 3.4-6.3c1-1 1.5-1.1 3-1 1.5 0 1.8 0 3-1.1a5 5 0 0 0 1.3-2.5c.4-2.2 3.3-4.2 6-4.2 2 0 4.5.6 5.5 1.3.5.4 2.4 1.2 4.2 1.8 5.2 1.8 15.5 7 19.8 10.1 5.1 3.7 4.8 3.2 4.3 6.2-.6 3.5-4 16.6-4.4 17.1A2469.8 2469.8 0 0 0 53 239a2 2 0 0 1-.8-.3z" style="fill:#f18964;stroke-width:.352778" transform="translate(-44.5 -173.2)"/>
  <path d="M52.1 238.6c-.6-.4-1.5-2.8-1.2-3.4 0-.4.3-.4.7-.1.5.3 6.3-1.5 27.6-8.7a802 802 0 0 0 27.4-9.5 49.3 49.3 0 0 0 4-15.7c0-.2-.7-.8-1.6-1.4l-1.6-1.2v1c0 1.3-.4 1.5-7 3.5-2.5.7-5.2 1.7-6 2.1-1.9 1-8 2.7-9.4 2.7-1.7 0-16.7 4.4-29.8 8.8-6 2-7.5 2.3-7.7 1.2-.1-.8 1-2 3.7-4.1l1.8-1.4-.2-1.8c-.2-2.3.4-3.5 2.3-5.2a7.4 7.4 0 0 1 5.3-2.1c1.6 0 1.9-.2 3.2-1.5 1.2-1.3 1.4-1.8 1.6-3.4a9.3 9.3 0 0 1 3-6c1.4-1.4 1.6-1.5 3.3-1.4 1.5 0 1.8 0 2.9-1.1.7-.7 1.4-1.8 1.6-2.6.4-1.6.9-2.2 3-3.4 2-1.1 6.3-.8 8.3.6.5.4 2.4 1.2 4.2 1.8 5.2 1.8 15.5 7 19.8 10.1 5.1 3.7 4.8 3.2 4.3 6.2-.6 3.5-4 16.6-4.4 17.1A2469.8 2469.8 0 0 0 53 239a2 2 0 0 1-.8-.3zm8.6-31c.7-.4.7-.4 0-1-1.1-.8-3.9.2-3.2 1.2.3.6 2.4.5 3.2-.1zm11.8-4c0-.6-1.3-1.4-2-1.1-.7.2-.6 1 .1 1.5 1 .5 1.9.4 1.9-.3zm13.8-1.6c.6-.4.2-.8-1-1.2-.6-.2-1.4-.3-1.7-.2-.7.3-.7 1.5 0 1.7.7.2 2.2 0 2.7-.3zm-13.8-6c.8-.7.2-1-1.4-.5-1.8.6-2 1.6-.3 1.2a3 3 0 0 0 1.7-.7zm24.3.3c0-.5-2-1.2-2.5-1-.2.2-.2.5 0 .8.5.5 2.5.7 2.5.2zm-10.2-3.6c.8-.5.2-.8-1.6-.8-1.7 0-2.4.3-2 .8.2.4 3 .4 3.6 0zm-3-6c.1-.2 0-.4-.1-.5-.5-.3-2.5.2-2.5.5 0 .5 2.3.4 2.6 0z" style="fill:#dd7051;stroke-width:.352778" transform="translate(-44.5 -173.2)"/>
  <path d="M52.1 238.6c-.6-.4-1.5-2.8-1.2-3.4 0-.4.3-.4.7-.1.5.3 6.3-1.5 27.6-8.7a802 802 0 0 0 27.4-9.5 49.3 49.3 0 0 0 4-15.7c0-.3-3-2.5-3.3-2.5v.7c.3 1-.4 1.7-2.6 2.3l-2.1.6-1.5.5-2.3.7c-.5 0-2.2.7-3.6 1.4-2.8 1.3-8.6 3-10.2 3-1.7 0-18.8 5-29.1 8.6-5.5 1.9-8 2.4-8.3 1.7-.3-.7.7-2 3.2-4l2.3-1.8-.2-1.5c-.2-.9 0-2.1.2-2.8.8-2.4 4.4-4.8 7.4-4.8 1.4 0 1.8-.2 3.1-1.6 1.4-1.3 1.6-1.8 1.8-3.6.5-4.2 3.4-7.5 6.4-7 1.2 0 1.5 0 2.8-1.4.9-.9 1.4-1.8 1.4-2.3 0-1.3.8-2.3 2.7-3.3 1.5-.9 1.8-1 4.4-.6 1.6.2 3.3.6 4 1l4.6 1.9c5 1.7 15.4 7 19.6 10 5.1 3.7 4.8 3.2 4.3 6.2-.6 3.5-4 16.6-4.4 17.1A2469.8 2469.8 0 0 0 53 239a2 2 0 0 1-.8-.3zm8.4-30.4c1-.5.9-1.7-.1-2-1.7-.4-3.9 1.3-2.7 2 .7.5 2 .4 2.8 0zm12.3-4c.1-1.1-.9-2-2-2-1.3.2-1.5 1.5-.4 2.3 1.1.7 2.2.6 2.4-.4zm13.7-2c.7-.6.1-1.4-1.3-1.8-1.6-.5-2.6 0-2.4 1.3.2 1 2.5 1.4 3.7.4zm-14.1-5.9c1.1-.6 1-1.1-.2-1.1-2 0-3.5 1-2.7 1.8.4.3 2 0 2.9-.7zm24.3.8c1.3-.4 1-1.5-.3-1.7-1.9-.4-2.7-.3-2.7.3 0 1.2 1.4 1.8 3 1.4zm-9.6-4.4c.8-.9.3-1.2-2-1.1-2 0-3 .6-2.3 1.3.6.8 3.6.6 4.3-.2zm-3.3-5.8c.3-.4.2-.6-.3-.9-1.2-.6-3.1.4-2.3 1.2.4.4 2.1.2 2.6-.3z" style="fill:#f67034;stroke-width:.352778" transform="translate(-44.5 -173.2)"/>
  <path d="M52.1 238.6c-.6-.4-1.5-2.8-1.2-3.4 0-.4.3-.4.7-.1.5.3 6.3-1.5 27.6-8.7a802 802 0 0 0 27.4-9.5 49.3 49.3 0 0 0 4-15.7c0-.3-3-2.5-3.3-2.5v.7c.3 1-.4 1.7-2.6 2.3l-2.1.6-1.5.5-2.3.7c-.5 0-2.2.7-3.6 1.4-2.8 1.3-8.6 3-10.2 3-1.7 0-18.8 5-29.1 8.6-5.5 1.9-8 2.4-8.3 1.7-.3-.7.7-2 3.2-4l2.3-1.8-.2-1.5c-.2-.9 0-2.1.2-2.8.8-2.4 4.4-4.8 7.4-4.8 1.4 0 1.8-.2 3.1-1.6 1.4-1.3 1.6-1.8 1.8-3.6.5-4.2 3.4-7.5 6.4-7 1.2 0 1.5 0 2.8-1.4.9-.9 1.4-1.8 1.4-2.3 0-1.3.8-2.3 2.7-3.3 1.5-.9 1.8-1 4.4-.6 1.6.2 3.3.6 4 1l4.6 1.9c5 1.7 15.4 7 19.6 10 5.1 3.7 4.8 3.2 4.3 6.2-.6 3.5-4 16.6-4.4 17.1A2469.8 2469.8 0 0 0 53 239a2 2 0 0 1-.8-.3zm4-23.4c1-.4 1.8-.8 1.7-1-.3-.6-2-.3-4 .7-1.9 1-2 1-.8 1 .6 0 2-.3 3-.7zm16.6-5.2c7.6-2.3 9.8-3 10-3.5.2-.7-1.2-.4-4.1.8A27 27 0 0 1 73 209c-2.4.4-5.8 1.7-5.8 2.3 0 .3.5.2 5.5-1.2zm-12-1.9c1-.7.5-1.8-.8-2-1.4 0-2.6.5-2.6 1.4 0 1 2.2 1.5 3.3.6zm12-4c.2-1-.8-2-2-1.8-1.2.1-1.4 1.4-.3 2.2 1.1.7 2.2.6 2.4-.4zm13.8-2c.7-.5.1-1.3-1.3-1.7-1.6-.5-2.6 0-2.4 1.3.2 1 2.5 1.4 3.7.4zm11-.5c.5-.4.4-.4-.5-.4-1.5 0-2.3.3-2.3.9 0 .5 1.5.2 2.7-.5zm-25.1-5.3c1.1-.6 1-1.1-.2-1.1-2 0-3.5 1-2.7 1.8.4.3 2 0 2.9-.7zm24.3.8c1.3-.4 1-1.5-.3-1.7-1.9-.4-2.7-.3-2.7.3 0 1.2 1.4 1.8 3 1.4zm-9.6-4.4c.8-.9.3-1.2-2-1.1-2 0-3 .6-2.3 1.3.6.8 3.6.6 4.3-.2zm-3.3-5.8c.6-.8-.7-1.4-2.1-.9-.6.2-1 .5-1 .7 0 .8 2.5 1 3 .2z" style="fill:#b58857;stroke-width:.352778" transform="translate(-44.5 -173.2)"/>
  <path d="M51.7 238a4 4 0 0 1-.7-2.1c0-1.1 0-1.2.7-.8.6.4 4.3-.7 27.5-8.5 14.8-5 27.1-9.2 27.4-9.5a44.9 44.9 0 0 0 3.7-16.4c-.2-.2-1-1-2-1.6l-1.5-1.1.4 1c.3.9.3 1.2-.1 1.6-.3.3-3.3 1.3-6.6 2.3a47 47 0 0 0-6.5 2.3 40 40 0 0 1-8.8 2.5c-1.8.2-20 5.5-27.7 8.1-7.2 2.5-10 3.1-10 2.2 0-.8 1.2-2.2 3.5-4 2-1.6 2-1.6 1.9-3.1-.2-.8 0-2.1.2-2.8.8-2.4 4.4-4.8 7.4-4.8 1.5 0 1.8-.2 3.3-1.7 1.5-1.5 1.6-1.8 1.6-3.4 0-3.7 3.4-7.6 6.4-7.2 1.2.2 1.5 0 2.8-1.3.9-.9 1.4-1.8 1.4-2.3 0-1.3.8-2.3 2.7-3.3 1.5-.9 1.8-1 4.4-.6 1.6.2 3.3.6 4 1a67 67 0 0 0 5.5 2.3 82 82 0 0 1 22.7 12.6l.7.6-1 4.6a152.7 152.7 0 0 1-3.3 13.8c-.4 1.2-.6 1.5-1.4 1.7-.5 0-13.7 4.4-29.2 9.5l-28.5 9.3s-.5-.4-.9-1zm4.4-22.8c1-.4 1.8-.8 1.7-1-.3-.6-2-.3-4 .7-1.9 1-2 1-.8 1 .6 0 2-.3 3-.7zm16.6-5.2c7.6-2.3 9.8-3 10-3.5.2-.7-1.2-.4-4.1.8A27 27 0 0 1 73 209c-2.4.4-5.8 1.7-5.8 2.3 0 .3.5.2 5.5-1.2zm-12-1.9c1-.7.5-1.8-.8-2-1.4 0-2.6.5-2.6 1.4 0 1 2.2 1.5 3.3.6zm12-4c.2-1-.8-2-2-1.8-1.2.1-1.4 1.4-.3 2.2 1.1.7 2.2.6 2.4-.4zm13.8-2c.7-.5.1-1.3-1.3-1.7-1.6-.5-2.6 0-2.4 1.3.2 1 2.5 1.4 3.7.4zm11-.5c.5-.4.4-.4-.5-.4-1.5 0-2.3.3-2.3.9 0 .5 1.5.2 2.7-.5zm-25.1-5.3c1.1-.6 1-1.1-.2-1.1-2 0-3.5 1-2.7 1.8.4.3 2 0 2.9-.7zm24.3.8c1.3-.4 1-1.5-.3-1.7-1.9-.4-2.7-.3-2.7.3 0 1.2 1.4 1.8 3 1.4zm-9.6-4.4c.8-.9.3-1.2-2-1.1-2 0-3 .6-2.3 1.3.6.8 3.6.6 4.3-.2zm-3.3-5.8c.6-.8-.7-1.4-2.1-.9-.6.2-1 .5-1 .7 0 .8 2.5 1 3 .2z" style="fill:#c58645;stroke-width:.352778" transform="translate(-44.5 -173.2)"/>
  <path d="M51.7 238a4 4 0 0 1-.7-2.1c0-1.1 0-1.2.7-.8.6.4 4.3-.7 27.5-8.5 14.8-5 27.1-9.2 27.4-9.5a44.9 44.9 0 0 0 3.7-16.4c-.2-.2-1-1-2-1.6l-1.5-1.1.4 1c.3.9.3 1.2-.1 1.6-.3.3-3.3 1.3-6.6 2.3a47 47 0 0 0-6.5 2.3 37 37 0 0 1-8.9 2.5c-2.3.2-19.6 5.3-29 8.6-5.8 2-8.7 2.6-8.7 1.7 0-.8 1.3-2.2 3.6-4 2-1.6 2-1.6 1.9-3.1-.2-.8 0-2.1.2-2.8.8-2.4 4.4-4.8 7.4-4.8 1.5 0 1.8-.2 3.3-1.7 1.5-1.5 1.6-1.8 1.6-3.4 0-3.7 3.4-7.6 6.4-7.2 1.2.2 1.5 0 2.8-1.3.9-.9 1.4-1.8 1.4-2.3 0-1.3.9-2.4 2.6-3.2 2.8-1.5 8.7-.6 9.8 1.4.2.4.5.7.8.7l4.5 2.1a53.6 53.6 0 0 0 9.3 4l2.6 2c1.3.8 3.1 2.1 4 2.9 1.7 1.3 2.7 1.7 3.2 1.2.2-.2 0-.5-.2-.8a351.4 351.4 0 0 0 2.5 1.7l.9.6-1 4.6a152.7 152.7 0 0 1-3.3 13.8c-.4 1.2-.6 1.5-1.4 1.7-.5 0-13.7 4.4-29.2 9.5l-28.5 9.3s-.5-.4-.9-1zm26.7-10.2c-.1-.2-.4-.2-.7 0-.3 0-.2.1.2.1s.6 0 .5-.1zm4.2-1.5H82c-.3.1-.2.2.2.2.3 0 .5 0 .4-.2zm6.8-2 8.5-2.7a45 45 0 0 0 9.2-3.5c0-.4-1-.1-8.5 2.5l-11 3.8c-3.8 1.3-5 1.8-4.5 1.8l6.3-2zm-33.3-9c1-.5 1.8-1 1.7-1.1-.3-.6-2-.3-4 .7-1.9 1-2 1-.8 1 .6 0 2-.3 3-.7zm16.6-5.3c7.6-2.3 9.8-3 10-3.5.2-.7-1.2-.4-4.1.8A27 27 0 0 1 73 209c-2.4.4-5.8 1.7-5.8 2.3 0 .3.5.2 5.5-1.2zm-12-1.9c1-.7.5-1.8-.8-2-1.4 0-2.6.5-2.6 1.4 0 1 2.2 1.5 3.3.6zm12-4c.2-1-.8-2-2-1.8-1.2.1-1.4 1.4-.3 2.2 1.1.7 2.2.6 2.4-.4zm13.8-2c.7-.5.1-1.3-1.3-1.7-1.6-.5-2.6 0-2.4 1.3.2 1 2.5 1.4 3.7.4zm11-.5c.5-.4.4-.4-.5-.4-1.5 0-2.3.3-2.3.9 0 .5 1.5.2 2.7-.5zm-25.1-5.3c1.1-.6 1-1.1-.2-1.1-2 0-3.5 1-2.7 1.8.4.3 2 0 2.9-.7zm24.3.8c1.3-.4 1-1.5-.3-1.7-1.9-.4-2.7-.3-2.7.3 0 1.2 1.4 1.8 3 1.4zm-9.6-4.4c.8-.9.3-1.2-2-1.1-2 0-3 .6-2.3 1.3.6.8 3.6.6 4.3-.2zm-3.3-5.8c.6-.8-.7-1.4-2.1-.9-.6.2-1 .5-1 .7 0 .8 2.5 1 3 .2z" style="fill:#ab7744;stroke-width:.352778" transform="translate(-44.5 -173.2)"/>
  <path d="M51.7 238c-.4-.6-.7-1.4-.7-2.2 0-.7.1-1 .2-.8.4 1.1.9 1.4 1.8 1a18298.5 18298.5 0 0 1 47.6-15c2.7-.6 6.9-2.6 6.7-3 0-.3-.4-.4-.6-.3-.3 0-.4 0 0-.4a62 62 0 0 0 3.9-15.5c0-.6-.4-1.2-1.5-2.1-2.3-1.8-2.4-1.9-2-.7.4.9.4 1.2 0 1.6a37 37 0 0 1-6.7 2.3c-3.4 1-6.4 2-6.6 2.3a35 35 0 0 1-8.4 2.4c-1.2 0-18.5 5-26.9 7.9-8.4 2.8-11 3.4-11 2.5 0-.8 1.2-2.2 3.5-4 2-1.6 2-1.6 1.9-3.1-.2-.8 0-2.1.2-2.8.8-2.4 4.4-4.8 7.4-4.8 1.5 0 1.8-.2 3.3-1.7 1.5-1.5 1.6-1.8 1.6-3.4 0-3.7 3.4-7.6 6.4-7.2 1.2.2 1.5 0 2.8-1.3.9-.9 1.4-1.8 1.4-2.3 0-2.3 2.8-4 6.5-4 2.6.1 5.4 1 5.7 2 .3.7 9.7 5.5 10.7 5.5 1.2 0 3.7 1.1 4.8 2.1.6.6 1.6 1.3 2.3 1.7l2 1.4c2.6 2.4 3.4 2.9 4.6 2.7 1.3-.2 2.8.4 3 1.2.3.6-1.1 7.6-2.7 13.5l-1.4 5.4c-.1.7-.5 1-1.2 1.2-.5 0-13.7 4.4-29.2 9.5l-28.5 9.3s-.5-.4-.9-1zm4.4-22.8c1-.4 1.8-.8 1.7-1-.3-.6-2-.3-4 .7-1.9 1-2 1-.8 1 .6 0 2-.3 3-.7zm16.6-5.2c7.6-2.3 9.8-3 10-3.5.2-.7-1.2-.4-4.1.8A27 27 0 0 1 73 209c-2.4.4-5.8 1.7-5.8 2.3 0 .3.5.2 5.5-1.2zm-12-1.9c1-.7.5-1.8-.8-2-1.4 0-2.6.5-2.6 1.4 0 1 2.2 1.5 3.3.6zm12-4c.2-1-.8-2-2-1.8-1.2.1-1.4 1.4-.3 2.2 1.1.7 2.2.6 2.4-.4zm13.8-2c.7-.5.1-1.3-1.3-1.7-1.6-.5-2.6 0-2.4 1.3.2 1 2.5 1.4 3.7.4zm11-.5c.5-.4.4-.4-.5-.4-1.5 0-2.3.3-2.3.9 0 .5 1.5.2 2.7-.5zm-25.1-5.3c1.1-.6 1-1.1-.2-1.1-2 0-3.5 1-2.7 1.8.4.3 2 0 2.9-.7zm24.3.8c1.3-.4 1-1.5-.3-1.7-1.9-.4-2.7-.3-2.7.3 0 1.2 1.4 1.8 3 1.4zm-9.6-4.4c.8-.9.3-1.2-2-1.1-2 0-3 .6-2.3 1.3.6.8 3.6.6 4.3-.2zm-3.3-5.8c.6-.8-.7-1.4-2.1-.9-.6.2-1 .5-1 .7 0 .8 2.5 1 3 .2zm-32 48.9a623.7 623.7 0 0 0 17.4-5.8 353.8 353.8 0 0 1 16.6-5.2l-12 4c-15 5.1-21.7 7.3-22 7zm35-11.7c1-.4 1.5-.4.9 0-.3.2-.8.3-1.1.3-.3 0-.3-.1.2-.3z" style="fill:#e64e2c;stroke-width:.352778" transform="translate(-44.5 -173.2)"/>
  <path d="M51.7 238c-.4-.6-.7-1.4-.7-2.2 0-.7.1-1 .2-.8.4 1.1.9 1.4 1.8 1a18298.5 18298.5 0 0 1 47.6-15c2.7-.6 6.9-2.6 6.7-3 0-.3-.4-.4-.6-.3-.3 0-.4 0 0-.4 1-1.3 3.9-12.7 3.9-15.5 0-.7-.5-1.3-1.8-2.4-2-1.6-2.8-1.8-2-.6.6 1 .4 1.8-.5 2.3l-6.5 2c-3 1-5.8 1.9-6 2.1a35 35 0 0 1-8.4 2.4c-1.2 0-18.5 5-26.9 7.9-8.3 2.8-11 3.4-11 2.5 0-.8 1-2 3.2-3.8l2.2-1.7v-2.3c0-2.2 0-2.3 1.6-4 2-2 3.9-2.9 6-3 1.5 0 1.8 0 3.3-1.6 1.4-1.5 1.6-1.9 1.6-3.2 0-2 1-4 2.7-5.8 1.4-1.4 2.5-1.9 4-1.6.8.2 1.2 0 2.5-1.2.9-1 1.4-1.9 1.4-2.4 0-2.3 2.8-4 6.5-4 2.6.1 5.4 1 5.7 2 .3.7 9.7 5.5 10.7 5.5 1.2 0 3.7 1.1 4.8 2.1.6.6 1.6 1.3 2.3 1.7l2 1.4c2.6 2.4 3.4 2.9 4.6 2.7 1.3-.2 2.8.4 3 1.2.3.6-1.1 7.6-2.7 13.5l-1.4 5.4c-.1.7-.5 1-1.2 1.2-.5 0-13.7 4.4-29.2 9.5l-28.5 9.3s-.5-.4-.9-1zm4.7-22.7c2.3-1 2.3-1.5-.2-1.5-1.7 0-5.2 1.5-5.2 2.2 0 .6 3 .2 5.4-.7zm17-5.5c9.7-2.8 10.8-3.3 9-3.9-.5-.1-1.6.2-3.3 1-3 1.5-5 2-7.5 2-1.6 0-2 .2-3.3 1.5-1 .8-1.4 1.3-1 1.2l6.1-1.8zm-12.2-2.4c1-1 1-1.1.5-1.7-.5-.6-1-.6-2.4-.5-5.2.7-5.6 3.2-.5 3.3 1.1 0 1.6-.1 2.4-1zm11.6-3.5c0-.7-.1-1-1-1.5-1.3-.7-2.1-.4-2.1.7 0 1.8 2.9 2.6 3 .8zm13.4-1.5c1.1-.8 1-1.2-.9-2l-1.6-.7-.7.7c-1 1-.6 1.8.8 2.2 1.3.4 1.5.4 2.4-.2zm11-.6.9-.4-.8-.3c-1-.5-2.6.1-2.6 1 0 .5.4.5 2.5-.3zm-25.4-3.3-.5-.2c-.3 0-.6.2-.6.4s.3.2.6.1c.2 0 .5-.2.5-.3zm-.2-1.7c1.6-.7 1.8-1.2 1-2-1.1-1-2.5-.9-3.7.4l-1.2 1.1 1 .5c1.4.6 1.5.6 2.9 0zm25.1.3c1.4-.4 1-1.4-.7-1.8-1.8-.4-2.3-.3-2.3.6 0 1 1.3 1.6 3 1.2zm-9.6-4.4c.6-.7.6-.7-.2-1-1.1-.4-4.5-.3-5 .2-.5.6 1.1 1.5 3 1.5 1.1 0 1.8-.2 2.2-.7zm-3.4-5.8c.7-.6 0-1.1-2.2-1.4-1.5-.2-1.9-.2-2.4.5-.4.4-.6 1-.5 1.2.2.5.6.6 2.4.4a7 7 0 0 0 2.7-.7zM52 235.8a623.7 623.7 0 0 0 17.4-5.8 353.8 353.8 0 0 1 16.5-5.2l-12 4c-15 5.1-21.7 7.3-22 7zM86.8 224c1-.4 1.5-.4.9 0-.3.2-.8.3-1.1.3-.3 0-.3-.1.2-.3z" style="fill:#a8713c;stroke-width:.352778" transform="translate(-44.5 -173.2)"/>
  <path d="M51.7 238c-.9-1.1-1-2.6-.2-2 .6.6.4.7 18.2-5a807.5 807.5 0 0 1 30.7-9.5c1.6-.3 7.4-3 7.4-3.5 0-.1-.2-.4-.5-.5-.4-.1-.3-1 .7-4 1.2-3.7 2.6-9.9 2.6-11.7 0-.7-.5-1.3-1.8-2.4-2-1.6-2.8-1.8-2-.6.6 1 .4 1.8-.5 2.3l-6.5 2c-3 1-5.9 1.9-6.2 2.2a416.4 416.4 0 0 0-33.2 9.5c-5.7 2-11.2 3.6-12.1 3.6-1.8 0-.6-1.8 2.6-4.3l2-1.6v-2.3c0-2.3 0-2.3 1.6-4 2-2 3.9-2.9 6-3 1.5 0 1.8 0 3.3-1.6 1.4-1.5 1.6-1.9 1.6-3.2 0-2 1-4 2.7-5.8 1.5-1.5 2.5-1.9 4-1.5 1 .2 1.3 0 2.5-1.3.8-.9 1.4-1.9 1.4-2.4 0-1.3.9-2.4 2.5-3.2 2.9-1.4 9-.5 9.8 1.5.4 1 8.3 5 10.6 5.3 2 .3 4.3 1.3 5.2 2.5l1.7 1.5c.6.3 2 1.5 3 2.4 1.8 1.8 2 1.8 3.9 1.7 1.8 0 2 0 2.5.8.3.6.3 1.4.2 2.6-.4 2.5-1 4.4-1.2 4.2-.2-.1-.3.4-.2 1.1.1 1.8-1.3 5.5-2 5.5-.6 0-.6 0-.3.6.2.4.5.7.6.7.2 0 0 1.2-.4 2.6-.6 2.3-.8 2.7-1.6 2.9-.5 0-13.7 4.4-29.2 9.5l-28.5 9.3s-.5-.4-.9-1zm4.7-22.7c2.3-1 2.3-1.5-.2-1.5-1.7 0-5.2 1.5-5.2 2.2 0 .6 3 .2 5.4-.7zm17-5.5c9.7-2.8 10.8-3.3 9-3.9-.5-.1-1.6.2-3.3 1-3 1.5-5 2-7.5 2-1.6 0-2 .2-3.3 1.5-1 .8-1.4 1.3-1 1.2l6.1-1.8zm-12.2-2.4c1-1 1-1.1.5-1.7-.5-.6-1-.6-2.4-.5-5.2.7-5.6 3.2-.5 3.3 1.1 0 1.6-.1 2.4-1zm11.6-3.5c0-.7-.1-1-1-1.5-1.3-.7-2.1-.4-2.1.7 0 1.8 2.9 2.6 3 .8zm42-.3c0-.2-.5-.3-1.1-.3-1 0-1 0-.5.3 1 .5 1.6.5 1.6 0zm-28.6-1.2c1.1-.8 1-1.2-.9-2l-1.6-.7-.7.7c-1 1-.6 1.8.8 2.2 1.3.4 1.5.4 2.4-.2zm11-.6.9-.4-.8-.3c-1-.5-2.6.1-2.6 1 0 .5.4.5 2.5-.3zm-25.4-3.3-.5-.2c-.3 0-.6.2-.6.4s.3.2.6.1c.2 0 .5-.2.5-.3zm-.2-1.7c1.6-.7 1.8-1.2 1-2-1.1-1-2.5-.9-3.7.4l-1.2 1.1 1 .5c1.4.6 1.5.6 2.9 0zm25.1.3c1.4-.4 1-1.4-.7-1.8-1.8-.4-2.3-.3-2.3.6 0 1 1.3 1.6 3 1.2zm-9.6-4.4c.6-.7.6-.7-.2-1-1.1-.4-4.5-.3-5 .2-.5.6 1.1 1.5 3 1.5 1.1 0 1.8-.2 2.2-.7zm-3.4-5.8c.7-.6 0-1.1-2.2-1.4-1.5-.2-1.9-.2-2.4.5-.4.4-.6 1-.5 1.2.2.5.6.6 2.4.4a7 7 0 0 0 2.7-.7z" style="fill:#d14929;stroke-width:.352778" transform="translate(-44.5 -173.2)"/>
  <path d="M51.7 238c-.9-1.1-1-2.6-.2-2 .6.6.4.7 18.2-5a807.5 807.5 0 0 1 30.7-9.5c1.6-.3 7.4-3 7.4-3.5 0-.1-.2-.4-.5-.5-.4-.1-.3-1 .7-4 1.2-3.7 2.6-9.9 2.6-11.7 0-.7-.5-1.3-2-2.5-2.1-1.7-2.7-1.9-1.8-.5.3.4.4 1 .4 1.4-.2.7-.7.9-7.5 2.9a35 35 0 0 0-6 2.1 35 35 0 0 1-8.6 2.4c-.4-.3-20.2 5.6-29.9 8.9a51 51 0 0 1-6.8 2c-2 0-1-1.7 2.5-4.3l2.5-1.8-.4-1.2c-.6-1.9.1-3.7 2.2-5.6a7.8 7.8 0 0 1 5.8-2.3c1.3 0 1.6-.2 3-1.8 1.2-1.4 1.4-2 1.4-3.2 0-2 1-4 2.9-5.8 1.3-1.3 1.5-1.4 3.3-1.3 1.8 0 1.9 0 3.1-1.5a6 6 0 0 0 1.3-2.1c0-2.2 2.4-3.8 6-4 3-.2 4.7.3 6 1.8 1 1.3 8.8 5.5 10 5.5a10 10 0 0 1 5.6 2.3l2.2 1.8c.6.3 2 1.5 3 2.4 1.8 1.8 2 1.8 3.9 1.7 1.8 0 2 0 2.5.8.3.6.3 1.4.2 2.6-.4 2.5-1 4.4-1.2 4.2-.2-.1-.3.4-.2 1.1.1 1.8-1.3 5.5-2 5.5-.6 0-.6 0-.3.6.2.4.5.7.6.7.2 0 0 1.2-.4 2.6-.6 2.3-.8 2.7-1.6 2.9-.5 0-13.7 4.4-29.2 9.5l-28.5 9.3s-.5-.4-.9-1zm3.2-22.1c2.5-.8 3.6-1.4 3.2-1.7-.7-.7-3.4-.4-5.4.6-2.3 1.1-2.4 1.1-1.7 1.5.5.4 1.8.2 3.9-.4zm19.2-6.2c7.6-2.3 8.7-2.7 8.9-3.2.2-.5-1.6-1-2.1-.5-1.2 1-6.2 2.6-8.6 2.8-2.4.2-2.7.3-4 1.6-1.9 1.6-2.2 1.7 5.8-.7zm-14.1-1c4-.6 3.2-4-.8-3.5-2 .3-4 1-4 1.6 0 .5.8 1.9 1.2 2.2.2.2.8.2 1.3.1l2.3-.4zm14.2-4.3c.8-.5 1-1.6.3-2-.5-.4-2.7-1.2-3.7-1.5-1-.2-2.6 1.4-2.3 2.3.3.8 1.1 1.4 2.4 1.8 1.2.3 2.1.2 3.3-.6zm40.6-.8c0-.2-.5-.3-1.1-.3-1 0-1 0-.5.3 1 .5 1.6.5 1.6 0zm-29.5-.3a7 7 0 0 0 2.3-1.5c1.2-1.3 1-1.7-1-2.8-1.3-.6-1.5-.6-2.6-.1l-1.7 1.1c-.9.8-.8 2.4.1 3 1 .7 1.1.7 2.9.3zm11.5-1.3c1.1-.5 1.2-.6.6-.9-1-.5-2.7 0-2.7.8s.4.8 2 .1zm-25-3.5-.5-.2c-.3 0-.6.2-.6.4s.3.2.6.1c.2 0 .5-.2.5-.3zm-.4-1.3c1.4 0 1.6-.2 2-1.3.8-1.7.5-2.1-1.4-2.1-1.3 0-1.8.2-2.9 1.2-1 1-1.2 1.3-.8 2 .2.4.6.6 1 .5l2-.3zm27.8-.1c0-.3 0-.8-.3-1-.5-.8-2.8-1.7-3.3-1.5-.3 0-.6 0-.8-.2-.6-.6-1.8.3-1.8 1.3 0 .7.2 1 1.1 1.4 1.6.7 4.8.7 5 0zm-11.6-3.6c1-.3 1-1-.2-1.8-1.5-1.2-4.8-1-6.3.4-.3.3-.2.5.2 1s1 .7 3 .6c1.4 0 2.8 0 3.3-.2zm-6.5-5.3c.1-.2 1-.4 2-.5l2-.4c0-.1 0-.7-.2-1.3-.5-1-1.7-1.8-2.8-1.8-.9 0-3.6 2-3.6 2.7 0 1 2 2.1 2.6 1.3z" style="fill:#d53927;stroke-width:.352778" transform="translate(-44.5 -173.2)"/>
  <path d="M51.7 238c-.9-1.1-1-2.6-.2-2 .6.6.4.7 18.2-5a807.5 807.5 0 0 1 30.7-9.5c1.6-.3 7.4-3 7.4-3.5 0-.1-.2-.4-.5-.5-.4-.1-.3-1 .7-4 1.2-3.7 2.6-9.9 2.6-11.7 0-.7-.5-1.3-2-2.5-2.1-1.7-2.5-1.8-2-.7.4.6.3.8 0 1.2a1 1 0 0 0-.6.9c0 .3-1.2.8-3 1.4-7.1 2-8.8 2.7-9.4 3.2a384.3 384.3 0 0 0-38.4 11.2 51 51 0 0 1-6.8 2c-2 0-1-1.7 2.5-4.3 2.5-1.8 2.5-1.8 2.1-3-.2-.6-.3-1.5-.1-2 .2-.8.3-.9 1.8-.6l1.9.5 2.6-.2c2.6-.5 3.4-1.1 3.6-2.8 0-.6.2-1.3.5-1.5.5-.6.5-1-.2-1-.8 0-.6-.5.9-2.1 1-1.2 1.4-2 1.5-3 0-1.1.3-1.4 1-1.5.4 0 1 0 1.2.3.3.2 1 .3 1.5.2l2.4-.3c1.2 0 1.4-.2 1.8-1.2a5 5 0 0 0 .5-1.7c0-.6-1.8-1.3-3.7-1.3-1.3 0-1.5 0-1.3-.6.2-1 1.6-1.5 3.2-1.3 1.2.2 1.4.1 2.6-1.4a7 7 0 0 0 1.3-2c0-.3.1-.3.5 0 .7.6 3.7 1 4.6.5a9 9 0 0 1 2.3-.6c1.9-.2 2-.3 1.5-1.6-.6-1.3-2.1-2-3.9-1.6-3.2.6-3.4.6-3 .3 1.2-1.2 6-1.6 8-.7a37.7 37.7 0 0 0 12 7 10 10 0 0 1 5.6 2.2l2.2 1.8c.6.3 2 1.5 3 2.4 1.8 1.8 2 1.8 3.9 1.7 1.8 0 2 0 2.5.8.3.6.3 1.4.2 2.6-.4 2.5-1 4.4-1.2 4.2-.2-.1-.3.4-.2 1.1.1 1.8-1.3 5.5-2 5.5-.6 0-.6 0-.3.6.2.4.5.7.6.7.2 0 0 1.2-.4 2.6-.6 2.3-.8 2.7-1.6 2.9-.5 0-13.7 4.4-29.2 9.5l-28.5 9.3s-.5-.4-.9-1zm3.2-22.1c2.5-.8 3.6-1.4 3.2-1.7-.7-.7-3.4-.4-5.4.6-2.3 1.1-2.4 1.1-1.7 1.5.5.4 1.8.2 3.9-.4zm19.2-6.2c7.6-2.3 8.7-2.7 8.9-3.2.2-.5-1.6-1-2.1-.5-1.2 1-6.2 2.6-8.6 2.8-2.4.2-2.7.3-4 1.6-1.9 1.6-2.2 1.7 5.8-.7zm-.4-5 1.4-.5c.3-.1.6-.3.6-.5 0-.5-2.5-2.5-3.1-2.5-.4 0-1-.3-1.3-.6-.6-.4-.5-.5.8-1.2 1.2-.6 1.4-.8 1-1.3-.2-.3-1-.5-2-.5-1.3 0-1.8.2-2.7 1-1.3 1.2-2.5 3.4-2 3.5l2 1.4c2.2 1.8 3.3 2 5.3 1.2zm-8-.7c0-.2 0-.4-.3-.4-.2 0-.3.2-.1.4 0 .2.2.3.3.3.1 0 .2-.1.2-.3zm49.1-.4c0-.2-.5-.3-1.1-.3-1 0-1 0-.5.3 1 .5 1.6.5 1.6 0zm-29.5-.3c1.7-.5 3.6-2.4 3-3.1-1.5-1.8-5.5-2.3-6.7-.8-.7.9-.4 2.7.7 3.5 1 .8 1.2.9 3 .4zm11.5-1.3c1.1-.5 1.2-.6.6-.9-1-.5-2.7 0-2.7.8s.4.8 2 .1zm2.2-5.6c0-1.3-1-2-2.5-1.9-.7 0-1.5 0-1.7-.2-.7-.4-1.8.5-1.8 1.4 0 1.2 1.6 2 4.2 1.8 2 0 2 0 1.8-1.1zm-10.8-3.1c.9-.8-3.2-3.6-4.8-3.2-2.5.5-2.9.5-3.5 0-.6-.6-.7-.6-1.4.2-1.9 2 .8 3.5 6.2 3.4 1.8 0 3.4-.2 3.5-.4z" style="fill:#946637;stroke-width:.352778" transform="translate(-44.5 -173.2)"/>
  <path d="M52 238.3c-.4-.3-.7-1.1-.8-1.7v-.6c0 .2.6.4 1.1.4.9 0 10.8-3 25.8-7.9a165 165 0 0 1 10.4-3.2c2-.8 3.3-1.1 4.7-1 1 0 1.4 0 1.8-.6.5-.7 1.8-1 1.8-.3 0 .3.4.1.9-.3.6-.6 1.1-.8 1.7-.7 1 .3 3-.4 4-1.3.4-.4 1-.5 1.6-.5.6.1 1 0 1-.2 0-.4 1.8-1 2-.7.6.5-3 2-16 6.2a12341.8 12341.8 0 0 0-39.4 13l-.7-.6zm57.6-18.6c.3-.2.8-.4 1.1-.4.7 0 .7 0 0 .4-.3.3-.8.5-1 .5-.5 0-.5 0-.1-.5zM47.4 218c0-.8 1-1.9 3.5-3.8 2.5-1.8 2.5-1.8 2.1-3-.2-.6-.3-1.5-.1-2 .2-.8.3-.9 1.8-.6l1.9.5 2.6-.2c2.6-.5 3.4-1.1 3.6-2.8 0-.6.2-1.3.5-1.5.5-.6.5-1-.2-1-.8 0-.6-.5.9-2.1 1-1.2 1.4-2 1.5-3 0-1.1.3-1.4 1-1.5.4 0 1 0 1.2.3.3.2 1 .3 1.5.2l2.4-.3c1.2 0 1.4-.2 1.8-1.2a5 5 0 0 0 .5-1.7c0-.6-1.8-1.3-3.7-1.3-1.3 0-1.5 0-1.3-.6.2-1 1.6-1.5 3.2-1.3 1.2.2 1.4.1 2.6-1.4a7 7 0 0 0 1.3-2c0-.3.1-.3.5 0 .7.6 3.7 1 4.6.5a9 9 0 0 1 2.3-.6c1.9-.2 2-.3 1.5-1.6-.6-1.3-2.1-2-3.9-1.6-3.2.6-3.4.6-3 .3 1.2-1.3 6.2-1.6 8.2-.6a7 7 0 0 1 2 1.8c.4.6 1.3 1.3 2 1.7a37 37 0 0 1 3.8 2c1.5.7 3 1.3 3.7 1.3.6 0 2 .3 3 .6 1.4.4 2.4 1.1 6 4.7 3.1 3 4.6 4.2 5 4.1.6-.1.6 0 .3.4-.5.5-1.4.6-1.4.2 0-.2-1-1-2.1-1.8-2.2-1.5-2.4-1.6-1.8-.4.3.4.2.7-.2 1-.3.3-.5.7-.5 1 0 .3-1.2.8-3 1.4-7 2-8.8 2.7-9.3 3.1a37 37 0 0 1-8.7 2.5 263.8 263.8 0 0 0-28.8 8.4c-6 2.2-8.8 2.7-8.8 2zm7.6-2c2.5-.8 3.6-1.4 3.2-1.7-.7-.7-3.4-.4-5.4.6-2.3 1.1-2.4 1.1-1.7 1.5.5.4 1.8.2 3.9-.4zm19.2-6.2c7.6-2.3 8.7-2.7 8.9-3.2.2-.5-1.6-1-2.1-.5-1.2 1-6.2 2.6-8.6 2.8-2.4.2-2.7.3-4 1.6-1.9 1.6-2.2 1.7 5.8-.7zm-.4-5 1.4-.5c.3-.1.6-.3.6-.5 0-.5-2.5-2.5-3.1-2.5-.4 0-1-.3-1.3-.6-.6-.4-.5-.5.8-1.2 1.2-.6 1.4-.8 1-1.3-.2-.3-1-.5-2-.5-1.3 0-1.8.2-2.7 1-1.3 1.2-2.5 3.4-2 3.5l2 1.4c2.2 1.8 3.3 2 5.3 1.2zm-8-.7c0-.2 0-.4-.3-.4-.2 0-.3.2-.1.4 0 .2.2.3.3.3.1 0 .2-.1.2-.3zm19.6-.7c1.7-.5 3.6-2.4 3-3.1-1.5-1.8-5.5-2.3-6.7-.8-.7.9-.4 2.7.7 3.5 1 .8 1.2.9 3 .4zm11.5-1.3c1.1-.5 1.2-.6.6-.9-1-.5-2.7 0-2.7.8s.4.8 2 .1zm2.2-5.6c0-1.3-1-2-2.5-1.9-.7 0-1.5 0-1.7-.2-.7-.4-1.8.5-1.8 1.4 0 1.2 1.6 2 4.2 1.8 2 0 2 0 1.8-1.1zm-10.8-3.1c.9-.8-3.2-3.6-4.8-3.2-2.5.5-2.9.5-3.5 0-.6-.6-.7-.6-1.4.2-1.9 2 .8 3.5 6.2 3.4 1.8 0 3.4-.2 3.5-.4zm18.9 23.5c0-.2.2-1 .5-1.6.3-.6.5-1 .5-.6 0 .6-1 2.8-1 2.2zm3.8-1c0-.3.3-.5.6-.5s.5.2.5.5-.2.5-.5.5a.5.5 0 0 1-.6-.5zm-1-2c.2-.5 1-.6 1-.1 0 .2-.2.4-.5.5-.4 0-.5-.1-.4-.4zm-1.4-1.6c0-.4.1-.4.2-.2v.7c-.1.1-.2 0-.2-.5zm3.2.2.6-.6c.3 0 .4 0 .3.3 0 .3-.3.6-.6.6-.2.1-.4 0-.3-.3zm-2.5-2.3c0-.4.1-.5.2-.2v.7c-.1.1-.2-.1-.2-.5zm.4-1.9.7-3.6c.2-1.5.5-2.6.7-2.5.2.1-1 6.5-1.3 6.8-.2.1-.2-.2 0-.7zm3.5-.5c0-.3.1-.5.3-.5.2 0 .4.1.4.3 0 .2-.2.4-.4.5-.2.2-.3 0-.3-.3zm-1.6-.7c.1-.3.5-.5.8-.5.4 0 .4 0 0 .5-.2.3-.5.5-.7.5-.1 0-.2-.2 0-.5zm1.2-2.1c0-.3 0-.6.2-.6 0 0 .4 0 .7-.2.3-.1.5 0 .5.3s-.2.7-.5.8c-.8.3-.9.3-.9-.3zm1-2.3c-.2-.2-.1-.4 0-.6.6-.3.8 0 .4.5-.1.3-.3.4-.5.1z" style="fill:#d24518;stroke-width:.352778" transform="translate(-44.5 -173.2)"/>
  <path d="M52 238.3c-.4-.3-.7-1.1-.8-1.7v-.6c0 .2.6.4 1.1.4.9 0 10.8-3 25.8-7.9a165 165 0 0 1 10.4-3.2c2-.8 3.3-1.1 4.7-1 1 0 1.4 0 1.8-.6.5-.7 1.8-1 1.8-.3 0 .3.4.1.9-.3.6-.6 1.1-.8 1.7-.7 1 .3 3-.4 4-1.3.4-.4 1-.5 1.6-.5.6.1 1 0 1-.2 0-.4 1.8-1 2-.7.6.5-3 2-16 6.2a12341.8 12341.8 0 0 0-39.4 13l-.7-.6zm57.6-18.6c.3-.2.8-.4 1.1-.4.7 0 .7 0 0 .4-.3.3-.8.5-1 .5-.5 0-.5 0-.1-.5zM47.4 218c0-.3.4-.8.8-1.3.5-.6 1-.7 1.5-.5 1.3.5 3.8.2 6.5-.8 2.8-1 2.9-1.4.6-1.8-3-.5-4.5-2.2-4-4.4.3-.8.4-.9 1.9-.6l1.9.5 2.6-.2c2.6-.5 3.4-1.1 3.6-2.8 0-.6.2-1.3.5-1.5.5-.6.5-1-.2-1-.8 0-.6-.5.9-2.1 1-1.2 1.4-2 1.5-3 0-1.2.3-1.4 1-1.5.4 0 1 0 1.2.3.2.2.7.3 1 .3.7 0 .6.2-.3 1-1.3 1.2-2.5 3.4-2 3.5.2 0 1.1.8 2.2 1.5 2 1.6 3.3 1.9 5.1 1.1l1.4-.5c.3-.1.6-.3.6-.5 0-.5-2.5-2.5-3.1-2.5-.4 0-1-.3-1.3-.6-.6-.4-.5-.5.8-1.2 1.2-.6 1.4-.8 1-1.3-.2-.2-.8-.5-1.4-.5-1.3 0-1.1-.3.3-.4.7 0 1-.4 1.4-1.2l.5-1.7c0-.6-1.8-1.3-3.7-1.3-1.3 0-1.5 0-1.3-.6.2-1 1.6-1.5 3.2-1.3 1.2.2 1.4.1 2.6-1.4a7 7 0 0 0 1.3-2c0-.3.1-.3.5 0 1 .8 3.6.9 6.2.2 1.4-.3 2.5-.7 2.5-.9l-.4-1.1c-.5-1.2-2.1-1.8-3.8-1.5-3.2.6-3.4.6-3 .3 1.2-1.3 6.2-1.6 8.2-.6a7 7 0 0 1 2 1.8c.4.6 1.3 1.3 2 1.7a37 37 0 0 1 3.8 2c1.5.7 3 1.3 3.7 1.3.6 0 2 .3 3 .6 1.4.4 2.4 1.1 6 4.7 3.1 3 4.6 4.2 5 4.1.6-.1.6 0 .3.4-.5.5-1.4.6-1.4.2 0-.2-1.2-1.1-2.6-2.1l-2.5-1.8-.4 1.2c-.4 1.3-.3 1.6.6 1.6.4 0 .5.2.4.7-.1.5-1 .9-3.2 1.6-7 2-8.7 2.7-9.2 3.1a37 37 0 0 1-8.7 2.5 263.8 263.8 0 0 0-28.8 8.4c-6.1 2.2-8.8 2.7-8.8 2zm24.1-7.5a80.8 80.8 0 0 0 12-4c0-.2-.6-.6-1.2-1-1-.8-1-.8-1.9-.3-.5.3-.9.7-.9.9 0 .6-3.4 2.1-5.4 2.5h-3.3c-1.4-.3-2.4 0-3 .8v.7l-.1.2c-.2 0-.5.4-.8.7-.6 1-.4 1 4.6-.5zm-5.8-7.5-.6.1c-.3.2-.3.4 0 .8.5.5.5.5.6 0v-.9zm19.6.3c1.7-.5 3.6-2.4 3-3.1-1.5-1.8-5.5-2.3-6.7-.8-.7.9-.4 2.7.7 3.5 1 .8 1.2.9 3 .4zm12-1.4c1.7-.8 1.2-1.2-1-1-1.1 0-1.4.2-1.5.9-.2 1 .6 1 2.6 0zm1.7-5.5c0-1.3-1-2-2.5-1.9-.7 0-1.5 0-1.7-.2-.7-.4-1.8.5-1.8 1.4 0 1.2 1.6 2 4.2 1.8 2 0 2 0 1.8-1.1zm-10.8-3.1c.9-.8-3.2-3.6-4.8-3.2-2.5.5-2.9.5-3.5 0-.6-.6-.7-.6-1.4.2-1.9 2 .8 3.5 6.2 3.4 1.8 0 3.4-.2 3.5-.4zm-11.4-2c-.2-.3-.5-.2-.8.2-.4.5-.4.6 0 .9.6.3 1.3-.7.8-1.2zm30.3 25.5c0-.2.2-1 .5-1.6.3-.6.5-1 .5-.6 0 .6-1 2.8-1 2.2zm3.8-1c0-.3.3-.5.6-.5s.5.2.5.5-.2.5-.5.5a.5.5 0 0 1-.6-.5zm-1-2c.2-.5 1-.6 1-.1 0 .2-.2.4-.5.5-.4 0-.5-.1-.4-.4zm-1.4-1.6c0-.4.1-.4.2-.2v.7c-.1.1-.2 0-.2-.5zm3.2.2.6-.6c.3 0 .4 0 .3.3 0 .3-.3.6-.6.6-.2.1-.4 0-.3-.3zm-2.5-2.3c0-.4.1-.5.2-.2v.7c-.1.1-.2-.1-.2-.5zm.4-1.9.7-3.6c.2-1.5.5-2.6.7-2.5.2.1-1 6.5-1.3 6.8-.2.1-.2-.2 0-.7zm3.5-.5c0-.3.1-.5.3-.5.2 0 .4.1.4.3 0 .2-.2.4-.4.5-.2.2-.3 0-.3-.3zm-1.6-.7c.1-.3.5-.5.8-.5.4 0 .4 0 0 .5-.2.3-.5.5-.7.5-.1 0-.2-.2 0-.5zm1.2-2.1c0-.3 0-.6.2-.6 0 0 .4 0 .7-.2.3-.1.5 0 .5.3s-.2.7-.5.8c-.8.3-.9.3-.9-.3zm1-2.3c-.2-.2-.1-.4 0-.6.6-.3.8 0 .4.5-.1.3-.3.4-.5.1z" style="fill:#c73624;stroke-width:.352778" transform="translate(-44.5 -173.2)"/>
  <path d="M52 238.3c-.4-.3-.7-1.1-.8-1.7v-.6c0 .2.6.4 1.1.4.9 0 10.8-3 25.8-7.9a165 165 0 0 1 10.4-3.2c2-.8 3.3-1.1 4.7-1 1 0 1.4 0 1.8-.6.5-.7 1.8-1 1.8-.3 0 .3.4.1.9-.3.6-.6 1.1-.8 1.7-.7 1 .3 3-.4 4-1.3.4-.4 1-.5 1.6-.5.6.1 1 0 1-.2 0-.4 1.8-1 2-.7.6.5-3 2-16 6.2a12341.8 12341.8 0 0 0-39.4 13l-.7-.6zm57.6-18.6c.3-.2.8-.4 1.1-.4.7 0 .7 0 0 .4-.3.3-.8.5-1 .5-.5 0-.5 0-.1-.5zM47.4 218c0-.3.4-.8.8-1.3.5-.6 1-.7 1.5-.5a8 8 0 0 0 2.3.2c1.9 0 6.8-1.8 6.5-2.2 0-.2-.7-.4-1.5-.5-3-.5-4.3-1.7-4.3-3.8 0-.7.2-.7 2.3-.5h3a13 13 0 0 1 2.3-.7c1.1-.1 1.9-.6 3.5-2.3 1-1.2 2-2.4 2-2.6 0-.6 1.2-.4 2 .3 1 .7 4.2 1.2 6.2.9 3.4-.6 3.6-2 .5-3.6l-1.8-1 1.2-.4c.7-.3 1-.6.8-.6-.2 0-.3-.2-.2-.5.1-.4-.2-.7-.7-1-.6-.2-.8-.5-.7-.6.5-.3 2.2-3.4 2.2-3.9 0-.2-.4-.7-1-1.2l-.8-1 1-1.3c.6-.7 1.3-1.2 1.6-1.1a9 9 0 0 0 2 .2h1.4l-1 1.2c-2.7 3-.2 4.5 6.7 3.7l2.4-.1c1 0 1.1-.2 1.1-.8 0-1-.2-1.3-2.2-2.9-1.4-1-2-1.3-3.2-1.3-1.8 0-1.3-.6.7-.9 1.8-.3 2.1-.6 1.7-1.8-.4-1.2-2.5-2.3-4-2.1-.6 0-1 0-1-.2 0-.1.9-.3 2.1-.3 2.6 0 4.4.8 5.4 2.4.4.6 1.3 1.3 2 1.7a37 37 0 0 1 3.8 2c1.5.7 3 1.3 3.7 1.3 2 0 4.5 1 6 2.4l4.4 4.3c2.1 2 3.2 2.8 3.7 2.7.5-.1.5 0 .2.4-.5.5-1.4.6-1.4.2 0-.2-1.2-1.1-2.6-2.1l-2.5-1.8-.4 1.2c-.4 1.3-.3 1.6.6 1.6.4 0 .5.2.4.7-.1.5-.8.8-2.7 1.4a58 58 0 0 0-9.7 3.3c-.7.6-6.6 2.2-8.7 2.5a263.8 263.8 0 0 0-28.8 8.4c-6.1 2.2-8.8 2.7-8.8 2zm24.1-7.5a80.8 80.8 0 0 0 12-4c0-.2-.6-.6-1.2-1-1-.8-1-.8-1.9-.3-.5.3-.9.7-.9.9 0 .6-3.4 2.1-5.4 2.5h-3.3c-1.4-.3-2.4 0-3 .8v.7l-.1.2c-.2 0-.5.4-.8.7-.6 1-.4 1 4.6-.5zm15-7.6c2-1 3.5-2.5 3.1-3 0-.2-.8-.6-1.6-.9-1.7-.5-2.3-1.1-2-2 .4-.9.3-1-.7-.8A6.7 6.7 0 0 0 81 199c-1 2 .3 4.8 2.5 4.9.5 0 1.9-.5 3-1zm11-1c1.6-.6 1-1.2-1-1-1.3 0-2-.1-2.2-.5-.3-.4-.3-.3-.1.2l.2 1.4c0 1 .1 1 3-.1zm5.7-3.2c0-.3-.3-.3-.7 0-.4.2-.7.5-.7.7 0 .2.2.2.7 0 .4-.2.7-.5.7-.7zm-4-1.6c1-1 1-1.6 0-2.8-.6-.8-.9-1-2.4-.8-1 0-1.7 0-1.7-.2 0-.1-.4-.3-.9-.3-1 0-1.7 1.3-1.5 2.7 0 .9.3 1.1 1.8 1.6 2.5.9 3.6.8 4.6-.2zm-8.4-3.3c0-.4-.1-.8-.3-.8-.4 0-1.1 1-.8 1.2.4.5 1.1.2 1.1-.4zm-14-2.5c0-.3-.4-.2-.8.2-.7.6-.7.7 0 .9.6.2 1.3-.5.9-1.1zm30.3 25.5c0-.2.2-1 .5-1.6.3-.6.5-1 .5-.6 0 .6-1 2.8-1 2.2zm3.8-1c0-.3.3-.5.6-.5s.5.2.5.5-.2.5-.5.5a.5.5 0 0 1-.6-.5zm-1-2c.2-.5 1-.6 1-.1 0 .2-.2.4-.5.5-.4 0-.5-.1-.4-.4zm-1.4-1.6c0-.4.1-.4.2-.2v.7c-.1.1-.2 0-.2-.5zm3.2.2.6-.6c.3 0 .4 0 .3.3 0 .3-.3.6-.6.6-.2.1-.4 0-.3-.3zm-2.5-2.3c0-.4.1-.5.2-.2v.7c-.1.1-.2-.1-.2-.5zm.4-1.9.7-3.6c.2-1.5.5-2.6.7-2.5.2.1-1 6.5-1.3 6.8-.2.1-.2-.2 0-.7zm3.5-.5c0-.3.1-.5.3-.5.2 0 .4.1.4.3 0 .2-.2.4-.4.5-.2.2-.3 0-.3-.3zm-1.6-.7c.1-.3.5-.5.8-.5.4 0 .4 0 0 .5-.2.3-.5.5-.7.5-.1 0-.2-.2 0-.5zm1.2-2.1c0-.3 0-.6.2-.6 0 0 .4 0 .7-.2.3-.1.5 0 .5.3s-.2.7-.5.8c-.8.3-.9.3-.9-.3zm-49.3-1.6c-.8-.2-.8-.2.6-1.8.9-1 1.4-2 1.4-2.6 0-1.1.3-1.3 1.9-1l1.2.2-1.2 1.5a6 6 0 0 0-1.2 2.3c0 .5-1.4 1.8-1.8 1.7l-1-.3zm50.2-.7c0-.2 0-.4.2-.6.5-.3.7 0 .3.5-.1.3-.3.4-.5.1zM71.4 192c0-.2.2-.3.4-.2.2.1.3.3.3.4l-.3.1c-.2 0-.4-.1-.4-.3z" style="fill:#c63719;stroke-width:.352778" transform="translate(-44.5 -173.2)"/>
  <path d="M52 238.3c-.4-.3-.7-1.1-.8-1.7v-.6c0 .2.6.4 1.1.4.9 0 10.8-3 25.8-7.9a165 165 0 0 1 10.4-3.2c2-.8 3.3-1.1 4.7-1 1 0 1.4 0 1.8-.6.5-.7 1.8-1 1.8-.3 0 .3.4.1.9-.3.6-.6 1.1-.8 1.7-.7 1 .3 3-.4 4-1.3.4-.4 1-.5 1.6-.5.6.1 1 0 1-.2 0-.4 1.8-1 2-.7.6.5-3 2-16 6.2a12341.8 12341.8 0 0 0-39.4 13l-.7-.6zm57.6-18.6c.3-.2.8-.4 1.1-.4.7 0 .7 0 0 .4-.3.3-.8.5-1 .5-.5 0-.5 0-.1-.5zM47.4 218c0-.9.7-1.1 3.6-1.3 2.7-.2 8.2-2 7.9-2.5 0-.2-.8-.4-1.7-.5-3-.5-4.4-1.7-4.5-3.9 0-.6.2-.6 2.5-.4 1.4.2 2.7.1 3 0 .4-.3 1.3-.5 2.1-.7 1.4-.2 3.5-2 5.3-4.4.7-1 .8-1 1.8-.4 2 1 4.5 1.4 6.6 1 3.4-.5 3.6-2 .5-3.5l-1.8-1 1.2-.4c.7-.3 1-.6.8-.6-.2 0-.3-.2-.2-.5.1-.4-.2-.7-.7-1-.6-.2-.8-.5-.7-.6.5-.3 2.2-3.4 2.2-3.9 0-.2-.4-.7-1-1.2l-.8-1 1-1.3c.6-.7 1.3-1.2 1.6-1.1a9 9 0 0 0 2 .2h1.4l-1 1c-.6.8-1.1 1.1-1.6 1-.4 0-1 .1-1.2.4-.4.5-.4.7.4 1.2l1 .5 1.5.5c1 .6 3.3.7 6.6.3l2.4-.1c1 0 1.1-.2 1.1-.8 0-1-.2-1.3-2.2-2.9-1.4-1-2-1.3-3.2-1.3-1.8 0-1.3-.6.7-.9 1.8-.3 2.1-.6 1.7-1.8-.4-1.2-2.5-2.3-4-2.1-.6 0-1 0-1-.2 0-.1.9-.3 2.1-.3 2.6 0 4.4.8 5.4 2.4.4.6 1.3 1.3 2 1.7a37 37 0 0 1 3.8 2c1.5.7 3 1.3 3.7 1.3 2 0 4.5 1 6 2.4l4.4 4.3c2.1 2 3.2 2.8 3.7 2.7.5-.1.5 0 .2.4-.5.5-1.4.6-1.4.2 0-.3-5-4-5.4-4-.2 0-.3.3-.3.7 0 .3-.3 1-.6 1.5-.4.5-.7 1-.6 1.1.6.5-2.5 1-4.9.8a140.7 140.7 0 0 0-4.3-.7c-.3-.1-.4.2-.2 1.1 0 .8.2 1.4.2 1.4l1.6-.4c1.7-.6 2.2-.7 1.5-.2-.2.1-.5.6-.5 1 0 .6-.4.8-1.2 1a34.4 34.4 0 0 1-10.9 3.5 263.8 263.8 0 0 0-28.8 8.4c-6.3 2.2-8.8 2.7-8.8 1.9zm21.9-6.8 2.2-.6c.5 0 2-.5 3.5-1a41.3 41.3 0 0 1 4.7-1.3 6 6 0 0 1 1.2-.4 9 9 0 0 0 1.7-.6l1.3-.6-1.2-1a5 5 0 0 0-1.6-1c-.3 0-1 .6-1.8 1.3-2 2-4 2.7-7.7 2.5-3.3-.2-3.1-.3-4.6 2l-.8 1.2h.8c.4 0 1.5-.2 2.3-.5zm17.3-8.3c2-1 3.4-2.5 3-3 0-.2-.8-.6-1.6-.9-1.8-.6-2.4-1.2-1.8-2 .2-.4.3-.8.2-.9-.4-.3-2.7.4-3.8 1.3-.6.5-1.7 1-2.4 1.1-.7.1-1.4.5-1.6 1-.4.5-.3.7.5 1.3.7.5 1 .6 1.2.3.1-.2.3 0 .5.5.4 1.2 1.6 2.3 2.8 2.4.5 0 1.9-.5 3-1zm16.6-4.2c0-.3-.3-.3-.7 0-.4.2-.7.5-.7.7 0 .2.2.2.7 0 .4-.2.7-.5.7-.7zm-4-1.6c1-1 1-1.6 0-2.8-.6-.8-.9-1-2.4-.8-1 0-1.7 0-1.7-.2 0-.1-.4-.3-.9-.3-1 0-1.7 1.3-1.5 2.7.2 2.2 4.7 3.1 6.4 1.4zm-8.4-3.3c0-.4-.1-.8-.3-.8-.4 0-1.1 1-.8 1.2.4.5 1.1.2 1.1-.4zm4.2-2.5c.6-.3.4-.5-2-1.4-2-.8-2.3-.5-1 .9 1 .8 2.1 1 3 .5zm12 25.5.6-1.6c.3-.6.5-1 .5-.6 0 .6-1 2.8-1 2.2zm4-1c0-.3.2-.5.5-.5s.5.2.5.5-.2.5-.5.5a.5.5 0 0 1-.6-.5zm-1-2c.1-.5 1-.6 1-.1 0 .2-.3.4-.6.5-.4 0-.5-.1-.4-.4zm-1.5-1.6c0-.4.1-.4.2-.2v.7c-.1.1-.2 0-.2-.5zm3.2.2.6-.6c.3 0 .4 0 .3.3 0 .3-.3.6-.6.6-.2.1-.4 0-.3-.3zm-2.5-2.3c0-.4.1-.5.2-.2v.7c-.1.1-.2-.1-.2-.5zm.4-1.9.7-3.6c.2-1.5.5-2.6.7-2.5.2.1-1 6.5-1.3 6.8-.2.1-.2-.2 0-.7zm3.5-.5c0-.3.1-.5.3-.5.2 0 .4.1.4.3 0 .2-.2.4-.4.5-.2.2-.3 0-.3-.3zm-1.6-.7c.1-.3.5-.5.8-.5.4 0 .4 0 0 .5-.2.3-.5.5-.7.5-.1 0-.2-.2 0-.5zm1.2-2.1c0-.3 0-.6.2-.6 0 0 .4 0 .7-.2.3-.1.5 0 .5.3s-.2.7-.5.8c-.8.3-.9.3-.9-.3zm-49.4-2.6c.3-.5 1-1.3 1.4-1.6.4-.4.7-1.1.7-1.7 0-1.2.3-1.4 1.9-1.1l1.2.2-1.1 1.6c-2.6 3.5-2.7 3.6-3.8 3.6h-1zm50.3.3c0-.2 0-.4.2-.6.5-.3.7 0 .3.5-.1.3-.3.4-.5.1zM71.4 192c0-.2.2-.3.4-.2.2.1.3.3.3.4l-.3.1c-.2 0-.4-.1-.4-.3z" style="fill:#ba3422;stroke-width:.352778" transform="translate(-44.5 -173.2)"/>
  <path d="M52 238.3c-.4-.3-.7-1.1-.8-1.7v-.6c0 .2.6.4 1.1.4.9 0 10.8-3 25.8-7.9a165 165 0 0 1 10.4-3.2c2-.8 3.3-1.1 4.7-1 1 0 1.4 0 1.8-.6.5-.7 1.8-1 1.8-.3 0 .3.4.1.9-.3.6-.6 1.1-.8 1.7-.7 1 .3 3-.4 4-1.3.4-.4 1-.5 1.6-.5.6.1 1 0 1-.2 0-.4 1.8-1 2-.7.6.5-3 2-16 6.2a12341.8 12341.8 0 0 0-39.4 13l-.7-.6zm57.6-18.6c.3-.2.8-.4 1.1-.4.7 0 .7 0 0 .4-.3.3-.8.5-1 .5-.5 0-.5 0-.1-.5zm-62-1.5c-.4-.8.6-1.3 3.3-1.5 2.8-.2 8.3-2 8-2.5 0-.2-.8-.4-1.7-.5-2.1-.4-4.1-1.5-4.1-2.3l-.2-1.3c-.3-.6 0-.6 3.8 0 .7.2 1.6.2 2 0l1.3-.4c1.6-.3 5.6-4 5.6-5.1 0-.2.3-.5.6-.7.5-.3.8-.3 1.5.4 1 .9 4.3 1.6 6 1.2 1.2-.2 3.3-1.4 3.5-2 .2-.8 0-3.5-.5-4-.3-.3-1-.8-1.8-1.2l-1.4-.7.8-1c.5-.6 1.1-1 1.4-1.2 1-.2.3-2.3-1-3.4l-1-.9.8-1.1c1-1.2 1-1.2 2.6-.7 1.6.4 1.7.4 1.1 1.1-.3.4-1 .7-1.3.6-.4 0-1 .1-1.2.4-.4.5-.3.7.4 1.3.4.3 1 .6 1.2.5.2-.1.6.1 1 .5.9 1 2.3 1.2 6.9.8 3.5-.3 4.1-.2 4.5.3.3.4.4.4 1 0 .8-.7.5-2-.5-1.9-.6 0-.9-.2-1-1-.2-.7-.5-1.1-1.2-1.4-.6-.2-1.1-.6-1.2-1-.2-.6-.6-.7-2.2-.7-1 0-1.9-.1-1.9-.3 0-.2.8-.4 1.8-.4 1.4 0 1.7-.1 2-.7.2-1-.5-2.7-1.3-3-.3-.2-1.4-.4-2.5-.5l-2-.3h2c2.7 0 4.2.6 5.2 2 .5.7 1.6 1.6 2.7 2.2 4.1 2 5.6 2.8 5.5 3l-2.5-.8c-2.5-.9-3-.7-1.6.8.9.8 1 .8 4.5.6 3.4-.1 3.8 0 5.3.7 1 .5 1.8 1.3 2.3 2.3.6 1 .8 1.3 1 .9 0-.5.8 0 3 2.3 2.1 2 3.2 2.8 3.7 2.7.5-.1.5 0 .2.4-.5.5-1.3.6-1.5.1a15 15 0 0 0-2.8-2.3c-2.6-1.8-2.8-1.9-2.8-1a4 4 0 0 1-.6 1.6c-.4.5-.7 1-.6 1.1.6.5-2.5 1-4.9.8l-3.3-.4c-.6 0-1-.4-1.5-1.3-.8-1.6-1.1-1.7-.7-.3a1193.3 1193.3 0 0 1 1.3 3.8l1.5-.4c1.7-.6 2.2-.7 1.6-.3l-.7 1a3 3 0 0 1-1.5 1c-.6.3-1.4.7-1.7 1-.7.6-7.2 2.5-8.6 2.5-1.5 0-20 5.4-29.6 8.7-5.4 1.8-7.6 2.4-8 1.9zm21.6-7 2.5-.6 3.8-1.1c1.5-.5 2.9-.8 3-.7 0 0 .3 0 .5-.2l2.4-1 2.2-.8c.1-.1-.4-.7-1-1.2-1.5-1-2.3-1-3.2.3-.3.5-1.2 1.3-2 1.7-1.3.7-2.1.8-5.4.8-2.6 0-4 .2-4 .5 0 .2-.5 1-1 1.6l-.8 1.2h.8c.4 0 1.5-.2 2.2-.5zm-3.4-1.2c0-.8-.6-1-1.5-.2-.7.5-.5.9.7.9.6 0 .8-.2.8-.7zm21.6-7.3c1.8-.8 3.5-1.8 3.8-2.1.5-.5.4-.6-.3-1.2-.5-.4-1.3-.7-1.8-.7-1.6 0-2.5-.4-2.5-1 0-.4.3-.8.7-1 1.3-.4.3-1-1.3-.7-1 0-2.2.6-3.1 1.2-.9.6-2 1.2-2.7 1.3-.7.1-1.4.5-1.6 1-.4.5-.3.7.5 1.3.7.5 1 .6 1.2.3.1-.2.3 0 .5.7.2 1.2 1.6 2.5 2.7 2.5.3 0 2-.7 3.9-1.6zm16-3.5c1-1.3-.6-1.7-2-.6-1 .9-.6 1.6.7 1.3.5 0 1.1-.4 1.3-.7zM99 198c1.8-.9 2-1.1 1.6-2.8a3 3 0 0 0-3-2.5 3 3 0 0 1-1.5-.2c-.4-.2-1-.4-1.2-.3l-1 .1c-.6 0-1.6 2.2-1.5 3.4.1 1 .4 1.2 2.4 2 2.8 1.2 2.6 1.1 4.2.3zm8.2 18.8c0-.2.2-1 .5-1.6.3-.6.5-1 .5-.6 0 .6-1 2.8-1 2.2zm3.8-1c0-.3.3-.5.6-.5s.5.2.5.5-.2.5-.5.5a.5.5 0 0 1-.6-.5zm-1-2c.2-.5 1-.6 1-.1 0 .2-.2.4-.5.5-.4 0-.5-.1-.4-.4zm-1.4-1.6c0-.4.1-.4.2-.2v.7c-.1.1-.2 0-.2-.5zm3.2.2.6-.6c.3 0 .4 0 .3.3 0 .3-.3.6-.6.6-.2.1-.4 0-.3-.3zm-2.5-2.3c0-.4.1-.5.2-.2v.7c-.1.1-.2-.1-.2-.5zm.4-1.9.7-3.6c.2-1.5.5-2.6.7-2.5.2.1-1 6.5-1.3 6.8-.2.1-.2-.2 0-.7zm3.5-.5c0-.3.1-.5.3-.5.2 0 .4.1.4.3 0 .2-.2.4-.4.5-.2.2-.3 0-.3-.3zm-1.6-.7c.1-.3.5-.5.8-.5.4 0 .4 0 0 .5-.2.3-.5.5-.7.5-.1 0-.2-.2 0-.5zm1.2-2.1c0-.3 0-.6.2-.6 0 0 .4 0 .7-.2.3-.1.5 0 .5.3s-.2.7-.5.8c-.8.3-.9.3-.9-.3zm-49-3a12 12 0 0 1 1.4-1.6c.2-.1.3-.7.3-1.3 0-1 .4-1.2 2-.8.7.2.7.3-.4 2-1.8 2.7-2.3 3-3.4 3h-1Zm50 .7c-.2-.2-.1-.4 0-.6.6-.3.8 0 .4.5-.1.3-.3.4-.5.1zm-39.4-1.8c-.4-.2-.4-.3-.2-.3.3 0 .6.1.7.3.3.4.1.4-.5 0z" style="fill:#865930;stroke-width:.352778" transform="translate(-44.5 -173.2)"/>
  <path d="M51.9 238.1c-.8-1-.7-1.3.4-1.3.6 0 1.7-.2 2.6-.5 1-.4 1.6-.5 1.7-.2.2.3.4.2.5-.2.2-.4.5-.5 1.1-.4.5 0 .8 0 .7-.1-.1-.2 1.7-.9 4-1.6l6.7-2.1c2.4-.8 2.5-.8 2.7-.1 0 .3 0 .7-.3.8L52.5 239l-.6-.8zm8.7-2.6c.2-.3 0-.4-.1-.3-.2.1-.4.4-.4.6 0 .5.3.4.5-.3zm1.7-.5c0-.2-.3-.3-.7-.3-.5 0-.5 0 0 .3.6.5.7.5.7 0zm10.5-3c-.6-.5-.3-1 1-1.7 1.6-.7 1.8-.7 1.8.2 0 .7-1.5 1.5-2 1.2-.2-.1-.4 0-.5.2 0 .2-.2.2-.3 0zm4.1-1.8c.7-.5.7-.5-.1-.3-.6.2-.8.1-.7 0 .4-.7 2-1 2.8-.5.8.4.8.5-.4.9-1.8.6-2.5.6-1.6 0zm3.4-1.1c0-.2-.4-.3-.8-.2h-.6s.5-.3 1-.3c2.3-.5 4.4-1 5-1.4.5-.2.6-.2.7.1 0 .3.3.1.7-.3.5-.7.7-.7.7-.3 0 .3-.4.7-.7 1-.4.1-.8.2-.8 0l-.4.2a15 15 0 0 1-4.4 1.5c-.2 0-.4-.2-.4-.3zm8.6-2.5c.1-.2 0-.4-.4-.4-.5 0-.5 0-.1-.5.5-.6 1.4-.7 1.4-.2 0 .2.3.4.8.4.6 0 .6 0 .2.3-1 .6-2.2.8-2 .4zm2.8-1c0-.3.1-.6.5-.8.6-.3.8-.3.8.1 0 .6-1 1-1.3.6zm3.8-1.9c0-.2.4-.5.6-.6.3 0 .4 0 .3.3 0 .3-.3.5-.6.6-.3.1-.4 0-.3-.3zm2.8-.9c.2-.2.5-.4.6-.3.2.2-.3.9-.7.9-.3 0-.2-.2 0-.6zm2.4 0 .7-.5c.4-.2.7-.2.7 0s-.3.4-.7.5h-.7zm3.4-1.5c0-.2.4-.4.7-.4.3 0 .4.2.3.4 0 .2-.4.3-.7.3-.3 0-.5-.1-.3-.3zm-56.4-3.1c-.5-.8.5-1.3 3.2-1.5 2.8-.2 8.3-2 8-2.5 0-.2-.8-.4-1.7-.5-2.1-.4-4.1-1.5-4.1-2.3l-.2-1.3c-.3-.6 0-.6 3.8 0 .7.2 1.6.2 2 0l1.3-.4c1.6-.3 5.6-4 5.6-5.1 0-.2.3-.5.6-.7.5-.3.8-.3 1.5.4 1 .9 4.3 1.6 6 1.2 1.2-.2 3.3-1.4 3.5-2 .2-.8 0-3.5-.5-4-.3-.3-1-.8-1.8-1.2l-1.4-.7.8-1c.5-.6 1.1-1 1.4-1.2 1-.2.3-2.3-1-3.4l-1-.9.8-1.1c1-1.2 1-1.2 2.6-.7 1.6.4 1.7.4 1.1 1.1-.3.4-1 .7-1.3.6-.4 0-1 .1-1.2.4-.4.5-.3.7.4 1.3.4.3 1 .6 1.2.5.2-.1.6.1 1 .5.9 1 2.3 1.2 6.9.8 3.5-.3 4.1-.2 4.5.3.3.4.4.4 1 0 .8-.7.5-2-.5-1.9-.6 0-.9-.2-1-1-.2-.7-.5-1.1-1.2-1.4-.6-.2-1.1-.6-1.2-1-.2-.6-.6-.7-2.2-.7-1 0-1.9-.1-1.9-.3 0-.2.8-.4 1.8-.4 1.4 0 1.7-.1 2-.7.2-1-.5-2.7-1.3-3-.3-.2-1.4-.4-2.5-.6-1.8-.2-1.8-.2.6-.1 3 0 4.1.7 5 2.4.3.8 1 1.4 2.2 2 1 .4 1.7 1 1.7 1.1 0 .2-.2.3-.5.2-.8-.3-.6.4.3 1.4.9.8 1 .8 4.5.6 3.4-.1 3.8 0 5.3.7 1 .5 1.8 1.3 2.3 2.2.4.8.9 1.4 1.1 1.3.5-.2 3.9 3 3.6 3.3l-2-1c-1.8-1.3-1.9-1.3-1.9-.5 0 .5-.3 1.2-.6 1.7-.4.5-.7 1-.6 1.1.6.5-2.5 1-4.9.8l-3.3-.4c-.6 0-1-.4-1.5-1.3-.8-1.6-1.1-1.7-.7-.3a1193.3 1193.3 0 0 1 1.3 3.8l1.5-.4c1.7-.6 2.2-.7 1.6-.3l-.7 1a3 3 0 0 1-1.5 1 34.5 34.5 0 0 1-10.3 3.3c-1.5.1-20.6 5.8-29.6 8.9-5.4 1.8-7.6 2.4-8 1.9zm21.5-7 2.5-.6 3.8-1.1c1.5-.5 2.9-.8 3-.7 0 0 .3 0 .5-.2l2.4-1 2.2-.8c.1-.1-.4-.7-1-1.2-1.5-1-2.3-1-3.2.3-.3.5-1.2 1.3-2 1.7-1.3.7-2.1.8-5.4.8-2.6 0-4 .2-4 .5 0 .2-.5 1-1 1.6l-.8 1.2h.8c.4 0 1.5-.2 2.2-.5zm-3.4-1.2c0-.8-.6-1-1.5-.2-.7.5-.5.9.7.9.6 0 .8-.2.8-.7zm21.6-7.3c1.8-.8 3.5-1.8 3.8-2.1.5-.5.4-.6-.3-1.2-.5-.4-1.3-.7-1.8-.7-1.6 0-2.5-.4-2.5-1 0-.4.3-.8.7-1 1.3-.4.3-1-1.3-.7-1 0-2.2.6-3.1 1.2-.9.6-2 1.2-2.7 1.3-.7.1-1.4.5-1.6 1-.4.5-.3.7.5 1.3.7.5 1 .6 1.2.3.1-.2.3 0 .5.7.2 1.2 1.6 2.5 2.7 2.5.3 0 2-.7 3.9-1.6zm16-3.5c1-1.3-.6-1.7-2-.6-1 .9-.6 1.6.7 1.3.5 0 1.1-.4 1.3-.7zM99 198c1.8-.9 2-1.1 1.6-2.8a3 3 0 0 0-3-2.5 3 3 0 0 1-1.5-.2c-.4-.2-1-.4-1.2-.3l-1 .1c-.6 0-1.6 2.2-1.5 3.4.1 1 .4 1.2 2.4 2 2.8 1.2 2.6 1.1 4.2.3zm14.2 6.7c0-.2.1-.4.3-.4.2 0 .3.2.2.4-.1.2-.3.3-.4.3l-.1-.3zm-49.4-2.8a12 12 0 0 1 1.4-1.6c.2-.1.3-.7.3-1.3 0-1 .4-1.2 2-.8.7.2.7.3-.4 2-1.8 2.7-2.3 3-3.4 3h-1Zm10.6-1c-.4-.3-.4-.4-.2-.4.3 0 .6.1.7.3.3.4.1.4-.5 0z" style="fill:#b72d21;stroke-width:.352778" transform="translate(-44.5 -173.2)"/>
  <path d="M51.9 238.1c-.8-1-.7-1.3.4-1.3.6 0 1.7-.2 2.6-.5 1-.4 1.6-.5 1.7-.2.2.3.4.2.5-.2.2-.4.5-.5 1.1-.4.5 0 .8 0 .7-.1-.1-.2 1.7-.9 4-1.6l6.7-2.1c2.4-.8 2.5-.8 2.7-.1 0 .3 0 .7-.3.8L52.5 239l-.6-.8zm8.7-2.6c.2-.3 0-.4-.1-.3-.2.1-.4.4-.4.6 0 .5.3.4.5-.3zm1.7-.5c0-.2-.3-.3-.7-.3-.5 0-.5 0 0 .3.6.5.7.5.7 0zm10.5-3c-.6-.5-.3-1 1-1.7 1.6-.7 1.8-.7 1.8.2 0 .7-1.5 1.5-2 1.2-.2-.1-.4 0-.5.2 0 .2-.2.2-.3 0zm4.1-1.8c.7-.5.7-.5-.1-.3-.6.2-.8.1-.7 0 .4-.7 2-1 2.8-.5.8.4.8.5-.4.9-1.8.6-2.5.6-1.6 0zm3.4-1.1c0-.2-.4-.3-.8-.2h-.6s.5-.3 1-.3c2.3-.5 4.4-1 5-1.4.5-.2.6-.2.7.1 0 .3.3.1.7-.3.5-.7.7-.7.7-.3 0 .3-.4.7-.7 1-.4.1-.8.2-.8 0l-.4.2a15 15 0 0 1-4.4 1.5c-.2 0-.4-.2-.4-.3zm8.6-2.5c.1-.2 0-.4-.4-.4-.5 0-.5 0-.1-.5.5-.6 1.4-.7 1.4-.2 0 .2.3.4.8.4.6 0 .6 0 .2.3-1 .6-2.2.8-2 .4zm2.8-1c0-.3.1-.6.5-.8.6-.3.8-.3.8.1 0 .6-1 1-1.3.6zm3.8-1.9c0-.2.4-.5.6-.6.3 0 .4 0 .3.3 0 .3-.3.5-.6.6-.3.1-.4 0-.3-.3zm2.8-.9c.2-.2.5-.4.6-.3.2.2-.3.9-.7.9-.3 0-.2-.2 0-.6zm2.4 0 .7-.5c.4-.2.7-.2.7 0s-.3.4-.7.5h-.7zm3.4-1.5c0-.2.4-.4.7-.4.3 0 .4.2.3.4 0 .2-.4.3-.7.3-.3 0-.5-.1-.3-.3zm-56.4-3.1c-.5-.8.5-1.3 3.2-1.5 2.8-.2 8.3-2 8-2.5 0-.2-.8-.4-1.7-.5-2.3-.4-4.1-1.5-4.1-2.4 0-.7.1-.8 2.4-.8 1.3 0 2.7-.1 3-.3l1.5-.5a22 22 0 0 0 6.3-4l-.4-1.2c-.2-.6-.2-.6 1.1.1.8.5 1.6.7 1.8.6l.5.1c0 .5 5.8.2 7.1-.3 1.4-.6 2.8-2.2 2.8-3.1 0-.8-2.4-3-4.1-3.7l-1.3-.6.9-.9a4 4 0 0 1 1.3-.8c.2 0 .5-.5.6-1 .4-2 .4-2 1.6-.8 1 1 1.5 1.2 2.8 1.1 1.4 0 2.4-.2 2.4-.5 0-.1 1.2-.2 2.7-.2 1.5 0 2.7 0 2.9-.2 0 0 .4 0 .6.4.4.5.5.5 1 .1 1-.7.6-2.2-.5-2.5l-.8-.2 1-.5c1-.5 1.1-.8.5-1.2-.3-.2-.3-.1-.2.1.6 1-.5.4-1.8-1-.8-.8-1.7-1.4-2-1.4-.5 0-.5-.1 0-1 .3-.6.4-1.3.3-1.5 0-.2 0-.3.2-.3s.7.4 1 1c.3.5 1.3 1.3 2.2 1.7 1 .5 1.7 1 1.7 1.2 0 .2-.2.3-.5.2-.3-.1-.5 0-.5.1 0 .5 1.6 2.1 2.1 2.1.2 0 0 .5-.3 1-1 1.3-1.4 3.6-.7 4l2.9 1.2 2.4 1 1.6-.9c1-.4 1.8-1.2 2-1.6 1-2 3-.9 2.6 1.2 0 .2-.3.3-.6.2-.3 0-1 .3-1.6.8-1 .9-1 1-.4 1.4.7.6 1.4.4 2.7-.6.9-.8.9-.8.3 0-.4.4-.6.8-.5.9.1.1-.3.4-1 .6-.9.3-2.1.3-4 .1-1.5-.1-3-.3-3.4-.2-.4 0-.9-.5-1.4-1.6-1-2.1-3.8-3.6-6.7-3.4-2 .1-4.3 1-5.1 2-.3.3-1 .7-1.8.8-.7.1-1.5.5-1.7.9-.4.6-.3.8.5 1.4.5.4 1 .7 1.2.7.2 0 .3.2.3.5 0 .8 1.8 2.7 2.5 2.7.4 0 1.9-.6 3.3-1.2 3.2-1.6 6.2-2.7 6.6-2.5l.8 1.4c.5 1 .7 1.2 1 .8.5-.6 2.7-1.4 3-1.2.1.1 0 .2-.2.2s-.4.2-.4.5c0 .7-1.4 1.6-2.2 1.6-.4 0-1 .3-1.3.7-.6.7-6.8 2.5-8.5 2.5-1.5 0-20.6 5.7-29.6 8.8-5.4 1.8-7.6 2.4-8 1.9zm21.5-7 2.5-.6 3.8-1.1c1.5-.5 2.9-.8 3-.7 0 0 .3 0 .5-.2l2.4-1 2.2-.8c.1-.1-.4-.7-1-1.2-1.5-1-2.3-1-3.2.3-.3.5-1.2 1.3-2 1.7-1.3.7-2.1.8-5.4.8-2.6 0-4 .2-4 .5 0 .2-.5 1-1 1.6l-.8 1.2h.8c.4 0 1.5-.2 2.2-.5zm-3.6-1.9c-.4-.4-.6-.3-1.2.3-.7.8-.7.8.7 1.2.7.2 1-.9.5-1.5zm47.5-4.6c0-.2.1-.4.3-.4.2 0 .3.2.2.4-.1.2-.3.3-.4.3l-.1-.3zm-49.4-2.8a12 12 0 0 1 1.4-1.6c.2-.1.3-.5.3-1 0-.4.3-.6 1.1-.6l1 .1a17 17 0 0 1-2.2 3.7c-.4.5-1.1.8-1.7.8h-1Zm43-4c-1.5-1.1-2.3-2.4-1.4-2.4a12 12 0 0 1 3.5 3.2c0 .5-.4.4-2-.9zm-32.3-6.4-.8-.3.9-1.2c1-1.4 1.4-1.5 1.6-.5.1.5.5.7 1.1.7.6 0 .9.2.7.4 0 .2-.4.3-.7.2-.2-.1-.8.1-1.2.5-.7.4-1 .5-1.6.2z" style="fill:#b73419;stroke-width:.352778" transform="translate(-44.5 -173.2)"/>
  <path d="M51.9 238.1c-.8-1-.7-1.3.4-1.3.6 0 1.7-.2 2.6-.5 1-.4 1.6-.5 1.7-.2.2.3.4.2.5-.2.2-.4.5-.5 1.1-.4.5 0 .8 0 .7-.1-.1-.2 1.7-.9 4-1.6l6.7-2.1c2.4-.8 2.5-.8 2.7-.1 0 .3 0 .7-.3.8L52.5 239l-.6-.8zm8.7-2.6c.2-.3 0-.4-.1-.3-.2.1-.4.4-.4.6 0 .5.3.4.5-.3zm1.7-.5c0-.2-.3-.3-.7-.3-.5 0-.5 0 0 .3.6.5.7.5.7 0zm10.5-3c-.6-.5-.3-1 1-1.7 1.6-.7 1.8-.7 1.8.2 0 .7-1.5 1.5-2 1.2-.2-.1-.4 0-.5.2 0 .2-.2.2-.3 0zm4.1-1.8c.7-.5.7-.5-.1-.3-.6.2-.8.1-.7 0 .4-.7 2-1 2.8-.5.8.4.8.5-.4.9-1.8.6-2.5.6-1.6 0zm3.4-1.1c0-.2-.4-.3-.8-.2h-.6s.5-.3 1-.3c2.3-.5 4.4-1 5-1.4.5-.2.6-.2.7.1 0 .3.3.1.7-.3.5-.7.7-.7.7-.3 0 .3-.4.7-.7 1-.4.1-.8.2-.8 0l-.4.2a15 15 0 0 1-4.4 1.5c-.2 0-.4-.2-.4-.3zm8.6-2.5c.1-.2 0-.4-.4-.4-.5 0-.5 0-.1-.5.5-.6 1.4-.7 1.4-.2 0 .2.3.4.8.4.6 0 .6 0 .2.3-1 .6-2.2.8-2 .4zm2.8-1c0-.3.1-.6.5-.8.6-.3.8-.3.8.1 0 .6-1 1-1.3.6zm3.8-1.9c0-.2.4-.5.6-.6.3 0 .4 0 .3.3 0 .3-.3.5-.6.6-.3.1-.4 0-.3-.3zm2.8-.9c.2-.2.5-.4.6-.3.2.2-.3.9-.7.9-.3 0-.2-.2 0-.6zm2.4 0 .7-.5c.4-.2.7-.2.7 0s-.3.4-.7.5h-.7zm3.4-1.5c0-.2.4-.4.7-.4.3 0 .4.2.3.4 0 .2-.4.3-.7.3-.3 0-.5-.1-.3-.3zM47.8 218c0-.4.5-.6 1.7-.8 3.2-.4 4.3-.3 2.3.3-2.8 1-4 1-4 .5zm10.8-4c-3.3-.8-5.5-1.9-5.5-2.8 0-.6.2-.7 1.8-.6 3.1.3 4.6-.2 8-2.3 3.8-2.4 3.7-2.3 3.3-3.2-.5-1 .1-1 1.3-.2 1.3 1 5.8 1 8.1.3 1.9-.6 3.6-2.2 3.6-3.3 0-.5 0-.5.4 0 .3.4.3.4.6 0 .3-.5.4-.5.4 0 0 1 1.7 2.8 2.5 2.8.4 0 1.9-.6 3.3-1.2a70 70 0 0 1 4.4-2l2-.7.6.8c.9 1.2 1 2.4.5 3.2-.4.6-1.5 1-4.2 1.8-4.4 1-5.4 1.1-5.7.3-.1-.3-.9-1.1-1.7-1.7l-1.5-1L79 206c-2.2 2.3-3.7 2.7-7.8 2.4l-3-.2-1.3 1.9c-.7 1-1.2 2-1.2 2.2 0 .4-1.9 1.3-4 1.9-.6.1-1.9 0-3.1-.3zm7.2-3.4c.5-.6.4-.8-.2-1.3-.4-.4-.7-.3-1.4.1-.9.6-1.7 1.8-1.4 2 .3.4 2.7-.3 3-.8zm24.7-6c0-.1-.2-.3-.4-.3s-.3.2-.3.4.1.3.3.3c.2 0 .4-.1.4-.3zm22.6 0c0-.1.1-.3.3-.3.2 0 .3.2.2.4-.1.2-.3.3-.4.3l-.1-.3zm-47.4-4c-.2-.2-.3-.6-.3-1 0-.8.2-1 1.1-1 1.2 0 1.3.2.5 1.3-.6 1-1 1-1.3.7zm31 0-1.3-.3c-.6-.1-1.2-.7-1.7-1.6l-.7-1.3 1.1.5a6 6 0 0 0 5.8-.4c.9-.5 1.5-1.2 1.5-1.4 0-.3.3-.6.6-.7.8-.3 1.9.4 1.9 1.2v.9c.1.1-.4.3-1 .3-1.5.1-3 1.3-3 2.3 0 .6-.2.7-1.4.7l-1.8-.2zm-21.2-2.1-1.7-1 1-.8c.4-.4 1-.8 1.2-.8.2 0 .5-.5.6-1.1.3-1.5.6-1.6 1.7-.5 1.3 1.2 1.1 1.2 9.1.3 1-.1 1.7 0 1.7.2v.6l-2 .3c-1.8.1-4.2 1-5 2-.4.4-.7.5-1.5.3s-1.2-.1-2.2.5l-1.1.9-1.8-1zm1.6-1.2c0-1.2-.5-1.5-.8-.5-.2.8 0 1.5.5 1.5.1 0 .3-.4.3-1zm29.5.5c-1.5-1.2-2.2-2.3-1.3-2.3a12 12 0 0 1 3.5 3.2c0 .6-.4.3-2.2-1zm-15.3-1.2c-1-.5-1-.6-.6-1.3.8-1 .5-2.7-.6-3l-.8-.2.7-.4c.7-.3 1-.3 1.8.2 1 .6 1 .7.6 1.7-.6 1.3-.6 2.7 0 3.3.5.5.3.5-1.1-.3zm-15-6.5-.3-.3c.3.2 1 .4 1.4.4.4 0 .7.2.6.4-.4.5-.8.4-1.7-.5zm12.5-.6c-.8-.8-1.7-1.4-2-1.4-.5 0-.5-.1 0-1 .3-.6.4-1.3.3-1.5 0-.2 0-.3.2-.3s.7.5 1 1c.3.6.8 1.1 1 1.1.1 0 1 .4 1.7 1 1.2.7 1.3.8.5.6-1.2-.2-1.4 0-1 1 .5 1.3 0 1.1-1.7-.5z" style="fill:#77502b;stroke-width:.352778" transform="translate(-44.5 -173.2)"/>
  <path d="M47.8 218c0-.4.5-.6 1.7-.8 3.2-.4 4.3-.3 2.3.3-2.8 1-4 1-4 .5zm10.8-4c-3.3-.8-5.5-1.9-5.5-2.8 0-.6.2-.7 1.8-.6 3.1.3 4.6-.2 8-2.3 3.8-2.4 3.7-2.3 3.3-3.2-.5-1 .1-1 1.3-.2 1.3 1 5.8 1 8.1.3 1.9-.6 3.6-2.2 3.6-3.3 0-.5 0-.5.4 0 .3.4.3.4.6 0 .3-.5.4-.5.4 0 0 1 1.7 2.8 2.5 2.8.4 0 1.9-.6 3.3-1.2a70 70 0 0 1 4.4-2l2-.7.6.8c.9 1.2 1 2.4.5 3.2-.4.6-1.5 1-4.2 1.8-4.4 1-5.4 1.1-5.7.3-.1-.3-.9-1.1-1.7-1.7l-1.5-1L79 206c-2.2 2.3-3.7 2.7-7.8 2.4l-3-.2-1.3 1.9c-.7 1-1.2 2-1.2 2.2 0 .4-1.9 1.3-4 1.9-.6.1-1.9 0-3.1-.3zm7.2-3.4c.5-.6.4-.8-.2-1.3-.4-.4-.7-.3-1.4.1-.9.6-1.7 1.8-1.4 2 .3.4 2.7-.3 3-.8zm24.7-6c0-.1-.2-.3-.4-.3s-.3.2-.3.4.1.3.3.3c.2 0 .4-.1.4-.3zm-24.8-4c-.2-.2-.3-.6-.3-1 0-.8.2-1 1.1-1 1.2 0 1.3.2.5 1.3-.6 1-1 1-1.3.7zm31 0-1.3-.3c-.6-.1-1.2-.7-1.7-1.6l-.7-1.3 1.1.5a6 6 0 0 0 5.8-.4c.9-.5 1.5-1.2 1.5-1.4 0-.3.3-.6.6-.7.8-.3 1.9.4 1.9 1.2v.9c.1.1-.4.3-1 .3-1.5.1-3 1.3-3 2.3 0 .6-.2.7-1.4.7l-1.8-.2zm-21.2-2.1-1.7-1 1-.8c.4-.4 1-.8 1.2-.8.2 0 .5-.5.6-1.1.3-1.5.6-1.6 1.7-.5 1.3 1.2 1.1 1.2 9.1.3 1-.1 1.7 0 1.7.2v.6l-2 .3c-1.8.1-4.2 1-5 2-.4.4-.7.5-1.5.3s-1.2-.1-2.2.5l-1.1.9-1.8-1zm1.6-1.2c0-1.2-.5-1.5-.8-.5-.2.8 0 1.5.5 1.5.1 0 .3-.4.3-1zm14.2-.7c-1-.5-1-.6-.6-1.3.8-1 .5-2.7-.6-3l-.8-.2.7-.4c.7-.3 1-.3 1.8.2 1 .6 1 .7.6 1.7-.6 1.3-.6 2.7 0 3.3.5.5.3.5-1.1-.3zm14 .2c-.2-.3-.4-.7-.3-1 0-.1.3.1.5.6.5 1 .4 1.1-.2.4zm-29-6.7-.3-.3c.3.2 1 .4 1.4.4.4 0 .7.2.6.4-.4.5-.8.4-1.7-.5zm12.5-.6c-.8-.8-1.7-1.4-2-1.4-.5 0-.5-.1 0-1 .3-.6.4-1.3.3-1.5-.1-.2 0-.3.2-.2.3 0 .9.7 1.2 1.4.4.8 1.1 1.4 1.6 1.5.5.2.7.4.4.6-.2.2-.2.7 0 1.2.5 1.2 0 1-1.7-.6z" style="fill:#a7291a;stroke-width:.352778" transform="translate(-44.5 -173.2)"/>
  <path d="M48.4 217.9h.7c.1.1 0 .2-.4.2-.5 0-.5-.1-.3-.2zm9.4-4.2c-1.3-.3-2.6-.7-3-1-.8-.4-.7-.4 1-.7 1.2-.1 3.2-1 5-1.9 1.6-.8 3-1.5 3.2-1.4l-.7 1.2-1.4 1.8c-.4.8-.4.9 1.2.7 1.4-.2 1.6-.1 1.2.3a5 5 0 0 1-3.3 1.5l-3.2-.5zM66 209c-.6-.7-.6-.8-.1-1 .3-.2.4 0 .3.2-.2.2-.1.3.2.1.4-.3.3-2.3-.2-3.5-.2-.6 0-.5 1 .3 1.4 1 1.6 1 4.4 1 5.4-.2 7.8-1.1 7.9-3 0-.8 0-1 .3-.7.2.4.3.4.4 0 .1-.3.3-.1.4.3.1.5 0 .8-.1.7-.2-.1-.4.1-.5.6-1.2 3.5-6 5.4-10.5 4-1.2-.4-1.7-.4-1.7-.1l-.6 1.2-.6.7zm17.6-2.7c-.6-.7-.8-1-.4-1 .3 0 2-.8 3.9-1.8s3.9-1.7 4.4-1.7c1.8 0 3 2 2 3.2-.5.6-7 2.4-8.3 2.4-.3 0-1-.5-1.6-1zm7.1-.9c1.6-.6 2-1.2 1.3-2-.3-.5-.6-.5-1.9-.1-1.7.5-3.1 1.7-2.7 2.3.3.6 1.7.5 3.3-.2zm5.1-5c-1-.3-1.5-.7-1.8-1.3-.4-.9-.4-1 .2-.7.3.2 1.3.4 2.3.5 1.4.1 1.6.2 1.6 1 0 .9 0 .9-2.3.4zm-30.1-.6c0-.3.2-.4.5-.3.3.1.5.4.3.5-.3.5-.8.4-.8-.2zm11.3-1.6c.2-.4.3-1.5.2-2.6v-2c.2 0 .7.5 1.2 1.1 1 1.3 1.8 1.4 6.2.7a19 19 0 0 1 3.7-.2c.3 0 0 .2-.7.2a8 8 0 0 0-5 1.7c-1 .8-1.2.9-2.5.5-1.2-.3-1.4-.2-2.1.5-1 1-1.5 1.1-1 .1zm14-2c-.2-.2 0-1.2.2-2.2.3-1 .6-1.7.7-1.5.2.3.1 1 0 1.7a4 4 0 0 0-.2 1.8c.2.5-.4.7-.8.2z" style="fill:#972418;stroke-width:.352778" transform="translate(-44.5 -173.2)"/>
  <path d="M59.3 214c-.7-.2-1.3-.5-1.3-.7 0-.3 3.6-3 3.8-2.8l-.2.8c-.7 1.3-.5 1.9.7 1.9.8 0 1 0 .8.3-.5.5-2.2.7-3.8.4zm7.8-6.5a14 14 0 0 0-.5-2c-.2-.5 0-.5.7.2 1 .9 1.3 1 4.7 1 2.4 0 3.8.1 4.1.4 1.4 1.4-4.7 1.9-7.9.6-.4-.2-.6 0-.7.4-.1.4-.2.2-.4-.6zm17.2-.8c-.4-.4-.5-.6-.3-.5.2.1.6 0 .9-.3.4-.5.5-.5.7.2.1.7.4.9 1 .8.8 0 .8 0 .2.2-1.2.6-1.8.5-2.5-.4zm10.8-6.5c-.6-.2-1-.8-1-1.3l.6.1c.4.2 1 .4 1.4.4.3 0 .8.2 1 .5.5.5.4.6-.5.5a6 6 0 0 1-1.5-.2zM77.5 196v-2l1.3 1.4c1.2 1.2 1.4 1.2 3 1h1.7l-1 .8c-1 .9-1 1-2.5.4-1.2-.5-1.5-.5-2-.1-.3.4-.4.1-.5-1.5zm13.5-.6c.9-2.7 1.3-3.1.8-.8-.3 1-.6 1.6-.7 1.6-.2 0-.2-.3 0-.8z" style="fill:#891b12;stroke-width:.352778" transform="translate(-44.5 -173.2)"/>
  <path d="M72 208.3h.8c0 .2-.1.3-.5.2-.4 0-.5 0-.2-.2zm-4-.9c-.7-.3-1.3-1.2-1-1.5l1.2 1c1.2 1 1.1 1.2-.2.5zM78.6 197c-.5 0-.8-.5-1-1.4v-1.4c.1-.1.2 0 .2.2s.5 1 1 1.6c.7.7 1 1.3.9 1.2-.2 0-.7 0-1-.2z" style="fill:#741a0e;stroke-width:.352778" transform="translate(-44.5 -173.2)"/>
</svg>