<svg xmlns="http://www.w3.org/2000/svg" width="277.3" height="277.3" viewBox="0 0 73.4 73.4">
  <path d="M44.7 210.2v-36.7h73.4v73.3H44.7Z" style="fill:#fefefe;stroke-width:.352778" transform="translate(-44.5 -173.2)"/>
  <path d="M76.8 241.1a16 16 0 0 1-6.8-4.3 17.7 17.7 0 0 1-3-8.1 164.9 164.9 0 0 1-6-27.6c0-1.6 0-2-1.3-3.8a7.1 7.1 0 0 1-1.5-4.7c-.1-2.2 0-2.8.8-4.4a12 12 0 0 1 5.3-5.3 35 35 0 0 1 17.9-4.1c14.2 0 24.4 5.5 24.4 13.2a10 10 0 0 1-2 6.3c-.8.8-1 1.3-1 3.3a168.3 168.3 0 0 1-5.8 27.3c-.5 2.4-1.3 5-1.7 6a15 15 0 0 1-5.4 5.2c-3.8 2-9.8 2.4-13.9 1zm12-39.3 1.3-.4c2.5-.1 9.3-2.7 9.3-3.4 0-.8-1-1-2-.3a25 25 0 0 1-7 2.4l-1.6.5c0 .1-2.7.2-6 .2a29 29 0 0 1-18.8-5.3c.1-.1-.2-.8-.7-1.6-2.3-3.5-.8-7.5 4.1-10.4 2-1.2.5-.7-2 .6-3 1.4-4.4 3.3-4.9 6.2a13.3 13.3 0 0 0 2.3 5.9c-.4.1 1 1.6 2.7 2.6 2.6 1.6 6 2.8 9.9 3.3a79 79 0 0 0 13.5-.3zm11.6-5c-.3-.3-.8-.4-1.2-.3-.5.3-.5.3 0 .7 1 .7 1.9.4 1.2-.4zm1.9-.8c0-.2-.3-.3-.6-.3s-.5-.2-.5-.4.1-.3.3-.2c.5.3 1.3-.4.9-.8-.3-.3-.6 0-1.3.6-.5.6-.8 1.2-.7 1.3.3.3 1.9.2 1.9-.2zm1.6-2.3h-.7c-.2.1-.2.2.3.2.3 0 .5 0 .4-.2zm-.8-.9c.2-.2.5-.2.8-.1.5.1 1-.7.7-1.1-.2-.3-2 .6-2.1 1.1-.3.6.3.7.6.1zm-1.7-7c-.3-.3-.7-.3-.8-.2-.4.3.7 1 1 .7.2-.1.1-.4-.2-.6zm-1.8-2c0-.4-.4-.7-1-1l-1.4-.7c-.2-.2-.4-.2-.5.1 0 .2-.3.3-.6.2-.2 0 0 .2.5.6.7.6.9.6 1.4.3.4-.4.5-.4.2 0-.3.5.4 1.5 1 1.3.2 0 .4-.4.4-.7zM74 181.3c4-1 15-1.1 16.5-.2.2 0 .3 0 .3-.3s0-.4-.2-.3c-.2 0-.3 0-.4-.3-.1-.3-1.1-.5-2.8-.6l-4.6-.3c-2.2-.2-8.3.4-9.5 1-1.3.5-3.8 2.2-3 2l3.7-1zm22.2.6-1.3-.5c-1-.2-1.4-.2-1.4 0 .2.7.8 1 1.7.7a6 6 0 0 0 1-.2zm-3.5-.8c-.5-.5-1-.7-1-.2 0 .2.2.4.6.5l.7.2c.1 0 0-.2-.3-.5z" style="fill:#faf8e9;stroke-width:.352778" transform="translate(-44.5 -173.2)"/>
  <path d="M77.4 241.2c-2.9-.8-5.2-2.2-7-4.3-1.8-2-2.4-3.4-3.4-8.6a151.2 151.2 0 0 1-5.8-26.5c0-2-.2-2.7-1-4-4-5.7-2-11.7 5.4-15.5 2.8-1.5 7.7-3 8.7-2.7a61.7 61.7 0 0 0-9.5 4c-2.3 1.1-5.2 5.2-5.2 7.3 0 1.6 1.5 4.9 3 6.4 1.9 2 2.9 2.5 6.4 3.7a35 35 0 0 0 14 1.6c5.7-.2 11.1-1.4 15.3-3.5 4.1-2 7.1-5.6 7.1-8.6 0-1.2-1.7-4.2-3.2-5.5a29.3 29.3 0 0 0-14.4-5.6c-1.7-.2-5.2-.3-8-.2-2.8 0-4.2 0-3.3-.1 4.5-.8 13.2-.1 18 1.3 5 1.5 9.6 4.6 11 7.6a9.7 9.7 0 0 1-1.3 10.4c-.5.7-.7 1.4-.8 2.9l-.2 3.7a242.6 242.6 0 0 1-5.3 23.3c-.6 2.6-1.4 5.4-1.9 6.4a14 14 0 0 1-5.2 5.3 20.6 20.6 0 0 1-13.4 1.2zM66.6 209c-.2-.3-.7-.5-1-.5-.5 0-.5 0 .1.5 1 .7 1.5.7 1 0zm9.3-8.7a27.2 27.2 0 0 1-9.6-3.7c-9.8-6.8-.8-16 15.8-16a27 27 0 0 1 15.8 3.9c7 4.5 5.8 10.5-3 14.1a29.6 29.6 0 0 1-13.4 2c-3 0-5.5-.1-5.6-.3zm24.8-3.5c-.2-.1 0-.3.1-.3.2 0 .4.2.4.3 0 .2 0 .4-.2.4l-.3-.4z" style="fill:#f3ebd7;stroke-width:.352778" transform="translate(-44.5 -173.2)"/>
  <path d="M77 241c-3-1-5-2.1-6.8-4.2-1.6-1.9-2.4-4-3.4-9.4a305.7 305.7 0 0 1-5.4-23.3 31.4 31.4 0 0 1 3.4 5.9c-.2.1-.3.8-.3 1.4a76 76 0 0 0 2.3 10.6c.5 1.7 2 4 2 3 0-.2 0-.3.3-.2.5.3.6-.2.7-2 0-1 .2-1.7.3-1.7.1 0 .2-.6.2-1.3 0-.8.1-1.7.3-2.2.2-.6.1-1-.3-1.7-.3-.5-.4-.8-.1-.8.5 0-1.3-2.4-2.7-3.6-1-1-1-1-.2-.7.5 0 1 .3 1.1.5.3.4 4.2 1.3 4.2 1 0-.1-1-.8-2.4-1.5-5.9-3.2-8.2-5.8-8.7-9.5a7.9 7.9 0 0 0-1.4-3.5c-3-4.3-2.5-9 1.3-12.7a27 27 0 0 1 9.1-4.7c.8-.2.2.2-1.6 1-4 1.6-5 2.2-6.8 3.8-1.7 1.6-2.9 3.7-2.9 5.4 0 1.3 1.3 5 2.2 6.2 2.1 3 9.4 5.6 17.2 6 8.9.6 19.8-2.4 24-6.5 2.8-2.8 3.5-5.4 2-8.3-2.5-5.1-10.3-8.4-21.2-8.9l-5.7-.2H82c6.9-.2 12.3 1 17.2 3.5 5 2.6 7.3 5.6 7.3 9.8a9 9 0 0 1-2.3 6.2c-.7.9-.9 1.5-.9 3 0 .9-.2 2.3-.5 3-.7 1.5-.7 2-.1 1.7.2-.2.3 0 .2.6a832 832 0 0 0-3.7 16 63 63 0 0 0-1.4 5.8c-.5 2.4-1.3 5.2-1.8 6.2-2.8 5.8-11.6 8.8-19 6.4zm-1-40.7c0-.1-1-.5-2.3-.8-5-1.3-8.8-3.6-10.5-6.5-2.9-5 2.4-10 12.4-12a45 45 0 0 1 15.6.5c2.7.7 4.7 1.8 4.7 2.4 0 .7 1.7 2 2.3 1.8.3-.1.6 0 .7.5.4 1.3 1.7 2.5 2.1 2 .3-.2.5 0 .7.5 0 .4 0 .9-.2 1-.2.2-.1.3.2.5.9.3.3 2.3-1.2 4.2-1.9 2.3-4.8 4-9.4 5.2-2.3.6-4 .8-8.9.9-3.3 0-6 0-6.1-.2zm-2.4-20.7h.9c.2 0 0 .2-.5.2s-.7-.1-.4-.2zm2-.4h1c.2.1 0 .2-.6.2s-.8 0-.5-.2z" style="fill:#ebe6d6;stroke-width:.352778" transform="translate(-44.5 -173.2)"/>
  <path d="M78 241.4c-4.2-1.2-7.9-3.9-9.2-6.8A37 37 0 0 1 67 229l-1.5-5.9c-.4-1-1.4-5.3-2.3-9.7l-1.9-8.6c0-.4.7.5 1.8 2.1s1.8 3 1.6 3.2c-.4.5-.4 2.6.2 4.7l1.1 5c.7 3.8 1.2 4.9 2.9 6.6 2 2.2 5 2.7 5 1 0-.5-.1-1-.3-1-.5 0-.5-1.2 0-2 .2-.5.3-.9.2-1-.1-.1-.4.3-.7.9-.2.6-.5 1.1-.7 1.1-.5 0-1.3-2.1-1.3-3.5 0-1.3.2-1.7 1.2-2.7.9-.8 1.2-1.3 1-1.8 0-.5-.3-.7-.4-.6-.2 0-.2-.2-.1-.5 0-.4 0-.8-.2-.8-.5 0-2.8-2-3.3-2.9-.3-.6-.3-.7.3-.4.8.3 3 .5 3 .2l-2.5-1.5c-6-3.3-8.2-5.8-8.7-9.6a6.3 6.3 0 0 0-1.4-3.6c-1.5-2-2-4-1.8-6.4.4-4.4 3.8-7.7 10.3-10.2 3.4-1.2 3.6-1 .3.4-4 1.6-5 2.2-6.8 3.8-1.7 1.6-2.9 3.7-2.9 5.3 0 2 1.5 5.6 3 7 4.2 4.3 15.7 6.6 24.8 5 4.6-.7 10.7-2.6 12.9-4 2.1-1.3 4.4-3.7 5-5.2 1.5-3.7-.8-8-5.7-10.6l-1.7-1a18 18 0 0 1 5.6 3.3c2.3 2.2 3.1 3.7 3.3 6.4.2 2.9-.2 4.4-1.9 6.6-1 1.3-1.2 1.9-1.2 3.3 0 1-.2 2.4-.5 3-.6 1.6-.7 2.1-.2 1.8.2-.1.4-.1.4 0a356.5 356.5 0 0 1-7 28.6c-2.5 5.4-11 8.5-18 6.7zM67 211c-.3-.4-.3-.5.3-.3.9.2 1.3.8.6.8-.3 0-.7-.3-.9-.5zm9-10.8c0-.2-1-.5-2.3-.8-5-1.2-8.7-3.6-10.5-6.5-3.6-6.2 5.7-12.5 18.8-12.5 4.3 0 9 .7 10.2 1.6l1 .5c.5 0 2.3 1.1 3.2 2.1.6.6 1.3 1.1 1.7 1.1.3 0 .6.2.6.4 0 .1.6.9 1.3 1.6 1.2 1.2 1.3 1.5 1.3 3.3 0 2.4-1 4-3.4 5.6a30 30 0 0 1-17 3.9l-4.8-.3zm18.7-19.5c-1-.3-1.3-.5-.8-.4 1.1.2 3.5 1.1 2.9 1.1l-2.1-.7zM92 180h.6c.1.2 0 .3-.4.2-.4 0-.5 0-.2-.2zm-1.8-.3c.2-.1.6-.1.8 0 .3 0 0 .2-.4.2-.5 0-.7-.1-.4-.2zm-14.5-.4h.7c.1.2 0 .2-.5.2-.4 0-.5 0-.2-.2zm12.2 0h1c.3.1 0 .2-.6.2s-.8 0-.4-.2zm-7.4-.4h3.9c1 .1 0 .2-2 .2-2.2 0-3 0-2-.2z" style="fill:#fbe6b4;stroke-width:.352778" transform="translate(-44.5 -173.2)"/>
  <path d="M78 241.4c-4.2-1.2-7.9-3.9-9.2-6.8A37 37 0 0 1 67 229a240.9 240.9 0 0 1-5.4-23.5l1.2 1.4a6 6 0 0 1 1.3 2.8c0 .6.2 2.2.5 3.6l1.4 6.4c.8 4 1.5 5.5 3.3 7.2 1 1 3 1.7 4 1.4.7-.1 1-1.8.3-1.8-.5 0-.5-1.3 0-2.2.2-.4.3-.8.2-1l-.7 1c-.2.6-.5 1.1-.7 1.1-.5 0-1.3-2.1-1.3-3.5 0-1.3.2-1.7 1.2-2.7.9-.8 1.2-1.3 1-1.8 0-.5-.3-.7-.4-.6-.2 0-.2-.1-.1-.5 0-.5 0-.8-.6-1-.8-.2-3.4-2.9-3-3.2l.8.2c.6.4 2.7.3 3.1 0 .1-.1-1-.7-2.2-1.3-6.2-3-8.5-5.4-9.3-10-.2-1-.8-2.3-1.6-3.3-1.5-2-2-4-1.8-6.4.4-4.4 3.8-7.7 10.3-10.2 3.6-1.3 3.5-1-.1.6-5 2-7.7 4.1-8.8 6.6-.6 1.3-.7 5-.1 5 .2 0 .3.2.1.4 0 .2 0 .3.2.3s.3.3.2.7c-.3 1 3 4.1 5.5 5.3a39.3 39.3 0 0 0 28.8.9C103 198 107 193 104.8 188a14 14 0 0 0-5.6-5.4l-1.7-1a18 18 0 0 1 5.6 3.3c2.3 2.2 3.1 3.7 3.3 6.4.2 2.9-.2 4.4-1.9 6.6a4.6 4.6 0 0 0-1.2 3.5 8 8 0 0 1-1 3.8c-1.3 2.4-1.3 2.4-.4 2.1.6-.1.7 0 .5 1a241 241 0 0 1-4.6 20 38 38 0 0 1-1.8 6.3c-2.5 5.4-11 8.5-18 6.7zM67 211c-.3-.4-.3-.5.3-.3.9.2 1.3.8.6.8-.3 0-.7-.3-.9-.5zm9-10.8c0-.2-1-.5-2.3-.8-5-1.2-8.7-3.6-10.5-6.5-1.5-2.6-.6-5.8 2.3-8 3.7-2.8 9.9-4.5 16.5-4.5 4.3 0 9 .7 10.2 1.6l1 .5c.5 0 2.3 1.1 3.2 2.1.6.6 1.3 1.1 1.7 1.1.3 0 .6.2.6.4 0 .1.6.9 1.3 1.6 1.2 1.2 1.3 1.5 1.3 3.3 0 2.4-1 4-3.4 5.6a30 30 0 0 1-17 3.9l-4.8-.3zm-4.3-3.6c.2-.2.2-.3-.2-.3-.7 0-1.1.6-.8 1.1.2.3.3.3.4 0l.6-.8zm2.3.6c0-.3-.1-.6-.3-.6-.1 0-.3.3-.3.6s.2.5.3.5c.2 0 .3-.2.3-.5zm22.5-2.2h-.7c-.2.1-.2.2.2.2s.6 0 .5-.2zm-4.1-.6c0-.3-.3-.6-.6-.6-.5 0-.5.1-.1.6l.5.5.2-.5zm2.7 0c0-.4-.1-.5-.5-.2-.3.2-.5.5-.5.6h.5c.3 0 .5-.2.5-.4zm-6.3-1.7c-.1-.5 2-1.1 2.8-.8.2 0 .4.4.2.6-.2.4-.1.4.2 0l1.4-.5c.5 0 .7 0 .4-.2a21 21 0 0 1-2.6-1c-.3 0-.5-.3-.4-.5.1-.2 0-.4-.3-.4s-.6-.1-.6-.3c0-.2-.4-.4-.9-.4-.4 0-1 .2-1 .4-.2.2-.6.3-1 .3-.3 0-.6.2-.6.4s-.4.4-.9.4-1 .1-1.1.4c-.3.4.9 1.4 1.4 1.2 1.6-.7 1.7-.7 1.9 0 .2.8 1.2 1.2 1 .4zm-4.2-1.3c0-.2.3-.4.7-.4.4 0 .7.2.7.4s-.3.3-.7.3c-.4 0-.7-.1-.7-.3zm3.1 0c-.3 0-.6-.2-.6-.4 0-.5.5-.4 1 .2.3.3.4.5.3.5l-.7-.2zm1-.3c-.4-.4-.2-.8.5-.8.9 0 1.2.6.5.8-.7.3-.7.3-1 0zm2.5 1.8h-.7c-.2 0-.2.2.3.2.3 0 .5 0 .4-.2zm-4.5-3.6c.2-.2.3-.5.2-.9-.2-.5-.3-.5-.8 0-1 1-.5 1.6.6.9zm8-8.6c-1-.3-1.3-.5-.8-.4 1.1.2 3.5 1.1 2.9 1.1l-2.1-.7zM92 180h.6c.1.2 0 .3-.4.2-.4 0-.5 0-.2-.2zm-1.8-.3c.2-.1.6-.1.8 0 .3 0 0 .2-.4.2-.5 0-.7-.1-.4-.2zm-14.5-.4h.7c.1.2 0 .2-.5.2-.4 0-.5 0-.2-.2zm12.2 0h1c.3.1 0 .2-.6.2s-.8 0-.4-.2zm-7.4-.4h3.9c1 .1 0 .2-2 .2-2.2 0-3 0-2-.2z" style="fill:#e6dcc7;stroke-width:.352778" transform="translate(-44.5 -173.2)"/>
  <path d="M78.6 241.5c-2.7-.5-6.5-2.6-8.2-4.5-1.7-2-2.4-3.6-3.4-9a251 251 0 0 1-5.3-22.6c0-.2.5.5 1.2 1.4 1 1.5 1.3 2 1.3 3.7 0 1 .1 2.5.3 3.2l1.2 5.5c.5 2.4 1.2 5 1.6 5.7.8 1.6 2.8 3.4 5 4.6 1.8 1 2.4 1 2.4 0 0-.3.4-1 .8-1.3l.7-.7-1-.4a3 3 0 0 1-1.5-.9c-.6-.7 0-2.3 1.2-3 1-.7 1-.7.2-.5-1.2.3-2 1.1-2.2 2-.1.7-.2.7-1-.4-.3-.7-.7-1.8-.7-2.6 0-1 .3-1.5 1.4-2.5.8-.7 1.7-1.3 2-1.3.7 0 .6-.4-.6-2.1-1.2-1.8-1.2-2.1-.5-2.1.9 0 .8-.9-.1-1.5-.5-.4-1.8-1-2.9-1.5-4.1-2-7.2-4.6-8.1-7.1-.2-.6-.6-1.8-.7-2.8-.2-1-.7-2-1-2.4a9.3 9.3 0 0 1-2-8.8 11 11 0 0 1 4.8-6c1-.6 1.1-.6.3 0-1.5 1-3.6 3.4-4.1 4.6-1 2.5-.3 6.4 1.7 9a24 24 0 0 0 9.6 5c2.5.6 3.6.7 9.4.7a34 34 0 0 0 13.4-1.8c7.4-2.2 11.6-6 11.6-10.3 0-3-2.3-6-6.1-8-1-.6-1.9-1-1.8-1.2.3-.3 4.4 2.2 5.8 3.6 3.8 3.7 4.2 9 1 13a4 4 0 0 0-1 3c0 1.2-.3 2.4-1 4l-1.1 2.3h.7c.6-.2.7-.1.6.6a256.9 256.9 0 0 1-4.8 20.8c-.5 2.2-1.2 4.8-1.7 5.8-2.4 5.2-10.1 8.2-17.4 6.8zM92.3 214c-.2-.3-.2-.2-.3.2 0 .4.1.6.2.4.2 0 .2-.4 0-.6zm-15.5-14a39 39 0 0 1-4.6-1c-8.8-3-12.2-9-7.4-13.4 2.2-2 4.9-3.2 8.6-4.1a34 34 0 0 1 16.8 0c4.3 2.4 6.3 3.8 8.8 6.3 2.3 2.4 2.6 3.7 1 6.4-2.4 4.5-13.8 7.4-23.2 5.8zm-5.1-3.4c.2-.2.2-.3-.2-.3-.7 0-1.1.6-.8 1.1.2.3.3.3.4 0l.6-.8zm2.3.6c0-.3-.1-.6-.3-.6-.1 0-.3.3-.3.6s.2.5.3.5c.2 0 .3-.2.3-.5zm22.5-2.2h-.7c-.2.1-.2.2.2.2s.6 0 .5-.2zm-4.1-.6c0-.3-.3-.6-.6-.6-.5 0-.5.1-.1.6l.5.5.2-.5zm2.7 0c0-.4-.1-.5-.5-.2-.3.2-.5.5-.5.6h.5c.3 0 .5-.2.5-.4zm-6.3-1.7c-.1-.5 2-1.1 2.8-.8.2 0 .4.4.2.6-.2.4-.1.4.2 0l1.4-.5c.5 0 .7 0 .4-.2a21 21 0 0 1-2.6-1c-.3 0-.5-.3-.4-.5.1-.2 0-.4-.3-.4s-.6-.1-.6-.3c0-.2-.4-.4-.9-.4-.4 0-1 .2-1 .4-.2.2-.6.3-1 .3-.3 0-.6.2-.6.4s-.4.4-.9.4-1 .1-1.1.4c-.3.4.9 1.4 1.4 1.2 1.6-.7 1.7-.7 1.9 0 .2.8 1.2 1.2 1 .4zm-4.2-1.3c0-.2.3-.4.7-.4.4 0 .7.2.7.4s-.3.3-.7.3c-.4 0-.7-.1-.7-.3zm3.1 0c-.3 0-.6-.2-.6-.4 0-.5.5-.4 1 .2.3.3.4.5.3.5l-.7-.2zm1-.3c-.4-.4-.2-.8.5-.8.9 0 1.2.6.5.8-.7.3-.7.3-1 0zm2.5 1.8h-.7c-.2 0-.2.2.3.2.3 0 .5 0 .4-.2zm-4.5-3.6c.2-.2.3-.5.2-.9-.2-.5-.3-.5-.8 0-1 1-.5 1.6.6.9zm-21.3-7 1-.5c.4 0 .2.2-.8.7-.9.4-.9.4-.2-.1zm2.3-1c.5-.3 1.1-.5 1.4-.5.3 0 0 .2-.7.5-1.5.7-1.9.7-.7 0zm28.2-.2c-.3-.2-.4-.3-.2-.3l1 .3c.2.2.3.4 0 .4l-.8-.4zm-2.5-1 .6.1c.2.1 0 .2-.4.2s-.5-.1-.2-.2zM92 180h.6c.1.2 0 .3-.4.2-.4 0-.5 0-.2-.2zm-3.6-.7h.7c.1.2 0 .2-.5.2-.4 0-.5 0-.2-.2zm-4-.3h1.2l-.6.1c-.7 0-1 0-.7-.1z" style="fill:#d8d0c5;stroke-width:.352778" transform="translate(-44.5 -173.2)"/>
  <path d="M78.4 241.4c-4.2-1-7.7-3.3-9.4-6.4-.5-1-1.3-3.6-1.9-6.3a247.3 247.3 0 0 1-5.4-23.3c0-.2.5.5 1.2 1.4 1 1.5 1.3 2 1.3 3.7 0 1 .1 2.5.3 3.2l1.2 5.5c.5 2.4 1.2 5 1.6 5.7 1.3 2.6 5.9 5.8 7.3 5.2l1.1-.3c.3 0 .7-.6 1-1.2.4-1 .4-1.1-.7-1.3-.6-.1-1.5-.5-2-.9-.7-.5-.7-.8-.4-1.6a4 4 0 0 1 1.7-1.9c1-.6 1.1-.7.5-.6-1.4.4-2.6 1.4-2.8 2.3-.3.9-.3.9-1-.3a6 6 0 0 1-.8-2.6c0-1 .3-1.5 1.4-2.5.8-.7 1.7-1.3 2-1.3.8 0 .6-.7-.6-2.3-1.1-1.5-1.3-2-.5-2 .9 0 .8-.8-.1-1.4-.5-.4-1.8-1-2.9-1.5-4.1-2-7.2-4.6-8.1-7.1-.2-.6-.6-1.8-.7-2.8-.2-1-.7-2-1-2.4-1-1.2-2.2-3.6-2.4-5.3-.5-3.3 2-7.8 5.2-9.5 1-.6 1.1-.6.3 0-1.5 1-3.6 3.4-4.1 4.6-1 2.5-.3 6.4 1.6 9a22 22 0 0 0 10 5.1c1 .4 2 .7 2.2.9a53.2 53.2 0 0 0 25.7-4c2.9-1.5 5.4-4.2 6-6.5.8-2.7.3-4.6-2.2-7.4l-1.2-1.4 1.5 1.4a9 9 0 0 1 3 6c.3 2.3-.5 5-2 6.9a4 4 0 0 0-1 3c0 1.2-.3 2.4-1 4l-1.1 2.3h.7c.6-.2.7-.1.6.6a225.4 225.4 0 0 1-4.6 19.7c-.9 4.4-1.6 6.6-2.7 8.3-3.1 4.5-10.1 6.7-16.8 5.3zm13.8-27.6c0-.3-.3-.5-.4-.4v.8c.2.3.4.5.5.4v-.8zM78.3 205l-1.9-.7c-.5-.4-1-.4-1.8.1-.7.4-.7.4.3.6l1.4.4 2 .1h1.5l-1.5-.5zm-1.5-4.9a39 39 0 0 1-4.6-1c-8.8-3-12.2-9-7.4-13.4 2.2-2 4.9-3.2 8.6-4.1a34 34 0 0 1 16.8 0c4.3 2.4 6.3 3.8 8.8 6.3 2.3 2.4 2.6 3.7 1 6.4-2.4 4.5-13.8 7.4-23.2 5.8zm-5.1-3.4c.2-.2.2-.3-.2-.3-.7 0-1.1.6-.8 1.1.2.3.3.3.4 0l.6-.8zm2.3.6c0-.3-.1-.6-.3-.6-.1 0-.3.3-.3.6s.2.5.3.5c.2 0 .3-.2.3-.5zm22.5-2.2h-.7c-.2.1-.2.2.2.2s.6 0 .5-.2zm-4.1-.6c0-.3-.3-.6-.6-.6-.5 0-.5.1-.1.6l.5.5.2-.5zm2.7 0c0-.4-.1-.5-.5-.2-.3.2-.5.5-.5.6h.5c.3 0 .5-.2.5-.4zm-6.3-1.7c-.1-.5 2-1.1 2.8-.8.2 0 .4.4.2.6-.2.4-.1.4.2 0l1.4-.5c.5 0 .7 0 .4-.2a21 21 0 0 1-2.6-1c-.3 0-.5-.3-.4-.5.1-.2 0-.4-.3-.4s-.6-.1-.6-.3c0-.2-.4-.4-.9-.4-.4 0-1 .2-1 .4-.2.2-.6.3-1 .3-.3 0-.6.2-.6.4s-.4.4-.9.4-1 .1-1.1.4c-.3.4.9 1.4 1.4 1.2 1.6-.7 1.7-.7 1.9 0 .2.8 1.2 1.2 1 .4zm-4.2-1.3c0-.2.3-.4.7-.4.4 0 .7.2.7.4s-.3.3-.7.3c-.4 0-.7-.1-.7-.3zm3.1 0c-.3 0-.6-.2-.6-.4 0-.5.5-.4 1 .2.3.3.4.5.3.5l-.7-.2zm1-.3c-.4-.4-.2-.8.5-.8.9 0 1.2.6.5.8-.7.3-.7.3-1 0zm2.5 1.8h-.7c-.2 0-.2.2.3.2.3 0 .5 0 .4-.2zm-4.5-3.6c.2-.2.3-.5.2-.9-.2-.5-.3-.5-.8 0-1 1-.5 1.6.6.9zm-21.3-7 1-.5c.4 0 .2.2-.8.7-.9.4-.9.4-.2-.1zm2.3-1c.5-.3 1.1-.5 1.4-.5.3 0 0 .2-.7.5-1.5.7-1.9.7-.7 0z" style="fill:#e9d3b1;stroke-width:.352778" transform="translate(-44.5 -173.2)"/>
  <path d="M78.4 241.4c-4.2-1-7.7-3.3-9.4-6.4-.5-1-1.3-3.6-1.9-6.3-.5-2.5-1.2-5-1.4-5.6-.3-.6-1.3-4.5-2.1-8.7l-1.8-8.3c0-.4.2 0 .7.7.5.8 1 1.9 1 2.4a151 151 0 0 0 3.3 15.3c.7 1.5 3.1 3.8 5.5 5 1.9 1 2 1 3 .6a4 4 0 0 0 1.4-1.5c.4-1 .4-1.1-.7-1.3-.6-.1-1.5-.5-2-.9-.7-.6-.7-.7-.2-1.8a3 3 0 0 1 1.6-1.7l1-.6c-.1-.1-.8 0-1.6.4-1.2.5-1.6.8-1.7 1.6-.3 1.4-1 .8-1.5-1.3-.6-2.4.5-4.1 3.3-5l1.2-.5-1.2-1.7-1.2-1.9H76l2.3.1-1.1-.7-1.4-.7c-.6 0-6.2-2.4-7.9-3.4-3.7-2.2-5.5-4.5-6.3-8.3a6 6 0 0 0-1-2.4c-.9-.8-2.2-3.8-2.2-5 0-1.1 0-1 .6.5 1.1 3.7 4.8 6.2 12.2 8.3 1 .4 2 .7 2.2.9a53.2 53.2 0 0 0 25.7-4c2.9-1.5 5.4-4.2 6-6.5.8-2.7.3-4.6-2.2-7.4l-1.2-1.4 1.5 1.4c2.3 2.2 3 3.7 3 6.9 0 2.7-.5 4-2.2 6.2-.5.8-.8 1.6-.8 2.6 0 1.8-1.2 4.5-2.6 6.3-1.2 1.4-1 1.8.5.7l1.2-.8-.2 1.4a191.6 191.6 0 0 1-4.3 19.2c-.9 4.4-1.6 6.6-2.7 8.3-3.1 4.5-10.1 6.7-16.8 5.3zm13.8-27.6c0-.3-.3-.5-.4-.4v.8c.2.3.4.5.5.4v-.8zM78.3 205l-1.9-.7c-.5-.4-1-.4-1.8.1-.7.4-.7.4.3.6l1.4.4 2 .1h1.5l-1.5-.5zm-1.5-4.9c-5.2-.8-10.3-3.2-12.2-5.7-3.3-4.4-1.6-8.6 4.4-11.3a30 30 0 0 1 13-2.4c4.4 0 5 0 6.8.8 1 .5 1.8 1 1.8 1.2 0 .1.6.4 1.4.5.8.1 1.4.3 1.3.5 0 0 0 .4.3.6.3.3.5.4.5.3 0-.3.7.4 2.1 2.2.7.8 1.2 2 1.3 2.6 0 .6.3 1.3.6 1.7l1 1.5c.2.5.6.9.8.8h.1l-.2 1c0 .7-2 2.3-4.7 3.6a34 34 0 0 1-18.3 2.1zm-5.1-3.4c.2-.2.2-.3-.2-.3-.7 0-1.1.6-.8 1.1.2.3.3.3.4 0l.6-.8zm2.3.6c0-.3-.1-.6-.3-.6-.1 0-.3.3-.3.6s.2.5.3.5c.2 0 .3-.2.3-.5zm21.8-2.4c-.5-.2-.9-.5-.7-.7.1-.2 0-.3-.2-.2-.2.2-.4 0-.5-.2-.2-.2-.2 0-.2.3.1.7 1 1.2 2 1.2.3 0 .1-.2-.4-.4zm-3.3-.4a.9.9 0 0 0-.7-.6c-.5 0-.5.1-.1.6.2.2.5.5.7.5.2 0 .2-.3.1-.5zm-3.7-1.7c-.1-.5 2-1.1 2.8-.8.2 0 .4.3.2.6-.2.4-.1.4.2 0 .3-.2.9-.4 1.3-.4.5 0 .8-.2.8-.4s-.1-.3-.4-.1c-.2 0-.7 0-1.1-.2l-1.4-.5c-.3-.2-.6-.4-.4-.5 0-.2-.3-.6-.7-.8-.8-.4-1.2-.4-2.2 0-1.2.4-2 .2-1.2-.3.3-.2.4-.5.2-.8-.3-.5-.4-.4-1 0-.5.6-.5.8 0 1.1.7.6.6 1-.5 1.1-.5 0-1 .3-1 .5-.3.7 1.1 1.3 1.9 1 .8-.5 1.5-.2 1.5.4 0 .3.2.5.5.5s.5-.2.5-.4zm-4.2-1.3c0-.2.3-.4.7-.4.4 0 .7.2.7.4s-.3.3-.7.3c-.4 0-.7-.1-.7-.3zm3.1 0c-.3 0-.6-.2-.6-.4 0-.5.5-.4 1 .2.3.3.4.5.3.5l-.7-.2zm.8-.7c0-.2.3-.4.7-.4.4 0 .8.2.9.4.1.2-.2.3-.7.3-.5 0-1-.2-1-.3zm2.7 2.2h-.7c-.2 0-.2.2.3.2.3 0 .5 0 .4-.2zm7-3.1c0-.8.5-1.1.5-.5 0 .3-.1.7-.3.8-.2.1-.3 0-.2-.3z" style="fill:#f0cc91;stroke-width:.352778" transform="translate(-44.5 -173.2)"/>
  <path d="M78.4 241.4c-4.2-1-7.7-3.3-9.4-6.4-.5-1-1.3-3.6-1.9-6.3-.5-2.5-1.2-5-1.4-5.6-.3-.6-1.3-4.5-2.1-8.7l-1.8-8.3c0-.4.2 0 .7.7.5.8 1 1.9 1 2.4a151 151 0 0 0 3.3 15.3c.7 1.5 3.1 3.8 5.5 5 1.9 1 2 1 3 .6a4 4 0 0 0 1.4-1.5c.4-1 .4-1.1-.7-1.3-.6-.1-1.5-.5-2-.9-.7-.6-.7-.7-.2-1.8a3 3 0 0 1 1.6-1.7l1-.6c-.1-.1-.8 0-1.6.4-1.2.5-1.6.8-1.7 1.6-.2 1-.3 1-.8.5-.3-.3-.6-1.4-.7-2.5-.1-1.7 0-2 .7-2.8.4-.5 1.5-1.1 2.3-1.4l1.5-.6-1.2-1.7-1.2-1.9H76l2.3.1-1.1-.7-1.4-.7-3-1.1c-7.1-2.8-10.5-6-11.1-10.4a6 6 0 0 0-1-2.5 10.9 10.9 0 0 1-2.3-4.7c0-.7.2-.5.7.6 1.6 3.6 5 5.8 12 7.8 1.2.4 2.2.7 2.3.9a53.2 53.2 0 0 0 25.7-4c2.9-1.5 5.4-4.2 6-6.5.8-2.7.3-4.6-2.2-7.4l-1.2-1.4 1.5 1.4c2.3 2.2 3 3.7 3 6.9 0 2.7-.5 4-2.2 6.2-.5.8-.8 1.6-.8 2.6 0 1.8-1.2 4.5-2.6 6.2-1.2 1.4-1.2 1.7 0 1.4.9-.2 1-.1 1.1.4a125.6 125.6 0 0 1-4 18.8c-.8 4.4-1.5 6.7-2.6 8.3-3.1 4.5-10.1 6.7-16.8 5.3zm13.8-27.6c0-.3-.3-.5-.4-.4v.8c.2.3.4.5.5.4v-.8zM78.3 205l-1.9-.7c-.5-.4-1-.4-1.8.1-.7.4-.7.4.3.6l1.4.4 2 .1h1.5l-1.5-.5zm-1.3-4.9a17 17 0 0 1-6-1.6c-.2-.2 0-.3.4-.3.5 0 .5-.1.2-.5-.5-.6-.2-1 .9-1 .9 0 1.2 1 .4 1.2-.3.1-.1.2.3.2 1.5 0 2.5-1.8 1.4-2.7-.6-.5-3.6-.8-5.1-.5-1.2.2-1.2.2-.5.5 1 .4.6 1.1-.5.9-.7-.1-.8 0-.4.3.5.7 0 .6-1.4-.2a10 10 0 0 1-3.6-5c-.6-2 .3-4.5 2.3-6 3.6-3 9.3-4.7 16.6-4.7 4.4 0 5 0 6.8.8 1 .5 1.8 1 1.8 1.2 0 .1.6.4 1.4.5.8.1 1.4.3 1.3.5 0 0 0 .4.3.6.3.3.5.4.5.3 0-.3.7.4 2.1 2.2.7.8 1.2 2 1.3 2.6 0 .6.3 1.3.6 1.7l1 1.5c.2.5.6.9.8.8h.1l-.2.9c0 .7-.8 1.5-1.2 1.2l-.2-1c0-.3-.2-.6-.4-.6s-.3-.1-.2-.3c0-.1-.1-.2-.4-.2-.4 0-.6.2-.6.7 0 .9-.7 1-1.4.3-.5-.5-.6-.7-.2-1 .9-.6.7-1.6-.2-1.6-.7 0-.9-.1-.7-.6.1-.5-.1-.8-1-1.3l-1-.7.8 1.2c1 1.4.7 1.7-.9 1-1.2-.7-1.9-1.7-1.2-2 .2-.2.2-.4-.1-.5-.8-.3-3.2.3-3.5.8-.2.3-.4.4-.5.3-.3-.4.1-1 .7-1 .3 0 .5-.3.5-.5 0-.3.2-.6.5-.6 1 0-.3-.4-1.6-.5l-3.4-.3c-3-.3-3.3-.1-2 1.4.7.7 1.3 1.7 1.5 2.2.3 1.4.7 1.8 2.9 2.7 2 1 3 1 3.4.5.3-.6 1-.4 2.1.7.6.6 1.7 1.2 2.3 1.4.8.2 1 .3.5.4-.6 0-.6 0-.1.4 1.9 1-1.6 2.8-7.1 3.5-3.7.4-6.5.4-10-.2zm-5.4-4c0-.4.7-.7 1.3-.5.8.3.5.8-.5.8-.4 0-.8-.1-.8-.3zm20.8-1.7c-.4-.8 0-1.9.6-1.9.3 0 .4.2.3.5-.1.4 0 .6.3.6s.5.3.5.7c0 .9-1.2 1-1.7.1zm-3.3-1.4c-.5-.5-.2-1 .5-.7.3 0 .7 0 .7-.2 0-.1.3-.3.7-.3.4 0 .7.2.6.4-.1.3-.4.4-.7.4-.3 0-.7 0-.8.3-.3.4-.7.4-1 0zm-3-.5c0-.2.3-.3.8-.3s.9.1.9.3c0 .2-.4.4-.9.4s-.9-.2-.9-.4zm-1-1c0-.2 0-.4.4-.4.3 0 .5.2.5.4s-.1.3-.3.3l-.6-.3zm3.4-.7c0-.2.3-.4.7-.4.4 0 .7.2.7.4 0 .1-.3.3-.7.3-.4 0-.7-.2-.7-.3zm-3.3-.4c-.3-.4.4-.8.8-.5.4.2.2.9-.3.9-.2 0-.4-.2-.5-.4zm13-.5c0-.8.5-1.1.5-.5 0 .3-.1.7-.3.8-.2.1-.3 0-.2-.3zM85 188.8c-.8-.4-.6-1.3.3-1.2.4.1.8.4.8.7 0 .5-.5.7-1.1.5zm-2.3-.4h.7c0 .1-.1.2-.5.2s-.5 0-.2-.2z" style="fill:#d6c7ad;stroke-width:.352778" transform="translate(-44.5 -173.2)"/>
  <path d="M78.4 241.4c-4.7-1-8.6-4-10-7.7-.3-1-1-3.6-1.4-5.7a92.5 92.5 0 0 1-3.3-13.5l-1.9-8.5c-.1-.3.2 0 .6.6.6.9 1 2 1 3.7.2 1.4.6 3.8 1 5.3l1.4 5.6a11 11 0 0 0 4.1 7c2.2 1.4 5 2.8 5.8 2.8.8 0 3-1.8 3-2.5 0-.2 0-.4.3-.4.2 0 .3 0 .3-.3l-2-.5c-2.6-.2-4-1-3.7-2 .3-1.3.7-1.7 3.3-3 1.3-.7 2.4-1.4 2.3-1.5-.1 0-.4 0-.7.2-.2.2-1.5.8-2.7 1.2-1.8.6-2.4 1-2.8 1.9l-.5 1-.4-.9c-.3-.4-.5-1.6-.5-2.5 0-1.6 0-1.7 1.4-2.7 1.2-.9 1.9-1 3.2-1 1 0 1.8-.2 1.9-.4l-.7-1.5-.9-1.3h4.8c3.8.3 4.8.2 4.5 0-.2-.3-1.3-.6-2.4-.6a30 30 0 0 1-8.7-2.2c-8.3-2.7-12.2-6-12.9-10.9-.1-.9-.6-2-1-2.6a11 11 0 0 1-2.3-4.8c0-.3.3 0 .6.8.3.9 1.2 2.3 2 3.3 1.6 1.7 2.4 2 8.5 4.4 1.4.5 3 1.4 3.4 1.9 1 1 3 1.4 5.6 1.4h1.6l-1.3-.4c-1.4-.3-1.8-1.1-.7-1.4l3.4-.2c5.3-.1 13.9-2.2 18-4.4 2.9-1.5 5.3-4.3 5.9-6.7.3-1.7.3-2.2-.3-3.6a13 13 0 0 0-2-3.3l-1.5-1.6 1.6 1.4c2.6 2.4 3.2 4.4 2.8 8.6a7.8 7.8 0 0 1-2 4.4 8 8 0 0 0-1 3.3c-.5 2.5-1.4 4.5-3 6.3-.8 1-1 1.3-.6 1 1.8-.6 2.3-.6 2.3 0a161.1 161.1 0 0 1-4.1 19.8c-1.2 5.4-1.8 6.9-3.8 8.9-3.6 3.5-9.7 5-15.5 3.8zm13.8-27.6c-.1-.4-.3-.4-.9 0-.6.4-.6.4.1.8.8.4 1.2 0 .8-.8zm13.5-19c-.1-.1-.3 0-.4.4-.2.5-.2.6.2.2.2-.2.3-.5.2-.6zM79 200.4c-3.9-.4-10-2.2-7.6-2.2.5 0 .5-.2.2-.5-.5-.6-.2-1 .9-1 .9 0 1.2 1 .4 1.2-.3.1-.1.2.3.2 1.5 0 2.5-1.8 1.4-2.7-.6-.5-3.6-.8-5.1-.5-1.2.2-1.2.2-.5.5.5.1.7.4.6.6-.3.5-1.2.5-1.2 0 0-.2-.2-.2-.4-.1s-.2.4 0 .7c.8 1-.2.5-1.8-.7a7.1 7.1 0 0 1-2.7-8c.5-2 3.7-4.3 7.3-5.4 4.3-1.4 6.7-1.7 11-1.7 4.7 0 5.2.1 9.5 3.1 2.2 1.5 2.9 2.2 2.7 2.6 0 .4 0 .8.4.9.2 0 .4.4.4.7 0 .5.1.6.6.1.6-.4.6-.4.4.2-.2.5.1 1 1.3 2 1.8 1.6 3 4 2.3 4.8-.5.6-1 .3-1-.6 0-.4-.2-.7-.4-.7s-.3-.1-.2-.3c0-.1-.1-.2-.4-.2-.4 0-.6.2-.6.7 0 .9-.7 1-1.4.3-.5-.5-.6-.7-.2-1 .9-.6.7-1.6-.2-1.6-.7 0-.9-.1-.7-.6.1-.5-.1-.8-1-1.3l-1-.7.8 1.2c1 1.4.7 1.7-.9 1-1.2-.7-1.9-1.7-1.2-2 .2-.2.2-.4-.1-.5-.8-.3-3.2.3-3.5.8-.2.3-.4.4-.5.3-.3-.4.1-1 .7-1 .3 0 .5-.3.5-.5 0-.3.2-.6.5-.6 1 0-.3-.4-1.6-.5l-3.4-.3c-3-.3-3.3-.1-2 1.4.7.7 1.3 1.7 1.5 2.2.3 1.4.7 1.8 2.9 2.7 2 1 3 1 3.4.5.3-.6 1-.4 2.1.7.6.6 1.7 1.2 2.3 1.4.8.2 1 .3.5.4-.5 0-.6 0-.2.3 2.4 1.5-2.7 3.4-10.2 3.7h-5zm-7.4-4.3c0-.4.7-.7 1.3-.5.8.3.5.8-.5.8-.4 0-.8-.1-.8-.3zm20.8-1.7c-.4-.8 0-1.9.6-1.9.3 0 .4.2.3.5-.1.4 0 .6.3.6s.5.3.5.7c0 .9-1.2 1-1.7.1zm-3.3-1.4c-.5-.5-.2-1 .5-.7.3 0 .7 0 .7-.2 0-.1.3-.3.7-.3.4 0 .7.2.6.4-.1.3-.4.4-.7.4-.3 0-.7 0-.8.3-.3.4-.7.4-1 0zm-3-.5c0-.2.3-.3.8-.3s.9.1.9.3c0 .2-.4.4-.9.4s-.9-.2-.9-.4zm-1-1c0-.2 0-.4.4-.4.3 0 .5.2.5.4s-.1.3-.3.3l-.6-.3zm3.4-.7c0-.2.3-.4.7-.4.4 0 .7.2.7.4 0 .1-.3.3-.7.3-.4 0-.7-.2-.7-.3zm-3.3-.4c-.3-.4.4-.8.8-.5.4.2.2.9-.3.9-.2 0-.4-.2-.5-.4zm-.1-1.6c-.8-.4-.6-1.3.3-1.2.4.1.8.4.8.7 0 .5-.5.7-1.1.5zm-2.3-.4h.7c0 .1-.1.2-.5.2s-.5 0-.2-.2zm9.6-4.5c0-.3.2-.6.5-.6s.4.2.3.6c-.1.3-.3.5-.5.5s-.3-.2-.3-.5z" style="fill:#d8c295;stroke-width:.352778" transform="translate(-44.5 -173.2)"/>
  <path d="M78.4 241.4c-4.7-1-8.6-4-10-7.7-.3-1-1-3.6-1.4-5.7-.5-2.2-1-4.3-1.3-4.8-.4-.8-2-7.5-1.9-8.3 0-.7.8 1.5 1.3 3.9.7 3.6 1.5 5.8 2.5 7.2 1 1.3 4.7 3.8 7 4.7l1.6.6 1.2-1.2c.7-.7 1.2-1.4 1.2-1.6 0-.2.2-.4.4-.4s.3 0 .3-.3l-2-.5c-2-.1-4.4-1.2-3.7-1.6.2-.1.4-.6.5-1 0-.8.7-1.3 2.7-2.3a10 10 0 0 0 2.4-1.6l-1 .4c-.4.3-1.7.8-2.7 1.1-1.4.5-2 1-2.6 1.7-.4.8-.6 1-.6.5 0-.3.3-1 .8-1.4.7-.7.8-1 .6-2.7-.2-1.7-.2-1.9.6-2.2.5-.1 1.4-.3 2.2-.3.8 0 1.5-.1 1.6-.3l-.7-1.5-.9-1.3 5.8.1c3.6.1 6.3 0 7.4-.2 1.3-.2 1.8-.2 2.2 0 .4.4.5.3.5-.2 0-1-.4-1.2-1.2-.7-.8.5-4 .5-4.8 0-.2 0-.4 0-.4.3s0 .3-.2.1c-.2-.2-1-.4-1.7-.5-1.3 0-2.7-.2-5-.5-1.4-.2-8.1-2.5-9.8-3.3a17.8 17.8 0 0 1-5.9-4.6c-.4-.7-1-2.3-1.4-3.7-.4-1.4-1-2.8-1.3-3.2a10 10 0 0 1-1.8-3.3l1 1.3c.5.9 1.6 2 2.3 2.5 1.4 1 2.3 1.4 7.4 3.3 1.4.5 3 1.4 3.4 1.9 1 1 3 1.4 5.6 1.4h1.6l-1.3-.4c-1.4-.3-1.8-1.1-.7-1.4l3.4-.2c5.3-.1 13.9-2.2 18-4.4 2.9-1.5 5.3-4.3 5.9-6.7.3-1.7.3-2.2-.3-3.6a13 13 0 0 0-2-3.3l-1.5-1.6 1.6 1.4c3 2.8 3.7 6 2.2 9.5-.6 1.3-.7 1.6-.2 1.2.5-.4.6-.4.1.4a18 18 0 0 1-1.2 2c-.5.5-1 1.8-1 2.8-.4 2.6-1.5 4.7-3.3 6.6l-1.7 1.7 1.4-.1c1.9-.2 1.8-.6.5 7l-.5 3.7a66.6 66.6 0 0 0-2 8.4c-1 5.6-1.7 7-3.7 9a17.3 17.3 0 0 1-15.5 3.9zm19-31.4-.8.2-.7.5.7-.2.7-.5zM79 200.4c-3.8-.4-9.7-2.2-7.7-2.2.5 0 .6-.1.3-.5-.5-.6-.2-1 .9-1 .9 0 1.1.9.4 1.2-.3.1 0 .2.6.2.7 0 1.2-.4 1.6-1 .8-1.5-.1-2.1-3.6-2.4-2.4-.1-3 0-3.5.5-.4.3-.6.8-.5 1.1.4 1-2-.8-3.1-2.3-2-2.8-1.5-6.4 1.4-8.8 4.6-3.7 17-5.7 21.6-3.3 1.9 1 4 2.7 3.7 3-.2.1 0 .2.2.2s.3.2.2.4c-.1.2-.4.2-.6 0-.2 0-.3 0-.2.2.2.3.5.3.8.2.4-.1.5 0 .5.8 0 .7.3 1 1.7 1.6.9.5 2.5 1.6 3.5 2.6 1.7 1.5 2 2 2 3.1 0 1.6-.5 1.8-1 .3-.2-1.1-.9-1.5-1.6-1-.4.2-.4.3 0 .3.2 0 .4.2.4.5 0 .7-1.7.7-2 0 0-.2.1-.6.4-.7.3 0 .4-.4.3-.7-.1-.3 0-.6.3-.6l-.6-.3c-.7-.1-1-.4-1-.7 0-.6-2-2-2.3-1.6-.1.1 0 .2.2.2s.4.2.4.5.3.7.6.8c1 .6 0 .8-1.2.3-1.2-.6-1.7-1.6-1.1-2 .2-.1.2-.3-.1-.4-.8-.3-3.2.3-3.5.8-.2.3-.4.4-.6.2-.1-.2 0-.4.2-.5.2 0 .7-.3 1-.6.2-.3.5-.4.6-.3l.1-.4c0-.3 0-.5-.2-.6a50.7 50.7 0 0 0-7.6-.4c-1.2.2-1.3.3-.5.5.5 0 1 .5 1.2 1l.8 1.2c.3.3.5.9.6 1.3.2 1.2.8 1.6 3.3 2.6s3.3 1.2 3.3.4c0-.6 1-.7 1 0 0 .2.9 1 1.9 1.8 1 .7 1.9 1.6 1.9 2 0 .5-2 1.4-5 2-2.1.4-8.6.7-10.4.5zM68.3 196c-.2-.5 0-.6.5-.5.8.1 1 .8.2 1a.8.8 0 0 1-.7-.5zm3.3.2c0-.4.7-.7 1.3-.5.8.3.5.8-.5.8-.4 0-.8-.1-.8-.3zm20.8-1.8c-.4-.7-.4-.8.6-.7.6.1 1 .4 1 .7 0 .8-1.2.8-1.6 0zm0-1.4c0-.2.2-.4.5-.4s.5.2.5.4-.2.3-.5.3-.5-.1-.5-.3zm-6-.4c0-.2.3-.3.7-.3.4 0 .7.1.7.3 0 .2-.3.4-.7.4-.4 0-.7-.2-.7-.4zm2.6 0c.1-.2.4-.3.6-.1.2 0 .6 0 .8-.2a1 1 0 0 1 1-.2c.3.2.2.4-.4.6-1.4.3-2.2.3-2 0zm-3.9-1c0-.2 0-.4.4-.4.3 0 .5.2.5.4 0 .1-.1.3-.3.3l-.6-.3zm3.4-.7c0-.2.3-.4.7-.4.4 0 .7.2.7.4 0 .1-.3.3-.7.3-.4 0-.7-.2-.7-.3zm-3.1-.4c-.4-.2-.4-.3 0-.5.1-.2.5-.1.7 0 .4.5-.1.9-.7.5zm-.3-1.7c-.6-.1-.7-1.1-.2-1.1.6 0 1.5.4 1.5.7 0 .4-.8.6-1.3.4zm7.3-4.8c0-.3.2-.6.5-.6s.4.2.3.6c-.1.3-.3.5-.5.5s-.3-.2-.3-.5z" style="fill:#c8baa8;stroke-width:.352778" transform="translate(-44.5 -173.2)"/>
  <path d="M78 241.2c-4.5-1.2-7.6-3.4-9-6.5-.6-1-1.4-3.7-1.8-6.1a32 32 0 0 0-1.4-5.3c-.5-1-2.1-8.2-1.9-8.4.2-.2.4.8 1.6 5.7 1 4 1.6 5.2 3.5 6.8 2.1 1.8 5.8 3.7 7.3 3.7 1.7 0 3.4-.9 3.4-1.8 0-.5.3-.9 1.2-1.2 1.2-.4 1.6-1.1.9-1.5-.2-.2-1.1 0-2 .3-1.9.6-4 .5-5.3-.3-.6-.4-.7-.7-.5-1.7.2-1 .5-1.3 2.5-2.3 2.5-1.3 3.5-2.2 3.5-3.4 0-.6-.2-.4-.8.6-.7 1.2-1.1 1.6-3.2 2.3-1.8.7-2.6 1.2-3 2-.6.7-.7.9-.7.4 0-.3.3-1 .8-1.4.7-.7.8-1 .6-2.7-.2-1.8-.2-1.9.7-2.2.5-.2 2-.3 3.3-.2 2.3 0 2.4 0 1.6-.5-.5-.4-1-1-1.2-1.5l-.5-.8h5.2c2.8 0 5.9-.2 6.7-.4 1-.2 1.8-.3 2.2 0 .6.3.7.2.7-.4 0-1-1-1.3-2.3-.7-1.4.5-2.7.6-3.5.2-.4-.2-.6-.1-.6.2 0 .3 0 .3-.2.1-.2-.2-1-.4-1.7-.5-1.3 0-2.7-.2-5-.5-1.4-.2-8.1-2.5-9.8-3.3a17.8 17.8 0 0 1-5.9-4.6 14 14 0 0 1-1.4-3.6 15 15 0 0 0-1.9-4.3c-.7-1-1.2-2-1.2-2.2 0-.2.4.4 1 1.3 1.2 1.9 2.5 2.9 6.2 4.8l3.6 2.2a31.3 31.3 0 0 0 16.5 2c1-.2 1-.2-.4-.2-.7 0-1.6-.2-1.8-.4-.6-.4.2-.7 5.9-2.3 6-1.7 8.3-2.5 10.2-3.6 2.3-1.4 4.6-3.6 5.4-5.3.3-.7.5-1 .4-.5a5 5 0 0 1-.7 1.7c-.7 1-.6 1.7.1 1.1.5-.5.5-.4 0 .6-.3.6-.8 1.4-1.2 1.7-.4.4-.8 1.5-1 2.3-.4 3.1-1.2 5-3 7l-1.9 2 1.4-.2c1.9-.2 1.8-.6.5 7l-.5 3.7a69 69 0 0 0-2 8.5c-.5 2.6-1.3 5.4-1.7 6.2-1.6 3.2-5.1 5.6-9.7 6.6-3.2.7-5 .6-8.3-.2zM97.2 210l-.7.2-.7.5.7-.2.7-.5zm-18-9.6c-4.2-.5-10.2-2.2-8-2.2.5 0 .6-.1.3-.5-.5-.6-.2-1 .9-1 .9 0 1.1.9.4 1.2-.3.1 0 .2.6.2.7 0 1.2-.4 1.6-1 .8-1.5-.1-2.1-3.6-2.4-2.4-.1-3 0-3.5.5-.4.3-.6.8-.5 1.1.3.7-1.5-.4-2.4-1.4-3.8-4.6-2-9.3 4.8-12 5.9-2.2 14.2-2.7 17.5-1 1.9 1 4 2.7 3.7 3-.2.1 0 .2.2.2s.3.2.2.4c-.1.2-.4.2-.6 0-.2 0-.3 0-.2.2.2.3.5.3.8.2.4-.1.5 0 .5.8 0 .7.3 1 1.7 1.6.9.5 2.5 1.6 3.5 2.6 1.7 1.5 2 2 2 3.1 0 1.6-.5 1.8-1 .3-.2-1.1-.9-1.5-1.6-1-.4.2-.4.3 0 .3.2 0 .4.2.4.5 0 .7-1.7.7-2 0 0-.2.1-.6.4-.7.3 0 .4-.4.3-.7-.1-.3 0-.6.3-.6l-.6-.3c-.7-.1-1-.4-1-.7 0-.6-2-2-2.3-1.6-.1.1 0 .2.2.2s.4.2.4.5.3.7.6.8c1 .6 0 .8-1.2.3-1.2-.6-1.7-1.6-1.1-2 .2-.1.2-.3-.1-.4-.8-.3-3.2.3-3.5.8-.2.3-.4.4-.6.2-.1-.2 0-.4.2-.5.2 0 .7-.3 1-.6.2-.3.5-.4.6-.3l.1-.4c0-.3 0-.5-.2-.6a50.7 50.7 0 0 0-7.6-.4c-1.2.2-1.3.3-.5.5.5 0 1 .5 1.2 1l.8 1.2c.3.3.5.9.6 1.3.2 1.2.8 1.6 3.3 2.6s3.3 1.2 3.3.4c0-.6 1-.7 1 0 0 .2.9 1 1.9 1.8 1 .7 1.9 1.6 1.9 2 .1 1.4-10.2 3.1-15 2.5zm-11-4.5c-.2-.5 0-.6.5-.5.8.1 1 .8.2 1a.8.8 0 0 1-.7-.5zm3.3.2c0-.4.7-.7 1.3-.5.8.3.5.8-.5.8-.4 0-.8-.1-.8-.3zm20.8-1.8c-.4-.7-.4-.8.6-.7.6.1 1 .4 1 .7 0 .8-1.2.8-1.6 0zm0-1.4c0-.2.2-.4.5-.4s.5.2.5.4-.2.3-.5.3-.5-.1-.5-.3zm-6-.4c0-.2.3-.3.7-.3.4 0 .7.1.7.3 0 .2-.3.4-.7.4-.4 0-.7-.2-.7-.4zm2.6 0c.1-.2.4-.3.6-.1.2 0 .6 0 .8-.2a1 1 0 0 1 1-.2c.3.2.2.4-.4.6-1.4.3-2.2.3-2 0zm-3.9-1c0-.2 0-.4.4-.4.3 0 .5.2.5.4 0 .1-.1.3-.3.3l-.6-.3zm20.7-.6c0-.7-.2-1.6-.4-2-.2-.7-.2-1 0-.8.4.3.8 2.4.6 3.2 0 .4-.2.2-.2-.4zm-17.3-.1c0-.2.3-.4.7-.4.4 0 .7.2.7.4 0 .1-.3.3-.7.3-.4 0-.7-.2-.7-.3zm-3.1-.4c-.4-.2-.4-.3 0-.5.1-.2.5-.1.7 0 .4.5-.1.9-.7.5zm-.3-1.7c-.6-.1-.7-1.1-.2-1.1.6 0 1.5.4 1.5.7 0 .4-.8.6-1.3.4zm7.3-4.6c0-.2.1-.5.3-.6.2-.1.4 0 .4.2l-.4.5c-.2.1-.3 0-.3-.1z" style="fill:#cbb291;stroke-width:.352778" transform="translate(-44.5 -173.2)"/>
  <path d="M78 241.2c-4.5-1.2-7.6-3.4-9-6.5a34 34 0 0 1-1.8-5.9l-.8-4 2 2a20 20 0 0 0 8.7 4.8c1.2.1 1.6 0 2.6-1 .7-.5 1.7-1.1 2.2-1.2.5-.2 1-.4 1-.6 0-.2.1-.2.3-.1.2 0 .4 0 .4-.2s.2-.4.4-.4c.8 0 1-1.3.3-1.5-.5-.1-.5-.1 0-.2.8 0 .9-1 .2-1-.3 0-.5-.3-.4-.7l.2-.6.1-.6c.1-.4 0-.6-.2-.5-.1.2-.3.4-.3.7 0 .6-1.7 2.1-3.2 2.9-1.6.9-4.8.9-6.1 0-.7-.5-.9-.7-.6-1 .3 0 .4-.5.2-1s0-.8 1.7-1.6c2.8-1.4 4-2.5 4.3-3.7.2-.7.4-1 .7-.9.3.1.5 0 .5-.3s-.1-.5-.3-.5c-.2 0-.4-.5-.3-1l.1-1h3.2a37 37 0 0 0 5.2-.5c1.6-.3 2.2-.3 2.6 0 .4.4.5.2.5-.6v-1H88c-12.7.3-24-4.4-25.9-10.7a14 14 0 0 1-.5-2.7c0-.5-.2-1-.4-1a.8.8 0 0 1-.3-.7 48.5 48.5 0 0 0 12 6.4 37 37 0 0 0 13.2.8c1-.3 1-.3-.4-.3-.7 0-1.6-.2-1.8-.4-.6-.4.3-.7 5.5-2.1 7.8-2.2 10.8-3.5 13.3-5.8 1.7-1.5 2-1.5 1 0-.5.7-.5 1-.2 1.1.3.2.4.4.1.5-.2.2-.4 1.1-.6 2.1a12 12 0 0 1-7 9.4c-1.3.6-2.7 1.3-3.1 1.7-.8.5-.8.5.4.3.6 0 2.1-.7 3.3-1.2 3.5-1.7 4.5-1.3 3.8 1.3-.4 1.7-1.5 8-1.6 9.8a71.6 71.6 0 0 1-3 12.8c-1.6 3.2-5.1 5.6-9.7 6.6-3.2.7-5 .6-8.3-.2zm-4-20.7c-.1-1.5 0-2 .4-2.3.9-.4 4.8-.4 5.1 0 .1.3 0 1-.2 1.5-.5 1.1-2.1 2.2-4 2.6l-1.2.2zm4.4-20.2c-3.5-.4-8-1.8-7-2.1.4-.2.5-.4.2-.5-.6-.4-.2-1 .7-1 .8 0 1.3.7.6 1.1-.3.3-.2.3.5.4.9 0 2-1 2-1.8 0-1-1-1.5-4-1.7a20 20 0 0 1-3-.3c-.3-.2-1 1.7-.8 2.1.4.7-2-1.2-2.9-2.3a6 6 0 0 1-1.1-2l-.3-1.3c-.3-.9.6-3.3 1.6-4.5 1.4-1.7 5.2-3.5 9.3-4.5 4.4-1 10.7-.9 12.6.3 1.7 1 2.9 2.4 2.4 2.7-.3.2-.3.4 0 .6.2 0 .4.5.5.8 0 .4.8 1 2.2 1.5 4.8 1.8 8.2 5.2 7.4 7.4-.3.7-1 .3-1-.6 0-.9-.9-1.7-1.6-1.5-.4.2-.4.3-.2.4.8.2.5 1.1-.4 1.1-1 0-1.5-.9-.7-1.2.3 0 .4-.4.3-.7-.1-.3 0-.6.3-.6l-.6-.3c-.7-.1-1-.4-1-.7 0-.6-2-2-2.3-1.6-.1.1 0 .2.2.2s.4.3.4.7c0 .4.3.7.6.7.4 0 .5.1.3.4-.3.2-.7.1-1.5-.2-1.2-.6-1.7-1.6-1.1-2 .2-.1.2-.3-.1-.4-.8-.3-3.2.3-3.5.8-.2.3-.4.4-.6.2-.1-.2 0-.4.2-.5.2 0 .7-.3 1-.6.2-.3.5-.4.6-.3l.1-.4c0-.3 0-.5-.2-.6a50.7 50.7 0 0 0-7.6-.4c-1.2.2-1.3.3-.5.5s1.5 1.2 3 4.5c.1.5 1 1 2.6 1.6 2.7 1 3.6 1.2 3.6.4 0-.8 1-.6 1.1.3.2.7 3 3 3.5 2.8 0 0 .2.2.2.5 0 1.7-9.6 3.3-16 2.6zm-10-4.4c0-.3.2-.6.5-.6s.5.3.5.6-.2.5-.5.5a.5.5 0 0 1-.5-.5zm3.2.2c0-.4.7-.7 1.3-.5.8.3.5.8-.5.8-.4 0-.8-.1-.8-.3zm20.8-1.8c-.4-.7-.4-.8.6-.7.6.1 1 .4 1 .7 0 .8-1.2.8-1.6 0zm0-1.4c0-.2.2-.4.5-.4s.5.2.5.4-.2.3-.5.3-.5-.1-.5-.3zm-6-.4c0-.2.2-.3.5-.3s.5.1.5.3c0 .2-.2.4-.5.4s-.5-.2-.5-.4zm3 .1c.4 0 .9-.3 1.1-.5.2-.2.6-.2.9 0 .5.2-.7.7-2 .7h-.7l.7-.2zm-4.3-1.1c0-.2 0-.4.2-.4s.4.2.5.4c.2.2.1.3 0 .3a1 1 0 0 1-.7-.3zm20.7-.6c0-.7-.2-1.6-.4-2-.2-.7-.2-1 0-.8.4.3.8 2.4.6 3.2 0 .4-.2.2-.2-.4zm-17.1-.1c-.2-.2 0-.4.5-.4.4 0 .7.2.7.4 0 .1-.2.3-.5.3s-.6-.2-.7-.3zM85 190c.1-.2.5-.3.8-.2.7.3.6.5-.3.5-.4 0-.6-.2-.5-.3zm0-1.4c-.6-.1-.7-1.1-.2-1.1.6 0 1.5.4 1.5.7 0 .4-.8.6-1.3.4zm7.4-5 .4-.4.2.4c0 .2-.2.3-.4.3s-.3-.1-.2-.3z" style="fill:#baa48c;stroke-width:.352778" transform="translate(-44.5 -173.2)"/>
  <path d="M78.7 241.4c-4.6-1-8.3-3.5-9.7-6.6a44 44 0 0 1-2.4-9.3c0-.3.5 0 1.2.8 1.4 1.6 4.6 3.7 7.2 4.7 1.6.6 2.7.8 4.8.7 1.6 0 3-.2 3-.4.2-.2.5-.3.7-.2.3.2.4 0 .4-.6 0-.7.2-1 .7-1 .7 0 .8-.2.8-1.6 0-.6.2-.8.6-.8.5 0 .8-.4 1-1.3 0-.8 0-1.4-.2-1.5-.2-.1-.3-.4 0-.7v-1.3c-.3-.5-.2-1 0-1.2.3-.2.1-.5-.7-.8-1-.3-1.2-.5-1-1.2 0-.5 0-.9-.4-1-.2 0-.4-.6-.4-1 0-.8.1-1 .5-.8.2 0 .5 0 .6-.2.1-.4 2.6-.7 5.5-.8 1.4 0 1.5-.1 1.5-1v-1l-3.8.2c-9.6.3-18.9-2.3-23.6-6.6a9.7 9.7 0 0 1-3.3-6.3l-.3-1.6 2.2 1.6c2.5 2 6.6 3.7 10 4.5 3.2.7 8.9 1 12.2.7 2.6-.3 2.8-.3 2-.8l-.9-.4 1-.5 2-1a12 12 0 0 1 2.8-1c2.4-.6 6-2.1 8.4-3.4 1.4-.9 1.6-.9.9-.2-1.1 1-1 1.2.4.6l1.1-.5-.4 2c-.7 3.6-1.2 4.6-3 6.5a19.2 19.2 0 0 1-5.4 3.5c-1.8 1-3.4 1.8-3.4 2 0 .4 3.1-.4 5.3-1.5 3.6-2 4.6-1.6 3.9 1.1-.4 1.6-1.5 7.9-1.6 9.8a73.3 73.3 0 0 1-3 12.8c-1.6 3.2-5.2 5.6-9.7 6.6-3 .6-4.6.6-7.5 0zm10.1-28.6c.1-.1-.6-.2-1.5-.2s-1.6.2-1.6.3c0 .3 2.8.2 3.1-.1zm-13 14.3c-1.2-.3-2.7-1.4-1.8-1.4.3 0 .4-.3.2-.9-.2-.8 0-1 2.6-2.3 2.4-1.2 2.9-1.7 3.2-2.7.5-1.3.7-1.4 2.1-.7.6.3 1 .5 1.2.4.2-.2.2 0 .5 2.6.2 1.8.1 1.9-1.1 3a8 8 0 0 1-3.1 1.8c-2 .6-2 .6-3.8.2zm10.2-1.4c0-.2.2-.4.4-.4s.3.2.2.4l-.4.3c-.1 0-.2-.1-.2-.3zm-1.2-.7.4-.4.1.4c0 .2-.2.3-.4.3s-.2-.1-.1-.3zM74 220.5c-.1-1.8 0-2 .7-2.3 1-.4 4.5-.4 4.8 0 .1.3 0 1-.4 1.6-.4 1-1 1.4-2.5 2l-2.2.7c-.2 0-.4-.9-.4-2zm9.2-1.9c0-.4.4-.4 1 0 .5.3.4.4-.2.4-.4 0-.8-.2-.8-.4zm-4.6-18.4c-2.7-.3-6.4-1.1-7.3-1.7-.6-.3-.6-.3 0-.3.5 0 .6-.1.3-.5-.5-.6-.2-1 .7-1 .8 0 1.2.8.6 1.1-.3.3-.2.3.5.4.9 0 2-1 2-1.8 0-1-1-1.5-4-1.7a20 20 0 0 1-3-.3c-.3-.2-1 1.7-.8 2.1.1.2 0 .2-.5 0-3.5-2.7-4.5-5.5-3-8.8 1.7-3.7 8.4-6.3 16.6-6.2 4.3 0 4.3 0 6 1.2 1.2.8 1.8 1.4 1.8 1.9-.2 1.7 0 1.9 2.5 2.8 3.5 1.3 5.3 2.4 6.8 4 1.3 1.5 1.8 2.9 1.5 3.8-.3.7-1 .3-1-.6 0-.9-.9-1.7-1.6-1.5-.4.2-.4.3-.2.4.8.2.5 1.1-.4 1.1-1 0-1.5-.9-.7-1.2.3 0 .4-.4.3-.7-.1-.3 0-.6.3-.6l-.6-.3c-.7-.1-1-.4-1-.7 0-.6-2-2-2.3-1.6-.1.1 0 .2.2.2s.4.3.4.7c0 .4.3.7.6.7.4 0 .5.1.3.4-.3.2-.7.1-1.5-.2-1.2-.6-1.7-1.6-1.1-2 .2-.1.2-.3-.1-.4-.8-.3-3.2.3-3.5.8-.2.3-.4.4-.6.2-.1-.2 0-.4.2-.5.2 0 .7-.3 1-.6.2-.3.5-.4.6-.3l.1-.4c0-.3 0-.5-.2-.6a50.7 50.7 0 0 0-7.6-.4c-1.2.2-1.3.3-.5.5s1.5 1.2 3 4.5c.1.5 1 1 2.6 1.6 2.7 1 3.6 1.2 3.6.4 0-.8 1-.6 1.1.3.2.7 3 3 3.5 2.8 0 0 .2.2.2.5 0 1.7-9.3 3.1-15.8 2.5zm-10.2-4.3c0-.3.2-.6.5-.6s.5.3.5.6-.2.5-.5.5a.5.5 0 0 1-.5-.5zm3.2.2c0-.4.7-.7 1.3-.5.8.3.5.8-.5.8-.4 0-.8-.1-.8-.3zm20.8-1.8c-.4-.7-.4-.8.6-.7.6.1 1 .4 1 .7 0 .8-1.2.8-1.6 0zm0-1.4c0-.2.2-.4.5-.4s.5.2.5.4-.2.3-.5.3-.5-.1-.5-.3zm-6-.4c0-.2.2-.3.5-.3s.5.1.5.3c0 .2-.2.4-.5.4s-.5-.2-.5-.4zm3 .1c.4 0 .9-.3 1.1-.5.2-.2.6-.2.9 0 .5.2-.7.7-2 .7h-.7l.7-.2zm-4.3-1.1c0-.2 0-.4.2-.4s.4.2.5.4c.2.2.1.3 0 .3a1 1 0 0 1-.7-.3zm3.6-.7c-.2-.2 0-.4.5-.4.4 0 .7.2.7.4 0 .1-.2.3-.5.3s-.6-.2-.7-.3zM85 190c.1-.2.5-.3.8-.2.7.3.6.5-.3.5-.4 0-.6-.2-.5-.3zm0-1.4c-.6-.1-.7-1.1-.2-1.1.6 0 1.5.4 1.5.7 0 .4-.8.6-1.3.4z" style="fill:#cca771;stroke-width:.352778" transform="translate(-44.5 -173.2)"/>
  <path d="M78.7 241.4c-4.6-1-8.3-3.5-9.7-6.6a44 44 0 0 1-2.4-9.3c0-.3.5 0 1.2.8 1.4 1.6 4.6 3.7 7.2 4.7 1.6.6 2.7.8 4.8.7 1.6 0 3-.2 3-.4.2-.2.5-.3.7-.2.3.2.4 0 .4-.6 0-.7.2-1 .7-1 .7 0 .8-.2.8-1.6 0-.6.2-.8.6-.8.5 0 .8-.4 1-1.3 0-.8 0-1.4-.2-1.5-.2-.1-.3-.4 0-.7v-1.3c-.3-.5-.2-1 0-1.2.3-.2.1-.5-.7-.8-1-.3-1.2-.5-1-1.2 0-.5 0-.9-.4-1-.2 0-.4-.6-.4-1 0-.8.1-1 .5-.8.2 0 .5 0 .6-.2.1-.4 2.6-.7 5.5-.8 1.4 0 1.5-.1 1.5-1v-1l-3.8.2c-5 .1-8.8-.3-13-1.4-6.1-1.7-10.6-4.3-12.5-7.4-.4-.6-1-2.2-1.2-3.4l-.5-2.3 2.2 1.6c2.5 2 6.6 3.7 10 4.5 3.2.7 8.9 1 12.2.7 2.6-.3 2.8-.3 2-.8l-.9-.4 1-.5 2-1a12 12 0 0 1 2.8-1c2.4-.6 6-2.1 8.4-3.4 1.4-.9 1.6-.9.9-.2-1.1 1-1 1.2.4.6l1.1-.5-.4 2c-.7 3.6-1.2 4.6-3 6.5a19.2 19.2 0 0 1-5.4 3.5c-1.8 1-3.4 1.8-3.4 2 0 .4 3.1-.4 5.3-1.5 2.5-1.3 3.4-1.4 3.4-.3a224.6 224.6 0 0 0-1.5 12.4 56.2 56.2 0 0 1-2.6 11.6c-1.6 3.2-5.2 5.6-9.7 6.6-3 .6-4.6.6-7.5 0zm10.1-28.6c.1-.1-.6-.2-1.5-.2s-1.6.2-1.6.3c0 .3 2.8.2 3.1-.1zM69 207.5c.2 0 .3-.2.3-.5 0-.4-.1-.6-.3-.5-.1 0-.3 0-.3-.2s-.1-.4-.3-.4c-.2 0-.4.3-.4.7 0 1.2-.6.5-1-1.3-.3-1-.5-1.5-.6-1.2-.3.6-.8.5-.8-.1 0-.3-.2-.5-.4-.4-.2.1-.2.5 0 1s.2 1 0 1.2h.3c.2-.2.3-.5.2-.7-.1-.2 0-.2.1-.1.3.1.3.5.2.7 0 .3 0 .8.3 1 .7.7 2.2 1.3 2.4 1 0-.2.2-.3.3-.2zm-.3-2c0-.1-.2-.3-.5-.4-.3-.1-.5 0-.3.1.2.4.8.5.8.2zm7.1 21.6c-.6-.2-1.4-.6-1.7-.9-.6-.5-.6-.5 0-.3.5.2.6 0 .6-1 0-1.2.2-1.4 2.5-2.6 2-1 2.5-1.5 2.8-2.5.5-1.3.7-1.4 2.1-.7.6.3 1 .5 1.2.4.2-.2.2 0 .5 2.6.2 1.8.1 1.9-1.1 3a8 8 0 0 1-3.1 1.8c-2 .6-2 .6-3.8.2zm10.2-1.4c0-.2.2-.4.4-.4s.3.2.2.4l-.4.3c-.1 0-.2-.1-.2-.3zm-1.2-.7.4-.4.1.4c0 .2-.2.3-.4.3s-.2-.1-.1-.3zm-10-4-.2-2c0-.2-.1-.4-.3-.4-.3 0-.1-.2.3-.3 1-.5 4.6-.5 4.9 0 .1.2 0 .9-.4 1.5-.6 1.4-2.8 2.5-3.5 2-.3-.3-.5-.2-.6.2-.1.4-.2 0-.3-1zm8.4-2.4c0-.4.4-.4 1 0 .5.3.4.4-.2.4-.4 0-.8-.2-.8-.4zm-3-18.2a46 46 0 0 1-7.5-1.4l-1.3-.4h1c1.3-.2 2.3-.3 2.6-.5l.4-1.3c.3-1 .2-1.2-.4-1.6-1-.6-6.4-1-7.6-.5-.4.1-.8.5-.8.9 0 .8-1.6-.7-2.5-2.5-3.2-6.2 4.5-11.7 16.6-11.6 4.3 0 4.3 0 6 1.2 1.6 1 1.8 1.3 1.7 2.3 0 .7.2 1.4.5 1.6.3.2.2.3-.6.1-.8 0-1.2 0-1.3.3-.1.3-.4.2-.8-.3-.6-.6-1-.6-4.2-.4a24 24 0 0 0-7.6 1.4h3c2.9-.2 3.2-.1 3.8.5.4.5.6.8.4.8 0 0 0 .3.3.8.3.4.6 1 .6 1.4 0 .4.3 1 .6 1.2 1.2 1 4.1 2.2 5 2.2l2 .4c1.5.4 4 2.3 4 3 0 .4-1.8 1.2-4.4 1.8-1.3.3-8 .7-9.5.6zM73.9 188c0-.1-.4-.2-.6 0-.3 0-.2.1.2.2.3 0 .5-.1.4-.2zm-2.1 9.2c.2-.7 1.2-.6 1.4 0 .1.3-.2.5-.7.5-.7 0-.9-.1-.7-.5zm-3.4-1.2c.1-.3.3-.5.4-.4.5 0 .4.5 0 .6-.3.1-.4 0-.4-.2zm3.2 0c0-.3.3-.4.7-.4.4 0 .7.1.7.3 0 .2-.3.4-.7.4-.4 0-.7-.2-.7-.4zm21.1-1.8c-.3-.7-.3-.8.4-.7.5.1.9.4.9.6 0 .9-.8.9-1.3 0zm2.7.1c-.5-.5-.2-.9.6-.8 1 .2 1.3 1 .3 1-.3 0-.7 0-.9-.2zm-5.7-.5c.2-.2.4-.2.6-.1.5.3.4.5-.2.5-.3 0-.5-.2-.4-.4zm2.8-1c0-.2 0-.4.4-.4.3 0 .5.2.5.4s-.1.3-.3.3l-.6-.3zm-6-.4c0-.2 0-.3.4-.3.3 0 .5.1.5.3 0 .2-.1.4-.3.4-.2 0-.4-.2-.5-.4zm9.4 0c0-.2.3-.3.7-.3.4 0 .7.1.7.3 0 .2-.3.4-.7.4-.4 0-.7-.2-.7-.4zm1.6-.7c-.1-.2 0-.3.1-.3.2 0 .4.1.4.3l-.1.4-.4-.4zm-12.2-.4c0-.2.2-.2.4-.1s.3.3.3.4l-.3.1a.4.4 0 0 1-.4-.4zm7.6 0c-.1-.1 0-.3.2-.3s.3.2.3.4l-.1.3-.4-.3zm1.4 0c-.2-.3.8-.7 1.3-.5l.3.6c0 .4-1.3.4-1.6 0zm-5.3-.7c.1-.2.4-.2.6-.1.5.3.4.5-.2.5-.3 0-.5-.2-.4-.4zm2.4.2c-.5-.2-.6-1.6-.2-1.6.7 0 1.6 1 1.4 1.4-.3.4-.5.5-1.2.2zm-2.6-2.3c0-.2.2-.3.4-.3s.4.1.4.3c0 .2-.2.4-.4.4a.4.4 0 0 1-.4-.4zM85 188c0-.6 0-.6.8-.3s.7.8-.1.8c-.4 0-.7-.2-.7-.5zm6.3.2c0-.2.3-.4.5-.4.3 0 .6.2.6.4s-.3.3-.6.3c-.2 0-.5-.1-.5-.3z" style="fill:#bca177;stroke-width:.352778" transform="translate(-44.5 -173.2)"/>
  <path d="M78.7 241.4c-4.6-1-8.3-3.5-9.7-6.6a44 44 0 0 1-2.4-9.3c0-.3.5 0 1.2.8 1.4 1.6 4.6 3.7 7.2 4.7 1.6.6 2.7.8 4.8.7 1.6 0 3-.2 3-.4.2-.2.5-.3.7-.2.3.2.4 0 .4-.6 0-.7.2-1 .7-1 .7 0 .8-.2.8-1.6 0-.6.2-.8.6-.8.5 0 .8-.4 1-1.3 0-.8 0-1.4-.2-1.5-.2-.1-.3-.4 0-.7v-1.3c-.3-.5-.2-1 0-1.2.3-.2.1-.5-.7-.7-1.2-.4-1.5-1.3-.7-2 .2-.3.2-.4-.3-.4s-.7-.2-.8-1v-1l.5.9c.3.4.5.6.5.4 0-1.5.4-1.7 3.9-1.7h3.2v-2.2l-3.8.1c-5.2.2-9.1-.3-13.5-1.6-8.3-2.4-12.1-5.5-13.2-10.6l-.5-2.3 2.3 1.7 2.9 1.9c.4 0 .7.4.7.6 0 .2-.1.2-.5 0-.2-.3-.8-.5-1.2-.6-.8-.2-.8 0-.7 1.4.2 1.4 1.8 4 2.5 4l1.8.7c1.6.8 2.2 1 1.8.4 0-.2 0-.4.2-.4s.4.3.4.6c0 .7.5.7.8 0 .4-1.1.2-2-.6-2.4-1-.5-1.6-1.3-1.6-2.2 0-.4.1-.6.6-.4a45 45 0 0 0 15 1.5c2.6-.3 2.8-.3 2-.8l-.9-.4 1-.5 2-1a12 12 0 0 1 2.8-1 40 40 0 0 0 8.4-3.4l1.7-1-1 1c-1.5 1.5-1.2 2 .9 1 .5-.2.6 0 .4 1-.8 4.8-3 7.2-8.4 10-3.5 1.7-3.5 1.7-2.3 1.9 1 0 2-.3 4-1.2 2.9-1.5 3.5-1.6 3.2-.5-.2.5-.1.7.1.5.3-.1.3.2 0 1-1.2 3.9-2.4 12.2-1.7 11.7.5-.3.5.3-.5 5-1 5-1.7 6.6-3.8 8.6a15 15 0 0 1-7.5 3.7c-3 .6-4.6.6-7.5 0zm12.9-18.1c-.1-.5-.2-.2-.2.8s0 1.4.2 1v-1.8zm.3-3.5c0-.4-.2-.2-.2.4 0 .6.1.9.2.6a2 2 0 0 0 0-1zm-3-7c0-.1-.7-.2-1.6-.2-.9 0-1.6.2-1.6.3 0 .3 2.8.2 3.1-.1zM73 209.3c.1-.4 0-.5-.1-.4-.2.1-.4.4-.4.6 0 .5.3.4.5-.2zm-1.4-3.7c0-.2-.4-.4-.6-.4-.2 0-.2.2.1.6.5.5 1 .4.5-.2zm4.1 21.5-1.5-.7c-.4-.3-.2-.4.5-.2 1 .2 1 .2 1-1.4.2-1.7.2-1.8 2-2.8 1.4-.8 2-1.4 2.2-2.2.5-1.3.7-1.4 2.1-.7.6.3 1 .5 1.2.4.2-.2.2 0 .5 2.6.2 1.8.1 1.9-1.1 3a8 8 0 0 1-3.1 1.8c-2 .6-2 .6-3.8.2zm10.2-1.4c0-.2.2-.4.4-.4s.3.2.2.4l-.4.3c-.1 0-.2-.1-.2-.3zm-1.2-.7.4-.4.1.4c0 .2-.2.3-.4.3s-.2-.1-.1-.3zm-9.2-4.8c-.1-1.1-.4-1.6-.8-1.6-.5 0-.5 0 .1-.3 1-.5 4.3-.5 4.6 0 .4.5-.9 2.7-1.8 3-1.5.8-1.8.6-2-1zm7.6-1.6c0-.4.4-.4 1 0 .5.3.4.4-.2.4-.4 0-.8-.2-.8-.4zM68.9 204c-.4-.3-.5-.5-.3-.5.5 0 1.4.6 1.2.8-.1.1-.5 0-1-.3zm11.3-3.6a46 46 0 0 1-7.5-1.4l-1.3-.4h1c2.5-.2 3.4-.7 3.4-2 0-1.2-1.3-2-3.3-2-1 0-2.4-.1-3.1-.3-.8-.2-1.4-.2-1.4 0s-.2.3-.5.3-.6.3-.8.6c-.4.6-.4.6-1.1 0a6.4 6.4 0 0 1-2-5.2c.2-3.2 3-5.6 8.1-7.3a24 24 0 0 1 7.4-1c4.3-.1 4.7 0 6.2.7 1.3.7 1.6 1.1 1.9 2.2.1.7.4 1.6.7 1.9.3.4.3.5 0 .2-.4-.2-.7 0-.8.2-.2.3-.4.3-1-.2-.9-1-7-.5-10.7.7-1.5.5-2 .8-1.2.6l4-.2h2.6l.9 1.4c.4.7.8 1.7.8 2 0 1.3 3.5 3.4 5.6 3.4 1.6 0 3.5 1 4.9 2.2a6 6 0 0 1 1.1 1.4c0 .2-2.6 1.2-4.4 1.6-1.3.3-8 .7-9.5.6zm-9-11.3c.4-.5-2 1-2.7 1.6-1.5 1.3-.9 1.1.9-.2l1.8-1.4zm.6 8.2c.2-.7 1.2-.6 1.4 0 .1.3-.2.5-.7.5-.7 0-.9-.1-.7-.5zm-3.2-1.3c-.2-.2 0-.3.3-.3s.5.1.4.3l-.4.4-.3-.4zm3 0c0-.2.3-.3.7-.3.4 0 .7.1.7.3 0 .2-.3.4-.7.4-.4 0-.7-.2-.7-.4zm21.1-1.7c-.3-.7-.3-.8.4-.7.5.1.9.4.9.6 0 .9-.8.9-1.3 0zm2.7.1c-.5-.5-.2-.9.6-.8 1 .2 1.3 1 .3 1-.3 0-.7 0-.9-.2zm-5.7-.5c.2-.2.4-.2.6-.1.5.3.4.5-.2.5-.3 0-.5-.2-.4-.4zm2.8-1c0-.2 0-.4.4-.4.3 0 .5.2.4.4l-.4.3-.4-.3zm-6-.4c0-.2 0-.3.4-.3.3 0 .5.1.5.3 0 .2-.1.4-.3.4-.2 0-.4-.2-.5-.4zm9.4 0c0-.2.3-.3.7-.3.4 0 .7.1.7.3 0 .2-.3.4-.7.4-.4 0-.7-.2-.7-.4zm1.6-.7c-.1-.2 0-.3.1-.3.2 0 .4.1.4.3l-.1.4-.4-.4zm-12.2-.4c0-.2.2-.2.4-.1s.3.3.3.4l-.3.1a.4.4 0 0 1-.4-.4zm7.6 0c-.1-.1 0-.3.2-.3s.3.2.3.4l-.1.3-.4-.3zm1.4 0c-.2-.3.8-.7 1.3-.5l.3.6c0 .4-1.3.4-1.6 0zm-2.9-.5c-.5-.2-.6-1.6-.2-1.6.7 0 1.6 1 1.4 1.4-.3.4-.5.5-1.2.2zm-2.6-2.3c0-.2.2-.3.4-.3s.4.1.4.3c0 .2-.2.4-.4.4a.4.4 0 0 1-.4-.4zm-3.8-.5c0-.3.1-.5.3-.5.1 0 .5.2.7.5.4.4.3.5-.3.5-.4 0-.7-.2-.7-.5zm6.3.2c0-.2.3-.4.5-.4.3 0 .6.2.6.4s-.3.3-.6.3c-.2 0-.5-.1-.5-.3z" style="fill:#b29b83;stroke-width:.352778" transform="translate(-44.5 -173.2)"/>
  <path d="M79.4 241.5c-5.1-.8-9.4-4-11-7.9a69 69 0 0 1-1.8-8c0-.3 1 .4 2 1.4a19 19 0 0 0 5 3.4c2.9 1.3 3.3 1.4 6.8 1.5 3.2.2 3.9 0 4.3-.4l.8-1c2.1-2.5 2.6-3.7 2.9-7.2 0-1.2 0-1.9-.3-1.9-.2 0-.3-.2-.2-.4.1-.3-.3-.7-1-1.1-1-.5-1.3-.7-.9-1 .5-.2.5-.4 0-.8-.4-.3-.6-.8-.6-1.3.2-.8.4-.8 2.8-1.1 1.4-.2 3-.2 3.4-.1.7 0 .8 0 .8-1.1v-1.2l-3.6.2c-3.2.1-3.4.1-1.5-.2l4.7-.6c1.8-.3 3.3-.7 4.7-1.5 2.5-1.3 3.2-1.3 2.9-.3-.2.5-.1.7.1.5.3-.1.3.2 0 1-1.2 3.9-2.4 12.2-1.7 11.7.5-.3.5.2-.4 4.4-1.1 5.6-1.8 7-4.2 9.3a14.2 14.2 0 0 1-8.2 3.7c-2.5.4-3.2.4-5.8 0zm12.2-18.2c-.1-.5-.2-.2-.2.8s0 1.4.2 1v-1.8zm.3-3.5c0-.4-.2-.2-.2.4 0 .6.1.9.2.6a2 2 0 0 0 0-1zm-6.4 7.6c-.1-.2 0-.3.3-.3.4 0 .5.1.4.3l-.4.4-.3-.4zm-9.2-.3c-.6-.1-1.4-.4-1.8-.7-.6-.3-.6-.4.3-.2 1 .2 1 .2 1-1.5.2-1.6.2-1.7 2-2.7 1.4-.7 2-1.2 2.3-2.2.2-.6.6-1.2.7-1.2.7 0 2.4 1.2 2.7 2 1 2.2.1 4.2-2.3 5.5-2 1-3.4 1.3-4.9 1zm-.7-6.9c-.1-1.1-.4-1.6-.8-1.6-.5 0-.5 0 .1-.3 1-.4 3.8-.5 4.4 0 1 .6-1.3 3.5-2.8 3.5-.5 0-.7-.4-.9-1.6zm3-7.4c-5.8-1.2-12-4-14.3-6.6a11 11 0 0 1-2.5-5.4l-.2-1.8 1 1 2 1.5c.5.3 1 .8 1 1 0 .1-.2.2-.4 0-.3-.1-.4.2-.3 1.4.2 1.5 1.7 4.1 2.5 4.1l1.8.7c1.6.8 2.2 1 1.8.4 0-.2 0-.4.2-.4s.4.3.4.6c0 .7.5.7.8 0 .4-1.1.2-2-.6-2.4-.4-.2-1-.6-1.2-1-.5-.6-.6-1.9-.1-1.6l3.9 1c5.7 1 15.4.7 16.4-.7a8 8 0 0 1 2.5-1.2c3.3-1.1 4-1.5 4-2-.1-.3.4-.7 1-1 1-.4 1.2-.4 1 0-.1.4 0 .4 1.3 0a37 37 0 0 0 2-.6c.6-.2.6 0 .3 1.6a10 10 0 0 1-3.2 5.8c-2 1.8-7.3 4.6-9.6 4.9a800.6 800.6 0 0 1-8.3 1c-.5.1-2 0-3.2-.3zm-5.5-3.5c.1-.4 0-.5-.1-.4-.2.1-.4.4-.4.6 0 .5.3.4.5-.2zm-1.4-3.7c0-.2-.4-.4-.6-.4-.2 0-.2.2.1.6.5.5 1 .4.5-.2zM69 204c-.7-.6-.7-.6.1-.2l.8.5c0 .3-.2.2-1-.3zm6.5-4.3a29 29 0 0 1-3.2-.8c-.8-.3-.8-.3.2-.4 2.5-.1 3.4-.6 3.4-2 0-1.1-1.3-1.9-3.3-1.9-1 0-2.4-.1-3.1-.3-.8-.2-1.4-.2-1.4 0s-.2.3-.5.3-.6.3-.8.6c-.4.6-.4.6-1.1 0a6.4 6.4 0 0 1-2-4.1c-.7-5.3 7-9.7 16.8-9.5 2.9 0 3.8.2 5 .9 1.2.6 1.5 1 1.8 2.1.1.7.4 1.6.7 1.9.3.4.3.5 0 .2-.4-.2-.7 0-.8.2-.2.3-.4.3-1-.2-.9-1-7-.5-10.7.7-1.5.5-2 .8-1.2.6l4-.2h2.6l.9 1.4c.4.7.8 1.7.8 2 0 1.3 3.5 3.4 5.6 3.4 1.6 0 3.5 1 4.9 2.2.6.6 1.1 1.3 1.1 1.4 0 .3-3.1 1.3-5.6 1.7-2.7.5-10.4.4-13.1-.2zm-4.2-10.6c.4-.5-2 1-2.7 1.6-1.5 1.3-.9 1.1.9-.2l1.8-1.4zm.6 8.2c.2-.7 1.2-.6 1.4 0 .1.3-.2.5-.7.5-.7 0-.9-.1-.7-.5zm-3.2-1.3c-.2-.2 0-.3.3-.3s.5.1.4.3l-.4.4-.3-.4zm3 0c0-.2.3-.3.7-.3.4 0 .7.1.7.3 0 .2-.3.4-.7.4-.4 0-.7-.2-.7-.4zm21.1-1.7c-.3-.7-.3-.8.4-.7.5.1.9.4.9.6 0 .9-.8.9-1.3 0zm2.7.1c-.5-.5-.2-.9.6-.8 1 .2 1.3 1 .3 1-.3 0-.7 0-.9-.2zm-5.7-.5c.2-.2.4-.2.6-.1.5.3.4.5-.2.5-.3 0-.5-.2-.4-.4zm2.8-1c0-.2 0-.4.4-.4.3 0 .5.2.4.4l-.4.3-.4-.3zm-6-.4c0-.2 0-.3.4-.3.3 0 .5.1.5.3 0 .2-.1.4-.3.4-.2 0-.4-.2-.5-.4zm9.4 0c0-.2.3-.3.7-.3.4 0 .7.1.7.3 0 .2-.3.4-.7.4-.4 0-.7-.2-.7-.4zm1.6-.7c-.1-.2 0-.3.1-.3.2 0 .4.1.4.3l-.1.4-.4-.4zm-12.2-.4c0-.2.2-.2.4-.1s.3.3.3.4l-.3.1a.4.4 0 0 1-.4-.4zm7.6 0c-.1-.1 0-.3.2-.3s.3.2.3.4l-.1.3-.4-.3zm1.4 0c-.2-.3.8-.7 1.3-.5l.3.6c0 .4-1.3.4-1.6 0zm-2.9-.5c-.5-.2-.6-1.6-.2-1.6.7 0 1.6 1 1.4 1.4-.3.4-.5.5-1.2.2zm-2.6-2.3c0-.2.2-.3.4-.3s.4.1.4.3c0 .2-.2.4-.4.4a.4.4 0 0 1-.4-.4zm-3.8-.5c0-.3.1-.5.3-.5.1 0 .5.2.7.5.4.4.3.5-.3.5-.4 0-.7-.2-.7-.5zm6.3.2c0-.2.3-.4.5-.4.3 0 .6.2.6.4s-.3.3-.6.3c-.2 0-.5-.1-.5-.3z" style="fill:#b59876;stroke-width:.352778" transform="translate(-44.5 -173.2)"/>
  <path d="M79.4 241.5c-5.1-.8-9.4-3.9-11-7.9a94 94 0 0 1-1.8-8.2c0-.1.8.5 1.7 1.4 3.8 3.7 7.6 5.2 14.3 5.8 3.3.2 4 0 4.6-1.7.3-.7.7-1.3 1-1.3.1 0 .3-.3.3-.6s.1-.5.3-.3c.4.2.8-.7.8-2.1 0-.6 0-1.3.3-1.5.5-.5.8-2.6.4-2.6-.2 0-.3-.5-.3-1.1 0-1 0-1.2-.6-1.2s-.8-.2-.7-.9c0-.5-.4-1.2-1-1.8-1.2-1.2-1.2-1.3-.2-1.3l2.4-.4c.8-.2 1.8-.3 2-.2.4.2.5 0 .4-1.2-.1-1.3 0-1.4 1-1.5.5-.1 1.8-.7 2.8-1.3a13 13 0 0 1 2.7-1.3c1-.2 1-.2.8.6-.2.5-.1.7.1.5.3-.1.3.2 0 1-.6 2-2 8.7-2 10.2-.1 1 0 1.5.3 1.4.5-.1.5.3-.4 4.5-1.1 5.6-1.8 7-4.2 9.3a14.2 14.2 0 0 1-8.2 3.7c-2.5.4-3.2.4-5.8 0zm11.4-9.1c.4-.7 0-.7-.7-.2-.6.4-.6.5-.1.5.3 0 .7-.1.8-.3zm.4-5c-.1-.3-.2 0-.2.4 0 .5.1.7.2.4v-.8zm.4-4.6c-.1-.7-.2-.2-.2 1 0 1.1 0 1.6.2 1v-2zm.3-3c0-.4-.2-.1-.2.6s.1 1 .2.6v-1.2zM76.2 227l-1.5-.7c-.3-.2-.2-.3.3-.1.7.1.8 0 .8-1.4 0-1.6 0-1.6 1.9-2.7 1.4-.8 2-1.4 2.4-2.3.2-.7.6-1.3.7-1.3.7 0 2.4 1.2 2.7 2 1 2.2.1 4.2-2.3 5.5-2 1-3.4 1.3-5 1zm-.6-6.9c-.1-1.1-.4-1.6-.8-1.6s-.3-.1.3-.4c.8-.3 4-.2 4.4.2.3.3-.8 2.2-1.7 2.8-1.4 1-1.9.8-2.2-1zm13.2-7c2.4-.5 3.3-.5 2.8 0l-2.8.3-2.6.2 2.6-.5zM80 213c-2.9-.5-8-2.1-10.4-3.3-4.8-2.3-7.1-5-7.7-8.8l-.3-1.5 2 1.4c1 .7 2 1.4 2 1.6 0 .2-.2.2-.4 0-.3-.1-.4.2-.3 1.4.2 1.5 1.7 4.1 2.5 4.1l1.8.8c2 1 2.8 1 3.3.4.4-.6.5-.6.3 0s-.2.6 0 .3c.5-.6-.1-2.5-.7-2.5-.8 0-1.3-.7-1.4-1.6-.1-.9 0-1 .8-.7a43.4 43.4 0 0 0 19.8-.1c0-.2 2-1 4.4-1.6a28.9 28.9 0 0 0 7.4-3.4c.3 0-.6 3.8-1.2 5-1.7 3.2-7.3 6.6-12.6 7.5a85.3 85.3 0 0 1-9.3 1zm-7.8-7a1 1 0 0 0-.8-.8c-.5-.1-.5 0-.1.6.5.9 1 1 .9.1zm4.3-6.2c-2.1-.3-4.7-1-4.5-1.2l1.4-.3c1.7-.2 2.4-.8 2.4-1.9 0-1.1-1.3-1.9-3.3-1.9-1 0-2.4-.1-3.1-.3-.8-.2-1.4-.2-1.4 0s-.2.3-.5.3-.7.3-.8.6c-.4.6-.5.6-1.3-.3a7.1 7.1 0 0 1-1.6-5.5c.7-3.1 3.6-5.2 9-6.6 3-.8 4-.9 6.7-.7a41.7 41.7 0 0 1 4.8.5l1.2.8c.7.6.8.8.5 1.3-.4.4-.3.6.3 1.1.4.4.8.8.8 1 0 .6-.3.5-1-.2-.9-.8-7.1-.4-10.7.8-1.5.5-2 .8-1.2.6l4-.2h2.6l.9 1.5.8 2c0 1.2 3.6 3.3 5.6 3.3 1.5 0 3.5 1 4.7 2 1.6 1.6 1.3 2-2.4 3a71 71 0 0 1-13.9.3zM71.2 189c.4-.5-2 1-2.7 1.6-1.5 1.3-.9 1.1.9-.2l1.8-1.4zm.6 8.2c.2-.7 1.2-.6 1.4 0 .1.3-.2.5-.7.5-.7 0-.9-.1-.7-.5zm-3.2-1.3c-.2-.2 0-.3.3-.3s.5.1.4.3l-.4.4-.3-.4zm3 0c0-.2.3-.3.7-.3.4 0 .7.1.7.3 0 .2-.3.4-.7.4-.4 0-.7-.2-.7-.4zm21.1-1.7c-.3-.7-.3-.8.4-.7.5.1.9.4.9.6 0 .9-.8.9-1.3 0zm2.7.1c-.5-.5-.2-.9.6-.8 1 .2 1.3 1 .3 1-.3 0-.7 0-.9-.2zm-5.7-.5c.2-.2.4-.2.6-.1.5.3.4.5-.2.5-.3 0-.5-.2-.4-.4zm2.8-1c0-.2 0-.4.4-.4.3 0 .5.2.4.4l-.4.3-.4-.3zm-6-.4c0-.2 0-.3.4-.3.3 0 .5.1.5.3 0 .2-.1.4-.3.4-.2 0-.4-.2-.5-.4zm9.4 0c0-.2.3-.3.7-.3.4 0 .7.1.7.3 0 .2-.3.4-.7.4-.4 0-.7-.2-.7-.4zm1.6-.7c-.1-.2 0-.3.1-.3.2 0 .4.1.4.3l-.1.4-.4-.4zm-12.2-.4c0-.2.2-.2.4-.1s.3.3.3.4l-.3.1a.4.4 0 0 1-.4-.4zm9 0c-.2-.3.8-.7 1.3-.5l.3.6c0 .4-1.3.4-1.6 0zm-2.9-.5c-.5-.2-.6-1.6-.2-1.6.7 0 1.6 1 1.4 1.4-.3.4-.5.5-1.2.2zm-2.6-2.3c0-.2.2-.3.4-.3s.4.1.4.3c0 .2-.2.4-.4.4a.4.4 0 0 1-.4-.4zM85 188c0-.3.1-.5.3-.5.1 0 .5.2.7.5.4.4.3.5-.3.5-.4 0-.7-.2-.7-.5zm6.3.2c0-.2.3-.4.5-.4.3 0 .6.2.6.4s-.3.3-.6.3c-.2 0-.5-.1-.5-.3z" style="fill:#b69569;stroke-width:.352778" transform="translate(-44.5 -173.2)"/>
  <path d="M79.4 241.5c-5.1-.8-9.4-3.9-11-7.9a94 94 0 0 1-1.8-8.2c0-.1.8.5 1.7 1.4 1 .9 2.1 2 2.7 2.3a26 26 0 0 0 7.4 3c2.4.4 9.7.7 9 .3-.4-.3-.4-.4 0-.8.2-.2.4-.7.4-1 0-.4.3-.8.6-1 .3 0 1-.6 1.6-1 .6-.6 1-.8 1-.6-.2.6 0 2 .1 1.9.3-.3 1.3-15.2 1.2-16-.2-.8 0-1 .7-1 .6 0 1.5-.2 2.2-.6 1.8-1 2.8-1.2 2.8-.7 0 .2-.3.7-.8 1l-.8.8.9-.4c.4-.3.9-.4 1-.3.1.2-.4 4.4-1.1 8.2a32 32 0 0 0-.6 4.2v1.5l.9-1.1c.5-.6.9-1 .9-.8l-.8 3.8c-1.1 5.6-1.8 7-4.2 9.3a14.2 14.2 0 0 1-8.2 3.7c-2.5.4-3.2.4-5.8 0zm11.5-9.8c0-.5 0-.6-.2-.3 0 .3-.6.8-1.3 1l-1 .3h1.2c1-.1 1.2-.3 1.3-1zM76.2 227c-1.5-.4-1.8-.7-.6-.7.8 0 .9-.1.9-1.7 0-1.7 0-1.8 1.6-2.7 1-.6 1.7-1.3 2-2.1.2-.7.6-1.3.7-1.3.7 0 2.4 1.2 2.7 2 1 2.2.1 4.2-2.3 5.5-2 1-3.4 1.3-5 1zm13.8 0c-.5-.5-.2-1.7.5-2 .5-.1.6.4.1.8-.2 0-.3.3-.3.5s.1.3.3.2c.2-.2.3 0 .1.3-.2.6-.2.6-.7.2zm-13.4-7c.1-1.5 0-1.8-.4-2l.7-.1c1.4 0 2.8.2 2.8.6 0 .6-1.7 2.6-2.5 2.9-.8.3-.8.3-.6-1.4zm13.9 1.5c-.3-.3 0-.9.5-.9.2 0 .3.3.3.6 0 .5-.4.7-.8.3zm-.6-1.7c-.2-.3-.3-.7-.1-1 .1-.5 0-.6-.4-.4-.5.2-.5 0-.2-.7.2-.5.2-1 0-1.1-.3-.4.8-.9 1.8-.9s1 0 .8 1.8c-.3 2.5-1 3.4-1.9 2.3zm-1-6.7c2.3-.5 3.2-.5 2.7 0l-2.8.3-2.6.2 2.6-.5zM80 213a38 38 0 0 1-10.5-3.5s1 .1 1.8.4c1.5.4 1.7.4 1.9 0 .1-.4.4-.4 1-.2.7.3.9.2.9-.2 0-.3-.2-.4-.6-.3-.4.2-.5.1-.3-.1.1-.3 0-.5-.1-.5-.2 0-.3-.6-.3-1.4 0-1.1 0-1.4-.5-1.4-.4 0-.7-.2-.7-.4 0-.4.5-.4 2.6 0 5 .8 15.3.3 16-.9.2-.2 2.2-1 4.5-1.6a26.3 26.3 0 0 0 7.4-3.4c.3 0-.6 3.8-1.2 5-1.7 3.2-7.3 6.6-12.6 7.5a85.3 85.3 0 0 1-9.3 1zm-15.7-7a12 12 0 0 1-2.4-5.3l-.3-1.4 1 .8c.5.5.8 1.3.8 1.8 0 1.4.6 3.1 1.4 4 .7.7 1 1.3.6 1.3l-1.1-1.1zm12-6.2-3.2-.8-1.4-.5h1.7c1.6 0 1.8-.2 2.2-1.3.3-.7.5-1.4.4-1.6-.5-.8-2.3-1.3-4.5-1.4-4 0-4.8-1-2.7-3 2-1.9 3.2-2.5 5.7-3.1 4-1 7-.7 7 .8 0 .3.1.7.3.9.2 0 .3.6.3 1.1 0 1.6 4.1 4 6.9 4 1.5 0 4.8 2.1 4.8 3.2 0 .3-1.3.8-3.4 1.4-1.8.5-11.8.7-14 .3zm-4.3-2.7c.3-.3.7-.4 1-.3.6.4.3 1-.6 1-1 0-1-.1-.4-.7zm-.3-1.2c0-.2.1-.3.5-.3s.8.1.8.3c0 .2-.3.4-.5.4-.3 0-.6-.2-.8-.4zm-6.4-1c-1.6-1.8-2-5-1-7 1.9-3.6 9-6.4 15.2-6 4.2.4 6.4 1.4 5.5 2.6-.3.3-.4.7-.3 1 .2.5-.2.6-2.7.6-6.4 0-13.5 3-15.2 6.4-.6 1-.4 2.2.2 1.3.1-.2.4-.3.6-.2.6.4.2 1-.6 1-.4 0-.7.2-.8.5 0 .4-.2.4-.9-.3zm27.4-.8c-.3-.6-.3-.7.4-.6 1 .2 1.3.9.5 1.2a.9.9 0 0 1-.9-.6zm2.7-.1c-.1-.4 0-.5.6-.5.4.1.8.3.9.6.2.6-1.2.5-1.5-.1zm-5.6 0c.3-.2.6-.2.7 0 .1 0 0 .2-.4.2-.5 0-.5-.2-.3-.3zm2.7-1.2c0-.2 0-.4.2-.4s.4.2.4.4 0 .3-.2.3l-.4-.3zm-5.8-.4c0-.2.2-.3.4-.3s.3.1.3.3c0 .2-.1.4-.3.4a.4.4 0 0 1-.4-.4zm9.2 0c0-.2.3-.3.7-.3.4 0 .7.1.7.3 0 .2-.3.3-.7.3-.4 0-.7-.2-.7-.4zm-10.6-1c0-.3.2-.3.4-.2.2.1.3.3.3.4l-.3.1a.4.4 0 0 1-.4-.4zm9.4 0c-.2-.2 0-.4.5-.4.4 0 .7.2.7.4 0 .1-.2.3-.5.3s-.6-.2-.7-.3zm-3.3-.7c-.4-.1-.6-1.5-.2-1.5.4 0 1.5.8 1.5 1 0 .5-.7.7-1.3.5zM85 188c0-.3.2-.4.5-.3.3.1.5.3.5.5s-.2.3-.5.3a.5.5 0 0 1-.5-.5zm6.5.2c.1-.2.4-.3.5-.2.5.3.4.5-.2.5-.3 0-.4-.1-.3-.3z" style="fill:#a98a65;stroke-width:.352778" transform="translate(-44.5 -173.2)"/>
  <path d="M79 241.4a15 15 0 0 1-9.3-5.5c-1-1.3-2.2-5.3-2.9-9.3l-.2-1.4 1.8 1.7c1 1 1.7 2 1.7 2.2 0 .3.2.5.4.5s.3-.2.2-.4c-.1-.2-.2-.3 0-.3.3 0 1 1.5 1.2 2.8l.3 1.2v-1.2c0-.7-.1-1.5-.4-1.7-.2-.3.6 0 1.9.6a29.3 29.3 0 0 0 10.3 2.3c.5.2 2.3.2 4 0l2.9-.2.2-1.3.8-9.7.6-8.4h1c.4 0 1.2-.2 1.6-.5 1.2-.8 1.5-.3.4.5-1 .9-.3 1 1.2.2l1-.6-.2 1.9-1.1 7c-.5 2.7-.8 5-.7 5.2.2.1.8-.4 1.5-1.1.6-.8 1.2-1.3 1.2-1.2 0 1.2-2 8.8-2.5 10-1.6 3.4-5.9 6-10.8 6.9-2.6.4-3.2.4-6.2-.2zm-2.9-2c0-.1-.3-.3-.7-.4-.5 0-.8-.4-1-1 0-1-.3-1.3-.7-.7-.3.4-.4.3-.7-.5-.4-1-.5-1-.7-.4-.3.7-.3.6-.5-.2-.3-.7-.3-.7-.5-.2-.2 1 .8 2 2.9 3 2 1 2 .9 2 .5zm-1-12.7c-.5-.3-.4-.3.1-.2 1 .4 1.6-.4 1.7-2.2 0-1.5 0-1.7 1.5-2.6 1.1-.6 1.6-1.2 1.8-2 .3-1.3.4-1.3 1.9-.4a4 4 0 0 1 1.8 3.4c0 1-1.5 2.8-3.2 3.7-1.5.8-4.7 1-5.6.3zm1.8-6.7c0-1.2 0-1.5-.6-1.8a90.9 90.9 0 0 0 2.9 0c.7 0-.1 2-1 2.7-1.2.8-1.4.7-1.3-1zm11.4-6.7 2.1-.2c1 0 .9 0-.3.2-1.8.4-3.3.4-1.8 0zm-8.6-.3c-3-.6-7-1.9-6.9-2.2.1-.2.5-.3.8-.3 1.8.2 2 .1 1.7-1.8l-.4-2.5c-.2-.5.4-.5 5.1-.4a35.8 35.8 0 0 0 22.8-5.9c.5 0-.3 3.4-1 4.8-2.7 4.5-10.4 8-18 8-1 0-2 0-2 .3 0 .2-.1.3-.3.3l-1.8-.3zM64 205.8c-1-1.4-1.8-3.1-2.1-5l-.2-1.4.8 1a5 5 0 0 1 1 2.7c.2 1.4.5 2.2 1.2 2.9.6.5.8 1 .6 1-.2 0-.8-.5-1.3-1.2zm12-6-3.4-.9c-.8-.3-.7-.3.8-.4 1.7 0 2.2-.3 2.5-1.8.2-.8 0-1-.8-1.7-.8-.5-1.4-.7-2-.6l-3-.1c-1-.2-2-.2-2.2 0-.5.5-1 .4-1-.2 0-.3.3-.4.6-.3.3.1.4 0 .3-.6-.4-1.5 3.3-4.2 7-5 2.6-.7 5.1-.8 5.8-.4.5.3 1.5 2.8 1.5 3.5 0 1.4 4 3.6 6.5 3.7a6 6 0 0 1 2.1.4c1.3.7 2.7 2.1 2.7 2.7 0 1.7-11.3 2.8-17.4 1.7zm-4-2.6c.3-.3.7-.4 1-.3.5.4 0 1-.8 1-.7 0-.7-.1-.2-.7zm-.3-1.2c0-.2.1-.3.5-.3s.8.1.8.3c0 .2-.3.4-.5.4-.3 0-.6-.2-.8-.4zm-6.3-1c-.8-.8-1.6-3-1.6-4.4 0-2.4 2.6-5.2 6.2-6.6 3.7-1.4 10.5-1.7 11.2-.4.1.2.5.4.8.4.3 0 .4.3.3.6-.2.4-.3.5-.5.1-.2-.2-.5-.3-.7-.1-.3.1-.2.4.2.8.6.6.5.6-1.7.8a17 17 0 0 0-4.2.9c0-.4-4.5 1.7-6 2.7-1.7 1-3.4 3.5-3 4.1v1c-.3.8-.3.8-1 .1zm27.2-.9c-.2-.6 0-.7 1-.3.8.3.7.8-.1.8-.4 0-.8-.2-.9-.5zm2.8 0c-.1-.4 0-.5.6-.5.4.1.8.3.9.6.2.6-1.2.5-1.5-.1zm-5.6 0c.3-.2.6-.2.7 0 .1 0 0 .2-.4.2-.5 0-.5-.2-.3-.3zm2.7-1.2c0-.2 0-.4.2-.4s.4.2.4.4 0 .3-.2.3l-.4-.3zm-5.6-.4c-.1-.2 0-.3.2-.3s.3.1.3.3l-.1.4-.4-.4zm9 0c0-.2.3-.3.7-.3.4 0 .7.1.7.3 0 .2-.3.3-.7.3-.4 0-.7-.2-.7-.4zm-1.2-1c-.2-.2 0-.4.5-.4.4 0 .7.2.7.4s-.2.3-.5.3-.6-.1-.7-.3zM91 190c0-.8 0-.8 1-.3s.9 1-.2 1c-.6 0-.8-.1-.8-.7zm-6-1.7c0-.2.2-.4.5-.4s.5.2.5.4-.2.3-.5.3-.5-.1-.5-.3zm6.5 0c.1-.2.4-.3.5-.2.5.3.4.5-.2.5-.3 0-.4-.1-.3-.3z" style="fill:#a6855a;stroke-width:.352778" transform="translate(-44.5 -173.2)"/>
  <path d="M79 241.4a15 15 0 0 1-9.3-5.5c-1-1.3-2.2-5.3-2.9-9.3l-.2-1.4 1.7 1.8a6 6 0 0 1 2 3l.4 2.5c.1.7.4 1.3.7 1.3.3 0 .6.3.7.6 0 .4.5.6 1 .7.8 0 .9 0 .5-.5-.2-.2-.5-.4-.7-.2-.2 0-.2-.2 0-.6.4-.6.6-.7.8-.3.2.3.3.3.3 0 0-.2-.2-.5-.6-.7-.3-.2-.6-.7-.6-1 0-.7 0-.7.4-.4.4.3.5.2.5-.2 0-.5 0-.5 1.2 0a32.8 32.8 0 0 0 13 1.7l3-.2.2-1.3c.2-1.3 1.3-14 1.4-16.4 0-1 .2-1.3.8-1.4.5-.1.8 0 .8.3 0 .2.3.5.7.6.6.1.6.5.6 2.7 0 1.3 0 2.5.2 2.5s.2.1.1.3l-.2 2.6c0 1.2-.2 2.8-.5 3.7-.2.8-.3 1.5-.1 1.5.2 0 1-.7 2-1.5 1.3-1.3 1.5-1.4 1.3-.6 0 .5-.5 2.4-.9 4.2-.9 4.3-1.7 6-4 8-2 1.9-4.8 3.1-8.2 3.7-2.6.4-3.2.4-6.2-.2zm-3-2.4c-.3-.4-.7-.9-.7-1.1 0-.2-.1-.3-.3-.2-.2.2-.5-.2-.6-.8-.1-.6-.3-1.2-.5-1.3-.2-.1-.2.1-.1.5 0 .3 0 .2-.3-.2-.4-.9-.8-1-1.2-.4-.3.5-.8 0-.8-.8 0-.4-.2-.6-.4-.5-.2.1-.2.5-.1.7 0 .3 0 .6-.2.6s-.4-.2-.5-.5c-.1-.2-.2-.1-.2.2 0 1.3 4.3 4.5 6 4.5.6 0 .6 0 0-.7zm-5-8-.2-1.1c0-.4.1-.3.3.2l.3 1.2c-.1.2-.3.1-.4-.2zm4-4.3c-.3-.3-.1-.3.7-.3H77l.1-2c.1-1.8.2-2 1.5-2.8.9-.6 1.4-1.3 1.6-2 .3-1.3.4-1.3 1.9-.4 2 1.3 2.4 3.5.9 5.3a7 7 0 0 1-5.5 2.5c-1 0-2.1-.2-2.4-.3zm2.4-6.9c.2-1.7.3-2 1.4-1.7.7.2.7.3.2 1.4-.2.6-.7 1.2-1.1 1.5-.7.3-.7.2-.5-1.2zm10.8-6.6 2.1-.2c1 0 .9 0-.3.2-1.8.4-3.3.4-1.8 0zm-8.8-.4-4.2-1-2.5-.8 1.7-.3c1-.1 1.9-.2 2 0 .4.2.8-.7.9-2 0-1 0-1.2-.8-1-.4 0-.8 0-.8-.2 0-.1.2-.3.5-.3s.6-.2.6-.5c0-.4-.3-.5-.7-.4-.4.2-.8 0-.9-.3-.1-.3 0-.4.7-.4a88.2 88.2 0 0 0 14-.4 35 35 0 0 0 12.8-5.4c.5 0-.3 3.4-1 4.8-2.7 4.5-10.4 8-18 8-1 0-2 0-2 .3 0 .2-.1.3-.3.3l-2-.4zM63 204.3c-.4-.6-.7-1.4-.7-1.7 0-.4 0-.4.2 0l1 1.7.4 1.2-1-1.2zm-1.2-3.6-.2-.8c0-.4 0-.5.4-.2.2.2.3.6.2.8 0 .2-.2.3-.4.2zm14-1-3.3-.9c-.8-.3-.7-.3.8-.4 1.3 0 1.8-.2 2.4-1 1-1.2.9-1.6-.3-2.5-.7-.5-1.5-.7-3.5-.7-2.9 0-4-.4-4-1.6 0-2.6 8.3-6 12.2-5 .7.3 1.9 2.4 1.6 3.2-.3 1.3 3.3 3.7 6 4 1 0 2.5.5 3.2.8 1.5.8 2.7 2.3 2.2 2.8-1.4 1.4-12.4 2.2-17.2 1.3zm-4-2.6c.4-.3.8-.4 1-.3.6.4.1 1-.7 1-.7 0-.7-.1-.2-.7zm.2-1.2c-.1-.2 0-.3.3-.3s.6.1.6.3c0 .2-.2.4-.4.4l-.5-.4zm-7.4-2c-2.6-5.1 1.2-9.6 9.3-11 3-.5 6-.2 6.9.7.6.6.6.7 0 .9-.4.2-.5.3 0 .8.3.4.3.5 0 .3s-.5-.1-.5 0c0 .3-.5.5-1 .5-1.6 0-6 1.2-8.1 2.3-2.6 1.3-5 3.6-5.2 5.2-.3 1.6-.7 1.6-1.4.2zm2.3.3c0-.2.2-.4.5-.4s.5.2.4.4l-.6.3c-.2 0-.3-.1-.3-.3zm25.6-.2c-.2-.6 0-.7 1-.3.8.3.7.8-.1.8-.4 0-.8-.2-.9-.5zm2.8 0c-.1-.4 0-.5.6-.5.4.1.8.3.9.6.2.6-1.2.5-1.5-.1zm.5-1.6c0-.2.2-.3.5-.3s.6 0 .6.3l-.6.2c-.3 0-.5 0-.5-.2zm-1.2-1c-.2-.2 0-.4.5-.4.4 0 .6.2.5.4-.1.2-.3.3-.5.3s-.4-.1-.5-.3zm-3.5-1c-.5-.5-.2-.9.5-.7 1 .1 1.3 1 .4 1-.4 0-.8-.2-.9-.3zm-6.2-2.2c0-.2.2-.4.5-.4s.5.2.5.4-.2.3-.5.3-.5-.1-.5-.3z" style="fill:#9d8159;stroke-width:.352778" transform="translate(-44.5 -173.2)"/>
  <path d="M79 241.4c-4.3-.8-8.4-3.5-10-6.7-.7-1.3-2.6-9-2.3-9.2.2-.2 2 2.1 2.8 3.6.4.7.5 1.1.3 1-.2-.1-.4 0-.4.3 0 .4.2.5.4.4.1 0 .4.2.5.6.3 1.3.2 1.8-.2 1.5-.4-.2-.4-.2 0 .3.3.3.3.6 0 .7-.5.4.3 2.5 1.5 3.5 2.3 2 5.8 3.3 5.8 2.1 0-.3-.2-.6-.6-.7-.5-.1-.7-.6-.9-1.9-.1-1.1-.3-1.6-.6-1.4-.3.1-.3 0 0-.3.4-.5.4-1.1 0-3-.1-.8 0-.9.4-.7 2.6 1 9.6 1.8 12.9 1.4 2.2-.2 2.3-.2 2.5-1.3.2-1 1.2-12.5 1.4-16.2 0-1.1.2-1.6.5-1.5.2.1.3.4.2.6-.1.2.1.3.7.2.5-.1 1 0 1.2.2.4.6.4 2.4-.1 3.4a13 13 0 0 0-.7 4 247 247 0 0 1-.3 4c0 .5.2 1 .6 1.3.5.3.9 0 2.1-1.2l1.6-1.5-.5 2.4c-.8 4.3-1.2 5.8-2 7.4-1.5 3.3-6 6.2-10.7 6.8-3 .5-2.8.5-6-.1zm-2.6-14.6c.7-.1 1.2-1.3 1.2-3.3 0-.7.3-1.2 1.2-2a4 4 0 0 0 1.5-1.9c.2-1.2.3-1.2 1.8-.3 2 1.3 2.4 3.5.9 5.3a6.8 6.8 0 0 1-5.5 2.4c-1 0-1.5 0-1.1-.2zm1.1-7c.1-1.4.2-1.5 1.1-1.5 1.1 0 1.1.4.1 2-.9 1.4-1.3 1.2-1.2-.5zm2.2-6.8a43 43 0 0 1-6.2-1.8c-.2-.2.2-.2.8 0 .8.2 1.1.2 1.1 0 0-.3.5-.4 1-.3.7.1 1.2 0 1.3-.3.1-.2 0-.4-.2-.4s-.2-.2 0-.5V206h4.6a37.2 37.2 0 0 0 19.8-5.3l1.2-.8-.3 1.7c-.5 3.6-3 6.4-7.8 8.6a30 30 0 0 1-11.3 2.5c-1 0-2 .2-2 .4s0 .3-.2.3l-1.8-.3zm10.1 0h.9c.2.2 0 .3-.4.3-.5 0-.7-.1-.5-.2zm-26.7-8.6c-.4-.6-.7-1.4-.7-1.7 0-.4 0-.4.2 0l1 1.7.4 1.2-1-1.2zm-1.2-3.6-.2-.8c0-.4 0-.5.4-.2.2.2.3.6.2.8 0 .2-.2.3-.4.2zm14.8-.9-3.4-.8-1.6-.5h1.7c1.3 0 1.8-.3 2.4-1 1-1.3.9-1.7-.3-2.6-.7-.5-1.5-.7-3.5-.7-1.4 0-2.8-.1-3.2-.4-2.4-1.2 1-4.4 5.8-5.6 4-1 6.5-.9 6.5.3 0 .3.2 1 .5 1.3.3.4.4.9.3 1-.4.4 1 2 2.5 2.8.9.6 2.4 1 3.4 1.2 2.3.2 4.4 1.2 5.1 2.4.8 1.1.5 1.4-2.1 2a51 51 0 0 1-14.1.6zm-4.8-2.6c.2-.3.6-.4 1-.3.6.2.2.8-.7.8-.6 0-.6 0-.3-.5zm.2-1.3c-.1-.2 0-.3.3-.3s.6.1.6.3c0 .2-.2.4-.4.4l-.5-.4zm-7.5-2.3c-.7-1.7-.5-4.8.5-6 1-1.3 4.2-3.3 5.4-3.3.5 0 1-.1 1.3-.3.4-.5 2-.6 2.5-.3.2.2.4.2.4 0s.7-.3 1.4-.3c.8 0 1.5 0 1.5.2s.2.2.4.1c.3 0 .7 0 .8.3.2.3.1.3-.2.1-.3-.2-.4-.1-.2.3l-.1.6c-.2 0-.3.2-.2.5.1.3-.7.7-3 1.4-5 1.5-8.5 4.2-9 6.9-.3 1.4-.8 1.4-1.5-.2zm2.4.6c0-.2.2-.4.5-.4s.5.2.4.4l-.6.3c-.2 0-.3-.1-.3-.3zm25.6-.2c-.1-.3 0-.5.3-.5.2 0 .6.2.9.5.3.4.3.5-.3.5-.4 0-.8-.2-.9-.5zm2.8 0c-.1-.4 0-.5.6-.5.4.1.8.3.9.6.2.6-1.2.5-1.5-.1zm.5-1.6c0-.2.2-.3.5-.3s.6 0 .6.3l-.6.2c-.3 0-.5 0-.5-.2zm-1.2-1c-.2-.2 0-.4.5-.4.4 0 .6.2.5.4-.1.2-.3.3-.5.3s-.4-.1-.5-.3zm-3.5-1c-.5-.5-.2-.9.5-.7 1 .1 1.3 1 .4 1-.4 0-.8-.2-.9-.3zm-6.2-2.2c0-.2.2-.4.5-.4s.5.2.5.4-.2.3-.5.3-.5-.1-.5-.3z" style="fill:#a37c50;stroke-width:.352778" transform="translate(-44.5 -173.2)"/>
  <path d="M79 241.4c-4.3-.8-8.4-3.5-10-6.7-.7-1.3-2.6-9-2.3-9.2.2-.2 2 2.1 2.8 3.6.4.7.5 1.1.3 1-.2-.1-.4 0-.4.3 0 .4.2.5.4.4.1 0 .4.2.5.6.3 1.3.2 1.7-.2 1.5-.4-.2-.4-.2 0 .2.3.3.2.6-.2 1.2-.5.8-.4 1 1 2.4 2.5 2.4 6.5 4.2 6.5 2.8 0-.3-.2-.6-.6-.7-.5-.1-.7-.6-.9-1.9-.1-1.1-.3-1.6-.6-1.4-.3.1-.3 0 0-.3.4-.5.4-1.1 0-3-.1-.8 0-.9.4-.7 2.6 1 9.5 1.8 12.9 1.4 2.2-.2 2.3-.3 2.5-1.3.2-1 1.1-11.9 1.4-16.2 0-1.1.2-1.6.5-1.5.2.1.3.3.2.5 0 .2.1.3.5.3.6 0 .7.2.4 1.5-.2.8-.2 1.5-.2 1.7.4.6.5 4.3.2 5.3-.2.7-.1 1 .1 1s.3.3.1.7a7 7 0 0 0-.3 1.3c-.2 1-.6 2-1 2-.2 0-.2.1-.1.3.3.5 2.2-.5 4-2.2l1.4-1.4-.5 2.4c-.8 4.3-1.2 5.8-2 7.4-1.5 3.3-6 6.2-10.7 6.8-3 .5-2.8.5-6-.1zm-2.7-14.6c1-.2 1.2-.7 1.3-2.6 0-1.5 0-1.8 1.2-2.6a4 4 0 0 0 1.5-2c.2-1.2.3-1.2 1.8-.3 2 1.3 2.4 3.5.9 5.3a6.8 6.8 0 0 1-5.5 2.4c-1 0-1.6 0-1.2-.2zm1.3-6.9c.4-1.7.4-1.7 1.3-1.6.7.1.7.2.2 1.3a4 4 0 0 1-1.2 1.5c-.6.3-.6.2-.3-1.2zm2-7c-2.1-.4-5.7-1.4-6-1.7-.3-.2.1-.2.7 0 .8.2 1.1.2 1.1 0 0-.3.5-.4 1-.3 1.4.2 1.6-.2 1.3-2.9l-.2-2H82a37.2 37.2 0 0 0 19.8-5.3l1.3-1-.3 1.8c-.5 3.6-3 6.4-7.8 8.6a30 30 0 0 1-11.3 2.5c-1 0-2 .2-2 .4s0 .3-.2.3l-1.8-.3zm10.2.2h.9c.2 0 0 .2-.4.2-.5 0-.7-.1-.5-.2zm-12-13-2.8-.6c-1.1-.2-2-.5-1.8-.6 0-.2.4-.2.8-.1.5 0 1-.2 1.8-1 1.3-1.5 1.3-2.2.1-3.1-.7-.6-1.2-.7-2.5-.6H70c-1.4-.2-1.8-.4-2-1 0-.6 0-1.2.3-1.5 2-2.4 8.6-4.6 11.7-3.8.7.2 1.3 1.4 1.6 3.1 0 .6.6 1.4 1.2 2 1.2 1 5 2.4 6.5 2.4.9 0 2.9 1.3 3.5 2.2.5.9 0 1.3-2.3 2-1.9.5-11.4 1-12.9.6zm-5.7-2.8c.1-.3.4-.4.7-.3.6.2.3.8-.4.8-.3 0-.4-.2-.3-.5zm-7.4-3.5c-.8-1.8-.6-4.8.4-6.2 1-1.2 4.2-3.2 5.4-3.2.5 0 1-.1 1.3-.3.4-.5 2-.6 2.5-.3.2.2.4.2.4 0s.7-.3 1.4-.3c.8 0 1.5 0 1.5.2s.2.2.4.1c.3 0 .7 0 .8.3.2.3.1.3-.2.1-.3-.2-.4-.1-.2.3l-.1.6c-.2 0-.3.2-.2.5.1.3-.6.7-2.5 1.2-3 1-6.3 2.4-7.5 3.6a9.6 9.6 0 0 0-2.6 3.9c-.2.8-.2.8-.8-.5zm2.3.5c0-.2.1-.4.3-.4.2 0 .4.2.4.4s-.2.3-.4.3a.4.4 0 0 1-.3-.3zm25.6-.2c-.1-.3 0-.5.3-.5.2 0 .6.2.9.5.3.4.3.5-.3.5-.4 0-.8-.2-.9-.5zm3 0c0-.4.2-.5.5-.5 1 .2 1 1 .2 1-.5 0-.8-.2-.8-.5zm-1-2.6c0-.2.2-.4.6-.4.4 0 .6.2.5.4-.1.2-.3.3-.5.3s-.4-.1-.5-.3zm-3.4-1c-.5-.5-.2-.9.5-.7 1 .1 1.3 1 .4 1-.4 0-.8-.2-.9-.3zm-6.2-2.2c0-.2.2-.4.5-.4s.5.2.5.4-.2.3-.5.3-.5-.1-.5-.3z" style="fill:#987a55;stroke-width:.352778" transform="translate(-44.5 -173.2)"/>
  <path d="M80.6 241.6c-1.6-.1-4.8-1-6.3-1.9-2-1-4.4-3.3-5.3-5-.6-1.2-2.5-9-2.3-9.3l1.2 1.4c.9 1 1.2 2 1.5 4 .2 1.5.3 3 .2 3.5-.5 2 6.2 6.7 8.5 5.8.6-.2.6-.3 0-.3-.3 0-.5-.2-.5-.5l-.6-1.6c-.7-1.5-1-3.4-.3-2.9.2.3.3 0 .2-.9-.1-1-.2-1.1-.6-.6-.5.7-.9.2-.5-.8.3-.7.3-.7 2.7-.2 3.3.8 12 .8 12.4.1.2-.3.5-2 .6-3.9.7-10.1 1-13.2 1.5-13.3a55.2 55.2 0 0 1-.3 12.9c-.5 1.6 1.4.8 4.1-1.8l1.5-1.4-.8 4c-.5 2.3-1.1 4.7-1.4 5.4a13 13 0 0 1-7.6 6.4 27 27 0 0 1-8 1zm-3.4-5.3c0-.2-.2-.4-.4-.4s-.2.2-.1.4c0 .2.3.3.3.3.1 0 .2-.1.2-.3zm-.9-9.5c1-.2 1.2-.4 1.3-2.4 0-1.4.3-1.9 1.2-2.8.7-.6 1.3-1.5 1.6-2 .3-1 .3-1 1.4-.4 1.3.6 2.2 2.5 1.9 4-.5 2.1-3.3 3.9-6.3 3.8-1 0-1.5 0-1-.2zm1.5-7.1c.2-1.1.3-1.4.9-1.4.8 0 .8.4 0 1.7-.7 1.5-1 1.3-.9-.3zm0-7.3-2.1-.5c-.1 0-.3-.2-.3-.4s.4-.3.8-.3c1.5.1 2 0 2.2-.5.1-.3 0-.5-.1-.4-.2.2-.4 0-.4-.1 0-.2.2-.4.4-.4.4 0 .4 0 0-.4-.5-.6-.5-1.8 0-1.5.8.5 1.5.5 1 0-.5-.6-.4-1 .2-.6.5.4.5.4.3-.1-.1-.4-.4-.5-.8-.4l-.7.3c-.2 0-.4-.3-.4-.7 0-.2 2-.3 4.4-.4 7.4 0 13.8-1.7 18.8-5l2-1.1-.3 1.5a8.5 8.5 0 0 1-3 5.5c-3.3 3.2-8.1 5-15.7 5.7-4.6.4-4.2.5-6.4-.2zm2.1-2.8c0-.9-.4-1.1-.7-.5-.3.4 0 1.4.5 1.4.1 0 .2-.4.2-.9zm-4.2-10c-1.5-.2-2.7-.6-2.6-.7.1-.2.5-.2 1-.1.8.2 2.8-1.8 2.8-2.8 0-.3-.5-1-1-1.3-.7-.6-1.2-.7-2.5-.6-5.6.6-7-1.4-3-4 2.7-1.7 7.5-2.8 9.7-2.3.7.2 1.3 1.4 1.6 3.1 0 .6.6 1.4 1.2 2 1.2 1 5 2.4 6.5 2.4.9 0 2.9 1.3 3.5 2.3.6 1-.4 1.5-4 2.1a42 42 0 0 1-13.2 0zm-3.6-2.3c.1-.3.4-.4.7-.3.6.2.3.8-.4.8-.3 0-.4-.2-.3-.5zm-6.9-2.5c-.9-4.2-.2-7.2 1.7-7.5.3 0 .9-.4 1.3-.8a2 2 0 0 1 2-.6c.5 0 .9 0 .8-.2-.1-.2.3-.2.9-.1l1-.1c0-.4 1-.3 1.4.1.1.2 0 .2-.1 0-.6-.2-1 .8-.5 1.1.3.2-.3.6-1.3 1a9 9 0 0 0-1.9.9l-1.4 1c-.7.6-1 .7-.8.3l.4-.6c-1.4-.3-1.4-.3-1.2.6.1.6 0 1.2-.8 2.2-.6.7-1.2 1.7-1.2 2.2-.1.5-.2.7-.3.5zm1.8-.5c0-.2.1-.4.3-.4.2 0 .4.2.4.4s-.2.3-.4.3a.4.4 0 0 1-.3-.3zm25.6-.2c-.1-.3 0-.5.3-.5.2 0 .6.2.9.5.3.4.3.5-.3.5-.4 0-.8-.2-.9-.5zm3 0c0-.6 0-.6.8-.3.6.2.4.8-.3.8a.5.5 0 0 1-.6-.5zm-1-2.6c0-.2.2-.4.6-.4.4 0 .6.2.5.4-.1.2-.3.3-.5.3s-.4-.1-.5-.3zm-3.4-1c-.5-.5-.2-.9.5-.7 1 .1 1.3 1 .4 1-.4 0-.8-.2-.9-.3zm-6.2-2.2c0-.2.2-.4.5-.4s.5.2.5.4-.2.3-.5.3-.5-.1-.5-.3z" style="fill:#96744b;stroke-width:.352778" transform="translate(-44.5 -173.2)"/>
  <path d="M79.8 241.5c-3.7-.6-6.8-2.1-9.1-4.6l-1.4-1.5L71 237c1 1 2.6 2 3.5 2.5 2 .9 5.8 1.3 5.8.6 0-.2-.2-.3-.5-.2-.4.1-.6-.2-.7-1-.2-.7-.5-1.2-.8-1.2-.6 0-.8-.5-1-1.8 0-.6 0-1 .2-1 .3 0 .3-.2 0-.5-.1-.2-.3-.9-.3-1.4 0-.8 0-1 .4-.8 1.4.5 7 1 9.9.8 3.3-.2 3.7-.4 3.7-2.2 0-1 .2-1.2 1.9-1.9 1-.4 2.6-1.5 3.5-2.4l1.6-1.6-.9 4c-1 5-1.5 6.3-3.2 8a17 17 0 0 1-14.4 4.6zm-1.4-5c-.3-.8-.5-.7-.5.1 0 .4.2.7.3.6.2-.2.3-.5.2-.8zm-10.1-4-.8-3.1-.8-3.5c-.1-.6 0-.6.5.1.7 1 2 6.7 1.5 6.7-.2 0-.3 0-.4-.2zm8.4-5.7c1.3-.2 1.5-.6 1.6-2.7 0-1.4.1-2 .7-2.5a6 6 0 0 0 1.3-1.8c.4-1.2.4-1.2 1.5-.6 1.3.6 2.2 2.5 1.9 4-.5 2.2-3.4 3.9-6.3 3.8-1.2 0-1.4 0-.7-.2zm1.6-7.4c0-.8.1-1.1.5-1.1.7 0 .7.7 0 1.6-.5.6-.5.6-.5-.5zm-.3-6.8c-1.9-.4-1.7-.9.4-1.2 1-.1 1.6-.4 1.6-.6 0-.5 1-.4 1.2.1 0 .3.4 0 .7-.6.8-1.5.8-1.6-.3-1.1-1 .4-1.7 0-.9-.5.3-.2.4-.3.2-.3-.3 0-.5-.5-.6-1-.1-.7 0-1 .5-1 .3 0 .5.2.4.5-.2.5.7 1.6 1 1.3.2-.1.1-.6 0-1-.4-.9-.3-1 .7-1 6.6-.2 14.4-2.4 18.6-5.3l1.5-1-.2 1.5a8.5 8.5 0 0 1-3 5.5c-3.3 3.2-8.1 5-15.7 5.7-4.4.4-4 .4-6.1 0zm-.8-12.7c-2.8-.5-3.2-.7-2.2-1 .4-.2 1-.3 1.4-.1.5.1.5 0 .2-.3s-.3-.6.1-1c.7-.7.6-2-.2-2.9-.6-.6-1.2-.7-4.2-.7-3.3 0-3.5 0-3.8-.8-.4-.8-.3-1 .8-2a14 14 0 0 1 9.5-3.2c1.6 0 2 .2 2.1.6l.5 1.2c.2.3.2.8 0 1.2-.5.8 1.6 2.7 3.9 3.6.9.3 1.7.7 1.8 1 .1 0 .6.3 1 .3s.7.1.7.3c0 .1.4.2 1 .2 1 0 2.7 1.6 2.5 2.3-.4 1.1-10.8 2-15.1 1.3zm4.4-1c.3-.5 0-.5-1 0-.7.3-.7.3 0 .3.4 0 .9-.1 1-.3zm-9.5-1.4c.1-.2.4-.4.7-.4.3 0 .5.2.3.4 0 .1-.4.3-.7.3-.3 0-.4-.2-.3-.3zm20.6-3.4c0-.7.8-.5 1 .1 0 .2-.1.4-.4.4a.6.6 0 0 1-.6-.5zm3 .2c-.3-.6 0-.8.7-.5.3.1.5.3.4.5-.3.4-.8.4-1 0zm-30.5-.6c0-.4.1-.5.2-.2.2.3.1.6 0 .7-.1.1-.2-.1-.2-.5zm0-1.1.4-.7c.3-.3.3-.4 0-.6-.4-.2-.4-.2-.2.2.2.3.1.3-.2.2-.3-.2-.3-.4 0-.7.2-.3.3-.6.1-.7-.1-.1.2-.7.7-1.2.6-.5 1-.7 1-.5 0 .2.1.4.3.3.6-.4-.1 2.4-.8 3.2-.7.8-1.3 1-1.3.5zm26-2.4c-.2-.4 0-.5.5-.4.4 0 .9.3 1 .5.2.7-1.3.6-1.5-.1zm-22.3-2a2 2 0 0 0-1-.3c-.7 0-.7 0 0-.3.4-.2.8-.1 1 .2.1.3.4.4.6.3.2-.2.3-.1.2.1-.4.5-.5.5-.8 0zm16 0c0-.1.3-.3.6-.3s.5.2.5.4-.2.3-.5.3-.5-.1-.5-.3zM71.3 187c-.3-.2-.4-.4-.1-.4.2 0 .5.2.6.4.3.4.2.4-.5 0z" style="fill:#896744;stroke-width:.352778" transform="translate(-44.5 -173.2)"/>
  <path d="M77.2 240.9c-2-.6-4.2-1.7-4.2-2l1.9.7c1.3.7 2.8 1 5 1.1 2.8.2 3 .2 2.8-.4l-.2-1c0-.1-.2-.2-.4 0-.5.3-1.4-.5-1.4-1.3 0-.4-.1-.6-.3-.5-.2 0-.4 0-.5-.2-.2-.2 0-.3.3-.3.5 0 .5-.1.2-.5s-.3-.6 0-.8c.2 0 .3-.3.3-.5s-.1-.3-.3-.2c-.2.1-.3 0-.1-.4.1-.4 0-.5-.5-.3-.5.1-.7 0-.7-.6v-.8l4.8.1c2.6 0 5.3 0 6-.2 1.1-.3 1.2-.4 1.3-1.6.1-1.2.3-1.4 2.1-2.2 1-.5 2.6-1.5 3.3-2.2.8-.8 1.4-1.2 1.4-.9 0 1.2-1.6 7.5-2.2 8.8-1.2 2.8-4.4 5.1-8.3 6.3-2.6.8-7.8.7-10.3-.1zm-5.7-3.1-.8-1 1 .8c.9.8 1 1.1.8 1.1l-1-1zm-4.5-11c0-.6.1-.7.2-.5v.9c0 .2-.2 0-.2-.5zm9.8 0c1.9-.2 2.2-.6 2.2-3.1 0-1.2.1-2.3.3-2.3.2 0 .6-.6.9-1.4l.5-1.4 1.1.6c1.4.8 1.8 1.7 1.8 3.4 0 2.4-2.9 4.5-6.2 4.4-1.4 0-1.5 0-.6-.2zm2-8.2c-.1-.2 0-.3.1-.3.3 0 .4.1.4.3l-.1.4-.4-.4zm-.4-6c-1.5-.3-.6-.7 1.9-.9 1.3 0 2.1-.3 2.4-.6.5-.7 1-.8.7-.2-.2.2.1.1.6-.2 1-.7 1.2-1.1.4-1.1-.3 0-.5.1-.5.3 0 .6-1 .2-1-.5 0-.6 0-.7.4-.4.6.6 1.5 0 1.6-1.3 0-.8 0-1-.5-1-1.4 0-.1-.4 3.2-1 5.9-.9 10.5-2.5 13.8-4.7l1.6-1-.2 1c-.6 3-1.1 4-2.8 5.8-3.3 3.3-8.2 5-16 5.8-4 .4-4 .4-5.6 0zm5.2-4.7c0-.5-.2-1-.5-1-.2-.1-.3-.2 0-.2.2 0 .6.1 1 .4.6.5.6.5 0 1.1-.5.6-.5.5-.5-.3zm-4.8-8c-.1-.2.3-.3 1.1-.3a24.2 24.2 0 0 0 5.9-1c.1 0 .2-.2 0-.4-.2-.5-7-.3-7.7.3-.8.7-1.1.1-.5-1 .5-.9.5-1-.2-2-1-1.6-1.2-1.6-4.8-1.6-2.6 0-3.1 0-3.7-.7-.6-.7-.6-.7 0-1.6 1.4-1.9 6.2-3.7 9.7-3.7 1.6 0 1.8.1 2.3 1.1.3.6.4 1.5.3 2-.3 1.4.7 2.4 3.2 3.4 1.3.5 2.1 1 2.2 1.5 0 .3.3.8.5 1 .3.3.3.2.1-.3-.2-.6-.2-.7.3-.3.3.2 1.4.7 2.4 1 1.5.3 2 .6 2 1 0 .6-.3.7-1 .7-.5 0-.9.1-.8.3a25.3 25.3 0 0 1-11.3.6zm12.2-1.7c0-.2-.2-.4-.4-.4s-.3.2-.2.4l.4.3s.2-.1.2-.3zm-16.3 1c0-.4.6-.4 1.6 0 .6.3.5.3-.4.3-.7 0-1.2 0-1.2-.3zm-2.6-1.7c.1-.2.4-.4.7-.4.3 0 .5.2.3.4 0 .1-.4.3-.7.3-.3 0-.4-.2-.3-.3zm20.6-3.4c0-.7.8-.5 1 .1 0 .2-.1.4-.4.4a.6.6 0 0 1-.6-.5zm3 .2v-.6c.2-.3 1 .2 1 .6 0 .4-.7.4-1 0zM66.8 191c.1-.2.3-.3.4-.3l.1.3c0 .2-.1.4-.3.4-.3 0-.3-.2-.2-.4zm24.4-.9c-.2-.4 0-.5.4-.4.3 0 .6.3.7.5.2.7-.9.5-1.1-.1zm-6.2-2c0-.1.2-.3.5-.3s.5.2.5.4-.2.3-.5.3-.5-.1-.5-.3z" style="fill:#88653c;stroke-width:.352778" transform="translate(-44.5 -173.2)"/>
  <path d="M77.2 240.9c-2-.6-4.2-1.7-4.2-2l2 .8c2 1 6.4 1.5 8.5 1.1 1.2-.2 1.2-.3 0-.4-.2 0-.6-.6-.7-1.2-.2-.8-.5-1-.8-1-.6.3-1-1.1-.4-1.4.2 0 0-.1-.3-.2-.7 0-.8-.7 0-.7.5 0 .5 0 0-.5-.7-.8-.7-1.8 0-2.1l4.3-.3c5 0 5.5-.1 5.6-1.8.1-1.1.3-1.3 2.1-2.2a16 16 0 0 0 3.3-2.2c.8-.8 1.4-1.2 1.4-.9 0 1.2-1.6 7.5-2.2 8.8-1.2 2.8-4.4 5.1-8.3 6.3-2.6.8-7.8.7-10.3-.1zm-5.5-3-.7-.8.8.7c.8.6 1 1 .7 1l-.8-.9zm5.3-11.1c2.2-.4 2.3-.6 2.3-2.9 0-1.3.3-2.6.7-3.7l.8-1.6 1 .6c1.4.8 1.8 1.7 1.8 3.4 0 2.4-2.9 4.5-6.2 4.4h-1.8zm1.4-14.2c-1-.2-1-.2.4-.3l2-.1a4 4 0 0 0 1.4-.5 3 3 0 0 1 1.9-.3c.5.1.9.1.8 0 0-.2 0-.6.2-1 .2-.3.2-1.2.1-1.8 0-.7 0-1.3.2-1.3v-.6c-.1-.5.3-.7 2.9-1a38.7 38.7 0 0 0 14.3-5.4c.3 0-.2 2.7-.7 4-.6 1.6-3.6 4.2-6.4 5.6-3 1.4-6.3 2.2-11.5 2.7-4 .4-4 .4-5.6 0zm-6.1-15.1c0-.2.2-.4.5-.4s.5.2.3.4c0 .1-.3.3-.5.3s-.3-.2-.3-.3zm20.7-3.1c-.4-.3-.3-.8 0-.8.2 0 .4.2.6.5.2.5-.2.7-.6.3zm2.8 0c-.4-.3-.3-.8 0-.8.2 0 .5.2.6.5.2.5-.2.7-.6.3zm-19-.7-1.5-.7c-3.3-1.3-3.4-1.3-4.3-.5l-.9.9-.7-.8-.7-.7 1.2-1a15 15 0 0 1 9-2.8c1.5.2 1.8.4 2 1.6 0 .6-.2.9-.7 1-1 .2-1.3.6-1 1.4.3.3.3.8.2 1-.3.5-1.9.8-2.5.6zm-3.1-2.6c.3-.2.4-.4.3-.5 0 0-.5 0-.8.4-.8.5-.4.6.5.1zm17.6-.9c0-.3.2-.5.3-.5.2 0 .4.2.5.5.2.3 0 .6-.3.6a.5.5 0 0 1-.5-.6zm-6.2-2c0-.1 0-.3.4-.3.3 0 .5.2.5.4s-.1.3-.3.3l-.6-.3z" style="fill:#776049;stroke-width:.352778" transform="translate(-44.5 -173.2)"/>
  <path d="M77.8 241a7 7 0 0 1-2-.7 24.5 24.5 0 0 0 7.7.5c1.2-.2 1.2-.3 0-.4-.2 0-.6-.6-.7-1.2-.2-.8-.5-1-.8-1-.6.3-1-1.1-.4-1.4.2 0 0-.1-.3-.2-.7 0-.8-.7 0-.7.5 0 .5 0 0-.5-.7-.8-.7-1.8 0-2.1l4.4-.2c4.8 0 5.6-.3 5.6-2 0-1 .2-1.2 2-2a16 16 0 0 0 3.3-2.3c.8-.8 1.4-1.2 1.4-1a53 53 0 0 1-2.4 9.3 13 13 0 0 1-8.4 6c-2.4.6-7 .6-9.4 0zm.1-14.4c1.2-.4 1.2-.4 1.4-2.9.1-1.3.5-3 .9-3.8.7-1.3.7-1.3 1.6-.7l1.3 1.1c.6.8.6 3.3-.1 4.2a9.2 9.2 0 0 1-5.2 2.6h-1.1zm1-14c-.8-.3-.8-.3.2-.4h1.6c.3 0 1-.2 1.5-.5a3 3 0 0 1 1.9-.3c.5.1.9.1.8 0 0-.2 0-.6.2-1 .2-.3.2-1.2.1-1.8 0-.7 0-1.3.2-1.3v-.6c-.1-.6.2-.7 2.1-1a35.5 35.5 0 0 0 15.2-5.4c.3 0-.4 3.1-1 4.1-1.3 2.7-6.5 6-10.8 7.1-1.5.4-10 1.5-10.7 1.4l-1.2-.3zm-6.6-15.1c0-.2.1-.4.3-.4.2 0 .4.2.4.4 0 .1-.2.3-.4.3a.4.4 0 0 1-.3-.3zm20.6-3.2c-.4-.7 0-.8.5-.2.3.3.3.5 0 .5-.1 0-.4-.1-.5-.3zm2.9.1c-.4-.3-.3-.8 0-.8.2 0 .5.2.6.5.2.5-.2.7-.6.3zm-19-.7-1.5-.7c-3.3-1.3-3.4-1.3-4.3-.5l-.9.9-.7-.8-.7-.7 1.2-1a15 15 0 0 1 9-2.8c1.5.2 1.8.4 2 1.6 0 .6-.2.9-.7 1-1 .2-1.3.6-1 1.4.3.3.3.8.2 1-.3.5-1.9.8-2.5.6zm-3.1-2.6c.3-.2.4-.4.3-.5 0 0-.5 0-.8.4-.8.5-.4.6.5.1zm17.6-.9c0-.3.2-.5.3-.5.2 0 .4.2.5.5.2.3 0 .6-.3.6a.5.5 0 0 1-.5-.6zm-6.2-2c0-.1 0-.3.4-.3.3 0 .5.2.5.4s-.1.3-.3.3l-.6-.3z" style="fill:#785836;stroke-width:.352778" transform="translate(-44.5 -173.2)"/>
  <path d="M82.4 241.2a12 12 0 0 0 3.7-.6c.4-.5-.6-2.7-1.2-2.4-.1.1-.3-.1-.3-.5 0-.5.2-.7.4-.5.3.1.3 0 0-.5a6 6 0 0 1-.4-2v-1.4l2.5-.1c3.5-.2 4.2-.5 4.2-2 0-1 .2-1.2 2-2.2a20 20 0 0 0 3.4-2.2l1.3-1.2-.2 1.2c-.7 3.5-1.6 7.2-2.2 8.4-2 4-7.3 6.4-13.4 6.3h-3zm.6-6.7c-.1-.2 0-.4.2-.4s.4.2.4.4-.1.3-.2.3l-.4-.3zm.2-1c0-.3.2-.4.4-.4s.2.1.1.3c0 .2-.3.4-.3.4l-.2-.4zm-5-6.9 1.3-.4.2-2.8c.2-2.5.7-4.4 1.2-4.4.6 0 2.2 1 2.4 1.6.4 1 .3 3.1-.3 4a9 9 0 0 1-5 2.5c-1 0-1 0 .3-.5zm2-13.9h1.1c.4.1.1.2-.6.2-.6 0-1 0-.6-.2zm2.6-.5c.6-.3.9-.3 1.2 0 .3.3.1.4-.8.4-1.2 0-1.2 0-.4-.4zm2.1-.4c.3-.3.7-.5 1-.4.2.2.5 0 .5-.1 0-.2.2-.3.5-.2.4.1.5 0 .5-1s.1-1.1.5-.6c.7.9 1 .8 1-.3 0-.6 0-.8.2-.5.3.8.8.4.7-.7 0-.7-.1-1-.4-.7-.6.6-1.6.4-1.6-.3 0-1 .8-1.4 3-1.5.7 0 1.2-.1 1.2-.3 0-.1.5-.4 1.2-.5.6-.1 2.4-.8 4-1.5l3.2-1.4c.2 0 .4 0 .6.4 0 .3 0 .5-.2.5s-.4.3-.5.8l-.2 1.4c-.1.3 0 .5.6.4.5-.1.3.3-1 1.5a23.5 23.5 0 0 1-13.9 5.5c-1 0-1.2-.1-.9-.5zM92 209l-.1-.4-.4.4c-.1.2 0 .3.1.3.3 0 .4-.1.4-.3zm.2-2.1a.8.8 0 0 0-.6-.4c-.3 0-.3.2 0 .4.7.4.9.4.6 0zm-20-9.5c0-.2.2-.4.4-.4s.4.2.4.4c0 .1-.2.3-.4.3a.4.4 0 0 1-.3-.3zm20.7-3.2c-.4-.7 0-.8.5-.2.3.3.3.5 0 .5-.1 0-.4-.1-.5-.3zm2.8 0c0-.2 0-.4.2-.5.2-.2.4 0 .4.3 0 .6-.3.7-.6.2zm-4.2-3.8c-.3-.3-.2-.8.1-.8.2 0 .4.2.5.5.3.6-.1.7-.6.3zm-6.4-2.2c0-.2 0-.4.4-.4.3 0 .5.2.5.4s-.1.3-.3.3l-.6-.3z" style="fill:#6a4b32;stroke-width:.352778" transform="translate(-44.5 -173.2)"/>
  <path d="m87.4 240.7 1.6-.9c1.5-.6 1.6-.8 1.3-1.4l-.7-.9c-.2-.1-.3-.7-.2-1.4.2-.8.1-1.3-.2-1.3-.2 0-.3.2-.2.4.3.4-.6 3.5-1 3.5 0 0-.2-.5-.2-1.2 0-.8-.2-1.2-.4-1-.2 0-.3 0-.3-.3s-.1-.3-.4 0c-.2.5-.3.3-.3-.5 0-.6.1-.8.2-.6.3.7.7.5 1-.4 0-.7 0-.9-.4-.8-.2.1-.5 0-.6-.1-.2-.2.5-.4 1.4-.5 2.8-.4 3.3-.7 3.3-2.1 0-.9.2-1.3.7-1.4l2.6-1.5 2.2-1.2v1.6c-.2 1.6-.6 3.3-1.5 5.4-.2.6-.4 1.3-.3 1.5.4.6-2.3 3-4.5 4.1-2.2 1-3 1.4-3 1zm-9-14c1.4-.4 1.6-.8 1.6-3.6l.2-2.9c.3-.7 2-.7 2.8.1.7.9.7 3.2 0 4.3-.7.9-3.8 2.5-5 2.5-.4 0-.3-.2.4-.4zm2-14h.6c.1.2-.1.3-.5.2-.4 0-.5 0-.2-.2zm7-1a3 3 0 0 1 1.4-.6c3-.6 4.5-1.1 5.3-1.8.7-.7.8-1 .4-1.6-.3-.5-.3-.7 0-.7.2 0 .3-.2 0-.6-.5-1 0-2 2-2.8 3-1.4 3.2-1.4 3.2-.2 0 .6-.2 1-.3.9-.3-.2-.4-.2-.5 1.6 0 .6 0 1 .2.7.1-.2.3-.3.5 0 .3.5-1.8 2.1-4.2 3.2-3.3 1.5-8.7 2.8-8 2zm4-21.3v-.6c.1 0 .3.1.4.4.2.6 0 .7-.3.2z" style="fill:#5d412b;stroke-width:.352778" transform="translate(-44.5 -173.2)"/>
  <path d="M90.5 239.3c.2-.2.5-1.7.6-3.4a43 43 0 0 1 .5-5.1c0-.5.7-1 2.2-1.9l2.2-1.1-.2 1.1-.5 2.9c-.1.9-.3 1.6-.5 1.6s-.3.2-.2.4c.1.1 0 .8-.3 1.5-.6 1.5-.6 1.8-.2 1.5.2-.1.4-.1.4 0 0 .2-3.7 3-4 3-.2 0-.2-.2 0-.5zm-11.7-12.7a11 11 0 0 0 2.2-1.4c1-.8 1.1-1.3 1.4-3.1.2-2 .2-2.1.7-1.5.6.9.6 2.8-.1 3.9-.6 1-3.7 2.6-4.7 2.6-.3 0 0-.2.5-.5zm16-17.2c.8-.7 1.3-1.6 1.4-2.2l.4-3c0-.2.2-.4.4-.4l1-.5c.6-.8.8-.5.5.9-.1.8-.3 1-.5.6-.2-.3-.3-.3-.3.3 0 .5.2.8.4.8s.1.2-.3.5c-.9.5-1 1.3-.1 1 .4 0 .7 0 .7.2 0 .5-1.8 1.7-3.4 2.4l-1.4.5z" style="fill:#543824;stroke-width:.352778" transform="translate(-44.5 -173.2)"/>
</svg>