<svg xmlns="http://www.w3.org/2000/svg" width="277.3" height="277.3" viewBox="0 0 73.4 73.4">
  <path d="M44.3 210v-36.6h73.4v73.3H44.3Z" style="fill:#fefefe;stroke-width:.352778" transform="translate(-44.5 -173.2)"/>
  <path d="m87.5 244.4-2.2-1v-2.6l.1-2.6-9.1-3.6c-5-2-9.3-3.6-9.4-3.5-.2 0-.3.4-.3.6 0 .2-.6 1-1.3 1.6l-1.2 1.2-1.9-.8c-2-.8-2.3-1.3-2.4-4.4 0-1.3 0-1.5-1.3-2.2-1.2-.7-1.5-1-1.6-2.3l-1.5-21.2c-1-16.7-1.2-19.7-.8-20.2.5-.7 12.3-6.5 13.1-6.5a907 907 0 0 1 40.3 9.4c.6.4.9.9.9 1.7 0 .6-1.8 10-4 20.7l-4 19.5-2.2 3.7a29 29 0 0 1-5.7 8.4c-.4 0-.7.6-.9 1-.2 1.2-1.9 4-2.2 4l-2.4-1z" style="fill:#c4ebf3;stroke-width:.352778" transform="translate(-44.5 -173.2)"/>
  <path d="m87.8 244.5-2.2-1.1c-.2-.3-.2-1.3 0-2.7l.2-2.4-9.2-3.7-9.6-3.7c-.2 0-.5.3-.6.8a5 5 0 0 1-1.2 1.8l-1 1-2-.8c-1.7-.7-2-.9-2.1-2l-.2-2.6c0-1-.2-1.3-1.3-1.9-1.5-.8-1.8-1.8-2-6.7l-1.4-20.2c-1-14-1-16.4-.6-17a106 106 0 0 1 13.1-6.4 907 907 0 0 1 40.3 9.4c.6.4.9.9.9 1.7 0 .6-1.8 9.9-4 20.7-4 19.4-4.1 19.5-5.7 22.3a40.1 40.1 0 0 1-7 10.4c-.3 1-2 4-2.3 3.9l-2-.8zm-20.4-38c.1 0 .2-.6 0-1.3-.1-1.1-.4-2.1-1.4-5.1-.1-.3-.4-.6-.5-.6-.2 0-.4-.2-.4-.4s-.1-.6-.3-.8L63 196c-.8-1-1.6-1.7-1.8-1.6-.5.3-.1 6.4.5 8.2.6 1.4 2 3.7 2 3 0-.1.3 0 .7.4.4.3.9.5 1 .4.3-.2.4-.1.4 0 0 .3.3.4.7.3l.9-.1zm16.2-1c-.2-.4-.4-.7-.2-.9.1-.1 0-.1-.4 0-.5.2-.5.3 0 .8.3.2.5.7.5 1 0 .6 0 .6.3.1.2-.3.2-.7-.2-1z" style="fill:#bbe3ec;stroke-width:.352778" transform="translate(-44.5 -173.2)"/>
  <path d="m87.8 244.5-2.2-1.1c-.2-.3-.2-1.3 0-2.7l.2-2.4-9.6-3.9c-8.4-3.3-9.6-3.7-9.6-3.1 0 .3-.6 1.2-1.2 2l-1.2 1.2-2-.8c-1.9-.7-2-.8-2.1-2.4l-.3-2.5c0-.7-.3-1.1-1.2-1.6-1.5-.8-1.8-1.8-2-6.7l-1.4-20.2c-1-14-1-16.4-.6-17a106 106 0 0 1 13.1-6.4 907 907 0 0 1 40.3 9.4c.6.4.9.9.9 1.7 0 .6-1.8 9.9-4 20.7-4 19.4-4.1 19.5-5.7 22.3a40.1 40.1 0 0 1-7 10.4c-.3 1-2 4-2.3 3.9l-2-.8zm-1.5-34.8c-1-3.9-4.2-9.4-5-8.6-.3.4-.6 2.8-.7 5.3 0 .8.3 2.2.8 3.2l.7 2.2c0 .2.1.3.3.2.2-.1.4 0 .4.2s.1.3.3.2c.2-.1.4 0 .6.1.3.6 2.7.5 2.4 0 0-.3 0-.2.3.1.7 1 .7.2 0-2.9zm-18 .6c0 .3.2.5.4.5s.3-.2.2-.3v-.7c.2-.3.2-1.3 0-2.4-.3-1-.4-2-.2-2.3.1-.2.2-.8.1-1.3l-.2-2.2a6.5 6.5 0 0 0-3-4.6 8 8 0 0 0-1.6-.9l-1.5-1.5c-1.3-1.5-1.4-1.5-1.8-1-.6.9-.4 6.6.4 8.6.6 1.8 2.1 4.8 3.4 6.9 1 1.4 1.2 1.6 1.6 1.2.4-.3.6-.3.9.3.3.6.4.6.8 0 .3-.4.5-.5.5-.3z" style="fill:#b2dae4;stroke-width:.352778" transform="translate(-44.5 -173.2)"/>
  <path d="m87.4 244.3-2.2-1 .2-1.7.4-2.5c.1-.7-.7-1-9.6-4.6-8.4-3.4-9.6-3.8-9.6-3.2 0 .3-.6 1.2-1.2 2l-1.2 1.2-2-.8c-1.9-.7-2-.8-2.1-2.4l-.3-2.5c0-.7-.3-1.1-1.2-1.6-1.5-.8-1.8-1.8-2-6.7l-1.4-20.2c-1-14-1-16.4-.6-17a106 106 0 0 1 13.1-6.4 907 907 0 0 1 40.3 9.4c.6.4.9.9.9 1.7 0 .6-1.8 9.9-4 20.7-4 19.4-4.1 19.5-5.7 22.3a40.1 40.1 0 0 1-7 10.4c-.3 1-2 4-2.3 4l-2.5-1.1zM85.6 217c0-.2.2-.3.4-.1.7.4 2 .4 2.4 0 .2-.3.1-1.4-.1-3-.3-1.6-.4-2.6-.1-2.8.5-.6.3-4.3-.2-4.9-.2-.1-.3-.5-.3-.7 0-.7-2-3.4-2.5-3.1-.1 0-.5 0-.8-.4-.3-.3-.6-.5-.8-.5l-1.5-1.5c-.8-.8-1.5-1.4-1.6-1.3-.7.7-1 8.4-.3 10.7a19 19 0 0 0 3.9 7.2c1.1.8 1.5 1 1.5.4zM70 212.6c.4-.3.4-.8.2-2.2l-.2-2.5v-7a8.8 8.8 0 0 0-5.3-6 26 26 0 0 1-3.2-1.8c-1.5-1.2-1.7-.5-1.5 3.8.3 5.2 1.3 8.1 4.5 13 1.1 1.7 1.7 2.2 2.7 2.5 1.7.5 2.3.5 2.8.2z" style="fill:#efc6a1;stroke-width:.352778" transform="translate(-44.5 -173.2)"/>
  <path d="M87 244c-1.4-.6-1.8-1-1.6-1.4l.3-2.5v-1.9l-9-3.7-9.7-3.9c-.3 0-.5.1-.5.5s-.5 1.3-1.1 2l-1.1 1.3-2-.7-2-.8-.2-2.5c-.1-1.4-.4-2.6-.6-2.7a7 7 0 0 1-1.5-1l-1-1-1.4-20.7a313 313 0 0 1-1-21.4c.1-.3 3-2 6.6-3.6l6.3-3.2 19.7 4.5a319 319 0 0 1 20.5 5c1.6 1 2-1-3.4 24.6-3.4 16.8-3.6 17.4-5 19.7a18 18 0 0 0-1.4 2.6l-1.1 2-2.2 3.4a5 5 0 0 1-1.8 1.8c-.5.2-.8.6-.8 1 0 1-1.8 3.6-2.4 3.6a11 11 0 0 1-2.5-1zm-1.4-27c0-.1.2-.2.4 0 .7.4 2 .4 2.4 0 .2-.3.1-1.4-.1-3-.3-1.6-.4-2.6-.1-2.8.5-.6.3-4.3-.2-4.9-.2-.1-.3-.5-.3-.7 0-.7-2-3.4-2.5-3.1-.1 0-.5 0-.8-.4-.3-.3-.6-.5-.8-.5l-1.5-1.5c-.8-.8-1.5-1.4-1.6-1.3-.7.7-1 8.4-.3 10.7a19 19 0 0 0 3.9 7.2c1.1.8 1.5 1 1.5.4zM70 212.7c.4-.3.4-.8.2-2.2L70 208v-7a8.8 8.8 0 0 0-5.3-6 26 26 0 0 1-3.2-1.8c-1.5-1.2-1.7-.5-1.5 3.8.3 5.2 1.3 8.1 4.5 13 1.1 1.7 1.7 2.2 2.7 2.5 1.7.5 2.3.5 2.8.2zm3.8-20.5c-.1-.2-.5-.4-.8-.4-.5 0-.5.1 0 .4 1 .4 1 .4.8 0zm-3-.9-4.8-1.4-6.2-1.9-2.3-.4c-.4.1 2.2 1 5.7 2 5.6 1.6 8 2.2 7.6 1.7z" style="fill:#a7ced9;stroke-width:.352778" transform="translate(-44.5 -173.2)"/>
  <path d="M87 244c-1.4-.6-1.8-1-1.6-1.4l.3-2.5v-1.9l-9-3.7-9.7-3.9c-.3 0-.5.1-.5.5s-.5 1.3-1.1 2l-1.1 1.3-2-.7-2-.8-.2-2.5c-.1-1.4-.4-2.6-.6-2.7a7 7 0 0 1-1.5-1l-1-1-1.4-20.7a313 313 0 0 1-1-21.4c.1-.3 3-2 6.6-3.6l6.3-3.2 19.7 4.5a319 319 0 0 1 20.5 5c1.6 1 2-1-3.4 24.6-3.4 16.8-3.6 17.4-5 19.7a18 18 0 0 0-1.4 2.6l-1.1 2-2.2 3.4a5 5 0 0 1-1.8 1.8c-.5.2-.8.6-.8 1 0 1-1.8 3.6-2.4 3.6a11 11 0 0 1-2.5-1zm2.5-25v-.9c0-1.2 0-3.5.2-4.3.9-4.2.6-8-.7-10a14 14 0 0 0-4.4-3.6c-.5 0-2.6-1.1-3.3-1.7-1.5-1.3-2 .4-2 6.2-.1 3.5.5 5.7 2.6 10 1.5 3 2.7 4 4.3 4.4.7 0 1.5.2 1.7.3.9.3 1.6.1 1.6-.4zM71 211.8a63 63 0 0 0-.4-12.4c.1-.1-.3-1-1-1.9-1.1-1.7-2.2-2.4-7-4.5-2-1-2.2-1-2.6-.4-1.2 1.6.4 11.8 2.3 15.4l2.1 2.7c1.4 1.7 2.1 2.2 3.5 2.7 2.8.8 3 .7 3.1-1.6zm2.8-19.7c-.1-.2-.5-.4-.8-.4-.5 0-.5.1 0 .4 1 .4 1 .4.8 0zm-3-.9-4.8-1.4-6.2-1.9-2.3-.4c-.4.1 2.2 1 5.7 2 5.6 1.6 8 2.2 7.6 1.7z" style="fill:#9bc3d0;stroke-width:.352778" transform="translate(-44.5 -173.2)"/>
  <path d="M87 244c-1.4-.6-1.8-1-1.6-1.4l.3-2.5v-1.9l-9-3.7-9.7-3.9c-.3 0-.5.1-.5.5s-.5 1.3-1.1 2l-1.1 1.3-2-.7-2-.8-.2-2.5c-.1-1.4-.4-2.6-.6-2.7a7 7 0 0 1-1.5-1l-1-1-1.4-20.7a313 313 0 0 1-1-21.4c.1-.3 3-2 6.6-3.6l6.3-3.2 19.7 4.5a319 319 0 0 1 20.5 5c1.6 1 2-1-3.4 24.6-3.4 16.8-3.6 17.4-5 19.7a18 18 0 0 0-1.4 2.6l-1.1 2-2.2 3.4a5 5 0 0 1-1.8 1.8c-.5.2-.8.6-.8 1 0 1-1.8 3.6-2.4 3.6a11 11 0 0 1-2.5-1zm3.2-25.4c0-1 .2-3 .5-4.7.7-3.6.7-7.3.1-9.2-.5-1.9-2.4-3.7-5-5l-2.5-1-1.8-.7c-.8-.4-1.6-.7-1.7-.6-.5.5-.9 3.9-.8 7.5.2 6.6 1 9.2 4.2 12.6 1.9 2 3.1 2.6 6 2.8 1 0 1 0 1-1.7zm-18.7-11.8c0-7 0-7.5-.8-9-1-1.9-2.6-3.2-5.3-4.2a222 222 0 0 0-4.2-1.7c-1.1-.5-1.7 0-1.7 1.5a37.3 37.3 0 0 0 1.2 12c.3 1.9.8 3.4 1.3 4.2a13 13 0 0 0 6.3 4c3.5 1.1 3.2 1.7 3.2-6.8zm2.3-14.7c-.1-.2-.5-.4-.8-.4-.5 0-.5.1 0 .4 1 .4 1 .4.8 0zm-3-.9-4.8-1.4-6.2-1.9-2.3-.4c-.4.1 2.2 1 5.7 2 5.6 1.6 8 2.2 7.6 1.7z" style="fill:#e3b48d;stroke-width:.352778" transform="translate(-44.5 -173.2)"/>
  <path d="M87 244c-1.3-.6-1.8-1-1.6-1.4l.3-2.5v-1.9l-9.4-3.8-9.7-3.9v.6c0 .4-.6 1.3-1.3 2l-1.1 1.3-2-.8-2-.8v-2.4c-.2-2-.3-2.6-.9-2.9l-1.4-1c-.9-.7-.9-.9-2.3-21.5-.7-11.4-1.2-21-1.1-21.3.2-.7 12.3-6.6 13.5-6.6 1.2 0 38.7 8.5 39.5 9 1 .5 1.4 1.6 1.2 3l-4.1 20.2c-3.8 18.3-4 19-5.3 21.2l-1.4 2.6a32.7 32.7 0 0 1-6 8.2c0 1-1.7 3.7-2.3 3.7-.4 0-1.5-.5-2.5-1zm3.2-25.4c0-1 .2-3 .5-4.7.7-3.6.7-7.3.1-9.2-.5-1.9-2.4-3.7-5-5l-2.5-1-1.8-.7c-.8-.4-1.6-.7-1.7-.6-.5.5-.9 3.9-.8 7.5.2 6.6 1 9.2 4.2 12.6 1.9 2 3.1 2.6 6 2.8 1 0 1 0 1-1.7zm-23.8 1.1a16.7 16.7 0 0 0-4.6-1.5c.2.2 1.2.6 2.3 1 2 .7 2.7.9 2.3.5zm5-12.9c0-7 0-7.5-.7-9-1-1.9-2.6-3.2-5.3-4.2a222 222 0 0 0-4.2-1.7c-1.1-.5-1.7 0-1.7 1.5a37.3 37.3 0 0 0 1.2 12c.3 1.9.8 3.4 1.3 4.2a13 13 0 0 0 6.3 4c3.5 1.1 3.2 1.7 3.2-6.8zm20.2-10-7.8-2.2-8.2-2.4c-.4-.1-.6 0-.6.3s.5.6 1.2.7L83 195c8 2.1 9 2.4 8.6 2zM74 192.3c0-.5-.1-.9-.2-.8-.3.3-3.1-.3-3.4-.7a340.4 340.4 0 0 1-8.6-2.5c-3.2-1-4.2-1.1-4.9-.8-.7.3-.6.4 1.2.9l13.8 3.8c.7.2 1.4.5 1.5.7.4.6.6.4.6-.6z" style="fill:#90b8c6;stroke-width:.352778" transform="translate(-44.5 -173.2)"/>
  <path d="M87 244c-1.3-.6-1.8-1-1.6-1.4l.3-2.5v-1.9l-9.4-3.8-9.7-3.9v.6c0 .4-.6 1.3-1.3 2l-1.1 1.3-2-.8-2-.8v-2.4c-.2-2-.3-2.6-.9-2.9l-1.4-1c-.9-.7-.9-.9-2.3-21.5-.7-11.4-1.2-21-1.1-21.3.2-.7 12.3-6.6 13.5-6.6 1.2 0 38.7 8.5 39.5 9 1 .5 1.4 1.6 1.2 3l-4.1 20.2c-3.8 18.3-4 19-5.3 21.2l-1.4 2.6a32.7 32.7 0 0 1-6 8.2c0 1-1.7 3.7-2.3 3.7-.4 0-1.5-.5-2.5-1zm3.6-24.4c.7-3.6 1.7-11.6 1.7-13.7 0-1.8-.3-2.7-1-3.6-1-1.7-2.1-2.3-7.3-4-4.4-1.6-4.4-1.6-4.8-.9a77 77 0 0 0-.3 14.1c.1 4 .6 5 2.7 6.1l2 1.2c.7.6 5.5 2.2 6.2 2 .3 0 .7-.5.8-1.2zm-24.2.1a16.7 16.7 0 0 0-4.6-1.5c.2.2 1.2.6 2.3 1 2 .7 2.7.9 2.3.5zm5-14.2a39 39 0 0 0-.4-9.6c-.7-1-4.2-2.7-6.6-3.3-1.3-.3-2.6-.7-3-1-2-1-2.5.6-2 6.5 1.2 12 1.3 12.2 2.9 13.1a63 63 0 0 0 9 3.4s.2-4 .2-9zm20.2-8.6-7.8-2.3-8.2-2.4c-.4-.1-.6 0-.6.3s.5.6 1.2.7L83 195c8 2.1 9 2.4 8.6 2zM74 192.2c0-.5-.1-.9-.2-.8-.3.3-3.1-.3-3.4-.7a340.4 340.4 0 0 1-8.6-2.5c-3.2-1-4.2-1.1-4.9-.8-.7.3-.6.4 1.2.9l13.8 3.8c.7.2 1.4.5 1.5.7.4.6.6.4.6-.6z" style="fill:#d8a377;stroke-width:.352778" transform="translate(-44.5 -173.2)"/>
  <path d="m87.2 244.1-1.8-.8.2-2.4c.2-1.4.2-2.5 0-2.7l-18.5-7.6c-.4 0-.6 0-.6.5 0 .4-.5 1.3-1.2 2l-1.2 1.4-1.9-1-2-.8v-2.4c-.2-1.8-.4-2.5-.9-2.8l-1.4-1c-.9-.7-.9-1-2.2-21.2a184 184 0 0 1-1-21.3c.3-.7 1.9-1.7 6.2-3.8 3.3-1.6 6.3-3 7-3l9 1.8 18.7 4.3c6 1.3 11.3 2.6 11.8 3 1.9.9 2.3-1.7-4.5 31.3-2.4 11.4-2.5 11.7-6.5 18l-2 3.1c-.4.8-1.1 1.4-1.6 1.6-.5 0-.8.4-.8.9 0 1-1.8 3.8-2.5 3.8-.3 0-1.4-.4-2.3-.9zM92 229l-.6-.4c-.3 0-.5 0-.5.2s.2.3.5.3l.6-.1zm-6.3-2.4c-2.6-1.1-5.4-1.9-5.7-1.5-.3.2-.1.4.4.4.4 0 2 .5 3.4 1 3.2 1 4 1 2 .1zm-7.2-.2h-1.3c-.3 0 0 .2.6.2.7 0 1-.1.7-.2zm-3-.4c-.5-.5-4-1.8-4.7-1.8-.9 0 0 .5 2.1 1.3 2 .8 3.2 1 2.6.5zm-6.8-3.4a6.8 6.8 0 0 1-1.3-2.1c-.2-.9-.5-1-7.8-3.6-1-.4-2-.5-2-.4-.4.3-.1.6.5.8l1.2.3 4 1.6c3 1.1 3.5 1.4 4.6 3 .6.9 1.3 1.6 1.5 1.6.2 0 0-.5-.7-1.2zm21.9-3c.7-3.6 1.7-11.6 1.7-13.7 0-1.8-.3-2.7-1-3.6-1-1.7-2.1-2.3-7.3-4-4.4-1.6-4.4-1.6-4.8-.9a77 77 0 0 0-.3 14.1c.1 4 .6 5 2.7 6.1l2 1.2c.7.6 5.5 2.2 6.2 2 .3 0 .7-.5.8-1.2zM70.1 216l-.9-.4c-.2 0-.1.2.2.4l.9.3c.1 0 0-.2-.2-.3zm-1.5-.6-4-1.5a1308 1308 0 0 1-5-1.5l2 .9 4 1.4c2.4.8 3.4 1 3 .7zm3-4.6c0-8.5-.2-14.4-.5-15-.4-.8-5-3-7.4-3.5-1-.2-2.2-.6-2.5-.8-.3-.2-.8-.3-1.1-.1-1.2.4-1.2 2.1.1 14 .4 4.1.7 5 2 5.7 1 .6 8.3 3.4 9 3.4.2 0 .3-1.7.3-3.7zM95.4 198c0-.4-1.3-1.1-2.7-1.5a468.4 468.4 0 0 1-15.4-4.3c-2.4-.7-2.8-.5-2.5 1.3.2 1.7.5 2.1.5 1 0-.4.2-.9.4-1 .3 0 3.3.6 6.8 1.5a1370.6 1370.6 0 0 0 12.8 3.3v-.3zm-38.8-3c0-.8-.1-1-.4-.6-.2.3-.3 1-.3 1.6 0 .8 0 1 .3.6.2-.3.4-1 .4-1.6zm17.7-3.2c.2-.4-15-4.8-16.6-4.8-2 0-2.7 1.2-2.3 4.6.3 2.7.7 2 .8-1.6v-2l.6 1.3c.2.8.4 1.2.5 1 0-.4.3-.5.9-.4.6.2.8 0 .9-.4 0-.4 0-.4.3.1.2.6.3.6.4.2.3-.7 1.7-.5 1.7.3 0 .4.1.5.5.1.5-.4.6-.3.9.4.3.8.3.8.4.1 0-.7 0-.7.3 0 .2.5.3.6.5.3s.4-.4.5-.3l1.2.3a109 109 0 0 1 6.3 1.5c.6.3 1 .8 1 1.2 0 1.3.6 1.1.8-.2 0-.7.3-1.5.4-1.7z" style="fill:#90a7ae;stroke-width:.352778" transform="translate(-44.5 -173.2)"/>
  <path d="m87.2 244.1-1.8-.8.3-2.4v-2.6c-.2-.2-15-6.3-18.6-7.7-.4 0-.5 0-.5.5 0 .4-.6 1.3-1.4 2l-1.3 1.2-1.8-.8-1.9-.8v-2.2c0-2.2 0-2.2-2.2-4l-1-.7-1.3-20.5a184 184 0 0 1-1-21.3c.3-.7 1.9-1.7 6.2-3.8 3.3-1.6 6.3-3 7-3l9 1.8 18.7 4.3c6 1.3 11.3 2.6 11.8 3 1.9.9 2.3-1.7-4.5 31.3-2.4 11.4-2.5 11.7-6.5 18l-2 3.1c-.4.8-1.1 1.4-1.6 1.6-.5 0-.8.4-.8.9 0 1-1.8 3.8-2.5 3.8-.3 0-1.4-.4-2.3-.9zM92 229l-.6-.4c-.3 0-.5 0-.5.2s.2.3.5.3l.6-.1zm-6.3-2.4c-2.6-1.1-5.4-1.9-5.7-1.5-.3.2-.1.4.4.4.4 0 2 .5 3.4 1 3.2 1 4 1 2 .1zm-7.2-.2h-1.3c-.3 0 0 .2.6.2.7 0 1-.1.7-.2zm-3-.4c-.5-.5-4-1.8-4.7-1.8-.9 0 0 .5 2.1 1.3 2 .8 3.2 1 2.6.5zm-6.8-3.4a6.8 6.8 0 0 1-1.3-2.1c-.2-.9-.5-1-7.8-3.6-1-.4-2-.5-2-.4-.4.3-.1.6.5.8l1.2.3 4 1.6c3 1.1 3.5 1.4 4.6 3 .6.9 1.3 1.6 1.5 1.6.2 0 0-.5-.7-1.2zm22-1.8a153.2 153.2 0 0 0 2-16.2c-.2-.2-.4-.7-.4-1 0-2-2.6-3.9-8.1-5.7-4.4-1.5-5.1-1.5-5.4-.5a60 60 0 0 0 .6 19.2c.7 1 4.1 2.7 7.8 4 3 .9 3.2.9 3.5.2zM70 216.1l-.9-.4c-.2 0-.1.2.2.4l.9.3c.1 0 0-.2-.2-.3zm-1.5-.6-4-1.5a1308 1308 0 0 1-5-1.5l2 .9 4 1.4c2.4.8 3.4 1 3 .7zm2.9-2.4.2-9.1.3-7.7-.9-.7c-2.6-2.1-11-5.2-11.7-4.2-.7 1.3.6 17.7 1.6 19.3.2.4 1 1 1.8 1.3 2.1.8 7.7 2.6 8.2 2.6.3 0 .5-.5.5-1.5zm24-15c0-.4-1.3-1.1-2.7-1.5a468.4 468.4 0 0 1-15.4-4.3c-2.4-.7-2.8-.5-2.5 1.3.2 1.7.5 2.1.5 1 0-.4.2-.9.4-1 .3 0 3.3.6 6.8 1.5a1370.6 1370.6 0 0 0 12.8 3.3v-.3zm-38.8-3c0-.8-.1-1-.4-.6-.2.3-.3 1-.3 1.6 0 .8 0 1 .3.6.2-.3.4-1 .4-1.6zm17.7-3.2c.2-.4-15-4.8-16.6-4.8-2 0-2.7 1.2-2.3 4.6.3 2.7.7 2 .8-1.6v-2l.6 1.3c.2.8.4 1.2.5 1 0-.4.3-.5.9-.4.6.2.8 0 .9-.4 0-.4 0-.4.3.1.2.6.3.6.4.2.3-.7 1.7-.5 1.7.3 0 .4.1.5.5.1.5-.4.6-.3.9.4.3.8.3.8.4.1 0-.7 0-.7.3 0 .2.5.3.6.5.3s.4-.4.5-.3l1.2.3a109 109 0 0 1 6.3 1.5c.6.3 1 .8 1 1.2 0 1.3.6 1.1.8-.2 0-.7.3-1.5.4-1.7z" style="fill:#e79853;stroke-width:.352778" transform="translate(-44.5 -173.2)"/>
  <path d="m87.2 244.1-1.8-.8.3-2.4v-2.6c-.2-.2-15-6.3-18.6-7.7-.4 0-.5 0-.5.5 0 .4-.6 1.3-1.4 2l-1.3 1.2-1.8-.8-1.9-.8v-2.2c0-2.2 0-2.2-2.2-4l-1-.7-1.2-19-1.4-20.6c-.2-2.3 0-2.3 3.5-1.4l10.2 2.5 19.6 4.8c10.5 2.6 12.6 3.2 13.2 4 .6.7.6.7 1 0a93.2 93.2 0 0 1 5.7-6.3c.8-1 1-1 1-.4l-1.5 7.4-3.9 19c-2.7 13.4-2.7 13.4-6.8 19.8l-2 3.1c-.4.8-1.1 1.4-1.6 1.6-.5 0-.8.4-.8.9 0 1-1.8 3.8-2.5 3.8-.3 0-1.4-.4-2.3-.9zM92 229l-.6-.4c-.3 0-.5 0-.5.2s.2.3.5.3l.6-.1zm-6.3-2.4c-2.6-1.1-5.4-1.9-5.7-1.5-.3.2-.1.4.4.4.4 0 2 .5 3.4 1 3.2 1 4 1 2 .1zm-7.2-.2h-1.3c-.3 0 0 .2.6.2.7 0 1-.1.7-.2zm-3-.4c-.5-.5-4-1.8-4.7-1.8-.9 0 0 .5 2.1 1.3 2 .8 3.2 1 2.6.5zm-6.8-3.4a6.8 6.8 0 0 1-1.3-2.1c-.2-.9-.5-1-7.8-3.6-1-.4-2-.5-2-.4-.4.3-.1.6.5.8l1.2.3 4 1.6c3 1.1 3.5 1.4 4.6 3 .6.9 1.3 1.6 1.5 1.6.2 0 0-.5-.7-1.2zm22-1.8a153.2 153.2 0 0 0 2-16.2c-.2-.2-.4-.7-.4-1 0-2-2.6-3.9-8.1-5.7-4.4-1.5-5.1-1.5-5.4-.5a60 60 0 0 0 .6 19.2c.7 1 4.1 2.7 7.8 4 3 .9 3.2.9 3.5.2zM70 216.1l-.9-.4c-.2 0-.1.2.2.4l.9.3c.1 0 0-.2-.2-.3zm-1.5-.6-4-1.5a1308 1308 0 0 1-5-1.5l2 .9 4 1.4c2.4.8 3.4 1 3 .7zm2.9-2.4.2-9.1.3-7.7-.9-.7c-2.6-2.1-11-5.2-11.7-4.2-.7 1.3.6 17.7 1.6 19.3.2.4 1 1 1.8 1.3 2.1.8 7.7 2.6 8.2 2.6.3 0 .5-.5.5-1.5zm24-15c0-.4-1.3-1.1-2.7-1.5a468.4 468.4 0 0 1-15.4-4.3c-2.4-.7-2.8-.5-2.5 1.3.2 1.7.5 2.1.5 1 0-.4.2-.9.4-1 .3 0 3.3.6 6.8 1.5a1370.6 1370.6 0 0 0 12.8 3.3v-.3zm-38.8-3c0-.8-.1-1-.4-.6-.2.3-.3 1-.3 1.6 0 .8 0 1 .3.6.2-.3.4-1 .4-1.6zm17.7-3.2c.2-.3-2.3-1.1-7.2-2.5-8.7-2.3-9.2-2.4-10.4-2.1-1.2.3-1.6 1.6-1.3 4.4.3 2.7.7 2 .8-1.6v-2l.6 1.3c.2.8.4 1.2.5 1 0-.4.3-.5.9-.4.6.2.8 0 .9-.4 0-.4 0-.4.3.1.2.6.3.6.4.2.3-.7 1.7-.5 1.7.3 0 .4.1.5.5.1.5-.4.6-.3.9.4.3.8.3.8.4.1 0-.7 0-.7.3 0 .2.5.3.6.5.3s.4-.4.5-.3l1.2.3a109 109 0 0 1 6.3 1.5c.6.3 1 .8 1 1.2 0 1.3.6 1.1.8-.2 0-.7.3-1.5.4-1.7zm22.7 2L86.8 191l-15-4.3a246.7 246.7 0 0 0-15.3-4c-.6-.1 10.4-5.5 11.4-5.5a13957.5 13957.5 0 0 0 25.5 5.5c12.4 2.8 14 3.3 14 3.7 0 .1-.8 1.1-1.9 2.2-1 1.1-2 2.2-2 2.4 0 .2-.6 1-1.3 1.8-1.5 1.5-3 1.9-5.1 1.2z" style="fill:#c99369;stroke-width:.352778" transform="translate(-44.5 -173.2)"/>
  <path d="m87.4 244.2-1.9-.7.2-2.7v-2.6l-9.4-3.9-9.6-3.8-.1.7c0 .3-.6 1.2-1.4 1.9l-1.3 1.2-1.8-.8-1.9-.8v-2.2c0-2.2 0-2.1-2.2-4l-1-.7-1.2-19c-.7-10.3-1.2-19.7-1.2-20.9 0-1.7 0-2 .6-1.8a2669.1 2669.1 0 0 1 32.5 8c10.5 2.6 12.6 3.2 13.2 4 .6.7.6.7 1 0a93.2 93.2 0 0 1 6.6-6.8L106 203l-4 19.1a30.3 30.3 0 0 1-5.9 14.2l-1.9 3c-.2.5-.8 1-1.3 1-.5.2-.8.5-.8 1 0 .9-1.8 3.8-2.3 3.8l-2.3-.8zM92 229c0-.3-.8-.7-1.7-1l-5.7-2-4-1.4-1.2.8c-1.7 1.1-2.1 1.1-4.5-.2a17 17 0 0 0-3.3-1.2 5.3 5.3 0 0 1-4-3.1c-.5-1.1-1-1.7-1.9-2a319.7 319.7 0 0 0-8-2.7c-.6.4-.4 1.3.3 1.3.4 0 .8 0 .9.2l2 .8c.8.4 2.4.9 3.4 1.2a10 10 0 0 1 3.8 2.9c2 1.9 2.5 2.3 5.3 3.3 3.6 1.3 4.7 1.4 6 .4l.9-.8 3.6 1.1c2 .6 4.5 1.5 5.6 2 2.3 1 2.5 1 2.5.4zm-2.7-6.2c0-.2-.3-.4-.8-.6-.5 0-3-.9-5.4-1.7-4.9-1.7-6.6-2.2-6.2-1.8.2.3 11.2 4.3 12 4.4l.4-.3zm1.4-2a153.2 153.2 0 0 0 2-16.2c-.2-.2-.4-.7-.4-1 0-2-2.6-3.9-8.1-5.7-4.4-1.5-5.1-1.5-5.4-.5a60 60 0 0 0 .6 19.2c.7 1 4.1 2.7 7.8 4 3 .9 3.2.9 3.5.2zm3.6-4.1c-.1-.3-.2-.2-.2.2s0 .6.2.5v-.7zm-23.5-.3c0-.3-2.6-1.3-8-3.2l-3.4-1.2c-.4-.2-.5 0-.4.4.1.5 1 1 2.5 1.5l5.2 1.8c3 1 4 1.3 4 .7zm23.9-2.2c-.1-.2-.2 0-.2.4 0 .5 0 .7.2.5v-.9zm-23.2-1.7.2-2.8.1-5.2c0-3.6.2-4.3.5-3.3.2.9.4 1 .6.7.2-.3.3 0 .4.8.1.6.3-1 .4-3.8a55.5 55.5 0 0 1 .8-7.5c-.3-.3-15.9-4.3-16.8-4.3-1.5 0-2.4 1.1-2.4 2.8 0 2.9 1.4 19.6 1.7 20 .5.4.7-6 .4-12.3-.2-3.5-.3-6.5-.2-6.8.4-.8 1-.8 5 .2l6.7 1.8 3 .8v1.2c0 .6-.1 1.1-.3 1.1 0 0-.7-.3-1.3-.8a20.6 20.6 0 0 0-7.2-3.2c-2.7-.7-3.4-.8-3.7-.5-.7 1.3.6 17.7 1.6 19.3.2.4 1 1 1.8 1.3 2.1.8 7.7 2.6 8.2 2.6.4 0 .5-.6.5-2zM95 212c0-.3-.2-.1-.2.5 0 .5.1.8.2.6a2 2 0 0 0 0-1zm-37.4-.3c0-.4-.1-.2-.2.4 0 .6.1.9.2.6a2 2 0 0 0 0-1zm37.8-2.2c-.1-.3-.2-.1-.2.5s0 .8.2.6a2 2 0 0 0 0-1zm1.5-9c0-2.8-.4-3-11.4-6-5.3-1.5-10-2.6-10.3-2.5-.5.2-.5 1.2-.5 7 0 6.8.3 6.6.8-.8.2-3.2.6-4.2.6-2v1.4l.4-1.3c.3-1 .5-1.3 1.1-1.2l1.2.3c.3.3.5.2.5 0s.1-.4.3-.4c.2 0 .4.3.4.6 0 .5 0 .5.3.1.2-.3.5-.3.8-.2.4.3 1.3.5 2.4.6l2.3.5a41.3 41.3 0 0 0 5.8 1.3c1.5.3 2 .4 2.1.7.1.1.6.3 1.2.3 1.6.2 1.8 1.2 1.1 5.2l-.5 4.2c0 1 1.3-6.3 1.4-7.9zm.2-6.4-10.3-3-15-4.3a246.7 246.7 0 0 0-15.3-4c-.6-.1 10.3-5.5 11.3-5.5l7.1 1.5 18.8 4.2c13 2.9 13.8 3 13.8 3.5l-2 2.2c-1 1.1-2 2.2-2 2.4 0 .2-.6 1-1.3 1.8-1.5 1.5-3 1.9-5.1 1.2z" style="fill:#7498a7;stroke-width:.352778" transform="translate(-44.5 -173.2)"/>
  <path d="m87.4 244.2-1.9-.7.2-2.7v-2.6l-9.4-3.9-9.6-3.8-.1.7c0 .3-.6 1.2-1.4 1.9l-1.3 1.2-1.8-.8-1.9-.8v-2.2c0-2.2 0-2.1-2.2-4l-1-.7-1.2-19c-.7-10.3-1.2-19.7-1.2-20.9 0-1.7 0-2 .6-1.8a2669.1 2669.1 0 0 1 32.5 8c10.5 2.6 12.6 3.2 13.2 4 .6.7.6.7 1 0a93.2 93.2 0 0 1 6.6-6.8L106 203l-4 19.1a30.3 30.3 0 0 1-5.9 14.2l-1.9 3c-.2.5-.8 1-1.3 1-.5.2-.8.5-.8 1 0 .9-1.8 3.8-2.3 3.8l-2.3-.8zM92 229c0-.3-.8-.7-1.7-1l-5.7-2-4-1.4-1.2.8c-1.7 1.1-2.1 1.1-4.5-.2a17 17 0 0 0-3.3-1.2 5.3 5.3 0 0 1-4-3.1c-.5-1.1-1-1.7-1.9-2a319.7 319.7 0 0 0-8-2.7c-.6.4-.4 1.3.3 1.3.4 0 .8 0 .9.2l2 .8c.8.4 2.4.9 3.4 1.2a10 10 0 0 1 3.8 2.9c2 1.9 2.5 2.3 5.3 3.3 3.6 1.3 4.7 1.4 6 .4l.9-.8 3.6 1.1c2 .6 4.5 1.5 5.6 2 2.3 1 2.5 1 2.5.4zm-2.7-6.2c0-.2-.3-.4-.8-.6-.5 0-3-.9-5.4-1.7-4.9-1.7-6.6-2.2-6.2-1.8.2.3 11.2 4.3 12 4.4l.4-.3zm1.4-2a284 284 0 0 0 2.5-19.6c-.1-.3-1-1-1.9-1.3-2.5-1-12-3.7-12.5-3.5-.4.1-.6 1.2-.7 4-.3 4.7-.3 14.9 0 15.9 0 .4.7 1 1.4 1.4 1.6.7 10 3.6 10.6 3.6.2 0 .5-.2.6-.6zm3.6-4.1c-.1-.3-.2-.2-.2.2s0 .6.2.5v-.7zm-23.5-.3c0-.3-2.6-1.3-8-3.2l-3.4-1.2c-.4-.2-.5 0-.4.4.1.5 1 1 2.5 1.5l5.2 1.8c3 1 4 1.3 4 .7zm23.9-2.2c-.1-.2-.2 0-.2.4 0 .5 0 .7.2.5v-.9zm-23-3 .2-7.5c0-3 0-3.5.4-2.5.2.9.4 1 .6.7.2-.3.3 0 .4.8.1.6.3-1 .4-3.8a55.5 55.5 0 0 1 .8-7.5c-.3-.3-15.9-4.3-16.8-4.3-1.5 0-2.4 1.1-2.4 2.8 0 2.9 1.4 19.6 1.7 20 .5.4.7-6 .4-12.3-.2-3.5-.3-6.5-.2-6.8.4-.8 1-.8 5 .2l6.7 1.8c1.6.4 3 1 3 1.2 0 .3-1.1 0-3-.5a46.4 46.4 0 0 0-9.6-2.4c-.3.3-.2 6.5.2 12.4.5 7 .5 7.2 1.9 7.8 1 .5 9.8 3.7 10 3.6l.2-3.8zm23.3.7c0-.3-.2-.1-.2.5 0 .5.1.8.2.6a2 2 0 0 0 0-1zm-37.4-.3c0-.4-.1-.2-.2.4 0 .6.1.9.2.6a2 2 0 0 0 0-1zm37.8-2.2c-.1-.3-.2-.1-.2.5s0 .8.2.6a2 2 0 0 0 0-1zm1.5-9c0-2.8-.4-3-11.4-6-5.3-1.5-10-2.6-10.3-2.5-.5.2-.5 1.2-.5 7 0 6.8.3 6.6.8-.8.2-3.2.6-4.2.6-2v1.4l.4-1.3c.3-1 .5-1.3 1.1-1.2l1.2.3c.3.3.5.2.5 0s.1-.4.3-.4c.2 0 .4.3.4.6 0 .5 0 .5.3.1.2-.3.5-.3.8-.2.4.3 1.3.5 2.4.6l2.3.5a41.3 41.3 0 0 0 5.8 1.3c1.5.3 2 .4 2.1.7.1.1.6.3 1.2.3 1.6.2 1.8 1.2 1.1 5.2l-.5 4.2c0 1 1.3-6.3 1.4-7.9zm.2-6.4-10.3-3-15-4.3a246.7 246.7 0 0 0-15.3-4c-.6-.1 10.3-5.5 11.3-5.5l7.1 1.5 18.8 4.2c13 2.9 13.8 3 13.8 3.5l-2 2.2c-1 1.1-2 2.2-2 2.4 0 .2-.6 1-1.3 1.8-1.5 1.5-3 1.9-5.1 1.2z" style="fill:#ba8862;stroke-width:.352778" transform="translate(-44.5 -173.2)"/>
  <path d="m87.4 244.2-1.9-.8.2-2.6v-2.6l-9-3.7c-11-4.5-10.1-4.2-10.1-3.4 0 .4-.6 1.3-1.4 2l-1.3 1.2-1.8-.8-1.9-.8v-4.8l-1.4-.8c-.8-.5-1.5-1.2-1.6-1.6-.2-1-2.6-37.4-2.6-39.8 0-1.5 0-1.8.6-1.6a2669.1 2669.1 0 0 1 32.5 8c10.5 2.6 12.6 3.2 13.2 4 .6.7.6.7 1 0a93.2 93.2 0 0 1 6.6-6.8c0 .3-1.7 9.1-3.9 19.6a108 108 0 0 1-5 20.9 271.3 271.3 0 0 0-3.6 6.4c-.2.3-.9 1.2-1.4 2.2-.6 1-1.3 1.7-1.8 1.9-.5 0-.8.4-.8.9 0 .9-1.8 3.8-2.3 3.8l-2.3-.8zm4.7-15.2c.1-.5-.5-.8-5.6-2.5l-4-1.4-2.2-.7-.8.8c-1 .8-2.8 1-3.4.2-.5-.6-3.2-1.6-5-1.8-1.4-.2-3-1.6-3.6-3.2-.3-1-.7-1.3-3-2.2-5.6-2.1-6.3-2.3-7-1.8-.2.3-.4.6-.2.7.2.3 3.3 1.5 6.3 2.6 2.4.8 3.3 1.4 4.1 2.7 1.2 1.7 3.1 2.9 7 4l2.9 1 1.4-.8a7 7 0 0 1 1.7-.7c.7 0 7.5 2.2 9 2.9 1.7.8 2.1.8 2.4.2zm3-16.5c2.2-13.9 2.3-14.3.3-15.3a192 192 0 0 0-20.2-5.4c-.4.2-.5 1-.5 3.9l-.3 10.3a35 35 0 0 0 .1 6.4c.2-.1.3-.8.4-1.5 0-.8.3-1.5.5-1.7.3-.3.3-.2.2 0-.2.3-.1.5 0 .5.5 0 .8-2.2 1-8 .3-4.6.4-6 .6-6.3.1-.1 2.6.5 5.6 1.3 6.5 1.7 9.2 2.4 9.2 2.2l.7.5c.3.3.7.9.7 1.2 0 .6-.1.6-.6.2-.3-.3-1.3-.9-2.3-1.3a71.6 71.6 0 0 0-11.7-3c-.7.1-1 7.7-1 15.2.2 4.5.3 5 1 5.5a79 79 0 0 0 10.9 4l1.1.2.6-4a51 51 0 0 1 1-6c-.2-1.1.3-.6.6.8.3 1.1.3 1.1.2-.2l-.4-2.5c-.1-.8 0-.9.2-.5.2.3.4 1 .4 1.4 0 .5.5-1.6 1-4.8 1-5.8 1.4-7.3 1.4-5.9 0 .5.2.8.4.8s.3.4.2.8a447.1 447.1 0 0 0-3.3 21.6v.9c.2-.2 1-5.2 2-11.3zm-1.7-4.6c0-.6.1-1 .2-.6v1.3c0 .3-.2 0-.2-.7zm.3-2.3c0-.4.1-.5.3-.2v.7c-.2.1-.3-.1-.3-.5zm-4.2 17.5c.3-.2.4-.4.3-.4-.4-.3-12.2-4.2-12.6-4.2-.3 0-.4.2-.3.4a33 33 0 0 0 5.9 2.5c6.7 2.3 6 2.1 6.7 1.7zM71 216.8c.3-.2.1-.4-.6-.7-.6-.3-1.1-.6-1.1-.8 0-.1-1.2-.7-2.6-1.2a17.5 17.5 0 0 0-5-1.5c-1.4 0-3.3-1-3.5-2-.4-1.4-1-16.2-1-19.7 0-.4.4-.6 1.2-.6 1.6 0 13 3.3 13.2 3.7.1.2-1.2 0-2.8-.5a46.5 46.5 0 0 0-9.6-2.4c-.3.3-.2 6.5.2 12.4.5 7 .5 7.1 1.9 8 .9.5 8.5 3 9.9 3.3.2 0 .4-.4.5-1 .3-1.3 1-1.6 1.2-.5a230.6 230.6 0 0 1 1.6-21.4 104.8 104.8 0 0 0-17-4.8c-1.4 0-2.3 1.2-2.3 3l.7 11.3c.7 9.6 1.2 12.8 1.8 11.3.2-.7.2-.6.3 0 0 1 2.3 2 3.5 1.7.4-.1.7 0 .7.2s.3.2.7.1c.5 0 .7 0 .7.5 0 .3.1.5.3.4l.7.1c.2.3.7.3 1 .2.3-.1.6 0 .7.4.2.4.3.4.5 0 .3-.3.3-.3.4 0 0 .3.1.4.3.3.2-.1.7 0 1.1.1 1 .5 1.8.5 2.4.1zm1.1-5.2c0-.2.2-.5.3-.5.2 0 .4.3.4.5 0 .3-.2.6-.4.6-.1 0-.3-.3-.3-.6zm22.5-3.4c-.2-.3-.2-.2-.3.2 0 .4.1.6.2.5.2-.1.2-.4 0-.7zm.3-2c-.1-.4-.2-.3-.2.1s0 .6.2.5v-.7zm.7-4.9c0-.3-.1-.1-.2.5 0 .5.1.8.2.6a2 2 0 0 0 0-1zM97 194l-10.3-3-15-4.3a246.7 246.7 0 0 0-15.3-4c-.6-.1 10.3-5.5 11.3-5.5l7.1 1.5 18.1 4c13.7 3 14.5 3.3 14.5 3.7l-2 2.2c-1 1.1-2 2.2-2 2.4 0 .2-.6 1-1.3 1.8-1.5 1.5-3 1.9-5.1 1.2z" style="fill:#d58846;stroke-width:.352778" transform="translate(-44.5 -173.2)"/>
  <path d="m87.4 244.2-1.9-.8.2-2.6v-2.6l-9-3.7c-11-4.5-10.1-4.2-10.1-3.4 0 .4-.6 1.3-1.4 2l-1.3 1.2-1.8-.8-1.9-.8v-4.8l-1.4-.8c-.8-.5-1.5-1.2-1.6-1.6-.2-1-2.6-37.3-2.6-39.6v-1.5l2 .4c1.2.2 2.3.5 2.4.7l1 .2a1605.7 1605.7 0 0 1 39.5 9.5c.6.2 1.1.8 1.3 1.3.3.5.5.9.7.9a42.8 42.8 0 0 1 7-7.7 614.1 614.1 0 0 1-8.8 40 271.3 271.3 0 0 0-3.7 6.5c-.2.3-.9 1.2-1.4 2.2-.6 1-1.3 1.7-1.8 1.9-.5 0-.8.4-.8.9 0 .9-1.8 3.8-2.3 3.8l-2.3-.8zm4.7-15.2c.1-.5-.5-.8-5.6-2.5l-4-1.4-2.2-.7-.8.8c-1 .8-2.8 1-3.4.2-.5-.6-3.2-1.6-5-1.8-1.4-.2-3-1.6-3.6-3.2-.3-1-.7-1.3-3-2.2-5.6-2.1-6.3-2.3-7-1.8-.2.3-.4.6-.2.7.2.3 3.3 1.5 6.3 2.6 2.4.8 3.3 1.4 4.1 2.7 1.2 1.7 3.1 2.9 7 4l2.9 1 1.4-.8a7 7 0 0 1 1.7-.7c.7 0 7.5 2.2 9 2.9 1.7.8 2.1.8 2.4.2zm3-16.5c2.2-13.9 2.3-14.3.3-15.3a192 192 0 0 0-20.2-5.4c-.4.2-.5 1-.5 3.9l-.3 10.3a35 35 0 0 0 .1 6.4c.2-.1.3-.8.4-1.5 0-.8.3-1.5.5-1.7.3-.3.3-.2.2 0-.2.3-.1.5 0 .5.5 0 .8-2.2 1-8 .3-4.6.4-6 .6-6.3.1-.1 2.6.5 5.6 1.3 6.5 1.7 9.2 2.4 9.2 2.2l.7.5c.3.3.7.9.7 1.2 0 .6-.1.6-.6.2-.3-.3-1.3-.9-2.3-1.3a71.6 71.6 0 0 0-11.7-3c-.7.1-1 7.7-1 15.2.2 4.5.3 5 1 5.5a79 79 0 0 0 10.9 4l1.1.2.6-4a51 51 0 0 1 1-6c-.2-1.1.3-.6.6.8.3 1.1.3 1.1.2-.2l-.4-2.5c-.1-.8 0-.9.2-.5.2.3.4 1 .4 1.4 0 .5.5-1.6 1-4.8 1-5.8 1.4-7.3 1.4-5.9 0 .5.2.8.4.8s.3.4.2.8a447.1 447.1 0 0 0-3.3 21.6v.9c.2-.2 1-5.2 2-11.3zm-1.7-4.6c0-.6.1-1 .2-.6v1.3c0 .3-.2 0-.2-.7zm.3-2.3c0-.4.1-.5.3-.2v.7c-.2.1-.3-.1-.3-.5zm-4.2 17.5c.3-.2.4-.4.3-.4-.4-.3-12.2-4.2-12.6-4.2-.3 0-.4.2-.3.4a33 33 0 0 0 5.9 2.5c6.7 2.3 6 2.1 6.7 1.7zM71 216.8c.3-.2.1-.4-.6-.7-.6-.3-1.1-.6-1.1-.8 0-.1-1.2-.7-2.6-1.2a17.5 17.5 0 0 0-5-1.5c-1.4 0-3.3-1-3.5-2-.4-1.4-1-16.2-1-19.7 0-.4.4-.6 1.2-.6 1.6 0 13 3.3 13.2 3.7.1.2-1.2 0-2.8-.5a46.5 46.5 0 0 0-9.6-2.4c-.3.3-.2 6.5.2 12.4.5 7 .5 7.1 1.9 8 .9.5 8.5 3 9.9 3.3.2 0 .4-.4.5-1 .3-1.3 1-1.6 1.2-.5a233.5 233.5 0 0 1 1.6-21.4 102.1 102.1 0 0 0-17-4.8c-1.4 0-2.3 1.2-2.3 3l.7 11.3c.7 9.6 1.2 12.8 1.8 11.3.2-.7.2-.6.3 0 0 1 2.3 2 3.5 1.7.4-.1.7 0 .7.2s.3.2.7.1c.5 0 .7 0 .7.5 0 .3.1.5.3.4l.7.1c.2.3.7.3 1 .2.3-.1.6 0 .7.4.2.4.3.4.5 0 .3-.3.3-.3.4 0 0 .3.1.4.3.3.2-.1.7 0 1.1.1 1 .5 1.8.5 2.4.1zm1.1-5.2c0-.2.2-.5.3-.5.2 0 .4.3.4.5 0 .3-.2.6-.4.6-.1 0-.3-.3-.3-.6zm22.5-3.4c-.2-.3-.2-.2-.3.2 0 .4.1.6.2.5.2-.1.2-.4 0-.7zm.3-2c-.1-.4-.2-.3-.2.1s0 .6.2.5v-.7zm.7-4.9c0-.3-.1-.1-.2.5 0 .5.1.8.2.6a2 2 0 0 0 0-1zm-3.2-9c-8-2.4-14.7-4.6-14.7-5h1.7c1 .1 2 0 2.6-.1.7-.3.6-.4-1.6-1.1-2.7-.9-3.8-1.6-2.1-1.3l4.7.7c1.3.2 1.1 0-.8-.5a7.7 7.7 0 0 1-2.7-1.1c-.5-.8 1-1 3.1-.7l2 .3-1.7-.8c-1-.3-2-.8-2.4-1.1-.3-.3-.8-.4-1-.3-.3.2-.4.1-.3 0 .2-.2-.5-.4-1.4-.4a52 52 0 0 1-12.8-2.6c0-.4 1.7-1 2.7-1 .7 0 10.2 2 13.2 2.8A993.5 993.5 0 0 0 107 186c.1 0-.8 1.2-2 2.4a10.5 10.5 0 0 0-2.2 2.6c0 .1-.2.5-.7.7-.5.3-.9.7-.9 1 0 .6-1.1 1.1-2.3 1-.6 0-3.4-.6-6.3-1.5zm-22-11.5a38.8 38.8 0 0 0-5.7-1.1c0-.2-.3-.4-.6-.4h1c1.7.1 7 1.3 7.3 1.6.2.3-.5.2-2-.1zm-4.7-.3h.7c0 .2-.1.3-.5.2-.4 0-.5 0-.2-.2z" style="fill:#cb8345;stroke-width:.352778" transform="translate(-44.5 -173.2)"/>
  <path d="m87.4 244.2-1.9-.8.2-2.6v-2.6l-9-3.7c-11-4.5-10.1-4.2-10.1-3.4 0 .4-.6 1.3-1.4 2l-1.3 1.2-1.8-.8-1.9-.8v-4.8l-1.4-.8c-.8-.5-1.5-1.2-1.6-1.6-.2-.9-2.6-37.2-2.6-39.5v-1.4l1.3.2 3.4.8 2.5.6 22.9 5.5c8 2 14.7 3.7 15 3.9.3.2.9.8 1.2 1.4l.5 1.1 1-1.6 1.6-2a129.9 129.9 0 0 0 4.4-4.8 669.5 669.5 0 0 1-8.7 40 271.3 271.3 0 0 0-3.7 6.5c-.2.3-.9 1.2-1.4 2.2-.6 1-1.3 1.7-1.8 1.9-.5 0-.8.4-.8.9 0 .9-1.8 3.8-2.3 3.8l-2.3-.8zm4.7-15.2c.1-.5-.5-.8-5.6-2.5l-4-1.4-2.2-.7-.8.8c-1 .8-2.8 1-3.4.2-.5-.6-3.2-1.6-5-1.8-1.4-.2-3-1.6-3.6-3.2-.3-1-.7-1.3-3-2.2-5.6-2.1-6.3-2.3-7-1.8-.2.3-.4.6-.2.7.2.3 3.3 1.5 6.3 2.6 2.4.8 3.3 1.4 4.1 2.7 1.2 1.7 3.1 2.9 7 4l2.9 1 1.4-.8a7 7 0 0 1 1.7-.7c.7 0 7.5 2.2 9 2.9 1.7.8 2.1.8 2.4.2zm3-16.5c2.2-13.9 2.3-14.3.3-15.3a192 192 0 0 0-20.2-5.4c-.4.2-.5 1-.5 3.9l-.3 10.3a35 35 0 0 0 .1 6.4c.2-.1.3-.8.4-1.5 0-.8.3-1.5.5-1.7.3-.3.3-.2.2 0-.2.3-.1.5 0 .5.5 0 .8-2.2 1-8 .3-4.6.4-6 .6-6.3.1-.1 2.6.5 5.6 1.3 6.5 1.7 9.2 2.4 9.2 2.2l.7.5c.3.3.7.9.7 1.2 0 .6-.1.6-.6.2-.3-.3-1.3-.9-2.3-1.3a71.6 71.6 0 0 0-11.7-3c-.7.1-1 7.7-1 15.2.2 4.5.3 5 1 5.5a79 79 0 0 0 10.9 4l1.1.2.6-4a51 51 0 0 1 1-6c-.2-1.1.3-.6.6.8.3 1.1.3 1.1.2-.2l-.4-2.5c-.1-.8 0-.9.2-.5.2.3.4 1 .4 1.4 0 .5.5-1.6 1-4.8 1-5.8 1.4-7.3 1.4-5.9 0 .5.2.8.4.8s.3.4.2.8a447.1 447.1 0 0 0-3.3 21.6v.9c.2-.2 1-5.2 2-11.3zm-1.7-4.6c0-.6.1-1 .2-.6v1.3c0 .3-.2 0-.2-.7zm.3-2.3c0-.4.1-.5.3-.2v.7c-.2.1-.3-.1-.3-.5zm-4.2 17.5c.3-.2.4-.4.3-.4-.4-.3-12.2-4.2-12.6-4.2-.3 0-.4.2-.3.4a33 33 0 0 0 5.9 2.5c6.7 2.3 6 2.1 6.7 1.7zM71 216.8c.3-.2.1-.4-.6-.7-.6-.3-1.1-.6-1.1-.8 0-.1-1.2-.7-2.6-1.2a17.5 17.5 0 0 0-5-1.5c-1.4 0-3.3-1-3.5-2-.4-1.4-1-16.2-1-19.7 0-.4.4-.6 1.2-.6 1.6 0 13 3.3 13.2 3.7.1.2-1.2 0-2.8-.5a46.5 46.5 0 0 0-9.6-2.4c-.3.3-.2 6.5.2 12.4.5 7 .5 7.1 1.9 8 .9.5 8.5 3 9.9 3.3.2 0 .4-.4.5-1 .3-1.3 1-1.6 1.2-.5a231 231 0 0 1 1.6-21.4c.5-.5.4-.5-10.5-3.4-5.6-1.5-6.6-1.6-7.4-1.3-1.6.8-1.6 1-.8 13 .8 10.7 1.3 14 1.9 12.4.2-.5.2-.5.3.2 0 .8 2.3 2 3.5 1.6.4-.1.7 0 .7.2s.3.2.7.1c.5 0 .7 0 .7.5 0 .3.1.5.3.4l.7.1c.2.3.7.3 1 .2.3-.1.6 0 .7.4.2.4.3.4.5 0 .3-.3.3-.3.4 0 0 .3.1.4.3.3.2-.1.7 0 1.1.1 1 .5 1.8.5 2.4.1zm1.1-5.2c0-.2.2-.5.3-.5.2 0 .4.3.4.5 0 .3-.2.6-.4.6-.1 0-.3-.3-.3-.6zm22.5-3.4c-.2-.3-.2-.2-.3.2 0 .4.1.6.2.5.2-.1.2-.4 0-.7zm.3-2c-.1-.4-.2-.3-.2.1s0 .6.2.5v-.7zm.7-4.9c0-.3-.1-.1-.2.5 0 .5.1.8.2.6a2 2 0 0 0 0-1zm-1.6-9a47.7 47.7 0 0 1-9.9-3.2c-.4-.5-.4-.5.2-.4 1.9.4 4.5.5 4 .2-.4-.3-.4-.4.2-.4.7 0 .7 0 0-.3-.3-.2-.7-.3-1-.2-.2.2-.3.2-.1 0 .1-.2-.1-.5-.6-.8-.6-.4-.7-.4 0-.3l2.4.4 2.8.4c.8.1 1 0 .6-.2-.5-.3-.5-.5.1-1 .5-.3 1.2-.4 2.5-.3 1.7.2 1.7.2 1-.3-.8-.6-1.2-1.5-.5-1 .2 0 .8 0 1.3-.4.8-.5 1.1-.5 5 .3 2.2.5 4.2 1 4.4 1.2.2.2-.2.7-.9 1.2-1.5 1-3.5 3.1-3.3 3.4.1 0-.2.5-.7.8-.6.4-1 .8-1 1 0 1.3-1.6 1.4-6.5 0zm-24.4-13.2a4 4 0 0 0-1.3-.6L67 178l-.9-.3 1-.3a29 29 0 0 1 9.6 2c-.3.5-6.1.2-6.9-.3zm7.7.4h.7c.1.1 0 .2-.5.2-.4 0-.5-.1-.2-.2z" style="fill:#b4825c;stroke-width:.352778" transform="translate(-44.5 -173.2)"/>
  <path d="m87.4 244.2-1.9-.8.2-2.6V238l-9.3-3.8-9.6-3.8c-.1 0-.2.3-.2.7 0 .6-2.1 2.8-2.8 2.8a10 10 0 0 1-2-.6l-1.6-.7v-2.4c0-2.4 0-2.4-1.3-3.1-.7-.4-1.3-1-1.5-1.2a2844.9 2844.9 0 0 1-2.8-40v-1.4l1.3.2 3.4.8 2.5.6 22.9 5.5c8 2 14.7 3.7 15 3.9.3.2.9.8 1.2 1.4l.5 1.1 1-1.6 1.6-2a129.9 129.9 0 0 0 4.4-4.8l-.4 2.6c-7.2 35.3-7.3 35.6-8.3 37.5a347.7 347.7 0 0 0-3.5 6l-1.4 2.2c-.8 1.3-1.6 2.2-2 2.3-.5 0-.8.4-.8.8 0 .8-1.9 3.9-2.3 3.9l-2.3-.8zm4.7-15.8-5.3-2c-2.7-.9-5.2-1.7-5.5-2-.4-.1-.8 0-1.4.5-1.2.9-2.3.9-4 0a30 30 0 0 0-4.1-1.4c-2.6-.7-4.1-1.8-4.2-3l-.1-1a16 16 0 0 0-4.7-2c-4.4-1.7-4.6-1.7-5.2-1.1-.7.7-.6 2 .1 1.6.2-.1.4 0 .4.4s.1.5.2.2c.3-.8.8-.5.9.5 0 .9 0 .9.2.2.2-.9.5-1 1.3-.3.2.3.6.5.7.3.1 0 .2.2.2.7 0 .5.2 1 .4 1.2h.3c0-.3 0-.6.2-1 .2-.5.4-.5 1.3-.2.5.2 1 .6 1 1s0 .4.3 0c.4-.6 1.2-.1 2.5 1.4 1.5 2 3.2 3 6.3 4 3.2 1.1 4.5 1.2 5.6.2l.7-.7 4.3 1.3c2.3.7 5 1.5 5.8 1.9 1.3.6 1.5.6 1.8.1.1-.3.1-.6 0-.8zm0-7.2c.2-1.7.4-2 .6-1.4.2.4.3.1.2-1.1-.2-1.2-.1-1.5 0-.9.3.8.4.6.7-1.2.1-1.2.3-1.9.4-1.5 0 .3-.1 2.3-.4 4.3-.6 4.1-.7 4.6-.4 4.3l2.1-11.9c2-12.7 2-13.5.3-14.5a178.3 178.3 0 0 0-20.8-5.5c.2-.4-.8-.7-10.7-3.3-5.6-1.5-6.6-1.6-7.4-1.3-1.6.8-1.6 1-1 11.6.8 12 1 13.7 2.1 14.5.8.6 15 5.7 15.3 5.5l.6-13.1c.3-7.2.7-13.1.8-13.2.2-.3 0 10.3-.4 21.3l-.2 5.4 1.3.4 1.8.5c.2 0 .7.2 1 .5.4.4.5.4.5 0 0-.3.2-.3.6 0 .6.5 1.3.8 2.3.8 1.1 0 3.9 1 4.2 1.6.2.4.3.4.3.2 0-.3.4-.3 1.5.1 1.8.6 2.3.6 2.5 0v.6c0 .7 0 .9.7.7.4 0 .7 0 .7.3 0 .8.6-1.5.8-3.7zm-5.4.4a92 92 0 0 0-10.4-3.4c-.4 0-.5-.4-.4-1.9a610.6 610.6 0 0 0 1.3-20.9 153 153 0 0 1 15 4.2c.6.2 1 .7 1.1 1 .1.7 0 .7-.4.2a9 9 0 0 0-2.4-1.3 71.6 71.6 0 0 0-11.7-3c-.7.1-1 7.7-1 15.3.2 4.6.3 5 1 5.4a72 72 0 0 0 9.9 3.8c1 .3 1.8.6 1.7.8-.2.7-1.4.6-3.7-.2zm-16.3-6c-.4-.5-1-1-1.3-1-.2 0-.4-.1-.4-.3 0-.2.4-.2 1.1 0 1.5.6 1.8.8 1.6 1.6 0 .6-.2.6-1-.3zm22.6-.1c0-.4.1-.5.3-.2v.7c-.2 0-.3-.1-.3-.5zm1.1-2c0-.4.1-.6.2-.4v1c-.1.2-.2 0-.2-.5zM60 211.9a5 5 0 0 1-1.3-.4c-.4-.4-.8-6.4-1-13.8l-.3-7.4 1.7.2c2.5.4 12.6 3.3 12.7 3.7.1.1-1.2-.1-2.8-.6a46.4 46.4 0 0 0-9.6-2.4c-.5.4.2 16 .8 18.6a3 3 0 0 0 1.9 2.2c.7.3-.7.3-2 0zm34.6-.5c0-.6 0-.8.2-.4v1c-.1.3-.2 0-.2-.6zm.3-2.2c0-.4.1-.4.2-.2v.7c-.1.1-.2 0-.2-.5zm.4-2c0-.5 0-.6.2-.3v.7c-.2.1-.3-.1-.2-.5zM92.5 222c0-.3-.2-.2-.2.2s.1.6.2.5v-.7zm1.6-29.6a47.7 47.7 0 0 1-9.9-3.3c-.4-.5-.4-.5.2-.4 1.9.4 4.5.5 4 .2-.4-.3-.4-.4.2-.4.7 0 .7 0 0-.3-.3-.2-.7-.3-1-.2-.2.2-.3.2-.1 0 .1-.2-.1-.5-.6-.8-.6-.4-.7-.4 0-.3l2.4.4 2.8.4c.8.1 1 0 .6-.2-.5-.3-.5-.5.1-1 .5-.3 1.2-.4 2.5-.3 1.7.2 1.7.2 1-.3-.8-.6-1.2-1.5-.5-1 .2 0 .8 0 1.3-.4.8-.5 1.1-.5 5 .3 2.2.5 4.2 1 4.4 1.2.2.2-.2.7-.9 1.2-1.5 1-3.5 3.1-3.3 3.4.1 0-.2.5-.7.8-.6.4-1 .8-1 1 0 1.3-1.6 1.4-6.5 0zM69.7 179a4 4 0 0 0-1.3-.6L67 178l-.9-.3 1-.3a29 29 0 0 1 9.6 2c-.3.5-6.1.2-6.9-.3zm7.7.4h.7c.1.1 0 .2-.5.2-.4 0-.5-.1-.2-.2z" style="fill:#c67d41;stroke-width:.352778" transform="translate(-44.5 -173.2)"/>
  <path d="m87.4 244.2-1.9-.8.2-2.6V238l-9.3-3.8-9.6-3.8c-.1 0-.2.3-.2.7 0 .6-2.1 2.8-2.8 2.8a10 10 0 0 1-2-.6l-1.6-.7v-2.4c0-2.4 0-2.4-1.3-3.1-.7-.4-1.4-1-1.5-1.3-.2-.3-.6-4.4-.9-9.1l-1.2-19.3c-1-14-1-12.8.6-12.4a446 446 0 0 0 14.7 3.2c3.9.8 28.4 7.1 29 7.5.5.3 1 1 1.3 1.7l.5 1 .4-.8c.6-1.1 4.2-5.5 5.6-6.8.9-.8 1-1 1-.4-.2.4-1 5-2.1 10.2-5.1 25.3-5.5 27.1-6.6 29a373.9 373.9 0 0 0-3.5 6.1l-1.4 2.2c-.8 1.3-1.6 2.2-2 2.3-.5 0-.8.4-.8.8 0 .8-1.9 3.9-2.3 3.9l-2.3-.8zm4.7-15.8-5.3-2c-2.7-.9-5.2-1.7-5.5-2-.4-.1-.8 0-1.4.5-1.2.9-2.3.9-4 0a30 30 0 0 0-4.1-1.4c-2.6-.7-4.1-1.8-4.2-3l-.1-1a16 16 0 0 0-4.7-2c-4.4-1.7-4.6-1.7-5.2-1.1-.7.7-.6 2 .1 1.6.2-.1.4 0 .4.4s.1.5.2.2c.3-.8.8-.5.9.5 0 .9 0 .9.2.2.2-.9.5-1 1.3-.3.2.3.6.5.7.3.1 0 .2.2.2.7 0 .5.2 1 .4 1.2h.3c0-.3 0-.6.2-1 .2-.5.4-.5 1.3-.2.5.2 1 .6 1 1s0 .4.3 0c.4-.6 1.2-.1 2.5 1.4 1.5 2 3.2 3 6.3 4 3.2 1.1 4.5 1.2 5.6.2l.7-.7 4.3 1.3c2.3.7 5 1.5 5.8 1.9 1.3.6 1.5.6 1.8.1.1-.3.1-.6 0-.8zm0-7.2c.2-1.7.4-2 .6-1.4.2.4.3.1.2-1.1-.2-1.2-.1-1.5 0-.9.3.8.4.6.7-1.2.1-1.2.3-1.9.4-1.5 0 .3-.1 2.3-.4 4.3-.6 4.1-.7 4.6-.4 4.3l2.1-11.9c2-12.7 2-13.5.3-14.5a178.3 178.3 0 0 0-20.8-5.5c.1-.2-2.3-1-5.4-1.8l-8.6-2.4c-4.5-1.3-5.5-.7-5.5 2.8 0 2.9 1.3 20.7 1.6 21.7.1.4.6 1 1 1.3 1 .6 15 5.6 15.2 5.4l.6-13.1c.3-7.2.7-13.1.8-13.2.2-.3 0 10.3-.4 21.3l-.2 5.4 1.3.4 1.8.5c.2 0 .7.2 1 .5.4.4.5.4.5 0 0-.3.2-.3.6 0 .6.5 1.3.8 2.3.8 1.1 0 3.9 1 4.2 1.6.2.4.3.4.3.2 0-.3.4-.3 1.5.1 1.8.6 2.3.6 2.5 0v.6c0 .7 0 .9.7.7.4 0 .7 0 .7.3 0 .8.6-1.5.8-3.7zm-5.4.4a92 92 0 0 0-10.4-3.4c-.4 0-.5-.4-.4-1.9a610.6 610.6 0 0 0 1.3-20.9 153 153 0 0 1 15 4.2c.6.2 1 .7 1.1 1 .1.7 0 .7-.4.2a9 9 0 0 0-2.4-1.3 71.6 71.6 0 0 0-11.7-3c-.7.1-1 7.7-1 15.3.2 4.6.3 5 1 5.4a72 72 0 0 0 9.9 3.8c1 .3 1.8.6 1.7.8-.2.7-1.4.6-3.7-.2zm-16.3-6c-.4-.5-1-1-1.3-1-.2 0-.4-.1-.4-.3 0-.2.4-.2 1.1 0 1.5.6 1.8.8 1.6 1.6 0 .6-.2.6-1-.3zm22.6-.1c0-.4.1-.5.3-.2v.7c-.2 0-.3-.1-.3-.5zm1.1-2c0-.4.1-.6.2-.4v1c-.1.2-.2 0-.2-.5zM60 211.9a5 5 0 0 1-1.3-.4c-.4-.4-.8-6.4-1-13.8l-.3-7.4 1.7.2c2.5.4 12.6 3.3 12.7 3.7.1.1-1.2-.1-2.8-.6a46.4 46.4 0 0 0-9.6-2.4c-.5.4.2 16 .8 18.6a3 3 0 0 0 1.9 2.2c.7.3-.7.3-2 0zm34.6-.5c0-.6 0-.8.2-.4v1c-.1.3-.2 0-.2-.6zm.3-2.2c0-.4.1-.4.2-.2v.7c-.1.1-.2 0-.2-.5zm.4-2c0-.5 0-.6.2-.3v.7c-.2.1-.3-.1-.2-.5zM92.5 222c0-.3-.2-.2-.2.2s.1.6.2.5v-.7zm4.4-29-2.3-.8c-1.5-.3-4.4-1.4-4.4-1.6 0-.2-.2-.2-.5 0-.3 0-.6 0-.7-.3-.4-.6 1.5-.4 5.9.7 4.3 1 5.4 1.5 4.5 2.1-.7.4-.6.4-2.5-.2zm3.2-2c0-.2-.5-.3-1-.1-.7.2-.8.1-.6-.2.2-.4 0-.4-.7-.3-.5.2-1 .1-1-.1s-.3-.3-.8-.1c-.6.1-.9 0-.8-.1.1-.2-.5-.6-1.5-.8-2.4-.6-2.7-1.2-.5-1l3.7.8 3.2.7c1.6.2 2 1 .8 1.3l-.8-.1zm-.5-1.9c-2.3-.5-3.1-1-1.2-.9 1.7.2 1.1-.5-.7-.9-.7-.1-1.2-.3-1-.4.2-.2 6 1 6.3 1.3.2.2 0 .4-.6.5-.7.2-.9.4-.5.6.6.4.2.3-2.3-.2zm1.5-2.3-1.5-.7c.3 0 .4-.2.3-.4-.1-.1 0-.4.2-.5.2-.1.2-.4.2-.5-.1-.2 1 0 2.7.3l3.2.7c.2 0 0 .4-.6 1-1.1 1-1.8 1-4.5 0zm-28.3-8.4h.7c.1.2 0 .2-.5.2-.4 0-.4 0-.2-.2z" style="fill:#c47a3d;stroke-width:.352778" transform="translate(-44.5 -173.2)"/>
  <path d="m87.4 244.2-1.9-.8.2-2.6V238l-9.3-3.8-9.6-3.8c-.1 0-.2.3-.2.7 0 .6-2.1 2.8-2.8 2.8a10 10 0 0 1-2-.6l-1.6-.7v-2.4c0-2.4 0-2.4-1.3-3.1-.7-.4-1.3-1-1.5-1.2a556.8 556.8 0 0 1-2-29.7c0-.7.3 1.9.5 5.6.6 8.8 1 10.6 2 11.4.7.6 15 5.7 15.2 5.5l.6-13.1c.3-7.2.7-13.1.8-13.2.2-.3 0 10.3-.4 21.3l-.2 5.4 1.3.4 1.8.5c.2 0 .7.2 1 .5.4.4.5.4.5 0 0-.3.2-.3.6 0 .6.5 1.3.8 2.3.8 1.1 0 3.9 1 4.2 1.6.2.4.3.4.3.2 0-.3.4-.3 1.5.1 1.8.6 2.3.6 2.5 0v.6c0 .7 0 .9.5.7.3 0 .7 0 .8.3.3.4.4 0 1-4 .2-1.5.3-1.7.5-1.1.2.4.3 0 .2-1.1-.2-1.2-.1-1.5 0-.9.3.8.4.6.7-1.2.1-1.2.3-1.9.4-1.5 0 .3-.1 2.3-.4 4.3-.6 4.1-.7 4.6-.4 4.3l2.1-11.9c2-12.7 2-13.5.3-14.5a178.3 178.3 0 0 0-20.8-5.6c.2-.2.2-.3 0-.3l-8.7-2.4c-8.3-2.3-8.4-2.3-9.6-1.8-.9.4-1.2.9-1.3 1.4 0 .8 0 .8-.3.1-.5-1.1-.4-2.6.2-2.6.2 0 .5.2.6.4.1.3.2.2.2-.2 0-.5.2-.5.8-.1.6.3.8.3 1 0 .2-.4.3-.4.4-.2.1.3 1.3.6 2.6.8l3.4.7 2.3.5a78.4 78.4 0 0 1 3.7.7 77.6 77.6 0 0 1 8.4 1.8 537.6 537.6 0 0 1 18.7 4.6c2.8.6 3.5 1.4 3.6 3.8v1.8l.6-1.2c.7-1.5 3.4-5.2 5.3-7.4 1.6-1.8 1.8-1.6 1.1 1.1l-3.7 18a89.7 89.7 0 0 1-4.4 18.6 347.7 347.7 0 0 0-3.5 6l-1.4 2.2a7 7 0 0 1-2 2.3c-.5 0-.8.4-.8.8 0 .8-1.9 3.9-2.3 3.9l-2.3-.8zm4.7-15.8-5.3-2c-2.7-.9-5.2-1.7-5.5-2-.4-.1-.8 0-1.4.5-1.2.9-2.3.9-4 0a30 30 0 0 0-4.1-1.4c-2.6-.7-4.1-1.8-4.2-3l-.1-1a16 16 0 0 0-4.7-2c-4.4-1.7-4.6-1.7-5.2-1.1-.7.7-.6 2 .1 1.6.2-.1.4 0 .4.4s.1.5.2.2c.3-.8.8-.5.9.5 0 .9 0 .9.2.2.2-.9.5-1 1.3-.3.2.3.6.5.7.3.1 0 .2.2.2.7 0 .5.2 1 .4 1.2h.3c0-.3 0-.6.2-1 .2-.5.4-.5 1.3-.2.5.2 1 .6 1 1s0 .4.3 0c.4-.6 1.2-.1 2.5 1.4 1.5 2 3.2 3 6.3 4 3.2 1.1 4.5 1.2 5.6.2l.7-.7 4.3 1.3c2.3.7 5 1.5 5.8 1.9 1.3.6 1.5.6 1.8.1.1-.3.1-.6 0-.8zm.4-6.4c0-.3-.2-.2-.2.2s.1.6.2.5v-.7zm-5.8-.4a92 92 0 0 0-10.4-3.4c-.4 0-.5-.4-.4-1.9a610.6 610.6 0 0 0 1.3-20.9 153 153 0 0 1 15 4.2c.6.2 1 .7 1.1 1 .1.7 0 .7-.4.2a9 9 0 0 0-2.4-1.3 71.6 71.6 0 0 0-11.7-3c-.7.1-1 7.7-1 15.3.2 4.6.3 5 1 5.4a72 72 0 0 0 9.9 3.8c1 .3 1.8.6 1.7.8-.2.7-1.4.6-3.7-.2zm-16.3-6c-.4-.5-1-1-1.3-1-.2 0-.4-.1-.4-.3 0-.2.4-.2 1.1 0 1.5.6 1.8.8 1.6 1.6 0 .6-.2.6-1-.3zm22.6-.1c0-.4.1-.5.3-.2v.7c-.2 0-.3-.1-.3-.5zm1.1-2c0-.4.1-.6.2-.4v1c-.1.2-.2 0-.2-.5zM60 211.9a5 5 0 0 1-1.3-.4c-.4-.4-.8-6.4-1-13.8l-.3-7.4 1.7.2c2.5.4 12.6 3.3 12.7 3.7.1.1-1.2-.1-2.8-.6a46.4 46.4 0 0 0-9.6-2.4c-.5.4.2 16 .8 18.6a3 3 0 0 0 1.9 2.2c.7.3-.7.3-2 0zm34.6-.5c0-.6 0-.8.2-.4v1c-.1.3-.2 0-.2-.6zm.3-2.2c0-.4.1-.4.2-.2v.7c-.1.1-.2 0-.2-.5zm.4-2c0-.5 0-.6.2-.3v.7c-.2.1-.3-.1-.2-.5zM55 192.7c0-1.3 0-1.8.2-1.2v2.3c-.1.6-.2.1-.2-1.1z" style="fill:#a97854;stroke-width:.352778" transform="translate(-44.5 -173.2)"/>
  <path d="m87.4 244-1.9-.8.2-2.5.3-2.6-9.1-3.6-9.7-3.8c-.5-.2-.6 0-.6.4 0 .7-2.1 3-2.8 3a10 10 0 0 1-2-.7l-1.6-.7v-5l-1.3-.6c-.7-.3-1.4-1-1.5-1.3-.4-.8-1.1-10.9-1-13.6 0-1.6 0-1.6.3-.5.2.7.7 1.4 1.2 1.7.5.3 4.1 1.8 8 3.2l7.3 2.5.2-2.1.5-9.8.3-7.5-.2 9.8-.1 10 8.3 2.8c4.5 1.6 8.7 3 9.1 3 2 0 2 0 4.7-17.4 1.4-8.9 1.4-9.6-.2-10.7a117 117 0 0 0-10.4-3 783.8 783.8 0 0 1-19.7-5.3c-7.9-2.2-8-2.2-9.2-1.7-.9.4-1.2.9-1.3 1.4 0 .8 0 .8-.3.1-.5-1.1-.4-2.6.2-2.6.2 0 .5.2.6.4.1.3.2.2.2-.2 0-.5.2-.5.8-.1.6.3.8.3 1 0 .2-.4.3-.4.4-.2.1.3 1.3.6 2.6.8l3.4.7 2.3.5a78.4 78.4 0 0 1 3.7.7 77.6 77.6 0 0 1 8.4 1.8 379.3 379.3 0 0 1 17.8 4.4 7 7 0 0 1 3.8 1.5c.5.5.7 1.3.7 2.5v1.8l.6-1.2c1-2.2 6.3-9 6.7-8.7a560.3 560.3 0 0 1-8.2 38.5 273 273 0 0 0-3.7 6.5l-1.3 2c-.5.9-1.4 1.9-2 2.2-.5.3-1 .8-1 1 0 .8-1.8 4-2.2 4-.2 0-1.2-.4-2.3-1zm4.8-14.4c0-1.6-.2-1.7-7-4l-4.4-1.6-1.1.9-1.2.8-2.9-1c-6.1-2.1-8-3.3-8-5 0-.6-1.5-1.3-9-3.9-.2 0-.7.1-1 .5-.5.5-.6 1-.4 3.6.3 3.5.7 4.6 1.2 3.2l.3-.9.2.8c.3 1 1 .7 1-.4 0-.8.1-.6.5 1 0 .5.3.9.5.7.2-.1.5.1.6.5.2.6.3.7.9.4.5-.3.6-.2.6.3s0 .5.4 0c.3-.3.4-.3.6 0 0 .2.3.3.5.2.1 0 .3 0 .3.3s0 .3.3 0c.3-.4.4-.4.4-.2 0 .3.2.5.5.5s.6.2.6.4.2.2.5-.1l.8-.4.5-.5c.2-.5.2-.4.3.4 0 .9 0 1 .3.4.2-.7.3-.7.5.1.1.6.4.8.7.6.3 0 .6 0 .6.2 0 .1.2.3.5.3s.5-.2.5-.4c0-.5 1-.4 1.8.4.5.4.7.5.8.2.2-.2.4-.2.7.3.4.4.6.5.7.1.1-.2.2 0 .3.5v.8l.5-.8.4-.8.3.8c.3.8.3.8.5-.2l.3-1v1c0 1.1.2 1.2.6.7.3-.3.6-.8.6-1.2 0-1 .6-1 1 0 .3.8.3.8.4-.2v-1l.3 1.1.3 1.3v-1.4c.1-1 .2-1.2.3-.6.2 1 1 1.9 1.6 1.7.3 0 .5.5.7 1.3.1 1 .2 1.2.2.5.1-1.2.4-2 .8-2 .2 0 .4.2.4.6 0 .6 0 .6.2 0 .1-.5.2-.6.6-.2l.7 1v-.7c-.2-1.7.4-1.3.8.4l.2 1.5.3-1.2.2-1.3v1.2c.1.7.3 1.1.7 1.1.2 0 .5-.2.5-.4 0-.3.1-.3.3 0 .3.5.4.4.4-.5 0-.7 0-.9.3-.5.2.2.4.5.6.5.2 0 .3 1.3.3 2.9l-.1 2.8.5-2.5c.3-1.3.5-3 .4-3.9zm-2.5 2.8c-.1-.5-.3-.8-.4-.7v1c.2.6.3 1 .4.9v-1.2zm-1-.2c-.1-.3-.2-.2-.2.2s0 .6.1.5c.2-.1.2-.4 0-.7zm-11.8-14c-.7 0-.8-.3-.8-1.4 0-2.5 1-21 1.2-21.1l1.5.1c1.2.2 1.2.3.5.5-.9.2-1 .4-1.2 3.2-.3 3.8-.3 15.8 0 16.8 0 .4.6 1 1.2 1.2l1 .7c0 .2-2.4.3-3.4 0zM58.8 211a55 55 0 0 1-1.1-14c-.2-7.3-.3-7.1 2.9-6.1l1.5.5-1.4-.2c-1.4-.2-1.5-.1-1.6.8-.3 2.5.7 17.6 1.3 19 .3.8-1 .8-1.6 0zm-2.7-3c0-1.4 0-2 .1-1.3v2.7c0 .7-.1.1-.1-1.4zm-.4-5c0-1.4.1-2 .2-1.2v2.5c-.1.6-.2 0-.2-1.4zm37.3-2c0-.4-2.8-1.6-6.8-2.7-1.9-.5-3.3-1-3.3-1.1.1 0 2.2.4 4.8 1.2 4.2 1.2 6.2 2.2 5.5 2.8 0 .2-.2 0-.2-.1zm-37.6-3.4c0-1.3 0-1.8.1-1.1v2.5l-.1-1.4zm25.4-.8c-.4-.2-.5-.4-.1-.4l1.2.4c.4.1.5.3.2.3l-1.3-.3zM55 192.6c0-1.2 0-1.6.2-1v2.1c-.1.6-.2 0-.2-1.1zm13.8.8c-2.8-1-2.2-1 1.2 0 1 .2 1.8.6 1.8.8v.3l-3-1zm-5.2-1.5c-1.4-.5-1.4-.5-.2-.3 1.4.2 2.9.8 2 .8l-1.8-.5z" style="fill:#687c86;stroke-width:.352778" transform="translate(-44.5 -173.2)"/>
  <path d="m87.4 244-1.9-.8.2-2.5.3-2.6-9.1-3.6-9.7-3.8c-.5-.2-.6 0-.6.4 0 .7-2.1 3-2.8 3a10 10 0 0 1-2-.7l-1.6-.7v-5l-1.3-.6c-.7-.3-1.4-1-1.5-1.3-.4-.8-1.1-10.9-1-13.6 0-1.6 0-1.6.3-.5.2.7.7 1.4 1.2 1.7.5.3 4.1 1.8 8 3.2l7.3 2.5.2-2.1.5-9.8.3-7.5-.2 9.8-.1 10 8.3 2.8c4.5 1.6 8.7 3 9.1 3 2 0 2 0 4.7-17.4 1.4-8.9 1.4-9.6-.2-10.7a117 117 0 0 0-10.4-3 783.8 783.8 0 0 1-19.7-5.3c-7.9-2.2-8-2.2-9.2-1.7-.9.4-1.2.9-1.3 1.4 0 .8 0 .8-.3.1-.5-1.1-.4-2.6.2-2.6.2 0 .5.2.6.4.1.3.2.2.2-.2 0-.5.2-.5.8-.1.6.3.8.3 1 0 .2-.4.3-.4.4-.2.1.3 1.3.6 2.6.8l3.4.7 2.3.5a78.4 78.4 0 0 1 3.7.7 77.6 77.6 0 0 1 8.4 1.8 379.3 379.3 0 0 1 17.8 4.4 7 7 0 0 1 3.8 1.5c.5.5.7 1.3.7 2.5v1.8l.6-1.2c1-2.2 6.3-9 6.7-8.7a560.3 560.3 0 0 1-8.2 38.5 273 273 0 0 0-3.7 6.5l-1.3 2c-.5.9-1.4 1.9-2 2.2-.5.3-1 .8-1 1 0 .8-1.8 4-2.2 4-.2 0-1.2-.4-2.3-1zm4.8-14.4c0-1.6-.2-1.7-7-4l-4.4-1.6-1.1.9-1.2.8-2.9-1c-6.1-2.1-8-3.3-8-5 0-.6-1.5-1.3-9-3.9-.2 0-.7.1-1 .5-.5.5-.6 1-.4 3.6.3 3.5.7 4.6 1.2 3.2l.3-.9.2.8c.3 1 1 .7 1-.4 0-.8.1-.6.5 1 0 .5.3.9.5.7.2-.1.5.1.6.5.2.6.3.7.9.4.5-.3.6-.2.6.3s0 .5.4 0c.3-.3.4-.3.6 0 0 .2.3.3.5.2.1 0 .3 0 .3.3s0 .3.3 0c.3-.4.4-.4.4-.2 0 .3.2.5.5.5s.6.2.6.4.2.2.5-.1l.8-.4.5-.5c.2-.5.2-.4.3.4 0 .9 0 1 .3.4.2-.7.3-.7.5.1.1.6.4.8.7.6.3 0 .6 0 .6.2 0 .1.2.3.5.3s.5-.2.5-.4c0-.5 1-.4 1.8.4.5.4.7.5.8.2.2-.2.4-.2.7.3.4.4.6.5.7.1.1-.2.2 0 .3.5v.8l.5-.8.4-.8.3.8c.3.8.3.8.5-.2l.3-1v1c0 1.1.2 1.2.6.7.3-.3.6-.8.6-1.2 0-1 .6-1 1 0 .3.8.3.8.4-.2v-1l.3 1.1.3 1.3v-1.4c.1-1 .2-1.2.3-.6.2 1 1 1.9 1.6 1.7.3 0 .5.5.7 1.3.1 1 .2 1.2.2.5.1-1.2.4-2 .8-2 .2 0 .4.2.4.6 0 .6 0 .6.2 0 .1-.5.2-.6.6-.2l.7 1v-.7c-.2-1.7.4-1.3.8.4l.2 1.5.3-1.2.2-1.3v1.2c.1.7.3 1.1.7 1.1.2 0 .5-.2.5-.4 0-.3.1-.3.3 0 .3.5.4.4.4-.5 0-.7 0-.9.3-.5.2.2.4.5.6.5.2 0 .3 1.3.3 2.9l-.1 2.8.5-2.5c.3-1.3.5-3 .4-3.9zm-2.5 2.8c-.1-.5-.3-.8-.4-.7v1c.2.6.3 1 .4.9v-1.2zm-1-.2c-.1-.3-.2-.2-.2.2s0 .6.1.5c.2-.1.2-.4 0-.7zm-11.8-14c-1-.1-1 .3-.3-12.4l.5-9.8c0-.2.4-.4.8-.4s.6.1.5.3c-.3.5-1.3 20-1 20.6 0 .3.8.8 1.5 1.1l1.4.7H77zM58.8 211a55 55 0 0 1-1.1-14l-.1-6.4 1-.1c.8 0 1 0 .6.2-.4.3-.4 1.6-.1 8.2.5 9.1.7 11.5 1.1 11.8.6.4.4.9-.3.9-.4 0-.9-.3-1.1-.6zm-2.7-3c0-1.4 0-2 .1-1.3v2.7c0 .7-.1.1-.1-1.4zm-.4-5c0-1.4.1-2 .2-1.2v2.5c-.1.6-.2 0-.2-1.4zm-.3-5.4c0-1.3 0-1.8.1-1.1v2.5l-.1-1.4zm34 1.4h.7c.1.1-.1.2-.5.2s-.5-.1-.2-.2zm-2.5-.7h.7c.1.1 0 .2-.4.2-.5 0-.5-.1-.3-.2zm-2.4-.7h.7c0 .1-.1.2-.5.2s-.5-.1-.2-.2zm-29.5-5c0-1.2 0-1.6.2-1v2.1c-.1.6-.2 0-.2-1.1zm15.4 1h.6c.2.1 0 .2-.4.2s-.5-.1-.2-.2zm-2.5-.7h.7c0 .1-.1.2-.5.2s-.5-.1-.2-.2zm-7.8-2.1h.7c.1.1 0 .2-.5.2-.4 0-.4-.1-.2-.2z" style="fill:#966b4c;stroke-width:.352778" transform="translate(-44.5 -173.2)"/>
  <path d="m87.7 244-2-.7v-2.8c0-2.2.2-2.8.5-2.8s.7.3.8.6c.3.4.4.4.4-.2 0-.5 0-.6.2-.2.4.9 1.3 1.4 1.9 1 .3 0 .7-.2.9-.1.2 0 .5-.6.8-1.4.6-2 1.5-7.9 1.3-8.6-.3-.8-.8-1-6.9-3.3l-4.7-1.7-.7.7c-1.1 1-2.3 1-5.9-.4-3.6-1.3-4.7-2-5.6-3.8-.7-1.3-1-1.4-5.4-3-6-2-6.3-2-6.3 1.3 0 3.7-.2 2.1-.4-2.9v-4c.1.5.5 1.1.8 1.5.3.3 4 1.8 8.3 3.3l16.5 6c5.7 2 9.1 3 9.6 3 .5-.2 1-.7 1.3-1.3.5-.9 4.1-22.5 4.1-24.4 0-.6-.3-1.4-.8-2-.6-.7-2-1.2-9.2-3.1l-19-5.2c-10.4-2.8-10.6-2.8-11.7-2.3-.9.4-1.2.9-1.3 1.4 0 .8 0 .8-.3.1-.5-1.1-.4-2.6.2-2.6.2 0 .5.2.6.4.1.3.2.2.2-.2 0-.5.2-.5.8-.1.6.3.8.3 1 0 .2-.4.3-.4.4-.2.1.3 1.3.6 2.6.8l3.4.7 2.3.5a78.4 78.4 0 0 1 3.7.7 77.6 77.6 0 0 1 8.4 1.8 379.3 379.3 0 0 1 17.8 4.4 7 7 0 0 1 3.8 1.5c.5.5.7 1.3.7 2.5v1.8l.6-1.2c1.1-2.4 6.7-9.5 6.8-8.6l-7 34.3c-.5 2-1.2 4-2 5.3-5.9 10-5.6 9.6-7.3 9.7-1.2 0-1.2 0-1.6 2.2a14 14 0 0 1-.5 2.4l-2-.7zm-4.6-7.1c-.3-.2-.3-.4-.1-.4l.8.4c.3.2.4.3.2.3l-.9-.3zm-20-3.2-1.5-.6c-1-.4-1.4-1.6-1.4-4v-1.3l3.2 1.3c3.6 1.4 3.8 1.8 2 3.7-1 1.3-1.5 1.4-2.4 1zm-5.8-8.2c-.2-.4-.2-1.6-.2-2.6 0-1.6 0-1.6.3.7.3 2.6.2 3.3-.1 2zm19-7.6c-.1-.2 0-4.7.3-10l.5-11c0-1 .2-1.3.6-1.3.3 0 .5.2.5.4l-.5 10.2c-.3 5.4-.5 10-.4 10.4.2.2.6.6 1 .7.5.2.6.3.2.6-.6.3-2 .4-2.2 0zm-17.7-7.5c-.4-.6-1.3-15-1.1-17.8 0-2 0-2.1 1.1-2.2.8 0 1 0 .6.2a168.5 168.5 0 0 0 .7 18.7c.2 1.3.1 1.5-.4 1.5-.4 0-.8-.2-1-.4zm-2.5-2.8c0-1.3 0-1.8.1-1.2v2.3c0 .7-.1.1-.1-1.1zm-.4-4.8c0-1.3.1-1.8.2-1.1v2.5c-.1.6-.2 0-.2-1.4zm-.3-5.3c0-1.3 0-1.8.1-1.1v2.5l-.1-1.4zm-.4-4.9c0-1.2 0-1.6.2-1v2.1c-.1.6-.2 0-.2-1.1z" style="fill:#ac6834;stroke-width:.352778" transform="translate(-44.5 -173.2)"/>
  <path d="m87.7 244-2-.7v-2.8c0-2.2.2-2.8.5-2.8s.7.3.8.6c.3.4.4.4.4-.2 0-.5 0-.6.2-.2.4.9 1.3 1.4 1.9 1 .3 0 .7-.2.9-.1.2 0 .5-.6.8-1.4.6-2 1.5-7.9 1.3-8.6-.3-.8-.8-1-6.9-3.3l-4.7-1.7-.7.7c-1.1 1-2.3 1-5.9-.4-3.6-1.3-4.7-2-5.6-3.8-.7-1.3-1-1.4-5.4-3-6-2-6.3-2-6.3 1.3 0 3.5-.2 2.2-.5-2.7-.2-4.4-.2-4.6.4-3.5.6 1.3.2 1.1 10.4 4.7l15 5.4c5.6 2 9 3 9.5 3 .5-.2 1-.7 1.3-1.3.5-1 4.1-22.5 4.1-24.5a3 3 0 0 0-1-2c-.7-.7-2.5-1.3-11.1-3.7-5.7-1.5-10.4-2.9-10.6-3-.4-.4.4-.4 1.2 0l1.8.5a34 34 0 0 1 3.9.8c1.2.2 3 .6 3.3.8l1.4.2c.6 0 1.7.3 2.5.6s1.9.5 2.4.4c.5 0 1 .1 1 .3 0 .2 0 .3.2.2.3 0 3.8.7 6.1 1.3 1.5.4 1.6.6 1.8 1.8.3 1.3-1.2 12-3.4 25.7-.3 1.9-.5 3.5-.4 3.6a155.6 155.6 0 0 1 8.2-28.6c.3.2.4.4.2.5-.2.1-.2.5 0 .9.2.5.3.2.7-1.5a9 9 0 0 1 .6-2.4c.2 0 .2 1 .2 2.4 0 3.1-5.2 28.5-6.1 30.3a75.3 75.3 0 0 1-4.3 7.4l-.7.8.2-1.2c.8-5.7 1-7.4.8-7.6a123.9 123.9 0 0 1-1.3 6.1l-.7 4.1c0 1.1-.8 1.7-2.2 1.8-1.2 0-1.2 0-1.6 2.2a14 14 0 0 1-.5 2.4l-2-.7zm-4.6-7.1c-.3-.2-.3-.4-.1-.4l.8.4c.3.2.4.3.2.3l-.9-.3zm-20-3.2-1.5-.6c-1-.4-1.4-1.6-1.4-4v-1.3l3.2 1.3c3.6 1.4 3.8 1.8 2 3.7-1 1.3-1.5 1.4-2.4 1zm-5.8-8.2c-.2-.4-.2-1.6-.2-2.6 0-1.6 0-1.6.3.7.3 2.6.2 3.3-.1 2zm19-7.6c-.1-.2 0-4.7.3-10l.5-11c0-1 .2-1.3.6-1.3.3 0 .5.2.5.4l-.5 10.2c-.3 5.4-.5 10-.4 10.4.2.2.6.6 1 .7.5.2.6.3.2.6-.6.3-2 .4-2.2 0zm-17.7-7.5c-.3-.6-.8-7.9-1-14.5v-5.4l.8-.1c.6-.1.7 0 .6.3-.3.4.4 16.2.8 18.6.3 1.3.2 1.5-.3 1.5-.4 0-.8-.2-1-.4zM56 208c0-.8 0-1 .1-.6v1.4l-.1-.8zm-.4-5c0-.5 0-.7.2-.4v1.1c-.2.2-.2 0-.2-.6z" style="fill:#93572a;stroke-width:.352778" transform="translate(-44.5 -173.2)"/>
  <path d="m87.7 244-2-.7.2-2.6c0-1.4.2-2.7.3-2.7 0-.1.3 0 .6.3.5.3.6.3.6 0 0-.4.1-.3.4 0 .5.8 2 1.2 2 .6 0-.2.2-.2.4 0 .6.3 1.3-2 2-6 .6-4.4.5-4.9-1.7-5.7l-5.5-2-4-1.4-.8.7c-1.1 1-2.3 1-5.9-.4-3.7-1.3-4.7-2-5.6-3.8-.7-1.3-1-1.4-5.3-3-3.5-1.3-4.6-1.8-4.9-2.5l-.4-.8 3 1 14 5c15 5.3 16.3 5.7 17 5.5.3-.1.8-.7 1-1.3.8-1.4 4.2-23 4-24.8-.1-1.3-.1-1.4.4-.8 1.5 1.6 1.6 2.5.7 8.8l-1.5 10.4-1.4 8.8c-1.3 7-2 10.3-2.2 12-.2 1.3-.3 1.4-1.3 1.5-1 .1-1.1.2-1.5 2.3a14 14 0 0 1-.5 2.4l-2-.7zM63 233.8l-1.4-.6c-.7-.3-1-.8-1.2-1.5-.3-1.6-.3-3.6 0-3.6l3.2 1.2c3.4 1.3 3.5 1.7 1.9 3.6-1.2 1.3-1.6 1.4-2.5 1zM76.7 218c-.6-.1-.7-.4-.5-2.3l.6-11c.2-4.9.5-8.9.6-9 0 0 .3 0 .4.2.3.2.2 3.8-.1 10.3-.3 5.5-.5 10.1-.4 10.4.1.3.6.7 1 .9.8.3.8.3-.1.5h-1.5zm-18-7.7c-.3-.7-.9-9.5-1-15.2-.1-2.8 0-4.1.3-4.4.2-.2.5-.4.6-.3l.5 8.8.7 10.2c.3 1.3.2 1.5-.3 1.5a1 1 0 0 1-.9-.6z" style="fill:#605854;stroke-width:.352778" transform="translate(-44.5 -173.2)"/>
  <path d="m87.7 244-2-.7.2-2.6c0-1.4.2-2.7.3-2.7 0-.1.3 0 .6.3.5.3.6.3.6 0 0-.4.1-.3.4 0 .5.8 2 1.2 2 .6 0-.2.2-.2.4 0 .6.3 1.3-2 2-6 .3-2.6.4-4 .1-4.4-.2-.4-1.9-1.3-4.7-2.3-7.4-2.8-6.7-2.6-7.7-1.7-1 1-1.7 1-5.5-.5-4-1.5-4.9-2-5.7-3.7-.7-1.3-1-1.4-5.3-3-3.5-1.3-4.6-1.8-4.9-2.5l-.4-.8 3 1 14 5c15 5.3 16.3 5.7 17 5.5.3-.1.8-.7 1-1.3.8-1.4 4.2-23 4-24.8-.1-1.3-.1-1.4.4-.8 1.5 1.6 1.6 2.5.7 8.8l-1.5 10.4-1.4 8.8c-1.3 7-2 10.3-2.2 12-.2 1.3-.3 1.4-1.3 1.5-1 .1-1.1.2-1.5 2.3a14 14 0 0 1-.5 2.4l-2-.7zm-12.4-21c-1-.6-2.8-1-2.8-.8 0 .3 2.3 1.2 3 1.2.6 0 .6 0-.2-.4zM63 233.7l-1.4-.6c-.7-.3-1-.8-1.2-1.5-.3-1.6-.3-3.6 0-3.6 1 0 6.1 2.4 6.1 2.8 0 .7-2 3.3-2.5 3.2a2 2 0 0 1-1-.3zM76.7 218c-.6-.1-.7-.4-.5-2.3l.6-11c.2-4.9.5-8.9.6-9 .6-.6.6 1.6.2 8.5l-.4 10.5c0 2.3 0 2.6.7 2.8.7.3.7.3 0 .5h-1.2zm-18-7.7c-.6-1.4-1.3-18.7-.8-19.5.6-1 .9-.2.9 2.2 0 3 .6 14.6.9 16.5.1 1 0 1.4-.3 1.4s-.6-.3-.8-.6z" style="fill:#754a2b;stroke-width:.352778" transform="translate(-44.5 -173.2)"/>
  <path d="M90.8 239.4a36.9 36.9 0 0 0 1.9-9.7c0-1.7-.4-1.9-6.8-4.3l-5-1.9-.9.9c-1.1 1.1-1.7 1-5.7-.4-3.6-1.4-4.9-2.3-5.6-4-.4-1-1-1.2-3.8-2.2-2.2-.8-3.3-1.4-3.4-1.8-.1-.4-.5-.7-1-.7-.4 0-.6.2-.4.5.1.2 0 .3 0 .2-.4-.3-.6-1.4-.4-1.4l20.4 7.3c5.8 2 10.9 3.7 11.4 3.6 1.8-.2 2.1-1.2 4-12.8 1-6 1.7-11.6 1.8-12.5v-1.6l.4 1c.3.7.4 2 .3 3.6l-.2 4c0 .8 0 1.4-.3 1.4-.2 0-.2.5 0 1.1.1.9 0 1-.3.9a46.6 46.6 0 0 1-.8 6.8c-1.3 8-1.3 8.2-1.7 8.2-.2 0-.2.4 0 1 .1.5 0 .8-.2.6-.4-.2-.6 1.3-.8 4.7a17.9 17.9 0 0 1-.8 5.1c-.4 1.5-1.6 3-2.1 2.4zM75.3 223c-1-.6-2.8-1-2.8-.8 0 .3 2.3 1.2 3 1.2.6 0 .6 0-.2-.4zm2.7-.8c-.2-.3-.3-.4-.4-.3a2 2 0 0 1-.9-.4c-.4-.4-.6-.5-.6-.2s-.2.4-.5.1c-.2-.2-1-.4-1.6-.6-.6-.1-1.1-.3-1.1-.5l-1-.6c-.9-.3-1.1-.3-1.1 0 0 .2 1.5 1 3.4 1.7 4 1.5 4 1.5 3.8.8zm-8.5-3.1c-.1-.3-.4-.5-.6-.4-.2.2-.1.4.2.6.6.4.6.4.4-.2zm7-3c0-2.7.7-19.6.9-20.1 0-.3.2-.4.4-.2s.2 2.3 0 4.7l-.5 10.8a32 32 0 0 1-.5 6.5c-.2 0-.4-.7-.4-1.6zm-18.2-9.5-.4-9.2c-.2-5.8-.2-6.7.3-6.7.4 0 .5 1.1.7 6.7.1 3.8.4 7.8.5 9 .1 1.7 0 2.2-.3 2.3-.5.2-.6-.2-.8-2.1z" style="fill:#72421d;stroke-width:.352778" transform="translate(-44.5 -173.2)"/>
  <path d="M92.4 232.6c0-.4 0-.6.1-.4v.9l-.1-.5zm-17.7-8.4c-4-1.5-4.8-2-5.7-3.6-.6-1.2-.7-1.4-.2-1.3 2 .8 10.1 3.8 11 4l1 .4-.9.8c-1 1-2 .9-5.2-.3zm.6-1.2c-1-.6-2.8-1-2.8-.8 0 .3 2.3 1.2 3 1.2.6 0 .6 0-.2-.4zm17.7 2c0-.3 1-2.2 1.3-2.2l-.4 1.1c-.7 1.3-.9 1.6-.9 1.2zm1-3.7c0-.3.2-.7.4-.7s.2.4.1.7c0 .4-.2.8-.3.8l-.1-.8zm.7-3.3c0-1 .2-1.8.3-2 .3-.2 0 2.4-.2 3-.2.5-.3.1-.1-1zm-18.2-2.7.4-10.9c.3-6 .5-8.3.9-8.4.3 0 .4.2.2 1.2-.3 2.1-1 17-.8 18.8 0 1 0 1.6-.3 1.7-.4.1-.5-.5-.4-2.4zm19-2.4c0-.5.1-.7.2-.5v1c0 .2-.2 0-.2-.5zm-37-8.2L58 192c0-.7 0-1.3.3-1.3.3-.1.5 2 .6 6.6.1 3.8.4 7.8.5 9 .2 2 .1 2.2-.4 2.2s-.6-.5-.6-4z" style="fill:#3a4651;stroke-width:.352778" transform="translate(-44.5 -173.2)"/>
  <path d="M92.4 232.6c0-.4 0-.6.1-.4v.9l-.1-.5zm.6-7.5c0-.4 1-2.3 1.3-2.3l-.4 1.1c-.7 1.3-.9 1.6-.9 1.2zm1-3.8c0-.3.2-.7.4-.7s.2.4.1.7c0 .4-.2.8-.3.8l-.1-.8zm.7-3.3c0-1 .2-1.8.3-2 .3-.2 0 2.4-.2 3-.2.5-.3.1-.1-1zm-18.2-2.7.4-10.9c.3-6 .5-8.3.9-8.4.3 0 .4.2.2 1.2-.3 2.1-1 17-.8 18.8 0 1 0 1.6-.3 1.7-.4.1-.5-.5-.4-2.4zm19-2.4c0-.5.1-.7.2-.5v1c0 .2-.2 0-.2-.5zm-37-8.2L58 192c0-.7 0-1.3.3-1.3.3-.1.5 2 .6 6.6.1 3.8.4 7.8.5 9 .2 2 .1 2.2-.4 2.2s-.6-.5-.6-4z" style="fill:#653c1d;stroke-width:.352778" transform="translate(-44.5 -173.2)"/>
</svg>