<svg xmlns="http://www.w3.org/2000/svg" width="277.3" height="277.3" viewBox="0 0 73.4 73.4">
  <path d="M44.7 210.2v-36.7H118v73.4H44.7Z" style="fill:#fefefe;stroke-width:.352778" transform="translate(-44.5 -173.2)"/>
  <path d="M78 237.3a34 34 0 0 1-22.1-9.6c-4-4.5-6.3-12.2-5.9-20.7.4-7.7 4.8-13.5 13.3-17.5 11.8-5.6 28.5-5 39.4 1.3 3.5 2 7.1 6 8.7 9.2 1.5 3 2 4.7 2.3 8.8a18 18 0 0 1-1 7.4c-1.5 6-3 9-6.3 12.4-4 4-9.2 6.6-16 8-4.2.8-8.5 1-12.4.7zm-19.3-28c1-1 1-1.8 0-2.4-.5-.4-.8-.3-1.5.6-1.9 2-.5 3.7 1.5 1.8zm5.9-.7c1-1 1.2-1.8.3-2-1.2-.5-2.8 1.4-2 2.5.3.6.6.5 1.7-.5zm22-.8 1-.4-1.1-.4a19 19 0 0 0-8-.4c-3 .6-3.2.8-1.2 1.4 2 .4 8 .3 9.4-.2zm-25.5-8c.7-.5.7-.5-.3-.9-1-.3-1.8-.2-2.6.4-1.2 1 1.6 1.4 2.9.5zm8.8-9 .6-.2c.5 0 .3-.7-.2-.8-.7-.2-1.7.6-1.4 1 .2.4.6.4 1 0z" style="fill:#faeed3;stroke-width:.352778" transform="translate(-44.5 -173.2)"/>
  <path d="M74.9 237c-5-.8-10.7-3-14.6-5.6a23.3 23.3 0 0 1-9.4-14c-.7-3.4-1-11.2-.6-13.4a21 21 0 0 1 9.2-12.5 43.6 43.6 0 0 1 26.4-5.7c12.6 1.3 21.8 6.4 25.6 14.3 1.6 3.3 2 5.5 2.1 9.9 0 3.1-.1 4-1.2 7.6a42 42 0 0 1-2.6 6.5c-4.6 8.3-15.5 13.3-28.4 13.2-2.4 0-5.4-.2-6.5-.3zm16.7-19c0-.9-1.2-1.5-2.2-1.2-.7.2-.7.3-.3 1.2.6 1 2.5 1 2.5 0zm7.6-1.3c.8-.4.6-1-.4-2-1.2-.8-3.2-.8-3.8.2-.8 1.3 2.2 2.5 4.2 1.8zm-19-.9c.6-.6.6-1.6-.1-1.9-1.7-.6-5.4.3-5.4 1.4 0 1 4.2 1.5 5.4.5zm-21.2-6c1-1 1.1-2.7.3-3-1.4-.6-3.3 1.2-3.3 3 0 1 2 1 3 0zm6-1c1.7-1.8 0-3.5-1.9-1.8-.7.7-1 2.4-.5 3 .4.4 1.6-.2 2.5-1.1zm21.7-1 .8-.4-1-.4c-1.5-.7-8.5-.6-9.9 0l-1 .5 1.7.4c2 .5 8 .4 9.4-.1zm17.6-2c.4-.5.4-.8.1-1.2-.4-.7-2.4-1-3.1-.4-.6.5-.7 1.6 0 1.9.9.3 2.6.2 3-.4zm5.2-1.1c.1-.4-.2-1-.7-1.5-.9-.8-1-.9-1.5-.4s-.5.6.2 1.5c.8 1 1.7 1.2 2 .4zm-48-4.9c.5-.4.5-.5-.2-1-1.5-.7-4.1.3-3.7 1.4.3.7 3.1.4 4-.4zm32.1-1.3c.9-.8 1-1.2.5-1.6-1-.5-2.9 1.1-2.3 2 .3.5 1 .4 1.8-.4zm8.3.4c1.5-.4 2-1 1.3-1.5-.8-.4-2.4-.3-3.5.3-2.2 1.1-.6 2 2.2 1.2zm-31.5-3.3c.6-.8-.4-1.8-1.7-1.7-1.3 0-1.8.3-1.8.9 0 1 2.8 1.6 3.5.8zm30.5-3c0-.7-3-1-4-.4-1.4.7-.8 1 1.7 1 1.8-.1 2.3-.3 2.3-.7zm-29-.8c1-.5.8-1.7-.2-2.1-1.2-.6-3.8.1-3.7 1 .3 1.2 2.5 1.8 3.9 1.1zm11.7-2.6c.3-.3.6-.8.6-1 0-1.2-1.9-1.7-2.8-.9-.4.5-.5 1.8-.2 2.2.5.4 1.9.2 2.4-.3z" style="fill:#fdc9e5;stroke-width:.352778" transform="translate(-44.5 -173.2)"/>
  <path d="M74.9 237c-10.2-1.5-18.6-7-22-14.2a28.6 28.6 0 0 1-2.7-12.4c-.3-5.1 0-7 1.8-10.7a25 25 0 0 1 8-8.4c11-6.8 28.2-7.5 40.2-1.6 4 2 5.9 3.4 8.5 6.4 3.4 4 4.8 8 4.8 13.8 0 4.2-1.5 10-3.5 13.8-4.5 8.5-15.5 13.7-28.6 13.6-2.4 0-5.4-.2-6.5-.3zm16.7-19c0-.9-1.2-1.5-2.2-1.2-.7.2-.7.3-.3 1.2.6 1 2.5 1 2.5 0zm7.6-1.3c.8-.4.6-1-.4-2-1.2-.8-3.2-.8-3.8.2-.8 1.3 2.2 2.5 4.2 1.8zm-19-.9c.6-.6.6-1.6-.1-1.9-1.7-.6-5.4.3-5.4 1.4 0 1 4.2 1.5 5.4.5zm-13.5-.4c-.2-.2 0-.3.5-.1.5.1.9 0 1.3-.6.5-.8.6-.9 2-1 .7 0 .7 0 .2-.4a3 3 0 0 1-.8-1.4c0-.6-.4-1-.7-1a.7.7 0 0 1-.6-.4c-.2-.6-2.8-.7-3.3 0-.5.6-1.8.8-2.7.3-.5-.2-.6-.7-.6-1.6 0-1.3 0-1.3.3-.3.2 1 .4 1 1 1 1.1 0 2.5-1.6 2.5-2.6 0-.6-1.1-1.5-1.5-1.1 0 0-1-.5-2-1.3-2.6-2-5.2-2.5-6.5-1.1-1.8 1.7-2 2.5-1.4 4.8l.9 2.7c.4.7 1.1.6.8-.2-.2-.4 0-.6 1-.6 1.3 0 2.7-1.1 2.7-2.3 0-1 .4-1 1-.4.7.7.5 1.9-.4 3a4 4 0 0 0-1 1.4c0 .3-.2.3-.5.2-.4-.1-.5 0-.4.5 0 .5.5.7 1.5.7 1 .1 1.3.3 1.1.6-.1.4.2.5 1.4.5 1 0 1.6 0 1.7.4.1.2.4.3.6.2.2-.1.6 0 1 .1.8.5 1.2.5.9 0zm20.3-7.6c.8-.3.8-.4-1.2-1-2.5-.7-7.4-.6-9.4.3l-1.2.5 1.4.3 1.8.4c.6.2 7.7-.1 8.6-.5zm17.3-2c.4-.5.4-.8.1-1.2-.4-.7-2.4-1-3.1-.4-.6.5-.7 1.6 0 1.9.9.3 2.6.2 3-.4zm5.2-1.1c.1-.4-.2-1-.7-1.5-.9-.8-1-.9-1.5-.4s-.5.6.2 1.5c.8 1 1.7 1.2 2 .4zm-48-4.9c.5-.4.5-.5-.2-1-1.5-.7-4.1.3-3.7 1.4.3.7 3.1.4 4-.4zm32.1-1.3c.9-.8 1-1.2.5-1.6-1-.5-2.9 1.1-2.3 2 .3.5 1 .4 1.8-.4zm8.3.4c1.5-.4 2-1 1.3-1.5-.8-.4-2.4-.3-3.5.3-2.2 1.1-.6 2 2.2 1.2zm-8.3-3c-.1-.2 0-.6.2-.8.2-.3.3-.5.1-.7h-.5a6 6 0 0 1-.9 1c-.6.4-.6.4-.4-.3.2-.6.1-.8-.3-.8-.7 0-.9 1.1-.2 1.7.8.6 2.2.6 2 0zm-23.2-.3c.6-.8-.4-1.8-1.7-1.7-1.3 0-1.8.3-1.8.9 0 1 2.8 1.6 3.5.8zm21.2-1.7c.3-.2.1-.3-.4-.3s-1 .1-1.2.3c-.2.4.6.8.9.4l.7-.4zm-.3-1.3c-.3 0-.6 0-.8.2-.3.3-.2.3.4.2.5-.1.7-.3.4-.4zm9.6 0c0-.7-3-1-4-.4-1.4.7-.8 1 1.7 1 1.8-.1 2.3-.3 2.3-.7zm-29-.8c1-.5.8-1.7-.2-2.1-1.2-.6-3.8.1-3.7 1 .3 1.2 2.5 1.8 3.9 1.1zm11.7-2.6c.3-.3.6-.8.6-1 0-1.2-1.9-1.7-2.8-.9-.4.5-.5 1.8-.2 2.2.5.4 1.9.2 2.4-.3z" style="fill:#f7ccd3;stroke-width:.352778" transform="translate(-44.5 -173.2)"/>
  <path d="M75.9 237.1c-2.3-.3-7.5-1.6-9.8-2.6a24.8 24.8 0 0 1-9-6c-4.7-4.6-6.6-9.5-7-18.2-.3-7.2 1-10.9 5.7-15.5a32 32 0 0 1 18-8.4c4-.7 11.8-.7 15.8 0 12.7 2.2 21.2 8.8 23.3 18 1.3 5.5 0 13.8-2.9 19.3-4.5 8.5-15.5 13.7-28.6 13.6l-5.5-.2zm15.9-18.4c.6-1-1-2.2-2.5-1.9-.8.1-.8.3-.5 1l.8 1c.6.3 2 .3 2.2-.1zm7.1-1.7c1-.3 1-1.7 0-2.4-1.7-1.2-4.8-.3-3.9 1.2.7 1.1 2.3 1.6 4 1.2zm-18.5-1.4c.5-.6.6-.8.1-1.4-1-1.3-5.8-.5-5.8 1 0 1.3 4.4 1.7 5.7.4zm-13.7-.2c-.2-.2 0-.3.5-.1.5.1.9 0 1.3-.6.5-.8.6-.9 2-1 .7 0 .7 0 .2-.4a3 3 0 0 1-.8-1.4c0-.6-.4-1-.7-1a.7.7 0 0 1-.6-.4c-.2-.6-2.8-.7-3.3 0-.5.6-1.8.8-2.7.3-.8-.4-.6-.7.7-.8 1-.2 2.5-1.6 2.5-2.7 0-.6-1.1-1.5-1.5-1.1 0 0-1-.5-2-1.3-2.6-2-5.2-2.5-6.5-1.1-1.8 1.7-2 2.5-1.4 4.8l.9 2.7c.4.7.8.6.8-.2 0-.2.5-.4 1.1-.5 1.2-.1 2.6-1.3 2.6-2.2 0-.8.4-1.1 1-.6.7.6.5 1.9-.4 3a4 4 0 0 0-1 1.4c0 .3-.2.3-.5.2-.4-.1-.5 0-.4.5 0 .5.5.7 1.5.7 1 .1 1.3.3 1.1.6-.1.4.2.5 1.4.5 1 0 1.6 0 1.7.4.1.2.4.3.6.2.2-.1.6 0 1 .1.8.5 1.2.5.9 0zM86 208c1-.2 1.6-.5 1.5-.6-.6-.6-3.7-1.1-6-1.1s-6.4.9-6 1.3c.7.7 7.7 1 10.5.4zm18.4-2.5c.3-.4.2-.7-.3-1.3-.7-.9-1.5-1-2.5-.2-.9.6-1 1.8-.4 2 .9.4 2.9.1 3.2-.5zm5.2-1c0-.7-1.2-2-1.7-2-.2 0-.5.1-.7.4-.3.4-.3.7.3 1.4.9 1.1 2 1.3 2 .2zm-48-4.7c.5-.5.5-.6 0-1-.6-.4-3.4-.1-4 .4-.2.2-.2.6 0 1 .1.4.5.5 1.8.4.8-.1 1.8-.5 2.2-.8zm32-1.3c1-.9 1-1.7 0-1.7s-2 1-2 1.8c0 .9 1 .8 2 0zm8.6.3c1.8-.6 1.6-1.5-.4-1.6-1.2 0-1.8 0-2.5.6s-.7.8-.3 1c.7.5 1.6.5 3.2 0zm-8.6-2.9c-.1-.2 0-.6.2-.8.2-.3.3-.5.1-.7h-.5a6 6 0 0 1-.9 1c-.6.4-.6.4-.4-.3.2-.6.1-.8-.3-.8-.7 0-.9 1.1-.2 1.7.8.6 2.2.6 2 0zm-23.2 0 .2-.7c.4-.8-1.3-1.7-2.6-1.4-1.2.2-1.5 1.3-.5 1.9.6.3 3 .5 3 .2zm21.2-2c.3-.2.1-.3-.4-.3s-1 .1-1.2.3c-.2.4.6.8.9.4l.7-.4zm9.4-1.3c-.1-1-1.7-1.3-3.4-.7-3 1-2 1.7 1.9 1.4 1.3-.1 1.6-.2 1.5-.7zm-9.7 0c-.3 0-.6 0-.8.2-.3.3-.2.3.4.2.5-.1.7-.3.4-.4zm-19-1.2c1-1.4-1.3-2.5-3.4-1.7-1.1.4-1.2 1.2-.1 2 1 .7 3 .5 3.5-.3zm11.3-2.1c.8-.6.7-1.6-.3-2.3-.6-.4-.8-.4-1.5.1s-1 1.9-.6 2.4c.4.4 1.8.2 2.4-.2z" style="fill:#fdb7d8;stroke-width:.352778" transform="translate(-44.5 -173.2)"/>
  <path d="M75.9 237.1c-2.3-.3-7.5-1.6-9.8-2.6a24.8 24.8 0 0 1-9-6c-4.7-4.5-6.5-9.5-7-18-.2-4.9.2-7 1.8-10.4 3-6.2 9.4-10.6 18.9-13.1 2.6-.7 4.6-1 8.7-1 8.7-.4 14.8.8 21.3 4 2.7 1.3 3.8 2.1 6.3 4.6 3.5 3.5 5 6.1 5.8 10.1.7 3 .7 8.5.2 10l-.9 3.2c-.3 1.3-1.2 3.7-2 5.3-4.4 9-15.4 14.3-28.8 14h-5.5zm15.9-18.4c.6-1-1-2.2-2.5-1.9-.8.1-.8.3-.5 1l.8 1c.6.3 2 .3 2.2-.1zm7.1-1.7c1-.3 1-1.7 0-2.4-1.7-1.2-4.8-.3-3.9 1.2.7 1.1 2.3 1.6 4 1.2zm-29-1.4c.7-.3 1.4-.5 1.8-.5.4 0 .5-.2.4-.5-.2-.3-.3-1-.3-1.4 0-.5-.2-1-.5-1.4-.3-.2-.4-.6-.3-.7.2-.1 0-.2-.3-.2s-.9-.5-1.2-1c-.3-.7-.7-1.1-.9-1.1-.3 0-.2-.2 0-.5.3-.4.3-.6 0-.8-.4-.3-1 .2-.9.8.1.2 0 .5-.6.7-.4 0-1.1.6-1.7 1-1 1-2.7 1.1-3 .2-.1-.3 0-.4.2-.2 1 .6 3.2-1.3 3.3-3 0-.3.2-.6.3-.5.2 0 .3-.3.2-.8 0-.6-.2-.8-.6-.7-.5.1-.7 0-.7-.5 0-.3-.4-1-1-1.7-.8-1-1.2-1-2.7-1-2.5.2-4.4-.4-4.4-1.3 0-.5.1-.6.3-.2.3.3.8.4 2 .3 2.8-.3 3.6-2 1-2-1.1 0-1.2-.1-.8-.7.5-.5.4-.5 0-.3l-1.7 1.2c-.6.5-1.7 1-2.4 1.4-1.8.7-2.6 2.3-2.6 5 0 1.9.2 2.8.9 4a7 7 0 0 1 .8 2c-.1.3 2 2.4 3.6 3.5 1 .7 2.1 1 5.3 1.3 4.3.4 4.8.4 6.6-.4zM57 212c-.9-1-.7-1.5.4-1.5s2.5-1.2 2.5-2.2c0-1 1-.5 1 .5.2 1-1 2.6-2.4 3.3-.8.5-1 .5-1.5-.1zm23.5 3.5c.7-.7.7-.7-.1-1.4-.6-.7-1-.8-2.3-.6-2 .3-3.3 1-3.3 1.7 0 1.4 4.4 1.7 5.7.3zm6.8-7.7c.6-.3.6-.4.2-.6a19 19 0 0 0-10.3-.3l-2 .6 1.5.4c1.7.6 9.5.5 10.6 0zm17.2-2.3c.3-.4.2-.7-.3-1.3-.7-.9-1.5-1-2.5-.2-.9.6-1 1.8-.4 2 .9.4 2.9.1 3.2-.5zm5.2-1c0-.7-1.2-2-1.7-2-.2 0-.5.1-.7.4-.3.4-.3.7.3 1.4.9 1.1 2 1.3 2 .2zm-16-6 .9-1 1.1-.8c1.3-.7 1.5-1 .8-1.7-.2-.3-.7-1.1-.9-1.8-.5-1.5-1.9-2.2-4.7-2.2-.9 0-1.5-.2-1.4-.3.3-.5-.6-.3-1.1.3-.6.6-1.2.6-1.4 0 0-.2-.4.2-.7.8-.3.7-.4 1.4-.3 1.6l.3.9c0 .6 1.6 1.8 2 1.5l1.2.5 1.6 1c.4 0 .6.5.6.8v.9c0 .5 1.3.2 2-.4zm8.6.3c1.7-.6 1.6-1.5-.2-1.6-1.5-.1-3.3.5-3.3 1.2 0 .9 1.5 1 3.5.4zm-31.6-3.3c.5-1.3-.8-2.1-2.6-1.7-1.2.2-1.5 1.3-.5 1.9 1 .5 2.8.4 3-.2zm30.5-3c0-.9-2-1.3-3.8-.6-2.5 1-1.5 1.7 2.1 1.4 1.4-.1 1.7-.2 1.7-.8zm-28.8-1.1c1-1.4-1.3-2.5-3.4-1.7-1.1.4-1.2 1.2-.1 2 1 .7 3 .5 3.5-.3zm11.3-2.1c.8-.6.7-1.6-.3-2.3-.6-.4-.8-.4-1.5.1s-1 1.9-.6 2.4c.4.4 1.8.2 2.4-.2z" style="fill:#feabd3;stroke-width:.352778" transform="translate(-44.5 -173.2)"/>
  <path d="M75.9 237.1c-2.3-.3-7.5-1.6-9.8-2.6a24.8 24.8 0 0 1-9-6c-4.7-4.5-6.5-9.5-7-18-.2-4.9.2-7 1.8-10.4 3-6.1 9.3-10.5 18.9-13.1 3-.9 4-1 10.6-1 6.2 0 7.7.1 10.4.8 9.4 2.2 16 6.6 19.4 13.2a24 24 0 0 1 .7 19c-2.8 11.2-15 18.5-30.5 18.3l-5.5-.2zm15.9-18.4c.6-1-1-2.2-2.5-1.9-.8.1-.8.3-.5 1l.8 1c.6.3 2 .3 2.2-.1zm7.1-1.7c1-.3 1-1.7 0-2.4-1.7-1.2-4.8-.3-3.9 1.2.7 1.1 2.3 1.6 4 1.2zm-27.5-1a8 8 0 0 0 1.6-1.3c.4-.8.3-3.6-.2-4.4-.3-.3-.4-.9-.3-1.1.1-.4 0-.5-.3-.3s-.3 0-.2-.6c.2-.7 0-1-.8-1.4-1.1-.6-5-4.8-4.4-4.8l-.2-.5c-.2-.3-.3-.6-.2-.7.1-.1-.1-.5-.5-1-.5-.4-.7-.9-.5-1.2.2-.5 0-.6-.3-.3-.4.2-.4.2 0-.3.6-.8.3-2.1-.7-3.1-.6-.6-.8-.6-1.4-.3-.4.2-1 .3-1.2.2-.3-.1-.6 0-.7.1-.1.2-.4.3-.6.2-.2-.1-.3 0-.3.2s-.2.3-.4.1c-.2 0-.3 0-.2.1.1.5-1.2 1.8-2.2 2-1.2.4-3.5 2.6-4.4 4.3-.6 1-.7 2-.7 4 0 3.6 1 5.6 4 7.9 2.2 1.8 3.4 2.2 7.8 2.6 5 .6 5.9.5 7.3-.4zm-14.5-4.3c-.8-.8-.7-1.2.4-1.2s2.5-1.2 2.5-2.2c0-.6.1-.6.6-.2.8.7.6 1.6-.7 3-1.3 1.3-2 1.5-2.8.6zm5.7-1c-.5-.5-.3-.7.7-.8 1 0 2.5-1.5 2.5-2.4 0-.7.9-.4 1 .3.2 1-2 3-3 3-.6 0-1.1 0-1.2-.2zm-4.4-9.2c-.9-.4-.4-.8 1.1-1a5 5 0 0 0 2.2-.7c.6-.4.7-.4 1.5.2.6.5.7.8.4 1-.4.5-4.5.8-5.2.5zm22.2 14c.7-.7.7-.7-.1-1.4-.6-.7-1-.8-2.3-.6-2 .3-3.3 1-3.3 1.7 0 1.4 4.4 1.7 5.7.3zm4-7.1c3.6-.5 4.2-.8 2.4-1.4-2.5-.8-7.2-.8-9.5-.2-2.4.7-2.2 1 1 1.6 2.6.4 3 .4 6.1 0zm20-2.9c.3-.4.2-.7-.3-1.3-.7-.9-1.5-1-2.5-.2-.9.6-1 1.8-.4 2 .9.4 2.9.1 3.2-.5zm5.2-1c0-.7-1.2-2-1.7-2-.2 0-.5.1-.7.4-.3.4-.3.7.3 1.4.9 1.1 2 1.3 2 .2zm-16-6c.5-.4.8-.8.8-1 0-.2.5-.4 1-.4s1.3-.2 1.8-.5l.8-.6-1.1-1c-1.3-1.4-1.4-1.8-.1-1.7h2.6c1.5 0 1.7-.2 1.7-.7 0-1-2-1.4-3.5-.8-.9.3-1.3.3-2.1-.1a16 16 0 0 0-3.8-1 12 12 0 0 1-3.4-.7c-.4-.2-.6-.2-.6 0 0 .3-.4.5-.9.6-.5.2-.8.4-.8.6 0 .2-.1.3-.3.2-.2-.3-1 .4-1.2 1.2-.2.3 0 .8.4 1.2.4.3.7.9.7 1.2 0 .4.7.8 2.3 1.4 3 1 3.8 1.4 3.5 1.8v.7c.4.6 1.4.4 2.2-.4zm8.3.4c1.5-.4 2-1 1.4-1.5-.8-.8-4.6 0-4.6 1 0 .8 1.2 1 3.2.5zm-31.3-3.4c.5-1.3-1-2.2-2.8-1.8-1 .3-1.2 1.4-.3 2 1 .5 2.8.4 3-.2zm14.3-1.3c-.3-.3-.4-.3-.2.2.2.4.4.6.5.4 0 0 0-.4-.3-.6zm-12.6-2.8c1-1.4-1.3-2.5-3.4-1.7-1.1.4-1.2 1.2-.1 2 1 .7 3 .5 3.5-.3zm11.3-2.1c.8-.6.7-1.6-.3-2.3-.6-.4-.8-.4-1.5.1s-1 1.9-.6 2.4c.4.4 1.8.2 2.4-.2z" style="fill:#fda3c9;stroke-width:.352778" transform="translate(-44.5 -173.2)"/>
  <path d="M75.9 237.1c-2.3-.3-7.5-1.6-9.8-2.6A24.6 24.6 0 0 1 53 223a27 27 0 0 1-2.7-13.2c0-4.6 0-5.2.9-7.5A22 22 0 0 1 62.8 190c6-2.9 11.4-4 18.7-4 11 0 19.9 3 25.6 8.7 2.8 2.8 5.3 7 5.4 9.1a20.3 20.3 0 0 1 .8 5.2c.2 2.6.1 4-.3 5.6l-1 4.4c-2.8 11.2-15 18.5-30.5 18.3l-5.5-.2zm15.9-18.4c.6-1-1-2.2-2.5-1.9-.8.1-.8.3-.5 1l.8 1c.6.3 2 .3 2.2-.1zm-20-1.7c.6-.1 1.2-.6 1.6-1.2.6-1.1 1.3-1.4 1.3-.5 0 .7 2.6 1.4 4 1 .6 0 1.4-.4 1.7-.8.5-.5.5-.7 0-1.4-.3-.6-.9-.8-2-.8-1.2 0-1.3 0-.6-.3.4-.2 1-.2 1.2-.1.2.1.3 0 .1-.1-.2-.4 1.3-.4 5.4 0 2.3.3 4.1-.3 4.9-1.5l1.8-2.2L93 207c.3-.7.6-.9 1.3-.7 1.2.2 2-.5 1.4-1.3-.2-.4-.5-.6-.7-.5-.2.2-.2 0 0-.2 0-.2.3-.3.5-.2.2.1.3 0 .3-.3 0-.4.2-.5.4-.4.2.1.3-.1.2-.7-.1-.5 0-.8.2-.7.1.1.2.4.1.5 0 .2 0 .4.2.5.5.4 0-2-.7-2.7-.3-.4-.3-.6-.1-.5.3.2.5 0 .7-.3 0-.3.4-.5.7-.5.2 0 .4-.2.4-.4s.4 0 1 .2c.9.7 3 .5 4.2-.3.5-.4.6-.6.2-1-.5-.6-2.9-.5-4 .1-.8.5-1 .4-.8-.2.2-.4 0-.5-.4-.3-.5.1-.5 0 .1-.3 1-.6.7-1.1-1-2-1.5-.8-1.8-1.5-.4-1.4h2.6c1.5 0 1.7-.2 1.7-.7 0-.8-1.8-1.3-3.4-1-.6.2-1.3 0-2.1-.5-.7-.4-1.5-.6-1.8-.5-.6.2-3.8-.4-5.2-1-1.1-.6-1.2-.6-1.9 0-1.1 1-2.7 2-3 2-.2-.1-.6.1-1 .5-.5.4-.6.4-.5 0 .2-.3-.2-.6-1.1-1-3.1-1.4-7.5-.5-6.1 1.2.2.3.3.6.2.7-.1 0 0 .4.4.6.3.3.5.3.4.1-.2-.2-.1-.5 0-.6.3-.1.4 0 .4.1 0 .2.4.2 1 0 1-.2 1-.2.9.3-.2.4 0 .5.3.4.2-.1.4-.4.4-.6-.1-.6 0-.5.6.2.3.3.3.5.1.3-.2 0-.5 0-.5.3-.2.3.2.4 1.5.3 1.4 0 1.7 0 1.8.5 0 .4 0 .5.2.2.1-.4.2-.4.7 0 .4.3.5.3.3 0-.1-.3.3 0 1 .4a6 6 0 0 0 1.7 1c.2 0 .7.2 1 .5.5.4.7.5.7.1 0-.2.4 0 .9.5s1 .8 1.2.7c.2 0 .3 0 .3.3 0 .8 2.3.7 3.1 0l.9-1.2c.2-.5 1.7.3 1.7 1 0 .6-1.5 1.8-3 2.3-1 .3-1.2.5-1 .8.6.6.4 2.8-.2 3.6-.3.4-1.2 1.1-2 1.6-1.4 1-1.4 1-3 .4-.9-.3-3-.6-4.8-.7-2.5-.1-3.5 0-5.2.6l-2.2.7-2.2-1a9 9 0 0 1-3.4-2.8c-1.2-1.5-1.3-1.8-1.1-3.7.1-1.7 0-2-.4-1.9-.3.2-.4 0-.2-.1a2 2 0 0 0-.8-1.4c-.8-.9-.9-1.1-.5-1.8s.5-.7.6-.3c.3.8 1.2 1.4 2.4 1.4s1.8-.8 1.4-1.5c-.2-.3 0-.3.6-.2.6 0 .9 0 .8-.1-.1-.2-.4-.3-.7-.3-.3 0-1.4-.4-2.5-1-3.3-1.4-6.7-.8-10.4 2a16.6 16.6 0 0 0-6.2 7.3c-1 3.3-.2 8 1.6 10.7 1.5 2.3 4.2 3.3 9.4 3.7 1.7 0 3.2.3 3.3.4.2.2 4 .2 5.2 0zm4.2-3.5h.7c.1.1-.1.2-.5.2s-.5-.1-.2-.2zm-19.3-2c-.6-.7-.5-1 .6-1s2.5-1.2 2.5-2.2c0-.6.1-.6.6-.2.8.6.6 1.5-.6 2.7-1.1 1.2-2.3 1.5-3 .7zm5.9-.9c-.5-.4-.3-.6.7-.7 1 0 2.5-1.5 2.5-2.4 0-.3.2-.4.4-.3.6.4.4 1.4-.7 2.5-1 1.1-2.4 1.5-3 1zm-4.3-9.4c-.7-.5-.7-.5.5-.5a6 6 0 0 0 2.3-.6c.9-.5 1-.5 1.5 0 .8.8.2 1.2-1.9 1.5-1.3.1-2 0-2.4-.4zm22-7.6c0-.2.2-.4.4-.4s.3.2.3.4-.1.4-.3.4a.4.4 0 0 1-.4-.4zM99 217c1-.3 1-1.7 0-2.4-1.7-1.2-4.8-.3-3.9 1.2.7 1.1 2.3 1.6 4 1.2zm5.5-11.5c.3-.4.2-.7-.3-1.3-.7-.9-1.5-1-2.5-.2-.9.6-1 1.8-.4 2 .9.4 2.9.1 3.2-.5zm5.2-1c0-.7-1.2-2-1.7-2-.2 0-.5.1-.7.4-.3.4-.3.7.3 1.4.9 1.1 2 1.3 2 .2zm-31.3-9.8c.1-.1 0-.3-.3-.3s-.4.2-.3.3l.3.3.3-.3zm-6-3.3c1-1.4-1.3-2.5-3.4-1.7-1.1.4-1.2 1.2-.1 2 1 .7 3 .5 3.5-.3zm11.3-2.1c.8-.6.7-1.6-.3-2.3-.6-.4-.8-.4-1.5.1s-1 1.9-.6 2.4c.4.4 1.8.2 2.4-.2z" style="fill:#e4cdb2;stroke-width:.352778" transform="translate(-44.5 -173.2)"/>
  <path d="M75.6 237a38 38 0 0 1-17.6-7.4 26 26 0 0 1-5.8-8.3 33.5 33.5 0 0 1-2-11.9c0-4.3 0-4.9.9-7.2A22 22 0 0 1 62.8 190c6-2.9 11.4-4 18.7-4 11 0 19.9 3 25.6 8.7 2.8 2.8 5.3 7 5.4 9.1 0 .6.2 1.2.4 1.4l.4 3.9a18 18 0 0 1-.9 7.7c-1.2 4.8-2.2 7-4.3 9.9A31.9 31.9 0 0 1 87.5 237c-2.9.4-9 .4-12 0zm16.8-17.7c.5-.8-.6-2.4-2-3-2-.6-2.7 1.7-1 3 1.1.9 2.5.8 3 0zm7-2.2c.7-1 .2-2.1-1.2-2.8-1.3-.6-1.6-.7-2.9-.2-1.7.6-2 1.4-.7 2.6.7.7 1.2.9 2.6.9 1 0 1.9-.2 2.1-.5zm-27.7 0c.7-.2 1.3-.7 1.7-1.3.7-1.2 1.3-1.3 1.3-.3 0 1.2 2.4 1.7 5 1 1-.3 1.3-.5 1.3-1.1 0-1.2-1-2-2.6-2-1.3 0-1.3-.1-.6-.4.4-.2 1-.2 1.2-.1.2.1.3 0 .1-.1-.2-.4 1.3-.4 5.4 0 2.3.3 4.1-.3 4.9-1.5l1.8-2.2L93 207c.3-.7.6-.9 1.3-.7 1.2.2 2-.5 1.4-1.3-.2-.4-.5-.6-.7-.5-.2.2-.2 0 0-.2 0-.2.3-.3.5-.2.2.1.3 0 .3-.3 0-.4.2-.5.4-.4.2.1.3-.1.2-.7-.1-.5 0-.8.2-.7.1.1.2.4.1.5 0 .2 0 .4.2.5.5.4 0-2-.7-2.7-.3-.4-.3-.6-.1-.5.3.2.5 0 .7-.3 0-.3.4-.5.6-.5.3 0 .6-.2.7-.5 0-.2.2 0 .4.4.2.6.5.8 1.5.8 3.6 0 4.7-.7 3.4-2.1-.6-.7-2.9-.6-4.1 0-.8.5-1 .4-.8-.2.2-.4 0-.5-.4-.3-.5.1-.5 0 .1-.3 1-.6.7-1.1-1-2-1.9-1-1.6-1.3 1.2-1.3 2.4 0 2.6 0 2.7-.8 0-.6-.2-.8-1.2-1h-2.2c-.6.2-1.3 0-2.1-.5-.7-.4-1.5-.6-1.8-.5-.6.2-3.8-.4-5.2-1-1.1-.6-1.2-.6-1.9 0-1.1 1-2.7 2-3 2-.2-.1-.6.1-1 .5-.5.4-.6.4-.5 0 .2-.3-.2-.6-1.1-1-3.1-1.4-7.5-.5-6.1 1.2.2.3.3.6.2.7-.1 0 0 .4.4.6.3.3.5.3.4.1-.2-.2-.1-.5 0-.6.3-.1.4 0 .4.1 0 .2.4.2 1 0 1-.2 1-.2.9.3-.2.4 0 .5.3.4.2-.1.4-.4.4-.6-.1-.6 0-.5.6.2.3.3.3.5.1.3-.2 0-.5 0-.5.3-.2.3.2.4 1.5.3 1.4 0 1.7 0 1.8.5 0 .4 0 .5.2.2.1-.4.2-.4.7 0 .4.3.5.3.3 0-.1-.3.3 0 1 .4a6 6 0 0 0 1.7 1c.2 0 .7.2 1 .5.5.4.7.5.7.1 0-.2.4 0 .9.5s1 .8 1.2.7c.2 0 .3.1.3.4 0 .4.2.5.6.4.3-.1.5 0 .5.2 0 .5 1.5.3 2.3-.3.5-.4.9-1 1-1.3 0-.5.1-.6.8 0 1 .7.4 1.5-2 2.6-1 .6-1.7 1-1.4 1.2.5.4.3 2.8-.3 3.6a12 12 0 0 1-2 1.6l-1.4 1-2.1-.8c-2.7-.9-8.5-.8-10.4.2-1.2.6-1.3.6-3.5-.5a9.3 9.3 0 0 1-3.4-2.7c-1.2-1.5-1.3-1.8-1.1-3.7.1-1.7 0-2-.4-1.9-.3.2-.4 0-.2-.1a2 2 0 0 0-.8-1.4c-.8-.9-.9-1.1-.5-1.8l.5-.9.2 1c.2.6.5.9 1.5 1.1 1.7.4 2.5 0 2.3-1-.2-.9 0-1 .6-.8.5 0 .8 0 .7-.1-.1-.2-.4-.3-.7-.3-.3 0-1.4-.4-2.5-1-3.3-1.4-6.7-.8-10.4 2a16.6 16.6 0 0 0-6.2 7.3c-1 3.3-.2 8 1.6 10.7 1.5 2.3 4.2 3.3 9.4 3.7 1.7 0 3.2.3 3.3.4.2.2 4 .2 5.2 0zm4.3-3.6h.7c.1.1-.1.2-.5.2s-.5-.1-.2-.2zm-19.3-2c-.4-.5-.3-.6.7-.6 1.1 0 2.8-1.4 2.8-2.4 0-.3.2-.4.4-.3.6.4.3 1.5-.8 2.6-1.2 1.2-2.4 1.5-3.1.6zm5.8-1v-.3l1.4-.1c.8-.2 1.3-.6 1.7-1.5.7-1.4 1-1.6 1-.6s-2 2.9-3 2.9c-.5 0-1-.2-1.1-.4zm-4.2-9.2c-.5-.4-.4-.5 1-.6 1 0 2-.3 2.3-.6.6-.5.7-.5 1 0 .7.8.2 1.2-1.9 1.5-1.2.1-2 0-2.4-.3zm22-7.7c0-.2.2-.4.4-.4s.3.2.3.4-.1.4-.3.4a.4.4 0 0 1-.4-.4zm24.2 12.5c.6-.8.6-1-.2-1.8-1-1-1.3-1-2.6-.4-.8.3-1.6 1.6-1.6 2.4 0 .2.6.4 1.5.4l1.9.2c.2 0 .7-.3 1-.8zm5-.9c.7-1.3-1.4-3.4-2.5-2.4-.9.6-.7 2 .2 2.4 1.1.5 2 .5 2.2 0zm-31.2-10.5c.1-.1 0-.3-.3-.3s-.4.2-.3.3l.3.3.3-.3zm-6.1-2.9c.9-.8.9-1.1 0-1.9-.5-.5-1-.6-2.2-.4-1.8.2-2.2.6-2 1.8.3.8.8 1 2.9 1.2.3 0 1-.3 1.3-.7zm11.8-2.4c1.2-1.4-.7-3.4-2.2-2.3-.8.5-1 2.2-.6 2.7.5.5 2.2.2 2.8-.4z" style="fill:#fd9bc3;stroke-width:.352778" transform="translate(-44.5 -173.2)"/>
  <path d="M75.6 237A32.4 32.4 0 0 1 55 226.4c-3.1-4.3-4.3-8-4.8-15.1-.3-4.3-.3-5.3.2-7.3.9-3.4 1.2-3.6 1-.6a19 19 0 0 0 3.7 12.4c1 1.1 1.7 1.3 6.7 1.4 2.6.1 3.8.3 3.9.6 0 .3.2.3.4.1.1-.2 1-.3 2.6 0 4.6.5 5.1.4 5.4-1.7.2-1.5.5-2 .5-.9 0 1.3 2.3 1.9 5 1.1 1-.3 1.3-.5 1.3-1.2 0-.4-.2-1-.4-1.2-.3-.3.3 0 1.3.7 1 .6 2 1.2 2.3 1.2.7 0 1.8-.5 1.6-.8-.2-.3 2.8-1.4 4.9-1.7 1.3-.2 2.7-1.2 2.7-2a5 5 0 0 1 1-2 7 7 0 0 0 1-2.1c0-.3.7-.8 1.4-1.2.8-.3 2.1-1.3 3-2.1l1.7-1.6-.8-.7c-.7-.7-1.1-1-1.8-.8-.5 0-1-1.4-.6-2 .3-.6.3-.6.3 0 0 .7 1.5.8 4 .4 1.4-.3 1.8-1 .9-1.9-.4-.3-.3-.3.5 0l1 .3-.6-1.1c-1-1.8-1.5-2.2-2.9-2-3.5.3-5.7-.1-5.7-1 0-.2 1.2-.3 2.6-.3 2.5 0 2.5 0 2.5-.8s-.1-1-1.4-1a6 6 0 0 1-2.4-1c-.6-.3-1-.5-.8-.2.2.2 0 .3-.3.2l-.5-.5c0-.2-.7-.4-1.5-.5l-4.2-.8-2.6-.5-1 1.2c-1.6 1.7-3 2-4.6 1.2a7 7 0 0 1-2-1.2c-.4-.3-1.3-.5-2.7-.4-2.6 0-4 .5-3.4 1 .7.7.5 2-.3 2.6-1 1-3.5.9-5-.2-1.5-1-1.8-1.6-1.1-2.3.7-.7.9-.6.9.3 0 1.2.4 1.6 2 1.8 1.2.3 1.6.2 2.2-.4l.7-1c0-1-3-2.2-3.4-1.5 0 .1-.8.2-1.7 0-2-.1-5.3 1-7.6 2.4-2.1 1.3-2.8 1.6-2 1 2.6-2.1 7.9-4.6 12.5-5.8a53.8 53.8 0 0 1 18.5-.6c6.2 1 12.2 3.4 15.8 6.4 2.7 2.2 5.2 5.8 5.9 8.3l.8 2.8c.4.7.7 3.2 1 7.8.4 9.7-4.4 17.4-13.9 22a42.6 42.6 0 0 1-23.2 3.3zm16.8-17.7c.5-.8-.6-2.4-2-3-2-.6-2.7 1.7-1 3 1.1.9 2.5.8 3 0zm7-2.2c.7-1 .2-2.1-1.2-2.8-1.3-.6-1.6-.7-2.9-.2-1.7.6-2 1.4-.7 2.6.7.7 1.2.9 2.6.9 1 0 1.9-.2 2.1-.5zm5.1-11c.6-.8.6-1-.2-1.8-.9-.9-2.4-1-3-.3 0 .2-.2.1-.2-.2 0-.5-1 2-1 2.6a62 62 0 0 1 3.4.6c.2 0 .7-.4 1-.9zm5-.9c.7-1.3-1.4-3.4-2.5-2.4-.9.6-.7 2 .2 2.4 1.1.5 2 .5 2.2 0zM84 189.4c1.2-1.4-.7-3.4-2.2-2.3-.8.5-1 2.2-.6 2.7.5.5 2.2.2 2.8-.4zm-27.3 22c-.4-.4-.3-.5.7-.5 1.1 0 2.8-1.4 2.8-2.4 0-.3.2-.4.4-.3.6.4.3 1.5-.8 2.6-1.2 1.2-2.4 1.5-3.1.6zm5.8-.9v-.3l1.4-.1c.8-.2 1.3-.6 1.7-1.5.7-1.4 1-1.6 1-.6s-2 2.9-3 2.9c-.5 0-1-.2-1.1-.4zm11-3.7a10 10 0 0 1-4-3.9c-.5-1.3-.4-3.6.3-4 .5-.4.6-.3-1.6-1.5-2-1.2-2.1-1.4-1.7-2.4l.4-.9v.8c0 1.5 3.4 2.2 3.8.8.2-.8.9-.9 1.5-.2.3.4 1 .5 3 .4a33 33 0 0 1 7.7 0c.2.2.6.3 1 .4 1.3.2 2.2.5 2.7 1 .3.2.8.4 1 .3.3-.1.5 0 .5.2s.6.8 1.3 1.3c.7.4 1.2.8 1 .8-.2 0 0 .4.5.7.5.5.8 1.3 1 2.3.1 1.2 0 1.7-.8 2.6-1.4 1.7-2.6 2-4.8 1.4a20 20 0 0 0-9.4 0c-2 .6-2.2.6-3.5-.1zm-15.2-5.5c-.5-.4-.4-.5 1-.6a5 5 0 0 0 2.2-.5c.6-.5 1.5.2 1 .8-.6.6-3.5.8-4.2.3zm33.5-1.2c-.1-.3 0-.5.5-.5 1.1 0 2.5-1 2.5-1.9 0-.7 0-.7.5-.1.8.7.5 1.5-1 2.3-1.3.9-2.2 1-2.5.2zm9.3-3.2h.6c.1.1 0 .2-.4.2s-.5-.1-.2-.2z" style="fill:#f6a8b8;stroke-width:.352778" transform="translate(-44.5 -173.2)"/>
  <path d="M75.6 237A32.4 32.4 0 0 1 55 226.4a25.2 25.2 0 0 1-4.8-15c-.3-4.5 0-7.6.9-9.6.4-1 .5-.9.3 1.6a19 19 0 0 0 3.7 12.4c1 1.1 1.7 1.3 6.7 1.4 2.6.1 3.8.3 3.9.6 0 .3.2.3.4.1.1-.2 1-.3 2.6 0l3.5.3c1 0 2.1-1 1.8-1.4-.4-.7.3-1 1.2-.5 1.1.6 2.6.6 4.4.1 1.2-.3 1.5-.8 1.4-1.8-.1-.5.3-.3 1.4.5a5 5 0 0 0 1.7.8c.7 0 1.8-.5 1.6-.8-.2-.3 2.8-1.4 4.9-1.7 1.3-.2 2.7-1.2 2.7-2a5 5 0 0 1 1-2 7 7 0 0 0 1-2.1c0-.3.7-.8 1.4-1.2.8-.3 2.1-1.3 3-2.1l1.7-1.6-.8-.7a4 4 0 0 0-1-.8l-.7-.1c-.4 0-1-1-1-1.3 0-.1 1.3-.2 3-.2h3v-1c0-.7 0-1 .4-.8.4.1.4 0 0-1-1.2-2-1.5-2.2-4-1.8-1.8.3-4.2-.2-4.2-.9 0-.2 1-.3 2.4-.3 2 0 2.5-.1 2.7-.6.3-.9-.5-1.5-1.8-1.5-.7 0-1.7-.4-2.4-.8-.6-.4-1-.6-.8-.3.2.2 0 .3-.3.2l-.5-.5c0-.2-.7-.4-1.5-.5l-4.2-.8-2.6-.5-1 1.2c-1.6 1.7-3 2-4.6 1.2a7 7 0 0 1-2-1.2c-.4-.3-1.3-.5-2.7-.4-2.6 0-4 .5-3.4 1 .7.7.5 2-.3 2.6-1 1-3.5.9-5-.2-1.5-1-1.8-1.6-1.1-2.3.6-.6.8-.6.6.1-.2 1 .7 1.8 2.3 2 1.2.3 1.6.2 2.2-.4 1.3-1.4.5-2.7-1.7-2.6h-3a22 22 0 0 0-9 3.4l-1 .6 1-.7a48 48 0 0 1 11.4-5.3c12.6-3.2 27.4-.9 35.1 5.5 2.7 2.2 5.2 5.8 5.9 8.3l.8 2.8a47 47 0 0 1 .6 13.4c-2 10.4-11.2 17.7-24.8 19.7-2.9.4-9 .4-12 0zm16.7-17.5c.6-.6.2-1.7-1-2.6-1.1-1-2.4-1-2.9 0s-.5 1 .8 2.1c1.2 1.1 2.4 1.4 3 .5zm7.3-2.8c.6-1 .6-1-.5-2a3.7 3.7 0 0 0-4.3-.5c-1.2.6-1.3 1.4-.2 2.5.7.7 1.2.9 2.6.9 1.5 0 1.9-.1 2.4-1zm5-10.6c.4-.7.4-1-.1-1.8-.5-.7-.8-.9-2-.8-1.2.1-1.7.3-2 1-.8 1.6-.6 2.1 1 2.2l2.1.2c.3 0 .8-.3 1-.8zm5-1.5c0-1.1-1-2.2-2.1-2.1-.7 0-1 .3-1 1.2-.1 1 0 1.3.7 1.5 1.3.6 2.2.3 2.3-.6zm-25.7-15.1c.9-.8.8-1.8-.3-2.5-.7-.4-1-.5-1.7-.2-.9.4-1.5 1.8-1.1 2.7.3.8 2.3.7 3.1 0zm-27 22c-.7-.6-.7-.6.4-.6s2.9-1.4 2.9-2.2c0-.2.2-.2.3-.1.5.3.1 1.2-1 2.4-1 1-1.7 1.2-2.7.4zm6.1-.9c0-.2.5-.4 1-.5.8-.2 1.2-.6 1.7-1.6s.7-1.2.8-.7c0 .4-.3 1.1-.9 1.7-1 1-2.6 1.7-2.6 1.1zm10.4-3.8a10 10 0 0 1-3.9-3.9c-.5-1.3-.4-3.6.3-4 .3-.3.3-.5 0-.6-.2 0-1-.6-2-1.2-1.5-1-2-1.7-1.3-1.7.2 0 .4.1.4.3 0 .2.7.4 1.6.6 1.5.2 1.7.1 2.3-.6.6-.8.7-.8 1.3-.3.5.5 1.1.6 3 .5a33 33 0 0 1 7.8 0c.2.2.6.3 1 .4 1.3.2 2.2.5 2.7 1 .3.2.8.4 1 .3.3-.1.5 0 .5.2s.6.8 1.3 1.3c.7.4 1.2.8 1 .8-.2 0 0 .4.5.7 1 1 1.3 3.3.6 4.4a7 7 0 0 1-1.8 1.7c-1.3.7-1.4.7-3.4.2a20 20 0 0 0-9.4 0c-2 .6-2.2.6-3.5-.1zm-15-5.4c-.3-.3-.1-.4 1-.6.7 0 1.7-.3 2.1-.5.9-.3 1.5.2 1 .7-.6.5-3.5.8-4 .4zm33.5-1.3c0-.3.3-.5.6-.5.8 0 2.3-1 2.3-1.7 0-.2.2-.4.4-.3.8.2.5 1.4-.7 2.2-1.4 1-2.6 1.1-2.6.3z" style="fill:#fb94ba;stroke-width:.352778" transform="translate(-44.5 -173.2)"/>
  <path d="M75.6 237A32.4 32.4 0 0 1 55 226.4a25.7 25.7 0 0 1-4-8.2 53.6 53.6 0 0 1-.9-11.4c.1-.4.6.7 1.2 2.4A18 18 0 0 0 56 217c1.2 1 1.4 1 4.1 1 1 0 4 .2 6.8.6 5.7.8 8.8 1 10.2.3l1-.4-.9-.1c-.8-.2-2.4-1.4-2.4-2l.9.1c2 .8 5.2.1 5.5-1.1.2-.8.3-.8.9-.2.5.6.5.7 0 1.6-.8 1.4-.8 2.1-.1 1.5.3-.2.5-.4.5-.2a35 35 0 0 0 6.3-2.3c.5-.2 1-.3 1.1-.1.2 0 .4 0 .4-.2s.3-.2.7-.1c.3 0 .7 0 .9-.3 0-.2.5-.3.9-.3s.7-.2.7-.3c0-.2.2-.3.5-.3.4 0 .4 0 .2.3-.6.6-.5 1.3.5 2.2.7.7 1.2.9 2.6.9 1.5 0 1.9-.1 2.4-1 .6-.9.6-.9-.5-1.9-.7-.5-1.5-1-2-1h-.7l.8-.9c1-1 .7-1.2-.2-.3-.6.6-1.2.7-1.2.1 0-.2.2-.3.3-.2.2.2.6 0 .8-.3.2-.3.6-.5.7-.5.4 0 2.1-1.6 2.1-2 0-.2-.2 0-.3.2-.3.4-.4.4-.4 0 0-.2-.2-.3-.4-.1-.3.2-.3 0-.2-.3v-.6c-.8.1-1-.1-1-.8 0-.5.2-.8.4-.8s.8-.5 1.3-1c.9-1 1-1.1 1-.3 0 .6.2.8 1 .8.5 0 1.5 0 2 .2.9.1 1.1 0 1.5-.7.4-.8.4-1-.3-2.1-.4-.7-.6-1.3-.5-1.4.3-.3-.2-1.6-.7-1.6-2.4-.3-4.2-.7-4.4-1-.1-.5 1-.6 4.4-.6.6 0 .8-.3.8-.7 0-.6.2-.7 1-.5l2.3-.1c.9-.2 1.7-.2 1.9 0 .4.4 1.3 4.2 1 4.5l.6 1.2c.7 1 .7 1.4.5 4v3c.2 0 .3 1 .2 2.3-.1 2.6.1 4.2.7 3.8.9-.5-1 5-2.7 7.7-3.9 6.4-11.9 10.9-21.9 12.3-2.9.4-9 .4-12 0zm16.7-17.5c.7-.8-.1-2.2-1.7-3-1-.7-1-.7-1.8 0-1 1-1 1.3.4 2.5 1.2 1.2 2.4 1.4 3.1.5zm17.3-14.6c.5-1-.8-2.6-2-2.4-.8 0-1 .3-1.1 1.2-.1 1 0 1.3.7 1.5 1.3.5 2 .4 2.4-.3zm-52.8 6.5c-.6-.5-.6-.5.5-.5s2.9-1.4 2.9-2.2c0-.2.2-.2.3-.1.5.3.1 1.2-1 2.4-1 1-1.7 1.2-2.7.4zm6.2-.8c0-.2.5-.4 1-.5.7-.2 1.2-.6 1.5-1.3.3-.6.6-1 .8-1 .5 0 .2.6-.7 1.6-1 1-2.6 1.8-2.6 1.2zm10.8-3.8c-3.4-1.8-5-5.5-3.1-7.4l.6-1.2c.1-.5 0-.6-.5-.5-.9.3-3-.5-3.6-1.2-.4-.4-.2-.5 1.3-.2 1.4.2 1.8.1 2.2-.4.5-.7.5-.7 1 0 .3.3.5 1 .5 1.4 0 .4.1.5.3.3.7-1 9.4-1.7 10.5-.8l.6.4c0-.3 3 .8 4 1.5 2.1 1.5 3.3 2.8 3.7 4.1.5 1.9.2 2.6-1.5 3.7l-1.4 1-2-.6c-2.6-.7-7.2-.8-9.5 0-2 .6-1.8.6-3.1-.1zm-15.2-5.4c-.6-.3-.5-.3.7-.5l2.2-.6c.8-.3 1.5.2 1 .7-.5.5-3.1.7-3.9.4zm33.8-1c-.6-.2-.6-.8 0-.8.9 0 2.4-1 2.4-1.6 0-.7.6-.7 1 0 .3 1-2.2 2.8-3.4 2.4zm4.2-6c-1.1-.4-.2-.8 2-.8 1.8 0 2.5-.1 2.6-.5.2-.5 1.7-.4 1.7.2 0 1-4.7 1.8-6.3 1.1zM69.1 193c-1.4-.6-1.2-1 .4-.6 1.8.3 2.9 0 3.2-1.2.3-1 .9-.9.9.2 0 1.6-2.3 2.5-4.5 1.6zm12.3-2.4-.8-.7 1.3.2c2.1.3 3.5-1.6 2-2.8-.5-.5-1.4-.5-6.4-.3a114.7 114.7 0 0 0-7.1.4 43 43 0 0 1 29.7 2.6l-3.3-.6c-8.7-1.6-11.5-1.8-11-.5.3.6-1.8 2.3-2.8 2.3a3 3 0 0 1-1.6-.6zm-1-2.2c0-.2 0-.4.3-.5.2-.1.2 0 0 .3-.1.6-.4.7-.4.2zm-11.8-.6h.7c0 .2-.1.2-.5.2s-.5 0-.2-.2z" style="fill:#f48cb3;stroke-width:.352778" transform="translate(-44.5 -173.2)"/>
  <path d="M75.6 237a38 38 0 0 1-17.6-7.4 26 26 0 0 1-5.8-8.3 31 31 0 0 1-1.9-9.6v-2.4l1 2.2c.8 1.5 2 3 3.4 4.5 2.3 2.3 2.4 2.4 6.4 2.8a53.5 53.5 0 0 0 13.7 1.8 36.4 36.4 0 0 0 11.2-2.3c.4 0 1-.3 1.4-.7.6-.6.7-.6.7-.2 0 .9 2 2.7 3 2.7.8 0 1.6-.6 1.6-1.3 0-.3-.5-1-1-1.6-.5-.6-.8-1-.6-1 .2.2.9 0 1.4-.5.8-.6 1-.6 1.2-.2 0 .2.5.8 1 1.3 1 1.1 4 1.1 4.8 0 .7-1 .7-1-.1-2-.7-.6-.7-.7.6-2l1.7-2c.3-.5.6-.8.9-.8l1-.1c.4 0 .7-.3.7-.6s-.7-.5-2-.6c-2-.2-2.6-.6-2.6-1.7 0-.5.3-.5 2.2-.3 1.8.3 2.2.2 2.6-.3.6-.8.6-1.7.1-2-.4-.3 0-1 .9-1.3.6-.2.8 0 1 .9 0 .9.3 1.1 1.4 1.4 1.2.3 1.5.2 1.7-.3.5-.8 1-.4 1 .7 0 .6-.2.8-1 1-.8.2-1 .4-1 .8l.3.7.5.1c.4 0 .5.2.4.7a8 8 0 0 0-.3 2.6c0 2.1-.2 3.1-.6 3-.4-.3.3 4 .7 4.4.2.2.8-.1 1.6-1l1.2-1.3-.2 1a23 23 0 0 1-14 16.2c-6.1 2.8-15.3 4-22.6 3zm-.1-20-1-.8 1 .3c1.9.7 5.5.1 5.5-.9 0-.6.7-.6 1 0 .4 1.1-1.7 2.3-4 2.3-1.1 0-1.8-.2-2.5-.8zm-18.7-5.6c-.6-.5-.6-.5.5-.5s2.9-1.4 2.9-2.2c0-.2.2-.2.4-.1.7.5-1.5 3.3-2.7 3.3-.2 0-.7-.2-1-.5zm6.2-.8c0-.2.5-.4 1-.5.7-.2 1.2-.6 1.5-1.3.6-1.2 1-1.5.8-.4-.3 1.2-3.3 3.2-3.3 2.2zm10.4-4.1c-2-1.2-3.2-3.7-2.6-5.4 1-2.4 4.2-4 8-4 3 0 4.3.1 5 .6.3.2.7.3 1 .3a9 9 0 0 1 2.6 1.6l.5.4c.2 0 1 .9 1.9 1.8 2 2.3 2 3.4 0 4.7l-1.4 1-2-.6c-2.6-.7-7.2-.8-9.5 0-2.1.6-1.8.6-3.5-.4zM59.1 201l2.3-.7c.8-.3 1-.2.8.3 0 .5-.5.6-2.2.6-2 .1-2 0-.9-.2zm40-.9c-.6-.4-.5-.5 1.3-.6h2.7c.5 0 .8-.3.8-.5 0-.5.6-.4 2.5.3.8.4.7.4-1.2.9-2.8.6-5.2.6-6 0zm-7-.2c0-.1 0-.3.4-.3.8 0 2.3-1 2.3-1.6 0-.6.5-.7.8 0 .2.6-.1 1.2-1.2 1.8-1.2.6-2 .6-2.3.1zm-24-2.9c-1.3-.6-1-1 .7-.7 1.3.2 1.7.1 1.8-.4.3-.7.8-.7 1 0 .5 1.3-1.8 2-3.6 1.1zm28.5-2.6c-1.1-.4-.2-.8 2-.8 1.7 0 2.5-.1 2.6-.4.1-.4.3-.4.6 0 1 .8-3.4 2-5.2 1.2zM69.1 193c-1.2-.5-1-.8.6-.6 1.7.3 2.4 0 3-1 .3-.8.5-.9.7-.4 0 .3-.2 1-.5 1.4-.8 1-2.2 1.2-3.8.6zm12.6-2.2c-.9-.4-.9-.4.4-.6 1.4-.1 2.4-1 2.4-1.9 0-.6.1-.6.6-.2.7.6.6 1.3-.4 2.3-1 .9-1.6 1-3 .4zm9.4-3.5a58 58 0 0 0-9.4-1.3c3.6 0 9.8.7 11.9 1.5 1.8.7.9.6-2.5-.2z" style="fill:#e785aa;stroke-width:.352778" transform="translate(-44.5 -173.2)"/>
  <path d="M75.6 237a38 38 0 0 1-17.6-7.4 26 26 0 0 1-5.8-8.3 29 29 0 0 1-1.9-9v-2l.9 1.8c1.8 3.8 5.6 6.9 8.6 6.9.8 0 3 .5 4.7 1a36 36 0 0 0 15.5 1.3c6.1-.8 7.2-1.1 7.7-2.5l.3-.8 1.1 1c1.3 1.2 2.5 1.4 3.2.5.4-.5.4-.7 0-1.6l-.4-.8c.5.2 1.9-.5 1.6-1-.4-.6.2-.3 1 .6.8.7 1.3.9 2.7.9 1.7 0 2.5-.5 3-1.8 0-.4.8-.7 2-.8 1-.1 2.4-.6 3.1-1 1.3-.8 1.4-1 1-1.3-.8-.7-.7-1.1 0-1.1.8 0 1.3 1.3.8 2-.4.5-.8 2-.4 1.7.4-.2 1.1 1.3 1.1 2.6 0 .5.2 1.3.5 1.6.6.8 1.5.4 3-1.5l1.2-1.3-.3 1c-2.5 10.6-11.2 17.4-24.7 19.3-2.9.4-9 .4-12 0zm.6-19.6c-1.6-.7-1.5-.9.3-.7 1.9.3 4.5-.4 4.5-1 0-.3.2-.6.4-.6s.3.3.3.7c0 1.6-3.4 2.6-5.5 1.6zm-19.4-6c-.6-.5-.6-.5.4-.5 1.2 0 1.9-.5 2.8-1.8l.6-.8v.8c0 .9-1.8 2.8-2.6 2.8-.3 0-.8-.2-1.2-.5zm6.4-.8c0-.2.3-.4.8-.5.7-.2 1.2-.6 1.6-1.4.5-1 .6-1 .6-.4 0 1.1-2.5 3-3 2.3zM101 208c-.5-.2-.8-.6-.8-1 0-.5.2-.5 2-.3 2.1.2 2.9-.2 2.9-1.8 0-.7.6-1.5 1.1-1.5.1 0 .3.3.4.8 0 .5.5.8 1.2 1 1.6.5 1.3 1.2-.3 1-1 0-1.3 0-1.3.5 0 1.3-3.2 2-5.2 1.3zm-27.2-1.4c-1.4-.9-2.6-2.4-2.6-3.5 0-1.3 1-3.3 1.5-3 .3.1.3 0 .2-.2-.2-.2 0-.5.3-.6l.9-.5c.5-.6 3-1.2 5.4-1.3 2.4 0 3 0 4.3.8.8.5 1.6.7 1.6.6 0-.2.1 0 .3.3.2.4.5.6.7.6.8 0 3.2 2 4 3.2 1.2 1.7 1 2.6-.9 3.6-1.3.6-1.4.6-3.2.1-2.3-.6-7-.7-9.3 0-2.1.7-1.9.7-3.2-.1zm-15-5.7 2.1-.5c1.2-.2 1.5-.1 1.4.2 0 .3-.9.5-2.2.6-1.4 0-1.8 0-1.4-.3zm41-.6c-1.3-.3-.7-.8 1-.9 2.8 0 3-.1 3.5-.4.7-.4 1.3.3.7.8-.5.4-4.3.8-5.3.5zM92 200c0-.1 0-.3.4-.3.8 0 2.3-1 2.3-1.7 0-.2.1-.4.3-.2.7.4.4 1.4-.6 2-1.2.7-2 .8-2.4.2zm-23.9-2.8c-1.4-.6-1.1-1 .5-.8.8.1 1.6 0 1.9-.2.7-.6 1 .1.3.8-.6.6-1.3.7-2.7.2zm28.4-3c-.5-.4-.3-.5 2-.5 1.5 0 2.5-.1 2.5-.4 0-.2.2-.2.4-.1.8.5-.6 1.2-2.5 1.4-1.5.2-2 .1-2.4-.3zm-27-1.2c-1.3-.5-1-.8.6-.5 1.2.2 1.5 0 2.3-.8.8-.9.9-.9.9-.2 0 1.4-2 2.2-3.8 1.5zm12-2.5c0-.2.3-.3.8-.3 1 0 2.2-1 2.2-1.8 0-.2.2-.3.4-.2.6.4.4 1.5-.3 2-.7.7-2.7.9-3 .3z" style="fill:#f0c25f;stroke-width:.352778" transform="translate(-44.5 -173.2)"/>
  <path d="M75.6 237A32.4 32.4 0 0 1 55 226.4c-2.7-3.8-4.2-8-4.6-13.3l-.2-2.8.8 1.7c2 3.9 5.7 6.9 8.7 6.9.8 0 3 .5 4.7 1a36 36 0 0 0 15.5 1.3c6.1-.8 7.2-1.1 7.7-2.5l.3-.8 1.1 1c1.3 1.2 2.5 1.4 3.2.5.4-.5.4-.7 0-1.6l-.4-.8c.5.2 1.9-.5 1.6-1-.4-.6.2-.3 1 .6.8.7 1.3.9 2.7.9 1.7 0 2.5-.5 3-1.8 0-.4.8-.7 2-.8 1-.1 2.4-.6 3.1-1 1.3-.8 1.4-1 1-1.3-.8-.7-.7-1.1 0-1.1.8 0 1.3 1.3.8 2-.4.5-.8 2-.4 1.7.4-.2 1.1 1.3 1.1 2.5 0 2.5 1.5 2.8 3.3.7l1-1-.2 1.1-1.6 4.2c-3.7 7.5-11.8 12.6-22.8 14.2-2.9.4-9 .4-12 0zm-5.2-8.5c-.8-.5-1.2-.4-.5.2.4.2.8.4.9.3 0 0-.1-.3-.4-.5zm-5.5-2.7c-.2-.9-.8-1.1-.8-.3 0 .4.7 1.3 1 1.2l-.2-1zm-3.9-1.4-2.4-1.9a22 22 0 0 1-6-5.4c-1.4-1.6-1.6-1.1-.5 1 1.9 3.4 5.5 6.6 8 7 1 0 1.8.2 1.9.2l-1-1zm15.2-7c-1.6-.7-1.5-.9.3-.7 1.9.3 4.5-.4 4.5-1 0-.3.2-.6.4-.6s.3.3.3.7c0 1.6-3.4 2.6-5.5 1.6zm-19.4-6c-.6-.5-.6-.5.4-.5 1.2 0 1.9-.5 2.8-1.8l.6-.8v.8c0 .9-1.8 2.8-2.6 2.8-.3 0-.8-.2-1.2-.5zm6.4-.8c0-.2.3-.4.8-.5.7-.2 1.2-.6 1.6-1.4.5-1 .6-1 .6-.4 0 1.1-2.5 3-3 2.3zM101 208c-.5-.2-.8-.6-.8-1 0-.5.2-.5 2-.3 2.1.2 2.9-.2 2.9-1.8 0-.7.6-1.5 1.1-1.5.1 0 .3.3.4.8 0 .5.5.8 1.2 1 1.6.5 1.3 1.2-.3 1-1 0-1.3 0-1.3.5 0 1.3-3.2 2-5.2 1.3zm-27.2-1.4c-1.4-.9-2.6-2.4-2.6-3.5 0-1.3 1-3.3 1.5-3 .3.1.3 0 .2-.2-.2-.2 0-.5.3-.6l.9-.5c.5-.6 3-1.2 5.4-1.3 2.3 0 3 0 4.2.8.9.4 1.7.7 1.8.6.1-.1.2 0 .2.2s.6.6 1.3 1c1.5.7 3.8 3 4.2 4 .3.9-.8 2.2-2.3 2.8-.8.3-1.2.3-1.8 0-1.4-.8-7.7-.9-10-.2s-2 .7-3.3-.1zm-15-5.7 2.1-.5c1.2-.2 1.5-.1 1.4.2 0 .3-.9.5-2.2.6-1.4 0-1.8 0-1.4-.3zm41-.6c-1.3-.3-.7-.8 1-.9 2.8 0 3-.1 3.5-.4.7-.4 1.3.3.7.8-.5.4-4.3.8-5.3.5zM92 200c0-.1 0-.3.4-.3.8 0 2.3-1 2.3-1.7 0-.2.1-.4.3-.2.7.4.4 1.4-.6 2-1.2.7-2 .8-2.4.2zm-23.9-2.8c-1.4-.6-1.1-1 .5-.8.8.1 1.6 0 1.9-.2.7-.6 1 .1.3.8-.6.6-1.3.7-2.7.2zm28.4-3c-.5-.4-.3-.5 2-.5 1.5 0 2.5-.1 2.5-.4 0-.2.2-.2.4-.1.8.5-.6 1.2-2.5 1.4-1.5.2-2 .1-2.4-.3zm-27-1.2c-1.3-.5-1-.8.6-.5 1.2.2 1.5 0 2.3-.8.8-.9.9-.9.9-.2 0 1.4-2 2.2-3.8 1.5zm12-2.5c0-.2.3-.3.8-.3 1 0 2.2-1 2.2-1.8 0-.2.2-.3.4-.2.6.4.4 1.5-.3 2-.7.7-2.7.9-3 .3z" style="fill:#dc82a5;stroke-width:.352778" transform="translate(-44.5 -173.2)"/>
  <path d="M75.6 237A32.4 32.4 0 0 1 55 226.4a24.4 24.4 0 0 1-4.5-15.3c.6 1.9 1.5 3.2 3.3 5 2 2.1 4.3 3.2 6.7 3.2.8 0 2.5.4 4 .9 5 1.8 8 2.3 13 2 5-.1 5.4-.2 8.2-1 2-.6 2.8-1.4 2.4-2.5-.2-.5 0-.4 1 .3.7.5 1.6 1 2 1 1 0 1.6-.9 1.3-1.8-.2-.7-.2-.8.3-.6.4.1.6 0 .7-.8l.3-1 .8.8c1.2 1.3 4 1.3 5 0 .4-.5 1.2-.9 2-1 .8 0 1.8-.3 2.3-.4.4 0 .7 0 .7.2s.5.4 1 .5c1 .3 1.5 1.1 1.5 2.3 0 .4.3 1 .7 1.4.9.9 1.8.6 3.3-1.2l1-1-.2 1.1-1.6 4.2c-3.7 7.5-11.8 12.6-22.8 14.2-2.9.4-9 .4-12 0zm-5.2-8.5c-.8-.5-1.2-.4-.5.2.4.2.8.4.9.3 0 0-.1-.3-.4-.5zm-5.5-2.7c-.2-.9-.8-1.1-.8-.3 0 .4.7 1.3 1 1.2l-.2-1zm-3.9-1.4-2.4-1.9a22 22 0 0 1-6-5.4c-1.4-1.6-1.6-1.1-.5 1 1.9 3.4 5.5 6.6 8 7 1 0 1.8.2 1.9.2l-1-1zm15.8-6.8c-1.9-.4-2.2-1.1-.4-.9 2 .3 4.6-.3 4.6-1 0-.3.2-.6.4-.6s.3.3.3.7c0 1.3-2.5 2.2-4.9 1.8zm-20-6.2c-.6-.5-.6-.5.4-.5 1.2 0 1.9-.5 2.8-1.8.4-.7.6-.7.6-.2 0 1-.7 2-1.8 2.5-1.3.7-1.1.7-2 0zm7.1-1.3c.8-.2 1.3-.7 1.7-1.4.3-.6.6-1 .6-.7 0 1-1.4 2.5-2.4 2.5s-1 0 .1-.4zm37.8-2c-1-.2-1.6-.7-1.6-1.2 0-.2.7-.3 2-.1l2.2.2.8-1.8c.9-1.9 1.2-2.1 1.4-1 0 .6.5 1 1.2 1.2 1.8.5 1.5 1-.4.8-1-.2-1.6-.1-1.6.1 0 1.2-2.4 2.3-4 1.9zm-28-1.4c-1.4-1-2.1-1.8-2.4-3.1-.2-1.6 1-4 2.1-4.2.5-.1.8-.3.7-.5-.2-.4 3.6-1.2 5.6-1.3 1.8 0 3.4.4 4.8 1.3l2.7 1.6c1.8 1 4 3.3 4 4.2 0 .6-1.8 2.2-2.8 2.5-.3.1-1 0-1.5-.2-1.3-.8-7.6-.9-9.8-.2-2.4.7-2 .7-3.3-.1zm-15-5.7c1.1-.4 3.6-.7 3.6-.4 0 .5-1 .8-2.7.7-1.2 0-1.5 0-1-.3zm41-.6c-1.3-.3-.7-.7 1.5-1 1.3 0 2.3 0 2.3.2.1.2.4.1.6-.2.5-.6.5-.6.5 0 0 .2 0 .6-.3.7-.4.3-4 .5-4.7.3zM92 200c0-.1 0-.3.4-.3.8 0 2.1-1 2.4-1.8.1-.4.2-.4.4.2.5 1.2-2.5 3-3.2 2zm-23.7-2.8c-1.4-.6-1.3-1 .2-.8 1 .1 1.7 0 2-.2.4-.4.5-.4.5.1 0 .4-1.4 1.4-1.8 1.3l-.9-.4zm28.3-2.9c-.6-.4-.3-.4 2.1-.6 1.6-.1 2.9-.2 3-.1l-.6.4c-1.2.7-3.7.8-4.5.3zM69.5 193c-1.3-.5-1-.8.6-.5 1.2.2 1.5 0 2.3-.8.8-.8.9-.9.9-.2 0 .4-.2.9-.5 1-.7.6-2.5.8-3.3.5zm12-2.5c0-.2.3-.3.9-.3.7 0 1.3-.3 1.8-1 .6-.7.7-.8 1-.3.3.9-1 2-2.3 2-.6 0-1.2-.2-1.4-.4z" style="fill:#d87da1;stroke-width:.352778" transform="translate(-44.5 -173.2)"/>
  <path d="M75.6 237A32.4 32.4 0 0 1 55 226.4a24.4 24.4 0 0 1-4.5-15.3c1 3 3.7 6.4 6 7.6.6.3 2.5.7 4.3 1 2.3.4 4.4 1 6.8 2 1.9.8 4.3 1.6 5.3 1.8 2.6.5 7.2.4 9.4-.2l6.1-1.6 1.3-.4-.7-1c-1-1.7-.9-2 .3-1a6 6 0 0 0 1.8.7c.9 0 1.6-1 1.3-1.7-.2-.5 0-.4.7.3.7.6 1 .7 1.1.4.1-.3.4-.4.6-.3l-.2-.2c-.3-.3-.7-1-.8-1.7l-.2-1.1.8.9c.7.7 1.3.9 2.6.9.8 0 1.9-.2 2.2-.4.6-.4.9-.3 1.4.2.4.4 1 .5 1.3.4 1-.3 3.4.5 4.6 1.6.5.6 1.2 1 1.5 1 .8 0 2-.7 3-1.9l1-1-.2 1.1-1.6 4.2c-3.7 7.5-11.8 12.6-22.8 14.2-2.9.4-9 .4-12 0zm-5.2-8.5c-.8-.5-1.2-.4-.5.2.4.2.8.4.9.3 0 0-.1-.3-.4-.5zm-5.5-2.7c-.2-.9-.8-1.1-.8-.3 0 .4.7 1.3 1 1.2l-.2-1zm-3.9-1.4-2.4-1.9a22 22 0 0 1-6-5.4c-1.4-1.6-1.6-1.1-.5 1 1.9 3.4 5.5 6.6 8 7 1 0 1.8.2 1.9.2l-1-1zm14.8-7.2c-1.2-.5-1-.7.7-.5 2 .3 4.4-.3 4.6-1.1 0-.5.2-.5.4-.2.1.2 0 .8-.6 1.3-.7.7-1.3.9-2.6.9-1 0-2-.2-2.5-.4zm-19-5.8c-.6-.5-.6-.5.4-.5 1.2 0 1.9-.5 2.8-1.8.5-.7.6-.8.5-.1 0 .8-.9 2-2 2.5-1 .5-.9.5-1.7 0zm7-1.2c.6-.2 1.3-.6 1.6-1 .5-.5.5-.5 0 .3-.3.5-.9.9-1.5 1h-1zm36.8-2.7c-.6-.6-.6-.7 0-.8 1.1-.2 3.7.3 3.6.8-.2.7-3 .7-3.6 0zm-26.8-.8c-.6-.3-1.3-1-1.6-1.2-.6-.7-.8-3-.3-3 .2 0 .3-.3.2-.6-.1-.3 0-.7.5-1 .3-.3.5-.6.4-.7-.1-.2 0-.2.4 0 .4.1.6 0 .6-.4s0-.6.2-.4c.1 0 .6 0 1.1-.4.6-.4.8-.4.6 0-.2.3 0 .2.4-.1.7-.6 4.8-.9 5.6-.4l.5.2 2.5.9a10 10 0 0 1 3.8 2.5c2.9 3 2.8 2.7 1.9 3.6-1.3 1.3-2.6 1.8-3.6 1.3-1.4-.8-7.7-.9-10-.2s-2 .7-3.2 0zm32.9-.8c-.4-.2-.6-.7-.6-1.5 0-1 0-1 .3-.2.1.5.6 1 1.4 1.2.6.2 1 .5.9.6-.4.4-1.3.3-2 0zm-48-4.9c.3-.1 1.3-.4 2.2-.5 1.3-.2 1.5-.2 1 .3-.2.4-1 .6-2.2.5-1.2 0-1.6 0-1-.3zm33.4-1c0-.2 0-.4.4-.4.8 0 2.1-1 2.4-1.8.1-.4.2-.4.4.2.5 1.2-2.5 3-3.2 2zm7 0c0-.3.4-.4 1-.4l2.4-.2c.9-.2 1-.1 1 .3 0 .5-.3.6-2 .6-1.2 0-2.2-.2-2.3-.4zm-31.3-3.4c-.7-.5-.6-.5.8-.3 1 .1 1.7 0 2-.3.6-.4.6-.4.2.3-.5 1-2 1.1-3 .3zm29.2-2.3c-1.4-.5-1-.7 1.7-.7 1.5 0 2.4.1 2.2.3-.5.5-3 .7-4 .4zM70 193c-.4-.1-1-.3-1.2-.5-.2-.3.2-.3 1.2-.1 1.2.2 1.6 0 2.2-.6.8-.8 1.2-.7.9.1-.3.7-1.8 1.2-3 1zm11.5-2.6c0-.2.3-.3.9-.3.7 0 1.3-.3 1.7-1 .6-.6.8-.7 1-.3.4 1.3-2.9 2.7-3.6 1.6z" style="fill:#cd8d91;stroke-width:.352778" transform="translate(-44.5 -173.2)"/>
  <path d="M75.6 237a32.7 32.7 0 0 1-20.1-10.1 25 25 0 0 1-5-13.4l-.2-2.4.7 1.5c1 2 3.5 5.4 3.9 5.2.2-.1.4 0 .5.1.5.8 2.4 1.4 5.5 2 2.3.3 4.4.9 6.8 1.9 1.9.8 4.3 1.6 5.3 1.8 2.6.5 7.2.4 9.4-.2l6-1.6 1.4-.3-.7-1.3c-.7-1.1-.7-1.2-.1-1l1 .6c.3.2 1 .3 1.5.2.7 0 1-.3 1-1 .2-.7.2-.8 1-.1.5.5.7.5.8.2.1-.3.4-.4.6-.3l-.3-.3c-.8-.7-.5-1.8.5-1.3s3.8.6 4.4 0c.5-.3.7-.3 1.3.2.4.4.9.5 1.2.4.6-.2 3.4.4 3.7 1l1.4 1c1.1 1 1.3 1 2.1.4.5-.3 1.4-1 2-1.7l.9-1-.2 1.1c-.2.7-.9 2.6-1.7 4.3-3 6.2-9.6 11-17.9 13.1-5 1.3-11.8 1.7-16.7 1zm-5.2-8.5c-.8-.5-1.2-.4-.5.2.4.2.8.4.9.3 0 0-.1-.3-.4-.5zm-5.5-2.7c-.2-.9-.8-1.1-.8-.3 0 .4.7 1.3 1 1.2l-.2-1zm31.8-1.2 1.6-1.7-2 1.7-1.5 1.8 2-1.8zm-35.7-.2-2.4-1.9a22 22 0 0 1-6-5.4c-1.4-1.6-1.6-1.1-.5 1 1.9 3.4 5.5 6.6 8 7 1 0 1.8.2 1.9.2l-1-1zm15-7c-1.3-.4-.5-.7 1.6-.7 1.5 0 2.5-.2 3.2-.6 1-.7 1-.7.6 0a3 3 0 0 1-1 1.1 8 8 0 0 1-4.4.1zm-19.2-6.2c0-.2.2-.3.6-.3.4 0 1.3-.4 2-.8 1.2-.7 1.3-.7.8 0-1.1 1.4-2.8 2-3.4 1.1zm6.2-.8.9-.3c.5-.1.8 0 .7.1-.2.3-1.6.5-1.6.2zm37.8-2.6c-.3-.1-.3-.3 0-.7.5-.6 2-.6 2.3 0 .2.5.3.5.8.2.4-.4.5-.4.3 0-.1.6-2.4 1-3.4.5zm-26.7-1a7 7 0 0 1-1.8-1.2c-.6-.8-1-3.2-.4-3.2.2 0 .3-.2.2-.5-.1-.3 0-.7.5-1 .3-.3.5-.6.4-.7-.1-.2 0-.2.4 0 .4.1.6 0 .6-.4s0-.6.2-.4c.1 0 .6 0 1.1-.4.6-.4.8-.4.6 0-.2.3 0 .2.4-.1.7-.7 5-.9 5.6-.4l.5.3 2.5.8a10 10 0 0 1 3.8 2.5c2.9 2.9 2.7 2.7 2 3.5-1.4 1.5-2.3 1.8-4.3 1.2a22.2 22.2 0 0 0-11.2.5l-1.1-.5zm16.4-1.7-.8-.8-.7-.6.6.7c.7.8 1 1 1 .7zm16.2.8c-.4-.2-.6-.5-.6-.7 0-.2.2-.2.4 0l.8.2.8.1c.2 0 .4.3.4.4 0 .5-1 .5-1.8 0zm-46.9-4.8c.7 0 1.4-.3 1.6-.5.6-.5 1-.3.6.2-.3.4-1 .5-2 .5-1.4 0-1.4 0-.2-.2zm33-1c.4-.2 1.2-.5 1.8-1l1-.6-1 .9c-.5.5-1.3.9-1.7.9-.7 0-.7 0 0-.3zm9.6 0h1l-.5.1c-.5 0-.7 0-.5-.1zM68 196.8c-.3-.2.1-.3 1.1-.2.9 0 1.5.1 1.4.3-.2.3-1.9.3-2.5 0zm29.6-2.3 2-.5c.8-.2 1.4-.2 1.3 0-.3.2-3.6.8-3.3.5zM71 192.9c0-.2.4-.4.7-.4.2 0 .7-.3 1-.7.3-.5.5-.7.5-.5 0 .7-.5 1.2-1.5 1.6-.6.2-.9.2-.7 0zm10.8-2.3c0-.1.5-.3 1-.3 1-.2 1.4-.5 1.7-1.4.2-.6.3-.6.5-.1.3.9-1 2-2.3 2-.6 0-1-.1-1-.2z" style="fill:#e7b64a;stroke-width:.352778" transform="translate(-44.5 -173.2)"/>
  <path d="M75.6 237a34.6 34.6 0 0 1-19.3-9 24.8 24.8 0 0 1-5.4-11.6l-.2-1.5.5 1.6c.8 2.1 3.6 6 5 7.1a68 68 0 0 1 2.2 1.7c.6.4 1.3.8 1.7.8.3 0 1.6.4 2.8 1 1.1.6 2.4 1 2.8 1 .5 0 1 .2 1 .4.4.6 1 .4 1-.2 0-.4.2-.3 1.5.4 2 1 2 1 1.9 0 0-.5-.2-.8-.3-.7-.2.3-1-.6-.9-1 .1-.1 0-.2-.1-.2-.2 0-.5.2-.5.4-.2.3-.2.3-.3 0 0-.3-.2-.4-.4-.2-.2.1-.3 0-.1-.2.1-.2-.1-.5-.6-.7a5 5 0 0 1-1.4-1c-.4-.5-.9-.7-1.2-.6-.3.1-.9-.1-1.4-.5-.5-.4-1.7-.9-2.6-1.1-1-.2-2-.7-2.2-1l-.7-.4c-.7 0-3.9-2.8-5-4.3-.5-.7-.8-1.4-.7-1.4.2 0 .7.5 1.1 1 .4.7 1 1 1 1 .5-.3 1.2.7.9 1-.1.2 0 .2.2 0 .2 0 .7 0 1 .2.4.2 2.2.5 4 .8 2.3.4 4.4 1 6.8 2 1.9.8 4.3 1.6 5.3 1.8 2.6.5 7.2.4 9.4-.2l6-1.6 1.4-.3-.7-1.3c-.7-1.1-.7-1.2-.1-1l1 .6c.3.2 1 .3 1.5.2.7 0 1-.3 1-1 .2-.7.2-.8 1-.1.5.5.7.5.8.2.1-.3.4-.4.6-.3l-.3-.3c-.8-.7-.5-1.8.5-1.3s3.8.6 4.4 0c.5-.3.7-.3 1.3.2.4.4.9.5 1.2.4.6-.2 3.4.4 3.7 1l1.4 1c1 .9 1.2.9 2.2.4a9 9 0 0 0 1.9-1.6l1-1.2-.3 1.2c-.2.7-.9 2.6-1.7 4.3-3 6.2-9.6 11-17.9 13.1-5 1.3-11.8 1.7-16.7 1zm21.5-8.4a7.7 7.7 0 0 0 3.4-3.4c.2-.5.2-.6-.3-.4l-2 .5a8 8 0 0 0-3.8 2.3l-.8.6c-.6-.1-1.3.6-1.1 1 .2.8 2.4.4 4.6-.6zm-.4-4 1.6-1.7-2 1.7-1.5 1.8 2-1.8zM76 217.3c-1.3-.3-.5-.6 1.6-.6 1.5 0 2.5-.2 3.2-.6 1-.7 1-.7.6 0a3 3 0 0 1-1 1.1 8 8 0 0 1-4.4.1zm-24.8-2.5c-.3-.4-.7-1.4-.8-2.2l-.1-1.5.8 1.7a7 7 0 0 0 1 2c.4 0 .4.7 0 .7l-.9-.7zm5.6-3.6c0-.2.2-.3.6-.3.4 0 1.3-.4 2-.8 1.2-.7 1.3-.7.8 0-1.1 1.4-2.8 2-3.4 1.1zm6.2-.8.9-.3c.5-.1.8 0 .7.1-.2.3-1.6.5-1.6.2zm37.8-2.6c-.3-.1-.3-.3 0-.7.5-.6 2-.6 2.3 0 .2.5.3.5.8.2.4-.4.5-.4.3 0-.1.6-2.4 1-3.4.5zm-26.7-1a7 7 0 0 1-1.8-1.2c-.6-.8-1-3.2-.4-3.2.2 0 .3-.2.2-.5-.1-.3 0-.7.5-1 .3-.3.5-.6.4-.7-.1-.2 0-.2.4 0 .4.1.6 0 .6-.4s0-.6.2-.4c.1 0 .6 0 1.1-.4.6-.4.8-.4.6 0-.2.3 0 .2.4-.1.7-.7 5-.9 5.6-.4l.5.3 2.5.8a10 10 0 0 1 3.8 2.5c2.4 2.5 2.6 2.7 2.4 3.1-.2.3-.5 0-1-.5-.4-.5-.8-.8-1-.6-.3 0-.2.3.3.6.3.2.6.6.6.8l-.1.7c-.1.8-1.8 1.1-3.5.6a22.2 22.2 0 0 0-11.2.5l-1.1-.5zm32.6-.9c-.4-.2-.6-.5-.6-.7 0-.2.2-.2.4 0l.8.2.8.1c.2 0 .4.3.4.4 0 .5-1 .5-1.8 0zm-46.9-4.8c.7 0 1.4-.3 1.6-.5.6-.5 1-.3.6.2-.3.4-1 .5-2 .5-1.4 0-1.4 0-.2-.2zm33-1c.4-.2 1.2-.5 1.8-1l1-.6-1 .9c-.5.5-1.3.9-1.7.9-.7 0-.7 0 0-.3zm9.6 0h1l-.5.1c-.5 0-.7 0-.5-.1zM68 196.8c-.3-.2.1-.3 1.1-.2.9 0 1.5.1 1.4.3-.2.3-1.9.3-2.5 0zm29.6-2.3 2-.5c.8-.2 1.4-.2 1.3 0-.3.2-3.6.8-3.3.5zM71 192.9c0-.2.4-.4.7-.4.2 0 .7-.3 1-.7.3-.5.5-.7.5-.5 0 .7-.5 1.2-1.5 1.6-.6.2-.9.2-.7 0zm10.8-2.3c0-.1.5-.3 1-.3 1-.2 1.4-.5 1.7-1.4.2-.6.3-.6.5-.1.3.9-1 2-2.3 2-.6 0-1-.1-1-.2z" style="fill:#b8958d;stroke-width:.352778" transform="translate(-44.5 -173.2)"/>
  <path d="M76.8 237.1A43.1 43.1 0 0 1 63 233a22 22 0 0 1-11.7-14.3c-.9-3-1-4.3-.1-2 .7 2 3.5 6 5 7a68 68 0 0 1 2.1 1.7c.6.4 1.3.8 1.7.8.3 0 1.6.4 2.8 1 1.1.6 2.4 1 2.8 1 .5 0 1 .2 1 .4.4.6 1 .4 1-.2 0-.4.2-.3 1.5.4 2 1 2 1 1.9 0 0-.5-.2-.8-.3-.7-.2.3-1-.6-.9-1 .1-.1 0-.2-.1-.2-.2 0-.5.2-.5.4-.2.3-.2.3-.3 0 0-.3-.2-.4-.4-.2-.2.1-.3 0-.1-.2.1-.2-.1-.5-.6-.7a5 5 0 0 1-1.4-1c-.4-.5-.9-.7-1.2-.6-.3.1-.9-.1-1.4-.5-.5-.4-1.7-.9-2.6-1.1-1-.2-2-.7-2.2-1l-.7-.4c-.7 0-3.9-2.8-5-4.3-.5-.7-.8-1.4-.7-1.4.2 0 .7.5 1.1 1 .4.7 1 1 1 1 .5-.3 1.2.7.9 1-.1.2 0 .2.2 0 .2 0 .7 0 1 .2.4.2 2.2.5 4 .8 2.3.4 4.4 1 6.8 2 1.9.8 4.3 1.6 5.3 1.8 2.6.5 7.2.4 9.4-.2l6-1.6 1.4-.3-.8-1.3-.7-1.3 1.5.8c1.6 1 2.6.7 2.8-.7.1-.7.1-.7.8-.1.6.5.8.5 1 .2 0-.3.3-.4.5-.3l-.2-.3c-.9-.7-.8-1.4 0-1 1 .6 3.7.5 4.6-.1.7-.5.9-.5 1.5 0 .4.4.9.5 1.2.4.6-.2 3.4.4 3.7 1l1.4 1c1 .9 1.2.9 2.2.4a9 9 0 0 0 1.9-1.6l1-1.2-.3 1.2-1.6 4.2c-3.2 6.7-10 11.4-19.4 13.5a66 66 0 0 1-14.1.8zm20.3-8.5a7.7 7.7 0 0 0 3.4-3.4c.2-.5.2-.6-.3-.4l-2 .5a8 8 0 0 0-3.8 2.3l-.8.6c-.6-.1-1.3.6-1.1 1 .2.8 2.4.4 4.6-.6zm-.4-4 1.6-1.7-2 1.7-1.5 1.8 2-1.8zm-18.4-7.5c1-.2 2.3-.7 2.8-1.1.7-.7.7-.7.3 0-.6 1.2-1.5 1.6-3.5 1.6h-1.6zm-27-2.3c-.4-.4-.8-1.4-.9-2.2l-.1-1.5.8 1.7a7 7 0 0 0 1 2c.4 0 .4.7 0 .7l-.9-.7zm8.2-4.2.7-1c.3-.1.2.2-.2.7-.7 1-1 1.3-.5.3zm41.3-3c-.4-.2-.2-.2 1 0 1 0 1.7 0 2-.3.5-.4.6-.4.4 0-.2.7-2.7 1-3.4.4zm-26.7-.8a7 7 0 0 1-1.8-1.2c-.6-.8-1-3.2-.4-3.2.2 0 .3-.2.2-.5-.1-.3 0-.7.5-1 .3-.3.5-.6.4-.7-.1-.2 0-.2.4 0 .4.1.6 0 .6-.4s0-.6.2-.4c.1 0 .6 0 1.1-.4.6-.4.8-.4.6 0-.2.3 0 .2.4-.1.7-.7 5-.9 5.6-.4l.5.3 2.5.8a10 10 0 0 1 3.8 2.5c2.4 2.5 2.6 2.7 2.4 3.1-.2.3-.5 0-1-.5-.4-.5-.8-.8-1-.6-.3 0-.2.3.3.6.3.2.6.6.6.8l-.1.7c-.1.8-1.8 1.1-3.5.6a21.8 21.8 0 0 0-11.2.5l-1.1-.5zm32.5-1c-1-.8-.5-.8.9-.1.9.4 1 .6.5.6-.4 0-1-.2-1.4-.5zm-46.8-4.7c.7 0 1.4-.3 1.6-.5.6-.5 1-.3.6.2-.3.4-1 .5-2 .5-1.4 0-1.4 0-.2-.2zm33-1c.4-.2 1.2-.5 1.8-1l1-.6-1 .9c-.5.5-1.3.9-1.7.9-.7 0-.7 0 0-.3zm9.6 0h1l-.5.1c-.5 0-.7 0-.5-.1zM68 196.8c-.3-.2.1-.3 1.1-.2.9 0 1.5.1 1.4.3-.2.3-1.9.3-2.5 0zm29.6-2.3 2-.5c.8-.2 1.4-.2 1.3 0-.3.2-3.6.8-3.3.5zM71 192.9c0-.2.4-.4.7-.4.2 0 .7-.3 1-.7.3-.5.5-.7.5-.5 0 .7-.5 1.2-1.5 1.6-.6.2-.9.2-.7 0zm11.8-2.6c.6-.2 1.4-.8 1.6-1.2.3-.7.4-.7.6-.3.3.9-1 2-2.3 2h-1.2l1.3-.5z" style="fill:#cc7394;stroke-width:.352778" transform="translate(-44.5 -173.2)"/>
  <path d="M76.8 237.1A43.1 43.1 0 0 1 63 233a22 22 0 0 1-11.7-14.3c-.9-3-1-4.3-.1-2 .7 2 3.5 6 5 7a68 68 0 0 1 2.1 1.7c.6.4 1.3.8 1.7.8.3 0 1.6.4 2.8 1 1.1.6 2.4 1 2.8 1 .5 0 1 .2 1 .4.4.6 1 .4 1-.2 0-.4.2-.3 1.5.4 2 1 2 1 1.9 0 0-.5-.2-.8-.3-.7-.2.3-1-.6-.9-1 .1-.1 0-.2-.1-.2-.2 0-.5.2-.5.4-.2.3-.2.3-.3 0 0-.3-.2-.4-.4-.2-.2.1-.3 0-.1-.2.1-.2-.1-.5-.6-.7a5 5 0 0 1-1.4-1c-.4-.5-.9-.7-1.2-.6-.3.1-.9-.1-1.4-.5-.5-.4-1.7-.9-2.6-1.1-1-.2-2-.7-2.2-1l-.7-.4c-.7 0-3.9-2.8-5-4.3-1.3-1.8-1-1.8 1 .2.9 1 1.6 1.6 1.6 1.4a13.5 13.5 0 0 0 4.6 1.2c2.6.3 3.5.6 7.6 2.8l4.7 2.4 5.7-.1c5.7-.1 8.8-.6 11.5-1.7 1.7-.7 4-1.2 4-.9 0 .2.4.4.8.5 1.1.3 1 1.6-.1 2.9-1.6 1.7-.4.8 2.2-1.5 3.7-3.4 7.8-5.2 9.8-4.1 1.4.7 2.7.2 4.2-1.6l1.1-1.3-.2 1.2-1.6 4.2c-3.2 6.7-10 11.4-19.4 13.5a66 66 0 0 1-14.1.8zm20.3-8.5a7.7 7.7 0 0 0 3.4-3.4c.2-.5.2-.6-.3-.4l-2 .5a8 8 0 0 0-3.8 2.3l-.8.6c-.6-.1-1.3.6-1.1 1 .2.8 2.4.4 4.6-.6zm-7.5-8.6c-.4-.5-.4-.6-.1-.4l1.4.8c.8.3.8.3.1.3-.4 0-1-.3-1.4-.7zm5.8-1.8c-.6-.4-.4-.4 1-.3 1.1 0 1.5.2 1.2.4-.7.5-1.5.4-2.2-.1zm-17.2-1a18 18 0 0 0 2.7-1c.4-.4.4-.2-.1.3-.6.6-1.3.9-2.7 1h-1.8zm-27-2.4c-.3-.4-.7-1.4-.8-2.2l-.1-1.5.8 1.7a7 7 0 0 0 1 2c.4 0 .4.7 0 .7l-.9-.7zm8.3-4.2.3-.6c.2-.1.3 0 .2.3-.3.6-.5.8-.5.3zm41.6-2.9c-.4-.3-.4-.3.2-.3.4 0 1 .1 1.2.3.5.3.4.4-.1.4-.4 0-1-.2-1.3-.4zm-27-.9c-2.3-1.2-2.7-2.1-1.8-4 1.1-2 4.4-3.5 8.2-3.5 1.7 0 4.7.7 4.5 1.1v.2c.2 0 .8.5 1.4 1a29 29 0 0 0 2 1.5c.4.3.7.7.6 1-.1.2.1.5.5.6.3.1.6.5.5.8l-.1.8c0 .1-.4.4-1 .6-.6.3-1.2.3-2.5-.1a21.8 21.8 0 0 0-11.2.6l-1-.6zM60 201.2l1.2-.3c.8-.2.9-.2.5 0-.5.4-2 .6-1.7.3zm32.8-1c0-.1.3-.3.7-.4.3 0 .6 0 .5.2-.2.3-1.2.4-1.2.2zm1.7-.7.6-.7c.6-.4.6-.4.2.2-.5.6-.8.8-.8.5zM69 196.9h1c.2 0 0 .2-.5.2s-.7-.1-.5-.2zm13.9-6.5a4 4 0 0 0 1.5-1c.7-.6.7-.5.2.3-.4.6-1 1-1.6 1-1 0-1 0-.1-.3z" style="fill:#daad48;stroke-width:.352778" transform="translate(-44.5 -173.2)"/>
  <path d="M76.1 237a34 34 0 0 1-19.3-8.7 23.9 23.9 0 0 1-6-12l-.1-1.4.5 1.6c.8 2.2 3.6 6 5 7.1l2.4 1.8c.6.5 1.3.8 1.5.7.3 0 .5 0 .5.3 0 .2.2.4.4.4.3 0 1.8.5 3.3 1.2a43 43 0 0 0 12 3.2c1.7.2 2.3.4 2 .9-.1.3 0 .3.5 0 .8-.4 6.9-.7 6.3-.3a89.6 89.6 0 0 1 4.5-.5c3.5-.5 7.5-2.2 9.6-4.3 1.3-1.2 1.9-2.6 1-2.2l-2 .5a5 5 0 0 0-1.8.8c-.3.2-.7.3-.8.1-.4-.4 4.1-4.3 5.5-4.8l2-.8c1.3-.8 2.6-1 3.7-.4 1.5.8 2 .7 3.7-1l1.6-1.7-.2 1.2c-.5 2.3-3 6.8-5 9-6.3 7-18.8 10.8-30.8 9.3zm2-8.2-3.2-.7c-.3 0-.5-.1-.4-.3 0-.1-.1-.2-.5-.1-.3 0-2-.4-3.6-1.1l-3.4-1.3c-.3 0-.4-.1-.3-.3.1-.2 0-.4-.2-.4-1.6-.2-2-.3-2.8-.8l-2.5-1c-1-.2-1.9-.6-2-.8l-.8-.5c-.7 0-3.9-2.8-5-4.3l-1-1.6 1.3 1.3a15 15 0 0 1 1.7 1.7c.1.2.4.3.6.2.2-.1.3 0 .3.1 0 .6 1 .9 3.4 1 3.2.3 4.6.7 9 3l4 2.2h5.8a30 30 0 0 0 11.6-1.7c1.7-.7 4-1.2 4-.9 0 .2.4.4.8.5.7.2.9.4.8 1-.1 1-1.7 3.1-2.3 3.1-.2 0-.4.1-.4.3 0 .4-3.2 1.4-6 1.8-3.4.5-6.2.4-9-.4zm11.5-8.8c-.4-.5-.4-.6-.1-.4l1.4.8c.8.3.8.3.1.3-.4 0-1-.3-1.4-.7zm5.8-1.8c-.6-.4-.4-.4 1-.3 1.1 0 1.5.2 1.2.4-.7.5-1.5.4-2.2-.1zm-17.2-1a18 18 0 0 0 2.7-1c.4-.4.4-.2-.1.3-.6.6-1.3.9-2.7 1h-1.8zm-27-2.4c-.3-.4-.6-1.3-.7-2l-.2-1.4.7 1.6 1.1 2c.6.7-.2.6-.9-.2zm8.3-4.2.3-.6c.2-.1.3 0 .2.3-.3.6-.5.8-.5.3zm41.6-2.9c-.4-.3-.4-.3.2-.3.4 0 1 .1 1.2.3.5.3.4.4-.1.4-.4 0-1-.2-1.3-.4zm-27-.9c-2.3-1.2-2.7-2.1-1.8-4 1.1-2 4.4-3.5 8.2-3.5 1.9 0 4.6.7 4.5 1.2 0 .2 0 .3.2.3.5 0 2.5 1.9 2.2 2.1 0 .2 0 .2.4 0 .4-.1.6 0 .6.4 0 .3.2.5.4.4.2-.2.2 0 .1.3s0 .6.5.7c1 .3.8 1.2-.3 2-.8.6-1 .6-2.5.1-2.6-1-8-.8-10.9.3-.3.2-1 0-1.6-.3zM60 201.2l1.2-.3c.8-.2.9-.2.5 0-.5.4-2 .6-1.7.3zm32.8-1c0-.1.3-.3.7-.4.3 0 .6 0 .5.2-.2.3-1.2.4-1.2.2zm1.7-.7.6-.7c.6-.4.6-.4.2.2-.5.6-.8.8-.8.5zM69 196.9h1c.2 0 0 .2-.5.2s-.7-.1-.5-.2zm13.9-6.5a4 4 0 0 0 1.5-1c.7-.6.7-.5.2.3-.4.6-1 1-1.6 1-1 0-1 0-.1-.3z" style="fill:#e8ad34;stroke-width:.352778" transform="translate(-44.5 -173.2)"/>
  <path d="M76.1 237c-3.3-.5-7.6-1.6-10.6-3a23 23 0 0 1-13.7-14.2c-1-3-1-3.4.2-1.3 2 3.7 4 6.1 4.9 6.1l1.2.8c.6.4 1.8 1 2.6 1.2.8.2 2.5 1 3.9 1.6 2.3 1 8.5 2.7 11.6 3 1.8.2 2.4.4 2.1.9-.1.3 0 .3.5 0 .8-.4 6.9-.7 6.3-.3a89.6 89.6 0 0 1 4.4-.5 31 31 0 0 0 12-4.4c2.3-1.2 3.5-2.2 3.5-3.1 0-.3.2-.7.5-.8.8-.5 0-1.9-1.2-2.1-1.3-.3-1.1-.7.4-1a3 3 0 0 1 2.1.4c1.5.7 2.4.4 4-1.3 1.5-1.7 1.5-1.4.1 2.1a19 19 0 0 1-4.2 6.9c-6.2 6.8-18.8 10.5-30.6 9zm2-8.2-3.2-.7c-.3 0-.5-.1-.4-.3.1-.2 0-.2-.3-.1-.8.3-5.6-1.7-5.3-2.1.1-.2 0-.3-.4-.1-.3 0-.5 0-.4-.1.4-.6-4.6-3.4-7.9-4.5-2.3-.8-2.6-1.2-.5-1 3.4.4 5 1 9 3l4 2.2h5.8a30 30 0 0 0 11.6-1.7c1.7-.7 4-1.2 4-.9 0 .2.4.4.8.5.7.2.9.4.8 1-.1 1-1.7 3.1-2.3 3.1-.2 0-.4.1-.4.3 0 .4-3.2 1.4-6 1.8-3.4.5-6.2.4-9-.4zm17.4-2.7a19 19 0 0 1 5.4-4.6c.2 0-.2.4-.8 1-.7.6-1.3 1-1.5 1-.1 0-.4.4-.5.8-.1.4-.4.7-.6.7-.3 0-.8.3-1.3.7-.4.4-.7.6-.7.4zm-5.9-6.1c-.4-.5-.4-.6-.1-.4l1.4.8c.8.3.8.3.1.3-.4 0-1-.3-1.4-.7zm5.8-1.8c-.6-.4-.4-.4 1-.3 1.1 0 1.5.2 1.2.4-.7.5-1.5.4-2.2-.1zm-17.2-1a18 18 0 0 0 2.7-1c.4-.4.4-.2-.1.3-.6.6-1.3.9-2.7 1h-1.8zm-18.7-6.6.3-.6c.2-.1.3 0 .2.3-.3.6-.5.8-.5.3zm41.6-2.9c-.4-.3-.4-.3.2-.3.4 0 1 .1 1.2.3.5.3.4.4-.1.4-.4 0-1-.2-1.3-.4zm-27-.9c-2.3-1.2-2.7-2.1-1.8-4 1.1-2 4.4-3.5 8.2-3.5 1.9 0 4.6.7 4.5 1.2 0 .2 0 .3.2.3.5 0 2.5 1.9 2.2 2.1 0 .2 0 .2.4 0 .7-.2.9.4.2.7-.3.1-.3.3.2.7.3.3.6.6.6.8 0 .1.2.4.6.7.5.4.5.5-.3 1-.9.5-1 .5-2.5 0-2.6-1-8-.8-10.9.3-.3.2-1 0-1.6-.3zM60 201.2l1.2-.3c.8-.2.9-.2.5 0-.5.4-2 .6-1.7.3zm32.8-1c0-.1.3-.3.7-.4.3 0 .6 0 .5.2-.2.3-1.2.4-1.2.2zm1.7-.7.6-.7c.6-.4.6-.4.2.2-.5.6-.8.8-.8.5zM69 196.9h1c.2 0 0 .2-.5.2s-.7-.1-.5-.2zm13.9-6.5a4 4 0 0 0 1.5-1c.7-.6.7-.5.2.3-.4.6-1 1-1.6 1-1 0-1 0-.1-.3z" style="fill:#d8a435;stroke-width:.352778" transform="translate(-44.5 -173.2)"/>
  <path d="M76.1 237c-3.3-.5-7.6-1.6-10.6-3a23 23 0 0 1-13.7-14.2c-1-2.6-1-3.7-.1-1.7 1 2.6 2 3.9 4.6 6.6 2 2 3 2.8 3.6 2.8.5 0 1 .2 1.1.5.1.3.5.4.9.3.4-.1 1 0 1.2.4 1.4 1.3 8.6 3.5 10.2 3 .5 0 .7 0 .5.3-.1.2.5.4 1.7.5 1.9.2 2.5.2 4.4-.2.7-.2 1.3-.2 1.7.1.6.6 6.4.2 9.3-.5l3.4-.7a8 8 0 0 0 2.3-1c.5-.3 1.3-.6 1.6-.6.4 0 .8-.3 1-.5 0-.3.3-.6.5-.6s.7-.3 1-.7c.5-.4 1-.7 1.3-.7.3 0 .5-.2.5-.5s.2-.5.5-.5c.6 0 2-1.7 2-2.4 0-.2.2-.6.5-.7.8-.3 0-2.2-1.2-2.5l-.9-.2 1-.3c1.1-.3 3 .2 3 .8 0 .7 2.3-.5 3.4-1.9 1.5-1.6 1.5-1.3.1 2.2-3.2 8.5-11.2 14-23 15.7-3.8.6-8.2.6-11.8.2zm2.4-8c-1.1-.2-2.9-.9-4-1.4l-2-1c-.2.1-.4 0-.5-.4a.8.8 0 0 0-.7-.5 33 33 0 0 0-10-4.8c-3.1-1-3.2-1.1-1.6-1 3.3.4 5 1 9 3l4 2.2h5.8a30 30 0 0 0 11.6-1.7c1.7-.7 4-1.2 4-.9 0 .2.4.4.8.5.7.2.9.4.8 1-.1 1-1.7 3.1-2.3 3.1-.2 0-.4.1-.4.3 0 .4-3.2 1.4-6 1.8-3 .5-6 .4-8.5-.2zm11.1-9c-.4-.5-.4-.6-.1-.4l1.4.8c.8.3.8.3.1.3-.4 0-1-.3-1.4-.7zm5.8-1.8c-.6-.4-.4-.4 1-.3 1.1 0 1.5.2 1.2.4-.7.5-1.5.4-2.2-.1zm-17.2-1a18 18 0 0 0 2.7-1c.4-.4.4-.2-.1.3-.6.6-1.3.9-2.7 1h-1.8zm-18.7-6.6.3-.6c.2-.1.3 0 .2.3-.3.6-.5.8-.5.3zm41.6-2.9c-.4-.3-.4-.3.2-.3.4 0 1 .1 1.2.3.5.3.4.4-.1.4-.4 0-1-.2-1.3-.4zm-27-.9c-2.3-1.2-2.7-2.1-1.8-4 1.1-2 4.4-3.5 8.2-3.5 1.7 0 4.7.7 4.5 1.1v.2c.2 0 .8.5 1.5 1 .7.7 1.4 1.2 1.6 1.2.2 0 .3.1.3.3 0 .2-.4.1-1-.1-.5-.3-1.5-.6-2.1-.8L84 202l1.3 1c.6.7 1.5 1.3 1.8 1.4.7.2 2.4 1.7 2.4 2 0 .1-.3.4-.7.6-.5.2-1 .2-2.2-.2-2.6-1-8-.8-10.9.3-.3.2-1 0-1.6-.3zM60 201.2l1.2-.3c.8-.2.9-.2.5 0-.5.4-2 .6-1.7.3zm32.8-1c0-.1.3-.3.7-.4.3 0 .6 0 .5.2-.2.3-1.2.4-1.2.2zm1.7-.7.6-.7c.6-.4.6-.4.2.2-.5.6-.8.8-.8.5zM69 196.9h1c.2 0 0 .2-.5.2s-.7-.1-.5-.2zm13.9-6.5a4 4 0 0 0 1.5-1c.7-.6.7-.5.2.3-.4.6-1 1-1.6 1-1 0-1 0-.1-.3z" style="fill:#b96a89;stroke-width:.352778" transform="translate(-44.5 -173.2)"/>
  <path d="M76.1 237c-3.3-.5-7.6-1.6-10.6-3a23 23 0 0 1-13.7-14.2c-1-2.6-1-3.7-.1-1.7 1 2.6 2 3.9 4.6 6.6 2 2 3 2.8 3.6 2.8.5 0 1 .2 1.1.5.1.3.5.4.9.3.4-.1 1 0 1.2.4 1.4 1.3 8.6 3.5 10.2 3 .5 0 .7 0 .5.3-.1.2.5.4 1.7.5 1.9.2 2.5.2 4.4-.2.7-.2 1.3-.2 1.7.1.6.6 6.4.2 9.3-.5l3.4-.7a8 8 0 0 0 2.3-1c.5-.3 1.3-.6 1.6-.6.4 0 .8-.3 1-.5 0-.3.3-.6.5-.6s.7-.3 1-.7c.5-.4 1-.7 1.3-.7.3 0 .5-.2.5-.5s.2-.5.5-.5c.6 0 2-1.7 2-2.4 0-.2.2-.6.5-.7.7-.3 0-2-1-2.5l-.7-.4h.8a6 6 0 0 1 2 .4c1.4.7 2.7.2 4.4-1.7 1.3-1.5 1.3-1.3 0 2.3-3.3 8.5-11.3 14-23.2 15.7-3.7.6-8 .6-11.7.2zm5.5-7.7h2.9c.7.1 0 .2-1.5.2-1.6 0-2.2-.1-1.4-.2zm5.7-.3h.7c0 .1-.1.2-.5.2s-.5-.1-.2-.2zm1.8-.4h.6c.2.2 0 .3-.4.2-.4 0-.5 0-.2-.2zm-17-2a1 1 0 0 1-.3-.7c0-.2.2-.2.5 0 .2.3.3.6.2.7H72zm-2.4-1.8a32 32 0 0 0-8-3.7c-1.5-.6-2.4-1-2-1 1.5 0 4.6.7 6.3 1.6 1.6.8 5.5 3.6 5.5 3.9 0 .3-.7 0-1.8-.8zm4.4-18c-1.9-1-2.3-1.6-1.9-3 .2-.7.6-1.5 1-1.8a12.7 12.7 0 0 1 11.4-2c.2 0 .3 0 .2.2 0 .2 0 .3.2.3s.8.6 1.5 1.2 1.4 1 1.6 1c.2 0 .3.2.3.4s-.4.1-1-.1c-.5-.3-1.5-.6-2.1-.8L84 202l1.3 1c.6.7 1.5 1.3 1.8 1.4.7.2 2.4 1.7 2.4 2 0 .1-.3.4-.7.6-.5.2-1 .2-2.2-.2-2.6-1-8-.8-10.9.3-.3.2-1 0-1.6-.3zm8.3-16.3h.6c.2.2 0 .3-.4.2-.4 0-.5 0-.2-.2z" style="fill:#c36d76;stroke-width:.352778" transform="translate(-44.5 -173.2)"/>
  <path d="M76.1 237c-3.3-.5-7.6-1.6-10.6-3a23 23 0 0 1-13.7-14.2c-1-2.6-1-3.7-.1-1.7 1 2.6 2 3.9 4.6 6.6 2 2 3 2.8 3.6 2.8.5 0 1 .2 1.1.5.1.3.5.4.9.3.4-.1 1 0 1.2.4 1.4 1.3 8.6 3.5 10.2 3 .5 0 .7 0 .5.3-.1.2.5.4 1.7.5 1.9.2 2.5.2 4.4-.2.7-.2 1.3-.2 1.7.1.6.6 6.4.2 9.3-.5l3.4-.7a8 8 0 0 0 2.3-1c.5-.3 1.3-.6 1.6-.6.4 0 .8-.3 1-.5 0-.3.3-.6.5-.6s.7-.3 1-.7c.5-.4 1-.7 1.3-.7.3 0 .5-.2.5-.5s.2-.5.5-.5c.6 0 2-1.7 2-2.4 0-.2.2-.6.5-.7.4-.1.4-.4.1-1.2-.2-.6-.5-1-.7-1-.3 0-.3-.1 0-.4.3-.3.7-.2 1.6.1 1.6.7 2.8.2 4.5-1.7 1.3-1.5 1.3-1.3 0 2.3-3.3 8.5-11.3 14-23.2 15.7-3.7.6-8 .6-11.7.2zm-6.4-12.2c-1.4-1-4-2.3-7.4-3.6l-2.3-.8 1.8.2c2 .2 6.1 2.1 8.1 3.8 1.7 1.5 1.5 1.7-.2.4zm3.8-18.5c-1.3-.8-1.7-1.2-1.5-1.7.2-.3.3-.8.3-1 .4-1.8 3.4-3.6 6.7-4h2c0 .3.2.3.4.2.2-.1.4 0 .5.3.2.3.4.5.5.4.2-.1.4 0 .5.3.1.3.5.6.7.6.3 0 .5 0 .5.2-.1.4 2.2 2.5 3 2.8.7.2 2.4 1.7 2.4 2 0 .7-1.7.8-3 .3a20 20 0 0 0-10.8.4c-.3.2-1.3-.2-2.2-.8zm8.9-15.8h.6c.2.2 0 .3-.4.2-.4 0-.5 0-.2-.2z" style="fill:#ea971a;stroke-width:.352778" transform="translate(-44.5 -173.2)"/>
  <path d="M76.1 237c-9.8-1.3-18.6-6.2-22.2-12.4a27 27 0 0 1-2.6-6.5c-.2-1-.2-.9.5.4 2 3.7 2.5 4.3 4.8 6.6 1.7 1.6 2.7 2.4 3.4 2.4.4 0 1 .2 1 .5.1.3.5.4.9.3.4-.1 1 0 1.2.4 1.4 1.3 8.6 3.5 10.2 3 .5 0 .7 0 .5.3-.1.2.5.4 1.7.5 1.9.2 2.5.2 4.4-.2.7-.2 1.3-.2 1.7.1.6.6 6.4.2 9.3-.5l3.4-.7a8 8 0 0 0 2.3-1c.5-.3 1.3-.6 1.6-.6.4 0 .8-.3 1-.5 0-.3.4-.6.8-.6s.9-.2 1.1-.5c.3-.3.8-.5 1.1-.5.4 0 .6-.2.5-.5-.2-.4 0-.5.6-.4.4 0 1 0 1.2-.4.3-.5.5-.5.7-.2.2.3.4.3 1-.2.5-.5.6-.5.4 0-.3.6.3.8.7.3.1-.2.4-.4.6-.4.7 0-2 3.3-3.9 4.8a40 40 0 0 1-27.9 6.5zm-6.4-12.2c-1.4-1-4-2.3-7.4-3.6l-2.3-.8 1.8.2c2 .2 6.1 2.1 8.1 3.8 1.7 1.5 1.5 1.7-.2.4zm35.4-4c-1-.6.2-.8 1.4-.3l1.1.6h-1c-.6 0-1.3-.1-1.5-.3zm-31.6-14.5c-1.3-.8-1.7-1.2-1.5-1.7.2-.3.3-.8.3-1 .4-1.8 3.4-3.6 6.7-4h2c0 .3.2.3.4.2.2-.1.4 0 .5.3.2.3.4.5.5.4.2-.1.4 0 .5.3.1.3.5.6.7.6.3 0 .5 0 .5.2-.1.4 2.2 2.5 3 2.8.7.2 2.4 1.7 2.4 2 0 .7-1.7.8-3 .3a20 20 0 0 0-10.8.4c-.3.2-1.3-.2-2.2-.8zm8.9-15.8h.6c.2.2 0 .3-.4.2-.4 0-.5 0-.2-.2z" style="fill:#cb932a;stroke-width:.352778" transform="translate(-44.5 -173.2)"/>
  <path d="M75.3 236.8c-11.7-1.9-20.2-7.7-23-15.7-.9-2.4-.7-2.4.6 0 .6 1.2 1.6 2.7 2.2 3.2A25.4 25.4 0 0 0 66 231c.3 0 .9.3 1.3.7.7.8 2.8 1 2.8.3 0-.3.3 0 .7.5.5.6 1 1 1.7 1 .6 0 1.5.1 2.1.4.7.2 1.3.2 1.4 0 .3-.3 1.9-.4 6.4-.4h4.2c2.3 0 3.8-.1 4.1-.4.6-.5 2.2-.7 2.4-.3 0 .2.7 0 1.5-.4l1.8-.7c.2 0 .7-.4 1.1-.9.4-.5 1-.9 1.2-.9.3 0 .7-.3 1-.7.2-.4.7-.7 1-.7.5 0 .8-.2.8-.5s.2-.4.4-.3c.3 0 .7 0 1-.4.2-.3.6-.5.7-.4.2.2.5-.1.7-.5.3-.6.5-.7.8-.4.3.3.6.2 1-.2.7-.6.7-.6.5 0-.3.6.3.8.7.3.1-.2.4-.4.6-.4.6 0-1.7 3-3.4 4.4a38 38 0 0 1-29.2 6.7zm25.4-7.4c-.1-.1-.4-.2-.7 0-.3 0-.2.1.2.2.4 0 .6-.1.5-.2zM65 221.8c-.6-.4-1-.7-.8-.7.1 0 .9.3 1.5.7l1 .7a5 5 0 0 1-1.7-.7zm40.2-1.2c-.4-.6-.2-.6 1-.2.5.2.5.3 0 .5-.3 0-.7 0-1-.3zm-31.1-13.9c-.7-.3-1-.7-.8-1.2.1-.5 0-.6-.3-.2-.7.5-1.4 0-1-.7l.2-1c.4-1.8 3.4-3.6 6.7-4h2c0 .3.2.3.4.2.2-.1.4 0 .5.3.2.3.4.5.6.4.1-.2.3 0 .3.1 0 .3.3.6.8.7.6.3.4.4-1 .4-2 0-2.4.4-1.2 1.2 1 .7 1.5.7 1.2.2a61.2 61.2 0 0 0 3 1.1c1 .4 1.8 1 1.8 1 0 .2.4.5 1 .7.8.4.8.5.3 1-.5.3-1 .3-2.1-.2-2-.7-7.7-.7-9.9 0-1.4.5-1.7.5-2.5 0zm1.3-2.9c.2-.2-.1-.3-.6-.3-.6 0-.7 0-.2.3.6.5.6.5.8 0zm4.2-1.6c0-.2-.3-.4-.5-.3-.2.2-.2.4.1.6.6.4.7.4.4-.3zm2.7-11.7h.6c.2.2 0 .3-.4.2-.4 0-.5 0-.2-.2z" style="fill:#b46072;stroke-width:.352778" transform="translate(-44.5 -173.2)"/>
  <path d="M75.3 236.8c-11.7-1.9-20.2-7.7-23-15.7-.9-2.4-.7-2.4.6 0 .6 1.2 1.6 2.7 2.2 3.2A25.4 25.4 0 0 0 66 231c.3 0 .9.3 1.3.7.7.8 2.8 1 2.8.3 0-.3.3 0 .7.5.5.6 1 1 1.7 1 .6 0 1.5.1 2.1.4.7.2 1.3.2 1.4 0 .3-.3 1.9-.4 6.4-.4h4.2c2.3 0 3.8-.1 4.1-.4.6-.5 2.2-.7 2.4-.3 0 .2.7 0 1.5-.4l1.8-.7c.2 0 .7-.4 1.1-.9.4-.5 1-.9 1.2-.9.3 0 .7-.3 1-.7.2-.4.7-.7 1-.7.5 0 .8-.2.8-.5s.2-.4.4-.3c.3 0 .7 0 1-.4.2-.3.6-.5.7-.4.2.2.5-.1.7-.5.3-.6.5-.7.8-.4.3.3.6.2 1-.2.7-.6.7-.6.5 0-.3.6.3.8.7.3.1-.2.4-.4.6-.4.6 0-1.7 3-3.4 4.4a38 38 0 0 1-29.2 6.7zm25.4-7.4c-.1-.1-.4-.2-.7 0-.3 0-.2.1.2.2.4 0 .6-.1.5-.2zM65 221.8c-.6-.4-1-.7-.8-.7.1 0 .9.3 1.5.7l1 .7a5 5 0 0 1-1.7-.7zm9.1-15c-.5-.3-1-.8-1-1.2-.3-.8.9-2 1.6-1.7.3.2.6.1.8 0 0-.3 0-.4-.3-.4s-.2-.2.2-.4c.3-.2.7-.3 1-.2.1.2.3.1.3 0 0-.5 2-.8 2.6-.4.4.2.5.2.3-.2-.3-.9.5-.7 1.5.3.8.9 1.8 1.2 1.4.5a61.2 61.2 0 0 0 3 1.1c1 .4 1.8 1 1.8 1 0 .2.4.5 1 .7.8.4.8.5.3 1-.5.3-1 .3-2.1-.2-2-.7-7.7-.7-9.9 0-1.3.5-1.7.5-2.5 0z" style="fill:#ce881c;stroke-width:.352778" transform="translate(-44.5 -173.2)"/>
  <path d="M75.3 236.8c-9.8-1.6-17.1-5.7-21-11.7-1.1-1.8-2.4-4.3-2.1-4.3 0 0 .7.7 1.3 1.6.7 1 1.6 2 2.1 2.4a30 30 0 0 1 2 1.8c1.2 1.2 7.3 4.4 8.4 4.4.3 0 .9.3 1.3.7.7.8 2.8 1 2.8.3 0-.3.3 0 .7.5.5.6 1 1 1.7 1 .6 0 1.5.1 2.1.4.7.2 1.3.2 1.4 0a89.1 89.1 0 0 1 10.4-.4c1.1.2 2.1.1 2.2 0 .1-.2.5-.2.9-.1.4 0 .9 0 1.1-.2.7-.5 2.3-.8 2.5-.4 0 .2.7 0 1.5-.4s1.6-.7 1.9-.7c.3 0 .7-.3.9-.6.4-.5.5-.5 1 0 .3.4.6.5.6.3s.6-.6 1.3-1c.8-.3 1.6-.9 2-1.1.5-.5 2.6-1 2.2-.5-.1.1 0 .4.2.7.3.3.3.4-.2.4-.3 0-.7.3-.9.7-.8 1.5-9.3 5.1-14.3 6-3.5.7-10.6.8-14 .2zm-10.9-15.3c-.3-.2-.3-.4-.1-.4l.8.4c.3.2.4.3.2.3l-.9-.3zm9.8-14.7c-.5-.3-1-.8-1-1.2-.3-.8.9-2 1.6-1.7.3.2.6.1.8 0 0-.3 0-.4-.3-.4s-.2-.2.2-.4c.3-.2.7-.3 1-.2.1.2.3.1.3 0 0-.5 2-.8 2.6-.4.4.2.5.2.3-.2-.3-.9.5-.7 1.5.3.8.9 1.8 1.2 1.4.5a61.2 61.2 0 0 0 3 1.1c1 .4 1.8 1 1.8 1 0 .2.4.5 1 .7.8.4.8.5.3 1-.5.3-1 .3-2.1-.2-2-.7-7.7-.7-9.9 0-1.3.5-1.7.5-2.5 0z" style="fill:#ba8424;stroke-width:.352778" transform="translate(-44.5 -173.2)"/>
  <path d="M78.4 237.1c-10.2-1.2-15.9-3.5-21.1-8.5a21.8 21.8 0 0 1-4.5-6.2c0-.2.6.5 1.4 1.5.7 1 2 2 2.6 2.5.7.4 1.3.9 1.3 1 0 .6 4.4 3.4 5.4 3.5.6 0 1.1.2 1.3.5.1.2.6.3 1 .2.4-.1.7 0 .7.1 0 .2.8.6 1.7.9 1 .3 2.3.9 3.1 1.3.9.4 1.7.6 2.1.4.5-.2.6-.1.4.2-.3.5 1.7.4 7-.3a10 10 0 0 1 3.1 0c.9.5 5.5.4 5.8 0 .1-.3.4-.3.7-.2.3 0 .4 0 .3-.2-.1-.2.2-.2.9-.1.6.1 1.3 0 1.5-.2a6 6 0 0 1 2-.6c1-.1 1.7-.4 1.8-.6.3-.4.8-.5 2.2-.7.3 0 .6-.2.6-.3 0-.2.2-.3.4-.1.1 0 .8-.2 1.4-.6.8-.6 1-.7 1.6-.3.4.4.4.5-.2 1-.4.2-.9.3-1.1.2-.3-.2-.3-.1-.2.2.4.6-5.6 3.3-9.3 4.2-5 1.2-10.1 1.7-14 1.2zm-4.2-30.3c-1-.6-.9-1 .9-1.9.5-.3 1-.7 1-1 0-.3.1-.4.6-.1.4.2.8.3.9.2.3-.3 3.4-.5 3.4-.2 0 .2.4.3 1 .3 1.6 0 2.2.2 2.2.5 0 .2.4.3.9.3s.8.1.7.3c-.1.2 0 .4.4.4s.8.2 1 .5c0 .3.4.6.7.6.4 0 .5 0 .4.2l-2.9-.4c-3-.7-6.4-.6-8.9.3-1.1.4-1.5.4-2.3 0z" style="fill:#b27925;stroke-width:.352778" transform="translate(-44.5 -173.2)"/>
  <path d="M78 237a34 34 0 0 1-20.7-8.4c-3.3-3.4-3.8-4.5-1-2.4a21 21 0 0 1 2.3 2c.6 1 3.8 2.7 7.4 4l5.8 2c2 .8 4 .9 11 .6 2.2 0 4.3 0 4.7.2.5.2.6.2.4-.2-.2-.3-.1-.3.2-.2.8.3 4.7-.6 8.3-1.8a105.5 105.5 0 0 1 4.2-1.5c.2-.1.5 0 .8.2.6.7-4.4 3-8.9 4.2-2.7.8-10.6 1.8-11.5 1.6l-3-.3zm23.5-6c0-.2.1-.3.3-.2l.4.4-.4.1c-.2 0-.3-.1-.3-.3zm-27.1-24.2c-.7-.3-.5-.7.3-1 .4 0 .6 0 .5.3l.5-.5c.3-.5.9-.9 1.1-1 .3 0 .9-.1 1.3-.3.5-.1.8 0 .8.2 0 .3.2.2.6-.2.4-.4.6-.4.7-.2.1.3.5.4 1 .4 1.3 0 2.3.5 2.3 1 0 .3-.6.4-2 .5-1.2 0-3 .2-4 .5-2 .5-2.4.6-3.1.3zm3.7-2.1c0-.1-.3 0-.4.4-.2.5-.2.6.2.2.2-.2.3-.5.2-.6zm8.4 2c-.5-.2-.5-.4-.2-.4s.8.2 1 .4c.7.4.2.4-.8 0zM84 206c-.3-.6.3-.7 1-.2.7.5.7.5 0 .5-.4 0-.9-.1-1-.3z" style="fill:#ab7119;stroke-width:.352778" transform="translate(-44.5 -173.2)"/>
</svg>