<svg xmlns="http://www.w3.org/2000/svg" width="277.3" height="277.3" viewBox="0 0 73.4 73.4">
  <path d="M44.4 210v-36.6h73.3v73.4H44.4Z" style="fill:#fefefe;stroke-width:.352778" transform="translate(-44.5 -173.2)"/>
  <path d="M77.3 244.4c-.9-.7-1.5-1.4-1.5-1.6 0-.2.6-1.7 1.4-3.2l1.5-2.8-.9-.8-6.6-5.4c-5.4-4.4-5.8-4.6-6.2-4-.6.9-3.8 2.9-4.5 2.9-.3 0-1.1-.5-1.8-1l-1.1-1 3-5.8a25 25 0 0 0 2.6-6 24 24 0 0 1-6.9-5.8c-1.4-.5-3.8-2.4-3.8-3 0-1 .6-2 1.4-2.5.5-.3 1.3-.2 2.7 0l2 .5 6-2.4 6.2-2.4.9-2.5a91.1 91.1 0 0 0 3.7-15.7 44 44 0 0 1 1.1-5.8c.4-.7 1.4-1.3 2.3-1.3 1 0 4 1.5 4.2 2.1.1.3.8.9 1.5 1.2l8.4 3.5c5 2.1 7.4 3 8.1 2.8 1.2-.1 4.9 1.4 5.2 2.1.2.6-1.8 9-3.4 14.2-1.4 4.3-4.4 12-7 17.3-1.2 2.7-1.8 4.4-1.6 4.4l4.4.5c3 .4 4.3.8 5.5 1.5 1 .6 1.6 1.1 1.6 1.3 0 0-.8 1-1.8 1.9l-1.8 1.6-4.6-.2-5.7-.4c-1-.2-1-.2-4.6 6.5-3.4 6.7-5 8.9-7.3 10.2-1 .5-1 .6-2.6-.9zm4.9-14.4 1-1.9-.8-.2a8 8 0 0 0-1.7-.2c-.6 0-1.9-.7-3.3-1.7a9.6 9.6 0 0 0-2.5-1.6c0 .1-1.5-.9-3.2-2.2-3-2.2-3.1-2.3-3.6-1.7l-.4 1c0 .4 13 10.4 13.4 10.4 0 0 .6-.8 1-1.9zm5.7-11.3 1.2-2.5-4 2.3-3.8 2.3 1.4.3c.7 0 2 .2 2.7.1 1.4 0 1.4 0 2.5-2.5zm5.7-14.8c-.5-.5-14-8-14.3-8-.2 0-.7 1.2-.7 1.9A37.3 37.3 0 0 1 92 205l1.2 1 .4-.9c.4-.7.4-1 0-1.3zm3.2-9.8c1-4.2 1-4.8 0-4.8-.5 0-2.5 8.3-2.1 8.8 0 .2.4.3.6.3.4 0 .9-1.4 1.5-4.3zm-7.7-3.6c.8-3.6.8-4.8.2-4.8-.3 0-1.9 7.3-1.9 8.5 0 .2.2.4.4.3.3-.1.9-1.9 1.3-4zm-7.7.4.7-3.8c.8-4 .8-4.5.5-4.5-.2 0-.6 1.5-1 3.4l-.8 4.2c-.1.5 0 .8.2.8h.4z" style="fill:#afd0e3;stroke-width:.352778" transform="translate(-44.5 -173.2)"/>
  <path d="M77.3 244.4c-.9-.7-1.5-1.4-1.5-1.6 0-.2.6-1.7 1.4-3.2l1.5-2.8-.9-.8-6.6-5.4c-5.4-4.4-5.8-4.6-6.2-4-.6.9-3.8 2.9-4.5 2.9-.3 0-1.1-.5-1.8-1l-1.1-1 3-5.8a25 25 0 0 0 2.6-6 24 24 0 0 1-6.9-5.8c-1.4-.5-3.8-2.4-3.8-3 0-2.1 1.4-3 4-2.5 1.6.4 1.9.5 1.7 1-.3 1.2 1 1.6 2.6.8a451 451 0 0 1 16.7-7.1c0-.2-.1-.3-.3-.2-.2.2-.4 0-.5-.1 0-.4-1.2-.2-5.1 1l-.8.1.9-2.3a90.8 90.8 0 0 0 3.7-15.8c.4-2.7 1-5.3 1.1-5.7.4-.7 1.4-1.3 2.3-1.3 1 0 4 1.5 4.2 2.1.1.3.8.9 1.5 1.2l8.4 3.5c5 2.1 7.4 3 8.1 2.8 1.2-.1 4.9 1.4 5.2 2.1.2.6-1.8 9-3.4 14.2-1.4 4.3-4.4 12-7 17.3-1.2 2.7-1.8 4.4-1.6 4.4l4.4.5c3 .4 4.3.8 5.5 1.5 1 .6 1.6 1.1 1.6 1.3 0 0-.8 1-1.8 1.9l-1.8 1.6-4.6-.2-5.7-.4c-1-.2-1-.2-4.6 6.5-3.4 6.7-5 8.9-7.3 10.2-1 .5-1 .6-2.6-.9zm4.9-14.4 1-1.9-.8-.2a8 8 0 0 0-1.7-.2c-.6 0-1.9-.7-3.3-1.7a9.6 9.6 0 0 0-2.5-1.6c0 .1-1.5-.9-3.2-2.2-3-2.2-3.1-2.3-3.6-1.7l-.4 1c0 .4 13 10.4 13.4 10.4 0 0 .6-.8 1-1.9zm5.7-11.3 1.2-2.5-4 2.3-3.8 2.3 1.4.3c.7 0 2 .2 2.7.1 1.4 0 1.4 0 2.5-2.5zM69.5 213c.1 0-.1-.6-.5-1.2-.6-.8-.9-1-1.5-.6s-.6.4.4 1.2c1 .9 1.3 1 1.6.6zm1.3-2.6c.2 0 1-.4 1.5-.8 1.3-1.2 1-1.2-1.5 0-1.4.6-2 1-1.7 1.2.3.2.6.2.8 0 .2-.2.6-.4.9-.4zm1.4-4.5a46.9 46.9 0 0 0 8.9-4.7c.4 0 .4 0 0-.3-.3-.4-.8-.4-2.8.3-3.2 1.2-14.5 6-15.5 6.6l-.9.6 1 .7 1 .6 8.3-3.8zm21.4-2c-.5-.5-14-8-14.3-8-.2 0-.7 1.2-.7 1.9l2.2 1c3.4 1.2 7.2 3.3 10 5.4l2.4 2 .4-1c.4-.7.4-1 0-1.3zm3.2-9.8c1-4.2 1-4.8 0-4.8-.5 0-2.5 8.3-2.1 8.8 0 .2.4.3.6.3.4 0 .9-1.4 1.5-4.3zm-7.7-3.6c.8-3.6.8-4.8.2-4.8-.3 0-1.9 7.3-1.9 8.5 0 .2.2.4.4.3.3-.1.9-1.9 1.3-4zm-7.7.4.7-3.8c.8-4 .8-4.5.5-4.5-.2 0-.6 1.5-1 3.4l-.8 4.2c-.1.5 0 .8.2.8h.4z" style="fill:#f5cba1;stroke-width:.352778" transform="translate(-44.5 -173.2)"/>
  <path d="m77 244-1.4-1.2 1.6-3 1.7-3.1-6.7-5.5c-6.6-5.2-6.8-5.4-7.3-4.7-.8 1-3.8 3-4.4 3-.2 0-1-.5-1.6-1l-1.2-1 2.9-5.5a71 71 0 0 0 2.8-5.8c0-.2-1.4-1.4-3.1-2.6-2-1.4-3.2-2.5-3.2-3 0-.3-.5-.7-1-.9-1.2-.4-3.6-2.4-3.6-2.9 0-.2.5 0 1.2.6l1.3 1 1-1.1.7-1-1.3-1-1.3-.9h1c2.2 0 3.3.4 3.1 1.1-.3 1.1 1 1.5 2.6.7a451 451 0 0 1 16.7-7.1c0-.2-.1-.3-.3-.1-.2 0-.4 0-.4-.2 0-.5-1.8-.2-4 .6-.8.2-1.4.4-1.5.3l.8-2.7a87.1 87.1 0 0 0 3.5-15.3c.3-2.5.8-5 1-5.4.6-.8.6-.8 2-.2 1.1.4 1.6.5 2.3.2.8-.4 1-.3 1.8.6.6.6 2.7 1.7 5.4 2.8l8.4 3.6c2.5 1 4.3 1.6 5 1.5 1-.1 3.5.8 3.5 1.3 0 .2.3.3.6.3.7 0 .6 1-.2 4.4a140.3 140.3 0 0 1-9.4 26.7c-2.6 5.5-2.9 5 2.8 5.6 2.8.3 3.9.6 5 1.4 1 .5 1.6 1.1 1.6 1.3 0 .3-.8 1.1-1.9 2l-1.8 1.4-3.2-.2-5.5-.4-2.3-.3-3.7 7c-3 5.8-4 7.2-5.4 8.5-1 .9-2 1.6-2.5 1.5-.4 0-1.3-.5-2.1-1.2zm6.2-15.8c0-.3-.6-.5-1.6-.5-1.4 0-2-.2-3.7-1.5a9.2 9.2 0 0 1-2.1-1.7c0-.2-.4-.3-.7-.3-.4 0-2-1-3.6-2.2-2.7-2.1-2.9-2.2-3.4-1.5l-.5 1c0 .3 3.1 2.8 6.8 5.6l6.8 5.2 1-1.9 1-2.2zm-2.9-3.5c.4-.4.3-.5-.4-.9l-1-.6c0-.2-.6-.5-1-.9-1-.5-1-.5-1.6 0-.8.8-.7.9 1 2 1.7 1 2.4 1.2 3 .4zm7-4.7 1.4-2.8.5-1.2-1.7 1-6.4 3.8 2.5.5 2.8.4 1-1.7zm-17.8-7c.1 0-.1-.6-.5-1.2-.6-.8-.9-1-1.5-.6s-.6.4.4 1.2c1 .9 1.3 1 1.6.6zm1.3-2.6c.2 0 1-.4 1.5-.8 1.3-1.2 1-1.2-1.5 0-1.4.6-2 1-1.7 1.2.3.2.6.2.8 0 .2-.2.6-.4.9-.4zm-12.3-.4c-.4-.4-.8-.6-1-.5-.1.2 0 .5.4.8 1 .7 1.4.6.6-.3zm13.7-4.1a46.9 46.9 0 0 0 8.9-4.7c.4 0 .4 0 0-.3-.3-.4-.8-.4-2.8.3-3.2 1.2-14.5 6-15.5 6.6l-.9.6 1 .7 1 .6 8.3-3.8zm21.7-1.1c.2-.8-.2-1.1-7.3-5l-7.5-4.2-.4 1.2-.4 1.1 2.6 1c3.6 1.3 7 3.1 9.9 5.3 1.3 1.1 2.5 1.9 2.7 1.7l.4-1.1zm3.2-11.1c.9-3.9.8-4.4-.4-4.4-.3 0-2.3 7-2.2 8.3 0 .3.2.6.6.8.8.5.9.2 2-4.7zm-8.4 3.6a48.2 48.2 0 0 0-9-4.4l9.8 5.2c.1 0-.2-.4-.8-.8zm0-4.4 1.2-3.1c.6-1.3.7-1.3.5-.4-.3 1.4.3.8.7-.6.2-.8.1-1-.3-.8-.5.2-1-.5-1-1.6 0-.4-.2-.7-.5-.7-.2 0-.5.2-.5.3l-.8 4.3c-.7 3-.8 4.1-.5 4.3.6.4.9 0 1.3-1.7zm-6.6-4.8c.4-1.6.7-2.5.7-2 0 .7.1.7.6.3.3-.2.5-.3.5-.1-.2.7 0 1.2.3 1 .2 0 .4 0 .5.2.1.6 1.3-.6 1.3-1.3 0-.4-.6-.9-1.6-1.3-1.3-.5-1.6-.8-1.6-1.5 0-.5-.1-.8-.3-.8-.4 0-2 7.6-1.6 8.3.3 1 .6.3 1.2-2.8zm2 .1c0-.2 0-.3-.2-.3s-.4.1-.4.3c0 .2 0 .4.2.4l.4-.4zm9.3-4.5c0-.8-10-5.2-11.3-5-.6.2 2.7 2 7.2 4 3.3 1.3 4.1 1.5 4.1 1z" style="fill:#e5b58a;stroke-width:.352778" transform="translate(-44.5 -173.2)"/>
  <path d="m77.2 244-1.5-1.2 1.7-3c1.3-2.5 1.5-3 1.1-3.5l-6.8-5.5-6.3-5.1-1 1.1c-.5.6-1.6 1.5-2.5 2l-1.6.8-1.1-1c-1.2-1.2-1.3-1.5-.5-3 .7-1.1 1.8-1.8 1.4-.9-.4 1 .4.6 1.2-.6l1.3-2c.4-.5.6-1.6.6-3.5l.1-2.8-3.1-2.3a12.6 12.6 0 0 1-3.1-2.9c0-.3-.6-.7-1.2-1l-2.2-1.5c-.7-.6-.8-.8-.3-.5.5.2.9.5 1 .7.4.6.7.4 1.6-.8l.8-1-1.2-1c-1-1-1-1-.4-1 1.7 0 3 .4 3 1 0 1.2 1 1.5 2.6.7a451 451 0 0 1 16.7-7.1c0-.2-.1-.3-.3-.1-.2 0-.4 0-.4-.2 0-.4-2.2-.3-4 .3-.7.3-1.4.4-1.4.3a11 11 0 0 1 1-3c.6-1.5 1-3 1-3.2-.1-.2 0-.4.3-.4.2 0 .3-.2.2-.5-.1-.3 0-.8.3-1.2.5-.7 1.7-6.3 1.4-6.8-.3-.4.5-6.5.9-7.6.4-1 1-1 2.5-.3.9.5 1.2.5 1.9.2 1-.5 2-.3 2 .4 0 .3.5.8 1.2 1.1 1.7.8 1.3 1.1-.8.6-2.9-.7-2.4-.1 1.7 2.1a31 31 0 0 0 9.8 3.5c.3-.1-.2-.6-1.4-1.2-1.5-.9-2.3-1.6-1.6-1.6a62.4 62.4 0 0 1 10 4.5c1.4.6 2.3.7 3.1.6 1.5-.3 1.5-.4-.3 6.7-2.3 9.1-5.9 18.8-9.7 26.4-.7 1.4-1 2.6-1 2.7.3.2 2.2.5 4.4.7 3.2.4 4.3.6 5.5 1.4.9.5 1.6 1 1.6 1.3 0 .2-.8 1-1.8 1.9l-1.8 1.4-3.8-.2-5.6-.3h-1.9l-3.6 6.9c-3.2 6-3.9 7-5.5 8.4-1 .8-2 1.5-2.3 1.5-.3 0-1.2-.6-2-1.3zm4-6.1c0-.3-.1-.2-.1.2s0 .6.2.5v-.7zm2-9.7c0-.3-.5-.5-1.5-.5-1.7 0-2.4-.3-4.6-2.1a6.6 6.6 0 0 0-2.2-1.4 7 7 0 0 1-2.2-1.3l-3-2.4-1.3-1-.5 1c-.7 1.4-1 1 7.1 7.2l6.2 4.7 1-2 1-2.2zm-10.1-.8a79 79 0 0 0-7.4-5.7c-.5 0 0 .4 3.9 3.3 3.2 2.5 4.4 3.3 3.5 2.4zm7.3-2.2c.9-1.2.7-1.6-1.8-3l-1.5-1-.9 1c-.4.6-.8 1.1-.7 1.3.1.5 3.2 2.8 3.7 2.8.2 0 .7-.5 1.2-1zm-18-.7c.2-.3.3-.7.2-.7l-.6.7-.2.7.6-.7zm12-2.6c.2-.2-.9-1-2.3-2A295.5 295.5 0 0 1 57.6 209s-.2.3-.2.7c0 .5 1.9 2 6.3 5.2l8 5.8c1.8 1.3 2.3 1.6 2.7 1.2zM88 219l1.2-2.8s-2 1-4 2.3a31.3 31.3 0 0 0-3.9 2.4l5 .8c.2 0 1-1.2 1.7-2.7zm-18.4-6c.1 0-.1-.6-.5-1.2-.6-.8-.9-1-1.5-.6s-.6.4.4 1.2c1 .9 1.3 1 1.6.6zm1.3-2.6c.2 0 1-.4 1.5-.8 1.3-1.2 1-1.2-1.5 0-1.4.6-2 1-1.7 1.2.3.2.6.2.8 0 .2-.2.6-.4.9-.4zm1.4-4.5a46.9 46.9 0 0 0 8.9-4.7c.4 0 .4 0 0-.3-.3-.4-.8-.4-2.8.3-3.2 1.2-14.5 6-15.5 6.6l-.9.6 1 .7 1 .6 8.3-3.8zm22-1.5c0-.4-2.5-1.9-7.4-4.6l-7.5-4.1c-.3-.1-1.2 2-1 2.2l2.4.9a38 38 0 0 1 10 5.4c2.3 1.8 2.6 2 3 1.4l.4-1.2zm2.2-7.5c.3-1 .8-3 1-4.5.6-2.4.6-2.6 0-3-.7-.5-1.2-.6-1.2-.2l-1 4.6c-1 3.9-1 4.3-.4 4.6 1 .6 1 .5 1.6-1.5zm-5.8 1.4c0-.6-12-6.8-12.3-6.4a59.6 59.6 0 0 0 12.3 6.4zm-2.1-4c0-.2.1-.4.3-.4.2 0 .5-.6.8-1.3.4-1.2.8-1.5 1.2-.9 0 .2.4.3.6.2.2-.2.3 0 .1.6-.2.8-.2.8.3.1.5-.6.5-.6.6 0 0 .5.2.3.6-.6 1.2-2.4 1.2-2.7-.2-3.4-1.6-.7-2.6-1.5-2.6-2 0-.3-.3-.6-.6-.8-.6-.3-.7 0-1.6 4-.7 3.6-.9 4.6-.5 4.8.7.4 1 .4 1-.2zm-6.7-4c0-.5.1-1.1.3-1.4.3-.4.4-.4.4 0 0 .8 1.2 2 1.5 1.5.1-.2.6-.3 1-.2.9.2 1 0 1.3-1.8.3-1.1.4-2.2.3-2.5-.1-.3-1-.8-2-1.2-1.2-.6-1.8-1-1.8-1.5 0-1.4-.7-.5-1 1.4l-1 4.1c-.3 1.6-.3 2.2 0 2.4.6.3 1 0 1-.9zM62.4 220l.3-1c.3-.7.3-.7.3 0 0 .5-.1 1-.3 1-.2.2-.3.1-.3 0z" style="fill:#92b2ca;stroke-width:.352778" transform="translate(-44.5 -173.2)"/>
  <path d="m77.2 244-1.5-1.2 1.7-3c1.3-2.5 1.5-3 1.1-3.5l-6.8-5.5-6.3-5.1-1 1.1c-.5.6-1.6 1.5-2.5 2l-1.6.8-1.1-1c-1.2-1.2-1.3-1.5-.5-3 .7-1.1 1.8-1.8 1.4-.9-.4 1 .4.6 1.2-.6l1.3-2c.4-.5.6-1.6.6-3.5l.1-2.8-3.1-2.3a12.6 12.6 0 0 1-3.1-2.9c0-.3-.6-.7-1.2-1l-2.2-1.5c-.7-.6-.8-.8-.3-.5.5.2.9.5 1 .7.4.6.7.4 1.6-.8l.8-1-1.2-1c-1-1-1-1-.4-1 .4 0 1.2 0 1.8.2.9.1 1.1.3 1 .8-.6 1.3-.6 1.6.2 2 .7.5.8.5 1.3-.2.6-.7 11.5-5.4 17.4-7.5 2.9-1 3.2-1 4.6-.7l1.5.5-2.1.6a275.6 275.6 0 0 0-18.6 7.7l-.5 1.1c-.1.7 0 1 .8 1.5 1 .5 1 .5 1.6-.2.5-.8 10.5-5.5 17.5-8.4 3.2-1.3 3.3-1.3 4.4-.8a40 40 0 0 1 6 4.4c1 .9 1 .9 1.5.2 1-1.4.7-1.8-6.8-5.9l-7.5-4.1c-.2 0-.5.4-.7 1.1-.4 1.1-.6 1.3-2 1.5-1 0-2.5.4-3.4.7l-1.8.4a11 11 0 0 1 1-3c.6-1.5 1-3 1-3.2-.1-.2 0-.4.3-.4.2 0 .3-.2.2-.5-.1-.3 0-.8.3-1.2.5-.7 1.7-6.3 1.4-6.8-.3-.4.5-6.5.9-7.6.4-1 1-1 2.5-.3.9.5 1.2.5 1.9.2 1-.5 2-.3 2 .4 0 .3.5.8 1.2 1.1 1.7.8 1.3 1.1-.8.6-2.9-.7-2.4-.1 1.7 2.1a31 31 0 0 0 9.8 3.5c.3-.1-.2-.6-1.4-1.2-1.5-.9-2.3-1.6-1.6-1.6a62.4 62.4 0 0 1 10 4.5c1.4.6 2.3.7 3.1.6 1.5-.3 1.5-.4-.3 6.7-2.3 9.1-5.9 18.8-9.7 26.4-.7 1.4-1 2.6-1 2.7.3.2 2.2.5 4.4.7 3.2.4 4.3.6 5.5 1.4.9.5 1.6 1 1.6 1.3 0 .2-.8 1-1.8 1.9l-1.8 1.4-3.8-.2-5.6-.3h-1.9l-3.6 6.9c-3.2 6-3.9 7-5.5 8.4-1 .8-2 1.5-2.3 1.5-.3 0-1.2-.6-2-1.3zm4-6.1c0-.3-.1-.2-.1.2s0 .6.2.5v-.7zm2-9.7c0-.3-.5-.5-1.5-.5-1.7 0-2.4-.3-4.6-2.1a6.6 6.6 0 0 0-2.2-1.4 7 7 0 0 1-2.2-1.3l-3-2.4-1.3-1-.5 1c-.7 1.4-1 1 7.1 7.2l6.2 4.7 1-2 1-2.2zm-10.1-.8a79 79 0 0 0-7.4-5.7c-.5 0 0 .4 3.9 3.3 3.2 2.5 4.4 3.3 3.5 2.4zm7.3-2.2c.9-1.2.7-1.6-1.8-3l-1.5-1-.9 1c-.4.6-.8 1.1-.7 1.3.1.5 3.2 2.8 3.7 2.8.2 0 .7-.5 1.2-1zm-18-.7c.2-.3.3-.7.2-.7l-.6.7-.2.7.6-.7zm12-2.6c.2-.2-.9-1-2.3-2A295.5 295.5 0 0 1 57.6 209s-.2.3-.2.7c0 .5 1.9 2 6.3 5.2l8 5.8c1.8 1.3 2.3 1.6 2.7 1.2zM88 219l1.2-2.8s-2 1-4 2.3a31.3 31.3 0 0 0-3.9 2.4l5 .8c.2 0 1-1.2 1.7-2.7zm-13.4-2.6 2.7-1.6c3.1-1.5 9.8-5.7 10.6-6.6.7-.7.8-1.3.5-1.3-.7 0-16.4 8.3-16.4 8.6 0 .9 2.2 1.6 2.6 1zm-5.2-3.1c.1-.2 4.5-2.4 9.5-5 5.1-2.5 9.3-4.7 9.3-4.9 0-.6-1-1.2-2-1-.8.3-10 4.4-16 7.3-1.7.8-3.2 1.7-3.3 2-.1.3.2.8.8 1.2 1 .8 1.2.8 1.7.4zm27-16.4c.4-1 .9-3 1.2-4.5.5-2.4.5-2.6-.1-3-.7-.5-1.2-.6-1.2-.2l-1 4.6c-1 3.9-1 4.3-.4 4.6 1 .6 1 .5 1.6-1.5zm-5.7 1.4c0-.6-12-6.8-12.3-6.4a59.6 59.6 0 0 0 12.3 6.4zm-2.1-4c0-.2.1-.4.3-.4.2 0 .5-.6.8-1.3.4-1.2.8-1.5 1.2-.9 0 .2.4.3.6.2.2-.2.3 0 .1.6-.2.8-.2.8.3.1.5-.6.5-.6.6 0 0 .5.2.3.6-.6 1.2-2.4 1.2-2.7-.2-3.4-1.6-.7-2.6-1.5-2.6-2 0-.3-.3-.6-.6-.8-.6-.3-.7 0-1.6 4-.7 3.6-.9 4.6-.5 4.8.7.4 1 .4 1-.2zm-6.7-4c0-.5.1-1.1.3-1.4.3-.4.4-.4.4 0 0 .8 1.2 2 1.5 1.5.1-.2.6-.3 1-.2.9.2 1 0 1.3-1.8.3-1.1.4-2.2.3-2.5-.1-.3-1-.8-2-1.2-1.2-.6-1.8-1-1.8-1.5 0-1.4-.7-.5-1 1.4l-1 4.1c-.3 1.6-.3 2.2 0 2.4.6.3 1 0 1-.9zM62.4 220l.3-1c.3-.7.3-.7.3 0 0 .5-.1 1-.3 1-.2.2-.3.1-.3 0z" style="fill:#ebab72;stroke-width:.352778" transform="translate(-44.5 -173.2)"/>
  <path d="m77.2 244-1.4-1.2.9-1.8 1.6-2.8c.5-.7.6-1.2.4-1.5-.1-.3-3.2-2.9-6.8-5.8l-6.5-5.2-1 1.1c-.5.6-1.6 1.5-2.5 2-1.6.8-1.7.8-2.3.2-.7-.6-.7-.6.2-2.2 1-1.4 1.9-1.9 1.1-.4-.2.4-.3.8-.2.9.1 0 .6-.6 1-1.5.4-.8.9-1.5 1-1.4.1 0 .2-.2.2-.6 0-.3-.1-.5-.2-.5-.6.4-.7-.5-.2-.9.3-.2.6-.7.6-1 0-.3.1-.7.3-1 .4-.4.6-2.3.3-2.8-.2-.2-.2-.6 0-1 0-.2-1-1.3-3.3-3-4-3-4.5-4-.6-1.3 11 8 13.9 9.8 14.4 9.6.4-.1-.1-.7-2-2-7-5-10.9-8-12.6-9.4-1.6-1.4-2-1.5-2.2-1-.4.7-2 .2-3-1-.6-.6-.6-.7 0-.2.3.3.7.3.8.2l1.2-1.4.8-1-1-.9c-1-.8-1-.8-.2-.6l1.5.2c.5 0 .6.1.4.6-.5 1.4-.5 1.7.3 2.2.7.4.8.4 1.3-.3.6-.7 11.5-5.4 17.4-7.5 2.9-1 3.2-1 4.6-.7l1.5.5-2.1.6a275.6 275.6 0 0 0-18.6 7.7l-.5 1.1c-.1.7 0 1 .8 1.5 1 .5 1 .5 1.6-.2.5-.8 10.5-5.5 17.5-8.4 3.9-1.6 3.7-1.6 8.1 1.8L93 206c.6.4 1.2-.3 1.2-1.4 0-.6-1.4-1.5-7.3-4.8l-7.5-4.1c-.2 0-.5.4-.7 1-.3 1-.6 1.4-1.5 1.5-2.4.5-2.4.4-1.8-1.4 2.2-7 3.8-16.3 3-16.6-.3-.1-.4-.5-.4-1 0-.6 0-.6.3 0 .2.5.3.4.7-.6.4-1.3 3.2-3 3.5-2.1 0 .2.4.7.6 1 .6.5.6.5-1.2.6-.8 0-1 .2-1 1.2 0 .6 0 1.1-.2 1.1-1 0 .3 1 3.9 2.7a238 238 0 0 1 4.3 2.2l-.8 4.5c-1 4.5-1 5 .3 5.1.1 0 .2.1 0 .3-.7.7-5.1-.8-5.1-1.8 0-.1.2-.2.4 0 .2.1.3 0 .1-.2-.2-.3-.4-.3-.7 0-.3.2-1 0-2.5-.6-2.2-1-3-.8-1.4.3.6.4 1.7 1.4 2.5 2.3.8.8 1.6 1.3 1.7 1.2.1-.1.2 0 .2.2 0 .8 0 1 .6 1.2 1 .6 2 .6 2.6 0 .6-.4 1-.3 4.2 1.3 5.5 2.8 5.8 2.2.3-.8-1.5-.8-2.7-1.7-2.7-2 0-.2-.2-.3-.4-.2l.6-1.2c.8-1.1 1-1.3 1.3-.9.1.3.4.5.6.4.2-.1.3 0 .3.1 0 .7.7.4.8-.2 0-.5 0-.5.3 0l.3.8v-.7c0-.5.1-.6.4-.2.2.4.5-.2 1-2.3.5-2.7.5-3.3 0-3.3-.4 0-.7-.2-.7-.4s-.1-.3-.3-.2c-.2.2-.4 0-.4-.2s0-.3-.1-.2c-.2 0-.7-.2-1.3-.7l-.9-1c0-.1 1.1.2 2.3.7 2.3 1 4 1.2 2 .4-.7-.3-1-.5-.6-.7.2-.1.6-.2.8 0 .2 0 .2 0 0-.4-.2-.7.3-.7 2.3.2 2.3 1 2.7.4.6-1l-2-1.1c-.1 0-.2-.2 0-.3 0-.2-.3-.5-.8-.6-.5-.1-.8-.3-.8-.5 0-.4.8-.1 3.9 1.3 1.1.5 2 1 1.8 1.3 0 .2.8.7 2 1.2 1.7.6 2.2.7 3.1.4.7-.3 1.3-.3 1.4-.2a124.3 124.3 0 0 1-10 30.6 29.5 29.5 0 0 0-2 5.3c0 .1.6.3 1 .3a9 9 0 0 1 2.3.4l1.7.5c.5.2.5.2 0 .5-.4.3-.9.2-1.4 0-.4-.2-.7-.3-.7 0 0 0-1.2.2-2.7.2-4-.1-1.7.3 5 1l5.8.7c0 .1-.3.6-.9 1.1-2.4 2-2 2-7.9 1.6a30 30 0 0 0-5.6-.2l-3.8 7c-3.1 6-3.8 7-5.4 8.3-1 .8-2 1.5-2.3 1.5-.3 0-1.1-.6-2-1.3zm3.5-4.6c0-.8-.7 0-.9 1-.1.9-.1.9.4.2.3-.4.5-1 .5-1.2zm.7-1.3c0-.3-.2-.4-.4-.3-.2.1-.2.3-.1.5.3.5.5.4.5-.2zm1.8-10c0-.2-.5-.4-1.5-.4-1.7 0-2.4-.3-4.6-2.1a6.6 6.6 0 0 0-2.2-1.4 7 7 0 0 1-2.2-1.3l-3-2.4-1.3-1-.5 1c-.7 1.4-1 1 7.1 7.2l6.2 4.7 1-2 1-2.2zm-10.1-.7a79 79 0 0 0-7.4-5.7c-.5 0 0 .4 3.9 3.3 3.2 2.5 4.4 3.3 3.5 2.4zm7.4-2.4 1-1.3-1-.7-2-1.4-1-.6-1 1c-.7.6-1.1 1.3-1 1.5a13 13 0 0 0 3.7 2.8c.2 0 .8-.6 1.3-1.3zm7.4-6 1.2-2.8s-2 1-4 2.3a31.3 31.3 0 0 0-3.9 2.4l5 .8c.2 0 1-1.2 1.7-2.7zm-23.5 1.5c-.1-.1-.3 0-.4.4-.2.5-.2.6.2.2.2-.2.3-.5.2-.6zm10.1-4c.2-.3 1.4-1 2.7-1.7 3.1-1.5 9.8-5.7 10.6-6.6.7-.7.8-1.3.5-1.3-.7 0-16.4 8.3-16.4 8.6 0 .9 2.2 1.6 2.6 1zm-5.2-3.2c.1-.2 4.5-2.4 9.5-5 5.1-2.5 9.3-4.7 9.3-4.9 0-.6-1-1.2-2-1-.8.3-10 4.4-16 7.3-1.7.8-3.2 1.7-3.3 2-.1.3.2.8.8 1.2 1 .8 1.2.8 1.7.4zm27-4.2c-.1-.5-1.1 1.5-1.1 2 0 .3.2 0 .5-.6l.5-1.4zm.8-2c.2-.7.4-1.3.6-1.5.2 0 .2-.3.1-.4 0-.2.2-1 .6-1.8a30.1 30.1 0 0 0 2.2-8.7l.2-1-.5 1-.8 2.2c0 .7-.3 1.2-.5 1.2s-.3.3-.2.7c.1.4 0 .7-.1.7-.5 0-.4-.3.2-2.7.3-1.1.4-2 .3-2.2 0 0-.2 0-.2.2s-.3.7-.7 1.2c-.8 1-.9 3 0 3.7.4.3.5.5.1 1a29.6 29.6 0 0 1-1.8 5.8c-.1 0-.3.5-.3 1.1-.1 1.5.5 1 .8-.5zm-1.3-4.9 1.6-5c.3-1 .4-1.7.2-1.8-.2 0-.3 0-.3.3 0 .2-.1.3-.2.2 0 0 0-1.5.4-3.1.5-2.8.5-3 0-3.4l-1-.5-1 3.5-1 4.4c-.4 1.1-.4 1.2 1.2 2.2.5.3.5.5.2 2l-.7 2c-.4.8-.8 2.8-.6 2.8l1.2-3.6zm1.2-.7c-.3-.2-.4-.2-.4 0 0 .5.4.9.6.6l-.2-.6zM85 192c.4-.2 1-1.8 1.4-3.4.8-3.4.7-3.6-1.8-4.7-.9-.4-1.7-.9-1.9-1.1 0-.2-.3-.3-.4-.2-.2.2-2 7.7-2 8.3l.6.3c.3.1.6-.1.8-.6l.4-.8v.8c0 1.6 1.6 2.4 3 1.4zm15 32c.3-.2.6-.1.7 0 .1.1 0 .2-.5.2-.4 0-.4-.1-.2-.3zm-22-46c0-.2.1-.4.4-.4.2 0 .2.2.1.4s-.3.3-.4.3l-.1-.3z" style="fill:#d09769;stroke-width:.352778" transform="translate(-44.5 -173.2)"/>
  <path d="M80 243.5c1.5-2.4 4.4-8.3 4.7-9.4.3-.9.3-.9-.3-.2-.5.7-.5.7-.3-.4l.2-1-1.1 1c-.6.6-1.1 1-1 .7.3-2-1-1.8-2 .3-.5.9-1 1.7-1.2 1.8a35.2 35.2 0 0 1-7.8-6.7c-.3-.2-.4 0-.2.3.2.2.2.4 0 .2l-.2-.4c0-.2-.3-.7-.8-1.2-.7-.7-.8-1.1-.6-1.5.3-.4.5-.4 1.1 0 .5.2.2-.2-.6-.9-1.2-1.1-1.3-1.2-.3-.7a9 9 0 0 1 1.8 1.2l3.1 2.3c2.4 1.7 2.5 1.7 1.3.5-1.8-2-.8-1.6 2.4.8l3.1 2.1c.2 0 1.1-1.8 2.1-4.2.1-.2-.7-.4-1.8-.5-1.1 0-2.2-.3-2.4-.6-.3-.3-.3-.4 0-.2.2.1.4 0 .4-.1 0-.2.5-1 1-1.6l1.1-1.2-.7-.7a24 24 0 0 0-2-1.5c-1.5-1-2.6-.6-3.3 1.2-.2.7-.6 1.3-.8 1.3a3592.7 3592.7 0 0 1-5.4-3.8l-1.1-.8-.6 1c-.3.7-.4 1.3-.3 1.5 0 .2-.4 0-1-.2l-1.2-.5-.8 1.3-.7 1.4.8.7c.6.6.7 1 .4 1.4-.5.7-4.1 3.4-4.3 3.1l2.2-4.6c2.5-4.6 3.4-7.3 2.4-6.4-.5.4-.6.3-.4-.2.3-.6-1.3-2.2-5.1-5a14.6 14.6 0 0 1-2.7-2.4 680 680 0 0 0 10.6 7.5c5.5 4 6.2 4.5 6.6 4 .5-.5.5-.6-.3-1.1l-3-2.2a661.4 661.4 0 0 0-11.5-8.5c-1.5-1.2-1.8-1.4-2.4-1-.3.2-1 .3-1.2.2-.8-.3-.5-1.4.6-2.6l.7-.9-1-.9c-1-.8-1-.8-.2-.6l1.4.2c.3 0 .4.3.2 1.1-.1 1 0 1.3.6 1.7.7.4.8.4 1.3-.3.6-.7 11.5-5.4 17.4-7.5 2.9-1 3.2-1 4.6-.7l1.5.5-2.1.6a275.6 275.6 0 0 0-18.6 7.7l-.5 1.1c-.1.7 0 1 .8 1.5 1 .5 1 .5 1.6-.2.5-.8 10.5-5.5 17.5-8.4 3.2-1.3 3.3-1.3 4.4-.8 1 .5 5 3.5 6.8 5 .3.2.4.6 0 1.8-.3 1.2-.2 1.8.3 3.5l.8 2.4c.1 1.3.2 1.4.6.5a83 83 0 0 0 7-23.4c.3-.1.3-.3 0-.6s-.5-.1-.9 1.2c-.4 1.7-1.1 2.3-.7.7l.2-1-.7.9c-.5.8-.6.8-.8.1-.3-.6-.3-.6-.3 0 0 .3-.2.5-.4.4-.2 0-.2-.8-.1-1.5.1-1.2 0-1.5-.6-1.8-.4-.3-.9-.4-1-.3l-1.1 4.6c-1 4.2-1 4.3-.4 4.8.6.4 1 1.8.5 1.8-.3 0-5.6-2.7-6.3-3.3-.6-.4-.6-.6-.2-1.6.4-1 .5-1 .9-.5.2.3.6.5.8.3.3-.1.4 0 .4.4 0 .5 0 .6.4.1.2-.3.3-.4.3 0 0 .2.3.3.6.1.4-.1.4 0 .3.5-.2.5-.1.5.1.1.7-1 2-6.6 1.7-7.4-.1-.6-.8-1.1-2.1-1.7-2.4-1-2.4-1.4 0-.5l2.8 1c.8.2 1 .1.6-.3-.8-.9.3-1.5 1.8-1 .9.4 1.2.3 1.4 0 .3-.5.6-.5 1.9 0 1.6.6 1.7.8 1.2 2.3-.2.5-.2 1 0 1 .2.3.8-1.7.7-2.3 0-.2.2-.2.5-.1.3 0 1 0 1.6-.4.5-.4 1.1-.5 1.3-.4a148 148 0 0 1-12.2 35.9c0 .2.4.4 1 .4s1.1.1 1.2.3c.2.2.8.4 1.5.4.6 0 1.3.2 1.4.4.1.2-.2.3-1 .1h-1.3c0 .2-1.3.4-2.8.3-3.9 0-1.7.4 4.5 1l6 .6c.8.3.8.3-.9 1.7-1.6 1.5-1.7 1.5-3.8 1.3l-5.7-.2-3.5-.1-3.6 6.9c-3.1 6-3.8 7-5.4 8.3-1 .9-2 1.6-2.1 1.6-.2 0 .1-.9.7-1.9zm10.4-19.2c-.3-.4-1.2-.4-1.2 0 0 .1.3.2.7.2.5 0 .7 0 .5-.2zm-2.4-.4h-1.4c-.4.1-.1.2.6.2.8 0 1.2 0 .8-.2zm0-4.9c.6-1.5 1.1-2.7 1-2.8a38.8 38.8 0 0 0-7.8 4.8l2 .4c3.7.4 3.4.6 4.7-2.4zm-13.5-2.6 2.7-1.6c3.1-1.5 9.8-5.7 10.6-6.6.7-.7.8-1.3.5-1.3-.7 0-16.4 8.3-16.4 8.6 0 .9 2.2 1.6 2.6 1zm-5.2-3.1c.1-.2 4.5-2.4 9.5-5 5.1-2.5 9.3-4.7 9.3-4.9 0-.6-1-1.2-2-1-.8.3-10 4.4-16 7.3-1.7.8-3.2 1.7-3.3 2-.1.3.2.8.8 1.2 1 .8 1.2.8 1.7.4zm7.5 30.1c0-.2.2-.6.4-.7.1 0 .3.1.2.5 0 .8-.6 1-.6.2zm-.7-.3.4-1c.2-.2.3-.3.3 0l-.3.8c-.2.3-.4.4-.4.2zm4.3-6c0-.8.6-2 1-2 .3 0 .2.3 0 .6-.4.4-.7 1-.8 1.4-.1.6-.2.6-.2 0zM100 224c.3-.2.6-.1.7 0 .1.1 0 .2-.5.2-.4 0-.4-.1-.2-.3zm-9-22-2.9-1.8 1 .4c1.2.6 2.4.8 1.5.2-.4-.2-.4-.3-.1-.3.2 0 .3-.3.2-.6-.3-.7-.1-.7 2.2.4 2 .9 2.4 1.5 1.5 2.7-.4.6-.7.5-3.4-1zm-16-3.8.6-1.4a58.2 58.2 0 0 0 2.8-13.5c0-2 0-3.3-.2-3.3s-.3-.4-.3-.8c0-.7 0-.7.3-.2.2.6.3.5.7-.5.5-1.4 2.6-2.7 3.4-2 .9.7.6 1.4-.6 1.4-1 0-1 0-1 1.2.2.9 0 1.3-.3 1.3-.4.1-.2.4.6.8a4 4 0 0 1 1.1.7l-.9 4.5c-.4 2.3-.8 4.4-.6 4.6.2.4 1 .3 1.3-.2 0-.2.2.3.3 1 0 1.4 0 1.5-.5 1.2l-.7-.7c-.1-.4-2.8-.9-2.8-.5l.8 1.2c.9 1.3 1.1 2.8.3 2.7-.3 0-.6.4-.8 1.1-.3.8-.6 1.2-1.4 1.3-1.2.3-2 .3-2 .1zm9.5-3.7c-1-.6-1.9-1.4-1-1 .2.2.5 0 .6-.3.1-.3.5-.5.8-.5.6 0 .8-.6 1.4-3.2l.7-4c0-1 .3-1.1 1.2-.5.6.4.6.8-.3 5l-1 4.7c-.3.4-1.7.3-2.4-.2zM77.9 178c0-.2.1-.4.4-.4.2 0 .2.2.1.4s-.3.3-.4.3l-.1-.3z" style="fill:#6b98c8;stroke-width:.352778" transform="translate(-44.5 -173.2)"/>
  <path d="M80 243.5c1.5-2.4 4.4-8.3 4.7-9.4.3-.9.3-.9-.3-.2-.5.7-.5.7-.3-.4l.2-1-1.1 1c-.6.6-1.1 1-1 .7.3-2-1-1.8-2 .3-.5.9-1 1.7-1.2 1.8a35.2 35.2 0 0 1-7.8-6.7c-.3-.2-.4 0-.2.3.2.2.2.4 0 .2l-.2-.4c0-.2-.3-.7-.8-1.2-.7-.7-.8-1.1-.6-1.5.3-.4.5-.4 1.1 0 .5.2.2-.2-.6-.9-1.2-1.1-1.3-1.2-.3-.7a9 9 0 0 1 1.8 1.2l3.1 2.3c2.4 1.7 2.5 1.7 1.3.5-1.8-2-.8-1.6 2.4.8l3.1 2.1c.2 0 1.1-1.8 2.1-4.2.1-.2-.7-.4-1.8-.5-1.1 0-2.2-.3-2.4-.6-.3-.3-.3-.4 0-.2.2.1.4 0 .4-.1 0-.2.5-1 1-1.6l1.1-1.2-.7-.7a24 24 0 0 0-2-1.5c-1.5-1-2.6-.6-3.3 1.2-.2.7-.6 1.3-.8 1.3a3592.7 3592.7 0 0 1-5.4-3.8l-1.1-.8-.6 1c-.3.7-.4 1.3-.3 1.5 0 .2-.4 0-1-.2l-1.2-.5-.8 1.3-.7 1.4.8.7c.6.6.7 1 .4 1.4-.5.7-4.1 3.4-4.3 3.1l2.2-4.6c2.5-4.6 3.4-7.3 2.4-6.4-.5.4-.6.3-.4-.2.3-.6-1.3-2.2-5.1-5a14.6 14.6 0 0 1-2.7-2.4 680 680 0 0 0 10.6 7.5c5.5 4 6.2 4.5 6.6 4 .5-.5.5-.6-.3-1.1l-3-2.2a661.4 661.4 0 0 0-11.5-8.5c-1.5-1.2-1.8-1.4-2.4-1-.3.2-1 .3-1.2.2-.8-.3-.5-1.4.6-2.6l.7-.9-1-.9c-1-.8-1-.8-.2-.6l1.4.2c.3 0 .4.3.2 1.2-.2 1 0 1.3.6 1.7.7.6.8.5 1.2-.1.5-.7.5-.7 1.5 0 .8.5 1 1 .8 1.6 0 .6.1 1 .9 1.5.9.6 1 .6 1.4-.2.5-.7.6-.7 1.6-.1.6.3 1 .9 1 1.3 0 .5.4 1 1.2 1.5 1 .6 1.3.7 1.7.2.2-.3 4.5-2.6 9.5-5.1 5-2.5 9.1-4.7 9.1-4.9 0-.2-.2-.5-.6-.8-.7-.6-2-.1-11.3 4.2-9.7 4.4-9 4.2-9.8 3.7-.8-.7-.6-1.5.3-1.5.5 0 1-.1 1.1-.3.3-.4 8.1-4.2 13.2-6.4 4-1.7 4-1.7 5-1.2s5.2 3.5 6.9 5c.3.2.4.6 0 1.8-.3 1.2-.2 1.8.3 3.5l.8 2.4c.1 1.3.2 1.4.6.5a83 83 0 0 0 7-23.4c.3 0 .3-.3 0-.6s-.5-.1-.9 1.2c-.4 1.7-1.1 2.3-.7.7l.2-1-.7.9c-.5.8-.6.8-.8.1-.3-.6-.3-.6-.3 0 0 .3-.2.5-.4.4-.2 0-.2-.8-.1-1.5.1-1.2 0-1.5-.6-1.8-.4-.3-.9-.4-1-.3l-1.1 4.6c-1 4.2-1 4.3-.4 4.8.6.4 1 1.8.5 1.8-.3 0-5.6-2.7-6.3-3.3-.6-.4-.6-.6-.2-1.6.4-1 .5-1 .9-.5.2.3.6.5.8.3.3-.1.4 0 .4.4 0 .5 0 .6.4.1.2-.3.3-.4.3 0 0 .2.3.3.6.1.4-.1.4 0 .3.5-.2.5-.1.5.1.1.7-1 2-6.6 1.7-7.4-.1-.6-.8-1.1-2.1-1.7-2.4-1-2.4-1.4 0-.5l2.8 1c.8.2 1 .1.6-.3-.8-.9.3-1.5 1.8-1 .9.4 1.2.3 1.4 0 .3-.5.6-.5 1.9 0 1.6.6 1.7.8 1.2 2.3-.2.5-.2 1 0 1 .2.3.8-1.7.7-2.3 0-.2.2-.2.5-.1.3 0 1 0 1.6-.4.5-.3 1.1-.5 1.3-.4a148 148 0 0 1-12.2 35.9c0 .2.4.4 1 .4s1.1.1 1.2.3c.2.2.8.4 1.5.4.6 0 1.3.2 1.4.4.1.2-.2.3-1 .1h-1.3c0 .2-1.3.4-2.8.3-3.9 0-1.7.4 4.5 1l6 .6c.8.3.8.3-.9 1.8-1.6 1.4-1.7 1.4-3.8 1.2l-5.7-.2-3.5-.1-3.6 6.9c-3.1 6-3.8 7-5.4 8.3-1 .9-2 1.6-2.1 1.6-.2 0 .1-.9.7-1.9zm10.4-19.2c-.3-.4-1.2-.4-1.2 0 0 .1.3.2.7.2.5 0 .7 0 .5-.2zm-2.4-.4h-1.4c-.4.1-.1.2.6.2.8 0 1.2 0 .8-.2zm0-4.9c.6-1.5 1.1-2.7 1-2.8a38.8 38.8 0 0 0-7.8 4.8l2 .4c3.7.4 3.4.6 4.7-2.4zm-11.2-3.8c6.3-3.1 11.7-6.9 11.7-8 0-.2-.4-.2-.8-.1-1.7.5-15.6 7.8-15.7 8.2-.2.5.7 1.5 1.4 1.5.2 0 1.8-.7 3.4-1.6zm0 28.2c0-.2.2-.6.4-.7.1 0 .3.1.2.5 0 .8-.6 1-.6.2zm-.7-.3.4-1c.2-.2.3-.3.3 0l-.3.8c-.2.3-.4.4-.4.2zm4.3-6c0-.8.6-2 1-2 .3 0 .2.3 0 .6-.4.4-.7 1-.8 1.4-.1.6-.2.6-.2 0zM100 224c.3-.2.6-.1.7 0 .1.1 0 .2-.5.2-.4 0-.4-.1-.2-.3zm-9-22-2.9-1.8 1 .4c1.2.6 2.4.8 1.5.2-.4-.2-.4-.3-.1-.3.2 0 .3-.3.2-.6-.3-.7-.1-.7 2.2.4 2 .9 2.4 1.5 1.5 2.7-.4.6-.7.5-3.4-1zm-16.3-1c0-.4 3-1.7 5-2.1a4 4 0 0 1 2 .3c1 .4 1.1.5.6.5-.4 0-2 .4-3.3 1-2.7.8-4.3 1-4.3.3zm.4-2.8.5-1.4a58.2 58.2 0 0 0 2.8-13.5c0-2 0-3.3-.2-3.3s-.3-.4-.3-.8c0-.7 0-.7.3-.2.2.6.3.5.7-.5.5-1.4 2.6-2.7 3.4-2 .9.7.6 1.4-.6 1.4-1 0-1 0-1 1.2.2.9 0 1.3-.3 1.3-.4.1-.2.4.6.8a4 4 0 0 1 1.1.7l-.9 4.5c-.4 2.3-.8 4.4-.6 4.6.2.4 1 .3 1.3-.2 0-.2.2.3.3 1 0 1.4 0 1.5-.5 1.2l-.7-.7c-.1-.4-2.8-.9-2.8-.5l.8 1.2c.9 1.3 1.1 2.8.3 2.7-.3 0-.6.4-.8 1.1-.3.8-.6 1.2-1.4 1.3-1.2.3-2 .3-2 .1zm9.4-3.7c-1-.6-1.9-1.4-1-1 .2.2.5 0 .6-.3.1-.3.5-.5.8-.5.6 0 .8-.6 1.4-3.2l.7-4c0-1 .3-1.1 1.2-.5.6.4.6.8-.3 5l-1 4.7c-.3.4-1.7.3-2.4-.2zM77.9 178c0-.2.1-.4.4-.4.2 0 .2.2.1.4s-.3.3-.4.3l-.1-.3z" style="fill:#d38a53;stroke-width:.352778" transform="translate(-44.5 -173.2)"/>
  <path d="M80 243.5c1.5-2.4 4.4-8.3 4.7-9.4.3-.9.3-.9-.3-.2-.5.7-.5.7-.3-.4l.2-1-1.1 1c-.6.6-1.1 1-1 .7.3-2-1-1.8-2 .3-.5.9-1 1.7-1.2 1.8-.1.1-1.6-1-3.2-2.3-2.8-2.3-5-4.3-3.5-3.2.3.3.7.3.8.2.2-.2.2-.1 0 0 0 .3.2.7.6.9.6.4.7.4.3-.3-.2-.4-.7-.9-1.2-1.1-1.3-.7-1.6-1.2-1.2-1.7.4-.4.3-.4-.2 0s-.7.3-1.3-.3c-1.1-1.2-.6-2.5.6-1.6l-1-.9-1.2-1.1 1 .5a9 9 0 0 1 1.9 1.2l3.1 2.3c2.4 1.7 2.5 1.7 1.3.5-1.8-2-.8-1.6 2.4.8l3.1 2.1c.2 0 1.1-1.8 2.1-4.2.1-.2-.7-.4-1.8-.5-1.1 0-2.2-.3-2.4-.6-.3-.3-.3-.4 0-.2.2.1.5 0 .6-.5.1-.4.6-1 1.1-1.4.5-.3.9-.8.9-1 0-.3.2-.3.6 0a8 8 0 0 0 2.7.3c1.2 0 2 .1 1.8.3-.1.2 0 .4.4.4a421.4 421.4 0 0 1 11.8.7c1.8 0 4.2.6 4.2 1.2 0 .2.1.2.3-.1.3-.4.4-.4.4-.1 0 .5-.5 1.1-1.8 2-.8.4-1.5.4-5.9.1-2.8-.2-5.2-.3-5.5-.2-.4.2-3 5-6.5 11.8-1 2-4.1 5-5 5-.2 0 .1-.8.7-1.8zm-3 .1c-.1-.2 0-.4.1-.5.2-.1.3 0 .3.3 0 .6-.1.7-.4.2zm3.4-6.5c0-.8.6-2 1-2 .3 0 .2.3 0 .6-.4.4-.7 1-.8 1.4-.1.6-.2.6-.2 0zm-19.8-7.8 2.3-4.6c2.5-4.6 3.4-7.3 2.4-6.4-.5.4-.6.3-.4-.2.3-.6-1.3-2.2-5.1-5a26.1 26.1 0 0 1-2.7-2.2c0-.2.6.2 3.8 2.5 13 9.4 12.9 9.4 13.4 8.8.5-.5.5-.6-.3-1.1l-3-2.2a633.2 633.2 0 0 0-11.7-8.7c-1.4-1.2-1.9-1.4-2-1-.2.6-1.5.7-1.8.2-.3-.4.5-1.9 1.6-3.2l.7-.9-.2 1c-.2.7 0 1 .6 1.4.7.6.8.5 1.2-.1.5-.7.5-.7 1.5 0 .8.5 1 1 .8 1.6 0 .6.1 1 .9 1.5.9.6 1 .6 1.4-.2.5-.7.6-.7 1.6-.1.6.3 1 .9 1 1.3 0 .5.4 1 1.2 1.5 1 .6 1.3.7 1.7.2.2-.3 4.5-2.6 9.5-5.1 5-2.5 9.1-4.7 9.1-4.9 0-.2-.2-.5-.6-.8-.7-.6-2-.1-11.3 4.2-9.7 4.4-9 4.2-9.8 3.7-.8-.7-.6-1.5.3-1.5.5 0 1-.1 1.1-.3.3-.4 8.1-4.2 13.2-6.4 4-1.7 4-1.7 5-1.2s5.2 3.5 6.9 5c.3.2.4.6 0 1.8-.3 1.2-.2 1.8.3 3.5l.8 2.4c.1 1.3.2 1.4.6.5a109 109 0 0 0 6.5-19.4c1.8-6.9 1.8-7 2.6-7.4.6-.4.7-.3.5.2l-.2 1c0 .4-.2.5-.4.4-.3-.2-.3-.1-.2 0 .1.3 0 1-.3 1.5-.3.6-.6 2.1-.7 3.3a8.8 8.8 0 0 1-.7 3 22 22 0 0 0-1.6 6c0 .4-.1.8-.3.9a99.8 99.8 0 0 1-4.2 11.4l-2.7 6.9 1-1.8c1.1-2.2 1.6-2.2.5 0l-1 2.3c-.4 1-1.2 1.1-4 .2l-3-.8c-.7 0-.7 0-.3-.2.6-.1 3.3-5.3 3-5.6 0 0-2 1-4.3 2.4-3.6 2-4.4 2.4-6 2.4-1.8 0-2.9.7-3.2 2.3-.2.5-.4.9-.6.9-.2 0-1.8-1-3.5-2.3a23.8 23.8 0 0 0-3.3-2.3c-.4.7-.9 2.2-.7 2.5 0 .2-.4 0-1-.2l-1.2-.5-.8 1.3c-.7 1.4-.7 1.4 0 2 1 1 .9 1.4-.5 2.6-1.5 1.1-3.4 2.3-3.4 2zm16.2-14c6.3-3.2 11.7-7 11.7-8 0-.3-.4-.3-.8-.2-1.7.5-15.6 7.8-15.7 8.2-.2.5.7 1.5 1.4 1.5.2 0 1.8-.7 3.4-1.6zm15.5-12.5-1.7-1c0-.1.8.2 1.7.7l1.8 1c0 .3 0 .3-1.8-.7zm-17.6-1.7c0-.4 3-1.7 5-2.1a4 4 0 0 1 2 .3c1 .4 1.1.5.6.5-.4 0-2 .4-3.3 1-2.7.8-4.3 1-4.3.3zm14-.4c-.7-.5-.7-.5 0-.2l.8.6c0 .3-.2.2-.9-.4zm4-4.3a24.8 24.8 0 0 0 1.6-8.5l1.2.4c.8.4 1 .6.6.7-.3.1-.7 1-.9 1.8l-.6 2.2c-.1.4 0 .3.4-.2.6-1 .6-1.1-.4 2.8-.5 2.2-.5 2.3 0 2.7.6.4.5.5-1 .5H92zm-17.6 1.9.5-1.4a88 88 0 0 0 3.2-14.2c.3-2.3.7-4.5.9-4.8.2-.4.7-.6 1.8-.6 1.5 0 1.5.5 0 .7-.8.1-1 .4-1.2 1.5-.3 1.5 0 2.4 1 2.4.5 0 .5 0 .2.3-.3.1-.6.7-.6 1.3l-.5 2c-.2.6-.5 2-.6 3.1-.2 1.6 0 2 .4 2.2 1 .4.5.9-.8 1-1.3.1-1.4.2-1.5 1.4 0 1 0 1.4.7 1.7l.7.4-.7.7c-.5.4-.7 1-.6 1.3.1.6 0 .8-1 1-1.1.2-2 .2-2 0zm16.6-.6c0-.3.1-.7.3-1 .4-.7.4-.1 0 .9-.2.4-.3.5-.3.1zm-6.5-2.7 1-4.7.8-4.8c0-1 .4-1 1.2-.4.5.4.5.7-.2 3.6l-.9 4.7c0 .8-.3 1.5-.4 1.5l-.9.2h-.6zm6.4-8c-.8-.5-1.4-.9-1.2-.9l2 .9c.8.4 1.4.8 1.2.8l-2-.8z" style="fill:#698baf;stroke-width:.352778" transform="translate(-44.5 -173.2)"/>
  <path d="M80 243.5c1.5-2.4 4.4-8.3 4.7-9.4.3-.9.3-.9-.3-.2-.5.7-.5.7-.3-.4l.2-1-1.1 1c-.6.6-1.1 1-1 .7.3-2-1-1.8-2 .3-.5.9-1 1.7-1.2 1.8-.1.1-1.6-1-3.2-2.3-2.8-2.3-5-4.3-3.5-3.2.3.3.7.3.8.2.2-.2.2-.1 0 0 0 .3.2.7.6.9.6.4.7.4.3-.3-.2-.4-.7-.9-1.2-1.1-1.3-.7-1.6-1.2-1.2-1.7.4-.4.3-.4-.2 0s-.7.3-1.3-.3c-1.1-1.2-.6-2.5.6-1.6l-1-.9-1.2-1.1 1 .5a9 9 0 0 1 1.9 1.2l3.1 2.3c2.4 1.7 2.5 1.7 1.3.5-1.8-2-.8-1.6 2.4.8l3.1 2.1c.2 0 1.1-1.8 2.1-4.2.1-.2-.7-.4-1.8-.5-1.1 0-2.2-.3-2.4-.6-.3-.3-.3-.4 0-.2.2.1.5 0 .6-.5.1-.4.6-1 1.1-1.4.5-.3.9-.8.9-1 0-.3.2-.3.6 0a8 8 0 0 0 2.7.3c1.2 0 2 .1 1.8.3-.1.2 0 .4.4.4a421.4 421.4 0 0 1 11.8.7c1.8 0 4.2.6 4.2 1.2 0 .2.1.2.3-.1.3-.4.4-.4.4-.1 0 .5-.5 1.1-1.8 2-.8.4-1.5.4-5.9.1-2.8-.2-5.2-.3-5.5-.2-.4.2-3 5-6.5 11.8-1 2-4.1 5-5 5-.2 0 .1-.8.7-1.8zm-3 .1c-.1-.2 0-.4.1-.5.2-.1.3 0 .3.3 0 .6-.1.7-.4.2zm3.4-6.5c0-.8.6-2 1-2 .3 0 .2.3 0 .6-.4.4-.7 1-.8 1.4-.1.6-.2.6-.2 0zm-19.8-7.8 2.3-4.6c2.5-4.6 3.4-7.3 2.4-6.4-.5.4-.6.3-.4-.2.3-.6-1.3-2.2-5.1-5a26.1 26.1 0 0 1-2.7-2.2c0-.2.6.2 3.8 2.5 13 9.4 12.9 9.4 13.4 8.8.5-.5.5-.6-.3-1.1l-3-2.2a633.2 633.2 0 0 0-11.7-8.7c-1.4-1.2-1.9-1.4-2-1-.2.6-1.7.6-1.9 0 0-.2.2-1 .7-1.6.7-1.2.7-1.2 1-.5.1.5.6 1 1 1.2.8.4 1.2.2 1.5-.8.1-.2.6 0 1.1.3.8.5 1 .8.8 1.7-.2 1-.1 1.3.6 1.8 1.2.7 1.5.7 2-.4l.4-.9 1 .8c1 .7 1 1 .9 1.9-.2 1 0 1.2.7 1.7 1.1.8 1.5.8 1.8 0 .1-.5.4-.8.7-.8a98.7 98.7 0 0 1 10.2-5.5l9.7-4.9.9.9.9.8-9.3 4.7-9.9 5.3c-.9.9-.8 2.5.3 3 .7.3 1 .3 1.5-.2l1.2-.6c.4 0 .4 0 0-.3-.3-.2.3-.5 1.7-1.2 2.6-1 2.8-1 .5.3-1 .5-1.6.9-1.4.9.7 0 6.9-3.6 6.7-4-.1-.2 0-.3.1-.1.5.3 3.4-1.1 3.1-1.6 0-.1 0-.4.2-.5.3-.2.4-.1.2.1-.4.6 0 .5 1.5-.3 1.7-.8 2.3-1.7.7-.9-1.2.6-1.2.6-.3 0 2-1.4 4-3.4 3.7-3.9 0-.3.1-.3.7.1.5.4.8.9.7 1.2-.6 1.5-.6 3 0 4.5.4.9.7 2 .7 2.4.2 1.4.2 1.4.7.5a109 109 0 0 0 6.5-19.4c1.8-6.9 1.8-7 2.6-7.4.6-.4.7-.3.5.2l-.2 1c0 .4-.2.5-.4.4-.3-.2-.3-.1-.2 0 .1.3 0 1-.3 1.5-.3.6-.6 2.1-.7 3.3a8.8 8.8 0 0 1-.7 3 22 22 0 0 0-1.6 6c0 .4-.1.8-.3.9a99.8 99.8 0 0 1-4.2 11.4l-2.7 6.9 1-1.8c1.1-2.2 1.6-2.2.5 0l-1 2.3c-.4 1-1.2 1.1-4 .2l-3-.8c-.7 0-.7 0-.3-.2.6-.1 3.3-5.3 3-5.6 0 0-2 1-4.3 2.4-3.6 2-4.4 2.4-6 2.4-1.8 0-2.9.7-3.2 2.3-.2.5-.4.9-.6.9-.2 0-1.8-1-3.5-2.3a23.8 23.8 0 0 0-3.3-2.3c-.4.7-.9 2.2-.7 2.5 0 .2-.4 0-1-.2l-1.2-.5-.8 1.3c-.7 1.4-.7 1.4 0 2 1 1 .9 1.4-.5 2.6-1.5 1.1-3.4 2.3-3.4 2zm18.7-14.8 1-.7 1.1-.4-1 .7-1.1.4zm3.9-2.1.7-.6.7-.2c0 .1-.3.4-.7.6l-.7.2zm-1.4-9c0-.5 2.5-2.5 3.3-2.5.4 0 1 .2 1.3.5.6.4.4.6-1.6 1.3-1.2.4-2.4.8-2.6 1-.2 0-.4 0-.4-.2zm10.5-.6-1.7-1c0-.1.8.2 1.7.7l1.8 1c0 .3 0 .3-1.8-.7zm-3.7-2c-.6-.6-.6-.6.1-.3l.8.6c0 .3-.2.2-.9-.4zm-7.7-1.5c-1-.6-.3-.6.9 0 .5.3.6.5.3.5s-.9-.2-1.2-.5zm11.8-2.9a24.8 24.8 0 0 0 1.6-8.5l1.2.4c.8.4 1 .6.6.7-.3.1-.7 1-.9 1.8l-.6 2.2c-.1.4 0 .3.4-.2.6-1 .6-1.1-.4 2.8-.5 2.2-.5 2.3 0 2.7.6.4.5.5-1 .5H92zm-17.6 2 .5-1.5a88 88 0 0 0 3.2-14.2c.3-2.3.7-4.5.9-4.8.2-.4.7-.6 1.8-.6 1.5 0 1.5.5 0 .7-.8.1-1 .4-1.2 1.5-.3 1.5 0 2.4 1 2.4.5 0 .5 0 .2.3-.3.1-.6.7-.6 1.3l-.5 2c-.2.6-.5 2-.6 3.1-.2 1.6 0 2 .4 2.2 1 .4.5.9-.8 1-1.3.1-1.4.2-1.5 1.4 0 1 0 1.4.7 1.7l.7.4-.7.7c-.5.4-.7 1-.6 1.4.1.5 0 .7-.6.7-.4 0-1.1 0-1.6.2h-.7zm16.6-.7c0-.3.1-.7.3-1 .4-.7.4-.1 0 .9-.2.4-.3.5-.3.1zm-6.5-2.7 1-4.7.8-4.8c0-1 .4-1 1.2-.4.5.4.5.7-.2 3.6l-.9 4.7c0 .8-.3 1.5-.4 1.5l-.9.2h-.6zm6.4-8c-.8-.5-1.4-.9-1.2-.9l2 .9c.8.4 1.4.8 1.2.8l-2-.8z" style="fill:#b98660;stroke-width:.352778" transform="translate(-44.5 -173.2)"/>
  <path d="m79.3 245.2 1.3-2.4a165 165 0 0 0 6.1-12.3c0-.3-.2-.3-.5 0-.4.4-.6.4-.6 0 0-.2-.2-.2-.6 0-.4.2-.8.3-1 .1v.4c.2.5.2.6-.3.4-.5-.2-.5-.3 0-1.2.3-.6.4-1 .2-1-.1 0-.5.3-.7.8l-.6.7c-.1 0 0-.6.4-1.2.8-1.5.7-1.7-1.2-1.9a7 7 0 0 1-2-.3c-.3-.3.9-2.4 1.4-2.6.3-.1.6-.5.6-.7 0-.4.1-.5.6-.2a8 8 0 0 0 2.7.4c1.2 0 2 .1 1.8.3-.1.2 0 .4.4.4a421.4 421.4 0 0 1 11.8.7c1.8 0 4.2.6 4.2 1.2 0 .2.1.2.3-.1.3-.4.4-.4.4-.1 0 .6-.6 1.1-1.8 1.9-.7.4-1.6.5-5.9.2-2.7-.2-5.2-.3-5.5-.2-.3.1-2 3.2-4 6.8-2.3 4.5-3.9 7-4.8 7.9-1.4 1.3-2.7 2.3-2.7 2zm-1.8-9.8A1731.7 1731.7 0 0 0 74 232c.4.2.4 0 .3-.6-.3-.9.3-1.6.7-1 .1.2.5.4.8.4.5 0 .4-.2-.3-.7-.5-.4-.7-.7-.6-.7a60 60 0 0 1 5.5 4c0 .6-1.2 2.7-1.5 2.7a4 4 0 0 1-1.3-.8zm1.3-3.7c-1.4-1.2-1.6-1.5-1-1.3 1.1.3 3.3 1.9 3.3 2.3 0 .8-.7.5-2.3-1zm-17.9-2.8 1.3-2.6 1.3-2.4.8 1c1 1 .8 1.5-1 2.8-2 1.3-2.4 1.5-2.4 1.2zm10.7-7a31 31 0 0 0-3.2-2.3l-.7 1.1c-.3 1-.5 1-1.4.9-1-.2-1.2 0-1.7.8l-.7 1 1.2-2.6 1.3-2.6-.7-.6a402.2 402.2 0 0 0-8.5-6.6c-.8-.8 1.3.7 8.6 6l8 5.8c.4 0 1.4-1.4 1.2-1.6-1.5-.7-14.6-10-16.4-11.7-.8-.8-1-.8-1.3-.3-.6.8-1.6.4-1.6-.5 0-.4.2-1 .5-1.2.5-.5.6-.5 1.4.3.8.9 1.6 1.1 1.6.6 0-.1.1-.5.3-.7.2-.4.5-.4 1.2.1.8.5 1 .8.8 1.7-.2 1-.1 1.3.6 1.8 1.2.7 1.5.7 2-.4l.4-.9 1 .8c1 .7 1 1 .9 1.9-.2 1 0 1.2.7 1.7 1.1.8 1.5.8 1.8 0 .1-.5.4-.8.7-.8a98.7 98.7 0 0 1 10.2-5.5l9.7-4.9.9.9.9.8-9.3 4.7-9.9 5.3c-.9.9-.8 2.5.3 3 .7.3 1 .3 1.5-.2l1.2-.6c.4 0 .4 0 0-.3-.3-.2.3-.5 1.7-1.2 2.6-1 2.8-1 .5.3-1 .5-1.6.9-1.4.9.7 0 6.9-3.6 6.7-4-.1-.2 0-.3.1-.1.5.3 3.4-1.1 3.1-1.6 0-.1 0-.4.2-.5.3-.2.4-.1.2.1-.4.6 0 .5 1.5-.3 1.7-.8 2.3-1.7.7-.9-1.2.6-1.2.6-.3 0 2.1-1.5 4-3.4 3.7-4-.1-.3 0-.3.6.2.7.8.7 1 .3 2.4-.3 1-.4 2.3-.2 3.5.1 1.2 0 2.2-.2 2.7-.2.4-.2.7 0 .7.7-.1.7.1 0 1.8-.4 1-.5 1.7-.3 1.5.3-.1.3 0 .2.6-.5 1.4.1.7 1.2-1.4 2.9-5.7 6.1-15 7.7-22 1.6-7.2 1.8-7.6 2.6-8 .6-.4.7-.3.5.2l-.2 1c0 .4-.2.5-.4.4-.3-.2-.3-.1-.2 0 .1.3 0 1-.3 1.5-.3.6-.6 2.1-.7 3.3a8.8 8.8 0 0 1-.7 3 22 22 0 0 0-1.6 6c0 .4-.1.8-.3.9a99.8 99.8 0 0 1-4.2 11.4l-2.7 6.9 1-1.8c1.1-2.2 1.6-2.2.5 0l-1 2.3c-.4 1-1.2 1.1-4 .2-1.2-.4-2.5-.7-3-.7-.8 0-.9-.1-.2-.4.7-.3 3.3-5 2.9-5.5l-4.4 2.3c-3.6 2.2-4.3 2.5-5.8 2.5-1.4 0-2 .2-2.6.9-.5.5-.9 1.2-.9 1.6 0 1-.6.8-3.8-1.6zm7.7-7.4 1-.7 1.1-.4-1 .7-1.1.4zm3.9-2.1.7-.6.7-.2c0 .1-.3.4-.7.6l-.7.2zm-1.4-9c0-.5 2.5-2.5 3.3-2.5.4 0 1 .2 1.3.5.6.4.4.6-1.6 1.3-1.2.4-2.4.8-2.6 1-.2 0-.4 0-.4-.2zm11-.4c0-.2 0-.2.4-.1.6.2.7.5.2.5-.2 0-.4-.2-.5-.4zm-12-3.7c-.8-.6-.2-.6 1 0 .5.3.6.5.3.5s-.9-.2-1.2-.5zm11.5-1.5 1.3-3.5c1.1-3.2 1.5-6 .8-6-.2 0-.3-.2-.2-.3 0 0 .7 0 1.3.3.8.4 1 .6.6.7-.3.1-.7 1-.9 1.8l-.6 2.2c-.1.4 0 .3.4-.2.6-1 .6-1.1-.3 2.8-.5 1.7-.5 2.3-.2 2.7.3.4.1.5-1 .5-1.4 0-1.5 0-1.2-1zm-16.7-.6a78 78 0 0 0 3.2-14.2c.6-5.5.8-5.7 2.7-5.7 1.5 0 1.3.2-.5.8-.7.2-1.1 2.6-.6 3.3.2.2.6.5 1 .5s.4 0 0 .3c-.2.1-.5.7-.5 1.3l-.5 2c-.6 1.8-.8 5.2-.5 5.2.2 0 .5.2.6.5.1.3 0 .5-.2.5h-1.5c-.8 0-1 .2-1 1.4 0 1 .3 1.5.8 1.8l.7.4-.7.6c-.4.4-.7 1-.7 1.4 0 .6-.2.8-.9.8-.4 0-1 0-1.4.2-.5.2-.5 0 0-1zm16 .5c0-.3.2-.7.4-1 .4-.7.4-.1 0 .9-.2.4-.3.5-.3.1zm-6-4.8c.4-1.1.8-3.2 1-4.5.7-3.7.8-3.7 1.7-3.1.3.2.3 1-.3 3.4l-.9 4.6c-.2 1.2-.4 1.5-1.2 1.5l-1 .2z" style="fill:#c87944;stroke-width:.352778" transform="translate(-44.5 -173.2)"/>
  <path d="m79.3 245.2 1.6-3c1-1.9 1.4-2.4 1.5-1.8a4 4 0 0 1-.8 1.9 5 5 0 0 0-.9 1.5c0 .2-.3.7-.8 1-.4.4-.7.6-.6.4zm4.6-5.5c0-.1.1-.4.3-.5.2-.1.3 0 .2.3-.3.6-.5.7-.5.2zm.7-4.6c2.2-4.3 2.5-5.3 1.6-4.6-.4.4-.6.4-.6 0 0-.2-.2-.2-.6 0-.4.2-.8.3-1 .1v.4c.2.5.2.6-.3.4-.5-.2-.5-.3 0-1.2.3-.6.4-1 .2-1-.1 0-.5.3-.7.8l-.6.7c-.1 0 0-.6.4-1.2.8-1.5.7-1.7-1.2-1.9a7 7 0 0 1-2-.3c-.1-.1 0-.7.4-1.3.5-1 .7-1.1 2-1 1.5 0 3.4.7 2.9 1-.2.2-1 0-2-.1-1.8-.5-3.5-.1-2.2.4l2.3.5a310.6 310.6 0 0 1 5.4.7c1 0 2 .2 2.3.3l1.4.4c.7 0 .6.1-.4.2-1 0-1.5.3-2.2 1.2-.5.6-.9 1-.9.7 0-.7-.8.1-1.6 1.7-1 1.8-4.5 7.4-4.6 7.4 0 0 .8-2 2-4.3zm-6.5.7c-.2-.2 0-.2.3-.1.6.2.7.5.2.5-.2 0-.4-.2-.5-.4zm.3-1.3c-.6-.5-.8-.8-.4-.7h.6c0-.3-.3-.6-.6-.8-.5-.3-.5-.4-.2-.6.2 0 .3-.3.2-.5-.1-.3.3 0 1 .6 1.5 1 1.5 1 .9 2.2l-.5.8zm-2.2-.3c-.7-.6-.8-.8-.2-.5.7.3 1.8 1.4 1.4 1.4a5 5 0 0 1-1.2-.9zm0-1.4c-.9-.9-.9-1-.2-.6.6.4.8.4 1 0v1.5l-.9-1zm2.6-1.1c-1.4-1.2-1.6-1.5-1-1.3 1.1.3 3.3 1.9 3.3 2.3 0 .8-.7.5-2.3-1zm-1.8-.5c-.1-.2-.3-.3-.5-.2l-1-.7c-.5-.4-.8-.8-.6-.8.4 0 3 2 2.6 2-.2 0-.4 0-.5-.3zM61 229l1.2-2.6 1.3-2.4.8 1c1 1 .8 1.5-1 2.8-2 1.3-2.4 1.5-2.4 1.2zm35.3-.4h1c.3.1 0 .2-.5.2-.6 0-.8 0-.5-.2zm-9.6-2.6-1.2-.2h1.4c.9 0 1.4.2 1.3.3 0 .2-.2.3-.2.3l-1.3-.4zm-14.6-3.7a38 38 0 0 0-3.5-2.4c-1-.5-1-.5-1 .2 0 1.3-.5 1.8-1.5 1.6-.8-.2-1 0-1.4.8l-.8 1L65 221c.7-1.3 1.2-2.6 1.2-2.7 0-.2-1.2-1.2-2.6-2.4a25.4 25.4 0 0 1-2.7-2.2l.5.2c2.5 2 12.2 8.9 12.5 8.9.3 0 1.3-1.4 1-1.6-1.4-.7-14.5-10-16.3-11.7-.8-.8-1-.8-1.3-.3-.6.8-1.6.4-1.6-.5 0-.4.2-1 .5-1.2.5-.5.6-.5 1.4.3.8.9 1.6 1.1 1.6.6 0-.1.1-.5.3-.7.2-.4.5-.4 1.2.1.8.5 1 .8.8 1.7-.2 1-.1 1.3.6 1.8 1.2.7 1.5.7 2-.4l.4-.9 1 .8c1 .7 1 1 .9 1.9-.2 1 0 1.2.7 1.7 1.1.8 1.5.8 1.8 0 .1-.5.4-.8.7-.8a98.7 98.7 0 0 1 10.2-5.5l9.7-4.9.9.9.9.8-9.3 4.7-9.9 5.3c-.9.9-.8 2.5.3 3 .7.3 1 .3 1.5-.2l1.2-.6c.4 0 .4 0 0-.3-.3-.2.3-.5 1.7-1.2 2.6-1 2.8-1 .5.3-1 .5-1.6.9-1.4.9.7 0 6.9-3.6 6.7-4-.1-.2 0-.3.1-.1.5.3 3.4-1.1 3.1-1.6 0-.1 0-.4.2-.5.3-.2.4-.1.2.1-.4.6 0 .5 1.5-.3 1.7-.8 2.3-1.7.7-.9-1.2.6-1.2.6-.3 0 2.1-1.5 4-3.4 3.7-4-.1-.3 0-.3.6.2.7.8.7 1 .3 2.4-.3 1-.4 2.3-.2 3.5.1 1.2 0 2.2-.2 2.7-.2.4-.2.7 0 .7.7-.1.7.1 0 1.8-.4 1-.5 1.7-.3 1.5.3-.1.3 0 .2.6-.5 1.3.1.7 1.2-1.3l1-1.8c0 .3-3 7-3.3 7.3l-1.8-.5-2.2-.7c-.3-.1 0-1 .9-2.8a8.8 8.8 0 0 0 1-2.9l-4.3 2.3c-3.6 2.2-4.3 2.5-5.4 2.3-1.7-.2-3.5.9-3.8 2.3 0 .6-.4 1-.6 1-.2 0-1.5-.8-2.8-1.9zm12.5-5.6c0-.3-.2-.5-.4-.5s-.3.3-.3.7c0 .4.1.6.3.5.2-.1.4-.4.4-.7zm-5.3-2c0-.2.5-.5 1-.8l1.1-.4-1 .7-1.1.4zm15.5-.1.5-1.2c.3-.5.5-.8.5-.6 0 .2-.2.8-.5 1.3-.2.4-.5.7-.5.5zm-35.6-2c-1.2-1-1.2-1-.1-.3l1.3 1c.4.6 0 .4-1.2-.7zm24-.1.7-.6.7-.2c0 .1-.3.4-.7.6l-.7.2zm13.6-2.7.5-1.4c.3-.4.3-.2.1.4L97 210c-.3.3-.3.2-.1-.4zm.9-2.3c0-.6.6-1.8.6-1.2 0 .3-.1.8-.3 1-.2.3-.3.4-.3.2zm1-3.1c0-.7.6-1.8.7-1.3 0 .3-.2.8-.4 1-.1.4-.3.5-.3.3zm-17-.8c0-.6 2.6-2.6 3.4-2.6.4 0 1 .2 1.3.5.6.4.4.6-1.6 1.3-1.2.4-2.4.8-2.6 1-.2 0-.4 0-.4-.2zm-.8-4.2c-1-.6-.3-.6.9 0 .5.3.6.5.3.5s-.9-.2-1.2-.5zm11.6-1.7.8-2.2c.2-.5.4-.8.3-.4-.6 2.1-.6 3-.1 2.9.3-.1.7 0 1 .3.3.5.2.6-1 .6s-1.2 0-1-1.2zm8 .6c0-.4 0-.5.2-.2v.7c-.1.1-.2-.1-.2-.5zm-25-1c.9-1.9 2.7-9.3 3-12.6.6-4.3 1.1-6.6 1.5-6.6.2 0 .3.7.1 1.7-.1 1.3 0 1.8.2 1.8.3 0 .4.3.2 1a34 34 0 0 0-.8 4.5c-.2 0-.5 2-.5 2.8 0 .4.3.9.6 1.1.5.4.4.5-.7.7-1.2.2-1.2.3-1.2 1.7 0 1.2.1 1.6.8 2 .4.1.5.3.2.2-.8-.2-1.7 1.2-1.3 2 .2.5.2.6-.6.6-.4 0-1 0-1.4.2-.5.2-.5 0 0-1zM101 196c.4-2 1.2-4.4 1.2-3.8 0 .7-1 4.6-1.2 4.8v-1zm-15.6-2 .5-1.9c.1-.6.4-1 .9-1s.6.1.2.8a5 5 0 0 0-.4 2c0 .9-.1 1.1-.7 1.1s-.7-.1-.5-1zm16.8-3c0-.5.1-.6.3-.3v.7c-.2.1-.3-.1-.3-.5zm-15.8-1.1c0-.4 0-.5.2-.2v.6c-.2.1-.2 0-.2-.4zm16.2-.4c0-.4.1-.5.2-.2v.7c-.1 0-.2-.1-.2-.5zm-7.8-.5c0-.4.2-.7.4-.7s.3.2.3.5-.1.6-.3.7c-.2.2-.4 0-.4-.5zm-8-.5c0-.5 0-.5.1-.3v.7c-.1.1-.2 0-.2-.4zm.3-2c0-.5.1-1 .3-1.2.4-.3.4.4 0 1.4-.3.7-.3.6-.3-.2zm-6-8.6.7-.3c.3 0 .6 0 .5.2-.2.3-1.2.4-1.2.1z" style="fill:#b17448;stroke-width:.352778" transform="translate(-44.5 -173.2)"/>
  <path d="M85.6 233.6c0-.1.5-1.3 1.2-2.5.6-1.3 1-2.4.8-2.6l-1.4-.3c-.7 0-1.4-.2-1.6-.3-.2-.1-.5 0-.7.4-.3.6-.4.6-.4 0 0-.7.6-.9 2.1-.7a47.9 47.9 0 0 0 5 .4c0 .6-.9 1.5-1.3 1.4-.5-.2-2.6 2-2.6 2.7 0 .4-1 2-1 1.5zm-5.6-1.1c-.5-.6-.1-.7.6-.2.3.2.4.4.2.5-.2.1-.6 0-.8-.3zm-17.7-5c-.2-.1 0-.8.4-1.6.6-1.2.8-1.3 1.4-1 .7.3 1 1.5.5 1.3-.5 0-2.2 1-2 1.2.2.4 0 .4-.3.1zm17.6-.7c0-.3.4-.4.7-.3l.7.2v.3c-.4.6-1.7.4-1.4-.2zm1.9-1.2-1.3-.2 1.3-.2c.6 0 1.6 0 2 .3l1 .4h-1a8 8 0 0 1-2-.3zm-7.7-1.8c-.3-.3-.2-.7.3-1.5.6-.8.7-1 .3-1.3a293.5 293.5 0 0 1-16.5-12c-.4-.5-.5-.5-1 .2s-1.5.5-1.5-.3c0-.2.2-.8.5-1.2l.5-.8.9 1c.8.8 1.6 1 1.6.5 0-.1.1-.5.3-.7.2-.4.5-.4 1.2.1.8.5 1 .8.8 1.7-.2 1-.1 1.3.6 1.8 1.2.7 1.5.7 2-.4l.4-.9 1 .8c1 .7 1 1 .9 1.9-.2 1 0 1.2.7 1.7 1.1.8 1.5.8 1.8 0 .1-.5.4-.8.7-.8a98.7 98.7 0 0 1 10.2-5.5l9.7-4.9.9.9.9.8-9.3 4.7-9.9 5.3c-.9.9-.8 2.5.3 3 .7.3 1 .3 1.5-.2l1.2-.6c.4 0 .4 0 0-.3-.3-.2.3-.5 1.7-1.2 2.6-1 2.8-1 .5.3-1 .5-1.6.9-1.4.9.7 0 6.9-3.6 6.7-4-.1-.2 0-.3.1-.1.5.3 3.4-1.1 3.1-1.6 0-.1 0-.4.2-.5.3-.2.4-.1.2.1-.4.6 0 .5 1.5-.3 1.7-.8 2.3-1.7.7-.9-1.2.6-1.2.6-.3 0 2.1-1.5 4-3.4 3.7-4-.1-.3 0-.3.6.2.7.7.7 1 .4 2.2a54.2 54.2 0 0 0-1.9 7.5c-.1 0-.2.2-.1.5s0 .6-.3.7c-.8.3-1 1.2-.3 1 .5 0 .6.2.6 2.4 0 1.3 0 2.3.2 2.2.2 0 .3 0 .3.4 0 .3 0 .5-.2.5-.5 0-4-1.5-4-1.8l1.2-2.8 1.1-2.6s-2 1-4.3 2.4c-3.8 2.2-4.4 2.5-6 2.4-1.4 0-1.7 0-2.6 1-.6.6-1 1.4-1 1.8 0 .8-.8 1-1.4.3zm8.7-6.3c0-.4-.1-.7-.3-.6-.2.2-.3.5-.2.8.3.7.5.6.5-.2zm2-.2c-.2-.2 0-.8.1-1.2.4-.7.4-.8-.3-.4s-1 1.4-.5 2c.4.3.8.2.6-.4zm-18.4 4c-.1-.1 0-.3.2-.3s.3.2.3.4l-.1.3-.4-.3zm.7-2.6c-.3-.3-.5-.5-.3-.5s.6.2.8.5c.6.7.4.7-.5 0zm12.2-4.2 1-.7 1.1-.4-1 .7-1.1.4zm3.9-2.1.7-.6.7-.2c0 .1-.3.4-.7.6l-.7.2zm-1.4-9c0-.5 2.5-2.5 3.3-2.5.4 0 1 .2 1.3.5.6.4.4.6-1.6 1.3-1.2.4-2.4.8-2.6 1-.2 0-.4 0-.4-.2zm-1-4c-.8-.7-.2-.7 1 0 .5.2.6.4.3.4s-.9-.2-1.2-.5zm11.8-1.6c.3-1.3.6-1.6.4-.3-.2 1 .2 1.3.5.5 0-.2.3-.3.4-.2.4.4-.1 1-.9 1-.6 0-.6-.2-.4-1zm-17.2.2c0-.1.4-.3.9-.3s.9 0 .9.2l-1 .3c-.4 0-.8 0-.8-.2zm1.7-3.2c-.5-.4-.5-.6 0-2.3.4-1.4.7-1.8 1.2-1.7.3 0 .7.2.9.4.1.2 0 .2-.5.1-.7-.2-1 .5-1 3 0 1.1.1 1-.6.5zm8.7-1c.3-.7.4-1.4.3-1.5-.1-.1 0-.2.2-.2s.4-.2.4-.5.2-.6.4-.6.2.2 0 .7c-.2.4-.5 1.2-.5 1.9 0 .8-.3 1.2-.7 1.2-.6.2-.6 0-.1-1zm-6.9-8.6v-.5c.3-3.8.8-6.4 1.2-6.4.3 0-.2 4.7-.6 5.9-.3.7-.6 1.2-.6 1z" style="fill:#4c709b;stroke-width:.352778" transform="translate(-44.5 -173.2)"/>
  <path d="M85.6 233.6c0-.1.5-1.3 1.2-2.5.6-1.3 1-2.4.8-2.6l-1.4-.3c-.7 0-1.4-.2-1.6-.3-.2-.1-.5 0-.7.4-.3.6-.4.6-.4 0 0-.7.6-.9 2.1-.7a47.9 47.9 0 0 0 5 .4c0 .6-.9 1.5-1.3 1.4-.5-.2-2.6 2-2.6 2.7 0 .4-1 2-1 1.5zm-5.6-1.1c-.5-.6-.1-.7.6-.2.3.2.4.4.2.5-.2.1-.6 0-.8-.3zm-17.7-5c-.2-.1 0-.8.4-1.6.6-1.2.8-1.3 1.4-1 .7.3 1 1.5.5 1.3-.5 0-2.2 1-2 1.2.2.4 0 .4-.3.1zm17.6-.7c0-.3.4-.4.7-.3l.7.2v.3c-.4.6-1.7.4-1.4-.2zm1.9-1.2-1.3-.2 1.3-.2c.6 0 1.6 0 2 .3l1 .4h-1a8 8 0 0 1-2-.3zm-7.7-1.8c-.3-.3-.2-.7.3-1.4.4-.6.7-1.1.6-1.2-3-1.9-14.3-9.9-16.5-11.7l.5-.3c.5-.1 1 .3 2.1 1.4 1 1 2 1.7 2.4 1.8 1.3.1 2.3.8 2.6 1.6.2.7 1.7 2 2.3 2 .2 0 .3-.2.3-.5 0-.7.4-.6 1.5.2.6.5 1 1.1 1 1.6s.4 1.1 1 1.6c1.3 1 1.4.9 1.8-.3.3-.8.8-1.2 1.7-1.5a5 5 0 0 1 1.4-.3l.4-.3c.5-.7 3.5-2.2 4.1-2 .5.2.5.1.2 0-.3-.3-.2-.5.5-.8.5-.3 1-.4 1.3-.2.1 0 .2 0 .2-.3 0-.2 1.2-1 2.7-1.9 1.6-.8 3.6-2.2 4.6-3.1.9-1 1.7-1.6 1.8-1.5a49.8 49.8 0 0 0-1.7 8c0 .4 0 .7-.3.7-.1 0-.2.2-.1.5s0 .6-.3.7c-.8.3-1 1.2-.3 1 .5 0 .6.2.6 2.4 0 1.3 0 2.3.2 2.2.2 0 .3 0 .3.4 0 .3 0 .5-.2.5-.5 0-4-1.5-4-1.8l1.2-2.8 1.1-2.6s-2 1-4.3 2.4c-3.8 2.2-4.4 2.5-6 2.4-1.4 0-1.7 0-2.6 1-.6.6-1 1.4-1 1.8 0 .8-.8 1-1.4.3zm8.7-6.3c0-.4-.1-.7-.3-.6-.2.2-.3.5-.2.8.3.7.5.6.5-.2zm2-.2c-.2-.2 0-.8.1-1.2.4-.7.4-.8-.3-.4s-1 1.4-.5 2c.4.3.8.2.6-.4zm-18.4 4c-.1-.1 0-.3.2-.3s.3.2.3.4l-.1.3-.4-.3zm.7-2.6c-.3-.3-.5-.5-.3-.5s.6.2.8.5c.6.7.4.7-.5 0zm-11.3-9.5c-.1-.3 0-1 .4-1.5l.6-.9.4.9c.3.6.3 1 0 1.4-.4.8-1.1.8-1.4.1zm36.8-11.4c.3-1.3.6-1.6.4-.3-.2 1 .2 1.3.5.5 0-.2.3-.3.4-.2.4.4-.1 1-.9 1-.6 0-.6-.2-.4-1zm-17.2.2c0-.1.4-.3.9-.3s.9 0 .9.2l-1 .3c-.4 0-.8 0-.8-.2zm1.7-3.2c-.5-.4-.5-.6 0-2.3.4-1.4.7-1.8 1.2-1.7.3 0 .7.2.9.4.1.2 0 .2-.5.1-.7-.2-1 .5-1 3 0 1.1.1 1-.6.5zm8.7-1c.3-.7.4-1.4.3-1.5-.1-.1 0-.2.2-.2s.4-.2.4-.5.2-.6.4-.6.2.2 0 .7c-.2.4-.5 1.2-.5 1.9 0 .8-.3 1.2-.7 1.2-.6.2-.6 0-.1-1zm-6.9-8.6v-.5c.3-3.8.8-6.4 1.2-6.4.3 0-.2 4.7-.6 5.9-.3.7-.6 1.2-.6 1z" style="fill:#a86437;stroke-width:.352778" transform="translate(-44.5 -173.2)"/>
  <path d="M69.8 217.7c-10-7.2-11.4-8.2-10.8-8.5.5-.1 1 .3 2.1 1.4 1 1 2 1.7 2.4 1.8 1.3.1 2.3.8 2.6 1.6.2.7 1.7 2 2.3 2 .2 0 .3-.2.3-.5 0-.7.4-.6 1.5.2.6.5 1 1.1 1 1.6s.4 1.1 1 1.6c1.3 1 1.4.9 1.8-.3.3-.8.8-1.2 1.7-1.5a5 5 0 0 1 1.4-.3l.4-.3c.5-.7 3.5-2.2 4.1-2 .5.2.5.1.2 0-.3-.3-.2-.5.5-.8.5-.3 1-.4 1.3-.2.1 0 .2 0 .2-.3 0-.2 1.2-1 2.7-1.9 1.6-.8 3.6-2.2 4.6-3.1a8 8 0 0 1 1.8-1.6l-.7 2.7c-.8 2.4-1 2.7-2 3l-2.8 1.4c-.9.5-4 2.2-6.9 4-2.9 1.6-5.6 3-6 3-.4 0-2.5-1.4-4.7-3z" style="fill:#3e475a;stroke-width:.352778" transform="translate(-44.5 -173.2)"/>
</svg>