<svg xmlns="http://www.w3.org/2000/svg" width="277.3" height="277.3" viewBox="0 0 73.4 73.4">
  <path d="M44.5 210v-36.7h73.4v73.4H44.5Z" style="fill:#fefefe;stroke-width:.352778" transform="translate(-44.5 -173.2)"/>
  <path d="m83.8 243.5-2.8-1.7c-1-1-1.1-4.2-.4-6 .8-2 .7-2.4-.5-3-1.1-.6-1.2-.6-1.8.2-4.1 5.2-5.1 5.7-9 4.7-3.3-.8-4.1-1.4-4.3-3.4 0-1.2.2-2.4 1.2-4.7l1.2-3-.9-1.4c-.8-1.2-1-2-1.1-4.4-.2-2.8-.2-2.9-1.7-4.3-3.5-3.2-3.8-8.4-.7-13.5.6-1 1.6-2.3 2.3-2.8.8-.6 1-1 1-1.6-.3-1 0-1.6.6-1.4.8.3.6-.4-.2-1.2-1.3-1.1-1.4-1.7-1-4.2a19 19 0 0 1 4.2-8.7c1.4-1.6 1.4-1.6 1-3.2-.6-2.1 0-3 2.5-3.9 5.6-1.8 11.4.2 16.6 5.5 3.3 3.3 4 5.1 4.2 10.3.1 3.7 0 4.3-.6 5.1-.8 1.1-1.2 4.9-.6 5.1l3.8 2.7c3.1 2.4 3.5 2.8 4.4 5a18 18 0 0 1 2.2 7.6c0 2-1 6.5-1.9 8-.7 1.5-3 2.8-4.6 2.8-1.4 0-1.5 0-2.2 1.4-.6 1.3-.6 1.6-.2 2.6.7 1.6.6 4.7-.3 6a43 43 0 0 1-4.9 6c-1 .8-3.2.5-5.5-.6zm-14.5-23.8c.3-.2.6-.6.6-.8 0-.2.4-.4 1-.5.5 0 1-.3 1-.5.1-.3-.2-.7-3.3-3.6-1.8-1.7-1.9-2.1-.4-2 1.6 0 1.6-.6 0-2.2l-2-2.4-.6-1 .2 2.2.3 5.5c.2 4.9 1.3 6.8 3.2 5.3zM90.5 206l.2-2.4-.7 1.7c-.4 1.2-.7 2.6-.7 4v2l.5-1.4c.3-.7.6-2.5.7-3.9z" style="fill:#e7e7d7;stroke-width:.352778" transform="translate(-44.5 -173.2)"/>
  <path d="M84.1 243.5c-1.1-.6-2.4-1.4-2.9-1.9-1.1-1.2-1.3-3.4-.4-6l.7-2-1-.7c-.4-.4-1-.7-1.3-.7a11 11 0 0 0-2.4 2.5c-2.4 3-3.9 3.7-6.6 3.2a16 16 0 0 1-3.5-1.2c-1.4-.7-1.6-.9-1.7-2.3 0-1 .3-2.3 1.2-4.7 1-2.5 1.3-3.3 1-3.8a8.8 8.8 0 0 1-1.8-5.3c-.2-2.6-.2-2.7-1.8-4.4-2.1-2.3-2.7-3.8-2.4-7.1.2-3.2 1.7-6.6 3.8-8.4 1-.8 1.4-1.5 1.4-2 0-.8.1-1 .8-.8 1.4.3 1.4-.5 0-1.5-1.6-1.3-1.9-2-1.5-4.6.4-2.6 2-6 4.1-8.5 1.6-2 1.6-2 1.2-3.4-.4-1.2-.4-1.5.2-2.3 1.4-2 6.1-2.7 10-1.7 2.8.8 4.9 2 8 4.9 3.7 3.5 4.7 5.7 5 10.8.2 4.3-.2 5.4-2 6.8-1 .7-1.1.8-.6 1.5.3.4.5 1.1.5 1.6s.2.7.5.7c.2-.1 1.3.5 2.3 1.3l3.3 2.4c1.6 1.2 2.6 2.7 4 6a13 13 0 0 1 .5 9.3c-.9 3.6-1.7 5.3-3 5.7-.4.2-1 .5-1 .7-.2.2-1 .4-1.8.4-1.5 0-1.6 0-2.3 1.6-.7 1.4-.7 1.6-.2 2.6a7 7 0 0 1 0 5.4 32 32 0 0 1-5 6.3c-1.3 1-2.8.9-5.3-.4zm-4.3-19.2c3.3-.8 5-2.3 7-6.3l2.2-4a32.1 32.1 0 0 0 2.7-9.9c.2.8.8.4.8-.5 0-.4-.2-.6-.4-.5-.2.2-.3-.2-.3-.8 0-1.7-.7-1.6-1 0-.8 2.6-.9 2.9-1.7 4.6-.7 1.3-.8 2-.6 3.5.2 1.8.1 2-1.3 3.6-2 2.1-5 3.4-9.4 4-2 .2-4.5-.6-6-2a8 8 0 0 0-2-1.2c-.6-.3-1.4-.7-1.6-1-.6-.7 2-.5 3.4.2.7.4 2.7.8 4.4 1 2.7.3 3.6.3 5.2-.2 2.5-.7 6.2-3 6.4-4.1l.2-1c-.1 0-1 .3-1.9.8-1.1.6-2.8 1-4.9 1.3-1.7.2-4.1.6-5.3 1-1.7.3-2.4.4-3.4 0-1.6-.5-5.4-4-6.3-6l-.7-1.6.2 2.9.4 6c0 4.8 1.3 7.5 4.2 9.1 2.7 1.6 5.8 2 9.7 1zM72.3 208c.6-.2.7-.4.6-1.3l-.2-2.9v-1.7l-1.3 1.3c-.8.7-1.5 1.3-1.7 1.3-.2 0-.8-.9-1.4-2-1.1-2-1.3-2.1-1.9-1.4-.6.7 0 2.6 1 3.8.9.9 1 1.2.7 1.7-.5 1-.4 1 1 1.2l1.9.2c.2 0 .8 0 1.3-.2z" style="fill:#e1d4b0;stroke-width:.352778" transform="translate(-44.5 -173.2)"/>
  <path d="M84.9 243.8c-4.3-1.6-5.4-3.8-4.1-8l.7-2.2-1-.7c-.4-.4-1-.7-1.3-.7-.2 0-1.3 1-2.3 2.3-2.4 3-3.4 3.5-6.3 3.3a12 12 0 0 1-3.8-1c-1.5-.8-1.7-1-1.8-2.4 0-1 .3-2.3 1.3-4.7l1.4-3.4-.8-.9c-1-1.2-1.6-3-1.6-5.6 0-2 0-2-1.6-3.5a9.5 9.5 0 0 1-2.1-3 13 13 0 0 1 .6-8.6c.9-2 2.9-4.6 3.5-4.6.2 0 .3 1.3.3 3a51.3 51.3 0 0 0 .3 15.4c1.2 4 4.8 6.5 9.6 6.5 4.2 0 6.1-.7 8.1-2.7a32 32 0 0 0 6.7-12.4c.4-1.8 1-3.6 1.3-4.2a5 5 0 0 0 .5-2.1c0-.7 0-1.3.2-1.4.1-.2 1 .4 2.2 1.2 1 .9 2.6 2 3.3 2.5 1.6 1.2 2.6 2.7 4 6a13 13 0 0 1 .5 9.3c-.9 3.6-1.7 5.3-3 5.7-.4.2-1 .5-1 .7-.2.3-1 .4-1.7.3-1.4 0-1.5 0-2.3 1.5-.8 1.4-.8 1.5-.3 2.9a7 7 0 0 1 0 5.3 32 32 0 0 1-5 6.3c-1.1.8-2.2.8-4.5 0zm-7.7-15.2c-.1-.2-.2-.2-.2.3 0 .3 0 .5.2.4v-.7zM72.5 216l-2.9-1.3c-.2 0-.5-.2-.7-.5-.5-.6-.2-.5 4.1.7 2.4.8 3.5.9 5.5.8 3.3-.3 6.9-1.7 8.5-3.6 1-1 1.2-1.1 1.2-.6 0 .3-.7 1.3-1.6 2.1a15 15 0 0 1-9.1 3.4c-2.3.2-2.7.1-5-1zm-.7-3.8-1.9-1-.9-.8 1.2.3c1 .2 1.2.1 1-.5-.1-.6 0-.8.9-1 1.3-.2 2 .1 2 1 0 .8.8 1.1 1.8.6 1.4-.7 2.1-1.8 2-3 0-.8-.3-1-1.2-1.3-1.2-.3-2.9-2-3-3a16.3 16.3 0 0 0-.2-2.3c-.1-1-.6-.7-1.2.5-.6 1.5-1.3 1.6-2.7.5-1.3-1.1-1.5-2.3-.4-2.3.9 0 1.8-.4 1.8-.8 0-.1-.4-.3-.7-.3-.4 0-.9-.3-1-.7l-2-1.8c-1.6-1.1-1.6-1.2-1.6-3 0-1 .3-2.8.6-3.8.8-2.2 3.8-6.9 4.5-7.2.4-.1.5-.6.3-2.3-.2-2.1-.2-2.3.7-3 1.3-1 4.5-1.6 7.3-1.3 3.5.4 6.9 2.1 10.2 5.5 3.8 3.6 4.6 5.4 4.8 10.5.3 4.3-.1 5.6-2 6.6-.8.4-1 .8-1 1.2.2.4.1.7 0 .7-.2 0-.4.7-.5 1.5-.6 4.3-2.4 7.5-4.8 8.8-1 .4-2.7.8-5.2 1l-4.9.7c-1.3.4-2.4.4-3.9 0zm16-10.2v-.4l-.4.4c-.2.2 0 .3.1.3.2 0 .4-.1.4-.3zm-20.7 6.5c-.3-.3-.4-.6-.3-.7.1-.1.4 0 .6.4.3.3.4.6.3.7 0 0-.4 0-.6-.4zm-.4-9.6c-.5-.6-.4-.6.1-.1.4.2.6.5.6.6 0 .3-.3 0-.7-.5z" style="fill:#c9b496;stroke-width:.352778" transform="translate(-44.5 -173.2)"/>
  <path d="M84.9 243.8c-4.3-1.6-5.4-3.8-4.1-8l.7-2.2-1-.7c-.4-.4-1-.7-1.3-.7-.2 0-1.3 1-2.3 2.2-2.3 2.9-3.3 3.5-5.3 3.5a12 12 0 0 1-5.7-1.6c-1.3-1-1.1-3 .4-6.6l1.4-3.3-.8-1c-1-1.2-1.6-3-1.6-5.6 0-2 0-2-1.6-3.5-2-2-2.8-3.8-2.5-7.1a13 13 0 0 1 3-7.8c1.7-1.8 2-1.7 1.6 1l-.2 8.3c0 5.5 0 6.4.7 8.2a9.8 9.8 0 0 0 8.8 6.2c3 .2 6.4-.6 8-1.9 2.7-2 6.8-9 7.6-12.9.3-1.2.8-3.2 1.3-4.4.4-1.1.7-2.3.6-2.5v-1c.2-.4.7-.2 2.3 1 1 .9 2.6 2 3.3 2.5 1.6 1.2 2.6 2.7 4 6a13 13 0 0 1 .5 9.3c-.4 1.8-1 3.6-1.4 4.2-.8 1.3-3.3 2.7-4.7 2.5-1 0-1.2.1-2 1.4-.7 1.5-.7 1.6-.2 3.1 1.2 3.2 0 6.2-4.1 10.5-1.9 2-2.6 2-5.4 1zM77 230.5c-.4-.4-3.8-1.5-4-1.3 0 .1.1.3.4.4 3.5 1.3 4.2 1.5 3.6 1zm.2-1.9c0-.6 0-.7-.3-.2-.5.6-.5 1 0 1 .1 0 .3-.3.3-.8zm.4-1.7-1.1-.3c-.3 0-.3.1.2.3 1 .5 1.5.5.9 0zm-3.9-1.2c-.6-.3-1.3-.5-1.6-.4-.2 0 .2.3.9.5 1.7.5 2.1.5.7-.1zm-.4-9.6c-.8-.4-2.3-1-3.1-1.5-1.3-.5-1.4-.6-.6-.5l3.2.9c3.5 1 5 1.1 7.7.5a21 21 0 0 0 3.5-1.1c.6-.3 1.1-.5 1.2-.4a13.5 13.5 0 0 1-11.9 2zm-1-4c-2.2-.7-2-1 .4-.8 1.8.1 2.6 0 3.5-.4.7-.4 2.2-.7 4-.7 1.7 0 3.8-.4 4.9-.7 1.7-.5 2-.7 3.2-2.6.7-1 1.3-1.8 1.3-1.6 0 .5-2 3.4-3 4.2-1 1-4.4 2-7.3 2a17 17 0 0 0-5.8 1l-1.2-.4zm9-5.4c-2-.3-2.5-.5-3-1.3s-.7-.9-1.2-.5c-.5.3-.8.2-1.3-.5-.4-.4-.7-1-.7-1.3 0-.2-.3-.5-.6-.6-.4-.2-.5-.6-.3-1.6.2-1.4.1-1.4-1.2-2-.8-.3-1.8-.5-2.2-.5-.6 0-4.3-2.5-5-3.4a7 7 0 0 1 0-2.6c.1-2.8 2-6.8 4-9 1.4-1.6 1.5-1.6 1.2-3.7l-.2-2.1 1.2-.7c3-2 8-1.8 12.2.4 2.8 1.4 7.4 5.7 8.5 8 .6 1.1.9 2.6 1.1 5.5.2 2.1.3 4.3.1 4.8-.2 1-2.3 3.1-3 3.1-.2 0-.2.3-.1.6 0 .4-.2 1.3-.5 2a7 7 0 0 0-.7 1.9c0 .2-.3.6-.6.8-.5.4-.5.3-.3-1.3s.2-1.7-.8-2.1c-.5-.3-1.3-.5-1.7-.4-.5 0-.4.1.4.4 1.6.5 1.5.8-.3 1l-2 .6c-.3.2 0 .3 1 .1l1.5-.2-.2 1.2a5.2 5.2 0 0 1-2.2 3.3c-.5.4-1.3.4-3.1 0zm-10.3-5c-.3-.4-.5-.5-.3-.2s.1.4-.1.3c-.2-.1-.4-.6-.5-1-.2-.4-.1-.6 0-.5.2.1.4 0 .5-.2.2-.8 1.7 0 1.7 1s-.5 1.2-1.3.5z" style="fill:#aca593;stroke-width:.352778" transform="translate(-44.5 -173.2)"/>
  <path d="M86.1 244.2c-1.7-.5-4.5-2-5-2.9-.8-1-.8-4.3 0-6 .6-1.8.6-1.8-.8-2.7l-1.3-.8-1.1 1.4c-3 3.6-3.9 4.4-5.7 4.6-2 .2-5.5-.7-6.4-1.7-1-1.1-.7-3.3.7-6.6l1.3-3-.9-1.1c-1-1.3-1.6-3.5-1.6-6 0-1.5-.1-1.7-1.6-3-1-1-1.7-2-2.1-3.3a13 13 0 0 1 2.6-11.7c1.5-1.6 2-1.6 1.6 0-.2 1.4-.6 8.8-.6 12.8s2.3 8.3 5.2 9.8c.6.3 1.2.8 1.4 1a19 19 0 0 0 6.5 2.1s0-.2-.3-.3l-2.4-.8-1.8-.6h2.4c1.3 0 3.2-.4 4.3-.7 1.7-.5 2.4-1 4-2.8 3-3 5.3-7.5 6.4-11.7.5-1.8 1.1-3.9 1.4-4.5a4 4 0 0 0 .4-2.1c-.2-1.5.3-1.5 1.8-.4l3.4 2.6c2.2 1.7 3 3 4.6 7.6 1.2 3.4 1.1 5.2-.4 9.6-1 2.9-1 3-2.7 4-1.3.8-2 1-2.9.9-1-.2-1.1 0-2 1.5-.8 1.6-.8 1.7-.2 3 1.2 2.7.7 4.7-2.2 8.3-2.8 3.6-3.8 4.2-6 3.5zm-9-13.7c-.2-.4-3.7-1.6-4-1.3 0 .1.1.3.4.4 3.6 1.3 4 1.4 3.6.9zm.2-1.8c0-.4-.2-.6-.3-.5-.2 0-.4.4-.4.7 0 .3.2.5.4.5.1 0 .3-.3.3-.7zm.8-17.9h2.6c.8 0 .2.1-1.3.1h-1.3zm4.8-.3c.2-.1.6-.1.8 0 .3 0 0 .2-.4.2-.5 0-.7-.1-.4-.2zm-3.3-4.4c-.9-.3-1.4-1.2-1-1.8.2-.4-1.3-2-1.7-1.8-.2 0-.3 0-.3-.3 0-.1-.3-.3-.6-.3-.7 0-1.5-.6-1.5-1.1 0-.1.2-.3.5-.4.3-.2 1 .2 1.6.9l1 1.1H86l-.2 1c0 .5-.6 1.4-1.3 2-1 .9-1.5 1-2.7 1a8 8 0 0 1-2.2-.3zm-8.3-4.8c0-.4-.2-.9-.4-1.1-.3-.3-.3-.4 0-.4.4 0 .8.2 1 .4.6.6.6 1.7 0 1.7-.4 0-.6-.3-.6-.6zm5-1.1c-.4-.4-1.7-1-3-1.3a18 18 0 0 1-6.6-3.2c-1.1-1-1.1-1-1-3.3a18 18 0 0 1 4.4-9.2c1.5-1.6 1.5-1.7 1.2-2.8-.7-2-.3-3 1.6-3.9a14 14 0 0 1 9.6-.1c3.8 1.5 8.7 5.8 10.4 9a28 28 0 0 1 1 10.6c-.3.9-2.3 2.7-2.9 2.7-.1 0-.3.4-.3 1s-.1.8-.4.5a7 7 0 0 0-2.8-.2c-6 .2-9 .2-9.5 0-.4-.3-.4-.3 0 .2.4.6.4.6-.3.6-.4 0-1-.3-1.4-.6z" style="fill:#ab9b6c;stroke-width:.352778" transform="translate(-44.5 -173.2)"/>
  <path d="M86.3 244.2a14 14 0 0 1-5-2.6c-.7-.7-.8-1.2-.8-2.8 0-1 .2-2.6.5-3.4.7-2 .7-2-.7-2.8l-1.3-.8-1.1 1.3c-2.8 3.6-3.9 4.5-5.6 4.7-1.8.2-5.4-.7-6.4-1.6-1-1-.8-3.5.6-6.8 1.1-2.5 1.2-3 .8-3.5-1-1.2-1.7-3-1.9-5.6-.2-2.5-.2-2.7-1.7-4a8 8 0 0 1-2.1-3.2 13 13 0 0 1 2.6-11.7c1.5-1.6 2-1.6 1.6 0-.2 1.4-.6 8.8-.6 12.8s2.5 8.7 5.4 9.9c.8.4 1 .7 1.2 2.2.3 2.9.8 3.5 3.4 4.4 1.2.5 2.3.7 2.5.6.5-.6.6-4.4.2-4.5l-2.3-.8-1.8-.6h2.4c1.3 0 3.2-.4 4.3-.7 1.7-.5 2.4-1 4-2.8 3-3 5.3-7.5 6.4-11.7.5-1.8 1.1-3.9 1.4-4.5a4 4 0 0 0 .4-2.1c-.2-1.5.3-1.5 1.8-.4l3.4 2.6c2.2 1.7 3 3 4.6 7.6 1.2 3.4 1.1 5.2-.4 9.7-1 3-1 3-3 4-1.2.6-2.2.8-2.7.7-.8-.1-1 0-1.8 1.5l-.9 1.7.7 1.6c1 2.7.6 4.3-2.2 8a17.3 17.3 0 0 1-3.4 3.5c-1 .5-1 .5-2.5.1zm-15.7-18.8-.8-.6c-.8-.4-.8-.3-.1.2.7.6 1 .6 1 .4zm4.2 4.1c-1.3-.4-1.7-.8-1.8-1.4v-1c.6-.3 3.6 1 3.6 1.5 0 .3-.2.4-1 0-.4-.1-1-.2-1 0-.2 0 .3.3.9.5l1.1.7v.3l-1.8-.6zm4.7-26.4h1l-.5.1c-.6 0-.8 0-.5-.1zm3.4 0c.2-.1.6-.1.8 0l-.4.1c-.5 0-.7 0-.4-.1zm-5.4-3.5c-5-1-9.3-2.5-11-4.2-1-.8-1-2-.3-5a20 20 0 0 1 4.1-7.4c1.3-1.4 1.3-1.5 1-2.7-.6-1.7-.2-3 1-3.6 1.5-.8 5.4-1.2 7.5-.9 4.9.8 10.6 5.1 13 9.9.8 1.3 1 2.2 1 6 .2 4.3.1 4.7-.6 5.4-2.4 2.6-9.3 3.7-15.7 2.5z" style="fill:#3793c6;stroke-width:.352778" transform="translate(-44.5 -173.2)"/>
  <path d="M86.3 244.2a14 14 0 0 1-5-2.6c-.7-.7-.8-1.2-.8-2.8 0-1 .2-2.6.5-3.4.7-2 .7-2-.7-2.8l-1.3-.8-1.1 1.3c-2.8 3.6-3.9 4.5-5.6 4.7-1.8.2-5.4-.7-6.4-1.6-1-1-.8-3.5.6-6.8 1.1-2.5 1.2-3 .8-3.5a8.8 8.8 0 0 1-1.8-6.4l.2-1 1 1.8a9 9 0 0 0 4.2 4c.5.1.7.7.9 2 .3 2.9.8 3.5 3.4 4.4 1.2.5 2.3.7 2.5.6l.4-2.4v-2L76 226l-2.2-.7h2.4c1.3 0 3.2-.4 4.3-.7 1.7-.5 2.4-1 4-2.8 3-3 5.3-7.5 6.4-11.7a31 31 0 0 1 1.4-4.4 6 6 0 0 0 .5-2.3c0-.7 0-1 .3-1s1.9 1.2 3.6 2.4c2.7 2 3.2 2.6 4 4.4 2.4 5.3 2.8 8.2 1.8 12-1 4.2-1.5 4.9-3.5 5.8-1.2.6-2.2.8-2.7.7-.7-.1-1 0-1.7 1.5l-.9 1.7.7 1.6c1 2.7.6 4.3-2.2 8a17.3 17.3 0 0 1-3.4 3.5c-1 .5-1 .5-2.5.1zm-15.7-18.8-.8-.6c-.8-.4-.8-.3-.1.2.7.6 1 .6 1 .4zm31.7-11-.4-1c-.7-.8-1 0-.6 1.1.3.8 1 .8 1 0zm-27.5 15.1c-1.3-.4-1.7-.8-1.8-1.4v-1c.6-.3 3.6 1 3.6 1.5 0 .3-.2.4-1 0-.4-.1-1-.2-1 0-.2 0 .3.3.9.5l1.1.7v.3l-1.8-.6zM64 216.6a9 9 0 0 1-2.7-5.5c-.3-1.5-.2-1.7.7-2.5a9.8 9.8 0 0 1 3.1-2.1c.2 0 .2 1.8.1 4.3a32 32 0 0 0 .3 7l-1.5-1.2zm15.5-13.5h1l-.5.1c-.6 0-.8 0-.5-.1zm3.4 0c.2-.1.6-.1.8 0l-.4.1c-.5 0-.7 0-.4-.1zm-5.4-3.5c-5-1-9.3-2.5-11-4.2-1-.8-1-2-.3-5a20 20 0 0 1 4.1-7.4c1.3-1.4 1.3-1.5 1-2.7-.6-1.7-.2-3 1-3.6 1.5-.8 5.4-1.2 7.5-.9 4.9.8 10.6 5.1 13 9.9.8 1.3 1 2.2 1 6 .2 4.3.1 4.7-.6 5.4-2.4 2.6-9.3 3.7-15.7 2.5z" style="fill:#3185b8;stroke-width:.352778" transform="translate(-44.5 -173.2)"/>
  <path d="M86.3 244.2a14 14 0 0 1-5-2.6c-.7-.7-.8-1.2-.8-2.8 0-1 .2-2.6.5-3.4.7-2 .7-2-.7-2.8l-1.3-.8-1.1 1.3c-2.8 3.6-3.9 4.5-5.6 4.7-1.8.2-5.4-.7-6.4-1.6-1-1-.8-3.5.6-6.8 1.1-2.5 1.2-3 .8-3.5a9 9 0 0 1-1.8-4.3c-.2-1.4-.2-1.5.3-.9.3.4.6.8.6 1l1.3 1.1c2.6 2 2.8 2.1 2.1 1.9-.8-.3-.8 0 .1.5.6.3.7.3.6 0-.2-.2 0-.4.4-.4.5 0 .7.5 1 2.2a9 9 0 0 0 .8 2.6c.5.6 4.7 2 5 1.7l.4-2.4v-2.1l-1.5-.6-1.5-.6 2-.2c1.2 0 2.8-.4 3.5-.6 3.9-1.1 9.6-9.7 10.6-15.9.2-.8.6-2.1 1-2.9a6 6 0 0 0 .6-2.5c-.2-1.6 0-1.5 5.6 2.7 1.7 1.3 1.8 2.2.6 3.3-.8.8-1 1.9-.9 3.7 0 .4-.1.7-.3.9-.2 0-.4.3-.4.6 0 .2.2.2.6-.1.4-.4.5-.4.3.1-.2.3-.1.8.1 1l1.5 3.1a9 9 0 0 1 1 5l-.1 2.2-1.8 1c-1.2.7-2 1-2.6.8-.8-.1-1 0-1.8 1.5l-.9 1.7.7 1.6c1 2.7.6 4.3-2.2 8a17.3 17.3 0 0 1-3.4 3.5c-1 .5-1 .5-2.5.1zm-11.5-14.7c-1.3-.4-1.7-.8-1.8-1.4v-1c.6-.3 3.6 1 3.6 1.5 0 .3-.2.4-1 0-.4-.1-1-.2-1 0-.2 0 .3.3.9.5l1.1.7v.3l-1.8-.6zm-11-13.2c-2.2-2.2-2.3-3.4-.5-5.3 1.5-1.5 1.8-1 1.8 3v3.4l-1.2-1zm15.7-13.2h1l-.5.1c-.6 0-.8 0-.5-.1zm3.4 0c.2-.1.6-.1.8 0l-.4.1c-.5 0-.7 0-.4-.1zm-5.4-3.5c-5-1-9.3-2.5-11-4.2-1-.8-1-2-.3-5a20 20 0 0 1 4.1-7.4c1.3-1.4 1.3-1.5 1-2.7-.6-1.7-.2-3 1-3.6 1.5-.8 5.4-1.2 7.5-.9 4.9.8 10.6 5.1 13 9.9.8 1.3 1 2.2 1 6 .2 4.3.1 4.7-.6 5.4-2.4 2.6-9.3 3.7-15.7 2.5z" style="fill:#2975a6;stroke-width:.352778" transform="translate(-44.5 -173.2)"/>
  <path d="M86.3 244.2a14 14 0 0 1-5-2.6c-.7-.7-.8-1.2-.8-2.8 0-1 .2-2.6.5-3.4.7-2 .7-2-.7-2.8l-1.3-.8-1.1 1.3c-2.8 3.6-3.9 4.5-5.6 4.7-1.8.2-5.4-.7-6.4-1.6-1-1-.8-3.5.6-6.8 1.1-2.5 1.2-3 .8-3.5a9 9 0 0 1-1.8-4.3l-.2-1.5.7 1c.4.7 1.2 1.6 1.7 2 .6.4 1 1 .9 1.1-.1.2 0 .3.4.2.3-.2.5-.1.4 0-.3.5 1 1.2 1.6 1 .4-.2.6.3 1 1.8.2 1.2.6 2.3.9 2.5.6.6 4.4 1.8 4.8 1.6.2 0 .3-.7.3-1.3 0-2.2.4-3.4 1.1-3.4 1 0 2.2-.7 2-1.3-.3-.5 1.7-1.7 2.3-1.3.2.1.3 0 .1-.1 0-.2.5-1.2 1.4-2.2a29 29 0 0 0 6.2-11.9l1-3.7c.5-.8.7-2 .7-2.5v-1c.3-.2 5.6 3.4 5.9 3.9 0 .2 0 .3-.4.3-.3 0-.4.2-.3.5 0 .3-.1.7-.6 1-.4.1-.7.2-.7 0 0-.1-.2 0-.5.4-.4.5-.8.6-1.7.5-.8-.2-1.2-.1-1.2.2L93 211c0 .9 0 1.5.4 1.8.5.4.3 1.1-.3.8-.2-.2-.3-.1-.1.2.1.2.5.3.8.2.4-.2.5-.1.1.3-.3.3-.3.6 0 .7.2.1.3 0 .3-.2s.2-.2.4-.1.3.5.2.8v.3c.3-.3 1.6 1.2 1.6 1.8 0 .2.2.4.4.4.6 0 2.3 1.8 2.8 3 .2.6.4 2 .4 3.2 0 2.1 0 2.1-1.3 3-1 .5-1.7.7-2.4.5-.8-.2-1 0-1.7 1.5l-.9 1.7.7 1.7c1 2.6.6 4.2-2.2 8a17.3 17.3 0 0 1-3.4 3.4c-1 .5-1 .5-2.5.1zm3.1-16.9 2.3-.7c1.4-.4 1.7-.8 1.5-2.1v-1.7a3 3 0 0 0-.9-2.1l-.9-1.4c0-.7-.9-2-1.3-2.1-.5-.2-1.7 1.5-1.4 1.9.2.1 0 .4-.4.6l-2.6 2.1-2 1.8.6 1.4c.4 1 .6 1.7.4 2-.2.3-.1.6.1.7.5.4 3.4 0 4.6-.4zm1.7-1.7c0-.2.2-.4.5-.6.5-.2.6-.1.2.3-.5.7-.7.7-.7.3zm-8.3 1.1c0-.7 0-.8-.2-.4-.4.6-.4 1.3 0 1.3 0 0 .2-.4.2-.9zm10.4-19.2c0-.4-.2-.7-.4-.7l-.3.1-.4 1.3c-.3 1.2-.3 1.2.4.6.4-.4.7-1 .7-1.3zm-18.4 22c-1.3-.4-1.7-.8-1.8-1.4v-1c.6-.3 3.6 1 3.6 1.5 0 .3-.2.4-1 0-.4-.1-1-.2-1 0-.2 0 .3.3.9.5l1.1.7v.3l-1.8-.6zm-10.5-12.8c-.6-.7-.8-2.8-.3-2.8.2 0 .2-.1.1-.3 0-.2 0-.6.3-1 .5-.6.5-.5.5 1 0 .8 0 2 .2 2.7.3 1.3.1 1.4-.8.4zm15.2-13.6h1l-.5.1c-.6 0-.8 0-.5-.1zm3.4 0c.2-.1.6-.1.8 0l-.4.1c-.5 0-.7 0-.4-.1zm-5.4-3.5c-5-1-9.3-2.5-11-4.2-1-.8-1-2-.3-5a20 20 0 0 1 4.1-7.4c1.3-1.4 1.3-1.5 1-2.7-.6-1.7-.2-3 1-3.6 1.5-.8 5.4-1.2 7.5-.9 4.9.8 10.6 5.1 13 9.9.8 1.3 1 2.2 1 6 .2 4.3.1 4.7-.6 5.4-2.4 2.6-9.3 3.7-15.7 2.5z" style="fill:#c53b33;stroke-width:.352778" transform="translate(-44.5 -173.2)"/>
  <path d="M86.3 244.2a14 14 0 0 1-5-2.6c-.7-.7-.8-1.2-.8-2.8 0-1 .2-2.6.5-3.4.7-2 .7-2-.7-2.8l-1.3-.8-1.1 1.3c-2.8 3.6-3.9 4.5-5.6 4.7-1.8.2-5.4-.7-6.4-1.6-1-1-.8-3.5.6-6.8 1.1-2.5 1.2-3 .8-3.5a9 9 0 0 1-1.8-4.3l-.2-1.5.7 1c.4.7 1.2 1.6 1.7 2 .6.4 1 1 .9 1.1-.1.2 0 .3.4.2.3-.2.5-.1.4 0-.3.5 1 1.2 1.6 1 .4-.2.6.3 1 1.8.2 1.2.6 2.3.9 2.5.6.6 4.4 1.8 4.8 1.6.2 0 .3-.7.3-1.3 0-2.2.4-3.4 1.1-3.4 1 0 2.2-.7 2-1.3-.3-.5 1.7-1.7 2.3-1.3.2.1.3 0 .1-.1 0-.2.5-1.2 1.4-2.2a29 29 0 0 0 6.2-11.9l1-3.7c.5-.8.7-2 .7-2.5v-1c.3-.2 5.6 3.4 5.9 3.9 0 .2 0 .3-.4.3-.3 0-.4.2-.3.5 0 .3-.1.7-.6 1-.4.1-.7.2-.7 0 0-.1-.2 0-.5.4-.4.5-.8.6-1.7.5-.8-.2-1.2-.1-1.2.2L93 211c0 .9 0 1.5.4 1.8.5.4.3 1.1-.3.8-.2-.2-.3-.1-.1.2.1.2.5.3.8.2.4-.2.5-.1.1.3-.3.3-.3.6 0 .7.2.1.3 0 .3-.2s.2-.2.4-.1.3.5.2.8v.3c.3-.3 1.6 1.2 1.6 1.8 0 .2.2.4.4.4.6 0 2.3 1.8 2.8 3 .2.6.4 2 .4 3.2 0 2.1 0 2.1-1.3 3-1 .5-1.7.7-2.4.5-.8-.2-1 0-1.7 1.5l-.9 1.7.7 1.7c1 2.6.6 4.2-2.2 8a17.3 17.3 0 0 1-3.4 3.4c-1 .5-1 .5-2.5.1zm3.1-16.9 2.3-.7c1.4-.4 1.7-.8 1.5-2.1v-1.7a3 3 0 0 0-.9-2.1l-.9-1.4c0-.7-.9-2-1.3-2.1-.5-.2-1.7 1.5-1.4 1.9.2.1 0 .4-.4.6l-2.6 2.1-2 1.8.6 1.4c.4 1 .6 1.7.4 2-.2.3-.1.6.1.7.5.4 3.4 0 4.6-.4zm1.7-1.7c0-.2.2-.4.5-.6.5-.2.6-.1.2.3-.5.7-.7.7-.7.3zm-8.3 1.1c0-.7 0-.8-.2-.4-.4.6-.4 1.3 0 1.3 0 0 .2-.4.2-.9zm10.4-19.2c0-.4-.2-.7-.4-.7l-.3.1-.4 1.3c-.3 1.2-.3 1.2.4.6.4-.4.7-1 .7-1.3zm-18.4 22c-1.3-.4-1.7-.8-1.8-1.4v-1c.6-.3 3.6 1 3.6 1.5 0 .3-.2.4-1 0-.4-.1-1-.2-1 0-.2 0 .3.3.9.5l1.1.7v.3l-1.8-.6zm-10.5-12.8c-.6-.7-.8-2.8-.3-2.8.2 0 .2-.1.1-.3 0-.2 0-.6.3-1 .5-.6.5-.5.5 1 0 .8 0 2 .2 2.7.3 1.3.1 1.4-.8.4zm15.2-13.6h1l-.5.1c-.6 0-.8 0-.5-.1zm3.4 0c.2-.1.6-.1.8 0l-.4.1c-.5 0-.7 0-.4-.1zm-5.4-3.5c-5-1-9.3-2.5-11-4.2-.8-.7-1-1.8-.6-3.2.2-.8.2-.7 1.2.2 1 .8 4 2 4.5 1.6 0 0-.5-.6-1.2-1.1-2.2-1.6-3.7-3.1-3.7-3.7 0-.3.3-1 .6-1.4l.5-.9-.2 1c-.4 2 1.7 3.8 5.2 4.4l3.5.9c1.8.6 2.3.3.8-.4-.7-.4-.9-.6-.5-.8.3-.1-.6-.7-2.4-1.6a15 15 0 0 1-2.7-1.5l2.1.6c3 1 6.5 1.8 8 1.8 1 0 .9-.1-1-.6l-2.4-.8c-.1-.2.5-.4 1.5-.5 2.7-.4 3.2-.6 3-1 0-.3-.6-.6-1.2-.8-.6 0-1-.3-.9-.5.3-.4-1.4-.7-3.5-.5l-2.2.2c-.2 0-.4.3-.3.5.3.6.2.6-2-.3-3-1.4-3.5-2.5-2-4.3.7-.8 1-1.4.8-2-.2-.7-.1-.7.7-.3 1.2.6 2 .2 2-.9 0-.8-.8-2-1.4-2-.2 0-.3-.2-.3-.5 0-1.4 6.7-1.7 9.9-.5 4 1.5 8.6 5.4 10.4 9 .9 1.6 1 2.2 1.1 6.3.2 4.2.1 4.6-.6 5.3-2.4 2.6-9.3 3.7-15.7 2.5z" style="fill:#256a96;stroke-width:.352778" transform="translate(-44.5 -173.2)"/>
  <path d="M86.3 244.2a14 14 0 0 1-5-2.6c-.7-.7-.8-1.2-.8-2.8 0-1 .2-2.6.6-3.5l.5-1.7-1.2-1c-1-1-2.3-1.5-1.9-.8.3.5-3.7 5-4.7 5.6a5 5 0 0 1-2.2.5c-1.6 0-4.9-1-5.7-1.7-1-1-.8-3.5.6-6.8 1.1-2.5 1.2-3 .8-3.5-.8-1-1.5-2.6-1.8-4-.1-1.3-.1-1.4.3-.8.6 1 3 3.3 4 4 .4.3 1 .4 1.3.3.3-.1.6.4.9 1.9.2 1.1.6 2.2.9 2.4.7.7 4.5 1.9 4.8 1.6.2-.2.3-1 .4-1.9.1-1.8-.2-1.8 5.4-1 2 .3 3.7.5 3.9.3l1.1-.3a15 15 0 0 0 5.9-3c.2-.3.1-1.1-.5-2.7-1-3-1.2-3.9-.8-3.9.5 0 3 4.3 3.6 6.2.4 1.3.8 1.8 1.4 1.9l.8.1-.8.5c-.4.4-1 .5-1.7.3-1-.2-1 0-1.8 1.5l-.9 1.7.7 1.7c1 2.6.6 4.2-2.2 8a17.3 17.3 0 0 1-3.4 3.4c-1 .5-1 .5-2.5.1zM81.1 232h-.7c-.3.1-.2.2.2.2s.6 0 .5-.2zm11.7-1.5c2-1.5 1.8-1.6-.3-.3l-1.8 1.2c0 .4.8 0 2-1zm-18-1c-1.3-.4-1.7-.8-1.8-1.4v-1c.6-.3 3.6 1 3.6 1.5 0 .3-.2.4-1 0-.4-.1-1-.2-1 0-.2 0 .3.3.9.5l1.1.7v.3l-1.8-.6zm-10.2-12.6c-.4-.4-.3-.5.1-.5s.6.2.6.5l-.1.5s-.4-.2-.6-.5zm25.6-3.8c.1-.4.3-.6.4-.5.2.2 0 .4-.2.7-.3.3-.4.3-.2-.2zm-10.7-10h1l-.5.1c-.6 0-.8 0-.5-.1zm3.4 0c.2-.1.6-.1.8 0l-.4.1c-.5 0-.7 0-.4-.1zm-5.4-3.5c-5-1-9.3-2.5-11-4.2-.8-.7-1-1.8-.6-3.2.2-.8.2-.7 1.2.2 1 .8 4 2 4.5 1.6 0 0-.5-.6-1.2-1.1-2.2-1.6-3.7-3.1-3.7-3.7 0-.3.3-1 .6-1.4l.5-.9-.2 1c-.4 2 1.7 3.8 5.2 4.4l3.5.9c1.8.6 2.3.3.8-.4-.7-.4-.9-.6-.5-.8.3-.1-.6-.7-2.4-1.6a15 15 0 0 1-2.7-1.5l2.1.6c3 1 6.5 1.8 8 1.8 1 0 .9-.1-1-.6l-2.4-.8c-.1-.2.5-.4 1.5-.5 2.7-.4 3.2-.6 3-1 0-.3-.6-.6-1.2-.8-.6 0-1-.3-.9-.5.3-.4-1.4-.7-3.5-.5l-2.2.2c-.2 0-.4.3-.3.5.3.6.2.6-2-.3-3-1.4-3.5-2.5-2-4.3.7-.8 1-1.4.8-2-.2-.7-.1-.7.7-.3 1.2.6 2 .2 2-.9 0-.8-.8-2-1.4-2-.2 0-.3-.2-.3-.5 0-1.4 6.7-1.7 9.9-.5 4 1.5 8.6 5.4 10.4 9 .9 1.6 1 2.2 1.1 6.3.2 4.2.1 4.6-.6 5.3-2.4 2.6-9.3 3.7-15.7 2.5z" style="fill:#af3630;stroke-width:.352778" transform="translate(-44.5 -173.2)"/>
  <path d="M86.3 244.2a14 14 0 0 1-5-2.6c-.7-.7-.8-1.2-.8-2.8 0-1 .2-2.6.6-3.5l.5-1.7-1.2-1c-1-1-2.3-1.5-1.9-.8.3.5-3.7 5-4.7 5.6a5 5 0 0 1-2.2.5c-1.6 0-4.9-1-5.7-1.7-1-1-.8-3.5.6-6.8 1.1-2.5 1.2-3 .8-3.5-.8-1-1.5-2.6-1.8-4-.1-1.3-.1-1.4.3-.8.6 1 3 3.3 4 4 .4.3 1 .4 1.3.3.3-.1.6.4.9 1.9.2 1.1.6 2.2.9 2.4.7.7 4.5 1.9 4.8 1.6.2-.2.3-1 .4-1.9.1-1.8-.2-1.8 5.4-1 2 .3 3.7.5 3.9.3l1.1-.3a15 15 0 0 0 5.9-3c.2-.3.1-1.1-.5-2.7-1-3-1.2-3.9-.8-3.9.5 0 3 4.3 3.6 6.2.4 1.3.8 1.8 1.4 1.9l.8.1-.8.5c-.4.4-1 .5-1.7.3-1-.2-1 0-1.8 1.5l-.9 1.7.7 1.7c1 2.6.6 4.2-2.2 8a17.3 17.3 0 0 1-3.4 3.4c-1 .5-1 .5-2.5.1zM81.1 232h-.7c-.3.1-.2.2.2.2s.6 0 .5-.2zm11.7-1.5c2-1.5 1.8-1.6-.3-.3l-1.8 1.2c0 .4.8 0 2-1zm-18-1c-1.3-.4-1.7-.8-1.8-1.4v-1c.6-.3 3.6 1 3.6 1.5 0 .3-.2.4-1 0-.4-.1-1-.2-1 0-.2 0 .3.3.9.5l1.1.7v.3l-1.8-.6zm-10.2-12.6c-.4-.4-.3-.5.1-.5s.6.2.6.5l-.1.5s-.4-.2-.6-.5zm25.6-3.8c.1-.4.3-.6.4-.5.2.2 0 .4-.2.7-.3.3-.4.3-.2-.2zm-10.7-10h1l-.5.1c-.6 0-.8 0-.5-.1zm3.4 0c.2-.1.6-.1.8 0l-.4.1c-.5 0-.7 0-.4-.1zm-5.4-3.5c-7-1.3-11.8-3.6-11.8-5.8 0-1.5.3-1.5 1.8-.2.8.8 1.5 1.1 2 1 .3 0 1.6 0 2.8.4 1.1.3 2.4.5 2.8.5.5 0 .5 0-.3-.7-.7-.6-.7-.7-.1-.5.4.2 2.2.4 4 .5 2 .2 3.9.5 4.5.9 1.4.7 2.7.7 3.4 0 .9-.9.7-1.2-.9-1.3-.8 0-1.5-.3-1.6-.5 0-.3.5-.3 2.1-.2 1.9.1 2.3 0 2.8-.5.4-.5.4-.6-.3-.4l-1.5.5c-.4 0-1 0-1.2-.2a9 9 0 0 0-2.7-.6c-3.8-.4-3.7-.8.4-.8 2 0 3.9-.2 4.2-.4.4-.3.1-.4-1.1-.2-1.7.1-4-.6-3.7-1.2.1-.1 1-.4 1.8-.5 1.8-.3 3.5-1.1 3.1-1.7 0-.1-1.1-.3-2.4-.3-1.7 0-2.3-.1-2.8-.7-.6-.6-.6-.7.7-1.3.8-.4 1.7-1 2-1.5.7-.6.7-.7.1-1.6l-.7-.9c-.6 0-1.6.8-1.4 1 0 .3-.2.6-.6 1-1.1.6-5.2 1.9-6.4 2-1.2 0-3-1-3-1.6 0-.3-.5-.8-1-1.1-.4-.3-.8-.9-.8-1.2 0-.5.3-.6 2.6-.6 1.5 0 2.8-.2 2.9-.3.5-.5-.5-1.5-2.5-2.5l-2-1.3c0-.6 3.1-1 5.8-1 4 .2 6.7 1.6 10.5 5.2 4 3.8 4.7 5.4 4.8 10.8.1 3.8 0 4.4-.5 5.2-2.2 2.6-9.2 3.8-15.8 2.6zm3.3-18.5c0-.2-.1-.4-.3-.4-.2 0-.4.3-.4.6s.2.4.4.3c.2-.1.3-.4.3-.5z" style="fill:#545451;stroke-width:.352778" transform="translate(-44.5 -173.2)"/>
  <path d="M86.8 244.2c-.6-.1-2-.6-3-1.2l-2-1 1.1-1c1-1 1-1.2.6-2.1-.5-.8-.7-1-1.3-.7-.5.1-1 .7-1.3 1.1-.4.8-.4.8-.4-.7 0-.8.3-2.3.6-3.3l.6-1.7-1.2-1c-1.2-1-2.2-1.4-2-.8a19 19 0 0 1-4.5 5.4c-1.3.8-2.7.8-5.2.1-2.4-.7-3.5-1.4-3.5-2.3 0-.4.2-.6.4-.5.5.3 3.1-1.5 3.1-2.2l.3-2 .2-1.3-1.3.2c-1.2.2-1.3.2-1.1-.4 1-2.4 1-2.6.2-3.4-.8-1-1.4-2.4-1.4-3.7 0-.9 0-.9.4-.2.2.4.8 1 1.3 1.5s.7.7.4.6c-.4-.2-.4 0 0 .4s1.4 1.1 2.3 1.6c1 .5 1.6 1 1.6 1.4l.4 1.8c.4 1 .9 1.3 2.8 2l2.6.7c.2 0 .5-.8.7-1.8.3-1.5.5-1.9 1-2h.8l-.8.3c-.5.3-.4.3.6.2.8 0 1.3 0 1.1.3 0 .2.4.2 1.4.1 1-.1 1.3-.1.8 0-.5.3-.3.4 1 .5 3.4 0 6.8-.5 6.4-1.1 0-.2 0-.3.4-.1.7.2 2.7-1 3.3-2.2.4-.7.4-1.1-.3-3-1-3-1.2-3.9-.8-3.9a18 18 0 0 1 3.5 6c.4 1.2.9 2 1.3 2.1.6.2.4.3-1 .5-1.4.3-1.6.4-2.5 2-.8 1.5-.9 1.6-.3 2.7.3.6.5 2 .5 3 0 2.1-.5 3-3.3 6.4-2 2.4-3 3-4.5 2.7zM81.1 232h-.7c-.3.1-.2.2.2.2s.6 0 .5-.2zm9-.1c.2-.2.1-.4 0-.4-.3 0-.4.2-.4.4l.1.3.4-.3zm4-2.5c0-.2-.6.2-1.6.8-1 .6-1.8 1.2-1.8 1.4 0 .3 3-1.6 3.4-2.2zm-20.8-.6-.2-.9c0-.7.5-.7 2.6.3l1 .5-1-.2c-.8-.1-1.2 0-1.2.2 0 .4-.8.5-1.2.1zm-8.7-12c-.4-.3-.3-.4.1-.4s.6.2.6.5l-.1.5s-.4-.2-.6-.5zm25.6-3.7c.1-.4.3-.6.4-.5.2.2 0 .4-.2.7-.3.3-.4.3-.2-.2zm-13.4-13.7c-5.8-1.1-10.8-3.5-11-5.2-.3-1.8.1-2 1.6-.7 1 .9 1.6 1.2 2 1.1.4 0 1.7 0 2.9.4 1.1.3 2.4.5 2.8.5.5 0 .5 0-.3-.7-.7-.6-.7-.7-.1-.5.4.2 2.2.4 4 .5 2 .2 3.9.5 4.5.9 1.4.7 2.7.7 3.4 0 .9-.9.7-1.2-.9-1.3-.8 0-1.5-.3-1.6-.5 0-.3.5-.3 2.1-.2 1.9.1 2.3 0 2.8-.5.5-.6.6-.6-1.7 0a2 2 0 0 1-1.3 0 9 9 0 0 0-2.7-.7c-3.8-.4-3.7-.8.4-.8 2 0 3.9-.2 4.2-.4.4-.3.1-.4-1.1-.2-1.7.1-4-.6-3.7-1.2.1-.1 1-.4 1.8-.5 1.8-.3 3.5-1.1 3.1-1.7 0-.1-1.1-.3-2.4-.3-1.7 0-2.3-.1-2.8-.7-.6-.6-.6-.7.7-1.3.8-.4 1.7-1 2-1.5.7-.6.7-.7.1-1.6l-.7-.9c-.6 0-1.6.8-1.4 1 0 .3-.2.6-.6 1-1.1.6-5.2 1.9-6.4 2-1.2 0-3-1-3-1.6 0-.3-.5-.8-1-1.1-.4-.3-.8-.9-.8-1.2 0-.5.3-.6 2.6-.6 1.5 0 2.8-.2 2.9-.3.5-.5-.5-1.5-2.5-2.5l-2-1.3c0-.6 3.1-1 5.8-1 4 .2 6.7 1.6 10.5 5.2 4 3.8 4.7 5.4 4.8 10.8.2 4.9 0 5.4-2.8 6.8-1.8 1-2.2 1-7.2 1-2.9.1-6 0-7-.2zm4-18.3c0-.2-.1-.4-.3-.4-.2 0-.4.3-.4.6s.2.4.4.3c.2-.1.3-.4.3-.5z" style="fill:#8f2c29;stroke-width:.352778" transform="translate(-44.5 -173.2)"/>
  <path d="M86.8 244.2c-.6-.1-2-.6-3-1.2l-2-1 1.1-1c1-1 1-1.2.6-2.1-.5-.8-.7-1-1.3-.7-.5.1-1 .7-1.3 1.1-.4.8-.4.8-.4-.7 0-.8.3-2.3.6-3.3l.6-1.7-1.2-1c-1.2-1-2.2-1.4-2-.8a19 19 0 0 1-4.5 5.4c-1.3.8-2.7.8-5.2.1-2.4-.7-3.5-1.4-3.5-2.3 0-.4.2-.6.4-.5.5.3 3.1-1.5 3.1-2.2l.3-2 .2-1.3-1.3.2c-1.2.2-1.3.2-1.1-.4 1-2.4 1-2.6.2-3.4-.8-1-1.4-2.4-1.4-3.7 0-.9 0-.9.4-.2.2.4.8 1 1.3 1.5s.7.7.4.6c-.4-.2-.4 0 0 .4s1.4 1.1 2.3 1.6c1 .5 1.6 1 1.6 1.4l.4 1.8c.4 1 .9 1.3 2.8 2l2.6.7c.2 0 .5-.8.7-1.8.3-1.5.5-1.9 1-2h.8l-.8.3c-.5.3-.4.3.6.2.8 0 1.3 0 1.1.3 0 .2.4.2 1.4.1 1-.1 1.3-.1.8 0-.5.3-.3.4 1 .5 3.4 0 6.8-.5 6.4-1.1 0-.2 0-.3.4-.1.7.2 2.7-1 3.3-2.2.4-.7.4-1.1-.3-3-1-3-1.2-3.9-.8-3.9a18 18 0 0 1 3.5 6c.4 1.2.9 2 1.3 2.1.6.2.4.3-1 .5-1.4.3-1.6.4-2.5 2-.8 1.5-.9 1.6-.3 2.7.3.6.5 2 .5 3 0 2.1-.5 3-3.3 6.4-2 2.4-3 3-4.5 2.7zM81.1 232h-.7c-.3.1-.2.2.2.2s.6 0 .5-.2zm9-.1c.2-.2.1-.4 0-.4-.3 0-.4.2-.4.4l.1.3.4-.3zm4-2.5c0-.2-.6.2-1.6.8-1 .6-1.8 1.2-1.8 1.4 0 .3 3-1.6 3.4-2.2zm-20.8-.6-.2-.9c0-.7.5-.7 2.6.3l1 .5-1-.2c-.8-.1-1.2 0-1.2.2 0 .4-.8.5-1.2.1zm-8.7-12c-.4-.3-.3-.4.1-.4s.6.2.6.5l-.1.5s-.4-.2-.6-.5zm25.6-3.7c.1-.4.3-.6.4-.5.2.2 0 .4-.2.7-.3.3-.4.3-.2-.2zm-13.4-13.7c-3.4-.7-7.5-2-9.1-3.2-1-.6-1.6-1.2-1.5-1.3 0 0 .6.2 1.3.7a8 8 0 0 0 3.3 1 8 8 0 0 1 2.7.5c.5.3 1.1.4 2.3.1a11 11 0 0 1 5 .4l3.2.7 1-.9a4 4 0 0 1 1.4-.8c.5 0 2.6 2.5 2.4 2.8-.4.3-10 .4-12 0zm9.4-14.5c.2-.5 1-.8 1-.4 0 .2-.3.5-.6.6-.3.1-.5 0-.4-.2zm-8.7-1c-3-.5-5.5-1.7-5.5-2.6l3 .2c2.7.3 5.1 1.1 5.1 1.7 0 .4-1.8 1-2.6.8zm10.3-3.2c-.8-.5-1.6-1-1.8-.8-.6.2-2.7-.8-2.7-1.3s-2.3-1.8-3.4-1.8c-1.3 0-2.2-.3-2.2-.7 0-1 5.1.3 7.6 1.9 1.6 1 4.7 3.8 4.2 3.8-.2 0-1-.5-1.7-1zm-7-1a1 1 0 0 1-.3-.5c0-.2.1-.2.4 0 .2.3.3.5.2.6 0 .1-.3.1-.4 0zm-3.2-1.4c-.4-.4-.7-.7-.5-.7.5 0 1.8 1 1.6 1.2-.1 0-.6-.1-1-.5z" style="fill:#25516b;stroke-width:.352778" transform="translate(-44.5 -173.2)"/>
  <path d="M86.8 244.2c-.6-.1-2-.6-3-1.2l-2-1 1.1-1c1-1 1-1.2.6-2.1-.5-.8-.7-1-1.3-.7-.5.1-1 .7-1.3 1.1-.4.8-.4.8-.4-.7 0-.8.3-2.3.6-3.3.6-1.7.6-1.7-.1-2.3-.7-.6-.6-.6 2.7-.5 4.2.2 6.9-.3 8.7-1.7 1.6-1.1 2.2-1.3 1.5-.5-.4.4-.3.8.1 1.7.3.7.6 2 .6 3.1 0 2.1-.5 3-3.3 6.4-2 2.4-3 3-4.5 2.7zm-18.1-6.9c-2.3-.7-3.4-1.5-3.4-2.3 0-.4.2-.6.4-.5.5.3 3.1-1.5 3.1-2.2l.3-2 .2-1.3-1.3.2c-1.2.2-1.3.2-1.1-.4 1-2.4 1-2.6.2-3.4a5.9 5.9 0 0 1-1.4-3.5c0-.5.3-.3 1.4 1 .7 1 2 2.2 3 2.7.8.4 1.6 1 1.6 1.3 0 .3 0 1 .2 1.4l.2.9-1.3-.8c-.7-.5-1.3-.7-1.3-.6 0 .4 4 2.5 6.4 3.3l2.8.9-1.8 2.3c-2.9 3.6-4.4 4.2-8.2 3zm11.8-5.5-2.3-.6c-.1-.2-.2-1 0-1.7l.2-1.4 2.5.5c5.4 1 9.8.3 12.7-2a7 7 0 0 1 1.6-1c.4 0 1.8 1.6 1.6 1.8-.1.2-.5.2-.8.2-.7 0-1.9 1.2-1.5 1.6.2.2 0 .2-.2 0-.2 0-1 .2-1.6.8-2.7 2-7.3 2.7-12.2 1.8zm-7.2-3-.2-.9c0-.7.5-.7 2.6.3l1 .5-1-.2c-.8-.1-1.2 0-1.2.2 0 .4-.8.5-1.2.1zm-8.5-11.7c-.1-.2-.2-.5 0-.7.3-.3.6.2.4.7 0 .4-.2.4-.4 0zm12-17.7c-3.4-.7-7.5-2-9.1-3.2-1-.6-1.6-1.2-1.5-1.3 0 0 .6.2 1.3.7a8 8 0 0 0 3.3 1 8 8 0 0 1 2.7.5c.5.3 1.1.4 2.3.1a11 11 0 0 1 5 .4l3.2.7 1-.9a4 4 0 0 1 1.4-.8c.5 0 2.6 2.5 2.4 2.8-.4.3-10 .4-12 0zm9.4-14.5c.2-.5 1-.8 1-.4 0 .2-.3.5-.6.6-.3.1-.5 0-.4-.2zm-8.7-1c-3-.5-5.5-1.7-5.5-2.6l3 .2c2.7.3 5.1 1.1 5.1 1.7 0 .4-1.8 1-2.6.8zm10.3-3.2c-.8-.5-1.6-1-1.8-.8-.6.2-2.7-.8-2.7-1.3s-2.3-1.8-3.4-1.8c-1.3 0-2.2-.3-2.2-.7 0-1 5.1.3 7.6 1.9 1.6 1 4.7 3.8 4.2 3.8-.2 0-1-.5-1.7-1zm-7-1a1 1 0 0 1-.3-.5c0-.2.1-.2.4 0 .2.3.3.5.2.6 0 .1-.3.1-.4 0zm-3.2-1.4c-.4-.4-.7-.7-.5-.7.5 0 1.8 1 1.6 1.2-.1 0-.6-.1-1-.5z" style="fill:#752522;stroke-width:.352778" transform="translate(-44.5 -173.2)"/>
  <path d="M86.8 244.2c-.6-.1-2-.6-3-1.2l-2-1 1.1-1c1-1 1-1.2.6-2.1-.5-.8-.7-1-1.3-.7-.5.1-1 .7-1.3 1.1-.4.8-.4.8-.4-.7 0-.8.3-2.3.6-3.3.6-1.7.6-1.7-.1-2.3-.7-.6-.6-.6 2.7-.5 4.2.2 6.9-.3 8.7-1.7 1.6-1.1 2.2-1.3 1.5-.5-.4.4-.3.8.1 1.7.3.7.6 2 .6 3.1 0 2.1-.5 3-3.3 6.4-2 2.4-3 3-4.5 2.7zm-18.1-6.9c-2.3-.7-3.4-1.5-3.4-2.3 0-.4.2-.6.4-.5.5.3 3.1-1.5 3.1-2.2l.3-2 .2-1.3-1.3.2c-1.2.2-1.3.2-1.1-.4 1-2.4 1-2.6.2-3.4a5.9 5.9 0 0 1-1.4-3.5c0-.5.3-.3 1.4 1 .7 1 2 2.2 3 2.7.8.4 1.6 1 1.6 1.3 0 .3 0 1 .2 1.4l.2.9-1.3-.8c-.7-.5-1.3-.7-1.3-.6 0 .4 4 2.5 6.4 3.3l2.8.9-1.8 2.3c-2.9 3.6-4.4 4.2-8.2 3zm11.8-5.5-2.3-.6c-.1-.2-.2-1 0-1.7l.2-1.4 2.5.5c5.4 1 9.8.3 12.7-2a7 7 0 0 1 1.6-1c.4 0 1.8 1.6 1.6 1.8-.1.2-.5.2-.8.2-.7 0-1.9 1.2-1.5 1.6.2.2 0 .2-.2 0-.2 0-1 .2-1.6.8-2.7 2-7.3 2.7-12.2 1.8zm-7.2-3-.2-.9c0-.7.5-.7 2.6.3l1 .5-1-.2c-.8-.1-1.2 0-1.2.2 0 .4-.8.5-1.2.1zm-8.5-11.7c-.1-.2-.2-.5 0-.7.3-.3.6.2.4.7 0 .4-.2.4-.4 0z" style="fill:#324a27;stroke-width:.352778" transform="translate(-44.5 -173.2)"/>
  <path d="M86.8 244.2c-.6-.1-2-.6-3-1.2l-2-1 1.1-1c1-1 1-1.2.6-2.1-.5-.8-.7-1-1.3-.7-.5.1-1 .7-1.3 1.1-.4.8-.4.8-.4-.7 0-.8.2-2.3.6-3.2l.6-1.6 1.3.7c.8.4 1.4 1 1.4 1.2 0 .7 1.7 1 3.4.5 2-.6 3.2-1.4 4.5-3.2.5-.8 1.1-1.5 1.3-1.5.5 0 1 1.7 1 3.7s-.5 3-3.3 6.3c-2 2.4-3 3-4.5 2.7zm-18.1-6.9c-3.1-1-4.3-2.3-2.5-2.7 1.2-.3 3-2 3-2.7-.2-1.8 0-1.9 1.2-1.1 1.3.8 3.2 1 3.6.3.2-.3.6-.3 3.4.5l1.3.3-1.8 2.3c-2.9 3.7-4.4 4.3-8.2 3.1zm11.6-5.5c-1.6-.4-2.1-.6-2-1V228l2.6.5c5.4 1 9.8.3 12.7-2a7 7 0 0 1 1.6-1c.4 0 1.8 1.6 1.6 1.8-.1.2-.4.2-.7.2-.2 0-1.4.8-2.5 1.7-3.6 2.7-7.8 3.5-13.3 2.5zm-13.4-3 .4-1.2c.3-1 .7-.8 1 .3.3 1 .3 1-.8 1.3-.8.3-.8.2-.6-.4zm3.1-1c-2.7-1.6-4.3-3.9-4.3-5.9 0-.6.2-.4 1.2 1 .8.8 2 2 3 2.6 1.3.8 1.7 1.3 1.9 2.2v1.2l-1.8-1zm3.3 1-.2-.8c0-.6.1-.6 1.3-.2.8.2 1 .4.7.5-.3 0-.6.2-.6.4 0 .4-.8.5-1.2.1zm-8.5-11.7c-.1-.2-.2-.5 0-.7.3-.3.6.2.4.7 0 .4-.2.4-.4 0z" style="fill:#30302f;stroke-width:.352778" transform="translate(-44.5 -173.2)"/>
</svg>