<svg xmlns="http://www.w3.org/2000/svg" width="277.3" height="277.3" viewBox="0 0 73.4 73.4">
  <path d="M44.5 210v-36.7H118v73.4H44.5Z" style="fill:#fdfdfd;stroke-width:.352778" transform="translate(-44.5 -173.2)"/>
  <path d="M85.7 245.3a8 8 0 0 1-2.3-1.6c-.3-.6-.4-.6-1.6.1-1.7 1.1-4.1 1-6.6-.2a194 194 0 0 1-18.7-10.2c-.6-.6-.8-1.3-.8-2.4 0-1.3-.2-1.6-.7-1.6-.7 0-3.3-1.2-4.2-2-1-.8-1.1-2.6-.5-4.9a8 8 0 0 1 2.5-3.9c2.1-2 2.8-2.3 5-1.4l1.5.6c.4 0 1.1-1.7 1.5-3.7.4-2 1.8-4.7 3.8-7a11 11 0 0 0 2-3.6 8.8 8.8 0 0 1 2.3-3.8c1.7-1.8 1.7-1.8 3.4-1.6 1.6.2 1.7.2 2.4-.9.6-1 1-1.1 2.1-1 .8 0 2 0 2.8.2l1.5.3.8-7.2c1-9.2 1.3-10.6 2.2-12.5 1.2-2.5 2.5-3.3 4.7-3.3a57 57 0 0 1 12.9 2.5c0 .2.1.3.3.1.4-.2 4.3 1.3 4.3 1.7 0 .2.1.2.3 0 .2 0 .4 0 .4.3 0 .2.2.2.4.1s.3 0 .1.2c-.1.3-.6.2-1.5-.2a43.6 43.6 0 0 0-16.5-3.8H86l-1.1 2a16.2 16.2 0 0 0-1.9 8v2l.5-2.5c1.5-8 2.3-9 8-8.7 1.8 0 5.7.9 8.5 1.8 2.3.8 5.8 3.2 6.3 4.4.5 1-.2 2.4-2 4.6a16 16 0 0 0-2.6 4.2 39.4 39.4 0 0 0 6.6-9.1c.6-1.3 1-1.6 1.2-1.2.9 1.3 0 3.8-2.9 7.5-1 1.4-2 3-2.3 3.7a103 103 0 0 0-2.6 12c0 .4.4.8 1.2 1 .7.3 1.6.9 2.1 1.4.8.8 1 1.2.9 2.5l-.2 1.6 2.3.9c2.3.9 2.3 1 2.4 2.4.3 3-2.3 9.8-4.3 11.7-.8.8-1 .8-2.2.4l-2.7-1.1c-1.7-.8-2-.6-2 2 0 2.4-1.2 4.9-3.5 7-1.1 1-1.8 2-1.8 2.4 0 3.3-4 11-5.7 10.8a13 13 0 0 1-2.5-1zm-7-24.5c.3-.3.4-.8.2-1.2l-.2-.8c0-.2-.8-.4-1.8-.7-2-.4-3.5-1.2-4.8-2.6-1-1-1.5-1.1-1.5-.6a13 13 0 0 0 3.8 3.6c.3 0 .5.1.5.3 0 .2.2.4.4.4.3 0 .7.5 1 1 .7 1.2 1.8 1.4 2.5.6zm3-2.1c.9-.7.7-1-.3-.5-.5.2-.9.5-.9.7 0 .4.5.3 1.2-.2zm8.7 0c-.2-.3-1-.7-1.6-1-.7-.2-1.2-.4-1.1-.5l1.6.4 1.6.6 1.3-1.5c.7-.9 1.3-1.7 1.2-2 0-.4-3.4-1.6-3.4-1.2 0 .2.7.5 1.5.7 1.3.4 1.4.5 1 .9-.3.2-.5.6-.4.8 0 .2-.3.6-.7 1-.7.6-.8.7-2.4 0-2.1-.7-2-.7-2 .3.2 1.3 1 2 2.5 2 1.1 0 1.3 0 1-.5zM70 218c.7 0 1.4-.1 1.7-.3.4-.3.3-.5-.4-1a3 3 0 0 0-1.6-.8c-.9 0-1.9 1.2-1.9 2.3 0 .5.1.6.6.2a3 3 0 0 1 1.6-.4zm3.6-3.1c.5-.8.3-2.6-.4-3.6-1-1.3-1-1.7 0-.7.9.7 1.3.8 5.7 1 5.6.1 5.9 0 8-2.5 2-2.4 1.8-4-.5-5.4-1.2-.7-5.8-2.1-6-1.8-.3.2 1 2.6 1.4 2.5l1.2-.3c.7-.2.7-.1.3.1-.4.3-.3.4.3.4 1 0 3.3 2.4 3.2 3.1 0 .3-.7.8-1.3 1.2-1 .6-1.7.6-4 .4-2-.1-2.7 0-2.7.2 0 .3-.3.4-.8.2-.5-.1-.7 0-.5.2.4.6-5.4-1.2-6-1.9v.3c.2.4.4 1.9.4 3.3s.2 2.8.3 3.1c.2.6 1.1.7 1.4.2zm-3.7-3.8c.3-.5.1-.8-1-1.3-1.2-.6-1-.6.6 0 1.4.4.8-.5-.7-1-.9-.4-1.6-.5-1.8-.3-.6.5 0 2 1 2.6 1.3.7 1.5.7 1.9 0zm-.8-4.4 1-1.1-1.3 1c-1.4 1-1.6 1.2-1 1.2l1.3-1.1zm4.5-3.4.7-.9-.7.4c-1.2.6-2.3 2.2-2.3 3.2 0 .8.1.8.8-.5.4-.8 1-1.8 1.5-2.2zm25.2-3.4c.2-1.4.7-4.2 1.2-6.2.6-3.1 1-4 2.3-5.8 2.6-3.8 3.3-5 3-5.8-.7-2.4-12.6-5.7-16.6-4.7-2 .6-2.6 1.7-3 6.4a168.7 168.7 0 0 1-1.6 14l14 4.7c.2 0 .5-1.1.7-2.6zm9.6-16.8c.4-.8.7-1.6.6-1.9-.1-.2-.5.4-1 1.4l-1 2c0 .2 0 .3.3.1a6 6 0 0 0 1.1-1.6z" style="fill:#b3cad8;stroke-width:.352778" transform="translate(-44.5 -173.2)"/>
  <path d="M85.7 245.3c-1.2-.6-2.2-1.4-2.3-1.8-.1-.6-.2-.6-1.7.3-2.7 1.5-3.6 1.3-14.6-4.5-5.3-2.8-10-5.4-10.5-5.8-.6-.5-.8-1-.8-2.4 0-1.5 0-1.7-.7-1.7-.9 0-4-1.5-4.5-2.2-.7-.8-.6-3.7 0-5.3.8-1.7 4.4-5.2 5.4-5.2.4 0 1.1.3 1.6.5a4 4 0 0 0 1.4.6c.7 0 1.8-2.1 1.8-3.4 0-1.6 2.3-5.7 4.4-7.7.4-.4 1-1.7 1.3-2.8a8 8 0 0 1 2.6-4c2-2 2.3-2 3.8-1.6.7.3 1 .2 1.7-1 1-1.5 1.8-1.7 4.7-1l2 .6v-1.3c0-1 0-1.2.3-.6s.3.4.2-.5c-.3-1.6.5-8.3.9-7.7.3.6.4.3 1.3-4.1 1-4.6 1.2-5.2 2.6-6.3 1-.8 1.6-1 3.7-1 4.6 0 12 2.5 14.7 5 1.9 1.8 1.8 2.3-1.7 7-1.5 2-2.6 4.5-2.2 4.9l.8-1.2c.3-.8 1.1-2 1.9-3l2.6-3.5c1.7-2.5 1.9-2.6 1-.7-.5.8-.7 1.6-.6 1.7.2.2 2.3-3.1 2.3-3.9 0-.3.2-.7.4-.8.3-.2.3.1.1 1-.3 1.6-1 2.8-3.3 6s-2.7 4.4-4 10.8a36 36 0 0 1-.8 4.5c0 .3.6.8 1.5 1.3 2.5 1.3 3 2 2.8 3.8l-.3 1.6 1.8.6c1.7.6 1.8.7 1.1 1.2a2 2 0 0 0-.7 1.4c0 1 0 1 1.6-1.1.4-.7.6-.7.9-.2.8 1.3 0 5.4-2.1 9.7-.8 1.7-1.8 3.2-2.3 3.5-.8.6-1 .5-3.4-.5-1.4-.6-2.7-1-2.8-.9-.2 0-.4 1.3-.5 2.6a9 9 0 0 1-3.6 7c-1 .8-1.6 1.7-1.6 2.2 0 1.3-1.7 6.2-2.7 7.8-1 1.5-2.7 3.2-3.2 3.1a22 22 0 0 1-2.3-1zm4-11.7c0-.2-.1-.3-.3-.3-.5 0-1.1.8-1.1 1.6 0 .7 0 .7.7-.1.4-.5.7-1 .7-1.2zm1.7 1.1c.6-1 .5-1.2-.3-.5s-1 1.2-.4 1.2c.2 0 .5-.3.7-.7zm-12.8-13.5c.4 0 1-.9 1.3-1.7.2-.5 0-.6-.3-.4-.4.1-.5 0-.4-.2.3-.4-.5-.8-1.8-.8-1 0-4-1.4-5-2.2-.3-.4-.1-.4.9-.3.7 0 1.2 0 1.3-.3v-2.5l-.3-1.2 3.7.1c5 .1 5 .2 3.4 1-1.5.7-2.3 2-2 3 .2.7 1.1.9 2.2.3.6-.3.7-.6.5-1.2 0-.5 0-1 .2-1.1.3-.2.3-.3 0-.5s.3-.6 1.5-1.2c2-1 4.4-3.6 4.5-4.8.2-1.9-.5-2.9-2.6-4a16 16 0 0 0-7-1.4c-1.2.2-1.3.5-.3 1.1.4.3.6.7.5.8 0 .1.1.3.4.5.3 0 .5.3.4.5-.2.2 0 .2.5.1.4-.1.7 0 .7.4 0 .3.2.7.4.8.2.1.3 0 .1-.2-.3-.5-.1-.5 1 0 1 .3 1 .4.4.9-.7.4-.6.4.2.2.6-.1.7 0 .5.3-.2.3-.1.4.4 0 .6-.3.8-.2 2.2.6.1 0 0 .3-.3.6-.4.5-1 .6-4.4.4-4.3-.3-6.7-1.1-7-2.4-.2-.5-.5-1-.7-1-.3-.2-.3-.3 0-.3s.5-.2.5-.5l.5-1.4c.3-.5.4-1 .2-1-.7 0-2.7 1.7-3.2 2.7-.4.8-.7 1-1.3 1-.5-.1-1.3.3-2.2 1.1-1.2 1-1.4 1.6-1.4 2.5 0 1 .1 1.3 1.2 1.8 1.6.6 1.8.6 2-.1l.4-1.2c.2-.5 0-.7-1-1a4 4 0 0 1-1.4-.8c-.2-.3 1.8-1.4 2-1 .2 0 .2-.1 0-.5 0-.4 0-.5.4-.4 1.1.5 1.6 7.1.6 7.8-.2.1-.4.5-.4 1 0 .4-.1.6-.4.4-1-.3-2.7 2.2-2.7 4v1l.4-1c.4-.7.7-.8 2-.8 1 0 2.1.4 2.7.7l1.6.5c.3 0 1 .4 1.7.9s1.5.8 1.8.7l.9-.3zm12.2-1.6c.1-.4 0-.9-.2-1.1-.3-.4-.2-.4.2-.3.4.2.7 0 .7-.1 0-.2.5-1 1.2-2l1.3-1.5-1.2-.5c-2.6-1-2.9-1-2.7-.2v.5c-.2 0-.6.1-1 .4-.3.4-.4.7-.2.8.3 0 .4.3.4.6s.4.5 1 .5c.8 0 .9.1.4.4-.4.2-1 .1-2-.3-.8-.3-1.6-.4-1.7-.3v1.4a3 3 0 0 0 1.6 1.7c1.6.8 2 .8 2.2 0zm-.1-4.2h.7c0 .2-.1.2-.5.2s-.5 0-.2-.2zm-35.4 3.4c.4-.4.6-.7.5-.8-.3-.3-1.7.8-1.7 1.2 0 .6.5.4 1.2-.4zm26.4 0c1-.4 1.3-1 .6-1-.6 0-1.8.7-1.8 1 0 .5.1.5 1.2 0zm-10.9-5.3c-.1-.2-.3-.3-.5-.3s-.4.1-.4.3c0 .2.3.4.6.4s.4-.2.3-.4zm35.6-1.5c.5-.8 0-1.2-.7-.4l-.5 1c0 .5.8.1 1.2-.6zm-7-15.2c1.3-6.3 1.7-7.4 4.2-10.6 1.8-2.2 2.3-3.5 1.7-4.4a20 20 0 0 0-7.7-3.5c-1.5-.4-4.2-.9-5.9-1-2.5-.2-3.2-.1-4 .4-1.2.8-1.9 2.6-1.9 4.7 0 1-.4 4.8-1 8.5a88 88 0 0 0-.7 7l14 4.7c.2 0 .8-2.6 1.4-5.8zm-27.7 2.8c.5-.6.5-.6-.3-.2-.8.4-1 .7-.4.7.1 0 .5-.2.7-.5zM86 178.3c.3-.6.4-1 .2-1-.8.6-1.4 2.7-1.4 4.6v1.8l.3-2c.1-1.2.5-2.7.9-3.4zm-3.3 4.9c0-.7 0-1 .2-.6v1.2c-.1.4-.2 0-.2-.6zm.3-2.8c0-.5.1-.7.2-.5v1c0 .2-.2 0-.2-.5zm26-.1c0-.4.3-.6.4-.5 0 .2 0 .4-.3.7-.3.3-.4.3-.2-.2zm-25-3c0-.3.2-.5.4-.6.2-.1.3 0 .1.3-.2.6-.5.7-.5.2zm5.7-3c-1.9 0-2.9-.2-2.3-.2 1.7-.2 5 0 6 .3 1.1.3 1.2.3-3.7 0z" style="fill:#a1b6c7;stroke-width:.352778" transform="translate(-44.5 -173.2)"/>
  <path d="M85.8 245.3c-1.3-.7-2.2-1.3-2.4-1.8-.1-.6-.2-.6-1.6.2-2.5 1.5-3.7 1.3-9.7-1.8a139 139 0 0 1-15.5-8.4c-.6-.5-.8-1-.8-2.4 0-1.5 0-1.7-.7-1.7-.9 0-3.3-1.2-4.2-2.1-.9-.9-1-3.7-.2-5.4.6-1.4 4.5-5.2 5.3-5.2.3 0 1.2.3 2 .7l1.3.7.7-1.4c.4-.7.8-1.8.8-2.3 0-1.6 2.4-5.8 4.4-7.7.4-.4 1-1.6 1.3-2.7.5-1.6 1-2.3 2.7-4 2.2-2.1 2.1-2 4.3-1.5.1 0 .6-.5 1-1.2 1-1.5 2-1.6 4.8-.9 1.2.3 2.2.4 2.4.2.1-.1.3-1.9.3-3.8 0-2 .2-3.6.3-3.6.3 0 1-2.2 1.6-6l.7-3.3.2 2 .2 2.2v-2c0-1 .4-2.6.8-3.4.7-1.4.7-1.6.1-1.4-.3.2 0-.2.6-.8l1.3-1.1 3.3.2c3.4.2 9.4 1.7 9 2.3 0 .2.2.2.6.1.5-.1.7 0 .5.2-.2.3 0 .3.2.2.3 0 .8 0 1 .3l2.2 1.7c1 .7 1.7 1.5 1.7 2 0 .6-1.2 3-1.6 3-.1 0 0-.5.4-1 .8-1.2.5-2.6-.9-3.6-3.9-2.6-14.4-4.5-16.5-3-1.3.9-1.6 1.8-2 6.6a309.8 309.8 0 0 1-1.6 13.4c.2.2 14.2 4.8 14.3 4.7l1-5.2c1.2-6.2 1.9-8.2 3.7-10.2 1.4-1.6 1.5-1.6.4-.2a13 13 0 0 0-2.5 5.2c0 .6.2.4.9-1a45.2 45.2 0 0 1 5.3-6.9c-.4.7-.6 1.3-.5 1.4.3.2 2-2.2 2.4-3.3.3-1 .3-1 .2.2-.1.7-1 2.3-1.9 3.7-3.5 5-3.6 5.3-4.3 8.9l-1.2 6-.5 2.6 1.7.8c2.4 1.3 3 2 2.7 3.9l-.3 1.5 1.9.7c1 .3 1.6.7 1.3.8-.7.2-1.3 1.1-1.4 2 0 1.2.4 1 1.4-.4 1.6-2.6 2.3-.4 1.1 4a20 20 0 0 1-4 8c-.8.6-1 .5-3.4-.5-1.4-.6-2.7-1-2.8-.9-.2 0-.4 1.3-.5 2.6-.2 3-1.2 5-3.5 7-1.3 1-1.6 1.7-1.8 3a20 20 0 0 1-4 8.7c-1.2 1.5-1.6 1.5-4 .4zm6.4-11.4c0-.5-1-.2-1.6.5-1 1.4-.6 2 .5.8.6-.5 1-1.1 1-1.3zm-2.5-.7c-.5-.5-1.8 1-1.8 2 0 .6.2.6 1.1-.4.8-1 1-1.3.7-1.6zm-11.2-11.9c.5-.2 1-.6 1.1-1 .2-.4 1-1 2-1.5s1.4-.8 1-1l-1.6.4c-.7.4-1.3.4-2.4.2l-2.7-.7a5 5 0 0 1-2.2-1.1l-1-.8 1 .1 1.2.2V214l-.2-2.1h3.8c3.5 0 3.8 0 2.8.5-.6.2-1.5 1-2 1.9-1 1.3-1 1.4-.4 2 .7.7 4.8 1.1 4.2.4-.2-.3-.3-1.2-.2-2.3.2-1.6.3-1.8 1.9-2.8 2-1.2 3.4-3 3.7-4.7.2-1 0-1.3-1.2-2.5-2-1.8-4.7-2.7-8.6-2.6-3.5 0-5.6.9-6.8 2.8-.5.7-1 1.2-1.5 1.2s-1.4.6-2.2 1.3c-1.2 1-1.4 1.5-1.4 2.4 0 1 .1 1.3 1.2 1.8l1.5.5c.5 0 1-1.4 1.1-3.7 0-.6.2-.5.6.3.3.7.4 1.7.3 3-.3 2.3-.3 2.4-1 1.9-.3-.3-.5-.2-.8.7-.4 1-.4 1 .3.4.6-.6.6-.6.6.1 0 .5-.2.8-.4.8-.8 0-2 1.6-2.6 3-.5 1.5-.2 2.6.3 1.3.2-.4.6-.8.8-.9.5-.2 3.7.7 4.2 1.2.2.2.7.3 1 .3.5 0 1.3.4 1.9.8 1.2.7 1.5.8 2.7.3zm-1.1-13c-.7-.2-1.3-.5-1.4-.7 0-.2-.3-.4-.5-.4-.4 0-1.3-1.5-1.3-2.1 0-.2.6-.4 1.4-.5 1.3-.2 1.6-.1 2.2.5l.7.8-.7-.2c-.5-.1-.9 0-1 .1-.1.2-.4.2-.8 0-.3 0-.5 0-.3.3.2.2.9.4 1.7.4 1 0 1.4-.1 1.4-.6s0-.6.3-.1c.3.4.4.4.9 0 .4-.4.5-.3.5.3 0 .4.2.7.4.7s.2-.2.1-.4c-.2-.3 0-.2.4 0 .6.6.6.6 0 .7-.3.1-.8 0-1-.2-.4-.3-.6-.3-.8 0 0 .1-.4.2-.6 0-.2 0-.3 0-.1.2.1.2.5.3.7.2.3 0 .6 0 .6.2s.3.4.7.4c.5 0 .7.1.6.2-.4.4-2.8.4-4.1.1zm5.8-.3c-.2-.5-.1-.5.3-.1.3.3 1 .3 1.5.2.7-.2.9-.1.5.1-.9.6-2 .5-2.3-.2zm7.6 11.6c.1-.4 0-.9-.2-1.1-.3-.4-.2-.4.2-.3.4.2.7 0 .7-.1 0-.2.5-1 1.2-1.8s1.2-1.5 1-1.7c-.7-.6-3.5-1.5-3.6-1a11 11 0 0 1-2.9 2.8c-.4 0-.4 1.2 0 2.2.2.7 1.8 1.6 2.9 1.6.3 0 .6-.3.7-.6zm-35.5-.8c.6-.5.8-1 .6-1-.5 0-2.2 1.4-2.2 1.8 0 .6.6.3 1.6-.8zm51.1-6.5c.7-1.1.7-1.2-.1-1.2-.6 0-1.4 1.1-1.4 2 0 .4 1 0 1.5-.8zM72 199.8c.5-.6.5-.7 0-.7-.2 0-.7.3-1 .7-.6.6-.6.7-.2.7.3 0 .8-.3 1.2-.7zm29.3-.4c0-.3-.2-.2-.2.2s0 .6.2.4v-.6zm-1.7-21.7h-.7c-.3 0-.2.2.2.2s.6 0 .5-.2zm-1.4-.4h-.7c-.3.1-.2.2.2.2s.6 0 .5-.2zm-16.8 18.8c0-.5 0-.5.2-.3v.7c-.2.1-.3 0-.2-.4z" style="fill:#96a7b5;stroke-width:.352778" transform="translate(-44.5 -173.2)"/>
  <path d="M85.8 245.3c-1.3-.7-2.2-1.3-2.4-1.8-.2-.8-.2-.8-1.4 0a5.9 5.9 0 0 1-5 .7c-2.1-.8-18.8-9.6-20-10.4-1-.8-1.2-1-1.2-2.6 0-1.4-.1-1.8-.5-1.8-1 0-4.7-2-4.9-2.6-.4-1-.2-3.7.3-4.8.7-1.3 4.7-5.3 5.4-5.3l1.8.7 1.4.7.7-1.4c.4-.7.8-1.8.8-2.3 0-1.7 3.5-7.6 4.8-8 .2-.1.5-.7.6-1.4.4-1.9 1.1-3 3.3-5 2-1.8 2.2-2 3.5-1.5.6.2.9 0 1.5-1 .4-.7 1-1.4 1.3-1.5.5-.2 3 .2 5.3.8.7.2.8 0 1-3a47.4 47.4 0 0 1 2-11.3c.5-2 .6-2.1.6-.9 0 2.7.2 2.8.4.3.2-1.4.5-3 .9-3.5.7-1 .7-1.3 0-1-.6.2-.6.1 0-.5 1.5-1.7 6-1.9 10.2-.4 1.9.6 2 .7.7.5-1.1-.1-1 0 1 .6a8 8 0 0 0 2.7.5h.3c-.1.1.7.7 2 1.3 1.1.7 2.2 1.4 2.2 1.6a32.3 32.3 0 0 0-15-3.8c-2 0-2.3.1-3 1-1 .9-1.1 1.5-1.5 5.4a318 318 0 0 1-1.5 14.2 192.4 192.4 0 0 0 14 4.7c.2.1.6-1 1-3.4.3-2 .7-3.4.9-3.3.1 0 .2-.1 0-.4 0-.3 0-1.4.3-2.6.4-1.8.5-2 .7-1l.2 1.1.6-1.4a41 41 0 0 1 4.6-6.5v2l.5-.9.8-.8c.2 0-.4 1-1.2 2.1-2.3 3-2.8 4.4-4 10l-1 5.5c-.1.6.1.9 1.5 1.6 2.5 1.3 3 2 2.8 3.9l-.3 1.6 1.4.4c1.9.6 1.9.6 1.1 1.4-.7.7-1.2 2.3-.9 2.7.2.2.6-.1 1-.6l1-1.6c.7-.8 1.4-.4 1.4.8 0 3.1-3 10.8-4.7 12-.7.4-1 .4-3-.5l-2.8-1.2c-.5-.5-.6.2-1 3.3a9.5 9.5 0 0 1-3.4 6.5c-1.3 1.1-1.6 1.6-2 3.4-.7 3.6-3.3 8.5-5 9.4-.4.2-1.1 0-2.8-.7zm5.6-10.2c1.3-1.6 1.3-1.8.6-1.8-.6 0-2.3 2.1-2.3 2.8 0 .7.6.4 1.7-1zm-1.4-1.7c0-.9-1.1-.3-1.8.9-1 1.7-.4 2.2.8.8.6-.7 1-1.5 1-1.7zm-10.4-13c.3-.6 1-1.1 1.8-1.4.7-.3 1.2-.3 1-.1-.2.2-.3.6-.2 1 .1.3 0 .4-.2.2-.3-.2-.3 0-.2.3.1.3.5.6.9.6.7 0 .9-.6.3-.8-.3 0-.1-.5.3-1l.7-1.1c0-.3-2-.3-2.9 0-1.2.6-5 0-6.8-1.1l-1.4-.8 1-.1c.5 0 1-.3 1-.6 0-.2 0-1 .2-1.7.1-1 0-1.5-.3-1.7-.3-.3.2-.3 1.5-.2l3.5.3c1.5 0 1.6 0 .7.4-1.1.5-2.1 1.5-1.8 1.8 0 .1 0 .2-.2.2-.7 0-.5 1.2.2 1.9.5.4 3 .8 5.2.6.6 0 .6 0 0-.6-.8-.4-.8-.6-.5-2 .2-.7.2-1.5.1-1.7l1.2-.9c.8-.3 1.5-.7 1.5-.9 0-.1.2-.2.4 0 .4 0 .6-.2.8-.8 0-.5.4-.9.7-.9.3 0 .4.2.3.6-.1.6-.1.6.2 0 .8-1.1.2-4.2-1-5.4-1.8-1.8-5.2-3-8.7-3-3 0-5.9 1.3-7 3.1-.5.7-1 1.2-1.5 1.2s-1.4.6-2.2 1.3c-1.2 1-1.4 1.5-1.4 2.6 0 1.2 0 1.3 1.5 1.8l1.5.6.4-1.4c.3-.7.4-1.7.5-2.1 0-.8 0-.8.4-.2.3.6.4 4.4 0 4.7 0 .1-.3 0-.6-.3l-.6-.3-.3 1.4c-.3 1.1-.3 1.1.3.5.7-.6.7-.6.7.1 0 .6-.2.8-.6.8-1.2 0-3 3.1-2.9 5.3 0 .8 0 .8.7-.4.9-1.6 1.3-1.7 3.8-.5 1 .5 2.2 1 2.5 1 .3 0 1.1.2 1.8.6 1.5.8 3 .4 3.7-1zm11.1-2c-.4-.3-.3-.3.1-.1h.7c0-.2.5-1 1.2-1.7.7-.8 1.2-1.5 1.2-1.7 0-.3-2.9-1.7-3.5-1.7-.2 0-.6.5-1 1-.3.6-1 1.3-1.7 1.6-1.1.6-1.1.6-.7 2 .3 1.3.6 1.6 2 2.1l1.6.6.3-.9c.2-.6.2-1-.2-1.2zm-35.2.6c1-1 1-1.2.5-1.2-.8 0-2.3 1.3-2.3 2s.5.5 1.8-.8zm51-6.5c.8-1.1.9-1.8 0-1.8-.7 0-1.6 1.4-1.6 2.2 0 1 .5.8 1.5-.4zm-5.3-11.7.4-3c0-.7-1.3 3.9-1.3 5 0 1.2.4.2.9-2zm-2 1.4c-.2-.3-.3-.2-.3.2s0 .6.2.5v-.7zm.5-2.4c.2-.9.1-1-.1-.7a3 3 0 0 0-.4 1.4c0 1 .2.8.5-.7zm-28 .2c.5-.5.7-1 .6-1.1-.3-.4-2 .8-2 1.4 0 .8.5.7 1.4-.3zm30.8-5.7c.2-.9.1-1.2 0-.9-.2.3-.5 1.3-.6 2.2-.3 1.9.3.8.6-1.3zm1.3-4c0-.5-1 1.6-1 2 0 .4.2 0 .5-.6l.5-1.4zM88 177c.1-.2 0-.4-.1-.4-.2 0-.5.2-.6.4-.1.1 0 .3.1.3l.6-.3zm12.9 13.5c0-.4 1.7-3 2-3l-.5 1-1.1 1.7c-.2.4-.4.5-.4.3zm7-5.8.4-.5c.2-.1.2 0 .1.3-.2.6-.5.7-.5.2zm-2.3-1.7c0-.6.2-1.2.3-1.3.4-.4.3 1.4 0 2-.3.2-.3 0-.3-.7z" style="fill:#fb8e58;stroke-width:.352778" transform="translate(-44.5 -173.2)"/>
  <path d="M85.8 245.3c-1.3-.7-2.2-1.3-2.4-1.8-.2-.8-.2-.8-1.4 0a5.8 5.8 0 0 1-5.3.6 255.2 255.2 0 0 1-20.3-10.8c-.3-.4-.6-1.3-.6-1.9 0-1 0-1 .6-.4.4.5.4.4-.1-.4-.3-.7-.8-1.2-1-1.2-1 0-4.7-2-4.9-2.6-.4-1-.2-3.7.3-4.8.7-1.3 4.7-5.3 5.4-5.3l1.8.7 1.4.7-1.2 2.3c-1.7 3.3-1.6 3.8.6 5a17.6 17.6 0 0 1 5 3.9c-.3-.2-.5-.2-.5-.1l1.9 1.3c1.3.8 2.3 1.1 3.6 1.2 1 0 4 .9 6.5 1.7 2.6 1 5.3 1.7 5.8 1.7 1 0 1.6-.6 4.2-3.2 2.6-2.7 3.3-3.2 4.9-3.7l2.5-.5a4 4 0 0 0 1.6-.6c1.2-.6 3.6-3.1 3.6-3.8 0-1-.7-.9-1.7.5a9.7 9.7 0 0 1-5.3 3.3c-1 .4-2.5 1.3-3.5 2.1-2.2 2-3 2.4-5.4 2.6-1.6 0-2 0-2.8-.8l-1-1-.7 1-.8 1-1.6-.6c-2.5-1-12.5-5.8-13.3-6.5-.5-.5-.5-.6.1-1.4.7-.8.7-1 .2-1.5-.3-.3-.5-.8-.5-1.1.2-1.7-.5-2.3-1.4-1.2-1 1.1-1 .5-.3-1.8l1.3-4c.5-2.2 2.5-5.6 3.2-5.6.4 0 .8-.3 1-.5.1-.3 1-1.1 2.1-1.8l1.7-1.3a11 11 0 0 0-3.1 1.7c-.6.5-.7.5-.1-.5.3-.5.5-1.2.5-1.5 0-1 1.1-2.5 3-4.3 1.2-1 2.2-1.9 2.4-1.9l1.4.3c.7.2 1 .1 1.2-.5.2-.8.2-.8.7-.2.4.6.5.6 1.2 0 1.2-.8 2.2-.6 7.7 1.3 4.6 1.5 6.6 2 5.3 1-.4-.3-.3-.3.2-.2l1.5.5c1.1.2 1 .7-.2.6l-1-.2 1.1.5 5.6 2c2.5.9 5 2 5.6 2.5l1.2 1-1.4 1.7c-2.7 3.3-3.5 4.7-3.4 6.5.3 3.8-.2 5.5-1.4 5-.3 0 0 .4.6 1s1.3 1 1.4.9c.2-.2.3-2 .3-3.9 0-3.9.4-4.8 2.3-7.3.6-.7 1-1.5 1-1.6 0-.6 2.4-2.7 2.8-2.5.3.2.3.9.2 1.8-.2 1.5-.2 1.5 1.1 2 2 .6 2 .6 1.2 1.4-.7.7-1.2 2.3-.9 2.7.2.2.6-.1 1-.6l1-1.6c.7-.8 1.4-.4 1.4.8 0 3.1-3 10.8-4.7 12-.7.4-1 .4-3-.5-1.3-.5-2.5-1-2.8-1.3-.3-.2-.4-.2-.4.2s0 .4-.3 0c-.5-.7-.8 1.1-.5 3.1.2 2-.8 4-3 6.3-1.5 1.4-1.8 2-2.2 3.7-.7 3.6-3.3 8.5-5 9.4-.4.2-1.1 0-2.8-.7zm-17-8c0-.1-8.7-4.6-10.1-5.1-2.6-1 1.9 1.8 7 4.3 1.8 1 3.2 1.3 3.2.9zm22.6-2.2c1.3-1.6 1.3-1.8.6-1.8-.6 0-2.3 2.1-2.3 2.8 0 .7.6.4 1.7-1zm-1.4-1.7c0-.9-1.1-.3-1.8.9-1 1.7-.4 2.2.8.8.6-.7 1-1.5 1-1.7zM67 232l-1.2-.5c-.3 0-.3.2.2.7.3.4.8.6 1 .5.5-.2.5-.3 0-.7zm12.7-11.7c.3-.5 1-1 1.8-1.3.7-.3 1.2-.3 1-.1-.2.2-.3.6-.2 1 .1.3 0 .4-.2.2-.3-.2-.3 0-.2.3.1.3.5.6.9.6.7 0 .9-.6.3-.8-.3 0-.1-.5.3-1l.7-1.1c0-.3-2-.3-2.9 0-1.2.6-5 0-6.8-1.1l-1.4-.8 1-.1c.5 0 1-.3 1-.6 0-.2 0-1 .2-1.7.1-1 0-1.5-.3-1.7-.3-.3.2-.3 1.5-.2l3.5.3c1.5 0 1.6 0 .7.4-1.1.5-2.1 1.5-1.8 1.8 0 .1 0 .2-.2.2-.7 0-.5 1.2.2 1.9.5.4 3 .8 5.2.6.6 0 .6 0 0-.6-.8-.4-.8-.6-.5-2 .2-.7.2-1.5.1-1.7l1.2-.9c.8-.3 1.5-.7 1.5-.9 0-.1.2-.2.4 0 .4 0 .6-.2.8-.8 0-.5.4-.9.7-.9.3 0 .4.2.3.6-.1.6-.1.6.2 0 .3-.4.4-1.3.2-2.5-.3-2.8-1.4-3.8-6.2-5.5-.6-.2-2.3-.4-3.7-.4-3.3 0-6.4 1.3-7.2 3.1-.4 1-.7 1.2-1.2 1-.8-.1-3.7 2.2-3.8 3-.2 1.7.1 2.4 1 2.8l1.6.5c.4.2.6 0 1-1.1l.4-2.2c0-.8 0-.8.4-.2.3.6.4 4.4 0 4.7 0 .1-.3 0-.6-.3l-.6-.3-.3 1.4c-.3 1.1-.3 1.1.3.5.7-.6.7-.6.7.1 0 .6-.2.8-.6.8-1.2 0-3 3.1-2.9 5.3 0 .8 0 .8.7-.4.9-1.6 1.3-1.7 3.8-.5 1 .5 2.2 1 2.5 1 .3 0 1.1.2 1.8.6 1.5.8 3 .4 3.7-1zm11.1-1.9c-.4-.3-.3-.3.1-.1h.7c0-.2.5-1 1.2-1.7.7-.8 1.2-1.5 1.2-1.7 0-.3-2.9-1.7-3.5-1.7-.2 0-.6.5-1 1-.3.6-1 1.3-1.7 1.6-1.1.6-1.1.6-.7 2 .3 1.3.6 1.6 2 2.1l1.6.6.3-.9c.2-.6.2-1-.2-1.2zm-35.2.6c1-1 1-1.2.5-1.2-.8 0-2.3 1.3-2.3 2s.5.5 1.8-.8zm51-6.5c.8-1.1.9-1.8 0-1.8-.7 0-1.6 1.4-1.6 2.2 0 1 .5.8 1.5-.4zm-33.6-10c1.3-1.8.4-1.5-1.4.4-1.7 1.9-1.7 2-.5 1.3a10 10 0 0 0 1.9-1.6zm-1.2-2.5c.5-.5.7-1 .6-1.1-.3-.4-2 .8-2 1.4 0 .8.5.7 1.4-.3zm29.2 3.8c-.2-.2 0-1.6.3-3.1s.5-2.9.4-3.1l-.8 2.6c-.4 2-.8 3.1-1.1 3.1-.3 0-.5-.3-.5-.8 0-.7 0-.7-.3 0-.5 1-.5.2.2-3.5.3-1.9.7-3.3.9-3.2.1 0 .2-.1 0-.4 0-.3 0-1.4.3-2.6.4-1.8.5-2 .7-1l.2 1.1.6-1.4a41 41 0 0 1 4.6-6.5v2l.5-.9.8-.8c.2 0-.4 1-1.2 2.1-2.3 3-2.8 4.4-4 10-1.1 6.2-1.3 6.9-1.6 6.4zm-1.2-4c.2-.9.1-1-.1-.7a3 3 0 0 0-.4 1.4c0 1 .2.8.5-.7zm2.8-5.5c.2-.9.1-1.2 0-.9-.2.3-.5 1.3-.6 2.2-.3 1.9.3.8.6-1.3zm1.3-4c0-.5-1 1.6-1 2 0 .4.2 0 .5-.6l.5-1.4zm-21.1 7.2c-.8-.4-.8-.4-.6-3.7a46.4 46.4 0 0 1 2-11.3c.5-2 .6-2.1.6-.9 0 2.7.2 2.8.4.3.2-1.4.5-3 .9-3.5.7-1 .7-1.3 0-1-.6.2-.6.1 0-.5 1.5-1.7 6-1.9 10.2-.4 1.9.6 2 .7.7.5-1.1-.1-1 0 1 .6a8 8 0 0 0 2.7.5h.3c-.1.1.7.7 2 1.3 1.1.7 2.2 1.4 2.2 1.6a32.3 32.3 0 0 0-15-3.8c-2 0-2.3.1-3 1-1 .9-1.1 1.5-1.5 5.4-.3 4.3-1.6 13.9-1.9 14 0 .2-.6.1-1 0zM88 177c.1-.2 0-.4-.1-.4-.2 0-.5.2-.6.4-.1.1 0 .3.1.3l.6-.3zm12.9 13.5c0-.4 1.7-3 2-3l-.5 1-1.1 1.7c-.2.4-.4.5-.4.3zm7-5.8.4-.5c.2-.1.2 0 .1.3-.2.6-.5.7-.5.2zm-2.3-1.7c0-.6.2-1.2.3-1.3.4-.4.3 1.4 0 2-.3.2-.3 0-.3-.7z" style="fill:#8998a9;stroke-width:.352778" transform="translate(-44.5 -173.2)"/>
  <path d="M85.5 245c-1.1-.6-2-1.3-2.1-1.6-.1-.7-.3-.7-1.5.2a5.3 5.3 0 0 1-4.7.6c-2.2-.7-20.1-10.2-20.8-11-.3-.3-.6-1.2-.6-1.8 0-1 0-1 .6-.4.4.5.4.4-.1-.4-.3-.7-.8-1.2-1-1.2-.7 0-3.9-1.6-4.6-2.3-.6-.6-.7-3.1-.2-4.5.4-1 4-5 5-5.6.5-.2 1.1-.1 2.3.4l1.5.7-1.2 2.3c-1.7 3.3-1.6 3.8.6 5a17.6 17.6 0 0 1 5 3.9c-.3-.2-.5-.2-.5-.1l1.9 1.3c1.3.8 2.3 1.1 3.6 1.2 1 0 4 .9 6.5 1.7 2.6 1 5.3 1.7 5.8 1.7 1 0 1.6-.6 4.2-3.2 2.6-2.7 3.3-3.2 4.9-3.7l2.5-.5a4 4 0 0 0 1.6-.6c1.2-.6 3.6-3.1 3.6-3.8 0-1-.7-.9-1.7.5a9.7 9.7 0 0 1-5.3 3.3c-1 .4-2.5 1.3-3.5 2.1-2.2 2-3 2.4-5.4 2.6-1.6 0-2 0-2.8-.8l-1-1-.7 1-.8 1-1.6-.6c-2.5-1-12.5-5.8-13.3-6.5-.5-.5-.5-.6.1-1.4.7-.8.7-1 .2-1.5-.3-.3-.5-.8-.5-1.1.2-1.7-.5-2.3-1.4-1.2-1 1.1-1 .5-.3-1.8l1.3-4c.5-2.2 2.5-5.6 3.2-5.6.4 0 .8-.3 1-.5.1-.3 1-1.1 2.1-1.8l1.7-1.3c-.4 0-2.5 1.1-3.2 1.7-.6.6-.6.6-.1-.3.3-.4.6-1.4.8-2 .1-.7 1-2 2.4-3.5 2.2-2.3 2.3-2.3 3.7-2.1 1.3.2 1.5.1 1.7-.5.2-.8.2-.8.7-.2.4.6.5.6 1.2 0 1.2-.8 2.2-.6 7.7 1.3 4.6 1.5 6.6 2 5.3 1-.4-.3-.3-.3.2-.2l1.5.5c1.1.2 1 .7-.2.6l-1-.2 1.1.5 5.6 2c2.5.9 5 2 5.6 2.5l1.2 1-1.4 1.7c-2.7 3.3-3.5 4.7-3.4 6.5.3 3.8-.2 5.5-1.4 5-.3 0 0 .4.6 1s1.3 1 1.4.9c.2-.2.3-2 .3-3.9 0-3.9.4-4.8 2.3-7.3.6-.7 1-1.5 1-1.6 0-.6 2.4-2.7 2.8-2.5.3.2.3.9.2 1.8-.2 1.4-.1 1.6.6 1.8l.8.2-.9.5c-1.2.6-2 2.1-1.4 2.7.4.4.6.2 1.5-.8a5 5 0 0 0 1-1.6c0-.3.3-.5.6-.5.6 0 .7.6.1.9-.4.3-1.2 1.7-1.5 3-.4 1.3.6.8 2-1 .6-.9 1.3-1.5 1.5-1.4 1.1.4-.6 7.3-2.8 10.9-1 1.8-1.2 2-2.5 1.9-.8 0-2.3-.4-3.3-1-1-.4-1.8-.7-1.8-.4 0 .2-.2.1-.3-.1-.5-.7-.8 1.1-.5 3.1.2 2-.8 4-3 6.3a5.8 5.8 0 0 0-2.2 3.8c-.5 2.4-2.3 6.5-3.7 8.2-1.2 1.4-2 1.4-4.4 0zm-16.6-7.6c0-.2-8.8-4.7-10.2-5.2-2.6-1 1.9 1.8 7 4.3 1.8 1 3.2 1.3 3.2.9zm22.5-2.2c1.4-1.9 1.4-1.9.6-1.9-.6 0-1.1.4-1.8 1.5-1.7 3-.9 3.2 1.2.4zm-2-.6c1-1 1-1.4.7-1.7-.4-.4-.7-.2-1.5.7-1 1.1-1.4 2.7-.6 2.4.2 0 .9-.7 1.5-1.4zM67 232l-1.2-.5c-.3 0-.3.2.2.7.3.4.8.6 1 .5.5-.2.5-.3 0-.7zm11.8-8.7c-.1-.4-.2-.1-.2.7 0 .7 0 1 .1.7v-1.4zm-6.1.6c0-.4-.4-.6-.7-.6-.3 0-.5-.1-.4-.3.2-.1.6-.3 1-.3.6 0 .6 0-.3-.9-.5-.5-1.2-.8-1.5-.8-.5 0-.5 0 0 .3.2.2.3.3.1.4l-.8-.4c-.2-.3-.5-.3-1 0-.8.4-.9 1.3 0 1.6.3.1.6.4.6.6 0 .2.2.3.4.2.3-.1.9 0 1.4.3 1.1.6 1.3.6 1.2-.1zm-5.5-2c0-.1-.1-.2-.3-.2-.2 0-.4.3-.4.8 0 .6 0 .6.4.2l.3-.8zm11-.3c.5-.2.7-.2.7.1 0 .3.3-.2.7-1 .8-1.7.9-1.7 1.5.4.2.5.5.6 1.5.4 1.4-.2 2-.9 2.4-2.4.2-.8 1.3-2.4 1.8-2.4l.3 1.2c.2 1 .5 1.4 1.9 2l1.7.7.6-1c.2-.6.4-1 .6-1 .5.4 2.2-1.8 2.2-2.8 0-.9-.1-1.1-1.5-1.8-1.5-.7-1.5-.7-2.7-4.5-.6-2-1.4-4.2-1.7-4.6-1.3-2.1-6.3-4-9.8-3.6-2.8.3-5.9 1.8-6.6 3.3-.4 1-.7 1.2-1.2 1-.8-.1-3.7 2.2-3.8 3-.2 1.9 0 2.4 1.6 3l1.6.6-.4 1.3-.4 1.6-.6 1.3c-.8 1-1.8 4.6-1.5 4.9.1 0 .4-.1.6-.5 1.2-2 1.3-2 3.2-1 1 .4 2 .8 2.5.8.4 0 1.3.3 2.1.7 1.7.8 1.8.8 2.7.3zm-.8-3.6c-1-.2-2.3-.6-2.8-1l-.8-.4.7-.3c.8-.3.9-.5 1-3.2 0-1.2 0-1.3.7-1.1l2.5.5c1 .1 1.4.3 1 .3-.6 0-2.8 2.2-2.2 2.2.2 0 .3.2.2.5-.3.7 1 1.5 3 1.8l1.8.2-1.2.5c-1.3.6-1.3.6-3.9 0zm8-1.6c-1.5-.3-1.9-1.2-1.1-2.4.1-.3.2-.6 0-.8-.2-.4.8-1.2 1.6-1.3 1-.1 1.9.8 1.5 1.5-.4.8-.1 2 .4 1.6.6-.3 1.3-.4 1 0 0 .2-.3.2-.4.1-.2-.1-.4 0-.4.2 0 .5-1.8 1.3-2.6 1.1zm-16-1.4c.1-.2.4-.4.6-.4.1 0 .3.2.3.4 0 .1-.3.3-.6.3s-.4-.2-.3-.3zm1-2.4c-.3-.5-.3-1 0-2 .7-2 1-2 .8.3-.3 2.5-.4 2.6-.9 1.7zm-14 5.1c-.3-.4-2.3.7-2.7 1.5-.7 1.4 0 1.5 1.4.1.8-.7 1.3-1.4 1.2-1.6zm16.5-15.1c1.3-1.9.4-1.6-1.4.3-1.7 1.9-1.7 2-.5 1.3a10 10 0 0 0 1.9-1.6zm-1.1-2.4c1-1 1.2-1.5.5-1.5s-2.4 1.4-2.4 2c0 .8.8.6 1.9-.5zm29.1 3.6c-.3-.4.4-4 .8-4 .2 0 .2.6 0 1.3-.3 2.1-.6 3-.8 2.7zm-1.4-2 .2-3.8c0-1.6 0-2 .3-1.6.2.5.2.2.1-1-.1-1.3 0-1.6.2-1 .3.6.3.6.3-.2 0-.4.2-.8.3-.8.2 0 .5-.7.9-1.5.4-1.3 4.3-7 4.7-7 .3 0-.7 2-2 3.8-.8 1.1-1.7 2.9-2 3.8-.7 2.5-2.2 9.3-2.2 10.2 0 .3-.3.6-.6.6-.4 0-.4-.3-.2-1.5zm-1 .5c0-.5.1-.7.2-.5v.9l-.1-.4zm.4-2c0-.6.1-.8.2-.4v1c-.1.3-.2 0-.2-.6zm.4-2c0-.4 0-.6.2-.4v1c-.1.2-.2 0-.2-.5zm2.6-.5c.3-1.3.5-1.5.5-.6l-.4 1.2c-.2.4-.3.2-.1-.6zm-19.2-.3c-.8-.3-.8-.5-.6-3 .4-4.6 2.2-13.6 2.3-11.4 0 2 .6 1.3.8-1 .2-2.2 1-4.5 1.6-4.5.2 0 0 .5-.3 1.2-.4.7-.7 2.5-.8 4-.4 4.2-1.7 14.7-2 14.9 0 .1-.6 0-1-.2zm19.7-2c0-.4.1-.6.2-.4v.9c0 .2-.2 0-.2-.4zm3.4-13c0-.4 0-.7.2-.7.1 0 .3.3.3.7 0 .4 0 .7-.2.7l-.3-.7zm-21.4-1.3c0-.4.1-.5.2-.2v.7c-.1.1-.2 0-.2-.5zm18.3-1.2c-2.7-1.4-7-2.5-11-2.7-2.2-.1-3.3-.3-3.2-.6.2-.2 0-.2-.6 0-2.4.6-2.7.5-1-.4 1.5-.8 6.5-.8 8.6 0 1.2.4 1.3.5.5.6-.5 0 .4.4 2 .8 3 .9 5.6 2 6.7 2.8 1 .8.2.6-2-.5zm-12.2-3.7h-.9l.4.1c.5 0 .7 0 .5-.1z" style="fill:#f17547;stroke-width:.352778" transform="translate(-44.5 -173.2)"/>
  <path d="M85.5 245c-1.1-.6-2-1.3-2.1-1.6-.1-.7-.3-.7-1.5.2a5.3 5.3 0 0 1-4.7.6c-2.2-.7-20-10.2-20.8-11-.3-.4-.6-1-.6-1.4 0-.5.3-.4 1.8.6a171 171 0 0 0 16.4 8.4l3.3 1.1c1.4.3-3.5-2.4-14.2-7.7a42.2 42.2 0 0 1-8-4.8c-.5 0-3.7-1.6-4.4-2.3-.6-.6-.7-3.1-.2-4.5.4-1 4-5 5-5.6.5-.2 1.1-.1 2.2.4l1.6.7-1.2 2.2c-1.9 3.6-1.9 4 0 5.2 1.5.9 2.7 2.7 2.7 4 0 .4.3 1 .8 1.4l.8.7-.8-.2c-1.8-.5-.6.2 3.4 2.3a16 16 0 0 0 4.7 1.8c.2 0 .2 0 .1.2s.2.5.6.7c.8.3.9.3 1-.4.2-.4.3-1.1.3-1.6 0-.8 0-.8 2.2-.6 1.2 0 3.3.5 4.7.9a9 9 0 0 0 3.1.5c.4-.1 2.1-1.5 3.8-3.1 3.4-3.4 3.7-3.5 6.4-4a7.4 7.4 0 0 0 5.2-3.4c1.2-1.6 1.3-2.2.5-2.4-.4 0-1.5.7-2.8 2-1.9 2-2.4 2.2-4.2 2.6-1.6.4-2.5.8-3.6 1.9-1.7 1.5-1.7 1.5-2.5 1l-2.3-.6c-1.8-.2-2.1-.6-1.9-2.6l.2-1.2-1.1 1.7-1.6 2.6c-.5.8-.7.8-2 .6-1 0-2.4-.6-3.3-1l-2.2-1c-.3 0-1-.3-1.5-.8s-1.8-1.3-2.8-1.8c-1-.4-2.3-1.2-2.8-1.6-.9-.8-.9-.8.7-3.4.7-1 .3-1.7-1.2-2.4-1-.5-1.3-.5-1.8-.2-.6.6-.6.4 0-2.8.4-2.6 1-4 2.3-5.4.5-.6.7-1 .4-.8-.5.3-.5.3 0-.3.2-.3.6-.5.9-.5.2 0 .7-.2 1-.5.5-.6 2-1.4 3.2-2l1-.4-1.2 1.2a6 6 0 0 1-1.7 1.3c-.3 0-.4.8-.2 2.2.2.7.6 1 1.7 1.5 1.7.7 1.6.3.8 3.5l-.6 1.3c-.8 1-1.8 4.6-1.5 4.9.1 0 .4-.1.6-.5 1.2-2 1.3-2 3.2-1 1 .4 2 .8 2.4.8.4 0 1.4.3 2.4.7 1.3.6 1.8.7 2.4.4.6-.3.8-.3.8 0s.3-.2.7-1c.8-1.7.9-1.7 1.5.4.2.5.5.6 1.5.4 1.4-.2 2-.9 2.4-2.4.2-.8 1.3-2.4 1.8-2.4l.3 1.2c.2 1 .5 1.4 1.9 2l1.7.7.6-1c.2-.6.4-1 .6-1 .4.3 2-1.6 2.3-2.6.2-1.1 0-1.5-1.7-2.1-1.4-.5-1.4-.6-2.6-4.6l-1.7-4.8a12 12 0 0 0-5-2.8c-.3-.2-2-.3-3.8-.3-2.5 0-3.5.1-4.6.7l-1.5.7 2.2-2.2c3.4-3.4 2.3-3.4 13.7.4 10.3 3.5 12.8 4.5 13 5.3a26 26 0 0 1-4 6.6c-.5.8-.6 1.1-.2 3.4.4 3 .2 3.7-1 3.5-1-.2-.9-.1.4 1l1.4 1.1v3.3c0 4-.2 4.6-2.8 7.4-1.6 1.7-2 2.2-2.3 4-.5 2.5-2.3 6.6-3.7 8.3-1.2 1.4-2 1.4-4.4 0zm5.9-9.8c1.4-1.9 1.4-1.9.6-1.9-.6 0-1.1.4-1.8 1.5-1.7 3-.9 3.2 1.2.4zm-2-.6c1-1 1-1.4.7-1.7-.4-.4-.7-.2-1.5.7-1 1.1-1.4 2.7-.6 2.4.2 0 .9-.7 1.5-1.4zm-10.7-11.3c-.1-.4-.2-.1-.2.7 0 .7 0 1 .1.7v-1.4zm-6.1.6c0-.4-.4-.6-.7-.6-.3 0-.5-.1-.4-.3.2-.1.6-.3 1-.3.6 0 .6 0-.3-.9-.5-.5-1.2-.8-1.5-.8-.5 0-.5 0 0 .3.2.2.3.3.1.4l-.8-.4c-.2-.3-.5-.3-1 0-.8.4-.9 1.3 0 1.6.3.1.6.4.6.6 0 .2.2.3.4.2.3-.1.9 0 1.4.3 1.1.6 1.3.6 1.2-.1zm-5.5-2c0-.1-.1-.2-.3-.2-.2 0-.4.3-.4.8 0 .6 0 .6.4.2l.3-.8zm-10.8-4.2c-.2-.4-2.2.7-2.6 1.5-.7 1.4 0 1.5 1.4.1.8-.7 1.3-1.4 1.2-1.6zm46 6.7-2.3-1c-.2-.2-.4-.2-.6 0v-1.7c.2-1.3.2-3.4.2-4.7 0-2.7.3-3.6 2.6-6.6 2.1-2.8 3.4-4 3.4-3.5v1.8c0 1 0 1.3.7 1.5l.8.2-.9.5c-1.2.6-2 2.1-1.4 2.7.4.4.6.2 1.5-.8a5 5 0 0 0 1-1.6c0-.3.3-.5.6-.5.6 0 .7.6.1.9-.4.3-1.2 1.7-1.5 3-.4 1.3.6.8 2-1 .6-.9 1.3-1.6 1.5-1.5 1.2.2-.6 7.4-2.8 11-1.3 2.3-2.2 2.5-5 1.3zm-25-6.4c-1-.2-2.3-.6-2.8-1l-.8-.4.7-.3c.8-.3.9-.5 1-3.2 0-1.2 0-1.3.7-1.1l2.5.5c1 .1 1.4.3 1 .3-.6 0-2.8 2.2-2.2 2.2.2 0 .3.2.2.5-.3.7 1 1.5 3 1.8l1.8.2-1.2.5c-1.3.6-1.3.6-3.9 0zm8-1.6c-1.5-.3-1.9-1.2-1.1-2.4.1-.3.2-.6 0-.8-.2-.4.8-1.2 1.6-1.3 1-.1 1.9.8 1.5 1.5-.4.8-.1 2 .4 1.6.6-.3 1.3-.4 1 0 0 .2-.3.2-.4.1-.2-.1-.4 0-.4.2 0 .5-1.8 1.3-2.6 1.1zM69.4 215c.1-.2.4-.4.6-.4.1 0 .3.2.3.4 0 .1-.3.3-.6.3s-.4-.2-.3-.3zm1-2.4c-.3-.5-.3-1 0-2 .7-2 1-2 .8.3-.3 2.5-.4 2.6-.9 1.7zm-3.9-8.3c.6-1.9 4.3-6 5.4-6 1 0 2.3.5 2.3.8l-1.6 2.4a7.9 7.9 0 0 1-4 3.2l-2.4 1s0-.6.3-1.4zm5.3-4c1-1 1.2-1.6.5-1.6s-2.4 1.4-2.4 2c0 .8.8.6 1.9-.5zm-1.5 5.2c-.3-.3-.3-.4.2-.6.7-.2 1.1 0 .6.5-.1.2-.5.2-.8 0zm30.5-2.5.4-1.9c.1-.7.4-1.3.5-1.3.2 0 .3.3.2.6l-.4 2c-.1.7-.4 1.3-.6 1.3-.2 0-.2-.3-.1-.7zm-1.1 0c-.3-.2-.3-.7 0-2 .1-1 .2-2.5 0-3.5 0-1.3 0-1.6.2-1 .3.5.3.2.2-1.1-.1-1.3 0-1.6.2-1 .3.6.3.6.3-.2 0-.4.2-.8.3-.8.2 0 .5-.7.9-1.5.4-1.3 4.3-7 4.7-7 .3 0-.7 2-2 3.8a39 39 0 0 0-4.3 14c0 .4-.3.5-.5.3zm-1.2-1c0-.4.1-.4.3-.2v.7c-.2.1-.3 0-.3-.5zm.4-1.7c0-.6.1-.8.2-.4v1c-.1.3-.2 0-.2-.6zm.4-2c0-.4 0-.6.2-.4v1c-.1.2-.2 0-.2-.5zm2.6-.5c.3-1.3.5-1.5.5-.6l-.4 1.2c-.2.4-.3.2-.1-.6zm-19.4-.4c-.6-.1-.6-.4-.4-2.9.4-4.6 2.2-13.6 2.3-11.4 0 2 .6 1.3.8-1 .2-2.2 1-4.5 1.6-4.5.2 0 0 .5-.3 1.2-.4.7-.7 2.5-.8 4a95 95 0 0 1-2.2 14.8c-.2 0-.6 0-1-.2zm20-1.8c0-.5 0-.7.1-.5v.9c0 .2-.2 0-.2-.4zm3.3-13.1c0-.4 0-.7.2-.7.1 0 .3.3.3.7 0 .4 0 .7-.2.7l-.3-.7zm-21.4-1.3c0-.4.1-.5.2-.2v.7c-.1.1-.2 0-.2-.5zm18.3-1.2c-2.7-1.4-7-2.5-11-2.7-2.2-.1-3.3-.3-3.2-.6.2-.2 0-.2-.6 0-2.4.6-2.7.5-1-.4 1.5-.8 6.5-.8 8.6 0 1.2.4 1.3.5.5.6-.5 0 .4.4 2 .8 3 .9 5.6 2 6.7 2.8 1 .8.2.6-2-.5zm-12.2-3.7h-.9l.4.1c.5 0 .7 0 .5-.1z" style="fill:#788795;stroke-width:.352778" transform="translate(-44.5 -173.2)"/>
  <path d="M85.6 245c-1-.4-1.8-1-1.8-1-.5-1.2-.8-1.3-1.8-.5a5.3 5.3 0 0 1-4.7.8c-2.1-.7-20.2-10.3-20.9-11-.3-.5-.6-1-.6-1.5s.3-.4 1.8.6a171 171 0 0 0 16.4 8.4l3.3 1.1c1.4.3-3.5-2.4-14.2-7.7a42.2 42.2 0 0 1-8-4.8c-.5 0-3.7-1.6-4.4-2.3-.5-.6-.7-2.1-.3-4 .3-1.4 4.6-6 5.7-6 .4 0 1.3.2 2 .5l1.2.5-1.2 2.2c-1.9 3.6-1.9 4 0 5.2 1.5.9 2.7 2.7 2.7 4 0 .4.3 1 .8 1.4l.8.7-.8-.2c-1.8-.5-.6.2 3.4 2.3a16 16 0 0 0 4.7 1.8c.2 0 .2 0 .1.2s.2.5.6.7c.8.3.9.3 1-.4.2-.4.3-1.1.3-1.6 0-.8 0-.8 2.2-.6 1.2 0 3.3.5 4.7.9a9 9 0 0 0 3.1.5c.4-.1 2.1-1.5 3.8-3.1 3.4-3.4 3.7-3.5 6.4-4a7.4 7.4 0 0 0 5.2-3.4c1.2-1.6 1.3-2.2.5-2.4-.4 0-1.5.7-2.8 2-1.9 2-2.4 2.2-4.2 2.6-1.6.4-2.5.8-3.6 1.9-1.7 1.5-1.7 1.5-2.5 1l-2.3-.6c-1.8-.2-2.1-.6-1.9-2.6l.2-1.2-1.1 1.7-1.6 2.6c-.5.8-.7.8-2 .6-1 0-2.4-.6-3.3-1l-2.2-1c-.3 0-1-.3-1.5-.8s-1.8-1.3-2.8-1.8c-1-.4-2.3-1.2-2.8-1.6-.9-.8-.9-.8.7-3.4.7-1 .3-1.7-1.2-2.4-1-.5-1.3-.5-1.8-.2-.6.6-.6.4 0-2.8.4-2.6 1-4 2.3-5.4.5-.6.7-1 .4-.8-.5.3-.5.3 0-.3.2-.3.6-.5.9-.5.2 0 .7-.2 1-.5.5-.6 2-1.4 3.2-2l1-.4-1.2 1.2a6 6 0 0 1-1.7 1.3c-.3 0-.4.8-.2 2.2.2.7.6 1 1.6 1.5l1.3.5-.3 1.7c-.2 1-.6 2.1-1 2.7-.6 1.2-1.8 5-1.8 6 0 .3.2.6.4.6s.3-.3.3-.7c0-.4.2-.7.5-.7s.6.2.6.4c0 .6 1.4 2 2 2 .2 0 1.4.5 2.5 1.1 1.5.7 2.4 1 3 .9.5-.2.6-.4.2-.6-.3-.2-.5-.4-.5-.6 0-.8-.6-1.8-.9-1.6-.2 0-.3 0-.3-.2s-.1-.4-.3-.3c-.1.1-.3-.2-.3-.8 0-.8 0-1 .8-.8a8 8 0 0 1 1.8.7c.8.3 1 .3 1.8-.2l.8-.5-.2 1.2-.5 1.4c-.4.2-.7 2.4-.3 2.2.1 0 .3 0 .3.3 0 .9 1-2.3 1-3.5 0-1.2 1.1-3.8 1.3-3l.3 1.2c.1.8.4 1 1.2 1 1.4 0 4.2-1.9 4.1-2.7 0-.4 0-1 .3-1.3.3-.6.3-.6.7.4.4.7 1 1.2 2.2 1.7l1.7.6 1.2-1.4c2.6-3 2.8-4.6.5-5.3l-1.4-.5-1.3-4c-.7-2.4-1.6-4.6-1.9-5a9.6 9.6 0 0 0-2.8-2 10 10 0 0 0-5.7-1.1c-2.7 0-3.7.1-4.8.7l-1.5.7 2.2-2.2c3.4-3.4 2.3-3.4 13.7.4 10.3 3.5 12.8 4.5 13 5.3a26 26 0 0 1-4 6.6c-.5.8-.6 1.1-.2 3.4.4 3 .2 3.7-1 3.5-1-.2-.9-.1.4 1l1.4 1.1v3.3c0 4-.2 4.6-2.8 7.4a7.4 7.4 0 0 0-2.5 4.6c-1 4.4-3.6 8.8-5.2 8.8-.5 0-1.6-.4-2.6-1zm5.6-9.3c.6-.8 1.3-1.7 1.6-1.9.4-.3.4-.4 0-.6-.4-.1-1 0-1.4.1-.7.4-2.8 3.7-2.8 4.5 0 .8 1.3-.3 2.6-2zm-1.6-1.1c1.2-1.6 1.2-2 0-2-.7 0-2.5 3-2.2 3.7.2.8.7.4 2.2-1.7zm-1.4-1.9c-.4-.3-1 .3-1.5 1.4l-.6 1.1 1.1-1.1 1-1.4zm-31.6-15.2c-1.1-.4-4 2.2-3.4 3.1.2.3.8-.1 2-1.3 1-1 1.5-1.7 1.4-1.8zm.3 1.5c.7-1-.2-.6-1.1.4-.8.8-.8.9-.1.6a4 4 0 0 0 1.2-1zm45.3 5.4-2.2-1c-.2-.2-.4-.2-.6 0v-1.7c.2-1.3.2-3.4.2-4.7 0-2.7.3-3.6 2.6-6.6 2.1-2.8 3.4-4 3.4-3.5v1.7c0 .6.1 1.3.4 1.5.4.3.4.4 0 .5-.6.2-1.8 2.6-1.6 3.2.3.8.8.5 2.2-1.3.8-1 1.5-1.6 1.6-1.5 0 .2-.1.6-.5 1-1 .8-2 3.6-1.5 4 .2.3.8-.3 1.8-1.7 1.5-2.2 2-2.6 2.4-1.6.5 1.3-1.8 8.5-3.6 11.1-1.1 1.6-1.9 1.7-4.6.6zm-34-4.2c.4-1 1.4-1.5 1.4-.6 0 .3-1.3 1.7-1.6 1.7l.2-1zm9-2.3c-2.5-.5-3-1-1.8-1.5.5-.2.9-.2.9 0s3.1 1 4.5 1c1 0 1 0 .3.6-.8.6-1 .6-3.9 0zm-1.3-4.7c0-.2.2-.4.3-.5.2-.1.3 0 .3.3s-.1.5-.3.5c-.1 0-.3-.1-.3-.3zm-9.5-8.2c0-1.2.8-2.3 3.8-5.5.7-.7 1.4-1.1 2-1 .7 0 .7 0 0 .1a5 5 0 0 0-1.8 1.2c-.7.8-.9 1.1-.5 1.5.3.3.7 0 1.9-1 1.4-1.5 2.4-2 2.4-1.2l-1.7 2.5a8.2 8.2 0 0 1-3.9 3.2c-2.1 1-2.2 1-2.2.2zm6.4-4.8c.4-.5.4-.5-.1-.1l-.6.6c0 .3.2.1.7-.5zm-2.5 5.3c-.3-.3-.3-.4.2-.6.7-.2 1.1 0 .6.5-.1.2-.5.2-.8 0zm29.4-4.6c.5-4 1-7.1 1.3-7.1.2 0 .4-.5.5-1 .3-1.2 1.2-1.4 1-.2-.1.5-.3.8-.5.8s-.3.2-.2.3c.1.2-.2 2-.7 4l-.8 4.4c0 .5-.2.9-.4.9-.3 0-.3-.7-.2-2zm-1.2 1.1c0-.4.1-.4.3-.2v.7c-.2.1-.3 0-.3-.5zm.7-3.8c0-.4.1-.5.3-.2v.6c-.2.1-.3 0-.3-.4zm-16.7-.8c-.3 0-.6-.4-.6-.7a60 60 0 0 1 2.5-13.4c0 1.9.6 1.2.8-1 .1-1.2.5-2.7.8-3.4.3-.8.4-.9.3-.3a696 696 0 0 1-2.3 18c0 1-.2 1.2-1.5.8zm1.1-4.3c0-.8 0-.8-.3.2l-.2 2.3v1.2l.3-1.4.2-2.3zm.3-2.6c0-.2-.2-.2-.2.3 0 .3 0 .5.2.4v-.7zm20-1.8c1.2-2 2.4-3.6 2.4-3.2 0 .3-2.7 4.4-3.1 4.8-.1 0 .2-.7.8-1.6zm-.3-8.3a30.5 30.5 0 0 0-13-3.2c-2.6 0-2.8-.3-.5-.7l1.5-.3-1.6.1c-1 0-1.8 0-2-.2-.3-.6 5.4-.4 7.5.3l1.4.4-1.4-.2c-2.1-.3-1.4 0 2.9 1.3 2.1.6 4.6 1.6 5.4 2.2.9.5 1.4 1 1.2 1l-1.4-.7zm-17-3.9c.6-.4 1-.4.8 0-.1.2-.5.4-.8.3-.5 0-.5 0 0-.3z" style="fill:#f06837;stroke-width:.352778" transform="translate(-44.5 -173.2)"/>
  <path d="M85.6 245c-1-.4-1.8-1-1.8-1-.5-1.2-.8-1.3-1.8-.5a5.3 5.3 0 0 1-4.7.8c-2.1-.7-20.2-10.3-20.9-11-.3-.5-.6-1-.6-1.4 0-.6.3-.5 1.7.6a128.5 128.5 0 0 0 20.3 9.6c.4-.1-3.6-2.3-10-5.6a114 114 0 0 1-12.6-7c-.6 0-3.8-1.7-4.5-2.4-.5-.6-.7-2.1-.3-4 .3-1.4 4.6-6 5.7-6 .4 0 1.3.2 2 .5l1.2.5-1.5 2.8-1.4 2.8.6 2.3c.3 1.2.4 2.2.3 2.3-.7.2 0 1.4 1.6 2.4a161 161 0 0 0 16 7.9c.3 0 .3-.1 0-.5-.2-.2-.3-1-.1-1.7.1-.9 0-1.3-.2-1.3a.4.4 0 0 1-.4-.4c0-.3.2-.3.6-.2 2.5 1.1 3.6 1.3 5.3 1.1 1.7-.2 2-.5 5-3 3.7-3.5 4.6-4.2 6.7-4.4 2-.3 3.5-1.2 5.1-3.1 1.6-1.9 1.7-3 .2-3.2-1-.1-1.2 0-2.3 1.8-1.3 2-2.9 3-5 3a4 4 0 0 0-2.4 1c-1.1.9-1.4 1-2.7.6-1.8-.4-3.5-1.9-3.5-3 0-.5-.1-.5-1 .5a18 18 0 0 0-1.8 2.7c-.8 1.5-1 1.5-2.1 1.4-.7-.1-3.5-1.3-6.3-2.6a65.5 65.5 0 0 0-5.3-2.5c-.2 0-.5-.3-.6-.7-.1-.4-.4-.7-.7-.7-.8 0-.6-.7.8-2.4 1.8-2.2 3.6-4.8 3.6-5.3 0-.3-.3-.4-.7-.2-.3 0-.7 0-.9-.2-.3-.6-2.2-.4-3.7.4-.8.4-1.3.5-1.2.3v-.6c-.8-.5.2-3.2 1.6-4.8.8-1 1.2-1.6 1-1.6-.4 0-.4-.1 0-.4.8-.5 3-.5 2.7 0v1.4c.1.8.5 1.2 1.6 1.6l1.3.5-.3 1.7c-.2 1-.6 2.1-1 2.7-.6 1.2-1.8 5-1.8 6 0 .3.2.6.4.6s.3-.3.3-.7c0-.4.2-.7.5-.7s.6.2.6.4c0 .6 1.4 2 2 2 .2 0 1.4.5 2.5 1.1 1.5.7 2.4 1 3 .9.5-.2.6-.4.2-.6-.3-.2-.5-.4-.5-.6 0-.8-.6-1.8-.9-1.6-.2 0-.3 0-.3-.2s-.1-.4-.3-.3c-.1.1-.3-.2-.3-.8 0-.8 0-1 .8-.8a8 8 0 0 1 1.8.7c.8.3 1 .3 1.8-.2l.8-.5-.2 1.2-.5 1.4c-.4.2-.7 2.4-.3 2.2.1 0 .3 0 .3.3 0 .9 1-2.3 1-3.5 0-1.2 1.1-3.8 1.3-3l.3 1.2c.1.8.4 1 1.2 1 1.4 0 4.2-1.9 4.1-2.7 0-.4 0-1 .3-1.3.3-.6.3-.6.7.4.4.7 1 1.2 2.2 1.7l1.7.6 1.2-1.4c2.7-3 2.8-4.6.5-5.3l-1.4-.5-1.4-4.3c-1.4-4.5-2.4-6-4.8-7l-1.1-.5 2.3-.2h2.6l2 .8c1 .4 1.5.7 1.5 1.2 0 .7 2 2.7 2.4 2.4.2 0 .3 0 .2.3 0 .2.1.5.3.5l.8.1c.9.1 1.4 4.2.8 5.8-.3.7-.2 1.6.2 3.1.5 2.2.4 3.8-.3 3.8a4 4 0 0 1-1.4-.5c-1.7-1-1.5-.5.4.7 3.2 2.1 3 1.9 3 5.8s-.3 4.4-2.8 7a7.6 7.6 0 0 0-2.5 4.7c-1 4.5-3.7 8.8-5.2 8.8-.5 0-1.6-.4-2.6-1zm5.6-9.3c.6-.8 1.3-1.7 1.6-1.9.4-.3.4-.4 0-.6-.4-.1-1 0-1.4.1-.7.4-2.8 3.7-2.8 4.5 0 .8 1.3-.3 2.6-2zm-1.6-1.1c1.2-1.6 1.2-2 0-2-.7 0-2.5 3-2.2 3.7.2.8.7.4 2.2-1.7zm-1.4-1.9c-.4-.3-1 .3-1.5 1.4l-.6 1.1 1.1-1.1 1-1.4zm-31.6-15.2c-1.1-.4-4 2.2-3.4 3.1.2.3.8-.1 2-1.3 1-1 1.5-1.7 1.4-1.8zm.3 1.5c.7-1-.2-.6-1.1.4-.8.8-.8.9-.1.6a4 4 0 0 0 1.2-1zm45.3 5.4-2.2-1c-.2-.2-.4-.2-.6 0v-1.6c.2-1.1.3-3.3.3-4.7 0-1.9.3-3 .7-4a45 45 0 0 1 4.7-5.9c.5-.4.5-.3.4 1.2 0 1.1 0 1.6.3 1.6s.5.2.5.4-.2.3-.4.3c-.4 0-1.7 2.6-1.5 3.1.3.8.8.5 2.2-1.3.8-1 1.5-1.6 1.6-1.5 0 .2-.1.6-.5 1-1 .8-2 3.6-1.5 4 .2.3.8-.3 1.8-1.7 1.5-2.2 2-2.6 2.4-1.6.5 1.3-1.8 8.5-3.6 11.1-1.1 1.6-1.9 1.7-4.6.6zm-34-4.2c.4-1 1.4-1.5 1.4-.6 0 .3-1.3 1.7-1.6 1.7l.2-1zm9-2.3c-2.5-.5-3-1-1.8-1.5.5-.2.9-.2.9 0s3.1 1 4.5 1c1 0 1 0 .3.6-.8.6-1 .6-3.9 0zm-1.3-4.7c0-.2.2-.4.3-.5.2-.1.3 0 .3.3s-.1.5-.3.5c-.1 0-.3-.1-.3-.3zm-9.1-5.6c0-.2.4-.5.8-.7l1-.3-1 .7c-.4.4-.8.5-.8.3zm-.4-2.6c0-1.2.8-2.3 3.8-5.5.7-.7 1.4-1.1 2-1 .7 0 .7 0 0 .1a5 5 0 0 0-1.8 1.2c-.7.8-.9 1.1-.5 1.5.3.3.7 0 2-1.2 1.8-1.7 2.4-1.6 1.4.3-1 2-3 3.7-5 4.6-1.9.7-1.9.7-1.9 0zm6.4-4.8c.4-.5.4-.5-.1-.1l-.6.6c0 .3.2.1.7-.5zm27 .7c.4-4 1-7.1 1.2-7.1.2 0 .4-.5.5-1 .3-1.2 1.2-1.4 1-.2-.1.5-.3.8-.5.8s-.3.2-.2.3c.1.2-.2 2-.7 4l-.8 4.4c0 .5-.2.9-.4.9-.3 0-.3-.7-.2-2zm-1.3 1.1c0-.4.1-.4.3-.2v.7c-.2.1-.3 0-.3-.5zm.7-3.8c0-.4.1-.5.3-.2v.6c-.2.1-.3 0-.3-.4zm-16.7-.8c-.3 0-.6-.4-.6-.7a60 60 0 0 1 2.5-13.4c0 1.9.6 1.2.8-1 .1-1.2.5-2.7.8-3.4.3-.8.4-.9.3-.3a696 696 0 0 1-2.3 18c0 1-.2 1.2-1.5.8zm1.1-4.3c0-.8 0-.8-.3.2l-.2 2.3v1.2l.3-1.4.2-2.3zm.3-2.6c0-.2-.2-.2-.2.3 0 .3 0 .5.2.4v-.7zm20-1.8c1.2-2 2.4-3.6 2.4-3.2 0 .3-2.7 4.4-3.1 4.8-.1 0 .2-.7.8-1.6zm-.3-8.3a30.5 30.5 0 0 0-13-3.2c-2.6 0-2.8-.3-.5-.7l1.5-.3-1.6.1c-1 0-1.8 0-2-.2-.3-.6 5.4-.4 7.5.3l1.4.4-1.4-.2c-2.1-.3-1.4 0 2.9 1.3 2.1.6 4.6 1.6 5.4 2.2.9.5 1.4 1 1.2 1l-1.4-.7zm-17-3.9c.6-.4 1-.4.8 0-.1.2-.5.4-.8.3-.5 0-.5 0 0-.3z" style="fill:#e6582e;stroke-width:.352778" transform="translate(-44.5 -173.2)"/>
  <path d="M85.6 245c-1-.4-1.8-1-1.8-1-.5-1.2-.8-1.3-1.8-.5a5.3 5.3 0 0 1-4.7.8c-2.1-.7-20.2-10.3-20.9-11-.3-.5-.6-1-.6-1.4 0-.6.3-.5 1.6.5a97.4 97.4 0 0 0 20.4 9.7 55 55 0 0 0-10-5.6 113.8 113.8 0 0 1-12.6-7c-.6 0-3.8-1.7-4.5-2.4-.5-.6-.7-2.1-.3-4 .3-1.4 4.6-6 5.7-6 .4 0 1.3.2 2 .5l1.2.5-1.4 2.7a10.5 10.5 0 0 0-1.4 5.6c-.1 2.7 0 2.8 1 3.6 1.2 1 17 9 17.8 9 .4 0 .6-.3.6-.5 0-1 1.3-2 3-2.1 1-.1 1.8-.4 1.9-.6a29 29 0 0 0 4.8-3.7c3.4-3 4.1-3.4 5.8-3.8 2.5-.5 3.5-1 5-2.6 1.7-1.6 2.4-3.3 1.5-3.6-.4 0-1.1-.4-1.8-.7-.6-.3-1.4-.4-1.8-.3-.7.3-1.4 1.5-1.5 2.7-.1 1.9-1.5 2.4-3.2 1.2-.6-.4-.9-.4-1.7 0-1 .6-2.7.4-5-.5-1.4-.5-2.3.2-4 3l-1.4 2.3a52.7 52.7 0 0 1-14-6.7c-.7-.2-.6-.3.7-1.9a28 28 0 0 0 4-5.8c0-.4-1.1-1-2.4-1.3-.6-.1-1.2-.4-1.2-.6 0-.2-.2-.3-.5-.3-.7 0-.7-.1.7-2.2 1.2-1.7 1.3-1.8.6-2-1.1-.2-.9-.7.3-.7.7 0 1 .1.9.3v1.4c.1.8.5 1.2 1.6 1.6l1.3.5-.3 1.7c-.2 1-.6 2.1-1 2.7-.6 1.2-1.8 5-1.8 6 0 .3.2.6.4.6s.3-.3.3-.7c0-.4.2-.7.5-.7s.6.2.6.4c0 .6 1.4 2 2 2 .2 0 1.4.5 2.5 1.1 1.5.7 2.4 1 3 .9.5-.2.6-.4.2-.6-.3-.2-.5-.4-.5-.6 0-.8-.6-1.8-.9-1.6-.2 0-.3 0-.3-.2s-.1-.4-.3-.3c-.1.1-.3-.2-.3-.8 0-.8 0-1 .8-.8a8 8 0 0 1 1.8.7c.8.3 1 .3 1.8-.2l.8-.5-.2 1.2-.5 1.4c-.4.2-.7 2.4-.3 2.2.1 0 .3 0 .3.3 0 .9 1-2.3 1-3.5 0-1.2 1.1-3.8 1.3-3l.3 1.2c.1.8.4 1 1.2 1 1.4 0 4.2-1.9 4.1-2.7 0-.4 0-1 .3-1.3.3-.6.3-.6.7.4.4.7 1 1.2 2.2 1.7l1.7.6 1.2-1.4c2.6-3 2.8-4.6.5-5.3l-1.4-.5-1.3-4-1.3-4.2c0-.2.4-.2 1 0 .4 0 .8 0 .8-.2s.2-.4.4-.4.2.4.1.9c-.2.6 0 .9.9 1.2 1 .4 1 .6.6 1-.3.5-.3.5 0 .3h.5c0 .2.3.6.8.8.8.5 2 3.2 2 4.6l.3 2.7c.2 1 .3 2.2.2 2.4-.1.1-.7.2-1.3 0-1-.1-1 0-.5.3l2.6 1.8 2 1.4-.3 1.6-.4 3c-.4 3.2-.8 4.2-2.5 6a7.2 7.2 0 0 0-2.4 4.5c-1 4.4-3.6 8.8-5.2 8.8-.5 0-1.6-.4-2.6-1zm5.6-9.3c.6-.8 1.3-1.7 1.6-1.9.4-.3.4-.4 0-.6-.4-.1-1 0-1.4.1-.7.4-2.8 3.7-2.8 4.5 0 .8 1.3-.3 2.6-2zm-1.6-1.1c1.2-1.6 1.2-2 0-2-.7 0-2.5 3-2.2 3.7.2.8.7.4 2.2-1.7zm-1.4-1.9c-.4-.3-1 .3-1.5 1.4l-.6 1.1 1.1-1.1 1-1.4zm-11.4-4a10 10 0 0 0-2.6-.9 7 7 0 0 0 2.6 1.2c.2 0 .2 0 0-.2zm20.6-.5c.3-.3.4-1 .3-1.7v-1.1l-.9 1.4-.8 1.7c0 .4 1 .2 1.4-.3zM70.6 226c-.6-.4-1.4-.7-1.7-.7-.3 0 0 .3.9.7 1.8.9 2.4.9.8 0zm-14-8.4c-1.1-.4-4 2.2-3.4 3.1.2.3.8-.1 2-1.3 1-1 1.5-1.7 1.4-1.8zm.3 1.5c.7-1-.2-.6-1.1.4-.8.8-.8.9-.1.6a4 4 0 0 0 1.2-1zm45.3 5.4-2.2-1c-.2-.2-.4-.2-.6 0v-1c.2-1 .3-3 .3-4.6 0-2.7.2-3.3 1-4.8a21 21 0 0 1 4.1-5.3l.9-.6-.3 1.4c-.1 1.2 0 1.5.3 1.5s.6.2.6.4-.2.3-.4.3c-.4 0-1.7 2.6-1.5 3.1.3.8.8.5 2.2-1.3.8-1 1.5-1.6 1.6-1.5 0 .2-.1.6-.5 1-1 .8-2 3.6-1.5 4 .2.3.8-.3 1.8-1.7 1.5-2.2 2-2.6 2.4-1.6.5 1.3-1.8 8.5-3.6 11.1-1.1 1.6-1.9 1.7-4.6.6zm-34-4.2c.4-1 1.4-1.5 1.4-.6 0 .3-1.3 1.7-1.6 1.7l.2-1zm9-2.3c-2.5-.5-3-1-1.8-1.5.5-.2.9-.2.9 0s3.1 1 4.5 1c1 0 1 0 .3.6-.8.6-1 .6-3.9 0zm-1.3-4.7c0-.2.2-.4.3-.5.2-.1.3 0 .3.3s-.1.5-.3.5c-.1 0-.3-.1-.3-.3zm-9.5-8.2c0-1.2.8-2.3 3.8-5.5.7-.7 1.4-1.1 2-1 .7 0 .7 0 0 .1a5 5 0 0 0-1.8 1.2c-.7.8-.9 1.1-.5 1.5.3.3.7 0 2-1.2 1.8-1.7 2.4-1.6 1.4.3-1 1.8-3 3.6-5 4.5-1.9.8-1.9.8-1.9.1zm6.4-4.8c.4-.5.4-.5-.1-.1l-.6.6c0 .3.2.1.7-.5zm27 .7c.4-4 1-7.1 1.2-7.1.2 0 .4-.5.5-1 .3-1.2 1.2-1.4 1-.2-.1.5-.3.8-.5.8s-.3.2-.2.3c.1.2-.2 2-.7 4l-.8 4.4c0 .5-.2.9-.4.9-.3 0-.3-.7-.2-2zm-1.3 1.1c0-.4.1-.4.3-.2v.7c-.2.1-.3 0-.3-.5zm.7-3.8c0-.4.1-.5.3-.2v.6c-.2.1-.3 0-.3-.4zm-16.7-.8c-.3 0-.6-.4-.6-.7a60 60 0 0 1 2.5-13.4c0 1.9.6 1.2.8-1 .1-1.2.5-2.7.8-3.4.3-.8.4-.9.3-.3a696 696 0 0 1-2.3 18c0 1-.2 1.2-1.5.8zm1.1-4.3c0-.8 0-.8-.3.2l-.2 2.3v1.2l.3-1.4.2-2.3zm.3-2.6c0-.2-.2-.2-.2.3 0 .3 0 .5.2.4v-.7zm20-1.8c1.2-2 2.4-3.6 2.4-3.2 0 .3-2.7 4.4-3.1 4.8-.1 0 .2-.7.8-1.6zm-.3-8.3a30.5 30.5 0 0 0-13-3.2c-2.6 0-2.8-.3-.5-.7l1.5-.3-1.6.1c-1 0-1.8 0-2-.2-.3-.6 5.4-.4 7.5.3l1.4.4-1.4-.2c-2.1-.3-1.4 0 2.9 1.3 2.1.6 4.6 1.6 5.4 2.2.9.5 1.4 1 1.2 1l-1.4-.7zm-17-3.9c.6-.4 1-.4.8 0-.1.2-.5.4-.8.3-.5 0-.5 0 0-.3z" style="fill:#6d7886;stroke-width:.352778" transform="translate(-44.5 -173.2)"/>
  <path d="M85.5 245c-1.2-.6-1.9-1.2-2-1.7l-.2-.8-1.1.8a5.4 5.4 0 0 1-4.7 1 216 216 0 0 1-21-11c-.4-.5-.7-1-.7-1.4 0-.6.3-.5 1.6.5a97.3 97.3 0 0 0 20.4 9.7 50 50 0 0 0-10.1-5.6 54.6 54.6 0 0 1-12.3-7.2c-.4.3-3.8-1.4-4.5-2.3-.9-1-1-2.5-.2-4 .6-1.3 2.4-3.6 2-2.7 0 .3 0 .8.2 1 .1.3.7 0 1.8-1.3.9-1 1.2-1.2.8-.7-1 1.5-.7 1.6 1 .2 1.6-1.3 1.8-1.5.7-1.3-.6.2-.6.1-.3-.3s.3-.5-.4-.5c-.5 0-.6-.1-.3-.2.3 0 1.1 0 1.8.4l1.2.5-1.3 2.7a10.4 10.4 0 0 0-1.4 5.6c-.1 2.7 0 2.8 1 3.6 1.2 1 17 9 17.8 9 .4 0 .6-.3.6-.5 0-1 1.3-2 3-2.1 1-.1 1.8-.4 1.9-.6a29 29 0 0 0 4.8-3.7c3.4-3 4.1-3.4 5.8-3.8 2.5-.5 3.5-1 5-2.6 1.7-1.6 2.4-3.3 1.5-3.6-.4 0-1.1-.4-1.8-.7-.6-.3-1.4-.4-1.8-.3-.7.3-1.4 1.5-1.5 2.7-.1 1.9-1.5 2.4-3.2 1.2-.6-.4-.9-.4-1.7 0-1 .6-2.7.4-5-.5-1.4-.5-2.3.2-4 3l-1.4 2.3a52.7 52.7 0 0 1-14-6.7c-.7-.2-.6-.3.7-1.9a28 28 0 0 0 4-5.8c0-.4-1.1-1-2.4-1.3-.6-.1-1.2-.4-1.2-.6 0-.2-.2-.3-.5-.3-.7 0-.7-.1.7-2.2 1.2-1.7 1.3-1.8.6-2-1.1-.2-.9-.7.3-.7.7 0 1 .1.9.3v1.4c.1.8.5 1.2 1.6 1.6l1.3.5-.6 2.2-1.7 5.1c-1 2.6-1 3-.6 3.5.4.6.6.6.9.2.3-.5.4-.5.2 0-.1.4.2.8 1.2 1.3.7.4 1.4.7 1.5.6.1-.2.6 0 1.1.3.5.3 1.1.6 1.4.6.3 0 .8.2 1 .6.5.4 1.1.5 2.5.4 1.8-.1 1.9-.2 2.5-1.5.3-.8.7-2.2.8-3.2.2-2.1.4-2.4.7-1 .5 2.2.6 2.2 5.2-.8l1.7-1.1 1.5.6c.8.4 1.7.7 2 .7.4 0 1.2-.9 2-2.1 2-2.8 1.9-3.8-.1-4.5-1.4-.5-1.4-.6-2.7-4.5l-1.4-4.2c0-.2.4-.2 1 0 .4 0 .8 0 .8-.2s.2-.4.4-.4.2.4.1.9c-.2.6 0 .9.9 1.2 1 .4 1 .6.6 1-.3.5-.3.5 0 .3h.5c0 .2.3.6.8.8.8.5 2 3.2 2 4.6l.3 2.7c.2 1 .3 2.2.2 2.4-.1.1-.7.2-1.3 0-1-.1-1 0-.5.3l2.6 1.8 2 1.4-.3 1.6-.4 3c-.4 3.2-.8 4.2-2.6 6-1.4 1.5-1.8 2.2-2.1 3.6-.8 4.4-3.7 9.5-5.3 9.6-.5 0-1.7-.4-2.8-.9zm4.5-7.6 2.3-3c.5-.5.8-1 .7-1.2-.3-.5-1.3-.2-2.4.7l-1 1 .8-1 .8-1.1-.8-.3c-.5-.3-.9-.2-1.5.3-1.4 1.3-2.7 4.7-1.7 4.7.2 0 .8-.6 1.4-1.3l1.1-1.3-.6 1.4c-.9 1.8-1.3 3.3-.9 3.3.2 0 1-1 1.8-2.2zm-2.5-3.4a7 7 0 0 0 1-1.7c-.3-.3-2 1.4-2.6 2.5-.8 1.6.2 1 1.6-.8zm-10.7-5.2c-.4-.4-2.6-1.2-2.6-1a7 7 0 0 0 2.6 1.2c.2 0 .2 0 0-.2zm20.6-.6c.3-.3.4-1 .3-1.7v-1.1l-.9 1.4-.8 1.7c0 .4 1 .2 1.4-.3zM70.6 226c-.6-.4-1.4-.7-1.7-.7-.3 0 0 .3.9.7 1.8.9 2.4.9.8 0zm31.2-1.8c-1.5-.7-2.2-.8-2.4-.6v-1.1c.2-1 .3-3 .3-4.6 0-2.7.2-3.3 1-4.8a21 21 0 0 1 4.1-5.3l.9-.6-.3 1.4c-.2 1.3-.1 1.5.4 1.5s.5.1-.2.8c-1.4 1.6-2.2 4.5-1.1 4.5.1 0 .7-.6 1.2-1.4a9 9 0 0 1 1.1-1.4l-.5 1.6c-1.5 3.4-.5 4.6 1.1 1.5 1.5-2.8 2.3-3.7 2.8-3.2 1 1-1.6 9-3.6 11.5-1.3 1.6-2 1.6-4.8.2zm3-13.5c0-.2-.4 0-.8.7-1.2 1.3-1.1 2 0 .7.5-.5.9-1.2.8-1.4zm-29 12.4c-.2-1-.2-1 .7-.6.6.2.8.5.6.8-.3.8-1 .7-1.3-.2zm3.6-4.7c-.5-.5-.3-.9.4-.9.5 0 .7.2.6.4-.1.6-.7.8-1 .5zm-13-13.1c0-.6 3-5 3.4-5 .2 0 0 .1-.1.4-.6.5-.6 1.7 0 1.7.1 0 1.1-.9 2-1.9 2.3-2.3 2.7-1.7.9 1-1.4 2-1.7 2.2-4.5 3.6-1.4.6-1.7.7-1.7.2zm6.7-5c.5-.8.5-.9-.2-.5-.4.2-.9.7-1 1-.3.8.5.4 1.2-.5zm26.5 2c0-.4.1-.6.2-.4v.9c0 .2-.2 0-.2-.4zm-28.3-3.5c.2-.2.5-.3.8-.3.3.1.1.3-.4.4-.6.2-.7.1-.4-.1zm29-.6c0-.6.1-1.2.3-1.3.2-.1.3.2.1 1-.2 1.5-.4 1.6-.4.3zm-16.8-2.5c.4-3.9.9-5.3.7-1.8-.2 1.6-.4 3.2-.6 3.5-.2.4-.2-.3 0-1.7zm-1.3 1.5a52.6 52.6 0 0 1 1.9-12.6V183l.4 1.6c.2.8.5 1.4.7 1.2.3-.3 0 2-.5 3.6-.2.8-.3.5-.1-1l.1-2.2-.5 1.8c-.3 1-.7 3.4-1 5.4-.6 3.8-.7 4-1 3.7zm3-12.3c0-.4 0-.5.1-.3v.7c-.1.1-.2 0-.2-.4zm16.5-5.5c-.3-.2-.4-.3-.2-.3l.9.3c.3.2.4.4.2.4l-1-.4zm-2-.7c-.4-.2-.5-.3-.1-.3.3 0 .7.1 1 .3.7.4.1.4-.9 0zm-3.8-.9c-1.2-.3-3.3-.5-4.7-.6-2.5 0-2.5-.5-.1-.6l1.2-.1-1.4-.3-1.4-.2h1.6l3 .1c1.3.3 1.3.3.5.5-.7.2-.3.3 1.7.9l2.6.7c0 .2-.7.1-3-.4z" style="fill:#d1502b;stroke-width:.352778" transform="translate(-44.5 -173.2)"/>
  <path d="M85.5 245c-1.2-.6-1.9-1.2-2-1.7l-.2-.8-1.1.8a5.4 5.4 0 0 1-4.7 1 216 216 0 0 1-21-11c-1.3-1.5-.7-1.8.9-.6.8.7 5 3.1 9.4 5.3 8.5 4.3 11.4 5.3 13 4.4.9-.4.9-.4-.5-.6-1.3-.2-3.4-1.3-3.4-1.7h.4c.6.5 2.5-.2 2.8-1 .2-.4.6-1 1-1.3a43.8 43.8 0 0 1 7.9-7.6c1.3-1 4.2-2.2 5.4-2.2.3 0 1.2-.6 2.1-1.3 1-.6 1.5-1 1.4-.7l-1.3 1.9c-1.4 2-1.3 3.3.1 2 .4-.3.7-.4.7-.2s-.3.6-.6.8c-1.2 1-1.5 1.7-2 4.6a20 20 0 0 1-3.3 8.8c-1.6 2.3-2.3 2.5-5 1.1zm4.5-7.6 2.3-3c.5-.5.8-1 .7-1.2-.3-.5-1.3-.2-2.4.7l-1 1 .8-1 .8-1.1-.8-.3c-.5-.3-.9-.2-1.5.3-1.4 1.3-2.7 4.7-1.7 4.7.2 0 .8-.6 1.4-1.3l1.1-1.3-.6 1.4c-.9 1.8-1.3 3.3-.9 3.3.2 0 1-1 1.8-2.2zm-2.5-3.4a7 7 0 0 0 1-1.7c-.3-.3-2 1.4-2.6 2.5-.8 1.6.2 1 1.6-.8zm-30.1-2.9c-.4-.2-1-.7-1.2-1.2-.3-.4-.6-.7-.8-.6-.5.3-3.8-1.4-4.5-2.3-.9-1-1-2.5-.2-4 .6-1.3 2.4-3.6 2-2.7 0 .3 0 .8.2 1 .1.3.7 0 1.8-1.3.9-1 1.2-1.2.8-.7-1 1.5-.7 1.6 1 .2 1.6-1.3 1.8-1.5.7-1.3-.6.2-.6.1-.3-.3s.3-.5-.4-.5c-.4 0-.7 0-.6-.2.3-.3 3.1.6 3.1 1l-1.1 2.4a15 15 0 0 0-1.4 4.5c-.5 4-.5 4.2 1.1 5.4 1.5 1 1.3 1.4-.2.6zm19.6-2.7c-.5 0-3.2-1.2-6.1-2.5a52.5 52.5 0 0 0-5.7-2.5c-.4 0-.5-.2-.3-.6.2-.4 0-.5-.5-.4-.5.2-.8.2-.8 0l2-2.8 2.5-3.4.5-.7-.3.7-1.2 3.4c-.9 2.4-1 2.8-.5 3.3.4.6.6.6.9.2.3-.5.4-.5.2 0-.1.4.2.8 1.2 1.3.7.4 1.4.7 1.5.6.1-.2.6 0 1.1.3.5.3 1.1.6 1.4.6.3 0 .8.2 1 .6.5.4 1.1.5 2.5.4 1.8-.1 1.9-.2 2.5-1.5.3-.8.7-2.2.8-3.2.2-2.1.4-2.4.7-1 .5 2.2.6 2.2 5.2-.8l1.7-1.1 1.5.6c.8.4 1.7.7 2 .7.6 0 3.5-3.8 3.5-4.6 0-.2.1-.3.3-.2.6.4.4 2-.3 2.4-.6.5-.6.6 1.2 1.6 2.4 1.5 2.2 2.1-.3 1l-1.8-.9-.8.8c-.5.5-1 .6-2 .5-.6 0-1.3.1-1.6.4-.7.7-2.1.9-2.8.3-.5-.5-.8-.4-3 1a15 15 0 0 0-3.3 3c-1.6 2.4-2 2.7-3 2.5zm21.2-4c0-.6.1-1.4.3-1.7.3-.4.3 0 .1 1-.2 2-.4 2.3-.4.8zm3.6-.3-2.2-1 .1-4 .4-4.6c.8-1.5 4-5.9 4.2-5.9.2 0 0 .3-.2.6l-1 1.5-.4.8 1-.7 1-.6-.8 1.1-.8 1.4c0 .4 1.1-.7 1.6-1.7.3-.5.8-1 1.1-1 .5 0 .5.1-.2.8-1.4 1.6-2.2 4.5-1.1 4.5.1 0 .7-.6 1.2-1.4a9 9 0 0 1 1.1-1.4l-.5 1.6c-1.5 3.4-.5 4.6 1.1 1.5 1.5-2.8 2.3-3.7 2.8-3.2 1 1-1.6 9-3.6 11.5-1.3 1.6-2 1.6-4.8.2zm-26-1.1c-.2-1-.2-1 .7-.6.6.2.8.5.6.8-.3.8-1 .7-1.3-.2zm3.6-4.7c-.5-.5-.3-.9.4-.9.5 0 .7.2.6.4-.1.6-.7.8-1 .5zm12.7-4.5c-.7-.3-1-.9-1.7-3a9.8 9.8 0 0 1-.6-2.8c.7-.7 4.1 3.7 4.1 5.5 0 .8-.3.9-1.8.3zm-26.6-5.2c.1-.2.5-.3.8-.3.3 0 .4.1.3.3-.1.2-.5.4-.8.4-.3 0-.4-.2-.3-.4zm1-3.5c0-.5 3-5 3.3-5 .2 0 0 .2-.1.5-.6.5-.6 1.7 0 1.7l2-1.9c1-1 1.9-1.7 2-1.5.2.1 0 .3-.1.4-.3.1-.4.3-.3.5.1.2 0 .2-.3.1-.3 0-.7.1-1 .6-.4.8 0 1 .7.3.3-.3 0 .2-.5 1a7 7 0 0 1-2.6 2.4c-2.2 1.1-3.2 1.4-3.2.9zm33.1-2.8c0-.5.1-.7.2-.5v.9c0 .2-.2 0-.2-.4zm-28.3-3.6c.2-.2.5-.3.8-.3.3.1.1.3-.4.4-.6.2-.7.1-.4-.1zm29-.6c0-.6.1-1.2.3-1.3.2-.1.3.2.1 1-.2 1.5-.4 1.6-.4.3zm-16.8-2.5c.4-3.9.9-5.3.7-1.8-.2 1.6-.4 3.2-.6 3.5-.2.4-.2-.3 0-1.7zm-1.3 1.5a52.6 52.6 0 0 1 1.9-12.6V183l.4 1.6c.2.8.5 1.4.7 1.2.3-.3 0 2-.5 3.6-.2.8-.3.5-.1-1l.1-2.2-.5 1.8c-.3 1-.7 3.4-1 5.4-.6 3.8-.7 4-1 3.7zm3-12.3c0-.4 0-.5.1-.3v.7c-.1.1-.2 0-.2-.4zm16.5-5.5c-.3-.2-.4-.3-.2-.3l.9.3c.3.2.4.4.2.4l-1-.4zm-2-.7c-.4-.2-.5-.3-.1-.3.3 0 .7.1 1 .3.7.4.1.4-.9 0zm-3.8-.9c-1.2-.3-3.3-.5-4.7-.6-2.5 0-2.5-.5-.1-.6l1.2-.1-1.4-.3-1.4-.2h1.6l3 .1c1.3.3 1.3.3.5.5-.7.2-.3.3 1.7.9l2.6.7c0 .2-.7.1-3-.4z" style="fill:#b44628;stroke-width:.352778" transform="translate(-44.5 -173.2)"/>
  <path d="M85.5 245c-1.2-.6-1.9-1.2-2-1.7-.2-.8-.2-.8-1.1-.1a5.2 5.2 0 0 1-4.8 1c-1.8-.5-19.5-9.6-20.6-10.7-1.2-1-1-1.5.2-.4.6.5 5.1 3 10 5.5 8.3 4.2 9.1 4.6 11 4.6 1.3 0 2-.2 2.4-.7.9-.9.8-1.2-.4-1-1 .2-2.4-.3-1.4-.6l1-.3c.3 0 .9-1.2 1.3-2.4.6-2 .9-2.4 4.2-5.3 4-3.6 4.8-4.1 7-4.4 1.7-.3 2 0 1.1 1.2-.6.8-.3 2 .4 1.7.9-.4.5.1-.6.7l-2.3 1.6-1.4 1.2.8-1 .9-1.1-.8-.3c-.5-.3-.9-.2-1.5.3-1.4 1.3-2.7 4.7-1.7 4.7.2 0 .8-.6 1.4-1.3l1.1-1.3-.6 1.4c-.9 1.8-1.3 3.3-.9 3.3.2 0 1-1 1.8-2.2.8-1.2 1.9-2.6 2.4-3 .7-.8 1-.8 1.2-.4.7 1.2-1 6.6-3 9.6-1.7 2.6-2.4 2.8-5 1.4zm2-11a7 7 0 0 0 1-1.7c-.3-.3-2 1.4-2.6 2.5-.8 1.6.2 1 1.6-.8zm-34.4-5.4c-2.8-1.4-3.6-3.1-2.4-5.7.6-1.2 2.4-3.5 2-2.6 0 .3 0 .8.2 1 .1.3.7 0 1.8-1.3.9-1 1.2-1.2.8-.7-1 1.5-.7 1.6 1 .2 1.6-1.3 1.8-1.5.7-1.3-.6.2-.6.1-.3-.3s.3-.5-.4-.5c-.4 0-.7 0-.6-.2.3-.2 3.1.6 3.1.9l-1 2.3c-.8 1.4-1.3 3.3-1.6 5.2-.4 2.9-.7 3.8-1.2 3.8l-2-.8zm20.4-1.7c-3.3-1.5-3.4-1.6-3.1-2 .1 0 .6.1 1.1.4.5.3 1.1.6 1.4.6.3 0 .8.2 1 .6.5.4 1.1.5 2.5.4 1.8-.1 1.9-.2 2.5-1.5.3-.8.7-2.2.8-3.2.2-2.1.4-2.4.7-1 .5 2.2.6 2.2 5.2-.8l1.7-1.1 1.7.7c1 .4 2 .6 2.2.5.3-.1 1-1 1.7-2a7 7 0 0 1 1.4-1.8c.5 0 .4.6-.3 1.3-.5.5-.5.6.3 1.2l.9.7h-1c-.6-.1-1.2.1-1.8.7-1 .8-1 .8-2.5.4l-2.5-.4c-1.4 0-6 3.3-7.8 5.6-1.1 1.4-2 2.2-2.4 2.2-.4 0-2-.7-3.7-1.5zm-6-2.8c-1-.6-2-1.3-2.2-1.6-.2-.3-.6-.5-.8-.5-.3 0 .2-1 1.3-2.4 1-1.4 1.9-2.4 2-2.4l-.8 2.6c-.8 2.2-.8 2.6-.4 3.2.4.5.5.5.9 0 .3-.4.4-.4.2 0 0 .4.4.9 1.1 1.4 2 1.2 1 1-1.3-.3zm34.3 0-2.2-1 .2-3.5c.2-2.5.4-3.8 1-5 .8-1.6 3-4 3-3.3 0 .3-.2.5-.3.7-.2 0-.4.3-.4.5 0 .6 1-.4 1.6-1.5.3-.5.8-1 1.1-1 .5 0 .5.1-.2.8-1.4 1.6-2.2 4.5-1.1 4.5.1 0 .7-.6 1.2-1.4a9 9 0 0 1 1.1-1.4l-.5 1.6c-1.5 3.4-.5 4.6 1.1 1.5 1.5-2.8 2.3-3.7 2.8-3.2 1 1-1.6 9-3.6 11.5-1.3 1.6-2 1.6-4.8.2zm-26-1.1c-.2-1-.2-1 .7-.6.6.2.8.5.6.8-.3.8-1 .7-1.3-.2zm3.6-4.7c-.5-.5-.3-.9.4-.9.5 0 .7.2.6.4-.1.6-.7.8-1 .5zm12.2-5-.8-1.7-.4-1.3.8.8c.4.4.6.8.5 1-.1 0 0 .4.2.6.4.6.2 1-.3.6zM66.4 205a25 25 0 0 1 3.4-4.9c.2 0 0 .2-.1.5-.6.5-.6 1.7 0 1.7.3 0 1-.7 1.6-1.5.6-.7 1.5-1.5 2-1.8.5-.2.3 0-.5.7-1.2 1.2-1.4 1.7-.6 1.4.5-.2.5-.1.2.4a9 9 0 0 1-4 3.2c-2 .9-2 .9-2 .3zm33.2-2.7c0-.5.1-.7.2-.5v.9c0 .2-.2 0-.2-.4zm-28.3-3.6c.2-.2.5-.3.8-.3.3.1.1.3-.4.4-.6.2-.7.1-.4-.1zm29-.6c0-.6.1-1.2.3-1.3.2-.1.3.2.1 1-.2 1.5-.4 1.6-.4.3zm-16.8-2.5c.4-3.9.9-5.3.7-1.8-.2 1.6-.4 3.2-.6 3.5-.2.4-.2-.3 0-1.7zm-1.3 1.5a52.6 52.6 0 0 1 1.9-12.6V183l.4 1.6c.2.8.5 1.4.7 1.2.3-.3 0 2-.5 3.6-.2.8-.3.5-.1-1l.1-2.2-.5 1.8c-.3 1-.7 3.4-1 5.4-.6 3.8-.7 4-1 3.7zm3-12.3c0-.4 0-.5.1-.3v.7c-.1.1-.2 0-.2-.4zm16.5-5.5c-.3-.2-.4-.3-.2-.3l.9.3c.3.2.4.4.2.4l-1-.4zm-2-.7c-.4-.2-.5-.3-.1-.3.3 0 .7.1 1 .3.7.4.1.4-.9 0zm-3.8-.9c-1.2-.3-3.3-.5-4.7-.6-2.5 0-2.5-.5-.1-.6l1.2-.1-1.4-.3-1.4-.2h1.6l3 .1c1.3.3 1.3.3.5.5-.7.2-.3.3 1.7.9l2.6.7c0 .2-.7.1-3-.4z" style="fill:#58606a;stroke-width:.352778" transform="translate(-44.5 -173.2)"/>
  <path d="M85.6 245c-1-.5-1.9-1.3-2.1-1.7-.4-.7-.5-.8-.8-.3-.3.3-1.2.8-2 1a4 4 0 0 1-3 .2A225 225 0 0 1 57 233.5c-1.2-1-1-1.5.2-.4.6.5 5.1 3 10 5.5 8.3 4.2 9.1 4.6 11 4.6 1.3 0 2-.2 2.4-.7.9-.9.8-1.2-.4-1-1 .2-2.4-.3-1.4-.6l1-.3c.3 0 .9-1.2 1.3-2.4.6-2 .9-2.4 4.2-5.3 4-3.6 4.8-4.1 7-4.4 1.7-.3 2 0 1.1 1.2-.6.8-.3 2 .4 1.7.9-.3.5 0-.7.8-1 .6-1.3.6-2 .2-.6-.3-1-.3-1.5-.1-.4.2-.6.1-.7-.2-.3-.7-1.4.2-2.6 2a6 6 0 0 0-1.2 2.5c0 .7.1.7 1-.3.6-.7.8-.8.6-.4-.5 1.4-.6 2.3-.4 3 .2.5.3.5 1-.3l.7-.9-.2 1-.4 2.5c-.2 1.3-.2 1.4.2.7 4-6.6 4.9-7.9 5.6-7.9.2 0 .4.6.4 1.4C93.6 239 90 246 88 246c-.4 0-1.5-.5-2.5-1zm-32.4-16.4c-2.4-1.1-2.8-1.7-2.5-3.6.2-1.7 1.2-4 1.2-2.9 0 1 1 .7 1.7-.5.4-.7.7-.9.8-.5.1.4.7 0 2.2-1.4 1.1-1 2.1-1.7 2.2-1.6 0 .1-.3 1.2-.9 2.4-.7 1.3-1.2 3.2-1.5 5-.4 3-.7 4-1.2 4l-2-1zm22.7-.6c-.4-.3-.3-.4.4-.2 1 .2 2.1-.3 2.1-1 0-.3.6-1 1.2-1.8l1.3-1.6s.4-.4 1-.6l3.2-1.9 2.4-1.4 1.9.7c1.8.8 2 .7 3.7-2 1-1.4 1.5-1.9 1.5-1.2 0 .2-.2.6-.6 1-.5.5-.5.6.3 1.2l.9.7h-1c-.6-.1-1.2.1-1.8.7-1 .8-1 .8-2.5.4l-2.5-.4c-1.4 0-6 3.3-7.8 5.6-1.7 2.2-2.5 2.6-3.7 1.8zm-1.7-.7c-.3-.2-.4-.3-.2-.3l.9.3c.3.2.3.3.2.3l-1-.3zm29.6-2.4a11 11 0 0 1-2.4-1l-1.8-.9.2-3.4c.2-3.8 1-5.9 2.8-7.5l1-.8-.6 1c-.3.4-.6 1.1-.6 1.5 0 .5.2.4.9-.4 1-1 1.1-.9.3.5-.6 1-.6 1.7-.2 2.5.3.4.5.4 1-.2.8-.6.8-.6.6 1.7v2.3c.2 0 1-1.3 1.7-2.9.8-1.6 1.9-3.4 2.4-4.1l1-1.2v1.6c0 2.9-2.2 8.9-4 10.8-.6.8-1.3 1-2.3.5zm4.4-5.3c.8-1.9.6-2.2-.3-.5-.5.9-1 1.7-1 2 0 .6.8-.2 1.3-1.5zm-41.4 4.1-1.6-1.2c-.1-.3-.5-.5-.7-.5-.3 0 .2-1 1.3-2.4a23 23 0 0 1 1.9-2.4l-.8 2.7-.9 2.6 1.2 1c1.3 1.2 1.2 1.2-.4.2zm24.8-10.4-.8-1.7-.4-1.3.8.8c.4.4.6.8.5 1-.1 0 0 .4.2.6.4.6.2 1-.3.6zm-24.5-8.4a8 8 0 0 1 1.2-2.6c.1 0 .1.4 0 .8-.2.9-.2 1 .7.5l1-.6.7-1.1c.5-.6.6-.7.5-.3-.2.6 0 .6.6.3.6-.4.6-.2-.3.7-.6.6-1.4 1.3-2 1.6-1.1.6-2.4 1-2.4.7z" style="fill:#9c361d;stroke-width:.352778" transform="translate(-44.5 -173.2)"/>
  <path d="M85.6 245c-1-.5-1.9-1.3-2-1.7l-.5-.7-1.2.8c-1 .7-1.6.8-3.1.8h-2l2-.3c2.3-.2 3-.7 3.2-2.1.1-1 0-1-.6-.7l-.8.3.6-2.1c.8-2.4.9-2.6 3.2-5 1.8-2 3-2.8 4.4-2.8 1 0 1.5.6.7.9-.2 0-.5 0-.6-.3-.4-1-3.8 3-3.8 4.5 0 .7.1.7 1-.3.6-.7.8-.8.6-.4-.5 1.4-.6 2.3-.4 3 .2.5.3.5 1-.3l.7-.9-.2 1-.4 2.5c-.2 1.3-.2 1.4.2.7 4-6.6 4.9-7.9 5.6-7.9.2 0 .4.6.4 1.4C93.6 239 90 246 88 246c-.4 0-1.5-.5-2.5-1zm-32.4-16.4c-2.4-1.1-2.8-1.7-2.5-3.6.2-1.7 1.2-4 1.2-2.9 0 1 1 .7 1.7-.5.4-.7.7-.9.8-.5.1.4.7 0 2.2-1.4a8 8 0 0 1 2.2-1.7 7 7 0 0 1-.9 2.3 21 21 0 0 0-1.7 5.5 11 11 0 0 1-.9 3.5l-2.1-.7zm25.2-1.9c0-.2.6-1 1.2-1.7l1.3-1.6s.4-.4 1-.6l3.2-1.9a11 11 0 0 1 2.6-1.3c.2 0 1 .3 1.6.7 1.3.6 1.3.7.2.4-2.2-.5-3.1-.3-5.5 1.3-1.2.8-3 2.3-4 3.3-.8 1-1.6 1.6-1.6 1.4zm25.4-1.8a11 11 0 0 1-2.4-1l-1.8-.9.2-3.2a11 11 0 0 1 2.8-7.5c.9-1 .9-1 .4 0a4 4 0 0 0-.6 1.5c0 .5.2.4.9-.4 1-1 1.1-.9.3.5-.6 1-.6 1.7-.2 2.5.3.4.5.4 1-.2.8-.6.8-.6.6 1.7v2.3c.2 0 1-1.3 1.7-2.9.8-1.6 1.9-3.4 2.4-4.1l1-1.2v1.6c0 2.9-2.2 8.9-4 10.8-.6.8-1.3 1-2.3.5zm4.4-5.3c.8-1.9.6-2.2-.3-.5-.5.9-1 1.7-1 2 0 .6.8-.2 1.3-1.5zm-42.8 2.6c0-.7 1.4-3.5 1.6-3.2.3.2-1 3.7-1.3 3.7-.2 0-.3-.2-.3-.5zm26-1.4c0-.6 1.7-2.4 2-2 0 .1-.3.7-.9 1.3l-1 .7zm2.2-3 .3-.6c.2 0 .4 0 .4.2s-.2.4-.4.6c-.2 0-.3 0-.3-.2zm-26.5-13c0-.3 1-2.5 1.2-2.5.1 0 .1.4 0 .8-.2.9-.2 1 .7.5l1-.6.7-1.1c.4-.5.6-.6.5-.3-.1.5 0 .6.4.4 1.3-.5-1.2 1.8-2.7 2.4-1.6.7-1.8.8-1.8.5z" style="fill:#3a4450;stroke-width:.352778" transform="translate(-44.5 -173.2)"/>
  <path d="M87.6 245.2c0-.5.3-1.9.7-3.1 1.4-4.4 3.2-6.4 4.5-5.2.4.5.4.8-.1 2.4-.7 2-1.1 2.2-.6.1.7-2.3.5-2-2.5 3.9-.1.3-.2.6 0 .6l1-.6c.6-.6.7-.6.2 0-1.9 2.6-3.2 3.4-3.2 1.9zm-2.7-.6c-.6-.4-1.2-1-1.4-1.4-.2-.7-.2-.7-1.5.2-1 .7-1.7.8-3.2.8h-2l2-.3c2.3-.2 3-.7 3.2-2.1.1-1 0-1-.6-.7l-.8.3.6-2.1 1.1-2.8c1.1-1.4 3.8-4 4.6-4.5 1.6-.8 1.8-.5.6.6a12 12 0 0 0-3.1 5.7c0 .7 0 .7.7-.1l.7-.8-.2 1a6 6 0 0 0 0 2.2l.3 1 .5-1c.7-1.3 1-1 .5.5-.2.6-.4 1.8-.4 2.7 0 .8-.1 1.5-.2 1.5l-1.4-.7zm8.3-8.5c0-.3-.1-.7-.3-.9-.6-.3-.5-.8.1-.8.4 0 .6.3.6 1.2 0 .7-.1 1.2-.2 1.2s-.2-.3-.2-.7zm-40.6-7.9c-1.5-.8-1.5-.9-1.6-2.5-.1-1.3 0-1.6.2-1.2.2.3.4.3.4.1 0-.2.5-.9 1-1.5.9-.8 1.1-1 1.1-.5 0 .4.6 0 1.6-1.2.9-1 2-2.2 2.6-2.6l1-.7-1.1 2.6a21 21 0 0 0-1.6 5.5c-.5 3.3-.8 3.5-3.6 2zm26.7-2.5c1-1.7 2-2.5 4.4-4l3-1.8c.6-.4 1-.3 2.3.3 1.2.5 1.3.7.5.5-2.2-.5-3.1-.3-5.5 1.3-1.2.8-3 2.3-3.8 3.2-1.1 1.1-1.4 1.3-.9.5zm24.5-.8a11 11 0 0 1-2.4-1l-1.8-.9.2-3.2c.2-3.3 1-5.3 2.6-7.3l.7-.9-.5 1.1c-.7 1.4-.7 2.3-.1 2 .3 0 .4.3.3 1.2 0 .7 0 1.6.3 1.9.3.4.4.4.9-.2.5-.7.5-.7.5 0l-.3 2c-.4 1.2-.1 3.5.5 5 .2.6 0 .7-.9.3zm1.4-1.4c0-2 1.4-6.2 1.8-5.9.3.2.4 0 .3-.2-.2-.6 1.4-2.5 1.9-2.2.1 0 0 .6-.5 1-.3.6-.7 1.2-.7 1.5 0 .3-.3 1-.7 1.7-.4.5-.7 1.4-.7 1.9 0 .8 0 .8-.3-.2-.2-1-.2-1-.5.5-.2 1.3-.1 1.7.3 2 .4.3.4.5 0 .8-.6.7-.9.5-.9-1zm-39.8-1.3c0-.7 1.3-3.5 1.6-3.3.2.2-1 3.8-1.4 3.8-.1 0-.2-.2-.2-.5zm26-1.4c0-.6 1.7-2.4 2-2 0 .1-.3.7-.9 1.3l-1 .7zm2.2-3 .3-.6c.2 0 .4 0 .4.2s-.2.4-.4.6c-.2 0-.3 0-.3-.2zm-23.7-14.5.5-.7v.7c-.1.4-.3.7-.5.7s-.2-.3 0-.7z" style="fill:#333a45;stroke-width:.352778" transform="translate(-44.5 -173.2)"/>
  <path d="M88.4 245.3v-.6l.4.4c.2.6 0 .7-.4.2zm-4-1.2c-1-.7-1-1.4-.3-2.9l.6-1.4v1.5c0 .8.2 1.9.4 2.4.4 1 .1 1.1-.8.4zm-5.6-.2c2.3-.2 3-.7 3.2-2.1.1-1 0-1-.6-.7l-.8.3.6-2.1 1.1-2.8c1.1-1.4 3.8-4 4.6-4.5 1.4-.7 2-.6 1 .1l-1.5 1.4a24 24 0 0 0-3 7.4c-.2 2.2-1.8 3.4-4.6 3.3h-2zm10.7-2.3c.3-1.5 1.7-4.6 2.3-5 .7-.4.8.2.2.9-.3.3-.5 1-.5 1.4 0 .4-.2.8-.4 1-.2 0-.7.8-1.1 1.6l-.7 1.5zM53 228.3c-.7-.3-1.3-.8-1.4-1l.6-2c.8-1.6.9-1.6.9-.7 0 1 .1 1 1.3-1s3.5-4.8 4-4.8c.2 0-.1 1-.7 2.2-.6 1.3-1.2 3.5-1.4 5.2-.5 3.2-.8 3.4-3.3 2.1zm27-3.2c.7-1.1 2-2.2 3.6-3.2l3.2-2c.6-.4 1-.3 2.3.3 1.2.5 1.3.7.5.5-2.2-.5-3.1-.3-5.5 1.3-1.2.8-3 2.3-3.8 3.2l-1.5 1.6zm22.5-.9c-.3 0-1-.4-1.7-.7l-1.1-.5.2-3.2c.2-3.2 1.2-6.1 2.3-6.8.3-.2.3-.1.1.2l-.5 1.6c-.2 1-.2 1.2.2 1.2s.5.3.4 1c-.1.5 0 1.3.2 1.9.3.9.4 1 .9.6s.5-.4.3.4l-.2 2.7c0 1.9-.1 2-1.1 1.6zm-37-2c0-.7 1.3-3.5 1.6-3.3.2.2-1 3.8-1.4 3.8-.1 0-.2-.2-.2-.5zm26-1.4c0-.6 1.7-2.4 2-2 0 .1-.3.7-.9 1.3l-1 .7zm16-2.9c0-.4 0-.5.2-.2v.7c-.2.1-.3-.1-.2-.5zm-13.8 0c0-.3.1-.5.3-.7.2 0 .4 0 .4.2s-.2.4-.4.6c-.2 0-.3 0-.3-.2zm14.7-2c0-.4.3-.6.5-.6s.2.2 0 .5l-.6.6v-.6z" style="fill:#652213;stroke-width:.352778" transform="translate(-44.5 -173.2)"/>
  <path d="M88.4 245.3v-.6l.4.4c.2.6 0 .7-.4.2zm-4-1.2c-1-.7-1-1.4-.3-2.9l.6-1.4v1.5c0 .8.2 1.9.4 2.4.4 1 .1 1.1-.8.4zm5.1-2.5c.3-1.5 1.7-4.6 2.3-5 .7-.4.8.2.2.9-.3.3-.5 1-.5 1.4 0 .4-.2.8-.4 1-.2 0-.7.8-1.1 1.6l-.7 1.5zm-6-3.2a10 10 0 0 1 2.5-4.7l1-1-.7 1-1.6 3c-.9 2.4-1.5 3.3-1.2 1.7zm-30.6-10-1.4-1c-.1-.2.2-1 .6-2 .8-1.7.9-1.7.9-.8 0 1 .1 1 1.3-1 1.1-2 3.5-4.8 4-4.8.1 0-.2 1-.8 2-.6 1.3-1.2 3.3-1.4 5-.5 3.5-.9 3.8-3.2 2.6zm48.9-4.4c-1.8-.7-2-1-2-3.7.2-2.6.6-4.4 1.4-5.5.5-.7.6-.7.4.2-.1.7 0 1 .4 1 .3 0 .4.3.3 1-.1.5 0 1.3.2 1.9.3.9.4 1 .9.6s.5-.4.3.4l-.2 2.7c0 2 0 2-1.7 1.4zm5.6-6c0-.5 0-.6.2-.3v.7c-.2.1-.3-.1-.2-.5zm.9-2.2c0-.3.3-.5.5-.5s.2.2 0 .5l-.6.6v-.6z" style="fill:#232228;stroke-width:.352778" transform="translate(-44.5 -173.2)"/>
</svg>