<?xml version="1.0" encoding="UTF-8" standalone="no"?>
<!-- Created with Inkscape (http://www.inkscape.org/) -->

<svg
   width="73.377777mm"
   height="73.377777mm"
   viewBox="0 0 73.377777 73.377777"
   version="1.1"
   id="svg5"
   sodipodi:docname="nails.svg"
   inkscape:version="1.1.1 (3bf5ae0d25, 2021-09-20)"
   xmlns:inkscape="http://www.inkscape.org/namespaces/inkscape"
   xmlns:sodipodi="http://sodipodi.sourceforge.net/DTD/sodipodi-0.dtd"
   xmlns="http://www.w3.org/2000/svg"
   xmlns:svg="http://www.w3.org/2000/svg">
  <sodipodi:namedview
     id="namedview7"
     pagecolor="#ffffff"
     bordercolor="#666666"
     borderopacity="1.0"
     inkscape:pageshadow="2"
     inkscape:pageopacity="0.0"
     inkscape:pagecheckerboard="0"
     inkscape:document-units="mm"
     showgrid="false"
     inkscape:zoom="2.8882212"
     inkscape:cx="140.91719"
     inkscape:cy="127.24095"
     inkscape:window-width="1920"
     inkscape:window-height="1009"
     inkscape:window-x="-8"
     inkscape:window-y="-8"
     inkscape:window-maximized="1"
     inkscape:current-layer="layer1" />
  <defs
     id="defs2" />
  <g
     inkscape:label="Layer 1"
     inkscape:groupmode="layer"
     id="layer1"
     transform="translate(608.71344,313.02023)">
    <g
       id="g5395">
      <path
         style="fill:#fcfcfc;stroke-width:0.352778"
         d="m -608.71344,-276.33134 v -36.68889 h 36.68889 36.68889 v 36.68889 36.68889 h -36.68889 -36.68889 z"
         id="path5415" />
      <path
         style="fill:#b4cad6;stroke-width:0.352778"
         d="m -570.88122,-244.74643 c -5.4691,-2.54621 -10.70154,-8.20519 -14.03652,-15.18075 -1.89728,-3.96842 -2.66823,-6.92845 -2.66823,-10.24455 0,-4.09245 1.16964,-5.74969 5.52323,-7.82578 1.08401,-0.51692 1.49858,-0.53386 3.40895,-0.13928 2.65026,0.5474 5.13888,1.76975 6.96866,3.42285 l 1.37242,1.2399 10.87394,-7.01778 c 5.98067,-3.85977 11.24899,-7.21656 11.70739,-7.45953 1.12764,-0.59768 9.71416,-0.35016 11.0728,0.31919 0.89461,0.44075 0.97014,0.6399 0.97014,2.55817 0,3.42811 -0.59878,5.18211 -2.42706,7.10955 -0.89644,0.94507 -6.31301,5.215 -12.03683,9.48876 -5.72382,4.27375 -10.52908,7.87715 -10.67836,8.00756 -0.14928,0.13041 -0.0299,0.92148 0.26516,1.75793 0.82286,2.33225 1.28596,5.85907 1.02633,7.81626 -0.28812,2.17191 -1.17326,3.52707 -3.59093,5.49773 -1.71589,1.39863 -2.02671,1.52014 -3.88055,1.51697 -1.39225,-0.002 -2.58882,-0.27047 -3.87054,-0.8672 z m 1.67889,-25.09595 c 0,-0.75015 -2.04711,-3.31396 -2.64608,-3.31396 -0.25857,0 -0.53671,-0.11906 -0.61809,-0.26458 -0.0814,-0.14553 -0.0996,-0.0661 -0.0405,0.17638 0.0591,0.24254 -0.08,0.44098 -0.30914,0.44098 -0.22915,0 0.36517,0.79375 1.32073,1.76389 1.84568,1.87386 2.29305,2.10745 2.29305,1.19729 z m -9.62054,-3.87988 c -0.11723,-0.11722 -0.4215,-0.12975 -0.67616,-0.0278 -0.28142,0.11261 -0.19783,0.19621 0.21314,0.21313 0.37188,0.0153 0.58024,-0.068 0.46302,-0.18528 z m -1.76389,-0.35277 c -0.11723,-0.11723 -0.4215,-0.12976 -0.67616,-0.0278 -0.28142,0.11261 -0.19783,0.19621 0.21314,0.21314 0.37188,0.0153 0.58024,-0.0681 0.46302,-0.18529 z m 2.74138,-2.96187 c 0,-0.64292 -1.76199,-0.88261 -3.01095,-0.4096 -0.86041,0.32586 -0.85655,0.33324 0.36511,0.6968 1.61824,0.48159 2.64584,0.37005 2.64584,-0.2872 z m -24.69445,5.37749 c -2.71639,-0.29186 -5.01367,-0.59795 -5.10506,-0.6802 -0.0914,-0.0822 -0.003,-0.25997 0.19603,-0.39494 0.1992,-0.13497 1.84827,-2.30915 3.66458,-4.83151 1.81631,-2.52236 3.47435,-4.70275 3.68453,-4.8453 0.24087,-0.16336 0.17906,-0.26117 -0.16718,-0.26458 -0.30212,-0.003 -1.3049,1.02365 -2.22839,2.28138 -2.14275,2.91827 -2.49045,3.11407 -1.56179,0.87948 0.45769,-1.10132 1.57788,-2.63552 2.89575,-3.96597 1.94084,-1.95937 3.21005,-2.72362 13.08542,-7.8794 l 10.93611,-5.70958 -0.12204,-2.30032 c -0.13884,-2.6167 0.59719,-5.62923 1.72591,-7.06418 0.83998,-1.06786 4.68456,-3.05792 5.90758,-3.05792 1.48843,0 4.04696,0.78275 3.55412,1.08734 -0.32768,0.20252 -0.17676,0.39031 0.52946,0.65882 0.54328,0.20655 1.15775,0.27051 1.36547,0.14213 0.24073,-0.14878 0.27297,-0.064 0.0889,0.23382 -0.20853,0.33741 -0.1288,0.40585 0.28698,0.2463 0.31665,-0.12151 0.68472,-0.0446 0.81793,0.17095 0.14666,0.23729 0.0815,0.29258 -0.16509,0.14016 -0.23755,-0.14681 -0.40728,-0.0349 -0.40728,0.26863 0,0.65958 2.69225,2.81826 3.15679,2.53115 0.94958,-0.58687 4.27593,5.60821 5.17071,9.63006 1.32769,5.96775 -0.39235,10.05091 -5.11858,12.15084 -2.51321,1.11665 -5.6091,0.33245 -8.8958,-2.25333 l -1.27716,-1.00478 -10.36451,6.09349 c -14.69354,8.63861 -14.17867,8.36289 -15.52273,8.31265 -0.65548,-0.0245 -3.41428,-0.28334 -6.13067,-0.57519 z m 8.95894,-8.62142 c -0.38159,-0.71301 -1.72699,-1.52712 -1.72699,-1.04501 0,0.1771 0.23954,0.5208 0.53232,0.76379 0.29278,0.24298 0.64016,1.09586 0.77196,1.89527 l 0.23963,1.45349 0.25757,-1.22354 c 0.14167,-0.67295 0.10815,-1.50274 -0.0745,-1.844 z m -3.66727,-5.33177 c 0.19403,-0.17839 -0.12385,-0.0843 -0.70639,0.209 -0.58254,0.29335 -1.37629,0.89644 -1.76389,1.34021 -0.58067,0.66483 -0.45633,0.62804 0.70639,-0.209 0.77611,-0.55872 1.56986,-1.16182 1.76389,-1.34021 z m 32.50437,-18.05902 c 0.11168,-0.29104 0.61062,-0.52917 1.10875,-0.52917 h 0.9057 l -0.85525,-0.91546 c -1.03807,-1.11116 -2.69072,-2.01317 -3.15866,-1.72397 -0.18833,0.1164 -0.32988,0.48007 -0.31456,0.80817 0.0171,0.3673 0.0962,0.42708 0.20579,0.15557 0.32809,-0.81309 0.87065,-0.45153 0.79406,0.52917 -0.12969,1.66052 0.0113,2.20486 0.57087,2.20486 0.29713,0 0.63161,-0.23813 0.7433,-0.52917 z m -3.40021,-2.68747 c 0,-0.38806 -0.15875,-0.60744 -0.35277,-0.48753 -0.19403,0.11992 -0.35278,-0.0295 -0.35278,-0.33196 0,-0.57662 -0.93559,-0.72934 -1.65733,-0.27053 -0.28937,0.18395 -0.095,0.48812 0.61634,0.96474 0.57143,0.38285 1.03942,0.82452 1.03997,0.98149 7.1e-4,0.15697 0.15977,0.18729 0.3538,0.0674 0.19402,-0.11991 0.35277,-0.53553 0.35277,-0.92358 z"
         id="path5413" />
      <path
         style="fill:#9fb4c7;stroke-width:0.352778"
         d="m -570.11049,-244.51767 c -7.90876,-2.73409 -16.74515,-15.26877 -17.3448,-24.60411 -0.15183,-2.36365 -0.061,-3.1197 0.537,-4.47166 0.8215,-1.85713 3.32271,-3.91629 5.49254,-4.52182 1.66418,-0.46442 2.18549,-0.1334 0.63896,0.40573 -0.61355,0.21388 -1.11554,0.496 -1.11554,0.62693 0,0.13092 0.91281,0.44985 2.02847,0.70871 1.11566,0.25887 2.47979,0.70355 3.0314,0.98818 1.34756,0.69534 1.49924,0.41802 0.38229,-0.69893 -1.12744,-1.12744 -0.88194,-1.78066 0.47936,-1.27545 1.19598,0.44385 4.30743,2.52436 4.30836,2.88083 3.5e-4,0.14552 -0.24788,0.26459 -0.55168,0.26459 -0.3038,0 -0.86153,0.16546 -1.23941,0.36769 -0.63083,0.33761 -0.49799,0.55675 1.62381,2.67854 2.57565,2.57565 3.45118,2.75492 3.23654,0.66268 -0.0702,-0.68419 -0.47726,-1.61617 -0.90461,-2.07106 l -0.777,-0.82708 10.8436,-6.97978 c 5.96398,-3.83888 11.36181,-7.1963 11.99518,-7.46094 1.8662,-0.77975 10.22495,-0.39102 11.13375,0.51778 0.22159,0.22159 0.25726,1.6682 0.0965,3.91414 l -0.25499,3.56264 -1.5396,1.7124 c -0.84677,0.94182 -6.39761,5.33088 -12.33518,9.75347 -9.30426,6.93024 -10.76638,8.14289 -10.58411,8.77821 1.48215,5.1662 1.66889,8.60598 0.59543,10.96769 -0.60356,1.32789 -2.80164,3.44407 -4.5234,4.35488 -1.09368,0.57856 -3.16948,0.48598 -5.25288,-0.23426 z m -1.75531,-1.75883 c -0.99786,-0.84573 -2.97229,-2.1854 -3.22089,-2.1854 -0.15785,0 0.4945,0.55563 1.44967,1.23472 1.55401,1.10487 2.64239,1.68903 1.77122,0.95068 z m 6.8968,-0.0687 c -0.29104,-0.18809 -0.68791,-0.34197 -0.88194,-0.34197 -0.19403,0 -0.11465,0.15388 0.17639,0.34197 0.29104,0.18809 0.68792,0.34197 0.88194,0.34197 0.19403,0 0.11466,-0.15388 -0.17639,-0.34197 z m -14.30637,-6.17361 c -0.71546,-0.87313 -1.3857,-1.5875 -1.48941,-1.5875 -0.17918,0 0.27983,0.5989 1.82506,2.38125 1.25189,1.44399 0.98944,0.82335 -0.33565,-0.79375 z m 15.01193,-1.04199 c 0,-0.22242 -6.81682,-2.31295 -6.98703,-2.14274 -0.0759,0.0759 1.34606,0.61 3.15992,1.18688 3.5576,1.13145 3.82711,1.19876 3.82711,0.95586 z m -16.8116,-1.44267 c -0.11489,-0.29941 -0.28456,-0.46872 -0.37703,-0.37625 -0.0925,0.0925 -0.0635,0.33745 0.0644,0.54438 0.34786,0.56285 0.55117,0.4535 0.31263,-0.16813 z m 3.08155,-3.00806 c -1.0516,-0.37326 -1.97434,-0.61632 -2.05052,-0.54013 -0.17931,0.1793 2.74042,1.21401 3.43335,1.21672 0.29104,0.001 -0.33123,-0.30332 -1.38283,-0.67659 z m -4.43801,-1.38645 c -0.11991,-0.19403 -0.40709,-0.35035 -0.63818,-0.34738 -0.25245,0.003 -0.20894,0.1419 0.10902,0.34738 0.67773,0.43799 0.79985,0.43799 0.52916,0 z m -1.23472,-0.48597 c 0,-0.0733 -0.27781,-0.35107 -0.61736,-0.61736 -0.55952,-0.43881 -0.572,-0.42633 -0.13319,0.13319 0.46086,0.58764 0.75055,0.77452 0.75055,0.48417 z m 16.75695,-2.68903 c -0.11992,-0.19403 -0.37678,-0.35278 -0.57081,-0.35278 -0.19403,0 -0.25467,0.15875 -0.13475,0.35278 0.11992,0.19403 0.37678,0.35278 0.57081,0.35278 0.19402,0 0.25466,-0.15875 0.13475,-0.35278 z m 2.29305,-0.52916 c 0,-0.097 -0.33073,-0.50712 -0.73495,-0.91135 -0.92162,-0.92162 -1.37139,-0.58095 -0.50173,0.38002 0.59758,0.66031 1.23668,0.9349 1.23668,0.53133 z m -4.98776,-0.34286 c -0.28527,-0.28527 -7.06147,-2.01301 -7.23082,-1.84366 -0.0882,0.0882 1.15645,0.50661 2.76591,0.92978 1.60946,0.42317 3.08503,0.82683 3.27906,0.89702 0.53538,0.19368 1.3746,0.20561 1.18585,0.0169 z m -9.56192,-2.50637 c -0.28298,-0.28297 -5.32403,-1.55993 -5.49262,-1.39134 -0.0755,0.0755 0.55346,0.31498 1.39766,0.53221 0.84421,0.21724 1.93179,0.53264 2.41686,0.7009 1.03821,0.36012 1.96763,0.44776 1.6781,0.15823 z m 3.17513,-6.879 c -1.10497,-0.6437 -3.94451,-1.37732 -5.206,-1.34504 -1.0246,0.0262 -0.87451,0.11138 0.88194,0.50034 1.16417,0.25779 2.51354,0.62867 2.99861,0.82415 1.21711,0.49052 2.15722,0.50509 1.32545,0.0205 z m 33.15858,-12.99521 c 0.63059,-0.24889 1.14653,-0.60512 1.14653,-0.79162 0,-0.1865 0.19843,-0.22489 0.44097,-0.0853 0.25693,0.14786 0.31725,0.11974 0.14451,-0.0674 -0.52302,-0.56657 -1.79679,-0.34409 -2.61396,0.45657 -0.76833,0.75282 -1.06943,1.36781 -0.52916,1.08081 0.14552,-0.0773 0.78052,-0.34418 1.41111,-0.59307 z m -2.38125,-0.73629 c 1.10493,-0.9583 0.0423,-0.96956 -1.10745,-0.0117 -0.63379,0.528 -0.69819,0.69662 -0.26945,0.70555 0.30986,0.006 0.92947,-0.30576 1.3769,-0.69382 z m -56.50965,14.85206 c -2.84926,-0.31755 -5.26654,-0.66343 -5.37173,-0.76862 -0.10519,-0.10519 0.58584,-0.95665 1.53561,-1.89214 0.94977,-0.93549 1.65539,-1.88712 1.56805,-2.11473 -0.0873,-0.2276 0.68753,-1.59576 1.72192,-3.04034 2.0077,-2.80383 2.58823,-3.10618 5.07007,-2.64059 1.57077,0.29468 3.07929,2.2517 3.0168,3.91375 -0.0593,1.57625 0.53904,1.57469 0.83486,-0.002 0.12566,-0.66979 0.56941,-1.44523 0.98613,-1.72321 1.30033,-0.86742 2.46665,-1.99399 2.26898,-2.19166 -0.10411,-0.10412 -1.01687,0.12515 -2.02835,0.50948 -1.46736,0.55756 -2.01266,0.61968 -2.6981,0.30737 -0.85144,-0.38794 -0.84412,-0.40054 0.82526,-1.42128 0.92637,-0.56642 1.39612,-0.93705 1.04389,-0.82361 -0.52819,0.17011 -0.59736,0.0706 -0.3947,-0.56797 0.23535,-0.74153 0.21026,-0.75129 -0.59429,-0.23115 -1.66755,1.07807 -3.96681,1.71181 -5.21279,1.43678 l -1.19777,-0.26437 3.93179,-2.42404 c 2.16249,-1.33323 3.9318,-2.48904 3.9318,-2.56846 0,-0.0794 -1.54149,0.65041 -3.42553,1.62186 -1.88404,0.97145 -3.48447,1.70732 -3.55652,1.63527 -0.16192,-0.16191 4.05387,-2.45204 14.45693,-7.85339 l 8.00404,-4.15576 -0.0437,-3.03242 c -0.0659,-4.57795 1.1057,-6.97543 3.77396,-7.72249 0.87552,-0.24514 1.51307,-0.57319 1.41676,-0.72902 -0.27201,-0.44012 0.89997,-0.65949 2.80097,-0.52428 1.10371,0.0785 1.84312,0.32327 2.04016,0.67536 0.16997,0.30372 0.93878,0.72179 1.70847,0.92905 0.76968,0.20725 1.39943,0.57612 1.39943,0.8197 0,0.69941 2.68279,3.05771 3.47842,3.05771 1.55994,0 4.33112,5.23617 5.19487,9.81575 0.92602,4.90975 -0.25405,8.48812 -3.47339,10.53253 -3.31406,2.10456 -6.80745,1.56154 -10.89194,-1.69307 l -0.92953,-0.74067 -8.0663,4.75442 c -14.10835,8.31571 -16.7294,9.78768 -17.34375,9.7402 -0.33018,-0.0255 -2.93154,-0.30621 -5.78081,-0.62377 z m 7.26356,-2.52854 c 0.28895,-0.3054 0.18914,-0.34883 -0.39587,-0.17221 -0.43023,0.12988 -1.77961,0.37886 -2.99861,0.55327 l -2.21637,0.31712 2.61224,-0.1449 c 1.43674,-0.0797 2.78611,-0.32867 2.99861,-0.55328 z m 37.07526,-15.8219 c 0,-1.2375 -0.29892,-1.61843 -0.79105,-1.00806 -0.22021,0.27312 -0.2444,0.76096 -0.0616,1.24325 0.42018,1.10882 0.85269,0.98953 0.85269,-0.23519 z m -8.89596,-10.86745 c 0.20138,-0.44199 0.58438,-0.80361 0.85111,-0.80361 0.77062,0 2.22401,-1.08861 2.22401,-1.66582 0,-0.32292 0.20452,-0.44786 0.52917,-0.32327 1.50188,0.57632 -0.33886,-1.43506 -2.81592,-3.07696 -1.1453,-0.75916 -1.81533,-0.93117 -3.62704,-0.93117 -2.69314,0 -2.82634,0.21381 -1.99002,3.19442 0.43563,1.55258 0.81393,2.24657 1.29288,2.37182 0.4952,0.1295 0.63367,0.40405 0.51551,1.02215 -0.15384,0.80482 -0.13013,0.81667 0.49749,0.24868 0.62359,-0.56434 0.65904,-0.55671 0.65904,0.14188 0,1.01804 1.3788,0.88627 1.86377,-0.17812 z m -37.48907,20.80403 c 0.003,-0.14552 0.56977,-0.89959 1.25975,-1.6757 l 1.25451,-1.41111 -1.10032,1.6757 c -1.05776,1.6109 -1.42518,1.97758 -1.41394,1.41111 z"
         id="path5411" />
      <path
         style="fill:#919ba3;stroke-width:0.352778"
         d="m -569.20233,-244.18778 c -10.1329,-3.31532 -20.41701,-19.89472 -17.83977,-28.76014 0.49198,-1.69234 0.67368,-1.95909 1.09582,-1.60875 0.43425,0.3604 0.40667,0.54631 -0.19445,1.31051 -0.52952,0.67318 -0.68783,1.37399 -0.64862,2.87142 l 0.0519,1.9809 0.24172,-1.94028 c 0.30906,-2.48085 0.62743,-3.175 1.45618,-3.175 0.80986,0 0.81745,0.0985 0.11264,1.46141 -0.30535,0.59048 -0.48547,1.14331 -0.40027,1.22852 0.0852,0.0852 0.35681,-0.33249 0.60357,-0.92821 0.24675,-0.59572 0.74437,-1.2414 1.10582,-1.43484 0.83592,-0.44737 0.82503,-0.29894 -0.0921,1.25552 -0.41211,0.69847 -0.65024,1.369 -0.52917,1.49007 0.12107,0.12107 0.22072,0.0746 0.22144,-0.10326 7.4e-4,-0.17786 0.30774,-0.8259 0.68224,-1.44009 l 0.68092,-1.11672 3.0775,0.67252 c 1.69263,0.36989 3.14294,0.73796 3.22293,0.81795 0.08,0.08 -0.18315,0.78948 -0.58474,1.57667 -0.40159,0.78718 -0.72277,1.55663 -0.71374,1.70988 0.009,0.15325 0.40634,-0.47028 0.88289,-1.38562 0.47656,-0.91534 1.06448,-1.60327 1.30649,-1.52872 0.24202,0.0745 1.14547,0.23495 2.00767,0.35644 l 1.56765,0.2209 -0.67414,-0.80885 c -0.37077,-0.44487 0.21797,0.0435 1.30832,1.08535 1.09034,1.04181 2.14107,1.79617 2.33494,1.67634 0.19388,-0.11982 0.51022,-0.67028 0.70298,-1.22325 0.30542,-0.8761 0.21915,-1.14591 -0.67081,-2.09818 -0.56172,-0.60103 -1.01367,-1.22046 -1.00434,-1.3765 0.009,-0.15604 2.11277,-1.62391 4.67431,-3.26192 2.56153,-1.63802 7.59421,-4.86354 11.18372,-7.16783 l 6.52639,-4.18963 2.02848,0.13479 c 1.11566,0.0741 2.02836,0.0453 2.02823,-0.0641 -1.9e-4,-0.15184 6.54411,0.12516 6.9676,0.29492 0.0485,0.0194 0.0882,1.72556 0.0882,3.79138 v 3.75603 l -1.28722,1.57088 c -0.71466,0.87215 -6.2067,5.25566 -12.34722,9.85501 -6.083,4.55627 -11.06,8.32501 -11.06,8.37499 0,0.05 0.3175,1.33228 0.70556,2.84956 0.88908,3.47628 0.90784,6.92894 0.0479,8.82177 -0.96452,2.12312 -4.1891,4.48185 -6.32291,4.62512 -0.91439,0.0614 -2.05941,-0.0182 -2.54448,-0.17694 z m -2.44785,-2.16944 c -1.05529,-0.58165 -2.2072,-1.31864 -2.55981,-1.63774 -0.35261,-0.31912 -0.7275,-0.49382 -0.83309,-0.38823 -0.27645,0.27646 4.04606,3.09752 4.73442,3.0899 0.31744,-0.004 -0.28625,-0.48228 -1.34152,-1.06393 z m 6.68118,0.012 c -0.29104,-0.18809 -0.68791,-0.34197 -0.88194,-0.34197 -0.19403,0 -0.11465,0.15388 0.17639,0.34197 0.29104,0.18809 0.68792,0.34197 0.88194,0.34197 0.19403,0 0.11466,-0.15388 -0.17639,-0.34197 z m -3.55862,-1.20677 c -0.27978,-0.27978 -6.0885,-2.31648 -6.22302,-2.18196 -0.0739,0.0739 1.18391,0.62009 2.79516,1.21372 2.77933,1.024 3.76087,1.30125 3.42786,0.96824 z m -11.16147,-5.64806 c -0.92624,-1.2478 -1.82198,-2.27967 -1.99053,-2.29306 -0.33935,-0.0269 1.15383,2.08098 2.54419,3.59164 1.43199,1.5559 1.25221,1.13423 -0.55366,-1.29858 z m 15.23162,-0.50265 c -0.37529,-0.3381 -6.1853,-2.16752 -6.88377,-2.16752 -0.88666,0 -0.0502,0.35975 3.22141,1.3855 3.6072,1.13097 4.18716,1.2548 3.66236,0.78202 z m -9.17222,-2.84071 c -0.39337,-0.37608 -6.22801,-2.19459 -6.42125,-2.00134 -0.13032,0.13031 5.77606,2.24028 6.42125,2.2939 0.21167,0.0176 0.21167,-0.0902 0,-0.29256 z m -9.26337,-3.06917 c -0.85481,-0.37339 -1.39668,-1.00287 -2.02502,-2.35247 -0.47185,-1.01347 -0.872,-2.0808 -0.88921,-2.37184 -0.0172,-0.29104 -0.10408,-0.35257 -0.19305,-0.13674 -0.089,0.21583 0.17863,1.30218 0.59466,2.4141 0.59439,1.58865 0.99393,2.12504 1.8653,2.50419 0.60988,0.26538 1.26763,0.47577 1.46166,0.46753 0.19403,-0.008 -0.17242,-0.24438 -0.81434,-0.52477 z m 19.68795,-1.14895 c 0,-0.36189 -0.3175,-1.06162 -0.70555,-1.55495 -0.38806,-0.49333 -0.71084,-1.03068 -0.7173,-1.19411 -0.0145,-0.36659 -1.25824,-1.88463 -1.54411,-1.88463 -0.55464,0 -0.0792,1.37836 1.11488,3.23189 1.38419,2.14873 1.85208,2.50286 1.85208,1.4018 z m -3.32507,-1.76888 c -0.10544,-0.17061 -0.52076,-0.39625 -0.92293,-0.50142 -0.60037,-0.157 -0.65675,-0.1015 -0.31508,0.3102 0.44606,0.53746 1.55816,0.70923 1.23801,0.19122 z m -2.31551,-1.89467 c 0.38448,-0.63059 0.69965,-1.41694 0.70037,-1.74744 7.1e-4,-0.3305 -0.88426,-1.52113 -1.96665,-2.64583 l -1.96798,-2.04493 1.79159,2.22318 c 0.98537,1.22275 1.79159,2.38157 1.79159,2.57516 0,0.34073 -0.99565,2.43573 -1.15559,2.43153 -0.0435,-10e-4 -1.81185,-0.47179 -3.92961,-1.04589 -2.11776,-0.5741 -3.67361,-0.86695 -3.45744,-0.65078 0.4021,0.4021 5.74906,1.97789 6.87213,2.02527 0.3424,0.0144 0.93712,-0.48968 1.32159,-1.12027 z m -11.71915,-2.04498 c -2.32048,-0.75081 -4.79198,-1.24662 -4.46698,-0.89613 0.33716,0.3636 4.5971,1.53757 5.59894,1.54298 0.523,0.003 0.0623,-0.26043 -1.13196,-0.64685 z m 5.60138,-4.09833 c -0.16205,-0.16204 -2.0157,3.64175 -1.98301,4.06927 0.009,0.12208 0.49616,-0.70674 1.08183,-1.84181 0.58568,-1.13507 0.99121,-2.13743 0.90118,-2.22746 z m 29.55912,-15.48726 c 0.61199,-0.40099 0.89645,-0.45208 0.89645,-0.16101 0,0.23451 -0.3175,0.50941 -0.70555,0.61089 -0.38806,0.10148 -0.70556,0.40412 -0.70556,0.67253 0,0.26841 -0.16812,0.48802 -0.37359,0.48802 -0.20548,0 -0.26502,0.1757 -0.1323,0.39044 0.17317,0.2802 0.3147,0.27169 0.50124,-0.0301 0.14296,-0.23131 0.3633,-0.40122 0.48964,-0.37756 0.45418,0.085 3.74835,-1.2127 3.74835,-1.47667 0,-0.14848 0.23812,-0.26997 0.52916,-0.26997 0.84195,0 0.61336,-0.69101 -0.34971,-1.05717 -0.96007,-0.36502 -1.94334,-0.14035 -1.94334,0.44403 0,0.20335 -0.30408,0.0945 -0.67573,-0.24181 -0.64135,-0.58041 -0.72658,-0.57958 -1.67569,0.0165 -1.69596,1.06511 -3.6458,2.64648 -3.6458,2.95682 0,0.29237 2.31404,-0.83243 4.04243,-1.96491 z m -55.96597,14.34582 c -2.84926,-0.31755 -5.29912,-0.69601 -5.44413,-0.84102 -0.14501,-0.14501 0.65071,-1.07863 1.76828,-2.0747 1.52883,-1.36263 1.98628,-1.9856 1.84755,-2.51611 -0.12311,-0.47076 0.34704,-1.44981 1.41469,-2.94599 1.40444,-1.96814 1.73919,-2.2409 2.75019,-2.2409 1.81425,0 3.13101,0.62013 3.99043,1.87931 0.75595,1.10758 1.12769,3.3076 0.49256,2.91507 -0.16566,-0.10238 -0.47776,0.20137 -0.69356,0.675 -0.22538,0.49465 -0.81036,0.95385 -1.3745,1.07895 -0.54018,0.1198 -1.53777,0.40199 -2.21686,0.6271 -1.2005,0.39795 -1.1614,0.41418 1.41111,0.58568 l 2.64583,0.17639 -4.66915,0.48447 c -2.56803,0.26646 -5.1874,0.62073 -5.82083,0.78725 -0.82228,0.21619 -0.54628,0.2437 0.96498,0.0962 1.16417,-0.11363 3.83465,-0.31824 5.9344,-0.4547 2.70605,-0.17587 3.90792,-0.39405 4.12747,-0.74929 0.17036,-0.27565 0.49499,-1.53775 0.72141,-2.80467 0.39233,-2.1954 0.4925,-2.35924 2.13433,-3.49116 0.94747,-0.65322 1.72267,-1.3267 1.72267,-1.49663 0,-0.16993 0.23812,-0.30896 0.52917,-0.30896 0.29104,0 0.52916,-0.14204 0.52916,-0.31563 0,-0.36711 -1.55917,-0.0116 -3.95782,0.90252 -1.20813,0.46039 -1.77093,0.52824 -2.05182,0.24735 -0.40107,-0.40107 1.48407,-1.71019 4.35861,-3.02682 0.74116,-0.33947 1.24773,-0.77877 1.1257,-0.97622 -0.12202,-0.19744 0.0163,-0.35898 0.3073,-0.35898 0.29105,0 0.64244,-0.18328 0.78089,-0.40729 0.16748,-0.27099 0.0954,-0.31065 -0.21552,-0.11851 -0.34247,0.21165 -0.40495,0.12644 -0.23397,-0.31912 0.20983,-0.54682 0.10068,-0.53757 -1.08658,0.0921 -4.49741,2.38518 -7.68227,3.60459 -9.15003,3.50335 l -1.51763,-0.10469 4.91763,-2.99007 c 2.7047,-1.64454 4.86407,-3.04364 4.79861,-3.1091 -0.0655,-0.0655 -1.44514,0.54446 -3.06595,1.35539 -6.19077,3.09738 -2.01177,0.70989 7.15826,-4.08956 l 9.57674,-5.01232 -0.0741,-3.0813 c -0.0647,-2.69039 0.0421,-3.3189 0.84224,-4.95423 0.799,-1.63309 1.12388,-1.94365 2.53699,-2.42514 0.89135,-0.30372 1.79891,-0.7958 2.0168,-1.09352 0.32193,-0.43987 0.71592,-0.48153 2.10261,-0.22233 2.12199,0.39664 3.22672,1.30182 1.21824,0.99818 -0.71975,-0.10881 -1.831,-0.0536 -2.46944,0.12263 l -1.1608,0.32047 0.10763,3.09462 c 0.12753,3.66636 0.24421,4.12009 0.98632,3.83532 0.36766,-0.14108 0.61991,0.0191 0.73735,0.46816 0.19312,0.7385 1.21338,1.33699 1.07488,0.63052 -0.0462,-0.23555 0.15416,-0.42827 0.44521,-0.42827 0.29104,0 0.54901,0.19843 0.57326,0.44097 0.0242,0.24253 0.0639,0.52035 0.0882,0.61736 0.0476,0.19036 0.92809,-0.51951 2.44325,-1.9698 0.52373,-0.50131 1.31706,-1.10629 1.76295,-1.3444 0.6172,-0.32961 0.75336,-0.61726 0.57047,-1.2052 -0.23785,-0.76462 -0.23277,-0.76561 0.51221,-0.10023 0.41384,0.36962 0.75244,0.50241 0.75244,0.29509 0,-0.64874 1.66268,0.0349 2.36669,0.97315 0.36398,0.48507 1.26974,2.26841 2.0128,3.96298 0.78599,1.79246 1.50381,2.9866 1.71634,2.85525 0.22844,-0.14119 0.29082,0.0591 0.16647,0.53459 -0.10936,0.4182 -0.055,0.84927 0.12082,0.95793 0.17582,0.10866 0.31811,1.4185 0.31622,2.91077 -0.005,3.64061 -1.00897,5.86224 -3.40079,7.52263 -1.54491,1.07246 -1.95083,1.1878 -4.18049,1.1878 -2.67644,0 -4.74068,-0.79736 -6.59352,-2.54688 -0.522,-0.49289 -1.1708,-0.81108 -1.44179,-0.70709 -0.27099,0.10398 -4.9239,2.79648 -10.33981,5.98331 -11.67598,6.87039 -14.39307,8.39886 -14.81989,8.33676 -0.17538,-0.0255 -2.65009,-0.30621 -5.49936,-0.62377 z m 44.39829,-18.67959 c 0.2004,-1.69205 0.16572,-1.81479 -0.45034,-1.59391 -1.074,0.38506 -1.59484,0.91366 -1.40015,1.42102 0.22534,0.58722 -0.21845,0.61512 -0.78426,0.0493 -0.32926,-0.32926 -0.42334,-0.2876 -0.42334,0.18746 0,0.33594 0.27782,0.71442 0.61736,0.84108 0.33955,0.12665 0.83418,0.53192 1.09916,0.9006 0.66977,0.93184 1.08328,0.37531 1.34157,-1.80556 z m -30.60415,-0.2772 c 0.48412,-0.42356 -0.66412,-0.0302 -1.22609,0.42003 -0.6457,0.5173 -0.63444,0.52465 0.19715,0.1286 0.48507,-0.23101 0.94809,-0.47789 1.02894,-0.54863 z m 9.5544,18.03946 c -0.6791,-0.26152 -0.9966,-0.48041 -0.70556,-0.48642 0.29104,-0.006 1.00542,0.20714 1.5875,0.47368 1.36245,0.62385 0.72873,0.633 -0.88194,0.0127 z m 0,-0.91255 c -1.26118,-0.35943 -2.72402,-0.73933 -3.25075,-0.84422 -1.14638,-0.22828 -0.98171,-1.242 0.20168,-1.24157 0.88653,3.3e-4 4.97124,1.86908 5.32044,2.43409 0.13184,0.21332 0.19065,0.36926 0.1307,0.34653 -0.06,-0.0227 -1.14089,-0.3354 -2.40207,-0.69483 z m -4.35107,-0.12015 c -0.15421,-0.40187 -0.002,-0.44161 0.75601,-0.19684 0.52207,0.16868 1.26672,0.37685 1.65478,0.4626 0.38805,0.0858 0.0478,0.17434 -0.75601,0.19685 -0.97028,0.0272 -1.52651,-0.12833 -1.65478,-0.46261 z m -2.15455,-0.71998 c 0.37663,-0.28486 0.83419,-0.52299 1.01679,-0.52916 0.18261,-0.006 0.0239,0.22186 -0.35277,0.50673 -0.37664,0.28487 -0.8342,0.52299 -1.0168,0.52916 -0.18261,0.006 -0.0239,-0.22185 0.35278,-0.50673 z m 9.32784,-0.0112 c -0.25314,-0.30501 -0.28742,-0.52917 -0.0809,-0.52917 0.19703,0 0.44961,0.23812 0.56129,0.52917 0.11168,0.29104 0.14811,0.52916 0.0809,0.52916 -0.0672,0 -0.31975,-0.23812 -0.56129,-0.52916 z m 1.96104,-0.71678 c -0.37663,-0.28487 -0.93225,-0.52365 -1.23472,-0.53063 -0.72684,-0.0168 -2.8463,-1.74823 -2.13743,-1.74614 0.62047,0.002 4.0805,1.93169 4.40518,2.45703 0.3212,0.51972 -0.23615,0.42247 -1.03303,-0.18026 z m -9.19299,-2.63461 c 0.11992,-0.19403 0.7246,-0.34162 1.34374,-0.32799 0.94891,0.0209 1.01489,0.0724 0.42015,0.32799 -0.98462,0.4231 -2.02538,0.4231 -1.76389,0 z m -20.99027,-2.95542 c 0,-0.0732 0.27781,-0.35107 0.61736,-0.61736 0.55952,-0.43881 0.572,-0.42633 0.13319,0.13319 -0.46086,0.58764 -0.75055,0.77452 -0.75055,0.48417 z m 3.88055,-4.2517 c 0,-0.097 0.3175,-0.34631 0.70556,-0.55399 0.38805,-0.20768 0.70555,-0.29823 0.70555,-0.20122 0,0.097 -0.3175,0.34631 -0.70555,0.55399 -0.38806,0.20769 -0.70556,0.29823 -0.70556,0.20122 z m 34.24248,-21.86929 c -0.34145,-0.41143 -0.2859,-0.46736 0.30958,-0.31164 0.39915,0.10438 0.72572,0.33002 0.72572,0.50141 0,0.47584 -0.56954,0.37144 -1.0353,-0.18977 z"
         id="path5409" />
      <path
         style="fill:#788793;stroke-width:0.352778"
         d="m -569.25794,-244.36595 c -2.14515,-0.57777 -4.89801,-2.27812 -7.52911,-4.65048 -1.9826,-1.78763 -2.04838,-1.89561 -1.03857,-1.70491 0.7952,0.15017 1.21176,0.0336 1.5875,-0.44418 0.46384,-0.58983 0.4557,-0.60572 -0.091,-0.17765 -0.9538,0.74679 -1.82822,0.206 -3.62575,-2.24239 -1.65096,-2.24872 -2.21962,-2.79728 -1.81986,-1.7555 0.45486,1.18533 -0.17752,0.39035 -1.52559,-1.91787 -1.74212,-2.98292 -2.1997,-4.08496 -1.21818,-2.93389 0.37176,0.43598 1.23155,0.87586 1.91065,0.97751 l 1.23472,0.18482 -1.45159,-0.67819 c -1.27768,-0.59695 -1.5605,-0.96002 -2.36072,-3.03064 -1.40261,-3.62936 -1.03789,-3.87606 3.69454,-2.49909 l 1.99889,0.5816 -1.02875,2.26888 c -1.17011,2.58061 -1.19061,2.66951 -0.58779,2.54895 0.24254,-0.0485 0.39623,0.18133 0.34154,0.51074 -0.0547,0.32942 0.22708,0.77368 0.62613,0.98725 1.42349,0.76182 7.23983,2.398 7.53428,2.11944 0.16492,-0.15602 0.57017,-0.0134 0.90054,0.317 0.33038,0.33038 2.14013,1.06317 4.02167,1.62844 1.88829,0.56729 3.42098,1.22003 3.42098,1.45693 0,0.23605 0.3175,0.52995 0.70556,0.65312 0.40002,0.12696 0.72327,0.55736 0.74647,0.99391 0.0321,0.60328 0.076,0.63539 0.20309,0.1483 0.0892,-0.34193 0.28022,-0.54873 0.42451,-0.45955 0.33952,0.20984 0.24958,-3.2876 -0.10828,-4.21044 -0.73154,-1.8865 -0.86326,-2.57666 -0.73957,-3.87512 0.16813,-1.7651 -0.46479,-3.14002 -3.00685,-6.53183 -1.78262,-2.3785 -2.49882,-4.23333 -1.63462,-4.23333 0.17583,0 -0.25618,-0.70277 -0.96002,-1.56171 l -1.2797,-1.56171 0.97262,-0.68337 c 1.41392,-0.99344 16.62774,-10.77494 19.36133,-12.44808 1.67089,-1.0227 2.6339,-1.39274 3.42306,-1.31533 l 1.09808,0.1077 -1.61248,1.05833 c -1.43497,0.94183 -2.80986,2.03001 -5.90498,4.6736 -0.6002,0.51264 -0.0474,0.31661 1.56352,-0.55444 3.33219,-1.80177 4.13491,-2.06379 2.79965,-0.91385 -0.58209,0.5013 -1.45521,1.17599 -1.94028,1.49931 -1.63324,1.08863 -4.58611,3.29795 -4.58611,3.43129 0,0.22712 1.209,-0.28424 1.76389,-0.74606 0.29104,-0.24223 1.12448,-0.68625 1.85208,-0.98671 0.72761,-0.30047 1.32292,-0.71315 1.32292,-0.91708 0,-0.20393 0.22995,-0.37078 0.51099,-0.37078 0.28104,0 0.9183,-0.37748 1.41612,-0.83885 0.49783,-0.46137 1.41882,-0.94051 2.04665,-1.06477 1.35777,-0.26872 5.90381,-2.39566 5.90393,-2.76226 5e-5,-0.14088 -0.59523,-0.57043 -1.32283,-0.95454 l -1.32292,-0.6984 2.1819,-0.0156 c 1.20004,-0.009 2.5891,0.13923 3.0868,0.32846 0.89071,0.33864 0.90491,0.40122 0.90491,3.98575 v 3.64171 l -1.85208,1.9353 c -1.01865,1.06441 -6.62982,5.50175 -12.46927,9.86077 l -10.61719,7.92548 0.7068,1.94027 c 0.51779,1.42143 0.71552,2.88365 0.73941,5.46806 0.0288,3.11613 -0.0635,3.6824 -0.79127,4.85289 -0.45314,0.72882 -0.95171,1.24612 -1.10794,1.14956 -0.15623,-0.0966 -0.53132,0.20181 -0.83353,0.66303 -0.60974,0.93059 -3.25212,2.34358 -4.31339,2.30654 -0.3753,-0.0131 -1.42177,-0.22295 -2.32548,-0.46635 z m -0.29717,-0.92095 c 0,-0.19403 -0.2257,-0.35278 -0.50156,-0.35278 -0.27585,0 -1.57013,-0.71655 -2.87616,-1.59235 -1.30604,-0.87579 -2.43703,-1.52993 -2.51332,-1.45363 -0.24901,0.249 2.60659,2.3257 4.17935,3.03937 1.81592,0.82401 1.71169,0.80213 1.71169,0.35939 z m 2.64584,0 c 0.11991,-0.19403 0.0499,-0.35278 -0.15557,-0.35278 -0.20548,0 -0.3736,0.15875 -0.3736,0.35278 0,0.19403 0.07,0.35278 0.15557,0.35278 0.0856,0 0.25368,-0.15875 0.3736,-0.35278 z m 3.29485,-1.76389 0.55349,-0.88194 -0.86584,0.75591 c -0.65604,0.57276 -1.05817,0.68236 -1.65959,0.45235 -0.81894,-0.31321 -1.15584,0.16898 -0.35277,0.50491 0.86735,0.36282 1.7802,0.0364 2.32471,-0.83123 z m -3.96689,-1.14652 0.67204,-0.79375 -0.74637,0.62915 c -0.72244,0.60899 -0.8553,0.59022 -4.14514,-0.58561 -1.86932,-0.66813 -3.39877,-1.15376 -3.39877,-1.07919 0,0.41592 5.23163,2.5446 6.38352,2.59737 0.30947,0.0142 0.8651,-0.33141 1.23472,-0.76797 z m 6.49287,-0.99096 c 0,-0.39951 -0.15182,-0.63255 -0.33737,-0.51787 -0.18556,0.11468 -0.24795,0.44155 -0.13865,0.72638 0.27984,0.72923 0.47602,0.64329 0.47602,-0.20851 z m -3.33443,-0.71752 c 0.31033,-0.60012 0.5016,-1.15375 0.42506,-1.23029 -0.0765,-0.0765 -0.40319,0.41445 -0.72586,1.09111 -0.72552,1.52143 -0.47414,1.63774 0.3008,0.13918 z m -1.59394,-0.33964 c 0.53607,-1.00167 0.17042,-0.83822 -0.53571,0.23947 -0.33348,0.50896 -0.43197,0.81762 -0.21885,0.68591 0.21311,-0.13171 0.55266,-0.54813 0.75456,-0.92538 z m -7.41885,-2.80258 c 0.20768,-0.38805 0.29823,-0.70555 0.20121,-0.70555 -0.097,0 -0.34631,0.3175 -0.55399,0.70555 -0.20768,0.38806 -0.29823,0.70556 -0.20121,0.70556 0.097,0 0.34631,-0.3175 0.55399,-0.70556 z m -1.23472,-0.70555 c 0.301,-0.58209 0.46791,-1.05834 0.37089,-1.05834 -0.097,0 -0.42267,0.47625 -0.72367,1.05834 -0.30101,0.58208 -0.46791,1.05833 -0.3709,1.05833 0.097,0 0.42267,-0.47625 0.72368,-1.05833 z m 9.34861,0.90276 c 0,-0.0856 -0.15875,-0.25368 -0.35278,-0.3736 -0.19403,-0.11991 -0.35278,-0.0499 -0.35278,0.15557 0,0.20548 0.15875,0.3736 0.35278,0.3736 0.19403,0 0.35278,-0.07 0.35278,-0.15557 z m -1.15388,-0.41035 c -0.11723,-0.11722 -0.4215,-0.12975 -0.67616,-0.0278 -0.28142,0.11261 -0.19783,0.19621 0.21314,0.21313 0.37188,0.0153 0.58024,-0.0681 0.46302,-0.18528 z m -1.66835,-0.46047 c -0.29104,-0.16466 -0.92604,-0.39638 -1.41111,-0.51494 -0.73513,-0.17968 -0.70577,-0.13071 0.17639,0.29419 1.13056,0.54455 2.1196,0.72137 1.23472,0.22075 z m -3.175,-1.09028 c -0.29104,-0.18808 -0.68791,-0.34197 -0.88194,-0.34197 -0.19403,0 -0.11465,0.15389 0.17639,0.34197 0.29104,0.18809 0.68792,0.34197 0.88194,0.34197 0.19403,0 0.11466,-0.15388 -0.17639,-0.34197 z m -11.29596,-3.00714 c -0.24543,-0.29573 -0.51889,-0.46504 -0.60769,-0.37624 -0.24465,0.24465 0.25243,0.91394 0.67878,0.91394 0.23393,0 0.20716,-0.20242 -0.0711,-0.5377 z m 2.44982,5.212 -0.85524,-0.97014 0.97013,0.85525 c 0.90674,0.79935 1.13192,1.08503 0.85525,1.08503 -0.0632,0 -0.49976,-0.43656 -0.97014,-0.97014 z m 12.19753,-2.3688 c -1.94027,-0.61188 -3.49333,-1.2253 -3.45123,-1.36315 0.0421,-0.13785 0.7341,-1.35745 1.53777,-2.71023 1.34145,-2.25798 1.53759,-2.44114 2.3929,-2.23448 2.14619,0.51856 2.42282,0.7741 3.35275,3.097 1.09359,2.73174 1.08563,2.63833 0.30511,3.58451 l -0.60952,0.73888 z m -8.93402,-2.78327 c -1.80927,-0.62035 -3.2793,-1.24368 -3.26673,-1.38519 0.0126,-0.1415 0.57417,-1.35205 1.248,-2.69011 l 1.22516,-2.43284 3.39296,0.99318 c 1.86613,0.54626 3.4761,1.07633 3.57772,1.17794 0.15449,0.15449 -2.633,5.57601 -2.82405,5.49264 -0.0349,-0.0152 -1.54379,-0.53527 -3.35306,-1.15562 z m 9.46319,-5.51945 c 0,-0.19403 0.15875,-0.35278 0.35278,-0.35278 0.19403,0 0.35278,0.15875 0.35278,0.35278 0,0.19402 -0.15875,0.35277 -0.35278,0.35277 -0.19403,0 -0.35278,-0.15875 -0.35278,-0.35277 z m -5.99722,-1.36681 c -1.84327,-0.51218 -3.34248,-1.08886 -3.33158,-1.28152 0.0109,-0.19266 0.54149,-1.42119 1.1791,-2.73008 1.07865,-2.21426 1.2245,-2.36455 2.09685,-2.16064 0.97926,0.2289 3.15514,2.10138 4.32473,3.72168 0.65258,0.90408 0.65613,0.99985 0.0815,2.20486 -0.3304,0.69285 -0.69039,1.2411 -0.79997,1.21833 -0.10959,-0.0228 -1.70737,-0.46046 -3.55063,-0.97263 z m -8.64306,-2.31288 c -3.14163,-0.89476 -3.06863,-0.72999 -1.69093,-3.81684 0.70187,-1.57259 1.0729,-2.022 1.65091,-1.99969 1.07174,0.0414 5.64907,1.17269 5.59295,1.38233 -0.22181,0.82853 -2.35406,5.28566 -2.51865,5.26483 -0.11663,-0.0148 -1.48206,-0.38854 -3.03428,-0.83063 z m -4.40775,-2.69971 c 0.003,-1.88293 0.6626,-3.85116 1.29048,-3.85116 0.41345,0 0.49012,0.20108 0.30263,0.79375 -0.1381,0.43656 -0.43997,1.46075 -0.67081,2.27596 -0.55412,1.95687 -0.92473,2.27088 -0.9223,0.78145 z m -14.37766,-2.01924 c -2.7649,-0.29361 -5.02709,-0.6379 -5.02709,-0.76508 0,-0.25577 7.18513,-1.06684 9.45098,-1.06684 0.7987,0 1.66705,-0.23231 1.95877,-0.52403 0.47046,-0.47047 1.29025,-3.37038 1.29025,-4.56413 0,-0.25703 1.25756,-1.29294 2.79459,-2.30203 2.64682,-1.73769 3.50189,-2.61377 2.90883,-2.98031 -0.14465,-0.0894 -1.37597,0.361 -2.73627,1.00087 -3.06265,1.44065 -3.91647,1.71753 -4.39132,1.42406 -0.34431,-0.2128 1.68711,-1.56713 4.65369,-3.10258 0.68137,-0.35267 1.65529,-1.02736 2.16427,-1.49931 0.50898,-0.47195 1.13872,-0.85809 1.39943,-0.85809 0.2607,0 0.62953,-0.15553 0.81962,-0.34562 0.19009,-0.19009 0.96421,-0.6465 1.72026,-1.01425 0.9061,-0.44073 1.39347,-0.92416 1.42987,-1.41828 0.0726,-0.98574 0.25043,-1.02648 -3.00186,0.68787 -6.36971,3.3576 -11.71296,5.73099 -13.22916,5.87619 l -1.76389,0.16891 4.23333,-2.54178 c 2.32833,-1.39797 6.13833,-3.57627 8.46667,-4.84066 2.32833,-1.2644 4.39208,-2.44917 4.58611,-2.63283 0.38013,-0.35983 -1.50182,0.28405 -2.10511,0.72023 -0.57,0.41211 -2.51278,1.20172 -2.21256,0.89925 0.14764,-0.14875 2.60547,-1.48314 5.46185,-2.96532 l 5.19341,-2.69487 -0.11076,-2.65417 c -0.13243,-3.17321 0.35983,-5.23113 1.56765,-6.55363 0.8349,-0.91418 0.86472,-0.92186 0.47242,-0.12175 -0.35549,0.72503 -0.31874,0.92766 0.24329,1.34163 0.58806,0.43312 0.67463,0.40668 0.77476,-0.23666 0.062,-0.39835 0.24746,-0.72426 0.41212,-0.72426 0.16467,0 0.56388,-0.1015 0.88713,-0.22554 0.52724,-0.20232 0.57561,0.10926 0.46983,3.02689 -0.11603,3.2002 -0.10234,3.26378 0.85222,3.95913 0.94945,0.69163 1.39964,1.65308 0.52917,1.13012 -0.26566,-0.15961 -0.23573,-0.0122 0.0753,0.37064 0.32665,0.40213 0.566,0.48638 0.65166,0.22938 0.0985,-0.29537 0.28606,-0.28186 0.68763,0.0495 0.4377,0.36119 0.58301,0.36425 0.70064,0.0147 0.0816,-0.24254 0.32031,-0.44098 0.5304,-0.44098 0.39472,0 0.58721,-0.15421 2.83418,-2.27064 0.73407,-0.69142 1.48511,-1.25713 1.66897,-1.25713 0.18387,0 0.43498,-0.40114 0.55803,-0.89143 0.1785,-0.71117 0.32253,-0.80944 0.71228,-0.48597 0.35559,0.29512 0.48854,0.2977 0.48854,0.009 0,-0.76989 1.37219,-0.38282 2.03544,0.57417 0.80384,1.15985 2.58428,4.90138 3.44138,7.23194 0.33894,0.92163 0.76414,1.6757 0.94489,1.6757 0.18074,0 0.24617,0.27781 0.14541,0.61736 -0.10076,0.33955 -0.21671,1.64923 -0.25767,2.91041 -0.094,2.89329 -0.42329,3.85217 -1.81022,5.27075 -3.23259,3.30638 -7.80945,3.25355 -11.82458,-0.13647 -0.68443,-0.57788 -1.37685,-0.88604 -1.70656,-0.75952 -0.30516,0.1171 -4.70813,2.65108 -9.78438,5.63106 -11.65749,6.84347 -14.90716,8.70463 -15.08504,8.63956 -0.0779,-0.0285 -2.40391,-0.29207 -5.1688,-0.58568 z m 44.16837,-18.32428 c 0.296,-1.36025 -0.0946,-3.58602 -0.51103,-2.91219 -0.15124,0.24472 -0.45149,0.33586 -0.66721,0.20254 -0.21572,-0.13332 -0.39222,-0.0994 -0.39222,0.0754 0,0.17477 -0.66029,0.51559 -1.46731,0.75737 -1.51868,0.45501 -2.41324,1.10874 -2.41324,1.76354 0,0.20788 0.23812,0.37797 0.52916,0.37797 0.29104,0 0.52917,0.15573 0.52917,0.34606 0,0.19033 0.43656,0.45214 0.97014,0.5818 0.53357,0.12966 1.27617,0.44521 1.65022,0.70123 0.58023,0.39714 0.74195,0.37646 1.10145,-0.14083 0.23175,-0.33347 0.53364,-1.12225 0.67087,-1.75284 z m -11.44824,-4.30071 c 0,-0.5914 -0.62566,-0.73785 -0.8339,-0.19518 -0.12288,0.3202 10e-4,0.52714 0.31581,0.52714 0.28495,0 0.51809,-0.14938 0.51809,-0.33196 z m 9.67752,-4.66234 c -0.58972,-1.14942 -2.14718,-3.29689 -1.87608,-2.58681 0.0748,0.19602 0.59829,1.189 1.16323,2.20663 1.11027,1.99993 1.70723,2.3183 0.71285,0.38018 z m -46.42247,24.35492 c 1.71339,-1.64175 2.19238,-2.31403 2.04641,-2.87223 -0.22431,-0.85779 2.40622,-4.84672 3.19622,-4.84672 2.34646,0 4.68891,1.38955 5.20361,3.0868 0.19518,0.64364 0.10368,0.79375 -0.48388,0.79375 -0.39852,0 -1.24265,0.54035 -1.87585,1.20077 -0.72141,0.75242 -1.94161,1.46608 -3.26794,1.91133 -4.34356,1.45812 -5.98033,2.12888 -6.10461,2.50172 -0.0703,0.21087 -0.31301,0.37995 -0.53938,0.37572 -0.22636,-0.004 0.59508,-0.97224 1.82542,-2.15114 z m 1.64357,-0.31062 c 0.35118,-0.38806 0.55914,-0.70556 0.46213,-0.70556 -0.097,0 -0.46373,0.3175 -0.81491,0.70556 -0.35119,0.38806 -0.55915,0.70556 -0.46213,0.70556 0.097,0 0.46372,-0.3175 0.81491,-0.70556 z m 25.57638,1.36677 c -0.48507,-0.19381 -1.64426,-0.51617 -2.57598,-0.71636 -1.01518,-0.21811 -1.63596,-0.52739 -1.54911,-0.77177 0.24302,-0.68385 2.29793,-0.28207 4.23276,0.82759 1.76868,1.01437 1.7081,1.38606 -0.10767,0.66054 z m 1.94028,-3.13066 c -1.34509,-0.89082 -0.74519,-0.89082 0.88195,0 0.67909,0.37179 0.99659,0.68159 0.70555,0.68845 -0.29104,0.007 -1.00541,-0.30295 -1.5875,-0.68845 z m -5.90903,-1.29197 c 0.24254,-0.0979 0.63941,-0.0979 0.88195,0 0.24253,0.0979 0.0441,0.17794 -0.44097,0.17794 -0.48507,0 -0.68351,-0.0801 -0.44098,-0.17794 z m 37.20415,-9.48117 c -0.25018,-0.28366 -0.30931,-0.51575 -0.13139,-0.51575 0.17792,0 0.52112,0.23813 0.76266,0.52917 0.56579,0.68174 -0.0293,0.66909 -0.63127,-0.0134 z m -27.59095,-20.26142 c 0,-0.56207 1.97537,-0.97999 3.36684,-0.7123 l 1.39566,0.2685 -1.23705,0.0406 c -0.68038,0.0223 -1.75194,0.18824 -2.38125,0.36872 -0.62931,0.18048 -1.1442,0.19601 -1.1442,0.0345 z"
         id="path5407" />
      <path
         style="fill:#6b7886;stroke-width:0.352778"
         d="m -571.50819,-246.34509 c -2.17474,-1.07648 -3.92133,-2.63859 -3.34704,-2.99353 0.33536,-0.20726 0.38741,-0.1566 0.18148,0.17661 -0.20925,0.33858 -0.12828,0.40565 0.29404,0.24359 0.34936,-0.13406 0.54917,-0.0603 0.49884,0.1841 -0.0462,0.22426 0.9861,0.81386 2.29396,1.31022 2.14762,0.81508 2.7533,1.36806 1.83337,1.67389 -0.1819,0.0605 -0.9715,-0.20723 -1.75465,-0.59488 z m 5.48086,0.35264 c -0.29104,-0.18809 -0.37042,-0.34198 -0.17639,-0.34198 0.19403,0 0.5909,0.15389 0.88195,0.34198 0.29104,0.18808 0.37041,0.34197 0.17639,0.34197 -0.19403,0 -0.59091,-0.15389 -0.88195,-0.34197 z m 0.42632,-0.825 c -0.78447,-0.4369 -0.78899,-0.46781 -0.15247,-1.04385 0.36076,-0.32649 1.01349,-1.30956 1.45051,-2.1846 0.43702,-0.87505 0.86282,-1.591 0.94622,-1.591 0.0834,0 0.15164,0.7849 0.15164,1.74422 0,1.30974 -0.19771,1.96607 -0.79375,2.63484 -0.70441,0.7904 -0.88473,0.83996 -1.60215,0.44039 z m 4.04008,-0.50342 c 0.11268,-0.43958 0.34447,-0.88551 0.51507,-0.99096 0.56886,-0.35157 0.33779,-4.52134 -0.42863,-7.73479 -1.48157,-6.2119 -1.75434,-6.88217 -4.02734,-9.89587 -1.63709,-2.17059 -2.17294,-3.15749 -2.09582,-3.86004 0.0736,-0.67082 -0.24588,-1.33072 -1.10447,-2.28107 -0.92362,-1.02235 -1.10397,-1.4197 -0.76595,-1.68757 0.5106,-0.40461 14.89442,-9.66773 19.2566,-12.40116 2.02924,-1.27156 3.23089,-1.80824 3.88056,-1.73311 0.89909,0.10396 0.86237,0.16309 -0.82281,1.32502 -0.97014,0.66891 -2.64827,1.94808 -3.72918,2.8426 -1.08092,0.89452 -2.55034,1.98798 -3.2654,2.4299 -0.71505,0.44193 -1.2121,0.94588 -1.10456,1.11988 0.10754,0.17401 0.78322,-0.0538 1.5015,-0.50625 0.71829,-0.45245 1.8616,-1.09987 2.5407,-1.43871 l 1.23472,-0.61607 -0.88195,0.83488 c -0.48506,0.45919 -1.83444,1.48904 -2.99861,2.28856 -1.16416,0.79952 -2.07103,1.64753 -2.01525,1.88446 0.0558,0.23693 -0.18235,0.64602 -0.52917,0.90909 -0.60335,0.45765 -0.6025,0.47879 0.0198,0.48952 0.35771,0.006 0.72727,-0.28278 0.82123,-0.6421 0.094,-0.35933 0.7533,-0.93108 1.46519,-1.27056 l 1.29433,-0.61722 -0.70446,0.79271 -0.70446,0.79272 0.72672,-0.38065 c 0.39969,-0.20935 1.03268,-0.78808 1.40664,-1.28605 0.37397,-0.49798 0.99944,-0.91046 1.38996,-0.91663 0.69622,-0.011 2.39929,-1.03932 1.74758,-1.0552 -0.18261,-0.004 1.09674,-0.74332 2.84299,-1.64193 6.10131,-3.13972 6.52639,-3.38101 6.52639,-3.70459 0,-0.17921 -0.59531,-0.59539 -1.32292,-0.92484 l -1.32292,-0.599 1.64489,-0.10663 c 0.90468,-0.0586 2.17468,0.0304 2.82222,0.19779 l 1.17734,0.30441 0.0993,3.68936 0.0993,3.68935 -2.09386,2.10972 c -1.15162,1.16035 -6.76663,5.59135 -12.4778,9.84666 l -10.38395,7.73692 0.67165,2.14085 c 1.36526,4.35167 1.19001,8.64415 -0.44036,10.78602 -0.65097,0.8552 -0.66399,0.85746 -0.46484,0.0806 z m -13.33084,-0.34728 c -0.43881,-0.55952 -0.42633,-0.572 0.13319,-0.13319 0.33955,0.26629 0.61736,0.5441 0.61736,0.61736 0,0.29035 -0.28969,0.10347 -0.75055,-0.48417 z m 3.41285,-1.16486 c -1.54317,-0.57329 -2.93984,-1.17643 -3.10371,-1.3403 -0.16387,-0.16387 0.27175,-1.2543 0.96805,-2.42317 l 1.26599,-2.12523 3.50631,1.10143 c 1.92847,0.60579 3.5095,1.20241 3.5134,1.32582 0.0118,0.37096 -2.85479,4.53948 -3.10889,4.52097 -0.12946,-0.009 -1.49798,-0.48622 -3.04115,-1.05952 z m -6.86221,-3.00629 c -0.61256,-0.51543 -1.60341,-1.64886 -2.2019,-2.51873 -0.91443,-1.32908 -1.02835,-1.71285 -0.71355,-2.40378 l 0.37462,-0.82218 3.35104,1.10381 3.35105,1.10381 -1.19987,2.12915 c -0.65993,1.17103 -1.34563,2.17772 -1.52377,2.2371 -0.17814,0.0594 -0.82507,-0.31375 -1.43762,-0.82918 z m 10.11014,-3.26115 c -1.69708,-0.52039 -3.08614,-1.04422 -3.0868,-1.16406 -7.1e-4,-0.11984 0.65637,-1.35369 1.46007,-2.74188 1.55104,-2.67902 1.43902,-2.62577 3.7253,-1.77078 0.8124,0.30381 1.59156,1.56248 2.41902,3.90778 0.38948,1.10388 0.40218,1.53142 0.0617,2.07656 -0.54004,0.86474 -0.81669,0.84616 -4.57933,-0.30762 z m -8.90884,-2.76988 c -1.55222,-0.49022 -2.8912,-0.95796 -2.97552,-1.03941 -0.26944,-0.26031 2.21421,-5.07438 2.61795,-5.07438 0.39654,0 6.63433,1.75802 6.79763,1.9158 0.25738,0.24866 -2.64905,4.96589 -3.09461,5.02265 -0.28777,0.0367 -1.79323,-0.33443 -3.34545,-0.82466 z m -5.64444,-0.11657 c -0.11992,-0.19403 -0.0499,-0.35278 0.15557,-0.35278 0.20547,0 0.37359,0.15875 0.37359,0.35278 0,0.19403 -0.07,0.35278 -0.15557,0.35278 -0.0856,0 -0.25368,-0.15875 -0.37359,-0.35278 z m -0.37486,-1.9209 c -0.83788,-0.35588 -1.25364,-0.91155 -1.85208,-2.47538 -0.87509,-2.28674 -0.97043,-3.31153 -0.3307,-3.55435 0.4132,-0.15683 5.1084,1.03519 5.4592,1.38599 0.15411,0.15412 -1.57315,4.36942 -1.99287,4.86349 -0.11172,0.13152 -0.68932,0.0326 -1.28355,-0.21975 z m 15.72069,-3.39158 c 0,-0.20548 0.15875,-0.27549 0.35278,-0.15557 0.19403,0.11991 0.35278,0.28803 0.35278,0.3736 0,0.0856 -0.15875,0.15556 -0.35278,0.15556 -0.19403,0 -0.35278,-0.16812 -0.35278,-0.37359 z m -5.82083,-1.42577 c -1.94028,-0.53341 -3.56946,-0.98177 -3.62041,-0.99635 -0.0509,-0.0146 0.46699,-1.13776 1.15096,-2.49595 1.10906,-2.20229 1.35407,-2.46945 2.2648,-2.46945 0.7833,0 1.40326,0.42494 2.66118,1.82405 2.23512,2.48599 2.34226,2.74658 1.65446,4.0242 l -0.58322,1.08335 z m -8.73125,-2.20639 c -1.50372,-0.40392 -2.73403,-0.85254 -2.73403,-0.99692 0,-0.37061 1.35441,-3.89989 1.70745,-4.4492 0.23766,-0.36979 0.82114,-0.34793 3.08518,0.1156 1.53565,0.3144 2.91234,0.68749 3.05931,0.82908 0.26596,0.25625 -1.87133,5.37046 -2.2075,5.28217 -0.097,-0.0255 -1.4067,-0.37681 -2.91041,-0.78073 z m -4.29108,-4.01994 c 0.29016,-1.60738 0.78935,-2.63769 1.16537,-2.40529 0.33541,0.20729 -0.72362,3.71676 -1.12361,3.72349 -0.15432,0.002 -0.17311,-0.5906 -0.0418,-1.3182 z m -14.31795,-0.77724 c -2.8134,-0.30012 -4.95653,-0.64594 -4.7625,-0.76847 0.19403,-0.12254 2.57528,-0.41376 5.29167,-0.64714 2.71638,-0.23338 5.17673,-0.54713 5.46742,-0.6972 0.60553,-0.3126 1.34468,-2.50434 1.38463,-4.1057 0.0239,-0.95833 0.30649,-1.25006 2.39201,-2.46944 1.3007,-0.7605 2.93693,-1.85898 3.63608,-2.44106 0.69914,-0.58208 1.85744,-1.37225 2.57398,-1.75592 1.08765,-0.58237 1.70582,-1.24269 1.16337,-1.24269 -0.1336,0 -4.56668,1.8126 -6.03416,2.46725 -3.96397,1.76835 -4.87632,2.12263 -5.04131,1.95764 -0.10536,-0.10536 -0.12542,-0.24302 -0.0446,-0.30592 0.46008,-0.35793 3.8918,-2.35508 4.04676,-2.35508 0.10176,0 1.01006,-0.55563 2.01847,-1.23472 1.0084,-0.6791 1.94298,-1.23473 2.07685,-1.23473 0.29092,0 5.88858,-3.4016 6.64519,-4.03817 0.29104,-0.24486 1.0451,-0.66583 1.67569,-0.93547 0.81413,-0.34812 1.14653,-0.72306 1.14653,-1.29325 v -0.803 l -1.32292,0.71642 c -0.7276,0.39403 -1.56104,0.84637 -1.85208,1.00519 -0.85056,0.46416 -3.30671,1.6959 -9.70139,4.86515 -3.29847,1.63475 -6.29245,3.13881 -6.65328,3.34236 -0.84983,0.47939 -3.78396,0.77365 -3.04303,0.30517 0.28825,-0.18225 0.86829,-0.3338 1.28899,-0.33677 1.12936,-0.008 1.88093,-0.37085 1.88093,-0.90814 0,-0.57354 2.02715,-1.97433 5.82084,-4.02227 4.5345,-2.44785 11.46527,-6.42588 11.46527,-6.58067 0,-0.0783 -1.5875,0.65422 -3.52777,1.6279 -1.94028,0.97367 -3.52778,1.69094 -3.52778,1.59393 0,-0.39346 7.11586,-3.71497 7.47856,-3.49081 0.231,0.14277 0.29259,0.0819 0.1502,-0.14853 -0.13766,-0.22274 0.17677,-0.60962 0.73184,-0.90045 0.94738,-0.49638 0.97029,-0.57977 0.86336,-3.14204 -0.12026,-2.88153 0.34664,-4.9484 1.41857,-6.2797 0.646,-0.80232 0.66689,-0.80684 0.30372,-0.0657 -0.39369,0.80341 0.0712,3.34425 0.75488,4.1254 0.4033,0.46081 1.0084,-0.1998 1.14794,-1.25324 0.0616,-0.46518 0.28135,-1.24266 0.48829,-1.72773 0.30981,-0.7262 0.3802,-0.37765 0.39861,1.97379 0.0188,2.397 0.1365,2.95904 0.7329,3.49878 0.42691,0.38634 0.63137,0.89247 0.51222,1.26791 -0.12757,0.40192 0.0512,0.75842 0.50098,0.99914 0.88362,0.4729 2.15682,0.48559 2.15682,0.0215 0,-0.19403 0.18068,-0.35278 0.40152,-0.35278 0.22083,0 1.05887,-0.59531 1.86229,-1.32291 0.80343,-0.72761 1.97212,-1.70385 2.59709,-2.16944 0.62497,-0.46558 1.13632,-1.03708 1.13632,-1.27 0,-0.24707 0.46163,-0.40879 1.10816,-0.3882 0.89835,0.0286 1.26978,0.30244 1.96183,1.44639 l 0.85368,1.41111 -1.10598,-1.23473 -1.10599,-1.23472 1.31346,2.46945 c 0.7224,1.35819 1.49498,2.62819 1.71684,2.82222 0.97666,0.85415 1.96272,4.05488 1.97701,6.41737 0.0259,4.27652 -0.47559,5.43851 -3.16803,7.34096 -1.31112,0.92643 -1.79063,1.05631 -3.84731,1.04209 -2.52192,-0.0174 -4.24468,-0.68833 -6.37882,-2.48409 -0.94215,-0.79276 -1.25786,-0.88598 -1.94315,-0.57375 -0.45002,0.20505 -5.40219,3.05629 -11.00482,6.3361 -5.60263,3.27981 -10.90098,6.35565 -11.7741,6.8352 l -1.5875,0.87192 z m 43.55899,-16.93232 c 0.57967,-1.12097 0.67724,-3.63559 0.18545,-4.78002 -0.16675,-0.38806 -0.31434,-0.50712 -0.32798,-0.26459 -0.0136,0.24254 -0.23853,0.44098 -0.49976,0.44098 -0.26123,0 -1.00633,0.26508 -1.65578,0.58906 -0.64944,0.32399 -2.22165,0.87006 -3.49378,1.2135 -1.27214,0.34344 -2.13772,0.63398 -1.92352,0.64565 0.2142,0.0117 0.8177,0.4181 1.3411,0.90317 0.5234,0.48507 1.16424,0.88195 1.4241,0.88195 0.25985,0 1.16448,0.31401 2.01029,0.69781 2.0395,0.92544 2.30739,0.8956 2.93988,-0.32751 z m -11.09794,-4.78664 c 0.36371,-0.43825 0.33088,-0.6615 -0.18034,-1.2264 -0.74103,-0.81883 -1.23627,-0.62274 -1.23627,0.48948 0,1.31755 0.65287,1.65717 1.41661,0.73692 z m -5.09896,-5.38083 c -0.11825,-0.11825 -0.48903,0.0719 -0.82396,0.42257 -0.58216,0.60951 -0.5727,0.61898 0.215,0.215 0.45318,-0.23241 0.72721,-0.51932 0.60896,-0.63757 z m 13.06695,-1.19462 c -0.31084,-0.44378 -0.56515,-0.69002 -0.56515,-0.5472 0,0.39333 0.83559,1.64877 0.99276,1.49159 0.0756,-0.0756 -0.11678,-0.50062 -0.42761,-0.94439 z m -1.20603,-2.13742 c -0.25314,-0.25314 -0.41746,-0.27397 -0.41746,-0.0529 0,0.47088 0.4172,0.88808 0.65264,0.65264 0.10025,-0.10025 -0.006,-0.37012 -0.23518,-0.59972 z m -17.80417,28.19631 c -1.6138,-0.41435 -2.68969,-0.86599 -2.60883,-1.09516 0.20663,-0.58563 1.90283,-0.2767 3.8229,0.69627 0.93982,0.47625 1.70876,0.9426 1.70876,1.03634 0,0.0937 -0.0397,0.14733 -0.0882,0.11908 -0.0485,-0.0283 -1.32409,-0.36869 -2.83463,-0.75653 z m -23.23717,-3.86359 c -0.52166,-0.35539 -0.43002,-0.61538 0.8632,-2.44917 1.52323,-2.15993 1.7319,-2.24468 3.89918,-1.58348 l 1.35656,0.41386 -0.7648,0.97014 c -0.42064,0.53358 -1.06008,0.97014 -1.42098,0.97014 -0.36089,0 -0.7515,0.30036 -0.86802,0.66746 -0.11651,0.36711 -0.4844,0.74598 -0.81752,0.84193 -0.33313,0.0959 -0.84381,0.26271 -1.13485,0.37058 -0.29104,0.10787 -0.79179,0.0172 -1.11277,-0.20146 z m 31.09888,-30.25712 c 0.48005,-0.30696 3.84388,-0.52062 3.49838,-0.22221 -0.0808,0.0698 -1.02011,0.22453 -2.08726,0.34377 -1.29617,0.14484 -1.76461,0.10448 -1.41112,-0.12156 z"
         id="path5405" />
      <path
         style="fill:#555960;stroke-width:0.352778"
         d="m -571.67177,-246.52589 c -0.87313,-0.46935 -1.98438,-1.17912 -2.46945,-1.57726 -0.67229,-0.55182 -0.33684,-0.47091 1.41111,0.34034 1.26118,0.58533 2.4915,1.06437 2.73403,1.06452 0.24254,1.5e-4 0.44097,0.23841 0.44097,0.52945 0,0.6955 -0.23117,0.6565 -2.11666,-0.35705 z m 6.23851,-0.2275 c -0.46989,-0.26296 -0.53538,-0.47221 -0.25394,-0.81133 0.2086,-0.25134 0.84953,-1.31008 1.42429,-2.35277 0.9772,-1.77277 1.04531,-1.82712 1.04945,-0.83746 0.006,1.41629 -0.60521,3.54142 -1.14794,3.99185 -0.29579,0.24548 -0.64491,0.24865 -1.07186,0.01 z m -5.35657,-1.87862 c -1.16417,-0.4452 -2.56058,-0.98479 -3.10315,-1.1991 l -0.98649,-0.38964 0.95433,-1.67822 c 1.61867,-2.8465 1.40375,-2.78385 5.20558,-1.51727 l 3.37475,1.1243 -0.92579,1.47405 c -1.29112,2.05572 -2.01963,3.04314 -2.22617,3.01735 -0.097,-0.0121 -1.12889,-0.38627 -2.29306,-0.83147 z m 10.4348,-1.09401 c 0.0169,-0.41096 0.10052,-0.49456 0.21313,-0.21313 0.10191,0.25466 0.0894,0.55893 -0.0278,0.67615 -0.11723,0.11723 -0.20061,-0.0911 -0.18529,-0.46302 z m -0.12641,-2.88102 c -0.0887,-1.11566 -0.42681,-3.29847 -0.7514,-4.85069 -0.32458,-1.55222 -0.62332,-3.06035 -0.66385,-3.35139 -0.0405,-0.29104 -0.27359,-0.7404 -0.51791,-0.99858 -0.24432,-0.25818 -0.35401,-0.61536 -0.24376,-0.79375 0.11025,-0.17838 0.0429,-0.32434 -0.14972,-0.32434 -0.19259,0 -0.4004,-0.43656 -0.46179,-0.97013 -0.0614,-0.53358 -0.29767,-0.97014 -0.52506,-0.97014 -0.45421,0 -3.28854,-3.9916 -3.28989,-4.63316 -3.6e-4,-0.21991 0.31666,-0.48286 0.70471,-0.58434 0.38806,-0.10148 0.70556,-0.0406 0.70556,0.13525 0,0.17586 -0.15875,0.31975 -0.35278,0.31975 -0.19403,0 -0.35278,0.16616 -0.35278,0.36924 0,0.51693 1.73921,-0.80108 1.75281,-1.32831 0.006,-0.23644 0.23703,-0.3432 0.51319,-0.23722 0.28867,0.11077 0.6711,-0.12309 0.89965,-0.55012 0.21864,-0.40854 0.53715,-0.65651 0.70779,-0.55105 0.37909,0.23429 2.52165,-1.01377 8.13424,-4.73826 2.35556,-1.56313 4.34773,-2.84206 4.42704,-2.84206 0.0793,0 0.89863,-0.53895 1.82072,-1.19767 2.39749,-1.71272 6.40069,-3.80654 6.80272,-3.55807 0.18801,0.1162 0.34184,-0.0362 0.34184,-0.33872 0,-0.30249 0.15875,-0.54999 0.35278,-0.54999 0.19403,0 0.35278,0.14939 0.35278,0.33196 0,0.18258 -0.15875,0.43007 -0.35278,0.54999 -0.19403,0.11991 -0.36531,0.64522 -0.38063,1.16735 -0.0153,0.52212 -0.10792,0.75088 -0.20579,0.50834 -0.29205,-0.72378 -0.6448,-0.50117 -0.69918,0.44122 -0.0629,1.09078 0.0502,1.09339 1.31358,0.0303 0.62731,-0.52785 1.27931,-0.78138 1.71585,-0.66722 0.67115,0.1755 0.67758,0.23596 0.13742,1.29232 l -0.56666,1.10819 0.80514,-0.70555 0.80513,-0.70556 -0.17879,0.97014 c -0.19192,1.0414 0.0371,1.22086 0.70527,0.55269 0.2296,-0.2296 0.506,-0.32891 0.61423,-0.22069 0.59524,0.59524 -4.61043,5.0894 -13.94335,12.03757 -5.72382,4.26127 -10.51595,7.84495 -10.64917,7.96375 -0.13323,0.11879 0.0711,1.14057 0.45403,2.27061 0.8122,2.39674 1.32971,7.64677 0.75377,7.64677 -0.20556,0 -0.44629,-0.91282 -0.53496,-2.02848 z m -17.64253,0.96548 c -1.60249,-1.26053 -3.4131,-4.0238 -3.19159,-4.87087 0.11059,-0.4229 0.38046,-0.76891 0.5997,-0.76891 0.3965,0 5.93243,1.76376 6.16994,1.96575 0.18038,0.15341 -2.18522,4.38425 -2.45138,4.38425 -0.12307,0 -0.63007,-0.3196 -1.12667,-0.71022 z m 9.97997,-3.48944 c -1.64923,-0.53346 -2.9655,-1.13642 -2.92502,-1.33992 0.19543,-0.98264 2.66949,-4.69098 3.12964,-4.69098 0.28798,0 1.04421,0.21753 1.68052,0.48339 0.92786,0.38769 1.30976,0.88282 1.92894,2.50084 0.87894,2.2968 0.95057,3.04613 0.3487,3.64799 -0.55098,0.55099 -0.64019,0.5381 -4.16278,-0.60132 z m -8.64305,-2.70718 c -1.3582,-0.4714 -2.67166,-0.9323 -2.91881,-1.02422 -0.32388,-0.12046 -0.10098,-0.85891 0.79819,-2.64442 0.68615,-1.36251 1.28524,-2.47218 1.3313,-2.46593 0.0461,0.006 1.62276,0.44286 3.50376,0.97025 l 3.42,0.95887 -1.41847,2.55754 c -0.78015,1.40664 -1.60478,2.54571 -1.8325,2.53127 -0.22771,-0.0144 -1.52528,-0.41196 -2.88347,-0.88336 z m -6.57935,-2.149 c -1.01076,-0.26835 -2.89677,-5.42236 -2.15252,-5.88232 0.26716,-0.16512 5.29596,1.02824 5.64818,1.34034 0.0502,0.0445 -0.38792,1.13784 -0.97365,2.42964 -1.02669,2.26432 -1.24881,2.45036 -2.52201,2.11234 z m 15.92796,-3.3122 c 0,-0.20548 0.15875,-0.27549 0.35278,-0.15557 0.19403,0.11991 0.35278,0.28803 0.35278,0.3736 0,0.0856 -0.15875,0.15556 -0.35278,0.15556 -0.19403,0 -0.35278,-0.16812 -0.35278,-0.37359 z m -4.58611,-1.09376 c -0.6791,-0.18997 -2.0468,-0.57758 -3.03933,-0.86136 l -1.80462,-0.51597 1.24201,-2.45822 c 0.6831,-1.35201 1.44515,-2.45821 1.69345,-2.45821 1.16381,0 2.35573,0.83906 3.79269,2.66989 1.55128,1.97649 1.56035,2.00415 0.98725,3.01162 -0.61735,1.08528 -0.93687,1.15341 -2.87145,0.61225 z m -10.49147,-2.72934 c -2.47619,-0.63263 -2.44425,-0.50843 -0.97559,-3.79343 l 0.81212,-1.81651 2.41705,0.50235 c 3.97526,0.82621 3.74876,0.52689 2.51405,3.32231 -1.21829,2.75824 -1.11329,2.71892 -4.76763,1.78528 z m -3.58932,-3.80015 c -0.0395,-1.45469 0.27504,-2.23371 0.90178,-2.23371 0.4092,0 0.42611,0.14522 0.0901,0.77315 -0.22758,0.42523 -0.53702,1.17929 -0.68765,1.67569 -0.26485,0.87283 -0.27487,0.86574 -0.30419,-0.21513 z m 18.04746,-0.54653 -1.09445,-1.09445 2.44445,-1.71666 c 1.34444,-0.94417 2.44444,-1.79087 2.44444,-1.88156 0,-0.0907 -1.11287,0.54845 -2.47305,1.4203 -2.38811,1.53074 -3.92451,2.13863 -2.80602,1.11023 0.71547,-0.65784 19.16036,-12.46935 20.83635,-13.34293 1.76368,-0.91928 2.57559,-0.65699 0.99754,0.32226 -0.66494,0.41263 -2.00274,1.49127 -2.97288,2.39697 -0.97014,0.9057 -2.24014,1.8926 -2.82222,2.19311 -1.2643,0.65272 -5.19049,4.00904 -4.9597,4.23982 0.089,0.089 0.98086,-0.34205 1.98184,-0.95796 2.16023,-1.3292 2.63589,-1.25831 0.76793,0.11445 -5.51078,4.04986 -7.49146,5.59559 -7.49146,5.84636 0,0.15952 -0.26852,0.26799 -0.59672,0.24104 -0.3282,-0.0269 -0.78439,0.31819 -1.01375,0.76698 -0.22937,0.44879 -0.55615,0.82163 -0.72619,0.82854 -0.17005,0.007 -0.55948,0.14652 -0.86542,0.31025 -0.39907,0.21358 -0.86548,-0.0115 -1.65069,-0.79675 z m 8.55581,-7.47897 c 0.96952,-0.69507 1.58624,-1.26377 1.37049,-1.26377 -0.21575,0 -0.77086,0.28762 -1.23359,0.63914 -0.46273,0.35153 -1.58718,1.06779 -2.49879,1.59169 -0.9116,0.5239 -1.76163,1.12111 -1.88896,1.32712 -0.33663,0.54467 2.20263,-0.82576 4.25085,-2.29418 z m -42.50859,7.0429 c -4.211,-0.45736 -3.87637,-0.65889 2.06585,-1.24409 4.89432,-0.48201 5.59698,-0.47319 5.06026,0.0635 -0.23283,0.23284 -0.42333,0.70909 -0.42333,1.05834 0,0.74383 -0.83874,0.75912 -6.70278,0.12222 z m 7.48383,-0.39485 c 1.25998,-4.49723 1.49741,-4.98686 2.90834,-5.99768 2.142,-1.53457 2.66061,-2.02611 2.66061,-2.52171 0,-0.24792 0.13654,-0.45076 0.30343,-0.45076 0.16688,0 0.85643,-0.51594 1.53233,-1.14653 0.67589,-0.63059 2.14864,-1.6209 3.27277,-2.20068 2.49641,-1.28756 4.54991,-2.98871 3.61793,-2.99716 -0.34218,-0.003 -0.89781,0.14376 -1.23472,0.32635 -1.36839,0.7416 -6.87731,3.1958 -7.17357,3.1958 -1.00958,0 0.46946,-1.31094 3.04521,-2.69909 3.30211,-1.77962 9.5342,-5.42103 11.16934,-6.52625 1.10501,-0.7469 2.16171,-1.358 2.34822,-1.358 0.18651,0 0.25609,-0.3175 0.15461,-0.70555 -0.10148,-0.38806 -0.29583,-0.70556 -0.43187,-0.70556 -0.27535,0 -9.2043,4.51053 -14.66341,7.40733 -1.94027,1.02959 -3.96852,1.92464 -4.50722,1.98902 -0.87948,0.1051 -0.94122,0.0456 -0.60495,-0.58271 0.20597,-0.38486 0.68641,-0.69975 1.06764,-0.69975 0.38123,0 0.69314,-0.13327 0.69314,-0.29615 0,-0.16288 0.35719,-0.47403 0.79375,-0.69143 2.09473,-1.04314 13.31737,-7.5132 13.31737,-7.67771 0,-0.0726 -0.27782,-0.0342 -0.61737,0.0852 -0.47846,0.16836 -0.52637,0.11853 -0.21292,-0.22148 0.25734,-0.27915 0.33615,-1.19173 0.2167,-2.50909 -0.17946,-1.97906 0.33329,-4.21159 0.96728,-4.21159 0.14746,0 0.44386,0.67469 0.65867,1.49931 0.21482,0.82461 0.54542,1.73743 0.73468,2.02847 0.3035,0.46673 0.41148,0.4618 0.91515,-0.0417 0.52614,-0.526 0.65104,-0.4978 1.58875,0.35866 0.78996,0.72152 0.96801,1.12559 0.79558,1.80561 -0.12217,0.48183 -0.36976,0.97385 -0.55018,1.09336 -0.19281,0.12772 -0.1433,0.51313 0.1201,0.93489 0.44562,0.71356 0.4562,0.71254 1.8846,-0.18183 0.79005,-0.49468 1.48937,-1.03445 1.55405,-1.19948 0.0647,-0.16502 0.3028,-0.30078 0.52916,-0.30168 0.22637,-8.8e-4 0.88783,-0.44605 1.46991,-0.98924 0.58209,-0.54318 1.67746,-1.40671 2.43416,-1.91895 l 1.37583,-0.93135 0.67557,0.85885 c 0.37156,0.47236 0.57651,1.01913 0.45544,1.21503 -0.12108,0.1959 0.0459,0.35618 0.37099,0.35618 0.39304,0 0.53612,0.21038 0.42697,0.62778 -0.16185,0.6189 0.54182,1.61691 0.89266,1.26607 0.0992,-0.0992 0.28674,0.34688 0.41671,0.99134 0.12996,0.64447 0.30845,1.43048 0.39665,1.74669 0.18662,0.66908 -1.36392,1.38082 -4.55066,2.08888 -1.12452,0.24985 -2.10905,0.5586 -2.18785,0.68609 -0.23865,0.38614 0.23346,1.76537 0.60428,1.76537 0.19058,0 0.84675,0.22006 1.45816,0.48901 2.92457,1.28649 5.20617,2.0415 5.65214,1.87037 0.27046,-0.10379 0.70793,-0.6771 0.97216,-1.27404 0.68128,-1.53913 1.05976,-1.3442 0.80378,0.41397 -0.32218,2.21282 -1.26101,3.84202 -2.86844,4.97773 -2.75352,1.94548 -6.53488,1.50015 -9.90905,-1.16698 l -1.68412,-1.33121 -9.848,5.79584 c -14.11757,8.30861 -14.44038,8.48266 -14.21049,7.66213 z m 26.55922,-21.6317 c 0,-1.0407 -1.02488,-1.80051 -1.62251,-1.20288 -0.23762,0.23762 -0.30994,0.79482 -0.17363,1.33789 0.31426,1.25212 1.79614,1.14073 1.79614,-0.13501 z m -5.47332,-4.2555 c 0.48217,-0.37047 0.75517,-0.79509 0.60667,-0.94359 -0.1485,-0.1485 -0.69815,0.15814 -1.22144,0.68143 -1.09166,1.09166 -0.68856,1.26356 0.61477,0.26216 z m -6.34473,23.97348 c -1.71515,-0.45672 -2.13079,-0.67922 -1.64921,-0.88282 0.73965,-0.31271 2.92142,0.26015 3.94904,1.03688 0.84766,0.64072 0.62999,0.62614 -2.29983,-0.15406 z m -21.13687,-6.70365 c 0.44003,-0.6791 0.81975,-1.26916 0.84383,-1.31125 0.0241,-0.0421 0.51205,0.0633 1.08438,0.23426 0.87032,0.25993 0.91071,0.31575 0.24685,0.34111 -0.43656,0.0167 -0.8775,0.0266 -0.97986,0.022 -0.10237,-0.005 -0.59317,0.43196 -1.09068,0.97014 l -0.90457,0.9785 z m 63.59585,-0.92671 c -0.22194,-0.091 -0.31898,-0.48876 -0.21564,-0.88392 0.14342,-0.54845 0.25849,-0.60706 0.48631,-0.24767 0.21596,0.3407 0.29993,0.25893 0.30383,-0.29589 0.008,-1.11265 -1.67778,-2.94145 -3.42253,-3.71324 -0.83102,-0.3676 -1.51097,-0.70063 -1.511,-0.74005 -1.3e-4,-0.18842 3.80271,0.027 4.51561,0.25581 0.76454,0.24538 0.8075,0.42169 0.74408,3.05326 -0.037,1.53607 -0.16403,2.78032 -0.28223,2.765 -0.1182,-0.0153 -0.3965,-0.1023 -0.61843,-0.1933 z m -53.04285,-2.05554 c 0.94338,-0.52209 1.27303,-0.47191 0.89698,0.13655 -0.12789,0.20694 -0.58035,0.37063 -1.00546,0.36375 -0.74539,-0.012 -0.74153,-0.0299 0.10848,-0.5003 z m 33.95616,-8.13025 c 0.004,-0.77611 0.0762,-1.05208 0.16055,-0.61325 0.0844,0.43882 0.0812,1.07382 -0.007,1.41111 -0.0883,0.33729 -0.15733,-0.0217 -0.15342,-0.79786 z m -2.07844,-4.59463 c -0.41511,-1.25649 -0.69758,-2.28454 -0.62769,-2.28454 0.20438,0 1.91162,3.73237 1.91162,4.17918 0,1.05885 -0.60133,0.1715 -1.28393,-1.89464 z"
         id="path5403" />
      <path
         style="fill:#3b4350;stroke-width:0.352778"
         d="m -572.28913,-246.89773 c -0.82462,-0.49423 -1.49931,-0.9602 -1.49931,-1.03548 0,-0.12921 3.89009,1.55189 4.20394,1.81672 0.0808,0.0682 -0.15729,0.12253 -0.52917,0.1207 -0.37189,-0.002 -1.35085,-0.40771 -2.17546,-0.90194 z m 6.68608,-0.1014 c -0.3633,-0.23046 -0.33969,-0.38824 0.11446,-0.76516 0.31468,-0.26115 0.94774,-1.19964 1.40681,-2.08552 l 0.83468,-1.6107 -0.1847,1.41111 c -0.37445,2.86084 -1.02629,3.77657 -2.17125,3.05027 z m -5.71595,-1.95531 c -3.7671,-1.36426 -3.62831,-1.2768 -3.06625,-1.9323 0.27059,-0.31557 0.85235,-1.23074 1.29278,-2.0337 l 0.8008,-1.45993 3.22037,1.06873 c 1.77119,0.5878 3.2757,1.1149 3.34334,1.17134 0.24893,0.2077 -2.4983,4.03093 -2.89131,4.02374 -0.22367,-0.004 -1.43855,-0.38114 -2.69973,-0.83788 z m 2.49264,-1.28376 c 0.92351,-0.49425 0.85877,-1.26685 -0.16222,-1.93583 -1.18438,-0.77603 -2.68319,-0.36589 -2.68319,0.73424 0,1.30499 1.48246,1.93102 2.84541,1.20159 z m -10.77753,-3.07439 c -1.60463,-2.04401 -1.75923,-2.41922 -1.39156,-3.37736 0.16994,-0.44286 0.68776,-0.3615 3.3219,0.52194 l 3.12057,1.04659 -1.11704,1.91169 c -0.66506,1.13819 -1.36474,1.91452 -1.72923,1.91865 -0.33672,0.004 -1.3288,-0.90585 -2.20464,-2.02151 z m 2.92267,-0.15875 c 0.71087,-0.71087 0.48173,-1.68859 -0.48158,-2.05484 -2.22311,-0.84523 -3.5109,0.0212 -2.44634,1.64593 0.59814,0.91289 2.2002,1.13663 2.92792,0.40891 z m 8.71361,-1.6704 c -1.74625,-0.54639 -3.13634,-1.09315 -3.08909,-1.21503 0.26867,-0.69303 2.30231,-4.09957 2.44737,-4.09957 0.0951,0 -0.23757,0.73437 -0.73923,1.63193 -0.50166,0.89757 -0.9121,1.84369 -0.9121,2.10249 0,0.46597 4.01555,1.91002 5.3113,1.91002 0.35797,0 0.81267,-0.27781 1.01044,-0.61736 0.47328,-0.81257 0.48743,-0.2406 0.0158,0.64055 -0.44484,0.83119 -0.18821,0.85359 -4.04453,-0.35303 z m -8.64305,-2.7225 c -1.45521,-0.47637 -2.77707,-0.99676 -2.93746,-1.15643 -0.1604,-0.15967 0.19908,-1.26239 0.79883,-2.45049 1.11494,-2.2087 1.55512,-2.46792 3.02057,-1.77882 0.53352,0.25088 0.39469,0.28614 -0.56936,0.14461 -1.23952,-0.18196 -1.29507,-0.14061 -2.0004,1.48881 -0.45325,1.04706 -0.61516,1.8731 -0.43149,2.2013 0.1617,0.28894 1.34631,0.86659 2.63247,1.28367 l 2.33848,0.75832 0.52351,-1.01237 c 0.74647,-1.4435 0.96325,-1.25664 0.25797,0.22235 -0.32384,0.6791 -0.67846,1.21907 -0.78804,1.19994 -0.10959,-0.0191 -1.38987,-0.42453 -2.84508,-0.90089 z m -7.24798,-2.75246 c -0.47625,-0.47625 -0.86591,-1.06719 -0.86591,-1.31321 0,-0.24602 0.23214,-0.11588 0.51588,0.28921 0.81833,1.16834 1.98974,0.86372 2.90683,-0.75592 0.43946,-0.77611 0.80163,-1.50721 0.80482,-1.62466 0.003,-0.11745 -0.51014,-0.3895 -1.14073,-0.60454 l -1.14652,-0.391 1.23472,0.20478 c 0.6791,0.11263 1.29451,0.25926 1.36759,0.32584 0.29753,0.27109 -1.91234,4.73541 -2.34407,4.73541 -0.25669,0 -0.85636,-0.38966 -1.33261,-0.86591 z m 12.01048,-0.19242 c 0.50399,-0.97461 0.50005,-1.05833 -0.0497,-1.05833 -0.32836,0 -0.49803,-0.099 -0.37705,-0.21997 0.12098,-0.12099 0.47049,-0.12384 0.77669,-0.006 0.50553,0.19399 0.5061,0.31151 0.006,1.2783 -0.30281,0.58557 -0.62993,1.06467 -0.72695,1.06467 -0.097,0 0.0699,-0.47625 0.3709,-1.05833 z m 5.82083,0.70556 c -0.45223,-0.29226 -0.4394,-0.34276 0.0882,-0.34738 0.33954,-0.003 0.61736,0.15335 0.61736,0.34738 0,0.43025 -0.0398,0.43025 -0.70556,0 z m -2.11667,-0.70556 c -0.64486,-0.41674 -0.0879,-0.41674 0.88195,0 0.46522,0.19991 0.52531,0.30979 0.17639,0.32258 -0.29104,0.0106 -0.76729,-0.13449 -1.05834,-0.32258 z m 6.05264,-1.52904 c -0.41946,-1.01204 -1.39279,-2.78858 -2.16295,-3.94787 -0.77016,-1.1593 -1.40478,-2.23044 -1.41027,-2.38032 -0.005,-0.14988 1.37909,-1.16293 3.07683,-2.25122 1.69775,-1.08829 4.25105,-2.7516 5.674,-3.69624 1.42296,-0.94464 2.70795,-1.71753 2.85555,-1.71753 0.14759,0 0.7296,-0.40652 1.29336,-0.90338 1.57976,-1.3923 3.6876,-2.39598 4.1212,-1.96238 0.25336,0.25336 0.22502,0.53678 -0.0919,0.91861 -0.3881,0.46762 -0.3696,0.51816 0.12078,0.32998 0.38322,-0.14705 0.57907,-0.0375 0.57907,0.32388 0,0.83453 0.48129,0.95549 1.56492,0.39329 1.23512,-0.64079 1.28378,-0.63782 1.01525,0.0619 -0.18946,0.49374 -0.0818,0.48256 0.77791,-0.0807 0.75581,-0.49523 1.03447,-0.54386 1.14892,-0.2005 0.0831,0.24931 0.45419,0.73567 0.82463,1.08079 0.66242,0.61713 0.66182,0.63809 -0.036,1.26961 -0.39024,0.35316 -0.7182,0.81594 -0.72879,1.02841 -0.0164,0.32962 -9.51708,7.60244 -15.88767,12.16212 l -1.97221,1.41159 z m 13.6425,-13.6404 c 0.80072,0 0.28575,-1.1386 -0.67453,-1.49141 -0.30722,-0.11287 -0.57321,-0.0219 -0.59112,0.20212 -0.0179,0.22404 -0.13278,0.8767 -0.2553,1.45036 -0.21432,1.00353 -0.19757,1.02023 0.4425,0.44097 0.36589,-0.33112 0.8512,-0.60204 1.07845,-0.60204 z m 4.53036,-0.93932 c -0.10432,-0.10432 -0.37593,-0.0745 -0.60358,0.0661 -0.30689,0.18968 -0.29016,0.3327 0.0647,0.55319 0.4704,0.29226 0.92638,-0.2318 0.53885,-0.61933 z m -30.39911,14.34487 c -0.44472,-0.19111 -0.50993,-0.30319 -0.17639,-0.30319 0.29105,0 0.84667,0.13644 1.23473,0.30319 0.44472,0.19111 0.50993,0.30319 0.17639,0.30319 -0.29105,0 -0.84667,-0.13643 -1.23473,-0.30319 z m 3.70417,-1.54975 c 0,-0.0763 0.23812,-0.23003 0.52917,-0.34171 0.29104,-0.11168 0.52916,-0.0493 0.52916,0.13864 0,0.18794 -0.23812,0.34171 -0.52916,0.34171 -0.29105,0 -0.52917,-0.0624 -0.52917,-0.13864 z m -1.94028,-0.56691 c -0.44472,-0.19111 -0.50993,-0.30319 -0.17639,-0.30319 0.29104,0 0.84667,0.13643 1.23473,0.30319 0.44472,0.1911 0.50993,0.30318 0.17638,0.30318 -0.29104,0 -0.84666,-0.13643 -1.23472,-0.30318 z m -11.17864,-0.59377 c 0.25466,-0.10191 0.55893,-0.0894 0.67615,0.0278 0.11723,0.11722 -0.0911,0.2006 -0.46302,0.18528 -0.41096,-0.0169 -0.49456,-0.10052 -0.21313,-0.21313 z m -1.41111,-0.35278 c 0.25466,-0.1019 0.55893,-0.0894 0.67615,0.0278 0.11723,0.11722 -0.0911,0.2006 -0.46302,0.18528 -0.41096,-0.0169 -0.49456,-0.10052 -0.21313,-0.21313 z m 9.52499,0 c 0.25467,-0.1019 0.55894,-0.0894 0.67616,0.0278 0.11723,0.11722 -0.0911,0.2006 -0.46302,0.18528 -0.41096,-0.0169 -0.49456,-0.10052 -0.21314,-0.21313 z m -5.04913,-1.20034 c -0.57085,-0.26975 -0.51318,-0.29561 0.30209,-0.13546 0.71725,0.1409 1.15495,0.0154 1.51877,-0.43555 0.46877,-0.58101 0.47925,-0.56773 0.12647,0.16026 -0.4121,0.85038 -0.83029,0.9386 -1.94733,0.41075 z m 4.40973,0.051 c 0,-0.18258 0.15693,-0.42895 0.34873,-0.54749 0.19998,-0.12359 0.25912,0.018 0.13865,0.33196 -0.23453,0.61116 -0.48738,0.72298 -0.48738,0.21553 z m -7.30655,-0.76476 c -0.87774,-0.25375 -1.07875,-0.46511 -0.89237,-0.93832 0.20795,-0.52796 0.25592,-0.53503 0.35376,-0.0521 0.0622,0.30729 0.70194,0.72379 1.42153,0.92557 0.71959,0.20176 1.07022,0.37259 0.77918,0.37961 -0.29104,0.007 -1.03899,-0.13462 -1.6621,-0.31476 z m -2.54338,-3.69518 c 0.0169,-0.41097 0.10052,-0.49456 0.21313,-0.21314 0.10191,0.25466 0.0894,0.55893 -0.0279,0.67616 -0.11722,0.11722 -0.2006,-0.0911 -0.18528,-0.46302 z m 17.99871,-0.28624 -0.77651,-0.82655 1.87011,-1.26892 c 1.02857,-0.6979 2.56869,-1.7506 3.42251,-2.33932 1.70892,-1.17834 2.15177,-1.30318 2.15177,-0.60658 0,0.25511 -0.55562,0.72879 -1.23472,1.05263 -1.46824,0.70015 -1.71348,1.50111 -0.26458,0.86414 0.53357,-0.23457 1.58927,-0.86617 2.34598,-1.40354 0.75672,-0.53738 1.54254,-0.97706 1.74628,-0.97706 0.36652,0 -2.51219,2.18895 -5.23908,3.98375 -0.77595,0.51073 -1.82357,1.24795 -2.32804,1.63829 l -0.91722,0.70971 z m -33.54878,-0.36953 c -3.05373,-0.32838 -3.48518,-0.44288 -2.45704,-0.65209 1.72131,-0.35027 8.86896,-1.01147 9.04382,-0.83661 0.0783,0.0783 -0.0478,0.5598 -0.2802,1.06994 -0.48025,1.05403 -0.4299,1.05069 -6.30658,0.41876 z m 31.94402,-1.57191 c 0.57036,-0.53914 6.50875,-4.28361 6.50875,-4.1041 0,0.22479 -6.24866,4.4209 -6.58341,4.4209 -0.14326,0 -0.10966,-0.14256 0.0747,-0.3168 z m -8.83458,-0.7375 c -0.12359,-0.19997 0.018,-0.25911 0.33195,-0.13864 0.61116,0.23452 0.72298,0.48738 0.21554,0.48738 -0.18258,0 -0.42895,-0.15693 -0.54749,-0.34874 z m -3.17394,-0.71534 c 0.12187,-0.1972 0.36936,-0.26721 0.54998,-0.15557 0.48932,0.30241 0.39808,0.5141 -0.22158,0.5141 -0.30249,0 -0.45028,-0.16134 -0.3284,-0.35853 z m -6.24773,-1.12314 c 0.23284,-0.23283 0.42334,-0.79783 0.42334,-1.25554 0,-0.45855 0.15658,-0.73544 0.34873,-0.61668 0.19692,0.1217 0.26086,-0.0135 0.14687,-0.31053 -0.11878,-0.30954 0.10068,-0.71501 0.53321,-0.98513 0.40429,-0.25248 0.73508,-0.59906 0.73508,-0.77017 0,-0.17112 -0.23813,-0.11349 -0.52917,0.12805 -0.29104,0.24154 -0.52412,0.30067 -0.51795,0.13139 0.0185,-0.5064 1.04813,-1.71534 1.50447,-1.76639 0.23352,-0.0261 0.74209,-0.0784 1.13015,-0.11605 0.43814,-0.0426 0.52904,-0.1391 0.23983,-0.25472 -0.33922,-0.13562 -0.26718,-0.32525 0.2652,-0.69815 0.40201,-0.28157 0.87843,-0.42079 1.05871,-0.30937 0.18028,0.11142 0.44265,0.0167 0.58305,-0.21046 0.17018,-0.27536 0.10134,-0.31791 -0.20652,-0.12764 -0.30556,0.18885 -0.37663,0.14762 -0.21007,-0.12188 0.13844,-0.22401 0.40777,-0.40728 0.5985,-0.40728 0.80796,0 3.4329,-2.31936 3.37546,-2.98251 -0.0372,-0.42921 0.2894,-0.86106 0.86522,-1.14411 1.57858,-0.77597 1.87023,-1.36849 1.06834,-2.17038 -0.38487,-0.38487 -0.79237,-0.60716 -0.90555,-0.49398 -0.11318,0.11319 -0.20579,0.0945 -0.20579,-0.0415 0,-0.32269 5.35061,-3.75076 5.85435,-3.75082 0.21247,-3e-5 0.67363,-0.31755 1.02482,-0.7056 0.81363,-0.89905 1.21988,-0.90139 0.98564,-0.006 -0.10066,0.38495 -0.0802,1.10963 0.0455,1.61041 0.26372,1.05074 1.46187,1.09859 2.09793,0.0838 0.30373,-0.48457 0.17288,-0.81957 -0.65941,-1.6883 -1.02956,-1.07463 -1.03171,-1.0855 -0.25468,-1.2887 0.431,-0.11271 0.78363,-0.34516 0.78363,-0.51656 0,-0.35772 1.08859,-0.41325 1.91143,-0.0975 0.30691,0.11777 0.55802,0.36527 0.55802,0.54999 0,0.18472 -0.18328,0.22258 -0.40729,0.0841 -0.25234,-0.15596 -0.31152,-0.0968 -0.15557,0.15557 0.13845,0.224 0.46495,0.40728 0.72555,0.40728 0.26061,0 0.63986,0.47625 0.84278,1.05833 0.20404,0.58531 0.62296,1.05834 0.93727,1.05834 0.93009,0 0.26156,0.62294 -1.15391,1.07521 -1.83948,0.58775 -1.96181,0.78453 -1.25419,2.01748 0.3983,0.69399 1.34974,1.43361 2.6335,2.04719 1.10545,0.52836 2.08376,1.24303 2.17401,1.58816 0.10682,0.40847 0.006,0.56675 -0.28945,0.45346 -0.53743,-0.20623 -1.10664,0.5578 -0.65832,0.88363 0.42677,0.31017 0.48455,1.45987 0.0734,1.45987 -0.18392,0 -0.24515,0.14442 -0.13605,0.32094 0.10909,0.17652 0.0959,0.58803 -0.0294,0.91447 -0.18769,0.48912 -0.51155,0.55097 -1.84104,0.3516 -1.84018,-0.27596 -3.3073,-0.96848 -5.12873,-2.42093 l -1.26697,-1.01031 -8.76749,5.15544 c -8.21776,4.83219 -9.97706,5.76276 -8.94643,4.73212 z m -1.1189,-0.56177 c -0.095,-0.15375 0.13716,-0.30289 0.51597,-0.33142 0.3788,-0.0285 0.59656,0.0973 0.4839,0.27954 -0.24996,0.40445 -0.76544,0.4312 -0.99987,0.0519 z m 46.22647,-0.69059 c -0.0881,-0.14552 0.0512,-0.45984 0.3095,-0.69849 0.37956,-0.35064 0.45959,-0.29987 0.41707,0.26459 -0.0529,0.70216 -0.4284,0.92641 -0.72657,0.4339 z m -1.29257,-1.13412 c 0,-0.3025 1.09867,-1.07074 1.53128,-1.07074 0.0916,0 0.0835,0.3175 -0.018,0.70555 -0.18301,0.69985 -1.51333,1.02088 -1.51333,0.36519 z m -3.61548,-1.36803 c -0.12574,-0.48083 0.0683,-0.79967 0.64702,-1.06337 1.14555,-0.52195 1.35203,0.0408 0.3577,0.97494 -0.79965,0.75122 -0.83068,0.75395 -1.00472,0.0884 z m 10.89044,-4.57999 c -0.1561,-0.45119 -0.18995,-0.91421 -0.0752,-1.02894 0.3657,-0.36569 0.62275,0.17354 0.48873,1.02523 l -0.12967,0.82404 z m -42.90551,-4.98809 c 0,-0.1872 0.30192,-0.50194 0.67093,-0.69943 0.57069,-0.30543 0.6436,-0.25458 0.48802,0.34036 -0.18289,0.69936 -1.15895,1.00177 -1.15895,0.35907 z m 15.875,-4.9513 c 0,-0.19403 0.16812,-0.35278 0.3736,-0.35278 0.20547,0 0.27548,0.15875 0.15556,0.35278 -0.11991,0.19403 -0.28803,0.35278 -0.37359,0.35278 -0.0856,0 -0.15557,-0.15875 -0.15557,-0.35278 z m -12.34722,-0.49142 c 0,-0.0763 0.24637,-0.23319 0.54748,-0.34874 0.31395,-0.12047 0.45555,-0.0613 0.33196,0.13865 -0.20717,0.33521 -0.87944,0.49581 -0.87944,0.21009 z m 2.38125,-1.35025 c 0.43656,-0.21055 0.79375,-0.528 0.79375,-0.70545 0,-0.35985 -1.40098,-0.0173 -1.92264,0.47011 -0.18433,0.17222 -0.58121,0.31253 -0.88195,0.3118 -0.30074,-7.4e-4 0.009,-0.33489 0.68792,-0.74259 1.92425,-1.15524 2.79588,-2.08566 2.56053,-2.73322 -0.17399,-0.47875 -0.0765,-0.46188 0.55964,0.0967 0.52392,0.46012 0.70261,0.91153 0.55858,1.41111 -0.2578,0.89417 -1.89261,2.32686 -2.62042,2.29643 -0.32704,-0.0137 -0.22598,-0.16834 0.26459,-0.40493 z m -2.49907,-1.42152 c 0.15213,-0.24254 0.23071,-0.71987 0.17462,-1.06074 -0.1362,-0.82778 0.85208,-1.16758 1.50292,-0.51675 0.4575,0.45751 0.42429,0.60898 -0.27826,1.26899 -0.8705,0.81779 -1.85486,1.03481 -1.39928,0.3085 z"
         id="path5401" />
      <path
         style="fill:#353b45;stroke-width:0.352778"
         d="m -572.28913,-246.89773 c -1.75512,-1.05192 -2.02709,-1.51749 -0.35278,-0.60391 0.63059,0.34409 1.62278,0.81233 2.20486,1.04056 0.79111,0.31017 0.88018,0.42088 0.35278,0.43845 -0.38806,0.0129 -1.38025,-0.38087 -2.20486,-0.8751 z m 6.75471,-0.0703 c -0.25768,-0.17167 -0.0951,-0.55697 0.48143,-1.14113 l 0.87047,-0.88194 -0.6102,0.97013 c -0.63181,1.0045 -0.33524,1.30065 0.5299,0.52917 0.4207,-0.37515 0.42479,-0.34881 0.0274,0.17639 -0.51375,0.67893 -0.71893,0.7338 -1.29897,0.34738 z m -5.9486,-2.04153 c -1.35139,-0.48072 -2.62139,-1.04984 -2.82222,-1.26472 -0.26546,-0.28404 -0.17254,-0.29548 0.34041,-0.0419 0.38806,0.19183 1.71944,0.6948 2.95863,1.11772 l 2.25308,0.76893 0.89359,-0.80995 0.8936,-0.80995 -0.67723,0.95906 c -0.37247,0.52747 -0.83597,0.9581 -1.03,0.95695 -0.19403,-0.001 -1.45847,-0.39542 -2.80986,-0.87613 z m 7.47753,-0.89177 c 0.12475,-0.47702 0.28466,-0.63694 0.37273,-0.37272 0.0848,0.2545 -0.0135,0.63047 -0.21848,0.83547 -0.26178,0.26178 -0.30769,0.12405 -0.15425,-0.46275 z m -2.72739,-1.03005 c 0.20768,-0.38806 0.45697,-0.70556 0.55399,-0.70556 0.097,0 0.006,0.3175 -0.20122,0.70556 -0.20768,0.38805 -0.45697,0.70555 -0.55399,0.70555 -0.097,0 -0.006,-0.3175 0.20122,-0.70555 z m -7.05556,-0.70556 c 0.20768,-0.38805 0.45698,-0.70555 0.55399,-0.70555 0.097,0 0.006,0.3175 -0.20121,0.70555 -0.20768,0.38806 -0.45698,0.70556 -0.55399,0.70556 -0.097,0 -0.006,-0.3175 0.20121,-0.70556 z m -5.81545,-1.67569 c -0.87584,-1.11566 -1.59156,-2.2666 -1.59049,-2.55764 10e-4,-0.29104 0.23724,-0.0781 0.52481,0.47332 0.63427,1.21611 2.19619,3.12263 2.88646,3.5233 0.30332,0.17606 0.74217,0.10586 1.10272,-0.17639 0.53876,-0.42176 0.55028,-0.40685 0.11473,0.14852 -0.78386,0.9995 -1.3535,0.73492 -3.03823,-1.41111 z m 4.07988,-0.79375 c 0.51429,-1.07987 0.67724,-1.28 0.67724,-0.83178 0,0.18928 -0.24689,0.6523 -0.54863,1.02894 -0.51731,0.64569 -0.52465,0.63443 -0.12861,-0.19716 z m 3.02588,0.15873 c 0.0985,-0.25683 0.40418,-0.38062 0.67916,-0.2751 0.66258,0.25425 0.63139,0.35249 -0.17919,0.56446 -0.46366,0.12125 -0.6223,0.0294 -0.49997,-0.28936 z m 1.7108,-2.27136 c -0.12359,-0.19997 0.018,-0.25911 0.33196,-0.13864 0.61115,0.23452 0.72297,0.48738 0.21553,0.48738 -0.18258,0 -0.42895,-0.15693 -0.54749,-0.34874 z m -10.05667,-0.69852 c 0,-0.18794 0.23813,-0.25033 0.52917,-0.13865 0.29104,0.11169 0.52917,0.26545 0.52917,0.34171 0,0.0763 -0.23813,0.13864 -0.52917,0.13864 -0.29104,0 -0.52917,-0.15376 -0.52917,-0.3417 z m 1.23722,-2.1237 c -0.12359,-0.19998 0.018,-0.25912 0.33196,-0.13865 0.61116,0.23453 0.72298,0.48739 0.21553,0.48739 -0.18257,0 -0.42894,-0.15694 -0.54749,-0.34874 z m -2.82472,-1.06237 c 0.11992,-0.19403 0.28804,-0.35278 0.3736,-0.35278 0.0856,0 0.15557,0.15875 0.15557,0.35278 0,0.19402 -0.16812,0.35277 -0.3736,0.35277 -0.20548,0 -0.27548,-0.15875 -0.15557,-0.35277 z m -1.40861,-0.34874 c -0.12359,-0.19998 0.018,-0.25912 0.33196,-0.13865 0.61116,0.23453 0.72298,0.48739 0.21553,0.48739 -0.18258,0 -0.42895,-0.15694 -0.54749,-0.34874 z m 21.59947,-2.34929 c -0.79087,-1.63423 -0.88497,-2.0901 -0.52337,-2.53549 0.3708,-0.45675 0.34275,-0.50627 -0.17651,-0.31166 -0.33955,0.12725 -0.61736,0.1137 -0.61736,-0.0301 0,-0.21323 1.10067,-0.87393 2.91041,-1.74703 0.14552,-0.0702 0.26459,0.0405 0.26459,0.24595 0,0.20547 -0.23813,0.37359 -0.52917,0.37359 -0.29104,0 -0.52917,0.15875 -0.52917,0.35278 0,0.63095 0.50206,0.36916 2.05116,-1.06952 0.8371,-0.77744 1.67447,-1.31928 1.86083,-1.20411 0.18635,0.11518 0.2952,0.0135 0.24189,-0.22601 -0.0533,-0.23948 0.94553,-1.00534 2.21965,-1.70191 1.27412,-0.69658 2.68234,-1.48078 3.12938,-1.74267 0.4639,-0.27178 0.70915,-0.30847 0.57134,-0.0855 -0.29783,0.4819 0.61206,1.4436 1.36583,1.4436 0.78869,0 0.68583,0.54838 -0.24334,1.29731 -0.43874,0.35363 -0.95468,0.99604 -1.14653,1.42757 -0.29532,0.66429 -9.13138,7.50569 -9.694,7.50569 -0.10527,0 -0.6253,-0.89661 -1.15563,-1.99247 z m 9.12665,-5.21785 c -0.11876,-0.47318 -0.0566,-0.9588 0.13814,-1.07916 0.5324,-0.32904 0.42551,-1.23552 -0.14569,-1.23552 -0.27487,0 -0.56636,-0.11906 -0.64774,-0.26458 -0.0814,-0.14552 -0.0973,-0.0601 -0.0353,0.18974 0.0619,0.24988 -0.0964,0.53452 -0.3518,0.63254 -0.48027,0.18429 -0.65952,1.20619 -0.21159,1.20619 0.13906,0 0.33586,0.3175 0.43734,0.70556 0.10148,0.38805 0.37533,0.70555 0.60856,0.70555 0.27332,0 0.34729,-0.3058 0.20812,-0.86032 z m -12.03335,0.1526 c -0.35227,-0.38924 -0.57531,-0.75479 -0.49565,-0.81232 1.96414,-1.4187 3.13369,-1.31399 1.76253,0.15779 -0.39125,0.41995 -0.6281,0.89826 -0.52635,1.0629 0.33742,0.54596 -0.0904,0.31005 -0.74053,-0.40837 z m 2.11862,-2.46728 c 0.11992,-0.19403 0.45615,-0.35278 0.7472,-0.35278 0.29104,0 0.43105,0.15875 0.31114,0.35278 -0.11992,0.19403 -0.45616,0.35278 -0.7472,0.35278 -0.29104,0 -0.43105,-0.15875 -0.31114,-0.35278 z m 2.29306,-0.35278 c -0.20768,-0.38805 -0.24502,-0.70555 -0.083,-0.70555 0.37508,0 1.1413,0.75788 1.1413,1.12889 0,0.54756 -0.68546,0.27338 -1.05833,-0.42334 z m -7.33778,-0.77611 c -0.68591,-0.68591 -0.48358,-1.15165 0.22266,-0.51252 0.35529,0.32154 0.77762,0.46521 0.9385,0.31926 0.16088,-0.14594 0.17832,-0.0669 0.0388,0.17562 -0.31847,0.5534 -0.65914,0.55841 -1.19991,0.0176 z m -34.90065,-1.23225 c 0.34324,-0.0894 0.81949,-0.0836 1.05834,0.0131 0.23884,0.0966 -0.042,0.16981 -0.62408,0.16262 -0.58208,-0.007 -0.7775,-0.0863 -0.43426,-0.1757 z m 4.66759,-0.1083 -2.46944,-0.17639 2.81398,-0.24343 c 2.97724,-0.25755 3.29429,-0.2229 2.57441,0.28135 -0.24723,0.17317 -1.56075,0.23548 -2.91895,0.13847 z m 28.39862,-0.45928 c 0,-0.0805 0.91281,-0.73231 2.02847,-1.44844 1.11566,-0.71614 1.59434,-0.93303 1.06375,-0.48199 -1.04749,0.89043 -3.09222,2.16693 -3.09222,1.93043 z m -12.67381,-5.80157 c 0.22346,-0.35781 0.7238,-0.67449 1.11186,-0.70372 0.38807,-0.0292 0.64795,-0.0136 0.57751,0.0347 -0.0704,0.0483 -0.57077,0.36499 -1.11186,0.70372 -0.94834,0.59367 -0.96915,0.59242 -0.57751,-0.0347 z m 2.34116,-1.39028 c 0.16155,-0.42101 0.0772,-0.52868 -0.30071,-0.38368 -0.28891,0.11086 0.29805,-0.65532 1.30436,-1.70264 1.0063,-1.04732 2.07888,-1.90422 2.3835,-1.90422 0.30462,0 0.66248,-0.17576 0.79524,-0.39057 0.16098,-0.26047 10e-4,-0.3144 -0.47911,-0.1619 -0.59744,0.18962 -0.68808,0.10474 -0.53072,-0.49702 0.13189,-0.50436 0.66449,-0.84524 1.74621,-1.11762 0.85648,-0.21566 1.71547,-0.68907 1.91007,-1.05268 0.2429,-0.45386 0.23581,-0.66077 -0.0226,-0.66077 -0.20695,0 -0.46764,0.23813 -0.57932,0.52917 -0.11169,0.29104 -0.35042,0.52917 -0.53051,0.52917 -0.18469,0 -0.16283,-0.3076 0.0501,-0.70556 0.20769,-0.38805 0.6945,-0.70555 1.08182,-0.70555 0.38732,0 0.80153,-0.25359 0.92047,-0.56354 0.11893,-0.30994 0.94739,-0.87732 1.84101,-1.26083 2.15055,-0.92294 4.47876,-0.64287 5.04837,0.60728 0.2132,0.46791 0.69013,0.94676 1.05986,1.0641 0.36972,0.11735 0.82188,0.60699 1.00479,1.08808 0.44458,1.16934 0.44052,1.18157 -0.39293,1.18157 -0.71406,0 -0.71545,0.0181 -0.0882,1.14653 0.35052,0.63059 0.79473,1.25898 0.98713,1.39642 0.22245,0.1589 0.18553,0.4142 -0.1014,0.70112 -0.36645,0.36645 -0.80959,0.2636 -2.35865,-0.54744 -1.04908,-0.54926 -2.0538,-0.9082 -2.2327,-0.79763 -0.17891,0.11057 -0.60923,-0.11272 -0.95627,-0.4962 -0.34705,-0.38349 -0.89594,-0.69724 -1.21978,-0.69724 -0.32383,0 -2.45281,1.11415 -4.73107,2.47589 -2.27826,1.36174 -4.31511,2.36909 -4.52633,2.23855 -0.21121,-0.13054 -0.29039,-0.0858 -0.17595,0.0993 0.11444,0.18517 -0.0933,0.52488 -0.46161,0.7549 -0.56939,0.3556 -0.63605,0.33058 -0.4451,-0.16702 z m 5.56765,-3.63372 c 0.12359,-0.19998 -0.018,-0.25912 -0.33196,-0.13865 -0.61116,0.23453 -0.72298,0.48739 -0.21553,0.48739 0.18258,0 0.42895,-0.15694 0.54749,-0.34874 z m 0.67861,-1.64203 c 0.28834,-0.7514 0.16434,-0.84681 -0.77972,-0.59993 -0.42808,0.11195 -0.77834,0.42315 -0.77834,0.69156 0,0.68616 1.28868,0.61037 1.55806,-0.0916 z m -0.69474,-5.74022 c 0.10968,-0.17745 -2e-5,-0.39786 -0.24376,-0.48978 -0.24374,-0.0919 0.14129,-0.42059 0.85562,-0.73035 0.71434,-0.30975 1.3984,-0.72435 1.52013,-0.92132 0.46384,-0.75051 0.85138,-0.317 0.46828,0.52382 -0.22101,0.48507 -0.59505,0.88195 -0.83119,0.88195 -0.23614,0 -0.62697,0.23812 -0.86851,0.52917 -0.47158,0.56821 -1.23186,0.74256 -0.90057,0.20651 z m 6.69357,-1.41048 c 0.74666,-0.82505 0.48417,-1.97278 -0.58164,-2.54318 -0.66391,-0.35531 -0.6791,-0.428 -0.15125,-0.7234 0.61243,-0.34274 1.79929,0.71476 2.74021,2.44154 0.53498,0.9818 0.3993,1.12321 -1.28465,1.3388 -1.31139,0.1679 -1.32854,0.15571 -0.72267,-0.51376 z m -2.47962,-0.93853 c -0.12531,-0.49928 -0.0887,-1.04606 0.0815,-1.21507 0.17681,-0.17567 0.32064,0.21319 0.33578,0.90777 0.0315,1.44616 -0.106,1.54742 -0.41726,0.3073 z m -5.2674,-4.01593 c 0.76842,-0.8491 0.94452,-0.90569 0.68095,-0.21885 -0.10593,0.27604 -0.44923,0.60037 -0.7629,0.72074 -0.46853,0.17979 -0.45391,0.0902 0.0819,-0.50189 z m 3.52119,0.37049 c 0.10873,-0.17593 -0.15971,-0.23038 -0.59654,-0.121 -0.76668,0.19197 -0.77282,0.17456 -0.17688,-0.50165 0.33955,-0.38529 0.61736,-0.92048 0.61736,-1.18932 0,-0.40299 0.091,-0.39774 0.51866,0.0299 0.54258,0.54259 0.37355,2.10198 -0.22785,2.10198 -0.18285,0 -0.24349,-0.14395 -0.13475,-0.31988 z"
         id="path5399" />
      <path
         style="fill:#323338;stroke-width:0.352778"
         d="m -572.28913,-246.89773 c -0.82462,-0.49423 -1.49931,-0.98724 -1.49931,-1.09557 0,-0.10833 0.41192,0.0729 0.91539,0.40282 0.50346,0.32988 1.49565,0.8132 2.20486,1.07405 0.8157,0.30001 1.03024,0.48217 0.58392,0.49578 -0.38806,0.0118 -1.38025,-0.38285 -2.20486,-0.87708 z m 6.83769,-0.0775 c -0.0942,-0.15245 0.12288,-0.27718 0.48244,-0.27718 0.35957,0 0.57667,0.12473 0.48245,0.27718 -0.0942,0.15245 -0.31132,0.27718 -0.48245,0.27718 -0.17112,0 -0.38822,-0.12473 -0.48244,-0.27718 z m -3.46426,-1.37492 c 0.25466,-0.1019 0.55893,-0.0894 0.67616,0.0278 0.11723,0.11722 -0.0911,0.2006 -0.46302,0.18528 -0.41097,-0.0169 -0.49456,-0.10052 -0.21314,-0.21313 z m -3.81441,-1.17012 c -0.29104,-0.18809 -0.37041,-0.34197 -0.17639,-0.34197 0.19403,0 0.59091,0.15388 0.88195,0.34197 0.29104,0.18809 0.37042,0.34197 0.17639,0.34197 -0.19403,0 -0.59091,-0.15388 -0.88195,-0.34197 z m -1.585,-0.70152 c -0.12359,-0.19997 0.018,-0.25911 0.33196,-0.13864 0.61116,0.23452 0.72298,0.48738 0.21553,0.48738 -0.18258,0 -0.42895,-0.15693 -0.54749,-0.34874 z m -4.43892,-2.03251 -0.85524,-0.97014 0.88194,0.74885 c 0.48507,0.41187 1.12007,0.8359 1.41111,0.94229 0.45313,0.16564 0.44929,0.19744 -0.0267,0.22129 -0.30573,0.0153 -0.94073,-0.40871 -1.41111,-0.94229 z m -5.08608,-8.19804 c -0.12359,-0.19998 0.018,-0.25912 0.33196,-0.13865 0.61116,0.23453 0.72298,0.48739 0.21553,0.48739 -0.18258,0 -0.42895,-0.15694 -0.54749,-0.34874 z m 21.84629,-2.16696 c -0.49827,-0.98329 -0.8276,-1.86614 -0.73185,-1.96189 0.0958,-0.0958 0.428,0.31691 0.73833,0.91702 0.54342,1.05085 1.25168,1.46864 1.25168,0.73834 0,-0.19402 0.21987,-0.35277 0.48859,-0.35277 0.26873,0 0.75766,-0.41065 1.08652,-0.91256 0.32886,-0.5019 0.6897,-0.82078 0.80187,-0.70861 0.11216,0.11216 0.42061,0.0241 0.68544,-0.19568 0.38088,-0.3161 0.43475,-0.27776 0.25776,0.18345 -0.17071,0.44486 -0.0793,0.52763 0.38574,0.34918 0.54373,-0.20864 0.56062,-0.14256 0.15656,0.61242 -0.27262,0.50941 -0.51131,0.67114 -0.5996,0.40627 -0.1843,-0.55288 -1.02232,-0.57312 -1.35629,-0.0327 -0.16656,0.26949 -0.0955,0.31073 0.21007,0.12188 0.30787,-0.19027 0.3767,-0.14772 0.20652,0.12763 -0.14039,0.22717 -0.38506,0.33283 -0.5437,0.23478 -0.15863,-0.098 -0.45167,0.0184 -0.65118,0.25883 -0.35379,0.42629 -0.42275,0.6353 -0.42275,1.28129 0,0.17327 -0.238,0.40637 -0.52889,0.51799 -0.37261,0.14299 -0.79657,-0.32529 -1.43482,-1.58483 z m 1.25816,-2.07041 c 0,-0.19403 0.15875,-0.35278 0.35278,-0.35278 0.19402,0 0.35277,0.15875 0.35277,0.35278 0,0.19402 -0.15875,0.35277 -0.35277,0.35277 -0.19403,0 -0.35278,-0.15875 -0.35278,-0.35277 z m 1.05833,-0.35278 c 0,-0.19403 0.17819,-0.35278 0.39597,-0.35278 0.28469,0 0.27988,-0.13989 -0.0171,-0.49776 -0.24392,-0.2939 -0.27798,-0.58127 -0.0832,-0.70167 0.18146,-0.11215 0.52611,0.0324 0.76588,0.32137 0.34622,0.41717 0.34556,0.63419 -0.003,1.05445 -0.50195,0.60481 -1.05834,0.69754 -1.05834,0.17639 z m -43.10503,-7.64932 c 0.25466,-0.10191 0.55893,-0.0894 0.67615,0.0278 0.11723,0.11723 -0.0911,0.20061 -0.46302,0.18529 -0.41096,-0.0169 -0.49456,-0.10052 -0.21313,-0.21314 z m 2.91776,-0.23894 c 0.37194,-0.32173 4.91954,-0.52729 4.72567,-0.21361 -0.11583,0.18742 -1.25956,0.34076 -2.54163,0.34076 -1.28206,0 -2.26488,-0.0572 -2.18404,-0.12715 z m 26.42894,-11.67017 c 0,-0.36132 0.62739,-0.8671 1.62051,-1.30641 1.20932,-0.53494 1.57942,-0.87395 1.45857,-1.33606 -0.0959,-0.36686 0.12712,-0.79974 0.54731,-1.06215 0.609,-0.38033 0.67865,-0.36321 0.49277,0.12117 -0.15159,0.39505 -0.0155,0.5641 0.45425,0.5641 0.83328,0 1.34664,-1.37553 0.66953,-1.794 -0.38212,-0.23616 -0.34505,-0.3913 0.18635,-0.77986 1.06033,-0.77534 2.25469,-0.34429 2.53093,0.91341 0.13132,0.5979 0.5768,1.36957 0.98996,1.71481 l 0.75121,0.62772 -0.79375,0.0117 c -0.92043,0.0136 -1.01407,0.59853 -0.26666,1.66561 0.5354,0.76439 0.33475,0.8456 -0.87987,0.3561 -0.29104,-0.11729 -1.36259,-0.47704 -2.38122,-0.79943 -1.7074,-0.5404 -1.92093,-0.54168 -2.73402,-0.0164 -2.88222,1.86192 -2.64587,1.76191 -2.64587,1.11967 z m 4.40722,-2.30975 c 0.12359,-0.19998 -0.018,-0.25912 -0.33195,-0.13865 -0.61116,0.23452 -0.72298,0.48738 -0.21554,0.48738 0.18258,0 0.42895,-0.15693 0.54749,-0.34873 z m 1.51743,-6.46742 c 0.0924,-0.35339 -0.16946,-1.09901 -0.58194,-1.65692 -0.42166,-0.57033 -0.60222,-1.1057 -0.41245,-1.22298 0.35482,-0.2193 2.47807,2.46631 2.47807,3.1344 0,0.21342 -0.37163,0.38804 -0.82585,0.38804 -0.62518,0 -0.78503,-0.15613 -0.65783,-0.64254 z"
         id="path5397" />
    </g>
  </g>
</svg>
