<svg xmlns="http://www.w3.org/2000/svg" width="277.3" height="277.3" viewBox="0 0 73.4 73.4">
  <path d="M44.3 210v-36.7h73.4v73.4H44.3Z" style="fill:#fefefe;stroke-width:.352778" transform="translate(-44.5 -173.2)"/>
  <path d="m48.4 233-.7-2.1c-.6-2-.3-3.5 1.4-6.8l2.5-5.7a55 55 0 0 1 2-4.7c1.1-1.6 4.4-9.4 4.3-9.8a29 29 0 0 1 3.5-7.9c.3-.2.5-1.3.6-3 .3-3.9 1-4.8 3.5-4.6a87 87 0 0 1 26.4 6.3 62.7 62.7 0 0 1 21 14.3c4.5 4.6 4.8 5.2 3.3 7.7-1.6 2.7-3.1 3.7-7 4.7-5.7 1.4-45.3 9.5-51.1 10.5-9 1.5-9.4 1.5-9.7 1z" style="fill:#edcfa9;stroke-width:.352778" transform="translate(-44.5 -173.2)"/>
  <path d="M48.7 233c-.3-.2-.6-1-.8-1.8l-.5-1.7c-.3-.3.7-3 2.7-7.4a128.6 128.6 0 0 0 3.6-8.2c.8-1 4.4-9.4 4.2-9.8a33 33 0 0 1 3.5-8c.3-.3.5-1.5.6-2.9.1-1.3.5-3 .8-3.7l.6-1.1 3 .2c14.2 1 29.2 6.4 39.4 14.2 3.1 2.4 10 9 10.7 10.5.6 1.2.3 2.6-1.3 4.7-1.8 2.5-1.9 2.5-23.1 7l-20 4.2a245.8 245.8 0 0 1-23.4 3.8z" style="fill:#dcb491;stroke-width:.352778" transform="translate(-44.5 -173.2)"/>
  <path d="M48.5 232.5c-.4-.4-.7-1-.7-1.4 0-.5-.1-1-.3-1.3-.3-.6.3-2.8 1.5-5.3.6-1 1.8-3.7 2.7-6.1l2.1-4.7c.7-.8 4.3-9.1 4.2-9.9 0-.8 2.8-7.2 3.4-7.8.2-.2.5-1.5.7-2.9 0-1.4.4-3 .8-3.6.8-1.3 1.5-1.3 8.4-.3 8.4 1.2 18 4 24.3 7.3a63 63 0 0 1 21.2 17.3c.3 1.1-1.3 4.4-2.7 5.5-.7.5-2.3 1.2-3.6 1.6a1555.2 1555.2 0 0 1-58.6 11.8c-2.5.4-2.8.4-3.4-.2z" style="fill:#e5b36a;stroke-width:.352778" transform="translate(-44.5 -173.2)"/>
  <path d="M48.7 232.8c-.7-.6-1.3-3.2-1-4.8.1-.7.7-2.2 1.3-3.3l2.7-6.3a38 38 0 0 1 2-4.5 56 56 0 0 0 4.3-10c0-.9 2.7-7.3 3.4-7.9.2-.2.5-1.4.7-2.7 0-1.4.5-3 .8-3.6.7-1 .7-1 3.3-1 4.9.1 12.5 1.6 18.9 3.7 11 3.5 19.3 8.5 27.4 16.5 3.9 3.9 4.1 4.2 4.1 5.5 0 1.5-1.3 3.8-2.8 5-.5.4-2 1-3.3 1.5A1542.4 1542.4 0 0 1 52 232.7c-2 .3-2.9.4-3.3 0zm55.8-14c-.3-.2-1.3.3-1.3.7 0 .2.3.2.7 0l.6-.6zm2.4.1c.1-.8 0-.8-.4-.3-.3.2-.4.7-.3.9.4.5.5.5.7-.6zm1.6-.2-.6-.7c-.6-.4-.6-.4-.1.2.4.6.7.8.7.5zm1.2-.3c-.5-.8.6-1.3 2.5-1.1 1.3 0 1.6 0 1.3-.2-.7-.5-.5-.6.8-1 1-.1 1-.1.6.4-.6.7.1.7.8 0 .8-.8.7-1.2-.1-1.2-.4 0-.7-.2-.5-.4.2-.4-.1-.4-1 0-1.2.7-1.1.1 0-.6 1.8-1 .8-1.2-2.2-.4-2.5.8-2.8 1-3 1.9-.3.6-.2 1.1 0 1.2.2 0 .3.5.3 1 0 .4.2.8.4.8s.3-.2.1-.4zm1.6-1.7c0-.3.2-.7.4-1.1.4-.8 1-.6.9.3l-.2.9c0 .4-1 .3-1-.1zm-1.9-.4c.1-.2.3-.3.4-.3l.1.3c0 .2-.1.4-.3.4-.2 0-.3-.2-.2-.4zm0-1c.1-.2.5-.4 1-.4.3 0 .5.2.4.4-.1.2-.5.3-1 .3-.3 0-.5-.1-.4-.3z" style="fill:#fec625;stroke-width:.352778" transform="translate(-44.5 -173.2)"/>
  <path d="M48.7 232.8c-.7-.6-1.2-3-1-4.7.2-.7.8-2.4 1.4-3.7l2.8-6.4c1-2.3 1.9-4.1 2-4.1.3 0 1.3.3 2.2.8 2 1 3.5 2.4 4 3.9.5 1.1.6 3.7.2 3.7-.4 0-1.5 2-1.5 2.5 0 .7 3.4-3 3.7-4 .2-.4.8-1.5 1.5-2.4l1.2-1.5-1.4-.3c-4.4-.9-6.5-2.2-7-4.4-.7-2.8 2-5.8 6.1-6.8 1.3-.3 1.2-.3-1-.3-2.8 0-3.8-.3-3.9-1a35 35 0 0 1 3.4-8c.2-.3.5-1.5.7-2.8 0-1.4.5-3 .8-3.6.7-1 .7-1 3.3-1 4.9.1 12.5 1.6 18.9 3.7 11 3.5 19.3 8.5 27.4 16.5 3.9 3.9 4.1 4.2 4.1 5.5 0 1.5-1.3 3.8-2.8 5-.5.4-2 1-3.3 1.5A1542.4 1542.4 0 0 1 52 232.7c-2 .3-2.9.4-3.3 0zm55.8-14c-.3-.2-1.3.3-1.3.7 0 .2.3.2.7 0l.6-.6zm2.4.1c.1-.8 0-.8-.4-.3-.3.2-.4.7-.3.9.4.5.5.5.7-.6zm1.6-.2-.6-.7c-.6-.4-.6-.4-.1.2.4.6.7.8.7.5zm1.2-.3c-.5-.8.6-1.3 2.5-1.1 1.3 0 1.6 0 1.3-.2-.7-.5-.5-.6.8-1 1-.1 1-.1.6.4-.6.7.1.7.8 0 .8-.8.7-1.2-.1-1.2-.4 0-.7-.2-.5-.4.2-.4-.1-.4-1 0-1.2.7-1.1.1 0-.6 1.8-1 .8-1.2-2.2-.4-2.5.8-2.8 1-3 1.9-.3.6-.2 1.1 0 1.2.2 0 .3.5.3 1 0 .4.2.8.4.8s.3-.2.1-.4zm1.6-1.7c0-.3.2-.7.4-1.1.4-.8 1-.6.9.3l-.2.9c0 .4-1 .3-1-.1zm-1.9-.4c.1-.2.3-.3.4-.3l.1.3c0 .2-.1.4-.3.4-.2 0-.3-.2-.2-.4zm0-1c.1-.2.5-.4 1-.4.3 0 .5.2.4.4-.1.2-.5.3-1 .3-.3 0-.5-.1-.4-.3zM77 214l.3-1.1.3-1.1c.1-.4.1-1.1 0-1.6-.3-.7-.6-.8-1.8-.9-1.3 0-1.5 0-1.5.7 0 1.3-.3 2-.9 2.9-.7 1.1-.4 1.5 1.1 1.5.7 0 1.3 0 1.5.2.4.4.7.2 1-.6zm-5.5-9.8v-1.7c.3 0 .3-.3.2-.6v-.3c.3 0 .7-.2 1-.5.3-.4 1-.9 1.6-1.1.6-.2 1-.6 1-.8 0-.2.2-.2.4-.1s.4 0 .5-.1c.1-.2-.2-.5-.6-.7-1-.4-5.1-1.4-5.3-1.2l.6 1.5c.5 1 .6 1.6.3 2.4-.4 1.2-3.1 3-5 3.4l-1.6.3 2.5.4 3.2.8c1.1.6 1.4.2 1.2-1.7z" style="fill:#d5a763;stroke-width:.352778" transform="translate(-44.5 -173.2)"/>
  <path d="M48.1 232c-.8-2-.4-4.8 1-7.5a112.7 112.7 0 0 0 4.6-10.6s.9.1 1.8.5c2 .7 4 2.4 4.6 4 .5 1.2.6 4 .2 4-.4 0-1.5 1.8-1.5 2.4 0 .7 3.4-3 3.7-4 .2-.4.8-1.5 1.5-2.4l1.2-1.5-1.4-.3c-4.4-.9-6.5-2.2-7-4.4-.7-2.8 2-5.8 6.1-6.8 1.3-.3 1.2-.3-1-.3-2.8 0-3.8-.3-3.9-1a35 35 0 0 1 3.4-8c.2-.3.5-1.5.7-2.8.2-2.5 1-4.4 1.9-4.7a77.8 77.8 0 0 1 40.3 13.2c1.8 1.3 5.4 4.3 7.8 6.8 4.3 4.2 4.5 4.5 4.5 5.8 0 1.7-1.7 4.4-3.5 5.4-2 1-3.7 1.5-25.4 6a531.4 531.4 0 0 1-35 6.8c-3 .6-4.1.4-4.6-.7zm4.8-1.4a.8.8 0 0 1-.5-.7c0-.8-.6-.6-.8.2-.1.6 0 .7.8.7.5 0 .7-.1.5-.2zm2.4-1.3c.2-.5.2-.6-.1-.6-.3 0-.7.4-.9.8-.3.7-.3.8.1.7.3-.1.7-.5.9-.9zm3 .2c.3.2.5 0 .5-.7 0-.4-.2-.8-.4-.8-.1 0-.2.2-.1.4 0 .3-.1.6-.6.7-.4.1-.7.4-.7.7 0 .4 0 .4.3 0 .2-.3.6-.4 1-.3zm2.6-.5c0-1.1 1.9-2 2.2-1 .1.3.1.3.1 0 0-.8-1.5-.9-2.2 0-.4.3-.8.5-1 .4 0-.1-.2.1-.2.5s.3.7.6.7.5-.2.5-.6zm5.8-1.7c.3 0 .6.2.7.6.1.6.1.6.2 0 0-.4-.4-.8-.9-1-1.2-.4-1.1-.5-1.3.4-.2.8-1 1-1 .1 0-.3-.1-.5-.3-.5-.8 0-.2 1.2.7 1.5.3 0 .7-.1 1-.5.2-.3.6-.6 1-.6zm4 0c1-.9 1.5-1 1.5-.1 0 .4 0 .5.4.2.8-.8 0-1.5-1.4-1.5-.9 0-1.3.2-1.2.4.5.4.1 1.3-.5 1.3s-.9-.9-.5-1.4l-.2.1a1 1 0 0 0 .6 1.7c.4 0 1-.4 1.4-.7zm6.4-1.3c.6-.7.2-1.6-.7-1.6-.8 0-.8 0-.1.5.5.4.5.7.3 1-.7.6-2.1.2-2-.5 0-.3-.2-.6-.3-.6-.5 0-.8.7-.6 1.2.3.7 2.8.7 3.4 0zm1.8-1c.2.1.3 0 .3-.2 0-.5-.8-.3-.9.3 0 .2 0 .3.1 0 .1-.1.3-.2.5-.1zm4.2-.8c.2.2.4.1.4 0 0-.6-1.7-.8-2-.2 0 .2-.4.4-.7.5-.6 0-.6 0 0 .3.5.2 1 0 1.3-.3.4-.2.8-.4 1-.3zm2.7 0c.6-.3.8-.4 1 0 .1.3.2.3.5-.1s.4-.4.4-.1c0 .2.2.3.6.2.3-.1.4-.4.3-.8-.1-.5 0-.8.5-1 .7-.5.9-.3.8.9-.2 1 .6.4.8-.6.2-1.2.8-1.4 1-.5 0 .5.1.5.7 0 .7-.7.7-.8.1-.9-.9-.2-5.5 1-5.5 1.5 0 .2-.2.1-.5-.1-.5-.4-.6-.3-.6.3 0 .8-.5 1.2-1.2 1-.5-.2-.5-.4-.2-.8.4-.4.4-.5 0-.5-.5 0-.8.9-.5 1.6.2.6.9.6 1.8 0zm9.7-2.7c.2 0 .3 0 .3-.4 0-.3-.1-.5-.3-.5-.4 0-1 .8-1 1.4 0 .4 0 .4.3-.1.2-.4.5-.6.7-.4zm3.2.3c1.5-.8 1.2-1.8-.4-1.7-1.8.2-2 .3-1.9 1.3.2 1 .8 1.1 2.3.4zm-1.5-.3c0-.3.3-.6.6-.6.6 0 .5.8-.1 1-.3 0-.5-.1-.5-.4zm7.5-1c.3-.3.8-.6 1.3-.6s.8-.3.8-.8c0-.4.2-.7.7-.7.4 0 .7.3.7.5 0 .4.2.5 1 .2.6-.3 1-.7 1-1.1 0-.5.2-.8.6-1 .5 0 .6.1.4.7-.1.8-.1.8.5.2.3-.3 1-.5 1.3-.5 1 0 2.7-.7 3-1.2.4-.6.3-1-.2-1-.3 0-.6-.1-.6-.3 0-.2-.4-.3-1-.1-.9.2-.9.1-.2-.4.3-.3.9-.6 1.2-.6.5 0 .5 0 0-.3-1.2-.7-5.9.8-7.3 2.3-.7.7-.9 1-.5 1.2.7.4-1 1.4-3.2 1.8-2.4.5-2.8.9-1.7 1.8 1.2.8 1.7.8 2.2 0zm-1.1-.3c0-.4.2-.7.5-.7.4 0 .5.2.5.6-.2.9-1 1-1 .1zm7.7-3.5c0-.3.3-.6.5-1 .5-.3.6-.3.7 0 .2.5-.3 1.3-.9 1.3-.1 0-.3-.1-.3-.3zm2.4-.3h1c.2.1 0 .2-.5.2s-.7 0-.5-.2zm-4.1-1.1c0-.2.3-.4.8-.4.6 0 .7 0 .2.4-.6.4-1 .4-1 0zM77 214l.3-1.1.3-1.1c.1-.4.1-1.1 0-1.6-.3-.7-.6-.8-1.8-.9-1.3 0-1.5 0-1.5.7 0 1.3-.3 2-.9 2.9-.7 1.1-.4 1.5 1.1 1.5.7 0 1.3 0 1.5.2.4.4.7.2 1-.6zm-5.5-9.8v-1.7c.3 0 .3-.3.2-.6v-.3c.3 0 .7-.2 1-.5.3-.4 1-.9 1.6-1.1.6-.2 1-.6 1-.8 0-.2.2-.2.4-.1s.4 0 .5-.1c.1-.2-.2-.5-.6-.7-1-.4-5.1-1.4-5.3-1.2l.6 1.5c.5 1 .6 1.6.3 2.4-.4 1.2-3.1 3-5 3.4l-1.6.3 2.5.4 3.2.8c1.1.6 1.4.2 1.2-1.7z" style="fill:#e9a44b;stroke-width:.352778" transform="translate(-44.5 -173.2)"/>
  <path d="M48.1 232c-.8-2-.4-4.8 1-7.5a112.7 112.7 0 0 0 4.6-10.6s.9.1 1.8.5c2 .7 4 2.4 4.6 4 .5 1.2.6 4 .2 4-.4 0-1.5 1.8-1.5 2.4 0 .7 3.4-3 3.7-4 .2-.4.8-1.5 1.5-2.4l1.2-1.5-1.4-.3c-4.4-.9-6.5-2.2-7-4.4-.7-2.8 2-5.8 6.1-6.8 1.3-.3 1.2-.3-1-.3-2.8 0-3.8-.3-3.9-1a30 30 0 0 1 3.5-8.1c.3-.3.7-.4 1-.2.2 0 .1 0-.1-.4-.4-.4-.5-1.1-.3-2.6s.3-1.8.7-1.4c.2.3 1.2.6 2.4.7 2.5.2 2.2-.4-.5-1-1-.2-1.9-.6-2-.8 0-.2.2-.7.6-1.2l.7-.8 4.9.6c16.7 2.1 30.5 8 41 17.4 1.5 1.5 2.8 2.9 2.6 3-.1.3 0 .3.2.2.3-.2 2.5 2.3 2.5 2.9 0 .2.2.4.5.5l-1.4.4a13 13 0 0 0-6.4 2.5c-.7.7-.9 1-.5 1.2.7.4-1 1.4-3.2 1.8-2.4.5-2.8.9-1.7 1.8 1.2.8 1.7.8 2.2 0 .3-.4.8-.7 1.3-.7s.8-.3.8-.8c0-.4.2-.7.7-.7.4 0 .7.3.7.5 0 .4.2.5 1 .2.6-.3 1-.7 1-1.1 0-.5.2-.8.6-1 .5 0 .6.1.4.7-.1.7-.1.8.4.3.4-.3 1.4-.6 2.3-.8 1.7-.2 1.7-.2 1.3.5-.3.6-.5.7-.8.4-.4-.3-.6-.3-.8 0 0 .2 0 .3.2.3 1-.3.6.7-.6 1.3-2 1.2-3.6 1.5-25.5 6.1a531.4 531.4 0 0 1-35 6.8c-3 .6-4.1.4-4.6-.7zm4.8-1.4a.8.8 0 0 1-.5-.7c0-.8-.6-.6-.8.2-.1.6 0 .7.8.7.5 0 .7-.1.5-.2zm2.4-1.3c.2-.5.2-.6-.1-.6-.3 0-.7.4-.9.8-.3.7-.3.8.1.7.3-.1.7-.5.9-.9zm3 .2c.3.2.5 0 .5-.7 0-.4-.2-.8-.4-.8-.1 0-.2.2-.1.4 0 .3-.1.6-.6.7-.4.1-.7.4-.7.7 0 .4 0 .4.3 0 .2-.3.6-.4 1-.3zm2.6-.5c0-1.1 1.9-2 2.2-1 .1.3.1.3.1 0 0-.8-1.5-.9-2.2 0-.4.3-.8.5-1 .4 0-.1-.2.1-.2.5s.3.7.6.7.5-.2.5-.6zm5.8-1.7c.3 0 .6.2.7.6.1.6.1.6.2 0 0-.4-.4-.8-.9-1-1.2-.4-1.1-.5-1.3.4-.2.8-1 1-1 .1 0-.3-.1-.5-.3-.5-.8 0-.2 1.2.7 1.5.3 0 .7-.1 1-.5.2-.3.6-.6 1-.6zm4 0c1-.9 1.5-1 1.5-.1 0 .4 0 .5.4.2.8-.8 0-1.5-1.4-1.5-.9 0-1.3.2-1.2.4.5.4.1 1.3-.5 1.3s-.9-.9-.5-1.4l-.2.1a1 1 0 0 0 .6 1.7c.4 0 1-.4 1.4-.7zm6.4-1.3c.6-.7.2-1.6-.7-1.6-.8 0-.8 0-.1.5.5.4.5.7.3 1-.7.6-2.1.2-2-.5 0-.3-.2-.6-.3-.6-.5 0-.8.7-.6 1.2.3.7 2.8.7 3.4 0zm1.8-1c.2.1.3 0 .3-.2 0-.5-.8-.3-.9.3 0 .2 0 .3.1 0 .1-.1.3-.2.5-.1zm4.2-.8c.2.2.4.1.4 0 0-.6-1.7-.8-2-.2 0 .2-.4.4-.7.5-.6 0-.6 0 0 .3.5.2 1 0 1.3-.3.4-.2.8-.4 1-.3zm2.7 0c.6-.3.8-.4 1 0 .1.3.2.3.5-.1s.4-.4.4-.1c0 .2.2.3.6.2.3-.1.4-.4.3-.8-.1-.5 0-.8.5-1 .7-.5.9-.3.8.9-.2 1 .6.4.8-.6.2-1.2.8-1.4 1-.5 0 .5.1.5.7 0 .7-.7.7-.8.1-.9-.9-.2-5.5 1-5.5 1.5 0 .2-.2.1-.5-.1-.5-.4-.6-.3-.6.3 0 .8-.5 1.2-1.2 1-.5-.2-.5-.4-.2-.8.4-.4.4-.5 0-.5-.5 0-.8.9-.5 1.6.2.6.9.6 1.8 0zm9.7-2.7c.2 0 .3 0 .3-.4 0-.3-.1-.5-.3-.5-.4 0-1 .8-1 1.4 0 .4 0 .4.3-.1.2-.4.5-.6.7-.4zm3.2.3c1.5-.8 1.2-1.8-.4-1.7-1.8.2-2 .3-1.9 1.3.2 1 .8 1.1 2.3.4zm-1.5-.3c0-.3.3-.6.6-.6.6 0 .5.8-.1 1-.3 0-.5-.1-.5-.4zM77 214l.3-1.1.3-1.1c.1-.4.1-1.1 0-1.6-.3-.7-.6-.8-1.8-.9-1.3 0-1.5 0-1.5.7 0 1.3-.3 2-.9 2.9-.7 1.1-.4 1.5 1.1 1.5.7 0 1.3 0 1.5.2.4.4.7.2 1-.6zm-5.5-9.8v-1.7c.3 0 .3-.3.2-.6v-.3c.3 0 .7-.2 1-.5.3-.4 1-.9 1.6-1.1.6-.2 1-.6 1-.8 0-.2.2-.2.4-.1s.4 0 .5-.1c.1-.2-.2-.5-.6-.7-1-.4-5.1-1.4-5.3-1.2l.6 1.5c.5 1 .6 1.6.3 2.4-.4 1.2-3.1 3-5 3.4l-1.6.3 2.5.4 3.2.8c1.1.6 1.4.2 1.2-1.7zm15.9-6.7c-.7-.4-1.1-.4-1.1 0 0 .2.4.4.8.4.6 0 .7-.1.3-.4zm-1.6-.7c0-.2 0-.3-.3-.3s-.7.1-.8.3c-.1.2 0 .4.3.4s.7-.2.8-.4zm-2.7-1 .7-.7h-1c-.7 0-1.2-.3-1.6-.9a3 3 0 0 0-1.7-1 5 5 0 0 1-1.5-.7c-.6-.4-1.5 0-1.8.8 0 .4-.3.7-.6.7-.2 0-.2-.2.1-.5.3-.3.3-.7.2-.8-.2-.2-.4 0-.4.2-.1.2-.5.4-.8.4-1.2 0 .7 1 3.6 1.8l3.2 1c.5.5.8.4 1.6-.3zm20.5 24.3c0-.4.2-.7.5-.7.4 0 .5.2.5.6-.2.9-1 1-1 .1zm7.7-3.5c0-.3.3-.6.5-1 .5-.3.6-.3.7 0 .2.5-.3 1.3-.9 1.3-.1 0-.3-.1-.3-.3zm2.4-.3h1c.2.1 0 .2-.5.2s-.7 0-.5-.2zm-4.1-1.1c0-.2.3-.4.8-.4.6 0 .7 0 .2.4-.6.4-1 .4-1 0zm6-.4c-.3-.2-1-.2-1.4-.1-.9.2-.9.1-.2-.4.7-.6 1.6-.7 1.6-.2 0 .2.2.2.5.1.3 0 .5 0 .5.4 0 .6-.3.7-1 .2z" style="fill:#fdb522;stroke-width:.352778" transform="translate(-44.5 -173.2)"/>
  <path d="m48.4 232.6-.5-1.8c-.3-1.1-.3-1.6 0-2 .2-.2.3-.7.1-1.1a14 14 0 0 1 1.7-4.7l3-6.6a8.3 8.3 0 0 1 1.2-2.5l2.3.9c1.5.7 2.2 1.3 3 2.5 1.8 2.9 1.1 5.2-2.6 8.3-1.4 1.2-1.4 1.3-.6 1.3.7 0 3.9-.8 6.8-1.6.6-.2.6-.5.5-2.2-.2-2.6.2-4 1.7-5.5l1.2-1.3h-1.7c-3.7 0-7.2-2-7.6-4.4-.7-3.6 3.3-6.6 8.9-6.6 6 0 9.7 4.3 6.7 8l-1 1.3H73c1.3 0 3 .3 5.8 1.2.8.2.8.2.6-1.1-.3-1.7.7-3.9 2.2-5l1-.8h-2.5c-3 0-5.5-.8-6.7-2.1-2.4-3-.9-6.3 3.4-7.4l2-.6c1.5-.5-9-3-14.1-3.5-3-.3-3-.2-2.5-3 .2-1.1.3-1.3.6-.9.2.3 1.3.6 2.4.7 2.5.2 2.2-.4-.5-1-1-.2-1.9-.6-2-.8 0-.2.2-.7.6-1.2l.7-.8 4.9.6c16.7 2.1 30.5 8 41 17.4 1.5 1.5 2.8 2.9 2.6 3-.1.3 0 .3.2.2.3-.2 2.5 2.3 2.5 2.9 0 .2.2.4.5.5l-1.4.4a13 13 0 0 0-6.4 2.5c-.7.7-.9 1-.5 1.2.7.4-1 1.4-3.2 1.8-2.4.5-2.8.9-1.7 1.8 1.2.8 1.7.8 2.2 0 .3-.4.8-.7 1.3-.7s.8-.3.8-.8c0-.4.2-.7.7-.7.4 0 .7.3.7.5 0 .4.2.5 1 .2.6-.3 1-.7 1-1.1 0-.5.2-.8.6-1 .5 0 .6.1.4.7-.1.7-.1.8.4.3.4-.3 1.4-.6 2.3-.8 1.7-.2 1.7-.2 1.3.5-.3.6-.5.7-.8.4-.4-.3-.6-.3-.8 0 0 .2 0 .3.2.3 1-.3.6.7-.6 1.3-2 1.2-3.6 1.5-25.5 6.1a531.4 531.4 0 0 1-35 6.8c-2 .4-4 .4-4.3 0zm4.5-2a.8.8 0 0 1-.5-.7c0-.8-.6-.6-.8.2-.1.6 0 .7.8.7.5 0 .7-.1.5-.2zm2.4-1.3c.2-.5.2-.6-.1-.6-.3 0-.7.4-.9.8-.3.7-.3.8.1.7.3-.1.7-.5.9-.9zm3 .2c.3.2.5 0 .5-.7 0-.4-.2-.8-.4-.8-.1 0-.2.2-.1.4 0 .3-.1.6-.6.7-.4.1-.7.4-.7.7 0 .4 0 .4.3 0 .2-.3.6-.4 1-.3zm2.6-.5c0-1.1 1.9-2 2.2-1 .1.3.1.3.1 0 0-.8-1.5-.9-2.2 0-.4.3-.8.5-1 .4 0-.1-.2.1-.2.5s.3.7.6.7.5-.2.5-.6zm5.8-1.7c.3 0 .6.2.7.6.1.6.1.6.2 0 0-.4-.4-.8-.9-1-1.2-.4-1.1-.5-1.3.4-.2.8-1 1-1 .1 0-.3-.1-.5-.3-.5-.8 0-.2 1.2.7 1.5.3 0 .7-.1 1-.5.2-.3.6-.6 1-.6zm4 0c1-.9 1.5-1 1.5-.1 0 .4 0 .5.4.2.8-.8 0-1.5-1.4-1.5-.9 0-1.3.2-1.2.4.5.4.1 1.3-.5 1.3s-.9-.9-.5-1.4l-.2.1a1 1 0 0 0 .6 1.7c.4 0 1-.4 1.4-.7zm6.4-1.3c.6-.7.2-1.6-.7-1.6-.8 0-.8 0-.1.5.5.4.5.7.3 1-.7.6-2.1.2-2-.5 0-.3-.2-.6-.3-.6-.5 0-.8.7-.6 1.2.3.7 2.8.7 3.4 0zm1.8-1c.2.1.3 0 .3-.2 0-.5-.8-.3-.9.3 0 .2 0 .3.1 0 .1-.1.3-.2.5-.1zm4.2-.8c.2.2.4.1.4 0 0-.6-1.7-.8-2-.2 0 .2-.4.4-.7.5-.6 0-.6 0 0 .3.5.2 1 0 1.3-.3.4-.2.8-.4 1-.3zm2.7 0c.6-.3.8-.4 1 0 .1.3.2.3.5-.1s.4-.4.4-.1c0 .2.2.3.6.2.3-.1.4-.4.3-.8-.1-.5 0-.8.5-1 .7-.5.9-.3.8.9-.2 1 .6.4.8-.6.2-1.2.8-1.4 1-.5 0 .5.1.5.7 0 .7-.7.7-.8.1-.9-.9-.2-5.5 1-5.5 1.5 0 .2-.2.1-.5-.1-.5-.4-.6-.3-.6.3 0 .8-.5 1.2-1.2 1-.5-.2-.5-.4-.2-.8.4-.4.4-.5 0-.5-.5 0-.8.9-.5 1.6.2.6.9.6 1.8 0zm9.7-2.7c.2 0 .3 0 .3-.4 0-.3-.1-.5-.3-.5-.4 0-1 .8-1 1.4 0 .4 0 .4.3-.1.2-.4.5-.6.7-.4zm3.2.3c1.5-.8 1.2-1.8-.4-1.7-1.8.2-2 .3-1.9 1.3.2 1 .8 1.1 2.3.4zm-1.5-.3c0-.3.3-.6.6-.6.6 0 .5.8-.1 1-.3 0-.5-.1-.5-.4zm-12.7-1.7c-1.4-.3-1.6-.2-.8.5.4.5.7.5 1.3.2.7-.4.7-.4-.5-.7zm15.7-1.9c3-.5 3.5-.7 2.6-1.4-.3-.2-.6-.8-.6-1.2 0-.6-2-2.8-2.4-2.6l-1.2-1-1.4-1c-.2 0-.3-.2-.3-.5s-.3-.8-.6-1l-.5-.9c-.1-.6-2-2.3-4-3.7-2.7-2-3.3-2.2-3.3-1.4 0 1.8-.2 2.4-1.3 3.5l-1.2 1.2h1.5c2 0 4.2.5 6.5 1.6 1.1.5 2.1 1 2.2.9.2 0 .4.3.5.6.1.4.3.7.5.7l.7 1.2c.3 1 .3 1.5 0 2.5-.4.7-.5 1.3-.4 1.4.1.1 0 .5-.4 1-.8.8-.7.8 3 .1zm-12.8-20.3c-.7-.4-1.1-.4-1.1 0 0 .2.4.4.8.4.6 0 .7-.1.3-.4zm-1.6-.7c0-.2 0-.3-.3-.3s-.7.1-.8.3c-.1.2 0 .4.3.4s.7-.2.8-.4zm-2.7-1 .7-.7h-1c-.7 0-1.2-.3-1.6-.9a3 3 0 0 0-1.7-1 5 5 0 0 1-1.5-.7c-.6-.4-1.5 0-1.8.8 0 .4-.3.7-.6.7-.2 0-.2-.2.1-.5.3-.3.3-.7.2-.8-.2-.2-.4 0-.4.2-.1.2-.5.4-.8.4-1.2 0 .7 1 3.6 1.8l3.2 1c.5.5.8.4 1.6-.3zm20.5 24.3c0-.4.2-.7.5-.7.4 0 .5.2.5.6-.2.9-1 1-1 .1zm7.7-3.5c0-.3.3-.6.5-1 .5-.3.6-.3.7 0 .2.5-.3 1.3-.9 1.3-.1 0-.3-.1-.3-.3zm2.4-.3h1c.2.1 0 .2-.5.2s-.7 0-.5-.2zm-4.1-1.1c0-.2.3-.4.8-.4.6 0 .7 0 .2.4-.6.4-1 .4-1 0zm6-.4c-.3-.2-1-.2-1.4-.1-.9.2-.9.1-.2-.4.7-.6 1.6-.7 1.6-.2 0 .2.2.2.5.1.3 0 .5 0 .5.4 0 .6-.3.7-1 .2zM59 205c-1.4-.7-1.3-1.2.4-5l1.7-3.9h2.1c2.9-.2 4.9.4 6.3 1.8 3.2 3.2-.5 6.8-7 7.1H59z" style="fill:#d3a25c;stroke-width:.352778" transform="translate(-44.5 -173.2)"/>
  <path d="M48.4 232.7c-.5-.9-.9-3.5-.5-4 .2-.2.3-.6.1-1a14 14 0 0 1 1.7-4.7l3-6.6a8.3 8.3 0 0 1 1.2-2.5l2.3.9c1.5.7 2.2 1.3 3 2.5 1.8 2.9 1.1 5.2-2.6 8.3-1.4 1.2-1.4 1.3-.6 1.3.7 0 3.9-.8 6.8-1.6.6-.2.6-.5.5-2.2-.2-2.6.2-4 1.7-5.5l1.2-1.3h-1.7c-3.7 0-7.2-2-7.6-4.4-.7-3.6 3.3-6.6 8.9-6.6 6 0 9.7 4.3 6.7 8l-1 1.3H73c1.3 0 3 .3 5.8 1.2.8.2.8.2.6-1.1-.3-1.7.7-3.9 2.2-5l1-.8h-2.5c-3 0-5.5-.8-6.7-2.1-2.4-3-.9-6.3 3.4-7.4l2-.6c1.5-.5-8.8-3-13.9-3.5-2.9-.3-3-.4-2.7-2.8.2-1.2.3-1.5.6-1 .2.2 1.3.5 2.5.6 1.7.1 2 0 1.4-.3-.3-.3-1.3-.6-2.1-.7-2-.3-2.2-.6-1.4-1.8.6-.9.7-1 3.1-.7a79.8 79.8 0 0 1 36.3 12.1 41.6 41.6 0 0 1 10 8.8c.4-.2 2.6 2.3 2.6 2.9 0 .2.2.4.5.5l-1.5.4c-4.1.4-7 2-7 3.6 0 1-1 1.4-7.3 2.7-3 .7-5.7 1.3-5.8 1.5-.1.2-1 .4-2.2.4-1 0-2.8.3-4 .5-1.7.4-2.1.6-2.1 1.2 0 .4-.3.8-.7.8-.5.1-.6 0-.5-.6.2-.6.1-.7-.2-.6l-1.8.4c-.7.2-1.2.5-1.2.7 0 .3-.2.5-.4.5a.4.4 0 0 1-.3-.3c0-.4-1.8-.1-2.3.3-.1.2-1 .3-1.7.2h-.9c1 .3.6 1.4-.4 1.5-.7.1-.8 0-.6-.6.2-.9.5-.9-4.2.2a57 57 0 0 1-4 .7c-.8.2-1.4.4-1.3.5.1.2 0 .4-.2.6-.2 0-.5 0-.7-.2-.2-.3-.7-.3-2.5 0-2 .3-2.3.5-2.2 1 .1.4 0 .8-.2.9-.3.1-.5 0-.6-.5-.2-.6-.4-.7-1-.6l-2.2.4c-1.1.2-1.5.4-1.5.9 0 .9-1.1 1.2-1.7.5-.3-.5-.6-.6-2-.3l-1.4.3 1.1.6c1 .5 1.4.5 3.2 0l3-.4c.5 0 1-.1 1-.3 0-.2.9-.2 2-.1 1.7.1 2 0 1.8-.4-.2-.3 0-.8.4-1.2.7-.6 1.4-.4 1.4.4 0 .3.3.4.9.3.4-.1.9 0 1 .2.5.7.9.4 1-.6.1-1.1 1.2-1.5 1.4-.5.1.5.3.6 2 .3 1.5-.2 1.8-.4 1.8-1 0-.3.3-.6.6-.6s.5.3.5.7c0 .7 0 .7.6.2a6 6 0 0 1 2.5-.8c1-.1 2-.5 2-.7.2-.4.4-.4.7-.1.7.6 1.6.1 1.6-.8 0-.6 0-.7.4-.4.5.5 2 .6 2 0 0-.1.3-.3.6-.3s.5.2.5.3c0 .2.5.3 1.2.2a71.4 71.4 0 0 1 3.8-.5l1.6-.5c.7-.3 1-.6 1.1-1.3.2-1.2.8-1.3.8-.2 0 .7 0 .7 1-.1.6-.7.8-.7.6-.2 0 .3 0 .6.2.6s.3-.2.3-.4c0-.4.1-.4.4 0 .4.3.6.2.9-.4.4-.8.4-.8.5 0 0 .5.2.6 1.2.5a6 6 0 0 0 2.3-.6c.8-.4 1.8-.6 3-.5 1.2.1 2 0 2.6-.5.5-.3 1.3-.6 1.7-.6.6 0 .8-.2.8-.9 0-.9.5-1.2.9-.5.1.2 0 .6-.2.8-.2.3.5.1 1.4-.3 1.5-.7 1.9-.8 2.5-.4 1 .6 2.6 0 2.6-1 0-.4.3-.7.7-.8.5-.1.6 0 .3.5a8 8 0 0 1-2.7 2.5 1175.6 1175.6 0 0 1-54.3 11.5c-7.3 1.2-9.6 1.5-9.9 1zm36.1-12.9c-1.4-.3-1.6-.2-.8.5.4.5.7.5 1.3.2.7-.4.7-.4-.5-.7zm15.7-1.9c3-.5 3.5-.7 2.6-1.4-.3-.2-.6-.8-.6-1.2 0-.6-2-2.8-2.4-2.6l-1.2-1-1.4-1c-.2 0-.3-.2-.3-.5s-.3-.8-.6-1l-.5-.9c-.1-.6-2-2.3-4-3.7-2.7-2-3.3-2.2-3.3-1.4 0 1.8-.2 2.4-1.3 3.5l-1.2 1.2h1.5c2 0 4.2.5 6.5 1.6 1.1.5 2.1 1 2.2.9.2 0 .4.3.5.6.1.4.3.7.5.7l.7 1.2c.3 1 .3 1.5 0 2.5-.4.7-.5 1.3-.4 1.4.1.1 0 .5-.4 1-.8.8-.7.8 3 .1zm-12.8-20.3c-.7-.4-1.1-.4-1.1 0 0 .2.4.4.8.4.6 0 .7-.1.3-.4zm-1.6-.7c0-.2 0-.3-.3-.3s-.7.1-.8.3c-.1.2 0 .4.3.4s.7-.2.8-.4zm-2.7-1 .7-.7h-1c-.7 0-1.2-.3-1.6-.9a3 3 0 0 0-1.7-1 5 5 0 0 1-1.5-.7c-.6-.4-1.5 0-1.8.8 0 .4-.3.7-.6.7-.2 0-.2-.2.1-.5.3-.3.3-.7.2-.8-.2-.2-.4 0-.4.2-.1.2-.5.4-.8.4-1.2 0 .7 1 3.6 1.8l3.2 1c.5.5.8.4 1.6-.3zm-14 31c0-.4.1-.7.4-.7.3 0 .6.3.6.7 0 .4-.3.7-.6.7s-.5-.3-.5-.7zm19.6-3.4c-.4-.3.1-1.2.6-1.2.3 0 .5.3.5.7 0 .7-.7 1-1.1.5zm8.5-2c0-.3.2-.6.4-.6s.3.2.3.3c0 .2-.1.5-.3.6-.2.1-.4 0-.4-.3zm6.6-.8c-.4-.5-.2-1.2.3-1.2.6 0 .7.3.2 1-.1.2-.3.3-.5.2zm6.1-2.8c0-.5.9-1 1.2-.6.3.2-.4 1.1-.9 1.1-.1 0-.3-.2-.3-.5zm1.9.1c.2-.5 1.3-.6 1.4 0 0 .1-.3.3-.7.4-.6 0-.8 0-.7-.4zm-.2-1.3c-.2-.2 0-.4.1-.6.6-.3 1 .2.5.6-.3.3-.5.3-.6 0zm-1.8-1.4c0-.2.3-.4.5-.4s.3.2.2.4l-.6.3c-.2 0-.3-.1-.1-.3zm6-.3c-.3-.2 0-.8.5-.8.2 0 .3.2.3.5 0 .6-.4.7-.8.3zm-1.3-.8.9-.3c.2 0 .1.1-.2.3l-.9.3.2-.3zM59 204.7c-.5-.2-.8-.7-.8-1 0-.9 2.8-7.2 3.3-7.6.6-.4 4-.3 5.7.2.7.2 1.9.9 2.5 1.5 2.2 2.2 1.3 4.5-2.5 6.2a16 16 0 0 1-8.2.7z" style="fill:#fda81d;stroke-width:.352778" transform="translate(-44.5 -173.2)"/>
  <path d="m48.4 232.7-.5-1.9c-.4-1.8-.3-1.9 4.2-2.6 4.5-.8 10.1-2 11.5-2.4l1-.3-.6-1.3c-.7-1.5-.8-3.6-.2-4.8l1.5-2 1.2-1.3h-2.4c-4.2 0-7.2-2.1-7.1-5 0-3.2 3-5.4 8-5.6 5.4-.3 8.6 2 8.3 6 0 .3-.5 1.1-1.1 1.8l-1 1.2 2.4.2c4.3.3 7.3 2.1 8.8 5.3 1 2.1.1 2.1 10.8 0 8.4-1.6 11-2 11.7-2 2 .4-2.8-5.7-8.2-10.3a58 58 0 0 0-8.7-5.8l-.9-.3.6 1.2c1 1.8.3 3.4-2 4.8l-1 .7 1.6-.2c3.6-.5 7.9 1 9.8 3.6 4.3 5.7-5.2 10.7-13 6.8-4.2-2.1-4.5-6.8-.6-9.2l1-.7-2.2.2c-5.9.5-10.3-3-8.5-6.7.8-1.5 3.4-2.8 6.2-3l2.2-.2-2.5-.8a66 66 0 0 0-13.3-2.8c-3.4-.3-3.5-.4-3.2-2.8.2-1.2.3-1.5.6-1 .2.2 1.3.5 2.5.6 1.7.1 2 0 1.4-.3-.3-.3-1.3-.6-2.1-.7-2-.3-2.2-.6-1.4-1.8.6-.9.7-1 3.1-.7a79.8 79.8 0 0 1 36.3 12.1 41.6 41.6 0 0 1 10 8.8c.4-.2 2.6 2.3 2.6 2.9 0 .2.2.4.5.5l-1.5.4c-4.1.4-7 2-7 3.6 0 1-1 1.4-7.3 2.7-3 .7-5.7 1.3-5.8 1.5-.1.2-1 .4-2.2.4-1 0-2.8.3-4 .5-1.7.4-2.1.6-2.1 1.2 0 .4-.3.8-.7.8-.5.1-.6 0-.5-.6.2-.6.1-.7-.2-.6l-1.8.4c-.7.2-1.2.5-1.2.7 0 .3-.2.5-.4.5a.4.4 0 0 1-.3-.3c0-.4-1.8-.1-2.3.3-.1.2-1 .3-1.7.2h-.9c1 .3.6 1.4-.4 1.5-.7.1-.8 0-.6-.6.2-.9.5-.9-4.2.2a57 57 0 0 1-4 .7c-.8.2-1.4.4-1.3.5.1.2 0 .4-.2.6-.2 0-.5 0-.7-.2-.2-.3-.7-.3-2.5 0-2 .3-2.3.5-2.2 1 .1.4 0 .8-.2.9-.3.1-.5 0-.6-.5-.2-.6-.4-.7-1-.6l-2.2.4c-1.1.2-1.5.4-1.5.9 0 .9-1.1 1.2-1.7.5-.3-.5-.6-.6-2-.3l-1.4.3 1.1.6c1 .5 1.4.5 3.2 0l3-.4c.5 0 1-.2 1-.3 0-.2.9-.2 2-.1 1.7.1 2 0 1.8-.4-.2-.3 0-.8.4-1.2.7-.6 1.4-.4 1.4.4 0 .3.3.4.9.3.4-.1.9 0 1 .2.5.7.9.4 1-.6.1-1.1 1.2-1.5 1.4-.5.1.5.3.6 2 .3 1.5-.2 1.8-.4 1.8-1 0-.3.3-.6.6-.6s.5.3.5.7c0 .7 0 .7.6.2a6 6 0 0 1 2.5-.8c1-.1 2-.5 2-.7.2-.4.4-.4.7-.1.7.6 1.6.1 1.6-.8 0-.6 0-.7.4-.4.5.5 2 .6 2 0 0-.1.3-.3.6-.3s.5.2.5.3c0 .2.5.3 1.2.2a71.4 71.4 0 0 1 3.8-.5l1.6-.5c.7-.3 1-.6 1.1-1.3.2-1.2.8-1.3.8-.2 0 .7 0 .7 1-.1.6-.7.8-.7.6-.2 0 .3 0 .6.2.6s.3-.2.3-.4c0-.4.1-.4.4 0 .4.3.6.2.9-.4.4-.8.4-.8.5 0 0 .5.2.6 1.2.5a6 6 0 0 0 2.3-.6c.8-.4 1.8-.6 3-.5 1.2.1 2 0 2.6-.5.5-.3 1.3-.6 1.7-.6.6 0 .8-.2.8-.9 0-.9.5-1.2.9-.5.1.2 0 .6-.2.8-.2.3.5.1 1.4-.3 1.5-.7 1.9-.8 2.5-.4 1 .6 2.6 0 2.6-1 0-.4.3-.7.7-.8.5-.1.6 0 .3.5a8 8 0 0 1-2.7 2.5 1175.6 1175.6 0 0 1-54.3 11.5c-7.3 1.2-9.6 1.5-9.9 1zm39-35c-.7-.5-1.1-.5-1.1 0 0 .1.4.3.8.3.6 0 .7-.1.3-.4zm-1.6-.8c0-.2 0-.3-.3-.3s-.7.1-.8.3c-.1.2 0 .4.3.4s.7-.2.8-.4zm-2.7-1 .7-.7h-1c-.7 0-1.2-.3-1.6-.9a3 3 0 0 0-1.7-1 5 5 0 0 1-1.5-.7c-.6-.4-1.5 0-1.8.8 0 .4-.3.7-.6.7-.2 0-.2-.2.1-.5.3-.3.3-.7.2-.8-.2-.2-.4 0-.4.2-.1.2-.5.4-.8.4-1.2 0 .7 1 3.6 1.8l3.2 1c.5.5.8.4 1.6-.3zM48 227.5a9 9 0 0 1 1-3 112.5 112.5 0 0 0 4.7-10.6c.2-.2 3.5 1.4 4.3 2.2 4.6 4.3.4 10.4-8.2 11.7-1.2.2-1.6.1-1.8-.3zm21-.6c0-.4.2-.7.5-.7s.6.3.6.7c0 .4-.3.7-.6.7s-.5-.3-.5-.7zm19.7-3.4c-.4-.3.1-1.2.6-1.2.3 0 .5.3.5.7 0 .7-.7 1-1.1.5zm8.5-2c0-.3.2-.6.4-.6s.3.2.3.3c0 .2-.1.5-.3.6-.2.1-.4 0-.4-.3zm6.6-.8c-.4-.5-.2-1.2.3-1.2.6 0 .7.3.2 1-.1.2-.3.3-.5.2zm6.1-2.8c0-.5.9-1 1.2-.6.3.2-.4 1.1-.9 1.1-.1 0-.3-.2-.3-.5zm1.9.1c.2-.5 1.3-.6 1.4 0 0 .1-.3.3-.7.4-.6 0-.8 0-.7-.4zm-.2-1.3c-.2-.2 0-.4.1-.6.6-.3 1 .2.5.6-.3.3-.5.3-.6 0zm-1.8-1.4c0-.2.3-.4.5-.4s.3.2.2.4l-.6.3c-.2 0-.3-.1-.1-.3zm6-.3c-.3-.2 0-.8.5-.8.2 0 .3.2.3.5 0 .6-.4.7-.8.3zm-1.3-.8.9-.3c.2 0 .1.1-.2.3l-.9.3.2-.3zm-55.4-9.5c-.4-.1-.9-.5-1-.9 0-.3.6-2.2 1.4-4.1 1.8-4 1.9-4 5.2-3.7 5 .4 7.5 3.8 5 6.5-1.6 1.7-8 3-10.6 2.2z" style="fill:#e29a43;stroke-width:.352778" transform="translate(-44.5 -173.2)"/>
  <path d="m48.4 232.7-.5-1.9c-.4-1.8-.3-1.9 4.2-2.6 4.5-.8 10.1-2 11.5-2.4l1-.3-.6-1.3c-.7-1.5-.8-3.6-.2-4.8l1.5-2 1.2-1.3h-2.4c-4.2 0-7.2-2.1-7.1-5 0-3.2 3-5.4 8-5.6 5.4-.3 8.6 2 8.3 6 0 .3-.5 1.1-1.1 1.8l-1 1.2 2.4.2c4.3.3 7.3 2.1 8.8 5.3 1 2.1.1 2.1 10.8 0 8.4-1.6 11-2 11.7-2 2 .4-2.8-5.7-8.2-10.3a58 58 0 0 0-8.7-5.8l-.9-.3.6 1.2c1 1.8.3 3.4-2 4.8l-1 .7 1.6-.2c3.6-.5 7.9 1 9.8 3.6 4.3 5.7-5.2 10.7-13 6.8-4.2-2.1-4.5-6.8-.6-9.2l1-.7-2.2.2c-5.9.5-10.3-3-8.5-6.7.8-1.5 3.4-2.8 6.2-3l2.2-.2-2.5-.8a66 66 0 0 0-13.3-2.8c-3.4-.3-3.5-.4-3.2-2.8.2-1.3.3-1.5.6-1 .4.5 4.9.9 5.3.4.1 0-1-.4-2.3-.6l-2.9-.6c-.1-.1 0-.7.3-1.2l.6-1.1 2.5.2a108 108 0 0 1 15 2.7 66.1 66.1 0 0 1 29.6 16.3c-1-.7-1.9-1.3-2-1.2-.2 0-.4-.1-.4-.3 0-.1-.2-.4-.5-.5-.6-.2.6 1.6 2 2.9l.8.8-1.3-.7c-1.4-.9-2.7-1-2.7-.2 0 .4.5 1 1 1l1.2.6c.7.3 1 .7.8 1.1-.1.5 0 .6.6.4.4 0 1-.3 1.1-.5.6-.6 2.5-.3 3.1.3.4.4.5.8.4 1-.2 0 0 .3.2.5.3.1-.2.3-1.3.5-4 .5-6.8 2-6.8 3.6 0 1-1 1.4-7.2 2.7-3 .7-5.7 1.3-5.8 1.5-.1.2-1 .4-2.2.4-1 0-2.8.3-4 .5-1.7.4-2.1.6-2.1 1.2 0 .4-.3.8-.7.8-.5.1-.6 0-.5-.6.2-.6.1-.7-.2-.6l-1.8.4c-.7.2-1.2.5-1.2.7 0 .3-.2.5-.4.5a.4.4 0 0 1-.3-.3c0-.4-1.8-.1-2.3.3-.1.2-1 .3-1.7.2h-.9c1 .3.6 1.4-.4 1.5-.7.1-.8 0-.6-.6.2-.9.5-.9-4.2.2a57 57 0 0 1-4 .7c-.8.2-1.4.4-1.3.5.1.2 0 .4-.2.6-.2 0-.5 0-.7-.2-.2-.3-.7-.3-2.5 0-2 .3-2.3.5-2.2 1 .1.4 0 .8-.2.9-.3.1-.5 0-.6-.5-.2-.6-.4-.7-1-.6l-2.2.4c-1.1.2-1.5.4-1.5.9 0 .9-1.1 1.2-1.7.5-.3-.5-.6-.6-2-.3l-1.4.3 1.1.6c1 .5 1.4.5 3.2 0l3-.4c.5 0 1-.2 1-.3 0-.2.9-.2 2-.1 1.7.1 2 0 1.8-.4-.2-.3 0-.8.4-1.2.7-.6 1.4-.4 1.4.4 0 .3.3.4.9.3.4-.1.9 0 1 .2.5.7.9.4 1-.6.1-1.1 1.2-1.5 1.4-.5.1.5.3.6 2 .3 1.5-.2 1.8-.4 1.8-1 0-.3.3-.6.6-.6s.5.3.5.7c0 .7 0 .7.6.2a6 6 0 0 1 2.5-.8c1-.1 2-.5 2-.7.2-.4.4-.4.7-.1.7.6 1.6.1 1.6-.8 0-.6 0-.7.4-.4.5.5 2 .6 2 0 0-.1.3-.3.6-.3s.5.2.5.3c0 .2.5.3 1.2.2a71.4 71.4 0 0 1 3.8-.5l1.6-.5c.7-.3 1-.6 1.1-1.3.2-1.2.8-1.3.8-.2 0 .7 0 .7 1-.1.6-.7.8-.7.6-.2 0 .3 0 .6.2.6s.3-.2.3-.4c0-.4.1-.4.4 0 .4.3.6.2.9-.4.4-.8.4-.8.5 0 0 .5.2.6 1.2.5a6 6 0 0 0 2.3-.6c.8-.4 1.8-.6 3-.5 1.2.1 2 0 2.6-.5.5-.3 1.3-.6 1.7-.6.6 0 .8-.2.8-.9 0-.9.5-1.2.9-.5.1.2 0 .6-.2.8-.2.3.5.1 1.4-.3 1.5-.7 1.9-.8 2.5-.4 1 .6 2.6 0 2.6-1 0-.4.3-.7.7-.8.5-.1.6 0 .3.5a8 8 0 0 1-2.7 2.5 1175.6 1175.6 0 0 1-54.3 11.5c-7.3 1.2-9.6 1.5-9.9 1zm64.6-20.3c0-.2 0-.5-.3-.7-.2-.2-.5-.1-.7 0 0 .3-.5.3-.8.2-.6-.3-.7-.2-.2.3.6.7 1.6.8 2 .2zm-8.9-3.8c-.2-.4-1.6-.3-1.6 0 0 .2.4.3.8.1.5-.1.7 0 .5.2-.2.3-.2.4 0 .2.3-.1.4-.4.3-.5zm-1.4-.6c.4-.2.4-.3 0-.9-.1-.3-.4-.5-.6-.4-.2 0-.3-.2-.3-.7 0-.5-.2-1-.5-1-.3-.2-.4-.1-.3.2.1.4 0 .5-.3.3-.3 0-.7 0-.8.2-.1.2 0 .4.3.4s.6.2.6.4c0 .4 1 1.7 1.2 1.7 0 0 .4 0 .7-.2zm-2.6-4.5c0-.4-.2-.5-.4-.4-.2 0-.4 0-.5-.2-.4-.5-1-.4-1 .3 0 .5 0 .5-.2 0-.3-.4-.4-.4-.6.1-.1.4-.4.6-.8.4h-.3c0 .2.6.4 1 .4.6 0 .9.3 1 .8v.8l.9-.8c.5-.5.9-1.1.9-1.4zm-2.9-.6c0-.2-.6-.4-1.4-.5-1.2-.2-1.3-.4-1-1 .2-.3.6-.6.9-.6.2 0 .5-.2.5-.3 0-.5-1.2-1.1-2.1-1.1-.8 0-1 .5-.3.8.3.1.3.3 0 1-.5.7-.4.8.1 1.1l1.2.5.6.3c.4.3 1.5.2 1.5-.2zm-4.4-2c0-.2 0-.5-.2-.6-.2-.2-.3 0-.3.5 0 .8.2 1 .5.2zm5.3-1.7c-.3-.3-.7-.5-.8-.4-.1.2 0 .4.3.6.8.5 1.1.4.5-.2zm-10-1.2c0-.2-.5-.5-1-.6-1-.2-1-.3-.8-1.1.5-1.1.2-1.5-.3-.5-.3.4-.7.8-1.1.8-.4 0-.7.2-.7.5s.3.5.7.5c.3 0 .8.2.9.4.3.4 2.3.4 2.3 0zm-5.1-1.3c0-.6.3-.8 2-1.5.9-.4 1-.5.6-.8-.7-.4-2.5-.4-2.5 0 0 .2-.3.4-.7.4-.8 0-.8 0-.2-.7.6-.6.6-.6-.2-.5-.7.2-.7.2-.5-.7.2-.9.2-1-.4-.8-1.4.6-2.6.7-3 .2-.4-.2-1-.3-2-.1-2.7.4-2.8 1.9-.2 2.6l1.6.7c0 .2.5.2 1 .1.7 0 1.7.2 2.6.8 1.8 1 2 1 1.9.3zm-35 30.8a9 9 0 0 1 1-3 112.5 112.5 0 0 0 4.7-10.6c.2-.2 3.5 1.4 4.3 2.2 4.6 4.3.4 10.4-8.2 11.7-1.2.2-1.6.1-1.8-.3zm21-.6c0-.4.2-.7.5-.7s.6.3.6.7c0 .4-.3.7-.6.7s-.5-.3-.5-.7zm19.7-3.4c-.4-.3.1-1.2.6-1.2.3 0 .5.3.5.7 0 .7-.7 1-1.1.5zm8.5-2c0-.3.2-.6.4-.6s.3.2.3.3c0 .2-.1.5-.3.6-.2.1-.4 0-.4-.3zm6.6-.8c-.4-.5-.2-1.2.3-1.2.6 0 .7.3.2 1-.1.2-.3.3-.5.2zm6.1-2.8c0-.5.9-1 1.2-.6.3.2-.4 1.1-.9 1.1-.1 0-.3-.2-.3-.5zm1.9.1c.2-.5 1.3-.6 1.4 0 0 .1-.3.3-.7.4-.6 0-.8 0-.7-.4zm-.2-1.3c-.2-.2 0-.4.1-.6.6-.3 1 .2.5.6-.3.3-.5.3-.6 0zm-1.8-1.4c0-.2.3-.4.5-.4s.3.2.2.4l-.6.3c-.2 0-.3-.1-.1-.3zm6-.3c-.3-.2 0-.8.5-.8.2 0 .3.2.3.5 0 .6-.4.7-.8.3zm-1.3-.8.9-.3c.2 0 .1.1-.2.3l-.9.3.2-.3zm-55.4-9.5c-.4-.1-.9-.5-1-.9 0-.3.6-2.2 1.4-4.1 1.8-4 1.9-4 5.2-3.7 5 .4 7.5 3.8 5 6.5-1.6 1.7-8 3-10.6 2.2z" style="fill:#de9943;stroke-width:.352778" transform="translate(-44.5 -173.2)"/>
  <path d="m48.4 232.7-.5-1.9c-.4-1.8-.3-1.9 4.2-2.6 4.5-.8 10.1-2 11.5-2.4l1-.3-.6-1.3c-.7-1.5-.8-3.6-.2-4.8l1.5-2 1.2-1.3h-2.4c-4.2 0-7.2-2.1-7.1-5 0-3.2 3-5.4 8-5.6 5.4-.3 8.6 2 8.3 6 0 .3-.5 1.1-1.1 1.8l-1 1.2 2.4.2c4.3.3 7.3 2.1 8.8 5.3 1 2.1.1 2.1 10.8 0 8.4-1.6 11-2 11.7-2 2 .4-2.8-5.7-8.2-10.3a58 58 0 0 0-8.7-5.8l-.9-.3.6 1.2c1 1.8.3 3.4-2 4.8l-1 .7 1.6-.2c3.6-.5 7.9 1 9.8 3.6 4.3 5.7-5.2 10.7-13 6.8-4.2-2.1-4.5-6.8-.6-9.2l1-.7-2.2.2c-5.9.5-10.3-3-8.5-6.7.8-1.5 3.4-2.8 6.2-3l2.2-.2-2.5-.8a66 66 0 0 0-13.3-2.8l-3-.2v-2.2c0-1.8 0-2 .4-1.5.3.4 1 .6 2.8.6H68c.1-.2-1-.5-2.3-.7l-2.9-.6c-.1-.1 0-.7.3-1.2l.6-1.1 2.3.2a90 90 0 0 1 22.7 5.1 66 66 0 0 1 22.1 14 7.8 7.8 0 0 0-1.8-1.3l-.8-.5c-.7-.7-2.2-.7-3 .1-.7.6-.8.6-1.7-.5-.6-.8-1.3-1.2-1.8-1.2-.6 0-1-.3-1.4-.9-.3-.5-.8-.8-1.2-.8a2 2 0 0 1-1.3-.6c-.2-.3-.6-.5-.8-.5-.2 0 0 .3.3.5.8.7.5 1.1-.5.6-.4-.2-1-.4-1.4-.4-.6 0-.7-.2-.7-.6.1-.4.5-.6 1.2-.6l1 .1-1-.8c-.5-.5-1.3-1-1.8-1-.9 0-1.2.6-.4.9.3.1.3.3 0 1-.4.6-.4.8.1 1.2.4.3 1 .5 1.3.5.3 0 .7.3 1 .6 0 .3.6.6 1 .6.7 0 1 .3 1 .9 0 .4.3.7.5.5.4-.2 2.4 1.6 2.4 2.2 0 .6 2.6 2.2 4.2 2.6 1 .3 1.6.7 1.8 1.2.5 1.2 1.2 1.7 2.3 1.4.6-.1 1 0 .8.1-.2.3.3.3 1.3 0 1.8-.4 2-.7.8-1.6l-.8-.7h1.3c1.3 0 2.7 1 2.2 1.5-.2.2 0 .4.2.6.3.1-.2.3-1.3.5-4 .5-6.8 2-6.8 3.6 0 1-1 1.4-7.2 2.7-3 .7-5.7 1.3-5.8 1.5-.1.2-1 .4-2.2.4-1 0-2.8.3-4 .5-1.7.4-2.1.6-2.1 1.2 0 .4-.3.8-.7.8-.5.1-.6 0-.5-.6.2-.6.1-.7-.2-.6l-1.8.4c-.7.2-1.2.5-1.2.7 0 .3-.2.5-.4.5a.4.4 0 0 1-.3-.3c0-.4-1.8-.1-2.3.3-.1.2-1 .3-1.7.2h-.9c1 .3.6 1.4-.4 1.5-.7.1-.8 0-.6-.6.2-.9.5-.9-4.2.2a57 57 0 0 1-4 .7c-.8.2-1.4.4-1.3.5.1.2 0 .4-.2.6-.2 0-.5 0-.7-.2-.2-.3-.7-.3-2.5 0-2 .3-2.3.5-2.2 1 .1.4 0 .8-.2.9-.3.1-.5 0-.6-.5-.2-.6-.4-.7-1-.6l-2.2.4c-1.1.2-1.5.4-1.5.9 0 .9-1.1 1.2-1.7.5-.3-.5-.6-.6-2-.3l-1.4.3 1.1.6c1 .5 1.4.5 3.2 0l3-.4c.5 0 1-.2 1-.3 0-.2.9-.2 2-.1 1.7.1 2 0 1.8-.4-.2-.3 0-.8.4-1.2.7-.6 1.4-.4 1.4.4 0 .3.3.4.9.3.4-.1.9 0 1 .2.5.7.9.4 1-.6.1-1.1 1.2-1.5 1.4-.5.1.5.3.6 2 .3 1.5-.2 1.8-.4 1.8-1 0-.3.3-.6.6-.6s.5.3.5.7c0 .7 0 .7.6.2a6 6 0 0 1 2.5-.8c1-.1 2-.5 2-.7.2-.4.4-.4.7-.1.7.6 1.6.1 1.6-.8 0-.6 0-.7.4-.4.5.5 2 .6 2 0 0-.1.3-.3.6-.3s.5.2.5.3c0 .2.5.3 1.2.2a71.4 71.4 0 0 1 3.8-.5l1.6-.5c.7-.3 1-.6 1.1-1.3.2-1.2.8-1.3.8-.2 0 .7 0 .7 1-.1.6-.7.8-.7.6-.2 0 .3 0 .6.2.6s.3-.2.3-.4c0-.4.1-.4.4 0 .4.3.6.2.9-.4.4-.8.4-.8.5 0 0 .5.2.6 1.2.5a6 6 0 0 0 2.3-.6c.8-.4 1.8-.6 3-.5 1.2.1 2 0 2.6-.5.5-.3 1.3-.6 1.7-.6.6 0 .8-.2.8-.9 0-.9.5-1.2.9-.5.1.2 0 .6-.2.8-.2.3.5.1 1.5-.4 1.6-.8 1.8-.8 2.4-.2.4.3 1 .5 1.4.3 1-.3.9 0-.3.7a86 86 0 0 1-14.2 3.5c-29.2 6.1-35.3 7.4-40.3 8.2-7.3 1.1-9.6 1.4-9.9 1zM92.8 201c0-.3 0-.6-.2-.7-.2-.2-.3 0-.3.5 0 .8.2 1 .5.2zm6-2c-.6-.5-1.1-.7-2.1-.6l-1.3.1 1.9 1c2 1 2.7.8 1.4-.5zm-7.6.7c0-.2-.2-.3-.6-.3-.5 0-.5 0 0 .3.6.5.6.5.6 0zm-2.8-1.7c0-.3-.2-.7-.5-1-.4-.4-.7-.4-1-.1-.8.8-1 .3-.2-.7.6-.8.6-1 .2-1-.3 0-.7.3-1 .7-.2.4-.6.7-1 .7s-.7.1-.7.3c0 .3-.3.4-.6.3-.4 0-.7-.3-.7-.6 0-.5.4-.7 2.1-1.4.9-.4 1-.5.6-.8-.7-.4-2.5-.4-2.5 0 0 .2-.3.4-.7.4-.8 0-.8 0-.2-.7.6-.6.6-.6-.2-.5-.7.2-.7.2-.5-.7.2-.9.2-1-.4-.8-1.4.6-2.6.7-3 .2-.4-.2-1-.3-2-.1-2.7.4-2.8 1.9-.2 2.6l1.6.7c0 .2.5.2 1 .1 1 0 3.1.8 4 1.7.3.2 1 .3 1.8.3.7 0 1.3.2 1.3.4s.6.3 1.4.3c.8 0 1.4-.1 1.4-.3zM48 227.5a9 9 0 0 1 1-3 112.5 112.5 0 0 0 4.7-10.6c.2-.2 3.5 1.4 4.3 2.2 4.6 4.3.4 10.4-8.2 11.7-1.2.2-1.6.1-1.8-.3zm21-.6c0-.4.2-.7.5-.7s.6.3.6.7c0 .4-.3.7-.6.7s-.5-.3-.5-.7zm19.7-3.4c-.4-.3.1-1.2.6-1.2.3 0 .5.3.5.7 0 .7-.7 1-1.1.5zm8.5-2c0-.3.2-.6.4-.6s.3.2.3.3c0 .2-.1.5-.3.6-.2.1-.4 0-.4-.3zm6.6-.8c-.4-.5-.2-1.2.3-1.2.6 0 .7.3.2 1-.1.2-.3.3-.5.2zm6.1-2.8c0-.5.9-1 1.2-.6.3.2-.4 1.1-.9 1.1-.1 0-.3-.2-.3-.5zm1.9.1c.2-.5 1.3-.6 1.4 0 0 .1-.3.3-.7.4-.6 0-.8 0-.7-.4zm3-.2c-.2-.2 0-.4.2-.5.4-.2.5 0 .3.3-.2.6-.3.6-.6.2zm-3.2-1c-.2-.3 0-.5.1-.7.6-.3 1 .2.5.6-.3.3-.5.3-.6 0zm-1.8-1.5c0-.2.3-.4.5-.4s.3.2.2.4l-.6.3c-.2 0-.3-.1-.1-.3zm6.3-.7.4-.4.1.4c0 .2-.1.3-.3.3-.2 0-.3-.1-.2-.3zm-56.9-9.8c-1.3-.3-1.3-1.5.3-5 .8-1.9 1.7-3.5 1.9-3.7.7-.5 5.3 0 6.7.7 2.6 1.4 3.3 3.8 1.5 5.7-1.5 1.6-7.5 3-10.4 2.3z" style="fill:#ca9955;stroke-width:.352778" transform="translate(-44.5 -173.2)"/>
  <path d="M48.3 232.4c-.3-.8 0-1 2.3-1.1 1 0 2.6-.3 3.2-.5.7-.2 1.7-.4 2.3-.4.6 0 1.2-.2 1.5-.6.3-.4.5-.4.5-.2 0 .3.5.5 1.2.5 1 0 1.3.1 1.2.6-.1.4-.5.6-1.2.6-.6 0-1.2.2-1.5.3l-3.3.6c-6 .8-6 .8-6.2.2zm12.7-1.7c.2-.7 2.5-1.7 2.9-1.3.5.5 2.4.4 3.3-.2.4-.3 1.6-.6 2.6-.7 1 0 2.6-.4 3.4-.8 2-1 3.2-1 3.2-.2 0 .6-1 .9-7.5 2.2l-7.8 1.5c-.1 0-.2-.2-.1-.5zm-13.3-1c-.4-.5 1-1 4.4-1.5 4.5-.8 10.1-2 11.5-2.4l1-.3-.6-1.3c-.7-1.5-.8-3.6-.2-4.8l1.5-2 1.2-1.3h-2.4c-4.2 0-7.2-2.1-7.1-5 0-3.2 3-5.4 8-5.6 5.4-.3 8.6 2 8.3 6 0 .3-.5 1.1-1.1 1.8l-1 1.2 2.4.2c4.3.3 7.3 2.1 8.8 5.3 1 2.1.1 2.1 10.8 0 8.4-1.6 11-2 11.7-2 2 .4-2.8-5.7-8.2-10.3a58 58 0 0 0-8.7-5.8l-.9-.3.6 1.2c1 1.8.3 3.4-2 4.8l-1 .7 1.6-.2c3.6-.5 7.9 1 9.8 3.6 4.3 5.7-5.2 10.7-13 6.8-4.2-2.1-4.5-6.8-.6-9.2l1-.7-2.2.2c-5.9.5-10.3-3-8.5-6.7.8-1.5 3.4-2.8 6.2-3l2.2-.2-2.5-.8a66 66 0 0 0-13.3-2.8l-3-.2v-2.2c0-1.8 0-2 .4-1.5.3.4 1 .6 2.8.6H68c.1-.2-1-.5-2.3-.7l-2.9-.6c-.1-.1 0-.7.3-1.2.6-1.1.6-1.1 2.8-.9a73.8 73.8 0 0 1 45 19 7.8 7.8 0 0 0-2-1.2l-.7-.5c-.7-.7-2.2-.7-3 .1-.7.6-.8.6-1.7-.5-.6-.8-1.3-1.2-1.8-1.2-.6 0-1-.3-1.4-.9-.3-.5-.8-.8-1.2-.8a2 2 0 0 1-1.3-.6c-.2-.3-.6-.5-.8-.5-.2 0 0 .3.3.5.8.7.5 1.1-.5.6-.4-.2-1-.4-1.4-.4-.6 0-.7-.2-.7-.6.1-.4.5-.6 1.2-.6l1 .1-1-.8c-.5-.5-1.3-1-1.8-1-.9 0-1.2.6-.4.9.3.1.3.3 0 1-.4.6-.4.8.1 1.2.4.3 1 .5 1.3.5.3 0 .7.3 1 .6 0 .3.6.6 1 .6.7 0 1 .3 1 .9 0 .4.3.7.5.5.4-.2 2.4 1.6 2.4 2.2 0 .6 2.6 2.2 4.2 2.6 1 .3 1.6.7 1.8 1.2.5 1.2 1.2 1.7 2.3 1.4.6-.1 1 0 .8.1-.2.3.3.3 1.3 0 1.8-.4 2-.7.8-1.6l-.8-.7h1.3c1.3 0 2.7 1 2.2 1.5-.2.2 0 .4.2.6.3.1-.3.3-1.4.5-4.5.6-7 2-7 3.7 0 .4-.2.8-.5 1-.2.2-5.8 1.4-12.4 2.7a69.9 69.9 0 0 0-13.2 3.1c-.2-.2-.6-.3-1.6 0a236.5 236.5 0 0 1-11 2.2l-5.5 1.1c-3 .6-3.3.7-3.2 1.3 0 .3 0 .6-.2.6s-.4-.2-.4-.5c0-.5-.2-.6-1.2-.4l-2.4.4c-1 .2-1.3.4-1.3.8s-.1.6-.6.6c-.4 0-.7-.2-.6-.4 0-.3-.2-.4-.7-.3-2.3.5-4.2.8-4.3.5zm45-28.7c.2-.3.1-.6 0-.7-.3-.2-.4 0-.4.5 0 .8.2 1 .5.2zm6-2c-.5-.5-1-.7-2-.6l-1.3.1 1.9 1c2 1 2.7.8 1.4-.5zm-7.5.7c0-.2-.2-.3-.6-.3-.5 0-.5 0 0 .3.6.5.6.5.6 0zm-2.8-1.7c0-.3-.2-.7-.5-1-.4-.4-.7-.4-1-.1-.8.8-1 .3-.2-.7.6-.8.6-1 .2-1-.3 0-.7.3-1 .7-.2.4-.6.7-1 .7s-.7.1-.7.3c0 .3-.3.4-.6.3-.4 0-.7-.3-.7-.6 0-.5.4-.7 2.1-1.4.9-.4 1-.5.6-.8-.7-.4-2.5-.4-2.5 0 0 .2-.3.4-.7.4-.8 0-.8 0-.2-.7.6-.6.6-.6-.2-.5-.7.2-.7.2-.5-.7.2-.9.2-1-.4-.8-1.4.6-2.6.7-3 .2-.4-.2-1-.3-2-.1-2.7.4-2.8 1.9-.2 2.6l1.6.7c0 .2.5.2 1 .1 1 0 3.1.8 4 1.7.3.2 1 .3 1.8.3.7 0 1.3.2 1.3.4s.6.3 1.4.3c.8 0 1.4-.1 1.4-.3zm-27.1 30.9c0-.3.3-.7.7-1 .5-.3.7-.2.7.4 0 .3-.3.7-.6.9-.8.3-.8.2-.8-.3zm4.7-.2c-.3-.5.6-1.6 1-1.2.3.4 0 1.5-.5 1.5-.1 0-.4-.1-.5-.3zm-18-1.2a9 9 0 0 1 1-3 112.5 112.5 0 0 0 4.7-10.6c.2-.2 3.5 1.4 4.3 2.2 4.6 4.3.4 10.4-8.2 11.7-1.2.2-1.6.1-1.8-.3zm29.1 0c0-.8.6-1.3 1.2-1.1.3.1.8 0 1.1-.3.8-.8 2.3-.8 2.3 0 0 .6 1 .6 1.4-.1.3-.6 1-.8 3.4-1 .6 0 1.2-.1 1.4-.3l1.4-.4c.9-.2 1.2-.1 1.4.3v.5a473.8 473.8 0 0 0-13.4 2.9c-.1 0-.2-.2-.2-.5zm-8-.2a.7.7 0 0 1 .2-.8c.2-.2.4-.2.6 0 .1.3 0 .6-.1.8-.2.3-.4.2-.6 0zm13.1-1.5c-.3-.8.2-1.6.6-1 .3.2.3.5 0 1s-.4.5-.6 0zm-7.5-.4c.2-.5 1.3-.6 1.5 0 0 .1-.3.3-.8.4-.6 0-.8 0-.7-.4zm16.8-1.2c.1-.4 0-.5-.2-.3-.3.1-.4-.1-.4-.9 0-.5.1-1 .3-1 .2 0 .4.3.4.8 0 .4.1.6.3.4.3-.5 2.5-.4 2.9.2.1.2.3.2.7-.2.2-.3.9-.5 1.4-.5.6 0 1.5-.3 2-.6a6 6 0 0 1 3.1-.7c1.3 0 2.4-.2 2.7-.4.4-.3 1.1-.5 1.8-.6.6 0 2-.5 3-1 1.5-.8 1.7-.8 2.3-.4.3.4.9.5 1.4.3.8-.2.8-.2.1.3-1 .8-3.5 1.5-12.7 3.5s-9.4 2-9.1 1.1zm-6.6-1c.2-.3.6-.5.7-.5.2 0 .3.2.3.5s-.3.5-.7.5c-.6 0-.7 0-.3-.5zm4-.2c.2-.7 1-.8 1-.2 0 .3-.3.6-.6.6s-.5-.2-.5-.4zm6.2-.9c0-.4.1-.5.3-.2v.7c-.2.1-.3-.1-.3-.5zm8.5-1.9c0-.2.1-.4.3-.5.2-.1.4 0 .4.3s-.2.6-.4.6-.3-.2-.3-.4zm3.9-1.3c0-.4 0-.5.2-.2v.7c-.1.1-.2 0-.2-.5zm2.4-.8c0-.2.3-.5.6-.6.8-.3.9 0 .1.5-.4.3-.7.3-.7 0zm4.8-.3c0-.2 0-.4.3-.5.4-.2.5 0 .3.3-.2.6-.3.6-.6.2zm-3-1.5c0-.2.2-.3.4-.3s.2.1.1.3c0 .2-.3.4-.3.4l-.2-.4zm4.4-1.7.4-.4.1.4c0 .2-.1.3-.3.3-.2 0-.3-.1-.2-.3zm-56.9-9.8c-1.3-.3-1.3-1.5.3-5 .8-1.9 1.7-3.5 1.9-3.7.7-.5 5.3 0 6.7.7 2.6 1.4 3.3 3.8 1.5 5.7-1.5 1.6-7.5 3-10.4 2.3z" style="fill:#e3973a;stroke-width:.352778" transform="translate(-44.5 -173.2)"/>
  <path d="M48.3 232.4c-.3-.8 0-1 2.3-1.1 1 0 2.6-.3 3.2-.5.7-.2 1.7-.4 2.3-.4.6 0 1.2-.2 1.5-.6.3-.4.5-.4.5-.2 0 .3.5.5 1.2.5 1 0 1.3.1 1.2.6-.1.4-.5.6-1.2.6-.6 0-1.2.2-1.5.3l-3.3.6c-6 .8-6 .8-6.2.2zm12.7-1.7c.2-.7 2.5-1.7 2.9-1.3.5.5 2.4.4 3.3-.2.4-.3 1.6-.6 2.6-.7 1 0 2.6-.4 3.4-.8 2-1 3.2-1 3.2-.2 0 .6-1 .9-7.5 2.2l-7.8 1.5c-.1 0-.2-.2-.1-.5zm-13.3-1c-.4-.5 1-1 4.4-1.5 4.5-.8 10.1-2 11.5-2.4l1-.3-.6-1.3c-.7-1.5-.8-3.6-.2-4.8l1.5-2 1.2-1.3h-2.4c-4.2 0-7.2-2.1-7.1-5 0-3.2 3-5.4 8-5.6 5.4-.3 8.6 2 8.3 6 0 .3-.5 1.1-1.1 1.8l-1 1.2 2.4.2c4.3.3 7.3 2.1 8.8 5.3 1 2.1.1 2.1 10.8 0 8.4-1.6 11-2 11.7-2 2 .4-2.8-5.7-8.2-10.3a58 58 0 0 0-8.7-5.8l-.9-.3.6 1.2c1 1.8.3 3.4-2 4.8l-1 .7 1.6-.2c3.6-.5 7.9 1 9.8 3.6 4.3 5.7-5.2 10.7-13 6.8-4.2-2.1-4.5-6.8-.6-9.2l1-.7-2.2.2c-5.9.5-10.3-3-8.5-6.7.8-1.5 3.4-2.8 6.2-3l2.2-.2-2.5-.8a66 66 0 0 0-13.3-2.8l-3-.2v-1.3c0-1.1 0-1.2.8-1 .5.2 2 .3 3.2.4 2.2.2 2.3.2 3.3-1 1.2-1.3 1-1.5-1.5-1.8-1-.2-1.7-.4-1.7-.7 0-.5-.8-.7-2.3-.6-.3 0-.5-.2-.5-.4a77.1 77.1 0 0 1 36.7 10.6c3.4 2.2 7.4 5 7.4 5.5l-1 .5c-.5 0-1.2.4-1.6.8-.6.5-.7.4-1.6-.6-.5-.7-1.3-1.2-1.7-1.2-.4 0-1-.4-1.5-1.1-1.4-1.9-2.2-2.8-2.6-2.8-.3 0-.8-.3-1.2-.6a5 5 0 0 0-1.9-1c-.9-.1-1.2 0-2 .8-1 .9-1.2 2.5-.3 2.2.2-.1.8.2 1.3.7.5.4 1.2.8 1.5.8.3 0 .6.2.6.5 0 .6.8.9 1.8.6.7-.1.7 0 .5.6-.1.5 0 .8.3.8h1c.2.1.4.3.4.6 0 .2.1.4.4.4.3 0 .6.2.6.3 0 .9 2.1 2.5 4 3 1.4.5 2 .9 2.3 1.4.5 1.2 1.2 1.7 2.3 1.4.7-.1 1 0 .8.2-.2.2.4.2 1.6-.2a8 8 0 0 1 3-.2c.9.3.8.3-1 .6-4.5.6-7 2-7 3.7 0 .4-.2.8-.5 1-.2.2-5.8 1.4-12.4 2.7a69.9 69.9 0 0 0-13.2 3.1c-.2-.2-.6-.3-1.6 0a236.5 236.5 0 0 1-11 2.2l-5.5 1.1c-3 .6-3.3.7-3.2 1.3 0 .3 0 .6-.2.6s-.4-.2-.4-.5c0-.5-.2-.6-1.2-.4l-2.4.4c-1 .2-1.3.4-1.3.8s-.1.6-.6.6c-.4 0-.7-.2-.6-.4 0-.3-.2-.4-.7-.3-2.3.5-4.2.8-4.3.5zm51.7-29.9c-.6-1.1-1.4-1.5-2.8-1.4l-1.3.1 1.8 1c2.1 1.1 2.8 1.2 2.3.3zM92 199c0-.5 0-.7-.6-.7-.5 0-.6.2-.5.6.1.3 0 .5-.4.5-.5 0-.5 0-.1.3.7.4 1.3.1 1.6-.7zm-3.7-.7c.5-.2.4-.4-.3-1-.4-.4-1-.7-1.1-.6-.2.2-.3 0-.3-.3s.1-.5.3-.5c.2 0 .4-.2.4-.4s-.4-.3-.8-.3-.6-.2-.5-.4c.1-.1-.4-.5-1.1-.7a6 6 0 0 1-2.7-1.6c-.6-.6-1.3-.7-2.1-.3a3 3 0 0 1-1.8-.1c-.6-.2-1.7-.3-2.5-.3l-1.8.2c-.3 0-.4.5-.4 1.3 0 1.5.9 2.2 2.4 2.2.6 0 1 .2 1.2.4.1.2.7.3 1.2.3 1-.1 3.5.6 4 1.1.3.2.9.3 1.5.3s1.3.2 1.4.3c.2.2.8.4 1.3.5l1 .2c.1 0 .4 0 .7-.3zm-5.3-1.4c0-.2.2-.3.4-.3s.3.1.3.3c0 .2-.1.4-.3.4a.4.4 0 0 1-.4-.4zm-21.8 32c0-.3.3-.7.7-1 .5-.3.7-.2.7.4 0 .3-.3.7-.6.9-.8.3-.8.2-.8-.3zm4.7-.2c-.3-.5.6-1.6 1-1.2.3.4 0 1.5-.5 1.5-.1 0-.4-.1-.5-.3zm-18-1.2a9 9 0 0 1 1-3 112.5 112.5 0 0 0 4.7-10.6c.2-.2 3.5 1.4 4.3 2.2 4.6 4.3.4 10.4-8.2 11.7-1.2.2-1.6.1-1.8-.3zm29.1 0c0-.8.6-1.3 1.2-1.1.3.1.8 0 1.1-.3.8-.8 2.3-.8 2.3 0 0 .6 1 .6 1.4-.1.3-.6 1-.8 3.4-1 .6 0 1.2-.1 1.4-.3l1.4-.4c.9-.2 1.2-.1 1.4.3v.5a473.8 473.8 0 0 0-13.4 2.9c-.1 0-.2-.2-.2-.5zm-8-.2a.7.7 0 0 1 .2-.8c.2-.2.4-.2.6 0 .1.3 0 .6-.1.8-.2.3-.4.2-.6 0zm13.1-1.5c-.3-.8.2-1.6.6-1 .3.2.3.5 0 1s-.4.5-.6 0zm-7.5-.4c.2-.5 1.3-.6 1.5 0 0 .1-.3.3-.8.4-.6 0-.8 0-.7-.4zm16.8-1.2c.1-.4 0-.5-.2-.3-.3.1-.4-.1-.4-.9 0-.5.1-1 .3-1 .2 0 .4.3.4.8 0 .4.1.6.3.4.3-.5 2.5-.4 2.9.2.1.2.3.2.7-.2.2-.3.9-.5 1.4-.5.6 0 1.5-.3 2-.6a6 6 0 0 1 3.1-.7c1.3 0 2.4-.2 2.7-.4.4-.3 1.1-.5 1.8-.6.6 0 2-.5 3-1 1.5-.8 1.7-.8 2.3-.4.3.4.9.5 1.4.3.8-.2.8-.2.1.3-1 .8-3.5 1.5-12.7 3.5s-9.4 2-9.1 1.1zm-6.6-1c.2-.3.6-.5.7-.5.2 0 .3.2.3.5s-.3.5-.7.5c-.6 0-.7 0-.3-.5zm4-.2c.2-.7 1-.8 1-.2 0 .3-.3.6-.6.6s-.5-.2-.5-.4zm6.2-.9c0-.4.1-.5.3-.2v.7c-.2.1-.3-.1-.3-.5zm8.5-1.9c0-.2.1-.4.3-.5.2-.1.4 0 .4.3s-.2.6-.4.6-.3-.2-.3-.4zm3.9-1.3c0-.4 0-.5.2-.2v.7c-.1.1-.2 0-.2-.5zm2.4-.8c0-.2.3-.5.6-.6.8-.3.9 0 .1.5-.4.3-.7.3-.7 0zm4.8-.3c0-.2 0-.4.3-.5.4-.2.5 0 .3.3-.2.6-.3.6-.6.2zm-3-1.5c0-.2.2-.3.4-.3s.2.1.1.3c0 .2-.3.4-.3.4l-.2-.4zm4.4-1.7.4-.4.1.4c0 .2-.1.3-.3.3-.2 0-.3-.1-.2-.3zm-56.9-9.8c-1.3-.3-1.3-1.5.3-5 .8-1.9 1.7-3.5 1.9-3.7.7-.5 5.3 0 6.7.7 2.6 1.4 3.3 3.8 1.5 5.7-1.5 1.6-7.5 3-10.4 2.3zm36-3.3c-.5-.3-.5-.3.2-.3.5 0 .7.1.6.3-.3.4-.2.4-.9 0z" style="fill:#dc9339;stroke-width:.352778" transform="translate(-44.5 -173.2)"/>
  <path d="M48.3 232.4c-.3-.8 0-1 2.3-1.1 1 0 2.6-.3 3.2-.5.7-.2 1.7-.4 2.3-.4.6 0 1.2-.2 1.5-.6.3-.4.5-.4.5-.2 0 .3.5.5 1.2.5 1 0 1.3.1 1.2.6-.1.4-.5.6-1.2.6-.6 0-1.2.2-1.5.3l-3.3.6c-6 .8-6 .8-6.2.2zm12.7-1.7c.2-.7 2.5-1.7 2.9-1.3.5.5 2.4.4 3.3-.2.4-.3 1.6-.6 2.6-.7 1 0 2.6-.4 3.4-.8 2-1 3.2-1 3.2-.2 0 .6-1 .9-7.5 2.2l-7.8 1.5c-.1 0-.2-.2-.1-.5zm-8.3-.9v-.6c0-.1-.2-.2-.5 0l-2.7.4c-2 .2-2.1.1-1.5-.3.3-.3 1.8-.8 3.1-1 4-.6 11.3-2 12.5-2.5l1-.3-.6-1.3c-.7-1.5-.8-3.6-.2-4.8l1.5-2 1.2-1.3h-2.4c-4.2 0-7.2-2.1-7.1-5 0-3.2 3-5.4 8-5.6 5.4-.3 8.6 2 8.3 6 0 .3-.5 1.1-1.1 1.8l-1 1.2 2.4.2c4.3.3 7.3 2.1 8.8 5.3 1 2.1.1 2.1 10.8 0 8.4-1.6 11-2 11.7-2 2 .4-2.8-5.7-8.2-10.3a58 58 0 0 0-8.7-5.8l-.9-.3.6 1.2c1 1.8.3 3.4-2 4.8l-1 .7 1.6-.2c3.6-.5 7.9 1 9.8 3.6 4.3 5.7-5.2 10.7-13 6.8-4.2-2.1-4.5-6.8-.6-9.2l1-.7-2.2.2c-5.9.5-10.3-3-8.5-6.7.8-1.5 3.4-2.8 6.2-3l2.2-.2-2.5-.8a66 66 0 0 0-13.3-2.8l-3-.2V193l2.3.2 3 .3c1 .2 1.7-.1 1.4-.5 0-.3.2-.3.8-.2 1.3.3 2.5-.3 1.5-.7-.4-.1-.6-.4-.4-.8.1-.6-.1-.8-1.2-1a11 11 0 0 0-1.7-.4l-1.4-.6-1-.5h1.1c2 0 8.7 1 12 2 3.2.8 3.3 1.1.1.4-1.5-.3-1.9-.2-2.3.2-.4.4-.8.5-1 .3-.1-.2-.9-.2-1.8 0-1.7.4-2.2 1-.9 1 .5 0 .7.2.6.5-.1.2 0 .6.2.8.2.2 0 .3-.6.2-.4 0-1 0-1 .2-.2.2 0 .4.3.5 1.1 0 3 .5 4.6 1l2.2.5c.9.2 2 .6 3.3 1.3l1.3.3c.7 0 1.8.3 3.5 1.2a3 3 0 0 0 1.5.3c.4-.1.8 0 .9.4.1.3.6.6 1.1.6.6 0 .7 0 .4.2-.6.1-.5.3.3 1l1.5 1a9 9 0 0 1 2.6 1.7c.4.4 1 .6 1.4.5.4-.1.7 0 .9.4.2.7 1 1.4 2 1.9.5.1.9.5.9.8 0 .7 3.4 3.4 4 3.2.5-.2.7.2.6 1 0 .1.2.4.5.5.2 0 .4.4.3.7-.1.2 0 .5.2.5s.4.3.4.7c0 .8.3.9 1 .2.3-.2.1 0-.3.6s-.7 1.3-.7 1.6c0 .4-.2.8-.5 1-.2.2-5.8 1.4-12.4 2.7a69.9 69.9 0 0 0-13.2 3.1c-.2-.2-.6-.3-1.6 0a236.5 236.5 0 0 1-11 2.2l-5.5 1.1c-3 .6-3.3.7-3.2 1.3 0 .3 0 .6-.2.6s-.4-.2-.4-.5c0-.5-.2-.6-1.2-.4l-2.4.5c-1 .1-1.3.3-1.3.7 0 .3-.2.6-.5.7-.3 0-.6 0-.7-.2zm20.7-38.7c.1-.3 0-.5-.3-.5s-.6.2-.6.5.2.5.4.5c.1 0 .4-.2.5-.5zm-12.1 37.8c0-.3.3-.7.7-1 .5-.3.7-.2.7.4 0 .3-.3.7-.6.9-.8.3-.8.2-.8-.3zm4.7-.2c-.3-.5.6-1.6 1-1.2.3.4 0 1.5-.5 1.5-.1 0-.4-.1-.5-.3zm-18-1.2a9 9 0 0 1 1-3 112.5 112.5 0 0 0 4.7-10.6c.2-.2 3.5 1.4 4.3 2.2 4.6 4.3.4 10.4-8.2 11.7-1.2.2-1.6.1-1.8-.3zm29.1 0c0-.8.6-1.3 1.2-1.1.3.1.8 0 1.1-.3.8-.8 2.3-.8 2.3 0 0 .6 1 .6 1.4-.1.3-.6 1-.8 3.4-1 .6 0 1.2-.1 1.4-.3l1.4-.4c.9-.2 1.2-.1 1.4.3v.5a473.8 473.8 0 0 0-13.4 2.9c-.1 0-.2-.2-.2-.5zm-8-.2a.7.7 0 0 1 .2-.8c.2-.2.4-.2.6 0 .1.3 0 .6-.1.8-.2.3-.4.2-.6 0zm13.1-1.5c-.3-.8.2-1.6.6-1 .3.2.3.5 0 1s-.4.5-.6 0zm-7.5-.4c.2-.5 1.3-.6 1.5 0 0 .1-.3.3-.8.4-.6 0-.8 0-.7-.4zm16.8-1.2c.1-.4 0-.5-.2-.3-.3.1-.4-.1-.4-.9 0-.5.1-1 .3-1 .2 0 .4.3.4.8 0 .4.1.6.3.4.3-.5 2.5-.4 2.9.2.1.2.3.2.7-.2.2-.3.9-.5 1.4-.5.6 0 1.5-.3 2-.6a6 6 0 0 1 3.1-.7c1.3 0 2.4-.2 2.7-.4.4-.3 1.1-.5 1.8-.6.6 0 2-.5 3-1 1.4-.8 1.7-.8 2.2-.4.3.3.8.5 1 .5 1 0-.1.7-2 1.2-2.4.7-18 4-18.8 4-.5 0-.6 0-.4-.5zm-6.6-1c.2-.3.6-.5.7-.5.2 0 .3.2.3.5s-.3.5-.7.5c-.6 0-.7 0-.3-.5zm4-.2c.2-.7 1-.8 1-.2 0 .3-.3.6-.6.6s-.5-.2-.5-.4zm6.2-.9c0-.4.1-.5.3-.2v.7c-.2.1-.3-.1-.3-.5zm8.5-1.9c0-.2.1-.4.3-.5.2-.1.4 0 .4.3s-.2.6-.4.6-.3-.2-.3-.4zm3.9-1.3c0-.4 0-.5.2-.2v.7c-.1.1-.2 0-.2-.5zm2.4-.8c0-.2.3-.5.6-.6.8-.3.9 0 .1.5-.4.3-.7.3-.7 0zm1.8-1.8c0-.2.2-.3.4-.3s.2.1.1.3c0 .2-.3.4-.3.4l-.2-.4zm-1-2.8c1.7-.6 4.2-1 3.8-.5-.2.1-2.7.7-4.7 1-.6.1-.2-.1.8-.5zm-51.5-8.7c-1.3-.3-1.3-1.5.3-5 .8-1.9 1.7-3.5 1.9-3.7.7-.5 5.3 0 6.7.7 2.6 1.4 3.3 3.8 1.5 5.7-1.5 1.6-7.5 3-10.4 2.3zm44.8-2.2a14.8 14.8 0 0 1-3.2-2.5c0-.5 1 0 4.1 2.3 2.2 1.7 2.9 2.3 2.5 2.3l-3.4-2.1zm-14.5-4c-.3-.5-.3-.6.3-.6.4 0 .7.2.7.5 0 .8-.5.9-1 .2zm3.3-.7c-.1-.2-.6-.3-1-.2-.9.2-.9.1-.4-.4.7-.8.2-1.1-1.1-.8-1 .3-1.2.2-1.8-.4a9 9 0 0 0-3.6-2.4c-.2 0-.8-.4-1.1-.8-.4-.5-1-1-1.3-1-.3 0-.4 0-.2-.1.9-.4 13.1 4.4 14.8 5.7.6.5.5.5-1.2.3-1-.1-1.9 0-2 .2-.3.4-.8.4-1 0zm-28.6-9.3h1l-.6.1c-.6 0-.8 0-.4-.1z" style="fill:#db794b;stroke-width:.352778" transform="translate(-44.5 -173.2)"/>
  <path d="M48.3 232.4c-.3-.8 0-1 2.3-1.1 1 0 2.6-.3 3.2-.5.7-.2 1.7-.4 2.3-.4.6 0 1.2-.2 1.5-.6.3-.4.5-.4.5-.2 0 .3.5.5 1.2.5 1 0 1.3.1 1.2.6-.1.4-.5.6-1.2.6-.6 0-1.2.2-1.5.3l-3.3.6c-6 .8-6 .8-6.2.2zm12.7-1.7c.2-.7 2.5-1.7 2.9-1.3.5.5 2.4.4 3.3-.2.4-.3 1.6-.6 2.6-.7 1 0 2.6-.4 3.4-.8 2-1 3.2-1 3.2-.2 0 .6-1 .9-7.5 2.2l-7.8 1.5c-.1 0-.2-.2-.1-.5zm-8.3-.9v-.6c0-.1-.2-.2-.5 0l-2.7.4c-2 .2-2.1.1-1.5-.3.3-.3 1.8-.8 3.1-1 4-.6 11.3-2 12.5-2.5l1-.3-.6-1.3c-.7-1.5-.8-3.6-.2-4.8l1.5-2 1.2-1.3h-2.4c-4.2 0-7.2-2.1-7.1-5 0-3.2 3-5.4 8-5.6 5.4-.3 8.6 2 8.3 6 0 .3-.5 1.1-1.1 1.8l-1 1.2 2.4.2c4.3.3 7.3 2.1 8.8 5.3 1 2.1.1 2.1 10.8 0 8.4-1.6 11-2 11.7-2 2 .4-2.8-5.7-8.2-10.3a58 58 0 0 0-8.7-5.8l-.9-.3.6 1.2c1 1.8.3 3.4-2 4.8l-1 .7 1.6-.2c3.6-.5 7.9 1 9.8 3.6 4.3 5.7-5.2 10.7-13 6.8-4.2-2.1-4.5-6.8-.6-9.2l1-.7-2.2.2c-5.9.5-10.3-3-8.5-6.7.8-1.5 3.4-2.8 6.2-3l2.2-.2-2.5-.8a66 66 0 0 0-13.3-2.8l-3-.2V193l2.3.2 3 .3c1 .2 1.7-.1 1.4-.5 0-.3.2-.3.8-.2 1.3.3 2.5-.3 1.5-.7-.4-.1-.6-.4-.4-.8.1-.6-.1-.8-1.2-1a11 11 0 0 0-1.7-.4l-1.4-.6-1-.5h1.1c2 0 8.7 1 12 2 3.2.8 3.3 1.1.1.4-1.5-.3-1.9-.2-2.3.2-.4.4-.8.5-1 .3-.1-.2-.9-.2-1.8 0-1.7.4-2.2 1-.9 1 .5 0 .7.2.6.5-.1.2 0 .6.2.8.2.2 0 .3-.6.2-.4 0-1 0-1 .2-.2.2 0 .4.3.5 1.1 0 3 .5 4.6 1l2.2.5c.9.2 2 .6 3.3 1.3l1.3.3c.7 0 1.8.3 3.5 1.2a3 3 0 0 0 1.5.3c.4-.1.8 0 .9.4.1.3.6.6 1.1.6.6 0 .7 0 .4.2-.6.1-.5.3.3 1l1.5 1a9 9 0 0 1 2.6 1.7c.4.4 1 .6 1.4.5.4-.1.7 0 .9.4.2.7 1 1.4 2 1.9.5.1.9.5.9.8 0 .7 3.4 3.4 4 3.2.5-.2.7.2.6 1 0 .1.2.4.5.5.2 0 .4.4.3.7-.1.2 0 .5.2.5s.4.3.4.7c0 .8.3.9 1 .2.3-.2.1 0-.3.6s-.7 1.3-.7 1.6c0 .4-.2.8-.5 1-.2.2-5.8 1.4-12.4 2.7a69.9 69.9 0 0 0-13.2 3.1c-.2-.2-.6-.3-1.6 0a236.5 236.5 0 0 1-11 2.2l-5.5 1.1c-3 .6-3.3.7-3.2 1.3 0 .3 0 .6-.2.6s-.4-.2-.4-.5c0-.5-.2-.6-1.2-.4l-2.4.5c-1 .1-1.3.3-1.3.7 0 .3-.2.6-.5.7-.3 0-.6 0-.7-.2zm24.7-11.2h-.7c-.3 0-.2.1.2.2.4 0 .6-.1.5-.2zm-10.7-6c-.2-.5-1.2-.7-1.2-.2 0 .4.8 1 1 .9.2-.1.3-.4.2-.7zm-3.7-.5c0-.2-.1-.4-.3-.4-.2 0-.4.2-.4.4s.2.3.4.3.3-.1.3-.3zm17-9-.4-.4c-.2 0-.4 0-.4.2s.2.4.4.4.3-.1.3-.2zm-6.6-12c.1-.3 0-.5-.3-.5s-.6.2-.6.5.2.5.4.5c.1 0 .4-.2.5-.5zm-12.1 37.8c0-.3.3-.7.7-1 .5-.3.7-.2.7.4 0 .3-.3.7-.6.9-.8.3-.8.2-.8-.3zm4.7-.2c-.3-.5.6-1.6 1-1.2.3.4 0 1.5-.5 1.5-.1 0-.4-.1-.5-.3zm-18-1c0-.2.3-1.3.8-2.5a139.2 139.2 0 0 0 5-11.3c0-.2 3.4 1.4 4.2 2.2 4.6 4.3.4 10.4-8.2 11.7-1 .1-1.6 0-1.7-.1zm4-4.1c.6-.5.6-.5-.2-.3-.4 0-.9.3-1 .5-.3.5.4.3 1.1-.2zm.8-3c0-.2-.2-.4-.4-.4s-.3.2-.3.4.1.3.3.3c.2 0 .4-.1.4-.3zm3.5-1.5c0-.2-.1-.3-.3-.1-.2 0-.4.3-.4.5s.2.3.4.2c.2-.1.3-.4.3-.6zm20.8 8.4c0-.8.6-1.3 1.2-1.1.3.1.8 0 1.1-.3.8-.8 2.3-.8 2.3 0 0 .6 1 .6 1.4-.1.3-.6 1-.8 3.4-1 .6 0 1.2-.1 1.4-.3l1.4-.4c.9-.2 1.2-.1 1.4.3v.5a473.8 473.8 0 0 0-13.4 2.9c-.1 0-.2-.2-.2-.5zm-8-.2a.7.7 0 0 1 .2-.8c.2-.2.4-.2.6 0 .1.3 0 .6-.1.8-.2.3-.4.2-.6 0zm13.1-1.5c-.3-.8.2-1.6.6-1 .3.2.3.5 0 1s-.4.5-.6 0zm-7.5-.4c.2-.5 1.3-.6 1.5 0 0 .1-.3.3-.8.4-.6 0-.8 0-.7-.4zm16.8-1.2c.1-.4 0-.5-.2-.3-.3.1-.4-.1-.4-.9 0-.5.1-1 .3-1 .2 0 .4.3.4.8 0 .4.1.6.3.4.3-.5 2.5-.4 2.9.2.1.2.3.2.7-.2.2-.3.9-.5 1.4-.5.6 0 1.5-.3 2-.6a6 6 0 0 1 3.1-.7c1.3 0 2.4-.2 2.7-.4.4-.3 1.1-.5 1.8-.6.6 0 2-.5 3-1 1.4-.8 1.7-.8 2.2-.4.3.3.8.5 1 .5 1 0-.1.7-2 1.2-2.4.7-18 4-18.8 4-.5 0-.6 0-.4-.5zm-6.6-1c.2-.3.6-.5.7-.5.2 0 .3.2.3.5s-.3.5-.7.5c-.6 0-.7 0-.3-.5zm4-.2c.2-.7 1-.8 1-.2 0 .3-.3.6-.6.6s-.5-.2-.5-.4zm6.2-.9c0-.4.1-.5.3-.2v.7c-.2.1-.3-.1-.3-.5zm8.5-1.9c0-.2.1-.4.3-.5.2-.1.4 0 .4.3s-.2.6-.4.6-.3-.2-.3-.4zm3.9-1.3c0-.4 0-.5.2-.2v.7c-.1.1-.2 0-.2-.5zm2.4-.8c0-.2.3-.5.6-.6.8-.3.9 0 .1.5-.4.3-.7.3-.7 0zm1.8-1.8c0-.2.2-.3.4-.3s.2.1.1.3c0 .2-.3.4-.3.4l-.2-.4zm-1-2.8c1.7-.6 4.2-1 3.8-.5-.2.1-2.7.7-4.7 1-.6.1-.2-.1.8-.5zm-51.5-8.7c-.4 0-.8-.4-1-.8a20 20 0 0 1 3.5-7.8c.4-.3 1.7-.3 2.9-.3 5 .5 7.6 3.8 5 6.6-1.5 1.6-7.5 3-10.4 2.3zm3.5-3-.2-.3-.4.4c0 .2 0 .3.2.3s.4-.1.4-.3zm2.7-1.6c.2-.7-.5-.5-.8.1 0 .3 0 .5.2.4.3 0 .5-.3.6-.5zm-3-.5c.2-.2.1-.3 0-.3-.2 0-.5.1-.6.3-.1.2 0 .4.1.4.2 0 .5-.2.6-.4zm2.6-1.4c0-.2 0-.3-.4-.3-.3 0-.5.1-.5.3 0 .2.1.4.3.4.2 0 .4-.2.6-.4zm39 4.3a14.8 14.8 0 0 1-3.2-2.5c0-.5 1 0 4.1 2.3 2.2 1.7 2.9 2.3 2.5 2.3l-3.4-2.1zm-14.5-4c-.3-.5-.3-.6.3-.6.4 0 .7.2.7.5 0 .8-.5.9-1 .2zm3.3-.7c-.1-.2-.6-.3-1-.2-.9.2-.9.1-.4-.4.7-.8.2-1.1-1.1-.8-1 .3-1.2.2-1.8-.4a9 9 0 0 0-3.6-2.4c-.2 0-.8-.4-1.1-.8-.4-.5-1-1-1.3-1-.3 0-.4 0-.2-.1.9-.4 13.1 4.4 14.8 5.7.6.5.5.5-1.2.3-1-.1-1.9 0-2 .2-.3.4-.8.4-1 0zm-28.6-9.3h1l-.6.1c-.6 0-.8 0-.4-.1z" style="fill:#ec961a;stroke-width:.352778" transform="translate(-44.5 -173.2)"/>
  <path d="M48.3 232.4c-.3-.8 0-1 2.3-1.1 1 0 2.6-.3 3.2-.5.7-.2 1.7-.4 2.3-.4.6 0 1.2-.2 1.5-.6.3-.4.5-.4.5-.2 0 .3.5.5 1.2.5 1 0 1.3.1 1.2.6-.1.4-.5.6-1.2.6-.6 0-1.2.2-1.5.3l-3.3.6c-6 .8-6 .8-6.2.2zm12.7-1.7c.2-.7 2.5-1.7 2.9-1.3.5.5 2.4.4 3.3-.2.4-.3 1.6-.6 2.6-.7 1 0 2.6-.4 3.4-.8 2-1 3.2-1 3.2-.2 0 .6-1 .9-7.5 2.2l-7.8 1.5c-.1 0-.2-.2-.1-.5zm-8.3-.9v-.6c0-.1-.2-.2-.5 0l-2.7.4c-3.2.2-1.4-.3 7.7-2a188 188 0 0 0 8-1.6c.1-.1-.1-.8-.6-1.5-1.8-2.6-1.6-4.7.6-6.9l1.5-1.5h-2.3c-4.4 0-7.4-2-7.4-4.8 0-2.5 1.8-4.4 5.2-5.4 5-1.5 10 .3 10.9 3.9.3 1.3 0 2.4-1.4 3.7l-1.1 1.2h2.3c4.5 0 8.2 2.3 9.2 5.5.4 1.4.4 1.5-.2 2-.7.5-.7.5.2.3 5-1 20.1-3.8 20.3-3.6l-10.2 2.2a52 52 0 0 0-11.5 2.7c-.2-.2-.6-.3-1.6 0a236.4 236.4 0 0 1-11 2.2l-5.5 1.1c-3 .6-3.3.7-3.2 1.3 0 .3 0 .6-.2.6s-.4-.2-.4-.5c0-.5-.2-.6-1.2-.4l-2.4.5c-1 .1-1.3.3-1.3.7 0 .3-.2.6-.5.7-.3 0-.6 0-.7-.2zm24.7-11.2h-.7c-.3 0-.2.1.2.2.4 0 .6-.1.5-.2zm-10.7-6c-.2-.5-1.2-.7-1.2-.2 0 .4.8 1 1 .9.2-.1.3-.4.2-.7zm-3.7-.5c0-.2-.1-.4-.3-.4-.2 0-.4.2-.4.4s.2.3.4.3.3-.1.3-.3zm-1.7 16.8c0-.3.3-.7.7-1 .5-.3.7-.2.7.4 0 .3-.3.7-.6.9-.8.3-.8.2-.8-.3zm4.7-.2c-.3-.5.6-1.6 1-1.2.3.4 0 1.5-.5 1.5-.1 0-.4-.1-.5-.3zm-18-1c0-.2.3-1.3.8-2.5a139.2 139.2 0 0 0 4.9-11.3l2 .8c5.5 2.4 5.5 7.7 0 11-1 .6-2.8 1.3-3.9 1.5l-2.8.6c-.4.1-.8 0-1-.1zm4-4.1c.6-.5.6-.5-.2-.3-.4 0-.9.3-1 .5-.3.5.4.3 1.1-.2zm.8-3c0-.2-.2-.4-.4-.4s-.3.2-.3.4.1.3.3.3c.2 0 .4-.1.4-.3zm3.5-1.5c0-.2-.1-.2-.3-.1-.2 0-.4.3-.4.5s.2.3.4.2c.2-.1.3-.4.3-.6zm20.8 8.4c0-.8.6-1.3 1.2-1.1.3.1.8 0 1.1-.3.8-.8 2.3-.8 2.3 0 0 .6 1 .6 1.4-.1.3-.6 1-.8 3.4-1 .6 0 1.2-.1 1.4-.3l1.4-.4c.9-.2 1.2-.1 1.4.3v.5a473.8 473.8 0 0 0-13.4 2.9c-.1 0-.2-.2-.2-.5zm-8-.2a.7.7 0 0 1 .2-.8c.2-.2.4-.2.6 0 .1.3 0 .6-.1.8-.2.3-.4.2-.6 0zm13.1-1.5c-.3-.8.2-1.6.6-1 .3.2.3.5 0 1s-.4.5-.6 0zm-7.5-.4c.2-.5 1.3-.6 1.5 0 0 .1-.3.3-.8.4-.6 0-.8 0-.7-.4zm16.8-1.2c.1-.4 0-.5-.2-.3-.3.1-.4-.1-.4-.9 0-.5.1-1 .3-1 .2 0 .4.3.4.8 0 .4.1.6.3.4.3-.5 2.5-.4 2.9.2.1.2.3.2.7-.2.2-.3.9-.5 1.4-.5.6 0 1.5-.3 2-.6a6 6 0 0 1 3.1-.7c1.3 0 2.4-.2 2.7-.4.4-.3 1.1-.5 1.8-.6.6 0 2-.5 3-1 1.4-.8 1.7-.8 2.2-.4.3.3.8.5 1 .5 1 0-.1.7-2 1.2-2.4.7-18 4-18.8 4-.5 0-.6 0-.4-.5zm-6.6-1c.2-.3.6-.5.7-.5.2 0 .3.2.3.5s-.3.5-.7.5c-.6 0-.7 0-.3-.5zm4-.2c.2-.7 1-.8 1-.2 0 .3-.3.6-.6.6s-.5-.2-.5-.4zm6.2-.9c0-.4.1-.5.3-.2v.7c-.2.1-.3-.1-.3-.5zm8.5-1.9c0-.2.1-.4.3-.5.2-.1.4 0 .4.3s-.2.6-.4.6-.3-.2-.3-.4zm-17.5-.7c-1.6-.4-4.2-1.7-4.9-2.5-1.9-2-1.7-5.1.3-6.9 1.6-1.3 3.4-1.9 6.3-1.9 4.5 0 8.4 2.4 9 5.5.7 4-5.2 7.1-10.7 5.8zm21.4-.6c0-.4 0-.5.2-.2v.7c-.1.1-.2 0-.2-.5zm-4.4-.3h1l-.5.1c-.5 0-.7 0-.5-.1zm2-.4c.8-.2.8-.6-.5-2.5-3-4.2-10-10.3-15.3-13.2l-2.7-1.4.8 1.4c.8 1.7.7 2.8-.7 4-1.5 1.6-3.5 2.2-6.6 2.2-2.2 0-3.2-.2-4.4-.8-2.2-1-2.9-1.8-3-3.8-.2-1.4-.1-1.7.8-2.6 1.3-1.4 3-2.1 5.7-2.4l2.3-.2-2.4-.8a68.4 68.4 0 0 0-13.7-2.8l-3-.2V193l2.3.2 3 .3c1 .2 1.7-.1 1.4-.5 0-.3.2-.3.8-.2 1.3.3 2.5-.3 1.5-.7-.4-.1-.6-.4-.4-.8.1-.6-.1-.8-1.2-1a11 11 0 0 0-1.7-.4l-1.4-.6-1-.5h1.1c2 0 8.7 1 12 2 3.2.8 3.3 1.1.1.4-1.5-.3-1.9-.2-2.3.2-.4.4-.8.5-1 .3-.1-.2-.9-.2-1.8 0-1.7.4-2.2 1-.9 1 .5 0 .7.2.6.5-.1.2 0 .6.2.8.2.2 0 .3-.6.2-.4 0-1 0-1 .2-.2.2 0 .4.3.5 1.1 0 3 .5 4.6 1l2.2.5c.9.2 2 .6 3.3 1.3l1.3.3c.7 0 1.8.3 3.5 1.2a3 3 0 0 0 1.5.3c.4-.1.8 0 .9.4.1.3.6.6 1.1.6.6 0 .7 0 .4.2-.6.1-.5.3.3 1l1.5 1a9 9 0 0 1 2.6 1.7c.4.4 1 .6 1.4.5.4-.1.7 0 .9.4.2.7 1 1.4 2 1.9.5.1.9.5.9.8 0 .7 3.4 3.4 4 3.2.5-.2.7.2.6 1 0 .1.2.4.5.5.2 0 .4.4.3.7-.1.2 0 .5.2.5s.4.3.4.7c0 .8.3.9 1 .2.3-.2.1 0-.3.6s-.7 1.3-.7 1.6c0 .8-.7 1.4-1.6 1.4-.6 0-.6 0-.1-.2zm-25.2-15c0-.2-.1-.3-.3-.5-.2 0-.4 0-.4.2s.2.4.4.4.3-.1.3-.2zM73.4 191c.1-.3 0-.5-.3-.5s-.6.2-.6.5.2.5.4.5c.1 0 .4-.2.5-.5zm36.5 27c0-.2.3-.5.6-.6.8-.3.9 0 .1.5-.4.3-.7.3-.7 0zm1.8-1.8c0-.2.2-.3.4-.3s.2.1.1.3c0 .2-.3.4-.3.4l-.2-.4zm-1-2.8c1.7-.6 4.2-1 3.8-.5-.2.1-2.7.7-4.7 1-.6.1-.2-.1.8-.5zm-51.1-8.7c-1.7-.3-1.7-1-.1-4.7a12 12 0 0 1 2.2-4c.9-.4 5 0 6.2.6 2.6 1.3 3.3 3.7 1.8 5.4-2 2.1-6.6 3.4-10.1 2.7zm3-3v-.3c-.2 0-.3.2-.5.4 0 .2 0 .3.2.3s.4-.1.4-.3zm2.8-1.6c.2-.7-.5-.5-.8.1 0 .3 0 .5.2.4.3 0 .5-.3.6-.5zm-3-.5c.2-.2.1-.3 0-.3-.2 0-.5.1-.6.3-.1.2 0 .4.1.4.2 0 .5-.2.6-.4zm2.6-1.4c0-.2 0-.3-.4-.3-.3 0-.5.1-.5.3 0 .2.1.4.3.4.2 0 .4-.2.6-.4zm39 4.3a14.8 14.8 0 0 1-3.2-2.5c0-.5 1 0 4.1 2.3 2.2 1.7 2.9 2.3 2.5 2.3l-3.4-2.1zm-14.5-4c-.3-.5-.3-.6.3-.6.4 0 .7.2.7.5 0 .8-.5.9-1 .2zm3.3-.7c-.1-.2-.6-.3-1-.2-.9.2-.9.1-.4-.4.7-.8.2-1.1-1.1-.8-1 .3-1.2.2-1.8-.4a9 9 0 0 0-3.6-2.4c-.2 0-.8-.4-1.1-.8-.4-.5-1-1-1.3-1-.3 0-.4 0-.2-.1.9-.4 13.1 4.4 14.8 5.7.6.5.5.5-1.2.3-1-.1-1.9 0-2 .2-.3.4-.8.4-1 0zm-28.6-9.3h1l-.6.1c-.6 0-.8 0-.4-.1z" style="fill:#d88b33;stroke-width:.352778" transform="translate(-44.5 -173.2)"/>
  <path d="M48.3 232.4c-.3-.8 0-1 2.3-1.1 1 0 2.6-.3 3.2-.5.7-.2 1.7-.4 2.3-.4.6 0 1.2-.2 1.5-.6.3-.4.5-.4.5-.2 0 .3.5.5 1.2.5 1 0 1.3.1 1.2.6-.1.4-.5.6-1.2.6-.6 0-1.2.2-1.5.3l-3.3.6c-6 .8-6 .8-6.2.2zm12.7-1.7c.2-.7 2.5-1.7 2.9-1.3.5.5 2.4.4 3.3-.2.4-.3 1.6-.6 2.6-.7 1 0 2.6-.4 3.4-.8 2-1 3.2-1 3.2-.2 0 .6-1 .9-7.5 2.2l-7.8 1.5c-.1 0-.2-.2-.1-.5zm-8.3-.9v-.6c0-.1-.2-.2-.5 0-.8.3-5 .7-4.7.4a42 42 0 0 1 6.7-1.3c.4 0 .4 0 0 .3-.2.2-.3.5-.3.8 0 .2-.2.5-.5.6-.3 0-.6 0-.7-.2zm8.6-1c0-.2.3-.6.7-.8.5-.4.7-.3.7.3 0 .3-.3.7-.6.9-.8.3-.8.2-.8-.3zm-2.5-.3c0-.5-.3-.6-1.3-.4l-2 .4H55c0-.2 2.3-.8 5-1.4l5.3-1.1c.1-.1-.1-.8-.6-1.5-1.8-2.6-1.6-4.7.6-6.9l1.5-1.5h-2.3c-4.4 0-7.4-2-7.4-4.8 0-1.8.8-3.1 2.6-4.2 3.8-2.5 10.8-2 12.7.9 1.4 2 1.2 3.7-.6 5.5l-1.1 1.2H73c4.7.2 8.2 2.3 9.2 5.5.4 1.4.4 1.5-.2 2-.7.5-.7.5.2.3 5-1 20.1-3.8 20.3-3.6l-10.2 2.2a52 52 0 0 0-11.5 2.7c-.2-.2-.6-.3-1.6 0a236.5 236.5 0 0 1-11 2.2l-5.5 1.1c-3 .6-3.3.7-3.2 1.3 0 .3 0 .6-.2.6s-.4-.2-.4-.5zm18.6-10h-.7c-.3.2-.2.2.2.3.4 0 .6-.1.5-.2zm-10.7-5.9c-.2-.5-1.2-.7-1.2-.2 0 .4.8 1 1 .9.2-.1.3-.4.2-.7zm-3.7-.5c0-.2-.1-.4-.3-.4-.2 0-.4.2-.4.4s.2.3.4.3.3-.1.3-.3zm3 16.6c-.3-.5.6-1.6 1-1.2.3.4 0 1.5-.5 1.5-.1 0-.4-.1-.5-.3zm-18-1c0-.2.3-1.3.8-2.5a139.2 139.2 0 0 0 4.9-11.3l2 .8c5.5 2.4 5.5 7.7 0 11-1 .6-2.8 1.3-3.9 1.5l-2.8.6c-.4.1-.8 0-1-.1zm4-4.1c.6-.5.6-.5-.2-.3-.4 0-.9.3-1 .5-.3.5.4.3 1.1-.2zm.8-3c0-.2-.2-.4-.4-.4s-.3.2-.3.4.1.3.3.3c.2 0 .4-.1.4-.3zm3.5-1.5c0-.2-.1-.2-.3-.1-.2 0-.4.3-.4.5s.2.3.4.2c.2-.1.3-.4.3-.6zm20.8 8.4c0-.8.6-1.3 1.2-1.1.3.1.8 0 1.1-.3.8-.8 2.3-.8 2.3 0 0 .6 1 .6 1.4-.1.3-.6 1-.8 3.4-1 .6 0 1.2-.1 1.4-.3l1.4-.4c.9-.2 1.2-.1 1.4.3v.5a473.8 473.8 0 0 0-13.4 2.9c-.1 0-.2-.2-.2-.5zm-8-.2a.7.7 0 0 1 .2-.8c.2-.2.4-.2.6 0 .1.3 0 .6-.1.8-.2.3-.4.2-.6 0zm13.1-1.5c-.3-.8.2-1.6.6-1 .3.2.3.5 0 1s-.4.5-.6 0zm-7.5-.4c.2-.5 1.3-.6 1.5 0 0 .1-.3.3-.8.4-.6 0-.8 0-.7-.4zm16.8-1.2c.1-.4 0-.5-.2-.3-.3.1-.4-.1-.4-.9 0-.5.1-1 .3-1 .2 0 .4.3.4.8 0 .4.1.6.3.4.3-.5 2.5-.4 2.9.2.1.2.3.2.7-.2.2-.3.9-.5 1.4-.5.6 0 1.5-.3 2-.6a6 6 0 0 1 3.1-.7c1.3 0 2.4-.2 2.7-.4.4-.3 1.1-.5 1.8-.6.6 0 1.5-.3 1.9-.5 2.6-1.4 2.8-1.5 3.6-.6l.8.8-2 .6c-2.5.7-18 4-19 4-.4 0-.5 0-.3-.5zm-6.6-1c.2-.3.6-.5.7-.5.2 0 .3.2.3.5s-.3.5-.7.5c-.6 0-.7 0-.3-.5zm4-.2c.2-.7 1-.8 1-.2 0 .3-.3.6-.6.6s-.5-.2-.5-.4zm6.2-.9c0-.4.1-.5.3-.2v.7c-.2.1-.3-.1-.3-.5zm8.5-1.9c0-.2.1-.4.3-.5.2-.1.4 0 .4.3s-.2.6-.4.6-.3-.2-.3-.4zm-17.5-.7c-1.6-.4-4.2-1.7-4.9-2.5-1.9-2-1.7-5.1.3-6.9 1.6-1.3 3.4-1.9 6.3-1.9 4.5 0 8.4 2.4 9 5.5.7 4-5.2 7.1-10.7 5.8zm21.4-.6c0-.4 0-.5.2-.2v.7c-.1.1-.2 0-.2-.5zm-2.4-.7c.8-.2.8-.6-.5-2.5-3-4.2-10-10.3-15.3-13.2l-2.7-1.4.8 1.4c.8 1.7.7 2.8-.7 4-1.5 1.6-3.5 2.2-6.6 2.2-2.2 0-3.2-.2-4.4-.8-2.2-1-2.9-1.8-3-3.8-.2-1.4-.1-1.7.8-2.6 1.3-1.4 3-2.1 5.7-2.4l2.3-.2-2.4-.8a69.7 69.7 0 0 0-13.5-2.8c-2.2-.2-2.8-.3-2.4-.6 1.5-.9 13 1.4 20.3 3.9a56.7 56.7 0 0 1 23 18.5c.6.4-.4 1.3-1.3 1.3-.6 0-.6 0-.1-.2zm-25.2-15c0-.2-.1-.3-.3-.5-.2 0-.4 0-.4.2s.2.4.4.4.3-.1.3-.2zm30 14.9c0-.2.3-.5.6-.6.8-.3.9 0 .1.5-.4.3-.7.3-.7 0zm1.8-1.8c0-.2.2-.3.4-.3s.2.1.1.3c0 .2-.3.4-.3.4l-.2-.4zm-1.8-2.4 1-.4c.4 0 .4.2 0 .4-1 .4-1.6.4-1 0zm-50.3-9.1c-1.7-.3-1.7-1-.1-4.7a12 12 0 0 1 2.2-4c.9-.4 5 0 6.2.6 2.6 1.3 3.3 3.7 1.8 5.4-2 2.1-6.6 3.4-10.1 2.7zm3-3v-.3c-.2 0-.3.2-.5.4 0 .2 0 .3.2.3s.4-.1.4-.3zm2.8-1.6c.2-.7-.5-.5-.8.1 0 .3 0 .5.2.4.3 0 .5-.3.6-.5zm-3-.5c.2-.2.1-.3 0-.3-.2 0-.5.1-.6.3-.1.2 0 .4.1.4.2 0 .5-.2.6-.4zm2.6-1.4c0-.2 0-.3-.4-.3-.3 0-.5.1-.5.3 0 .2.1.4.3.4.2 0 .4-.2.6-.4z" style="fill:#bc8744;stroke-width:.352778" transform="translate(-44.5 -173.2)"/>
  <path d="m48.4 232.7-.2-.8c0-.7 3-.4 3.1.4.1.5-.1.6-1.3.6l-1.6-.2zm4.7-1c0-.6.3-.8 2.2-1 1.2-.2 2.9.5 2.4 1l-2.4.3c-1.9.3-2.2.2-2.2-.3zm5.6-1c0-.3.4-.6.7-.6.2 0 .4.3.4.7 0 .4-.2.7-.6.7-.5 0-.7-.2-.5-.7zm2.6.2c0-.5 2-1.6 2.3-1.2 0 .3.6.3 1.2.2.6-.1 1 0 1 .1 0 .2-.6.5-1.5.6l-2.3.4c-.4.1-.7 0-.7-.1zm-3.5-.7c0-.4 0-.5.2-.2v.7c-.2.1-.3-.1-.2-.5zm9.3-.8c1.2-.8 3.7-1.1 4-.5 0 .2-.5.5-1.3.6l-2.6.4-1.2.2zm-19.6.2c.3-.3 6.7-1.4 7-1.2a17.4 17.4 0 0 1-7 1.2zm11.7-1.1c0-.4 0-.5.2-.2v.6c-.2.1-.3 0-.2-.4zm2.5.1c0-.2.3-.5.6-.6.3 0 .4 0 .3.3 0 .3-.4.6-.6.7-.3 0-.4 0-.3-.4zm10.6-.2c.8-1 3.4-1.7 3.8-1.1.4.7.1.9-1.3 1.1l-2.3.5c-.8.2-.8.2-.2-.5zm-6.1-.3c0-.2.1-.5.3-.5.2 0 .4.3.4.5 0 .3-.2.6-.4.6s-.3-.3-.3-.6zm-6.2-1 5.4-1.2-.8-1.3c-1.8-2.7-1.6-4.8.6-7l1.5-1.5h-2.3c-4.4 0-7.4-2-7.4-4.8 0-1.8.8-3.1 2.6-4.2 3.8-2.5 10.8-2 12.7.9 1.4 2 1.2 3.7-.6 5.5l-1.1 1.2h2.3c4.7.2 8.2 2.3 9.2 5.5.4 1.4.4 1.5-.2 2-.8.6-1 .6 2.8-.2 4-.8 13.3-2.5 13.9-2.5a1818.5 1818.5 0 0 0-17 3.7c-8.8 1.9-25.6 5.1-26.2 5a26 26 0 0 1 4.6-1.1zm17.4-8.5h-.7c-.3 0-.2.1.2.2.4 0 .6-.1.5-.2zm-10.7-6c-.2-.5-1.2-.7-1.2-.2 0 .4.8 1 1 .9.2-.1.3-.4.2-.7zm-3.7-.5c0-.2-.1-.4-.3-.4-.2 0-.4.2-.4.4s.2.3.4.3.3-.1.3-.3zm-15 15.6c0-.2.3-1.3.8-2.5a139.2 139.2 0 0 0 4.9-11.3l2 .8c5.5 2.4 5.5 7.7 0 11-1 .6-2.8 1.3-3.9 1.5l-2.8.6c-.4.1-.8 0-1-.1zm4-4.1c.6-.5.6-.5-.2-.3-.4 0-.9.3-1 .5-.3.5.4.3 1.1-.2zm.8-3c0-.2-.2-.4-.4-.4s-.3.2-.3.4.1.3.3.3c.2 0 .4-.1.4-.3zm3.5-1.5c0-.2-.1-.2-.3-.1-.2 0-.4.3-.4.5s.2.3.4.2c.2-.1.3-.4.3-.6zm21 8.2c.2-.5.5-.7.8-.6.3.1 1-.1 1.4-.5 1-.8 1.7-.9 2-.1.3.8 0 1-1.8 1.3l-2 .4c-.4.2-.5 0-.3-.5zm5.8-1c0-.5 3-1.3 3.8-1 .5.1.9 0 1-.3.5-.7 2.6-1 2.6-.4s0 .6-4.1 1.4c-3 .6-3.3.7-3.3.2zm-8-.8c0-.2.2-.4.5-.4s.4.2.3.4c-.1.2-.4.3-.6.3-.1 0-.3-.1-.3-.3zm16.5-1.1c0-.8.5-1.2 1.6-1.3.8 0 1.2.1 1.4.5.2.7.3.7-1.5 1-1.2.2-1.5.1-1.5-.2zm3.7-.8c.3-.6 1.2-1 1.6-.7.2 0 1-.2 1.8-.6 1.2-.6 1.9-.7 3.1-.5 1.4.1 1.8 0 2.6-.6.7-.5 1.3-.7 2-.5l1.2-.1a7 7 0 0 1 1.8-1.1c1.5-.8 1.5-.8 2.5-.1l1 .6-2 .6c-1.9.6-14.8 3.5-15.5 3.5-.1 0-.2-.2 0-.5zm-10.4-.2c0-.2.1-.4.3-.4.2 0 .4.2.4.4s-.2.3-.4.3a.4.4 0 0 1-.3-.3zm6-.4c0-.5.1-.7.2-.4v.9c0 .2-.2 0-.2-.5zm-4.8-3.5c-1.6-.4-4.2-1.7-4.9-2.5-1.9-2-1.7-5.1.3-6.9 1.6-1.3 3.4-1.9 6.3-1.9 4.5 0 8.4 2.4 9 5.5.7 4-5.2 7.1-10.7 5.8zm13.5-.2h.9l-.4.1c-.5 0-.7 0-.5-.1zm1.8-.4h.9c.2.1 0 .2-.5.2s-.7 0-.4-.2zm3.7-.7c.8-.2.8-.6-.5-2.5-3-4.2-10-10.3-15.3-13.2l-2.7-1.4.8 1.4c.8 1.7.7 2.8-.7 4-1.5 1.6-3.5 2.2-6.6 2.2-2.2 0-3.2-.2-4.4-.8-2.2-1-2.9-1.8-3-3.8-.2-1.4-.1-1.7.8-2.6 1.3-1.4 3-2.1 5.7-2.4l2.3-.2-2.4-.8a69.7 69.7 0 0 0-13.5-2.8c-2.2-.2-2.8-.3-2.4-.6 1.5-.9 13 1.4 20.3 3.9a56.7 56.7 0 0 1 23.1 18.5c.4.3-.8 1.3-1.6 1.3-.4 0-.3 0 0-.2zm-25.2-15c0-.2-.1-.3-.3-.5-.2 0-.4 0-.4.2s.2.4.4.4.3-.1.3-.2zm30 10.7c.3-.2.7-.4 1-.4.1 0 0 .2-.3.4l-.8.3c-.2 0-.2-.2.1-.3zm-50.3-9.1c-1.7-.3-1.7-1-.1-4.7a12 12 0 0 1 2.2-4c.9-.4 5 0 6.2.6 2.6 1.3 3.3 3.7 1.8 5.4-2 2.1-6.6 3.4-10.1 2.7zm3-3v-.3c-.2 0-.3.2-.5.4 0 .2 0 .3.2.3s.4-.1.4-.3zm2.8-1.6c.2-.7-.5-.5-.8.1 0 .3 0 .5.2.4.3 0 .5-.3.6-.5zm-3-.5c.2-.2.1-.3 0-.3-.2 0-.5.1-.6.3-.1.2 0 .4.1.4.2 0 .5-.2.6-.4zm2.6-1.4c0-.2 0-.3-.4-.3-.3 0-.5.1-.5.3 0 .2.1.4.3.4.2 0 .4-.2.6-.4z" style="fill:#ba823c;stroke-width:.352778" transform="translate(-44.5 -173.2)"/>
  <path d="M48.4 232.7c-.5-.6-.1-1 1.1-1.1 1.2-.1 1.9.3 1.9 1 0 .4-2.6.4-3 0zm5-1c0-.2.3-.6.6-.7 1-.3 3-.2 3.2.2.3.5.2.5-1.9.8-1.5.2-1.8.2-1.8-.3zm5.4-.9c0-.5.2-.6.5-.5.3.1.5.4.5.7 0 .3-.2.5-.5.5s-.5-.3-.5-.7zm3-.2c.7-.6 1.8-.7 2.1-.2.1.2-.2.4-.7.4-.4 0-1.1 0-1.5.2-.6.2-.6.2 0-.4zm3-.4h.6c.1.1-.1.2-.5.2s-.5 0-.2-.2zm2.4-.6c.7-.6 3.6-1.2 3.6-.7 0 .2-.6.5-1.3.6l-2 .5c-.7.1-.7.1-.3-.4zm-19.7 0c.3-.3 6-1.3 6.7-1.2a36 36 0 0 1-6.1 1.3l-.6-.1zm25-1c.2-.4 2.3-1.3 3-1.3.3 0 .6.2.6.4 0 .3-.8.6-2 .8-1.1.3-1.8.3-1.7 0zm-17.3-.5c.2-.1.6-.1.8 0 .3 0 0 .2-.4.2-.5 0-.7-.1-.4-.2zm-7.1-.4c-.2-.2.2-1.3.7-2.5a139.2 139.2 0 0 0 4.9-11.3l2 .8c5.5 2.4 5.5 7.7 0 11-1 .6-2.8 1.3-3.9 1.5l-2.8.6c-.4.1-.8 0-1-.1zm3.8-4.1c.7-.5.7-.5 0-.3-.5 0-1 .3-1 .5-.4.5.3.3 1-.2zm.9-3c0-.2-.2-.4-.4-.4s-.3.2-.3.4.1.3.3.3c.2 0 .4-.1.4-.3zm3.5-1.5c0-.2-.1-.2-.3-.1-.2 0-.4.3-.4.5s.2.3.4.2c.2-.1.3-.4.3-.6zm.6 8.6h1c.2.1 0 .2-.5.2s-.7 0-.5-.2zm20.6-.5c0-.7.4-.8 1-.3.2.3.5.1 1-.3.7-1 2-1 1.8-.2 0 .4-.7.8-2 1-1.7.4-1.8.4-1.8-.2zm-15.7-.4 3.6-1-.8-1.2c-1.8-2.7-1.6-4.8.6-7l1.5-1.5h-2.3c-4.4 0-7.4-2-7.4-4.8 0-1.8.8-3.1 2.6-4.2 3.8-2.5 10.8-2 12.7.9 1.4 2 1.2 3.7-.6 5.5l-1.1 1.2h2.3c4.7.2 8.2 2.3 9.2 5.5.4 1.4.4 1.5-.2 2-.7.5-.7.5.2.3a387.4 387.4 0 0 1 14.4-2.6c.5 0-24 5.1-31.9 6.7-5.7 1-6.9 1.1-2.8.2zm15.6-8.2h-.7c-.3 0-.2.1.2.2.4 0 .6-.1.5-.2zm-10.7-6c-.2-.5-1.2-.7-1.2-.2 0 .4.8 1 1 .9.2-.1.3-.4.2-.7zm-3.7-.5c0-.2-.1-.4-.3-.4-.2 0-.4.2-.4.4s.2.3.4.3.3-.1.3-.3zm20.3 14.1c.7-.6 3-1.1 3.4-.8.2.2-.2.5-1.2.8-2 .4-2.6.5-2.2 0zm4.6-1c.3-.3 1.7-.6 2.5-.4.5 0-1 .6-2 .7-.5 0-.7-.1-.5-.3zm4-1.3c0-.6.2-.8.5-.5.3.1.8.2 1.2.1.6-.1.8 0 .8.3s-.4.6-1 .8c-1.7.3-1.7.3-1.5-.7zm3.7-.2c0-.3.8-.6 1.5-.7a5 5 0 0 0 2-.6c.2-.2 1.4-.3 2.7-.3 1.7 0 2.3-.1 2.6-.5.5-.7 1.2-.9 2.1-.5.4.1.8 0 1.2-.2.3-.3.7-.5 1-.6.3 0 .8-.4 1.2-.8.8-.7.8-.7 1.5-.1.4.3.5.7.4.8-.4.4-4 1.3-9.6 2.5l-6 1.2c-.5.2-.8 0-.6-.2zm-9.5-4.2c-1.6-.4-4.2-1.7-4.9-2.5-1.9-2-1.7-5.1.3-6.9 1.6-1.3 3.4-1.9 6.3-1.9 4.5 0 8.4 2.4 9 5.5.7 4-5.2 7.1-10.7 5.8zm11.4.1h.9c.2.1 0 .2-.5.2-.4 0-.6 0-.4-.2zm2.1-.3h.7c.1.1 0 .2-.4.2-.5 0-.5-.1-.3-.2zm5.8-2.3a46.9 46.9 0 0 0-16.1-14.5l-2.7-1.4.8 1.4c.8 1.7.7 2.8-.7 4-1.5 1.6-3.5 2.2-6.6 2.2-2.2 0-3.2-.2-4.4-.8-2.2-1-2.9-1.8-3-3.8-.2-1.4-.1-1.7.8-2.6 1.3-1.4 3-2.1 5.7-2.4l2.3-.2-2.4-.8a69.7 69.7 0 0 0-13.5-2.8c-2.2-.2-2.8-.3-2.4-.6 2-1.1 19.3 2.8 24.2 5.5a54.5 54.5 0 0 1 18.6 16.6c.5 1.3 0 1.4-.6.2zm-25.5-13.9-.3-.4c-.2 0-.4 0-.4.2s.2.4.4.4.3-.1.3-.2zm-20.3 1.7c-1.7-.3-1.7-1-.1-4.7a12 12 0 0 1 2.2-4c.9-.4 5 0 6.2.6 2.6 1.3 3.3 3.7 1.8 5.4-2 2.1-6.6 3.4-10.1 2.7zm3-3v-.3c-.2 0-.3.2-.5.4 0 .2 0 .3.2.3s.4-.1.4-.3zm2.8-1.6c.2-.7-.5-.5-.8.1 0 .3 0 .5.2.4.3 0 .5-.3.6-.5zm-3-.5c.2-.2.1-.3 0-.3-.2 0-.5.1-.6.3-.1.2 0 .4.1.4.2 0 .5-.2.6-.4zm2.6-1.4c0-.2 0-.3-.4-.3-.3 0-.5.1-.5.3 0 .2.1.4.3.4.2 0 .4-.2.6-.4z" style="fill:#d68818;stroke-width:.352778" transform="translate(-44.5 -173.2)"/>
  <path d="M48.4 232.7c-.5-.6-.1-1 1.1-1.1 1.2-.1 1.9.3 1.9 1 0 .4-2.6.4-3 0zm5-1c0-.2.3-.6.6-.7 1-.3 3-.2 3.2.2.3.5.2.5-1.9.8-1.5.2-1.8.2-1.8-.3zm5.4-.9c0-.5.2-.6.5-.5.3.1.5.4.5.7 0 .3-.2.5-.5.5s-.5-.3-.5-.7zm3-.2c.7-.6 1.8-.7 2.1-.2.1.2-.2.4-.7.4-.4 0-1.1 0-1.5.2-.6.2-.6.2 0-.4zm3-.4h.6c.1.1-.1.2-.5.2s-.5 0-.2-.2zm2.4-.6c.7-.6 3.6-1.2 3.6-.7 0 .2-.6.5-1.3.6l-2 .5c-.7.1-.7.1-.3-.4zm5.2-1c.3-.4 2.4-1.3 3.1-1.3.3 0 .6.2.6.4 0 .3-.8.6-2 .8-1.1.3-1.8.3-1.7 0zm-24.4-1a151.2 151.2 0 0 0 3.5-8.5l2.2-5.2 1.4.6c3.4 1.3 5.2 4 4.4 6.7-.8 2.7-3.7 5-8 5.9l-2.7.7c-.3.1-.6 0-.8-.2zm4-4c.6-.5.6-.5-.2-.3-.4 0-.9.3-1 .5-.3.5.4.3 1.1-.2zm.8-3c0-.2-.2-.4-.4-.4s-.3.2-.3.4.1.3.3.3c.2 0 .4-.1.4-.3zm3.5-1.5c0-.2-.1-.2-.3-.1-.2 0-.4.3-.4.5s.2.3.4.2c.2-.1.3-.4.3-.6zm21.2 8.1c0-.7.4-.8 1-.3.2.3.5.1 1-.3.7-1 2-1 1.8-.2 0 .4-.7.8-2 1-1.7.4-1.8.4-1.8-.2zm-14.6-.5h.7c.1.1 0 .2-.4.2s-.5-.1-.3-.2zm1.8-.4h.7c.1.2-.1.2-.5.2s-.5 0-.2-.2zm18.6 0c.7-.7 3-1.2 3.4-.9.2.2-.2.5-1.2.8-2 .4-2.6.5-2.2 0zm-16.4-.5 1.6-.2c.5 0 .5 0-.2.2a5 5 0 0 1-1.6.3c-.5 0-.5 0 .2-.3zm2.7-.5h1l-.5.1c-.5 0-.7 0-.5-.1zm18.3-.1c.3-.3 1.7-.6 2.5-.4.5 0-1 .6-2 .7-.5 0-.7-.1-.5-.3zm-23.8-1.6c-.4-.8-.7-1.8-.7-2.3 0-1.2 1.2-3.4 2.5-4.3l1.2-.9-3-.1c-4.8-.4-7-2-7-5.1 0-2 2.1-4.2 5-5 2.8-.8 6.3-.6 8.3.6 2 1 3 3.3 2.5 5-.2.7-1 1.7-1.6 2.3l-1.1 1h2.7c4.2 0 7.9 2 8.8 5 .7 2 0 2.4-9.3 4.3-7.3 1.4-7.5 1.4-8.3-.5zm13.3-5h-.7c-.3 0-.2.1.2.2.4 0 .6-.1.5-.2zm-10.7-6c-.2-.5-1.2-.7-1.2-.2 0 .4.8 1 1 .9.2-.1.3-.4.2-.7zm-3.7-.5c0-.2-.1-.4-.3-.4-.2 0-.4.2-.4.4s.2.3.4.3.3-.1.3-.3zm8.2 12.9c.2-.2 9.5-2 9.7-1.9 0 .1-2 .6-4.6 1.1-4.7 1-5.4 1-5.1.8zm20.7-1.1c0-.6.2-.8.5-.5.3.1.8.2 1.2.1.6-.1.8 0 .8.3s-.4.6-1 .8c-1.7.3-1.7.3-1.5-.7zm3.7-.2c0-.3.8-.6 1.5-.7a5 5 0 0 0 2-.6c.2-.2 1.4-.3 2.7-.3 1.7 0 2.3-.1 2.6-.5.5-.7 1.2-.9 2.1-.5.4.1.8 0 1.2-.2.3-.3.7-.5 1-.6.3 0 .8-.4 1.2-.8.8-.7.8-.7 1.5-.1.4.3.5.7.4.8-.4.4-4 1.3-9.6 2.5l-6 1.2c-.5.2-.8 0-.6-.2zm-14-1h1c.1.2 0 .3-.5.3s-.7-.1-.5-.2zm3.3-.6 3.5-.6c.9-.1.3 0-1.4.5-3.4.7-5.1.9-2.1.1zm5.5-1a1 1 0 0 1 1 0l-.5.1c-.5 0-.7 0-.5-.2zm1.8-.4h.9c.2 0 0 .2-.5.2-.4 0-.6-.1-.4-.2zm2.1-.4h.7c.1.2 0 .2-.4.2-.5 0-.5 0-.3-.2zm1.8-.3h.7c.1.1-.1.2-.5.2s-.5-.1-.2-.2zm-9.7-.5c-2.2-.5-5-2-5.8-3.4-1.5-2.4-.5-5.5 2.2-6.9 2.1-1 6.3-1.3 8.8-.5 2 .7 4.4 2.8 4.8 4.2.6 2.4-.8 4.7-3.5 5.9a12 12 0 0 1-6.5.7zm18.9-2.8a51.8 51.8 0 0 0-18.5-15.5c0 .1 0 .7.4 1.2.7 1.3.6 2.1 0 3.3-1.1 1.8-3.1 2.6-6.6 2.8-2.8.1-3.3 0-5-.8-2-1-3-2.3-3-4 0-2.4 3.6-4.6 7.7-4.7h1.6l-2-.7a69.1 69.1 0 0 0-16.4-3.6c-.8-1.2 14.3 1.8 20.5 4 2.8 1 3.9 1.7 8.9 5a45 45 0 0 1 13.1 13.1c.6 1.5 0 1.3-.7-.1zM79.9 203l-.3-.4c-.2 0-.4 0-.4.2s.2.4.4.4.3-.1.3-.2zm-20 1.7c-2-.3-2-.8-.4-4.7a12 12 0 0 1 2.2-4c.8-.4 4.5 0 6 .6s2.7 2.2 2.7 3.4c0 2.9-5.5 5.3-10.4 4.7zm2.8-3-.2-.3-.4.4c0 .2 0 .3.2.3s.4-.1.4-.3zm2.7-1.6c.2-.7-.5-.5-.8.1 0 .3 0 .5.2.4.3 0 .5-.3.6-.5zm-3-.5c.2-.2.1-.3 0-.3-.2 0-.5.1-.6.3-.1.2 0 .4.1.4.2 0 .5-.2.6-.4zm2.6-1.4c0-.2 0-.3-.4-.3-.3 0-.5.1-.5.3 0 .2.1.4.3.4.2 0 .4-.2.6-.4z" style="fill:#cc6e31;stroke-width:.352778" transform="translate(-44.5 -173.2)"/>
  <path d="M48.4 232.7c-.5-.6-.1-1 1.1-1.1 1.2-.1 1.9.3 1.9 1 0 .4-2.6.4-3 0zm5-1c0-.2.3-.6.6-.7 1-.3 3-.2 3.2.2.3.5.2.5-1.9.8-1.5.2-1.8.2-1.8-.3zm5.4-.9c0-.5.2-.6.5-.5.3.1.5.4.5.7 0 .3-.2.5-.5.5s-.5-.3-.5-.7zm3-.2c.7-.6 1.8-.7 2.1-.2.1.2-.2.4-.7.4-.4 0-1.1 0-1.5.2-.6.2-.6.2 0-.4zm3-.4h.6c.1.1-.1.2-.5.2s-.5 0-.2-.2zm2.4-.6c.7-.6 3.6-1.2 3.6-.7 0 .2-.6.5-1.3.6l-2 .5c-.7.1-.7.1-.3-.4zm5.2-1c.3-.4 2.4-1.3 3.1-1.3.3 0 .6.2.6.4 0 .3-.8.6-2 .8-1.1.3-1.8.3-1.7 0zm-24.4-1c0-.1.5-1.7 1.4-3.4l2.9-6.6c.7-1.8 1.5-3.4 1.7-3.4.7 0 2.8 1 3.8 1.7a7 7 0 0 1 1.5 2.4c.8 2 .4 3.7-1.4 5.6a11.7 11.7 0 0 1-6.3 3.2l-2.8.7a1 1 0 0 1-.8-.1zm4.8-3.8c.5-.3 1.3-.8 2-1 1.2-.4 1.6-1.5.5-1.5-.4 0-1 .3-1.2.7-.2.4-.7.7-1 .7-.9 0-2.8 1-2.8 1.4 0 .6 1.6.4 2.5-.3zm1.9-3.1c.3-.9 0-1.2-1.3-1-1.4.3-1.8.7-1.5 1.2.4.6 2.5.4 2.8-.2zm2.6-1.5c0-.2-.2-.4-.8-.4-.7 0-.9.2-.9.7 0 .6.1.6.8.4l.9-.7zm-2.5-2.4c-.6-.6-1.7-.4-1.7.2 0 .6 1.6 1 2 .7.2-.2 0-.5-.3-.9zm22.7 10.4c0-.7.4-.8 1-.3.2.3.5.1 1-.3.7-1 2-1 1.8-.2 0 .4-.7.8-2 1-1.7.4-1.8.4-1.8-.2zm-14.6-.5h.7c.1.1 0 .2-.4.2s-.5-.1-.3-.2zm1.8-.4h.7c.1.2-.1.2-.5.2s-.5 0-.2-.2zm18.6 0c.7-.7 3-1.2 3.4-.9.2.2-.2.5-1.2.8-2 .4-2.6.5-2.2 0zm-16.4-.5 1.6-.2c.5 0 .5 0-.2.2a5 5 0 0 1-1.6.3c-.5 0-.5 0 .2-.3zm2.7-.5h1l-.5.1c-.5 0-.7 0-.5-.1zm18.3-.1c.3-.3 1.7-.6 2.5-.4.5 0-1 .6-2 .7-.5 0-.7-.1-.5-.3zm-23.8-1.6c-.4-.8-.7-1.8-.7-2.3 0-1.2 1-2.9 2.4-4.1L67 216h-3c-4.6-.3-7-2-7-5 0-4.4 8-7.1 13.2-4.5 2.2 1 3.3 3.2 2.7 5-.2.7-1 1.7-1.6 2.3l-1.2 1h2.5c3.2.1 5.6 1 7.4 2.5 1.6 1.4 2.4 3.4 1.7 4.2-.6.6-2.8 1.3-9.3 2.6-7.3 1.4-7.5 1.4-8.3-.5zm6-2.5c0-.2-.3-.4-.7-.5-.7 0-1 .3-.5.8.4.3 1.2.1 1.2-.3zm3.8-.6c.6-.6.5-1-.3-1s-1.2.5-.9 1c.3.5.7.5 1.2 0zm-2.6-.9c.7-.3.7-1-.1-1.3-1-.2-1.6.3-1.4 1 .3.6.6.7 1.5.3zm6.8-.3c.2-.7-.6-1.3-1.5-1-1 .3-1 .4-.8 1 .3.7 2 .7 2.3 0zm-3.3-1.9c.1-.2 0-.4-.1-.5-.5-.4-1.9.1-1.6.5.2.4 1.5.4 1.7 0zm-2.8-.9c0-.2-.3-.4-.8-.5-.5 0-.8.1-.8.5s.3.5.8.5c.5-.1.8-.3.8-.5zm-5.1-3.7c0-.8-.8-1.1-1.6-.6-.8.6-.4 1.3.7 1.3.6 0 .9-.2.9-.7zm-3.6-.6c.2-.5-1.3-1-1.8-.5-.2.2-.2.5 0 .7.2.5 1.6.4 1.8-.2zm4.1-1.1c.1-.2 0-.5-.1-.6-.5-.3-1.8.1-1.8.6 0 .4 1.6.4 2 0zm3.4-.2c0-.7-1-1.4-1.4-1.1-.2.1-.4.5-.4.9 0 .5.3.7.9.7.5 0 .9-.2.9-.5zm-9.1-1.5c-.1-.5-1.2-.4-1.4.2-.1.3 0 .4.6.3.5 0 .8-.3.8-.5zm2.9-.1c.1-.2-.2-.4-.7-.4-.5 0-.9.2-.9.4s.3.3.7.3c.4 0 .8-.1.9-.3zm4.7-.6c0-.3-.2-.5-.8-.5-.6 0-.9.2-.9.6 0 .6 1.5.5 1.7-.1zm-2.4-1.4c0-.3-.2-.5-.5-.5s-.7.2-1 .5c-.3.5-.2.6.6.6.6 0 .9-.2.9-.6zm4.3 17.7c.2-.2 9.5-2 9.7-1.9 0 .1-2 .6-4.6 1.1-4.7 1-5.4 1-5.1.8zm20.7-1.1c0-.6.2-.8.5-.5.3.1.8.2 1.2.1.6-.1.8 0 .8.3s-.4.6-1 .8c-1.7.3-1.7.3-1.5-.7zm3.7-.2c0-.3.8-.6 1.5-.7a5 5 0 0 0 2-.6c.2-.2 1.4-.3 2.7-.3 1.7 0 2.3-.1 2.6-.5.5-.7 1.2-.9 2.1-.5.4.1.8 0 1.2-.2.3-.3.7-.5 1-.6.3 0 .8-.4 1.2-.8.8-.7.8-.7 1.5-.1.4.3.5.7.4.8-.4.4-4 1.3-9.6 2.5l-6 1.2c-.5.2-.8 0-.6-.2zm-14-1h1c.1.2 0 .3-.5.3s-.7-.1-.5-.2zm3.3-.6 3.5-.6c.9-.1.3 0-1.4.5-3.4.7-5.1.9-2.1.1zm5.5-1a1 1 0 0 1 1 0l-.5.1c-.5 0-.7 0-.5-.2zm1.8-.4h.9c.2 0 0 .2-.5.2-.4 0-.6-.1-.4-.2zm2.1-.4h.7c.1.2 0 .2-.4.2-.5 0-.5 0-.3-.2zm1.8-.3h.7c.1.1-.1.2-.5.2s-.5-.1-.2-.2zm-9.7-.5c-2.2-.5-5-2-5.8-3.4-1.5-2.4-.5-5.5 2.2-6.9 2.1-1 6.3-1.3 8.8-.5 2 .7 4.4 2.8 4.8 4.2.6 2.4-.8 4.7-3.5 5.9a12 12 0 0 1-6.5.7zm-.5-3.7c0-.3-.2-.5-.5-.5s-.4.2-.3.5c.1.3.4.5.5.5.2 0 .3-.2.3-.5zm3.2-.4c0-.5-1.2-.7-1.5-.2-.3.4.1.8.9.8.3 0 .6-.3.6-.6zm3.4.2c.1-.2 0-.6-.1-.8-.5-.4-1.6.3-1.3.9.3.4 1.1.4 1.4-.1zm-7-1.7c0-.2 0-.5-.3-.6-.5-.3-1.5.1-1.2.6.3.4 1.6.4 1.6 0zM89 212c0-.2-.4-.4-.7-.4l-.7.4c0 .2.2.3.7.3.6 0 .9-.1.7-.3zm4.1 0c0-.2-.4-.4-1-.3-.8 0-.9 0-.2.3 1 .4 1.2.4 1.2 0zm-9-1h-.6c-.3.2-.2.2.2.3.4 0 .6-.1.5-.2zm21.3 5.6a51.8 51.8 0 0 0-18.5-15.5c0 .1 0 .7.4 1.2.7 1.3.6 2.1 0 3.3-1.1 1.8-3.1 2.6-6.6 2.8-2.8.1-3.3 0-5-.8-2-1-3-2.3-3-4 0-2.4 3.6-4.6 7.7-4.7H82l-1.4-.5-5.1-1.6c-2-.5-3.5-1-3.2-1a48.5 48.5 0 0 1 22 9.1c5.4 3.6 13.2 12 12 12.9-.2 0-.6-.5-1-1.2zm-23.2-11c0-.2-.4-.3-1-.3-.4 0-.8.1-.8.3 0 .2.4.4.9.4s.9-.2.9-.4zm-4-1c0-.2-.1-.4-.4-.4-.3 0-.6.2-.7.4-.2.2 0 .3.5.3.4 0 .7-.1.7-.3zm5.6-1c-.2-.3-.4-.4-.6-.4-.2 0-.3.1-.3.3 0 .2.2.4.5.4s.5-.2.4-.4zm-3.4-.4c0-.5-1-1.1-1.5-.9-1.1.4-.6 1.2.7 1.2.4 0 .8-.1.8-.3zm-3.2-1.2c0-.5-.1-.6-.7-.5-.5 0-1 .4-1 .7 0 .5 0 .6.7.6.5-.1.9-.4 1-.8zM60 204.8c-2.1-.3-2.2-.8-.5-4.6a17 17 0 0 1 1.8-3.7c.3-.5 4.3-.4 6 .1 1.7.5 3.1 2.1 3.1 3.5 0 2.9-5.5 5.3-10.4 4.7zm3-2.3c.4-.2.6-.5.5-.7-.3-.5-1.4-.4-1.9.2-.3.5-.2.7.6.9.1 0 .5-.1.8-.4zm3.8-2c0-.2-.2-.5-.6-.8-.9-.4-1.8 0-1.8 1 0 .6 2.2.5 2.4-.1zm-4 0c.8-.2.7-1.1-.1-1.1-.8 0-1.2.5-1 1 .3.5.4.5 1.1.2zm3-2c0-.3-.2-.5-.5-.7-.7-.2-1.7.4-1.4 1 .3.4 1.7.2 1.8-.3zm4-3c0-.1.2-.2.6 0 .4 0 .7.2.7.2 0 .1-.3.2-.7.2-.4 0-.7-.2-.7-.4zm-2.2-.3c0-.2.2-.3.5-.2l.6.4-.6.1c-.3 0-.5-.1-.5-.3zm-3.7-.4c.1-.2.3-.3.4-.3l.1.3c0 .2-.1.4-.3.4-.3 0-.3-.2-.2-.4zm1.3.1h1c.3.1 0 .2-.5.2-.6 0-.8-.1-.5-.2z" style="fill:#ca7417;stroke-width:.352778" transform="translate(-44.5 -173.2)"/>
  <path d="M48.4 232.7c-.5-.6-.1-1 1.1-1.1 1.2-.1 1.9.3 1.9 1 0 .4-2.6.4-3 0zm5-1c0-.2.3-.6.6-.7 1-.3 3-.2 3.2.2.3.5.2.5-1.9.8-1.5.2-1.8.2-1.8-.3zm5.4-.9c0-.5.2-.6.5-.5.3.1.5.4.5.7 0 .3-.2.5-.5.5s-.5-.3-.5-.7zm3-.2c.7-.6 1.8-.7 2.1-.2.1.2-.2.4-.7.4-.4 0-1.1 0-1.5.2-.6.2-.6.2 0-.4zm3-.4h.6c.1.1-.1.2-.5.2s-.5 0-.2-.2zm2.4-.6c.7-.6 3.6-1.2 3.6-.7 0 .2-.6.5-1.3.6l-2 .5c-.7.1-.7.1-.3-.4zm5.2-1c.3-.4 2.4-1.3 3.1-1.3.3 0 .6.2.6.4 0 .3-.8.6-2 .8-1.1.3-1.8.3-1.7 0zm5-1.4c0-.7.5-.8 1-.3.3.3.6.1 1-.3.8-1 2-1 1.9-.2 0 .4-.7.8-2 1-1.7.4-1.8.4-1.8-.2zm-29.6.2 1.6-3.2a98 98 0 0 0 2.9-6.6c.8-2 1.5-3.4 1.8-3.4.8 0 3 1.3 4 2.3 2.7 2.7 1.6 6.5-2.4 9-1.9 1.2-7.9 2.6-7.9 2zm5-3.6c.5-.3 1.3-.8 2-1 1.2-.4 1.6-1.5.5-1.5-.4 0-1 .3-1.2.7-.2.4-.7.7-1 .7-.9 0-2.8 1-2.8 1.4 0 .6 1.6.4 2.5-.3zm1.9-3.1c.3-.9 0-1.2-1.3-1-1.4.3-1.8.7-1.5 1.2.4.6 2.5.4 2.8-.2zm2.6-1.5c0-.2-.2-.4-.8-.4-.7 0-.9.2-.9.7 0 .6.1.6.8.4l.9-.7zm-2.5-2.4c-.6-.6-1.7-.4-1.7.2 0 .6 1.6 1 2 .7.2-.2 0-.5-.3-.9zm28.5 9.4c.7-.6 3-1.1 3.4-.8.2.2-.2.5-1.2.8-2 .4-2.6.5-2.2 0zm-16.5-.2h.7c.1.1 0 .2-.5.2-.4 0-.5-.1-.2-.2zm1.4-.4h.7c.1.2 0 .2-.4.2-.5 0-.5 0-.3-.2zm1.8-.3h.7c.1.1-.1.2-.5.2s-.5-.1-.2-.2zm17.9-.1c.3-.3 1.7-.6 2.5-.4.5 0-1 .6-2 .7-.5 0-.7-.1-.5-.3zm-23.4-1c-1.9-2.3-.9-5.8 2.3-7.9.8-.5.6-.5-2-.4-3.4.1-5.7-.7-7-2.6-2.3-3.3 1.1-7.2 6.8-7.8 4.2-.4 8.3 1.8 8.3 4.6a5 5 0 0 1-2 4l-1 .8h2.7c3.2 0 6 1 7.4 2.4 2 2.1 2.3 4 .7 4.6-1.3.6-13.9 3.2-15.1 3.2-.2 0-.7-.4-1.1-.8zm5.6-3.1c0-.2-.3-.4-.7-.5-.7 0-1 .3-.5.8.4.3 1.2.1 1.2-.3zm3.8-.6c.6-.6.5-1-.3-1s-1.2.5-.9 1c.3.5.7.5 1.2 0zm-2.6-.9c.7-.3.7-1-.1-1.3-1-.2-1.6.3-1.4 1 .3.6.6.7 1.5.3zm6.8-.3c.2-.7-.6-1.3-1.5-1-1 .3-1 .4-.8 1 .3.7 2 .7 2.3 0zm-3.3-1.9c.1-.2 0-.4-.1-.5-.5-.4-1.9.1-1.6.5.2.4 1.5.4 1.7 0zm-2.8-.9c0-.2-.3-.4-.8-.5-.5 0-.8.1-.8.5s.3.5.8.5c.5-.1.8-.3.8-.5zm-5.1-3.7c0-.8-.8-1.1-1.6-.6-.8.6-.4 1.3.7 1.3.6 0 .9-.2.9-.7zm-3.6-.6c.2-.5-1.3-1-1.8-.5-.2.2-.2.5 0 .7.2.5 1.6.4 1.8-.2zm4.1-1.1c.1-.2 0-.5-.1-.6-.5-.3-1.8.1-1.8.6 0 .4 1.6.4 2 0zm3.4-.2c0-.7-1-1.4-1.4-1.1-.2.1-.4.5-.4.9 0 .5.3.7.9.7.5 0 .9-.2.9-.5zm-9.1-1.5c-.1-.5-1.2-.4-1.4.2-.1.3 0 .4.6.3.5 0 .8-.3.8-.5zm2.9-.1c.1-.2-.2-.4-.7-.4-.5 0-.9.2-.9.4s.3.3.7.3c.4 0 .8-.1.9-.3zm4.7-.6c0-.3-.2-.5-.8-.5-.6 0-.9.2-.9.6 0 .6 1.5.5 1.7-.1zm-2.4-1.4c0-.3-.2-.5-.5-.5s-.7.2-1 .5c-.3.5-.2.6.6.6.6 0 .9-.2.9-.6zm4.9 17.6h.6c.2.1 0 .2-.4.2s-.5 0-.2-.2zm1.4-.3c.2-.1.6-.1.8 0l-.4.1c-.5 0-.7 0-.4-.1zm18.7-.7c0-.6.2-.8.5-.5.3.1.8.2 1.2.1.6-.1.8 0 .8.3s-.4.6-1 .8c-1.7.3-1.7.3-1.5-.7zm-17 .3h.9c.2.1 0 .2-.4.2-.5 0-.7-.1-.5-.2zm1.8-.3h.9l-.5.1c-.5 0-.7 0-.4-.1zm18.9-.2c0-.3.8-.6 1.5-.7a5 5 0 0 0 2-.6c.2-.2 1.4-.3 2.7-.3 1.7 0 2.3-.1 2.6-.5.5-.7 1.2-.9 2.1-.5.4.1.8 0 1.2-.2.3-.3.7-.5 1-.6.3 0 .8-.4 1.2-.8.8-.7.8-.7 1.5-.1.4.3.5.7.4.8-.4.4-4 1.3-9.6 2.5l-6 1.2c-.5.2-.8 0-.6-.2zm-16.7-.3a5 5 0 0 1 1.6-.3c.5 0 .5 0-.2.3l-1.6.3c-.5 0-.5-.1.2-.3zm2.7-.6h1c.1 0 0 .2-.5.2s-.7-.1-.5-.2zm1.8-.4h.9c.2.1 0 .2-.5.2s-.7 0-.4-.2zm1.8-.3c.2-.1.6-.1.8 0 .3 0 0 .2-.4.2-.5 0-.7-.1-.4-.2zm2-.4h.8c0 .2-.1.3-.5.2-.4 0-.5 0-.2-.2zm1.5-.3h.9c.2 0 0 .2-.5.2s-.7-.1-.4-.2zm2.1-.4h.7c.1.2-.1.3-.5.2-.4 0-.5 0-.2-.2zm1.8-.3h.7c0 .1-.1.2-.5.2s-.5-.1-.2-.2zm-8.3-2c-5.2-2-5.9-7.2-1.3-9.5 1.4-.7 2.3-.8 4.7-.8 2.7 0 3.3.1 5.1 1 6.4 3.3 3.5 10.1-4.2 10a14 14 0 0 1-4.3-.6zm1.6-3c0-.2-.2-.4-.5-.4s-.4.2-.3.5c.1.3.4.5.5.5.2 0 .3-.2.3-.5zm3.2-.3c0-.5-1.2-.7-1.5-.2-.3.4.1.8.9.8.3 0 .6-.3.6-.6zm3.4.2c.1-.2 0-.6-.1-.8-.5-.4-1.6.3-1.3.9.3.4 1.1.4 1.4-.1zm-7-1.7c0-.2 0-.5-.3-.6-.5-.3-1.5.1-1.2.6.3.4 1.6.4 1.6 0zM89 212c0-.2-.4-.4-.7-.4l-.7.4c0 .2.2.3.7.3.6 0 .9-.1.7-.3zm4.1 0c0-.2-.4-.4-1-.3-.8 0-.9 0-.2.3 1 .4 1.2.4 1.2 0zm-9-1h-.6c-.3.2-.2.2.2.3.4 0 .6-.1.5-.2zm21.6 6.2c-.5-2-7-8.7-11.3-11.8-3.2-2.2-4-2.9-2.8-2.3 3.3 1.8 8.6 6.3 12.3 10.6 2.1 2.5 2.8 3.8 2.3 4.1-.2.1-.4-.2-.5-.6zM76.2 208a8 8 0 0 1-2.6-1.9c-1-1-1.1-1.4-1-2.7.4-2.6 3.2-4.3 7.4-4.3 2 0 2.3 0 1.6-.4-1-.6-.8-.6 2 .2 2.1.6 6.3 2.9 6.8 3.6.1.2-.8-.1-2-.7l-2.3-1.1.5 1c.4.5.8 1.4.9 1.9.3 1.2-1 3-2.8 4-1.8.9-6.4 1-8.5.4zm5.9-2.4c0-.2-.4-.3-1-.3-.4 0-.8.1-.8.3 0 .2.4.4.9.4s.9-.2.9-.4zm-4-1c0-.2-.1-.4-.4-.4-.3 0-.6.2-.7.4-.2.2 0 .3.5.3.4 0 .7-.1.7-.3zm5.6-1c-.2-.3-.4-.4-.6-.4-.2 0-.3.1-.3.3 0 .2.2.4.5.4s.5-.2.4-.4zm-3.4-.4c0-.5-1-1.1-1.5-.9-1.1.4-.6 1.2.7 1.2.4 0 .8-.1.8-.3zm-3.2-1.2c0-.5-.1-.6-.7-.5-.5 0-1 .4-1 .7 0 .5 0 .6.7.6.5-.1.9-.4 1-.8zm-18.5 2.1c-.7-.5-.7-.6.9-4l1.8-3.8c.4-.5 4.8-.2 6.2.3 1.8.8 2.5 1.5 2.8 3 .3 1.5-.5 2.6-2.8 3.8-1.5.8-2.4 1-5 1.1-2.4.1-3.4 0-3.9-.4zm4.4-1.7c.4-.2.6-.5.5-.7-.3-.5-1.4-.4-1.9.2-.3.5-.2.7.6.9.1 0 .5-.1.8-.4zm3.8-2c0-.2-.2-.5-.6-.8-.9-.4-1.8 0-1.8 1 0 .6 2.2.5 2.4-.1zm-4 0c.8-.2.7-1.1-.1-1.1-.8 0-1.2.5-1 1 .3.5.4.5 1.1.2zm3-2c0-.3-.2-.5-.5-.7-.7-.2-1.7.4-1.4 1 .3.4 1.7.2 1.8-.3z" style="fill:#b3732a;stroke-width:.352778" transform="translate(-44.5 -173.2)"/>
  <path d="m47.8 227.4 1.6-3.2a98 98 0 0 0 2.9-6.6c.8-2 1.5-3.4 1.8-3.4.8 0 3 1.3 4 2.3 2.7 2.7 1.6 6.5-2.4 9-1.9 1.2-7.9 2.6-7.9 2zm5-3.6c.5-.3 1.3-.8 2-1 1.2-.4 1.6-1.5.5-1.5-.4 0-1 .3-1.2.7-.2.4-.7.7-1 .7-.9 0-2.8 1-2.8 1.4 0 .6 1.6.4 2.5-.3zm1.9-3.1c.3-.9 0-1.2-1.3-1-1.4.3-1.8.7-1.5 1.2.4.6 2.5.4 2.8-.2zm2.6-1.5c0-.2-.2-.4-.8-.4-.7 0-.9.2-.9.7 0 .6.1.6.8.4l.9-.7zm-2.5-2.4c-.6-.6-1.7-.4-1.7.2 0 .6 1.6 1 2 .7.2-.2 0-.5-.3-.9zm9.7 7.5c-1.9-2.4-.9-5.9 2.3-8 .8-.5.6-.5-2-.4-3.4.1-5.7-.7-7-2.6-2.3-3.3 1.1-7.2 6.8-7.8 4.2-.4 8.3 1.8 8.3 4.6a5 5 0 0 1-2 4l-1 .8h2.7c3.2 0 6 1 7.4 2.4 2 2.1 2.3 4 .7 4.6-1.3.6-13.9 3.2-15.1 3.2-.2 0-.7-.4-1.1-.8zM70 221c0-.2-.3-.4-.7-.5-.7 0-1 .3-.5.8.4.3 1.2.1 1.2-.3zm3.8-.6c.6-.6.5-1-.3-1s-1.2.5-.9 1c.3.5.7.5 1.2 0zm-2.6-.9c.7-.3.7-1-.1-1.3-1-.2-1.6.3-1.4 1 .3.6.6.7 1.5.3zm6.8-.3c.2-.7-.6-1.3-1.5-1-1 .3-1 .4-.8 1 .3.7 2 .7 2.3 0zm-3.3-1.9c.1-.2 0-.4-.1-.5-.5-.4-1.9.1-1.6.5.2.4 1.5.4 1.7 0zm-2.8-.9c0-.2-.3-.4-.8-.5-.5 0-.8.1-.8.5s.3.5.8.5c.5-.1.8-.3.8-.5zm-5.1-3.7c0-.8-.8-1.1-1.6-.6-.8.6-.4 1.3.7 1.3.6 0 .9-.2.9-.7zm-3.6-.6c.2-.5-1.3-1-1.8-.5-.2.2-.2.5 0 .7.2.5 1.6.4 1.8-.2zm4.1-1.1c.1-.2 0-.5-.1-.6-.5-.3-1.8.1-1.8.6 0 .4 1.6.4 2 0zm3.4-.2c0-.7-1-1.4-1.4-1.1-.2.1-.4.5-.4.9 0 .5.3.7.9.7.5 0 .9-.2.9-.5zm-9.1-1.5c-.1-.5-1.2-.4-1.4.2-.1.3 0 .4.6.3.5 0 .8-.3.8-.5zm2.9-.1c.1-.2-.2-.4-.7-.4-.5 0-.9.2-.9.4s.3.3.7.3c.4 0 .8-.1.9-.3zm4.7-.6c0-.3-.2-.5-.8-.5-.6 0-.9.2-.9.6 0 .6 1.5.5 1.7-.1zm-2.4-1.4c0-.3-.2-.5-.5-.5s-.7.2-1 .5c-.3.5-.2.6.6.6.6 0 .9-.2.9-.6zm17.4 11.5c-5.2-2-5.9-7.3-1.3-9.6 1.4-.7 2.3-.8 4.7-.8 2.7 0 3.3.1 5.1 1 6.4 3.3 3.5 10.1-4.2 10a14 14 0 0 1-4.3-.6zm1.6-3c0-.3-.2-.5-.5-.5s-.4.2-.3.5c.1.3.4.5.5.5.2 0 .3-.2.3-.5zm3.2-.4c0-.5-1.2-.7-1.5-.2-.3.4.1.8.9.8.3 0 .6-.3.6-.6zm3.4.2c.1-.2 0-.6-.1-.8-.5-.4-1.6.3-1.3.9.3.4 1.1.4 1.4-.1zm-7-1.7c0-.2 0-.5-.3-.6-.5-.3-1.5.1-1.2.6.3.4 1.6.4 1.6 0zM89 212c0-.2-.4-.4-.7-.4l-.7.4c0 .2.2.3.7.3.6 0 .9-.1.7-.3zm4.1 0c0-.2-.4-.4-1-.3-.8 0-.9 0-.2.3 1 .4 1.2.4 1.2 0zm-9-1h-.6c-.3.2-.2.2.2.3.4 0 .6-.1.5-.2zm21.4 5.7c-.4-1-.4-1 .1-.3.3.4.6.8.6 1 0 .5-.3.2-.7-.7zm-1.5-2.2c-.4-.5-.4-.5.1 0 .6.4.8.7.5.7l-.6-.7zm-3-3.3-1.4-1.5 1.5 1.4c1.4 1.3 1.7 1.6 1.4 1.6l-1.5-1.5zm-2.3-2.3c-.4-.6-.4-.6.1-.1.6.4.8.7.5.7l-.6-.6zm-22.4-1a8 8 0 0 1-2.6-1.8c-1-1-1.1-1.4-1-2.6.1-.8.5-1.8.9-2.2 1.9-2.1 7.4-3 11-1.6 1 .4 1.8.8 1.7 1l.5 1c1.5 2.3.7 4.5-2 5.9-1.8.9-6.4 1-8.5.4zm5.9-2.3c0-.2-.4-.3-1-.3-.4 0-.8.1-.8.3 0 .2.4.4.9.4s.9-.2.9-.4zm-4-1c0-.2-.1-.4-.4-.4-.3 0-.6.2-.7.4-.2.2 0 .3.5.3.4 0 .7-.1.7-.3zm5.6-1c-.2-.3-.4-.4-.6-.4-.2 0-.3.1-.3.3 0 .2.2.4.5.4s.5-.2.4-.4zm-3.4-.4c0-.5-1-1.1-1.5-.9-1.1.4-.6 1.2.7 1.2.4 0 .8-.1.8-.3zm-3.2-1.2c0-.5-.1-.6-.7-.5-.5 0-1 .4-1 .7 0 .5 0 .6.7.6.5-.1.9-.4 1-.8zm-18.5 2.1c-.7-.5-.7-.6.9-4l1.8-3.8c.4-.5 4.8-.2 6.2.3 1.8.8 2.5 1.5 2.8 3 .3 1.5-.5 2.6-2.8 3.8-1.5.8-2.4 1-5 1.1-2.4.1-3.4 0-3.9-.4zm4.4-1.7c.4-.2.6-.5.5-.7-.3-.5-1.4-.4-1.9.2-.3.5-.2.7.6.9.1 0 .5-.1.8-.4zm3.8-2c0-.2-.2-.5-.6-.8-.9-.4-1.8 0-1.8 1 0 .6 2.2.5 2.4-.1zm-4 0c.8-.2.7-1.1-.1-1.1-.8 0-1.2.5-1 1 .3.5.4.5 1.1.2zm3-2c0-.3-.2-.5-.5-.7-.7-.2-1.7.4-1.4 1 .3.4 1.7.2 1.8-.3z" style="fill:#c3562a;stroke-width:.352778" transform="translate(-44.5 -173.2)"/>
  <path d="M47.9 227.3c0-.7.7-1 3.3-1.6 1.6-.3 3.5-1 4.2-1.3a6.4 6.4 0 0 0 3.6-4.8c.2-1.2 0-1.6-1-2.7a8.4 8.4 0 0 0-2.9-2c-1-.3-1.5-.7-1.2-.7 1 0 3.1 1.2 4.3 2.3 2.6 2.7 1.5 6.5-2.5 9-2 1.3-7.9 2.6-7.8 1.8zm16.7-2.8c-.9-1-1.7-4.3-1-3.8.3.1.3-.1.2-.5 0-.4 0-.7.3-.7.2 0 .3-.2.2-.4-.2-.1-.1-.3 0-.3.2 0 .6-.4.8-.9.3-.5.6-.8.7-.7l1-.7.7-.7-2.6.1c-3.9.2-6.3-.9-7.6-3.3l-.4-.7.8.7 1.5 1.3c.6.7 3.2 1.2 4.6 1 .6-.2.4-.3-.5-.3a6 6 0 0 1-2.1-.4c-1.2-.6-2.5-2.4-2.5-3.4 0-2 2.9-4.4 6-4.7 2-.3 5 .2 5 .7 0 .2.2.4.4.4.3 0 .9.3 1.3.7.5.5.8.6.6.3-.2-.3 0-.2.3.1 1.2 1.4.5 4.4-1.4 5.9-.6.4-.8.7-.7.7l3.2.1a9 9 0 0 1 4.7 1.1c2 1 3.3 2.5 3 3.2 0 .3 0 .6.2.7.8.5.4 1.5-.6 2-1.3.5-13.9 3.1-15 3.1-.3 0-.7-.3-1-.6zm6.2-3.2c0-.7-1-1.1-1.8-.8-1 .6-.8 1.1.5 1.1.7 0 1.3-.1 1.3-.3zm3.3-1.2c0-1-.6-1.1-1.3-.4-.8.7-.4 1.3.6 1.1.4 0 .7-.3.7-.7zm-6.3-.6c.3-.5-.5-1.1-1-1-.3.1-.5.4-.5.8-.2.6 1.1.8 1.5.2zm3.8.1c.9-.3.7-1-.3-1.3-.7-.2-1.2 0-1.5.3-1 1 .3 1.6 1.8 1zm6.8-.3c.3-.7-.5-1.2-1.6-1.1-.6 0-1 .3-1 .9-.1.7 0 .8 1.1.8.9 0 1.4-.2 1.5-.6zm-3.7-1.2c.2 0 .3-.3.3-.7 0-.8-.8-1-1.7-.4-.7.4-.2 1.6.5 1.3l.9-.2zm6 .2-.8-.8-.8-.6.6.7c.7.8 1 1 1 .7zm-8.6-1.7c.1-.6-1-1-1.7-.6-.2.1-.3.5-.2.8.3.8 1.8.6 2-.2zm-3.2-2.5c2.2-1 3.8-3 3.5-4.4l-.1-1v1.1c-.1 1.1-1 2.2-2.5 3l-1 .2c-.2-.1 0-.2.1-.2.3 0 .8-.4 1.3-.9.8-.7.9-1 .6-1.6-.4-.7-1.6-1-2-.3-.1.2-.7.3-1.3.2-1.2-.3-2.4.3-2.4 1.1 0 .4-.2.8-.4 1-.3.4-.3.6 0 1 .5.5 1 .6 2.2.4l1.6-.2-2 .7c-1.8.6-1.8.7-.7.7.7 0 2-.4 3-.8zm-5.8-1.3c.5-.3.6-.5.2-1-.4-.5-1.9-.6-2.2 0-.3.4.4 1.3 1 1.3l1-.3zm-1.3-3.2c0-.3-.4-.6-1-.6-1-.1-1.3.5-.7 1.1.4.4 1.7 0 1.7-.5zm2.8-.3c0-.3-.4-.6-1-.7-.8 0-1 0-1 .7 0 .6.2.7 1 .6.6 0 1-.3 1-.6zm4.7 0c.5-.6 0-1.4-1-1.4-.8 0-1.2.5-1 1.2.3.6 1.4.7 2 .1zm-2.4-1.6c.4-.5.1-.9-.7-.9-.7 0-1.5.8-1.2 1.2.4.4 1.4.2 1.9-.3zm17.4 11c-5.2-2-5.9-7.2-1.3-9.5 1.4-.7 2.3-.8 4.7-.8 2.7 0 3.3.1 5.1 1 6.4 3.3 3.5 10.1-4.2 10a14 14 0 0 1-4.3-.6zm2-2.8c-.3-.5-2.1-.8-2.1-.4 0 .6.4.8 1.3.8.5 0 .8-.1.7-.4zm2.8-.5c-.2-.7-1-1-1.7-.5-.7.4-.2 1 .9 1 .6 0 .8 0 .8-.5zm3.7-.1c0-.8-1.7-.7-1.9 0 0 .6.1.7 1 .6.5 0 1-.3 1-.6zm-7-1.4c0-.4-.4-.6-1-.7-1 0-1.3.5-.7 1.1.4.5 1.7.1 1.7-.4zm3.3-1.4c-.2-.7-1.7-1-1.7-.3s.3 1 1.1 1c.5 0 .6-.3.6-.7zm3.5.2c.6-.6.5-1-.5-1-.9 0-1.4.5-1 1.1.3.5 1 .4 1.5 0zm-8.4-1.3c0-.4-.4-.7-.8-.5-.3.2 0 .8.5.8.1 0 .3 0 .3-.3zm2.5-1c0-.2-.3-.4-.6-.6-.5-.2-.7.2-.3.6.4.4.9.3.9 0zm3.3 0c.8-.3.6-.8-.3-.8-1 0-1.4.5-1 .9.2.2.6.2 1.3 0zm-37.7 8c0-.3 0-.6.2-.5.1.1.3 0 .3-.2s.2-.2.7 0c.8.5 2.1.5 2.1.1l-.5-1c-.9-1.2-.1-1 1.2.3l1.2 1.2h-1c-.5.1-.9.3-.9.5s-.7.3-1.5.3c-1.3 0-1.6 0-1.8-.7zm53.1-1.6c-.4-1-.4-1 .1-.3.3.4.6.8.6 1 0 .5-.3.2-.7-.7zm-1.5-2.2c-.4-.5-.4-.5.1 0 .6.4.8.7.5.7l-.6-.7zm-3-3.3-1.4-1.5 1.5 1.4c1.4 1.3 1.7 1.6 1.4 1.6l-1.5-1.5zm-43.6-1.7c.1-.5.3-.6.3-.4.1.3 0 .7-.2.9-.2.2-.3 0-.1-.5zm41.3-.6c-.4-.6-.4-.6.1-.1.6.4.8.7.5.7l-.6-.6zm-22.4-1c-1.9-.6-3.7-2.6-3.7-4 0-.6.2-1 .4-1 .1.2.2 0 .1-.4-.2-.7 1.8-2.7 2.4-2.3.2.1.3 0 .3-.2 0-.3.1-.4.2-.2.2 0 .5 0 .8-.2.9-.7 5.7-.7 7.7.1 1 .4 1.9.8 1.8 1l.5 1c1.5 2.3.7 4.5-2 5.9-1.8.9-6.4 1-8.5.4zm5.8-2.3c-.1-.3-.5-.5-1-.5-.4 0-.9.2-1 .5 0 .2.3.4 1 .4s1-.2 1-.4zm-4-.5c.8-.3 0-1.2-.9-1-.8.2-.9.7-.2 1l.5.2.6-.2zm5.8-1.5c0-.3-.2-.4-.9-.4-.5.1-1 .4-1.1.6-.1.3.1.4.8.4.6 0 1-.4 1.2-.6zm-3.5-.6c0-.6-1.4-1-1.8-.6-.6.5 0 1.1 1 1.1.5 0 .8-.2.8-.5zm-3-.7c.2-.6-.1-.9-.8-.9-.9 0-1.6.6-1.3 1 .3.6 1.8.5 2 0zm5.5 0c0-.2-.1-.5-.3-.6-.3-.4-1.5.4-1.3.8.3.5 1.6.4 1.6-.2zm-24.1 2c-1-.7-.7-1 .9-.7l2.5.2c.9 0 .7 0-.8-.5-1-.3-1.8-.8-1.8-1l.7-1.9c.4-.8.7-1.6.7-1.9 0-.3.3-.8.6-1.3.5-.8.7-.8 3.1-.7 2.7.2 3.4.6 3.8 2 .2.8.1.8-.6.6l-1.3-.2c-.3 0-.7-.3-.8-.7a1 1 0 0 0-.9-.7c-.9 0-1.4 1-.8 1.5.2.2.3.8.2 1.4-.2.9-.1 1 .6 1H66c1.7-.4 1.7-.4.6.7-1.7 1.4-.6 1.4 1.2 0 1.7-1.4 2-1.9 1.8-3.2-.2-1.4.4-.9.7.6.3 1.6-.5 2.7-2.8 4-1.5.7-2.4.9-5 1a11 11 0 0 1-3.8-.3zm6.2-1h-1c-.2 0 0 .2.5.2s.7-.1.5-.2zm-1.7-.7c.7-.3.7-1.1 0-1.4-.7-.3-2 .5-2 1.1 0 .5 1 .7 2 .3zm.1-2.2c.7-.4.3-1.5-.6-1.5-.8 0-1.6 1-1.3 1.4.3.5 1.3.5 2 0z" style="fill:#b46e14;stroke-width:.352778" transform="translate(-44.5 -173.2)"/>
  <path d="M47.9 227.3c0-.7.7-1 3.3-1.6 1.6-.3 3.5-1 4.2-1.3a6.4 6.4 0 0 0 3.6-4.8c.2-1.2 0-1.6-1-2.7a8.4 8.4 0 0 0-2.9-2c-1-.3-1.5-.7-1.2-.7.7 0 2.9 1 3.8 1.9 2.1 1.7 2.4 4.6.7 6.9-1.3 1.8-3.4 3-6.9 3.9-3 .8-3.7.8-3.6.4zm16.4-3.3c-.7-1-1.2-3.6-.7-3.3.3.1.3 0 .2-.5 0-.4 0-.7.3-.7.2 0 .3-.2.2-.4-.2-.1-.1-.3 0-.3.2 0 .6-.4.8-.9.3-.5.6-.8.7-.7l1-.7.8-.8-2.4.2c-3.2.2-5.6-.6-7.1-2.3-1.8-2-1.2-1.9 1 .3.7.7 3.3 1.2 4.7 1 .6-.2.4-.3-.5-.3a6 6 0 0 1-2.1-.4c-1.2-.6-2.5-2.4-2.5-3.4 0-2 2.9-4.4 6-4.7 2-.3 5 .2 5 .7 0 .2.2.4.4.4.3 0 .9.3 1.3.7.5.5.8.6.6.3-.2-.3 0-.2.3.2.5.5.6 1 .5 2.3-.2 1.2-.5 1.8-1.6 2.9-.8.7-1.3 1.3-1 1.3 4.7 0 6.2.3 7.9 1.2 2 1 3 2 3 3l.4 1.2c.2.4.2.8 0 1-.6.6-13.7 3.5-15.8 3.5-.5 0-1-.4-1.4-.8zm6.5-2.7c0-.7-1-1.1-1.8-.8-1 .6-.8 1.1.5 1.1.7 0 1.3-.1 1.3-.3zm3.3-1.2c0-1-.6-1.1-1.3-.4-.8.7-.4 1.3.6 1.1.4 0 .7-.3.7-.7zm-6.3-.6c.3-.5-.5-1.1-1-1-.3.1-.5.4-.5.8-.2.6 1.1.8 1.5.2zm3.8.1c.9-.3.7-1-.3-1.3-.7-.2-1.2 0-1.5.3-1 1 .3 1.6 1.8 1zm6.8-.3c.3-.7-.5-1.2-1.6-1.1-.6 0-1 .3-1 .9-.1.7 0 .8 1.1.8.9 0 1.4-.2 1.5-.6zm-3.7-1.2c.2 0 .3-.3.3-.7 0-.8-.8-1-1.7-.4-.7.4-.2 1.6.5 1.3l.9-.2zm6 .2-.8-.8-.8-.6.6.7c.7.8 1 1 1 .7zm-8.6-1.7c.1-.6-1-1-1.7-.6-.2.1-.3.5-.2.8.3.8 1.8.6 2-.2zm-3.2-2.5c2.2-1 3.8-3 3.5-4.4l-.1-1v1.1c-.1 1.1-1 2.2-2.5 3l-1 .2c-.2-.1 0-.2.1-.2.3 0 .8-.4 1.3-.9.8-.7.9-1 .6-1.6-.4-.7-1.6-1-2-.3-.1.2-.7.3-1.3.2-1.2-.3-2.4.3-2.4 1.1 0 .4-.2.8-.4 1-.3.4-.3.6 0 1 .5.5 1 .6 2.2.4l1.6-.2-2 .7c-1.8.6-1.8.7-.7.7.7 0 2-.4 3-.8zm-5.8-1.3c.5-.3.6-.5.2-1-.4-.5-1.9-.6-2.2 0-.3.4.4 1.3 1 1.3l1-.3zm-1.3-3.2c0-.3-.4-.6-1-.6-1-.1-1.3.5-.7 1.1.4.4 1.7 0 1.7-.5zm2.8-.3c0-.3-.4-.6-1-.7-.8 0-1 0-1 .7 0 .6.2.7 1 .6.6 0 1-.3 1-.6zm4.7 0c.5-.6 0-1.4-1-1.4-.8 0-1.2.5-1 1.2.3.6 1.4.7 2 .1zm-2.4-1.6c.4-.5.1-.9-.7-.9-.7 0-1.5.8-1.2 1.2.4.4 1.4.2 1.9-.3zm18 11.2c-4.3-1.5-6-4.8-4.2-7.7 1.1-1.9 3.4-2.8 7-2.8a9 9 0 0 1 5 1c4.7 2.3 4.7 6.8.2 9.1-2 1-5.8 1.2-8 .4zm1.3-3c-.2-.5-2-.8-2-.4 0 .6.4.8 1.3.8.5 0 .8-.1.7-.4zm2.9-.5c-.2-.7-1-1-1.7-.5-.7.4-.2 1 .9 1 .6 0 .8 0 .8-.5zm3.7-.1c0-.8-1.7-.7-1.9 0 0 .6.1.7 1 .6.5 0 1-.3 1-.6zm-7-1.4c0-.4-.4-.6-1-.7-1 0-1.3.5-.7 1.1.4.5 1.7.1 1.7-.4zm3.3-1.4c-.2-.7-1.7-1-1.7-.3s.3 1 1.1 1c.5 0 .6-.3.6-.7zm3.5.2c.6-.6.5-1-.5-1-.9 0-1.4.5-1 1.1.3.5 1 .4 1.5 0zm-8.4-1.3c0-.4-.4-.7-.8-.5-.3.2 0 .8.5.8.1 0 .3 0 .3-.3zm2.5-1c0-.2-.3-.4-.6-.6-.5-.2-.7.2-.3.6.4.4.9.3.9 0zm3.3 0c.8-.3.6-.8-.3-.8-1 0-1.4.5-1 .9.2.2.6.2 1.3 0zm-37.7 8c0-.3 0-.6.2-.5.1.1.3 0 .3-.2s.2-.2.7 0c.8.5 2.1.5 2.1.1l-.5-1c-.9-1.2-.1-1 1.2.3l1.2 1.2h-1c-.5.1-.9.3-.9.5s-.7.3-1.5.3c-1.3 0-1.6 0-1.8-.7zm5-8.8c.1-.5.3-.6.3-.4.1.3 0 .7-.2.9-.2.2-.3 0-.1-.5zm19.8-1.3c-2.8-1-4.6-2.6-4.6-4.4 0-.6.2-1 .4-.8.1 0 .2-.1.1-.5-.2-.7 1.8-2.7 2.4-2.3.2.1.3 0 .3-.2 0-.3.1-.4.2-.2.2 0 .5 0 .8-.2.3-.3 1.6-.5 3.2-.5 3.4 0 5.6.8 6.7 2.4 2.2 3.3-.7 6.6-6.1 6.8l-3.4-.1zm4.9-2.6c-.1-.3-.5-.5-1-.5-.4 0-.9.2-1 .5 0 .2.3.4 1 .4s1-.2 1-.4zm-4-.5c.8-.3 0-1.2-.9-1-.8.2-.9.7-.2 1l.5.2.6-.2zm5.8-1.5c0-.3-.2-.4-.9-.4-.5.1-1 .4-1.1.6-.1.3.1.4.8.4.6 0 1-.4 1.2-.6zm-3.5-.6c0-.6-1.4-1-1.8-.6-.6.5 0 1.1 1 1.1.5 0 .8-.2.8-.5zm-3-.7c.2-.6-.1-.9-.8-.9-.9 0-1.6.6-1.3 1 .3.6 1.8.5 2 0zm5.5 0c0-.2-.1-.5-.3-.6-.3-.4-1.5.4-1.3.8.3.5 1.6.4 1.6-.2zm-24.1 1.9c-1-.6-.7-1 .9-.6l2.5.2c.9 0 .7 0-.8-.5-1-.3-1.8-.8-1.8-1l.7-1.9c.4-.8.7-1.6.7-1.9 0-.3.3-.8.6-1.3.5-.8.7-.8 3.1-.7 2.7.2 3.4.6 3.8 2 .2.8.1.8-.6.6l-1.3-.2c-.3 0-.7-.3-.8-.7a1 1 0 0 0-.9-.7c-.9 0-1.4 1-.8 1.5.2.2.3.8.2 1.4-.2.9-.1 1 .6 1H66c1.7-.4 1.7-.4.6.7-1.7 1.4-.6 1.4 1.2 0 1.7-1.4 2-1.9 1.8-3.2-.2-1.4.4-.8.7.7.2 1 0 1.3-1.2 2.5-.9.9-2 1.5-3.2 2-2.2.5-6.3.7-7.2.1zm6.2-1h-1c-.2.2 0 .3.5.3s.7-.1.5-.2zm-1.7-.6c.7-.3.7-1.1 0-1.4-.7-.3-2 .5-2 1.1 0 .5 1 .7 2 .3zm.1-2.2c.7-.4.3-1.5-.6-1.5-.8 0-1.6 1-1.3 1.4.3.5 1.3.5 2 0z" style="fill:#ba522a;stroke-width:.352778" transform="translate(-44.5 -173.2)"/>
  <path d="M47.9 227.3c0-.7.7-1 3.3-1.6 1.6-.3 3.5-1 4.2-1.3a6.4 6.4 0 0 0 3.6-4.8c.2-1.2 0-1.6-1-2.7a8.4 8.4 0 0 0-2.9-2c-1-.3-1.5-.7-1.2-.7.7 0 2.9 1 3.8 1.9 2.1 1.7 2.4 4.6.7 6.9-1.3 1.8-3.4 3-6.9 3.9-3 .8-3.7.8-3.6.4zm16.4-3.3c-.7-1.2-1-2.8-.6-3.8.3-.7.4-.7.3-.2l.4 2.4.5 1.7 1.5-.2 2.4-.5a53 53 0 0 0 11.1-2.5c1.5-.5 1.8-.6 1.8-.1 0 .3-.4.6-.9.8-2 .8-13.5 3.2-15.1 3.2-.5 0-1-.4-1.4-.8zm1.5-1.2c-.8-.3-1-.9-.8-2 .3-1.7 1-2.6 3-3.6 1.5-.8 1.7-.8 2-.3.2.3.7.5 1.3.4.8 0 1-.3 1-.8 0-.6.2-.8 1-.8 1.4-.1 2.3.2 2.5.8.2.4 0 .4-1 .3-1.2-.2-2.3.3-2.3 1 0 .2.5.5 1 .7.9.4.9.4.3.6-1 .2-1.6.7-1.6 1.3 0 .6 1.4.7 2 .2.2-.2.5-.2.8 0 .5.2.5.4 0 1-.5.4-1.6.6-3.6.8l-4 .4c-.6.1-1.3.1-1.6 0zm4.7-1.2c.5-.3.6-.5.3-.9-.8-1-2.8-.4-2.4.7.3.7 1 .7 2 .2zm-2.7-1.7c.7-.9.4-1.5-.7-1.5-.6 0-1 .3-1 .7-.5 1.5.6 2 1.7.8zm4.6-.4c.3-.6-.6-1.4-1.6-1.4-1.1 0-1.6.5-1.3 1.2.2.6 2.5.8 2.9.2zm12.5-.6c-2-.7-3.7-2-4.4-3.3-.8-1.4-.7-1.8.1-.5.4.5 1 1.2 1.4 1.4.4.2.2-.1-.4-.9-.8-1-1-1.4-.8-2.4.2-1.3.2-1.3-.3-.4-.5.8-.5.8-.5.2 0-.4.2-1 .5-1.5.3-.3.4-.4.3-.1-.1.3-.1.4 0 .2.2-.1.4-.5.4-.9 0-.3.3-.6.8-.6.4 0 1-.2 1-.3.2-.2 0-.2-.4 0-.5.2-.6.1-.3-.2l.9-.5 1.2-.4c.3-.2 2-.3 3.5-.3 2.4 0 3.2.2 4.9 1 4.6 2.2 4.6 6.8 0 9.1-1.9 1-5.7 1.2-8 .4zm1.2-2.6c.4-.6-.5-1.4-1.3-1.3-1 .1-1.1.8-.2 1.2 1 .5 1.3.6 1.5.1zm8.8 0c.2-.2.1-.3 0-.3a1 1 0 0 0-.7.3c0 .2 0 .4.2.4s.4-.2.5-.4zm-2.2-.6c.8-.7.8-1.3.1-1.9-.4-.3-.4-.5-.2-.8.6-.5.5-1.2-.2-1.4-.6-.3-1.9.3-1.9 1 0 .4-1 1.2-2.3 1.8-1.2.5-1.6 1.4-.8 1.7 1.2.4 4.8.1 5.3-.4zm-6.8-1.8c-.1-.6-1-1-2-.6-.8.3.1 1.3 1.2 1.3.7 0 .9-.2.8-.7zm3.4-1.3c0-.5-.3-.7-.8-.8-1.2-.2-1.7.4-1 1.1.8.8 1.8.6 1.8-.3zm-4.9-1.1c.1-.3 0-.6-.4-.7-.6-.2-1.7.5-1.4 1 .3.5 1.7.2 1.8-.3zm2-.9c.2-.2.2-.5 0-.7-.5-.5-1.6.3-1.3.8.3.5 1.1.4 1.4 0zm4-.6c0-.8-1.8-.7-2 0 0 .6.1.7 1 .6.6 0 1-.3 1-.6zM80 217.8c-.7-1-.8-1.1-.2-.6.7.6 1.7 2 1.4 2l-1.2-1.4zm-13-1.4c.8-.7.8-.7-1.7-.5-3.2.2-5.6-.6-7.1-2.3-.6-.6-1-1.3-1-1.4 0-.3 1.4 1 1.8 1.6.4.6 2.7 1.1 5.5 1.1a9 9 0 0 0 4.8-1c3.1-1.5 4.1-3.6 2.8-5.7l-.6-.9.8 1c.6.6.7 1 .6 2.4-.2 1.2-.5 1.8-1.6 2.9-1 1-1.3 1.3-.9 1.3s-.4.5-1.6 1c-2.5 1.3-3 1.4-1.8.5zm-9.6-6.8c.1-.5.3-.6.3-.4.1.3 0 .7-.2.9-.2.2-.3 0-.1-.5zm12.4-.8c0-.7-1.3-1.4-2-1.2-.2.1-.5 0-.5-.1 0-.5 1-.4 2.1.2 1.2.6 1.7 1.6 1 1.6a.5.5 0 0 1-.6-.5zm7-.7c-3-1.2-4.4-2.7-4-4.7a4 4 0 0 1 2.1-3c.4-.2.2 0-.4.6-1.4 1.4-1.8 2.7-1 3.9.7 1 3.4 2.4 4.4 2.2.3-.1 0-.3-.8-.5a4 4 0 0 1-2.3-1.4c-.9-1-1-1.4-.8-2.3.2-1 .6-1.4 2-2.1 1-.6 1.5-1 1.2-1.2h1c1.3.1 1.5 0 1-.2-.6-.3-.2-.3 1.2-.2l2.6.2c.3 0 .6.2.6.4s.1.2.3.1c.2-.1.4 0 .4.2s.2.2.5.1c.2 0 1 .4 1.5 1.1 2 2.3 1.3 4.7-1.8 6.3a12 12 0 0 1-7.7.5zm4.2-.8h-1.2l.6.1c.7 0 1 0 .6-.1zm1.5-1.4c1.3-.7 2.5-.7 2.2.1-.1.5 0 .4.8-.2 1-1 1.3-2.4.4-2-.3 0-.8-.2-1.1-.6-.3-.3-.8-.6-1-.6-.2 0-.5-.3-.7-.6-.4-.5-.6-.5-1.2-.2-.4.3-.8.7-.8 1 0 .5 0 .5-.6 0-.8-.7-2-.8-2.3-.1-.3.6.4 1.3 1.2 1.3.6 0 .8.4.7 1.2-.3 1.2 1 1.6 2.4.7zm-4-1.1c.2-.5-1.2-1-1.7-.5-.2.2-.2.5-.1.7.3.5 1.7.4 1.8-.2zm-1.3-2c.7-.7.4-1.3-.7-1.3-1.2 0-1.8 1-1 1.4.7.5 1.2.4 1.7 0zm9.4-.3c0-.3-.2-.2-.2.2s.1.6.2.5v-.7zm-27.8 1.8c-1.2-.7-.6-1 1.2-.6 2.7.5 6.3-.2 8-1.5 1.6-1.4 2-1.9 1.7-3.2-.2-1.4.4-.8.7.7.2 1 0 1.3-1.2 2.5-.9.9-2 1.5-3.2 2-2.2.5-6.3.7-7.2.1z" style="fill:#c7511c;stroke-width:.352778" transform="translate(-44.5 -173.2)"/>
  <path d="M47.8 227.3c0-.2 1-.5 2-.7 4.7-1 7.8-2.7 9-5.1.5-1 .7-1.3.7-.7 0 1.1-2 3.5-3.6 4.5-.9.5-2.8 1.2-4.4 1.6-3.1.8-3.7.8-3.7.4zm16.8-2.8c0-.2 1.5-.6 3.6-.9a122.4 122.4 0 0 0 13.5-2.8c.6.5-3.8 1.8-11.4 3.3-4.1.8-5.4.9-5.7.4zm1.2-1.7c-.8-.3-1-.9-.8-2 .3-1.7 1-2.6 3-3.6 1.5-.8 1.7-.8 2-.3.2.3.7.5 1.3.4.8 0 1-.3 1-.8 0-.6.2-.8 1-.8 1.4-.1 2.3.2 2.5.8.2.4 0 .4-1 .3-1.2-.2-2.3.3-2.3 1 0 .2.5.5 1 .7.9.4.9.4.3.6-1 .2-1.6.7-1.6 1.3 0 .6 1.4.7 2 .2.2-.2.5-.2.8 0 .5.2.5.4 0 1-.5.4-1.6.6-3.6.8l-4 .4c-.6.1-1.3.1-1.6 0zm4.7-1.2c.5-.3.6-.5.3-.9-.8-1-2.8-.4-2.4.7.3.7 1 .7 2 .2zm-2.7-1.7c.7-.9.4-1.5-.7-1.5-.6 0-1 .3-1 .7-.5 1.5.6 2 1.7.8zm4.6-.4c.3-.6-.6-1.4-1.6-1.4-1.1 0-1.6.5-1.3 1.2.2.6 2.5.8 2.9.2zm12.3-.6c-1.7-.6-4.4-2.8-4.4-3.6 0-.2.5.1 1.2.8.6.7 1.4 1.3 1.6 1.3.2 0-.2-.6-1-1.4-1.3-1.2-1.4-1.4-1.3-2.8.2-3 3.4-5 7.7-4.8 2.4 0 5.5 1.5 6.6 3 .5.6.9 1.8 1 2.6.1 1.2 0 1.7-.8 2.6-2.2 2.6-6.8 3.6-10.6 2.3zm8.6-1.5c1.4-.7 2.2-1.4 1.5-1.4l-.6.3c0 .2-.8.7-1.5 1-.7.4-1.2.8-1 .8l1.6-.7zm-7.2-1c.4-.7-.5-1.5-1.3-1.4-1 .1-1.1.8-.2 1.2 1 .5 1.3.6 1.5.1zm6.6-.7c.8-.7.8-1.3.1-1.9-.4-.3-.4-.5-.2-.8.6-.5.5-1.2-.2-1.4-.6-.3-1.9.3-1.9 1 0 .4-1 1.2-2.3 1.8-1.2.5-1.6 1.4-.8 1.7 1.2.4 4.8.1 5.3-.4zm-6.8-1.8c-.1-.6-1-1-2-.6-.8.3.1 1.3 1.2 1.3.7 0 .9-.2.8-.7zm3.4-1.3c0-.5-.3-.7-.8-.8-1.2-.2-1.7.4-1 1.1.8.8 1.8.6 1.8-.3zm-4.9-1.1c.1-.3 0-.6-.4-.7-.6-.2-1.7.5-1.4 1 .3.5 1.7.2 1.8-.3zm2-.9c.2-.2.2-.5 0-.7-.5-.5-1.6.3-1.3.8.3.5 1.1.4 1.4 0zm4-.6c0-.8-1.8-.7-2 0 0 .6.1.7 1 .6.6 0 1-.3 1-.6zm-29.7 5.4a10 10 0 0 1-2.3-1.4l-.9-1 1 .8c3.5 2.6 11.1 1.4 13.6-2 .7-1 .8-1.1.6-.4-.3 1.2-1.8 2.7-3.5 3.6-1.9 1-6.5 1.2-8.5.4zm9-6.6c0-.7-1.3-1.4-2-1.2-.2.1-.5 0-.5-.1 0-.5 1-.4 2.1.2 1.2.6 1.7 1.6 1 1.6a.5.5 0 0 1-.6-.5zm7.4-.5c-1.3-.5-3-1.4-3.4-2-.3-.2.4 0 1.4.5 3.8 1.9 10.8.6 12-2.2.1-.6.2-.6.2-.2 0 .9-1.3 2.3-2.9 3.2a14 14 0 0 1-7.3.7zm-.1-1.6c-.8-.3-1.8-1-2.4-1.6-2.1-2.4.3-5 5.2-5.5 1.6-.2 2.6 0 3.5.3.7.3 1.5.4 1.7.3.2-.1.2 0 .1.1 0 .2.1.7.5 1 .8.8 1 2.2.2 2.4-.3.1-.8 0-1.1-.5-.3-.3-.8-.6-1-.6-.2 0-.5-.3-.7-.6-.4-.5-.6-.5-1.2-.2-.4.3-.8.7-.8 1 0 .5 0 .5-.6 0-.8-.7-2-.8-2.3-.1-.3.6.4 1.3 1.2 1.3.6 0 .8.3.7 1.5-.1.9 1 1.1 2.3.5 1.5-.8 2.6-.8 2.4 0-.5 1-5 1.5-7.7.7zm1.4-1.9c.2-.5-1.2-1-1.7-.5-.2.2-.2.5-.1.7.3.5 1.7.4 1.8-.2zm-1.3-2c.7-.7.4-1.3-.7-1.3-1.2 0-1.8 1-1 1.4.7.5 1.2.4 1.7 0zm-18.3 1.6c-.3-.2.4-.3 1.8-.2 3.7.3 7.7-1.1 9.2-3.3.3-.5.6-.8.6-.5 0 1-2.6 3.1-4.5 3.7-2.1.6-6.3.8-7 .3z" style="fill:#b44d26;stroke-width:.352778" transform="translate(-44.5 -173.2)"/>
  <path d="M47.8 227.3c0-.2 1-.5 2-.7 4.8-1 7.7-2.6 9-5.1.5-1 .7-1.2.7-.7 0 1.1-2 3.5-3.6 4.5-.9.5-2.8 1.2-4.4 1.6-3.1.8-3.7.8-3.7.4zm16.8-2.9a166 166 0 0 0 15.4-3.3c1.8-.5 2.4 0 .8.5a119 119 0 0 1-15.2 3.2c-.4 0-.9-.2-1-.4zm20.3-5.5c-1.9-.6-3.7-2-4.3-3-.3-.7-.2-.7.7.2 3.8 3.6 13.1 2.9 14.6-1.2.2-.4.2-.4.2 0 0 1-1.6 2.8-3.2 3.6-2 1-5.8 1.2-8 .4zm-24.2-3.5a7 7 0 0 1-2.3-1.4l-.9-1 1.1.8c3.5 2.5 11.2 1.4 13.5-2 .7-1 .8-1.1.6-.4-.3 1.2-1.8 2.7-3.5 3.6-1.9 1-6.5 1.2-8.5.4zm16.4-7.1c-1.3-.5-3-1.4-3.4-2-.3-.2.4 0 1.4.5 3.8 1.9 10.8.6 12-2.2.1-.6.2-.6.2-.2 0 .9-1.3 2.3-2.9 3.2a14 14 0 0 1-7.3.7zm-18.3-4c-.3-.1.4-.2 1.8 0 3.7.2 7.7-1.2 9.2-3.4.3-.5.6-.8.6-.5 0 1-2.6 3.1-4.5 3.7-2.1.6-6.3.8-7 .3z" style="fill:#b14a16;stroke-width:.352778" transform="translate(-44.5 -173.2)"/>
  <path d="M48 227.3c0-.2.6-.4 1.5-.6 3.6-.5 6.2-1.6 8-3.4 1.4-1.4 1.6-1.5 1-.6-.8 1.5-3.3 3-6 3.8-3.4 1-4.2 1.2-4.5.8zm17-2.8a157.8 157.8 0 0 0 16.3-3.3 80.6 80.6 0 0 1-16.3 3.3zm20.4-5.5c-1.9-.6-3.5-1.4-4-2.1-.3-.3.5 0 1.7.6 2 1 2.5 1.1 5.5 1a17.4 17.4 0 0 0 5.1-.6l-1.3.7a12 12 0 0 1-7 .4zm-24-3.4-1.2-.4 3.6-.1c3.5 0 3.8 0 6-1.2l2.2-1-1.2 1a11.3 11.3 0 0 1-9.5 1.7zm15.3-7.6c-1-.3-1.8-.7-1.9-.9-.1-.2.1-.2.6.1.5.3 2 .5 4.2.5 3 0 3.6-.1 5.3-1 1.2-.6 1.7-.8 1.4-.4-1.6 1.9-6.4 2.7-9.6 1.7zm-14.5-3.7a11 11 0 0 0 6.5-2l1.2-.8-1.2 1a10.6 10.6 0 0 1-7 2.1h-2.4z" style="fill:#a83a10;stroke-width:.352778" transform="translate(-44.5 -173.2)"/>
  <path d="M48.4 227.3a15704 15704 0 0 0 5.1-1.1c-1.4.6-4.9 1.4-5.1 1.1zm16.7-2.8a132 132 0 0 0 15.2-3c-1 .6-13.5 3.3-15.1 3.3-.5 0-.5 0 0-.3zm21-5.3c-.4 0-.8-.3-1-.5-.3-.2-.2-.3.3-.1l3.5.2c2 0 2.6.2 1.8.3-1.2.4-3.5.4-4.6.1zm-2.7-1c-1.3-.7-1.2-.9 0-.4.7.3 1.1.6 1.1.7 0 .4 0 .4-1.1-.3zM65 215.5l4-1c2.1-.8 2.2-.6.2.4a10 10 0 0 1-4.2 1h-2.5zm13.2-7 2-.4 3-.6c1.7-.5 2-.4.8.2-1 .6-6.2 1.2-5.8.8z" style="fill:#98370f;stroke-width:.352778" transform="translate(-44.5 -173.2)"/>
</svg>