<?xml version="1.0" encoding="UTF-8" standalone="no"?>
<!-- Created with Inkscape (http://www.inkscape.org/) -->

<svg
   width="73.377777mm"
   height="73.377777mm"
   viewBox="0 0 73.377777 73.377777"
   version="1.1"
   id="svg5"
   sodipodi:docname="plastic.svg"
   inkscape:version="1.1.1 (3bf5ae0d25, 2021-09-20)"
   xmlns:inkscape="http://www.inkscape.org/namespaces/inkscape"
   xmlns:sodipodi="http://sodipodi.sourceforge.net/DTD/sodipodi-0.dtd"
   xmlns="http://www.w3.org/2000/svg"
   xmlns:svg="http://www.w3.org/2000/svg">
  <sodipodi:namedview
     id="namedview7"
     pagecolor="#ffffff"
     bordercolor="#666666"
     borderopacity="1.0"
     inkscape:pageshadow="2"
     inkscape:pageopacity="0.0"
     inkscape:pagecheckerboard="0"
     inkscape:document-units="mm"
     showgrid="false"
     inkscape:zoom="2.8882212"
     inkscape:cx="142.30212"
     inkscape:cy="159.78693"
     inkscape:window-width="1920"
     inkscape:window-height="1009"
     inkscape:window-x="-8"
     inkscape:window-y="-8"
     inkscape:window-maximized="1"
     inkscape:current-layer="layer1" />
  <defs
     id="defs2" />
  <g
     inkscape:label="Layer 1"
     inkscape:groupmode="layer"
     id="layer1"
     transform="translate(502.40643,229.96559)">
    <g
       id="g3585">
      <path
         style="fill:#fefefe;stroke-width:0.352778"
         d="m -502.40643,-193.2767 v -36.68889 h 36.68889 36.68889 v 36.68889 36.68889 h -36.68889 -36.68889 z"
         id="path3607" />
      <path
         style="fill:#99e0f4;stroke-width:0.352778"
         d="m -485.82587,-166.07133 c -2.71289,-0.87544 -4.0692,-1.63955 -5.89092,-3.31874 -1.73941,-1.60334 -2.62307,-3.13065 -3.21639,-5.55918 -0.82022,-3.35729 -2.88714,-15.72336 -2.88714,-17.27336 0,-3.276 2.82372,-7.01924 6.82993,-9.05402 1.5289,-0.77654 1.69456,-0.9732 1.52919,-1.81534 -0.50871,-2.59045 -1.03693,-9.21045 -0.8246,-10.33459 0.30125,-1.59494 2.15874,-3.55487 4.48741,-4.7349 5.94902,-3.0146 15.84487,-2.75673 20.30593,0.52913 2.10785,1.55256 2.6793,3.00288 2.65798,6.74583 l -0.0177,3.10833 1.5383,-1.17422 c 4.68484,-3.57601 14.66968,-4.00101 21.17274,-0.9012 3.7675,1.79586 5.89118,4.07692 6.56534,7.05189 0.32443,1.43167 -2.15003,16.72895 -3.08337,19.0616 -0.7755,1.93817 -3.90848,4.70421 -6.39357,5.64475 -2.55834,0.96827 -7.07431,1.28876 -10.03821,0.71241 -4.19561,-0.81588 -8.31899,-3.43097 -10.14545,-6.43435 l -0.6306,-1.03693 -0.14862,4.34362 c -0.12745,3.72479 -0.27761,4.62386 -1.054,6.31063 -1.69764,3.68827 -6.01043,7.06613 -10.57205,8.28025 -2.64117,0.70298 -7.77269,0.62658 -10.18419,-0.15161 z m -4.93889,-19.21514 c 0,-0.22957 -3.57127,-2.34579 -3.95868,-2.34579 -0.62791,0 0.87426,1.46964 2.0184,1.97467 1.02186,0.45106 1.94028,0.62673 1.94028,0.37112 z m 33.16111,-12.04718 c -1.15431,-0.65985 -1.77969,-0.65208 -0.90272,0.0112 0.37664,0.28487 0.93226,0.51232 1.23473,0.50545 0.35249,-0.008 0.23329,-0.19351 -0.33201,-0.51667 z m -25.75278,-10.1973 c 0,-0.19236 -4.57821,-2.32631 -4.99091,-2.32631 -0.6719,0 0.41164,1.32662 1.53625,1.88088 1.03086,0.50806 3.45466,0.82058 3.45466,0.44543 z"
         id="path3605" />
      <path
         style="fill:#66ccf2;stroke-width:0.352778"
         d="m -484.95855,-165.89934 c -3.97995,-0.96691 -7.12516,-3.18715 -8.75373,-6.17938 -0.75562,-1.38832 -1.30924,-3.55203 -2.37923,-9.29879 -1.63093,-8.75952 -1.79555,-11.73687 -0.7754,-14.02411 0.83989,-1.88311 3.66914,-4.61472 5.90451,-5.70075 0.92267,-0.44827 1.60875,-1.02446 1.60875,-1.35109 0,-0.31322 -0.2389,-2.38076 -0.53088,-4.59453 -0.88699,-6.72511 -0.18851,-8.63098 3.97684,-10.85109 2.78886,-1.48644 5.91758,-2.17721 9.88995,-2.18352 4.19849,-0.007 7.71872,0.79087 9.83758,2.22878 2.71077,1.8396 3.08267,2.59188 3.28484,6.64465 l 0.17639,3.53587 1.35431,-1.07838 c 4.71675,-3.75574 14.38286,-4.16925 21.25441,-0.90926 4.18604,1.98594 6.49545,4.8159 6.49545,7.95956 0,2.4655 -2.4809,16.21415 -3.25434,18.03492 -1.9635,4.62228 -8.33598,7.2835 -15.13761,6.32162 -4.72923,-0.6688 -8.48064,-2.79141 -10.94915,-6.19521 l -0.99779,-1.37585 -0.0155,2.2578 c -0.0243,3.54264 -0.53579,7.11772 -1.22661,8.57351 -0.92905,1.95783 -3.68421,4.79877 -6.01168,6.19885 -3.70571,2.22916 -9.37873,3.04865 -13.75112,1.9864 z m 1.77851,-17.88639 c 1.63143,-0.0433 1.54749,-0.0807 -1.11784,-0.4977 -1.58495,-0.24796 -3.68814,-0.71869 -4.67377,-1.04606 -2.24136,-0.74447 -5.81652,-3.34296 -6.54944,-4.76027 -0.99073,-1.91587 -1.97222,-0.99316 -1.25505,1.1799 0.48832,1.47961 3.0438,3.9113 5.0582,4.81318 1.15088,0.51526 2.05529,0.62686 4.12409,0.50891 1.45745,-0.0831 3.44367,-0.17218 4.41381,-0.19796 z m 33.3375,-11.28154 c 1.47936,-0.0306 1.39526,-0.077 -1.23472,-0.6817 -1.55223,-0.3569 -3.5144,-0.89826 -4.36038,-1.20304 -1.76064,-0.63429 -5.39318,-2.76935 -6.04218,-3.55134 -0.82274,-0.99135 -1.0582,-0.14471 -0.3473,1.24877 1.25197,2.45406 5.65465,4.69658 8.63319,4.39733 0.97014,-0.0975 2.47826,-0.19197 3.35139,-0.21002 z m -25.99654,-11.60389 c 0.15697,-0.006 0.18729,-0.16985 0.0674,-0.36387 -0.11991,-0.19403 -0.83619,-0.35278 -1.59172,-0.35278 -0.75553,0 -1.73835,-0.15333 -2.18404,-0.34073 -0.44569,-0.18741 -1.48504,-0.51103 -2.30965,-0.71916 -0.82462,-0.20813 -1.50055,-0.57074 -1.50206,-0.80579 -0.003,-0.52507 -1.61791,-1.30932 -2.69546,-1.30932 -0.78793,0 -2.59346,-1.92657 -2.59346,-2.76733 0,-0.77157 -0.72358,-0.40619 -1.08663,0.5487 -0.73695,1.93834 0.77899,4.23616 3.71805,5.63569 1.64723,0.78438 2.07734,0.83349 5.83525,0.66624 2.23132,-0.0993 4.18538,-0.18555 4.34235,-0.19165 z"
         id="path3603" />
      <path
         style="fill:#4fb9e4;stroke-width:0.352778"
         d="m -484.95855,-165.89934 c -4.41265,-1.07203 -7.96976,-3.88017 -9.25023,-7.30253 -0.57752,-1.54356 -3.26864,-15.0986 -3.25545,-16.39753 0.002,-0.17925 0.45913,0.46784 1.01625,1.43798 1.08593,1.89099 3.17225,3.57671 5.60216,4.52646 2.38591,0.93256 9.53097,0.74191 12.42828,-0.33163 0.35886,-0.13296 0.0182,-0.45896 -1.05833,-1.01289 -0.87313,-0.44926 -1.5875,-0.97729 -1.5875,-1.17342 0,-0.60708 -2.07336,-2.93234 -2.91042,-3.26404 -0.45824,-0.18157 -0.79375,-0.61644 -0.79375,-1.02881 0,-0.39285 -0.16304,-0.71428 -0.36232,-0.71428 -0.36774,0 -1.67734,-1.12791 -4.33862,-3.73668 -0.80997,-0.79398 -1.67522,-1.50973 -1.92277,-1.59054 -0.53002,-0.17301 0.36354,-2.20708 1.83507,-4.17733 0.4988,-0.66785 0.77095,-1.30285 0.60478,-1.41111 -0.16617,-0.10826 -0.48985,-1.78434 -0.7193,-3.72462 -0.22944,-1.94028 -0.49455,-4.00403 -0.58913,-4.58611 -0.17004,-1.04652 -0.16404,-1.04388 0.53736,0.23619 1.52516,2.78345 4.20404,3.89877 9.24433,3.84875 4.34006,-0.0431 6.60797,-0.39588 7.87308,-1.22481 l 0.89482,-0.58631 -0.69987,-1.3133 c -0.38493,-0.72232 -0.90594,-1.57272 -1.15779,-1.88979 -0.49719,-0.62592 -3.37691,-1.71657 -4.53238,-1.71657 -0.89258,0 -1.94986,-0.55526 -3.11576,-1.63634 -0.55541,-0.51501 -1.32965,-0.8331 -2.02777,-0.8331 -1.49801,0 -1.72758,-0.49112 -0.99204,-2.12227 0.53368,-1.1835 0.84077,-1.41454 2.42101,-1.82144 1.07483,-0.27676 3.67225,-0.45737 6.39591,-0.44473 3.78177,0.0176 4.94835,0.15436 6.65147,0.78002 4.5003,1.65322 5.85192,3.64986 5.86439,8.66299 l 0.008,3.1143 1.43465,-1.228 c 4.71619,-4.03689 15.80451,-4.3126 22.42148,-0.55751 2.36439,1.34178 4.58859,3.78258 5.00364,5.49091 0.45954,1.89146 0.31645,3.57193 -0.97262,11.42208 -1.32941,8.09589 -2.0351,9.91773 -4.63884,11.97587 -6.6667,5.26972 -18.26308,3.64671 -23.26991,-3.25682 l -0.95886,-1.3221 -0.23758,4.32071 c -0.20634,3.75257 -0.37132,4.59904 -1.25473,6.43738 -3.08431,6.41841 -11.79831,10.04403 -19.59046,8.15097 z m 39.17295,-28.92692 c 1.911,-0.51745 1.67962,-0.77112 -0.93102,-1.02071 -0.90011,-0.0861 -2.24949,-0.47774 -2.99861,-0.8704 -0.74912,-0.39267 -2.1161,-1.08791 -3.03773,-1.54499 -0.92163,-0.45707 -1.67569,-1.023 -1.67569,-1.25761 0,-0.23462 -0.41638,-0.71179 -0.92529,-1.0604 -0.50891,-0.34861 -1.65985,-1.26883 -2.55764,-2.04494 -3.40395,-2.94261 -5.38932,-3.35193 -5.81974,-1.19987 -0.27851,1.39255 0.7954,3.92647 2.35338,5.5529 1.20569,1.25865 3.76567,2.71088 6.06734,3.44188 1.88022,0.59715 7.32621,0.59952 9.525,0.004 z"
         id="path3601" />
      <path
         style="fill:#49abd5;stroke-width:0.352778"
         d="m -484.95855,-165.89934 c -4.09046,-0.99375 -7.32536,-3.33159 -8.81062,-6.36735 -0.64965,-1.32783 -1.34869,-4.16166 -2.31456,-9.383 -0.7611,-4.11434 -1.38381,-7.64477 -1.38381,-7.84541 0,-0.20064 0.36872,0.33486 0.81938,1.19 0.96813,1.83704 3.65758,3.99114 5.8834,4.71226 3.9086,1.26631 10.25226,0.88422 14.18234,-0.85424 1.45217,-0.64237 3.86653,-2.8324 3.12252,-2.8324 -0.59418,0 -2.20263,-1.83695 -2.82433,-3.22558 -0.48074,-1.07376 -0.69084,-1.25517 -1.05376,-0.90987 -0.365,0.34728 -0.40604,0.27495 -0.21067,-0.37133 0.13344,-0.44144 0.1116,-0.77982 -0.0486,-0.75197 -0.88289,0.15354 -1.6377,-0.15952 -3.12879,-1.29769 -1.02941,-0.78577 -1.90827,-1.19905 -2.32056,-1.09123 -0.36499,0.0954 -0.59215,0.0579 -0.5048,-0.0834 0.0874,-0.14134 -0.0712,-0.7003 -0.35229,-1.24215 -0.59706,-1.15083 -0.6601,-2.18191 -0.15258,-2.49557 0.19719,-0.12188 0.25111,-0.40906 0.11983,-0.63818 -0.13129,-0.22913 -0.11211,-0.30223 0.0426,-0.16244 0.15472,0.13979 0.72062,-0.0587 1.25754,-0.44097 0.53693,-0.38232 1.15999,-0.69513 1.38459,-0.69513 0.22459,0 1.25693,-0.40145 2.29408,-0.8921 1.32613,-0.62736 1.85795,-1.07228 1.79212,-1.4993 -0.0817,-0.53012 -0.53666,-0.60257 -3.58327,-0.5706 -3.0241,0.0317 -5.63668,0.48735 -8.00425,1.39587 -0.37288,0.14308 -0.5781,-0.58158 -0.89503,-3.16044 -0.61135,-4.97466 -0.59843,-5.07507 0.48693,-3.78519 0.49398,0.58706 1.80366,1.51205 2.91042,2.05554 1.86581,0.91623 2.30757,0.98597 6.06922,0.95805 4.18557,-0.031 6.87933,-0.53192 10.58333,-1.9678 1.90469,-0.73837 3.9492,-2.20777 2.82223,-2.02835 -0.77398,0.12322 -2.46945,-0.40852 -2.46945,-0.77448 0,-0.173 -0.19844,-0.31499 -0.44097,-0.31555 -0.24254,-5.6e-4 -0.75847,-0.47635 -1.14653,-1.05732 -0.38805,-0.58097 -0.90958,-1.05676 -1.15894,-1.05732 -0.24936,-5.6e-4 -0.84345,-0.25659 -1.32019,-0.56897 -0.47675,-0.31238 -1.12175,-0.47013 -1.43333,-0.35056 -0.3381,0.12974 -0.9902,-0.1391 -1.61729,-0.66677 -0.57793,-0.48629 -1.20671,-0.88416 -1.3973,-0.88416 -0.19059,0 -0.24773,-0.15987 -0.12696,-0.35527 0.12076,-0.1954 -0.0369,-0.45369 -0.35038,-0.57398 -0.50104,-0.19226 -0.48214,-0.30051 0.15626,-0.89528 0.39942,-0.37211 0.9951,-1.08693 1.32373,-1.58848 0.57465,-0.87704 0.69263,-0.90379 3.08457,-0.69939 3.19125,0.27271 5.59283,0.99779 7.67107,2.31605 2.26086,1.4341 2.7873,2.61273 3.01533,6.75092 0.16688,3.02853 0.0995,3.62448 -0.56535,4.99781 -0.95593,1.97468 -0.94344,2.52073 0.10718,4.6879 1.48619,3.06565 3.25555,4.57218 7.04508,5.99855 1.99898,0.75242 3.00419,0.9037 6.04661,0.90999 3.55062,0.007 6.22847,-0.43067 7.12477,-1.1654 0.68691,-0.56308 0.53729,-0.80407 -0.79923,-1.28737 -0.68211,-0.24665 -1.14281,-0.60605 -1.02378,-0.79865 0.23618,-0.38215 -0.81593,-1.71684 -1.35335,-1.71684 -0.54125,0 -2.87943,-1.16937 -3.26183,-1.63131 -0.19403,-0.23438 -1.4302,-0.98072 -2.74705,-1.65854 -1.31685,-0.67781 -2.93344,-1.64363 -3.59243,-2.14627 -0.659,-0.50264 -1.49686,-0.91388 -1.86193,-0.91388 -0.41247,0 -0.88885,-0.47206 -1.25837,-1.24695 -0.53337,-1.11847 -0.53997,-1.33037 -0.0641,-2.05663 0.29179,-0.44533 0.44199,-0.89823 0.33378,-1.00644 -0.52497,-0.52497 3.50637,-1.42948 7.10115,-1.59328 5.16159,-0.23519 8.29297,0.3146 11.80565,2.07275 5.87527,2.94066 7.55149,7.10216 4.36171,10.8287 -0.84419,0.98625 -1.08258,1.46851 -0.72591,1.46851 0.2921,0 0.93771,-0.51593 1.43469,-1.14652 0.49698,-0.6306 0.90536,-0.95454 0.90752,-0.71989 0.002,0.23466 -0.5565,3.642 -1.24145,7.57188 -1.40044,8.03498 -1.92384,9.32469 -4.61963,11.38308 -6.6677,5.09116 -18.1458,3.39185 -23.08439,-3.41759 l -0.95886,-1.3221 -0.23758,4.32071 c -0.20634,3.75257 -0.37133,4.59904 -1.25473,6.43738 -3.08432,6.41841 -11.79831,10.04403 -19.59046,8.15097 z"
         id="path3599" />
      <path
         style="fill:#38a0ce;stroke-width:0.352778"
         d="m -484.62579,-165.93139 c -4.2966,-0.93477 -7.96196,-3.56919 -9.35848,-6.72626 -0.3734,-0.84414 -1.23161,-4.59845 -1.90712,-8.3429 -0.67551,-3.74445 -1.29425,-7.1256 -1.37498,-7.51365 -0.14348,-0.68969 -0.13747,-0.69021 0.267,-0.0232 1.03149,1.70114 3.19473,3.679 4.9798,4.55307 2.46883,1.20889 4.7701,1.64372 8.69896,1.64372 3.21665,0 4.84878,-0.38811 8.39321,-1.99587 1.04645,-0.47467 2.10112,-0.78687 2.34372,-0.69378 0.57195,0.21948 3.58711,-1.36274 4.85215,-2.5462 1.58236,-1.48032 3.16286,-4.20238 3.16382,-5.44898 10e-4,-1.96466 -0.0823,-2.41528 -0.41138,-2.21189 -0.17593,0.10873 -0.23886,-0.11211 -0.13984,-0.49076 0.10064,-0.38483 -0.14265,-1.14163 -0.55164,-1.716 -0.40243,-0.56515 -0.6483,-1.11094 -0.54638,-1.21285 0.3393,-0.3393 -2.87811,-2.70605 -4.88552,-3.59382 -1.08876,-0.4815 -3.05017,-1.06189 -4.3587,-1.28976 -3.17078,-0.55217 -8.90201,-0.21814 -11.5372,0.67242 -1.42973,0.48317 -2.09147,0.57201 -2.17623,0.29214 -0.1368,-0.45176 -0.88461,-6.56304 -0.88461,-7.22929 0,-0.23615 0.47198,0.1082 1.04884,0.7652 0.57686,0.65701 2.0453,1.64178 3.26319,2.18838 2.01637,0.90496 2.56134,0.99101 6.09492,0.96239 5.99209,-0.0485 12.10636,-2.03567 15.28074,-4.96624 l 1.4762,-1.36282 v 2.34066 c 0,1.64418 -0.20994,2.75246 -0.70555,3.72457 -0.91735,1.79933 -0.88633,3.1248 0.12393,5.29423 1.68222,3.61243 6.29973,6.29362 11.98439,6.95885 6.20324,0.7259 14.10801,-1.36718 16.67225,-4.4146 0.46901,-0.55739 0.85181,-0.8822 0.85065,-0.7218 -0.0106,1.46991 -2.58104,14.53575 -3.05686,15.53846 -3.03972,6.40574 -14.10593,8.33782 -21.82981,3.81132 -1.5967,-0.93572 -3.84977,-3.26377 -4.4646,-4.61318 -0.74971,-1.64545 -0.98551,-0.84222 -0.98551,3.3571 0,5.5651 -0.6363,7.36888 -3.66263,10.38292 -4.29586,4.2784 -10.43042,5.983 -16.65673,4.6284 z m 15.93769,-24.75359 c -0.1137,-0.2963 -0.11747,-0.68315 -0.008,-0.85967 0.1091,-0.17652 -0.0442,-0.32094 -0.34056,-0.32094 -0.3341,0 -0.46174,-0.20111 -0.33585,-0.52917 0.2467,-0.64289 -0.26384,-0.69273 -0.90339,-0.0882 -0.38406,0.36303 -0.39872,0.30887 -0.083,-0.3064 0.46727,-0.91049 0.19883,-1.2423 -0.80186,-0.99114 -0.41399,0.1039 -1.22386,-0.0568 -1.79971,-0.35703 -0.57585,-0.30027 -1.34425,-0.54692 -1.70756,-0.54812 -0.51252,-0.002 -0.5725,-0.10827 -0.26764,-0.4756 0.2161,-0.26039 0.28846,-0.57789 0.16079,-0.70556 -0.41932,-0.41932 -3.09307,-0.23825 -4.07936,0.27626 -0.89079,0.46469 -1.00783,0.44463 -1.4993,-0.25706 -0.60858,-0.86886 -0.70194,-1.45565 -0.18032,-1.13327 0.19403,0.11992 0.35278,-0.0125 0.35278,-0.29421 0,-0.28174 0.23812,-0.60362 0.52917,-0.71531 0.29104,-0.11168 0.52916,-0.0837 0.52916,0.0621 0,0.41182 1.6582,0.23959 2.2254,-0.23115 0.27907,-0.2316 0.76564,-0.322 1.08128,-0.20088 0.31971,0.12268 0.57388,0.045 0.57388,-0.17534 0,-0.45798 2.09874,-0.18676 2.62819,0.33964 0.18433,0.18326 0.50183,0.33078 0.70556,0.32781 0.20373,-0.003 0.13229,-0.15929 -0.15875,-0.34738 -0.42791,-0.27653 -0.37728,-0.34301 0.26458,-0.34738 0.43656,-0.003 0.79375,-0.18875 0.79375,-0.41285 0,-0.23107 0.30544,-0.13104 0.70556,0.23106 0.43783,0.39624 0.70555,0.47601 0.70555,0.21025 0,-0.23555 0.14778,-0.33694 0.3284,-0.22531 0.18063,0.11163 0.44328,0.0171 0.58368,-0.21008 0.15943,-0.25796 0.10235,-0.31853 -0.15201,-0.16132 -0.22401,0.13844 -0.40729,0.0836 -0.40729,-0.12188 0,-1.35719 2.18198,0.79036 3.01245,2.96492 0.55205,1.44554 0.54382,1.57974 -0.20367,3.31732 -0.42845,0.99595 -0.92757,1.81083 -1.10915,1.81083 -0.18159,0 -0.24233,0.14211 -0.13498,0.31581 0.10736,0.17369 -0.0289,0.4018 -0.30276,0.50689 -0.27387,0.10509 -0.59097,-0.0513 -0.70467,-0.34765 z m 30.69295,-8.54147 c -0.11353,-0.18371 -0.52983,-0.24944 -0.92511,-0.14608 -0.54103,0.14149 -1.11932,-0.2591 -2.33954,-1.62061 -0.89147,-0.99471 -1.90791,-1.80856 -2.25876,-1.80856 -0.35084,0 -0.74525,-0.1737 -0.87646,-0.386 -0.13121,-0.2123 -0.65183,-0.307 -1.15693,-0.21044 -0.5051,0.0966 -1.75444,-0.13726 -2.77631,-0.51959 -1.02186,-0.38233 -2.03143,-0.58792 -2.24347,-0.45687 -0.21204,0.13105 -0.61963,-0.0959 -0.90574,-0.50443 -0.31013,-0.44277 -1.08232,-0.83259 -1.91209,-0.96528 -1.25638,-0.2009 -1.56096,-0.47261 -1.43365,-1.27892 0.023,-0.14552 -0.11697,-0.26458 -0.311,-0.26458 -0.58538,0 -0.39819,-1.06204 0.37976,-2.15455 0.40289,-0.56581 0.90366,-0.92298 1.11284,-0.7937 0.21983,0.13586 0.27871,0.0707 0.13953,-0.15455 -0.8738,-1.41383 6.50026,-1.45023 10.71509,-0.0529 3.08642,1.02324 4.03632,1.54842 5.88827,3.25549 2.82137,2.60065 3.38462,5.02507 1.60826,6.92258 -1.04745,1.11888 -2.37229,1.67678 -2.70469,1.13896 z m -32.66128,-16.29607 c 0,-0.20548 0.15875,-0.27549 0.35278,-0.15557 0.19403,0.11992 0.35278,0.28803 0.35278,0.3736 0,0.0856 -0.15875,0.15557 -0.35278,0.15557 -0.19403,0 -0.35278,-0.16812 -0.35278,-0.3736 z"
         id="path3597" />
      <path
         style="fill:#2883af;stroke-width:0.352778"
         d="m -484.67894,-165.9188 c -4.13967,-0.94327 -7.96077,-3.69926 -9.28757,-6.69871 -0.52629,-1.18977 -3.14825,-14.07975 -3.14825,-15.47731 0,-0.18598 0.35718,0.11952 0.79375,0.67888 2.9493,3.77892 8.44227,5.80737 14.29093,5.27738 3.30768,-0.29973 8.44021,-1.65611 10.99325,-2.9052 3.80697,-1.86258 6.73276,-5.55253 6.72843,-8.4858 -0.004,-2.52218 -0.68046,-4.01379 -2.76833,-6.10166 -2.09447,-2.09447 -4.40532,-3.22978 -7.93751,-3.89964 -2.76012,-0.52345 -8.30161,-0.39608 -10.64932,0.24476 -3.45854,0.94406 -3.46789,0.94086 -3.74189,-1.27949 -0.1317,-1.06715 -0.34266,-2.72845 -0.46881,-3.69178 l -0.22936,-1.7515 0.74117,0.94225 c 0.40764,0.51823 1.80313,1.46516 3.10107,2.10427 2.25509,1.11043 2.54045,1.16204 6.42479,1.16204 4.8626,0 8.08024,-0.70389 12.22837,-2.67507 1.58993,-0.75553 3.28272,-1.85301 3.79236,-2.45868 l 0.92054,-1.094 v 2.15779 c 0,1.4616 -0.22764,2.604 -0.70555,3.54079 -0.88951,1.74358 -0.90088,3.87859 -0.0297,5.58616 1.49638,2.93315 5.84241,5.79867 10.18946,6.71834 4.21834,0.89244 11.18882,0.15857 15.20631,-1.60096 1.04847,-0.45919 1.97772,-0.76349 2.065,-0.6762 0.0873,0.0873 -0.25462,2.6161 -0.75978,5.6196 -1.07946,6.41803 -1.09199,6.6225 -0.38931,6.35286 0.65925,-0.25298 0.66477,-0.002 0.0271,1.23116 -0.72585,1.40364 -3.54237,3.88905 -5.27636,4.65607 -4.5937,2.03202 -11.61257,1.49588 -16.28812,-1.24418 -1.5967,-0.93572 -3.84976,-3.26377 -4.46459,-4.61318 -0.74228,-1.62911 -0.98552,-0.85658 -0.98552,3.12991 0,4.9023 -0.5258,6.81568 -2.59315,9.43638 -3.85091,4.88165 -11.25179,7.3021 -17.77936,5.81472 z"
         id="path3595" />
      <path
         style="fill:#1575a7;stroke-width:0.352778"
         d="m -482.82726,-165.63783 c -5.3198,-0.78353 -9.44132,-3.49401 -11.135,-7.32284 -0.3567,-0.80639 -1.14034,-4.23895 -1.74142,-7.62791 -0.60108,-3.38895 -1.17134,-6.42749 -1.26725,-6.75231 -0.0959,-0.32482 0.89165,0.45467 2.19456,1.73218 l 2.36894,2.32276 0.79217,4.13828 c 0.91607,4.78553 2.29478,7.73816 3.49633,7.48774 0.38806,-0.0809 1.34056,-0.19372 2.11667,-0.25076 0.77611,-0.0571 1.54752,-0.12524 1.71425,-0.15154 0.16672,-0.0263 0.18764,-1.75437 0.0465,-3.84017 -0.14116,-2.08579 -0.27758,-4.18081 -0.30314,-4.6556 -0.0445,-0.82746 0.0852,-0.88008 3.12853,-1.26928 4.08879,-0.52291 8.32943,-1.70384 10.67425,-2.97258 l 1.85481,-1.0036 0.51173,0.73059 c 0.28145,0.40183 0.41445,0.888 0.29554,1.08039 -0.1189,0.19238 -0.0439,0.24331 0.1667,0.11316 0.21059,-0.13015 0.31139,-0.63093 0.224,-1.11284 -0.0888,-0.48972 0.009,-0.87621 0.22161,-0.87621 0.20927,0 0.29464,-0.13892 0.18971,-0.3087 -0.10494,-0.16979 0.26584,-0.93907 0.82394,-1.70951 1.76136,-2.43149 2.21799,-3.61922 2.21799,-5.76924 0,-6.05952 -6.16014,-10.21364 -15.32585,-10.33504 -5.21683,-0.0691 -4.36877,-0.98621 1.32057,-1.42808 6.23005,-0.48387 10.64881,-1.93158 13.67014,-4.47872 l 1.67569,-1.41271 v 1.77637 c 0,1.15432 -0.24661,2.18083 -0.70424,2.93141 -0.87387,1.43329 -0.94255,4.42634 -0.13821,6.02327 0.83663,1.66102 2.52114,3.31205 4.78818,4.69301 1.305,0.79494 2.04722,1.49481 2.12504,2.0038 0.0658,0.43021 0.295,0.74893 0.50938,0.70827 0.36459,-0.0692 1.02969,2.47122 0.85062,3.24893 -0.0447,0.19403 0.0368,0.23472 0.18111,0.0904 0.14428,-0.14429 0.49148,0.0648 0.77155,0.46467 0.30307,0.43268 0.72883,0.64273 1.05168,0.51884 0.44987,-0.17263 0.46635,-0.11645 0.0966,0.32908 -0.37663,0.45382 -0.32374,0.53725 0.34062,0.53725 0.55418,0 0.72652,0.15631 0.58344,0.52916 -0.12369,0.32234 -7.1e-4,0.52917 0.31503,0.52917 0.28496,0 0.5181,0.31252 0.5181,0.69448 0,0.45561 0.17263,0.62824 0.50189,0.50189 0.4561,-0.17502 1.05981,-2.85177 1.34249,-5.95238 0.11251,-1.23405 0.44394,-1.36355 4.93823,-1.92961 1.69315,-0.21325 4.12943,-0.71234 5.41396,-1.10909 1.28453,-0.39675 2.3923,-0.66457 2.46172,-0.59515 0.0694,0.0694 -0.41934,3.37177 -1.08611,7.33856 -1.35565,8.065 -1.19181,7.73819 -4.722,9.41879 -1.48584,0.70736 -2.63845,0.94719 -5.19475,1.0809 -6.95254,0.36366 -12.08338,-1.80014 -15.01411,-6.33182 l -1.16493,-1.80128 -0.19324,4.72221 c -0.24093,5.88755 -0.83133,7.43524 -3.99537,10.47351 -2.32469,2.23228 -4.69736,3.6092 -7.27667,4.22282 -1.96639,0.46781 -5.81744,0.76337 -7.23194,0.55504 z m 15.15438,-8.21172 c 0.11163,-0.18062 0.0416,-0.42811 -0.15557,-0.54998 -0.1972,-0.12188 -0.35854,0.0259 -0.35854,0.3284 0,0.61966 0.21169,0.7109 0.51411,0.22158 z m -0.11826,-2.02639 c -0.41587,-0.71515 -0.5163,-0.48625 -0.17588,0.40088 0.12099,0.31528 0.29429,0.49892 0.38512,0.40809 0.0908,-0.0908 -0.003,-0.45487 -0.20924,-0.80897 z m 0.0555,-2.24531 c -0.10349,-0.39575 -0.26699,-0.64072 -0.36333,-0.54438 -0.19085,0.19085 0.14626,1.26393 0.39706,1.26393 0.0849,0 0.0698,-0.3238 -0.0337,-0.71955 z m 0.0247,-1.91499 c 0.1093,-0.28482 0.0799,-0.59133 -0.0654,-0.68111 -0.14528,-0.0898 -0.28723,0.14325 -0.31545,0.51787 -0.061,0.81017 0.10526,0.88145 0.38086,0.16324 z m 0.19934,-3.00991 c -0.0128,-0.34891 -0.12267,-0.28883 -0.32258,0.17639 -0.41674,0.96982 -0.41674,1.52681 0,0.88195 0.18809,-0.29104 0.33325,-0.76729 0.32258,-1.05834 z m -21.35186,-21.62591 c 0.0857,-1.20262 0.1692,-2.40446 0.18559,-2.67075 0.0452,-0.73354 1.08814,0.22869 1.08814,1.00388 0,0.33535 0.16823,1.09232 0.37385,1.68216 0.30017,0.86107 0.52614,1.035 1.14653,0.8825 1.30514,-0.32083 0.51523,0.13301 -1.265,0.7268 l -1.68489,0.56199 z"
         id="path3593" />
      <path
         style="fill:#136997;stroke-width:0.352778"
         d="m -482.82726,-165.63783 c -2.05875,-0.30323 -4.94891,-1.26004 -6.43275,-2.12962 -1.98664,-1.16426 -4.26647,-3.79522 -4.48551,-5.17638 -0.46847,-2.95392 -0.99453,-9.15749 -0.72204,-8.51482 0.0823,0.19403 0.47142,1.95847 0.8648,3.92099 0.67012,3.34319 1.7334,6.60892 1.76717,5.42762 0.008,-0.29104 0.32446,-0.0218 0.70253,0.5982 0.90042,1.47674 1.85907,2.07118 4.41116,2.73525 3.72422,0.96907 3.442,1.46155 3.32492,-5.802 -0.06,-3.72007 0.0368,-6.47022 0.23369,-6.64159 0.18481,-0.16086 1.76478,-0.48802 3.51103,-0.72702 1.74625,-0.239 4.1831,-0.68671 5.41523,-0.99491 2.5831,-0.64612 2.86056,-0.47712 2.86964,1.74805 0.003,0.7276 0.17352,1.32291 0.379,1.32291 0.20548,0 0.26988,0.16782 0.14311,0.37294 -0.37354,0.6044 -0.44685,2.09651 -0.103,2.09651 0.18171,0 0.18768,0.26312 0.014,0.61736 -0.16646,0.33955 -0.26307,2.46099 -0.21468,4.71432 l 0.088,4.09695 -1.64982,0.74276 c -2.80837,1.26434 -7.41785,1.98994 -10.11648,1.59248 z m 17.677,-16.25878 c 0.0571,-4.93508 0.24372,-7.12013 0.83159,-9.73653 0.47209,-2.1011 0.074,-4.22025 -1.1836,-6.30105 -2.08479,-3.44941 -6.09558,-5.3867 -12.47138,-6.02391 -2.18442,-0.21832 -3.97167,-0.5073 -3.97167,-0.64217 0,-0.13487 1.38906,-0.42626 3.08681,-0.64754 7.38422,-0.96241 11.11137,-2.06235 13.86017,-4.09035 0.64997,-0.47953 1.30967,-0.87187 1.466,-0.87187 0.51135,0 0.29806,2.83056 -0.30037,3.98626 -0.35677,0.68901 -0.57735,1.92585 -0.56598,3.17361 0.0213,2.33953 1.00566,4.10769 3.21929,5.78288 1.9346,1.46403 2.12765,1.62637 3.063,2.57571 0.47588,0.483 0.96234,1.39581 1.08103,2.02847 0.11868,0.63266 0.34715,1.15029 0.5077,1.15029 0.25381,0 0.85543,2.82763 0.71448,3.35811 -0.0285,0.10717 0.17789,0.42453 0.45859,0.70522 0.29122,0.29122 0.42543,0.83515 0.31257,1.26674 -0.12857,0.49162 0.006,0.87038 0.38418,1.08207 0.32008,0.17913 0.58198,0.64468 0.58198,1.03454 0,0.38987 0.15875,0.61073 0.35277,0.49082 0.20051,-0.12392 0.35278,0.17641 0.35278,0.69581 0,0.50261 0.23722,1.00486 0.52714,1.11611 0.28993,0.11126 0.44609,0.33343 0.34702,0.49372 -0.19277,0.31191 0.43032,0.80658 1.15431,0.91642 0.24254,0.0368 0.46082,-0.15718 0.48507,-0.43105 0.0242,-0.27388 0.0717,-0.61702 0.10546,-0.76254 0.0338,-0.14552 0.17863,-0.99361 0.32195,-1.88465 0.14333,-0.89103 0.35259,-2.08166 0.46502,-2.64583 0.11244,-0.56417 0.24946,-1.42265 0.30451,-1.90771 0.055,-0.48507 0.13568,-0.92164 0.17918,-0.97014 0.0435,-0.0485 0.11878,-0.24695 0.16728,-0.44098 0.0485,-0.19402 0.12772,-0.39246 0.17602,-0.44097 0.0483,-0.0485 0.12675,-0.68919 0.17433,-1.42375 0.0476,-0.73455 0.17942,-1.42847 0.29299,-1.54204 0.32629,-0.32628 5.97103,-0.81793 6.85208,-0.5968 0.95801,0.24044 0.96002,1.8e-4 -0.0586,7.00218 -0.45162,3.10444 -0.79944,6.14652 -0.77292,6.76016 0.0265,0.61365 -0.0729,1.04085 -0.22103,0.94932 -0.14809,-0.0915 -0.26925,-0.0256 -0.26925,0.1466 0,0.51361 -3.39685,1.13975 -6.18316,1.13975 -6.21883,0 -10.92774,-2.21184 -13.64219,-6.40793 l -1.16493,-1.80078 -0.17639,4.16413 c -0.25435,6.00461 -0.91444,5.65234 -0.84383,-0.45033 z"
         id="path3591" />
      <path
         style="fill:#094a71;stroke-width:0.352778"
         d="m -460.79628,-181.50928 c -3.16478,-2.96027 -3.33376,-3.43157 -3.33376,-9.29798 0,-4.94459 -0.0324,-5.17032 -0.96979,-6.765 -1.97399,-3.35797 -5.45002,-5.34962 -10.93071,-6.26291 -4.02038,-0.66995 -3.93968,-0.78119 1.15061,-1.58606 3.08145,-0.48724 5.39816,-1.10954 7.22211,-1.93997 3.28645,-1.49628 4.04814,-1.06194 3.37925,1.92697 -0.23744,1.06096 -0.39239,2.84137 -0.34436,3.95647 0.0831,1.92895 0.17873,2.12094 1.9685,3.95198 2.12204,2.17096 3.84267,5.33431 4.32596,7.95325 0.17903,0.97013 0.28629,3.07877 0.23836,4.68586 -0.0618,2.07138 0.0477,3.03388 0.37604,3.30639 0.6287,0.52178 0.58349,1.23471 -0.0948,1.495 -0.95855,0.36784 -1.18942,0.25779 -2.98738,-1.424 z"
         id="path3589" />
      <path
         style="fill:#033758;stroke-width:0.352778"
         d="m -462.61892,-183.66351 c -1.12611,-1.29099 -1.30176,-2.22162 -1.35457,-7.17668 -0.0495,-4.64628 -6.2e-4,-5.08234 0.56987,-5.08234 1.52159,0 3.04627,4.96586 2.74359,8.93584 -0.0987,1.29417 -0.19219,2.55148 -0.20781,2.79402 -0.0156,0.24253 -0.17007,0.44097 -0.34321,0.44097 -0.17314,0 -0.21669,0.15875 -0.0968,0.35278 0.37678,0.60964 -0.74621,0.38302 -1.3111,-0.26459 z m -3.62779,-15.61842 c -1.3202,-1.3981 -3.4971,-2.89301 -5.11528,-3.51275 -1.72449,-0.66046 -1.88939,-0.88304 -0.6864,-0.92653 0.57155,-0.0207 1.03918,0.0587 1.03918,0.17639 0,0.11767 0.37667,0.21395 0.83703,0.21395 0.5287,0 0.77413,-0.16391 0.66628,-0.44497 -0.11119,-0.28975 0.0267,-0.36919 0.39542,-0.22771 0.38376,0.14726 0.67336,-0.0504 0.89886,-0.61336 0.28453,-0.71038 0.33593,-0.73149 0.35505,-0.14584 0.0212,0.64866 0.0466,0.6517 0.48097,0.0576 0.42732,-0.5844 0.48696,-0.56493 0.87438,0.28535 0.22867,0.50189 0.67582,0.91253 0.99365,0.91253 0.39946,0 0.52228,0.21262 0.39779,0.68864 -0.099,0.37876 -0.0779,0.73594 0.0471,0.79375 0.12492,0.0578 0.14776,0.9508 0.0507,1.98441 l -0.17638,1.8793 z"
         id="path3587" />
    </g>
  </g>
</svg>
