<?xml version="1.0" encoding="UTF-8" standalone="no"?>
<!-- Created with Inkscape (http://www.inkscape.org/) -->

<svg
   width="73.377777mm"
   height="73.377777mm"
   viewBox="0 0 73.377777 73.377777"
   version="1.1"
   id="svg5"
   sodipodi:docname="seeds.svg"
   inkscape:version="1.1.1 (3bf5ae0d25, 2021-09-20)"
   xmlns:inkscape="http://www.inkscape.org/namespaces/inkscape"
   xmlns:sodipodi="http://sodipodi.sourceforge.net/DTD/sodipodi-0.dtd"
   xmlns="http://www.w3.org/2000/svg"
   xmlns:svg="http://www.w3.org/2000/svg">
  <sodipodi:namedview
     id="namedview7"
     pagecolor="#ffffff"
     bordercolor="#666666"
     borderopacity="1.0"
     inkscape:pageshadow="2"
     inkscape:pageopacity="0.0"
     inkscape:pagecheckerboard="0"
     inkscape:document-units="mm"
     showgrid="false"
     inkscape:zoom="2.8882212"
     inkscape:cx="124.99043"
     inkscape:cy="141.0903"
     inkscape:window-width="1920"
     inkscape:window-height="1009"
     inkscape:window-x="-8"
     inkscape:window-y="-8"
     inkscape:window-maximized="1"
     inkscape:current-layer="layer1" />
  <defs
     id="defs2" />
  <g
     inkscape:label="Layer 1"
     inkscape:groupmode="layer"
     id="layer1"
     transform="translate(246.75221,41.643047)">
    <g
       id="g1534">
      <path
         style="fill:#fefefe;stroke-width:0.352778"
         d="M -246.75221,-4.9541585 V -41.643047 h 36.68889 36.68889 V -4.9541585 31.73473 h -36.68889 -36.68889 z"
         id="path1566" />
      <path
         style="fill:#e9e4d7;stroke-width:0.352778"
         d="m -223.20109,23.143208 c -2.10945,-0.791788 -3.11081,-1.602655 -3.68949,-2.987622 -0.7852,-1.879247 -0.45197,-5.645633 0.75461,-8.529189 0.52773,-1.261181 1.04663,-2.5004537 1.15313,-2.7539386 0.10649,-0.253485 -0.81899,0.2430145 -2.05663,1.1033371 -4.79192,3.3310235 -8.38347,4.5333565 -11.25959,3.7693455 -2.38486,-0.633511 -4.87242,-3.361361 -6.11001,-6.7001985 -1.43992,-3.8846689 -2.10077,-8.8536109 -1.60566,-12.0728316 0.61527,-4.000514 2.00313,-8.0128149 3.17804,-9.1877319 0.56285,-0.562851 1.02337,-1.136655 1.02337,-1.275118 0,-0.409189 3.59981,-3.545865 4.93889,-4.303469 4.62706,-2.617842 5.46456,-2.872404 9.62345,-2.925085 3.58948,-0.04547 4.12812,0.03377 5.77818,0.850022 l 1.8197,0.900166 0.88642,-1.110914 c 1.67488,-2.099071 9.22514,-5.390803 15.25969,-6.652864 8.54843,-1.787812 14.82021,-1.964895 18.70163,-0.528036 7.36797,2.727543 12.05906,9.740232 9.6606,14.441603 -0.91705,1.797574 -3.79131,4.715504 -6.05661,6.1486419 l -1.57583,0.9969412 1.3901,2.0816852 c 2.02012,3.0251505 2.721,5.1296181 2.721,8.1700475 0,5.7501154 -3.62152,9.6244192 -13.58194,14.5299782 -7.59927,3.742672 -16.76963,6.09056 -24.87084,6.367678 -3.55882,0.12174 -5.09604,0.03771 -6.08221,-0.332448 z m 13.41982,-31.5419674 1.164,-0.6964584 -1.51678,-0.8986584 -1.51677,-0.8986588 -0.21154,1.2934941 c -0.11635,0.7114215 -0.33718,1.7697435 -0.49073,2.3518269 l -0.27918,1.0583333 0.8435,-0.7567101 c 0.46393,-0.4161906 1.3673,-1.0701165 2.0075,-1.4531686 z m -33.32185,-4.4047046 c 0.30153,-0.727604 0.46887,-1.322917 0.37185,-1.322917 -0.18668,0 -1.19872,2.273861 -1.19872,2.693299 0,0.42775 0.26084,-0.0045 0.82687,-1.370382 z m 43.17481,0.933391 c -0.11723,-0.117225 -0.4215,-0.129758 -0.67616,-0.02785 -0.28142,0.112616 -0.19783,0.196209 0.21314,0.213137 0.37188,0.01532 0.58025,-0.06806 0.46302,-0.185287 z m 5.13327,-0.397427 c -0.81876,-0.07399 -2.24751,-0.07486 -3.175,-0.0019 -0.92748,0.07291 -0.25759,0.133445 1.48866,0.13452 1.74625,0.0011 2.50511,-0.05858 1.68634,-0.132565 z m -43.13244,-5.913301 c 0.84578,-1.018618 0.84755,-1.031183 0.0502,-0.356725 -0.45453,0.384496 -0.9899,1.018361 -1.18971,1.408587 -0.38364,0.74927 -0.26543,0.640144 1.13948,-1.051862 z m 50.34639,-11.328161 c -0.11722,-0.117224 -0.4215,-0.129758 -0.67616,-0.02785 -0.28142,0.112615 -0.19783,0.196209 0.21314,0.213136 0.37189,0.01532 0.58025,-0.06806 0.46302,-0.185286 z m -2.63848,-0.373279 c -0.24254,-0.09786 -0.63941,-0.09786 -0.88195,0 -0.24253,0.09786 -0.0441,0.177936 0.44098,0.177936 0.48507,0 0.6835,-0.08007 0.44097,-0.177936 z"
         id="path1564" />
      <path
         style="fill:#d9d4c9;stroke-width:0.352778"
         d="m -222.93971,23.129665 c -2.32719,-0.732208 -3.02567,-1.25713 -3.72641,-2.80048 -1.15941,-2.553558 -0.72311,-6.077155 1.262,-10.192096 0.44727,-0.9271317 0.75577,-1.6856921 0.68557,-1.6856921 -0.0702,0 -1.14603,0.7119091 -2.39074,1.5820211 -4.40521,3.079468 -8.4847,4.434406 -11.17231,3.710707 -4.20818,-1.133143 -7.31532,-7.2063993 -7.58092,-14.817728 -0.0711,-2.0372916 -0.0617,-3.1485416 0.021,-2.4694444 0.52861,4.34457117 0.54689,4.41520081 0.95515,3.69003787 0.61881,-1.0991356 0.94098,-4.33453817 0.5448,-5.47102937 -0.29545,-0.8475204 -0.13539,-1.6921459 0.92196,-4.8653261 1.35949,-4.079952 2.57007,-6.275927 4.40682,-7.99396 l 1.13147,-1.058333 -1.27435,2.116666 c -1.57886,2.622466 -2.19311,4.654867 -1.99761,6.609613 l 0.15046,1.5042761 0.77013,-2.4694441 c 1.61835,-5.189294 3.9671,-8.726515 6.66016,-10.030202 1.89972,-0.919637 2.7076,-0.941817 1.56489,-0.04296 -0.48004,0.377607 -1.32589,1.687295 -1.87964,2.910417 -0.82984,1.832923 -1.02239,2.781995 -1.09531,5.398858 -0.0487,1.74625 -0.25611,3.7295767 -0.46099,4.4073929 -0.20487,0.6778163 -0.36745,1.5509413 -0.36128,1.9402778 0.0109,0.686979 0.026,0.6883478 0.51212,0.04641 0.2755,-0.3638112 0.89201,-1.7925612 1.37004,-3.1749997 1.75728,-5.08205 3.68388,-9.780223 4.50026,-10.974257 0.46107,-0.674362 1.28022,-1.409614 1.82035,-1.633892 1.36458,-0.566624 4.26542,-0.15859 6.40684,0.90119 1.5062,0.745411 1.81391,0.798399 2.06201,0.355082 1.38658,-2.477693 8.29266,-5.570173 16.24976,-7.2765 5.24835,-1.125461 13.97306,-1.13241 16.95249,-0.0135 1.14603,0.430386 2.17791,0.776165 2.29305,0.768397 0.47854,-0.03229 -2.02593,-1.195414 -3.49481,-1.623062 l -1.5875,-0.462185 1.5875,0.188321 c 2.43248,0.288559 6.45209,2.402661 8.65207,4.55052 2.1344,2.083843 4.0472,5.631304 4.04765,7.506736 7.1e-4,2.682518 -2.77847,6.395312 -6.67885,8.9226749 l -1.75443,1.1368292 0.99432,1.4506155 c 2.54554,3.7136635 3.02608,5.0921144 3.02685,8.6825631 7.1e-4,2.8283288 -0.1268,3.5906322 -0.81636,4.8842824 -2.84395,5.3354249 -13.4619,11.3211789 -25.46291,14.3544289 -7.09413,1.793039 -14.72656,2.408583 -17.81528,1.436779 z m 9.4069,-21.9984069 c 2.16558,-1.7944994 3.24035,-2.7249578 5.29348,-4.5827491 3.17789,-2.8755234 8.89252,-7.00489 10.59257,-7.654148 0.84596,-0.323075 2.32737,-0.728638 3.29203,-0.90125 1.41795,-0.253726 0.97681,-0.299073 -2.30304,-0.23674 -4.78327,0.09091 -6.56751,0.738703 -10.07196,3.6567957 -2.71994,2.2648566 -8.97804,9.52384138 -8.97804,10.4139491 0,0.5728688 1.04882,0.2373101 2.17496,-0.6958577 z m 0.93097,-6.8744464 c 0.0686,-0.1429244 0.39002,-0.5472818 0.71426,-0.8985712 0.32424,-0.3512891 0.43079,-0.4064459 0.23676,-0.1225706 -0.19403,0.2838754 0.22929,0.1357122 0.94072,-0.3292513 0.71142,-0.4649633 1.2019,-1.007243 1.08996,-1.205066 -0.11194,-0.1978226 -0.0743,-0.2427195 0.0836,-0.09977 0.15788,0.1429491 0.85802,-0.080894 1.55586,-0.4974294 1.73257,-1.0341617 2.23918,-1.5642912 0.80099,-0.8381767 -1.13948,0.5752963 -1.22355,0.5661717 -2.91042,-0.3158695 l -1.73705,-0.908278 v 1.0730595 c 0,0.5901824 -0.22462,1.6106373 -0.49914,2.2676774 -0.27453,0.6570401 -0.42569,1.2680749 -0.33591,1.3578533 0.0898,0.089778 -0.51215,0.7413307 -1.3376,1.4478917 -0.82546,0.7065645 -1.97057,1.8763685 -2.54468,2.5995665 -0.66854,0.8421441 -0.16983,0.4904564 1.38706,-0.9781469 1.337,-1.2611806 2.48704,-2.4099943 2.55564,-2.5529187 z m 21.23574,-15.7915257 c 0,-0.194028 0.3175,-0.352778 0.70556,-0.352778 1.19859,0 0.77825,-0.61209 -0.61737,-0.898987 -1.85535,-0.381407 -11.3505,-0.466721 -13.53371,-0.121601 -1.82714,0.288832 -2.35059,0.511514 -2.00791,0.854193 0.63859,0.638598 15.45343,1.136317 15.45343,0.519173 z m 5.27218,-4.726056 c 1.33765,-0.483276 1.21028,-0.652809 -1.10754,-1.47409 -2.52041,-0.893063 -6.22729,-1.207354 -9.84187,-0.83445 -3.63064,0.374561 -4.55332,0.58177 -4.55332,1.022551 0,0.429339 2.05099,0.707194 7.68918,1.041682 2.77384,0.164559 5.14186,0.397711 5.26227,0.518114 0.31752,0.317522 1.16684,0.226372 2.55128,-0.273807 z"
         id="path1562" />
      <path
         style="fill:#d3c8b3;stroke-width:0.352778"
         d="m -223.46153,22.956582 c -2.18045,-0.781932 -2.9857,-1.596143 -3.59723,-3.637245 -0.56439,-1.883756 0.0527,-5.498451 1.47355,-8.632154 0.5819,-1.2833567 1.058,-2.390465 1.058,-2.4602409 0,-0.069776 -0.96443,0.5831063 -2.14317,1.4508479 -2.74861,2.023413 -6.01995,3.619292 -8.28448,4.041479 -2.31789,0.432135 -5.4212,-0.220645 -4.91818,-1.034539 0.10334,-0.167213 0.002,-0.418899 -0.22515,-0.559297 -0.25796,-0.159428 -0.31853,-0.102355 -0.16132,0.152012 0.55604,0.899696 -0.43074,0.327325 -1.5728,-0.912284 -1.02873,-1.116587 -1.05631,-1.184419 -0.17933,-0.440972 l 1.0364,0.878597 -0.7487,-0.988325 c -0.41179,-0.543577 -0.85967,-0.9706502 -0.9953,-0.9490532 -0.3163,0.050366 -1.40166,-2.3721024 -2.06777,-4.6151411 -0.47861,-1.6116406 -0.46644,-1.8549232 0.16203,-3.2394384 0.52099,-1.14774481 0.68309,-2.31984896 0.69488,-5.024709 0.0273,-6.2709834 1.91659,-12.3390613 4.61304,-14.8166663 l 1.15181,-1.058334 -0.79133,1.148792 c -2.27595,3.304014 -4.068,11.9405515 -2.87052,13.8340474 0.49698,0.7858372 0.6899,0.3648322 1.22463,-2.6724748 0.67873,-3.8552256 2.79257,-10.2221996 4.05431,-12.2117536 0.73358,-1.156728 1.58496,-1.927658 2.82,-2.553496 0.97304,-0.493077 1.87229,-0.896503 1.99833,-0.896503 0.12604,0 -0.33546,0.624967 -1.02555,1.388815 -0.80755,0.893865 -1.52146,2.245397 -2.00321,3.792361 -0.74954,2.406887 -1.76306,9.2492217 -1.76306,11.9025388 0,1.2212497 0.0667,1.3421607 0.49416,0.8953536 0.27178,-0.2841132 1.0728,-2.104069 1.78003,-4.0443468 4.21128,-11.5535726 5.20009,-13.5699496 7.03098,-14.3374916 1.24197,-0.520656 4.69334,0.07989 6.49561,1.130244 l 1.16051,0.67634 1.04097,-1.185598 c 3.03737,-3.459379 14.14311,-7.018342 23.45856,-7.51757 4.45515,-0.238757 7.2055,0.156832 10.56292,1.519289 2.40221,0.974831 2.1692,0.501119 -0.38975,-0.792356 -2.40088,-1.213573 -0.43981,-0.666497 2.28124,0.636396 4.04137,1.935082 7.56614,6.3585 8.072,10.129964 0.34296,2.556962 -2.37895,6.384071 -6.48496,9.1180957 l -1.82411,1.2146022 1.37154,2.122043 c 2.99,4.62610545 3.59149,8.9667714 1.76553,12.7408268 -3.65318,7.5506793 -22.35146,15.7076913 -37.41246,16.3209573 -3.79058,0.154347 -4.68111,0.08224 -6.34265,-0.513613 z m 9.68218,-20.6514417 c 0.93133,-0.7109002 2.18812,-1.54639789 2.79287,-1.85666241 0.60475,-0.31026453 2.5283,-1.83525939 4.27455,-3.38888559 6.95851,-6.1909265 11.0249,-8.7070083 14.08171,-8.7130823 2.34567,-0.0047 1.92104,-0.265604 -1.1383,-0.699495 -3.30827,-0.469198 -7.02554,0.04378 -9.57072,1.320758 -3.31181,1.661609 -10.74691,9.2883145 -13.33006,13.6735645 l -1.13792,1.9317793 1.16727,-0.4877153 c 0.642,-0.2682416 1.92926,-1.0693611 2.8606,-1.7802612 z m 3.04199,-8.9228302 c 1.66657,-1.3246646 3.41282,-2.6864796 3.88056,-3.0262558 0.8328,-0.6049723 0.82673,-0.6064883 -0.29306,-0.073175 -1.08306,0.5158232 -1.23685,0.4972883 -2.91042,-0.3507733 l -1.76693,-0.895372 v 0.875558 c 0,2.0900541 -1.08463,4.0673738 -3.63578,6.6281912 -1.40395,1.4092661 -3.31444,3.59417759 -4.24553,4.8553581 -1.52915,2.0712536 -1.32369,1.9110748 2.12407,-1.65599881 2.09933,-2.17197869 5.18052,-5.03286879 6.84709,-6.35753239 z m 20.90995,-14.3878571 c 0.11168,-0.291042 0.60491,-0.529167 1.09607,-0.529167 1.37086,0 1.06024,-0.633332 -0.51919,-1.05863 -2.78471,-0.749845 -9.06701,-1.069522 -14.38042,-0.731753 -2.85871,0.181725 -5.47546,0.437763 -5.81501,0.568973 -0.64315,0.248528 -0.83249,1.046813 -0.32298,1.361707 0.16191,0.100065 3.85285,0.283495 8.20208,0.407622 4.34924,0.124127 7.97385,0.28975 8.0547,0.36805 0.0808,0.0783 0.89729,0.142364 1.81434,0.142364 1.15665,0 1.72954,-0.162079 1.87041,-0.529166 z m -16.19576,-5.163995 c 2.7683,-0.542792 3.90187,-0.643282 3.99815,-0.354433 0.0922,0.276595 1.70323,0.405377 5.13207,0.410243 2.74873,0.0039 6.02956,0.157794 7.29074,0.341983 1.26118,0.184189 3.1527,0.235434 4.20339,0.113878 l 1.91033,-0.22101 -0.79869,-0.646738 c -1.10549,-0.895173 -4.93559,-2.02494 -7.73803,-2.28249 -2.85289,-0.262187 -7.09491,0.232422 -12.63337,1.473022 -4.02712,0.902063 -6.84955,1.829892 -5.75752,1.892696 0.29104,0.01674 2.26786,-0.31048 4.39293,-0.727151 z m -39.615,27.5653834 c 0,-0.48506941 0.0801,-0.6835069 0.17793,-0.44097218 0.0979,0.24253468 0.0979,0.63940968 0,0.88194448 -0.0979,0.2425347 -0.17793,0.044097 -0.17793,-0.4409723 z m -0.32664,-3.5277777 c 0,-0.6790972 0.0726,-0.9569097 0.16133,-0.6173611 0.0887,0.3395486 0.0887,0.8951736 0,1.2347222 -0.0887,0.3395486 -0.16133,0.061736 -0.16133,-0.6173611 z"
         id="path1560" />
      <path
         style="fill:#c4baa5;stroke-width:0.352778"
         d="m -222.9471,23.154804 c -2.18819,-0.725247 -3.23333,-1.565504 -3.84325,-3.089853 -0.70197,-1.754392 -0.70515,-3.141515 -0.0133,-5.806797 0.64555,-2.486903 2.19393,-6.0068526 2.50534,-5.6954381 0.12032,0.1203184 0.72217,-0.6172341 1.33744,-1.639002 1.87801,-3.1187389 6.49738,-8.2480396 10.95534,-12.1647019 2.32939,-2.0465475 4.75119,-4.0255408 5.38178,-4.3977623 1.60737,-0.9487867 1.43111,-1.1193757 -0.26338,-0.2549126 l -1.4099,0.7192796 -1.7651,-0.8944417 -1.76509,-0.894441 v 0.875558 c 0,2.0375255 -1.10431,4.155018 -3.15899,6.0572875 -2.39982,2.221805 -5.88925,6.5654978 -7.72144,9.6117409 -2.79451,4.6462386 -11.1983,9.1097236 -15.37716,8.1672356 -1.22674,-0.276676 -2.54777,-1.063826 -1.78535,-1.063826 0.17622,0 -0.37395,-0.707492 -1.2226,-1.572203 -0.84865,-0.864712 -1.67939,-1.4879112 -1.84608,-1.3848895 -0.1667,0.1030217 -0.26221,0.056451 -0.21226,-0.1034908 0.05,-0.1599424 -0.20698,-1.2289332 -0.57096,-2.3755315 -0.54143,-1.7056382 -0.58843,-2.2875346 -0.25847,-3.2000472 0.23268,-0.6434596 0.40331,-3.27774648 0.40331,-6.2265806 0,-4.0409918 0.1569,-5.734747 0.74931,-8.0888414 0.82495,-3.278141 2.29436,-6.490609 3.44362,-7.528522 0.61048,-0.551327 0.55579,-0.332044 -0.30794,1.234722 -1.47548,2.676478 -2.0419,4.548298 -2.61467,8.6406187 -0.5316,3.7981642 -0.3464,5.8949695 0.53567,6.0648426 0.64947,0.1250738 1.1898,-1.4771335 1.70164,-5.0457601 1.09328,-7.6224202 3.45141,-12.9271232 6.44082,-14.4888672 1.40297,-0.732945 1.47392,-0.625594 0.46271,0.700164 -1.25979,1.651669 -2.20201,4.509685 -3.20051,9.708045 -0.86758,4.5167618 -0.87554,8.322413 -0.0168,8.041796 0.21499,-0.070263 0.98867,-1.7825438 1.71929,-3.8050728 3.83502,-10.6163862 6.41869,-15.5563152 8.373,-16.0090142 1.19865,-0.277657 4.65291,0.669076 6.59603,1.807818 1.48624,0.870994 1.56162,0.882975 1.12152,0.178264 -0.40624,-0.650497 -0.38697,-0.840326 0.13865,-1.365953 0.33576,-0.335755 0.61047,-0.430467 0.61047,-0.210471 0,0.272243 0.45189,0.222485 1.4149,-0.155797 0.7782,-0.305684 1.35584,-0.614855 1.28365,-0.687046 -0.0722,-0.07219 -0.55015,0.02801 -1.06213,0.22266 -1.49591,0.568746 -1.07045,0.04746 0.56844,-0.696454 1.60601,-0.728994 3.37205,-0.983584 2.38125,-0.343277 -0.97194,0.628116 1.17727,0.396875 6.24947,-0.672403 6.33792,-1.336105 10.26384,-1.611911 14.91719,-1.047972 5.28626,0.64064 8.86513,0.630642 8.73898,-0.02442 -0.15641,-0.812227 -2.06205,-1.734258 -5.25262,-2.541457 -2.47099,-0.62515 -3.5952,-0.715505 -6.83774,-0.549568 -4.2311,0.216526 -10.90626,1.505526 -14.9909,2.894803 -3.10025,1.054463 -3.73788,0.922559 -0.82025,-0.169682 5.97323,-2.236134 15.50983,-3.843403 20.21168,-3.406412 2.38309,0.221484 5.28752,1.007983 7.85849,2.128025 1.8981,0.826902 1.63,0.404462 -0.52916,-0.833807 -2.42875,-1.39287 -1.83532,-1.365247 1.03583,0.04822 4.0864,2.011727 7.62322,6.406902 8.11678,10.086637 0.13732,1.023815 -0.0391,1.809309 -0.69839,3.108853 -0.94166,1.85625 -4.1502,5.1218381 -6.35452,6.467511 -1.27257,0.7768672 -1.31268,0.8558615 -0.79851,1.5724519 1.09036,1.5195945 2.95322,5.0239655 3.37181,6.34295571 0.62308,1.96335649 0.29225,5.71692259 -0.68177,7.73528059 -3.63479,7.5319658 -22.48914,15.7570748 -37.41693,16.3229338 -3.12733,0.118544 -4.82223,0.03045 -5.82822,-0.30299 z m 3.3706,-14.0188736 c 1.58997,-2.1400593 5.50718,-5.9186867 6.56109,-6.3289779 0.2492,-0.097014 2.69857,-2.16076384 5.44305,-4.586111 8.78018,-7.7592061 12.04988,-9.8356185 15.60213,-9.9081005 1.47145,-0.03002 1.47566,-0.03378 0.42774,-0.382282 -0.58208,-0.193578 -2.72521,-0.359802 -4.7625,-0.369388 -4.49388,-0.02114 -6.42919,0.616097 -9.97246,3.2836388 -4.99464,3.7601983 -12.14043,12.4912295 -15.13176,18.4886315 -1.97773,3.9652187 -2.041,4.1663057 -0.999,3.1749997 0.61186,-0.582083 1.88613,-2.099666 2.83171,-3.3724106 z M -202.626,-1.264678 c 1.61332,-0.8175308 8.67383,-5.9074346 9.18065,-6.6183044 0.11759,-0.164938 0.83197,-0.6951772 1.5875,-1.1783095 l 1.37369,-0.8784223 -1.33197,0.1790125 c -0.73258,0.098457 -2.23279,0.6944099 -3.33379,1.3243401 -3.59013,2.0540655 -10.63135,8.06831416 -9.44603,8.06831416 0.11029,0 0.99677,-0.40348252 1.96995,-0.89663056 z m 6.471,-15.02109 c -0.10931,-0.176861 -0.35347,-0.225935 -0.54259,-0.109052 -0.18913,0.116883 -0.57301,0.02234 -0.85308,-0.210102 -0.28007,-0.232438 -0.73003,-0.337886 -0.99989,-0.234327 -0.26987,0.103559 -0.63376,0.0452 -0.80864,-0.129682 -0.31906,-0.319057 -4.35291,-0.504395 -5.49044,-0.252261 -0.9163,0.203099 -1.18891,0.62225 -0.42178,0.648538 0.37188,0.01275 2.4224,0.220954 4.55671,0.462687 3.9287,0.444968 4.91975,0.406757 4.55971,-0.175801 z m 7.25834,-4.367001 c 0.24155,-0.291042 0.98859,-0.529167 1.6601,-0.529167 1.97619,0 1.20377,-0.814171 -1.39516,-1.470547 -2.71893,-0.686687 -8.83579,-1.352287 -12.40884,-1.350257 -3.91487,0.0022 -11.84498,1.430482 -11.84498,2.133345 0,0.621255 1.78384,0.800896 10.75972,1.083553 5.23875,0.164972 9.92187,0.357678 10.40694,0.428236 1.86808,0.271731 2.39772,0.216338 2.82222,-0.295163 z m -52.76247,32.192252 -1.03614,-1.145244 1.05834,0.875376 c 0.58208,0.481461 1.20914,0.99682 1.39347,1.145247 0.20813,0.167598 0.19972,0.269868 -0.0222,0.269868 -0.19654,0 -0.8236,-0.515359 -1.39348,-1.145247 z m 27.2684,-36.292972 c 0.2393,-0.241095 0.52396,-0.349487 0.63258,-0.240871 0.10861,0.108615 -0.0872,0.305875 -0.4351,0.438354 -0.50277,0.191447 -0.5433,0.150926 -0.19748,-0.197483 z"
         id="path1558" />
      <path
         style="fill:#b1a895;stroke-width:0.352778"
         d="m -222.53642,23.230309 c -0.74834,-0.17581 -1.80169,-0.58021 -2.34079,-0.898666 -1.12401,-0.66397 -2.36503,-2.927107 -1.79746,-3.277881 0.44297,-0.273773 1.4419,-3.023069 1.4419,-3.968464 0,-0.810274 2.11945,-6.0547564 2.51195,-6.2157218 0.14885,-0.061041 0.17321,-0.3648957 0.0541,-0.6752308 -0.15546,-0.405123 -0.0848,-0.4828117 0.25071,-0.2754806 0.30578,0.1889795 0.38284,0.1522059 0.223,-0.106419 -0.48357,-0.7824258 2.81472,-5.8725328 3.81195,-5.8828304 0.24529,-0.00247 1.40916,-1.20124363 2.58639,-2.66379678 2.44782,-3.04110312 6.79385,-7.27359892 8.89963,-8.66714282 1.72891,-1.1441348 1.61465,-1.5945058 -0.13084,-0.5157357 l -1.23298,0.7620244 -1.78419,-0.9041155 -1.78418,-0.904115 v 0.875558 c 0,2.0151047 -1.07052,4.0368904 -3.22276,6.0864799 -2.75156,2.6203275 -5.88908,6.5185465 -7.7002,9.5671074 -1.24658,2.0983046 -1.82869,2.6637262 -4.687,4.5526007 -1.79501,1.186205 -4.11882,2.49325 -5.16402,2.904546 -3.48428,1.371089 -6.95244,0.86178 -8.90473,-1.30768 -0.70148,-0.779522 -0.60997,-0.747829 0.56673,0.196265 0.77181,0.619245 1.61896,1.125897 1.88255,1.125897 0.26359,0 -0.28626,-0.606372 -1.22189,-1.347495 l -1.70115,-1.347494 -0.0247,-2.4448668 c -0.0136,-1.344676 -0.14588,-3.7942414 -0.29403,-5.4434774 -0.23868,-2.65700935 -0.21071,-2.9266374 0.24549,-2.36681083 0.47138,0.57844972 0.57543,0.42951047 1.23228,-1.76388887 0.39458,-1.3176285 0.82158,-3.3481892 0.94888,-4.5123558 0.3684,-3.3689713 1.8666,-9.2778653 2.85134,-11.2457003 1.04561,-2.089461 2.04668,-3.257484 3.39163,-3.957263 1.4189,-0.738249 1.57596,-0.60629 0.56477,0.474491 -1.65208,1.765772 -2.37488,3.880513 -3.82831,11.2006946 -0.5513,2.7766143 -0.71097,4.5220783 -0.56128,6.1356274 0.11506,1.2402926 0.28188,2.3277512 0.3707,2.4165772 0.37472,0.37471345 0.8975,-0.3866551 1.45442,-2.1181589 2.17591,-6.7650653 6.21217,-15.9607223 7.87505,-17.9413983 1.04678,-1.246835 1.30335,-1.369036 2.87436,-1.369036 1.308,0 2.35187,0.324397 4.31827,1.341966 2.33752,1.209611 2.69602,1.300731 3.63495,0.923879 0.78414,-0.314724 4.57395,-0.348744 15.32918,-0.137605 9.01122,0.176902 14.43788,0.155806 14.69472,-0.05712 0.22398,-0.185684 0.81929,-0.234187 1.32292,-0.107784 1.58565,0.397973 1.13208,-0.849367 -0.58362,-1.604993 -2.8839,-1.270122 -7.4763,-1.92329 -13.31736,-1.894099 -4.86742,0.02432 -6.14279,0.168463 -11.61077,1.312213 -3.37848,0.706687 -6.21309,1.214504 -6.29911,1.128481 -0.29961,-0.299613 4.72286,-1.606522 10.91044,-2.83903 7.73079,-1.539901 12.1736,-1.653143 18.22129,-0.464442 3.28225,0.645142 4.04172,0.700384 4.28208,0.311468 0.1607,-0.260021 0.46869,-0.363684 0.68441,-0.230361 0.21572,0.133323 0.55868,0.139528 0.76213,0.01379 0.97547,-0.602877 -2.35509,-2.568978 -5.91408,-3.491206 -2.71874,-0.704495 -7.766,-0.710816 -12.05586,-0.0151 -1.82188,0.295469 -3.37811,0.47162 -3.45829,0.391447 -0.41708,-0.417085 6.91982,-1.367672 10.65137,-1.380017 4.4203,-0.01462 7.2118,0.588982 10.52933,2.27676 1.76162,0.89622 2.05126,0.599212 0.40678,-0.417133 -0.69951,-0.43232 -1.19727,-0.860601 -1.10613,-0.951735 0.30212,-0.302128 3.9909,2.27164 5.48785,3.829036 1.69196,1.760281 3.08149,4.414314 3.40464,6.502916 0.17101,1.105239 0.0421,1.79776 -0.55111,2.960524 -1.00268,1.965425 -3.43293,4.548885 -5.83606,6.2039819 -1.10496,0.7610146 -1.80763,1.4771105 -1.67107,1.702993 0.12961,0.214381 0.81187,1.2850421 1.51612,2.3792494 3.62839,5.63741353 3.15659,11.2533641 -1.30335,15.5142107 -4.60772,4.402031 -13.74076,8.838903 -22.69505,11.025353 -7.17151,1.751136 -14.06246,2.38265 -17.41199,1.595716 z m 5.17443,-15.8664448 c 0.35135,-0.4690075 0.51813,-0.6182501 0.37062,-0.3316429 -0.1475,0.2866073 2.10502,-1.6866482 5.00562,-4.3850101 7.22191,-6.7183881 13.66351,-12.0163857 15.892,-13.0706252 1.02315,-0.484027 2.70386,-1.012356 3.73493,-1.174065 l 1.87466,-0.294016 -1.76388,-0.323693 c -2.69776,-0.495066 -7.52007,-0.299814 -9.525,0.385662 -0.97014,0.331685 -2.71639,1.282781 -3.88056,2.1135463 -4.41776,3.1525739 -12.30329,12.1710717 -15.42237,17.63821 -0.99626,1.7462499 -2.10098,3.5535977 -2.45492,4.0163257 -0.35395,0.462728 -0.64137,1.256478 -0.63871,1.763889 0.004,0.822639 0.33865,0.575507 3.0868,-2.281636 1.69509,-1.7623088 3.36945,-3.5879338 3.72081,-4.0569448 z m 12.41395,-6.0993372 c 0.19402,0.059238 2.64427,-1.62353627 5.44499,-3.7395009 2.80072,-2.1159646 6.03386,-4.3728407 7.18476,-5.01528 3.80423,-2.1235434 4.53262,-3.3512931 1.74594,-2.9428611 -2.05747,0.301554 -4.08427,1.1683596 -6.52196,2.7892676 -3.05446,2.0310105 -7.52445,5.915637 -9.11234,7.91904437 l -1.48846,1.87797013 1.19714,-0.4981751 c 0.65843,-0.2739955 1.3559,-0.4497035 1.54993,-0.390465 z m 10.40694,-17.318773 c 0,-0.478243 -0.27781,-1.013217 -0.61736,-1.188831 -1.58076,-0.817567 -12.2991,-1.488548 -15.03891,-0.941454 l -1.36876,0.27332 1.19237,0.513832 c 1.10601,0.47661 12.09268,2.107869 14.68613,2.180539 0.99211,0.0278 1.14653,-0.08499 1.14653,-0.837406 z m -32.73956,33.854254 c 0.007,-0.582083 0.0863,-0.777501 0.1757,-0.434259 0.0894,0.343242 0.0836,0.819492 -0.0131,1.058333 -0.0966,0.238842 -0.16982,-0.04199 -0.16263,-0.624074 z m 0.55456,-1.294656 c -0.24398,-1.612236 0.30811,-4.331522 1.13382,-5.584511 0.51761,-0.785473 0.46481,0.206788 -0.0623,1.16972 -0.23197,0.423806 -0.51188,1.961183 -0.62202,3.416391 -0.19808,2.61723 -0.20294,2.628025 -0.44955,0.9984 z m 1.49333,-6.622023 c 0,-0.1825767 0.15694,-0.4289496 0.34874,-0.54749 0.19998,-0.1235922 0.25912,0.018027 0.13865,0.3319568 -0.23453,0.6111592 -0.48739,0.7229792 -0.48739,0.2155332 z m -18.1479,-12.8386451 c -0.66174,-2.2979874 1.00943,-10.0206079 2.84699,-13.1561649 1.41195,-2.409309 1.59871,-2.142944 0.30306,0.43224 -1.45678,2.895431 -2.28126,6.19569 -2.60904,10.4435023 -0.19722,2.5558468 -0.31669,3.0594194 -0.54101,2.2804226 z m 36.77898,-24.4648299 c 0.25466,-0.101907 0.55893,-0.08937 0.67616,0.02785 0.11722,0.117225 -0.0911,0.200604 -0.46302,0.185286 -0.41097,-0.01693 -0.49456,-0.100521 -0.21314,-0.213136 z m 1.41111,-0.352777 c 0.25466,-0.101908 0.55893,-0.08938 0.67616,0.02785 0.11722,0.117226 -0.0911,0.200604 -0.46302,0.185286 -0.41097,-0.01693 -0.49456,-0.100521 -0.21314,-0.213136 z"
         id="path1556" />
      <path
         style="fill:#a39b89;stroke-width:0.352778"
         d="m -222.76332,23.079818 c -4.00142,-1.244724 -4.42113,-2.295494 -2.46482,-6.17092 1.59554,-3.160751 18.87922,-19.8014302 26.45371,-25.4695594 2.44401,-1.8288976 4.9734,-2.8559996 7.10464,-2.8849556 1.10687,-0.01504 1.83058,-0.139765 1.60825,-0.277171 -0.90393,-0.558663 -5.49364,-1.069801 -7.82131,-0.87103 -2.5619,0.218774 -7.88429,1.828251 -9.45996,2.8606647 -0.85484,0.5601198 -0.97829,0.5465685 -2.6257,-0.2882397 l -1.72869,-0.875991 -0.4393,2.1269108 c -0.41262,1.9976892 -0.65044,2.348914 -3.91441,5.7809306 -3.01142,3.16645921 -7.77074,9.5126386 -7.77074,10.3616653 0,0.432495 -4.81251,3.6587183 -7.40834,4.9664233 -2.57506,1.297238 -6.42105,1.836452 -7.62559,1.069118 -0.63732,-0.405995 -0.63563,-0.415372 0.0409,-0.227747 0.62869,0.174364 0.61909,0.134148 -0.0882,-0.369171 -0.68534,-0.487705 -0.79449,-0.884206 -0.79916,-2.9030719 -0.004,-1.5804902 -0.11175,-2.1700489 -0.33359,-1.8192714 -0.534,0.8443736 -0.68289,0.3310819 -0.92301,-3.1820767 -0.16904,-2.4730639 -0.0877,-3.8807248 0.31493,-5.45076232 0.29855,-1.16416668 0.7242,-3.38666668 0.9459,-4.93888888 1.28515,-8.9981018 2.87918,-13.5568318 5.3717,-15.3624028 1.85052,-1.34051 2.23469,-1.327138 0.96362,0.03354 -1.39159,1.489702 -2.35046,4.235232 -3.56706,10.213583 -1.00306,4.9290147 -1.26044,9.73812365 -0.55873,10.43983745 0.50975,0.50974624 1.62498,-1.01166085 2.0496,-2.79608485 1.01703,-4.2739303 6.55585,-16.8213916 8.15276,-18.4689826 1.68748,-1.74104 4.02421,-1.532292 7.71309,0.689037 1.59814,0.962351 2.05699,1.095296 2.6904,0.779508 0.45328,-0.225983 2.60358,-0.350842 5.29069,-0.307206 19.08662,0.309945 27.98125,0.285316 28.34515,-0.07849 0.58776,-0.587593 -2.27004,-2.132836 -5.56052,-3.006638 -1.923,-0.51066 -4.30748,-0.781645 -8.02897,-0.912454 -5.64996,-0.198594 -9.53064,0.162908 -14.55274,1.355655 -1.63046,0.387233 -3.15016,0.639746 -3.37711,0.561138 -0.99128,-0.343336 11.34664,-2.708613 16.16791,-3.099515 3.89697,-0.315961 8.89134,0.06693 11.66487,0.894277 2.04096,0.608821 5.79006,0.585383 5.79464,-0.03623 0.008,-1.150188 -5.75778,-3.786992 -9.47615,-4.333258 l -1.98614,-0.291786 1.60157,-0.04302 c 2.0117,-0.05403 4.74389,0.651456 7.92343,2.045938 l 2.46944,1.083049 -1.23472,-1.102328 -1.23472,-1.102327 1.54114,0.839241 c 0.84762,0.461583 2.4637,1.825361 3.59128,3.03062 1.63224,1.744677 2.20941,2.685852 2.83141,4.617114 0.7705,2.392329 0.77239,2.448956 0.1374,4.111674 -0.7892,2.066491 -3.40626,4.991896 -6.01452,6.7231586 -1.8447,1.2244448 -1.92282,1.3351157 -1.45116,2.0559459 3.92619,6.00040276 4.60941,9.5110884 2.71015,13.9260388 -2.40694,5.5950697 -14.23117,12.1281007 -27.1582,15.0052337 -7.41906,1.651239 -12.88405,2.029661 -15.875,1.099266 z m 25.4,-5.103421 c 0.29104,-0.188087 0.37042,-0.341972 0.17639,-0.341972 -0.19403,0 -0.59091,0.153885 -0.88195,0.341972 -0.29104,0.188087 -0.37041,0.341972 -0.17639,0.341972 0.19403,0 0.59091,-0.153885 0.88195,-0.341972 z M -209.28185,4.6183182 c 0.63734,-0.5559707 1.8109,-1.3414198 2.6079,-1.7454456 0.79701,-0.4040223 3.76866,-2.40097732 6.60367,-4.4376763 5.77202,-4.1466628 10.53104,-7.2699103 11.07748,-7.2699103 0.19939,0 0.56016,-0.238125 0.8017,-0.5291667 0.24154,-0.2910416 0.77692,-0.533994 1.18972,-0.5398943 0.70489,-0.010075 0.7109,-0.033782 0.0987,-0.389596 -0.36508,-0.212198 -1.77312,-0.322245 -3.20071,-0.250155 -2.98166,0.150567 -5.55496,1.2983071 -9.55302,4.2608276 -2.42828,1.7993289 -10.85216,10.0606964 -11.50782,11.285816 -0.53585,1.0012363 0.54729,0.7798153 1.88235,-0.3847994 z m 12.87299,-3.025909 c 2.25825,-1.64320711 3.48277,-2.9742835 1.67773,-1.82371997 -1.28683,0.82024713 -4.39608,3.14516907 -4.39608,3.28714447 0,0.3576109 0.82917,-0.088773 2.71835,-1.4634245 z m 4.18094,-16.9824232 c -0.37638,-0.275215 -0.72141,-0.753031 -0.76673,-1.061815 -0.12459,-0.848905 -0.20868,-0.882366 -3.5509,-1.412958 -4.60744,-0.731452 -13.35684,-1.027669 -15.22908,-0.515592 -0.8442,0.230898 -1.46354,0.491185 -1.37631,0.578415 0.0872,0.08723 1.09544,0.403301 2.24047,0.702382 2.95491,0.771819 18.72246,2.696653 19.19104,2.342758 0.0967,-0.07304 -0.13211,-0.357975 -0.50849,-0.63319 z m -32.48698,-3.972266 c 0.20753,-0.670226 0.13853,-0.803409 -0.36552,-0.705556 -0.9825,0.190735 -1.99465,2.311888 -1.71365,3.591268 l 0.23877,1.087145 0.79229,-1.57334 c 0.43575,-0.865337 0.9074,-1.94512 1.04811,-2.399517 z m -16.3161,31.429649 c -0.84379,-0.824618 -0.85786,-0.865096 -0.0938,-0.269868 1.50561,1.172863 1.57751,1.240007 1.32784,1.240007 -0.13276,0 -0.6881,-0.436563 -1.23408,-0.970139 z m 22.02365,-8.2020831 c 1.67654,-3.2552499 10.18907,-12.2835274 12.94164,-13.7257426 0.9798,-0.5133633 1.17914,-0.5590543 0.59744,-0.1369317 -2.72434,1.9769381 -5.29908,4.4212086 -8.03619,7.6289675 -1.69689,1.9886683 -3.69054,4.3238631 -4.43034,5.1893187 -0.73979,0.8654556 -1.22244,1.3354297 -1.07255,1.0443881 z m -24.18923,-10.0835636 c 0.0169,-0.410967 0.10052,-0.4945602 0.21314,-0.2131377 0.1019,0.2546597 0.0894,0.5589305 -0.0279,0.6761585 -0.11722,0.1172246 -0.2006,-0.091137 -0.18528,-0.4630208 z m 2.09962,-8.4372693 c 0,-0.194028 0.15389,-0.590903 0.34197,-0.881945 0.18809,-0.291041 0.34198,-0.370416 0.34198,-0.176389 0,0.194028 -0.15389,0.590903 -0.34198,0.881945 -0.18808,0.291041 -0.34197,0.370416 -0.34197,0.176389 z m 41.176,-14.16836 c 0.24253,-0.09787 0.63941,-0.09787 0.88194,0 0.24254,0.09786 0.0441,0.177936 -0.44097,0.177936 -0.48507,0 -0.68351,-0.08007 -0.44097,-0.177936 z m 2.82634,-0.368646 c 0.43882,-0.08438 1.07382,-0.08118 1.41111,0.0071 0.33728,0.0883 -0.0218,0.157337 -0.79787,0.153422 -0.77611,-0.0039 -1.05207,-0.07616 -0.61324,-0.160541 z"
         id="path1554" />
      <path
         style="fill:#949186;stroke-width:0.352778"
         d="m -223.02602,22.981929 c -4.94963,-1.593899 -4.36506,-3.796633 3.19321,-12.032266 7.59575,-8.2764873 20.00425,-19.2117217 24.098,-21.236846 1.64283,-0.812689 2.63991,-1.067372 4.17873,-1.067372 2.42763,0 2.32077,-0.225763 -0.41112,-0.86857 -4.30229,-1.012323 -9.80902,-0.257916 -14.3894,1.971312 l -2.11411,1.0289161 -1.55551,-0.8693911 c -0.85553,-0.478165 -1.5838,-0.827387 -1.61837,-0.776048 -0.0346,0.05134 -0.26788,1.0415664 -0.51843,2.2005049 -0.42153,1.9497446 -0.69691,2.3582369 -3.68617,5.4680541 -3.8631,4.01890086 -5.06112,5.5250609 -6.90631,8.6826583 -1.53853,2.6328088 -3.76348,4.4444884 -8.2981,6.7567667 -1.94578,0.992188 -3.00485,1.294497 -4.99428,1.4256 l -2.52483,0.166391 0.17236,-1.27901 c 0.1062,-0.788046 0.0259,-1.27901 -0.20919,-1.27901 -0.46095,0 -0.50434,-2.1005622 -0.0671,-3.2504661 0.17292,-0.4548258 0.37136,-1.6160961 0.44097,-2.5806047 0.11512,-1.5951305 0.0548,-1.763843 -0.66718,-1.8663814 -0.53389,-0.075823 -0.79375,0.068545 -0.79375,0.4409722 0,0.3045355 -0.15875,0.5537024 -0.35278,0.5537024 -0.54169,0 -0.42043,-4.10938835 0.20298,-6.8792971 0.30568,-1.3581239 0.68312,-3.7393139 0.83877,-5.2915361 0.70203,-7.0011052 2.49225,-11.8106692 4.95547,-13.3132822 l 1.23472,-0.753203 -0.74966,0.859631 c -1.60415,1.839458 -2.67955,5.177797 -3.84041,11.9216953 -1.03699,6.0243402 -1.13231,8.92519306 -0.31555,9.60304497 0.48003,0.39838843 0.66062,0.34010603 1.23257,-0.39777458 0.36857,-0.47550563 0.83022,-1.49955599 1.02588,-2.27566709 0.88816,-3.5229623 1.65318,-5.6064668 4.17763,-11.3776346 1.85529,-4.241381 3.13852,-6.675046 4.09211,-7.76074 1.3552,-1.542936 1.43025,-1.576837 3.06268,-1.383499 1.76435,0.208961 3.99691,1.199362 5.80306,2.574331 0.80515,0.612947 1.18499,0.722022 1.48156,0.425452 0.37215,-0.37215 13.80705,-0.462597 29.28504,-0.197153 3.77887,0.06481 4.74709,-0.0188 5.0039,-0.432113 0.61208,-0.985059 -3.69273,-2.939684 -8.63103,-3.918972 -1.16417,-0.23086 -4.3726,-0.439479 -7.12984,-0.463597 -3.40661,-0.0298 -4.70673,-0.142552 -4.05694,-0.351839 0.52592,-0.169393 3.65497,-0.328143 6.95345,-0.352778 5.19367,-0.03879 6.35172,0.05785 8.64305,0.721266 1.53117,0.443324 3.49725,0.745399 4.6668,0.717022 l 2.02096,-0.04903 -0.96263,-1.005492 c -1.3085,-1.366761 -5.40459,-3.333753 -8.19457,-3.935136 -1.26118,-0.271848 -1.94368,-0.506889 -1.51667,-0.522314 1.66459,-0.06013 4.66033,0.814294 7.86667,2.2962 l 3.35139,1.548944 -1.41112,-1.264988 c -1.39528,-1.2508 -1.39785,-1.257683 -0.22955,-0.613679 0.64985,0.358221 2.10718,1.63743 3.23851,2.842689 1.64221,1.749535 2.21447,2.680474 2.83821,4.617114 0.7705,2.392329 0.77239,2.448956 0.1374,4.111674 -0.78711,2.06101 -3.40459,4.990788 -5.99486,6.7101059 -1.06149,0.7045794 -1.92998,1.3284048 -1.92998,1.3862787 0,0.057874 0.69923,1.1698287 1.55385,2.471009 3.77425,5.74640417 3.40015,11.5144689 -1.0178,15.6927794 -6.21957,5.882213 -18.19283,10.798447 -30.59145,12.560879 -4.69084,0.666792 -7.76475,0.63343 -10.07119,-0.109298 z m 24.94721,-4.691348 c 1.5799,-0.603314 2.80748,-1.162011 2.72793,-1.241552 -0.0795,-0.07954 -1.55707,0.408195 -3.28339,1.083864 -1.72633,0.675668 -2.9539,1.234365 -2.72794,1.241552 0.22595,0.0072 1.70348,-0.480554 3.2834,-1.083864 z m 4.24327,-1.725295 c 0.29104,-0.188087 0.37041,-0.341972 0.17638,-0.341972 -0.19402,0 -0.5909,0.153885 -0.88194,0.341972 -0.29104,0.188087 -0.37042,0.341972 -0.17639,0.341972 0.19403,0 0.5909,-0.153885 0.88195,-0.341972 z m -17.81528,-9.3722051 c 1.74625,-1.5005932 5.00062,-3.9467154 7.23194,-5.4358292 2.23132,-1.48911734 5.92399,-4.052069 8.20593,-5.695449 4.53078,-3.2629238 8.62606,-5.5932232 9.87253,-5.6176636 0.64714,-0.012689 0.5391,-0.1506227 -0.58045,-0.7410111 -2.77042,-1.460978 -7.19626,-0.210892 -12.38273,3.4975266 -2.75862,1.9724585 -10.97335,9.5825948 -11.86363,10.9904674 -0.3161,0.4998861 -1.54587,2.020136 -2.73281,3.3783305 -3.53753,4.0479345 -2.74507,3.9153255 2.24922,-0.3763716 z m 15.99471,-5.9549029 c 1.03598,-0.78641222 3.17911,-2.3517895 4.7625,-3.4786217 5.09015,-3.6224386 4.17006,-3.3883811 -1.84178,0.4685206 -3.73743,2.39775296 -6.76739,4.7224703 -7.23698,5.5525211 -0.39196,0.6928238 1.59993,-0.4804657 4.31626,-2.54242 z m -29.67507,-18.468654 c 0.87739,-1.788383 1.15082,-2.687392 0.89511,-2.943098 -1.09742,-1.097416 -2.97295,2.020884 -3.07416,5.111157 -0.05,1.526298 -0.004,1.63988 0.42989,1.058333 0.26724,-0.358305 1.05436,-1.810181 1.74916,-3.226392 z m 35.37619,2.063292 c 0,-0.378415 0.25603,-0.83131 0.56896,-1.006433 0.74511,-0.416982 -1.01064,-0.86236 -7.09535,-1.799872 -6.76426,-1.042216 -11.33094,-1.27491 -14.47289,-0.737462 -2.95977,0.506285 -3.50194,0.879466 -2.06915,1.424212 2.05493,0.781286 16.50498,2.666328 21.21635,2.767722 1.61479,0.03475 1.85208,-0.04829 1.85208,-0.648167 z m -51.04491,27.297012 -0.98981,-0.907683 1.14653,0.797634 c 0.63059,0.438701 1.14653,0.847157 1.14653,0.907683 0,0.278462 -0.39022,0.03964 -1.30325,-0.797634 z m 24.87508,-11.96870878 c 0.52535,-0.98859268 4.25184,-5.18714912 5.14503,-5.79680562 0.40705,-0.2778266 -0.0555,0.3571734 -1.02791,1.4111111 -0.9724,1.0539378 -2.38091,2.6306251 -3.13003,3.50375009 -0.74911,0.87312499 -1.19331,1.26999998 -0.98709,0.88194443 z m 7.24651,-7.85706902 c 0.27913,-0.4516332 2.34277,-1.9788837 2.34277,-1.7338238 0,0.087197 -0.5828,0.6030595 -1.2951,1.1463609 -0.71231,0.5433014 -1.18376,0.8076597 -1.04767,0.5874629 z"
         id="path1552" />
      <path
         style="fill:#8d8779;stroke-width:0.352778"
         d="m -222.46395,23.131235 c -2.6025,-0.701001 -3.47437,-1.42966 -3.47437,-2.903679 0,-1.229709 0.93458,-3.309493 1.48717,-3.309493 0.1522,0 0.27672,-0.21077 0.27672,-0.468379 0,-0.257609 1.77608,-2.440421 3.94684,-4.850694 7.98954,-8.8710562 20.35989,-19.7985329 24.77988,-21.889563 1.67502,-0.792424 2.60227,-1.004108 4.258,-0.972066 l 2.11667,0.04096 -1.92523,0.319161 c -4.24868,0.704342 -9.52042,4.2448423 -16.21091,10.88724634 -5.67712,5.63632696 -9.95643,10.65419566 -9.48666,11.12396166 0.10809,0.108091 1.42188,-0.802767 2.91953,-2.0241331 5.33561,-4.3512951 7.09425,-5.6491257 9.35743,-6.9055367 1.26118,-0.7001439 4.59493,-2.99156963 7.40834,-5.0920579 5.65468,-4.2217823 10.19553,-6.7827471 11.41264,-6.4365349 0.56437,0.1605379 0.48764,0.029051 -0.30014,-0.5143563 -0.58209,-0.4015151 -1.21944,-0.7310731 -1.41634,-0.7323511 -0.1969,-0.0013 -0.91127,-0.298474 -1.5875,-0.660434 -4.15149,-2.222156 -11.54464,-1.807546 -17.50548,0.981713 l -2.16487,1.013009 -1.50164,-0.85295 c -0.82591,-0.469122 -1.53133,-0.809548 -1.56762,-0.756501 -0.0363,0.05305 -0.26973,1.0391148 -0.51877,2.1912616 -0.42076,1.9466035 -0.69393,2.3459507 -3.86106,5.6444441 -3.34893,3.48785385 -5.86359,6.7304249 -7.42482,9.5740818 -0.54289,0.9888326 -1.63452,2.0051113 -3.49302,3.2519197 -4.12244,2.7656228 -6.51737,3.7550548 -9.29212,3.8389068 l -2.35545,0.07118 0.37081,-1.063709 c 0.26124,-0.749396 0.25926,-1.175251 -0.007,-1.441203 -0.44381,-0.443813 -0.30085,-1.4036997 0.88157,-5.9190471 2.45498,-9.3749211 3.28653,-11.8573661 6.282,-18.7539449 3.06997,-7.068066 4.48868,-9.12064 6.29473,-9.107126 1.41266,0.01057 4.68133,1.342313 6.27145,2.555159 0.85113,0.649187 1.37107,0.831297 1.73365,0.60721 0.28485,-0.176046 3.45576,-0.351216 7.04648,-0.389268 3.59071,-0.03805 7.24295,-0.08357 8.11607,-0.101164 0.87313,-0.01759 3.73063,0.08874 6.35,0.236279 11.86674,0.668422 12.13565,0.6707 12.84054,0.10878 0.92236,-0.735278 0.42376,-1.249707 -2.53152,-2.611884 -2.88181,-1.328314 -6.39827,-2.090068 -11.36735,-2.462456 l -3.70417,-0.277594 3.24879,-0.28414 c 3.77256,-0.329949 6.78169,-0.05333 9.92186,0.912071 2.8563,0.878134 7.15747,1.163865 6.8864,0.457471 -0.41889,-1.091619 -3.94047,-3.212139 -7.35292,-4.427565 -0.97241,-0.346346 -1.51506,-0.641319 -1.20588,-0.655496 0.85087,-0.03902 4.10212,1.148452 6.67139,2.436623 l 2.29148,1.148888 -0.88195,-0.986343 -0.88194,-0.986343 1.09229,0.753599 c 2.60045,1.794128 4.74618,4.94514 5.42249,7.962961 0.29906,1.334453 0.24536,1.858463 -0.32737,3.194598 -0.86539,2.018854 -3.13176,4.49009 -5.74597,6.2653701 -1.11592,0.7578048 -2.02894,1.461879 -2.02894,1.564609 0,0.1027299 0.38854,0.696191 0.86343,1.3188022 0.47489,0.6226104 1.38378,2.2392075 2.01976,3.5924348 0.99702,2.12143624 1.15321,2.8249351 1.13371,5.1062467 -0.0393,4.602935 -1.98851,7.5430449 -7.37811,11.1291652 -7.22001,4.804025 -17.57493,8.376013 -28.02676,9.667981 -3.80459,0.470291 -6.11046,0.436428 -8.17655,-0.120086 z m 4.11035,-0.568727 c 0.13703,-0.22171 -0.54333,-0.334179 -1.83126,-0.302715 -1.9617,0.04792 -1.98898,0.06086 -0.63818,0.302715 2.12594,0.380644 2.23419,0.380644 2.46944,0 z m 9.25307,-1.271471 c -0.11723,-0.117225 -0.4215,-0.129755 -0.67616,-0.02783 -0.28142,0.112613 -0.19783,0.196208 0.21314,0.213134 0.37188,0.01531 0.58024,-0.06806 0.46302,-0.185286 z m 2.82222,-0.705556 c -0.11723,-0.117224 -0.4215,-0.129755 -0.67616,-0.02783 -0.28142,0.112614 -0.19783,0.196208 0.21314,0.213134 0.37188,0.01531 0.58025,-0.06806 0.46302,-0.185286 z m 4.17617,-0.851842 c 4.4501,-1.248699 13.91104,-5.457292 13.91104,-6.188166 0,-0.08968 -1.23031,0.448437 -2.73403,1.195828 -3.08021,1.530953 -8.05649,3.46758 -12.25902,4.770868 -3.3913,1.051705 -2.51557,1.230955 1.08201,0.22147 z m 9.14854,-13.046131 c 0.27594,-0.4464755 -0.19107,-0.4464755 -0.88194,0 -0.45604,0.2947106 -0.44672,0.3427201 0.0674,0.3473768 0.3281,0.00282 0.69465,-0.153349 0.81457,-0.3473768 z m -5.80977,-2.9250322 c 1.84934,-1.0803219 3.67497,-2.3121302 4.05694,-2.7373509 0.80337,-0.89432693 6.94495,-5.3076369 9.10524,-6.5429835 1.74934,-1.0003451 1.2432,-1.0960509 -1.08682,-0.2055071 -2.23414,0.8539021 -11.26971,7.1222798 -13.98336,9.7008913 -1.18801,1.1288818 -2.00126,1.9842621 -1.80723,1.9008443 0.19403,-0.083421 1.86588,-1.0355721 3.71523,-2.1158941 z m 10.02234,0.6207584 c 0.37663,-0.2848716 0.52603,-0.5179483 0.33201,-0.5179483 -0.19403,0 -0.66094,0.2330767 -1.03757,0.5179483 -0.37663,0.284868 -0.52604,0.5179448 -0.33201,0.5179448 0.19403,0 0.66093,-0.2330768 1.03757,-0.5179448 z m -39.31396,-15.1505182 c 0,-0.239288 0.96004,-2.308207 2.13343,-4.597599 1.17338,-2.289392 2.05149,-4.376048 1.95135,-4.637014 -0.33472,-0.87227 -1.90951,-0.553383 -2.44774,0.495655 -0.82876,1.615279 -1.67784,4.37767 -2.03314,6.614584 -0.18491,1.164166 -0.43246,2.432921 -0.5501,2.819455 -0.1882,0.6183213 -0.14419,0.6449299 0.36615,0.2213877 0.31903,-0.2647707 0.58005,-0.6771817 0.58005,-0.9164687 z m 39.07758,-3.583392 c 0.63342,-0.169713 0.71671,-0.31644 0.39777,-0.700738 -0.30323,-0.36537 -0.30046,-0.610118 0.0112,-0.985576 0.50193,-0.604785 0.33267,-0.666804 -3.85593,-1.412878 -9.42677,-1.679097 -16.41744,-2.110786 -19.91594,-1.229853 -4.51738,1.137488 -0.76016,2.177338 12.68399,3.51043 4.26861,0.423267 7.82726,0.831076 7.90811,0.906243 0.22236,0.206749 1.86617,0.154764 2.77086,-0.08763 z m -52.52813,26.065267 c -0.43881,-0.559526 -0.42633,-0.572004 0.13319,-0.133194 0.33955,0.266294 0.61736,0.544106 0.61736,0.617361 0,0.29035 -0.28969,0.103473 -0.75055,-0.484167 z m 3.22,-9.2187779 c 0,-0.1940278 0.15875,-0.4508888 0.35277,-0.570805 0.19403,-0.1199162 0.35278,-0.059277 0.35278,0.1347505 0,0.1940278 -0.15875,0.4508888 -0.35278,0.570805 -0.19402,0.1199163 -0.35277,0.059277 -0.35277,-0.1347505 z m -1.15953,-0.864242 c -0.40402,-1.03775583 -0.29152,-3.65367 0.25798,-5.9986615 0.72937,-3.1125753 1.30352,-6.8066096 1.40737,-9.0548516 0.14449,-3.128052 2.06056,-6.66145 4.25668,-7.849683 0.48608,-0.263001 0.36138,0.0104 -0.40089,0.878921 -1.9521,2.224214 -3.31628,7.37845 -4.39467,16.6041973 -0.57487,4.9181949 -0.83486,6.1691132 -1.12647,5.4200778 z m 24.09008,-2.48559109 c 0,-0.0732543 0.27781,-0.35106681 0.61736,-0.61736111 0.55953,-0.4388097 0.57201,-0.4263319 0.1332,0.1331948 -0.46086,0.58763956 -0.75056,0.77451653 -0.75056,0.48416631 z m 2.46945,-2.86541631 c 0.6582,-0.6790972 1.27611,-1.2347222 1.37313,-1.2347222 0.097,0 -0.36215,0.555625 -1.02036,1.2347222 -0.6582,0.6790972 -1.27611,1.2347222 -1.37312,1.2347222 -0.097,0 0.36214,-0.555625 1.02035,-1.2347222 z m 5.29166,-4.895693 c 0,-0.073256 0.27782,-0.3510689 0.61736,-0.6173611 0.55953,-0.43881 0.57201,-0.4263323 0.1332,0.1331931 -0.46086,0.5876388 -0.75056,0.7745161 -0.75056,0.484168 z m 17.19792,-20.5615557 c 0.24253,-0.09787 0.63941,-0.09787 0.88194,0 0.24254,0.09786 0.0441,0.177936 -0.44097,0.177936 -0.48507,0 -0.68351,-0.08007 -0.44097,-0.177936 z"
         id="path1550" />
      <path
         style="fill:#827d6f;stroke-width:0.352778"
         d="m -221.94262,23.252407 c -2.09228,-0.413706 -3.6004,-1.279574 -3.83134,-2.199717 -0.24561,-0.978606 0.59544,-3.044332 1.57428,-3.866589 0.40194,-0.337651 0.7308,-0.850777 0.7308,-1.140281 0,-1.563352 13.73598,-15.39293561 21.60721,-21.7544537 5.48645,-4.4341353 7.08624,-5.2973113 10.0947,-5.4466283 2.25129,-0.111738 2.27345,-0.10504 0.57726,0.174521 -2.39447,0.394649 -3.89173,1.0692815 -6.93915,3.126637 -5.00928,3.3818399 -9.88145,7.88324906 -16.225,14.9903101 -3.40712,3.8172039 -4.49755,5.5485239 -3.49462,5.5485239 0.1808,0 1.96673,-1.392819 3.96875,-3.095152 5.8883,-5.0068903 6.77024,-5.6652618 8.78229,-6.5560151 1.05231,-0.4658678 3.34204,-1.9445993 5.08829,-3.28607209 7.59276,-5.83277831 13.20095,-9.20915621 14.66189,-8.82711131 0.41305,0.1080135 0.59635,0.035804 0.46179,-0.1819186 -0.36352,-0.5881847 -5.10376,-2.6213949 -7.1193,-3.0536509 -4.38809,-0.941078 -10.20152,-0.116037 -14.51105,2.059408 l -2.01513,1.0172359 -1.50775,-0.8564169 c -0.82927,-0.47103 -1.55027,-0.856418 -1.60223,-0.856418 -0.052,0 -0.28798,0.9835451 -0.52449,2.1856555 -0.41084,2.0882878 -0.58276,2.3436671 -3.85914,5.7326395 -3.33186,3.44636019 -5.81886,6.6516285 -7.40845,9.548061 -1.48573,2.707199 -8.76935,6.890921 -12.47128,7.16352 -2.35326,0.173288 -2.24725,0.347006 -1.89811,-3.110431 0.19815,-1.9622704 0.7842,-4.6212729 2.6436,-11.9944448 1.00798,-3.997018 5.29871,-15.0545222 6.91607,-17.8231862 1.16603,-1.996077 2.61015,-3.34348 3.58345,-3.34348 1.18895,0 4.22054,1.214765 5.85043,2.344278 1.30212,0.902374 1.62217,0.96349 4.8057,0.917696 l 3.41066,-0.04906 -2.04394,0.55201 c -3.00277,0.810964 -2.21228,1.793535 2.04394,2.540615 3.60877,0.633435 19.84651,2.205416 21.6107,2.092139 1.58644,-0.101864 1.67263,-0.160205 1.67263,-1.132068 0,-0.926836 -0.18516,-1.087608 -1.93935,-1.683875 -1.06664,-0.362563 -3.39472,-0.821489 -5.17351,-1.019836 -1.77878,-0.198346 -3.76253,-0.512165 -4.40832,-0.697374 -0.64579,-0.18521 -2.04833,-0.339176 -3.11676,-0.342148 -1.06844,-0.003 -2.18074,-0.15929 -2.47178,-0.347375 -0.69476,-0.448992 3.71033,-0.448177 9.34861,0.0017 10.31195,0.822841 12.07115,0.850293 13.05787,0.203766 0.79022,-0.517771 0.85678,-0.686737 0.45949,-1.166475 -1.35816,-1.640028 -7.44742,-3.68175 -12.85018,-4.308651 l -2.43106,-0.282085 3.37524,-0.04636 c 2.4374,-0.03348 4.10379,0.155106 5.99722,0.678712 3.26663,0.903345 7.63696,1.609479 7.96027,1.286175 0.6086,-0.6086 -3.02876,-3.391069 -6.21171,-4.751771 -1.07377,-0.459033 -1.4736,-0.734061 -0.89047,-0.612519 0.58208,0.121324 2.40771,0.885113 4.05694,1.697309 3.89913,1.920194 3.81625,1.89503 3.00866,0.913521 -0.38253,-0.46491 0.0385,-0.152804 0.9356,0.693569 1.94136,1.83156 3.35642,4.297181 3.78605,6.596873 0.55631,2.977812 -1.37354,6.011982 -5.86024,9.2136204 -1.22256,0.8724047 -2.22284,1.6622222 -2.22284,1.755151 0,0.092928 0.38854,0.6783697 0.86343,1.3009809 0.47489,0.6226104 1.38378,2.2392075 2.01976,3.5924348 0.99702,2.12143624 1.15321,2.8249351 1.13371,5.1062467 -0.0393,4.602935 -1.98851,7.5430449 -7.37811,11.1291652 -7.24003,4.817346 -17.97255,8.495016 -28.21497,9.668305 -3.62208,0.414916 -5.37157,0.415093 -7.46701,7.06e-4 z m 4.82374,-0.689899 c 0.37447,-0.241999 -0.0896,-0.344689 -1.5875,-0.351257 -1.16416,-0.0051 -2.75166,-0.109383 -3.52777,-0.231726 -1.87756,-0.295966 -1.40243,0.167273 0.56864,0.554411 2.14873,0.422028 3.92057,0.433166 4.54663,0.02858 z m 11.46528,-1.951352 c 5.44471,-1.285479 11.80815,-3.614741 15.34583,-5.617167 3.887,-2.200141 3.56178,-2.465289 -0.52916,-0.431412 -5.19448,2.58252 -10.52367,4.478302 -17.02153,6.055152 -2.95892,0.718047 -5.37986,1.377191 -5.37986,1.464758 0,0.233637 2.03657,-0.161431 7.58472,-1.471331 z m 14.00961,-14.3505267 c 2.12309,-1.2049195 4.01032,-2.4713459 4.19385,-2.8142812 0.43056,-0.804492 -0.20759,-0.5920175 -2.85763,0.9514664 -1.06715,0.6215521 -2.85309,1.6626734 -3.96875,2.3135978 -1.93093,1.1265958 -2.50486,1.7399846 -1.62805,1.7399846 0.22023,0 2.13749,-0.9858445 4.26058,-2.1907676 z m -8.57234,-1.376426 c 2.30386,-1.3798691 5.03921,-3.2143135 6.07856,-4.07653767 2.61235,-2.16714913 8.17181,-6.03918153 9.27122,-6.45717383 0.87559,-0.3328987 1.26737,-1.0685392 0.56907,-1.0685392 -1.07157,0 -4.42849,1.75647 -7.88135,4.1238276 -5.67099,3.8881614 -13.26103,9.9471549 -12.49777,9.9767565 0.14929,0.00579 2.15641,-1.1184608 4.46027,-2.4983334 z M -227.72846,-11.12777 c 0.57188,-1.358194 1.83767,-3.889089 2.81287,-5.62421 1.19385,-2.12418 1.66315,-3.287225 1.43657,-3.560237 -0.18508,-0.223009 -0.21883,-0.53522 -0.075,-0.693803 0.14384,-0.158582 -0.0163,-0.188646 -0.35584,-0.06681 -0.33955,0.121839 -0.61736,0.06931 -0.61736,-0.116728 0,-0.607126 -1.45278,0.859231 -2.10462,2.124286 -1.10013,2.135092 -2.54528,7.145386 -2.69647,9.3486106 -0.1688,2.4598449 0.0519,2.265203 1.59984,-1.4111116 z m -9.47619,-4.075873 c -0.0263,-1.05152 1.47235,-4.214404 2.39075,-5.045548 0.63718,-0.576637 0.59015,-0.453373 -1.79743,4.711699 -0.5314,1.14958 -0.57231,1.172601 -0.59332,0.333849 z"
         id="path1548" />
      <path
         style="fill:#737169;stroke-width:0.352778"
         d="m -221.35221,23.38399 c -1.33536,-0.213138 -3.94944,-1.222964 -3.73108,-1.441323 0.10578,-0.105788 -0.0767,-0.389082 -0.40558,-0.62955 -0.73056,-0.534197 -0.35248,-1.560445 1.24578,-3.381491 0.57441,-0.654474 1.28282,-1.745576 1.57425,-2.424674 1.06358,-2.478348 12.44607,-14.3530244 18.24996,-19.0391092 1.06716,-0.8616209 0.22962,0.071783 -1.86118,2.0742346 -4.23837,4.0592692 -13.30826,13.9347536 -13.30826,14.4903116 0,0.196843 0.39384,0.357897 0.87519,0.357897 0.59054,0 2.05352,-1.008384 4.49792,-3.100268 4.54871,-3.8927155 6.94992,-5.7191766 7.51887,-5.7191766 0.5346,0 5.80553,-3.5458329 10.96032,-7.3731754 4.44922,-3.3034711 8.69518,-5.7037061 10.24653,-5.7923387 1.47732,-0.084404 0.99354,-0.67287 -1.65038,-2.0075153 -5.6993,-2.876999 -13.09325,-2.799973 -19.07099,0.198668 l -2.32116,1.1643696 -1.50721,-0.8561156 c -1.56076,-0.886525 -2.32875,-1.092923 -1.98259,-0.532819 0.10989,0.177812 0.0211,1.1565365 -0.1973,2.1749425 -0.35865,1.6723398 -0.77739,2.2512725 -4.32413,5.9784332 -2.5134,2.64126483 -4.62546,5.2703059 -5.86729,7.3034842 -1.71301,2.8046044 -2.25438,3.3882329 -4.62184,4.9826579 -1.47486,0.9932772 -3.57783,2.2162802 -4.67326,2.7177862 -2.19703,1.005833 -5.63439,1.534731 -6.01126,0.924937 -0.12838,-0.207712 0.0167,-1.537367 0.32236,-2.954792 0.30568,-1.4174227 0.94549,-4.7550991 1.4218,-7.4170578 0.47632,-2.66195881 1.24128,-5.8369588 1.69992,-7.0555555 3.98482,-10.5875767 4.8941,-12.8641397 5.86733,-14.6901157 0.61224,-1.148675 1.57281,-2.528868 2.1346,-3.067096 1.00283,-0.960779 1.05685,-0.970671 2.96658,-0.543292 1.73996,0.389386 2.62057,0.880423 7.01189,3.9099 0.69563,0.479901 0.72182,0.475203 0.30471,-0.05466 -0.40961,-0.520334 -0.25948,-0.592144 1.46644,-0.701416 1.05752,-0.06695 1.84881,-0.0027 1.75843,0.142849 -0.0904,0.145521 -0.62186,0.264583 -1.18104,0.264583 -2.54014,0 -1.00263,1.63406 2.18914,2.326606 2.23807,0.48561 16.71499,2.133059 22.00757,2.504422 2.66259,0.186825 2.90468,0.145448 3.61597,-0.61803 0.41927,-0.450043 0.76232,-0.929594 0.76232,-1.065668 0,-0.35453 -2.66878,-1.553721 -4.93889,-2.219245 -1.06715,-0.312855 -3.60715,-0.796737 -5.64444,-1.075293 l -3.70417,-0.506465 3.88056,0.174686 c 2.1343,0.09608 5.14639,0.322529 6.69352,0.503225 4.21376,0.492146 6.33325,0.411205 7.56297,-0.288821 0.59647,-0.339549 1.03281,-0.775686 0.96964,-0.969195 -0.23714,-0.726443 -6.02791,-3.327022 -8.93357,-4.011983 -1.66044,-0.391419 -3.12053,-0.821505 -3.24466,-0.955745 -0.60507,-0.654389 4.95517,0.493475 11.69116,2.413541 1.47344,0.419997 2.19207,0.06627 1.82241,-0.897048 -0.2747,-0.715863 -2.20754,-2.200449 -4.53844,-3.485905 -0.98586,-0.543688 -1.68658,-0.991398 -1.55714,-0.994913 0.41813,-0.01136 3.23976,1.328226 5.23272,2.484259 l 1.94028,1.125472 -1.05609,-1.190699 c -0.88341,-0.996008 -0.80657,-0.959968 0.46994,0.22041 1.94532,1.798829 3.22021,3.960627 3.79568,6.436228 0.4389,1.888061 0.41986,2.022298 -0.56297,3.969267 -1.07904,2.137576 -3.66319,4.722079 -6.21906,6.2199169 l -1.50806,0.8837838 1.21303,1.6884491 c 1.66614,2.319147 2.87634,5.1364268 3.16722,7.3731367 0.35538,2.7326131 -0.83747,6.2427272 -2.90169,8.5386438 -3.16308,3.5181007 -10.65148,7.6898927 -18.27022,10.1783477 -7.67138,2.505647 -17.20561,3.99548 -21.34306,3.335098 z m 7.46365,-0.986392 c 10.50651,-1.58375 22.73528,-5.951657 27.63774,-9.871731 0.66363,-0.530648 0.64266,-0.53745 -0.35278,-0.114462 -0.58208,0.247343 -2.88396,1.344711 -5.11528,2.438601 -9.30087,4.559681 -19.27463,7.079065 -28.04583,7.084402 -5.06443,0.0032 -5.33591,0.06475 -2.6253,0.596293 2.38834,0.468352 4.75752,0.431257 8.50145,-0.133103 z m 21.82901,-15.7197949 c 3.52541,-1.9787728 6.3361,-4.2236283 5.28821,-4.2236283 -0.63658,0 -7.92007,4.1085169 -9.21473,5.1979088 -1.13616,0.9560101 -1.36398,1.7092436 -0.40711,1.3459848 0.33955,-0.128905 2.28968,-1.1730249 4.33363,-2.3202653 z m -7.6883,-1.8745376 c 2.57267,-1.6066911 6.72352,-4.47527886 9.2241,-6.3746344 2.50059,-1.8993591 5.04059,-3.6179125 5.64445,-3.8190099 1.48295,-0.4938501 1.87724,-0.9010403 1.1447,-1.1821435 -0.90517,-0.3473489 -3.50486,0.5022525 -5.40832,1.76749 -7.53084,5.00579669 -16.68707,12.1046733 -16.68707,12.9375851 0,0.4405877 0.37031,0.2378851 6.08214,-3.3292873 z M -229.4661,-5.7156011 c 0,-0.5886662 2.84011,-7.4937329 3.24177,-7.8816129 0.25007,-0.241494 0.29827,-0.07457 0.15277,0.529167 -0.11689,0.485069 0.2037,0.0088 0.71242,-1.058334 2.44016,-5.118726 3.23203,-8.080734 2.0378,-7.622465 -0.30691,0.117773 -0.86028,0.214132 -1.22972,0.214132 -1.04149,0 -2.27871,2.230608 -3.81557,6.879167 -1.43143,4.329682 -2.33146,10.0683797 -1.49831,9.5534688 0.21936,-0.1355725 0.39884,-0.4116599 0.39884,-0.6135229 z m 27.51667,0.27547 c 0,-0.073254 0.27781,-0.3510668 0.61736,-0.6173611 0.55953,-0.4388082 0.572,-0.4263305 0.13319,0.1331948 -0.46086,0.5876396 -0.75055,0.7745166 -0.75055,0.4841663 z m 2.56264,-2.0933741 c 2.05299,-1.8679636 5.25631,-3.4267568 7.39352,-3.5978248 l 1.86189,-0.14903 -1.5875,0.307059 c -2.31578,0.447927 -3.2359,0.867429 -6.26866,2.8580173 -2.25224,1.4782863 -2.49591,1.5796023 -1.39925,0.5817785 z m -3.35639,-12.1335088 c 0.43656,-0.08409 1.15093,-0.08409 1.5875,0 0.43656,0.08409 0.0794,0.152883 -0.79375,0.152883 -0.87313,0 -1.23032,-0.0688 -0.79375,-0.152883 z"
         id="path1546" />
      <path
         style="fill:#66645b;stroke-width:0.352778"
         d="m -222.13969,23.148091 c -1.11221,-0.250501 -2.14409,-0.578267 -2.29306,-0.72837 -0.14897,-0.150103 0.36415,-0.139696 1.14026,0.02314 0.77611,0.162825 3.23674,0.284583 5.46806,0.270574 3.37084,-0.02117 5.04135,-0.250892 9.87778,-1.358406 11.15627,-2.554718 20.73155,-6.956386 26.05971,-11.9794163 0.84792,-0.7993556 1.37689,-1.1358739 1.17549,-0.7478183 -1.34283,2.5873536 -8.58063,7.2982456 -15.36431,10.0002376 -8.82099,3.513458 -21.08786,5.640807 -26.06393,4.520067 z m -1.32613,-1.613225 c -1.46358,-0.15645 -1.96585,-0.358023 -2.05434,-0.824441 -0.0713,-0.375995 0.0999,-0.617362 0.43792,-0.617362 0.32119,0 0.55503,-0.299434 0.55503,-0.710741 0,-0.411311 0.44533,-0.981562 1.05707,-1.35358 0.58138,-0.353564 0.97155,-0.728352 0.86704,-0.832862 -0.33369,-0.333689 1.98715,-2.048299 4.45407,-3.29062 1.31398,-0.661709 2.59924,-1.494035 2.85613,-1.84961 0.25689,-0.355579 1.18145,-1.13477 2.05458,-1.731539 0.87312,-0.5967698 1.90305,-1.4355272 2.28872,-1.8639052 0.38568,-0.4283781 1.65568,-1.3372888 2.82222,-2.0198009 1.16656,-0.6825157 4.81975,-3.2571972 8.11823,-5.72151579 3.29847,-2.46431861 6.75221,-4.99527681 7.67498,-5.62435021 2.51545,-1.7148457 6.86675,-3.6845341 7.67353,-3.4735558 1.85791,0.485853 -0.52216,-1.3872499 -3.53835,-2.7846731 -2.6625,-1.233554 -5.54929,-1.672901 -9.43409,-1.435795 -1.88892,0.115289 -3.83128,0.2733 -4.31635,0.351135 -0.48507,0.07784 -0.60413,0.07295 -0.26459,-0.01085 0.33955,-0.0838 0.61737,-0.27472 0.61737,-0.424264 0,-0.44636 -3.58985,-1.158653 -5.19958,-1.031694 l -1.49541,0.117942 1.26743,0.864306 c 0.74389,0.507285 1.77262,0.864305 2.49043,0.864305 1.18907,0 1.16113,0.03183 -1.00674,1.14705 -2.62181,1.3487386 -3.28033,1.4154044 -4.69919,0.475728 -1.06763,-0.707062 -2.13458,-0.952567 -1.80214,-0.414672 0.0989,0.159986 -0.0308,1.1969097 -0.28825,2.3042756 -0.42819,1.8419879 -0.77039,2.3241645 -4.01968,5.6638729 -2.09022,2.14838843 -4.51392,5.1191406 -5.89023,7.21971 -1.76239,2.6898036 -2.83206,3.922903 -4.34137,5.0046396 -3.28218,2.3523749 -6.69393,3.8740149 -9.07451,4.0472399 -1.49375,0.108694 -1.84573,0.06269 -1.21854,-0.15928 0.85189,-0.301487 0.8549,-0.313323 0.0882,-0.347288 -1.0214,-0.04525 -1.01164,-0.563552 0.0808,-4.286617 0.481,-1.6392701 0.88022,-3.5361174 0.88716,-4.2152146 0.0191,-1.867856 0.81688,-4.88608859 2.93732,-11.1124999 2.27679,-6.6855415 4.00313,-11.0863055 4.63601,-11.8180555 0.25172,-0.291042 0.72338,-1.053547 1.04814,-1.694455 0.32475,-0.640909 0.89952,-1.474347 1.27726,-1.852084 0.72003,-0.720029 2.09791,-0.939407 2.09791,-0.334016 0,0.194027 -0.31429,0.352777 -0.69842,0.352777 -1.44201,0 -3.92836,5.84356 -5.83272,13.7083319 -0.78408,3.2381496 -0.82101,3.6843606 -0.34444,4.1609316 0.47657,0.4765746 0.60821,0.3698946 1.2275,-0.9948051 0.38153,-0.8407435 0.69718,-1.7270624 0.70144,-1.9695971 0.004,-0.2425347 0.17718,-0.4409722 0.38427,-0.4409722 0.83572,0 6.0698,-12.0576521 6.08717,-14.0229161 0.002,-0.242535 0.18449,-0.440973 0.4052,-0.440973 0.53058,0 3.04698,1.630614 5.57696,3.613835 1.83867,1.441313 2.35835,1.653153 5.29166,2.157065 1.78902,0.307335 4.76089,0.717643 6.60415,0.911796 5.20735,0.548496 13.44976,1.437395 14.81667,1.597897 1.70947,0.200725 4.18649,-0.32007 4.88524,-1.027125 0.5427,-0.549157 0.49783,-0.660727 -0.65191,-1.621027 -1.29671,-1.083051 -1.37879,-1.120664 -3.82797,-1.754074 -2.53065,-0.65448 -1.42696,-0.763982 2.22421,-0.220672 1.98125,0.294819 3.83265,0.393027 4.39092,0.232918 1.29129,-0.370336 2.50451,-1.151324 2.50451,-1.612227 0,-0.467733 -4.62942,-3.095475 -6.52639,-3.704497 -0.77611,-0.24917 -1.21338,-0.519472 -0.97171,-0.60067 0.24167,-0.0812 1.19417,0.08454 2.11666,0.368312 5.70551,1.755075 7.14533,1.957595 7.14533,1.005036 0,-0.329462 -1.80192,-2.042726 -3.70417,-3.52193 l -1.05833,-0.822967 1.5875,0.841467 c 0.87312,0.462806 2.06375,1.141698 2.64583,1.508647 l 1.05833,0.667181 -0.88194,-1.05992 c -0.48507,-0.582956 -0.1967,-0.348327 0.64082,0.521398 1.94658,2.021419 2.89871,3.903389 3.13549,6.197567 0.15458,1.497753 0.0265,2.143401 -0.71618,3.608914 -0.97128,1.916732 -3.66239,4.556538 -6.10346,5.9870989 l -1.50806,0.8837838 1.21596,1.6925273 c 2.53929,3.5345122 3.61921,7.3653296 2.96486,10.5173214 -0.2117,1.0197535 -0.62314,2.092325 -0.91431,2.3834972 -0.29118,0.2911722 -0.44549,0.529403 -0.34293,0.529403 0.10256,0 -0.56749,0.7052416 -1.48899,1.5672011 -1.84298,1.7238913 -11.53363,6.7858953 -16.46765,8.6020383 -4.77693,1.758318 -10.20303,2.92814 -18.18108,3.919692 -3.14265,0.390582 -3.82684,0.395725 -7.03419,0.05287 z m 15.1637,-10.702219 c 1.7179,-1.2126737 6.81111,-4.5861112 11.31825,-7.4965278 4.50714,-2.91041665 8.90569,-5.8965535 9.77455,-6.6358628 0.86886,-0.7393058 2.19403,-1.58998 2.94482,-1.890388 1.55258,-0.6212204 1.64846,-0.8284351 0.66696,-1.4413974 -0.56519,-0.3529633 -1.01861,-0.3291755 -2.38125,0.1249278 -3.06594,1.0217238 -17.26019,11.13013 -20.34696,14.4900384 -0.95177,1.0359848 -2.39889,2.3064718 -3.21582,2.8233018 -1.32195,0.83633 -2.62703,2.230769 -2.08781,2.230769 0.1121,0 1.60937,-0.992188 3.32726,-2.204861 z m 10.1856,-0.653616 c 1.64625,-0.573885 9.44876,-5.0878318 11.68931,-6.7625526 2.37601,-1.7759785 4.58611,-3.8194085 4.58611,-4.24025828 0,-0.17189802 -0.47539,0.0874748 -1.05643,0.57638597 -0.58104,0.48890766 -1.41447,0.99949352 -1.85208,1.13463563 -1.54442,0.47693438 -11.52028,6.61351788 -13.20231,8.12131128 -1.8433,1.652355 -1.85858,1.761003 -0.1646,1.170478 z m -23.60161,4.294141 c 0.18007,-0.336461 0.61388,-0.829161 0.96402,-1.094888 0.54425,-0.413032 0.57264,-0.411381 0.19565,0.01139 -0.55397,0.621228 -0.57631,1.18424 -0.0337,0.848882 0.23537,-0.145468 0.31215,-0.09778 0.18189,0.112984 -0.12397,0.20059 -0.54262,0.447658 -0.93033,0.549049 -0.5801,0.151698 -0.64696,0.07601 -0.37754,-0.427404 z m 3.44133,-4.081497 c 0.6077,-0.7761114 2.2581,-2.5223614 3.66756,-3.8805558 l 2.56264,-2.4694445 -2.84897,3.175 c -3.30441,3.6825553 -5.09569,5.3645783 -3.38123,3.1750003 z m 20.03153,-18.7036105 c 0.38806,-0.3159629 1.02306,-0.730353 1.41112,-0.9208674 l 0.70555,-0.3463893 -0.70555,0.5744774 c -0.38806,0.3159629 -1.02306,0.730353 -1.41112,0.9208675 l -0.70555,0.3463893 z"
         id="path1544" />
      <path
         style="fill:#50514c;stroke-width:0.352778"
         d="m -220.82304,23.380906 c -1.55028,-0.227922 -3.7964,-0.843766 -3.64168,-0.998481 0.0735,-0.07354 0.76425,0.01831 1.53491,0.204072 1.94884,0.469794 7.02549,0.457955 9.72633,-0.02268 11.95785,-2.127991 21.52892,-5.841245 29.25639,-11.350508 2.02791,-1.4457859 2.6536,-1.7768291 1.94735,-1.030323 -2.40955,2.546925 -8.65558,6.277825 -14.16406,8.460525 -7.70282,3.052198 -20.02283,5.419047 -24.65924,4.737399 z m -4.20363,-2.18145 c -0.1207,-0.19528 0.21779,-0.402918 0.75806,-0.465021 0.65465,-0.07525 1.01282,-0.344569 1.08755,-0.81776 0.0613,-0.388056 0.73597,-1.140609 1.4993,-1.672343 0.76334,-0.531732 1.38788,-1.19561 1.38788,-1.475282 0,-0.651965 1.72152,-1.8822 2.94406,-2.103889 0.51915,-0.09414 1.37881,-0.508018 1.91034,-0.91973 1.47176,-1.139973 4.31783,-3.9369544 4.31783,-4.2433525 0,-0.1493661 0.83343,-0.7944803 1.85208,-1.4335866 1.01864,-0.6391063 3.72601,-2.6561873 6.01637,-4.4823979 9.29343,-7.4100972 16.17054,-11.7152525 18.71409,-11.7152525 1.00097,0 1.01889,-0.027164 0.43994,-0.666902 -0.8804,-0.9728239 -4.29984,-2.7049775 -6.73776,-3.4130855 -1.40005,-0.406651 -3.37075,-0.618175 -5.82084,-0.624775 -2.03729,-0.0055 -3.22791,-0.110401 -2.64583,-0.233137 1.02155,-0.215399 1.00315,-0.233634 -0.52917,-0.524582 l -1.5875,-0.301425 1.17487,-0.254286 c 0.65445,-0.14165 2.76402,-0.02388 4.7625,0.265873 4.32145,0.626553 9.67321,0.626976 11.97068,9.52e-4 l 1.68028,-0.457852 -1.02869,-0.985541 c -0.56578,-0.542048 -1.79815,-1.362507 -2.7386,-1.823244 -1.90043,-0.931029 -1.70307,-1.039992 0.88018,-0.485982 1.40082,0.300422 2.13124,0.260889 3.72154,-0.201422 1.24378,-0.361585 1.97863,-0.767643 1.97863,-1.093345 0,-0.284972 -1.04273,-1.182902 -2.31717,-1.995399 -1.27445,-0.812497 -2.17624,-1.524247 -2.00398,-1.581668 0.17226,-0.05742 1.39902,0.304301 2.72613,0.803825 1.9132,0.720125 2.47325,0.813145 2.70413,0.449138 0.50284,-0.792748 0.34985,-1.076683 -1.55008,-2.87686 -1.49194,-1.413605 -1.61199,-1.601422 -0.61736,-0.965867 0.6791,0.433935 1.74146,1.105214 2.36081,1.491732 1.32588,0.827445 2.60095,3.266173 2.84644,5.444189 0.33849,3.00302 -2.49929,6.948149 -6.86855,9.5487759 l -1.4849,0.8838325 1.43425,2.1011776 c 2.05104,3.0047812 2.77028,5.13194295 2.77028,8.1931544 0,2.4984322 -0.0473,2.6395433 -1.57628,4.6970033 -1.30577,1.7571684 -2.1382,2.4319935 -4.85069,3.9323043 -7.70321,4.260741 -17.01016,7.875104 -22.10189,8.583299 -1.4745,0.205087 -2.77972,0.433944 -2.90047,0.508575 -0.20841,0.128802 -5.3579,0.454596 -10.72761,0.678702 -1.3582,0.05668 -2.7312,0.211335 -3.05112,0.343665 -0.31993,0.132334 -0.6798,0.08184 -0.79973,-0.112211 z m 15.49252,-7.843266 c 4.02428,-2.041994 4.5069,-2.378816 4.27486,-2.983481 -0.0918,-0.239299 0.17876,-0.7495219 0.60131,-1.1338274 1.02428,-0.9315732 12.29382,-8.5216576 14.5266,-9.78372715 0.97014,-0.54836485 2.55803,-1.59503175 3.52865,-2.32592385 0.97062,-0.730892 2.205,-1.4962752 2.74307,-1.7008475 1.27219,-0.4836865 1.623,-1.4000515 0.77373,-2.0210561 -0.96823,-0.7079844 -2.09051,-0.5867812 -4.14676,0.4478366 -4.23853,2.1326545 -15.40644,10.0921325 -19.47924,13.8830507 -0.97014,0.9029947 -2.24014,1.9420099 -2.82222,2.3089237 -0.58209,0.366913 -2.24896,1.641126 -3.70417,2.831585 -1.45521,1.190459 -3.11468,2.466975 -3.68772,2.836707 l -1.04188,0.672239 1.04188,0.193587 c 0.71765,0.133343 1.48102,-0.05982 2.453,-0.620716 0.77611,-0.447862 2.99861,-1.619822 4.93889,-2.60435 z m 4.7625,0.0341 c 0.45603,-0.294711 0.44671,-0.34272 -0.0674,-0.347377 -0.3281,-0.0028 -0.69465,0.153349 -0.81457,0.347377 -0.27594,0.446475 0.19108,0.446475 0.88195,0 z m 5.29166,-1.710366 c 3.39856,-1.8227142 11.96171,-7.0374894 13.58195,-8.271118 0.77611,-0.5909204 2.15701,-1.7875109 3.06867,-2.65908717 1.41239,-1.35029221 1.60251,-1.68754423 1.28539,-2.28009443 -0.35952,-0.6717736 -0.39787,-0.6638855 -1.12839,0.2320536 -0.76718,0.94089365 -1.94703,1.70769142 -8.83646,5.7429223 -2.1158,1.2392484 -5.21142,3.2625348 -6.87917,4.4961916 -1.66775,1.2336571 -3.38945,2.4601591 -3.82602,2.7255611 -0.43656,0.265398 -0.79375,0.756874 -0.79375,1.092168 0,0.733277 0.34757,0.62701 3.52778,-1.078597 z m 17.33111,-3.1403286 c 0.43881,-0.5595268 0.42633,-0.5720045 -0.13319,-0.1331948 -0.58764,0.4608583 -0.77452,0.7505559 -0.48417,0.7505559 0.0733,0 0.35107,-0.2778125 0.61736,-0.6173611 z m -54.19639,4.8819326 c 0.64816,-0.307216 0.63077,-0.336444 -0.21368,-0.359219 l -0.91923,-0.0248 0.85079,-2.734028 c 0.46793,-1.503715 1.09294,-3.1772646 1.38891,-3.7190007 0.29597,-0.5417326 0.67858,-1.9767338 0.85024,-3.1888924 0.17166,-1.212155 0.93896,-4.10266789 1.7051,-6.42336 0.76614,-2.3206922 1.65002,-5.2513159 1.96418,-6.5124965 0.65476,-2.6285664 1.98888,-6.4371264 2.18588,-6.2401284 0.0731,0.07307 -0.11641,0.832298 -0.42105,1.687182 -0.90372,2.535973 -3.73719,13.75140465 -3.58662,14.19655022 0.0764,0.22580953 0.35657,-0.18891955 0.62265,-0.92161782 0.27611,-0.7603455 0.66483,-1.262701 0.90557,-1.1703191 0.67899,0.2605511 1.34881,-0.7412284 3.86987,-5.787778 1.30854,-2.6193753 2.6627,-5.0819773 3.00924,-5.4724503 1.03754,-1.16906 2.19279,-4.122466 2.27516,-5.816438 0.11793,-2.425489 0.12738,-2.469445 0.53068,-2.469445 0.51082,0 3.00194,1.738023 5.288,3.689363 1.13965,0.972788 2.23193,1.607241 2.78017,1.61487 0.49667,0.0069 1.85553,0.242557 3.0197,0.523656 1.16417,0.281099 2.75167,0.528809 3.52778,0.550466 0.77611,0.02166 2.20486,0.256299 3.175,0.521427 l 1.76389,0.482051 -2.82223,-0.170404 c -1.55222,-0.09372 -3.51247,-0.266869 -4.3561,-0.384769 -1.35338,-0.189138 -1.51934,-0.1388 -1.41023,0.427756 0.14706,0.763609 2.99221,2.303456 4.79857,2.597071 l 1.28053,0.208145 -1.86464,0.967406 c -1.02554,0.5320734 -2.08427,0.9674064 -2.35271,0.9674064 -0.66899,0 -2.66872,-1.2466034 -2.41182,-1.5034994 0.11409,-0.114096 -0.0761,-0.165835 -0.42262,-0.114974 -0.43335,0.0636 -0.66882,0.46837 -0.75422,1.2964455 -0.26371,2.5572491 -0.90569,3.6770892 -3.67341,6.4077373 -2.75169,2.71484021 -5.95815,6.7945176 -7.76953,9.8854012 -1.6192,2.7629662 -8.2888,6.779221 -11.88037,7.154055 -1.1962,0.124837 -1.44839,0.0807 -0.93345,-0.163372 z m 17.39437,-28.086406 c -0.10861,-0.108616 -0.30587,0.08718 -0.43835,0.435092 -0.19145,0.502779 -0.15093,0.5433 0.19748,0.197484 0.2411,-0.239302 0.34949,-0.52396 0.24087,-0.632576 z m -15.65404,14.57974117 c 1.2546,-3.98112187 1.71263,-5.23781857 1.85659,-5.09386407 0.23056,0.2305614 -1.3275,5.13670188 -1.70546,5.37029721 -0.16273,0.10057341 -0.23074,-0.0238125 -0.15113,-0.27643314 z m 6.91832,-18.02171717 c -0.0408,-0.722327 1.838,-3.802233 2.54157,-4.166468 0.73277,-0.379351 0.72223,-0.332559 -0.13621,0.604694 -0.51173,0.558725 -1.25878,1.650863 -1.6601,2.426974 -0.40132,0.776111 -0.73668,1.286771 -0.74526,1.1348 z"
         id="path1542" />
      <path
         style="fill:#42433d;stroke-width:0.352778"
         d="m -218.59613,23.379855 c 0.25466,-0.101907 0.55893,-0.08938 0.67615,0.02783 0.11723,0.117225 -0.0911,0.200604 -0.46302,0.185286 -0.41096,-0.01693 -0.49456,-0.10052 -0.21313,-0.213134 z m -3.19294,-0.361297 c 0.43883,-0.08438 1.07383,-0.08118 1.41111,0.0071 0.33729,0.0883 -0.0217,0.157339 -0.79786,0.153423 -0.77611,-0.0039 -1.05207,-0.07616 -0.61325,-0.160542 z m 7.84519,-0.258925 c 7.6655,-1.272494 17.18747,-4.18538 22.63529,-6.924407 2.67185,-1.343342 6.5711,-3.812229 8.76193,-5.547797 l 1.5875,-1.2576106 -1.04058,1.1265356 c -1.54542,1.673081 -5.68411,4.423477 -9.60406,6.382456 -6.52589,3.261275 -16.24119,6.036856 -22.86924,6.53355 l -2.46945,0.185053 z m -5.89993,-2.861218 c 0.15052,-0.161647 0.58872,-0.341983 0.97378,-0.400749 0.38506,-0.05876 1.77004,-0.763531 3.07772,-1.566143 4.54118,-2.787237 5.63832,-3.40978 7.32107,-4.154141 1.81651,-0.803529 2.64849,-0.773413 0.99229,0.03592 -0.55627,0.271832 -0.95687,0.72844 -0.90638,1.033078 0.0562,0.338807 -0.57547,0.908399 -1.66482,1.501298 -0.96543,0.525452 -1.85036,1.109141 -1.96652,1.297083 -0.39644,0.641463 -2.80628,1.642152 -4.4846,1.862247 -0.9215,0.12084 -2.11213,0.324474 -2.64584,0.452511 -0.53371,0.128041 -0.84722,0.100542 -0.6967,-0.0611 z m 5.72354,-0.510907 c 0.11992,-0.194028 0.28804,-0.352778 0.3736,-0.352778 0.0856,0 0.15557,0.15875 0.15557,0.352778 0,0.194028 -0.16812,0.352778 -0.3736,0.352778 -0.20548,0 -0.27548,-0.15875 -0.15557,-0.352778 z m 2.71402,-1.214166 c 1.08643,-0.654463 3.91979,-1.929751 6.29633,-2.833977 2.37655,-0.904226 5.21082,-2.245825 6.29838,-2.981332 2.36327,-1.598256 8.00061,-5.1713127 10.40076,-6.5922063 0.94632,-0.5602287 2.45445,-1.6621583 3.35138,-2.4487363 0.89694,-0.7865781 2.30549,-1.9508541 3.13011,-2.58728282 0.82461,-0.63642874 1.4993,-1.28496482 1.4993,-1.44119599 0,-0.15622763 -0.31614,-0.65882309 -0.70253,-1.11688389 l -0.70254,-0.8328307 -0.97316,1.0755489 c -1.13205,1.25116166 -3.28137,2.6765073 -8.91066,5.9092147 -2.23132,1.28137 -5.40632,3.2921222 -7.05555,4.4683362 -2.84288,2.0275052 -5.59469,3.5399552 -6.44074,3.5399552 -1.50643,0 8.96751,-7.7740046 12.76399,-9.4737373 2.02231,-0.9054148 5.18468,-3.13190467 6.71191,-4.7255677 0.69728,-0.7276041 1.49087,-1.3229166 1.76353,-1.3229166 0.27267,0 0.93163,-0.5159375 1.46436,-1.1465278 l 0.96859,-1.1465278 0.7561,1.6910756 c 0.8319,1.8606099 1.76781,5.1812366 1.76781,6.27223 0,0.3833143 -0.59531,1.5602162 -1.32291,2.6153392 -0.99952,1.4494228 -2.12202,2.4300886 -4.5917,4.0115102 -1.79783,1.1512092 -3.68752,2.1982002 -4.1993,2.3266502 -0.51178,0.12845 -1.62606,0.712093 -2.47617,1.296984 -1.68868,1.161839 -10.8688,5.03059 -13.69186,5.770122 -0.97014,0.254137 -3.18519,0.55221 -4.92233,0.662379 l -3.15844,0.200307 z m -23.35152,-5.319201 c 1.13337,-0.531082 1.51971,-0.821626 0.92899,-0.698637 -2.60304,0.541947 -3.04565,0.605035 -3.04565,0.434096 0,-0.836983 1.59146,-5.01106 2.31977,-6.0842805 0.50184,-0.7395069 1.20445,-2.0726012 1.56136,-2.9624337 0.35691,-0.8898326 0.80355,-1.5837676 0.99254,-1.5420799 0.189,0.041691 0.9189,-0.9901837 1.62201,-2.2930555 0.70311,-1.3028683 1.9967,-3.5594784 2.87465,-5.0146867 2.63661,-4.3702047 6.49907,-12.5606727 6.73496,-14.2816827 l 0.21947,-1.601199 1.04371,0.660832 c 0.57404,0.363458 1.94128,1.448642 3.03832,2.41152 1.09703,0.962878 2.43302,2.036131 2.96888,2.385007 0.53585,0.348876 1.06951,1.013744 1.1859,1.477483 0.11639,0.463739 0.47172,1.011871 0.78961,1.218071 0.51986,0.337204 0.5159,0.355604 -0.0394,0.182955 -0.33955,-0.105574 -0.61736,-0.0554 -0.61736,0.111508 0,0.401047 1.57177,0.784307 2.21081,0.539084 0.27665,-0.106159 1.20207,0.05042 2.05651,0.347958 0.85443,0.297535 1.87102,0.550457 2.25907,0.562049 0.48134,0.01438 0.20108,0.291206 -0.88194,0.871137 -1.47923,0.7920866 -3.2816,1.2747822 -2.20301,0.5899901 0.30542,-0.1939051 0.0554,-0.4659091 -0.80572,-0.8765421 -1.49232,-0.711642 -1.6994,-0.735064 -1.36526,-0.15442 0.14744,0.256203 0.11921,0.317793 -0.0674,0.146991 -0.17663,-0.16169 -0.34099,-0.439503 -0.36524,-0.617361 -0.10721,-0.786189 -0.16226,-0.822891 -0.48507,-0.32338 -0.18809,0.291041 -0.3444,1.10079 -0.34738,1.7994405 -0.01,2.2501391 -0.76639,3.5837012 -3.68393,6.4912462 -3.18835,3.17743767 -5.12939,5.6112092 -7.17425,8.995424 -0.97805,1.6186503 -1.99815,2.7302213 -3.46847,3.7794706 -2.83189,2.0209017 -6.68782,3.8738417 -8.6093,4.1371447 l -1.5875,0.217537 z m 4.66749,-2.04924 c 0.53733,-0.397267 0.97696,-0.786906 0.97696,-0.8658684 0,-0.1401234 -3.17783,1.6247324 -3.52778,1.9592044 -0.49544,0.47353 1.71024,-0.471876 2.55082,-1.093336 z m 6.27419,-11.80076235 c 0.4147,-1.10991295 1.05934,-2.51300895 1.43255,-3.11799105 0.3732,-0.6049857 0.67855,-1.3458649 0.67855,-1.6463963 0,-0.7320156 2.38482,-5.2151993 3.16915,-5.9576373 0.81297,-0.769547 1.36119,-6.388055 0.70093,-7.183617 -0.66735,-0.804114 -1.04786,-0.613204 -1.04786,0.525742 0,0.573257 -0.37582,2.041694 -0.83516,3.263194 -1.88068,5.001156 -4.78445,11.943965 -5.30823,12.6917657 -0.30766,0.4392471 -0.55938,1.1625897 -0.55938,1.60742484 0,0.44483866 -0.47625,1.65266509 -1.05834,2.68406026 -1.4566,2.5809505 -1.3058,2.8230513 0.52174,0.8376215 0.89039,-0.9673131 1.8735,-2.54646994 2.30605,-3.70416665 z m 20.77439,5.10563985 c 0.27238,-0.3431611 1.1455,-1.1308256 1.94027,-1.7503669 0.79478,-0.6195413 1.2222,-0.8456683 0.94982,-0.5025073 -0.27238,0.3431611 -1.1455,1.1308257 -1.94027,1.7503669 -0.79478,0.6195413 -1.2222,0.8456683 -0.94982,0.5025073 z m 7.79505,-6.0170342 c 0,-0.098936 1.35252,-1.0798245 3.00562,-2.1797539 3.50202,-2.3301663 7.5719,-4.150675 8.51732,-3.809911 1.27578,0.459832 -1.05378,-1.6815163 -2.7917,-2.5661564 -0.92163,-0.469132 -1.67569,-0.902173 -1.67569,-0.962315 0,-0.06014 0.4988,-0.03614 1.10845,0.05334 0.76785,0.112697 1.03245,0.03972 0.86112,-0.237487 -0.13602,-0.220095 -0.55545,-0.400173 -0.93206,-0.400173 -0.3766,0 -0.68473,-0.140235 -0.68473,-0.311633 0,-0.479964 1.35791,-0.736593 3.92555,-0.741883 2.49622,-0.0051 3.139,-0.361558 3.03929,-1.68525 -0.0418,-0.555185 -0.52268,-0.966 -1.74738,-1.492853 -0.92932,-0.399786 -1.68968,-0.762157 -1.68968,-0.805271 0,-0.04311 0.75406,-0.08461 1.67569,-0.09222 3.02636,-0.02498 5.08217,-0.497955 4.95837,-1.140756 -0.0979,-0.508231 -1.68371,-1.87191 -3.67267,-3.15818 -0.58126,-0.375896 -0.54866,-0.391085 0.25015,-0.116566 0.50516,0.173607 1.53469,0.645915 2.28783,1.049575 1.87153,1.003081 2.03002,0.943876 1.8126,-0.677118 -0.26148,-1.949499 0.24221,-2.061397 1.1197,-0.248748 2.21408,4.573689 0.72384,8.246213 -4.90747,12.093921 -1.92995,1.3186759 -2.37151,1.7781094 -2.06448,2.1480526 0.26789,0.3227846 0.27272,0.470596 0.0154,0.470596 -0.20633,0 -0.47326,-0.15875 -0.59318,-0.3527777 -0.11992,-0.1940278 -0.53902,-0.3527778 -0.93135,-0.3527778 -0.73329,0 -5.35579,2.1823186 -6.30059,2.9745622 -0.75625,0.6341357 -4.58611,2.7567819 -4.58611,2.541785 z m -3.59393,-11.0490013 c 0.25466,-0.101907 0.55893,-0.08937 0.67616,0.02785 0.11722,0.117225 -0.0911,0.200604 -0.46302,0.185286 -0.41097,-0.01693 -0.49456,-0.100521 -0.21314,-0.213136 z m 4.56406,0.0073 c 0.24254,-0.09786 0.63941,-0.09786 0.88195,0 0.24253,0.09787 0.0441,0.177937 -0.44097,0.177937 -0.48507,0 -0.68351,-0.08007 -0.44098,-0.177937 z"
         id="path1540" />
      <path
         style="fill:#3d403d;stroke-width:0.352778"
         d="m -221.79318,23.034426 c 0.24253,-0.09786 0.63941,-0.09786 0.88194,0 0.24254,0.09786 0.0441,0.177937 -0.44097,0.177937 -0.48507,0 -0.68351,-0.08007 -0.44097,-0.177937 z m 6.00133,-0.01588 c 0.43883,-0.08438 1.07383,-0.08118 1.41111,0.0071 0.33729,0.0883 -0.0217,0.157339 -0.79786,0.153423 -0.77611,-0.0039 -1.05207,-0.07616 -0.61325,-0.160542 z m 3.61186,-0.50842 c 8.63991,-1.793808 15.66881,-4.062144 21.20868,-6.844372 2.38754,-1.199067 6.85687,-3.999639 8.62158,-5.40245 0.39935,-0.3174537 0.16123,-0.04458 -0.52917,0.606376 -3.37922,3.186222 -10.12754,6.76166 -17.07996,9.049413 -4.43399,1.459036 -11.39134,3.038338 -13.03279,2.958409 -0.42671,-0.02078 -0.0615,-0.186098 0.81166,-0.367376 z m -2.60828,-4.327987 c 0.27622,-0.719833 2.81552,-2.322414 3.67987,-2.322414 1.05207,0 0.56165,0.563767 -1.53792,1.767928 -2.0558,1.179054 -2.41756,1.272703 -2.14195,0.554486 z m 7.1062,0.247745 c -0.33955,-0.08385 -0.61237,-0.339245 -0.60628,-0.567552 0.0172,-0.642423 1.31945,-1.431728 4.39864,-2.665974 2.88797,-1.157594 7.20452,-3.526165 8.46667,-4.645808 0.38805,-0.344244 2.68993,-1.8504674 5.11527,-3.3471659 5.13827,-3.1708513 9.34739,-6.24697825 9.659,-7.05900918 0.38539,-1.00430894 0.23642,-1.79822472 -0.4548,-2.42376672 -0.64502,-0.5837414 -0.7208,-0.5576817 -1.78774,0.6147999 -1.2698,1.39541602 -2.04717,1.90135226 -9.35673,6.0896252 -2.91042,1.6676264 -5.68361,3.1064235 -6.16266,3.1973308 -0.47904,0.090904 -1.11404,0.3543124 -1.41111,0.5853501 -0.47674,0.370773 -0.48133,0.3452354 -0.0391,-0.2176286 0.27557,-0.3507317 1.22807,-1.0563437 2.11667,-1.5680267 0.88859,-0.5116865 2.10061,-1.2915229 2.69337,-1.7329714 0.59277,-0.441452 1.86277,-1.1440513 2.82223,-1.5613309 0.95945,-0.4172797 2.22071,-1.1128904 2.8028,-1.5457981 0.58208,-0.4329078 1.53458,-1.03439739 2.11666,-1.33663975 0.58209,-0.30224589 2.11684,-1.59577265 3.41056,-2.87450735 1.29372,-1.2787383 2.42638,-2.3249749 2.51703,-2.3249749 0.33169,0 1.30436,3.5195651 1.30436,4.71977151 0,0.67969693 0.15875,1.33392329 0.35278,1.45383949 0.6924,0.4279301 0.34565,2.2050093 -0.68277,3.499104 -0.56955,0.7166892 -1.08549,1.4224459 -1.14653,1.5683512 -0.19142,0.457574 -3.15916,2.3421657 -6.46098,4.1029003 -1.74625,0.93121 -3.73216,2.044545 -4.41313,2.47408 -1.35397,0.854047 -12.33455,5.287222 -13.75493,5.553259 -0.48507,0.09085 -1.15975,0.09659 -1.4993,0.01273 z m -2.20486,-3.628492 c 0.11991,-0.194028 0.37677,-0.352778 0.5708,-0.352778 0.19403,0 0.25467,0.15875 0.13475,0.352778 -0.11991,0.194028 -0.37677,0.352778 -0.5708,0.352778 -0.19403,0 -0.25467,-0.15875 -0.13475,-0.352778 z M -236.49226,13.6081 c 0.0808,-0.07423 1.31081,-0.551706 2.73324,-1.061067 2.55834,-0.916119 5.93635,-2.9225809 5.55775,-3.3011785 -0.10772,-0.1077242 -1.03169,0.354136 -2.05326,1.0263615 -1.58073,1.040161 -5.82356,2.620895 -6.15231,2.292138 -0.35734,-0.357339 1.33968,-4.9581118 2.11469,-5.7331222 0.50191,-0.5019146 1.72934,-2.5026585 2.72762,-4.4460936 0.99827,-1.94343512 2.32907,-4.1120095 2.95733,-4.8190502 1.32257,-1.4884153 7.40144,-13.964987 7.91268,-16.240374 0.18984,-0.844907 0.25129,-1.780815 0.13656,-2.079796 -0.22768,-0.593339 0.30304,-0.387591 1.38053,0.535196 0.54708,0.468533 0.5425,0.664547 -0.0669,2.863628 -0.58574,2.113725 -4.04019,10.4228113 -6.47567,15.5760945 -0.50434,1.06715273 -0.92141,2.25777772 -0.92682,2.64583327 -0.005,0.38805553 -0.48984,1.57647213 -1.0765,2.64092613 -0.58737,1.0657135 -0.90396,1.9896067 -0.70457,2.0560665 0.19915,0.066386 -0.46891,0.8867281 -1.48459,1.8229827 -1.76574,1.6276708 -2.18537,2.7709599 -0.61275,1.6694538 0.89158,-0.6244872 3.0117,-3.4269292 2.59256,-3.4269292 -0.16032,0 0.15839,-0.4171597 0.70825,-0.9270224 1.43807,-1.3334506 2.98419,-3.88044611 5.64757,-9.303533 1.28642,-2.619375 2.77461,-5.5492223 3.30708,-6.5107713 0.74636,-1.347803 0.99795,-2.338924 1.09833,-4.326795 0.0859,-1.700856 -0.0178,-2.756846 -0.30459,-3.102423 -1.01109,-1.21829 0.21306,-0.374821 2.18363,1.504573 2.70335,2.578267 3.19425,3.542488 3.15683,6.200625 -0.0464,3.295087 -0.51969,4.2023013 -4.04841,7.7598214 -2.76084,2.78337427 -5.35132,6.1828714 -7.76225,10.1864335 -0.84007,1.3950138 -6.70417,5.1234661 -9.33733,5.9367671 -2.05369,0.634319 -3.57883,0.901093 -3.2087,0.561255 z m 32.42616,-2.331057 c 0,-0.624018 3.31695,-2.8140024 3.59085,-2.3708253 0.33929,0.5489857 -0.28591,1.2284323 -1.8775,2.0404033 -1.52371,0.777335 -1.71335,0.813908 -1.71335,0.330422 z m 20.41289,-19.645296 c -0.26452,-0.3212546 -1.10437,-1.0369909 -1.86633,-1.590525 -0.91975,-0.668163 -1.15689,-0.979531 -0.70555,-0.926404 1.29424,0.152344 3.3774,-0.480871 3.18984,-0.969617 -0.11459,-0.298632 0.3904,-0.681298 1.41597,-1.072967 1.22078,-0.46622 1.55547,-0.756507 1.42915,-1.239567 -0.0907,-0.346928 0.0166,-0.698612 0.23856,-0.78152 0.22194,-0.08291 -0.35054,-0.481752 -1.27217,-0.886322 -1.66601,-0.731329 -2.32132,-1.365894 -0.96649,-0.935888 0.82278,0.261144 4.25485,-0.109816 4.94134,-0.534092 0.38153,-0.235798 0.36629,-0.442926 -0.0831,-1.12872 -0.51567,-0.787006 -0.50584,-0.843279 0.15596,-0.893131 0.97266,-0.07327 1.01152,-0.159859 0.64515,-1.437328 -0.25197,-0.878573 -0.21522,-1.123163 0.16876,-1.123163 0.51538,0 1.57654,3.01886 1.57654,4.485083 0,2.269642 -2.20703,5.382718 -5.41557,7.6388043 -2.9461,2.0715548 -2.908,2.056154 -3.4521,1.3953567 z m -25.06339,-1.4775409 c 0.33808,-0.2143721 0.17296,-0.4155901 -0.60566,-0.7381081 -1.88766,-0.781891 -1.92794,-1.2642 -0.0938,-1.123545 0.90521,0.06942 1.84221,0.285659 2.08222,0.480533 0.24002,0.194873 0.87502,0.257588 1.41111,0.139366 0.72296,-0.159429 0.56467,0.0085 -0.61277,0.65022 -1.49168,0.8129456 -3.30645,1.3051376 -2.18106,0.5915341 z"
         id="path1538" />
      <path
         style="fill:#2f3331;stroke-width:0.352778"
         d="m -221.77113,23.027077 c 0.25466,-0.101907 0.55893,-0.08938 0.67615,0.02784 0.11723,0.117224 -0.0911,0.200603 -0.46302,0.185286 -0.41096,-0.01693 -0.49456,-0.100521 -0.21313,-0.213135 z m 6.15156,-0.0021 c 0.33955,-0.08873 0.89517,-0.08873 1.23472,0 0.33955,0.08873 0.0617,0.161336 -0.61736,0.161336 -0.6791,0 -0.95691,-0.0726 -0.61736,-0.161336 z m 5.90903,-0.978532 c 10.86285,-2.370264 19.2955,-5.852435 25.84857,-10.67388 1.77545,-1.306294 2.1214,-1.4848985 1.13893,-0.587979 -5.12401,4.677788 -16.09367,9.54508 -25.68249,11.395446 -5.06944,0.978252 -5.97549,0.885507 -1.30501,-0.133587 z m 5.81734,-5.828273 c 0.11799,-0.190923 1.35768,-0.918679 2.75485,-1.617243 1.39717,-0.69856 3.33406,-1.790114 4.3042,-2.425679 5.09402,-3.337235 8.18029,-5.2505782 9.98627,-6.1910343 1.10449,-0.5751583 2.80192,-1.7566075 3.77206,-2.6254428 1.7244,-1.5443341 1.77877,-1.5649292 2.42898,-0.9200303 0.65153,0.6462254 0.65024,0.6836551 -0.0635,1.8368645 -1.16674,1.8851668 -2.46808,2.9284259 -6.62824,5.3137082 -5.21874,2.9922257 -7.32101,3.9975997 -9.84836,4.7098057 -1.16417,0.328058 -3.0247,0.972157 -4.13451,1.431325 -2.1705,0.898017 -2.91227,1.038691 -2.57176,0.487726 z m -31.21734,-2.931809 c 0,-0.105675 0.83343,-0.464062 1.85208,-0.796417 1.64706,-0.537387 4.39315,-2.265984 6.96736,-4.3857934 1.34453,-1.1071895 -2.66888,0.902275 -4.23333,2.1195774 -0.6791,0.528408 -1.75066,1.07279 -2.38125,1.209742 -1.82114,0.395513 -1.36146,-0.384525 0.61309,-1.040363 1.33229,-0.4425175 2.12901,-1.0276983 3.28064,-2.4096029 2.15957,-2.5913891 5.22876,-7.61826424 7.50023,-12.2842371 1.07228,-2.2026407 2.5787,-5.1667611 3.34761,-6.586935 1.14606,-2.116788 1.39801,-2.931574 1.39801,-4.521109 0,-1.066436 -0.16433,-2.246037 -0.36519,-2.621337 -0.57313,-1.070911 -0.0996,-0.815378 1.82481,0.984647 2.28979,2.141836 3.2268,3.969611 3.17662,6.196536 -0.0734,3.2586983 -0.56962,4.247497 -3.70267,7.3783052 -3.12771,3.12548411 -6.38218,7.2813615 -7.59388,9.6971943 -0.82047,1.6358305 -3.69445,3.8808945 -7.31775,5.7164185 -2.06024,1.043689 -4.36638,1.753203 -4.36638,1.343374 z m 21.3554,-28.094405 c -0.82155,-1.588693 -0.90639,-1.324712 -0.2445,0.760677 0.40209,1.266823 0.61919,1.60511 0.69453,1.082211 0.0603,-0.418372 -0.14223,-1.247673 -0.45003,-1.842888 z m -21.77422,25.857815 c 0.38911,-0.750002 0.91044,-1.8057496 1.15852,-2.3461099 0.26854,-0.5849302 0.64379,-0.9085192 0.92736,-0.7996978 0.44973,0.1725754 0.7338,-0.2082306 0.95266,-1.2770873 0.39286,-1.9186807 2.53185,-6.47688703 3.68353,-7.8496547 0.66366,-0.7910724 1.64097,-2.3908103 2.17178,-3.5549769 0.53082,-1.1641667 1.95096,-4.1804166 3.15586,-6.7027774 1.20491,-2.522361 2.45005,-5.617986 2.76699,-6.879167 0.6996,-2.783891 0.66409,-2.728105 1.31941,-2.072786 1.03987,1.03987 -0.0122,4.243148 -4.7939,14.5963971 -1.52343,3.2984722 -2.84798,6.43564376 -2.94346,6.9714956 -0.4059,2.2779778 -2.8406,5.9467855 -5.6371,8.4944372 -1.52484,1.3891541 -2.92919,2.5837441 -3.12077,2.6546491 -0.19159,0.07091 -0.03,-0.48472 0.35912,-1.234722 z m 48.18761,-10.11448812 c 0.56416,-0.4257816 1.72475,-1.36946215 2.57909,-2.09706628 0.85435,-0.7276042 1.69176,-1.3229167 1.86091,-1.3229167 0.16915,0 0.40832,-0.3175 0.53148,-0.7055555 0.26912,-0.847919 1.07387,-0.9280278 1.37737,-0.1371106 0.1498,0.3903662 0.065,0.5096651 -0.27082,0.3808165 -0.2771,-0.1063343 -1.08129,0.4197103 -1.85608,1.2141129 -1.38862,1.42377586 -4.33916,3.4971884 -4.9258,3.4614697 -0.17704,-0.010795 0.13969,-0.3679649 0.70385,-0.79375002 z m 4.08954,-9.01087038 c 0,-0.1782248 0.3175,-0.4070731 0.70555,-0.5085517 0.38806,-0.1014787 0.70556,-0.1255794 0.70556,-0.053557 0,0.072022 -0.3175,0.3008708 -0.70556,0.5085517 -0.38979,0.2086106 -0.70555,0.2325794 -0.70555,0.053557 z m -1.76389,-1.5357831 -1.23472,-1.0939034 1.34452,0.7597473 c 1.04505,0.5905289 1.49906,0.677042 2.03835,0.3884207 0.38161,-0.2042301 0.60742,-0.511143 0.50181,-0.682029 -0.10561,-0.170886 -0.0307,-0.410414 0.16651,-0.532286 0.19719,-0.121872 0.35853,-0.527586 0.35853,-0.901587 0,-0.446872 0.43396,-0.861321 1.2658,-1.208884 0.71349,-0.298118 1.20138,-0.722103 1.11817,-0.971723 -0.18374,-0.551221 0.32323,-1.071056 1.77842,-1.823564 1.0385,-0.537032 1.30487,-0.940575 1.15737,-1.753425 -0.0305,-0.168094 0.2062,-0.704969 0.52601,-1.193055 0.4588,-0.700217 0.6466,-0.784586 0.89023,-0.39993 0.53087,0.838203 0.35015,2.49417 -0.45492,4.168481 -0.88983,1.850592 -4.41842,5.4282419 -5.09698,5.1678538 -0.25077,-0.096231 -0.56494,0.00138 -0.69814,0.2169128 -0.15933,0.2578037 -0.0727,0.2935298 0.25328,0.1044226 0.27252,-0.1581002 0.37319,-0.1529362 0.22371,0.011476 -0.14947,0.1644121 -0.54635,0.3221002 -0.88194,0.3504184 -0.3356,0.028317 -0.92768,0.1493784 -1.31573,0.2690227 -0.49151,0.1515409 -1.08014,-0.1143258 -1.94028,-0.8763689 z m -23.63611,-0.8108294 c -1.00254,-0.573105 -0.66708,-0.7222 0.37278,-0.165682 0.49892,0.267013 0.95627,0.220198 1.72318,-0.176389 1.51051,-0.781114 1.83773,-0.635956 0.37348,0.165682 -1.48096,0.8107921 -1.37314,0.803091 -2.46944,0.176389 z"
         id="path1536" />
    </g>
  </g>
</svg>
