<svg xmlns="http://www.w3.org/2000/svg" width="277.3" height="277.3" viewBox="0 0 73.4 73.4">
  <path d="M44.8 210.1v-36.7H118v73.4H44.8Z" style="fill:#fefefe;stroke-width:.352778" transform="translate(-44.5 -173.2)"/>
  <path d="M74.8 243.6a19 19 0 0 1-7.3-3.6c-.8-.7-1.9-2-2.4-3-1-1.8-1-2-1-6.6 0-6-.3-8.8-2-14.3a59 59 0 0 1-3-15c-.2-2.1-.5-4.6-.8-5.6-1.3-4 1.1-8.2 6.2-10.8a41 41 0 0 0 3.4-2c1.8-1.2 2-1.3 4.7-1.2 2.4 0 3.1 0 5.5-1l2.8-1.2 2.7.6c1.7.4 3 1 3.5 1.5l1 .9 1.8-2c2.6-2.5 4.6-3.1 10-3 4.5.3 6 .8 8 3 2.1 2.5 3.5 6.5 3.5 10.3 0 5.2-4.6 10.3-9.8 11-1 0-2 .2-2.1.4a9 9 0 0 0-.8 3.3c-.4 3.5-1 6.3-2.5 11.5-1 3.6-1 4-1 10.4v6.7l-1 2.2c-2.4 4.8-8.5 8-15.2 7.8-1.5 0-3.4-.1-4.2-.3zm-2.9-47.7.3-1.2c.1-.4 0-.5-.2-.3-.3.1-.4 0-.4-.6 0-.8 0-.7-1 .4-1.3 1.3-1.4 1.7-.3 1.9 1.4.3 1.6.3 1.6-.2zm4 0c0-.1 0-.2.3 0 .2 0 .3-.1.3-.4 0-.4.3-1 .7-1.6 1.3-1.8 1.2-2-.5-.4-1.1 1-1.9 1.4-2.3 1.3-.9-.2-1.3.4-.7 1 .5.6 2.1.7 2.1.2zm-7.6-3.4c.4 0 .5-.1.1-.5-.3-.5-.5-.4-1 .1l-1.6 1.3c-.5.3-.8.7-.7.9 0 .2.7-.2 1.4-.8.7-.5 1.5-1 1.8-1zm-.9-2.2c-.2-.3-.4-.3-.4 0 0 .4.4.8.6.6.1-.1 0-.4-.2-.6zm-.2-2.6c0-1.1.1-1.6.4-1.6.7 0 .3-.8-.4-1-1.3-.2-1.6.5-1 2.6.7 2.2 1.1 2.2 1 0zm-4.3 1c.2-.5.1-.5-.3-.1-.6.5-.7.7-.2.7.1 0 .4-.3.5-.6zm15.7-4.4c0-.2.2-.3.5-.3.2 0 1 0 1.8-.2.9-.1 1.6-.1 2 .1.5.3.8.2 1.7-.4l1.1-.8-1-.1c-3.6-.3-6.7.4-6.7 1.6 0 .3.2.5.3.5.2 0 .3-.2.3-.4z" style="fill:#f5f9cd;stroke-width:.352778" transform="translate(-44.5 -173.2)"/>
  <path d="M74.8 243.6a19 19 0 0 1-7.3-3.6c-.8-.7-1.9-2-2.4-3-.9-1.7-1-2-1-8.4l-.2-6.7-1.8-5.8c-2.2-7-2.4-8.2-2.9-14.1a44 44 0 0 0-.9-6.4c-1.3-4 1-8.3 6.2-10.9a41 41 0 0 0 3.4-2c1.8-1.2 2-1.3 4.7-1.2 2.4 0 3.1 0 5.5-1l2.8-1.2 2.7.6c1.7.4 3 1 3.6 1.5l1 1 1.5-1.8c2.2-2.4 3.7-3 8.4-3.2 4.5-.2 6.9.4 9 2.1a16 16 0 0 1 4.3 10.8 12 12 0 0 1-9.3 11.2c-3.6.5-3.4.4-3.4 2.2 0 2.6-.6 5.9-2.2 11.5l-1.5 5.3.1 6.7.1 6.7-1 2.2c-2.4 4.8-8.5 8-15.2 7.8-1.5 0-3.4-.1-4.2-.3zm2-44.7c.3-.6.6-1.1.8-1.1l1.8-.7c.8-.4 2-.7 2.7-.7.7 0 1-.2 1-.4-.2-.2 0-.4.3-.4s.5-.3.5-.7c0-.5-.2-.7-.8-.7-.4 0-1 .2-1.1.4l-2.2.4c-1.5 0-1.8 0-1.6-.4.3-.7 1.5-2.5 2.5-3.6.7-.8.8-1 .3-1-.3 0-.7.2-1 .5-.7.9-.8.4-.1-.7.5-1 .5-1 0-.2l-2.2 2.5a11 11 0 0 0-1.5 1.7c0 .7-3.7-.2-4.5-1-.3-.4-1-.7-1.5-.7-1.6 0-2.3-1-2-3.2.3-2.4.6-2.7 2.4-2.6l1.5.2-1.2-.6c-1.1-.5-1.1-.5-.5-1 .4-.4.2-.4-.6 0a5 5 0 0 0-1.4 1c-.2.1-.4 0-.5-.3-.3-.9-1.4-.6-3 .8-1 .8-1.8 1.3-2 1.2-.3 0-.6.3-.7.8-.1.5-.4.8-.5.7-.4-.2 0 1.4.6 1.9.6.6.9.5.6-.3-.2-.9.6-2.8 1.7-3.8 1-1 1-1.1 1.9 2.6l.5 2.4-1.4 1.4c-1.3 1.1-1.4 1.3-.9 1.5.4.1 1 .5 1.2.7a11 11 0 0 0 2.5 1.9l.7-.3c.6-.4 1.4-.1 1.4.5s.8.7 1.3.2c.2-.2.7-.4 1.2-.4.7-.1.9 0 .8.6 0 .5.1 1 .4 1 .3.2.6.5.6.9 0 .7 1.1 1.1 1.3.5l.7-1.5zm-9-4.4.2-1.6c0-.2 2.2 0 2.2.1 0 .4-2 3-2.3 3-.1 0-.2-.7 0-1.5zm8.4-2c0-.2-.2-.4-.4-.4s-.3.2-.2.4l.4.3s.2-.1.2-.3zM79 185c.2-.5 2.7-1 3.9-.8a3 3 0 0 0 2-.4c.9-.4 1.3-.5 1.6-.2.5.5 1 .5 1 0 0-.3-1.1-.7-2.2-.8l-1.7-.4c-1.4-.3-4.3.4-5.3 1.3-.4.4-1 .6-1.3.4-.4 0-.2.2.4.6 1.2.8 1.5.9 1.6.3z" style="fill:#cbf1ec;stroke-width:.352778" transform="translate(-44.5 -173.2)"/>
  <path d="M74.3 243.4c-4-1-7.3-3.2-9-6-1-1.7-1-2-1.2-8.6L64 222l-2-6.4c-1.5-5-2-7.3-2.3-10.4a199.8 199.8 0 0 0-1.1-10.5c1 3 3 4.7 6 5.1 1.5.3 1.6.3 1.1-.3-.3-.4-1-.9-1.5-1.1-.6-.3-1-.7-.8-1 .2-.2.1-.3 0-.2-.2.2-1.1-.4-2-1.2-1.9-1.6-2.5-3-2-5.1.1-.8 0-1-.2-.9-.2.1 0-.3.4-.9a17 17 0 0 1 5.4-4.3c.8-.4 2.3-1.3 3.2-2 1.6-1.2 1.8-1.2 4.6-1.1 2.6 0 3.3-.1 5.6-1l2.6-1.2 2.7.6c1.8.4 3 .8 3.6 1.5l1 .8 1.5-1.7c2.2-2.4 3.7-3 8.4-3.2 4.5-.2 6.9.4 9 2.1a16 16 0 0 1 4.3 10.8 12 12 0 0 1-9.3 11.2c-3.6.5-3.4.4-3.4 2.2 0 2.6-.6 5.8-2.2 11.5l-1.4 5.3v6.9c0 8-.3 8.8-3.3 11.8-4 4-11.3 5.7-17.5 4.2zm17-5.3c1-.8 2.5-3.1 2.5-4 0-.2-1 .5-2.3 1.7-1.6 1.4-2.3 2.3-2.3 2.8 0 1 .2.9 2-.5zm-14.5-39.2c.3-.6.6-1.1.8-1.1l1.8-.7c.8-.4 2-.7 2.7-.7.7 0 1-.2 1-.4-.2-.2 0-.4.3-.4s.5-.3.5-.7c0-.5-.2-.7-.8-.7-.4 0-1 .2-1.1.4l-2.2.4c-1.5 0-1.8 0-1.6-.4.3-.7 1.5-2.5 2.5-3.6.7-.8.8-1 .3-1a.6.6 0 0 1-.6-.6c0-.5-.2-.5-.6.2-1.1 1.6-3 3.6-3.5 3.6-.2 0-.5.1-.5.3-.3.8-3.2.3-4-.7-.4-.4-1.1-.7-1.6-.7-1.6 0-2.3-1-2-3.2.3-2.4.6-2.7 2.4-2.6l1.5.2-1.2-.6c-1.1-.5-1.1-.5-.5-1 .3-.4.4-.5.1-.3-.4.2-.4.2 0-.4.3-.4.8-.5 1.3-.5.5.1.8 0 .8 0 0-.2.3-.3.7-.2.5.2.5.2 0-.2-.7-.5-2-.4-3.7.2l-2.4.8-3.4 1.7c-2.2 1.5-3.3 2.6-3.4 3.6l-.3 1.9c-.2 1-.1 1.3.2 1.3.2 0 .3-.1.2-.3-.4-.5.5-3.3 1.2-4 .7-.7.7-.7.3.5-.3 1-.3 1.4.2 1.9.7.7 1 .7.7-.2-.2-.9.6-2.8 1.7-3.8 1-1 1-1.1 1.9 2.6l.5 2.4-1.4 1.4c-1.3 1.1-1.4 1.3-.9 1.5.4.1 1 .5 1.2.7a11 11 0 0 0 2.5 1.9l.7-.3c.6-.4 1.4-.1 1.4.5s.8.7 1.3.2c.2-.2.7-.4 1.2-.4.7-.1.9 0 .8.6 0 .5.1 1 .4 1 .3.2.6.5.6.9 0 .7 1.1 1.1 1.3.5l.7-1.5zm-9-4.4.2-1.6c0-.2 2.2 0 2.2.1 0 .4-2 3-2.3 3-.1 0-.2-.7 0-1.5zm-4.9-7.3.4-.4.2.4c0 .2-.2.3-.4.3s-.3-.1-.2-.3zm13.3 5.3c0-.2-.2-.4-.4-.4s-.3.2-.2.4l.4.3s.2-.1.2-.3zM79 185c.2-.5 2.7-1 3.9-.8a3 3 0 0 0 2-.4c1-.4 1.3-.5 1.7-.1.8.6 1 0 .5-1-.5-.8-.9-1-2.4-1.2-1 0-2-.4-2.3-.6-.5-.5-2.6-.6-2.9 0-.1.1 0 .3.4.3.6 0 .5 0-.1.5-.5.3-1.1.5-1.5.4-.4-.2-.7 0-1.2 1-.5 1.1-.5 1.1.4 1.7 1.1.7 1.4.7 1.5.2zm-20.8 7.4c0-.6.1-1.4.3-1.7.2-.3.3 0 .1 1-.2 2-.4 2.3-.4.7z" style="fill:#f3f5af;stroke-width:.352778" transform="translate(-44.5 -173.2)"/>
  <path d="M74.3 243.4c-4-1-7.3-3.2-9-6-1-1.7-1-2-1.2-8.6L64 222l-1.8-5.8a54.9 54.9 0 0 1-2.9-15c0-1-.2-3-.5-4.4a8.3 8.3 0 0 1-.4-2.7c.1-.1.2 0 .2.4 0 2.2 3 4.9 6 5.3 1.8.3 1.7 0-.3-1.4-4-2.7-5.5-4.9-5-7.5.2-.8.2-1 0-.9-.3.1-.1-.3.3-.9a17 17 0 0 1 5.4-4.3c.8-.4 2.3-1.3 3.2-2 1.6-1.2 1.8-1.2 4.6-1.1 2.6 0 3.3-.1 5.6-1l2.6-1.2 2.7.6c1.8.4 3 .8 3.6 1.5l1 .8 1.5-1.7c2.1-2.3 3.8-3 8.1-3.2 7.5-.4 10.7 1.7 12.8 8.3 1.6 4.9.8 8.7-2.4 12.2-1.8 2-3.8 3.2-6.1 3.6-3.6.5-3.2.2-3.5 3.6-.2 2.7-1.1 6.8-3 13.1-.3 1.5-.5 3.8-.5 9 0 8.2-.3 9-3.3 12-4 4-11.3 5.7-17.5 4.2zm17-5.3c1-.8 2.5-3.1 2.5-4 0-.2-1 .5-2.3 1.7-1.6 1.4-2.3 2.3-2.3 2.8 0 1 .2.9 2-.5zm-14.8-37.5c0-.5.2-.7.7-.7.6 0 .9-.4.8-1.1 0-.1.7-.3 1.6-.4 1.5-.2 2.2-.4 3.8-1 .1-.1.5.5.7 1.2.5 1.9 1 1.7 1-.3 0-.9.2-1.6.3-1.6l.4-.6c.2-.4.1-.5-.3-.3-.7.3-1-.5-.4-1 .9-.7.7-1.4-.5-2.9a5.1 5.1 0 0 0-2.7-1.6c-1.4-.4-1.5-.5-1.4-1.2v-.9l-1.3 2c-1.6 2.3-2.3 2.7-3 2-.6-.6-1-.3-.5.4.5.5.2 1.2-.6 1.3-1.8.3-6.7-3-6.7-4.4 0-2 .5-2.5 2.4-2.6 1 0 2.2 0 2.7.3.5.2.9.2.9 0 0-.5-1.6-1.7-2.5-1.9-.5 0-.8-.3-.8-.6.1-.3 0-.4-.5-.2-.6.2-.6.2 0-.4.5-.5.8-.5 1.8-.2a3 3 0 0 0 1.9 0c.5-.1 1.3.1 2.6.8 1.7 1 1.9 1 2.5.5.5-.4 1.2-.6 2.5-.6a9 9 0 0 0 3-.5c1-.4 1.3-.4 1.7 0 .8.6 1-.6.4-1.7-.5-.7-1-.9-2.1-.9-.9 0-1.9-.2-2.2-.5-.8-.6-2.9-.7-3.2-.2-.1.2 0 .4.4.4.6 0 .5 0-.1.5-.5.3-1.1.5-1.5.4-.5-.2-.7 0-1 .8-.4 1-.7 1-1.3.9-.4-.2-1.3-.3-2-.3s-1.2-.1-1.1-.3c.2-.4-1.8-.3-3.3.3l-2.4.8-3.4 1.7c-2.2 1.5-3.3 2.6-3.4 3.6l-.3 1.9c-.2 1-.1 1.3.2 1.3.2 0 .3-.1.2-.3-.4-.6.5-3.3 1.3-4 .5-.7.6-.7.4-.2-.1.4-.4.6-.6.6-.1 0-.2.2 0 .4l.1 2.2c0 1 .2 2.1.3 2.4.4.5 1.1.1.9-.5-.1-.3.2-.8.7-1.1 1-.6 1-.6 1.7 0 .6.7.6.7-.9 1.9l-1.5 1.1 1.4 1.4c.7.8 1.5 1.4 1.6 1.4.2 0 .5.3.7.6.4.4.6.4 1 0 .5-.3 1.3-.4 3.3-.3 2.5.2 2.6.3 2.7 1.2 0 .6.4 1 .6 1 .3 0 .6.1.6.3 0 .2.3.4.8.4.7 0 1-.2 1-.7zm8.2-1.6c0-.4 0-.5.2-.2v.6c-.2.1-.3 0-.2-.4zM68 194.8c0-.5.9-2 1.1-2 .6 0 .7.6.1 1.4-.4.7-1.2 1-1.2.6zm12.8-1.4c-.6-.7.2-2 1.2-2 .8 0 3.3 1.6 3.3 2.1 0 .6-4 .5-4.5-.1zm-17.2-2.8c-.6-.5-.6-.6-.1-1.8.3-.8.8-1.6 1.3-1.9.7-.5.8-.4 1 .1.1.4 0 1-.1 1.6-.3.7-.3 1.1 0 1.3.9 1-.9 1.5-2 .7zm-.7-3.4.4-.4.2.4c0 .2-.2.3-.4.3s-.3-.1-.2-.3zm1 10.2c-.3-.4-.6-.6-.7-.5-.1 0 0 .4.5.7 1 .7 1 .6.3-.2zm26.9-1.8c-.1-.1-.5-.3-.8-.3-.5 0-.5.1.1.3 1 .5 1 .5.7 0zm2-.2H92c-.2.1 0 .2.5.2s.7 0 .4-.2zm-21.1-3.9h-1c-.2.1 0 .2.5.2s.7 0 .5-.2zm3 0h-1.3c-.3.1 0 .2.6.2.7 0 1 0 .7-.2zm7.8-5.4c0-.2-.1-.3-.3-.3-.2 0-.4.1-.4.3 0 .2.2.4.4.4s.3-.2.3-.4zm-24.3 6.3c0-.6.1-1.4.3-1.7.2-.3.3 0 .1 1-.2 2-.4 2.3-.4.7z" style="fill:#d2e7d1;stroke-width:.352778" transform="translate(-44.5 -173.2)"/>
  <path d="M74.7 243.4c-4.4-1-8.2-3.7-9.7-6.7-.5-1.1-.7-2.6-.9-8.2l-.2-7-1.6-5a52 52 0 0 1-3-15 38.8 38.8 0 0 0-1-7.3c.1-.3.2-.2.2.1 0 1.5 2.4 4.8 3 4.3 0-.1.3 0 .4.3.1.4.4.5.5.4l.4.1c0 .2.7.3 1.6.4H66l-1.2-1.4a6.7 6.7 0 0 0-1.7-1.6c-.3-.1 0 .3.5.8.7.5.8.8.4.6a8 8 0 0 1-1.8-1.5c-.8-1-.9-1-.1-.5l.8.7-.8-1c-.9-1-1.3-1.3-1-.6.5.6-.3.4-1-.3-.8-1-1.2-2.8-.9-4.2.2-.8.2-1 0-.9-.3.1-.1-.3.3-.9a17 17 0 0 1 5.4-4.3l3.4-2c1.8-1.2 2-1.3 4.3-1 2.2.1 2.8 0 5.5-1l3-1.2 2.5.6c1.3.3 2.5.7 2.5.9 0 .6-2.6.5-3.5 0-1-.6-3-.6-3 0-.1.7-.7 1.3-1.2 1-.3 0-.9.3-1.3.8-.7.8-1 .9-1.6.5a11 11 0 0 0-5.9.2l-2.4.8c-2.5.6-6.7 3.9-6.8 5.2 0 .2 0 1-.2 1.6-.2.8-.1 1.6 0 2 .4.5.4.4.4-.5 0-1.3.7-3.2 1-2.8l.2 1.9c0 1 0 1.9.2 2.2.4.5 1.1.1.9-.5-.1-.3.2-.8.7-1.1 1-.6 1-.6 1.7 0 .6.7.6.7-.9 1.9l-1.5 1.1 1.3 1.3a17 17 0 0 0 2 1.7c.3.3.6.7.5 1 0 .2.2.1.7-.3.7-.7 1.1-.7 3.5-.6 2.5.2 2.6.3 2.7 1.2 0 .5.3 1 .6 1s.6.2.7.5c.1.4.6.5 1.5.5.7 0 1-.1.7-.2-.8-.2-.8-1.5.1-1.5.6 0 .9-.4.8-1.1 0-.1.7-.3 1.6-.4 1-.1 2-.4 2.6-.6 1.4-.5 1.5-.5 1.9.8.5 1.8 1 1.6 1-.2 0-2.6 2-4 4.4-3 .6.2 1.6.4 2.3.3 1 0 1.2-.3 1.7-1.5.6-1.3.6-1.4 0-1.2-.5.2-2.6-.4-4.8-1.3a18 18 0 0 0-1.6-.5c-1.1-.3-1.8-.8-1.6-1.2.1-.2-.7-.6-1.8-.9l-2.6-.7c-.4-.1-1 .5-2 1.8-1.2 1.8-2.6 3-2.6 2.3 0-.6-2-1-4.2-1-3.3.2-4.6-1.1-3.6-3.7.3-.7.6-.8 2.1-.9 1 0 2.2 0 2.7.3.5.2.9.2.9 0 0-.5-1.7-1.8-2.4-1.8-.4 0-.8-.1-1-.3-.2-.5 1-1 2.2-1 .6 0 1.2 0 1.4-.2.2-.1 1.2.3 2.3.8 1.7 1 1.9 1 2.5.5.5-.4 1.2-.6 2.5-.6a9 9 0 0 0 3-.5c.8-.3 1.3-.4 1.6-.1.4.3.8 0 1.6-1.4a11 11 0 0 1 5.6-4.6c1-.3 3.3-.5 5.6-.5 3.5 0 4 0 5.9 1 2.5 1.2 4.1 3.3 5.3 6.7 1.1 3.6 1 7.2-.2 9.7-2 4-5.1 6.1-9.4 6.7l-2 .2-.3 3.2a54 54 0 0 1-1.5 8 39 39 0 0 0-2.1 15c.3 6.7-.1 7.9-3.1 11-4.3 4.2-11 6-17.2 4.4zm16.5-5.3c1.1-.8 2.6-3.1 2.6-4 0-.2-1 .5-2.3 1.7-1.6 1.4-2.3 2.3-2.3 2.8 0 1 .2.9 2-.5zm-9.5-36.7H81c-.2.1-.2.2.2.2s.6 0 .5-.2zm-8.5-.3c0-.1-.4-.2-.6 0-.3 0-.2.1.2.2.4 0 .6-.1.4-.2zm9.3-15c0-.2-.1-.3-.3-.3-.2 0-.4.1-.4.3 0 .2.2.4.4.4s.3-.2.3-.4zM68 194.8c0-.5.9-2 1.1-2 .6 0 .7.6.1 1.4-.4.7-1.2 1-1.2.6zm12.8-1.4c-.6-.7.2-2 1.2-2 .8 0 3.3 1.6 3.3 2.1 0 .6-4 .5-4.5-.1zm-22.6-1c0-.6.1-1.4.3-1.7.2-.3.3 0 .1 1-.2 2-.4 2.3-.4.7zm5.4-1.8c-.6-.5-.6-.6-.1-1.8.3-.8.8-1.6 1.3-1.9.7-.5.8-.4 1 .1.1.4 0 1-.1 1.6-.3.7-.3 1.1 0 1.3.9 1-.9 1.5-2 .7z" style="fill:#bae7e8;stroke-width:.352778" transform="translate(-44.5 -173.2)"/>
  <path d="M74.7 243.4c-4.4-1-8.2-3.7-9.7-6.7-.5-1.1-.7-2.6-.9-8.2l-.2-7-1.6-5a52 52 0 0 1-3-15c-.2-2.7-.5-5-.6-5.3l1 1c2.9 3.4 7.5 4.8 15 4.8 5.2 0 5.6-.1 3.1-.5-1-.2-1.3-.4-1.3-1 0-.4.3-.6.7-.6.6 0 .9-.4.8-1.1 0-.1.7-.3 1.6-.4 1-.1 2-.4 2.6-.6 1.4-.5 1.5-.5 1.9.8.5 1.8 1 1.6 1-.2 0-2.6 2-4 4.4-3 .6.2 1.6.4 2.3.3 1 0 1.2-.3 1.7-1.5.6-1.3.6-1.4 0-1.2-.5.2-2.6-.4-4.8-1.3a18 18 0 0 0-1.6-.5c-1.1-.3-1.8-.8-1.6-1.2.1-.2-.7-.6-1.8-.9l-2.6-.7c-.4-.1-1 .5-2 1.8-1.2 1.8-2.6 3-2.6 2.3 0-.6-2-1-4.2-1-3.3.2-4.6-1.1-3.6-3.7.3-.7.6-.8 2.1-.9 1 0 2.2 0 2.7.3.5.2.9.2.9 0 0-.5-1.7-1.8-2.4-1.8-.4 0-.8-.1-1-.3-.2-.5 1-1 2.2-1 .6 0 1.2 0 1.4-.2.2-.1 1.2.3 2.3.8 1.7 1 1.9 1 2.5.5.5-.4 1.2-.6 2.5-.6a9 9 0 0 0 3-.5c.8-.3 1.3-.4 1.6-.1.4.3.8 0 1.6-1.4a11 11 0 0 1 5.6-4.6c1-.3 3.3-.5 5.6-.5 3.5 0 4 0 5.9 1 2.5 1.2 4.1 3.3 5.3 6.7 1.1 3.6 1 7.2-.2 9.7-2 4-5.1 6.1-9.4 6.7l-2 .2-.3 3.2a54 54 0 0 1-1.5 8 40 40 0 0 0-2.1 15c.2 6.8-.1 8-3.1 11-4.3 4.2-11 6-17.2 4.4zm14.1-3.5a10 10 0 0 0 5.1-6c.3-.8.1-.7-1.7 1a20 20 0 0 1-4.6 3.3c-2.5 1.3-3.3 2.1-2.8 3 .2.3 2.1-.3 4-1.3zm-7-38.5c-.2 0-.5-.1-.8 0-.2.1-.2.2.2.2s.6 0 .5-.2zm.7-15.3c0-.2-.1-.3-.3-.3-.2 0-.4.1-.4.3 0 .2.2.4.4.4s.3-.2.3-.4zm-11 14.7c-3.4-.8-5.9-2-8-3.8-2.8-2.3-3.5-4-2.5-6.5.5-1.3.8-.9.8 1.2 0 1 0 1.9.2 2.2.4.5 1.1.1.9-.5-.1-.3.2-.8.7-1.1 1-.6 1-.6 1.7 0 .6.7.6.7-.9 1.9l-1.5 1.1 1.4 1.4c.7.8 1.5 1.4 1.6 1.4.2 0 .5.3.7.6.4.4.6.4 1 0 .5-.3 1.3-.4 3.3-.3 2.5.2 2.6.3 2.7 1.2 0 .6.4 1 .6 1 .3 0 .6.1.6.3 0 .5-.8.4-3.2-.1zm-3.5-6c0-.5.9-2 1.1-2 .6 0 .7.6.1 1.4-.4.7-1.2 1-1.2.6zm12.8-1.4c-.6-.7.2-2 1.2-2 .8 0 3.3 1.6 3.3 2.1 0 .6-4 .5-4.5-.1zm-17.2-2.8c-.6-.5-.6-.6-.1-1.8.3-.8.8-1.6 1.3-1.9.7-.5.8-.4 1 .1.1.4 0 1-.1 1.6-.3.7-.3 1.1 0 1.3.9 1-.9 1.5-2 .7zm4.1-7.3c0-.2.6-.6 1.3-1 1-.8 1.5-.8 3.7-.7 1.3.2 2.8.1 3.4 0 1-.3 1-.3.8.8-.3 1.2-.1 1.1-3.3.5a7.5 7.5 0 0 0-3.5.2c-2.2.6-2.4.6-2.4.2zm9.9-2c0-.4 1.7-1.3 2-1l-1 .7c-.6.3-1 .4-1 .3zm5.3-.6c-.7-.3-1.7-.5-2.2-.6-.6 0-.7 0-.3-.3.6-.3 5.2.5 5.8 1 .5.6-2 .4-3.3-.1z" style="fill:#eff08d;stroke-width:.352778" transform="translate(-44.5 -173.2)"/>
  <path d="M74.7 243.4c-4.4-1-8.2-3.7-9.7-6.7-.5-1.1-.7-2.6-.9-8.2-.2-6.7-.2-7-1.4-10.8a54.8 54.8 0 0 1-3.4-17.6 12 12 0 0 0-.5-3.5c-.2-.4.2-.1.9.6 2.9 3.4 7.5 4.8 15 4.8 4.2 0 4.9-.1 3.7-.4-2.2-.5-1.9-1.5.4-1.4.7 0 1.3-.1 1.4-.3.1-.2 0-.3-.3-.2-.3.2-.6 0-.6-.1 0-.5.3-.6 1.7-1 1-.2 1.2 0 1.8.9.4.7.9 1 1.4 1 .8 0 1.7-1 1.3-2 0-.2 0-.7.4-1 .3-.3.5-.8.5-1.2 0-.7.9-1 1.2-.3.2.2.4.3.7.3.9 0 1.3 0 2 1 .8.8 1 .8 1.9.4.7-.3.8-.5.5-.9-.3-.3-.2-.6.4-1.1.4-.4.7-1 .7-1.2l.2-1c0-.6 0-.7-.5-.5-.5.2-2.6-.4-4.8-1.3a18 18 0 0 0-1.6-.5c-1.1-.3-1.8-.8-1.6-1.2.2-.3-4.1-1.8-5-1.8-.3 0-.7.6-1 1.2-.8 1.7-2.6 3.4-3 2.8-.1-.3-.3-.5-.5-.5l-1-.2-.7-.2.8-.6c.8-.6.8-.7.3-1.3-.6-.6-.6-.7 0-1.2 1.3-.8.9-1.6-1.3-2.6l-2-.9 2 .2c1.1 0 2 .3 2.1.7.4.7 2.2.7 3 0 .7-.8 1.5-.7 1.5.2 0 .4.3.7.7.7.4 0 .8.1 1 .3.2.5 3.3.5 3.3 0l-.6-.4c-.4-.1-.3-.2.3-.2.7 0 1-.5 1.9-2 .5-1.2 1.8-3 2.8-3.9 2.3-2.3 4-2.8 9.2-2.8 3.5 0 4 0 5.9 1 2.5 1.2 4.1 3.3 5.3 6.7 1.1 3.6 1 7.2-.2 9.7-2 4-5.3 6.3-9.5 6.6l-2 .2-.2 2.9c-.2 3.1-1.1 7.5-2.6 12.2-.8 2.8-1 3.5-1 10.3 0 8.5-.3 9.3-3.6 12.3a19 19 0 0 1-16.7 4zm14.1-3.5a10 10 0 0 0 5.1-6c.3-.8.1-.7-1.7 1a20 20 0 0 1-4.6 3.3c-2.5 1.3-3.3 2.1-2.8 3 .2.3 2.1-.3 4-1.3zm-7-38.5c-.2 0-.5-.1-.8 0-.2.1-.2.2.2.2s.6 0 .5-.2zm7.4-4.5-.3-.4c-.2 0-.4 0-.4.2s.2.4.4.4.3-.1.3-.2zM99 190c.3 0 .8.2 1 .4.6.6.7-.1.1-1.1-.5-1-1.8-.9-3 .3-1.1 1.3-.8 2.3.4 1.1.4-.4 1-.7 1.5-.7zm-26.5 11c-3.5-.8-4.2-1.1-3.7-1.7.5-.6 1.3-.6 1.6 0 .2.5 2.4 1.4 3.6 1.4.2 0 .4.1.4.3 0 .3 0 .3-2 0zm.1-1.7c-.3-.4-.3-.5.2-.5.3 0 .5.3.5.5v.6c-.2 0-.4-.3-.7-.6zm-11-4c-.7-1-1-4.7-.4-5.3.3-.3.3 0 .2.7-.2 1.5.2 3.5.8 3.5.3 0 .8-.4 1.3-1 .6-1 .8-1 1.4-.6.4.2.7.5.7.6a11 11 0 0 1-2.8 1.7c-.2 0-.4.3-.5.7 0 .5-.2.4-.7-.3zm19.9-2.3c-.4-1 .1-1.4 1.3-1 .6.2 1 .6 1 1 .1.7 0 .8-1 .8-.7 0-1.1-.2-1.3-.8zm-17.8-3.8c.3-1 .4-1.1 1-.6.6.5.3 1.4-.6 1.4-.5 0-.6-.2-.4-.8zm9.1-.1c-.3-.8-.2-.9.3-.8.5.1 1 .7.7 1-.3.5-.7.4-1-.2zm-8.3-1.6c0-.2.3-.3.6-.3s.4.1.3.3l-.5.4a.4.4 0 0 1-.4-.4zm3.2-4.2c0-.2.6-.6 1.3-1 1-.8 1.5-.8 3.7-.7 1.3.2 2.8.1 3.4 0 1-.3 1-.3.8.8-.3 1.2-.1 1.1-3.3.5a7.5 7.5 0 0 0-3.5.2c-2.2.6-2.4.6-2.4.2zm9.9-2c0-.4 1.7-1.3 2-1l-1 .7c-.6.3-1 .4-1 .3zm5.3-.6c-.7-.3-1.7-.5-2.2-.6-.6 0-.7 0-.3-.3.6-.3 5.2.5 5.8 1 .5.6-2 .4-3.3-.1z" style="fill:#edef74;stroke-width:.352778" transform="translate(-44.5 -173.2)"/>
  <path d="M74.7 243.4c-4.4-1-8.2-3.7-9.7-6.7-.5-1.1-.7-2.6-.9-8.2-.2-6.7-.2-7-1.4-10.8a54.8 54.8 0 0 1-3.4-17.6 12 12 0 0 0-.5-3.5c-.2-.4.2-.1.9.6 2.9 3.4 7.5 4.8 15 4.7a18 18 0 0 0 4.3-.2c-.5 0-1-.3-1.3-.5-.3-.4 1.9-.2 3.4.3.6.2.7.1.6-.2-.2-.2-.1-.4.1-.4.3 0 .3-.1 0-.6-.5-.5-.4-.5.4-.3 2.1.7 2.7.7 3.1-.1.2-.4.3-1 .3-1.4-.2-.3.2-.9.8-1.4.6-.4 1-.6 1-.4 0 .2.4.4.7.4.4 0 .8.1 1 .3 0 .1.6.4 1.3.5 2.2.3 4.8-1.8 3.8-3a2 2 0 0 1-.2-1.3c0-.7 0-.8-.5-.6-.5.2-2.6-.4-4.8-1.3a18 18 0 0 0-1.6-.5c-1.1-.3-1.8-.8-1.6-1.2.1-.2-1-.7-2.5-1.2l-2.7-.8-1.8 1.2L76 191a2 2 0 0 1-1 .5c-.2 0 0-.3.6-.8 1.6-1.2 1.9-1.6 1.9-2.2 0-.3-.3-.5-.6-.5a.5.5 0 0 1-.5-.5c0-.7 2-1.3 2.8-1 .3.2 1 .3 1.5.2.6-.1 1.2.2 2 1 .7.5 1.4 1 1.7 1 .9 0 1.5-.5 1.5-1.1a16 16 0 0 1 4-7.2c2.4-2.3 4-2.8 9.3-2.8 3.5 0 4 0 5.9 1 2.5 1.2 4.1 3.3 5.3 6.7 1.1 3.6 1 7.2-.2 9.7-2 4-5.3 6.3-9.5 6.6l-2 .2-.2 3a59 59 0 0 1-2.6 12.1c-.8 2.8-1 3.5-1 10.3 0 8.5-.3 9.3-3.6 12.3a19 19 0 0 1-16.7 4zm14.1-3.5a10 10 0 0 0 5.1-6c.3-.8.1-.7-1.7 1a20 20 0 0 1-4.6 3.3c-2.5 1.3-3.3 2.1-2.8 3 .2.3 2.1-.3 4-1.3zm8.5-37.4.3-2.5c-.3-.3-2.4 2.5-2.2 3l.2.9c0 .2.1.2.3-.1.3-.5.4-.4.4.2 0 1.6.6.7 1-1.5zm-.8-2.2a7 7 0 0 0 1.5-2c.4-1 .2-.9-1.7.9-2 2-2.8 3.2-1.5 2.5l1.7-1.4zM99 190c.4 0 1 .2 1.2.5.6.8 1.4.7 1.4-.3 0-1.1-.9-1.8-2.3-1.7-1.5 0-3.2 1.6-2.9 2.5.2.4.3.4 1-.2.5-.5 1.2-.8 1.6-.8zm-29.2 10.2c-.4-.2-.4-.3.3-.3.4 0 .8.1 1 .3.2.5-.6.5-1.3 0zm18.9-3.8c-.1-.2 0-.3.3-.2.6.3.7.5.2.5l-.5-.3zM63.3 194l1-.5c.2 0 0 .3-.3.5l-1 .6c-.3 0-.1-.3.3-.6zm-2.6-2.4c0-.5 0-.5.2-.3v.7c-.2.1-.2 0-.2-.4zm.3-1.2c0-.2.1-.5.3-.6.2-.1.3 0 .2.4-.3.6-.5.7-.5.2zm6.7-7c0-.3.6-.7 1.3-1.2 1-.7 1.5-.7 3.7-.6 1.3.2 2.8.1 3.4 0 1-.3 1-.3.8.8-.3 1.2-.1 1.1-3.3.5a7.5 7.5 0 0 0-3.5.2c-2.2.6-2.4.6-2.4.2zm9.9-2.1c0-.4 1.7-1.3 2-1l-1 .7c-.6.3-1 .4-1 .3zm5.3-.6c-.7-.3-1.7-.5-2.2-.6-.6 0-.7 0-.3-.3.6-.3 5.2.5 5.8 1 .5.6-2 .4-3.3-.1z" style="fill:#abd0d3;stroke-width:.352778" transform="translate(-44.5 -173.2)"/>
  <path d="M75.5 243.6c-4.2-.7-8.7-3.6-10.4-6.9-.6-1.2-.8-2.2-1-8.2-.2-6.8-.2-7-1.6-11.4a49.1 49.1 0 0 1-3.2-16.2l-.2-4.1 1.3 1.2a20 20 0 0 0 8.3 3.9c3 .8 4 1 8.7 1 3.7 0 6.1-.3 8-.7 7.5-1.7 11.1-3.5 13-6.5 1.3-2 1.5-3.6.2-1.9-.5.8-1 1-1.2.8-.2-.3-.7.1-1.6 1.2a19 19 0 0 1-14 5.3c.3-.2.3-.3 0-.8-.5-.5-.4-.5.4-.3 2.1.7 2.7.7 3.1-.1.2-.4.3-1 .3-1.4-.2-.3.2-.9.8-1.4.6-.4 1-.6 1-.4 0 .2.4.4.7.4.4 0 .8.1 1 .3 0 .1.6.4 1.3.5 2.2.3 4.8-1.8 3.8-3a2 2 0 0 1-.2-1.3c0-.7 0-.8-.5-.6-.5.2-2.6-.4-4.8-1.3a18 18 0 0 0-1.6-.5c-1.1-.3-1.8-.8-1.6-1.2.1-.2-1-.7-2.5-1.2l-2.7-.8-1.8 1.2L76 191a2 2 0 0 1-1 .5c-.2 0 0-.3.6-.8 1.6-1.2 1.9-1.6 1.9-2.2 0-.3-.3-.5-.6-.5a.5.5 0 0 1-.5-.5c0-.7 2-1.3 2.8-1 .3.2 1 .3 1.5.2.6-.1 1.2.2 2 1 .7.5 1.4 1 1.7 1 .9 0 1.5-.5 1.5-1.1a16 16 0 0 1 4-7.2c2.4-2.3 4-2.8 9.3-2.8 3.5 0 4 0 5.9 1 2.5 1.2 4.1 3.3 5.3 6.7 1.1 3.6 1 7.2-.2 9.7-2 4-5.3 6.3-9.5 6.7l-2 .1-.2 3c-.2 3.1-1.1 7.3-2.6 12.1-.7 2.5-.9 4-1 8.8-.2 5.5-.3 6-1.1 7.2-5 7.5-17.4 9.6-25.2 4.3l-2-1 .4 1.3c1.1 2.7 6.7 4.9 12.2 4.8 7.2 0 12.8-2.9 14.7-7.6.6-1.5.8-1.8.9-1.2 0 1.4-1.7 4.4-3.4 6a19 19 0 0 1-8.5 4c-2.7.6-4.6.7-7.5.2zm21.8-41.1.3-2.5c-.3-.3-2.4 2.5-2.2 3l.2.9c0 .2.1.2.3-.1.3-.5.4-.4.4.2 0 1.6.6.7 1-1.5zm-.8-2.2a7 7 0 0 0 1.5-2c.4-1 .2-.9-1.7.9-2 2-2.8 3.2-1.5 2.5l1.7-1.4zM99 190c.4 0 1 .2 1.2.5.6.8 1.4.7 1.4-.3 0-1.1-.9-1.8-2.3-1.7-1.5 0-3.2 1.6-2.9 2.5.2.4.3.4 1-.2.5-.5 1.2-.8 1.6-.8zm-21.3 11.3c-.2-.5 2-.5 2.7 0 .4.2.1.3-1 .3-.8 0-1.5-.1-1.7-.3zm-7.9-1c-.4-.3-.4-.4.3-.4.4 0 .8.1 1 .3.2.5-.6.5-1.3 0zm18.9-4c-.1-.1 0-.2.3 0 .6.2.7.4.2.4l-.5-.3zM63.3 194l1-.5c.2 0 0 .3-.3.5l-1 .6c-.3 0-.1-.3.3-.6zm-2.6-2.4c0-.5 0-.5.2-.3v.7c-.2.1-.2 0-.2-.4zm.3-1.2c0-.2.1-.5.3-.6.2-.1.3 0 .2.4-.3.6-.5.7-.5.2zm24-9.6c-.5-.3-.5-.3 0-.3.3 0 .7.1 1 .3.5.3.5.4 0 .4-.3 0-.7-.2-1-.4z" style="fill:#aecaaa;stroke-width:.352778" transform="translate(-44.5 -173.2)"/>
  <path d="M75.5 243.6c-4.2-.7-8.7-3.6-10.4-6.9-.7-1.2-.8-2.1-1-8.2-.2-6.8-.2-7-1.6-11.5a50 50 0 0 1-3.3-17v-2.6l1.2.8a29 29 0 0 0 8.4 4c4.6 1 12.6 1.6 12 .8 0-.3.4-.3 1.7-.2h1.4c-.5-.4 4-1.2 4.8-1 .5.2.6.2.2 0-.3-.3-.3-.5.4-.6a3 3 0 0 1 1.5 0c.5.1.6 0 .4-.3-.3-.3-.2-.4.2-.2.4.1.6 0 .6-.1 0-.2.2-.3.3-.2.5.3 3.7-1.8 5.1-3.3 1.4-1.4 2.5-3.8 2.1-4.4 0-.2-.3-.1-.3.1-.1.3-.5 1-.9 1.4-.5.7-.6.7-.8.3v-1c.1-.3-.1 0-.6.6a16 16 0 0 1-10.8 6.5c-2.8.6-5.5.9-4.4.5.4-.2.4-.3 0-.8s-.3-.5.5-.3c2.1.7 2.7.7 3.1-.1.2-.4.3-1 .3-1.4-.2-.3.2-.9.8-1.4.6-.4 1-.6 1-.4 0 .2.4.4.7.4.4 0 .8.1 1 .3 0 .1.6.4 1.3.5 2.1.3 5-2 3.8-3-.6-.6-.5-1 .1-1 .3 0 .6-.3.6-.5 0-.6-3.4-1.7-6.4-2.2-1.8-.3-3-.8-2.6-1.1 0-.2-1.1-.7-2.7-1.2l-3-1-1.7 1.3L76 191a2 2 0 0 1-1 .5c-.2 0 0-.3.6-.8 1.6-1.2 1.9-1.6 1.9-2.2 0-.3-.3-.5-.6-.5a.5.5 0 0 1-.5-.5c0-.7 2-1.3 2.8-1 .3.2 1 .3 1.5.2.6-.1 1.2.2 2 1 .7.5 1.4 1 1.7 1 1 0 1.5-.5 1.5-1.2 0-1 2-4.7 3.4-6.5.7-.8 2-1.8 3.3-2.4 1.8-1 2.3-1 6.2-1 4.8 0 6.7.6 8.7 2.7 2.4 2.6 4 7.7 3.7 11.2a13 13 0 0 1-4 7.4 13.5 13.5 0 0 1-7.3 2.8h-1.2l-.2 3c-.2 3.2-1.1 7.4-2.6 12.2-.7 2.5-.9 4-1 8.8-.2 5.5-.3 6-1.1 7.2-5 7.5-17.4 9.6-25.2 4.3l-2-1 .4 1.3c1.1 2.7 6.7 4.9 12.2 4.8 7.2 0 12.8-2.9 14.7-7.6.6-1.5.8-1.8.9-1.2 0 1.4-1.7 4.4-3.4 6a19 19 0 0 1-8.5 4c-2.7.6-4.6.7-7.5.2zm21.8-41.1.3-2.5c-.3-.3-2.4 2.5-2.2 3l.2.9c0 .2.1.2.3-.1.3-.5.4-.4.4.2 0 1.6.6.7 1-1.5zm-.8-2.2a7 7 0 0 0 1.5-2c.4-1 .2-.9-1.7.9-2 2-2.8 3.2-1.5 2.5l1.7-1.4zM99 190c.4 0 1 .2 1.2.5.6.8 1.4.7 1.4-.3 0-1.1-.9-1.8-2.3-1.7-1.5 0-3.2 1.6-2.9 2.5.2.4.3.4 1-.2.5-.5 1.2-.8 1.6-.8zm-20.8 11h1.4c.3.1 0 .2-.8.2s-1 0-.6-.2zm-8.4-.8c-.4-.2-.4-.3.3-.3.4 0 .8.1 1 .3.2.5-.6.5-1.3 0zm18.9-3.8c-.1-.2 0-.3.3-.2.6.3.7.5.2.5l-.5-.3zM63.3 194l1-.5c.2 0 0 .3-.3.5l-1 .6c-.3 0-.1-.3.3-.6zM85 180.8c-.5-.3-.5-.3 0-.3.3 0 .7.1 1 .3.5.3.5.4 0 .4-.3 0-.7-.2-1-.4z" style="fill:#9ab9c5;stroke-width:.352778" transform="translate(-44.5 -173.2)"/>
  <path d="M76.3 243.6c-5.1-.8-8.9-3-11-6.7-1-1.5-1-1.8-1.2-8.4-.2-6.8-.2-7-1.6-11.5a50 50 0 0 1-3.3-17v-2.6l1.2.8c9.2 7 28.6 6.7 36.5-.5 2.6-2.4 3.4-4.7 1.9-5.3-.5-.2-.8-.2-.7-.1.1.1-.1.6-.5 1l-2.3 2.6c-1.9 2.2-4.8 3.7-9.2 4.7-2.8.6-5.5.9-4.4.5.4-.2.4-.3 0-.8s-.3-.5.5-.3c2.1.7 2.7.7 3.1-.1.2-.4.3-1 .3-1.4-.2-.3.2-.9.8-1.4.6-.4 1-.6 1-.4 0 .2.4.4.7.4.4 0 .8.1 1 .3 0 .1.6.4 1.3.5 2.1.3 5-2 3.8-3-.6-.6-.5-1 .1-1 .3 0 .6-.3.6-.5 0-.6-3.4-1.7-6.4-2.2-1.8-.3-3-.8-2.6-1.1 0-.2-1.1-.7-2.7-1.2l-3-1-1.7 1.3L76 191a2 2 0 0 1-1 .5c-.2 0 0-.3.6-.8 1.6-1.2 1.9-1.6 1.9-2.2 0-.3-.3-.5-.6-.5a.5.5 0 0 1-.5-.5c0-.7 2-1.3 2.8-1 .3.2 1 .3 1.5.2.6-.1 1.2.2 2 1 .7.5 1.4 1 1.7 1 1 0 1.5-.5 1.5-1.2 0-1 2-4.7 3.4-6.5.7-.8 2-1.8 3.3-2.4 1.8-1 2.3-1 6.2-1 4.8 0 6.7.6 8.7 2.7 2.4 2.6 4 7.7 3.7 11.2a13 13 0 0 1-4 7.4 13.5 13.5 0 0 1-7.3 2.8h-1.2l-.2 3c-.2 3.2-1 7.3-2.6 12.2-.7 2.4-.9 4.1-1 8.8-.3 5.2-.4 6-1.1 7.1-3.4 5.5-12.3 8.6-19.5 6.8a17 17 0 0 1-6.7-3.1c-1.4-1.2-1.8-.9-.9.8 1 1.8 3.2 3.3 6.2 4.3 2.2.7 3.3.9 6.5.9 4.4 0 7.1-.8 10.2-2.8 2.4-1.5 3.2-1.5 1.5 0a19.6 19.6 0 0 1-14.9 4zm21-41.1.3-2.5c-.3-.3-2.4 2.5-2.2 3l.2.9c0 .2.1.2.3-.1.3-.5.4-.4.4.2 0 1.6.6.7 1-1.5zm-.8-2.2a7 7 0 0 0 1.5-2c.4-1 .2-.9-1.7.9-2 2-2.8 3.2-1.5 2.5l1.7-1.4zM99 190c.4 0 1 .2 1.2.5.6.8 1.4.7 1.4-.3 0-1.1-.9-1.8-2.3-1.7-1.5 0-3.2 1.6-2.9 2.5.2.4.3.4 1-.2.5-.5 1.2-.8 1.6-.8zm-20.8 11h1.4c.3.1 0 .2-.8.2s-1 0-.6-.2zm-8.4-.8c-.4-.2-.4-.3.3-.3.4 0 .8.1 1 .3.2.5-.6.5-1.3 0zm18.9-3.8c-.1-.2 0-.3.3-.2.6.3.7.5.2.5l-.5-.3zM63.3 194l1-.5c.2 0 0 .3-.3.5l-1 .6c-.3 0-.1-.3.3-.6z" style="fill:#d0d36b;stroke-width:.352778" transform="translate(-44.5 -173.2)"/>
  <path d="M76.3 243.6c-5.1-.8-8.9-3-11-6.6-1-1.6-1-2-1.2-8.7l-.2-7-1.6-5c-2-6.5-2.7-9.7-3-14.8l-.2-4.3 1.2 1c5.6 4.8 18.4 6.5 28.2 3.8 5.6-1.6 10-4.6 11-7.6.4-1.4.3-1.8-.8-2-.4-.1-.7-.2-.6 0 .1 0-.1.5-.5 1-.5.3-1.4 1.4-2.1 2.4-.8.9-1.6 1.6-1.8 1.6-.3 0-.3 0 0-.3.5-.3 2.7-3.5 2.5-3.7-.2-.3-6.1-2-7.7-2.2-1.9-.3-2.8-.7-2.7-1.2 0-.2-1.2-.8-2.7-1.2l-2.8-.8-1.8 1.2-2.4 1.7a2 2 0 0 1-1 .5c-.2 0 .3-.6 1.2-1.2 1.8-1.4 2-1.8 1-2.5-.9-.7-.4-.9 2-1 2.2-.2 2.4-.1 3.5.9 1.9 1.5 2.8 1.3 3.6-1 1.3-4 3.4-6.7 6.3-8.1 1.8-1 2.3-1 6.2-1 4.8 0 6.5.5 8.6 2.7a16 16 0 0 1 3.8 11.2 13 13 0 0 1-4 7.4 13.5 13.5 0 0 1-7.3 2.8h-1l-.4 3.8c-.3 2.2-1 6-1.9 9a34 34 0 0 0-1.7 11c-.2 5.4-.3 6.2-1 7.3-3.4 5.5-12.3 8.6-19.5 6.8a17 17 0 0 1-6.7-3.1c-1.4-1.2-1.8-.9-.9.8 1 1.8 3.2 3.3 6.2 4.3 2.2.7 3.3.9 6.5.9 4.4 0 7.1-.8 10.2-2.8 2.4-1.5 3.2-1.5 1.5 0a19.6 19.6 0 0 1-14.9 4zm20-29.9c0-1 .1-1.7 0-1.6-.4.4-1.8 6.2-1.8 7 0 1 1.4-3.2 1.7-5.4zm-26.8-2c0-.3.2-.5.4-.4.2 0 .4-.1.4-.4 0-.2 0-.3.3-.2.8.2 1.5-.9 1-1.6-.3-.5-.4-.6-1.9-.7-.3 0-.7-.4-.8-.8-.2-.8-1.1-1.7-1.6-1.7s.3 5.3 1 6.4c.2.4 1.2 0 1.2-.6zm20.6-7.5c.7-.3 1.2-.7 1.2-.9 0-.2.3-.2.7-.1l.7-.1c0-.2.6-.5 1.2-.8a9.7 9.7 0 0 0 4-4c.5-1 .4-1-1.2.6a24 24 0 0 1-5.1 3.3c-2 .9-3.4 1.8-3.4 2.1 0 .7.4.6 1.9 0zm7.2-1.7.3-2.5c-.3-.3-2.4 2.5-2.2 3l.2.9c0 .2.1.2.3-.1.3-.5.4-.4.4.2 0 1.6.6.7 1-1.5zm4.5-10.4c.4-3.6-.4-4.7-3-4.4a8 8 0 0 0-2.2.7c-.3.3-.7.5-1 .5-.4 0-.2 1.9.4 3 .3.6.4.6 1.1-.2 1.4-1.7 3.4-1.6 3.4.3 0 2.2 1 2.3 1.3 0zm-23.4 9h1.2l-.6.1c-.7 0-1 0-.6-.2zm-8.4-.9c-.7-.3-.7-.3 0-.3.5 0 1 .1 1 .3.3.4 0 .4-1 0zm16.7-.3c.9-.7.9-.7.2-1.4-.9-1-.3-1.6 1-1 .7.4 1.7.6 3 .5 1.7-.1 1.9 0 1.3.3-.7.6-3.9 1.8-5.4 2.1l-1 .2zM63.3 194l1-.5c.2 0 0 .3-.3.5l-1 .6c-.3 0-.1-.3.3-.6z" style="fill:#cfcf50;stroke-width:.352778" transform="translate(-44.5 -173.2)"/>
  <path d="M76.3 243.6c-5.1-.8-8.9-3-11-6.6-1-1.6-1-2-1.2-8.7l-.2-7-1.6-5c-2-6.5-2.6-9.3-3-14.7l-.2-4.4 1 1 1.2 1a23 23 0 0 0 7.1 3 49.5 49.5 0 0 0 17.8.3c3.3-.7 7.5-2.3 9.5-3.6l1.5-.9-1 1a8 8 0 0 1-2.2 1.7c-3 1.5-5.8 3.3-5.8 3.7 0 .5 2.3.4 2.9-.2.2-.3.6-.4.9-.4a2 2 0 0 0 1-.5l1.4-.7c.6-.2.7-.1.6.8 0 .6.1 1.2.3 1.3.4.2.3 3.5 0 7-.3 1.6-.5 4-.6 5.5-.2 2.5-.2 2.6.3 1.3.5-1.5 1.2-2.4.8-1.2-.6 2.1-1 5-1 9 0 5.2-.4 6.4-3 9-4.3 4-11.5 5.7-17.4 4.2a17 17 0 0 1-6.7-3.1c-1.4-1.2-1.8-.9-.9.8 1 1.8 3.2 3.3 6.2 4.3 2.2.7 3.3.9 6.5.9 4.4 0 7.1-.8 10.2-2.8 2.4-1.5 3.2-1.5 1.5 0a19.6 19.6 0 0 1-14.9 4zm-6.5-30c0-.2.3-.3.7-.3.8 0 1-.4.4-1-.6-.5 1.2-2 1.8-1.5.4.3.5.2.5-.2 0-.2-.2-.5-.4-.6-.7-.3-.6-1.6.1-2 .6-.3.5-.3-.3-.7l-3-1.2a8.8 8.8 0 0 0-2.8-.8c-.8 0-.9.2-.9 2l.4 4c.4 1.7.6 2 1.4 2.2l1.2.3c.7.2 1 .2 1-.2zM62.4 202l-.8-.8-.8-.7.7.8c.6.7.9 1 .9.7zm-1.4-2-.6-.6c-.6-.5-.6-.4-.2.1.5.6.8.8.8.5zm36.5 8c.4-7.5.6-9.8.8-10.1a96.8 96.8 0 0 1 1-3c.5-1.5.3-2.3-.5-2.6-.5-.2-.7-.1-.6 0 .1.3 0 .4 0 .4-.3 0-1.2 1-2 2.2-2 2.4-2.7 2.6-1 .1.7-.8 1.1-1.6 1-1.7-.2-.3-6.1-2-7.7-2.2-1.9-.3-3-.8-2.6-1.2 0-.2 0-.4-.3-.5-5.3-1.7-5.2-1.7-6-1.1-1.3.9-1.5.6-.4-.5 1.2-1.3 2.3-1.4 3.4-.2.5.6 1.2.9 2 .9 1.3 0 1.4 0 1.6-1.3.3-1.6 2-4.8 3.4-6.6.6-.7 2-1.7 3-2.2 2-1 2.4-1 6.3-1 4.8 0 6.5.5 8.6 2.7a16 16 0 0 1 3.8 11.2 13 13 0 0 1-4 7.4 13.5 13.5 0 0 1-7.3 2.8h-1.2l-.2 2.8c-.1 1.5-.5 3.6-.7 4.7l-.5 1.9zm7.7-11.8c2-2 3.4-4 3.4-4.7 0-.5-.1-.5-.4-.3a6 6 0 0 1-2.1.6c-2 .3-2.5.8-1.4 1.6l.8.6-1.2 1.4c-2.3 2.5-1.5 3.2.9.8zm-2.4-.3c.4-.6 0-.8-.5-.2-.3.3-.3.6-.1.6.2 0 .5-.2.6-.4zm-1-2.7c.1-.4.2-.9.1-1.2 0-.2.2-.7.6-1 .6-.4.6-.4 0-.9-.6-.4-.7-.6-.3-1 .6-.7.2-1.4-.6-1.2-.3 0-.6-.2-.5-.5 0-.5-.2-.6-1-.4-.7.1-1 0-1-.3s-.3-.2-.7.3l-.6.9-.5-.8c-.6-.8-1.4-.5-1.3.5 0 .4-.1.7-.4.7-1.2 0-1.4.5-.7 1.3.4.4.7 1 .6 1.3-.3.9 1 1.7 1.4 1 .4-.8 1.6-1 2-.5.1.3.1 0 0-.4-.1-.5 0-.7.4-.7.5 0 1 .8 1.4 2.5.2 1.1.7 1.3 1 .4zm-12.4-3.8c.3-.1.5-.6.5-1.1 0-1 1-2.6 1.6-2.6.2 0 .7-.7 1.1-1.4 1.2-2.2-.1-1.9-1.4.3l-1 1.5c-.4.5-.7 1.3-.7 1.7 0 .5-.3 1-.5 1.3-.3.3-.5.8-.5 1 0 .6.1.6.3.2 0-.3.4-.7.6-.9zm3.3.5c0-.5-.6-.8-1-.5-.3.2-.3.3 0 .5.7.4 1 .4 1 0zm16-1c0-.8-.3-1.1-.6-1.1-.6 0-.7-.6-.2-.9.3-.2-.2-2.5-.8-3.3-.2-.2-.6-.4-1-.4s-.7-.3-.7-.6c0-1.5-8.7-2.4-9.7-1-.4.5-.6.6-1 .2-.4-.3-.5-.2-.6.3-.2.6 0 .7.8.7.7 0 1.1.3 1.3.7.2.8 1.5 2 1.5 1.4l-.6-1.3c-.8-1.4-.4-2.2 1-2.2s2.8.9 2.8 1.7c0 .4.2.3.5-.4.5-.8.7-1 1.5-.7.5 0 1 .4 1.2.6.4.6 0 2.5-.7 3-.3.2-.4.5-.3.7.2.1.7-.3 1.2-.9 1.4-1.7 2.7-1.4 3 .6 0 .8-.2 1-1.4 1.6-.8.4-1.5.8-1.5 1 0 .1.7.2 1.5.2 1 0 1.7.2 2 .6.6.7.7.6.7-.6zM94 186.3c-.2-.5-1.7-.8-1.7-.3 0 .3.6.7 1.3.7.3 0 .4-.2.4-.4zm6.3-2.1c-.1-.3-.2-.2-.2.2s0 .6.2.5v-.7zm-13 15.5c1-.4 1.7-.9 1.8-1 0-.2.5-.3 1.1-.3.6 0 1.4-.2 1.8-.4l.6-.2c0 .3-2 1.3-4.2 2-2.6.9-3 .8-1-.1zm-17.7.2h.7c.1.1 0 .2-.4.2-.5 0-.5-.1-.3-.2zm-6-6.2c.3-.2.5-.3.7-.2 0 .1-.1.3-.5.4-.5.2-.5.2-.2-.2zm11.6-2.7.4-.4.1.4c0 .2-.2.3-.4.3s-.2-.1-.1-.3z" style="fill:#8faba9;stroke-width:.352778" transform="translate(-44.5 -173.2)"/>
  <path d="M74.3 243.2a14 14 0 0 1-9-6.4c-.8-1.8-1.1-3.5-.4-2.2a17 17 0 0 0 4.1 5.3c4 2.4 10.2 3.3 15.1 2.1 3.4-.8 5.1-1.1 5.1-1 0 .3-3.3 1.7-5.1 2.1-2 .6-7.7.6-9.8.1zm1.5-3.4c-4.5-.9-8.5-3.2-10.3-6-.7-1.2-1-1.4-1-1l-.4-5.4c-.2-6-.2-6.3-1.8-11.1-2-6.5-2.6-9.3-3-14.7l-.2-4.4 1 1 1.2 1a23 23 0 0 0 7.1 3 49.5 49.5 0 0 0 17.8.3c3.3-.7 7.5-2.3 9.5-3.6l1.5-.9-1 1a8 8 0 0 1-2.2 1.7c-3 1.5-5.8 3.3-5.8 3.7 0 .5 2.3.4 2.9-.2.2-.3.6-.4.9-.4a2 2 0 0 0 1-.5l1.4-.7c.6-.2.7-.1.6.8 0 .6.1 1.2.3 1.3.4.2.3 3.5 0 7-.3 1.6-.5 4-.6 5.5-.2 2.5-.2 2.6.3 1.3.5-1.5 1.2-2.4.8-1.2-.6 2.1-1 5-1 8.8 0 4 0 4.5-.9 6.2-1.5 3.1-5.6 6-10 7a25 25 0 0 1-8 .5zm-6-26.2c0-.2.3-.3.7-.3.8 0 1-.4.4-1-.6-.5 1.2-2 1.8-1.5.4.3.5.2.5-.2 0-.2-.2-.5-.4-.6-.7-.3-.6-1.6.1-2 .6-.3.5-.3-.3-.7l-3-1.2a8.8 8.8 0 0 0-2.8-.8c-.8 0-.9.2-.9 2l.4 4c.4 1.7.6 2 1.4 2.2l1.2.3c.7.2 1 .2 1-.2zM62.4 202l-.8-.8-.8-.7.7.8c.6.7.9 1 .9.7zm-1.4-2-.6-.6c-.6-.5-.6-.4-.2.1.5.6.8.8.8.5zm36.5 8c.4-7.5.6-9.8.8-10.1.2-.2.5-.9.6-1.5l.4-1.4c.6-1.8.6-2.3-.3-2.6-1-.4-1.5-.2-2.1 1.1-.6 1.4-2.4 3.6-2.7 3.3l1-1.8c.7-.8 1.1-1.6 1-1.7-.2-.3-6-2-7.5-2.2-2.2-.3-2.7-.5-2.7-1 0-.3-.2-.6-.4-.7-5.4-1.7-5.2-1.7-6-1.1-1.3.9-1.5.6-.4-.5 1.2-1.3 2.3-1.4 3.4-.2.5.6 1.2.9 2 .9 1.3 0 1.4 0 1.6-1.3.3-1.6 2-4.8 3.4-6.6.6-.7 2-1.7 3-2.2 2-1 2.4-1 6.3-1 4.8 0 6.5.5 8.6 2.7a16 16 0 0 1 3.8 11.2 13 13 0 0 1-4 7.4 13.5 13.5 0 0 1-7.3 2.8h-1.2l-.2 2.8c-.1 1.5-.5 3.6-.7 4.7l-.5 1.9zm7.7-11.8c2-2 3.4-4 3.4-4.7 0-.5-.1-.5-.4-.3a6 6 0 0 1-2.1.6c-2 .3-2.5.8-1.4 1.6l.8.6-1.2 1.4c-2.3 2.5-1.5 3.2.9.8zm-2.4-.3c.4-.6 0-.8-.5-.2-.3.3-.3.6-.1.6.2 0 .5-.2.6-.4zm-1-2.7c.1-.4.2-.9.1-1.2 0-.2.2-.7.6-1 .6-.4.6-.4 0-.9-.6-.4-.7-.6-.3-1 .6-.7.2-1.4-.6-1.2-.3 0-.6-.2-.5-.5 0-.5-.2-.6-1-.4-.7.1-1 0-1-.3s-.3-.2-.7.3l-.6.9-.5-.8c-.6-.8-1.4-.5-1.3.5 0 .4-.1.7-.4.7-1.2 0-1.4.5-.7 1.3.4.4.7 1 .6 1.3-.3.9 1 1.7 1.4 1 .4-.8 1.6-1 2-.5.1.3.1 0 0-.4-.1-.5 0-.7.4-.7.5 0 1 .8 1.4 2.5.2 1.1.7 1.3 1 .4zm-12.4-3.8c.3-.1.5-.6.5-1.1 0-1 1-2.6 1.6-2.6.2 0 .7-.7 1.1-1.4 1.2-2.2-.1-1.9-1.4.3l-1 1.5c-.4.5-.7 1.3-.7 1.7 0 .5-.3 1-.5 1.3-.3.3-.5.8-.5 1 0 .6.1.6.3.2 0-.3.4-.7.6-.9zm3.3.5c0-.5-.6-.8-1-.5-.3.2-.3.3 0 .5.7.4 1 .4 1 0zm16-1c0-.8-.3-1.1-.6-1.1-.6 0-.7-.6-.2-.9.3-.2-.2-2.5-.8-3.3-.2-.2-.6-.4-1-.4s-.7-.3-.7-.6c0-1.5-8.7-2.4-9.7-1-.4.5-.6.6-1 .2-.4-.3-.5-.2-.6.3-.2.6 0 .7.8.7.7 0 1.1.3 1.3.7.2.8 1.5 2 1.5 1.4l-.6-1.3c-.8-1.4-.4-2.2 1-2.2s2.8.9 2.8 1.7c0 .4.2.3.5-.4.5-.8.7-1 1.5-.7.5 0 1 .4 1.2.6.4.6 0 2.5-.7 3-.3.2-.4.5-.3.7.2.1.7-.3 1.2-.9 1.4-1.7 2.7-1.4 3 .6 0 .8-.2 1-1.4 1.6-.8.4-1.5.8-1.5 1 0 .1.7.2 1.5.2 1 0 1.7.2 2 .6.6.7.7.6.7-.6zM94 186.3c-.2-.5-1.7-.8-1.7-.3 0 .3.6.7 1.3.7.3 0 .4-.2.4-.4zm6.3-2.1c-.1-.3-.2-.2-.2.2s0 .6.2.5v-.7zm-13 15.5c1-.4 1.7-.9 1.8-1 0-.2.5-.3 1.1-.3.6 0 1.4-.2 1.8-.4l.6-.2c0 .3-2 1.3-4.2 2-2.6.9-3 .8-1-.1zm-17.7.2h.7c.1.1 0 .2-.4.2-.5 0-.5-.1-.3-.2zm-6-6.2c.3-.2.5-.3.7-.2 0 .1-.1.3-.5.4-.5.2-.5.2-.2-.2zm11.6-2.7.4-.4.1.4c0 .2-.2.3-.4.3s-.2-.1-.1-.3z" style="fill:#bbc359;stroke-width:.352778" transform="translate(-44.5 -173.2)"/>
  <path d="M74.3 243.2a14 14 0 0 1-9-6.4c-.8-1.8-1.1-3.5-.4-2.2a17 17 0 0 0 4.1 5.3c4 2.4 10.2 3.3 15.1 2.1 3.4-.8 5.1-1.1 5.1-1 0 .3-3.3 1.7-5.1 2.1-2 .6-7.7.6-9.8.1zm1.5-3.4c-4.5-.9-8.5-3.2-10.3-6-.7-1.2-1-1.4-1-1l-.3-5.4c-.3-6-.3-6.3-2-11.3-.8-2.8-1.8-6.3-2-7.8-.8-3.5-1.2-11.1-.6-9.9A9.2 9.2 0 0 0 64 203c.9.3 1.9.8 2.1 1 .8.6 4.2 1.5 4.7 1.3.5-.4-.2-.9-1.9-1.5-.7-.2-1.3-.6-1.3-.7 0-.2-.2-.2-.5 0-.3 0-.6 0-.6-.3 0-.2-.4-.4-.8-.4-.5 0-1.2-.3-1.6-.6a4 4 0 0 0-1.3-.9c-.6-.2-2.6-1.8-2.6-2.2 0 0 .7.3 1.5.9a29.4 29.4 0 0 0 16.5 3.7 29.7 29.7 0 0 0 17.8-4.5l1-.7-.8 1a33 33 0 0 1-15.2 5.8c-.4.3-.4.4 0 .8.3.4.4.3.7 0 .2-.4.4-.5.4-.3h.5c.5-.3 1.1-.2 2.2.4 1.4.7 1.8.8 2.2.4.3-.3 1.3-.8 2.2-1.1 1-.4 1.8-.8 1.9-1l.7-.2a2 2 0 0 0 1.2-.5c.3-.3.9-.6 1.3-.7.6-.2.7-.1.6.8a44.2 44.2 0 0 1-1.4 17.1c-1 4.8-1.5 10-1 11 .4.5.5.4.8-.6.2-.7.4-2.6.6-4.4.3-5.7.8-6.1.8-.9 0 4.5 0 5-.9 6.7-1.5 3.1-5.6 6-10 7a25 25 0 0 1-8 .5zm-4.2-22.9c1.6-.3 2-1.4 2-4.4 0-2.1 0-2.7-.4-2.7-.7 0-1-1-.3-1.4.4-.3.4-.4 0-1-.2-.4-.6-.7-.8-.6-.2.1-1.3-.2-2.4-.7-1-.5-2.4-.9-2.9-.9-.8.1-.9.2-.9 2 0 1 .3 3.4.6 5.2.5 2.6.8 3.4 1.6 4.2.8.7 1.2 1 1.8.8l1.7-.5zm1.2-11.7c.1-.2 0-.4-.1-.4-.3 0-.4.2-.4.4l.1.3.4-.3zm-7.8-3.6a.8.8 0 0 0-.6-.3c-.2 0-.2.1.1.3.7.5.8.5.5 0zm30 18.5c0-.4 0-.5.2-.2v.7c-.1.1-.2 0-.2-.5zm2.6-12c.4-7.5.6-9.8.8-10.1a54.4 54.4 0 0 1 1-2.7c.7-2.4.4-3.2-1.4-3.2-.8 0-1 0-.6-.4.5-.6 1.2-.6 1.6-.1v-.5c-.1-.5 0-.7.3-.7.6 0 1.3 1 1.3 2l.3 1.1c.3.5.5.5.9-.1.3-.4.4-1 .3-1.2-.1-.3 0-.8.5-1 .6-.5.6-.5 0-1-.6-.4-.7-.6-.3-1 .6-.7.2-1.4-.6-1.2-.3 0-.6-.2-.5-.5 0-.5-.2-.6-1-.4-.7.1-1 0-1-.3s-.3-.2-.7.3l-.6.9-.5-.8c-.6-.8-1.4-.5-1.3.5 0 .4-.1.7-.4.7-1.2 0-1.4.5-.7 1.3.4.4.7 1 .6 1.3 0 .3.2 1 .7 1.3l.8 1.1c0 .5-2.6 3.7-2.8 3.5 0 0 .4-1 1.1-1.9l1.3-1.7-4-1.1a38 38 0 0 0-4.8-1.1c-1 0-1.6-.4-1.9-1.2 0-.3-.4-.6-.7-.6l-2.6-.7c-2-.7-2.3-.7-3-.2-1.3.9-1.5.6-.4-.5 1.2-1.3 2.3-1.4 3.4-.2.5.6 1.2.9 2 .9 1.3 0 1.4 0 1.6-1.3.5-2.7 3-6.7 5.2-8.1 3.6-2.4 11.4-2.5 14.9-.1a16 16 0 0 1 5 12 13 13 0 0 1-3.7 7.3 8.3 8.3 0 0 1-4 2.5c-1.4.4-3 .7-3.6.7h-1.2l-.2 2.8c-.1 1.5-.5 3.6-.7 4.7l-.5 1.9zm7.7-11.8c2-2 3.4-4 3.4-4.7 0-.5-.1-.5-.4-.3a6 6 0 0 1-2.1.6c-2 .3-2.5.8-1.4 1.6l.8.6-1.2 1.4c-2.3 2.5-1.5 3.2.9.8zm-2.4-.3c.4-.6 0-.8-.5-.2-.3.3-.3.6-.1.6.2 0 .5-.2.6-.4zm-13.4-6.5c.3-.1.5-.6.5-1.1 0-1 1-2.6 1.6-2.6.2 0 .7-.7 1.1-1.4 1.2-2.2-.1-1.9-1.4.3l-1 1.5c-.4.5-.7 1.3-.7 1.7 0 .5-.3 1-.5 1.3-.3.3-.5.8-.5 1 0 .6.1.6.3.2 0-.3.4-.7.6-.9zm3.3.5c0-.5-.6-.8-1-.5-.3.2-.3.3 0 .5.7.4 1 .4 1 0zm16-1c0-.8-.3-1.1-.6-1.1-.6 0-.7-.6-.2-.9.3-.2-.2-2.5-.8-3.3-.2-.2-.6-.4-1-.4s-.7-.3-.7-.6c0-1.5-8.7-2.4-9.7-1-.4.5-.6.6-1 .2-.4-.3-.5-.2-.6.3-.2.6 0 .7.8.7.7 0 1.1.3 1.3.7.2.8 1.5 2 1.5 1.4l-.6-1.3c-.8-1.4-.4-2.2 1-2.2s2.8.9 2.8 1.7c0 .4.2.3.5-.4.5-.8.7-1 1.5-.7.5 0 1 .4 1.2.6.4.6 0 2.5-.7 3-.3.2-.4.5-.3.7.2.1.7-.3 1.2-.9 1.4-1.7 2.7-1.4 3 .6 0 .8-.2 1-1.4 1.6-.8.4-1.5.8-1.5 1 0 .1.7.2 1.5.2 1 0 1.7.2 2 .6.6.7.7.6.7-.6zM94 186.3c-.2-.5-1.7-.8-1.7-.3 0 .3.6.7 1.3.7.3 0 .4-.2.4-.4zm6.3-2.1c-.1-.3-.2-.2-.2.2s0 .6.2.5v-.7zm-13 15.5c1-.4 1.7-.9 1.8-1 0-.2.5-.3 1.1-.3.6 0 1.4-.2 1.8-.4l.6-.2c0 .3-1.8 1.2-4.2 2-2.8.9-3 .9-1-.1zm-17.7.2h.7c.1.1 0 .2-.4.2-.5 0-.5-.1-.3-.2zm-6-6.2c.3-.2.5-.3.7-.2 0 .1-.1.3-.5.4-.5.2-.5.2-.2-.2zm11.6-2.7.4-.4.1.4c0 .2-.2.3-.4.3s-.2-.1-.1-.3z" style="fill:#c8b84c;stroke-width:.352778" transform="translate(-44.5 -173.2)"/>
  <path d="M74.3 243.2a14 14 0 0 1-9-6.4c-.8-1.8-1.1-3.5-.4-2.2a17 17 0 0 0 4.1 5.3c4 2.4 10.2 3.3 15.1 2.1 3.4-.8 5.1-1.1 5.1-1 0 .3-3.3 1.7-5.1 2.1-2 .6-7.7.6-9.8.1zm1.5-3.4c-4.5-.9-8.5-3.2-10.3-6-.7-1.2-1-1.4-1-1l-.3-5.4c-.3-6-.3-6.3-2-11.3-.8-2.8-1.8-6.3-2-7.8-.7-3.5-1.2-11.1-.6-9.9.9 2 2.6 3.6 5.1 4.9 1.5.6 2.6 1.3 2.6 1.5 0 .4-.5.5-1.2.4-.4 0 .1 8.4.7 9.7.6 1.5 2.2 2.7 3.2 2.4a33 33 0 0 1 1.7-.4c1.5-.4 2.3-2.2 2.3-5 0-1.9 0-2.1-.6-2.1-.8 0-1.3-1-.7-1.3.2-.1.5-.1.8 0 .3 0 .5-.2.4-.8 0-.5 0-.8-.1-.5-.1.2-.7 0-1.7-.7s-1.5-1.2-1.2-1.3c.5-.4-.2-.9-1.9-1.5-.7-.2-1.3-.6-1.3-.7 0-.2-.2-.2-.5 0-.3 0-.6 0-.6-.3 0-.2-.3-.4-.8-.4-1 0-2.2-.8-1.7-1.1.2-.2.7-.1 1 0 .5.3 2.2.8 3.9 1.2a51 51 0 0 0 17.6.2c3.7-.9 6.3-1.9 8.6-3.3l2-1.2-1.3 1.2a31.4 31.4 0 0 1-11.4 4.8c-1.9.3-3.6.8-3.7.9 0 0 0 .4.3.6.3.4.5.3.7 0 .2-.4.4-.5.4-.3l.6-.1c.5-.2.9-.2 1.3 0 1.6 1.1 2.6 1.4 3 .9l2.2-1.1c1-.4 1.8-.8 1.9-1l.7-.2a2 2 0 0 0 1.2-.5 3 3 0 0 1 1.2-.7c.7-.2.8-.1.7.7a43.9 43.9 0 0 1-1 15.3 37.3 37.3 0 0 0-1.3 12.9c.3.5.4.4.7-.6.2-.7.4-2.6.6-4.4.3-5.7.8-6.1.8-.9 0 4.5 0 5-.9 6.7-1.5 3.1-5.6 6-10 7a25 25 0 0 1-8 .5zm-3-34.6c.1-.2 0-.4-.1-.4-.3 0-.4.2-.4.4l.1.3.4-.3zm-7.8-3.6a.8.8 0 0 0-.6-.3c-.2 0-.2.1.1.3.7.5.8.5.5 0zm30 18.5c0-.4 0-.5.2-.2v.7c-.1.1-.2 0-.2-.5zm2.6-12c.4-7.5.6-9.8.8-10.1a56 56 0 0 1 1.3-4.6c.2-2 .3-2.2.7-.8.2.8.6 1.5.8 1.5.4.2 1.3-1.5 1-2-.1-.2 0-.5.4-.6.8-.3 1-1.5.3-1.5-.6 0-.7-.6-.2-.9.6-.3-.4-1.5-1-1.3-.4.2-.5 0-.3-.4v-.6c-2.1-.3-2.9-.2-3 .3-.3.6-.3.6-.8 0-.6-.8-2-.4-1.7.5 0 .4 0 .6-.3.6-.8 0-1.5 1-1 1.3.5.3.5 1.6 0 1.6-.2 0-.3.2-.3.5s.3.5.7.5c.3 0 .7.2.7.4s-.3.3-.7.2c-2-.5-7-1.7-7.9-1.8-.5-.1-1-.4-1-.7 0-.3-.2-.6-.4-.7-5.4-1.7-5.2-1.7-6-1.1-1.3.9-1.5.6-.4-.5 1.2-1.3 2.3-1.4 3.4-.2 1 1 3.4 1.3 3.4.4 0-2.2 3.1-7.3 5.5-9 3.3-2.3 11.4-2.4 14.8 0a16 16 0 0 1 5 12 13 13 0 0 1-3.7 7.3 8.3 8.3 0 0 1-4 2.5c-1.4.4-3 .7-3.6.7h-1.2l-.2 2.8c-.1 1.5-.5 3.6-.7 4.7l-.5 1.9zm7.7-11.8c2-2 3.4-4 3.4-4.7 0-.5-.1-.5-.4-.3a7 7 0 0 1-2.3.6c-2 .3-2.4.8-1.1 1.7l.8.5-1.3 1.4c-2.3 2.5-1.5 3.2.9.8zm-2.4-.3c.4-.6 0-.8-.5-.2-.3.3-.3.6-.1.6.2 0 .5-.2.6-.4zm-13.4-6.5c.3-.1.5-.6.5-1.1 0-1 1-2.6 1.6-2.6.2 0 .7-.7 1.1-1.4 1.2-2.2-.1-1.9-1.4.3l-1 1.5c-.4.5-.7 1.3-.7 1.7 0 .5-.3 1-.5 1.3-.3.3-.5.8-.5 1 0 .6.1.6.3.2 0-.3.4-.7.6-.9zm3.3.3c-.3-.3-.8-.5-1-.3-.5.3.2.8 1 .8.5 0 .5 0 0-.5zm16-.9c0-.7-.3-1-.6-1-.6 0-.7-.6-.2-.9.3-.2-.2-2.5-.8-3.3-.2-.2-.6-.4-1-.4s-.7-.3-.7-.6c0-1.5-8.7-2.4-9.7-1-.4.5-.6.6-1 .2-.4-.3-.5-.2-.6.3-.2.6 0 .7.8.7s1.1.3 1.6 1.3c.3.7.7 1.3.9 1.4.5.3.3-.9-.3-2-.8-1.3-.4-2 1-2s2.8.8 2.8 1.6c0 .4.2.3.5-.4.5-.8.7-1 1.5-.7.5 0 1 .4 1.2.6.4.6 0 2.5-.7 3-.3.2-.4.6-.4.8.1.3.6 0 1.2-.8 1.4-2 2.8-1.7 3 .4.2.8 0 1-1.6 1.8l-1.7.9h1.8c1 .1 2 .4 2.2.7.6.7.7.6.7-.6zM94 186.3c-.4-.6-1.7-.7-1.7-.2 0 .4 1.5 1 1.9.8.1 0 0-.4-.2-.6zm6.3-1.8c0-.5-.2-.4-.3.3-.1.7 0 .9.1.7.2-.2.3-.7.2-1zm-32.2 20.7c-.9-.4 0-.4 1.3 0 .7.2.7.3.1.3l-1.4-.3zm-6.4-5c-1.7-1.2-1.7-1.8 0-.8.7.5 1.3 1 1.3 1.2 0 .5 0 .4-1.3-.5zm8-.2h.6c.1.1 0 .2-.4.2-.5 0-.5-.1-.3-.2zm18-.4c.7-.3 1.3-.7 1.4-.9 0-.1.5-.2 1.1-.2.6 0 1.4-.2 1.8-.4.5-.3.6-.3.5 0a22 22 0 0 1-5 2c-1 .2-.9.1.2-.5zm6.4-2.8c0-.1.4-.8 1-1.5l1.3-2c.3-.5.5-.5.5 0 0 .2-.6 1.2-1.3 2.1-1.3 1.6-1.5 1.9-1.5 1.4zm-30.5-3c.3-.2.5-.3.7-.2 0 .1-.1.3-.5.4-.5.2-.5.2-.2-.2zm11.6-2.7.4-.4.1.4c0 .2-.2.3-.4.3s-.2-.1-.1-.3z" style="fill:#cacb31;stroke-width:.352778" transform="translate(-44.5 -173.2)"/>
  <path d="M74.3 243.2a14 14 0 0 1-9-6.4c-.8-1.8-1.1-3.5-.4-2.2a17 17 0 0 0 4.1 5.3c4 2.4 10.2 3.3 15.1 2.1 3.4-.8 5.1-1.1 5.1-1 0 .3-3.3 1.7-5.1 2.1-2 .6-7.7.6-9.8.1zm1.5-3.4c-4.5-.9-8.5-3.2-10.3-6-.7-1.2-1-1.4-1-1l-.3-5.4c-.3-6-.3-6.3-2-11.3a52.2 52.2 0 0 1-2.8-14.3l-.2-3.5 1 1.6c1.3 2 2.2 2.8 3.4 3 1 .2 3 1.1 3 1.4 0 0-.2.1-.4 0-.3 0-.5.5-.6 1.2-.1 1.5.6 7.5 1 9.1.6 1.5 2.4 3 3.4 2.7l1.7-.4c1.5-.4 2.3-2.2 2.3-5 0-1.9 0-2.1-.6-2.1-.8 0-1.3-1-.7-1.3.2-.1.5-.1.8 0 .3 0 .5-.2.4-.8 0-.5 0-.8-.1-.5-.1.2-.7 0-1.7-.7s-1.5-1.2-1.2-1.3c.5-.4-.2-.9-1.9-1.5-.7-.2-1.3-.6-1.3-.7 0-.2-.2-.2-.5 0-.3 0-.6 0-.6-.3 0-.2-.3-.4-.8-.4-1.1 0-2.3-.8-1.6-1.2.3-.2.3-.1.1.2-.2.3 0 .4.3.3a6 6 0 0 1 2.4.4c6 2 17.6 1.7 23.8-.6.6-.2.6-.1-.1.5-1 1-2.1 1.3-6.4 2.2l-3.5.9s0 .4.3.6c.3.4.5.3.7 0 .2-.4.4-.5.4-.3h.5c.5-.3 1.1-.2 2.2.4 1.5.7 2.6.8 2.6.2 0-.2.4-.3 1-.3 1.8 0 3.2-.5 3-.9 0-.2.3-.4.6-.4s.9-.3 1.2-.6c1.5-1.3 1.6-1.2 1.7 3.1 0 4-.4 8.8-1.4 13.5-1 5.1-1.5 10.2-1 11.2.4.5.5.4.8-.6.2-.7.4-2.6.6-4.4.3-5.7.8-6.1.8-.9 0 4.5 0 5-.9 6.7-1.5 3.1-5.6 6-10 7a25 25 0 0 1-8 .5zm-3-34.6c.1-.2 0-.4-.1-.4-.3 0-.4.2-.4.4l.1.3.4-.3zm22 15c.1-.5.2-.6.3-.3v.7c-.1.1-.2 0-.2-.5zm3.3-14.3c0-.7 0-1 .2-.6v1.2c-.1.3-.2 0-.2-.6zm-29.9-.7c-.9-.4 0-.4 1.3 0 .7.2.7.3.1.3l-1.4-.3zm30.2-4.3c0-1.5.3-3.2.7-4.7.4-1.3.7-2.7.6-3.1v-1.3c.2-.3.3 0 .6.8.2.8.6 1.5.8 1.5.4.2 1.3-1.5 1-2-.1-.2 0-.5.4-.6.8-.3 1-1.5.3-1.5-.6 0-.7-.6-.2-.9.6-.3-.4-1.5-1-1.3-.4.2-.5 0-.3-.4v-.6c-2.1-.3-2.9-.2-3 .3-.3.6-.3.6-.8 0-.6-.8-2-.4-1.7.5 0 .4 0 .6-.3.6-.8 0-1.5 1-1 1.3.5.3.5 1.6 0 1.6-.2 0-.3.2-.3.5s.3.5.7.5c.3 0 .7.2.7.4 0 .4-.2.4-3.2-.4-3.8-1-3.7-1-3-1.6.3-.4.9-.4 2-.3 1.5.2 1.7.2 1.5-.3-.1-.4-.7-.7-1.3-.8-1.2-.3-1.5-.6-1-1.6.4-.6.7-.7 2-.6 1.8.2 2.4-.3 1.3-1.1-.7-.6-.7-.8-.4-1.6.6-1.3 1.6-1.1 3 .4.6.7 1.2 1.2 1.3 1.1l-.1-1.5c-.3-1.2-.2-1.5.2-1.9.8-.6 1.3-.5 2 .2.5.5.5 1 .3 1.9-.5 1.7-.3 1.6.8-.2.7-1.2 1.2-1.6 1.8-1.6 1 0 1.4.9.7 2.2-1 1.7-.5 2.2.8 1 1-.9 1.3-1 1.9-.6 1 .6.7 1.7-.8 2.5-1.6.9-1.6 1.4.1 1.4.7 0 1.5.2 1.8.5 1 .9.6 1.6-1.3 2-2 .4-2.5 1.3-1.4 2.1.6.5.5.6-1.4 2.5-1 1-2.1 1.9-2.3 1.8-.4-.3-1.2.7-1 1.2.8 1.1 5-.5 6-2.4.2-.4.6-.8.8-.7.2.1.8-.6 1.4-1.5.7-1.5 1-2.4 1-5 .2-2.8.1-3.4-.3-3.6-.3-.1-.4-.5-.3-1 .1-.3 0-.6-.2-.6s-.6-.4-.8-1c-.2-.4-.6-.8-.9-.8-.2 0-.7-.4-1-.9-.3-.5-.7-.8-.9-.7-.1.1-.7 0-1.2-.2a18 18 0 0 0-7-.2c-.9.3-1.6.6-1.4.7.1.1 0 .2-.2.2s-.4-.2-.5-.4c0-.2-.4-.3-.7-.2-.4.2-.5.5-.4.9v.3c-.6-.7-1.3-.6-1.3 0 0 .4-.4 1-.8 1.6-.5.4-1 1-1 1.4 0 .3-.2.7-.6.8-.5.2-.7.6-.7 1.2s-.2 1.1-.3 1.3l-.3.5-.3.9c-.2.4-.1.7.2 1 .4.2.3.2-.4.2-1 0-1.6-.3-1.9-1a1 1 0 0 0-.8-.7c-.5 0-.5-.1.1-.4.5-.1.8-.5.8-.8 0-2.2 3.1-7.3 5.5-9 3.3-2.3 11.4-2.4 14.8 0a16 16 0 0 1 5 12 13 13 0 0 1-3.7 7.3 8.3 8.3 0 0 1-4 2.5c-1.4.4-3 .7-3.6.7-1 0-1.2.2-1.4.8l-.2-1.5zm4.6-4.9c.2-.2.4-.4.3-.5-.2-.2-.6 0-1 .3-1 .6-.3.8.7.2zm-11.7-13.5c.4-.5.4-.6-.1-.6-.4 0-.6.3-.6.8l.1.6.6-.8zm-29.5 17.6c-.6-.4-1.2-1-1.3-1.2-.1-.3.4 0 1.1.5a213.7 213.7 0 0 0 1.5 1.3c-.1.1-.7-.1-1.3-.6zm26.7-.4c0-.3 2.5-1.3 2.8-1v.1l-1.5.6-1.3.3zM95 196l1.4-2.2c.4-.7.6-.9.7-.6 0 .5-2.4 3.9-2.7 3.9l.6-1.1z" style="fill:#c4b438;stroke-width:.352778" transform="translate(-44.5 -173.2)"/>
  <path d="M74.3 243.2a14 14 0 0 1-9-6.4c-.8-1.8-1.1-3.5-.4-2.2a17 17 0 0 0 4.1 5.3c4 2.4 10.2 3.3 15.1 2.1 3.4-.8 5.1-1.1 5.1-1 0 .3-3.3 1.7-5.1 2.1-2 .6-7.7.6-9.8.1zm1.5-3.4c-4.5-.9-8.5-3.2-10.3-6-.7-1.2-1-1.4-1-1l-.3-5.4c-.3-6-.3-6.3-2-11.3a52.2 52.2 0 0 1-2.8-14.3l-.2-3.5 1 1.6c1.3 2 2.1 2.7 3.8 3.3 1.3.4 1.4.5 1.5 2 .3 4.7.8 9 1.3 9.8.8 1.5 2.3 2.6 3.2 2.3a33 33 0 0 1 1.7-.4c1.5-.4 2.3-2.2 2.3-5 0-1.9 0-2.1-.6-2.1-.8 0-1.3-1-.7-1.3.2-.1.6-.1.8 0 .4.1.5 0 .5-.8s-.2-1-1.8-1.6c-1-.4-1.6-.7-1.4-1 .6-.3 0-.7-1.8-1.4-.7-.2-1.3-.6-1.3-.7 0-.2-.2-.2-.5 0-.3 0-.6 0-.6-.3 0-.2-.3-.4-.8-.4a3 3 0 0 1-1.5-.5c-.6-.5-.6-.5.2-.1l.9.3 2.8.6c2.3.5 4.2.6 9.5.6 6 0 7-.1 10.1-1l3.4-.8-1.5 1c-1 .5-3.3 1.3-5.2 1.7-1.9.3-3.6.8-3.7.9 0 0 0 .4.3.6.3.4.5.3.7 0 .2-.4.4-.5.4-.3h.5c.5-.3 1.1-.2 2.3.4 1.9 1 2.4 1 2.6.4.1-.2.6-.5 1-.5 1.8-.1 3-.5 3-.9 0-.2.2-.4.5-.4s.9-.3 1.2-.6c1-.8 1.7-1.2 1.4-.7a56 56 0 0 1-1.1 17.2c-1 5.3-1.5 10.4-1 11.3.4.5.5.4.8-.6.2-.7.4-2.6.6-4.4.3-5.7.8-6.1.8-.9 0 4.5 0 5-.9 6.7-1.5 3.1-5.6 6-10 7a25 25 0 0 1-8 .5zm-3-34.6c.1-.2 0-.4-.1-.4-.3 0-.4.2-.4.4l.1.3.4-.3zm22 15c.1-.5.2-.6.3-.3v.7c-.1.1-.2 0-.2-.5zm3.3-14.3c0-.7 0-1 .2-.6v1.2c-.1.3-.2 0-.2-.6zm.3-5c0-1.7.2-3.1.7-4.6.4-1.2.7-2.5.6-3-.2-1.2.3-1 .7.2.5 1.3 1.8 1.4 1.6.2-.2-1.3 1.2-1.5 2.3-.4l1 1-1.8 1.7c-1.6 1.6-2.2 2-3.4 2-.2.1-.3.4-.3.8 0 1.8 4.9.2 6-2 .3-.4.7-.8.9-.7.2.1.8-.6 1.4-1.5.7-1.5 1-2.4 1-5 .2-2.8.1-3.4-.3-3.6-.3-.1-.4-.5-.3-1 .1-.3 0-.6-.2-.6s-.6-.4-.8-1c-.2-.4-.6-.8-.9-.8-.2 0-.7-.4-1-.9-.3-.5-.7-.8-.9-.7-.1.1-.7 0-1.2-.2a18 18 0 0 0-7-.2c-.9.3-1.6.6-1.4.7.1.1 0 .2-.2.2s-.4-.2-.5-.4c0-.2-.4-.3-.7-.2-.4.2-.5.5-.4.9v.3c-.6-.7-1.3-.6-1.3 0 0 .4-.4 1-.8 1.6-.5.4-1 1-1 1.4 0 .3-.2.7-.6.8-.5.2-.7.6-.7 1.2s-.2 1.1-.3 1.3l-.3.5-.3.9c-.2.4-.1.7.2 1 .4.2.3.2-.4.2-1 0-1.6-.3-1.9-1a1 1 0 0 0-.8-.7c-.6 0-.5 0 0-.3.5-.2 1-1 1.4-2.5a15 15 0 0 1 5.8-8c3.6-1.8 11-1.5 14 .6a16 16 0 0 1 5 12 13 13 0 0 1-3.7 7.3 8.3 8.3 0 0 1-4 2.5c-1.4.4-3 .7-3.6.7-1 0-1.2.2-1.4.8l-.2-1.6zm4.7-5.2c0-.8-.6-.8-1.1 0-.4.6-.4.7.3.6.5 0 .8-.4.8-.6zm-11.8-13.2c.4-.5.4-.6-.1-.6-.4 0-.6.3-.6.8l.1.6.6-.8zm-30 17.4c-.4-.4-.6-.7-.4-.7.2 0 .6.3 1 .7.8.9.6.9-.5 0zm27.2-.2c0-.3 2.5-1.3 2.8-1v.1l-1.5.6-1.3.3zM95 196c.4-.6.8-1 .9-1l-.6 1a4 4 0 0 1-1 1l.7-1zm1.4-1.8c0-.3.1-.7.3-1 .3-.5.4-.5.4 0 0 .3-.2.7-.4 1-.3.5-.3.5-.3 0zm-3.7-2c-3.2-1-3.4-1-3.2-1.7.2-.4.6-.5 1.7-.3 1.7.3 2.7.7 2.7 1.3 0 .2.3.6.6.8.8.6.8.6-1.8-.1zm11.2-.7c-.3 0-.5-.4-.5-.8 0-.8.6-1.3 2.2-1.5 1-.2 1.4-.1 1.9.4.3.4.5 1 .4 1.2-.3.7-2.9 1.2-4 .7zm-12.3-2.4c-1-.3-1.3-.7-.9-1.5.5-1 2.3-1 3.4-.2 1.3 1-.4 2.2-2.5 1.7zm11.1-1.3c0-.3.7-1 1.5-1.8 1.2-1 1.5-1.2 2-.8 1 .6.9 1.6-.4 2.3-1.3.8-3 1-3 .3zm-8.5-1.8c-.9-.8-1-1-.5-1.8.5-1.2 1.7-1.2 2.5 0 1.3 2-.2 3.4-2 1.8zm4-.3-.5-2c-.2-1-.1-1.2.6-1.5 1.2-.6 2.4.4 2 1.8-.2 1.1-1 2.5-1.5 2.5-.2 0-.5-.4-.6-.8zm2.2.4c-.1-.2.2-1 .7-2 .7-1 1.2-1.5 1.8-1.5 1.1 0 1.4 1 .5 2.3-.9 1.5-2.4 2.1-3 1.2z" style="fill:#abb04f;stroke-width:.352778" transform="translate(-44.5 -173.2)"/>
  <path d="M74.3 243.2a14 14 0 0 1-9-6.4c-.8-1.8-1.1-3.5-.4-2.2a17 17 0 0 0 4.1 5.3c4 2.4 10.2 3.3 15.1 2.1 3.4-.8 5.1-1.1 5.1-1 0 .3-3.3 1.7-5.1 2.1-2 .6-7.7.6-9.8.1zm1.5-3.4c-4.5-.9-8.5-3.2-10.3-6-.7-1.2-1-1.4-1-1l-.3-5.4c-.3-6-.3-6.3-2-11.5a48 48 0 0 1-2.8-14l-.2-3.6 1 1.6c1.3 2 2.1 2.7 3.8 3.3 1.3.4 1.4.5 1.5 2 .4 7.2 1.4 12 2.8 13.4.8 1 3.2 1.5 4.2 1 .5-.1.8-.5.7-.7-.2-.2-.1-.6.1-.8.2-.3.3-.8.2-1-.1-.4 0-.9.1-1.1.2-.3.4-2.5.5-5v-4.7l1.1-.2 2.8.1c1 .2 1.8.1 2-.1.3-.3.4-.2.4 0 0 .5 3.6.5 4 0 0-.2.3-.2.6 0 .9.5 2.2.5 2.6 0l1-.5c2-.2 3-.5 3-.9 0-.2.2-.4.5-.4s.9-.3 1.2-.6c1-.8 1.7-1.2 1.4-.7a48.3 48.3 0 0 1-1.3 17.1 50.4 50.4 0 0 0-1.5 11.6c.2 1.1.3 1.3.7 1 1.1-1 1.6-2.5 1.6-5.4 0-1.6.1-3.6.3-4.5.2-1.2.3-.5.3 3 0 4.2 0 4.6-.9 6.4-2 4.3-7.5 7.2-14 7.7l-4-.1zm-2.6-8.4c1.1-.3 1.5-2 .7-3.3-.5-.7-2-1.8-2.6-1.8-.8 0-1.5 1.2-1.5 2.6 0 2 .9 3.2 2 3l1.4-.5zm0-22c-.2-.2-.2-.5 0-.6.2-.3.6.1.4.7-.1.3-.2.3-.4 0zm25-3.5v-.6c.2.3.2.9 0 1.2v-.6zm-26.6 0c-.5-.3-.5-.4 0-.4.4 0 .7.2.7.4 0 .4 0 .4-.7 0zm1.1-2.1c-3.5-.6-2.3-.7 3.7-.5 5.3.2 6.3.1 9.6-.6a33 33 0 0 0 5.2-1.3c.3.3-3.3 1.9-4.6 2a53.3 53.3 0 0 1-13.9.4zm-3.7-1h.7c.1.2 0 .2-.4.2-.5 0-.5 0-.3-.2zm29.4-2c0-1.6.2-3 .7-4.4.4-1 .7-2.4.7-3v-1.1l.5 1c.6 1.4 2 1.6 1.7.4-.2-1.3 1.1-1.5 2.3-.4l1 1-1.8 1.7c-1.6 1.6-2.2 2-3.4 2-.2.1-.3.4-.3.8 0 1.8 4.9.2 6-2 .3-.4.7-.8.9-.7.2.1.8-.6 1.4-1.5.7-1.5 1-2.4 1-5 .2-2.8.1-3.4-.3-3.6-.3-.1-.4-.5-.3-1 .1-.3 0-.6-.2-.6s-.6-.4-.8-1c-.2-.4-.6-.8-.9-.8-.2 0-.7-.4-1-.9-.3-.5-.7-.8-.9-.7-.1.1-.7 0-1.2-.2a18 18 0 0 0-7-.2c-.9.3-1.6.6-1.4.7.1.1 0 .2-.2.2s-.4-.2-.5-.4c0-.2-.4-.3-.7-.2-.4.2-.5.5-.4.9v.3c-.6-.7-1.3-.6-1.3 0 0 .4-.4 1-.8 1.6-.5.4-1 1-1 1.4 0 .3-.2.7-.6.8-.5.2-.7.6-.7 1.2s-.2 1.1-.3 1.3l-.3.5-.3.9c-.2.4-.1.7.2 1 .4.2.2.3-.4.1l-1.3-.2c-.3 0-.5-.3-.5-.7 0-.5-.2-.7-.8-.7-.7 0-.7 0 0-.3.4-.2.9-1 1.3-2.3.3-1.1 1.1-2.9 1.8-3.9 2.7-4.2 4.9-5.3 10.8-5.3 4 0 6.2.7 8 2.4 2.3 2 4 6.5 4 10.3.1 2.8-.4 4.4-2.5 7a11.7 11.7 0 0 1-7.8 4.3c-1.7.2-2 .4-2.2 1l-.2-1.7zm4.7-5.1c0-.8-.6-.8-1.1 0-.4.6-.4.7.3.6.5 0 .8-.4.8-.6zm-11.8-13.2c.4-.5.4-.6-.1-.6-.4 0-.6.3-.6.8l.1.6.6-.8zm-2.8 17.2c0-.3 2.5-1.3 2.8-1v.1l-1.5.6-1.3.3zM95 196c.4-.6.8-1 .9-1l-.6 1a4 4 0 0 1-1 1l.7-1zm-2.3-3.9c-2.4-.6-3-.9-3-1.1v-.7c0-.2.5-.3 1.5-.1 1.8.3 2.7.7 2.7 1.4 0 .2.2.5.4.6.8.3-.4.2-1.6 0zm11.2-.6c-.3 0-.5-.4-.5-.8 0-.8.6-1.3 2.2-1.5 1-.2 1.4-.1 1.9.4.3.4.5 1 .4 1.2-.3.7-2.9 1.2-4 .7zm-12.3-2.4c-1-.3-1.3-.7-.9-1.5.5-1 2.3-1 3.4-.2 1.3 1-.4 2.2-2.5 1.7zm11.1-1.3c0-.3.7-1 1.5-1.8 1.2-1 1.5-1.2 2-.8 1 .6.9 1.6-.4 2.3-1.3.8-3 1-3 .3zm-8.5-1.8c-.9-.8-1-1-.5-1.8.5-1.2 1.7-1.2 2.5 0 1.3 2-.2 3.4-2 1.8zm4-.3-.5-2c-.2-1-.1-1.2.6-1.5 1.2-.6 2.4.4 2 1.8-.2 1.1-1 2.5-1.5 2.5-.2 0-.5-.4-.6-.8zm2.2.4c-.1-.2.2-1 .7-2 .7-1 1.2-1.5 1.8-1.5 1.1 0 1.4 1 .5 2.3-.9 1.5-2.4 2.1-3 1.2z" style="fill:#76939d;stroke-width:.352778" transform="translate(-44.5 -173.2)"/>
  <path d="M74 239.2c-4-1.1-7-3.1-8.7-6.1-.9-1.5-1-2-1.2-6.8a29 29 0 0 0-1.8-10.4 50 50 0 0 1-2.9-14l-.2-3.6 1 1.6c1.3 2 2.1 2.7 3.8 3.3 1.3.4 1.4.5 1.5 2 .4 7.2 1.4 12 2.8 13.4.8 1 3.2 1.5 4.2 1 .5-.1.8-.5.7-.7-.2-.2-.1-.6.1-.8.2-.3.3-.8.2-1-.1-.4 0-.9.1-1.1.2-.3.4-2.5.5-5v-4.7l1.1-.2 2.8.1c1 .2 1.8.1 2-.1.3-.3.4-.2.4 0 0 .5 3.6.5 4 0 0-.2.3-.2.6 0 .9.5 2.2.5 2.6 0l1-.5c2-.2 3-.5 3-.9 0-.2.2-.4.5-.4s.9-.3 1.2-.6c1-.8 1.7-1.2 1.4-.7a48.3 48.3 0 0 1-1.3 17.1 50.4 50.4 0 0 0-1.5 11.6c.2 1.1.3 1.3.7 1 1.1-1 1.6-2.5 1.6-5.4 0-1.6.1-3.6.3-4.5.2-1.2.3-.6.3 2.8 0 4 0 4.6-.8 6.3-.5 1-1.5 2.4-2.3 3.2a20.6 20.6 0 0 1-8.4 4.3c-2.4.5-7.2.4-9.3-.2zm-.8-7.8c1.1-.3 1.5-2 .7-3.3-.5-.7-2-1.8-2.6-1.8-.8 0-1.5 1.2-1.5 2.6 0 2 .9 3.2 2 3l1.4-.5zm0-22c-.2-.2-.2-.5 0-.6.2-.3.6.1.4.7-.1.3-.2.3-.4 0zm25-3.5v-.6c.2.3.2.9 0 1.2v-.6zm-26.6 0c-.5-.3-.5-.4 0-.4.4 0 .7.2.7.4 0 .4 0 .4-.7 0zm1.1-2.1c-3.5-.6-2.3-.7 3.7-.5 5.3.2 6.3.1 9.6-.6a33 33 0 0 0 5.2-1.3c.3.3-3.3 1.9-4.6 2a53.3 53.3 0 0 1-13.9.4zm-3.7-1h.7c.1.2 0 .2-.4.2-.5 0-.5 0-.3-.2zm29.4-2c0-1.6.2-3 .7-4.4.4-1 .7-2.4.7-3v-1.1l.5 1c.6 1.4 2 1.6 1.7.4-.2-1.3 1.1-1.5 2.3-.4l1 1-1.8 1.7c-1.6 1.6-2.2 2-3.4 2-.2.1-.3.4-.3.8 0 1.8 4.9.2 6-2 .3-.4.7-.8.9-.7.2.1.8-.6 1.4-1.5.7-1.5 1-2.4 1-5 .2-2.8.1-3.4-.3-3.6-.3-.1-.4-.5-.3-1 .1-.3 0-.6-.2-.6s-.6-.4-.8-1c-.2-.4-.6-.8-.9-.8-.2 0-.7-.4-1-.9-.3-.5-.7-.8-.9-.7-.1.1-.7 0-1.2-.2a18 18 0 0 0-7-.2c-.9.3-1.6.6-1.4.7.1.1 0 .2-.2.2s-.4-.2-.5-.4c0-.2-.4-.3-.7-.2-.4.2-.5.5-.4.9v.3c-.6-.7-1.3-.6-1.3 0 0 .4-.4 1-.8 1.6-.5.4-1 1-1 1.4 0 .3-.2.7-.6.8-.5.2-.7.6-.7 1.2s-.2 1.1-.3 1.3l-.3.5-.3.9c-.2.4-.1.7.2 1 .4.2.2.3-.4.1l-1.3-.2c-.3 0-.5-.3-.5-.7 0-.5-.2-.7-.8-.7-.7 0-.7 0 0-.3.4-.2.9-1 1.3-2.3.3-1.1 1.1-2.9 1.8-3.9 2.7-4.2 4.9-5.3 10.8-5.3 4 0 6.2.7 8 2.4 2.3 2 4 6.5 4 10.3.1 2.8-.4 4.4-2.5 7a11.7 11.7 0 0 1-7.8 4.3c-1.7.2-2 .4-2.2 1l-.2-1.7zm4.7-5.1c0-.8-.6-.8-1.1 0-.4.6-.4.7.3.6.5 0 .8-.4.8-.6zm-11.8-13.2c.4-.5.4-.6-.1-.6-.4 0-.6.3-.6.8l.1.6.6-.8zm-2.8 17.2c0-.3 2.5-1.3 2.8-1v.1l-1.5.6-1.3.3zM95 196c.4-.6.8-1 .9-1l-.6 1a4 4 0 0 1-1 1l.7-1zm-3.3-4.2c-1.2-.3-2-.7-2-.8v-.7c0-.2.5-.3 1.5-.1 1.8.3 2.7.7 2.7 1.4 0 .2.2.5.4.6 1 .5-.7.2-2.6-.4zm12.2-.3c-.3 0-.5-.4-.5-.8 0-.8.6-1.3 2.2-1.5 1-.2 1.4-.1 1.9.4.3.4.5 1 .4 1.2-.3.7-2.9 1.2-4 .7zm-12.3-2.4c-1-.3-1.3-.7-.9-1.5.5-1 2.3-1 3.4-.2 1.3 1-.4 2.2-2.5 1.7zm11.1-1.3c0-.3.7-1 1.5-1.8 1.2-1 1.5-1.2 2-.8 1 .6.9 1.6-.4 2.3-1.3.8-3 1-3 .3zm-8.5-1.8c-.9-.8-1-1-.5-1.8.5-1.2 1.7-1.2 2.5 0 1.3 2-.2 3.4-2 1.8zm4-.3-.5-2c-.2-1-.1-1.2.6-1.5 1.2-.6 2.4.4 2 1.8-.2 1.1-1 2.5-1.5 2.5-.2 0-.5-.4-.6-.8zm2.2.4c-.1-.2.2-1 .7-2 .7-1 1.2-1.5 1.8-1.5 1.1 0 1.4 1 .5 2.3-.9 1.5-2.4 2.1-3 1.2z" style="fill:#c4c814;stroke-width:.352778" transform="translate(-44.5 -173.2)"/>
  <path d="M74 239.2c-4-1.1-7-3.1-8.7-6.1-.9-1.5-1-2-1.2-6.8a29 29 0 0 0-1.8-10.4 48.5 48.5 0 0 1-2.7-11.7c0-1 0-1.2.4-.8.2.4.3.2.2-.8-.1-1.7.3-2 1.4-.9.6.6 1.6 1.2 2.4 1.5 1.3.4 1.4.5 1.5 2 .4 7.2 1.4 12 2.8 13.4.8 1 3.2 1.5 4.2 1 .5-.1.8-.5.7-.7-.2-.2-.1-.6.1-.8.2-.3.3-.8.2-1-.1-.4 0-.9.1-1.1.2-.3.4-2.5.5-5v-4.7l1.1-.2 2.8.1c1 .2 1.8.1 2-.1.3-.3.4-.2.4 0 0 .5 3.6.5 4 0 0-.2.3-.2.6 0 .8.5 2.4.6 2.6 0 .1-.2.7-.5 1.4-.5 2.9-.3 2.9-.3 2.8.5-.1.6 0 .7.6.6.4-.1 1-.5 1.2-.9.6-1 .8-.8 1 .9.3 4.9 0 9.3-1.1 13.3a50.8 50.8 0 0 0-1.6 11.7c.2 1.1.3 1.3.7 1 1.1-1 1.6-2.5 1.6-5.4 0-1.6.1-3.6.3-4.5.2-1.2.3-.6.3 2.8 0 4 0 4.6-.8 6.3-.5 1-1.5 2.4-2.3 3.2a20.6 20.6 0 0 1-8.4 4.3c-2.4.5-7.2.4-9.3-.2zm-.8-7.8c1.1-.3 1.5-2 .7-3.3-.5-.7-2-1.8-2.6-1.8-.8 0-1.5 1.2-1.5 2.6 0 2 .9 3.2 2 3l1.4-.5zm0-22c-.2-.2-.2-.5 0-.6.2-.3.6.1.4.7-.1.3-.2.3-.4 0zm-1.6-3.5c-.5-.3-.5-.4 0-.4.4 0 .7.2.7.4 0 .4 0 .4-.7 0zm1.1-2.1c-3.5-.6-2.3-.7 3.7-.5 5.3.2 6.3.1 9.6-.6a33 33 0 0 0 5.2-1.3c.3.3-3.3 1.9-4.6 2a53.3 53.3 0 0 1-13.9.4zm-3.7-1h.7c.1.2 0 .2-.4.2-.5 0-.5 0-.3-.2zm29.7-3.4c0-1.2.3-2.8.6-3.5.3-.7.5-1.8.5-2.4v-1.2l.5 1c.6 1.4 2 1.6 1.7.4-.2-1.3 1.2-1.5 2.2-.4l.9 1-1.7 1.7c-1.4 1.6-2 2-3.3 2-.2.1-.3.4-.3.8 0 1.8 4.9.2 6-2 .3-.4.6-.8.9-.7.2 0 .8-.6 1.3-1.4.9-1.4 1-2 1.2-5 .1-2.8 0-3.5-.4-3.7-.3-.1-.4-.5-.3-1 .1-.3 0-.6-.2-.6s-.6-.4-.8-1c-.2-.4-.6-.8-.9-.8-.2 0-.7-.4-1-.9-.3-.5-.7-.8-.9-.7-.1.1-.7 0-1.2-.2a18 18 0 0 0-7-.2c-.9.3-1.6.6-1.4.7.1.1 0 .2-.2.2s-.4-.2-.5-.4c0-.2-.4-.3-.7-.2-.4.2-.5.5-.4.9v.3c-.6-.7-1.3-.6-1.3 0 0 .4-.4 1-.8 1.6-.5.4-1 1-1 1.4 0 .3-.2.7-.6.8-.5.2-.7.6-.7 1.2s-.2 1.1-.3 1.3l-.3.5-.3.9c-.2.4-.1.7.2 1 .4.2.2.3-.4.1l-1.3-.2c-1.3 0-.2-4.7 1.8-8 2.7-4.1 5-5.2 10.8-5.2 4 0 6.2.7 8 2.4 2.3 2 4 6.5 4 10.3.1 2.8-.4 4.4-2.5 7a11.9 11.9 0 0 1-7.8 4.3l-2 .2zm4.4-3.7c0-.8-.6-.8-1.1 0-.4.6-.4.7.3.6.5 0 .8-.4.8-.6zm-11.8-13.2c.4-.5.4-.6-.2-.6-.6 0-.7.2-.6.7.1.4.2.7.3.6l.5-.7zm.3 9.3c-1.2-.3-2-.7-2-.8v-.7c0-.2.5-.3 1.5-.1 1.8.3 2.7.7 2.7 1.4 0 .2.2.5.4.6 1 .5-.7.2-2.6-.4zm12.2-.3c-1-.4-.4-1.9 1-2 .6-.2 2.8.5 2.8.8 0 .2-.5.5-1 .9-1 .6-2 .7-2.8.3zM91.2 189c-.9-.4-1.3-1-.6-1 .2 0 .4-.3.4-.5 0-.7 2-.7 3 0 .5.4.6.6.3 1.1-.5.7-1.7.9-3 .4zm11.4-1.2c0-.7 2.6-2.4 2.9-1.9.3.5 0 1.8-.6 2.2-.7.4-2.3.3-2.3-.3zm-8.3-1.6c-.7-.7-.7-1-.4-1.8.4-1.2.5-1.2 1.8-.2.7.6 1 1.1.9 1.7-.2 1.1-1.3 1.3-2.3.3zm3.7-.5c-.9-2.4.3-4.5 1.6-3 .4.4.5.7.3.7s-.3.5-.2 1c.2 1-.4 2.2-1 2.2-.2 0-.5-.4-.7-1zm2.3.5c-.1-.2.1-.9.5-1.4l.8-1.4c0-.2.4-.3 1-.2.6 0 1 .3 1 .9 0 1.5-2.6 3.2-3.3 2z" style="fill:#bbc215;stroke-width:.352778" transform="translate(-44.5 -173.2)"/>
  <path d="M74 239.2c-4-1.1-7-3.1-8.7-6.1-.9-1.5-1-2-1.2-6.8a29 29 0 0 0-1.8-10.4 53 53 0 0 1-2.7-11.4v-1l.7 1.1a5 5 0 0 0 1.2 1.4c.4.2.6 0 .6-.6 0-.5.2-1 .5-1 .8-.4.9-.4.9.5 0 .8 0 .8.3 0 .4-1.7 1.7 1.7 2.1 5.6.4 3.5 1.4 7 2.4 8.1.8 1 3.2 1.5 4.2 1 .5-.1.8-.5.7-.7-.2-.2-.1-.6.1-.8.2-.3.3-.8.2-1-.1-.4 0-.9.1-1.1.2-.3.4-2.5.5-5v-4.7l1.1-.2 2.8.1c1 .2 1.8.1 2-.1.3-.3.4-.2.4 0 0 .5 3.6.5 4 0 .1-.2.4-.2.8.2l.7.4 1-.1c.6 0 .7 0 .1.6-.5.5-.7.5-1.2 0-.6-.4-.6-.4-.2 0 .4.6.4.8.5 1.4 0 .2.2 0 .5-.4.5-.7.6-.7.9-.1.2.3.5.5.8.4l1.9-.3c.8 0 1.7-.4 2-.7.3-.3.7-.6.9-.6.3 0 .6.8.7 1.6l.4.8c.7.8.3 6.8-.8 10.9a50.1 50.1 0 0 0-1.5 11.5c.2 1.1.3 1.3.7 1 1.1-1 1.6-2.5 1.6-5.4 0-1.6.1-3.6.3-4.5.2-1.2.3-.6.3 2.8 0 4 0 4.6-.8 6.3-.5 1-1.5 2.4-2.3 3.2a20.6 20.6 0 0 1-8.4 4.3c-2.4.5-7.2.4-9.3-.2zm-.8-7.8c1.1-.3 1.5-2 .7-3.3-.5-.7-2-1.8-2.6-1.8-.8 0-1.5 1.2-1.5 2.6 0 2 .9 3.2 2 3l1.4-.5zm0-22c-.2-.2-.2-.5 0-.6.2-.3.6.1.4.7-.1.3-.2.3-.4 0zm-1.6-3.5c-.5-.3-.5-.4 0-.4.4 0 .7.2.7.4 0 .4 0 .4-.7 0zm1.1-2.1c-3.5-.6-2.3-.7 3.7-.5 5.3.2 6.3.1 9.6-.6a33 33 0 0 0 5.2-1.3c.3.3-3.3 1.9-4.6 2a53.3 53.3 0 0 1-13.9.4zm-3.7-1h.7c.1.2 0 .2-.4.2-.5 0-.5 0-.3-.2zm29.7-2.8c0-1 .3-2.7.6-3.8.3-1 .5-2.4.5-3 0-.9 0-.9.6.3.3.7.7 1 1 1 1-.4 1.3.3.5 1.3-.5.6-.6 1-.3 1s0 .2-.7.5c-1.2.5-1.5 1.6-.6 2.7.4.7.5.6 2.5-.5l2.9-1.5c.4-.2.8-.6.8-.8 0-.2.2-.5.5-.6l1.4-1.8c.9-1.5 1-2.1 1-5 .2-3.8-.2-5-1.7-6.5a69 69 0 0 1-2.7-2.5l-1.3-.7c-.8-.6-1.3-.7-2.2-.5-.6.1-2.1.3-3.3.3-4.2.2-8 1.5-8 2.7 0 .3-.3.7-.7.8-.5.2-.6.4-.5 1 .2.4.1.7-.3.7s-.5.3-.4 1.5v1.8c-.5.7-.5 2 0 2.4.2.2.1.3-.5.1l-1.3-.2c-.6 0-.6-2.4.1-4.5.3-.9 1-2.5 1.7-3.4 2.7-4.2 5-5.3 10.8-5.3 4 0 6.2.7 8 2.4 2.3 2 4 6.5 4 10.3.1 2.8-.4 4.4-2.5 7a11.9 11.9 0 0 1-7.8 4.3l-2 .2zm3.7-5.6c-.8-.3-.5-1.5.3-1.8.5-.1.9 0 1.2.4.8 1.1-.1 2-1.5 1.4zm-10.5-2.5c-1.9-.6-2-1-.6-1.4 1.2-.2 2.5.3 2.5 1 0 .3.2.6.4.7 1 .4-.7.2-2.3-.3zm12-.4c-.6-.2-.8-1.3-.2-1.7.7-.4 2.1.2 2.1.9 0 .5-.9 1.2-1.2 1l-.7-.2zm-11.6-2.9c-1-.9-.5-1.6 1.1-1.3 1.2.3 1.4.9.7 1.6-.6.5-.8.5-1.8-.3zm10.3-.8c0-.7.8-1.3 1.7-1.3.9 0 1 .6.4 1.3-.6.6-2 .6-2 0zm-8-1.6c-.3-.5-.3-.8.1-1.2.7-.5 1.7 0 1.7 1s-1.4 1-1.9.2zm3.7 0c-.5-.4-.3-2.1.2-2.3 1-.4 1.7 1.3.9 2.1-.5.5-.8.6-1.1.2zm2-.1c-.1-.2 0-.8.4-1.3.7-1 2-1 2.2 0 .2 1.2-2 2.3-2.6 1.3z" style="fill:#aeb231;stroke-width:.352778" transform="translate(-44.5 -173.2)"/>
  <path d="M74 239.2c-4-1.1-7-3.1-8.7-6.1-.9-1.5-1-2-1.2-6.8-.2-4.7-.3-5.5-1.7-9.8a68.9 68.9 0 0 1-2.8-12.2c0-.6 0-.6.7.3a5 5 0 0 0 1.2 1.4c.4.2.6 0 .6-.6 0-.5.2-1 .5-1 .8-.4.9-.4.9.5 0 .8 0 .8.3 0 .2-1 .3-.9 1 .6.5 1.2.8 2.7 1 5.5.2 4.3 1.1 7.3 2.6 8.4 1.1.8 3.2 1 4.5.6.7-.3.8-.5.4-.9-.3-.4-.3-.6 0-1 .2-.3.3-.8.2-1-.1-.4 0-1 .3-1.3.4-.4.6-1.6.7-4.5 0-2.2.2-4 .3-4.2.2-.2.6 0 1 .5.6.8 3 1.4 2.8.7-.1-.2 0-.5.3-.6.2 0 .4.1.4.4 0 .7.5.8 1.2.2 1.3-1.3 1.6-1.4 2.3-1 .4.2 1.3.4 2 .4s1.1.2 1 .3c0 .2 0 .4.2.5.2.1.5 0 .7-.4.4-.6.4-.6.8 0 .2.3.5.5.8.4l1.9-.3c.8 0 1.7-.4 2-.7.3-.3.7-.6.9-.6.3 0 .8 1.2.9 1.9l.2.5c.5.4.3 5.1-.2 7.5a73 73 0 0 0-2.1 15l.2 1.4.9-1c.9-1 1-1.3 1.4-5l.4-2.5v2.7a10 10 0 0 1-3.1 7.7 20.6 20.6 0 0 1-8.4 4.3c-2.4.5-7.2.4-9.3-.2zm-.7-7.8c.8-.2.8-.3 1-2 0-1.1-1-2.2-2.6-3-1.6-.6-1.9-.3-1.9 2.2 0 2.2.8 3.6 2 3.2a28 28 0 0 1 1.5-.4zm-.1-22c-.2-.2-.2-.5 0-.6.2-.3.6.1.4.7-.1.3-.2.3-.4 0zm25.6-10.2c.2-1.9.4-2.7.8-3 .3-.3.5-.7.3-1V194c.3-.5.3-.5.8 0l.6 1.7c0 .4.2 1 .4 1 .1.2-.2.4-.8.6-1.2.5-1.5 1.6-.6 2.7.4.7.5.6 2.5-.5l2.9-1.5c.4-.2.8-.6.8-.8 0-.2.2-.5.5-.6l1.4-1.8c.9-1.5 1-2.1 1-5 .2-3.8-.2-5-1.7-6.5a69 69 0 0 1-2.7-2.5l-1.3-.7c-.8-.6-1.3-.7-2.2-.5-.6.1-2.1.3-3.3.3-4.2.2-8 1.5-8 2.7 0 .3-.3.7-.7.8-.5.2-.6.4-.5 1 .2.4.1.7-.3.7s-.5.3-.4 1.5c0 .8 0 1.7-.2 1.9-.2.2-.3.4-.1.4l-.2.6c-.2.2-.3.6-.2.8.2.3-.1.4-.7.4-1 0-1 0-.8-2 .3-2.6 1.9-6 4-8.3 2.2-2.3 4.1-2.9 9-2.9 4 0 6.2.7 8 2.4 2.3 2 4 6.5 4 10.3.1 2.8-.4 4.4-2.5 7a11.9 11.9 0 0 1-7.9 4.3l-2 .3zm3.5-5c-.6-.7-.5-1.4.4-1.4 1 0 1.7.6 1.4 1.3-.2.6-1.2.6-1.8 0zm-11-2.5c-1.2-.4-1.3-.8-.2-1.1 1.2-.3 2.4.1 2.3.8-.2.7-.9.8-2.2.3zm12.6-.3c-1.2-.8-.1-2.1 1.3-1.5.8.2.8 1.4 0 1.7-.6.2-.5.2-1.3-.2zm-11.9-3c-.3-.4-.3-.6 0-1 .5-.5 2.3.1 2.3.8 0 .8-1.7 1-2.3.2zm10.7-.7c.1-.7 1.9-1.5 2.3-1.1.4.5-.5 1.5-1.5 1.6-.7 0-1 0-.8-.5zm-8-1.4c-.5-.6-.5-.7 0-1.2.7-.7 1.7-.1 1.7.9 0 .9-1 1-1.7.3zm3.8-.2c-.6-.6-.6-2 0-2.2.6-.2 1.3.4 1.3 1l-.4 1c-.4.5-.6.5-1 .2zm2-.5c0-1 .8-1.7 1.7-1.5.8.1 1 1.3.2 2-1 .7-1.9.5-1.9-.5z" style="fill:#adb309;stroke-width:.352778" transform="translate(-44.5 -173.2)"/>
  <path d="M74 239.2c-4-1.1-7-3.1-8.7-6.1-.9-1.5-1-2-1.2-6.8-.2-4.7-.3-5.5-1.7-9.8-2.5-8-3.2-12-1.5-9.1l1 1.5 1 .7c.5.5 1.2.9 1.6.9.9 0 1 .2 1.2 2.4.3 2.4 1.6 5.6 2.7 6.5 1.1.8 3.2 1 4.5.6.7-.3.8-.5.4-.9-.3-.4-.3-.6 0-1 .2-.3.3-.8.2-1-.1-.4 0-1 .3-1.3.3-.4.6-1.5.7-2.9l.2-2.7c0-.2.4-.5 1-.6.4-.1.8-.4.8-.6 0-.4.1-.4.3 0 .2.3.5.3 1.2 0 .7-.2 1-.2 1 0 0 .3.2.4.4.3.3 0 .7 0 1 .4.7.5.8.5 1.2-.1.3-.4.5-1 .5-1.1 0-.7 1-.8 1.7-.3.4.3 1 .5 1.5.5.7 0 .8.1.7.9-.2.6 0 .9.2.9.3 0 .8.5 1.1 1.2.3.7.7 1.2.9 1.2.2 0 .2.3 0 .6 0 .3 0 .5.2.5l1 .1c.6.1.9 0 .9-.5 0-1 2-3 2.4-2.6.3.2 0 .8-.7 2-.9 1.3-1 1.5-.4 1.7.3.2 1 .1 1.3 0 .4-.3.6-.3.4 0-.1.1 0 .4.1.5.6.3.5 1.8-.3 5.4a56.3 56.3 0 0 0-1.2 11.1l.2 1.5.9-1c.9-1 1-1.3 1.4-5l.4-2.5v2.7a10 10 0 0 1-3.1 7.7 20.6 20.6 0 0 1-8.4 4.3c-2.4.5-7.2.4-9.3-.2zm-.7-7.8c.8-.2.8-.3 1-2 0-1.1-1-2.2-2.6-3-1.6-.6-1.9-.3-1.9 2.2 0 2.2.8 3.6 2 3.2a28 28 0 0 1 1.5-.4zm-.1-22c-.2-.2-.2-.5 0-.6.2-.3.6.1.4.7-.1.3-.2.3-.4 0zm18.8-1c0-.8.6-1.3 1.1-1 .2.2.2.5 0 1-.5.8-1 .8-1 0zm7-9.3c0-1.5.4-2.7.7-3 .2-.2.4-.6.2-1V194c.2-.5.3-.5.8 0 .7 1 .6 2.1-.1 2.6-1.3.8-1.3 4.3 0 4.3 1 0 3-.7 2.9-1-.1-.2 0-.3.4-.1.3.1.6 0 .7-.6.2-.5.4-.7.9-.5.4 0 .7 0 1-.6.2-.4.5-.6.7-.5.2.1.6-.4 1-1.1.3-.8.7-1.4.9-1.5.1 0 .1-.3 0-.4 0-.2 0-.4.2-.4s.4-.2.3-.4l.5-1.8a5 5 0 0 0 .4-2.4l-.3-2.3c-.4-3-2.8-6-5.8-7.4-1.5-.7-2-.8-6.2-.5-4 .2-4.8.4-6.2 1.2-2 1.1-2 1.2-3.3 3.5a11 11 0 0 0-1.3 5.6c0 .8-.2 1-.8 1-.6 0-.6-.2-.5-2 .3-2.6 1.9-6 4-8.3 2.2-2.3 4.1-2.9 9-2.9 4 0 6.2.7 8 2.4 2.3 2 4 6.5 4 10.3.1 2.8-.4 4.4-2.5 7a11.9 11.9 0 0 1-7.8 4.3l-2 .2zm3.5-4.9c-1-.6-.7-1.4.4-1.3.7 0 1 .3 1 .8 0 .8-.5 1-1.4.5zm-11.1-2.5c-.8-.3-.8-.4-.4-.9.7-.7 2.5-.3 2.4.6-.2.7-.9.8-2 .3zm12-.9c-.2-.5.4-1.1 1.2-1.1l.8.3c.8.4.2 1.4-.8 1.4-.5 0-1-.2-1.2-.6zm-11.2-2.4c-.4-1 .4-1.4 1.4-1 1.2.6 1 1.3-.3 1.5-.6 0-1-.1-1.1-.5zm10.4-.7c0-.5 1-1.2 2-1.2.7 0 .6 1-.2 1.4-1 .5-1.8.4-1.8-.2zm-7.7-1.3c-.7-.7-.5-1.3.5-1.3.8 0 1.4.8 1 1.4-.3.5-1 .4-1.5-.1zm3.5-.4c-.6-.8-.3-1.8.5-1.8.9 0 1 .8.4 1.7-.4.6-.5.6-.9 0zm2.1-.4c0-1 1.1-1.8 2-1.5.7.3.6 1.6-.2 2-1.2.6-1.8.4-1.8-.5z" style="fill:#90962d;stroke-width:.352778" transform="translate(-44.5 -173.2)"/>
  <path d="M74.3 239.2c-6-1.5-10.3-6-9.9-10.6.3-2.7-.5-7.6-1.8-11.8a53.8 53.8 0 0 1-2.5-9.3l-.2-1.8 1 1.7 1 1.5 1 .7c.5.5 1.2.9 1.6.9.9 0 1 .2 1.2 2.4.3 3 .6 4.3 1.4 6 .8 1.7 2.8 4 3.6 4 1.2 0 3.6-1.5 3.8-2.3.4-1.2.3-3-.1-3.3-.2 0-.3-.8-.2-1.5a42.6 42.6 0 0 0 .5-5.4c0-.3.4-.7 1-.8.4-.1.8-.4.8-.6 0-.4.1-.4.3 0 .2.3.5.3 1.2 0 .7-.2 1-.2 1 0 0 .3.2.4.4.3.3 0 .7 0 1 .4.7.5.8.5 1.2-.1.3-.4.5-1 .5-1.1 0-.7 1-.8 1.7-.3.4.3 1 .5 1.5.5.7 0 .8.1.7.9-.2.6 0 .9.2.9.3 0 .8.5 1.1 1.2.3.7.7 1.2.9 1.2.2 0 .2.3 0 .6 0 .3 0 .5.2.5l1 .1c.6.1.9 0 .9-.5 0-1 2-3 2.4-2.6.3.2 0 .8-.7 2-.9 1.3-1 1.5-.4 1.7.3.2 1 .1 1.3 0 .4-.3.6-.3.4 0-.1.1 0 .4.1.5.6.4.4 2.3-.5 5.8a34 34 0 0 0-1.1 8.2l-.2 4.7.8-.7c.4-.4 1-1.3 1.4-2.1.4-.8.7-1.2.7-1 0 1-1.8 4-3.3 5.3a20 20 0 0 1-16.9 3.8zm1-4.5c.6-.5.7-5.5.2-7.3-.5-1.6-1.5-2.5-2.9-2.6-.6 0-1.2-.4-1.4-.7-.2-.3-.8-.6-1.2-.6-1.2 0-1.4 1-1 5.7.4 4.3 1 5.5 2.5 5.7 2 .3 3.5.2 3.9-.2zm19.3-6.8c0-.8 0-1 .2-.6v1.4c-.1.4-.2 0-.2-.8zM92 208.4c0-.8.6-1.3 1.1-1 .2.2.2.5 0 1-.5.8-1 .8-1 0zm6.9-8 .2-2.7c0-1 .1-1.3.6-1.3a2 2 0 0 0 1.2-.5l-.3.5c-.4.4-.8 1.3-1 1.8-.2 1.1.3 2.7 1 2.7 1 0 3-.7 2.9-1-.1-.2 0-.3.4-.1.3.1.6 0 .7-.6.2-.5.4-.7.9-.5.4 0 .7 0 1-.6.2-.4.5-.6.7-.5.2.1.6-.4 1-1.1.3-.8.7-1.4.9-1.5.1 0 .1-.3 0-.4 0-.2 0-.4.2-.4s.4-.2.3-.4l.5-1.8a5 5 0 0 0 .4-2.4l-.3-2.3c-.4-3-2.8-6-5.8-7.4-1.5-.7-2-.8-6.2-.5-4 .2-4.8.4-6.2 1.2-2 1.1-2 1.2-3.3 3.5-.9 1.6-1.3 3.4-1.3 5.7 0 .7-.2.9-.6.8-.5 0-.6-.5-.5-2 0-3.4 3.1-8.4 6.1-10 3.2-1.5 9.8-1.5 13 .1 4.7 2.4 7.2 11 4.8 16a12 12 0 0 1-9.7 6.8l-1.9.2.3-1.3zm3.5-6.3c-.5-.4-.6-.6-.3-1 .6-.5 1.8-.2 1.8.6 0 .9-.6 1-1.5.4zM92 191.9l-1-.4c-.4 0-.4-.2 0-.6.4-.5.8-.5 1.5-.2 1.4.5 1 1.6-.5 1.2zm11.7-.8c-.5-.3-.5-.4 0-1 .7-.7 2.2-.3 2 .5-.1.7-1.3 1-2 .5zm-11.5-2.7c-.2-.3 0-.7.1-1 .5-.5 2 0 1.8.8-.2.8-1.7 1-2 .2zm10.4-.5c0-.5 1.3-1.4 1.9-1.4.8 0 .7 1 0 1.4-1 .4-1.9.4-1.9 0zm-7.7-1.5c-.7-.7-.5-1.3.5-1.3.9 0 1.4.7.8 1.3-.5.5-.7.5-1.3 0zm5.8-.3c-.4-.6.1-1.7.9-2 1.3-.4 1.9.8.8 1.8-.6.7-1.4.7-1.7.2zm-2.5-.5c-.3-.7 0-1.6.7-1.6s1 .6.7 1.4c-.2.8-1.1 1-1.4.2z" style="fill:#9aa304;stroke-width:.352778" transform="translate(-44.5 -173.2)"/>
  <path d="M74.3 239.2c-6-1.5-10.3-6-9.9-10.6a36 36 0 0 0-2-12.3c-1.8-5.8-2-6.8-1-4.8.6 1 1.1 1.6 1.5 1.5.7-.1 3.4 2.5 3.4 3.4 0 2 3 6.4 4.4 6.4 1.2 0 3.6-1.4 3.8-2.2.4-1.3.3-3-.1-3.3-.5-.5.3-3 1-3l.7-.1 1.8-.4 1.5-.2-1-1c-1.5-1.4-1.5-2.4 0-2.7 1.2-.3 1.8.2 2.1 1.7.2.6 0 1.1-.2 1.4-.4.3-.2.6.6 1.4a7 7 0 0 0 1.9 1.4c.5.2 1 .6 1 1 .1.5.5.7 1.2.8 1.5 0 1.7 0 2 .4.3.3 1.8.3 2-.1.2-.2.5-.2 1 0 .7.3.8.6.7 1.1-.1.6 0 .7.4.5.4-.1.6 0 .6.5 0 .4.2.6.5.5.7-.3.7.4 0 3.5a37 37 0 0 0-.5 6.2v3.7l.7-.7a7 7 0 0 0 1.4-2.1c.4-.8.7-1.2.7-1 0 1-1.8 4-3.3 5.3a20 20 0 0 1-16.9 3.8zm1-4.5c.6-.5.7-5.5.2-7.3-.5-1.6-1.5-2.5-2.9-2.6-.6 0-1.2-.4-1.4-.7-.2-.3-.8-.6-1.2-.6-1.2 0-1.4 1-1 5.7.4 4.3 1 5.5 2.5 5.7 2 .3 3.5.2 3.9-.2zm19.3-6.6c0-.7 0-1 .1-.6v1.2l-.1-.6zm-8-11.4c-.2-.7.5-1.7 1.2-1.7.4 0 .7.3.7.7 0 1.2-1.5 2-1.9 1zM91 213c.2-1 1.5-2.1 1.5-1.4 0 .6-1 2-1.4 2-.2 0-.2-.3-.1-.6zm-6.6-3.2c0-.2.1-.4.3-.4.2 0 .4.2.4.4 0 .1-.2.3-.4.3a.4.4 0 0 1-.3-.3zm-2-.5c-.3-.8.1-1.3 1-1.3.5 0 .6.2.6.8-.2.9-1.3 1.3-1.6.5zm9.8-1c.2-.7 1-.8 1-.2 0 .3-.3.6-.6.6s-.5-.2-.4-.4zm7-8c0-.8.2-1 .3-.6 0 .4.4 1 .7 1.3.5.6.4.6-.4.6-.7 0-.8 0-.6-1.3zm3.3.4c1-.3 2-.8 2.4-1.2.4-.4.8-.7 1-.7.6 0 3.2-2.8 3.2-3.3 0-.3.2-.7.5-1 .3-.2.5-.5.4-.8l.3-1.2c.3-.5.4-1 .3-1.2 0-.1 0-.2.2-.2.3 0 .3-.2.2-.4l-.4-2.2a11 11 0 0 0-5.6-8.6c-1.3-.7-2-.8-5-1-4.1 0-5.7.2-7.7 1.4a10.2 10.2 0 0 0-5 8.1c-.2 2.8-1 3-1 .3.2-3.5 3.2-8.5 6.2-10 3.2-1.6 9.8-1.6 13 0 3.3 1.7 5.8 6.8 5.8 12a11 11 0 0 1-3.6 7.6 11 11 0 0 1-6.1 3c-.5 0 0-.3 1-.6zm0-6.6c-.5-.4-.6-.6-.3-1 .6-.5 1.7-.2 1.9.5.1.8-.8 1-1.6.5zM92 191.9c-1.1-.3-1.4-.7-.7-1.1.8-.4 2.4 0 2.2.7-.2.5-.6.6-1.5.4zm11.8-.8c-.5-.4-.5-.5.1-1 .8-.5 2.1 0 1.9.7-.2.6-1.4.7-2 .3zm-11.3-2.7c-.3-.4-.4-.7-.1-1 .5-.4 2 .3 1.8 1-.3.6-1.2.6-1.7 0zm10.2-.5c0-.5 1.4-1.5 2-1.3.7.3.6.8-.2 1.3-.8.4-1.8.4-1.8 0zm-7.7-1.6c-.8-1 .4-1.7 1.3-.8.3.3.3.5 0 .9-.5.6-.8.5-1.3 0zm5.7-.4c-.1-.4 0-.8.6-1.3.8-.6.9-.6 1.4 0 .5.5.5.6-.3 1.2-1 .8-1.4.8-1.7 0zm-2.4-.5c-.3-.8 0-1.4.7-1.4.6 0 1 .9.7 1.6-.3.7-1.1.6-1.4-.2z" style="fill:#8b9205;stroke-width:.352778" transform="translate(-44.5 -173.2)"/>
  <path d="M74.3 239.2c-6.2-1.5-10.3-6-9.9-10.8.3-2.7-.4-7-1.7-11.1-1.1-3.8-1.3-4.7-.4-3 .4.6.8 1 .9 1 .7.1 2.4 1.7 3 2.9a5 5 0 0 0 1.2 1.7c.3.2.6.7.6 1l.4 3.3.7 6.3c.2 2.4.4 3.8.7 4 1 .5 5 .8 5.5.3.6-.5.7-5.4.1-7.5-.4-1.5-1.8-2.7-2.7-2.5-.7.2-2-.8-1.7-1.4 0-.2.4-.5.8-.5.4-.1.8-.4 1-.7 0-.2.6-.4 1-.4.6 0 .9-.4 1.3-1.6.5-1.8.7-2 1.6-1 .4.3.7.4 1.2.1.4-.2.8-.2 1.4.2.4.3 1.2.5 1.6.4.5 0 1 0 1 .2.2.3.4.2.7-.2l.7-.6c.3 0 .1.7-.2 1.3-.2.3 0 .4.3.4s.5-.2.5-.6c0-.8.7-1.5 1.5-1.5 1 0 1.2 1.1.3 1.8-.8.7-.8.8 1.4.8 1 0 1.2.2 1.1.7 0 .4.2.6.8.6.8 0 1 .2.9.8-.1 1.4 0 2 .5 2 .8-.3 1.8 2.9 1 3.4-.2 0-.3.4-.2.8l.3 2.4.3 1.7 1.2-1.4 1.2-1.4-.7 1.5c-2.6 5.2-11.8 8.4-19.2 6.6zM91 222.5c0-.6 1.3-2 1.6-1.7.4.4-.5 2-1 2-.4 0-.6-.1-.6-.3zm-9.9-5.2c.2-.2.7-.3 1-.2 1.1.2.9.7-.3.7-.8 0-1-.1-.7-.5zm-6.9-.1c-.2-.4.1-1.8.5-1.8.6 0 1.2.7 1 1.3 0 .7-1.1 1-1.5.5zm13-1.1c0-.3.3-.5.6-.6.2-.1.4 0 .3.3 0 .2-.4.5-.6.6-.3 0-.4 0-.3-.3zm4-3.3c.1-.3.3-.5.4-.4.1.1 0 .4-.2.6-.4.4-.4.3-.2-.2zm-12.9-1.3c-.3-.6-.3-.8 0-1 .5-.4 1.4-.1 1.4.3 0 .2 0 .6.2.9.3.8-1 .7-1.6-.2zm4-2.1c-.4-.6.8-1.6 1.3-1.1.3.3.3.5 0 1-.5.6-1 .6-1.3 0zm10-1.2c0-.3.2-.6.4-.6s.4.2.4.4-.2.4-.4.5c-.2.1-.3 0-.3-.3zm7-6.9c0-.2.4-.2.7-.1.7.2.6.4-.2.4-.4 0-.7-.1-.5-.3zm2.5-.3h.7c.1.2 0 .3-.4.3s-.5-.1-.3-.3zm3.2-1.4c2.1-1.4 4-3.3 4-4 0-.3.2-.7.4-1 .3-.3.8-1.3 1-2.2.5-1.3.5-2 .1-4-.5-3.3-1.3-5-3-6.6-2.6-2.5-3.8-3-8.4-3-3.8 0-4.2.2-6.1 1.1a13 13 0 0 0-3 2.2 13.3 13.3 0 0 0-3 6.8c0 1-.2 1.8-.4 1.7-.2 0-.4-1-.3-2 0-3.4 3.1-8.4 6.1-10 3.2-1.5 9.8-1.5 13 .1 3.3 1.7 5.8 6.8 5.8 12 0 4.2-3.6 8.9-7.5 10-.5.2 0-.3 1.3-1.1zm-3-5.7c0-.3 0-.6.2-.8.5-.5 1.6-.2 1.8.5 0 .5-.2.6-.8.6-.5 0-1-.1-1.1-.3zm-10.2-2c-1.2-.4-1-1 .3-1 .8 0 1.2.2 1.2.5 0 .6-.5.7-1.5.4zm12-.8c-.7-.4-.3-1.1.7-1.1s1.3.3 1 1c-.2.5-1 .6-1.8 0zm-11.3-2.6c-.7-.7-.5-1 .5-.9.6 0 1 .3 1 .6 0 .7-1 .9-1.5.3zm10.1-.6c0-.5 1.7-1.5 2.1-1.2.3.1.2.4-.2.9-.6.7-1.9.9-1.9.3zm-7.7-1.6c-.4-.4-.4-.7-.1-1 .5-.5 1.5 0 1.4.7-.2.8-.8 1-1.3.3zm5.7-.4c-.2-.6.5-1.5 1.3-1.5 1 0 1.3.7.4 1.4-1 .8-1.4.8-1.7.1zm-2.4-.5c-.3-1 .3-1.7 1-1 .6.4.4 1.7-.3 1.7-.3 0-.6-.3-.7-.7z" style="fill:#996906;stroke-width:.352778" transform="translate(-44.5 -173.2)"/>
  <path d="M74.3 239.2c-6.2-1.5-10.3-6-9.9-10.8.3-2.7-.4-7-1.7-11.1-1.1-3.8-1.3-4.7-.4-3 .4.6.8 1 .9 1 .7.1 2.4 1.7 3 2.9a5 5 0 0 0 1.2 1.7c.3.2.6.7.6 1l.4 3.3.7 6.3c.2 2.4.4 3.8.7 4 1 .5 5 .8 5.5.3.6-.5.7-5.4.1-7.5-.4-1.5-1.8-2.7-2.7-2.5-.7.2-2-.8-1.7-1.4 0-.2.4-.5.8-.5.4-.1.8-.4 1-.7 0-.2.6-.4 1-.4.6 0 .9-.4 1.3-1.6.5-1.8.7-2 1.6-1 .4.3.7.4 1.2.1.4-.2.8-.2 1.4.2.4.3 1.2.5 1.6.4.5 0 1 0 1 .2.2.3.4.2.7-.2l.7-.6c.3 0 .1.7-.2 1.3-.2.3 0 .4.3.4s.5-.2.5-.6c0-.8.7-1.5 1.5-1.5 1 0 1.2 1.1.3 1.8-.8.7-.8.8 1.4.8 1 0 1.2.2 1.1.7 0 .4.2.6.8.6.8 0 1 .2.9.8-.1 1.4 0 2 .5 2 .8-.3 1.8 2.9 1 3.4-.2 0-.3.4-.2.8l.3 2.4.3 1.7 1.2-1.4 1.2-1.4-.7 1.5c-2.6 5.2-11.8 8.4-19.2 6.6zM91 222.5c0-.6 1.3-2 1.6-1.7.4.4-.5 2-1 2-.4 0-.6-.1-.6-.3zm-9.9-5.2c.2-.2.7-.3 1-.2 1.1.2.9.7-.3.7-.8 0-1-.1-.7-.5zm-6.9-.1c-.2-.4.1-1.8.5-1.8.6 0 1.2.7 1 1.3 0 .7-1.1 1-1.5.5zm13-1.1c0-.3.3-.5.6-.6.2-.1.4 0 .3.3 0 .2-.4.5-.6.6-.3 0-.4 0-.3-.3zm4-3.3c.1-.3.3-.5.4-.4.1.1 0 .4-.2.6-.4.4-.4.3-.2-.2zm-12.9-1.3c-.3-.6-.3-.8 0-1 .5-.4 1.4-.1 1.4.3 0 .2 0 .6.2.9.3.8-1 .7-1.6-.2zm4-2.1c-.4-.6.8-1.6 1.3-1.1.3.3.3.5 0 1-.5.6-1 .6-1.3 0zm10-1.2c0-.3.2-.6.4-.6s.4.2.4.4-.2.4-.4.5c-.2.1-.3 0-.3-.3zm7-7c0-.1.3-.2.5 0 .5.2.4.4-.2.4-.3 0-.4-.1-.3-.3zm2.8-7.3c-.2-.3-.1-.6 0-.8.6-.5 1.7-.2 1.9.5 0 .5-.2.6-.8.6-.5 0-1-.1-1.1-.3zm-10.3-2c-1.2-.4-1-1 .3-1 .8 0 1.2.2 1.2.5 0 .6-.5.7-1.5.4zm12-.8c-.7-.4-.3-1.1.7-1.1s1.3.3 1 1c-.2.5-1 .6-1.8 0zm-17.6-1c-.4-.9 0-1.2.5-.3.2.6.3 1 0 1-.2 0-.4-.3-.5-.6zm6.3-1.6c-.7-.7-.5-1 .5-.9.6 0 1 .3 1 .6 0 .7-1 .9-1.5.3zm10.1-.6c0-.5 1.7-1.5 2.1-1.2.3.1.2.4-.2.9-.6.7-1.9.9-1.9.3zm-7.7-1.6c-.4-.4-.4-.7-.1-1 .5-.5 1.5 0 1.4.7-.2.8-.8 1-1.3.3zm5.7-.4c-.2-.6.5-1.5 1.3-1.5 1 0 1.3.7.4 1.4-1 .8-1.4.8-1.7.1zm-2.4-.5c-.3-1 .3-1.7 1-1 .6.4.4 1.7-.3 1.7-.3 0-.6-.3-.7-.7z" style="fill:#7b8407;stroke-width:.352778" transform="translate(-44.5 -173.2)"/>
  <path d="M74.3 239.2c-4.4-1-8-3.8-9.3-7.2-.5-1-.7-1.8-.5-1.8l.7 1.3a8.1 8.1 0 0 0 3.6 4.5c.7.2 2.1.6 3.3.7 1.8.2 2.2.1 3-.5.9-.8.9-.8.8-5.8 0-2.7 0-5.5-.2-6.2 0-1.2 0-1.2 1.3-1.2h1c-.7-.4-.5-1.6.4-2 .7-.3 1-.3 1.5 0 .7.7.6 1-.4 1.5-1.2.6-.8 1 1.6 1.2 1.4.2 2.4.5 2.9 1 .7.6.8 1.3.3 1.3-.3 0-.3.1-.2.3l.2 1.6c0 .7.3 1.3.5 1.3.3 0 .5.2.6.6.1.5.5.6 1.6.6.8 0 1.5 0 1.5.2 0 .6 1.2 1.7 1.8 1.7.4 0 .7.4.8 1 .2.7.4.8 1 .6.6-.1.4.2-.8 1.4-4 3.7-11 5.3-17 3.9zm14.5-6.4c.1-.8 0-.8-.6-.4-1 .6-1 1.4-.1 1.3.3 0 .6-.5.7-1zm-2.3-3.9c0-.6 1.2-1.4 1.5-1 .1 0 0 .5-.2.9-.4.9-1.5 1-1.3.1zm4.9-1.2c0-.4 0-.6.2-.4v.9c-.1.2-.2 0-.2-.5zm-20-3.7c-.2-.3-.2-.6 0-.7.3-.4 1.6.3 1.6.8 0 .6-1.4.6-1.7 0zm13.6 0c0-.5 1.6-1.9 2.3-1.9.8 0 .6.6-.7 1.6-1.3 1-1.6 1-1.6.4zm-11.5-1.2c-.3-.5 0-.8.7-.5.3.1.5.4.4.5-.3.5-.8.4-1.1 0zm17.8-.4c0-.8 1-1.9 1.2-1.4.1.2 0 .7-.5 1.2-.5.6-.6.6-.7.2zm-25.5-1c-.9-.9-.5-2 .4-1.4.8.4 1.2 1.3 1 1.8-.4.5-.7.4-1.4-.4zm-1.4-.6-.2-.8c0-.4 0-.4.4.1.3.7.2 1.1-.2.7zm20 0c-.7-.3-.6-1.1.3-1.5.6-.4.8-.3 1.2 0 .5.5.5.7 0 1.2-.6.6-.8.6-1.5.3zm-19.7-2.5c-.2-.4-.1-.5.3 0 .7.4.7.6.3.6-.2 0-.5-.2-.6-.6zm9.6-1c-.3-.3.2-1.5.6-1.5.7 0 1 .5.7 1.2-.2.5-.9.7-1.3.3zm8.3-8.5c.1-.8 1.1-.9 1.1-.1 0 .3-.2.6-.6.6-.5.1-.6 0-.5-.5zm9.8-.6c0-.3.1-.6.3-.6.2 0 .4.2.4.4s-.2.4-.4.5c-.2.1-.3 0-.3-.3zm7-6.8h.7c0 .1-.1.2-.5.2s-.5 0-.2-.2zm2.9-7.7c-.4-.4-.4-.6.1-.7.8-.3 1.7 0 1.5.6-.2.7-1.1.7-1.6.1zm-10.5-1.9c-1.3-.3-1.2-.9.1-1 .9-.1 1.2 0 1.2.4 0 .7-.4.9-1.3.6zm12-.8c-.6-.7-.2-1 .8-1 .7 0 .9.2.8.6-.2.8-1.1 1-1.7.4zm-17.5-.5c-.1-.1-.3-.6-.2-1 0-.7 0-.7.3-.1.4.7.3 1.5-.1 1zm6.4-2c-1-.5-.8-1 .3-.9.6 0 1 .3 1 .6 0 .7-.6.8-1.3.4zm10.2-.5c-.4-.4.4-1.2 1.2-1.2.8 0 .8.6 0 1-.8.5-1 .5-1.2.2zm-8-1.9c-.3-.5-.3-.7.1-.9.7-.2 1.3.1 1.3.7 0 .8-1 1-1.5.2zm5.7-.2c-.2-.6.5-1.5 1.3-1.5 1 0 1.3.7.4 1.4-1 .8-1.4.8-1.7.1zm-2.3-.5c-.2-.9.7-1.7 1-1 .3.8 0 1.7-.5 1.7-.2 0-.4-.3-.5-.7z" style="fill:#6d7502;stroke-width:.352778" transform="translate(-44.5 -173.2)"/>
  <path d="M74.5 239.2a15 15 0 0 1-2.5-.9c-.6-.3-.6-.3 2.5-.5 1 0 1.2-.3 1.5-2.4 0-1.4.6-1.8 1.5-1.3 1 .5 1 1.8 0 2-1.2.3-.7.8 1 .8l3.5.2c1.3.2 1.8 0 2.1-.4.3-.3 1.1-.6 2.3-.7l3.3-.3c1.4-.2 1.4-.2.7.4a20.2 20.2 0 0 1-16 3.1zm9-7.4c-.5-.5-.3-1.5.5-1.8.9-.3 1.4.3 1.3 1.1-.2.7-1.4 1.1-1.8.7zm-6.4-1.6c-.3-.4.9-1 1.9-1 .9 0 .9.5 0 1-.8.5-1.7.5-2 0zm9.6-1.4c0-.2.2-.3.4-.3s.4.1.4.3c0 .2-.2.4-.4.4a.4.4 0 0 1-.4-.4zm-4.3-2.7c-.4-.4-.3-.7.3-1 .8-.3 1.3.1.8.7-.4.6-.7.7-1.1.3zm-10.8-2c-.2-.3-.3-.6-.2-.7.4-.3 1.6.5 1.4.8-.3.5-.7.5-1.2-.1zm6.5-2c0-.1 0-.5.4-.7.4-.4.6-.4 1 0 .3.3.2.5-.2.7-.6.4-1 .4-1.2 0zm13.6-.1c0-.3.1-.7.3-.8.2-.1.4 0 .4.3s-.2.7-.4.8c-.2.1-.3 0-.3-.3zm-25.7-.7c-.6-.5-.5-1 .1-1 .3 0 .5.1.5.2l.3.7c.2.7-.3.7-.9.1zm18.2-.8c-.4-.4.4-1.2 1.2-1.2.5 0 .7.2.6.6-.1.6-1.4 1-1.8.6zm-9.8-3.9c0-.5.2-.8.5-.8.7 0 1 .8.5 1.3-.7.7-1 .5-1-.5zm8.1-7.7c0-.3.3-.6.6-.6.6 0 .5.8-.2 1-.2.1-.4 0-.4-.4zm19.8-15.1c-.2-.3-.3-.6-.1-.7.4-.5 1.4-.3 1.6.2.4 1-.8 1.3-1.5.5zm-10.5-2c-1-.1-1-.9 0-1 .8-.2 1.6.5 1.1.9-.2.1-.7.2-1.1.1zm12.3-.6c-.8-.3-.5-1.3.4-1.1.4 0 .8.3.8.6 0 .5-.5.7-1.2.5zm-18-1.2c0-.2.1-.3.3-.2.2.1.3.3.3.4 0 0-.1.2-.3.2a.4.4 0 0 1-.4-.4zm6.7-1.3a.8.8 0 0 1-.4-.7c0-.2.2-.5.4-.5.8 0 1.5.6 1.2 1-.3.5-.5.5-1.2.2zm10-.7c-.3-.4.5-1.2 1.3-1.2s.8.6 0 1c-.8.5-1 .5-1.2.2zm-8-2.3c0-.5.2-.7.7-.6.9.2 1 1.4 0 1.4-.4 0-.6-.3-.6-.8zm5.8.2c-.2-.7.5-1.5 1.4-1.5 1 0 .8 1.2-.3 1.7-.7.3-.9.3-1-.2zm-2.2-.4c-.3-.5-.2-.8.1-1.1.6-.5 1-.2 1 .7 0 1-.7 1.1-1 .4z" style="fill:#5b6501;stroke-width:.352778" transform="translate(-44.5 -173.2)"/>
  <path d="M76.3 235.3a1 1 0 0 1 .2-1c.5-.4 1.6.6 1.3 1.2-.4.5-1.3.4-1.5-.2zm7-4c0-.3 0-.6.2-.8.5-.5 1.7-.2 1.7.4 0 .7-1.5 1-1.8.4zm1.1-11c-.2-.4.4-1 1-1 .5 0 .7.8.2 1-.6.5-.9.5-1.2 0zm-9.6-3.7c0-.3.1-.5.3-.5.2 0 .4.2.4.5s-.2.6-.4.6-.3-.3-.3-.6zm27.6-22.7c-.3-.5.4-1.2.9-1 .6.4.5 1.3-.1 1.3a1 1 0 0 1-.8-.3zm-11.2-2.5c-.3-.4.7-.8 1.4-.6.3.1.5.4.5.6 0 .5-1.7.5-2 0zm12.8-.3c-.4-.3-.4-.5 0-.8.4-.5 1.6-.1 1.4.5-.2.5-.7.7-1.4.3zm-11.4-2.9c-.2-.2-.2-.4-.1-.5.3-.3 1.7.2 1.7.6 0 .4-1.4.4-1.6 0zm10.4-.6c0-.5 1.4-1 1.7-.6.2.3-.6.9-1.3.9-.2 0-.4-.2-.4-.3zm-8-1.5c-.3-.6.2-1.1.8-.7.2.3.5.6.5.8 0 .4-1 .4-1.3 0zm3.6-.2c-.4-.5-.2-1.5.3-1.5.3 0 .5.3.5.6 0 .8-.4 1.2-.8.9zm1.9-.3c0-.6 1.3-1.4 1.8-1 .5.3.4 1-.2 1.3-1 .4-1.6.2-1.6-.3z" style="fill:#483603;stroke-width:.352778" transform="translate(-44.5 -173.2)"/>
</svg>