<?xml version="1.0" encoding="UTF-8" standalone="no"?>
<!-- Created with Inkscape (http://www.inkscape.org/) -->

<svg
   width="73.377777mm"
   height="73.377777mm"
   viewBox="0 0 73.377777 73.377777"
   version="1.1"
   id="svg5"
   sodipodi:docname="sugarspices.svg"
   inkscape:version="1.1.1 (3bf5ae0d25, 2021-09-20)"
   xmlns:inkscape="http://www.inkscape.org/namespaces/inkscape"
   xmlns:sodipodi="http://sodipodi.sourceforge.net/DTD/sodipodi-0.dtd"
   xmlns="http://www.w3.org/2000/svg"
   xmlns:svg="http://www.w3.org/2000/svg">
  <sodipodi:namedview
     id="namedview7"
     pagecolor="#ffffff"
     bordercolor="#666666"
     borderopacity="1.0"
     inkscape:pageshadow="2"
     inkscape:pageopacity="0.0"
     inkscape:pagecheckerboard="0"
     inkscape:document-units="mm"
     showgrid="false"
     inkscape:zoom="2.8882212"
     inkscape:cx="148.88056"
     inkscape:cy="142.47524"
     inkscape:window-width="1920"
     inkscape:window-height="1009"
     inkscape:window-x="-8"
     inkscape:window-y="-8"
     inkscape:window-maximized="1"
     inkscape:current-layer="layer1" />
  <defs
     id="defs2" />
  <g
     inkscape:label="Layer 1"
     inkscape:groupmode="layer"
     id="layer1"
     transform="translate(394.3208,137.36165)">
    <g
       id="g2515">
      <path
         style="fill:#fefefd;stroke-width:0.352778"
         d="m -394.3208,-100.67276 v -36.68889 h 36.68889 36.68889 v 36.68889 36.688887 h -36.68889 -36.68889 z"
         id="path2535" />
      <path
         style="fill:#d7a766;stroke-width:0.352778"
         d="m -360.18567,-78.712345 -5.46178,-4.145139 -0.20514,-3.125181 c -0.11283,-1.718849 -0.28132,-3.201352 -0.37442,-3.294457 -0.0931,-0.0931 -2.28511,1.286432 -4.87112,3.065632 -4.3013,2.959336 -4.81507,3.220229 -6.03107,3.062594 -1.84574,-0.239268 -4.39911,-1.973012 -7.06015,-4.793855 -2.68634,-2.847661 -5.53938,-8.315656 -6.40238,-12.270489 -1.01068,-4.63156 -1.36229,-4.14809 5.17961,-7.12219 7.58158,-3.44676 19.10069,-9.32777 26.63558,-13.59862 7.13337,-4.04326 7.38637,-4.07586 8.33278,-1.07349 l 0.6207,1.96907 1.12266,-0.70645 c 3.81453,-2.40032 5.51312,-3.21117 6.72686,-3.21117 3.60649,0 7.59707,4.41188 7.61721,8.42139 0.004,0.84822 -0.23981,3.20946 -0.54238,5.24719 -0.30257,2.03773 -0.48013,3.8874 -0.39456,4.11039 0.0856,0.22298 2.55563,1.64269 5.48902,3.1549 l 5.33345,2.74947 v 1.36453 c 0,0.750489 -0.14913,1.756777 -0.33141,2.236195 -0.18227,0.479414 -0.51139,2.18622 -0.73138,3.792897 -0.21998,1.606677 -0.58679,3.338569 -0.81512,3.848647 -0.22833,0.510078 -2.29972,2.697099 -4.60309,4.860046 l -4.18795,3.932629 -1.10372,-0.568007 c -0.60705,-0.312402 -2.25515,-1.343568 -3.66246,-2.291475 -3.35972,-2.262971 -3.61487,-2.34956 -3.61487,-1.226806 0,0.726652 -1.01125,1.76179 -5.20347,5.326412 -2.86191,2.433461 -5.38261,4.425826 -5.60155,4.427474 -0.21894,0.0018 -2.85587,-1.862311 -5.85985,-4.142137 z"
         id="path2533" />
      <path
         style="fill:#cd9155;stroke-width:0.352778"
         d="m -358.69024,-77.771642 c -2.23132,-1.737074 -4.64725,-3.592011 -5.36873,-4.122081 -0.72148,-0.53007 -1.3998,-1.184653 -1.50738,-1.45463 -0.16123,-0.404622 -0.0997,-0.411286 0.35017,-0.03792 0.30017,0.249121 0.6372,0.361513 0.74895,0.249756 0.31437,-0.314367 -0.20249,-0.955685 -0.77022,-0.955685 -0.36226,0 -0.50947,-0.430862 -0.51223,-1.499306 -0.002,-0.824618 -0.101,-2.086694 -0.21969,-2.804618 l -0.21581,-1.305313 -4.85989,3.333785 c -2.77316,1.902336 -5.21603,3.332364 -5.68933,3.330476 -1.32976,-0.0053 -4.53604,-2.052359 -6.85243,-4.374938 -2.22144,-2.227365 -4.52964,-5.816868 -5.77946,-8.98767 -0.85063,-2.158076 -1.90534,-7.831334 -1.51854,-8.168224 0.14751,-0.12847 2.4907,-1.23877 5.20709,-2.46732 6.90791,-3.12427 20.10804,-9.8745 26.81111,-13.71056 6.73218,-3.85273 7.31567,-3.9453 8.30912,-1.31831 0.35681,0.94354 0.73278,1.79954 0.83547,1.90224 0.1027,0.1027 1.44032,-0.63628 2.97248,-1.64217 3.06431,-2.01178 4.62292,-2.44513 6.53024,-1.81566 2.79503,0.92245 5.87074,5.45524 5.87074,8.65194 0,1.25872 -0.59977,1.98428 -1.04489,1.26405 -0.14326,-0.23178 -0.4827,-0.45502 -0.75431,-0.49609 -0.27162,-0.0411 -0.6526,-0.16503 -0.84663,-0.27549 -0.19403,-0.11045 -1.62278,-0.53296 -3.175,-0.9389 -1.55222,-0.40594 -3.77472,-1.00356 -4.93889,-1.32806 -1.16417,-0.32449 -2.83735,-0.66465 -3.71819,-0.75591 l -1.60152,-0.16594 -3.77834,3.91083 c -3.42426,3.54432 -3.77834,4.03377 -3.77834,5.22281 0,1.29208 0.008,1.30001 0.55314,0.52228 0.43077,-0.615 0.81933,-0.76038 1.75633,-0.65712 0.66176,0.0729 1.40504,0.29247 1.65173,0.48789 0.24668,0.19542 1.31768,0.46601 2.37998,0.60131 1.0623,0.13531 2.14419,0.42256 2.4042,0.63835 0.26001,0.21579 0.8196,0.4368 1.24354,0.49114 2.20071,0.28208 2.59939,0.37619 3.35866,0.79284 0.45318,0.24868 0.90864,0.36747 1.01213,0.26398 0.1035,-0.10349 0.41874,0.0424 0.70054,0.3242 0.28181,0.2818 0.81853,0.51236 1.19273,0.51236 0.45799,0 0.69401,0.25943 0.72213,0.79375 0.0532,1.01116 0.0698,0.69185 -0.20576,3.968757 -0.50289,5.980754 -0.5001,6.535311 0.0303,6.004962 0.26758,-0.267582 0.48651,-0.703735 0.48651,-0.969229 0,-0.265497 0.46952,-0.872147 1.04339,-1.348115 1.29554,-1.07453 1.37102,-1.76408 0.18231,-1.6657 -0.66037,0.05466 -0.8658,0.250571 -0.79375,0.757008 0.0535,0.375796 -0.10123,0.75094 -0.34376,0.833652 -0.75962,0.259052 -0.48834,-1.232065 0.39819,-2.188636 0.8993,-0.970362 1.97487,-0.909342 1.99379,0.113107 0.009,0.511299 0.0534,0.506268 0.37306,-0.04266 0.26906,-0.462107 0.2209,-0.763704 -0.18712,-1.171727 -0.30221,-0.302196 -0.54946,-0.723309 -0.54946,-0.935819 0,-0.21251 0.11081,-0.27556 0.24625,-0.14012 0.13544,0.13543 0.4639,-0.11592 0.72992,-0.55857 0.26602,-0.44265 0.40277,-0.53861 0.30389,-0.21324 -0.0989,0.32536 0.0463,0.77918 0.32256,1.00848 0.54903,0.455648 0.88688,-0.13078 1.37907,-2.3938 0.22853,-1.05071 0.35759,-1.14311 1.54426,-1.10561 0.71218,0.0225 1.01707,0.11352 0.67752,0.20226 -1.12836,0.29487 -0.63782,0.81515 0.76855,0.81515 1.38399,0 2.16313,0.48527 2.85511,1.77826 0.20835,0.3893 0.57483,0.58088 0.88413,0.46219 0.74985,-0.28774 1.57763,0.5154 1.57763,1.530681 0,0.701982 -0.13133,0.820844 -0.70556,0.638588 -0.43437,-0.137866 -0.70555,-0.06339 -0.70555,0.19376 0,0.244013 -0.29338,0.340977 -0.70556,0.233189 -0.45856,-0.119916 -0.70556,-0.01083 -0.70556,0.311634 0,0.272877 -0.16873,0.496139 -0.37495,0.496139 -0.20622,0 -0.32528,0.357188 -0.26458,0.79375 0.0816,0.586708 -0.0737,0.803131 -0.59519,0.829712 -2.47599,0.126203 -2.51213,0.137083 -1.81007,0.544971 0.49981,0.290386 0.73327,0.266446 0.96474,-0.09892 0.23002,-0.363079 0.30669,-0.371341 0.31076,-0.03348 0.003,0.246694 -0.35505,0.612772 -0.79561,0.813502 -0.71923,0.327703 -0.7943,0.588102 -0.73516,2.550079 0.0362,1.201808 0.0792,2.25836 0.0955,2.347892 0.0163,0.08953 0.34945,-0.464563 0.74036,-1.231325 0.39092,-0.766763 0.63403,-1.59408 0.54024,-1.838481 -0.0938,-0.244404 -0.0168,-0.444369 0.17119,-0.444369 0.18794,0 0.3417,0.257563 0.3417,0.572361 0,0.451136 0.10482,0.485376 0.49486,0.161667 0.33183,-0.275389 0.53551,-0.28878 0.61822,-0.04064 0.0678,0.203531 0.56992,-0.04403 1.11573,-0.55014 0.54582,-0.506105 0.89399,-1.018596 0.77372,-1.138865 -0.12026,-0.120269 -0.3291,-0.06452 -0.46407,0.123892 -0.13497,0.188408 -0.64228,0.384182 -1.12735,0.435053 -0.8639,0.0906 -0.86029,0.07802 0.17639,-0.615037 0.58209,-0.389142 0.89959,-0.727357 0.70556,-0.751593 -0.19403,-0.02424 0.12347,-0.1498 0.70555,-0.279036 0.64826,-0.143927 1.04315,-0.446684 1.01915,-0.781361 -0.0217,-0.302073 0.42856,-0.722944 1.0069,-0.941239 0.92089,-0.347599 1.02527,-0.322979 0.87212,0.205736 -0.0957,0.330327 -0.36993,1.394344 -0.60946,2.364483 -0.56772,2.299419 -1.03345,3.489512 -1.27216,3.250801 -0.10547,-0.10547 -0.0146,-0.522859 0.20201,-0.92753 0.26158,-0.488777 0.27118,-0.735771 0.0286,-0.735771 -0.20085,0 -0.36519,0.180936 -0.36519,0.402082 0,0.221142 -0.21908,0.57833 -0.48685,0.79375 -0.26777,0.215416 -0.58935,0.867918 -0.71462,1.450001 l -0.22776,1.058333 0.73829,-0.881944 c 0.6894,-0.823532 0.7121,-0.828548 0.34279,-0.07578 -0.62713,1.278255 -2.15796,3.439417 -2.33926,3.302444 -0.31487,-0.23791 -2.20175,0.721022 -2.39144,1.215358 -0.27739,0.722846 0.38151,0.608098 1.1983,-0.208689 0.38805,-0.388055 0.70555,-0.548537 0.70555,-0.35663 0,0.428361 -3.4924,4.564945 -4.25658,5.041713 -0.42184,0.263186 -1.47226,-0.249788 -4.444,-2.170215 -2.14036,-1.383174 -4.0122,-2.514864 -4.15962,-2.514864 -0.14743,0 -0.17675,0.237948 -0.0651,0.528775 0.37782,0.984603 -0.29526,1.836783 -3.79343,4.802769 -4.67953,3.967625 -6.70516,5.600983 -6.91733,5.577759 -0.097,-0.01062 -2.00202,-1.44055 -4.23333,-3.177628 z m 4.23333,1.793325 c 0,-0.194028 -0.15875,-0.352778 -0.35278,-0.352778 -0.19403,0 -0.35278,0.15875 -0.35278,0.352778 0,0.194027 0.15875,0.352777 0.35278,0.352777 0.19403,0 0.35278,-0.15875 0.35278,-0.352777 z m -1.53285,-1.572285 c -0.11489,-0.29941 -0.37398,-0.544382 -0.57574,-0.544382 -0.23218,0 -0.20877,0.2531 0.0638,0.689511 0.48676,0.779417 0.82947,0.682265 0.51197,-0.145129 z m 1.35646,-1.484947 c 0,-1.950488 -0.66481,-2.449425 -0.7973,-0.598375 -0.0708,0.989436 0.35006,2.245088 0.7523,2.244422 0.0248,-4.3e-5 0.045,-0.740763 0.045,-1.646047 z m -1.72714,-2.49167 c -0.35861,-0.358602 -0.65449,0.181289 -0.36026,0.657359 0.22226,0.359629 0.30535,0.359908 0.42485,0.0014 0.0817,-0.245106 0.0526,-0.541559 -0.0646,-0.658784 z m 2.0311,-0.271932 c -0.11168,-0.291041 -0.34482,-0.529166 -0.51809,-0.529166 -0.17327,0 -0.31504,0.238125 -0.31504,0.529166 0,0.291042 0.23315,0.529167 0.5181,0.529167 0.31559,0 0.43872,-0.20683 0.31503,-0.529167 z m -0.60792,-2.116666 c -0.12807,-0.333728 0.004,-0.529167 0.35823,-0.529167 0.48215,0 0.49302,-0.08236 0.0771,-0.584105 -0.45061,-0.543616 -0.49207,-0.543616 -0.59823,0 -0.0627,0.321257 -0.28061,0.584105 -0.48417,0.584105 -0.22759,0 -0.201,0.203757 0.0691,0.529167 0.24154,0.291041 0.51608,0.529166 0.6101,0.529166 0.094,0 0.0796,-0.238125 -0.0321,-0.529166 z m 21.6576,-1.030492 c -0.20263,-0.532945 -0.27853,-1.114422 -0.16868,-1.292169 0.10986,-0.177743 0.0334,-0.323173 -0.16991,-0.323173 -0.36937,0 -0.43239,1.36064 -0.1201,2.59315 0.10296,0.406393 0.29032,0.527971 0.49626,0.32203 0.20594,-0.205938 0.19175,-0.696669 -0.0376,-1.299838 z m -23.29392,-0.733397 c 0,-0.291042 -0.23314,-0.529167 -0.51809,-0.529167 -0.3156,0 -0.43873,0.20683 -0.31504,0.529167 0.11169,0.291042 0.34483,0.529167 0.5181,0.529167 0.17326,0 0.31503,-0.238125 0.31503,-0.529167 z m 3.82478,-1.940278 c 0.87871,-1.188519 1.46421,-1.363888 1.47229,-0.440972 0.005,0.518559 0.058,0.534165 0.33416,0.0975 0.20706,-0.327434 0.19889,-0.600117 -0.0221,-0.736695 -0.20984,-0.129688 -0.12804,-0.401758 0.20353,-0.676942 0.30492,-0.253058 0.65399,-0.36051 0.77572,-0.238781 0.32383,0.323829 1.21,-1.538972 0.93997,-1.975894 -0.1338,-0.216489 -0.0597,-0.265906 0.17826,-0.118851 0.224,0.138444 0.40728,0.0836 0.40728,-0.121881 0,-0.478303 -0.56077,-0.475908 -1.46166,0.0062 -0.39035,0.208908 -0.63292,0.580002 -0.53904,0.82465 0.13402,0.349236 -0.20712,0.37011 -1.58763,0.09715 -1.37397,-0.271667 -1.7249,-0.475495 -1.6054,-0.932459 0.12203,-0.466647 -0.0515,-0.554796 -0.85877,-0.436308 -0.55643,0.08167 -1.09849,0.288932 -1.20458,0.46059 -0.10609,0.171654 -0.50102,0.312102 -0.87763,0.312102 -0.74392,0 -0.8882,-0.724528 -0.34602,-1.737607 0.25506,-0.476588 0.12438,-0.923406 -0.52917,-1.809235 -0.47731,-0.647001 -0.86786,-0.986761 -0.86786,-0.755039 0,0.231722 -0.32819,0.421315 -0.72933,0.421315 -0.56938,0 -0.68009,-0.155109 -0.50484,-0.707295 0.26123,-0.823037 -0.78381,-1.434295 -1.22678,-0.717557 -0.20099,0.325216 -0.339,0.335167 -0.52284,0.03771 -0.15676,-0.25364 0.28528,-0.628935 1.18703,-1.007801 0.79025,-0.33202 1.43843,-0.802107 1.4404,-1.044642 0.006,-0.683941 0.70392,-0.519712 0.75006,0.176389 0.039,0.587964 0.0486,0.587964 0.20226,0 0.0887,-0.339549 0.30844,-0.617361 0.48824,-0.617361 0.40811,0 0.40983,-0.381156 0.005,-1.021092 -0.24909,-0.39337 -0.7957,-0.17669 -2.72862,1.081642 -1.32943,0.86546 -3.32995,2.112554 -4.44561,2.77132 -2.43094,1.435404 -2.58297,2.161322 -0.61736,2.947801 0.77611,0.310539 1.41111,0.707443 1.41111,0.882004 0,0.174565 0.40337,0.418631 0.89637,0.542368 0.54223,0.136087 0.79945,0.381804 0.65105,0.621919 -0.14229,0.23023 -0.0876,0.299487 0.13013,0.164899 0.57144,-0.35317 1.40663,0.0904 1.60605,0.852985 0.098,0.374635 0.47363,0.681153 0.83481,0.681153 0.36118,0 1.24006,0.39641 1.95307,0.880908 1.06705,0.725082 1.45953,0.818878 2.21872,0.530235 0.61268,-0.232946 0.84937,-0.232597 0.70497,0.0011 -0.11955,0.193442 -0.48581,0.356993 -0.81391,0.363449 -0.48349,0.0095 -0.43871,0.143217 0.23629,0.705556 1.12703,0.9389 1.54484,0.877062 2.46278,-0.364515 z m -2.5834,-2.109311 c -0.58515,-0.646582 -0.58807,-0.715007 -0.0395,-0.925527 0.71394,-0.273967 1.02939,-0.0081 1.09816,0.925358 0.0652,0.885486 -0.25745,0.885539 -1.0587,1.69e-4 z m -7.2386,-6.004578 c 0,-0.194027 0.16812,-0.352777 0.3736,-0.352777 0.20548,0 0.27548,0.15875 0.15557,0.352777 -0.11992,0.194028 -0.28804,0.352778 -0.3736,0.352778 -0.0856,0 -0.15557,-0.15875 -0.15557,-0.352778 z m 29.63333,7.546979 c 0,-0.689085 -0.26365,-0.611569 -0.70131,0.206191 -0.30459,0.569154 -0.2744,0.659649 0.16398,0.491427 0.29554,-0.113408 0.53733,-0.427334 0.53733,-0.697618 z m 1.05834,-0.0039 c 0,-0.291041 -0.15875,-0.431055 -0.35278,-0.311139 -0.19403,0.119916 -0.35278,0.456152 -0.35278,0.747194 0,0.291041 0.15875,0.431055 0.35278,0.311139 0.19403,-0.119916 0.35278,-0.456152 0.35278,-0.747194 z m 2.12518,-0.422127 c -0.17692,-0.06104 -0.23623,-0.378541 -0.13181,-0.705555 0.14714,-0.460827 0.11274,-0.486594 -0.15297,-0.114544 -0.18855,0.264012 -0.26087,0.793369 -0.16072,1.176349 0.13919,0.532264 0.25102,0.585402 0.47462,0.22553 0.1615,-0.259905 0.14845,-0.520509 -0.0291,-0.58178 z m -35.28629,-0.04459 c 0,-0.182577 -0.15875,-0.430072 -0.35278,-0.549988 -0.19403,-0.119916 -0.35278,0.02946 -0.35278,0.331957 0,0.302493 0.15875,0.549988 0.35278,0.549988 0.19403,0 0.35278,-0.149381 0.35278,-0.331957 z m 34.57222,-1.805531 c 0,-0.182577 -0.15875,-0.331957 -0.35278,-0.331957 -0.19403,0 -0.35278,0.247495 -0.35278,0.549988 0,0.302493 0.15875,0.451873 0.35278,0.331957 0.19403,-0.119917 0.35278,-0.367411 0.35278,-0.549988 z m -35.21287,-1.466494 c -0.17733,-0.177323 -0.31816,0.187015 -0.32995,0.85355 -0.0192,1.088379 6e-4,1.108212 0.30938,0.309379 0.18911,-0.489211 0.19789,-0.985608 0.0206,-1.162929 z m 13.69342,0.0762 c 0,-0.194028 -0.23812,-0.352778 -0.52916,-0.352778 -0.29105,0 -0.52917,0.15875 -0.52917,0.352778 0,0.194028 0.23812,0.352778 0.52917,0.352778 0.29104,0 0.52916,-0.15875 0.52916,-0.352778 z m 25.04722,-1.763889 c 0,-0.194028 -0.07,-0.352778 -0.15556,-0.352778 -0.0856,0 -0.25369,0.15875 -0.3736,0.352778 -0.11992,0.194028 -0.0499,0.352778 0.15557,0.352778 0.20548,0 0.37359,-0.15875 0.37359,-0.352778 z m -15.60306,-1.477257 c -0.21804,-0.654128 -0.97749,-0.762621 -0.97749,-0.13964 0,0.307209 0.25135,0.558564 0.55856,0.558564 0.30722,0 0.49573,-0.188514 0.41893,-0.418924 z m 0.11746,-1.449458 c -0.45279,-0.452787 -0.91195,-0.102835 -0.57673,0.439554 0.12985,0.2101 0.3977,0.28212 0.59523,0.160041 0.24094,-0.148914 0.23486,-0.346237 -0.0185,-0.599595 z m -2.15328,-0.09272 c 0,-0.302493 -0.16134,-0.450271 -0.35854,-0.328401 -0.19719,0.121871 -0.2672,0.369366 -0.15556,0.549988 0.30241,0.489317 0.5141,0.398078 0.5141,-0.221587 z m 2.82222,-1.008659 c 0,-0.08115 -0.0979,-0.402696 -0.21759,-0.714562 -0.16753,-0.436576 -0.32895,-0.474599 -0.70167,-0.165269 -0.5582,0.463261 -0.33257,1.027366 0.41091,1.027366 0.27959,0 0.50835,-0.06639 0.50835,-0.147535 z m -14.46389,-0.713588 c 0,-0.08556 -0.15875,-0.253683 -0.35278,-0.373599 -0.19403,-0.119916 -0.35278,-0.04991 -0.35278,0.155568 0,0.205479 0.15875,0.373599 0.35278,0.373599 0.19403,0 0.35278,-0.07 0.35278,-0.155568 z m 13.75833,-1.940273 c 0,-0.41623 -0.68804,-0.86149 -0.94074,-0.60879 -0.2527,0.2527 0.19256,0.940742 0.60879,0.940742 0.18257,0 0.33195,-0.149382 0.33195,-0.331952 z m -37.95086,-0.68228 c 0.10492,-0.16978 -0.20031,-0.30868 -0.6783,-0.30868 -0.478,0 -0.78323,0.1389 -0.67831,0.30868 0.10493,0.16977 0.41017,0.30868 0.67831,0.30868 0.26814,0 0.57337,-0.13891 0.6783,-0.30868 z m 35.98441,-1.21983 c -0.12414,-0.32349 -0.44684,-0.58816 -0.71712,-0.58816 -0.61058,0 -0.65366,1.29283 -0.0504,1.51401 0.63576,0.23311 1.02988,-0.24228 0.76757,-0.92585 z m -11.65918,0.28043 c 0.11988,-0.3124 -0.0202,-0.63016 -0.33025,-0.74914 -0.69025,-0.26487 -1.00523,0.0536 -0.73905,0.74728 0.26779,0.69786 0.80186,0.69878 1.0693,0.002 z m 14.46394,0.26035 c 0.0959,-0.15519 -0.13284,-0.47403 -0.50835,-0.70854 -0.59004,-0.36849 -0.68273,-0.33017 -0.68273,0.28217 0,0.68995 0.84191,0.99134 1.19108,0.42637 z m -31.52997,-1.52286 c 0,-0.47583 -0.56954,-0.37143 -1.0353,0.18978 -0.34146,0.41143 -0.2859,0.46735 0.30958,0.31163 0.39914,-0.10438 0.72572,-0.33001 0.72572,-0.50141 z m 16.04196,-1.39966 c -0.1247,-0.39291 -0.0482,-0.67586 0.18286,-0.67586 0.21855,0 0.29926,-0.15875 0.17934,-0.35278 -0.45672,-0.73899 -0.88194,-0.30372 -0.88194,0.90276 0,0.77992 0.13907,1.16959 0.36713,1.02865 0.20192,-0.1248 0.2706,-0.53104 0.15261,-0.90277 z m 0.81052,-2.85868 c -0.21804,-0.65412 -0.97748,-0.76262 -0.97748,-0.13964 0,0.30721 0.25135,0.55857 0.55856,0.55857 0.30721,0 0.49573,-0.18852 0.41892,-0.41893 z m 16.29622,7.1449 c 0.46437,-0.86769 0.47101,-1.54135 0.0124,-1.25792 -0.44634,0.27586 -0.44951,-0.22879 -0.009,-1.38814 0.18922,-0.4977 0.56784,-0.90491 0.84137,-0.90491 0.54537,0 1.63999,-1.47108 1.6314,-2.19245 -0.004,-0.31876 -0.10693,-0.29626 -0.34737,0.0758 -0.1962,0.3036 -0.34427,0.35349 -0.34737,0.11705 -0.0102,-0.77421 0.42231,-1.52816 0.87654,-1.52816 0.50136,0 0.98486,-0.95918 0.70873,-1.40598 -0.0965,-0.15619 0.0386,-0.36613 0.30023,-0.46653 0.48404,-0.18575 0.48766,-0.12661 0.23337,3.81279 -0.0878,1.35949 -0.0999,1.37239 -0.33072,0.35278 l -0.23964,-1.05834 -0.20048,0.97856 c -0.11026,0.53821 -0.063,1.06352 0.10499,1.16735 0.53812,0.33258 0.33984,1.19653 -0.22488,0.97983 -0.37992,-0.14579 -0.59255,0.1075 -0.74966,0.89301 -0.23678,1.18392 -1.04487,1.48345 -1.29273,0.47917 -0.0838,-0.33955 -0.11119,-0.23055 -0.0609,0.24222 0.12192,1.14545 -0.15357,1.78625 -0.76794,1.78625 -0.38881,0 -0.42046,-0.155783 -0.13864,-0.68236 z m 13.41796,-0.0232 c 0,-0.41406 0.27115,-0.41406 1.23472,0 0.62522,0.26866 0.59508,0.30601 -0.26458,0.327975 -0.53357,0.01364 -0.97014,-0.133955 -0.97014,-0.327975 z m -2.11666,-1.05834 c -0.45223,-0.29225 -0.43941,-0.34276 0.0882,-0.34737 0.33955,-0.003 0.61736,0.15335 0.61736,0.34737 0,0.43025 -0.0398,0.43025 -0.70555,0 z m -15.52223,-5.99722 c 0,-0.19403 0.23813,-0.35278 0.52917,-0.35278 0.29104,0 0.52917,0.15875 0.52917,0.35278 0,0.19403 -0.23813,0.35278 -0.52917,0.35278 -0.29104,0 -0.52917,-0.15875 -0.52917,-0.35278 z m -1.94027,-1.41111 c -0.11992,-0.19403 -0.0499,-0.35278 0.15556,-0.35278 0.20548,0 0.3736,0.15875 0.3736,0.35278 0,0.19403 -0.07,0.35278 -0.15557,0.35278 -0.0856,0 -0.25368,-0.15875 -0.37359,-0.35278 z m 1.23472,-1.05833 c 0,-0.19403 0.14938,-0.35278 0.33196,-0.35278 0.18257,0 0.43007,0.15875 0.54998,0.35278 0.11992,0.19402 -0.0295,0.35277 -0.33195,0.35277 -0.3025,0 -0.54999,-0.15875 -0.54999,-0.35277 z m -1.94028,-1.41111 c -0.11992,-0.19403 0.0388,-0.35278 0.35278,-0.35278 0.31394,0 0.47269,0.15875 0.35278,0.35278 -0.11992,0.19402 -0.27867,0.35277 -0.35278,0.35277 -0.0741,0 -0.23286,-0.15875 -0.35278,-0.35277 z m 2.39005,-1.41112 c 0.0383,-0.50781 0.304,-0.70404 0.94822,-0.70015 0.70742,0.004 0.78413,0.0771 0.3659,0.34738 -0.40156,0.2595 -0.25267,0.34327 0.61736,0.34737 0.63059,0.003 1.14653,0.16415 1.14653,0.35818 0,0.19403 -0.70451,0.35278 -1.56558,0.35278 -1.3481,0 -1.55819,-0.098 -1.51243,-0.70556 z m 2.52807,-1.2235 c -0.67135,-0.50779 -0.67006,-0.51817 0.0658,-0.52917 0.4128,-0.006 0.94818,0.22691 1.18972,0.51795 0.59945,0.72229 -0.30469,0.73037 -1.25549,0.0112 z m -6.57177,-0.0758 c 0.25466,-0.1019 0.55894,-0.0894 0.67616,0.0279 0.11723,0.11722 -0.0911,0.2006 -0.46302,0.18528 -0.41097,-0.0169 -0.49456,-0.10052 -0.21314,-0.21314 z m 3.06476,-0.46456 c 0.11992,-0.19403 0.52616,-0.35278 0.90277,-0.35278 0.3766,0 0.68473,0.15875 0.68473,0.35278 0,0.19402 -0.40624,0.35277 -0.90276,0.35277 -0.51201,0 -0.80839,-0.15269 -0.68474,-0.35277 z"
         id="path2531" />
      <path
         style="fill:#b78952;stroke-width:0.352778"
         d="m -358.69024,-77.771642 c -2.23132,-1.737074 -4.64725,-3.592011 -5.36873,-4.122081 -0.72148,-0.53007 -1.403,-1.192985 -1.51449,-1.473147 -0.12928,-0.324887 0.0714,-0.261349 0.554,0.175418 0.75536,0.683596 0.75648,0.683246 0.63254,-0.196169 -0.0859,-0.609402 -0.31447,-0.849019 -0.74152,-0.777314 -0.50774,0.08525 -0.61805,-0.165315 -0.62124,-1.411111 -0.002,-0.833123 -0.101,-2.10216 -0.21969,-2.820084 l -0.21581,-1.305313 -4.85989,3.333785 c -2.77316,1.902336 -5.21603,3.332364 -5.68933,3.330476 -1.89756,-0.0076 -6.61149,-3.522842 -8.89429,-6.632645 -2.82008,-3.841715 -5.16433,-9.937796 -5.16433,-13.429513 v -1.49956 l 2.95705,-1.36616 c 1.79574,-0.82964 3.28509,-1.30275 3.79236,-1.20469 0.67774,0.13101 0.7105,0.10639 0.17367,-0.1305 -0.5424,-0.23936 -0.2563,-0.47251 1.5875,-1.29373 6.50645,-2.89794 16.14267,-7.91062 25.25891,-13.13948 4.84568,-2.77936 5.5983,-2.82573 6.41893,-0.3955 0.30658,0.90791 0.66967,1.761 0.80687,1.89576 0.1372,0.13475 1.53533,-0.57985 3.10696,-1.58801 4.52032,-2.89966 6.44392,-2.78758 9.49735,0.55336 1.79949,1.96893 2.84484,4.38889 2.84484,6.58575 0,0.84192 -0.11373,0.98649 -0.61736,0.78477 -0.94133,-0.37703 -7.09375,-2.15453 -9.08403,-2.62447 -2.10108,-0.4961 -3.11528,-1.2814 -2.30327,-1.78343 0.28542,-0.17646 0.39258,-0.44721 0.23813,-0.60166 -0.15446,-0.15446 -0.43289,-0.009 -0.61874,0.32298 -0.21448,0.38326 -0.98966,0.69027 -2.1222,0.84051 -1.64135,0.21773 -2.0072,0.46019 -4.56662,3.0265 -1.6628,1.66728 -3.01918,2.74737 -3.37099,2.68434 -0.32376,-0.058 -0.65809,0.0931 -0.74294,0.33573 -0.10443,0.29869 0.0518,0.36215 0.48358,0.19645 0.54296,-0.20835 0.51964,-0.0945 -0.15671,0.76535 -0.76111,0.96759 -0.78468,1.19708 -0.56004,5.45229 l 0.23452,4.44219 -2.51355,1.671394 c -1.38245,0.919265 -2.58427,1.671394 -2.67072,1.671394 -0.0865,0 -0.96148,0.499978 -1.94451,1.111067 -1.3001,0.808186 -1.78733,1.33024 -1.78733,1.915079 0,0.909553 0.85164,1.912743 1.62377,1.912743 0.28328,0 0.60492,0.234224 0.71478,0.520499 0.21491,0.560038 2.05256,1.596168 2.83093,1.596168 0.26123,0 0.47497,0.124523 0.47497,0.276715 0,0.401412 1.97768,1.508563 2.23503,1.251218 0.31687,-0.316872 1.32185,0.609011 1.0821,0.996936 -0.23454,0.379497 0.48347,1.355686 0.99714,1.355686 0.19103,0 0.25595,-0.238125 0.14426,-0.529166 -0.34507,-0.899252 0.27918,-0.577095 0.7191,0.371101 0.43354,0.934448 0.31909,0.954098 -1.52598,0.261994 -0.75378,-0.282752 -0.81759,0.502994 -0.094,1.157813 0.55047,0.498164 0.78298,0.546597 0.99296,0.206837 0.20948,-0.338935 0.39173,-0.298827 0.77221,0.16994 0.32126,0.395799 0.34151,0.519554 0.0571,0.348657 -0.55531,-0.333618 -0.56984,0.28677 -0.0304,1.29921 0.37112,0.696564 0.35418,0.724066 -0.17638,0.286393 -0.80168,-0.661328 -0.73729,-0.188698 0.14265,1.047069 0.43159,0.606107 0.56026,1.024597 0.31504,1.024597 -0.228,0 -0.34016,0.198437 -0.24923,0.440972 0.0909,0.242535 0.0485,0.758472 -0.0943,1.146528 -0.27688,0.752408 0.16154,1.940278 0.71611,1.940278 0.18371,0 0.31575,-0.811012 0.29342,-1.802243 -0.0246,-1.092497 0.13147,-1.908595 0.39634,-2.072291 0.33458,-0.206784 0.28944,-0.495155 -0.19269,-1.230972 -0.48817,-0.745049 -0.54184,-1.101492 -0.23888,-1.586608 0.2868,-0.459242 0.28486,-0.731558 -0.007,-1.023725 -0.29555,-0.295547 -0.27932,-0.39805 0.063,-0.39805 0.27572,0 0.37489,-0.224575 0.2467,-0.558645 -0.13022,-0.339337 -0.0529,-0.504825 0.19692,-0.421548 0.22621,0.07541 0.94232,-0.427267 1.59135,-1.11705 0.64904,-0.689779 1.08208,-0.976334 0.96232,-0.636785 -0.12484,0.353935 -0.0464,0.617361 0.18385,0.617361 0.22087,0 0.50795,-0.277812 0.63795,-0.617361 0.12999,-0.339549 0.56157,-0.889892 0.95906,-1.222985 0.3975,-0.333093 0.58047,-0.610906 0.40662,-0.617361 -0.17386,-0.0065 0.1028,-0.399959 0.61478,-0.874452 1.09913,-1.018639 0.90353,-1.197793 -1.57732,-1.444745 -1.02696,-0.102228 -2.11189,-0.385311 -2.41095,-0.62908 -0.29906,-0.243766 -1.53594,-0.902582 -2.74861,-1.464035 -2.19599,-1.016716 -2.98152,-1.868064 -1.34454,-1.457208 0.47318,0.118762 0.94086,0.08562 1.0393,-0.07365 0.1903,-0.307915 -0.61036,-3.004157 -1.19666,-4.029749 -0.48612,-0.85037 -0.4373,-1.32771 0.13579,-1.32771 0.26728,0 0.65608,-0.20498 0.864,-0.4555 0.28104,-0.33864 0.19772,-0.56813 -0.32476,-0.89442 -0.57838,-0.36121 -0.66586,-0.6865 -0.49419,-1.83755 0.13019,-0.87286 0.0696,-1.39864 -0.16121,-1.39864 -0.2034,0 -0.36981,-0.15875 -0.36981,-0.35278 0,-0.19402 0.3175,-0.35277 0.70555,-0.35277 0.39198,0 0.70556,-0.23519 0.70556,-0.52917 0,-0.29104 0.24749,-0.52917 0.54998,-0.52917 0.34233,0 0.45263,-0.1665 0.29214,-0.44097 -0.14182,-0.24253 0.0597,-0.16316 0.44793,0.17639 0.38818,0.33955 1.03195,0.61736 1.43061,0.61736 0.43733,0 0.8009,0.29092 0.91663,0.73346 0.13878,0.53071 0.41834,0.69906 1.01128,0.60899 0.45072,-0.0685 0.7798,-0.31915 0.73129,-0.55707 -0.13801,-0.67695 0.40094,-0.50739 0.89333,0.28106 0.34126,0.54644 0.59385,0.63436 1.07804,0.37523 0.71762,-0.38406 2.44114,-0.0606 4.29043,0.80521 1.12741,0.52784 1.1506,0.56692 0.26683,0.44967 -1.2558,-0.1666 -2.16142,0.77085 -1.0304,1.06662 0.41997,0.10982 0.76357,0.35712 0.76357,0.54955 0,0.19258 -0.3784,0.25491 -0.84168,0.13863 -0.63691,-0.15985 -0.88446,-0.0477 -1.01753,0.46117 -0.20825,0.79638 0.33773,1.43748 1.22421,1.43748 0.40566,0 0.635,-0.26206 0.635,-0.72556 0,-0.67932 0.05,-0.69056 0.78406,-0.17639 0.43122,0.30205 1.05299,0.54917 1.38171,0.54917 0.73571,0 0.91877,0.49297 0.70869,1.90852 l -0.16178,1.09009 -0.41586,-1.234722 c -0.27878,-0.827678 -0.66776,-1.271878 -1.17996,-1.347448 -0.88452,-0.1305 -1.00025,0.3595 -0.23491,0.99467 0.58205,0.483062 0.71739,1.411111 0.20578,1.411111 -0.17785,0 -0.39425,-0.198437 -0.48086,-0.440972 -0.0866,-0.242535 -0.28266,-0.324316 -0.43563,-0.181734 -0.48472,0.451785 1.43566,2.071917 2.13693,1.802818 0.37549,-0.144092 0.54361,-0.102228 0.41636,0.103675 -0.1174,0.189946 -0.24783,1.407551 -0.28986,2.705784 -0.0657,2.030289 -0.16732,2.360429 -0.72637,2.360429 -0.85822,0 -0.83547,0.574753 0.0317,0.801529 0.52225,0.136571 0.97605,-0.265081 1.94028,-1.717315 0.69224,-1.042572 1.2586,-1.973122 1.2586,-2.067895 0,-0.405427 3.30407,-5.48298 3.56789,-5.48298 0.15979,0 0.20701,-0.21764 0.10493,-0.48365 -0.10207,-0.266 0.0617,-0.57852 0.36385,-0.69448 0.33727,-0.12942 0.54944,-0.0188 0.54944,0.28644 0,0.2735 0.18328,0.61054 0.40729,0.74899 0.25234,0.15595 0.31152,0.0968 0.15557,-0.15557 -0.16522,-0.26734 0.0585,-0.40729 0.65105,-0.40729 0.56727,0 0.90276,0.19666 0.90276,0.52917 0,0.30294 0.31778,0.52917 0.7433,0.52917 0.53285,0 0.68267,0.15798 0.52917,0.558013 -0.11778,0.306909 -0.21414,0.633779 -0.21414,0.726373 0,0.0926 -0.15693,0.07137 -0.34873,-0.04717 -0.1997,-0.123419 -0.25929,0.01757 -0.13943,0.329932 0.11513,0.300006 0.39112,0.44371 0.61332,0.319345 0.28003,-0.156725 0.29343,-0.105068 0.0437,0.168321 -0.19818,0.216941 -0.71002,0.447805 -1.13744,0.513034 -1.26954,0.193746 -1.33909,0.586585 -0.14609,0.825186 0.61308,0.122615 1.11468,0.379049 1.11468,0.56986 0,0.195566 -0.39185,0.248574 -0.89816,0.121496 -1.20246,-0.301794 -1.60244,0.0032 -1.25075,0.953918 0.16625,0.449372 0.13756,1.116002 -0.0674,1.565826 -0.25305,0.555406 -0.23474,0.930479 0.063,1.28917 0.23091,0.278228 0.33337,0.878244 0.2277,1.333366 -0.27377,1.179078 -0.54862,3.315786 -0.74174,5.766382 -0.0917,1.164166 -0.23134,2.434166 -0.31022,2.822222 -0.0789,0.388055 -0.15556,0.908974 -0.17041,1.157598 -0.0647,1.083095 -1.26251,0.675079 -4.87866,-1.661799 -2.12297,-1.371924 -3.98056,-2.49441 -4.12798,-2.49441 -0.14743,0 -0.17675,0.237948 -0.0651,0.528775 0.38008,0.990498 -0.30187,1.84241 -3.83159,4.78652 -1.94028,1.618368 -3.60716,3.033275 -3.70417,3.144238 -0.31741,0.363044 -3.09695,2.477163 -3.22577,2.45352 -0.0691,-0.01266 -1.95125,-1.4443 -4.18256,-3.181378 z m 4.1116,1.201222 c -0.10126,-0.101257 -0.36113,-0.0747 -0.57749,0.05902 -0.28236,0.174512 -0.26409,0.399097 0.0647,0.795817 0.41273,0.497953 0.46992,0.492107 0.57748,-0.05902 0.0657,-0.336444 0.0365,-0.694563 -0.0647,-0.795818 z m -1.1842,-0.336225 c 0.12252,-0.122527 0.0549,-0.536444 -0.15027,-0.919819 -0.44242,-0.826664 -1.15393,-0.340053 -0.81068,0.554433 0.23533,0.613262 0.58146,0.744873 0.96095,0.365386 z m 2.71704,-2.288311 c 0,-0.194027 -0.15875,-0.254666 -0.35278,-0.13475 -0.19403,0.119916 -0.35278,0.376777 -0.35278,0.570805 0,0.194028 0.15875,0.254667 0.35278,0.13475 0.19403,-0.119916 0.35278,-0.376777 0.35278,-0.570805 z m -4.87421,-0.740353 c -0.25314,-0.253139 -0.41746,-0.273967 -0.41746,-0.05292 0,0.470881 0.4172,0.888079 0.65264,0.652639 0.10025,-0.100245 -0.006,-0.37012 -0.23518,-0.599722 z m 2.05199,-0.938703 c 0,-0.170268 -0.23813,-0.507206 -0.52917,-0.74875 -0.42916,-0.356168 -0.52917,-0.342106 -0.52917,0.0744 0,0.282462 0.10584,0.6194 0.23519,0.748749 0.33503,0.33503 0.82315,0.290911 0.82315,-0.0744 z m -2.11667,-0.543507 c 0,-0.563323 -0.50967,-1.263576 -0.91969,-1.263576 -0.55462,0 -0.57756,0.07059 -0.27729,0.853091 0.18419,0.479996 1.19698,0.827317 1.19698,0.410485 z m 6.35,-1.305214 c 0,-0.194028 -0.15875,-0.254667 -0.35278,-0.134751 -0.19402,0.119916 -0.35277,0.376777 -0.35277,0.570805 0,0.194028 0.15875,0.254667 0.35277,0.134751 0.19403,-0.119917 0.35278,-0.376778 0.35278,-0.570805 z m -8.42698,-1.823675 c -0.2881,-0.288103 -0.39246,-0.248623 -0.39246,0.14846 0,0.701273 0.47438,1.175653 0.6497,0.6497 0.0744,-0.223132 -0.0414,-0.582305 -0.25724,-0.79816 z m 1.93734,0.196967 c -0.3586,-0.358602 -0.65449,0.181289 -0.36026,0.657359 0.22226,0.359629 0.30535,0.359907 0.42485,0.0014 0.0817,-0.245106 0.0526,-0.54156 -0.0646,-0.658784 z m 1.46991,0.543867 c -0.0768,-0.23041 -0.32827,-0.481799 -0.55881,-0.558645 -0.25779,-0.08593 -0.33663,0.07535 -0.20479,0.418924 0.24607,0.641247 0.97525,0.774671 0.7636,0.139721 z m 3.5051,-0.154968 c -0.12162,-0.121617 0.0107,-0.669357 0.29398,-1.217204 0.61123,-1.181985 0.64969,-1.508728 0.14056,-1.194068 -0.8417,0.520199 -1.18495,2.632386 -0.42779,2.632386 0.1179,0 0.11486,-0.0995 -0.007,-0.221114 z m -6.88736,-1.971989 c -0.25314,-0.25314 -0.41745,-0.273968 -0.41745,-0.05292 0,0.470881 0.41719,0.888079 0.65264,0.652639 0.10024,-0.100245 -0.006,-0.37012 -0.23519,-0.599722 z m 10.89789,-1.431689 c -0.0436,-0.421816 -0.5275,-0.340127 -0.67909,0.114653 -0.0776,0.232833 0.0494,0.359833 0.28222,0.282222 0.23283,-0.07761 0.41143,-0.256205 0.39687,-0.396875 z m -9.20575,-0.440679 c -0.24544,-0.29573 -0.5189,-0.465043 -0.60769,-0.376248 -0.24465,0.244651 0.25243,0.913941 0.67878,0.913941 0.23392,0 0.20716,-0.202417 -0.0711,-0.537693 z m -6.34293,-0.477446 c 0,-0.170268 -0.23812,-0.507207 -0.52916,-0.74875 -0.42916,-0.356168 -0.52917,-0.342106 -0.52917,0.0744 0,0.282462 0.10583,0.619401 0.23518,0.74875 0.33503,0.33503 0.82315,0.290911 0.82315,-0.0744 z m 4.50527,-0.10934 c -0.21804,-0.654128 -0.97749,-0.762621 -0.97749,-0.13964 0,0.307209 0.25135,0.558563 0.55857,0.558563 0.30721,0 0.49572,-0.188517 0.41892,-0.418923 z m -3.45663,-1.236324 c -0.47974,-0.328302 -0.98888,-0.764865 -1.13143,-0.970139 -0.14725,-0.212048 -0.26151,-0.05584 -0.26458,0.361728 -0.007,0.959633 0.27151,1.205325 1.36661,1.205325 h 0.90164 z m -1.66828,-1.341124 c 0.0957,-0.500489 -0.0387,-1.051362 -0.31165,-1.277916 -0.38955,-0.323303 -0.47982,-0.157812 -0.47982,0.879704 0,1.453692 0.53796,1.724357 0.79147,0.398212 z m 21.08075,-1.921697 c 0,-0.416228 -0.68804,-0.861483 -0.94074,-0.608785 -0.2527,0.252702 0.19256,0.940742 0.60879,0.940742 0.18257,0 0.33195,-0.14938 0.33195,-0.331957 z m 1.65281,-0.859775 c -0.10261,-0.267399 -0.002,-0.670885 0.2239,-0.896638 0.31209,-0.312088 0.28434,-0.490185 -0.11577,-0.743141 -0.35129,-0.222094 -0.37963,-0.334479 -0.0852,-0.338088 0.24253,-0.0028 0.44097,-0.243526 0.44097,-0.534567 0,-0.301036 -0.31685,-0.529167 -0.73495,-0.529167 -0.43552,0 -0.67175,0.179663 -0.57982,0.440972 0.0853,0.242535 0.0127,0.825536 -0.16139,1.295559 -0.39273,1.060326 -0.13937,1.791247 0.62089,1.791247 0.34611,0 0.50313,-0.19504 0.39141,-0.486177 z m 7.87219,-0.551336 c 0,-0.47638 -0.64309,-0.806622 -1.06408,-0.546431 -0.1972,0.12187 -0.2672,0.369365 -0.15557,0.549987 0.26482,0.428488 1.21965,0.425704 1.21965,-0.0036 z m -2.29305,-1.079154 c 0.11991,-0.194028 0.0593,-0.352778 -0.13475,-0.352778 -0.19403,0 -0.45089,0.15875 -0.57081,0.352778 -0.11991,0.194028 -0.0593,0.352778 0.13475,0.352778 0.19403,0 0.45089,-0.15875 0.57081,-0.352778 z m -7.23195,-1.234722 c 0,-0.291042 -0.23812,-0.529167 -0.52916,-0.529167 -0.29104,0 -0.52917,0.238125 -0.52917,0.529167 0,0.291042 0.23813,0.529167 0.52917,0.529167 0.29104,0 0.52916,-0.238125 0.52916,-0.529167 z m -2.99861,-0.529167 c -0.11991,-0.194028 -0.37677,-0.352778 -0.5708,-0.352778 -0.19403,0 -0.25467,0.15875 -0.13475,0.352778 0.11991,0.194028 0.37677,0.352778 0.5708,0.352778 0.19403,0 0.25467,-0.15875 0.13475,-0.352778 z m -6.80874,-1.834575 c -0.19895,-0.198949 -0.54381,-0.249191 -0.76635,-0.111654 -0.28004,0.173073 -0.20804,0.394991 0.23384,0.720718 0.70083,0.516611 1.14741,0.0058 0.53251,-0.609064 z m 4.67701,0.399087 c -0.11163,-0.180618 -0.45116,-0.328401 -0.7545,-0.328401 -0.44845,0 -0.47006,0.09819 -0.1156,0.525283 0.45549,0.548827 1.22356,0.375031 0.8701,-0.196882 z m -29.17294,-1.324871 c -0.33108,-0.408957 -0.33475,-0.483697 -0.0143,-0.291307 0.23705,0.14232 0.82459,7e-4 1.30564,-0.31432 0.48105,-0.31519 1.16386,-0.48128 1.51736,-0.36909 0.93638,0.2972 2.93814,-0.36774 3.49334,-1.16039 0.29065,-0.41496 0.73894,-0.61641 1.13893,-0.51181 0.4557,0.11916 0.71895,-0.0544 0.85156,-0.56151 0.11139,-0.42596 0.5019,-0.7525 0.93052,-0.77809 1.4718,-0.0879 1.61899,-0.15741 1.52536,-0.72062 -0.10272,-0.61785 1.51,-1.35195 2.97004,-1.35195 0.45611,0 0.8293,-0.15875 0.8293,-0.35278 0,-0.19402 0.17753,-0.35277 0.39451,-0.35277 0.52433,0 2.42269,-2.19217 2.20433,-2.54549 -0.30003,-0.48546 -1.81009,-0.29683 -2.02086,0.25243 -0.11168,0.29104 -0.41089,0.52917 -0.6649,0.52917 -0.25401,0 -0.73369,0.3175 -1.06595,0.70555 -0.33226,0.38806 -0.90373,0.70556 -1.26993,0.70556 -0.36619,0 -0.85051,0.22255 -1.07625,0.49455 -0.22575,0.27201 -0.8405,0.59958 -1.36612,0.72794 -2.7191,0.66405 -4.70755,1.34507 -5.11397,1.75149 -0.84353,0.84352 -3.94484,2.06541 -5.48614,2.16148 -0.8418,0.0525 -1.93957,0.19806 -2.43949,0.32353 l -0.90894,0.22813 1.10334,0.67099 c 0.60684,0.36904 1.43743,1.005056 1.84574,1.413371 0.59376,0.593764 0.84448,0.65767 1.25231,0.319204 0.41447,-0.343979 0.42656,-0.526147 0.0646,-0.973268 z m 11.72551,-6.411867 c 0.69087,-0.44647 1.15788,-0.44647 0.88194,0 -0.11992,0.19403 -0.48647,0.35035 -0.81457,0.34738 -0.51409,-0.005 -0.5234,-0.0527 -0.0674,-0.34738 z m 20.10833,6.85835 c 0,-0.302493 -0.15875,-0.451873 -0.35278,-0.331957 -0.19403,0.119916 -0.35278,0.367411 -0.35278,0.549988 0,0.182576 0.15875,0.331956 0.35278,0.331956 0.19403,0 0.35278,-0.247494 0.35278,-0.549987 z m 1.76389,0.04164 c 0,-0.52958 -0.63336,-1.09256 -0.91372,-0.81219 -0.24606,0.246048 0.24108,1.320535 0.59868,1.320535 0.17327,0 0.31504,-0.228755 0.31504,-0.508345 z m -5.93255,-0.62642 c -0.25314,-0.25314 -0.41745,-0.27397 -0.41745,-0.0529 0,0.47088 0.4172,0.888078 0.65264,0.652638 0.10025,-0.100245 -0.006,-0.37012 -0.23519,-0.599718 z m 1.69922,-0.45273 c 0,-0.29104 -0.23813,-0.52917 -0.52917,-0.52917 -0.55089,0 -0.6999,0.41723 -0.29398,0.82315 0.40591,0.405916 0.82315,0.256903 0.82315,-0.29398 z m -5.31519,-3.48836 c -0.0841,-0.0818 -0.4539,-0.20351 -0.82183,-0.27047 -0.85957,-0.15641 -1.16652,0.65336 -0.3207,0.84606 0.61936,0.1411 1.44939,-0.27705 1.14253,-0.57559 z m 5.08565,0.32466 c 0.24879,-0.64836 -0.41264,-1.09774 -0.89935,-0.61102 -0.37656,0.37655 -0.10572,1.12888 0.40641,1.12888 0.16182,0 0.38364,-0.23304 0.49294,-0.51786 z m 2.74407,-0.35526 c 0.0136,-0.59537 -0.65369,-0.59393 -0.88233,0.002 -0.15082,0.39304 -0.0491,0.53441 0.32794,0.45589 0.30061,-0.0626 0.55009,-0.26861 0.55439,-0.45779 z m -6.94311,-2.88845 c -0.50784,-0.37134 -0.70253,-0.37877 -0.91505,-0.0349 -0.16876,0.27305 0.0218,0.59416 0.50836,0.85659 0.99815,0.53837 1.33524,-0.14271 0.40669,-0.82168 z m 21.71469,15.975599 c 0,-0.07325 0.24175,-0.333833 0.53724,-0.579063 0.44921,-0.372809 0.50083,-0.350986 0.31503,0.133195 -0.18975,0.494499 -0.85227,0.841099 -0.85227,0.445868 z m 0.77611,-10.167909 c -0.63214,-0.63214 -0.51237,-0.94501 0.28222,-0.73722 0.38805,0.10148 0.70555,0.40412 0.70555,0.67253 0,0.60044 -0.42424,0.62822 -0.98777,0.0647 z m -11.2775,-1.49899 c -1.12395,-0.62103 -1.31288,-0.86739 -0.55524,-0.72404 0.35732,0.0676 0.92749,0.13508 1.26704,0.14992 0.33955,0.0149 0.61736,0.26512 0.61736,0.55616 0,0.61785 -0.23766,0.62106 -1.32916,0.018 z m 8.03194,0.20735 c 0,-0.16712 0.39688,-0.22799 0.88195,-0.13526 0.48507,0.0927 0.88194,0.22946 0.88194,0.30385 0,0.0744 -0.39687,0.13527 -0.88194,0.13527 -0.48507,0 -0.88195,-0.13674 -0.88195,-0.30386 z m -7.4017,-1.45594 c -0.27616,-0.17067 -0.62875,-0.23205 -0.78354,-0.13638 -0.15478,0.0957 -0.28142,0.006 -0.28142,-0.19967 0,-0.48723 1.30057,-0.48508 1.602,0.003 0.32809,0.53086 0.0559,0.69985 -0.53704,0.3334 z"
         id="path2529" />
      <path
         style="fill:#cf7b42;stroke-width:0.352778"
         d="m -351.98524,-78.322258 c 10e-4,-0.360069 0.47748,-0.925099 1.05834,-1.255624 1.3214,-0.751917 1.32108,-0.639268 -0.002,0.777342 -0.85788,0.918362 -1.05791,1.008952 -1.0561,0.478282 z m -0.70778,-2.183373 c 0,-0.420395 0.1447,-0.764353 0.32156,-0.764353 0.35866,0 0.30512,0.902021 -0.0762,1.283307 -0.13497,0.134969 -0.24539,-0.09856 -0.24539,-0.518954 z m 1.25408,-1.017499 c -0.11565,-0.301375 0.0688,-0.768728 0.41548,-1.052559 0.34292,-0.280779 0.43602,-0.416768 0.2069,-0.302203 -0.22913,0.114568 -0.51791,0.04438 -0.64174,-0.155981 -0.12383,-0.200356 -0.41261,-0.259034 -0.64174,-0.13039 -0.28093,0.157727 -0.27299,0.07918 0.0244,-0.241191 0.6201,-0.668076 0.56112,-1.5139 -0.0882,-1.264733 -0.62443,0.239618 -0.65765,0.06612 -0.16397,-0.856322 0.20085,-0.375299 0.58984,-0.682364 0.86441,-0.682364 0.27457,0 0.66104,-0.277812 0.85881,-0.617361 0.19956,-0.342621 0.36435,-0.421118 0.3703,-0.176389 0.0154,0.633547 1.05144,0.544594 1.30337,-0.111908 0.26015,-0.677947 -0.39293,-1.457784 -0.74447,-0.888968 -0.13037,0.210933 -0.41408,0.383515 -0.63048,0.383515 -0.2164,0 -0.0483,-0.367418 0.3736,-0.816486 0.42187,-0.449069 0.76705,-0.925319 0.76705,-1.058334 0,-0.393202 1.37721,-1.652958 1.80708,-1.652958 0.90025,0 -0.55233,-1.072409 -1.93637,-1.429586 -1.9783,-0.510533 -6.26108,-2.175418 -6.07494,-2.361561 0.40177,-0.401768 5.8123,1.131291 7.08617,2.007845 0.77611,0.534046 2.4026,1.301867 3.61443,1.70627 2.60395,0.868976 2.43961,0.967705 4.86392,-2.921942 0.90686,-1.455007 1.80053,-2.64547 1.98593,-2.64547 0.18539,0 0.25536,-0.132232 0.15547,-0.293846 -0.15277,-0.247188 1.3786,-2.881154 1.67508,-2.881154 0.0783,0 0.0252,1.639492 -0.10474,3.235163 -0.0106,0.130104 -0.49551,0.341157 -1.07759,0.469004 -1.15343,0.253336 -1.46816,1.234722 -0.39597,1.234722 0.36429,0 0.85998,0.238125 1.10152,0.529167 0.24155,0.291041 0.82598,0.529166 1.29874,0.529166 0.51719,0 0.76725,0.149373 0.62781,0.375007 -0.12748,0.206255 0.0527,0.689338 0.40037,1.073516 0.56797,0.627603 0.57148,0.675231 0.0346,0.469195 -0.78722,-0.302084 -0.77169,0.407483 0.0198,0.90382 0.53287,0.334165 0.50872,0.357452 -0.17639,0.170145 -0.9667,-0.264291 -1.05497,0.368279 -0.18547,1.329069 0.57978,0.640651 0.56781,0.702666 -0.2555,1.323693 -0.86362,0.651428 -0.86365,0.651697 -0.16731,1.430993 l 0.69648,0.779442 -0.84712,-0.263984 c -0.69152,-0.215498 -0.80695,-0.159311 -0.62843,0.305894 0.12027,0.313432 0.0834,0.569877 -0.0819,0.569877 -0.16531,0 -0.39786,0.357187 -0.51678,0.79375 -0.15995,0.58717 0.0213,0.987446 0.69632,1.538009 l 0.91255,0.744258 -0.78329,0.204834 c -0.52882,0.138292 -0.7147,0.383586 -0.57216,0.755046 0.11613,0.30262 0.13532,0.550214 0.0426,0.550214 -0.0927,0 -1.47676,-0.849344 -3.07574,-1.887428 -2.97858,-1.933738 -4.29604,-2.698683 -4.64795,-2.698683 -0.10977,0 -0.19958,0.448578 -0.19958,0.99684 0,1.027455 -0.8927,2.083658 -2.43474,2.880671 -0.734,0.379374 -0.81857,0.363199 -0.63277,-0.121006 0.11796,-0.3074 0.0806,-0.641622 -0.0829,-0.742711 -0.41842,-0.258596 -1.1918,0.75794 -0.91606,1.204087 0.28918,0.467904 -0.26448,0.482255 -0.72787,0.01887 -0.22009,-0.220087 -0.75893,-0.231906 -1.45618,-0.03193 -0.87404,0.250669 -1.15056,0.203429 -1.31482,-0.224625 z m 2.89836,-1.687132 c -0.0813,-0.982182 -0.28188,-1.08362 -0.90689,-0.458611 -0.64709,0.647093 -0.50364,1.139494 0.17189,0.59 0.52123,-0.42399 0.56646,-0.407434 0.36385,0.133195 -0.12726,0.339548 -0.0794,0.617361 0.10638,0.617361 0.18577,0 0.30491,-0.396875 0.26477,-0.881945 z m 11.71375,-0.326309 c -0.46756,-0.467554 -0.75839,-0.06841 -0.47957,0.658174 0.18371,0.478734 0.29569,0.509073 0.52278,0.141637 0.15895,-0.257182 0.1395,-0.617096 -0.0432,-0.799811 z m -13.1063,-1.37862 c 0.0675,-0.348107 -0.11245,-0.588126 -0.44097,-0.588126 -0.32725,0 -0.55503,0.301625 -0.55503,0.734952 0,0.859737 0.82436,0.738212 0.996,-0.146826 z m 3.41372,-0.588126 c 0.11991,-0.194028 0.0499,-0.352778 -0.15557,-0.352778 -0.20548,0 -0.3736,0.15875 -0.3736,0.352778 0,0.194028 0.07,0.352778 0.15557,0.352778 0.0856,0 0.25368,-0.15875 0.3736,-0.352778 z m 10.05416,-1.037513 c 0,-0.182576 -0.15875,-0.430071 -0.35277,-0.549987 -0.19403,-0.119916 -0.35278,0.02946 -0.35278,0.331957 0,0.302492 0.15875,0.549987 0.35278,0.549987 0.19402,0 0.35277,-0.14938 0.35277,-0.331957 z m -11.24354,-1.520126 c 0.38351,-0.719744 0.36822,-0.748609 -0.16398,-0.309584 -0.32281,0.266295 -0.58692,0.623482 -0.58692,0.79375 0,0.538865 0.31349,0.336734 0.7509,-0.484166 z m 13.00743,-1.285173 c 0,-0.17327 -0.23812,-0.406411 -0.52916,-0.518097 -0.53773,-0.206346 -0.72249,0.16944 -0.29398,0.597945 0.33714,0.337149 0.82314,0.290004 0.82314,-0.07985 z m -11.70781,-1.074028 c 0.0882,-0.264584 -0.0441,-0.396875 -0.30868,-0.308681 -0.25466,0.08488 -0.53247,0.362698 -0.61736,0.617361 -0.0882,0.264583 0.0441,0.396875 0.30868,0.308681 0.25466,-0.08489 0.53247,-0.362702 0.61736,-0.617361 z m -32.76007,6.429357 c -5.358,-2.670006 -10.86713,-11.331078 -11.49336,-18.06908 l -0.23163,-2.49226 3.00765,-1.38954 c 1.83143,-0.84613 3.33432,-1.3264 3.84297,-1.22807 0.67774,0.13101 0.7105,0.10639 0.17367,-0.1305 -0.5424,-0.23936 -0.2563,-0.47251 1.5875,-1.29373 6.50645,-2.89794 16.14267,-7.91062 25.25891,-13.13948 4.84568,-2.77936 5.5983,-2.82573 6.41893,-0.3955 0.30658,0.90791 0.67001,1.76134 0.80763,1.89651 0.13762,0.13518 1.56351,-0.58802 3.16865,-1.6071 1.60513,-1.01907 3.48917,-1.92941 4.18673,-2.02297 3.545,-0.47549 8.09301,4.68361 8.09301,9.18042 0,0.84192 -0.11373,0.98649 -0.61736,0.78477 -0.94133,-0.37703 -7.09375,-2.15453 -9.08403,-2.62447 -2.10108,-0.4961 -3.11528,-1.2814 -2.30327,-1.78343 0.28542,-0.17646 0.39258,-0.44721 0.23813,-0.60166 -0.15446,-0.15446 -0.43289,-0.009 -0.61874,0.32298 -0.21448,0.38326 -0.98966,0.69027 -2.1222,0.84051 -1.64135,0.21773 -2.0072,0.46019 -4.56662,3.0265 -1.6628,1.66728 -3.01918,2.74737 -3.37099,2.68434 -0.32376,-0.058 -0.65809,0.0931 -0.74294,0.33573 -0.10443,0.29869 0.0518,0.36215 0.48358,0.19645 0.53949,-0.20702 0.51387,-0.0872 -0.16617,0.77737 -0.77382,0.98376 -0.79492,1.18943 -0.56183,5.4773 l 0.24219,4.45516 -1.89862,1.192187 c -1.04425,0.655705 -3.00988,1.855682 -4.36807,2.666616 l -2.46945,1.474427 v 2.903919 2.903922 l -4.85475,3.307803 c -2.67011,1.819293 -5.13925,3.307803 -5.48698,3.307803 -0.34773,0 -1.49637,-0.430618 -2.55254,-0.956927 z m 0.6396,-15.914543 c -0.33108,-0.408957 -0.33475,-0.483697 -0.0143,-0.291307 0.23705,0.14232 0.82459,7e-4 1.30564,-0.31432 0.48105,-0.31519 1.16386,-0.48128 1.51736,-0.36909 0.93638,0.2972 2.93814,-0.36774 3.49334,-1.16039 0.29065,-0.41496 0.73894,-0.61641 1.13893,-0.51181 0.4557,0.11916 0.71895,-0.0544 0.85156,-0.56151 0.11139,-0.42596 0.5019,-0.7525 0.93052,-0.77809 1.4718,-0.0879 1.61899,-0.15741 1.52536,-0.72062 -0.10272,-0.61785 1.51,-1.35195 2.97004,-1.35195 0.45611,0 0.8293,-0.15875 0.8293,-0.35278 0,-0.19402 0.17753,-0.35277 0.39451,-0.35277 0.52433,0 2.42269,-2.19217 2.20433,-2.54549 -0.30003,-0.48546 -1.81009,-0.29683 -2.02086,0.25243 -0.11168,0.29104 -0.41089,0.52917 -0.6649,0.52917 -0.25401,0 -0.73369,0.3175 -1.06595,0.70555 -0.33226,0.38806 -0.90373,0.70556 -1.26993,0.70556 -0.36619,0 -0.85051,0.22255 -1.07625,0.49455 -0.22575,0.27201 -0.8405,0.59958 -1.36612,0.72794 -2.7191,0.66405 -4.70755,1.34507 -5.11397,1.75149 -0.84353,0.84352 -3.94484,2.06541 -5.48614,2.16148 -0.8418,0.0525 -1.93957,0.19806 -2.43949,0.32353 l -0.90894,0.22813 1.10334,0.67099 c 0.60684,0.36904 1.43743,1.005056 1.84574,1.413371 0.59376,0.593764 0.84448,0.65767 1.25231,0.319204 0.41447,-0.343979 0.42656,-0.526147 0.0646,-0.973268 z m 11.72551,-6.411867 c 0.69087,-0.44647 1.15788,-0.44647 0.88194,0 -0.11992,0.19403 -0.48647,0.35035 -0.81457,0.34738 -0.51409,-0.005 -0.5234,-0.0527 -0.0674,-0.34738 z m 5.29166,21.851405 c 0,-0.205479 0.15875,-0.275484 0.35278,-0.155568 0.19403,0.119916 0.35278,0.288036 0.35278,0.373599 0,0.08556 -0.15875,0.155568 -0.35278,0.155568 -0.19403,0 -0.35278,-0.16812 -0.35278,-0.373599 z m 12.60439,-9.536588 c -0.85948,-0.500366 -0.41046,-1.132788 0.4698,-0.661688 0.37628,0.20138 0.68415,0.519306 0.68415,0.706508 0,0.431246 -0.36025,0.417251 -1.15395,-0.04482 z m 13.67756,-1.378702 c -0.11992,-0.194028 -0.0499,-0.352778 0.15557,-0.352778 0.20547,0 0.37359,0.15875 0.37359,0.352778 0,0.194028 -0.07,0.352778 -0.15556,0.352778 -0.0856,0 -0.25369,-0.15875 -0.3736,-0.352778 z m -16.93334,-0.705555 c -0.11991,-0.194028 0.0388,-0.352778 0.35278,-0.352778 0.31395,0 0.4727,0.15875 0.35278,0.352778 -0.11992,0.194027 -0.27867,0.352777 -0.35278,0.352777 -0.0741,0 -0.23286,-0.15875 -0.35278,-0.352777 z m 2.35644,-0.100027 c -0.22377,-0.269618 -0.25212,-0.652921 -0.0701,-0.947455 0.25299,-0.409346 0.40161,-0.415065 0.86177,-0.03316 0.30583,0.253816 0.55605,0.680169 0.55605,0.947451 0,0.612119 -0.84989,0.633035 -1.34773,0.03316 z m -4.64949,-0.252751 c -0.42791,-0.276532 -0.37728,-0.343006 0.26458,-0.347377 0.43656,-0.0028 0.79375,0.153349 0.79375,0.347377 0,0.442002 -0.37438,0.442002 -1.05833,0 z m 8.29028,-0.705556 c 0.11991,-0.194028 0.28803,-0.352778 0.37359,-0.352778 0.0856,0 0.15557,0.15875 0.15557,0.352778 0,0.194028 -0.16812,0.352778 -0.3736,0.352778 -0.20547,0 -0.27548,-0.15875 -0.15556,-0.352778 z m 10.40694,-0.667812 c 0,-0.396536 0.91762,-0.766423 1.20023,-0.483806 0.42466,0.42466 0.19296,0.79884 -0.49467,0.79884 -0.38806,0 -0.70556,-0.141767 -0.70556,-0.315034 z m -10.05417,-0.605888 c -0.691,-0.534455 -0.68793,-0.543317 0.14876,-0.429754 0.46987,0.06378 0.91966,0.314392 0.99954,0.556926 0.19497,0.592022 -0.28752,0.538586 -1.1483,-0.127172 z m -2.93099,-0.869425 c 0.0695,-0.20858 0.27722,-0.379236 0.46155,-0.379236 0.18433,0 0.39202,0.170656 0.46155,0.379236 0.0695,0.20858 -0.13817,0.379236 -0.46155,0.379236 -0.32338,0 -0.53108,-0.170656 -0.46155,-0.379236 z m -0.072,-1.565711 c -0.68755,-0.73187 -0.75082,-0.96277 -0.36251,-1.32292 0.28425,-0.26364 0.38166,-0.27761 0.24615,-0.0353 -0.29798,0.53282 0.61137,1.25772 1.40471,1.11978 0.3756,-0.0653 0.68206,0.14006 0.75759,0.50769 0.19272,0.937923 -1.06769,0.772047 -2.04594,-0.26925 z m -5.64005,-0.72171 c 0,-0.30249 0.15875,-0.45187 0.35278,-0.33195 0.19402,0.11991 0.35277,0.36741 0.35277,0.54998 0,0.18258 -0.15875,0.33196 -0.35277,0.33196 -0.19403,0 -0.35278,-0.24749 -0.35278,-0.54999 z m 3.10444,-0.5789 c 0.32926,-0.32926 0.51741,-0.32926 0.84667,0 0.32926,0.32926 0.23519,0.42334 -0.42333,0.42334 -0.65852,0 -0.7526,-0.0941 -0.42334,-0.42334 z"
         id="path2527" />
      <path
         style="fill:#cc7237;stroke-width:0.352778"
         d="m -351.98524,-78.322258 c 10e-4,-0.360069 0.47748,-0.925099 1.05834,-1.255624 1.3214,-0.751917 1.32108,-0.639268 -0.002,0.777342 -0.85788,0.918362 -1.05791,1.008952 -1.0561,0.478282 z m -0.70778,-2.183373 c 0,-0.420395 0.1447,-0.764353 0.32156,-0.764353 0.35866,0 0.30512,0.902021 -0.0762,1.283307 -0.13497,0.134969 -0.24539,-0.09856 -0.24539,-0.518954 z m 1.25408,-1.017499 c -0.11565,-0.301375 0.0688,-0.768728 0.41548,-1.052559 0.34292,-0.280779 0.43602,-0.416768 0.2069,-0.302203 -0.22913,0.114568 -0.51791,0.04438 -0.64174,-0.155981 -0.12383,-0.200356 -0.41261,-0.259034 -0.64174,-0.13039 -0.28093,0.157727 -0.27299,0.07918 0.0244,-0.241191 0.6201,-0.668076 0.56112,-1.5139 -0.0882,-1.264733 -0.62443,0.239618 -0.65765,0.06612 -0.16397,-0.856322 0.20085,-0.375299 0.58984,-0.682364 0.86441,-0.682364 0.27457,0 0.66104,-0.277812 0.85881,-0.617361 0.19956,-0.342621 0.36435,-0.421118 0.3703,-0.176389 0.0154,0.633547 1.05144,0.544594 1.30337,-0.111908 0.26015,-0.677947 -0.39293,-1.457784 -0.74447,-0.888968 -0.13037,0.210933 -0.41408,0.383515 -0.63048,0.383515 -0.2164,0 -0.0483,-0.367418 0.3736,-0.816486 0.42187,-0.449069 0.76705,-0.925319 0.76705,-1.058334 0,-0.393202 1.37721,-1.652958 1.80708,-1.652958 0.90025,0 -0.55233,-1.072409 -1.93637,-1.429586 -1.9783,-0.510533 -6.26108,-2.175418 -6.07494,-2.361561 0.40177,-0.401768 5.8123,1.131291 7.08617,2.007845 0.77611,0.534046 2.4026,1.301867 3.61443,1.70627 2.60395,0.868976 2.43961,0.967705 4.86392,-2.921942 0.90686,-1.455007 1.80053,-2.64547 1.98593,-2.64547 0.18539,0 0.25536,-0.132232 0.15547,-0.293846 -0.15277,-0.247188 1.3786,-2.881154 1.67508,-2.881154 0.0783,0 0.0252,1.639492 -0.10474,3.235163 -0.0106,0.130104 -0.49551,0.341157 -1.07759,0.469004 -1.15343,0.253336 -1.46816,1.234722 -0.39597,1.234722 0.36429,0 0.85998,0.238125 1.10152,0.529167 0.24155,0.291041 0.82598,0.529166 1.29874,0.529166 0.51719,0 0.76725,0.149373 0.62781,0.375007 -0.12748,0.206255 0.0527,0.689338 0.40037,1.073516 0.56797,0.627603 0.57148,0.675231 0.0346,0.469195 -0.78722,-0.302084 -0.77169,0.407483 0.0198,0.90382 0.53287,0.334165 0.50872,0.357452 -0.17639,0.170145 -0.9667,-0.264291 -1.05497,0.368279 -0.18547,1.329069 0.57978,0.640651 0.56781,0.702666 -0.2555,1.323693 -0.86362,0.651428 -0.86365,0.651697 -0.16731,1.430993 l 0.69648,0.779442 -0.84712,-0.263984 c -0.69152,-0.215498 -0.80695,-0.159311 -0.62843,0.305894 0.12027,0.313432 0.0834,0.569877 -0.0819,0.569877 -0.16531,0 -0.39786,0.357187 -0.51678,0.79375 -0.15995,0.58717 0.0213,0.987446 0.69632,1.538009 l 0.91255,0.744258 -0.78329,0.204834 c -0.52882,0.138292 -0.7147,0.383586 -0.57216,0.755046 0.11613,0.30262 0.13532,0.550214 0.0426,0.550214 -0.0927,0 -1.47676,-0.849344 -3.07574,-1.887428 -2.97858,-1.933738 -4.29604,-2.698683 -4.64795,-2.698683 -0.10977,0 -0.19958,0.448578 -0.19958,0.99684 0,1.027455 -0.8927,2.083658 -2.43474,2.880671 -0.734,0.379374 -0.81857,0.363199 -0.63277,-0.121006 0.11796,-0.3074 0.0806,-0.641622 -0.0829,-0.742711 -0.41842,-0.258596 -1.1918,0.75794 -0.91606,1.204087 0.28918,0.467904 -0.26448,0.482255 -0.72787,0.01887 -0.22009,-0.220087 -0.75893,-0.231906 -1.45618,-0.03193 -0.87404,0.250669 -1.15056,0.203429 -1.31482,-0.224625 z m 2.89836,-1.687132 c -0.0813,-0.982182 -0.28188,-1.08362 -0.90689,-0.458611 -0.64709,0.647093 -0.50364,1.139494 0.17189,0.59 0.52123,-0.42399 0.56646,-0.407434 0.36385,0.133195 -0.12726,0.339548 -0.0794,0.617361 0.10638,0.617361 0.18577,0 0.30491,-0.396875 0.26477,-0.881945 z m 11.71375,-0.326309 c -0.46756,-0.467554 -0.75839,-0.06841 -0.47957,0.658174 0.18371,0.478734 0.29569,0.509073 0.52278,0.141637 0.15895,-0.257182 0.1395,-0.617096 -0.0432,-0.799811 z m -13.1063,-1.37862 c 0.0675,-0.348107 -0.11245,-0.588126 -0.44097,-0.588126 -0.32725,0 -0.55503,0.301625 -0.55503,0.734952 0,0.859737 0.82436,0.738212 0.996,-0.146826 z m 3.41372,-0.588126 c 0.11991,-0.194028 0.0499,-0.352778 -0.15557,-0.352778 -0.20548,0 -0.3736,0.15875 -0.3736,0.352778 0,0.194028 0.07,0.352778 0.15557,0.352778 0.0856,0 0.25368,-0.15875 0.3736,-0.352778 z m 10.05416,-1.037513 c 0,-0.182576 -0.15875,-0.430071 -0.35277,-0.549987 -0.19403,-0.119916 -0.35278,0.02946 -0.35278,0.331957 0,0.302492 0.15875,0.549987 0.35278,0.549987 0.19402,0 0.35277,-0.14938 0.35277,-0.331957 z m -11.24354,-1.520126 c 0.38351,-0.719744 0.36822,-0.748609 -0.16398,-0.309584 -0.32281,0.266295 -0.58692,0.623482 -0.58692,0.79375 0,0.538865 0.31349,0.336734 0.7509,-0.484166 z m 13.00743,-1.285173 c 0,-0.17327 -0.23812,-0.406411 -0.52916,-0.518097 -0.53773,-0.206346 -0.72249,0.16944 -0.29398,0.597945 0.33714,0.337149 0.82314,0.290004 0.82314,-0.07985 z m -11.70781,-1.074028 c 0.0882,-0.264584 -0.0441,-0.396875 -0.30868,-0.308681 -0.25466,0.08488 -0.53247,0.362698 -0.61736,0.617361 -0.0882,0.264583 0.0441,0.396875 0.30868,0.308681 0.25466,-0.08489 0.53247,-0.362702 0.61736,-0.617361 z m -32.58473,6.513794 c -5.20708,-2.603567 -10.42141,-10.29221 -11.53415,-17.007337 -0.36966,-2.23084 -0.17001,-3.20557 0.45436,-2.21829 0.2663,0.42108 0.32934,0.38588 0.33423,-0.1866 0.005,-0.56017 0.89645,-1.10387 4.32693,-2.63842 2.37649,-1.06308 4.68409,-2.29219 5.128,-2.73135 0.44391,-0.43917 1.2532,-0.87708 1.79842,-0.97313 1.44945,-0.25536 3.56809,-1.19843 3.56809,-1.58827 0,-0.18533 -0.27781,-0.24583 -0.61736,-0.13444 -0.33955,0.11139 -0.14111,-0.13067 0.44097,-0.53792 0.62131,-0.43469 1.61184,-0.7414 2.39877,-0.74276 1.89136,-0.003 4.97264,-1.59674 4.1139,-2.12747 -0.44657,-0.276 4.80617,-3.29917 5.65816,-3.25651 0.96178,0.0482 2.83247,-0.66637 2.62471,-1.00253 -0.11221,-0.18156 -0.3518,-0.23877 -0.53242,-0.12714 -0.18062,0.11163 -0.3284,0.1299 -0.3284,0.0406 0,-0.41332 2.61442,-1.64129 3.62822,-1.70414 0.62385,-0.0387 1.45178,-0.29701 1.83984,-0.57408 0.69007,-0.4927 0.68813,-0.49972 -0.0882,-0.32015 -0.43656,0.10098 -0.79375,0.0652 -0.79375,-0.0795 0,-0.4304 1.71292,-1.07986 2.92702,-1.10978 0.62146,-0.0153 0.93149,-0.10792 0.68895,-0.20579 -0.8749,-0.35303 -0.41619,-0.86695 0.67735,-0.75885 0.99531,0.0984 1.18217,0.30217 1.69889,1.85277 0.31932,0.95822 0.75338,1.79982 0.96456,1.87022 0.21118,0.0704 1.60274,-0.69077 3.09235,-1.69146 1.61621,-1.08574 3.24124,-1.89092 4.02978,-1.99668 1.60117,-0.21477 3.58348,0.71075 5.19619,2.42603 1.15347,1.22683 2.45065,3.4705 2.00647,3.4705 -0.1408,0 -0.0655,0.1905 0.16733,0.42333 0.64206,0.64206 0.51003,0.9062 -0.37042,0.74104 -0.61833,-0.11598 -0.8994,0.0935 -1.27182,0.9479 -0.53347,1.22385 -1.22505,1.24526 -1.40137,0.0434 -0.0636,-0.43322 -0.33135,-0.87049 -0.59509,-0.9717 -0.28004,-0.10746 -0.38693,-0.4287 -0.25696,-0.77218 0.19787,-0.52289 0.15319,-0.51939 -0.40256,0.0315 -0.90941,0.90147 -2.0374,1.43942 -2.29067,1.09245 -0.42596,-0.58355 -1.80722,-1.20443 -1.80722,-0.81235 0,0.20713 -0.16909,0.27209 -0.37576,0.14436 -0.24908,-0.15394 -0.18912,-0.43847 0.17785,-0.84397 0.63905,-0.70614 1.60902,-0.81411 1.60902,-0.17911 0,0.23795 0.25111,0.52899 0.55802,0.64676 0.78051,0.29951 0.85309,0.27691 0.85309,-0.26562 0,-0.26386 0.37133,-0.75861 0.82517,-1.09943 0.59219,-0.44472 0.77823,-0.86521 0.65892,-1.48933 -0.21458,-1.12254 -1.59584,-1.80402 -2.36411,-1.16642 -0.30148,0.25021 -0.65141,0.35164 -0.77764,0.22542 -0.12623,-0.12623 -0.51822,0.20834 -0.8711,0.74348 -0.35287,0.53514 -0.64264,0.77454 -0.64391,0.53201 -0.004,-0.80619 -1.39062,-0.4562 -3.12304,0.78842 -0.94118,0.67617 -1.80555,1.13508 -1.92084,1.0198 -0.25654,-0.25654 -2.36678,0.64175 -2.36678,1.00749 0,0.31993 -2.7509,2.08694 -3.39647,2.18169 -0.25502,0.0374 -0.56475,0.16914 -0.6883,0.29269 -0.12355,0.12354 -0.52556,0.0367 -0.89337,-0.19301 -0.79207,-0.49465 -1.83103,0.002 -2.02062,0.96665 -0.11309,0.57521 -0.0694,0.57535 0.80476,0.003 0.5084,-0.33311 1.03846,-0.49054 1.17793,-0.34986 0.3613,0.36448 -1.60714,1.85234 -2.75416,2.08174 -0.96362,0.19273 -1.93048,0.931 -2.17332,1.65951 -0.0708,0.21247 -1.07718,0.59443 -2.23636,0.84882 -2.88197,0.63245 -5.81176,1.64374 -5.81176,2.00606 0,0.16456 -0.41155,0.29919 -0.91456,0.29919 -1.05358,0 -13.50439,6.13481 -14.16669,6.98026 -0.70941,0.905605 -0.50683,1.199493 0.28263,0.410029 0.73304,-0.733039 1.43855,-0.716659 2.98057,0.06918 0.99,0.504521 3.52404,3.672328 3.546,4.43285 0.01,0.347211 0.54199,1.186921 1.18216,1.866018 1.06965,1.13471 1.14382,1.163285 0.91569,0.352778 -0.13654,-0.48507 -0.53217,-1.377686 -0.8792,-1.983592 l -0.63095,-1.101644 1.10815,-0.977293 c 0.75541,-0.666207 1.61347,-1.026231 2.69565,-1.131037 2.49415,-0.241547 2.79531,-0.440281 1.4993,-0.989383 -0.63059,-0.267173 -1.14653,-0.653736 -1.14653,-0.859036 0,-0.7491 1.45994,-1.60107 2.74359,-1.60107 0.78779,0 1.32778,-0.17567 1.35549,-0.44098 0.0253,-0.24253 0.0659,-0.54802 0.0902,-0.67885 0.0242,-0.13084 0.46657,0.14698 0.98293,0.61736 0.51635,0.47038 0.82848,0.66326 0.6936,0.42862 -0.30431,-0.52942 0.49131,-1.86643 1.11067,-1.86643 0.76395,0 2.205,-1.11079 1.9585,-1.50965 -0.14359,-0.23233 -0.013,-0.2904 0.34451,-0.15321 0.31665,0.12151 0.66956,0.0691 0.78424,-0.11644 0.11468,-0.18555 0.6357,-0.3499 1.15783,-0.36522 0.52212,-0.0153 0.74989,-0.10825 0.50615,-0.20652 -0.62479,-0.25189 -0.18018,-0.82396 0.64038,-0.82396 0.6205,0 0.91169,-0.762 0.71777,-1.87831 -0.0278,-0.15994 0.10015,-0.19768 0.2843,-0.0839 0.18415,0.11381 0.38652,-0.029 0.44971,-0.31727 0.0641,-0.2924 0.28914,-0.41131 0.50895,-0.2689 0.22936,0.1486 0.49912,2.04149 0.64547,4.52926 l 0.25142,4.27398 -1.88019,1.180849 c -1.03411,0.649467 -2.99145,1.844343 -4.34964,2.655277 l -2.46945,1.474427 v 2.903919 2.903922 l -4.85475,3.307803 c -2.67011,1.819293 -5.13925,3.307803 -5.48698,3.307803 -0.34773,0 -1.41747,-0.39262 -2.3772,-0.87249 z m 0.5481,-6.624037 c 0,-0.251926 -0.44085,-0.440973 -1.02833,-0.440973 -0.78267,0 -0.94091,0.105347 -0.66236,0.440973 0.20128,0.242534 0.66403,0.440972 1.02833,0.440972 0.3643,0 0.66236,-0.198438 0.66236,-0.440972 z m 3.52778,-1.167349 c 0,-0.302493 -0.15875,-0.451873 -0.35278,-0.331957 -0.19403,0.119916 -0.35278,0.367411 -0.35278,0.549988 0,0.182576 0.15875,0.331956 0.35278,0.331956 0.19403,0 0.35278,-0.247494 0.35278,-0.549987 z m -4.23334,-2.788991 c 0,-0.09019 -0.35718,-0.337068 -0.79375,-0.548626 -0.76222,-0.369372 -0.76654,-0.36286 -0.10896,0.163975 0.71976,0.576647 0.90271,0.654604 0.90271,0.384651 z m 17.63889,10.020935 c 0,-0.205479 0.15875,-0.275484 0.35278,-0.155568 0.19403,0.119916 0.35278,0.288036 0.35278,0.373599 0,0.08556 -0.15875,0.155568 -0.35278,0.155568 -0.19403,0 -0.35278,-0.16812 -0.35278,-0.373599 z m 12.60439,-9.536588 c -0.85948,-0.500366 -0.41046,-1.132788 0.4698,-0.661688 0.37628,0.20138 0.68415,0.519306 0.68415,0.706508 0,0.431246 -0.36025,0.417251 -1.15395,-0.04482 z m 13.67756,-1.378702 c -0.11992,-0.194028 -0.0499,-0.352778 0.15557,-0.352778 0.20547,0 0.37359,0.15875 0.37359,0.352778 0,0.194028 -0.07,0.352778 -0.15556,0.352778 -0.0856,0 -0.25369,-0.15875 -0.3736,-0.352778 z m -16.93334,-0.705555 c -0.11991,-0.194028 0.0388,-0.352778 0.35278,-0.352778 0.31395,0 0.4727,0.15875 0.35278,0.352778 -0.11992,0.194027 -0.27867,0.352777 -0.35278,0.352777 -0.0741,0 -0.23286,-0.15875 -0.35278,-0.352777 z m 2.35644,-0.100027 c -0.22377,-0.269618 -0.25212,-0.652921 -0.0701,-0.947455 0.25299,-0.409346 0.40161,-0.415065 0.86177,-0.03316 0.30583,0.253816 0.55605,0.680169 0.55605,0.947451 0,0.612119 -0.84989,0.633035 -1.34773,0.03316 z m -4.64949,-0.252751 c -0.42791,-0.276532 -0.37728,-0.343006 0.26458,-0.347377 0.43656,-0.0028 0.79375,0.153349 0.79375,0.347377 0,0.442002 -0.37438,0.442002 -1.05833,0 z m 8.29028,-0.705556 c 0.11991,-0.194028 0.28803,-0.352778 0.37359,-0.352778 0.0856,0 0.15557,0.15875 0.15557,0.352778 0,0.194028 -0.16812,0.352778 -0.3736,0.352778 -0.20547,0 -0.27548,-0.15875 -0.15556,-0.352778 z m 10.40694,-0.667812 c 0,-0.396536 0.91762,-0.766423 1.20023,-0.483806 0.42466,0.42466 0.19296,0.79884 -0.49467,0.79884 -0.38806,0 -0.70556,-0.141767 -0.70556,-0.315034 z m -10.05417,-0.605888 c -0.691,-0.534455 -0.68793,-0.543317 0.14876,-0.429754 0.46987,0.06378 0.91966,0.314392 0.99954,0.556926 0.19497,0.592022 -0.28752,0.538586 -1.1483,-0.127172 z m -2.93099,-0.869425 c 0.0695,-0.20858 0.27722,-0.379236 0.46155,-0.379236 0.18433,0 0.39202,0.170656 0.46155,0.379236 0.0695,0.20858 -0.13817,0.379236 -0.46155,0.379236 -0.32338,0 -0.53108,-0.170656 -0.46155,-0.379236 z m -0.072,-1.565711 c -0.68755,-0.73187 -0.75082,-0.96277 -0.36251,-1.32292 0.28425,-0.26364 0.38166,-0.27761 0.24615,-0.0353 -0.29798,0.53282 0.61137,1.25772 1.40471,1.11978 0.3756,-0.0653 0.68206,0.14006 0.75759,0.50769 0.19272,0.937923 -1.06769,0.772047 -2.04594,-0.26925 z m -5.64005,-0.72171 c 0,-0.30249 0.15875,-0.45187 0.35278,-0.33195 0.19402,0.11991 0.35277,0.36741 0.35277,0.54998 0,0.18258 -0.15875,0.33196 -0.35277,0.33196 -0.19403,0 -0.35278,-0.24749 -0.35278,-0.54999 z m 3.10444,-0.5789 c 0.32926,-0.32926 0.51741,-0.32926 0.84667,0 0.32926,0.32926 0.23519,0.42334 -0.42333,0.42334 -0.65852,0 -0.7526,-0.0941 -0.42334,-0.42334 z m 16.47472,-12.27666 c 0.11992,-0.19403 0.28804,-0.35278 0.3736,-0.35278 0.0856,0 0.15557,0.15875 0.15557,0.35278 0,0.19402 -0.16812,0.35277 -0.3736,0.35277 -0.20548,0 -0.27548,-0.15875 -0.15557,-0.35277 z"
         id="path2525" />
      <path
         style="fill:#a57747;stroke-width:0.352778"
         d="m -351.98524,-78.322258 c 10e-4,-0.360069 0.47748,-0.925099 1.05834,-1.255624 1.3214,-0.751917 1.32108,-0.639268 -0.002,0.777342 -0.85788,0.918362 -1.05791,1.008952 -1.0561,0.478282 z m -0.70778,-2.183373 c 0,-0.420395 0.1447,-0.764353 0.32156,-0.764353 0.35866,0 0.30512,0.902021 -0.0762,1.283307 -0.13497,0.134969 -0.24539,-0.09856 -0.24539,-0.518954 z m 1.25408,-1.017499 c -0.11565,-0.301375 0.0688,-0.768728 0.41548,-1.052559 0.34292,-0.280779 0.43602,-0.416768 0.2069,-0.302203 -0.22913,0.114568 -0.51791,0.04438 -0.64174,-0.155981 -0.12383,-0.200356 -0.41261,-0.259034 -0.64174,-0.13039 -0.28093,0.157727 -0.27299,0.07918 0.0244,-0.241191 0.6201,-0.668076 0.56112,-1.5139 -0.0882,-1.264733 -0.62443,0.239618 -0.65765,0.06612 -0.16397,-0.856322 0.20085,-0.375299 0.58984,-0.682364 0.86441,-0.682364 0.27457,0 0.66104,-0.277812 0.85881,-0.617361 0.19956,-0.342621 0.36435,-0.421118 0.3703,-0.176389 0.0154,0.633547 1.05144,0.544594 1.30337,-0.111908 0.26015,-0.677947 -0.39293,-1.457784 -0.74447,-0.888968 -0.13037,0.210933 -0.41408,0.383515 -0.63048,0.383515 -0.2164,0 -0.0483,-0.367418 0.3736,-0.816486 0.42187,-0.449069 0.76705,-0.925319 0.76705,-1.058334 0,-0.393202 1.37721,-1.652958 1.80708,-1.652958 0.90025,0 -0.55233,-1.072409 -1.93637,-1.429586 -1.9783,-0.510533 -6.26108,-2.175418 -6.07494,-2.361561 0.40177,-0.401768 5.8123,1.131291 7.08617,2.007845 0.77611,0.534046 2.4026,1.301867 3.61443,1.70627 2.60395,0.868976 2.43961,0.967705 4.86392,-2.921942 0.90686,-1.455007 1.80053,-2.64547 1.98593,-2.64547 0.18539,0 0.25536,-0.132232 0.15547,-0.293846 -0.15277,-0.247188 1.3786,-2.881154 1.67508,-2.881154 0.0783,0 0.0252,1.639492 -0.10474,3.235163 -0.0106,0.130104 -0.49551,0.341157 -1.07759,0.469004 -1.15343,0.253336 -1.46816,1.234722 -0.39597,1.234722 0.36429,0 0.85998,0.238125 1.10152,0.529167 0.24155,0.291041 0.82598,0.529166 1.29874,0.529166 0.51719,0 0.76725,0.149373 0.62781,0.375007 -0.12748,0.206255 0.0527,0.689338 0.40037,1.073516 0.56797,0.627603 0.57148,0.675231 0.0346,0.469195 -0.78722,-0.302084 -0.77169,0.407483 0.0198,0.90382 0.53287,0.334165 0.50872,0.357452 -0.17639,0.170145 -0.9667,-0.264291 -1.05497,0.368279 -0.18547,1.329069 0.57978,0.640651 0.56781,0.702666 -0.2555,1.323693 -0.86362,0.651428 -0.86365,0.651697 -0.16731,1.430993 l 0.69648,0.779442 -0.84712,-0.263984 c -0.69152,-0.215498 -0.80695,-0.159311 -0.62843,0.305894 0.12027,0.313432 0.0834,0.569877 -0.0819,0.569877 -0.16531,0 -0.39786,0.357187 -0.51678,0.79375 -0.15995,0.58717 0.0213,0.987446 0.69632,1.538009 l 0.91255,0.744258 -0.78329,0.204834 c -0.52882,0.138292 -0.7147,0.383586 -0.57216,0.755046 0.11613,0.30262 0.13532,0.550214 0.0426,0.550214 -0.0927,0 -1.47676,-0.849344 -3.07574,-1.887428 -2.97858,-1.933738 -4.29604,-2.698683 -4.64795,-2.698683 -0.10977,0 -0.19958,0.448578 -0.19958,0.99684 0,1.027455 -0.8927,2.083658 -2.43474,2.880671 -0.734,0.379374 -0.81857,0.363199 -0.63277,-0.121006 0.11796,-0.3074 0.0806,-0.641622 -0.0829,-0.742711 -0.41842,-0.258596 -1.1918,0.75794 -0.91606,1.204087 0.28918,0.467904 -0.26448,0.482255 -0.72787,0.01887 -0.22009,-0.220087 -0.75893,-0.231906 -1.45618,-0.03193 -0.87404,0.250669 -1.15056,0.203429 -1.31482,-0.224625 z m 2.89836,-1.687132 c -0.0813,-0.982182 -0.28188,-1.08362 -0.90689,-0.458611 -0.64709,0.647093 -0.50364,1.139494 0.17189,0.59 0.52123,-0.42399 0.56646,-0.407434 0.36385,0.133195 -0.12726,0.339548 -0.0794,0.617361 0.10638,0.617361 0.18577,0 0.30491,-0.396875 0.26477,-0.881945 z m 11.71375,-0.326309 c -0.46756,-0.467554 -0.75839,-0.06841 -0.47957,0.658174 0.18371,0.478734 0.29569,0.509073 0.52278,0.141637 0.15895,-0.257182 0.1395,-0.617096 -0.0432,-0.799811 z m -13.1063,-1.37862 c 0.0675,-0.348107 -0.11245,-0.588126 -0.44097,-0.588126 -0.32725,0 -0.55503,0.301625 -0.55503,0.734952 0,0.859737 0.82436,0.738212 0.996,-0.146826 z m 3.41372,-0.588126 c 0.11991,-0.194028 0.0499,-0.352778 -0.15557,-0.352778 -0.20548,0 -0.3736,0.15875 -0.3736,0.352778 0,0.194028 0.07,0.352778 0.15557,0.352778 0.0856,0 0.25368,-0.15875 0.3736,-0.352778 z m 10.05416,-1.037513 c 0,-0.182576 -0.15875,-0.430071 -0.35277,-0.549987 -0.19403,-0.119916 -0.35278,0.02946 -0.35278,0.331957 0,0.302492 0.15875,0.549987 0.35278,0.549987 0.19402,0 0.35277,-0.14938 0.35277,-0.331957 z m -11.24354,-1.520126 c 0.38351,-0.719744 0.36822,-0.748609 -0.16398,-0.309584 -0.32281,0.266295 -0.58692,0.623482 -0.58692,0.79375 0,0.538865 0.31349,0.336734 0.7509,-0.484166 z m 13.00743,-1.285173 c 0,-0.17327 -0.23812,-0.406411 -0.52916,-0.518097 -0.53773,-0.206346 -0.72249,0.16944 -0.29398,0.597945 0.33714,0.337149 0.82314,0.290004 0.82314,-0.07985 z m -11.70781,-1.074028 c 0.0882,-0.264584 -0.0441,-0.396875 -0.30868,-0.308681 -0.25466,0.08488 -0.53247,0.362698 -0.61736,0.617361 -0.0882,0.264583 0.0441,0.396875 0.30868,0.308681 0.25466,-0.08489 0.53247,-0.362702 0.61736,-0.617361 z m -32.58473,6.513794 c -5.14076,-2.570406 -10.33868,-10.16399 -11.51027,-16.815237 -0.37212,-2.11255 -0.18124,-3.02489 0.43048,-2.05761 0.25784,0.40769 0.32936,0.34439 0.3336,-0.29526 0.005,-0.68059 0.54095,-1.0636 3.2686,-2.33382 1.79475,-0.83579 5.00944,-2.35424 7.14375,-3.37434 2.1343,-1.0201 5.22993,-2.48662 6.87916,-3.25893 1.64924,-0.7723 3.63361,-1.8312 4.40972,-2.35311 0.77612,-0.5219 2.16565,-1.31362 3.08786,-1.75937 0.92222,-0.44575 1.58754,-0.95482 1.47849,-1.13126 -0.10904,-0.17644 0.13416,-0.32079 0.54046,-0.32079 0.95254,0 8.02548,-3.77009 8.43042,-4.49367 0.1843,-0.32933 0.58774,-0.47776 1.00322,-0.36911 0.81323,0.21266 1.79136,-0.95614 1.05725,-1.26334 -0.23554,-0.0986 -0.0402,-0.13511 0.434,-0.0812 0.68786,0.0782 0.97936,0.44824 1.44135,1.82975 0.62463,1.86784 1.38737,2.3245 2.3218,1.39007 1.20275,-1.20275 4.5771,-3.10458 5.7992,-3.26849 1.28779,-0.17273 3.02488,0.4693 4.30387,1.59071 0.79339,0.69565 0.79339,1.40727 0,1.34726 -0.93873,-0.071 -2.25131,-0.90752 -2.01753,-1.28579 0.41712,-0.67491 -0.94904,-0.30242 -3.81503,1.04021 -3.38577,1.58614 -5.54452,2.26699 -5.54452,1.74871 0,-0.19081 -0.62855,0.006 -1.39677,0.43811 -0.76822,0.43176 -1.31447,0.91817 -1.2139,1.08091 0.10058,0.16273 -0.14401,0.29588 -0.54351,0.29588 -0.39951,0 -0.72638,0.1852 -0.72638,0.41157 0,0.22637 -0.10639,0.30518 -0.23642,0.17515 -0.13003,-0.13003 -0.5666,-0.0211 -0.97014,0.24209 -3.4907,2.27657 -12.58882,7.29381 -19.66539,10.84467 -9.25035,4.64161 -10.52527,5.38847 -10.52527,6.165814 0,0.378026 0.17096,0.334182 0.67937,-0.17423 0.81287,-0.812864 1.8257,-0.648214 3.45558,0.561735 1.38329,1.026883 2.99905,3.089737 3.06948,3.918811 0.0705,0.830594 1.52449,3.862355 1.99033,4.150261 0.20745,0.12821 0.46217,0.148121 0.56604,0.04425 0.23325,-0.233246 -0.89507,-3.763 -1.41004,-4.41107 -0.29065,-0.365788 -0.22044,-0.445364 0.31127,-0.352778 0.463,0.08062 0.64829,-0.05276 0.56899,-0.40961 -0.0647,-0.291042 0.002,-0.409759 0.14776,-0.263814 0.14594,0.145944 0.53618,0.02025 0.86719,-0.279302 0.33101,-0.299557 0.74077,-0.513514 0.91057,-0.475452 0.5888,0.131981 2.81037,-1.050107 3.76202,-2.001757 1.0277,-1.027708 1.21091,-1.565788 0.53311,-1.565788 -0.61053,0 0.0822,-0.57648 1.04069,-0.86607 0.59943,-0.1811 0.79375,-0.0973 0.79375,0.34253 0,0.86635 0.8315,0.42738 1.06255,-0.56095 0.14007,-0.59913 0.48179,-0.88878 1.13941,-0.96579 0.55579,-0.0651 1.02795,-0.38918 1.15635,-0.79375 0.11936,-0.37606 0.425,-0.68375 0.67921,-0.68375 0.25421,0 0.65337,-0.23034 0.88702,-0.51187 0.23365,-0.28154 1.1211,-0.61629 1.97211,-0.74391 1.8435,-0.27645 2.58056,-0.95027 1.91572,-1.75135 -0.496,-0.59765 -0.2575,-1.07858 0.34898,-0.70375 0.21387,0.13218 0.38365,0.82276 0.37728,1.53463 -0.006,0.71187 0.0843,2.34182 0.20148,3.62211 l 0.21306,2.32779 -1.88978,1.186752 c -1.03938,0.652709 -3.00103,1.850238 -4.35922,2.661172 l -2.46945,1.474427 v 2.903919 2.903922 l -4.85475,3.307803 c -2.67011,1.819293 -5.13925,3.307803 -5.48698,3.307803 -0.34773,0 -1.41747,-0.39262 -2.3772,-0.87249 z m 0.50718,-7.153204 c -0.0252,-0.596865 -0.103,-0.7326 -0.20226,-0.352778 -0.21556,0.824886 -0.86014,0.778076 -2.09049,-0.151825 l -1.01772,-0.769182 1.03614,1.12196 c 1.32102,1.43044 2.33111,1.49787 2.27433,0.151825 z m -0.9683,-3.627709 c -0.45806,-0.3816 -1.01368,-0.692983 -1.23472,-0.691963 -0.22104,0.0011 0.0744,0.30692 0.65644,0.679771 1.37483,0.880635 1.62711,0.885955 0.57828,0.01221 z m -4.988,-3.516041 c 0,-0.194028 -0.15875,-0.352778 -0.35278,-0.352778 -0.19403,0 -0.35278,0.15875 -0.35278,0.352778 0,0.194028 0.15875,0.352778 0.35278,0.352778 0.19403,0 0.35278,-0.15875 0.35278,-0.352778 z m 22.93055,13.737512 c 0,-0.205479 0.15875,-0.275484 0.35278,-0.155568 0.19403,0.119916 0.35278,0.288036 0.35278,0.373599 0,0.08556 -0.15875,0.155568 -0.35278,0.155568 -0.19403,0 -0.35278,-0.16812 -0.35278,-0.373599 z m 12.60439,-9.536588 c -0.85948,-0.500366 -0.41046,-1.132788 0.4698,-0.661688 0.37628,0.20138 0.68415,0.519306 0.68415,0.706508 0,0.431246 -0.36025,0.417251 -1.15395,-0.04482 z m 13.67756,-1.378702 c -0.11992,-0.194028 -0.0499,-0.352778 0.15557,-0.352778 0.20547,0 0.37359,0.15875 0.37359,0.352778 0,0.194028 -0.07,0.352778 -0.15556,0.352778 -0.0856,0 -0.25369,-0.15875 -0.3736,-0.352778 z m -16.93334,-0.705555 c -0.11991,-0.194028 0.0388,-0.352778 0.35278,-0.352778 0.31395,0 0.4727,0.15875 0.35278,0.352778 -0.11992,0.194027 -0.27867,0.352777 -0.35278,0.352777 -0.0741,0 -0.23286,-0.15875 -0.35278,-0.352777 z m 2.35644,-0.100027 c -0.22377,-0.269618 -0.25212,-0.652921 -0.0701,-0.947455 0.25299,-0.409346 0.40161,-0.415065 0.86177,-0.03316 0.30583,0.253816 0.55605,0.680169 0.55605,0.947451 0,0.612119 -0.84989,0.633035 -1.34773,0.03316 z m -4.64949,-0.252751 c -0.42791,-0.276532 -0.37728,-0.343006 0.26458,-0.347377 0.43656,-0.0028 0.79375,0.153349 0.79375,0.347377 0,0.442002 -0.37438,0.442002 -1.05833,0 z m 8.29028,-0.705556 c 0.11991,-0.194028 0.28803,-0.352778 0.37359,-0.352778 0.0856,0 0.15557,0.15875 0.15557,0.352778 0,0.194028 -0.16812,0.352778 -0.3736,0.352778 -0.20547,0 -0.27548,-0.15875 -0.15556,-0.352778 z m 10.40694,-0.667812 c 0,-0.396536 0.91762,-0.766423 1.20023,-0.483806 0.42466,0.42466 0.19296,0.79884 -0.49467,0.79884 -0.38806,0 -0.70556,-0.141767 -0.70556,-0.315034 z m -10.05417,-0.605888 c -0.691,-0.534455 -0.68793,-0.543317 0.14876,-0.429754 0.46987,0.06378 0.91966,0.314392 0.99954,0.556926 0.19497,0.592022 -0.28752,0.538586 -1.1483,-0.127172 z m -2.93099,-0.869425 c 0.0695,-0.20858 0.27722,-0.379236 0.46155,-0.379236 0.18433,0 0.39202,0.170656 0.46155,0.379236 0.0695,0.20858 -0.13817,0.379236 -0.46155,0.379236 -0.32338,0 -0.53108,-0.170656 -0.46155,-0.379236 z m -22.99817,-0.612083 c 0,-0.185628 0.32656,-0.422898 0.7257,-0.527278 0.46164,-0.12072 0.67564,-0.0394 0.58813,0.22344 -0.16894,0.507412 -1.31383,0.772182 -1.31383,0.303838 z m 22.92616,-0.953628 c -0.68755,-0.73187 -0.75082,-0.96277 -0.36251,-1.32292 0.28425,-0.26364 0.38166,-0.27761 0.24615,-0.0353 -0.29798,0.53282 0.61137,1.25772 1.40471,1.11978 0.3756,-0.0653 0.68206,0.14006 0.75759,0.50769 0.19272,0.937923 -1.06769,0.772047 -2.04594,-0.26925 z m -5.64005,-0.72171 c 0,-0.30249 0.15875,-0.45187 0.35278,-0.33195 0.19402,0.11991 0.35277,0.36741 0.35277,0.54998 0,0.18258 -0.15875,0.33196 -0.35277,0.33196 -0.19403,0 -0.35278,-0.24749 -0.35278,-0.54999 z m 3.10444,-0.5789 c 0.32926,-0.32926 0.51741,-0.32926 0.84667,0 0.32926,0.32926 0.23519,0.42334 -0.42333,0.42334 -0.65852,0 -0.7526,-0.0941 -0.42334,-0.42334 z m -11.41334,-8.0132 c 0.10967,-0.17746 -2e-5,-0.3971 -0.24376,-0.4881 -0.30285,-0.11306 -0.2477,-0.24625 0.17419,-0.42065 0.33954,-0.14036 0.87985,-0.15447 1.20067,-0.0314 0.52589,0.2018 0.5172,0.27388 -0.0882,0.73208 -0.76109,0.57604 -1.34196,0.6919 -1.04291,0.20803 z m 24.99411,-8.05583 c -0.26454,-0.388 -0.52599,-0.4863 -0.70376,-0.26458 -0.39589,0.49378 -1.16479,0.60291 -1.16479,0.16532 0,-0.20012 0.24286,-0.45704 0.53968,-0.57095 0.3406,-0.1307 0.46197,-0.45195 0.32901,-0.87087 -0.11644,-0.36685 -0.0422,-0.66378 0.16587,-0.66378 0.20711,0 0.37656,0.16812 0.37656,0.3736 0,0.20548 0.15875,0.27549 0.35277,0.15557 0.19403,-0.11992 0.35841,-0.0102 0.36528,0.24376 0.007,0.25399 0.22516,0.078 0.48507,-0.39116 l 0.47257,-0.85295 0.40929,0.76476 c 0.25934,0.48459 0.27796,0.76476 0.0508,0.76476 -0.19716,0 -0.45808,0.39687 -0.57983,0.88194 -0.26128,1.04103 -0.52575,1.10473 -1.09854,0.26458 z"
         id="path2523" />
      <path
         style="fill:#b46a35;stroke-width:0.352778"
         d="m -379.09363,-84.119053 c -5.12374,-2.560358 -10.024,-9.667261 -11.36053,-16.476287 -0.42995,-2.19041 -0.25581,-3.18997 0.38047,-2.18387 0.25784,0.40769 0.32936,0.34439 0.3336,-0.29526 0.005,-0.68059 0.54095,-1.0636 3.2686,-2.33382 1.79475,-0.83579 5.00944,-2.35424 7.14375,-3.37434 2.1343,-1.0201 5.22993,-2.48662 6.87916,-3.25893 1.64924,-0.7723 3.63361,-1.8312 4.40972,-2.35311 0.77612,-0.5219 2.16565,-1.31362 3.08786,-1.75937 0.92222,-0.44575 1.58754,-0.95482 1.47849,-1.13126 -0.10904,-0.17644 0.13416,-0.32079 0.54046,-0.32079 0.95254,0 8.02548,-3.77009 8.43042,-4.49367 0.1843,-0.32933 0.58774,-0.47776 1.00322,-0.36911 0.81323,0.21266 1.79136,-0.95614 1.05725,-1.26334 -0.23554,-0.0986 -0.0523,-0.13696 0.40714,-0.0853 0.65757,0.0739 0.95793,0.46311 1.41111,1.82844 0.64013,1.92857 1.35049,2.30386 2.49224,1.31666 1.45547,-1.25845 5.10658,-3.28367 5.91987,-3.28367 1.02683,0 3.21361,0.89241 4.05695,1.65563 1.34975,1.2215 0.33157,1.85613 -1.40808,0.87764 -0.442,-0.2486 -0.71044,-0.60279 -0.59654,-0.78709 0.41712,-0.67491 -0.94904,-0.30242 -3.81503,1.04021 -3.38577,1.58614 -5.54452,2.26699 -5.54452,1.74871 0,-0.19081 -0.62855,0.006 -1.39677,0.43811 -0.76822,0.43176 -1.31447,0.91817 -1.2139,1.08091 0.10058,0.16273 -0.14401,0.29588 -0.54351,0.29588 -0.39951,0 -0.72638,0.1852 -0.72638,0.41157 0,0.22637 -0.10639,0.30518 -0.23642,0.17515 -0.13003,-0.13003 -0.5666,-0.0211 -0.97014,0.24209 -3.4907,2.27657 -12.58882,7.29381 -19.66539,10.84467 -9.25035,4.64161 -10.52527,5.38847 -10.52527,6.165814 0,0.378026 0.17096,0.334182 0.67937,-0.17423 0.81769,-0.817684 1.8268,-0.647694 3.48989,0.5879 1.3276,0.986346 3.31203,3.568577 3.05813,3.979394 -0.28258,0.457235 1.7657,4.03939 2.37706,4.157129 0.5067,0.09758 0.489,-0.127412 -0.15252,-1.938856 -0.39916,-1.127086 -0.89466,-2.261796 -1.10112,-2.521581 -0.29071,-0.365799 -0.22051,-0.445368 0.31122,-0.352778 0.463,0.08062 0.64829,-0.05276 0.56899,-0.40961 -0.0647,-0.291042 0.002,-0.409759 0.14776,-0.263814 0.14594,0.145944 0.53618,0.02025 0.86719,-0.279302 0.33101,-0.299557 0.74077,-0.513514 0.91057,-0.475452 0.5888,0.131981 2.81037,-1.050107 3.76202,-2.001757 1.0277,-1.027707 1.21091,-1.565787 0.53311,-1.565787 -0.61053,0 0.0822,-0.57648 1.04069,-0.86607 0.59943,-0.1811 0.79375,-0.0973 0.79375,0.34253 0,0.86635 0.8315,0.42738 1.06255,-0.56095 0.14007,-0.59913 0.48179,-0.88878 1.13941,-0.96579 0.55579,-0.0651 1.02795,-0.38918 1.15635,-0.79375 0.11936,-0.37606 0.425,-0.68375 0.67921,-0.68375 0.25421,0 0.65337,-0.23034 0.88702,-0.51187 0.23365,-0.28154 1.1211,-0.61629 1.97211,-0.74391 1.8435,-0.27645 2.58056,-0.95027 1.91572,-1.75135 -0.49173,-0.5925 -0.25954,-1.07984 0.3384,-0.71029 0.20804,0.12857 0.38034,0.89853 0.38289,1.71102 0.002,0.81248 0.0321,1.87411 0.0657,2.35918 0.0336,0.48507 0.026,1.51695 -0.0169,2.29306 -0.0749,1.3546 -0.18372,1.47467 -2.71728,2.998607 -1.45158,0.873125 -3.37628,2.071578 -4.27712,2.663229 l -1.63787,1.075729 0.0612,2.804827 0.0612,2.804826 -4.32871,2.882731 c -3.94407,2.626582 -5.62253,3.643658 -6.01305,3.643658 -0.0788,0 -1.12047,-0.488332 -2.31487,-1.08518 z m 0.60691,-6.940514 c -0.0252,-0.596865 -0.103,-0.7326 -0.20226,-0.352778 -0.21556,0.824886 -0.86014,0.778076 -2.09049,-0.151825 l -1.01772,-0.769182 1.03614,1.12196 c 1.32102,1.43044 2.33111,1.49787 2.27433,0.151825 z m -0.9683,-3.627709 c -0.45806,-0.3816 -1.01368,-0.692983 -1.23472,-0.691963 -0.22104,0.0011 0.0744,0.30692 0.65644,0.679771 1.37483,0.880635 1.62711,0.885955 0.57828,0.01221 z m -4.988,-3.516041 c 0,-0.194028 -0.15875,-0.352778 -0.35278,-0.352778 -0.19403,0 -0.35278,0.15875 -0.35278,0.352778 0,0.194028 0.15875,0.352778 0.35278,0.352778 0.19403,0 0.35278,-0.15875 0.35278,-0.352778 z m 40.92222,10.797466 c 0,-1.605517 -0.60945,-2.285796 -1.36812,-1.527122 -0.57902,0.579017 -0.4988,-0.461995 0.096,-1.245556 0.34126,-0.449584 0.75587,-0.560959 1.51964,-0.408203 0.95368,0.190736 1.17729,0.03662 2.42989,-1.674788 0.75876,-1.036669 1.49727,-2.172864 1.64115,-2.524876 0.14388,-0.352016 0.4217,-0.541084 0.61736,-0.420155 0.46104,0.284935 0.46349,1.589345 0.003,1.589345 -0.65514,0 -0.35862,0.72613 0.41309,1.011604 0.50936,0.188426 0.62708,0.369091 0.35148,0.539419 -0.24133,0.149154 -0.32421,0.615382 -0.19846,1.116432 0.16184,0.644818 0.0738,0.860323 -0.35148,0.860323 -0.66577,0 -0.70129,0.305043 -0.19244,1.652728 0.30179,0.799292 0.28802,0.907045 -0.0706,0.552133 -0.67103,-0.66433 -1.36258,-0.530059 -1.36258,0.264583 0,0.457077 -0.23519,0.705556 -0.66781,0.705556 -0.3673,0 -0.75919,0.238125 -0.87088,0.529166 -0.11168,0.291042 -0.60491,0.529167 -1.09608,0.529167 -0.81997,0 -0.89301,-0.126746 -0.89301,-1.549756 z m 3.29824,-2.16571 c -0.1093,-0.284826 -0.34049,-0.517867 -0.51376,-0.517867 -0.36199,0 -0.42564,0.830132 -0.0894,1.166336 0.37633,0.376326 0.81534,-0.09563 0.6032,-0.648469 z m -0.0586,-1.652637 c -0.25314,-0.253139 -0.41745,-0.273967 -0.41745,-0.05292 0,0.200498 0.10583,0.470373 0.23519,0.599723 0.12935,0.129353 0.3172,0.153165 0.41745,0.05292 0.10025,-0.100245 -0.006,-0.37012 -0.23519,-0.599723 z m 2.58366,2.54992 c -0.12359,-0.199975 0.018,-0.259115 0.33196,-0.138645 0.61116,0.234523 0.72298,0.487384 0.21553,0.487384 -0.18258,0 -0.42895,-0.156934 -0.54749,-0.348739 z m -34.04555,-11.225914 c 0,-0.185628 0.32656,-0.422898 0.7257,-0.527278 0.46164,-0.12072 0.67564,-0.0394 0.58813,0.22344 -0.16894,0.507412 -1.31383,0.772182 -1.31383,0.303838 z m 8.97721,-10.267438 c 0.10967,-0.17746 -2e-5,-0.3971 -0.24376,-0.4881 -0.30285,-0.11306 -0.2477,-0.24625 0.17419,-0.42065 0.33954,-0.14036 0.87985,-0.15447 1.20067,-0.0314 0.52589,0.2018 0.5172,0.27388 -0.0882,0.73208 -0.76109,0.57604 -1.34196,0.6919 -1.04291,0.20803 z m 24.99411,-8.05583 c -0.26454,-0.388 -0.52599,-0.4863 -0.70376,-0.26458 -0.39589,0.49378 -1.16479,0.60291 -1.16479,0.16532 0,-0.20012 0.24286,-0.45704 0.53968,-0.57095 0.3406,-0.1307 0.46197,-0.45195 0.32901,-0.87087 -0.11644,-0.36685 -0.0422,-0.66378 0.16587,-0.66378 0.20711,0 0.37656,0.16812 0.37656,0.3736 0,0.20548 0.15875,0.27549 0.35277,0.15557 0.19403,-0.11992 0.35841,-0.0102 0.36528,0.24376 0.007,0.25399 0.22516,0.078 0.48507,-0.39116 l 0.47257,-0.85295 0.40929,0.76476 c 0.25934,0.48459 0.27796,0.76476 0.0508,0.76476 -0.19716,0 -0.45808,0.39687 -0.57983,0.88194 -0.26128,1.04103 -0.52575,1.10473 -1.09854,0.26458 z"
         id="path2521" />
      <path
         style="fill:#8c4a25;stroke-width:0.352778"
         d="m -377.56386,-83.386651 c -0.65971,-0.283488 -0.65118,-0.3048 0.13139,-0.327981 0.74191,-0.02198 0.78197,-0.09304 0.35278,-0.625729 -0.37596,-0.466633 -0.27589,-0.446923 0.44776,0.08819 0.61874,0.457535 0.79658,0.776227 0.52917,0.948309 -0.48216,0.310275 -0.55613,0.306084 -1.4611,-0.08279 z m 3.02557,-1.640367 c 0.53577,-1.050886 0.61952,-1.815405 0.47281,-4.316278 -0.16159,-2.754567 -0.12887,-2.973113 0.34935,-2.333632 0.50592,0.676515 0.52472,0.661994 0.45662,-0.352778 -0.0613,-0.913359 0.0619,-1.073623 0.89913,-1.169959 0.68388,-0.07869 0.97014,-0.312106 0.97014,-0.791069 0,-0.777247 1.37828,-2.510621 1.79266,-2.254518 0.15139,0.09356 0.37496,0.0088 0.49683,-0.188422 0.12188,-0.197193 0.52972,-0.358532 0.90633,-0.358532 0.3766,0 0.70304,-0.198437 0.72542,-0.440972 0.0224,-0.242535 0.0621,-0.599722 0.0882,-0.79375 0.0547,-0.406189 1.635,-2.058222 1.635,-1.709212 0,0.127085 0.29069,-0.032 0.64599,-0.35355 0.35529,-0.32154 0.75217,-0.47843 0.88194,-0.34866 0.12978,0.12978 0.23839,-0.0683 0.24136,-0.4402 0.005,-0.5657 0.0613,-0.58971 0.34738,-0.14699 0.19829,0.30684 0.34424,0.35527 0.34737,0.11526 0.003,-0.22765 0.41047,-0.89529 0.90554,-1.48365 0.77418,-0.92006 1.02422,-1.02258 1.78686,-0.73263 1.11989,0.42579 1.28839,0.42319 1.01717,-0.0157 -0.12366,-0.20008 0.17273,-0.35277 0.68474,-0.35277 0.82813,0 0.9021,0.12393 0.89481,1.4993 l -0.008,1.49931 -4.04256,2.404534 c -2.22341,1.322494 -4.14773,2.574706 -4.27628,2.782697 -0.12854,0.207991 -0.20817,1.586576 -0.17696,3.063522 l 0.0568,2.685355 -3.91524,2.645834 c -5.14854,3.479267 -4.94911,3.389295 -4.18341,1.88741 z m -5.72051,0.208319 -0.83283,-0.726493 0.97014,0.590677 c 0.53357,0.324873 0.97013,0.651796 0.97013,0.726493 0,0.275463 -0.29474,0.118258 -1.10744,-0.590677 z m -2.56602,-1.906743 c -0.46728,-0.394984 -1.37026,-1.353153 -2.00662,-2.129264 -1.10614,-1.349075 -1.07985,-1.337441 0.59796,0.264583 0.96523,0.921632 1.91761,1.675695 2.1164,1.675695 0.19878,0 0.64056,0.204106 0.98172,0.45357 0.57888,0.423287 0.57155,0.453573 -0.10978,0.453573 -0.40154,0 -1.1124,-0.323169 -1.57968,-0.718157 z m 2.596,-0.127596 c -4.45392,-2.831158 -9.4918,-11.506768 -9.0878,-15.649862 0.11471,-1.17634 0.40771,-1.38822 4.52082,-3.26917 0.6791,-0.31055 1.47285,-0.70807 1.76389,-0.88337 0.92522,-0.55728 6.49129,-3.0933 7.40525,-3.37398 1.57907,-0.48496 5.14133,-2.23556 7.6242,-3.74676 1.33818,-0.81449 3.50461,-2.01159 4.8143,-2.66024 1.30969,-0.64864 2.38125,-1.33592 2.38125,-1.52729 0,-0.19137 0.23876,-0.34794 0.53057,-0.34794 0.50825,0 5.45423,-2.42447 5.81943,-2.85263 0.3446,-0.40401 2.37321,-0.9522 2.69146,-0.72731 0.1779,0.1257 0.59667,0.65812 0.93061,1.18315 l 0.60717,0.9546 -1.49726,1.0171 c -1.50482,1.02223 -10.04938,6.07774 -13.66809,8.08692 -1.06716,0.5925 -5.74345,3.01494 -10.39176,5.3832 -4.64831,2.36825 -8.66281,4.56914 -8.92111,4.89086 -0.31508,0.392446 -0.41891,1.244182 -0.31551,2.588206 0.1952,2.537244 1.52034,5.027118 4.0358,7.583092 1.49582,1.519911 2.08648,1.89769 2.83225,1.811471 1.20084,-0.138832 1.42227,-1.505221 0.59497,-3.671478 -0.60087,-1.573343 -2.79727,-3.838864 -3.37536,-3.481585 -0.37202,0.229927 0.91933,2.987181 1.39903,2.987181 0.34686,0 0.83659,1.075465 0.59826,1.313798 -0.21513,0.215131 -1.68837,-0.585551 -2.35978,-1.282499 -1.60508,-1.666131 -2.16302,-3.506781 -1.59125,-5.249513 0.28637,-0.872854 1.03214,-0.833879 2.56893,0.13426 1.94876,1.227673 4.34219,6.176874 4.34219,8.978889 0,2.988134 -1.43745,3.60027 -4.25246,1.8109 z m 36.70802,-0.552813 c 0,-1.605517 -0.60945,-2.285796 -1.36812,-1.527122 -0.57902,0.579017 -0.4988,-0.461995 0.096,-1.245556 0.34126,-0.449584 0.75587,-0.560959 1.51964,-0.408203 0.95368,0.190736 1.17729,0.03662 2.42989,-1.674788 0.75876,-1.036669 1.49727,-2.172864 1.64115,-2.524876 0.14388,-0.352016 0.4217,-0.541084 0.61736,-0.420155 0.46104,0.284935 0.46349,1.589345 0.003,1.589345 -0.65514,0 -0.35862,0.72613 0.41309,1.011604 0.50936,0.188426 0.62708,0.369091 0.35148,0.539419 -0.24133,0.149154 -0.32421,0.615382 -0.19846,1.116432 0.16184,0.644818 0.0738,0.860323 -0.35148,0.860323 -0.66577,0 -0.70129,0.305043 -0.19244,1.652728 0.30179,0.799292 0.28802,0.907045 -0.0706,0.552133 -0.67103,-0.66433 -1.36258,-0.530059 -1.36258,0.264583 0,0.457077 -0.23519,0.705556 -0.66781,0.705556 -0.3673,0 -0.75919,0.238125 -0.87088,0.529166 -0.11168,0.291042 -0.60491,0.529167 -1.09608,0.529167 -0.81997,0 -0.89301,-0.126746 -0.89301,-1.549756 z m 3.29824,-2.16571 c -0.1093,-0.284826 -0.34049,-0.517867 -0.51376,-0.517867 -0.36199,0 -0.42564,0.830132 -0.0894,1.166336 0.37633,0.376326 0.81534,-0.09563 0.6032,-0.648469 z m -0.0586,-1.652637 c -0.25314,-0.253139 -0.41745,-0.273967 -0.41745,-0.05292 0,0.200498 0.10583,0.470373 0.23519,0.599723 0.12935,0.129353 0.3172,0.153165 0.41745,0.05292 0.10025,-0.100245 -0.006,-0.37012 -0.23519,-0.599723 z m 2.58366,2.54992 c -0.12359,-0.199975 0.018,-0.259115 0.33196,-0.138645 0.61116,0.234523 0.72298,0.487384 0.21553,0.487384 -0.18258,0 -0.42895,-0.156934 -0.54749,-0.348739 z"
         id="path2519" />
      <path
         style="fill:#6c391a;stroke-width:0.352778"
         d="m -374.02054,-84.859861 c 0.1462,-0.256886 0.55897,-0.794029 0.91728,-1.193648 0.35831,-0.39962 0.68742,-1.16096 0.73136,-1.691863 0.0792,-0.957294 0.83257,-1.9307 1.51082,-1.952166 0.19403,-0.0061 0.40463,-0.343507 0.468,-0.749702 0.0634,-0.406196 0.46025,-0.871132 0.88195,-1.033195 0.42169,-0.162062 1.21146,-0.709132 1.75503,-1.215714 0.54358,-0.506582 1.05951,-0.921057 1.14653,-0.921057 0.087,0 0.15433,0.912812 0.14958,2.028472 l -0.009,2.028472 -3.90887,2.583734 c -2.14987,1.421053 -3.78924,2.373553 -3.64304,2.116667 z m -4.42526,-2.388098 c -1.40719,-0.757025 -3.88253,-3.194247 -3.2442,-3.194247 0.23209,0 0.42198,0.13716 0.42198,0.3048 0,0.502225 2.62713,2.164644 3.4208,2.164644 1.49818,0 1.53799,-1.893284 0.0995,-4.730055 -1.1046,-2.178279 -1.17306,-2.750121 -0.21446,-1.791525 0.78445,0.784447 2.05967,5.146089 1.92239,6.575143 -0.13595,1.415224 -0.7201,1.578193 -2.40597,0.67124 z m 35.05542,-0.460219 c 0.117,-0.436563 0.21489,-1.203854 0.21754,-1.705092 0.003,-0.591664 0.19948,-0.911345 0.55975,-0.911345 0.39456,0 0.49406,0.212404 0.34429,0.734956 -0.11586,0.404224 -0.30605,1.171515 -0.42264,1.705092 -0.1166,0.533576 -0.36942,0.970139 -0.56182,0.970139 -0.19241,0 -0.25411,-0.357188 -0.13712,-0.79375 z m -37.87764,-5.867884 c 0,-0.171397 -0.30701,-0.391914 -0.68223,-0.49004 -0.80978,-0.211758 -1.37583,-2.533113 -0.82933,-3.401053 0.58607,-0.9308 1.37792,-0.831945 2.71091,0.338434 1.45361,1.27629 1.37734,1.821992 -0.21028,1.504467 -1.15807,-0.231613 -1.20384,-0.05906 -0.46219,1.742465 0.15201,0.369227 0.0972,0.617361 -0.13636,0.617361 -0.21479,0 -0.39052,-0.140236 -0.39052,-0.311634 z m 11.64166,-0.113287 c 0,-0.08175 0.50074,-0.614895 1.11276,-1.184772 0.73622,-0.685525 1.0384,-0.827233 0.89302,-0.418779 -0.12854,0.361131 -0.0486,0.617361 0.19252,0.617361 0.69545,0 -0.17633,0.635455 -1.22816,0.895226 -0.53357,0.131777 -0.97014,0.17271 -0.97014,0.09096 z m 5.44427,-3.417147 c 0.25169,-0.407243 1.61129,-1.228608 1.61129,-0.973416 0,0.08152 -0.41642,0.421076 -0.92538,0.75456 -0.50896,0.333481 -0.81762,0.431969 -0.68591,0.218856 z m -5.86319,-13.332254 c 0.25466,-0.10191 0.55893,-0.0894 0.67616,0.0279 0.11722,0.11723 -0.0911,0.20061 -0.46302,0.18529 -0.41097,-0.0169 -0.49456,-0.10052 -0.21314,-0.21314 z m 3.59392,-2.24928 c 0,-0.20547 0.15875,-0.27548 0.35278,-0.15556 0.19403,0.11991 0.35278,0.28803 0.35278,0.37359 0,0.0856 -0.15875,0.15557 -0.35278,0.15557 -0.19403,0 -0.35278,-0.16812 -0.35278,-0.3736 z"
         id="path2517" />
    </g>
  </g>
</svg>
