<?xml version="1.0" encoding="UTF-8" standalone="no"?>
<!-- Created with Inkscape (http://www.inkscape.org/) -->

<svg
   width="73.377777mm"
   height="73.377777mm"
   viewBox="0 0 73.377777 73.377777"
   version="1.1"
   id="svg5"
   sodipodi:docname="textiles.svg"
   inkscape:version="1.1.1 (3bf5ae0d25, 2021-09-20)"
   xmlns:inkscape="http://www.inkscape.org/namespaces/inkscape"
   xmlns:sodipodi="http://sodipodi.sourceforge.net/DTD/sodipodi-0.dtd"
   xmlns="http://www.w3.org/2000/svg"
   xmlns:svg="http://www.w3.org/2000/svg">
  <sodipodi:namedview
     id="namedview7"
     pagecolor="#ffffff"
     bordercolor="#666666"
     borderopacity="1.0"
     inkscape:pageshadow="2"
     inkscape:pageopacity="0.0"
     inkscape:pagecheckerboard="0"
     inkscape:document-units="mm"
     showgrid="false"
     inkscape:zoom="2.8882212"
     inkscape:cx="132.26134"
     inkscape:cy="157.01706"
     inkscape:window-width="1920"
     inkscape:window-height="1009"
     inkscape:window-x="-8"
     inkscape:window-y="-8"
     inkscape:window-maximized="1"
     inkscape:current-layer="layer1" />
  <defs
     id="defs2" />
  <g
     inkscape:label="Layer 1"
     inkscape:groupmode="layer"
     id="layer1"
     transform="translate(346.54739,126.50614)">
    <g
       id="g2276">
      <path
         style="fill:#fefefe;stroke-width:0.352778"
         d="m -346.54739,-89.817251 v -36.688889 h 36.68889 36.68889 v 36.688889 36.688888 h -36.68889 -36.68889 z"
         id="path2292" />
      <path
         style="fill:#dbc7af;stroke-width:0.352778"
         d="m -326.01815,-59.110945 c -5.4026,-2.644733 -11.98503,-7.999476 -13.46144,-10.950751 -1.33414,-2.666887 -1.30199,-2.849273 1.55501,-8.822542 3.44994,-7.212968 3.88156,-8.894307 3.59362,-13.998781 -0.15432,-2.735702 -0.10238,-4.022071 0.1692,-4.189912 0.21554,-0.13321 1.46576,0.308767 2.77827,0.982172 2.25832,1.158672 2.44026,1.196143 3.39046,0.698283 l 1.00408,-0.526091 -0.86324,-0.565314 c -3.43484,-2.249382 -4.72362,-4.580789 -4.68904,-8.482419 0.0404,-4.56282 1.80025,-8.7038 5.16234,-12.14746 2.6292,-2.69299 5.08944,-3.89461 7.99539,-3.90507 2.21972,-0.008 2.49613,0.0985 8.64305,3.33056 8.10567,4.26193 12.36194,6.24959 22.27977,10.40451 4.4094,1.84725 8.37913,3.69875 8.82162,4.11445 1.27741,1.20006 1.65523,2.87945 1.37004,6.089753 -0.13937,1.568921 -0.22879,3.249458 -0.1987,3.734528 0.26655,4.297429 0.19341,4.779634 -1.13155,7.459539 -1.5848,3.205444 -4.27695,5.946016 -5.84096,5.946016 -0.63339,0 -1.33189,0.34175 -1.8672,0.91355 -1.11917,1.195472 -14.7283,11.420704 -19.00448,14.279033 -4.40748,2.946093 -9.35842,5.364275 -13.17985,6.437422 l -3.10687,0.872479 z"
         id="path2290" />
      <path
         style="fill:#c9b29a;stroke-width:0.352778"
         d="m -326.26267,-59.341838 c -7.77617,-3.95381 -13.93472,-9.938656 -13.93472,-13.541682 0,-1.473902 1.00105,-3.838889 1.37133,-3.239766 0.2231,0.360983 0.4711,0.366233 1.21829,0.02579 0.51598,-0.235095 0.93816,-0.535365 0.93816,-0.667258 0,-0.131893 0.87075,-0.448698 1.93501,-0.70401 l 1.93501,-0.4642 -0.78357,-1.267837 c -0.43096,-0.697311 -0.73044,-1.347212 -0.6655,-1.444226 0.86065,-1.285784 0.69791,-2.075981 -0.27183,-1.319855 -0.48297,0.37658 -0.50104,0.360154 -0.12904,-0.117288 0.28631,-0.367478 0.31613,-0.695498 0.0882,-0.970139 -0.24818,-0.299025 -0.22612,-0.316392 0.0789,-0.06216 0.23283,0.194028 0.5597,0.352778 0.72638,0.352778 0.16667,0 0.20492,-0.15875 0.085,-0.352778 -0.11992,-0.194028 -0.0323,-0.352778 0.19465,-0.352778 0.22697,0 0.1098,-0.277812 -0.26039,-0.617361 -0.37019,-0.339548 -0.46331,-0.475675 -0.20695,-0.302507 0.66363,0.448261 0.98718,-0.01926 0.45615,-0.659105 -0.35287,-0.425189 -0.35435,-0.537693 -0.007,-0.537693 0.34744,0 0.34604,-0.112215 -0.007,-0.537242 -0.37739,-0.454734 -0.34339,-0.504377 0.22139,-0.32325 0.56697,0.181828 0.54796,0.108264 -0.12649,-0.489444 -0.43656,-0.386891 -0.79132,-0.916115 -0.78835,-1.176055 0.004,-0.390444 0.0581,-0.389396 0.30868,0.006 0.41327,0.652226 0.72154,0.07794 0.88847,-1.655191 0.11074,-1.149685 0.0134,-1.438014 -0.53355,-1.581055 -0.51504,-0.134668 -0.669,-0.49712 -0.669,-1.574969 0,-0.770023 -0.0987,-1.89369 -0.2194,-2.497039 -0.33682,-1.684117 0.60716,-1.809537 3.2615,-0.433331 2.18767,1.134254 2.22958,1.141052 3.26483,0.529515 l 1.04872,-0.61949 -1.80747,-1.262752 c -2.58578,-1.806505 -3.78556,-4.207094 -3.78047,-7.564174 0.005,-3.0676 1.34503,-7.98541 2.17647,-7.98541 0.18194,0 0.23761,0.15079 0.12371,0.33508 -0.20517,0.33196 1.06779,1.24161 1.75947,1.25731 0.43172,0.01 2.06133,1.58261 1.63977,1.58261 -0.16169,0 -0.29398,0.23813 -0.29398,0.52917 0,0.29104 0.17198,0.5316 0.38218,0.53457 0.21019,0.003 0.14405,0.15929 -0.14699,0.34737 -0.29105,0.18809 -0.4498,0.35764 -0.35278,0.37678 1.28055,0.25264 1.77921,0.1307 1.9739,-0.48271 0.1745,-0.54981 0.28254,-0.59219 0.52334,-0.20526 0.2478,0.39816 0.43483,0.40616 1.01977,0.0436 0.42326,-0.26233 0.71632,-0.29841 0.71632,-0.0882 0,0.19567 -0.19844,0.3582 -0.44097,0.36117 -0.29986,0.004 -0.27163,0.12721 0.0882,0.38605 0.45385,0.32648 0.44545,0.35398 -0.059,0.19326 -0.33747,-0.10752 -0.67579,0.041 -0.79375,0.34836 -0.35451,0.92383 -0.23038,1.12297 0.58817,0.94357 0.57625,-0.12629 0.6626,-0.081 0.31511,0.16532 -0.29574,0.20964 -0.34357,0.42276 -0.12516,0.55774 0.19442,0.12016 0.4429,-0.0145 0.55218,-0.29935 0.10929,-0.28479 -0.0725,-0.67593 -0.404,-0.86919 -0.55349,-0.32268 -0.55465,-0.35225 -0.0142,-0.3621 0.32368,-0.006 0.86566,-0.11709 1.2044,-0.24707 0.4199,-0.16114 0.53472,-0.10501 0.36081,0.17639 -0.14385,0.23274 -0.0537,0.42354 0.20671,0.43752 0.25398,0.0136 0.14429,0.16123 -0.24377,0.32798 -0.60332,0.25926 -0.6161,0.30678 -0.0882,0.32799 0.33955,0.0136 0.61736,0.26292 0.61736,0.55396 0,0.29104 0.15875,0.52916 0.35278,0.52916 0.19403,0 0.35278,0.23813 0.35278,0.52917 0,0.29104 0.15875,0.52917 0.35277,0.52917 0.19403,0 0.35278,0.23254 0.35278,0.51675 0,0.59196 1.19676,1.3439 1.5603,0.98036 0.13307,-0.13308 0.36405,-0.0444 0.51328,0.19706 0.14923,0.24146 0.60769,0.5038 1.01881,0.58297 0.56783,0.10936 0.69556,0.009 0.53148,-0.41891 -0.14337,-0.37361 -0.0772,-0.4771 0.19674,-0.30778 0.227,0.14029 0.41272,0.087 0.41272,-0.11852 0,-0.20548 0.16088,-0.3736 0.35752,-0.3736 0.20903,0 0.13577,0.53069 -0.17639,1.27781 -0.29365,0.70279 -0.52137,1.53623 -0.50605,1.852077 0.0177,0.3656 0.0925,0.41404 0.20578,0.133306 0.0979,-0.242534 0.44252,-0.453503 0.7659,-0.468823 0.37014,-0.0175 0.42378,-0.094 0.1448,-0.20652 -0.65466,-0.26393 -0.16342,-0.82313 0.72857,-0.82936 0.64519,-0.005 0.68547,-0.0683 0.24376,-0.38606 -0.45745,-0.32907 -0.45133,-0.35598 0.0452,-0.19855 0.31591,0.10015 0.7719,-0.004 1.01332,-0.23131 0.34955,-0.32921 0.35287,-0.24631 0.0163,0.40705 -0.39853,0.7736 -0.37913,0.79715 0.3398,0.41239 0.41936,-0.22443 0.85471,-0.31583 0.96745,-0.20309 0.11273,0.11273 0.002,0.20497 -0.24664,0.20497 -0.29488,0 -0.40087,0.34577 -0.30539,0.99629 0.0804,0.547951 -0.0603,1.18921 -0.31274,1.425014 -0.25243,0.235803 -0.45896,0.592564 -0.45896,0.792801 0,0.457085 0.73027,-0.264515 1.57524,-1.556527 0.45191,-0.691008 0.75786,-0.876698 1.0172,-0.617358 0.20399,0.203988 0.67515,0.370889 1.04703,0.370889 0.48926,0 0.62797,0.184224 0.50186,0.666504 -0.0959,0.366577 -0.0374,0.882514 0.12984,1.146527 0.23759,0.375002 0.30531,0.344955 0.30954,-0.137337 0.007,-0.748526 0.0237,-0.749731 1.28799,-0.09037 0.55575,0.289847 1.24859,0.517228 1.53963,0.505291 0.3267,-0.0134 0.22547,-0.168169 -0.26458,-0.404514 -0.81099,-0.391127 -1.07607,-0.980548 -0.44098,-0.980548 0.19403,0 0.35278,0.144703 0.35278,0.321563 0,0.269556 0.73976,0.278169 1.41111,0.01643 0.097,-0.03782 0.30725,-0.04604 0.4672,-0.01825 0.15994,0.02778 0.19026,-0.112167 0.0674,-0.311002 -0.33893,-0.548407 0.12295,-1.063363 0.74103,-0.826184 0.43327,0.166261 0.45144,0.269413 0.0871,0.494578 -0.61262,0.378614 -0.20806,0.735251 0.90719,0.799731 0.49753,0.02877 0.90471,0.189879 0.90484,0.358029 1.4e-4,0.168151 -0.35693,0.215734 -0.7935,0.105741 -0.76661,-0.193151 -0.77034,-0.182497 -0.10896,0.311633 0.79969,0.597469 1.25549,0.655136 1.25549,0.158842 0,-0.194027 0.16812,-0.352777 0.3736,-0.352777 0.20548,0 0.26475,0.176112 0.13172,0.391361 -0.13303,0.215248 0.1998,0.770873 0.73961,1.234722 0.72715,0.624824 0.83014,0.843361 0.39744,0.843361 -0.32122,0 -0.58404,0.143888 -0.58404,0.319751 0,0.175863 0.34233,0.230231 0.76072,0.120818 0.57574,-0.150558 0.69788,-0.07819 0.50229,0.29761 -0.14213,0.273099 0.0569,0.139356 0.44236,-0.297207 0.70366,-0.797003 1.34747,-1.099524 0.94129,-0.442298 -0.27988,0.452857 -0.53444,1.765215 -0.3424,1.765215 0.0809,0 0.39335,-0.47625 0.69436,-1.058333 0.5535,-1.070367 1.74802,-1.534362 1.36229,-0.529167 -0.11168,0.291042 -0.0179,0.529167 0.20828,0.529167 0.22624,0 0.31163,0.161339 0.18976,0.358532 -0.12187,0.197192 -0.36937,0.267199 -0.54999,0.155569 -0.18062,-0.11163 -0.3284,-0.06478 -0.3284,0.104114 0,0.64993 -1.43163,1.821214 -1.97238,1.613706 -0.45257,-0.173668 -0.46854,-0.276234 -0.0857,-0.550405 0.34587,-0.24768 0.29933,-0.281408 -0.17567,-0.127295 -0.35541,0.115317 -0.83166,0.210503 -1.05833,0.211525 -0.22666,0.001 0.0641,0.294436 0.64622,0.652033 0.7088,0.435449 1.13938,0.525591 1.30373,0.272943 0.36587,-0.562412 0.6482,-0.105391 0.29147,0.47181 -0.22271,0.360357 -0.43484,0.393651 -0.77457,0.121575 -0.25732,-0.206079 -0.77482,-0.262943 -1.14999,-0.126365 -0.46735,0.170133 -0.55067,0.329584 -0.26459,0.506388 0.22966,0.141936 0.54799,0.177454 0.70741,0.07893 0.45149,-0.279035 1.52978,1.174337 1.22659,1.653268 -0.382,0.603451 -0.43472,2.364786 -0.0708,2.364786 0.16763,0 0.41433,-0.436563 0.54824,-0.970139 0.90595,-3.609943 8.56276,-14.072921 10.07235,-13.763791 0.25154,0.0515 0.41957,-0.0991 0.37339,-0.33462 -0.0462,-0.23556 0.13139,-0.34564 0.3946,-0.24463 0.28158,0.10805 0.55667,-0.115 0.6683,-0.54187 0.10435,-0.39903 0.40303,-0.72307 0.66373,-0.7201 0.36553,0.004 0.35524,0.0805 -0.045,0.33359 -0.767,0.48507 -0.18988,0.84032 0.64194,0.39514 0.39192,-0.20974 1.29432,-0.38136 2.00534,-0.38136 2.83219,0 4.20737,3.401634 3.23028,7.990335 -0.38942,1.828817 -0.38479,2.271998 0.0295,2.822222 1.9904,2.643659 -3.62581,12.470778 -7.12708,12.470778 -0.29662,0 -1.85231,1.053024 -3.4571,2.340056 -9.28242,7.444426 -19.52143,14.527241 -24.43505,16.902892 -2.91543,1.409559 -7.6948,2.991284 -8.99094,2.975536 -0.29494,-0.0036 -1.96501,-0.732966 -3.71126,-1.620848 z m 8.79005,-0.753886 c 0.14552,-0.145521 0.37041,-0.266421 0.49977,-0.268665 0.12935,-0.0022 0.71143,-0.185801 1.29352,-0.407906 0.58208,-0.222102 1.35886,-0.501813 1.72618,-0.621581 0.36732,-0.119768 0.59729,-0.288328 0.51104,-0.374572 -0.0862,-0.08625 -1.49803,0.30891 -3.13729,0.878131 -1.74346,0.605398 -2.60225,1.039971 -2.06915,1.047058 0.50124,0.0067 1.03041,-0.106944 1.17593,-0.252465 z m 6.00622,-2.524626 c 0.0797,-0.129032 -0.15693,-0.234601 -0.52593,-0.234601 -0.36901,0 -0.74235,0.18614 -0.82965,0.413643 -0.16522,0.43054 1.08052,0.266005 1.35558,-0.179042 z m 5.13568,-2.923603 c 3.27787,-2.014263 5.35335,-3.615239 4.88787,-3.770398 -0.24358,-0.08119 -0.50205,0.02988 -0.57437,0.246864 -0.0723,0.216965 -0.95338,0.881013 -1.95791,1.475655 -2.94161,1.741311 -3.22671,1.925172 -3.44567,2.222112 -0.11447,0.155243 -0.55103,0.308088 -0.97014,0.339658 -0.4191,0.03157 -0.76201,0.182368 -0.76201,0.335104 0,0.152738 -0.23812,0.277706 -0.52916,0.277706 -0.29104,0 -0.52917,0.153769 -0.52917,0.341708 0,0.187935 -0.23992,0.249636 -0.53317,0.137107 -0.37862,-0.145292 -0.47106,-0.04275 -0.31891,0.353744 0.19167,0.49947 0.35017,0.488474 1.50331,-0.104309 0.70898,-0.364455 2.16217,-1.199183 3.22933,-1.854951 z m -24.42986,-13.083731 c 0.24897,0.08927 0.44332,-0.123483 0.44637,-0.488643 0.004,-0.488886 0.0782,-0.531897 0.30368,-0.176205 0.2411,0.380329 0.33856,0.365587 0.50836,-0.0769 0.28095,-0.732148 -0.36728,-1.090034 -1.00928,-0.557219 -0.28255,0.234491 -0.51372,0.295783 -0.51372,0.136204 0,-0.159576 -0.18672,-0.103417 -0.41494,0.124802 -0.30301,0.303008 -0.54091,0.310388 -0.88194,0.02738 -0.51205,-0.424959 -0.61889,-0.04913 -0.25535,0.898222 0.14662,0.38209 0.3905,0.459796 0.79375,0.25291 0.32015,-0.164253 0.78053,-0.227492 1.02307,-0.140529 z m 3.66278,-1.718546 c 0.73019,-0.841908 0.84681,-1.162227 0.30015,-0.824368 -0.19723,0.121892 -0.78897,0.299664 -1.31497,0.395048 -1.15135,0.208777 -1.2896,0.322626 -0.98678,0.812606 0.37629,0.608845 1.29345,0.433218 2.0016,-0.383286 z m -6.04403,-0.651577 c 0,-0.194028 -0.07,-0.352778 -0.15557,-0.352778 -0.0856,0 -0.25369,0.15875 -0.3736,0.352778 -0.11992,0.194028 -0.0499,0.352778 0.15557,0.352778 0.20548,0 0.3736,-0.15875 0.3736,-0.352778 z m 33.7038,-11.41176 c -0.78192,-0.571754 -0.4456,-1.278702 0.62465,-1.313035 0.7452,-0.0239 0.74762,-0.03567 0.0674,-0.327983 -0.96244,-0.413575 -1.31665,-0.417962 -1.0665,-0.01321 0.12012,0.194362 -0.24781,0.307504 -0.86042,0.264584 -0.67954,-0.04761 -1.07252,-0.268179 -1.0764,-0.604153 -0.004,-0.354031 -0.0919,-0.396727 -0.26528,-0.129004 -0.14255,0.220089 -0.57668,0.479486 -0.96473,0.576438 -0.64052,0.160027 -0.63239,0.180049 0.0882,0.217199 0.43656,0.02251 0.79375,0.199672 0.79375,0.3937 0,0.430829 0.78405,0.309634 1.14113,-0.176389 0.14636,-0.199215 0.26153,-0.08404 0.26458,0.264583 0.003,0.339549 0.17352,0.617361 0.379,0.617361 0.20548,0 0.27548,0.15875 0.15557,0.352778 -0.12068,0.195262 0.1364,0.352778 0.57577,0.352778 0.75235,0 0.75984,-0.02484 0.14331,-0.475649 z m -5.159,-2.699351 c -0.0128,-0.348917 -0.12267,-0.288833 -0.32258,0.176389 -0.41675,0.969816 -0.41675,1.52681 0,0.881944 0.18808,-0.291041 0.33325,-0.767291 0.32258,-1.058333 z m -1.00315,-1.499306 c 0.28195,-0.242534 0.45016,-0.40687 0.37382,-0.36519 -0.0763,0.04168 -0.43543,-0.08297 -0.79797,-0.276995 -0.54334,-0.290789 -0.65917,-0.226619 -0.65917,0.36519 0,0.822072 0.34664,0.910707 1.08332,0.276995 z m 4.20835,-0.04705 c 0,-0.268412 -0.29105,-0.564131 -0.64676,-0.657153 -0.37594,-0.09831 -0.64676,0.0181 -0.64676,0.277998 0,0.252165 0.23033,0.358743 0.52824,0.244425 0.34339,-0.131771 0.43898,-0.05828 0.27316,0.210023 -0.1403,0.227001 -0.087,0.412729 0.11852,0.412729 0.20548,0 0.3736,-0.21961 0.3736,-0.488022 z m -12.51428,-2.618847 c -0.10862,-0.108616 -0.39328,-2.24e-4 -0.63258,0.240871 -0.34581,0.348409 -0.30529,0.38893 0.19749,0.197483 0.34791,-0.132479 0.5437,-0.329738 0.43509,-0.438354 z m 4.65762,0.07151 c -0.11723,-0.117225 -0.4215,-0.129758 -0.67616,-0.02785 -0.28142,0.112616 -0.19783,0.196209 0.21314,0.213137 0.37188,0.01532 0.58025,-0.06806 0.46302,-0.185287 z m 29.76051,-1.291169 c -0.18749,-0.49313 -0.53003,-1.01349 -0.7612,-1.15636 -0.44001,-0.27195 -0.42834,-0.2282 0.35722,1.33924 0.59342,1.18406 0.87519,1.056505 0.40398,-0.18288 z m -1.79552,0.26958 c -0.24155,-0.29104 -0.69755,-0.52354 -1.01333,-0.51666 -0.39508,0.009 -0.29908,0.16976 0.30777,0.51666 1.13213,0.647184 1.24267,0.647184 0.70556,0 z m -38.08475,-1.64609 c -0.43944,-0.35583 -0.97982,-0.64134 -1.20086,-0.63446 -0.22104,0.007 -0.005,0.23937 0.48005,0.51667 0.48507,0.27729 0.67414,0.50979 0.42016,0.51666 -0.25399,0.007 -0.36797,0.16432 -0.25329,0.34987 0.11468,0.18556 0.466,0.23857 0.7807,0.1178 0.49328,-0.18929 0.46201,-0.30881 -0.22676,-0.86654 z m 38.43753,0.0586 c 0,-0.19402 -0.35719,-0.35034 -0.79375,-0.34737 -0.64186,0.004 -0.69249,0.0708 -0.26459,0.34737 0.68395,0.44201 1.05834,0.44201 1.05834,0 z m -41.06082,-2.9884 c -0.10722,-0.7305 -0.56696,-1.1202 -0.56696,-0.48058 0,0.46179 0.29953,0.99954 0.55675,0.99954 0.0475,0 0.0521,-0.23353 0.0102,-0.51896 z m -6.56418,-5.12548 c 0,-0.38806 -0.0609,-0.70556 -0.13525,-0.70556 -0.0744,0 -0.21827,0.3175 -0.31975,0.70556 -0.10148,0.38805 -0.0406,0.70555 0.13525,0.70555 0.17586,0 0.31975,-0.3175 0.31975,-0.70555 z m -0.70556,-0.75912 c 0,-0.17902 -0.31576,-0.15505 -0.70555,0.0536 -0.38806,0.20768 -0.70556,0.43653 -0.70556,0.50855 0,0.072 0.3175,0.0479 0.70556,-0.0536 0.38805,-0.10147 0.70555,-0.33032 0.70555,-0.50855 z m -8.9269,32.689934 c 0.32268,-0.676663 0.64932,-1.167663 0.72586,-1.091117 0.16138,0.161382 -0.90953,2.321408 -1.15092,2.321408 -0.0889,0 0.10238,-0.553632 0.42506,-1.230291 z m 2.10267,-4.253703 c 0.10746,-0.280045 0.3375,-0.421344 0.5112,-0.313993 0.43748,0.270379 0.39721,0.399598 -0.19539,0.626999 -0.341,0.130852 -0.44615,0.02663 -0.31581,-0.313006 z m 2.23812,-8.274339 c 0,-0.194028 0.16812,-0.352778 0.3736,-0.352778 0.20548,0 0.27548,0.15875 0.15557,0.352778 -0.11992,0.194028 -0.28804,0.352778 -0.3736,0.352778 -0.0856,0 -0.15557,-0.15875 -0.15557,-0.352778 z m 35.12172,-5.964323 c -0.10873,-0.175933 0.12002,-0.236792 0.50835,-0.135244 0.82373,0.215411 0.92786,0.455123 0.19769,0.455123 -0.27959,0 -0.5973,-0.143946 -0.70604,-0.319879 z m 3.97047,-0.626664 c 0.25466,-0.101908 0.55893,-0.08938 0.67616,0.02785 0.11722,0.117226 -0.0911,0.200604 -0.46303,0.185286 -0.41096,-0.01693 -0.49455,-0.100521 -0.21313,-0.213136 z m -12.82887,-2.198327 c 0.10968,-0.177455 -2e-5,-0.403048 -0.24376,-0.501315 -0.26736,-0.107789 -0.19826,-0.189713 0.17419,-0.206523 0.33955,-0.0153 0.61736,0.210277 0.61736,0.501319 0,0.291041 -0.16812,0.529166 -0.3736,0.529166 -0.20548,0 -0.28386,-0.145191 -0.17419,-0.322647 z m 2.21686,-0.763968 c 0.12474,-0.47702 0.28465,-0.63693 0.37272,-0.37272 0.0848,0.25451 -0.0135,0.630466 -0.21848,0.835466 -0.26178,0.261785 -0.30769,0.124049 -0.15424,-0.462746 z m -4.373,-0.41269 c 3.5e-4,-0.24253 0.29368,-0.74893 0.65177,-1.12533 0.63725,-0.66984 0.64274,-0.6605 0.25877,0.44098 -0.39227,1.12524 -0.91186,1.515767 -0.91054,0.68435 z m 19.45794,-1.31816 c 0.18236,-0.29508 -0.0911,-0.39891 -0.92757,-0.35223 -1.73004,0.0965 -1.77934,0.0679 -1.32986,-0.77194 l 0.41029,-0.76664 -0.93124,0.73252 c -0.54365,0.42763 -1.22315,0.65617 -1.6326,0.5491 -0.77917,-0.20376 -0.94667,-1.01305 -0.26039,-1.25815 0.24253,-0.0866 0.32288,-0.28408 0.17855,-0.43881 -0.14433,-0.15472 -0.55371,-0.0177 -0.90972,0.30448 -0.7472,0.67621 -1.28139,0.77809 -0.90747,0.17307 0.17151,-0.27751 0.0628,-0.33892 -0.33196,-0.18746 -0.32287,0.1239 -0.58704,0.0765 -0.58704,-0.10536 0,-0.18185 -0.27781,-0.22933 -0.61736,-0.1055 -0.58745,0.21423 -0.58741,0.19094 7.1e-4,-0.48067 0.33997,-0.3882 0.51195,-0.81199 0.38217,-0.94177 -0.12971,-0.12977 -0.0507,-0.23595 0.17568,-0.23595 0.22637,0 0.41158,-0.23366 0.41158,-0.51924 0,-0.40901 -0.33701,-0.34005 -1.5875,0.32484 -1.29882,0.69059 -1.96901,0.72287 -1.49931,0.0722 0.0485,-0.0672 -0.14993,-0.41517 -0.44097,-0.77327 -0.29104,-0.35811 -0.34878,-0.54305 -0.1283,-0.41097 0.23318,0.13969 0.48066,-0.065 0.59162,-0.48931 0.14857,-0.56815 0.0599,-0.6841 -0.40086,-0.52434 -0.51379,0.17814 -0.50932,0.14109 0.034,-0.28161 0.59892,-0.466 0.59892,-0.49611 0,-0.70665 -0.34407,-0.12095 -0.86371,-0.30916 -1.15475,-0.41824 -0.35421,-0.13275 -0.32162,-0.0298 0.0986,0.31129 0.57902,0.47005 0.58194,0.52717 0.0377,0.73602 -0.32452,0.12453 -0.67314,0.1433 -0.77472,0.0417 -0.1016,-0.10158 0.0118,-0.18469 0.25206,-0.18469 0.30612,0 0.27848,-0.1583 -0.0924,-0.52917 -0.29104,-0.29104 -0.70863,-0.52917 -0.92797,-0.52917 -0.21933,0 -0.31096,-0.14211 -0.20361,-0.31581 0.10735,-0.1737 -0.0503,-0.41 -0.35028,-0.52512 -0.3,-0.11513 -0.45765,-0.0672 -0.35032,0.10643 0.10733,0.17366 -0.18837,0.13476 -0.65712,-0.0864 -0.46874,-0.22121 -0.77707,-0.52387 -0.68517,-0.67257 0.27496,-0.44488 -0.75464,-0.30538 -1.25919,0.17061 -0.35894,0.33861 -0.5036,0.34271 -0.62323,0.0177 -0.10945,-0.29735 -0.41123,-0.32619 -1.01424,-0.0969 -0.81018,0.30803 -1.00922,0.20172 -0.89147,-0.47613 0.0278,-0.15994 -0.11476,-0.18866 -0.31676,-0.0638 -0.202,0.12484 -0.27594,0.37477 -0.16431,0.55539 0.30742,0.4974 -0.009,0.40535 -1.70173,-0.49447 -1.3443,-0.71477 -1.50958,-0.92567 -1.25814,-1.60538 0.17819,-0.48171 0.15967,-0.70229 -0.0482,-0.57383 -0.18571,0.11478 -0.81069,-0.0359 -1.38884,-0.33489 -1.40991,-0.7291 -1.67591,-0.68454 -0.91735,0.15365 0.34705,0.38348 0.76853,0.61224 0.93662,0.50835 0.1681,-0.10389 0.45745,-0.0951 0.643,0.0196 0.40185,0.24835 0.0849,1.24424 -0.39593,1.24424 -0.18472,0 -0.24802,-0.14212 -0.14067,-0.31581 0.2498,-0.4042 -0.7056,-0.77928 -1.35258,-0.53101 -0.27142,0.10415 -0.61345,-0.005 -0.76007,-0.24197 -0.16441,-0.26603 -0.11983,-0.34064 0.11633,-0.19469 0.2106,0.13016 0.48255,0.0754 0.60432,-0.12159 0.12178,-0.19704 -0.35245,-0.69684 -1.05383,-1.11066 -0.70138,-0.41383 -1.20205,-0.94312 -1.11261,-1.17621 0.0894,-0.23309 -0.0534,-0.4238 -0.31739,-0.4238 -0.26401,0 -0.39585,0.17198 -0.29298,0.38217 0.10287,0.2102 -0.0629,0.074 -0.3683,-0.30261 -0.36673,-0.45223 -0.55532,-0.52211 -0.55532,-0.20578 0,0.5728 -0.52213,0.13061 -0.54521,-0.46174 -0.009,-0.22637 -0.20725,-0.37189 -0.44097,-0.32338 -0.23371,0.0485 -0.42493,-0.052 -0.42493,-0.22344 0,-0.1714 -0.35719,-0.40163 -0.79375,-0.51162 -0.722,-0.18191 -0.73794,-0.1582 -0.17639,0.26233 0.8862,0.66364 0.76175,1.01791 -0.17639,0.5021 -0.43656,-0.24003 -1.01599,-0.47318 -1.2876,-0.51812 -0.27162,-0.0449 -0.58912,-0.22489 -0.70556,-0.39989 -0.11644,-0.17501 -0.50686,-0.47939 -0.86761,-0.67642 -0.59794,-0.32656 -0.55017,-0.42357 0.54052,-1.09766 1.79075,-1.10675 4.22017,-1.55375 6.12474,-1.12693 0.8798,0.19717 4.41329,1.86262 7.85221,3.70101 6.87868,3.67723 12.0213,6.06326 22.07388,10.24168 5.68732,2.36396 6.53363,2.81123 5.82084,3.07625 -0.45873,0.17057 -1.2229,0.23643 -1.69815,0.14637 -0.47525,-0.0901 -1.269,6.4e-4 -1.76389,0.20152 -0.49489,0.2009 -1.31611,0.34271 -1.82494,0.31513 -0.50882,-0.0276 -1.13077,0.19763 -1.38209,0.50047 -0.59946,0.7223 -1.94349,1.46379 -1.57626,0.86961 z m 1.23766,-0.92444 c 0,-0.0763 -0.32687,-0.13865 -0.72638,-0.13865 -0.39951,0 -0.63255,0.15182 -0.51787,0.33737 0.18825,0.30459 1.24425,0.13593 1.24425,-0.19872 z m -1.15402,-1.76304 c -0.24691,-0.2469 -1.31543,0.25364 -1.31543,0.61621 0,0.18021 0.33084,0.15039 0.73577,-0.0663 0.40468,-0.21658 0.66552,-0.46402 0.57966,-0.54989 z m -4.49043,-0.64784 c 0,-0.0856 -0.15875,-0.25369 -0.35277,-0.3736 -0.19403,-0.11992 -0.35278,-0.0499 -0.35278,0.15557 0,0.20548 0.15875,0.37359 0.35278,0.37359 0.19402,0 0.35277,-0.07 0.35277,-0.15556 z m -4.20663,-1.49458 0.85524,-0.94459 -1.14652,0.79222 c -1.15703,0.79948 -1.38896,1.09696 -0.85525,1.09696 0.16021,0 0.67614,-0.42507 1.14653,-0.94459 z m -17.66559,-8.93319 c 0,-0.19403 -0.07,-0.35278 -0.15557,-0.35278 -0.0856,0 -0.25368,0.15875 -0.3736,0.35278 -0.11991,0.19403 -0.0499,0.35278 0.15557,0.35278 0.20548,0 0.3736,-0.15875 0.3736,-0.35278 z m 2.82222,12.88059 c 0,-0.12704 0.25525,-0.48623 0.56722,-0.7982 0.5211,-0.5211 0.55695,-0.51426 0.44097,0.0842 -0.11677,0.60251 -1.00819,1.23384 -1.00819,0.71404 z m -2.64333,-1.58766 c -0.12359,-0.19998 0.018,-0.25912 0.33195,-0.13865 0.61116,0.23453 0.72298,0.48739 0.21554,0.48739 -0.18258,0 -0.42895,-0.15693 -0.54749,-0.34874 z m -1.43125,-0.68198 c -0.18433,-0.17884 -0.89052,-0.46668 -1.56932,-0.63965 -0.7492,-0.1909 -1.28238,-0.56474 -1.35683,-0.95134 -0.0755,-0.39217 0.0259,-0.54503 0.26404,-0.39786 0.21724,0.13426 0.38669,-0.002 0.38669,-0.311 0,-0.30249 0.14389,-0.54999 0.31975,-0.54999 0.17587,0 0.23024,0.34233 0.12082,0.76072 -0.1363,0.52121 -0.0704,0.68126 0.20942,0.50835 0.22459,-0.13881 0.40835,-0.0892 0.40835,0.11015 0,0.19939 0.26416,0.26116 0.58703,0.13726 0.38261,-0.14682 0.50202,-0.0877 0.3429,0.16976 -0.28338,0.45852 0.95729,1.23455 1.3733,0.85899 0.15363,-0.1387 0.16513,-0.0537 0.0256,0.1888 -0.30137,0.5237 -0.6535,0.56038 -1.11171,0.11581 z m 14.65792,-3.02623 c 0,-0.29104 0.0624,-0.52916 0.13864,-0.52916 0.0763,0 0.23002,0.23812 0.34171,0.52916 0.11168,0.29104 0.0493,0.52917 -0.13865,0.52917 -0.18794,0 -0.3417,-0.23813 -0.3417,-0.52917 z m -1.05834,-1.25554 c 0,-0.20548 0.15875,-0.27548 0.35278,-0.15557 0.19403,0.11992 0.35278,0.28804 0.35278,0.3736 0,0.0856 -0.15875,0.15557 -0.35278,0.15557 -0.19403,0 -0.35278,-0.16812 -0.35278,-0.3736 z"
         id="path2288" />
      <path
         style="fill:#b7a089;stroke-width:0.352778"
         d="m -326.66629,-59.612965 c -9.16015,-4.820776 -15.05034,-11.536952 -13.18115,-15.029551 0.35727,-0.667568 4.83227,-2.542472 9.35144,-3.918009 1.35819,-0.413403 3.46463,-1.278559 4.68097,-1.922565 2.18799,-1.158463 2.20312,-1.176818 1.42081,-1.724766 -1.00806,-0.706071 -0.52405,-0.729393 0.54879,-0.02646 0.73248,0.47994 0.87288,0.464072 1.56033,-0.176389 0.41549,-0.387068 0.88954,-0.703771 1.05346,-0.703771 0.16392,0 0.96586,-0.491126 1.7821,-1.091395 l 1.48407,-1.091396 -1.10367,-1.39349 c -1.21706,-1.536661 -1.91182,-1.614396 -1.8832,-0.2107 0.0154,0.75414 -0.0868,0.8587 -0.5809,0.594282 -0.47457,-0.253986 -0.64574,-0.136881 -0.82108,0.561739 -0.17555,0.699449 -0.34784,0.816987 -0.83021,0.566385 -0.33478,-0.173927 -0.92619,-0.197041 -1.31425,-0.05137 -0.38805,0.145672 -0.90399,0.106288 -1.14653,-0.08752 -0.30278,-0.241953 -0.44097,-0.221767 -0.44097,0.06442 0,0.229238 -0.18502,0.302443 -0.41117,0.16268 -0.23991,-0.148276 -0.76723,0.173651 -1.26605,0.772929 -0.54342,0.65285 -0.71947,0.75475 -0.48319,0.279679 0.41095,-0.82628 0.21421,-1.195698 -0.63241,-1.18751 -0.48946,0.0047 -0.4931,0.04771 -0.0294,0.347376 0.36464,0.235649 0.38971,0.343655 0.0806,0.347377 -0.24669,0.0028 -0.62936,-0.391474 -0.85038,-0.876543 -0.22101,-0.48507 -0.50865,-0.881945 -0.63919,-0.881945 -0.5408,0 -0.67307,0.498789 -0.2637,0.994357 0.38593,0.467177 0.34476,0.472095 -0.34681,0.04143 -0.64692,-0.402862 -0.69338,-0.539793 -0.26458,-0.779763 0.28608,-0.160094 0.52014,-0.521321 0.52014,-0.802721 0,-0.2814 0.16812,-0.511637 0.3736,-0.511637 0.20548,0 0.28463,0.143944 0.1759,0.319878 -0.10873,0.175933 0.13344,0.233285 0.53817,0.127444 0.55941,-0.146286 0.62297,-0.263994 0.26507,-0.490862 -0.42377,-0.268626 -0.17086,-0.453249 0.48665,-0.355247 0.13854,0.02064 0.14909,-0.230336 0.0235,-0.557745 -0.14347,-0.373892 -0.28089,-0.437921 -0.36948,-0.172159 -0.0776,0.232724 -0.29594,0.423135 -0.48524,0.423135 -0.18931,0 -0.22499,-0.198437 -0.0793,-0.440972 0.21132,-0.351744 0.15543,-0.352365 -0.27622,-0.0032 -0.64609,0.522831 -1.02627,0.248906 -0.77807,-0.560595 0.14932,-0.486989 0.11317,-0.480854 -0.21978,0.03728 -0.21918,0.341086 -0.31033,0.762843 -0.20254,0.937238 0.10778,0.174396 -0.13985,0.229267 -0.5503,0.121935 -0.64759,-0.169351 -0.67097,-0.237286 -0.17687,-0.5138 0.60798,-0.34024 0.78187,-1.874513 0.24973,-2.203394 -0.17582,-0.108659 -0.23668,-0.5149 -0.13525,-0.902764 0.12424,-0.47499 0.0106,-0.705091 -0.34815,-0.705091 -0.29291,0 -0.61638,-0.218394 -0.7188,-0.485319 -0.11218,-0.292328 0.0331,-0.467685 0.36526,-0.440973 0.30332,0.02439 0.62149,-0.15409 0.70705,-0.396625 0.0856,-0.242534 -0.0738,-0.440972 -0.35408,-0.440972 -0.35419,0 -0.45792,-0.270601 -0.34006,-0.887158 0.24477,-1.280428 0.64505,-1.377198 2.06546,-0.499336 1.22052,0.754321 1.30264,0.760234 2.51685,0.181219 l 1.25516,-0.598546 -1.80223,-1.213695 c -2.60111,-1.75169 -3.67744,-3.762824 -3.87921,-7.248374 -0.155,-2.67756 -0.13634,-2.75903 0.59965,-2.61729 0.41779,0.0805 0.68649,0.028 0.59709,-0.11669 -0.0894,-0.14464 -0.0399,-0.46136 0.10991,-0.70382 0.20698,-0.33489 0.39213,-0.29337 0.77048,0.17276 0.32125,0.3958 0.34151,0.51955 0.0571,0.34866 -0.30237,-0.18166 -0.43927,-0.009 -0.43557,0.54964 0.004,0.65533 0.0722,0.71113 0.34738,0.2854 0.30397,-0.47037 0.34721,-0.47037 0.38915,0 0.0259,0.29104 0.0206,0.67159 -0.0119,0.84566 -0.0325,0.17408 0.38527,0.0273 0.92836,-0.32619 0.60172,-0.39164 0.82769,-0.44637 0.57848,-0.14011 -0.3168,0.38934 -0.25915,0.78081 0.25587,1.73731 0.55603,1.03267 0.65181,1.09676 0.58535,0.39166 -0.0437,-0.46368 0.12392,-0.91512 0.37252,-1.00321 0.2486,-0.0881 0.40735,0.0494 0.35278,0.30552 -0.0546,0.25612 0.25796,0.52017 0.69453,0.58677 0.54563,0.0832 0.79206,0.36156 0.78834,0.89032 -0.004,0.62598 -0.0691,0.67068 -0.34737,0.24005 -0.29225,-0.45222 -0.34276,-0.4394 -0.34738,0.0882 -0.003,0.33954 0.15335,0.61736 0.34738,0.61736 0.19403,0 0.35278,0.15376 0.35278,0.3417 0,0.18794 -0.27262,0.2371 -0.60581,0.10924 -0.53711,-0.20611 -0.54711,-0.16905 -0.0882,0.32682 0.28468,0.30761 0.64697,0.48084 0.80508,0.38496 0.59374,-0.36005 2.66723,0.28434 2.82296,0.8773 0.14779,0.562703 0.16202,0.561881 0.20003,-0.0115 0.0558,-0.84171 0.74648,-0.78731 0.74648,0.0588 0,0.371886 0.19844,0.756229 0.44097,0.854093 0.31951,0.128923 0.30464,0.185608 -0.054,0.205788 -0.33218,0.01869 -0.23019,0.257479 0.31011,0.726083 0.85357,0.740294 1.59535,0.62148 1.27829,-0.20475 -0.22,-0.573319 0.0961,-0.625846 0.84682,-0.140705 0.29105,0.188086 0.37042,0.346836 0.17639,0.352778 -0.19402,0.0059 -0.11465,0.167123 0.17639,0.35818 0.47037,0.308778 0.47037,0.385973 0,0.694751 -0.45302,0.297388 -0.44033,0.348153 0.0882,0.352778 0.42082,0.0037 0.61736,-0.268731 0.61736,-0.855723 0,-0.938871 0.52441,-1.481269 0.87839,-0.908518 0.12187,0.197193 0.0535,0.358532 -0.15202,0.358532 -0.20548,0 -0.37359,0.153768 -0.37359,0.341706 0,0.187938 0.26416,0.240335 0.58703,0.116438 0.36574,-0.140347 0.5002,-0.08475 0.35667,0.147489 -0.12671,0.205016 0.0457,0.589181 0.3831,0.8537 0.55515,0.435222 0.56744,0.422253 0.1293,-0.136416 -0.4278,-0.545499 -0.3983,-0.617362 0.25352,-0.617362 0.48216,0 0.67299,0.168578 0.55091,0.486694 -0.10357,0.26991 0.25492,0.844445 0.80483,1.289869 0.54537,0.441747 0.71377,0.703967 0.37422,0.582712 -0.4078,-0.145626 -0.61736,-0.04459 -0.61736,0.297631 0,0.284952 0.3175,0.518094 0.70555,0.518094 1.06421,0 1.23278,-0.11962 1.11858,-0.79375 -0.1429,-0.843501 0.54476,-0.784383 0.81597,0.07015 0.23763,0.74869 1.35954,1.260064 2.47518,1.128199 0.4957,-0.05859 0.57191,0.0077 0.25624,0.222949 -0.34641,0.236189 -0.28583,0.454294 0.26459,0.952407 0.39263,0.355335 0.71871,0.978648 0.72462,1.385138 0.009,0.644819 0.0542,0.664525 0.35194,0.154522 0.50509,-0.865285 1.84478,-0.433624 1.54877,0.499028 -0.21481,0.676808 -0.18771,0.682823 0.59776,0.132659 1.02484,-0.717824 1.40959,-0.733646 1.14615,-0.04713 -0.11169,0.291042 -0.46389,0.541701 -0.78268,0.557019 -0.38419,0.01845 -0.42693,0.08918 -0.12678,0.20974 0.24905,0.100037 0.71143,-0.03154 1.0275,-0.292435 0.45051,-0.371835 0.60675,-0.379042 0.7231,-0.03334 0.0816,0.242535 0.38268,0.440973 0.669,0.440973 0.30764,0 0.41625,0.168828 0.26551,0.412728 -0.17747,0.287165 -0.0529,0.335153 0.4094,0.157745 0.36546,-0.140243 0.55163,-0.142141 0.41371,-0.0042 -0.43358,0.433581 0.49465,1.197395 1.462,1.203032 0.72804,0.0042 0.81339,0.07878 0.39778,0.347377 -0.45343,0.293028 -0.44177,0.342748 0.0815,0.347377 0.37728,0.0032 0.69188,0.376149 0.82321,0.97554 0.11692,0.533576 0.26978,1.158321 0.33969,1.388318 0.0699,0.23 -0.0624,0.495278 -0.29405,0.589509 -0.31302,0.127339 -0.30793,0.178484 0.0198,0.199182 0.24254,0.01531 0.44874,0.464414 0.45822,0.997991 0.017,0.954987 0.21292,0.520378 2.30726,-5.117532 0.30679,-0.82586 0.68639,-1.422083 0.84357,-1.324946 0.35709,0.220698 0.7856,-0.826717 0.51642,-1.262274 -0.10911,-0.176551 -0.0209,-0.320975 0.19605,-0.320975 0.21693,0 0.29631,-0.15875 0.17639,-0.352777 -0.11991,-0.194028 0.0125,-0.352778 0.29421,-0.352778 0.28174,0 0.60363,-0.238125 0.71531,-0.529167 0.11168,-0.291041 0.0399,-0.529166 -0.15947,-0.529166 -0.19939,0 -0.26281,-0.16134 -0.14094,-0.358533 0.12187,-0.197192 0.36755,-0.268322 0.54595,-0.158066 0.1784,0.110256 0.23598,-0.02985 0.12796,-0.31134 -0.10802,-0.281493 -0.002,-0.631766 0.23494,-0.778385 0.29399,-0.181699 0.34046,-0.119542 0.14593,0.195212 -0.19453,0.314755 -0.14806,0.376912 0.14593,0.195213 0.23724,-0.146619 0.34296,-0.496892 0.23494,-0.778385 -0.10802,-0.281493 -0.0575,-0.425934 0.11237,-0.320979 0.16982,0.104955 0.50493,-0.04555 0.74471,-0.334455 0.23977,-0.288905 0.30181,-0.525282 0.13786,-0.525282 -0.16394,0 0.0548,-0.247127 0.48597,-0.549171 0.43123,-0.302044 0.79342,-0.738606 0.80486,-0.970139 0.0311,-0.629416 4.18818,-3.963105 5.75491,-4.615045 3.85087,-1.60241 5.91775,0.0406 5.80891,4.61753 l -0.057,2.398769 -0.21225,-2.469444 c -0.40055,-4.660285 -2.09233,-5.773545 -5.89452,-3.878835 -1.73469,0.86443 -3.79164,2.644112 -3.05606,2.644112 0.20409,0 0.57833,-0.249727 0.83164,-0.55495 1.41656,-1.706842 5.35181,-2.503712 6.40572,-1.297132 0.92871,1.063256 1.43091,3.244649 1.22916,5.339061 -0.1351,1.402444 -0.0981,1.723479 0.12683,1.099132 0.3037,-0.843149 0.31179,-0.836304 0.18387,0.155603 -0.0736,0.57065 0.10618,1.403798 0.39949,1.851441 1.83996,2.80813 -3.67536,12.456845 -7.12048,12.456845 -0.30411,0 -2.49481,1.528936 -4.86821,3.397635 -4.11444,3.239505 -9.52627,7.045222 -7.66666,5.391372 l 0.88194,-0.784363 -0.88194,0.26143 c -0.48507,0.143785 -1.15639,0.257859 -1.49181,0.253499 -0.33543,-0.0044 -0.57355,0.180389 -0.52917,0.410556 0.045,0.233115 -0.21398,0.367693 -0.58456,0.303822 -0.4709,-0.08116 -0.60568,0.04061 -0.46132,0.4168 0.24221,0.631183 -0.92602,0.512974 -1.75852,-0.177937 -0.41465,-0.344124 -0.58743,-0.328948 -0.85241,0.07487 -0.2798,0.426409 -0.39205,0.404989 -0.70997,-0.135492 -0.36517,-0.620783 -0.39336,-0.620783 -0.85401,0 -0.40367,0.543991 -0.58734,0.574213 -1.20342,0.198014 -1.05306,-0.643043 -0.89337,0.08552 0.20876,0.952462 0.51469,0.404858 0.82356,0.848342 0.68638,0.985527 -0.13719,0.137184 -0.39712,0.01591 -0.57762,-0.269523 -0.18051,-0.285421 -0.33764,-0.3602 -0.34919,-0.166172 -0.0115,0.194028 -0.34113,-0.253961 -0.73241,-0.995528 -0.62054,-1.176063 -0.78472,-1.288733 -1.28519,-0.881945 -0.4902,0.398445 -0.54252,0.382849 -0.35924,-0.107092 0.14574,-0.389591 -0.0657,-0.701129 -0.65939,-0.971642 -0.48066,-0.219001 -0.77735,-0.55444 -0.65932,-0.74542 0.12781,-0.206801 -0.0353,-0.25135 -0.40324,-0.110147 -0.37977,0.145732 -0.4548,0.29144 -0.19471,0.378135 0.23272,0.07758 0.41886,0.405631 0.41364,0.729008 -0.007,0.40749 -0.32852,0.208965 -1.04884,-0.646758 -0.57164,-0.679097 -1.04362,-1.068035 -1.04884,-0.864305 -0.005,0.203729 0.18101,0.560916 0.41384,0.79375 0.32926,0.329258 0.3183,0.423333 -0.0493,0.423333 -0.25995,0 -0.69344,-0.277813 -0.96331,-0.617361 -0.46012,-0.578919 -0.48506,-0.573426 -0.40048,0.08819 0.0496,0.388056 -0.0436,0.919071 -0.2071,1.180031 -0.22805,0.363944 -0.43929,0.258036 -0.9068,-0.454638 -0.56754,-0.86517 -0.64359,-0.887095 -1.105,-0.318562 -0.42544,0.524217 -0.42545,0.568325 -3e-5,0.311936 0.34741,-0.209377 0.41536,-0.168973 0.22737,0.135202 -0.19712,0.318943 -0.51232,0.21661 -1.19036,-0.386464 -0.50724,-0.451157 -0.72527,-0.561859 -0.48452,-0.24601 0.36753,0.482177 0.31892,0.605342 -0.30312,0.768008 -0.5426,0.141894 -0.68916,0.05902 -0.54768,-0.309686 0.28275,-0.736829 -0.3794,-0.614249 -1.21939,0.225732 -0.57962,0.579628 -0.64311,0.832841 -0.30958,1.234722 0.23077,0.27806 0.57833,0.505563 0.77236,0.505563 0.19403,0 0.14957,-0.244853 -0.0988,-0.544118 -0.30373,-0.365968 -0.33504,-0.660657 -0.0956,-0.900059 0.2394,-0.239402 0.52612,-0.09013 0.87573,0.455923 0.75664,1.181816 1.02384,2.046587 0.63236,2.046587 -0.18794,0 -0.34171,-0.342103 -0.34171,-0.760233 0,-0.73486 -0.0233,-0.739175 -0.69724,-0.12924 -0.38348,0.347045 -0.60571,0.779085 -0.49384,0.960092 0.11187,0.181007 -0.0903,0.557054 -0.44929,0.835664 -0.6262,0.486004 -0.62406,0.497085 0.0529,0.273095 0.38806,-0.128404 0.58932,-0.105163 0.44726,0.05164 -0.14206,0.156806 -0.69769,0.301162 -1.23472,0.320791 -0.61126,0.02233 -0.94018,0.210411 -0.87949,0.502881 0.0533,0.256956 -0.0658,0.366649 -0.26459,0.243763 -0.41452,-0.256191 -0.49583,-1.261333 -0.0969,-1.198348 0.70318,0.11103 1.16622,-0.07729 0.97014,-0.394554 -0.11992,-0.194027 0.0295,-0.352777 0.33195,-0.352777 0.7185,0 0.7363,-1.616911 0.0208,-1.891464 -0.6274,-0.240753 -0.65353,-0.08347 -0.15693,0.944516 0.35958,0.744354 0.35358,0.747272 -0.17639,0.08577 -0.30175,-0.376632 -0.55106,-0.535382 -0.55403,-0.352777 -0.003,0.182604 -0.15929,0.09388 -0.34738,-0.197157 -0.28763,-0.445082 -0.34283,-0.424205 -0.34737,0.131388 -0.005,0.563478 -0.0878,0.592191 -0.56593,0.195361 -0.4754,-0.394546 -0.54237,-0.377302 -0.44098,0.113542 0.0658,0.318304 -0.19794,0.828005 -0.586,1.132664 -0.38805,0.304662 -0.52488,0.511944 -0.30406,0.460625 0.22081,-0.05132 0.89186,0.519254 1.4912,1.267936 0.86968,1.086369 1.01762,1.495969 0.73263,2.028472 -0.1964,0.366978 -0.43647,0.667234 -0.53348,0.667234 -0.097,0 -0.006,-0.3175 0.20121,-0.705556 0.34688,-0.648144 0.23187,-0.849961 -0.42827,-0.751565 -0.13854,0.02064 -0.16124,-0.198673 -0.0504,-0.48739 0.11079,-0.288714 0.0364,-0.524934 -0.16532,-0.524934 -0.20171,0 -0.46825,-0.319803 -0.5923,-0.710678 -0.12406,-0.390874 -0.36011,-0.627524 -0.52456,-0.525889 -0.16445,0.101632 -0.76678,-0.382718 -1.33852,-1.076335 -0.93299,-1.131884 -1.05835,-1.189154 -1.22318,-0.558839 -0.11431,0.437123 -0.0322,0.644295 0.21739,0.548696 0.23024,-0.08818 0.42394,0.243205 0.45479,0.77803 0.0296,0.512396 0.26769,1.084616 0.52917,1.271598 0.35458,0.253559 0.31263,0.287243 -0.16501,0.132525 -0.5308,-0.171937 -0.59815,-0.07195 -0.39342,0.584084 0.13585,0.435341 0.42404,0.908162 0.64043,1.050713 0.27958,0.184182 0.26941,0.260745 -0.0351,0.264583 -0.23571,0.0028 -0.61797,-0.348509 -0.84947,-0.781067 -0.23149,-0.432559 -0.6534,-1.018974 -0.93757,-1.30314 -0.45371,-0.453708 -0.43617,-0.550619 0.14391,-0.795236 0.54159,-0.228391 0.50172,-0.263726 -0.22137,-0.196165 -0.5754,0.05376 -0.84825,-0.07998 -0.785,-0.384796 0.0533,-0.256956 -0.0468,-0.378365 -0.22247,-0.269797 -0.17566,0.10857 -0.39479,0.591816 -0.48694,1.07388 -0.0999,0.522824 -0.0273,0.789802 0.18003,0.661663 0.19117,-0.118149 0.27415,0.0057 0.18439,0.275258 -0.0898,0.269544 -0.45102,0.545867 -0.8028,0.614052 -0.45322,0.08785 -0.57931,-0.03313 -0.4327,-0.415177 0.11379,-0.296534 -0.0154,-0.723642 -0.2871,-0.949131 -0.40527,-0.336342 -0.45977,-0.261779 -0.30348,0.415181 0.10478,0.453834 0.20422,1.023592 0.22098,1.266126 0.0168,0.242535 0.16276,0.440972 0.32445,0.440972 0.16169,0 0.29398,0.178189 0.29398,0.395972 0,0.285221 -0.12848,0.289352 -0.45933,0.01478 -0.57881,-0.480371 -2.08307,-0.122397 -1.778,0.423118 0.12329,0.220475 0.004,0.195816 -0.26561,-0.0548 -0.41387,-0.385043 -0.41489,-0.501946 -0.007,-0.75431 0.26578,-0.164253 0.37254,-0.477735 0.23726,-0.696619 -0.13528,-0.218885 -0.37941,-0.315493 -0.54252,-0.214687 -0.16312,0.10081 -0.56233,0.08131 -0.88715,-0.04334 -0.40737,-0.156323 -0.46388,-0.304934 -0.18216,-0.479048 0.53127,-0.328341 -0.50705,-1.415521 -1.3446,-1.40788 -1.56255,0.01425 -1.57729,0.608831 -0.0491,1.983437 0.83311,0.749402 1.65886,1.31893 1.835,1.265615 0.17614,-0.05331 0.23062,0.0481 0.12107,0.225372 -0.3073,0.497216 3.89173,3.060975 6.90827,4.21792 2.385,0.914725 2.90607,0.998146 4.40972,0.70599 3.06835,-0.59617 6.24295,-1.672989 9.02529,-3.06136 3.12495,-1.559337 3.63038,-1.455 0.88194,0.182058 -3.00207,1.788132 -9.99916,4.382036 -11.72277,4.345774 -0.19793,-0.0042 -1.97025,-0.85508 -3.93849,-1.89092 z m -2.09053,-8.644869 c 0.10633,-0.172043 -0.0735,-0.52923 -0.39967,-0.79375 -0.40785,-0.330779 -0.51028,-0.34326 -0.32808,-0.03997 0.1578,0.262653 0.0782,0.443156 -0.19686,0.446373 -0.33556,0.0039 -0.31714,0.09888 0.0674,0.347377 0.65155,0.421065 0.62255,0.419714 0.85724,0.03997 z m 1.79793,-2.088508 c -0.10861,-0.108617 -0.39327,-2.26e-4 -0.63257,0.24087 -0.34582,0.34841 -0.3053,0.38893 0.19748,0.197485 0.34792,-0.132479 0.54371,-0.329738 0.43509,-0.438355 z m 24.85467,-0.601521 c 0.15712,0.0971 0.38349,-0.07833 0.50303,-0.389859 0.15221,-0.396635 0.0644,-0.507714 -0.29302,-0.370571 -0.2807,0.107717 -0.58747,0.0063 -0.6817,-0.225306 -0.0942,-0.231633 -0.17134,0.0551 -0.17134,0.637181 0,0.582083 0.0804,0.858908 0.17868,0.615163 0.0983,-0.243745 0.30722,-0.363717 0.46435,-0.266608 z m -11.81123,-0.877722 c -0.11991,-0.194028 -0.37677,-0.352778 -0.5708,-0.352778 -0.19403,0 -0.25467,0.15875 -0.13475,0.352778 0.11991,0.194028 0.37678,0.352778 0.5708,0.352778 0.19403,0 0.25467,-0.15875 0.13475,-0.352778 z m 5.82084,0 c 0,-0.194028 -0.27782,-0.350347 -0.61736,-0.347377 -0.5276,0.0046 -0.54042,0.05513 -0.0882,0.347377 0.66577,0.430251 0.70556,0.430251 0.70556,0 z m -10.40695,-1.058333 c -0.11991,-0.194028 -0.37678,-0.352778 -0.5708,-0.352778 -0.19403,0 -0.25467,0.15875 -0.13475,0.352778 0.11991,0.194027 0.37678,0.352777 0.5708,0.352777 0.19403,0 0.25467,-0.15875 0.13475,-0.352777 z m -9.21969,-12.764724 c -0.16197,-0.255443 -0.31678,-0.583505 -0.344,-0.729026 -0.0272,-0.145521 -0.0693,-0.349543 -0.0936,-0.453383 -0.0243,-0.10384 -0.3616,-0.01888 -0.74965,0.188799 -0.92709,0.496165 -0.91124,1.194411 0.0216,0.950472 0.45176,-0.118135 0.80227,0.0056 0.92552,0.326849 0.10912,0.284349 0.27405,0.441339 0.36653,0.348865 0.0925,-0.09247 0.0356,-0.377133 -0.12638,-0.632576 z m 2.82088,-0.111665 c 0.11168,-0.291042 0.0493,-0.529167 -0.13865,-0.529167 -0.18794,0 -0.3417,0.238125 -0.3417,0.529167 0,0.291042 0.0624,0.529167 0.13864,0.529167 0.0763,0 0.23002,-0.238125 0.34171,-0.529167 z m -1.53869,0.04319 c 0,-0.07325 -0.27781,-0.351067 -0.61736,-0.617361 -0.55952,-0.43881 -0.572,-0.426332 -0.13319,0.133195 0.46086,0.587639 0.75055,0.774516 0.75055,0.484166 z m 0.70556,-1.080706 c 0,-0.08556 -0.15875,-0.253683 -0.35278,-0.373599 -0.19403,-0.119916 -0.35278,-0.04991 -0.35278,0.155568 0,0.205479 0.15875,0.373598 0.35278,0.373598 0.19403,0 0.35278,-0.07 0.35278,-0.155567 z m 33.51389,-5.350465 c 0,-0.291968 -0.685,-0.457076 -0.84205,-0.202963 -0.10189,0.164855 0.0459,0.299736 0.3284,0.299736 0.2825,0 0.51365,-0.04355 0.51365,-0.09677 z m 3.81565,-4.792312 c 1.87872,-2.026747 3.9415,-3.15333 5.57262,-3.043488 1.77747,0.119706 2.34972,0.975172 2.62096,3.918115 0.15458,1.677257 0.2732,2.123704 0.348,1.309829 0.37552,-4.085758 -0.70559,-6.552736 -2.70607,-6.174956 -0.36043,0.0681 -0.9172,0.1359 -1.23727,0.15075 -0.32006,0.0148 -1.43046,0.66455 -2.46754,1.443799 -1.03708,0.779249 -1.93971,1.25451 -2.00583,1.056136 -0.0661,-0.198374 -0.28237,-0.260473 -0.48054,-0.137997 -0.23,0.142147 -0.19545,0.324576 0.0955,0.504411 0.33921,0.209639 0.13063,0.641705 -0.81516,1.68858 -0.69906,0.773769 -1.45162,1.778086 -1.67238,2.231815 -0.28498,0.585744 -0.16726,0.518072 0.40596,-0.233372 0.44402,-0.582083 1.4978,-1.803213 2.34172,-2.713622 z m 7.75293,0.9552 c -0.32791,-3.95423 -2.61208,-4.48414 -6.36511,-1.476664 -0.7276,0.583064 -1.32292,1.192297 -1.32292,1.353851 0,0.161554 0.31092,-0.01718 0.69092,-0.397183 0.8978,-0.897798 3.32558,-2.131304 4.19484,-2.131304 1.26981,0 2.22747,1.153887 2.42703,2.924338 0.2609,2.314679 0.57112,2.088955 0.37524,-0.273038 z m -1.54428,-1.273188 c -0.33476,-0.369906 -0.98881,-0.672556 -1.45344,-0.672556 -0.92072,0 -3.1024,0.999947 -2.81303,1.289317 0.0984,0.09843 0.49962,0.0073 0.89154,-0.202402 1.67472,-0.896285 3.53097,-0.02788 3.63764,1.701789 0.0442,0.717489 0.0878,0.660384 0.2012,-0.264064 0.0963,-0.784656 -0.059,-1.404679 -0.46391,-1.852084 z m -32.60208,1.44411 c 0,-0.194027 -0.16812,-0.352777 -0.3736,-0.352777 -0.20548,0 -0.27548,0.15875 -0.15557,0.352777 0.11992,0.194028 0.28804,0.352778 0.3736,0.352778 0.0856,0 0.15557,-0.15875 0.15557,-0.352778 z m 31.75,-0.176389 c -0.49161,-0.592348 -1.05833,-0.700654 -1.05833,-0.202256 0,0.179801 0.27781,0.399511 0.61736,0.488244 0.33955,0.08873 0.67648,0.179749 0.74875,0.202257 0.0723,0.02251 -0.0662,-0.197203 -0.30778,-0.488245 z m -48.07332,-10.267303 c -0.11723,-0.11722 -0.4215,-0.12975 -0.67616,-0.0278 -0.28142,0.11262 -0.19783,0.19621 0.21314,0.21314 0.37188,0.0153 0.58024,-0.0681 0.46302,-0.18529 z m 8.0084,46.6118 c -0.38524,-0.291437 -0.48943,-0.519984 -0.23994,-0.526334 0.24253,-0.0062 0.45939,-0.368406 0.48189,-0.804968 0.0283,-0.548425 0.089,-0.612225 0.19647,-0.206425 0.0856,0.323028 0.40377,0.682576 0.70715,0.798992 0.41748,0.1602 0.50638,0.03872 0.3656,-0.499618 -0.1023,-0.391205 -0.0421,-0.622321 0.13387,-0.513588 0.51277,0.316908 0.37104,1.058739 -0.32213,1.686045 -0.56729,0.513394 -0.72124,0.521064 -1.32291,0.0659 z m -1.73675,-0.886291 c -0.12359,-0.199976 0.018,-0.259115 0.33196,-0.138645 0.61116,0.234523 0.72298,0.487384 0.21553,0.487384 -0.18258,0 -0.42895,-0.156934 -0.54749,-0.348739 z m 5.81834,-0.356817 c 0,-0.194028 0.23812,-0.352778 0.52916,-0.352778 0.29104,0 0.52917,0.15875 0.52917,0.352778 0,0.194028 -0.23813,0.352778 -0.52917,0.352778 -0.29104,0 -0.52916,-0.15875 -0.52916,-0.352778 z m 1.94277,-0.348738 c -0.12359,-0.199976 0.018,-0.259116 0.33196,-0.138646 0.61116,0.234523 0.72298,0.487384 0.21553,0.487384 -0.18258,0 -0.42895,-0.156933 -0.54749,-0.348738 z m -8.29277,-0.348238 c 0,-0.22165 0.14673,-0.312311 0.32608,-0.201468 0.17934,0.110839 0.4013,-0.04165 0.49325,-0.338875 0.12932,-0.41801 0.15534,-0.405634 0.1149,0.05464 -0.0584,0.664351 -0.93423,1.119703 -0.93423,0.485701 z m 4.07524,-0.331752 c -0.17547,-0.283909 0.33678,-2.146272 0.59033,-2.146272 0.0533,0 0.0969,0.381716 0.0969,0.848258 0,0.466541 -0.14604,0.757999 -0.32454,0.647682 -0.17849,-0.110314 -0.22316,0.06359 -0.0993,0.386468 0.24066,0.627165 0.068,0.800125 -0.26346,0.263864 z m 2.45115,-0.0296 c 0.11991,-0.194028 0.28803,-0.352778 0.37359,-0.352778 0.0856,0 0.15557,0.15875 0.15557,0.352778 0,0.194027 -0.16812,0.352777 -0.3736,0.352777 -0.20547,0 -0.27548,-0.15875 -0.15556,-0.352777 z m 4.23583,-0.348739 c -0.1236,-0.199975 0.018,-0.259115 0.33195,-0.138645 0.61116,0.234523 0.72298,0.487384 0.21554,0.487384 -0.18258,0 -0.42895,-0.156934 -0.54749,-0.348739 z m -13.38731,-0.827186 c -0.54046,-0.395199 -0.55367,-0.470373 -0.0826,-0.470373 0.30836,0 0.64188,0.211667 0.74116,0.470373 0.0993,0.258702 0.13644,0.470369 0.0826,0.470369 -0.0538,0 -0.38736,-0.211667 -0.74116,-0.470369 z m 13.38481,-0.106504 c -0.68922,-0.541595 -0.68616,-0.548629 0.13224,-0.303808 0.51848,0.155105 0.93675,0.09051 1.09743,-0.169478 0.18576,-0.300571 0.32265,-0.255909 0.48108,0.156958 0.12943,0.337269 0.0765,0.487507 -0.12729,0.361537 -0.19181,-0.118541 -0.34874,-0.04741 -0.34874,0.158065 0,0.516548 -0.40316,0.450173 -1.23472,-0.203274 z m -8.1284,-0.152153 c -0.12789,-0.206936 -0.15687,-0.451908 -0.0644,-0.544382 0.0925,-0.09247 0.26214,0.07684 0.37703,0.376248 0.23855,0.621634 0.0352,0.730977 -0.31263,0.168134 z m 2.83673,-0.748093 c -0.80878,-0.84425 -0.89197,-1.039989 -0.35278,-0.830125 0.38806,0.151038 0.86431,0.282166 1.05834,0.291394 0.19403,0.0092 0.35278,0.387192 0.35278,0.839925 0,0.452731 0,0.818738 0,0.813347 0,-0.0054 -0.47625,-0.506931 -1.05834,-1.114541 z m 3.51671,0.595175 c -0.0909,-0.291042 -0.23971,-0.767292 -0.33064,-1.058334 -0.0909,-0.291041 -0.0296,-0.529166 0.13635,-0.529166 0.16592,0 0.37157,0.47625 0.457,1.058333 0.16422,1.118937 0.0153,1.418967 -0.26271,0.529167 z m 7.60694,-0.07125 c 0.0112,-0.281965 3.16385,-2.323529 3.16385,-2.048793 0,0.08023 -0.71437,0.637371 -1.5875,1.238095 -0.87312,0.600724 -1.58248,0.965539 -1.57635,0.810698 z m -18.53198,-0.45792 c -0.11992,-0.194028 -0.0499,-0.352778 0.15557,-0.352778 0.20548,0 0.3736,0.15875 0.3736,0.352778 0,0.194028 -0.07,0.352778 -0.15557,0.352778 -0.0856,0 -0.25369,-0.15875 -0.3736,-0.352778 z m -1.05833,-0.705556 c 0.11991,-0.194027 0.28803,-0.352777 0.37359,-0.352777 0.0856,0 0.15557,0.15875 0.15557,0.352777 0,0.194028 -0.16812,0.352778 -0.3736,0.352778 -0.20547,0 -0.27548,-0.15875 -0.15556,-0.352778 z m 0.88194,-0.352777 c 0,-0.194028 0.16812,-0.352778 0.3736,-0.352778 0.20548,0 0.27548,0.15875 0.15557,0.352778 -0.11992,0.194027 -0.28804,0.352777 -0.3736,0.352777 -0.0856,0 -0.15557,-0.15875 -0.15557,-0.352777 z m 9.0656,-0.224215 c -0.36809,-0.368092 -0.29689,-0.834119 0.12744,-0.834119 0.20548,0 0.27549,0.15875 0.15557,0.352778 -0.11992,0.194028 -0.0578,0.352778 0.13804,0.352778 0.19584,0 0.49905,-0.255503 0.67381,-0.567782 0.29205,-0.521857 0.33537,-0.521857 0.53563,0 0.11983,0.312279 0.0771,0.567782 -0.095,0.567782 -0.17207,0 -0.53256,0.08431 -0.8011,0.18736 -0.26854,0.103047 -0.59902,0.07659 -0.73441,-0.0588 z m 2.5599,-0.864334 c -0.21658,-0.404671 -0.31603,-0.813509 -0.22102,-0.90853 0.095,-0.09502 0.28399,0.17768 0.41993,0.605995 0.19315,0.608541 0.31466,0.672183 0.55598,0.291168 0.24491,-0.386697 0.30992,-0.359843 0.31421,0.129777 0.007,0.843594 -0.58964,0.777469 -1.0691,-0.11841 z m -6.39998,-1.97466 c 0.25466,-0.101906 0.55893,-0.08938 0.67616,0.02783 0.11722,0.117224 -0.0911,0.200603 -0.46302,0.185286 -0.41097,-0.01693 -0.49456,-0.100521 -0.21314,-0.213135 z m 18.08566,-0.317577 c 0.0169,-0.410969 0.10053,-0.494559 0.21314,-0.213138 0.10191,0.25466 0.0894,0.558931 -0.0278,0.676159 -0.11722,0.117224 -0.2006,-0.09114 -0.18528,-0.463021 z m -11.17573,-0.416976 c -0.21349,-0.142551 -0.5731,-0.610458 -0.79913,-1.039795 -0.25014,-0.475132 -0.61595,-0.701957 -0.93476,-0.579618 -0.28808,0.110547 -0.52378,0.12162 -0.52378,0.02461 0,-0.09701 0.22649,-0.263303 0.50331,-0.369528 0.30388,-0.116611 0.87012,0.287782 1.42906,1.02059 0.94926,1.244543 1.00112,1.394999 0.3253,0.943744 z m 11.85344,-0.777279 c 0,-0.187936 0.23812,-0.250328 0.52917,-0.138645 0.29104,0.111686 0.52916,0.265451 0.52916,0.341707 0,0.07625 -0.23812,0.138645 -0.52916,0.138645 -0.29105,0 -0.52917,-0.153768 -0.52917,-0.341707 z m -8.11389,-1.069404 c -0.20861,-0.389791 -0.23258,-0.705555 -0.0536,-0.705555 0.17823,0 0.40707,0.3175 0.50855,0.705555 0.10148,0.388056 0.12558,0.705556 0.0536,0.705556 -0.072,0 -0.30087,-0.3175 -0.50855,-0.705556 z m -12.34722,-12.494214 c 0,-0.27487 -0.19844,-0.579839 -0.44097,-0.677703 -0.25455,-0.102712 -0.27767,-0.18971 -0.0547,-0.205786 0.21246,-0.01532 0.67363,0.289648 1.02481,0.677703 0.57422,0.634503 0.57973,0.705556 0.0547,0.705556 -0.32111,0 -0.58384,-0.224896 -0.58384,-0.49977 z m -3.33633,-0.534186 c -0.11163,-0.180623 -0.0681,-0.411763 0.0968,-0.513648 0.16485,-0.101886 0.29973,0.04589 0.29973,0.3284 0,0.594844 -0.11124,0.646815 -0.39651,0.185248 z m 5.6434,-0.774111 c 0.16013,-0.504522 0.11022,-0.670782 -0.15261,-0.508346 -0.21482,0.132761 -0.39057,0.08263 -0.39057,-0.111393 0,-0.194028 0.15875,-0.450889 0.35277,-0.570805 0.19403,-0.119916 0.35278,-0.07637 0.35278,0.09677 0,0.17314 0.47907,0.314801 1.06459,0.314801 h 1.06459 l -0.7733,-0.82315 c -0.42532,-0.452731 -0.58689,-0.823147 -0.35904,-0.823147 0.22785,0 0.41427,0.140236 0.41427,0.311633 0,0.171397 0.3175,0.39466 0.70556,0.49614 0.38805,0.10148 0.70555,0.372981 0.70555,0.603338 0,0.230357 -0.3175,0.501858 -0.70555,0.603338 -0.38806,0.10148 -0.70556,0.30988 -0.70556,0.463113 0,0.153232 -0.34232,0.189085 -0.76072,0.07967 -0.52121,-0.136302 -0.68126,-0.07037 -0.50834,0.209416 0.1388,0.224589 0.0736,0.408348 -0.145,0.408348 -0.24464,0 -0.30591,-0.28817 -0.15942,-0.749734 z m -12.50978,-8.981053 c 0.0169,-0.410966 0.10052,-0.494559 0.21314,-0.213137 0.10191,0.254662 0.0894,0.558932 -0.0279,0.676158 -0.11723,0.117225 -0.20061,-0.09113 -0.18529,-0.463021 z m 10.05302,-7.813932 c -0.77625,-0.11505 -0.90725,-0.23163 -0.52917,-0.47091 0.38229,-0.24195 0.39202,-0.3193 0.0407,-0.32341 -0.25399,-0.003 -0.36368,-0.16415 -0.24377,-0.35818 0.32952,-0.53317 0.88195,-0.42269 0.88195,0.17639 0,0.29104 0.15875,0.54901 0.35278,0.57326 0.19402,0.0242 0.49829,0.0639 0.67615,0.0882 0.17786,0.0242 0.44244,0.16316 0.58797,0.30868 0.27114,0.27115 0.0282,0.27197 -1.76659,0.006 z m 1.32561,-1.32889 c 0,-0.29104 0.13229,-0.52917 0.29399,-0.52917 0.16168,0 0.29398,0.23813 0.29398,0.52917 0,0.29104 -0.1323,0.52917 -0.29398,0.52917 -0.1617,0 -0.29399,-0.23813 -0.29399,-0.52917 z m 35.24838,-1.11568 c -0.24253,-0.0978 -0.44097,-0.4121 -0.44097,-0.69843 0,-0.28632 -0.14778,-0.42925 -0.3284,-0.31762 -0.18062,0.11163 -0.42972,0.039 -0.55354,-0.16133 -0.12383,-0.20035 -0.36196,-0.27973 -0.52917,-0.17638 -0.16721,0.10334 -0.40773,0.0201 -0.53448,-0.18499 -0.12675,-0.20508 -0.55448,-0.27004 -0.9505,-0.14435 -0.48012,0.15239 -0.63961,0.0984 -0.47866,-0.16204 0.13577,-0.21968 0.008,-0.39057 -0.29107,-0.39057 -0.29285,0 -0.66842,-0.24296 -0.83461,-0.53992 -0.16618,-0.29695 -0.86467,-0.59039 -1.5522,-0.65208 -0.68752,-0.0617 -1.47226,-0.2511 -1.74385,-0.4209 -0.51574,-0.32245 -0.69014,-0.36183 -1.9931,-0.45003 -0.43657,-0.0296 -0.79375,-0.20856 -0.79375,-0.39778 0,-0.2199 0.31374,-0.22476 0.86945,-0.0135 0.55089,0.20944 0.94686,0.20533 1.0807,-0.0112 0.23274,-0.37659 -0.79893,-0.90007 -1.1271,-0.5719 -0.11267,0.11268 -0.82565,-0.11184 -1.58439,-0.49892 -0.75874,-0.38708 -1.55058,-0.59807 -1.75965,-0.46886 -0.20906,0.12921 -0.48143,0.0884 -0.60526,-0.0906 -0.5065,-0.73235 -2.98537,-1.89277 -3.61584,-1.69266 -0.36643,0.1163 -0.66625,0.047 -0.66625,-0.15403 0,-0.20101 -0.26568,-0.26352 -0.59041,-0.13891 -0.43496,0.16691 -0.53479,0.0816 -0.37917,-0.32392 0.15746,-0.41035 0.0383,-0.50527 -0.46792,-0.37288 -0.42447,0.111 -0.68119,-0.003 -0.68456,-0.30451 -0.005,-0.40496 -0.0539,-0.40552 -0.30868,-0.003 -0.19269,0.3041 -0.38487,0.34663 -0.52701,0.11664 -0.12305,-0.1991 0.0148,-0.60052 0.30631,-0.89204 0.47154,-0.47154 0.34145,-0.59269 -1.17861,-1.09757 -0.99683,-0.3311 -2.29404,-0.49397 -3.11384,-0.39097 -1.06395,0.13368 -1.40518,0.0544 -1.40518,-0.32647 0,-0.27666 0.17198,-0.40734 0.38218,-0.29039 0.43375,0.24132 0.20964,0.0244 -1.35041,-1.30728 -0.56486,-0.48217 -0.92296,-0.69486 -0.79577,-0.47266 0.12718,0.22221 -0.006,0.49504 -0.2959,0.60629 -0.47852,0.18363 -0.69357,-0.18042 -0.56017,-0.94832 0.0278,-0.15994 -0.10889,-0.19229 -0.30371,-0.0719 -0.19483,0.12041 -0.66538,0.0524 -1.04567,-0.15112 -0.45909,-0.2457 -0.7649,-0.25118 -0.91005,-0.0163 -0.33236,0.53776 -0.88671,0.42231 -0.67103,-0.13976 0.23128,-0.6027 -0.37163,-1.01257 -1.55795,-1.05914 -1.30563,-0.0512 -1.32979,-0.78727 -0.0344,-1.04635 3.19581,-0.63917 3.72998,-0.45713 14.16339,4.82655 5.48436,2.77739 13.18229,6.37969 17.10651,8.00511 3.92422,1.62542 7.06582,3.02442 6.98135,3.1089 -0.0845,0.0845 -0.75521,0.27229 -1.4905,0.41736 -0.7353,0.14508 -1.57503,0.35046 -1.86607,0.45641 -0.29104,0.10595 -0.7276,0.11261 -0.97014,0.0148 z m -38.77615,-1.02323 c 0,-0.22556 0.29104,-0.33401 0.64676,-0.24099 0.35571,0.093 0.64675,0.2995 0.64675,0.45884 0,0.15934 -0.29104,0.26779 -0.64675,0.24099 -0.35572,-0.0268 -0.64676,-0.23327 -0.64676,-0.45884 z m 33.04351,-1.18059 c 0,-0.19939 -0.23812,-0.27115 -0.52916,-0.15946 -0.29104,0.11168 -0.52917,0.0323 -0.52917,-0.17639 0,-0.20895 -0.2774,-0.28184 -0.61736,-0.16221 -0.50106,0.17631 -0.53513,0.12855 -0.18083,-0.25357 0.36335,-0.39189 0.62559,-0.38127 1.56446,0.0634 0.7294,0.34544 0.98027,0.62545 0.71,0.79249 -0.22986,0.14206 -0.41794,0.0952 -0.41794,-0.10423 z"
         id="path2286" />
      <path
         style="fill:#a48c74;stroke-width:0.352778"
         d="m -325.8248,-59.268425 c -3.90551,-1.992831 -6.32419,-3.615002 -8.72815,-5.853846 -1.76736,-1.645969 -1.68876,-1.606614 0.88195,0.441607 4.75345,3.787331 8.8231,5.686489 12.24579,5.714661 1.12296,0.0092 2.04173,-0.0758 2.04173,-0.188979 -10e-6,-0.113185 0.2381,-0.20579 0.52915,-0.20579 0.29104,0 0.52916,0.115084 0.52916,0.25574 0,0.338402 -1.71109,0.759273 -2.10276,0.517207 -0.16853,-0.104157 -0.35967,-0.0542 -0.42475,0.111019 -0.0651,0.16522 -0.53102,0.40137 -1.03543,0.524778 -0.68085,0.166575 -1.69503,-0.172561 -3.93669,-1.316397 z m 8.91074,-0.348583 c 0,-0.07626 0.24637,-0.233186 0.54749,-0.348739 0.31395,-0.12047 0.45555,-0.06133 0.33196,0.138646 -0.20717,0.335213 -0.87945,0.495811 -0.87945,0.210093 z m -17.28611,-8.639161 c 0,-0.194028 0.15875,-0.450889 0.35278,-0.570805 0.19403,-0.119916 0.35278,-0.05928 0.35278,0.134751 0,0.194027 -0.15875,0.450888 -0.35278,0.570805 -0.19403,0.119916 -0.35278,0.05928 -0.35278,-0.134751 z m -0.85254,-0.658999 c -0.14553,-0.145521 -0.37042,-0.275911 -0.49977,-0.289758 -0.54155,-0.05796 -2.17547,-0.991401 -2.17547,-1.242811 0,-0.150037 -0.39944,-0.20036 -0.88765,-0.111827 -0.70473,0.12779 -0.95919,-0.02716 -1.23473,-0.751886 -0.75085,-1.974885 -0.20059,-3.881533 0.98852,-3.425229 0.35719,0.137068 0.45644,0.06702 0.28897,-0.203955 -0.16409,-0.2655 0.0115,-0.412729 0.49212,-0.412729 0.41095,0 0.67204,-0.121592 0.5802,-0.270203 -0.0919,-0.148615 1.52597,-0.881789 3.59515,-1.629283 8.70595,-3.145024 10.0413,-3.77838 14.43407,-6.846115 l 2.20526,-1.540062 -1.4997,-1.253027 c -2.06088,-1.721891 -6.84264,-5.161223 -7.09672,-5.104384 -0.11428,0.02557 -0.57397,-0.319701 -1.02153,-0.767259 -0.44755,-0.447558 -1.12585,-0.999459 -1.50732,-1.226445 -0.74408,-0.442754 -0.61853,-0.633121 1.10109,-1.669454 0.55064,-0.331842 0.46409,-0.47103 -0.76319,-1.227356 -2.39746,-1.477466 -3.38195,-2.817557 -4.01819,-5.469549 -0.23886,-0.99564 -0.19079,-1.06972 0.65897,-1.01563 0.50415,0.0321 0.996,0.0976 1.09302,0.14561 0.097,0.048 0.28022,0.0735 0.40713,0.0568 0.12692,-0.0168 0.42417,0.20255 0.66056,0.48739 0.2364,0.28484 0.6485,0.51789 0.91578,0.51789 0.26729,0 0.48597,0.24749 0.48597,0.54998 0,0.3025 0.15452,0.45449 0.34338,0.33777 0.18886,-0.11672 0.60908,0.0981 0.93382,0.47737 0.32475,0.37927 0.80522,0.60717 1.06773,0.50643 0.26251,-0.10073 0.47729,-0.007 0.47729,0.20737 0,0.214786 0.24206,0.390521 0.5379,0.390521 0.29585,0 0.68114,0.376759 0.85622,0.837243 0.17508,0.460484 0.72677,0.939759 1.22599,1.065055 0.49922,0.125296 0.90767,0.364276 0.90767,0.531068 0,0.166792 0.51594,0.51297 1.14653,0.769285 0.63059,0.256314 1.34378,0.737273 1.58485,1.068797 0.27647,0.380179 0.73243,0.538273 1.23473,0.428114 0.63559,-0.13939 0.68955,-0.09938 0.26723,0.198167 -0.42908,0.302303 -0.31231,0.416524 0.61736,0.603866 0.63059,0.127074 1.14652,0.396408 1.14652,0.598521 0,0.202112 0.0901,0.277428 0.20011,0.167368 0.11006,-0.11006 0.67116,0.260357 1.24689,0.823148 1.06256,1.038689 1.40876,1.235662 1.33345,0.758673 -0.14568,-0.92265 0.0603,-1.140921 0.69987,-0.741523 0.43369,0.270846 0.59326,0.66281 0.46799,1.149517 -0.16935,0.6579 -0.12477,0.68494 0.40832,0.247665 0.52263,-0.428705 0.57027,-0.417535 0.37621,0.08819 -0.14611,0.380761 -0.0381,0.579064 0.3153,0.579064 0.29563,0 0.61758,-0.198438 0.71545,-0.440972 0.10879,-0.269613 0.18876,-0.2073 0.20578,0.160355 0.0344,0.74228 1.66212,2.420027 2.23637,2.305082 0.23131,-0.0463 0.47676,0.285926 0.54544,0.738286 0.11918,0.785008 0.14887,0.793044 0.6519,0.176389 0.28986,-0.355346 0.43766,-0.465695 0.32844,-0.24522 -0.10922,0.220476 0.12621,0.4858 0.52317,0.589608 0.62368,0.163097 0.65909,0.112914 0.26061,-0.369347 -0.41344,-0.500366 -0.38146,-0.508477 0.30921,-0.0784 0.42368,0.263832 0.74118,0.589982 0.70555,0.724778 -0.094,0.355756 1.97256,2.082945 2.49286,2.083453 0.24254,2.36e-4 0.44097,0.15918 0.44097,0.353208 0,0.194028 0.35719,0.355209 0.79375,0.358179 0.64186,0.0044 0.69249,0.07085 0.26459,0.347377 -0.47605,0.307643 -0.25593,0.504592 0.44097,0.394553 0.14552,-0.02296 0.24334,0.07729 0.21739,0.222808 -0.0995,0.557777 0.50165,2.557639 0.76881,2.557639 0.15436,0 0.39259,-0.515938 0.5294,-1.146528 0.1368,-0.63059 0.41593,-1.25282 0.62028,-1.38273 0.20435,-0.129911 0.65841,-1.082411 1.00901,-2.116667 0.35061,-1.034256 0.54675,-1.483589 0.43589,-0.99852 -0.11086,0.48507 -0.28871,2.219029 -0.39521,3.853247 -0.23994,3.681928 0.36712,5.17586 2.24651,5.528437 1.51361,0.283955 3.45771,-0.07952 4.01464,-0.75058 0.3785,-0.456057 0.30455,-0.455147 -0.58191,0.0072 -1.59606,0.832383 -3.39689,0.684541 -4.3776,-0.359385 -1.07414,-1.143367 -1.34606,-4.509717 -0.55476,-6.867769 l 0.53273,-1.5875 -0.14707,2.116667 c -0.12991,1.869669 -0.11098,1.950018 0.16221,0.688541 0.56283,-2.598949 1.46997,-5.434905 1.80462,-5.641728 0.44309,-0.273847 0.41923,-0.109904 -0.19953,1.370997 -0.29104,0.69656 -0.51756,1.549386 -0.50338,1.895164 0.0142,0.345783 0.30869,-0.165057 0.65448,-1.135196 0.81856,-2.296545 2.37274,-5.35102 2.88325,-5.666532 0.22107,-0.136624 -0.014,0.461402 -0.52245,1.328946 -1.41062,2.407034 -1.10252,2.350053 0.57899,-0.107083 0.82685,-1.208269 1.62876,-2.161662 1.782,-2.11865 0.15325,0.04301 0.83163,-0.407334 1.50751,-1.000767 1.42897,-1.254652 3.41101,-1.485848 3.98256,-0.464547 0.18912,0.337932 0.44855,0.509723 0.57651,0.381759 0.12797,-0.127965 0.5419,0.03211 0.91984,0.355716 0.37795,0.323609 0.8011,0.594005 0.94033,0.600881 0.72264,0.03569 1.91669,1.02353 2.2285,1.843662 1.27864,3.363068 -4.09387,12.078559 -7.4456,12.078559 -0.44047,0 -1.46841,0.595313 -2.28431,1.322917 -3.45664,3.082576 -7.71696,6.237552 -7.85671,5.81829 -0.1981,-0.59429 -0.62988,-0.551053 -1.31234,0.131409 -0.52461,0.524602 -0.62371,0.521095 -1.24833,-0.04418 -0.39238,-0.355103 -0.98088,-0.534935 -1.39563,-0.426477 -0.39444,0.103149 -0.71716,0.03807 -0.71716,-0.144621 0,-0.192553 -0.29655,-0.173454 -0.70555,0.04544 -0.45383,0.242877 -0.70556,0.251735 -0.70556,0.02483 0,-0.194027 -0.34157,-0.535583 -0.75905,-0.759008 -0.63855,-0.341743 -0.72576,-0.319493 -0.54938,0.140152 0.16669,0.434375 -0.0393,0.399482 -1.00484,-0.170195 -0.66798,-0.394126 -1.21451,-0.557018 -1.21451,-0.361992 0,0.19503 -0.32648,0.269222 -0.72551,0.164874 -0.48646,-0.127211 -0.65467,-0.374322 -0.51052,-0.74997 0.11824,-0.308134 0.10635,-0.451608 -0.0264,-0.318826 -0.13278,0.132778 -0.53804,0.08267 -0.90059,-0.111362 -0.89609,-0.479573 -0.86834,0.16843 0.0464,1.083159 0.38805,0.388055 0.544,0.705555 0.34654,0.705555 -0.19745,0 -0.91183,-0.569253 -1.5875,-1.265008 -0.67567,-0.695755 -1.23092,-1.052943 -1.23389,-0.79375 -0.004,0.309435 -0.0944,0.341284 -0.26458,0.09275 -0.14255,-0.208181 -0.55467,-0.487793 -0.91583,-0.621362 -0.49389,-0.182665 -0.60593,-0.110712 -0.45204,0.290315 0.3658,0.953259 -0.30942,0.562405 -0.97504,-0.564406 -0.3566,-0.603662 -0.74801,-0.95554 -0.86982,-0.781946 -0.36095,0.514439 -1.73227,0.338092 -2.50307,-0.321888 -0.92864,-0.795119 -0.93925,-0.225739 -0.0115,0.613907 0.85449,0.773303 0.95152,1.520631 0.10867,0.836944 -0.34004,-0.275819 -0.48937,-0.304898 -0.34702,-0.06757 0.13742,0.229129 0.0859,0.51791 -0.11443,0.641738 -0.20036,0.123829 -0.28157,0.358987 -0.18046,0.522574 0.24667,0.399118 -0.53442,0.254264 -1.40704,-0.26094 -0.69492,-0.410291 -0.69416,-0.416729 0.0505,-0.427295 0.41581,-0.0059 0.86076,-0.2837 0.98879,-0.617336 0.12802,-0.333633 0.11993,-0.493762 -0.018,-0.35584 -0.13792,0.137926 -0.49428,0.05371 -0.79191,-0.187141 -0.43166,-0.349303 -0.48755,-0.348682 -0.27623,0.0032 0.16672,0.277498 0.061,0.440972 -0.28506,0.440972 -0.30249,-1.13e-4 -0.54998,0.247382 -0.54998,0.549875 0,0.302492 -0.16134,0.450271 -0.35854,0.3284 -0.19719,-0.12187 -0.26832,-0.367548 -0.15806,-0.545944 0.11025,-0.1784 -0.0359,-0.233666 -0.32475,-0.12282 -0.29543,0.113369 -0.43541,0.435571 -0.31995,0.736448 0.1774,0.462316 0.10257,0.470775 -0.55144,0.06233 -0.41619,-0.259913 -0.75671,-0.588148 -0.75671,-0.729414 0,-0.141267 -0.23812,-0.165471 -0.52916,-0.05379 -0.63983,0.245526 -0.70592,0.774375 -0.0882,0.705739 0.52825,-0.0587 0.81505,0.590663 0.33199,0.751681 -0.18606,0.06202 -0.55515,-0.100006 -0.82021,-0.360056 -0.40289,-0.395287 -0.62654,-0.393079 -1.36386,0.01348 -0.78679,0.433815 -0.79858,0.468256 -0.10928,0.319222 0.66689,-0.144184 0.71878,-0.08076 0.37905,0.463232 -0.3078,0.492877 -0.26475,0.759161 0.19747,1.221381 0.93886,0.938865 0.68508,1.104762 -0.28946,0.189223 -0.48431,-0.454978 -0.98564,-0.722154 -1.11407,-0.593722 -0.12843,0.128436 -0.44852,0.05508 -0.7113,-0.163004 -0.36093,-0.299551 -0.37988,-0.514491 -0.0775,-0.878886 0.44823,-0.540078 0.0424,-0.634746 -0.7014,-0.163622 -0.26739,0.169365 -0.38386,0.473463 -0.25883,0.675777 0.12504,0.202315 0.066,0.467558 -0.13119,0.589429 -0.19719,0.121853 -0.35853,0.04408 -0.35853,-0.172851 0,-0.21693 -0.16134,-0.294703 -0.35853,-0.172833 -0.1972,0.121871 -0.27635,0.354563 -0.17591,0.517088 0.10045,0.162524 -0.0954,0.228868 -0.43521,0.147426 -0.33982,-0.08144 -0.84342,-7.06e-4 -1.11912,0.179179 -0.42681,0.278645 -0.4106,0.475848 0.10913,1.327506 l 0.6104,1.000245 -0.71448,-0.818 c -0.56411,-0.645834 -0.84695,-0.740904 -1.34386,-0.4517 -0.59259,0.3449 -0.58986,0.366928 0.0468,0.377028 0.37189,0.0059 0.5717,0.115185 0.44403,0.242852 -0.12766,0.12767 -0.0351,0.480614 0.20579,0.784327 0.24085,0.30371 -0.009,0.208125 -0.55474,-0.212414 -0.94884,-0.730864 -2.00596,-0.7519 -2.00596,-0.03992 0,0.184718 -0.14076,0.248856 -0.3128,0.142529 -0.17205,-0.106331 -0.48653,0.01598 -0.69886,0.27184 -0.2362,0.284597 -0.83373,0.401422 -1.53928,0.300955 l -1.15323,-0.164218 0.88195,0.741761 c 0.48507,0.40797 0.78934,0.747042 0.67616,0.753498 -0.11319,0.0065 -0.32485,-0.107326 -0.47037,-0.252846 z m 39.89908,-12.148785 c -0.11261,-0.281421 -0.1962,-0.197831 -0.21313,0.213138 -0.0153,0.371884 0.0681,0.580245 0.18528,0.463021 0.11723,-0.117228 0.12976,-0.421499 0.0278,-0.676159 z m 1.05834,-3.175 c -0.11262,-0.281421 -0.19621,-0.197831 -0.21314,0.213138 -0.0153,0.371884 0.0681,0.580245 0.18529,0.463021 0.11722,-0.117228 0.12975,-0.421499 0.0278,-0.676159 z m 11.75345,-7.556788 c 0,-0.123513 -0.21304,-0.04776 -0.47343,0.168344 -0.26038,0.216102 -0.57788,0.288457 -0.70555,0.160788 -0.12767,-0.127668 -0.23213,-0.04692 -0.23213,0.17945 0,0.226366 -0.39815,0.411574 -0.88479,0.411574 -0.81774,0 -0.8804,0.116216 -0.82679,1.533511 l 0.058,1.533514 1.53235,-1.881307 c 0.84279,-1.034718 1.53234,-1.982361 1.53234,-2.105874 z m -23.9552,19.638199 c -0.25398,-0.156972 -0.3182,-0.374149 -0.1427,-0.482614 0.1755,-0.108465 0.5269,-0.06878 0.78089,0.08819 0.25398,0.156972 0.3182,0.37415 0.1427,0.482615 -0.1755,0.108465 -0.5269,0.06878 -0.78089,-0.0882 z m 1.22372,-0.975744 c -0.19145,-0.502779 -0.15093,-0.543299 0.19748,-0.197485 0.2411,0.239303 0.34949,0.523959 0.24087,0.632576 -0.10861,0.108617 -0.30587,-0.08718 -0.43835,-0.435091 z m -14.4715,-1.137366 c -0.11163,-0.180623 -0.0681,-0.411763 0.0968,-0.513648 0.16485,-0.101886 0.29973,0.04589 0.29973,0.3284 0,0.594844 -0.11124,0.646815 -0.3965,0.185248 z m 6.35,-1.058334 c -0.11163,-0.180622 -0.0681,-0.411762 0.0968,-0.513648 0.16485,-0.101886 0.29973,0.04589 0.29973,0.328401 0,0.594843 -0.11124,0.646815 -0.3965,0.185247 z m 18.18318,-11.666043 c -0.0106,-0.291042 0.1345,-0.767292 0.32258,-1.058334 0.41675,-0.644867 0.41675,-0.08787 0,0.881945 -0.19991,0.465222 -0.30979,0.525307 -0.32258,0.176389 z m -0.72494,-0.529167 c 0,-0.194028 0.15388,-0.590903 0.34197,-0.881944 0.18808,-0.291042 0.34197,-0.370417 0.34197,-0.176389 0,0.194027 -0.15389,0.590902 -0.34197,0.881944 -0.18809,0.291042 -0.34197,0.370417 -0.34197,0.176389 z m 2.81141,-2.519609 c 0,-0.189283 0.24688,-0.652304 0.54863,-1.028937 0.5173,-0.645691 0.52465,-0.634435 0.1286,0.197157 -0.51428,1.079864 -0.67723,1.279998 -0.67723,0.83178 z m -35.8262,-1.786635 c -0.95544,-0.897624 -1.09156,-1.118852 -0.43413,-0.705556 1.16432,0.731949 1.5638,0.773266 1.00862,0.104318 -0.23047,-0.277701 -0.27255,-0.58463 -0.0952,-0.694255 0.48571,-0.300183 1.38408,0.55769 1.61773,1.544793 0.11481,0.485069 0.11761,0.683507 0.006,0.440972 -0.28947,-0.630263 -0.9657,-0.547627 -0.72172,0.08819 0.28736,0.748842 0.17935,0.687977 -1.38155,-0.778466 z m 35.47342,0.602077 c 0.20768,-0.388055 0.45698,-0.705555 0.554,-0.705555 0.097,0 0.006,0.3175 -0.20122,0.705555 -0.20768,0.388056 -0.45698,0.705556 -0.55399,0.705556 -0.097,0 -0.006,-0.3175 0.20121,-0.705556 z m -0.0105,-1.744241 c 0.2019,-0.377249 0.54145,-0.79367 0.75456,-0.92538 0.21311,-0.131709 0.11463,0.176949 -0.21886,0.685908 -0.70612,1.077687 -1.07178,1.241142 -0.5357,0.239472 z m -36.14921,-0.372425 c -0.11991,-0.194028 -0.0499,-0.352778 0.15557,-0.352778 0.20548,0 0.3736,0.15875 0.3736,0.352778 0,0.194028 -0.07,0.352778 -0.15557,0.352778 -0.0856,0 -0.25368,-0.15875 -0.3736,-0.352778 z m 39.33472,-0.133193 c 0,-0.07326 0.27782,-0.351069 0.61736,-0.617361 0.55953,-0.43881 0.57201,-0.426333 0.1332,0.133193 -0.46086,0.587639 -0.75056,0.774516 -0.75056,0.484168 z m -0.35277,-0.788583 c 0,-0.196533 0.51536,-0.823595 1.14524,-1.393473 l 1.14525,-1.03614 -0.87538,1.058333 c -0.48146,0.582084 -0.99682,1.209146 -1.14525,1.393472 -0.16759,0.208134 -0.26986,0.199724 -0.26986,-0.02219 z m 2.31911,-0.224752 c 0.0992,-0.242535 0.61013,-0.744586 1.13546,-1.115669 0.95365,-0.673635 0.95352,-0.672941 -0.081,0.440972 -1.13156,1.218406 -1.32824,1.344254 -1.05447,0.674697 z m -0.5445,-0.492622 c -0.0111,-0.4187 2.28959,-2.597187 2.73558,-2.590272 0.13877,0.0022 -0.26105,0.408515 -0.88849,0.903029 -0.62744,0.494514 -1.2973,1.167441 -1.48858,1.495393 -0.19128,0.327953 -0.35261,0.414285 -0.35851,0.19185 z m 5.87392,-0.967609 c -0.10986,-0.286286 -0.72478,-0.585227 -1.3665,-0.664312 l -1.16676,-0.143792 1.10334,-0.05646 c 1.01475,-0.05192 2.24855,0.766189 1.81274,1.202004 -0.10069,0.100693 -0.27296,-0.05116 -0.38282,-0.337443 z m -7.29576,-1.450186 c 0.4557,-0.485069 0.90792,-0.881944 1.00494,-0.881944 0.097,0 -0.19646,0.396875 -0.65216,0.881944 -0.4557,0.48507 -0.90792,0.881945 -1.00493,0.881945 -0.097,0 0.19645,-0.396875 0.65215,-0.881945 z m 2.82223,-0.352777 c 0.4557,-0.48507 0.90792,-0.881945 1.00493,-0.881945 0.097,0 -0.19646,0.396875 -0.65216,0.881945 -0.4557,0.485069 -0.90792,0.881944 -1.00493,0.881944 -0.097,0 0.19646,-0.396875 0.65216,-0.881944 z m -1.05834,-0.309582 c 0,-0.07326 0.27782,-0.351069 0.61736,-0.617361 0.55953,-0.43881 0.57201,-0.426333 0.1332,0.133193 -0.46086,0.587638 -0.75056,0.774516 -0.75056,0.484168 z m 3.81441,-0.107795 c 0.25466,-0.101907 0.55893,-0.08937 0.67616,0.02785 0.11723,0.117225 -0.0911,0.200604 -0.46302,0.185286 -0.41097,-0.01693 -0.49456,-0.100521 -0.21314,-0.213136 z m -38.45277,-0.352778 c 0.25466,-0.101907 0.55893,-0.08937 0.67615,0.02785 0.11723,0.117226 -0.0911,0.200604 -0.46302,0.185286 -0.41096,-0.01693 -0.49456,-0.100521 -0.21313,-0.213136 z m 36.75503,-1.321688 c 0,-0.09701 0.3175,-0.346306 0.70555,-0.553986 0.38806,-0.20769 0.70556,-0.29823 0.70556,-0.20122 0,0.097 -0.3175,0.34631 -0.70556,0.55399 -0.38805,0.207684 -0.70555,0.29823 -0.70555,0.201216 z m -2.46945,-6.117496 c 0,-0.61641 0.8658,-0.72549 1.95345,-0.24612 1.12402,0.49541 0.80483,0.65588 -0.36595,0.18398 -0.40192,-0.162 -0.89532,-0.13274 -1.14652,0.068 -0.29461,0.23543 -0.44098,0.23348 -0.44098,-0.006 z m -1.81656,-1.45819 c -1.24328,-0.62153 -2.39097,-0.97069 -4.12361,-1.25454 -0.95575,-0.15658 -1.46906,-0.54066 -0.73321,-0.54861 0.41151,-0.004 0.40632,-0.0658 -0.0294,-0.34738 -0.29104,-0.18808 -0.96573,-0.3444 -1.49931,-0.34737 -0.53357,-0.003 -0.97014,-0.13141 -0.97014,-0.28541 0,-0.15401 -0.9525,-0.49132 -2.11666,-0.74959 -1.33327,-0.29579 -2.11667,-0.64914 -2.11667,-0.95472 0,-0.26682 -0.32687,-0.48513 -0.72638,-0.48513 -0.46031,0 -0.63393,-0.14957 -0.474,-0.40835 0.17292,-0.27978 0.0129,-0.34571 -0.50835,-0.20941 -0.41839,0.10941 -0.76071,0.055 -0.76071,-0.12082 0,-0.17586 -0.2475,-0.31975 -0.54999,-0.31975 -0.3025,0 -0.45188,-0.15875 -0.33196,-0.35278 0.20532,-0.33221 0.0783,-0.38479 -1.23472,-0.51118 -0.29104,-0.028 -0.48948,-0.24196 -0.44097,-0.47544 0.0485,-0.23347 -0.18962,-0.42954 -0.52917,-0.43571 -0.33955,-0.006 -0.90255,-0.2275 -1.25112,-0.49185 -0.34857,-0.26435 -0.9687,-0.39305 -1.37808,-0.28599 -0.44318,0.11589 -0.65711,0.0535 -0.52876,-0.15414 0.11855,-0.19182 -0.33288,-0.56396 -1.00317,-0.82697 -0.6703,-0.263 -1.21873,-0.61668 -1.21873,-0.78594 0,-0.16926 -0.12609,-0.22983 -0.2802,-0.13458 -0.1541,0.0952 -0.96519,-0.13351 -1.80241,-0.50835 -0.83722,-0.37483 -1.83175,-0.68152 -2.21007,-0.68152 -0.37832,0 -0.58974,-0.15875 -0.46982,-0.35277 0.11991,-0.19403 0.16897,-0.35517 0.10901,-0.35809 -0.06,-0.003 -0.74401,-0.24613 -1.52012,-0.54046 l -1.41111,-0.53515 1.94343,0.12146 c 1.67808,0.10487 2.90631,0.63433 8.99583,3.87789 3.87882,2.06603 8.24303,4.27367 9.69824,4.90585 1.4552,0.63218 2.74295,1.28702 2.86166,1.4552 0.11871,0.16818 0.27746,0.26088 0.35278,0.20601 0.13977,-0.10183 4.64483,1.70679 7.1925,2.88753 0.77611,0.3597 1.17299,0.65346 0.88194,0.65282 -0.29104,-6.4e-4 -1.10849,-0.29079 -1.81656,-0.64476 z"
         id="path2284" />
      <path
         style="fill:#8f745c;stroke-width:0.352778"
         d="m -337.46336,-71.149426 c -0.33955,-0.371888 -0.61736,-0.904914 -0.61736,-1.184505 0,-0.684942 -0.59812,-1.017164 -0.83536,-0.463991 -0.10453,0.243745 -0.12373,-0.02021 -0.0427,-0.586588 0.16778,-1.172284 0.52225,-1.468878 2.36566,-1.979397 0.72118,-0.199725 1.43556,-0.573384 1.5875,-0.830351 0.38647,-0.653588 1.45152,-1.165722 4.60315,-2.213441 1.50077,-0.498909 3.83992,-1.452834 5.19812,-2.119827 2.69313,-1.322571 7.9375,-4.709986 7.9375,-5.126951 0,-0.301675 -5.58591,-4.669621 -8.55487,-6.68955 -1.11566,-0.759039 -2.02847,-1.621648 -2.02847,-1.916911 0,-0.320115 -0.17802,-0.441597 -0.44097,-0.300917 -0.24253,0.129759 3.9e-4,-0.138685 0.53981,-0.596541 l 0.98078,-0.832467 -1.67417,-1.234722 c -1.7598,-1.297867 -3.40809,-3.397605 -3.0817,-3.925725 0.10581,-0.17121 0.8572,0.14225 1.66974,0.69657 0.81254,0.554315 1.69788,0.931423 1.96742,0.838013 0.28227,-0.09782 0.39229,-0.01161 0.25946,0.20331 -0.22182,0.358911 0.76336,0.846419 1.92386,0.952001 0.71399,0.06496 3.01002,1.877135 3.70315,2.922767 0.29349,0.442746 0.66611,0.723106 0.82805,0.623024 0.30156,-0.186376 1.50288,0.377753 3.37874,1.586627 0.58208,0.375117 1.45521,0.87971 1.94028,1.121318 0.48507,0.241608 1.08938,0.719545 1.34292,1.062079 0.25353,0.342537 0.6901,0.622794 0.97014,0.622794 0.28004,0 0.51159,0.198437 0.51456,0.440972 0.004,0.346343 0.0666,0.344615 0.29038,-0.008 0.20961,-0.330281 0.62798,-0.115895 1.58209,0.810733 0.71342,0.692862 1.29713,1.16726 1.29713,1.054216 0,-0.113044 0.4709,0.27619 1.04644,0.864962 0.57555,0.588772 1.28992,1.070497 1.5875,1.070497 0.29758,0 0.54349,0.198437 0.54646,0.440972 0.004,0.29398 0.11939,0.264583 0.34738,-0.08819 0.29225,-0.452226 0.34276,-0.439403 0.34737,0.08819 0.003,0.339549 0.24353,0.617361 0.53457,0.617361 0.29104,0 0.52917,0.15875 0.52917,0.352778 0,0.194028 0.11906,0.333978 0.26458,0.311002 0.63168,-0.09974 1.2453,0.0606 1.03535,0.270545 -0.34618,0.346184 1.23711,1.584667 1.76627,1.381608 0.25387,-0.09742 0.46158,0.01838 0.46158,0.25732 0,0.23894 0.35718,0.591146 0.79375,0.782676 0.43656,0.19153 1.10714,1.022925 1.49017,1.847543 0.38304,0.824618 0.89897,1.499306 1.14653,1.499306 0.24755,0 0.4501,0.229274 0.4501,0.509496 0,1.140953 1.57351,2.377937 3.26779,2.568906 0.91136,0.102722 1.56983,0.327819 1.46329,0.500214 -0.10655,0.172396 -0.36603,0.206954 -0.57663,0.0768 -0.21424,-0.132405 -0.28253,-0.07424 -0.15504,0.132048 0.12532,0.202784 -0.18719,0.640651 -0.69448,0.973042 -0.5073,0.332391 -0.81436,0.429613 -0.68237,0.216045 0.16837,-0.272426 -0.008,-0.293854 -0.59249,-0.0718 -0.49329,0.187548 -1.06485,0.186465 -1.4028,-0.0028 -0.31368,-0.175542 -0.98001,-0.353078 -1.48074,-0.394518 -0.50073,-0.04128 -0.91042,-0.225775 -0.91042,-0.409819 0,-0.184047 -0.0929,-0.241762 -0.20638,-0.128252 -0.29509,0.295088 -2.26306,-0.443791 -2.26306,-0.849672 0,-0.1865 -0.14595,-0.248885 -0.32434,-0.138639 -0.17839,0.110251 -0.55372,-0.02893 -0.83407,-0.309276 -0.38042,-0.380429 -0.61136,-0.408097 -0.91038,-0.109076 -0.29902,0.299018 -0.40066,0.246818 -0.40066,-0.205789 0,-0.479538 -0.1952,-0.557449 -0.93282,-0.372322 -0.8568,0.215043 -0.91845,0.158962 -0.75652,-0.688156 0.097,-0.507256 0.0405,-0.838345 -0.12551,-0.73575 -0.166,0.102591 -0.30181,0.01841 -0.30181,-0.187064 0,-0.205479 -0.14389,-0.373599 -0.31975,-0.373599 -0.17587,0 -0.25077,0.357188 -0.16644,0.79375 0.13863,0.71772 0.11683,0.710085 -0.22753,-0.0797 -0.20947,-0.480398 -0.49176,-0.718523 -0.62732,-0.529166 -0.48515,0.677707 -1.48119,0.58028 -1.48119,-0.144879 0,-0.445047 -0.27657,-0.737182 -0.76611,-0.809216 -0.42137,-0.062 -0.80634,-0.315136 -0.85549,-0.562522 -0.0491,-0.247385 -0.009,-0.287073 0.09,-0.08819 0.24642,0.496877 1.17887,0.457348 1.17887,-0.04998 0,-0.226364 -0.10806,-0.303516 -0.24013,-0.17145 -0.13206,0.132069 -0.68769,-0.188673 -1.23472,-0.71276 -0.54703,-0.524086 -0.9946,-0.78142 -0.9946,-0.571849 0,0.209571 0.26085,0.481133 0.57966,0.603472 0.31881,0.12234 0.47854,0.323561 0.35494,0.447153 -0.12359,0.123596 -0.52713,-0.04896 -0.89675,-0.383466 -0.63923,-0.578492 -0.69811,-0.570963 -1.20604,0.15421 l -0.534,0.762388 -0.40823,-0.762783 c -0.32564,-0.608464 -0.50952,-0.678716 -0.90891,-0.347257 -0.27537,0.22854 -0.39701,0.583269 -0.2703,0.788286 0.14102,0.228183 0.0144,0.289877 -0.3265,0.159064 -0.30627,-0.117532 -1.14955,0.08847 -1.87393,0.457789 -0.72439,0.369312 -1.47687,0.572717 -1.67218,0.45201 -0.19531,-0.12071 -0.25295,-0.05418 -0.12809,0.147843 0.12485,0.202025 -0.0215,0.573532 -0.32516,0.825574 -0.45453,0.377225 -0.60505,0.372709 -0.85117,-0.02554 -0.23202,-0.375405 -0.4111,-0.390768 -0.79933,-0.06857 -0.27517,0.228374 -0.60477,0.310769 -0.73244,0.183102 -0.12767,-0.12767 -0.23212,-0.03755 -0.23212,0.200268 0,0.237818 -0.14784,0.341027 -0.32853,0.229355 -0.38472,-0.237776 -3.05885,1.507705 -2.94673,1.923419 0.0419,0.155257 -0.25219,0.196426 -0.65347,0.09149 -0.40128,-0.104937 -0.83242,-0.03623 -0.95808,0.152693 -0.12566,0.188916 -1.06191,0.716231 -2.08055,1.171804 -1.01865,0.455577 -1.85209,0.958773 -1.85209,1.118214 0,0.159441 -0.25511,0.289892 -0.56691,0.289892 -0.33842,0 -0.49124,0.197185 -0.37917,0.489239 0.12957,0.337658 -0.0131,0.436721 -0.46042,0.319737 -0.35649,-0.09322 -1.35075,0.242245 -2.20946,0.745486 -1.82146,1.067442 -2.0015,1.078925 -2.82223,0.18003 z m 24.42986,-10.553937 c 0,-0.194027 -0.16812,-0.352777 -0.3736,-0.352777 -0.20548,0 -0.27548,0.15875 -0.15557,0.352777 0.11992,0.194028 0.28804,0.352778 0.3736,0.352778 0.0856,0 0.15557,-0.15875 0.15557,-0.352778 z m 17.3476,4.827958 c -0.42187,-0.449068 -0.76705,-0.946728 -0.76705,-1.105909 0,-0.15918 0.32202,0.119955 0.7156,0.620304 0.51963,0.660611 1.1234,0.946569 2.20486,1.044275 l 1.48927,0.134553 -1.43782,0.06163 c -1.09755,0.04705 -1.61933,-0.13159 -2.20486,-0.754853 z m 2.05518,-0.522164 c -0.7302,-0.22703 -1.76389,-1.16453 -1.76389,-1.599741 0,-0.197778 0.36742,-0.01443 0.81648,0.407455 1.24587,1.170432 2.98488,1.010027 5.19828,-0.479482 1.01879,-0.685588 1.65189,-1.005007 1.40691,-0.709817 -1.14511,1.379767 -4.43112,2.762977 -5.65778,2.381585 z m 5.76652,-1.713861 c 0.98061,-1.087893 0.98627,-1.117403 0.25872,-1.348317 -0.4091,-0.129843 -0.6426,-0.399867 -0.51888,-0.60005 0.12373,-0.200184 -0.19147,-0.09112 -0.70043,0.242358 -1.08795,0.712851 -1.23733,1.069739 -0.21982,0.525187 1.02847,-0.550421 0.86268,-0.159924 -0.2765,0.651239 -0.54012,0.384605 -1.5632,0.808305 -2.2735,0.941557 -1.09539,0.205496 -1.4283,0.10542 -2.19294,-0.659222 -0.56784,-0.567835 -0.88849,-1.266511 -0.86634,-1.887679 0.0317,-0.89022 0.0575,-0.909708 0.26458,-0.200282 0.36525,1.251176 1.38325,2.212721 2.34263,2.212721 1.0681,0 1.19402,-0.532162 0.14463,-0.611212 -0.40742,-0.03069 -0.95566,-0.342283 -1.21831,-0.692433 -0.67626,-0.901537 -0.94898,-3.269198 -0.52032,-4.517189 l 0.36352,-1.058333 -0.16796,1.146528 c -0.0924,0.63059 -0.0132,1.146528 0.17599,1.146528 0.18918,0 0.34396,-0.338769 0.34396,-0.752821 0,-1.274579 0.79001,-3.469958 1.16522,-3.238063 0.20217,0.124947 0.24574,0.04271 0.10124,-0.191099 -0.35975,-0.58208 0.11532,-1.875011 0.58278,-1.586103 0.2578,0.159332 0.30206,0.01718 0.13235,-0.425094 -0.14025,-0.365464 -0.14161,-0.551102 -0.003,-0.412524 0.13858,0.138574 0.64537,-0.342516 1.12621,-1.069088 2.51725,-3.803718 5.12496,-5.240272 6.58461,-3.627377 0.34457,0.380751 1.17356,0.872823 1.8422,1.093492 1.54013,0.508291 1.32335,0.716932 -0.905,0.871014 -0.97544,0.06745 -2.13828,0.325078 -2.58408,0.572509 -0.4458,0.247431 -0.88992,0.456659 -0.98694,0.464952 -0.99647,0.08518 -2.91628,2.6832 -2.16725,2.932875 0.22185,0.07395 0.40336,0.514265 0.40336,0.978475 0,0.464213 0.29557,1.330046 0.65682,1.924074 l 0.65682,1.080054 1.00624,-1.988784 c 1.08092,-2.136405 3.72219,-5.134998 3.94207,-4.475366 0.15378,0.461344 1.14639,0.181173 1.14639,-0.323578 0,-0.18472 -0.19844,-0.216637 -0.44098,-0.07093 -0.29963,0.180014 -0.28578,0.07362 0.0432,-0.331958 0.26644,-0.328287 0.65008,-0.596885 0.85269,-0.596885 0.20261,0 0.26199,0.10639 0.13196,0.236422 -0.13004,0.130033 0.006,0.606282 0.30211,1.058333 0.29619,0.452051 0.41581,0.824342 0.26582,0.827312 -0.14999,0.0028 -0.0346,0.15929 0.25645,0.347377 0.40947,0.264619 0.42069,0.343196 0.0496,0.347377 -0.33783,0.0038 -0.43782,0.363019 -0.33831,1.215376 0.0777,0.665487 0.0355,1.144633 -0.0937,1.064768 -0.12923,-0.07987 -0.23496,0.250662 -0.23496,0.734504 0,2.24112 -5.16188,7.833727 -6.47903,7.019678 -0.2051,-0.126757 -0.95417,0.303318 -1.6646,0.955721 -1.27651,1.172242 -1.27991,1.173113 -0.28915,0.07395 z m -9.07433,0.04026 c -0.34042,-0.887127 -0.24,-1.11603 0.17587,-0.400875 0.20591,0.3541 0.30007,0.718135 0.20924,0.808965 -0.0908,0.09083 -0.26413,-0.09281 -0.38511,-0.40809 z m -15.24655,-0.603722 -0.67203,-0.79375 0.79375,0.672038 c 0.74593,0.631549 0.95435,0.915461 0.67203,0.915461 -0.0669,0 -0.42412,-0.357187 -0.79375,-0.793749 z m 16.34287,-0.589083 c -0.15345,-0.586793 -0.10754,-0.724528 0.15424,-0.462742 0.205,0.204999 0.30332,0.580961 0.21848,0.835469 -0.0881,0.264213 -0.24798,0.104299 -0.37272,-0.372727 z m 1.181,-4.467398 c 0.0169,-0.410968 0.10053,-0.494559 0.21314,-0.213137 0.10191,0.254659 0.0894,0.55893 -0.0278,0.676158 -0.11722,0.117225 -0.2006,-0.09114 -0.18528,-0.463021 z"
         id="path2282" />
      <path
         style="fill:#715e4c;stroke-width:0.352778"
         d="m -336.82143,-72.924248 c -0.33982,-0.770227 -0.54235,-1.597166 -0.45007,-1.837648 0.0923,-0.240481 0.97983,-0.645361 1.97234,-0.899731 1.14621,-0.293765 1.80455,-0.652325 1.80455,-0.982832 0,-0.370018 0.21659,-0.451594 0.74973,-0.282381 0.44411,0.140953 0.66473,0.100415 0.54121,-0.09945 -0.11469,-0.185572 0.19325,-0.552432 0.68432,-0.815241 0.76144,-0.407511 0.9406,-0.402354 1.21728,0.03503 0.27015,0.427062 0.32534,0.410707 0.32983,-0.09778 0.003,-0.368148 0.38685,-0.706374 0.96595,-0.851722 0.5283,-0.132595 2.0533,-0.781131 3.38888,-1.441193 1.33557,-0.660057 2.64958,-1.115204 2.92,-1.011431 0.30197,0.115877 0.49377,-0.04526 0.49709,-0.417611 0.004,-0.453419 0.0786,-0.490891 0.29572,-0.148622 0.22832,0.359932 0.39668,0.326637 0.78835,-0.15591 0.32126,-0.395799 0.34151,-0.519554 0.0571,-0.348658 -0.24253,0.145712 -0.44097,0.178435 -0.44097,0.07273 0,-0.473971 2.82044,-2.010428 3.24283,-1.76656 0.25374,0.146491 0.34193,0.134719 0.19599,-0.02618 -0.27897,-0.30752 0.68971,-1.584487 1.20197,-1.584487 0.16395,0 0.2981,0.218687 0.2981,0.485972 0,0.267282 0.2686,0.703845 0.59689,0.970139 0.34003,0.27582 0.48936,0.304899 0.34702,0.06757 -0.13742,-0.229129 -0.0885,-0.516311 0.10867,-0.638182 0.19852,-0.122689 0.35853,0.102602 0.35853,0.50479 0,1.03716 0.0314,1.184222 0.39998,1.872904 0.18309,0.342099 0.19164,0.617361 0.0192,0.617361 -0.17116,0 -0.66586,0.307584 -1.09932,0.683521 -0.43345,0.375934 -0.99566,0.603871 -1.24935,0.506522 -0.25369,-0.09735 -1.23302,0.207557 -2.17629,0.67757 -0.94327,0.470013 -4.09629,2.013786 -7.00671,3.430605 -2.91041,1.416819 -5.68854,2.841777 -6.17361,3.166569 -0.48507,0.324795 -1.53115,0.843481 -2.32462,1.152637 l -1.44267,0.562099 z m 38.00554,-2.061848 c -2.38497,-1.264144 -4.94382,-2.875005 -6.04649,-3.80642 -0.51655,-0.436326 -1.13203,-0.793513 -1.36774,-0.79375 -0.23571,-2.36e-4 -0.58683,-0.296157 -0.78027,-0.657602 -0.19343,-0.361446 -0.83402,-0.856954 -1.42352,-1.101132 -0.5895,-0.244179 -1.07181,-0.583453 -1.07181,-0.753939 0,-0.170487 -0.15875,-0.309979 -0.35278,-0.309979 -0.19403,0 -0.66668,-0.313898 -1.05033,-0.697555 -0.42909,-0.429083 -0.92787,-0.609173 -1.29597,-0.467921 -0.45565,0.174851 -0.54436,0.08878 -0.37185,-0.360778 0.14845,-0.386864 0.0479,-0.590413 -0.29153,-0.590413 -0.28496,0 -0.5181,-0.177264 -0.5181,-0.393922 0,-0.220331 -0.31114,-0.312558 -0.70604,-0.209289 -0.38832,0.101547 -0.62379,0.05155 -0.52327,-0.111107 0.27767,-0.449266 -1.24515,-1.378279 -1.86767,-1.139395 -0.40148,0.154062 -0.46639,0.07677 -0.24456,-0.291197 0.24213,-0.401644 0.20053,-0.418948 -0.20988,-0.08732 -0.41392,0.334465 -1.18625,-0.08628 -4.03647,-2.198928 -1.93853,-1.436892 -3.78271,-2.925948 -4.09818,-3.309017 -0.31546,-0.383069 -0.65978,-0.610268 -0.76516,-0.504888 -0.34563,0.34563 -1.09303,-1.435263 -1.00052,-2.384013 0.0702,-0.719913 -0.17263,-1.090287 -1.08422,-1.653679 -1.28548,-0.794472 -2.95874,-2.44291 -2.721,-2.680645 0.0822,-0.08223 0.82369,0.310182 1.64769,0.872034 0.82399,0.561851 1.49817,0.934485 1.49817,0.828074 0,-0.10641 0.41828,0.135549 0.92952,0.537687 0.51124,0.402138 1.14624,0.73116 1.41111,0.73116 0.26488,0 0.48159,0.13949 0.48159,0.309979 0,0.170488 0.48977,0.512848 1.08838,0.7608 0.59861,0.247952 1.2733,0.627725 1.49931,0.843942 0.66436,0.635579 3.89221,2.611071 4.46787,2.734405 0.29104,0.06236 0.80698,0.415476 1.14653,0.784713 0.33954,0.369239 0.61736,0.494658 0.61736,0.278712 0,-0.215942 0.66613,0.241054 1.48029,1.015552 0.81417,0.774496 1.67416,1.333786 1.91109,1.242865 0.23693,-0.09092 0.52463,0.07926 0.63934,0.378188 0.12095,0.315193 0.43729,0.455722 0.75307,0.334543 0.29949,-0.114925 0.45988,-0.07201 0.35645,0.09536 -0.18352,0.296936 1.27642,1.60347 1.6907,1.513056 0.11472,-0.02505 0.59105,0.30806 1.05851,0.740213 1.70202,1.573445 3.23307,2.708924 3.66402,2.717369 0.24253,0.0048 0.44097,0.16739 0.44097,0.361418 0,0.194028 0.17982,0.352778 0.39959,0.352778 0.21978,0 0.69603,0.341788 1.05834,0.759534 0.36231,0.417745 0.65874,0.630364 0.65874,0.472493 0,-0.157876 0.91281,0.666496 2.02847,1.831936 2.60744,2.723776 3.97154,3.638814 5.42462,3.638814 1.09449,0 1.12534,0.0314 0.47471,0.483158 -1.29336,0.898024 -3.16819,0.854561 -4.99908,-0.115891 z m 6.36331,-5.570739 c -0.36515,-0.339549 -0.50973,-0.498299 -0.3213,-0.352778 0.18843,0.145521 0.90616,0.267014 1.59496,0.269985 0.93844,0.0041 1.11972,0.09113 0.7232,0.347376 -0.76725,0.495833 -1.24755,0.432192 -1.99686,-0.264583 z m 4.38485,-0.707683 c -0.73568,-0.359579 -1.13954,-0.376618 -1.70856,-0.07209 -1.15182,0.616437 -2.32012,0.141443 -2.7607,-1.122408 -0.27377,-0.785329 -0.27782,-1.245302 -0.0138,-1.563455 0.20576,-0.247922 0.3394,-0.660985 0.29699,-0.917914 -0.0424,-0.256931 0.01,-0.705269 0.11603,-0.996311 0.10624,-0.291042 0.4633,-1.286902 0.79349,-2.213021 1.32591,-3.719007 4.78924,-7.664757 6.72762,-7.664757 0.40504,0 1.09151,0.408369 1.52548,0.907487 0.70175,0.80707 0.71854,0.900165 0.15182,0.841321 -0.35048,-0.03639 -0.71661,-0.03483 -0.81363,0.0035 -0.097,0.0383 -0.63443,0.144262 -1.19427,0.235475 -1.5701,0.255814 -3.29357,1.77612 -3.87681,3.419791 -0.70969,2.000034 -0.9795,3.764691 -0.57561,3.764691 0.18308,0 0.24767,0.222067 0.14352,0.493484 -0.10415,0.271416 -0.0267,0.594 0.17205,0.716851 0.19878,0.122855 0.27251,0.455076 0.16384,0.738269 -0.11148,0.290498 0.0547,0.611709 0.38132,0.737044 0.5505,0.211244 1.73532,2.49216 1.53113,2.947596 -0.0531,0.118452 -0.53008,0.0035 -1.05995,-0.25551 z m 2.78608,-1.026809 c -0.83633,-0.836323 0.46743,-5.129121 2.13308,-7.023456 1.00367,-1.14148 2.51175,-2.01166 3.09707,-1.787052 1.22865,0.471484 0.0692,4.98106 -1.82962,7.116268 -1.33813,1.504693 -2.8412,2.253569 -3.40053,1.69424 z"
         id="path2280" />
      <path
         style="fill:#5f4936;stroke-width:0.352778"
         d="m -335.52222,-72.992175 c 0.58682,-0.474557 0.58309,-0.544619 -0.0734,-1.379171 l -0.69159,-0.879221 1.46365,-0.43852 c 0.80501,-0.241187 1.8699,-0.601179 2.36643,-0.799984 0.49652,-0.198804 1.3316,-0.40241 1.85574,-0.452455 1.09578,-0.104627 1.99331,-0.861875 1.78,-1.501793 -0.18599,-0.557992 0.34853,-0.566592 0.90064,-0.0145 0.32926,0.329258 0.42333,0.320873 0.42333,-0.03774 0,-0.257708 0.22548,-0.374552 0.5112,-0.264912 0.34167,0.131114 0.44615,0.02663 0.31503,-0.315034 -0.24087,-0.627712 0.27566,-0.667184 0.91902,-0.07023 0.39041,0.362242 0.43076,0.315002 0.22605,-0.264584 -0.19993,-0.566039 -0.16137,-0.618359 0.19502,-0.264583 0.60286,0.598438 1.00868,0.554577 1.00868,-0.109005 0,-0.302493 0.14595,-0.459782 0.32434,-0.349536 0.17838,0.11025 0.55636,-0.03157 0.83994,-0.315157 0.28359,-0.283584 0.59337,-0.43785 0.68841,-0.342812 0.24323,0.243223 2.02787,-0.609184 2.02787,-0.96858 0,-0.162881 0.2071,-0.296149 0.46022,-0.296149 0.25313,0 1.03478,-0.526264 1.737,-1.169473 l 1.27676,-1.169469 0.37968,0.833293 c 0.66891,1.468117 0.42947,1.821476 -2.00158,2.953773 -1.30969,0.610006 -4.65188,2.200603 -7.42709,3.534657 -2.77522,1.334054 -5.11994,2.425552 -5.21049,2.425552 -0.0906,0 -0.81148,0.408333 -1.60207,0.907411 -0.79058,0.499075 -1.52268,0.822159 -1.62687,0.717967 -0.10419,-0.104193 -0.52576,-0.02752 -0.93681,0.170384 -0.68345,0.329057 -0.6945,0.317073 -0.12914,-0.14013 z m 38.18733,-2.142085 c -0.58208,-0.252359 -1.27887,-0.384302 -1.54841,-0.293204 -0.29788,0.100676 -0.39348,0.0093 -0.24377,-0.232911 0.21993,-0.355843 -0.20846,-0.556119 -0.94185,-0.440319 -0.14552,0.02297 -0.26458,-0.126344 -0.26458,-0.331823 0,-0.205479 -0.12983,-0.293356 -0.28852,-0.195284 -0.15868,0.09807 -0.51123,-0.130683 -0.78343,-0.508345 -0.27221,-0.377663 -0.70737,-0.686661 -0.96703,-0.686661 -0.27062,0 -0.36324,-0.176142 -0.21702,-0.412729 0.17104,-0.276747 0.0634,-0.339189 -0.32658,-0.189526 -0.37642,0.144445 -0.71428,-0.02459 -0.95752,-0.479097 -0.20672,-0.386264 -0.52664,-0.60911 -0.71093,-0.495209 -0.1843,0.113898 -0.33508,0.03897 -0.33508,-0.166507 0,-0.205479 -0.16789,-0.373599 -0.37309,-0.373599 -0.20519,0 -1.50465,-0.9525 -2.88768,-2.116666 -1.38303,-1.164167 -2.72326,-2.116667 -2.97831,-2.116667 -0.25503,0 -0.4637,-0.16812 -0.4637,-0.373599 0,-0.205479 -0.18328,-0.260325 -0.40729,-0.121881 -0.23465,0.145027 -0.31216,0.09782 -0.18287,-0.111393 0.28425,-0.459917 -5.33373,-4.066198 -5.84357,-3.751097 -0.21505,0.132906 -0.27614,0.06874 -0.14168,-0.148816 0.1392,-0.225231 -0.26577,-0.564045 -0.98505,-0.824141 -0.67178,-0.24292 -1.15141,-0.554952 -1.06584,-0.693406 0.0856,-0.138455 -0.0899,-0.345927 -0.38988,-0.461049 -0.35852,-0.137576 -0.46976,-0.05956 -0.32459,0.227616 0.12148,0.240312 -0.007,0.15912 -0.28515,-0.180428 -0.27832,-0.339549 -0.61819,-0.617362 -0.75527,-0.617362 -0.59534,0 -4.04762,-3.340002 -4.23854,-4.100689 -0.11571,-0.46101 -0.32642,-0.841729 -0.46824,-0.846044 -0.14183,-0.0043 -0.65474,-0.337493 -1.13981,-0.740396 l -0.88194,-0.732553 1.23472,0.710021 c 1.95107,1.121952 6.31022,3.723208 8.88423,5.301529 2.50162,1.533934 12.5702,8.650097 18.45605,13.044177 1.94028,1.448513 3.96698,2.820123 4.50379,3.048025 0.99024,0.420409 0.95453,0.907873 -0.0647,0.882678 -0.30721,-0.0076 -1.03482,-0.220285 -1.6169,-0.472645 z m 5.67658,-6.517103 c -0.13231,-0.21408 0.2087,-0.345726 0.84843,-0.327537 0.58831,0.01672 1.17325,-0.07318 1.29987,-0.199803 0.12661,-0.126619 -0.18753,-0.230215 -0.69812,-0.230215 -3.02573,0 -1.68828,-6.906285 2.12772,-10.98708 1.61803,-1.730306 3.25361,-2.635292 4.14474,-2.293333 0.92221,0.353887 0.58454,0.933191 -0.54395,0.933191 -1.66456,0 -4.6577,2.992125 -5.3895,5.387689 -1.05256,3.44557 -0.92742,4.831309 0.57168,6.330414 1.03119,1.031183 1.07958,1.161443 0.44097,1.187047 -0.39452,0.01581 -1.13655,0.147747 -1.64896,0.293169 -0.54547,0.154806 -1.02336,0.116029 -1.15288,-0.09354 z m 6.14147,-2.190874 c 0,-2.47826 3.66804,-7.611497 5.22791,-7.316202 0.9615,0.182016 0.92953,2.173422 -0.0683,4.258198 -1.35185,2.824321 -2.75889,4.138545 -4.43083,4.138545 -0.57786,0 -0.72875,-0.223721 -0.72875,-1.080541 z"
         id="path2278" />
    </g>
  </g>
</svg>
