<svg xmlns="http://www.w3.org/2000/svg" width="277.3" height="277.3" viewBox="0 0 73.4 73.4">
  <path d="M47.8 212.1v-36.7h73.4v73.4H47.8Z" style="fill:#fefefe;stroke-width:.352778" transform="translate(-47.8 -175.4)"/>
  <path d="M77 246.4a21.9 21.9 0 0 1-5.3-5.2 34.6 34.6 0 0 1-1-14 20 20 0 0 1 7-5l.6-4.3a105 105 0 0 1 2.3-10.7 68.3 68.3 0 0 0 2.5-13c0-.3-1.3.8-3 2.3a30.7 30.7 0 0 1-24 8.6c-1.7-.2-3.3-.5-3.4-.7-.8-.7 2-9.3 4.5-13.8 2.8-5 7.9-10.7 11-12.3 3.7-1.9 7.6-1 10.5 2.1l1.6 1.8h3c3 0 4 .4 4.6 2 .3 1-.7 3.6-2.1 5.7-1 1.4-1.3 3-.7 3.9 0 .1 1 0 2.2-.4 2-.8 2-.8 1.9-2-.3-1.5.5-3.2 1.7-3.8 1.9-1 5.9-.5 14.6 1.8l6.6 1.6c2 .4 2.1.4 1.9 1.3a11 11 0 0 1-3.8 4.8c-2.7 1.8-5.7 2.5-10.9 2.5-3.7 0-5-.1-6.3-.6-2.1-.8-3.6-2.4-3.7-3.8 0-1.2-.2-1.3-2.2-.4-1.8.8-2 1.3-2.4 4.3a50 50 0 0 1-1.1 5.5c-1 4.1-1 5.3-.1 5.6.4.1 1.5.9 2.5 1.7l1.9 1.5 1-.6c1.4-.9 3-.8 4.2 0 2 1.7 4.3 7.2 4.7 11.6.2 2.5.2 2.5-.7 2.7-1.4.4-4.6-.3-6.2-1.3a15 15 0 0 1-6.5-8.4c-.3-1.3.2-2.7 1.4-3.3l1-.5-1.6-1c-1.7-1.3-3-1.5-3.5-.5-.2.3-.5 2.6-.7 5-.3 4-.3 4.4.2 4.7 3.1 2 5.9 4 6.5 4.8.6 1 .8 1.7 1 5.7a39 39 0 0 1-.3 6.8c-.3 2-.5 2.3-2.6 4.3-2.3 2.2-5.2 4-6.5 4a5 5 0 0 1-2.2-1z" style="fill:#ada990;stroke-width:.352778" transform="translate(-47.8 -175.4)"/>
  <path d="M77.3 246.4a17 17 0 0 1-2.4-2c.4.2.5.2.4-.2-.1-1.2 0-1.8.6-1.6.4.1.3 0-.2-1-.4-.6-.5-1.4-.4-1.8.2-.4 0-1-.4-1.6-.4-.5-.6-1.1-.5-1.3.3-.4-.4-2.5-.8-2.5-.2 0-.4-.3-.5-.6-.2-.5-.2-.5.3-.2.3.3.6.4.8.3 0-.1-.2-.4-.6-.7-1-.6-.9-1 .4-.6 1 .3 1 .2-.7-1.4-2-1.8-2.5-3.1-1.9-4.5.4-.8 5.4-4.3 6.2-4.3.3 0 .6-1.4.8-3.8a118 118 0 0 1 3-14 59 59 0 0 0 2-11c-.2-.2-1.1.8-2.3 2a37 37 0 0 1-16 9 39 39 0 0 1-10.7.2c-1.5-.3-1.5-.3-1.4-1.8.1-2.5 1.4-6.2 3.7-10.8a32.4 32.4 0 0 1 11.9-14c3.2-1.6 7.9-.4 10.5 2.8l1.3 1.6 2.5-.3c2.9-.2 4 .2 4.6 1.6.5 1.4 0 3.2-1.6 5.6-1.4 2.2-1.7 3.3-1 4.2.2.4.6.4 2.1-.1l2.4-.8c.3 0 .3-.2 0-.8-.5-1-.1-2.9.9-3.8 1.1-1 2.9-1.2 6.6-.6 2.6.4 15 3.3 16.8 3.9.8.2-.3 2.3-2.2 4.3a9.1 9.1 0 0 1-4.8 2.8c-2.6.8-3.5 1-7.4 1-2.5 0-5-.2-5.9-.5-2-.6-4-2.5-4-4v-1.3l-1.5.5c-2.3.8-3 1.7-3.4 4.9a70.2 70.2 0 0 1-2.1 10c0 .3.7.8 1.5 1.3s2 1.4 2.5 2c1.2 1.2 1.7 1.3 2.3.5.7-.8 2.4-1 3.7-.4 2.2 1.1 4.8 6.8 5.3 12l.3 2.3h-2.3a8 8 0 0 1-4-.9c-3.7-1.8-7.2-6.3-7.2-9.3 0-1.5.2-1.8 1.6-2.5l1-.6-1.6-1c-2.1-1.5-3.3-1.8-3.8-1-.4 1-1 6-1 8.5v1.7l2.1 1.3c1.2.6 3 2 3.9 2.8l1.6 1.6.2 4.2c.3 4.7-.1 8.6-1 9.8-.7 1.2-4 3.9-5.6 4.8-1.8 1-3.2 1-4.6 0zm10.1-19.2c-.3-.2-.3-.1-.2.5.2.5.3.6.4.3.1-.2 0-.6-.2-.8zm-8.6-40c3.8-1.8 5.3-3.6 3.3-4-1.1-.1-4.1 1.6-5.3 3.1-2 2.5-1.5 2.7 2 1zm-7.2 45.4c-.3-.6 0-.7.5-.2.2.3.3.5.1.5l-.6-.3z" style="fill:#97a057;stroke-width:.352778" transform="translate(-47.8 -175.4)"/>
  <path d="M77.2 246.4c-1-.7-1.1-.9-1-1.9.2-.6.4-1.2.6-1.3.2 0 .2-.3 0-.5l-.2-1.6c0-.7-.2-1.5-.3-1.7-.5-.8-1-2.3-.6-2 .4.2.3-1.1 0-1.5-.2-.1-.2-.6-.1-1 0-.5 0-1-.3-1-.2-.2-.2-.4-.1-.6 0-.2-.6-1-1.6-1.8-1.3-1-1.9-1.8-2.2-3l-.4-1.4 1.8-1.6c1-.9 2.6-2 3.6-2.4 1.9-1 1.9-1 2.3-4.8.1-1.1.8-4.2 1.4-6.9 2-8 3-12.7 3.1-15.4.1-1.4.2-2.6 0-2.6l-2 2c-3.1 3.4-9.3 7-14.3 8.7a40.8 40.8 0 0 1-13.2.5c-1-.2-1-.3-.7-1.7a46 46 0 0 1 7.4-16.9 27 27 0 0 1 8.2-7.7A8.8 8.8 0 0 1 79 181c.9 1.3 1.3 1.5 2.3 1.5h1.3l-1.5.5c-2.4.8-4 1.9-7.6 5.4-3.5 3.5-4.2 4.7-2.6 4.7 1.2 0 3-1 6.5-3.3a92 92 0 0 1 4.3-2.7c2-1.1 3.9-3 3.9-3.7 0-.3-.3-.7-.6-1-.6-.3-.6-.3 0-.1l1 .2c.7 0 1.7 1.5 1.7 2.4 0 1.3-.5 2.5-2 5-1.2 1.8-1.4 3-.9 3.8.3.4.7.4 2.4-.1 2.6-.8 2.8-1 2.3-2-.6-1 0-3 1.3-3.7 1-.7 3.4-.7 6.9-.1l16 3.7c.8.2-1 3.4-2.8 4.9-2.8 2.4-9.4 3.8-14.7 3-4.5-.5-6.2-1.7-6.7-4.4l-.2-1.2-1.4.5c-2.3.8-3 1.8-3.4 5a65.8 65.8 0 0 1-2.1 9.9c0 .2.8 1 1.8 1.6a16 16 0 0 1 2.6 2c.8.9 1.3 1 2 .2.2-.3 1-.5 2-.5 1.4 0 1.9.2 2.6 1 2 2 3.8 6.8 4.3 11.5l.3 2-2.6-.1c-2.9-.2-4-.6-6.6-2.7-2-1.6-4.3-5.7-4.3-7.7 0-1.2 1-2.3 1.9-2.3 1 0 .7-.5-.6-1.5-1.7-1.4-3.3-1.8-4-1.2-.5.5-1.2 5-1.2 8.2 0 2.2 0 2.3 1.2 2.8 1.9.8 5.5 3.6 6 4.8.7 1.2 1 9.6.5 12.3-.4 2-3 4.6-6 6.3-2.1 1.3-3.5 1.4-5.1.5zm10-19.4c-.5-.5-.5-.5-.1.6.3.8.5 1 .5.6.1-.4 0-.9-.4-1.2zm-9.1-4c-.2-.3-.2-.2-.3.2 0 .4.1.6.2.5.1-.1.2-.4 0-.7zm19.8-27.5c2-.7 1.2-1.2-3-1.6-3.6-.3-5.3.8-2.9 1.8 1.3.6 3.9.5 5.9-.2zm-23-10.6c.8-1-3.4 2.2-4.8 3.5-1 1-.5.6 1.4-.8l3.3-2.7zm19 4.3c1.7-.5 1.7-1 0-1-1.3 0-3.5 1.3-2.2 1.3l2.2-.3zm-25.3-6.8a26 26 0 0 1 4.6-2.2 7 7 0 0 0 2.4-1.2c.3-.8-3.8-1.2-6-.7-1.8.6-5.5 4.2-5.5 5.5 0 .9 2 .3 4.5-1.4zm5.3 52-.9-.9 1.2.9c1.2.8 1.3 1 .9 1-.2 0-.7-.4-1.2-1z" style="fill:#8b9f2f;stroke-width:.352778" transform="translate(-47.8 -175.4)"/>
  <path d="M77.2 246.4c-1-.7-1.1-.9-1-1.9.2-.6.4-1.2.6-1.3.2 0 .2-.3 0-.5l-.2-1.6c0-.7-.2-1.5-.3-1.7-.5-.8-1-2.3-.6-2 .4.2.3-1.1 0-1.5-.2-.1-.2-.6-.1-1 0-.5 0-1-.3-1-.2-.2-.2-.4-.1-.6 0-.2-.6-1-1.6-1.8-1.3-1-1.9-1.8-2.2-3l-.4-1.4 1.8-1.6c1-.9 2.6-2 3.6-2.4 1.9-1 1.9-1 2.3-4.8.1-1.1.8-4.2 1.4-6.9 2-8 3-12.7 3.1-15.4.1-1.4.2-2.6 0-2.6l-2 2a38 38 0 0 1-14.1 8.6 30.1 30.1 0 0 1-14 .4c-.7-.5.2-3 1.7-5 .8-1 2.3-3.6 3.4-5.6 2.5-4.5 3.4-5.5 7.4-8.5 4.2-3.1 5.8-4 7.3-4.5 5.2-1.6 5-1.6 6.3.5.6 1 1 1.2 1.9 1.2 1 0 1 0-.4.5-.8.3-2 .8-2.8 1.3a80 80 0 0 0-16.5 15.1c.5.4 3.6-1 7.1-3.2l4-2.6 4.3-3 4.5-3.3c3.1-2 4-2.8 4.4-3.9l.5-1 .7.8c1.4 1.3 1 3-1.2 6.6-1.2 1.9-1.4 3-.9 4 .3.3.7.3 2.6-.3 1.8-.6 2.2-.8 2.1-1.4l-.1-1c-.1-.4.4-.6 1.5-.7a40.6 40.6 0 0 0 7.4-1.5c0-1-5.6-1.4-7.6-.6-.7.2-.7.2 0-.3.8-.7 4-.8 7-.2a831 831 0 0 1 16 3.7c.8.2-1 3.4-2.8 4.9-2.8 2.4-9.4 3.8-14.7 3-4.5-.5-6.2-1.7-6.7-4.4l-.2-1.2-1.4.5c-2.3.8-3 1.8-3.4 5a65.8 65.8 0 0 1-2.1 9.9c0 .2.7.9 1.5 1.4.8.5 2 1.4 2.6 2 1.2 1 1.2 1 2.2.5 1.4-.8 3.3-.8 4.4.1 2 1.5 4 7 4.6 11.8l.3 2-2.6-.1c-2.9-.2-4-.6-6.6-2.7-2-1.6-4.3-5.7-4.3-7.7 0-1.2 1-2.3 1.9-2.3 1 0 .7-.5-.6-1.5-1.7-1.4-3.3-1.8-4-1.2-.5.5-1.2 5-1.2 8.2 0 2.2 0 2.3 1.2 2.8 1.9.8 5.5 3.6 6 4.8.7 1.2 1 9.6.5 12.3-.4 2-3 4.6-6 6.3-2.1 1.3-3.5 1.4-5.1.5zm10-19.4c-.5-.5-.5-.5-.1.6.3.8.5 1 .5.6.1-.4 0-.9-.4-1.2zm-9.1-4c-.2-.3-.2-.2-.3.2 0 .4.1.6.2.5.1-.1.2-.4 0-.7zm9.8-7.7c-.1-.2-.4-.4-.6-.4-.3 0-.2.3 0 .6.5.6 1 .4.6-.2zm9.7-19.6c4.7-.8 4.5-1.3-.6-1.9-5.3-.5-8 .4-5 1.8 1.4.8 1.8.8 5.6.1zM73.8 186c3-2.3 2.7-2.5-.6-.2a39.4 39.4 0 0 0-7.4 6.7c0 .2 1.2-.7 2.6-2a84 84 0 0 1 5.4-4.5zm.1 48.6-.9-1 1.2.9c1.2.8 1.3 1 .9 1-.2 0-.7-.4-1.2-1z" style="fill:#887343;stroke-width:.352778" transform="translate(-47.8 -175.4)"/>
  <path d="M77.4 246.4c-.7-.4-.9-.8-.7-1 .2-.3.2-.8.1-1.2 0-.4 0-.7.2-.7s.3-.3.4-.7c0-.4-.1-.7-.3-.7-.2 0-.2-.5-.2-1.2.2-1 0-1.3-.3-1.5-.4-.1-.4-.4-.2-1 .2-.5.2-1 0-1a.8.8 0 0 1-.4-.6c0-.2.2-.3.4-.2.3.2.2-.5-.3-1.4-.1-.2-.3-.6-.3-1 0-.5 0-.5.7-.2.8.4.8.4 0-.2l-2.3-1.8c-2-1.6-2.5-2.3-2.8-3.9-.2-1-.1-1.3 1.4-2.6 1-.8 2.4-1.8 3.3-2.3l1.7-.9v3.3c0 3 0 3.2.5 2.6l.9-1.1c.6-.8.8-2.1.8-8.3.1-5.2.2-6.3.7-7.1.5-.7 1-1 1.6-1h1l-1-.8-1.1-.9 1-4a53 53 0 0 0 1.4-11.9l-2.7 2.5a31.8 31.8 0 0 1-21.7 9.4c-2.7 0-6-.4-6.3-.7-.4-.5.6-3.3 1.9-5 .8-1 2.3-3.5 3.4-5.5 2.5-4.5 3.4-5.5 7.4-8.5 4.2-3.1 5.8-4 7.3-4.5 5.2-1.6 5-1.6 6.3.5.6 1 1 1.2 1.9 1.2 1 0 1 0-.4.5-.8.3-2 .8-2.8 1.3a80 80 0 0 0-16.5 15.1c.5.5 3.7-1 7.1-3.3a56 56 0 0 1 3.5-2l3.3-2.4c1.3-1 3.7-2.7 5.5-3.7 3.5-2.1 5-3.5 5.2-4.8l.1-.9.8.8c.5.5.8 1.2.8 1.9 0 1-1.3 3.9-2.5 5.7-.7 1-.9 2.2-.3 3 .2.5.5.5 2 0 1-.4 2-.6 2.3-.6.5 0 .6-.2.4-.8-.4-1.7-.4-1.8 1.3-1.9a40.6 40.6 0 0 0 7.4-1.5c0-1-5.6-1.4-7.6-.6-.7.2-.7.2 0-.3.8-.7 4-.8 7-.2l16 3.7c.7.2-1.2 3.5-2.8 5-2.7 2.2-9.3 3.6-14.7 3-4.4-.6-6.7-2.3-6.7-4.8 0-.8-.2-1-.8-.7a8 8 0 0 0-2.2 1c-1.3.7-2 2-2 4 0 .6-.5 3-1 5.3l-1.1 4.8c0 .3.7 1 1.5 1.5s2 1.4 2.6 2c1.2 1 1.2 1 2.2.5 1.4-.8 3.3-.8 4.4.1 2 1.6 4.3 7.5 4.5 11.6l.1 2h-2.2c-2.8 0-5-1-7.3-3.2a14.4 14.4 0 0 1-3.7-6.9c0-1.2 1-2.5 1.8-2.5.4 0 .7-.1.7-.3 0-.4-2-2.1-2.5-2.1-.2 0-.3-.2-.1-.4.1-.3 0-.4-.4-.2-.4.1-.5 0-.3-.2.3-.5-1.3 0-2 .5-.5.6-1 4.6-1 8 0 2.5 0 2.5 1 3 2 .9 5 3.2 5.8 4.4 1.6 2.2 1.4 12.6-.2 15a21 21 0 0 1-5.7 4.5c-1.6.8-3 .8-4.2 0zm9.8-19.7c-.9-1.3-1-.8-.3.8.4 1 .6 1.2.7.7 0-.3-.1-1-.4-1.5zm.7-11.4c-.1-.2-.4-.4-.6-.4-.3 0-.2.3 0 .6.5.6 1 .4.6-.2zm10-19.4c4.2-1.2 4.1-1.5-.9-2-3.8-.5-6.3-.2-6.4.8-.1 1 1.5 1.9 3.2 1.9.8 0 2.6-.3 4.1-.7zm-24-10 2.9-2.2c0-.3-2.4 1-4.3 2.4a39.3 39.3 0 0 0-6.7 6.4l2.6-2c1.4-1.4 3.8-3.4 5.4-4.6z" style="fill:#748727;stroke-width:.352778" transform="translate(-47.8 -175.4)"/>
  <path d="M77.4 246.4c-.7-.4-.9-.8-.7-1 .2-.3.2-.8.1-1.2 0-.4 0-.7.2-.7s.3-.3.4-.7c0-.4-.1-.7-.3-.7-.2 0-.2-.5-.2-1.2.2-1 0-1.3-.3-1.5-.4-.1-.4-.4-.2-1 .2-.5.2-1 0-1a.8.8 0 0 1-.4-.6c0-.2.2-.3.4-.2.3.2.2-.5-.3-1.4-.1-.2-.3-.6-.3-1 0-.5 0-.5.7-.2.8.4.8.4 0-.2l-2.3-1.8c-2-1.6-2.5-2.3-2.8-3.9-.2-1-.1-1.3 1.4-2.6 1-.8 2.4-1.8 3.3-2.3l1.7-.9v3.3c0 3 0 3.2.5 2.6l.9-1.1c.6-.8.8-2.1.8-8.3.1-5.2.2-6.3.7-7.1.5-.7 1-1 1.6-1h1l-1-.8-1.1-.9 1-4a53 53 0 0 0 1.4-11.9l-2.7 2.5a34.2 34.2 0 0 1-16.6 9c-3 .6-9.9.5-11-.2-.5-.2-.4-.4.4-1l2.1-1.2c1-.5 1.1-.5 1-.1-.3.7.8.7 3.9-.2 3-1 6.1-2.6 9.5-5.1a194.5 194.5 0 0 1 6.6-5c1-.9 3-2.3 4.5-3.1 3.4-2 5.8-4.3 5.5-5.3-.1-.7-.1-.7.4 0 .3.3.5 1 .5 1.6 0 1-1.3 4-2.5 5.7-.7 1-.9 2.2-.3 3 .2.5.5.5 2 0 1.3-.5 3.4-.7 9.8-.9 8.9-.2 9.2-.7.5-.8-5.2 0-5.4 0-4.2-.5 1.5-.7 8-.8 13.1-.2 3.2.4 3.7.5 3.4 1-.4.5 0 .4 2.1-.5 1.3-.6 2.2-.4 2.2.3 0 .8-2 3.7-3.2 4.6a23.3 23.3 0 0 1-14.3 2.8c-3.1-.4-4.6-1-5.8-2.3-1-1.2-.8-1.4.6-.4 1.5 1 3 1.1 5.6.3a39.5 39.5 0 0 0 13.1-3.8l-10.3.1-10.2.2-2 1c-1.8.8-2.1 1.2-2.4 2.3l-.4 2.2-1 5.2a62 62 0 0 0-1.1 4.8c0 .3.8 1 1.8 1.7 2 1.3 3.5 2.7 2.9 2.7-.2 0-.6-.3-1-.7l-1.3-.9c-.4 0-.5-.4-.4-.6.1-.2 0-.3-.4-.1-.4.1-.5 0-.3-.2.3-.5-1.3 0-2 .5-.5.6-1 4.6-1 8 0 2.5 0 2.5 1 3 2 .9 5 3.2 5.8 4.4 1.6 2.2 1.4 12.6-.2 15a21 21 0 0 1-5.7 4.5c-1.6.8-3 .8-4.2 0zm9.8-19.7c-.9-1.3-1-.8-.3.8.4 1 .6 1.2.7.7 0-.3-.1-1-.4-1.5zm5.3-.3a13 13 0 0 1-7.8-9.2c-.2-1.1-.1-1.6.5-2.3l.8-.8-.6.9c-.8 1.2-.4 1.9 1.4 2.6.8.3 1.9 1 2.3 1.4.5.5 1 .9 1.3.9.6 0 .3-.5-1.7-3.7-1.4-2.1-1.4-2.1-.2-.9a110.2 110.2 0 0 1 3 3.2l-2.1-2.9c-.7-.9-1.3-1.7-1.2-1.8l3 .8c1.6.6 3 1 3.2.9.8-.5 3 6 3.2 9.5l.1 1.8h-1.9c-1 0-2.5-.1-3.3-.4zm-35-27.2c.6-1.3 3.5-6.7 4.5-8.2 1.5-2.2 4-4.5 7.4-7 2.4-1.7 3.4-2.2 6-2.8l3-.8.8 1c.6.7 1.3 1.1 1.8 1.1.6 0 .2.3-1 .7-2.5.8-2.7.9-1.2 0 1.6-.8 1-1.1-1-.5A39 39 0 0 0 64.4 193l-6.4 6.4c-.6.4-.6.4-.4-.2zm32.3-6.8c0-.2.4-.4.9-.5.5 0 .8 0 .7.1-.2.4-1.6.7-1.6.4zm-19.7-3 .6-.6c.5-.4.5-.4.1.1-.5.6-.7.8-.7.5zm1.7-1.4a18 18 0 0 1 3.5-2.6c0 .1-.9.9-2 1.7-1.1.8-1.8 1.2-1.5.9z" style="fill:#656150;stroke-width:.352778" transform="translate(-47.8 -175.4)"/>
  <path d="m79 245.9.4-2.2c0-.6.2-1.2.3-1.3.3-.2.2-.4 0-.6-.4-.2-.4-.4-.2-.5.2-.2.3-.6 0-1.3-.1-.7 0-1.1.2-1.3.2-.1.1-.4-.3-.7-.4-.3-.5-.5-.3-.5s.3-.3.2-.7c0-.4-.3-.6-.5-.5-.1.1-.3 0-.3-.2s.2-.3.4-.3.3-.3.3-.5c0-.3.3-.6.6-.7.4 0 .1-.2-.6-.2-1.5 0-3-.8-5.5-3-1.7-1.5-2-1.8-1.7-2.6.1-.6.6-1.3 1-1.8.5-.4 1-1 1-1.1 0-.5 2.5-2.1 2.8-2 .2.2.3 0 .3-.1 0-.2.2-.3.4-.2.2.1.3 1.4.3 2.7 0 2.3 0 2.5.5 1.9l.9-1.1c.6-.8.8-2.1.8-8.3.1-5.2.2-6.3.7-7.1.5-.7 1-1 1.6-1h1l-1-.8-1.1-.9 1-4c.8-3.3 1.8-11.4 1.4-11.9 0 0-1.3 1-2.7 2.5a34.1 34.1 0 0 1-16.5 9c-3 .6-9 .5-10.9-.1l-.8-.4 1-.6 2.1-1.3c1-.5 1.1-.5 1-.1-.3.7.8.7 3.9-.2 3-1 6.1-2.6 9.5-5.1a194.5 194.5 0 0 1 6.6-5c1-.9 3-2.3 4.5-3.1 3.4-2 5.8-4.3 5.5-5.3-.1-.7-.1-.7.4 0 1 1.3.3 3.6-1.8 6.7-1 1.5-1.2 3.6-.4 3.9a43.7 43.7 0 0 1 11.8-1.2c8.8-.2 9-.7.4-.8-5.2 0-5.4 0-4.2-.5 1.5-.7 8-.8 13.1-.2 3.2.4 3.7.5 3.4 1-.4.5 0 .4 2.1-.5 1.3-.6 2.2-.4 2.2.3 0 .6-1.3 2.7-2.2 3.7-2 2.3-6.7 3.6-12.3 3.7-4.6 0-7-.6-8.5-2-1.4-1.4-1.2-1.8.3-.7 1.5 1 3 1.1 5.6.3a39.5 39.5 0 0 0 13.1-3.8l-10.5.1c-10.3.3-10.4.3-12.2 1.2-1 .5-2 1-2 1.2l-.7 3.8-1.3 6c-1 3.2-.9 3.9.2 4.7.7.5.9.7.5 1-.3.1-.4 0-.2-.2.2-.4.2-.4-.3-.3-.3.2-.8.3-1 .3-.3 0-.7.5-1 1.1-.4 1.4-.8 10.2-.4 10.7.1.2 1.1 1 2.2 1.7 2 1.3 3.9 3.7 3.9 4.8 0 .5 0 .5.5 0 .4-.7.5-.3.5 2.7l.1 1.4v3.8c0 3.6-.3 4.2-3.2 6.7-2 1.8-4.3 3-5.5 3-.5 0-.6-.1-.3-1.1zm14-19.5a14 14 0 0 1-8-8.2c-.5-1.9-.5-2.4.3-3.3l.8-.8-.6.9c-.8 1.2-.4 1.9 1.4 2.6.8.3 1.9 1 2.3 1.4.5.5 1 .9 1.3.9.6 0 .3-.5-1.7-3.7-1.4-2.1-1.4-2.1-.2-.9a110.2 110.2 0 0 1 3 3.2l-2.1-2.9c-.7-.9-1.3-1.7-1.2-1.8l3 .8c1.6.6 3 1 3.2.9.8-.5 3 6 3.2 9.5l.1 1.8H96c-1 0-2.4 0-3.1-.4zm-7.3-14c-.7-.5-1.1-1-1-1.1 0-.1.8.3 1.5 1 .8.7 1.3 1.2 1 1.2a5 5 0 0 1-1.5-1zm-28-13.2c.5-1.3 3.4-6.7 4.4-8.2 1.5-2.2 4-4.5 7.4-7 2.4-1.7 3.4-2.2 6-2.8l3-.8.8 1c.6.7 1.3 1.1 1.8 1.1.6 0 .2.3-1 .7-2.5.8-2.7.9-1.2 0 1.6-.8 1-1.1-1-.5A39 39 0 0 0 64.4 193l-6.4 6.4c-.6.4-.6.4-.4-.2zm32.2-6.8c0-.2.4-.4.9-.5.5 0 .8 0 .7.1-.2.4-1.6.7-1.6.4zm-19.7-3 .6-.6c.5-.4.5-.4.1.1-.5.6-.7.8-.7.5zm1.7-1.4a18 18 0 0 1 3.5-2.6c0 .1-.9.9-2 1.7-1.1.8-1.8 1.2-1.5.9z" style="fill:#586818;stroke-width:.352778" transform="translate(-47.8 -175.4)"/>
  <path d="m79 245.9.4-2.2c0-.6.2-1.2.3-1.3.3-.2.2-.4 0-.6-.4-.2-.4-.4-.2-.5.2-.2.3-.6 0-1.3-.1-.7 0-1.1.2-1.3.2-.1.1-.4-.3-.7-.4-.3-.5-.5-.3-.5s.3-.3.2-.7c0-.4-.3-.6-.5-.5-.1.1-.3 0-.3-.2s.2-.3.4-.3.3-.3.3-.5c0-.3.3-.6.6-.7.4 0 .1-.2-.6-.2-1.5 0-3-.8-5.5-3-1.7-1.5-2-1.8-1.7-2.6.1-.6.6-1.3 1-1.8.5-.4 1-1 1-1.1 0-.5 2.5-2.1 2.8-2 .2.2.3 0 .3-.1 0-.2.2-.3.4-.2.2.1.3 1.4.3 2.8s.2 2.7.3 2.8c.2.1.8 0 1.3-.1.9-.4.9-.4 1-4.2 0-2.8 0-3.5.3-2.7.2.7.9 1.4 2.3 2.4 2 1.3 4 3.7 4 4.8 0 .5 0 .5.5 0 .4-.7.5-.3.5 2.7l.1 1.4v3.8c0 3.6-.3 4.2-3.2 6.7-2 1.8-4.3 3-5.5 3-.5 0-.6-.1-.3-1.1zm14.3-19.3a13 13 0 0 1-8-7.6c-.4-1-.4-1 .1-.3l.7.6c.6-.4 1.5.2 3.8 2.2 2.5 2.2 5 3.8 5.6 3.6.3-.1-2.4-5-4.5-7.8a9.3 9.3 0 0 1-1.4-2.3c.3-.3 2.3 1 3.8 2.7 1.7 1.8 4 6.3 4.2 8 .1 1 0 1-1.6 1.1-1 0-2.2 0-2.7-.2zm-1.8-7c-.4-.5-.4-.5.2-.1l.6.6c0 .3-.3.1-.8-.5zM82.1 209c0-.5 0-.7.2-.5v.9c-.1.2-.2 0-.2-.4zm.3-2c0-.4.1-.5.2-.2v.6c-.1.2-.2 0-.2-.4zm.4-1.2.5-3.4c.3-1.5.5-4.4.5-6.3v-3.5l-2.8 2.9c-1.9 2-3.8 3.4-6 4.7-6 3.5-9 4.5-14.7 4.7l-3.8.2 2.3-.6a46 46 0 0 0 15.7-8.8c2.8-2.7 6-5.2 7.9-6.4 2.3-1.5 4.7-3.7 5-4.7.2-.3.2-.2.3.4 0 1-1 3.3-2.3 5.1-1 1.6-1.2 3.6-.3 4 .3 0 1.3-.1 2.2-.4 1.8-.7 2.5-.8 2.5-.3 0 .1-.7.4-1.5.6-2.8.8-3.3 1.6-4 5.6-.5 3.3-1.5 7.3-1.5 6.2zm-28.5-1.3h1.2l-.6.1c-.7 0-1 0-.6-.1zM94 199c-.6-.2 0-.3 1.8-.3 3.5 0 8.4-.6 10.6-1.3a16.2 16.2 0 0 0 7.4-5.3c0 .2-.6 1.3-1.3 2.3-1.5 2.1-3.8 3.5-7.3 4.4-2.3.6-9.6.7-11.2.2zm-2.5-1.1-.8-.7 1 .6c1.4.8 1.5.8 1 .8-.2 0-.7-.3-1.2-.7z" style="fill:#485513;stroke-width:.352778" transform="translate(-47.8 -175.4)"/>
  <path d="M79 245.9a9 9 0 0 0 .3-2.3c0-.6.2-1.1.3-1.1.3 0 0-2.8-.2-3.3-.1-.1 0-.3.1-.4.4-.2.4-.7-.2-2-.4-1-.2-2 .6-2.2.3-.1 0-.2-.6-.2-1.6 0-3.4-1-5.7-3.1-2.1-2-2.2-2.4-.4-4.3a5 5 0 0 0 1-1.4c0-.3 2-1.6 2.3-1.5.2 0 .5-.1.6-.4.4-.5.5.7.4 3.1-.1 2.1.4 3 1.8 2.9l1.2-.1.1-3.3.2-3.3 2 1.5c1.1.8 2.6 2.1 3.2 3 1 1.4 1 1.8.7 2.4-.4.6-.3.6.4-.1l.8-1v2.5c.3 6 .2 9-.5 10-1.4 2.4-6.2 5.7-8 5.7-.5 0-.6-.1-.3-1.1z" style="fill:#2e2d24;stroke-width:.352778" transform="translate(-47.8 -175.4)"/>
</svg>