<svg width="277.3" height="192" viewBox="0 0 73.4 50.8" xmlns="http://www.w3.org/2000/svg">
  <path style="fill:#fefefe;stroke-width:.352778" d="M21.6 247.2v-25.4H95v50.8H21.6Z" transform="translate(-21.6 -221.8)"/>
  <path style="fill:#efd8a2;stroke-width:.352778" d="M39.6 270.2A51.4 51.4 0 0 1 27 262c-4-3.5-4-3.8.2-7.8 3.5-3.2 7.2-6.3 9.7-7.9 1.4-.9 1.7-1.3 2.2-3 3-10.7 10-17.8 20-20.4a22 22 0 0 1 15.7 2A23.7 23.7 0 0 1 87 242.5c.2 1.3.6 2 1.2 2.7.5.4 1.3 1.6 1.8 2.5 1 2 1.1 5.2.2 8.2-2 7.1-15 12.5-38.3 15.8l-7 1-5.3-2.5z" transform="translate(-21.6 -221.8)"/>
  <path style="fill:#fbeb4d;stroke-width:.352778" d="M39.6 270a51.5 51.5 0 0 1-12.7-8.3c-3.3-3-3.4-3.5-.4-6.5a79 79 0 0 1 10-8.5c2-1.4 2.4-1.8 2.7-3.3 3.1-12.2 13.5-21 25.1-21 11 0 20.1 7.6 22.1 18.2.6 3.3.6 3 2.3 5.4 1.7 2.3 2.2 4 1.9 7-.4 4-1.4 5.8-5 8.5-5.3 4-18.2 8-33.8 10-3 .4-5.7.8-6.2 1-.6 0-2.6-.8-6-2.5z" transform="translate(-21.6 -221.8)"/>
  <path style="fill:#fbcd28;stroke-width:.352778" d="M39.6 270a51.5 51.5 0 0 1-12.8-8.3c-1.7-1.6-2.4-2.4-2.4-3 0-.9.3-1.3 3.2-4.5 1.2-1.4 6.7-6 9.6-7.9 1.4-1 1.6-1.3 2.2-3.3.3-1.3 1.4-4 2.4-6 1.5-3.1 2.3-4.2 4.7-6.6 4.9-4.9 10.1-7.4 16.3-7.8a22.4 22.4 0 0 1 23.8 18.7c.3 1.9.7 2.9 1.4 3.7 2 2.4 2.6 4 2.5 7 0 3.4-.4 5-1.9 6.7-4.4 5.6-17.7 10.2-36.8 12.8-3 .4-5.7.8-6.2 1-.6 0-2.6-.8-6-2.5zm8.9-.2c.5 0 1-.2 1.2-.4.2-.3-.2-.3-1.3-.1l-2.8.3c-.8 0-1.2.2-1.3.6-.1.6 0 .6 1.5.1 1-.3 2.2-.5 2.7-.5zm4-1H52c-.3.2-.2.2.2.3.4 0 .6-.1.5-.2zm-.2-7.6-1.6-.4c-1-.1-1.2-.1-.9.2.5.3 2.8.5 2.5.2zm-14.7-8c-.1-.4-.4-.7-.7-.7-.4 0-.4.2-.1.7.2.4.5.7.7.7.1 0 .2-.3.1-.7zm10.2-7.3c.8-.9 3.1-6.6 3.1-7.7 0-.8-.1-1-.9-.7-.6.1-.8 0-.8-.2s0-.5-.3-.5c-.6-.3-2.8 2.7-3.8 5.1-1.2 2.9-1.2 4.2-.1 4.4 1.6.3 2.3.2 2.8-.4zM73.2 232c2.2-1 2.6-1.9 1-2.1-1.2-.2-5.3 1.9-5.3 2.7 0 1.3.3 1.3 4.3-.6z" transform="translate(-21.6 -221.8)"/>
  <path style="fill:#e7b426;stroke-width:.352778" d="M39.6 270a51.5 51.5 0 0 1-12.8-8.3c-1.8-1.7-2.4-2.4-2.4-3.1 0-.6.2-.8.3-.6 1.1 1.5 9.3 7.1 13.5 9.3a27 27 0 0 1 5.9 3.5c.3.4.5.4.9.1.3-.2 2.5-.7 5-1.1 6-1 6.8-1.5 2-1.2-5.9.4-7.4.3-11-1.1a30.5 30.5 0 0 1-12.8-7.9c-2.2-2.5-2.3-2.9-.4-5 2.4-3 4.2-4.6 8.4-7.6 2.4-1.7 2.4-1.7 3.4-4.8a28.2 28.2 0 0 1 12.1-16c2.4-1.5 6.5-3 7.6-2.8.6.2.8.1.5-.1-.4-.2-.2-.3.5-.4l3.4-.2c5.5-.6 11.6 1.8 16.2 6.1 3.7 3.5 6.3 8.5 6.8 13.1.2 1.4.6 2.3 1.3 3.1 2 2.4 2.6 3.9 2.5 7 0 3.4-.4 5-1.9 6.7-4.4 5.6-17.7 10.2-36.8 12.8-3 .4-5.7.8-6.2 1-.6 0-2.6-.8-6-2.5zm23.2-2.9h-.7c-.3.1-.2.2.2.2s.6 0 .5-.2zm-2.2-4.9a69.6 69.6 0 0 1-10.7-2c-5.5-1-10.2-3.4-11.5-6a12 12 0 0 1-1.5-5.1c.2-1.1 0-1-.6.2-1.2 2.2-.4 4.7 2.2 6.7 5.8 4.4 13 6.7 21.2 6.7h4.4l-3.5-.5zm12.5-3.2c.6-.1 1-.4 1-.5 0-.3-2.3.2-2.6.5-.3.3.2.3 1.6 0zm-20.2-.8c-.3-.4-2-.7-2-.4 0 .4.7.6 1.5.7.4 0 .6-.1.5-.3zm-6-6c1-5.2 1.2-5.9 2-7.3.5-.7 1.3-2.5 1.8-3.8a26 26 0 0 1 6.6-9.7c1.7-1.8 3.1-3.3 3.1-3.5 0-.6-1.9-1.5-2.9-1.5-2.1 0-4.6 2.6-9.2 9.3-3 4.4-3.2 4.8-4.8 9.5-1.5 4.4-2.2 8-1.3 6.8l1-2.4c.8-2 1.6-2.5 2.3-1.5.4.5.4 1.2.3 2.6-.2 1.9 0 4 .5 4l.7-2.5zm7.5-21.8.5-1.3c.3-.7 1.7-.8 2.3 0 .3.3.1.5-1 1l-1.9.8v-.5zM39 250.7c-.3-.3-.4-.3-.4 0 0 .4.4.8.6.6.1-.1 0-.4-.2-.6zm16.7-10.9c.4-.9 1.7-3 2.7-4.6 2-3.1 2.3-3.9.8-2.4a36.2 36.2 0 0 0-5.5 9.8c0 .4 1-1.1 2-2.8zm-5.9-9.2c1.1-1.2 1.6-2 1.1-1.6-1.2.8-3.5 3.5-5.3 6.2-2 3.2-1.7 3.4.4.2l3.8-4.8zm22 2.3c1.2-.4 2.7-1.2 3.5-1.8 1.4-1 1.4-1 .6-1.3-1.2-.4-3 0-5.3 1-2 1-2.6 1.5-2.2 2.5.3.7 1 .6 3.4-.4zm-3.5-7c.7-.3 1.8-.6 2.3-.6.6 0 1.1-.1 1.1-.3 0-.3-.3-.4-.8-.2l-2.2.4c-1.3.2-3 1.6-3 2.4 0 .2.3 0 .7-.4a6 6 0 0 1 2-1.3zm-5.4-1.1c-1-.5-2.8-.7-2.3-.3.4.5 2.4 1.1 2.8 1 .2-.2 0-.5-.5-.7z" transform="translate(-21.6 -221.8)"/>
  <path style="fill:#e9ae0e;stroke-width:.352778" d="M39 269.7a88.5 88.5 0 0 1-7-4 28.5 28.5 0 0 1-7.6-6.9c0-.6.5-.3 2.6 1.4a60 60 0 0 0 13.1 8.4c1.8.9 3.5 2 3.8 2.3.6.7.7.7 1.3.2.3-.3 2.5-.9 5.2-1.3a111 111 0 0 0 14.8-3.2c.6-.6 0-.5-15.3 1.8-3.3.5-6 0-10.4-1.7-6-2.4-11-6-12.3-8.8-.7-1.5-.7-1.5.1-2.6a60 60 0 0 1 9.1-8.4l2.3-1.5 1.2-3.6c2-6 4.5-9.8 8.8-13.3 1.5-1.2 3.7-2.7 5-3.3 2.7-1.4 4.9-2 2.7-.9-1.7 1-1.4 1.3.4.5 3-1.3 6.3-2.3 7.8-2.3 5 0 11.2 2.5 14.9 6 1.2 1.2 1.9 2 1.4 1.7-.5-.3-2.1-.6-3.6-.8a9 9 0 0 0-5.2.7c-2.6 1-5 2.8-5.8 4.4l-.5 1h1.6c1.3 0 1.6-.1 1.7-.7.2-.4.7-.8 1.7-1l3.4-1.1c1-.4 2.2-.7 2.5-.7 1.3 0 5 .8 5.6 1.1.5.3.7.2.8 0 .3-1 2.7 4.8 3.3 8 .5 2.6.8 3.4 1.8 4.5 1.8 2 2.3 3.5 2.3 6.6 0 3.5-1 5.7-3.2 7.8-4.2 4-13 7.4-24.5 9.6a198 198 0 0 1-17.5 2.6c-.9 0-2.9-.8-6.2-2.5zm16-3.4c0-.2-.3-.7-1-1.1-1.4-1.1-1.3-1.4.5-1.4 1 0 1.3-.1 1-.3-.7-.5 1.3-.8 5.2-.8h3.4l-3.5-.5c-2-.3-4.2-.7-5-1a9 9 0 0 0-2.5-.6c-3.6 0-9.9-2.3-12.8-4.6-1.4-1-2.5-3-2.5-4.2a1 1 0 0 0-.5-.8c-.4-.2-.5-.6-.4-1.5v-1.2l-.9 1.6c-.4.9-1 1.7-1.3 1.8a2 2 0 0 0-.9.7c-.2.4-.6.4-1.6.3-1.7-.3-2.2.3-1 1.2.4.4.7.8.5 1.2 0 .3.2 1 .6 1.5.5.6.7 1.4.7 2.1-.1 1 0 1.2.6 1.4.4.1.7.3.6.5-.3.4 2.5 2.2 3.4 2.3.5 0 1.2.3 1.6.6.6.4 1.3.5 2.7.4 1.1-.1 2.1 0 2.7.3.4.2 2 .5 3.4.7a8 8 0 0 1 3.5 1c1 .7 3 1 3.4.4zm20.5-2c1.3-.4 3-1 3.5-1.4.5-.3.7-.4.3-.3a60.7 60.7 0 0 1-11.5 2.6c-1 .8 5 .1 7.7-.8zM73 259c.6-.1 1-.4 1-.5 0-.3-2.3.2-2.6.5-.3.3.2.3 1.6 0zm-20.2-.8c-.3-.4-2-.7-2-.4 0 .4.7.6 1.5.7.4 0 .6-.1.5-.3zm-6-6 .8-4a47 47 0 0 1 4.6-9.5c.4-.5 1.2-2 1.8-3.2.8-1.8 1.6-2.7 3.5-4.3a9.6 9.6 0 0 0 2.5-2.5c0-.3.1-.5.3-.5.6 0 0-1-.9-1.4-2.2-1-5 .3-7.2 3.3l-3 3.8c-2.1 2.4-4 6-5.8 11.3-1.5 4.4-2.2 8-1.3 6.8l1-2.4c.7-1.6 1.4-2.3 2-1.8.3 0 .3.3.2.5 0 .1 0 .4.2.5.3.2.3.9.2 2-.3 1.7 0 3.8.5 3.8.1 0 .4-1 .7-2.4zm7.5-21.8.5-1.3c.3-.7 1.7-.8 2.3 0 .3.3.1.5-1 1l-1.9.8v-.5zM39 250.7c-.3-.3-.4-.3-.4 0 0 .4.4.8.6.6.1-.1 0-.4-.2-.6zm15.3-7.6 1.2-2.8a42 42 0 0 1 2.6-4.5c1.3-2 2.2-3.6 2.1-3.7-.8-.8-7 9.5-6.3 10.5 0 .1 0 .7-.4 1.2l-.2 1c.2 0 .6-.8 1-1.7zm-10-5.2 2-2.7 3.5-4.6c1.2-1.3 1.6-2 1.1-1.6-1.5 1-6 6.7-7.4 9.4-.8 1.6-1 2.4-.1 1 .3-.7.7-1.3.9-1.5zm22.9-10.2c.9-.8 2-1.4 3-1.5l2-.4c.6-.2.6-.2 0-.7-.6-.3-1.2-.4-3 0-1.8.3-2.5.6-3.6 1.6-.8.8-1.3 1.5-1.2 1.8.5.6 1.1.4 2.8-.8zm-3.3-2.6c.2-.8-1.5-1.3-2.8-1l-1.2.4 1.2.6c1.4.6 2.6.6 2.8 0z" transform="translate(-21.6 -221.8)"/>
  <path style="fill:#dca50f;stroke-width:.352778" d="M39 269.7a88.5 88.5 0 0 1-7-4 28.5 28.5 0 0 1-7.6-6.9c0-.6.5-.3 2.6 1.4 4.2 3.4 5.8 4.4 11.2 7.3 2.8 1.5 5.4 3 5.7 3.5.6.6.7.6 1.3.1.3-.3 2.2-.8 4.3-1.1a149.7 149.7 0 0 0 12.9-2.5c7-1.4 2.4-1.5-6.4-.1-6.6 1-9.3 1.3-10.3 1a292.7 292.7 0 0 0-6.6-2.1l-1.3-.6c-3-.9-9.2-5.7-10.3-8.1-.6-1.2-.6-1.3.3-2.6a47.7 47.7 0 0 1 9.4-8.6c1.4-.9 1.6-1.2 2.6-4.2 1-3.4 1.6-3.6.7-.3-.2 1.2-.3 2.2-.2 2.5.2.3.2.7.1.8-.1.2 0 .3.2.3s.5-.5.6-1c.2-.7.3-.8.5-.4.3.4.4.4.4 0a41 41 0 0 1 14-18.8c.6 0 3.9 1.1 6.6 2.3l1.4.6-1 .8a4 4 0 0 1-1.6 1c-.2 0-1.1.7-2 1.5-.8 1-1.5 1.5-1.5 1.4 0-.1-.4 0-.8.4-.4.3-.6.9-.5 1.1.1.3-.6 2-1.5 3.6a49.5 49.5 0 0 0-4.3 10.3c0-.2.2-.4.4-.4s.3.6.2 1.5v1.5h1.4c1.5.2 1.7 0 3.1-2.3l1.4-2a6 6 0 0 0 1-2.2c0-.4.4-.8 1-1 .7-.4 1-.8 1-1.4.2-.6.6-1.1 1.5-1.6.8-.4 1.3-.8 1.3-1 0-.3.6-1 1.2-1.5.6-.6 1.3-1.4 1.5-1.8.3-.5.7-.6 1.7-.6s1.4 0 1.5-.6c.2-.5.7-.9 1.7-1.1l3.4-1.1c2.2-.8 2.2-.8 5-.3 3.7.6 4.7 1.2 5.7 3.7a33 33 0 0 1 1.6 5.2c.5 2.4.8 3.3 1.8 4.3 1.7 2 2.2 3.5 2.2 6.6 0 3.5-1 5.7-3.2 7.8-4.2 4-13 7.4-24.5 9.6a198 198 0 0 1-17.5 2.6c-.9 0-2.9-.8-6.2-2.5zm16-3.4c0-.2-.3-.7-1-1.1-1.4-1.1-1.3-1.4.5-1.4 1 0 1.3-.1 1-.3a23 23 0 0 1 6-.5c3.5 0 6.5-.3 6.9-.6.5-.3-.3-.4-3.4-.4-4 0-7-.3-10.4-1l-4.8-.9c-3.2-.6-7.3-2.3-9.5-4.1-1.4-1-2.5-3-2.5-4.2 0-.4-.1-.7-.3-.7-.5 0-.4-2 .2-3.2.3-.6.4-1 .3-1-.5 0-2 2-2.3 3.3-.3.7-.7 1.4-1 1.5a2 2 0 0 0-.8.6c-.2.2-1 .4-1.7.4-1.7 0-2.1.5-1.2 1.3.3.3.5.9.5 1.3s.2 1 .5 1.2c.4.4.5 1 .4 2-.1 2 .3 2.5 2.8 4.1 2.3 1.4 3.3 1.7 6.6 1.6 1.6 0 3 0 3.5.3.7.4 1.7.6 3.9.7.5 0 1.2.2 1.4.5.9.8 4 1.2 4.3.6zm20.5-2c1.3-.4 3-1 3.5-1.4.5-.3.7-.4.3-.3a60.7 60.7 0 0 1-11.5 2.6c-1 .8 5 .1 7.7-.8zm-2.4-5.1c1.7-.4 2.5-1 1.2-1-1.1 0-3.3.7-3.3 1 0 .4 0 .4 2.1 0zm-19.3-1c-1.7-.7-3.3-1-3.3-.5s2 1 3.4 1.1h1l-1.1-.5zm-7-3.3a35.5 35.5 0 0 1 6-16.3 12 12 0 0 0 1.6-2.9c0-.3.6-1.1 1.2-1.8 6-6.3 5.8-6.1 5-6.7a8 8 0 0 0-2.1-.8c-1.2-.4-1.6-.3-2.5.2a35.2 35.2 0 0 0-10 11.6 56.7 56.7 0 0 0-4.4 13.3c-.5 3-.5 3.8 0 3.8s1.2-1.6 1.2-2.5c0-.3.2-.6.5-.6s.6-.2.6-.5c0-.2.2 0 .5.5.3.4.5 1.7.5 2.8 0 1.8.4 2.8 1 2.8.2 0 .6-1.3.9-3zm39.9 1c0-.4 0-.5-.4-.3-.2 0-.5.3-.5.5 0 .5.6.3.9-.2zm2.2-2c.3.3.4.2.6-.4l-.1-1.1c-.4-.4-1.1 0-1.1.6 0 .3-.2.7-.5 1-.3.2-.6.5-.6.8 0 .2.4 0 .7-.5.6-.7.8-.8 1-.4zm-3-1.5c0-.2-.5 0-1 .5l-.8 1.1c0 .2.4 0 .8-.4.5-.5 1-1 1-1.2zm-33.5-1c-.3-.3-.4-.3-.4 0 0 .4.4.8.6.6.1-.1 0-.4-.2-.6zm-13.2-.5c-.2-.5-.5-.8-.6-.7-.2.2.3 1.6.7 1.6.2 0 .1-.4-.1-.9zm49.4-4.2-.3-.4c-.2 0-.4 0-.4.2s.2.4.4.4.3-.1.3-.2zm-25.2-19.9c-1.6-1-4.1-1.8-5.3-1.8-.6 0-.9-.1-.7-.3a23 23 0 0 1 7.4-2.2h1.4l-1.4.6-3 .9c-1 .2-1.7.5-1.7.6 0 .3 2.5 1.1 3.3 1.1.3 0 .6-.3.6-.6 0-.8 2.5-1.5 5.4-1.5 3.6 0 3.7.4.4 1.1-2.7.5-3.3.8-4 1.7-1.1 1.3-1 1.2-2.4.4z" transform="translate(-21.6 -221.8)"/>
  <path style="fill:#d48e0b;stroke-width:.352778" d="M39 269.7a88.5 88.5 0 0 1-7-4c-3-2.2-7.6-6.1-7.6-6.7 0-.6 0-.7 4.3 2.8 3.3 2.5 5.4 3.8 11.3 6.8 2 1.1 3.8 2.3 4 2.6.3.6.3.6 1.2 0 .6-.4 2.4-.9 4.6-1.2 6.1-1 13.5-2.5 24.1-5.2 2.4-.5 7.5-2.7 7.2-3l-2.5.7c-2.7 1-9.1 2.1-10.4 2-2-.4 0-1.7 2.3-1.8 2.2 0 2.4-.7.3-.7a57 57 0 0 1-17.2-1.4c-2.2 0-7.2-1.4-9.7-2.6-3.2-1.6-4.7-3-5.5-4.9l-1-2.1c-.4-.8 0-2.9.7-3.6.6-.4.6-.4.7.6 0 .5.2 1.2.4 1.4.7.7 1.5-.5 2.7-4.2 1.1-3.5 2.4-6.2 4-8.7 1.2-2 1.3-1.4.2 1a66.6 66.6 0 0 0-4.8 14.6c-.4 2.8-.4 3 .3 3.4.3.3.8.5 1.1.5.3 0 1 .5 1.8 1.1.8.6 1.6 1 1.7 1 .2-.2.5-1.1.6-2.2.4-3.5 2-9.5 3.1-11.7 1.8-3.5 4.5-6.8 4.5-5.5l-.6 1.3c-1 1.7-3.5 7.9-4.1 10.1-.5 1.9-.5 2.2 0 3.7.5 1.2 1 1.7 1.9 2.1.9.4 1.4.4 2 .2l1.2-.5c.4-.1.8-.8 1-1.4a58 58 0 0 1 1.7-5.2c.3-.8 1.1-2.2 1.8-3 .6-.7 1.1-1.5 1.1-1.8 0-.8 2.2-3.7 3.2-4.2a5 5 0 0 0 1.6-1.4c.3-.5 1-1 1.3-1 1.2 0 2.6-.9 3.1-2 .6-1.4 1.3-1.8 3.2-1.8.9 0 2.2-.2 3-.5 2-.8 3.6-.7 5.5.5 1 .5 1.6 1 1.5 1.2-.1.1.2.8.7 1.5.5.8 1 2 1.2 2.9.3.8.8 1.9 1.3 2.5.5.5.9 1.1.9 1.3 0 1 1.6 6.1 2 6.1.6 0 .6.5-.2 1.5l-1.1 2c-.7 1.6-2.2 3.4-4.2 4.7l-1.6 1.1 1 .5 1 .5-1 1c-.7.5-.8.7-.4.6a16 16 0 0 0 4.7-3.6c1.6-1.6 2-2.3 2.6-4.4.4-1.4.9-2.4 1-2.4.3.4-.6 5.3-1.3 6.5-2.5 5-12.4 9.6-26.6 12.3a198 198 0 0 1-17.5 2.6c-.9 0-2.9-.8-6.2-2.5zm38.2-8.4c.2-.3-.2-.3-1.4-.2-2.7.4-3.6 1-1 .7 1 0 2.2-.3 2.4-.5zm-3-2.3c1-.3.8-.9-.3-.8-1.5 0-2.6.5-2.8 1-.1.4.1.4 1.2.2l2-.4zm-18.7 0c0-.4-1.8-1-4.2-1.6-1.2-.3-1.5.2-.4.7 1.4.8 4.6 1.3 4.6.8zm30-5.8c1-1.4.8-1.7-.4-.5-1 1-1.3 1.6-.7 1.6.2 0 .6-.5 1-1zm-45.9-1.7c0-.4-1.4-2.1-1.4-1.7 0 .4.8 2 1.1 2 .2 0 .3-.1.3-.3zm-3-4.3A6 6 0 0 1 38 246c.5-.3.4 0-.3.7-1.1 1.2-2.1 1.6-1 .4zm21-15c0-.7 4.3-4.4 5-4.4 1.3 0 1 .7-.9 1.7l-3 2c-.6.6-1.1.8-1.1.6zm-6-2.5c0-.5 4-4.4 4.6-4.4.6 0 .4.4-.6 1.2l-2.5 2.1c-.8.8-1.5 1.3-1.5 1zm11.8-3.1c-.7-.5-.7-.5 0-.5a1 1 0 0 0 1-.7c.4-1 4.1-2 4.6-1.2.3.4-.6.8-1.6.8-.4 0-1.2.5-1.7 1-1.3 1.3-1.4 1.3-2.3.6zm-5.4-2c0-.3 4.3-1.7 5.5-1.7.9 0 .9 0-.4.5l-2.5.7c-.7.1-1.2.4-1.2.6 0 .1-.4.3-.7.3-.4 0-.7-.1-.7-.3zm11.9-.6h.7c0 .2-.1.3-.5.3s-.5-.1-.2-.3z" transform="translate(-21.6 -221.8)"/>
  <path style="fill:#c7750d;stroke-width:.352778" d="M45 271.4c.7-.5 1.5-.9 1.8-.9a175.8 175.8 0 0 0 32.9-7.7c5.9-2.9 8.6-5.2 10-8.8l.7-1.7-.1 1.9c-.1 1-.5 2.4-1 3.2C86.6 263 74 268 54.7 271l-8.3 1.2-2.3.2zm-4.7-1.1c-1.6-.9-2.7-1.5-2.3-1.4.4.2 1 .3 1.4.3 1 .2 3.5 1 4 1.4.5.4.6 1.3.2 1.3l-3.3-1.6zM26.4 261l-2-2c.3-.2 2.2 1.5 3.6 3 1.2 1.5.7 1.2-1.6-1zm30.9.2a35 35 0 0 0-3.5-.7c-8-1.1-14.7-4.6-15.4-8l-.6-1.6c-.4-.8-.4-2.6 0-2.9.3-.1.4.3.4 1.1 0 1.7.9 3 1.4 2.2.3-.4.4-.4.4.2 0 1 .6.3.8-1 .4-2 1.4-5.2 1.5-5l-.5 3.2c-1.3 6-1.3 6.4-.2 7.2 1.6 1 4.8 2.6 5 2.3.1-.1.4-1.4.6-3 .4-2.7 1.5-6.8 1.8-6.6l-.2 2a26 26 0 0 0-.4 5.8c0 .5.2.6.7.2.6-.3.7-.2.7.3 0 .3.4.8.8 1 1 .7 5 1.6 5.8 1.3.6-.2.6-.2 0-.7-.7-.4-.6-.6 1-2.2 1-1 2-1.8 2.2-1.8.3 0 .8-.6 1.1-1.4.4-.7 1.4-2 2.3-2.9 1-.9 1.7-1.9 1.7-2.2 0-.4.3-1 .8-1.2 1.3-.9 3.9-2.1 4.4-2.2.3 0 .4-.2.3-.4-.3-.9.7-2 2.4-2.5 1-.3 2.3-1 3-1.5 1.1-1 1.4-1 4-1l2.9.2 1.4 1.6c1.8 2.1 2.3 3.5 2.3 7.2 0 3 0 3.1-1.1 4.1-.8.8-1 1.3-1 2.1.1 1 .2 1 1.4-1 .7-1.1 1.3-2 1.5-2 .6 0-.2 1.9-1.4 3.5-1.9 2.6-7.3 5.2-11.8 5.8l-4 .5c-3.1.4-10.9.4-12.5 0zm15-1.7v.4c-.3.3 0 .3.5.2l1.4-.3c.7 0 1.2-1.4.7-1.9-.2-.1-1.2 0-2.3.3-1.5.5-2 .7-1.8 1.1l.2 1c0 .1.3 0 .6-.3l.7-.5z" transform="translate(-21.6 -221.8)"/>
  <path style="fill:#bc6e0b;stroke-width:.352778" d="M44.9 272c0-.7 1-1.1 3.5-1.5 2.2-.4 2.6-.4 2.9 0 .5.9.4 1-1.9 1.2l-3.4.4c-.6.2-1.1 0-1.1-.1zm-2.4-.7a.8.8 0 0 1-.4-.7c0-.4.1-.4.7-.1 1.1.6.9 1.3-.3.8zm26-3.6c0-.2-.3-.4-.8-.6-.5-.2.4-.5 3.8-1.4a36 36 0 0 0 17-8.6c1.3-1.5 1.6-.8.4 1-2 3.2-7.1 6-14.8 8.6-4.3 1.4-5.6 1.6-5.6 1zm-2.5-.6h.7c.1.1-.1.2-.5.2s-.5-.1-.2-.2zm-7.5-5.6c-.5-.2-.5-.3-.2-.5.4-.2.4-.5.1-.8-.5-.6 0-1.9 1-2.4.4-.2 1.4-1 2.1-1.7 1.3-1.1 1.5-1.2 2.3-.8.7.4 1.1.3 3.6-.9 1.6-.7 3-1.6 3-1.9.2-.4 2.2-1.6 4.8-2.8l4.6-2.5c.2-.3 2-.5 4.2-.4h1.5l-.1 2.7c-.1 2-.3 2.9-.9 3.5-.8.8-1.3 2.7-.7 2.7.5 0 2.4-2.1 2.4-2.7 0-.2.2-.6.6-.9.5-.4.5-.4 0 .4-1.4 3-2.8 4.3-6 5.9a21 21 0 0 1-4.7 1.7l-1.5.3.4-1.1c.2-.6.3-1.2.1-1.4-.1-.1-1.1 0-2.3.3-1.8.4-2 .6-2 1.6-.2.9-.4 1.1-1.1 1.3a80 80 0 0 1-11.2.4zm-2.4-.7c-.3-.3 0-1.2.5-1.2.2 0 .3.3.3.7 0 .7-.4.9-.8.5zm-5.7-1c-3.1-.6-4.2-1-3.7-1.3.2-.2.5-1 .5-1.7.2-2.5.7-2.5.9-.1.1 2.2.2 2.3 1.1 2.4.7 0 1-.1 1-.5 0-.3.1-.4.3-.3.2.1.3.4.2.7-.1.3.2.6 1.1.8 1.7.5.5.5-1.4 0zm1.6-.6c-.7-.2-.8-.3-.2-.3l1.6.3c.7.2.7.3.1.3l-1.5-.3zm-12.7-5c-.8-1.3-.8-1.8 0-2 .3 0 .4 0 0 .2-.2.2-.2.5.1 1.1.5.9.5.9 1-.7l.6-1.5-.1 1.4-.2 2c0 1-.7.7-1.4-.5z" transform="translate(-21.6 -221.8)"/>
</svg>
