<svg xmlns="http://www.w3.org/2000/svg" width="247" height="250.2" viewBox="0 0 65.4 66.2">
  <g style="display:inline">
    <path d="M34 115V78.1h73.4v73.4H34.1Zm18.3 32.5c3.1-1.2 5.2-4.6 9-14.2.3-.8.4-.7 1 1.4a20 20 0 0 0 16.8 13c5.1 0 11-3.2 17.5-9.4 4-3.8 5.7-6.9 6.2-11.2.8-6.6-2.7-12.9-9-16.2a15.2 15.2 0 0 0-12.9-1c-2.6.9-2.7 1 3.1-3.8l4.2-3.4.1-1.7c.3-4-3-10.6-7.2-14.4-2.6-2.3-4.2-3.4-5.2-3.4-.3 0-.6.1-.6.3 0 .8-2 .4-3.1-.7-1.1-1-1.3-1.1-3.4-1a9 9 0 0 0-3.9 1.2c-1.2.7-1.6.8-1.6.4 0-2.1-7.2 2.6-8 5.2-.3.6-.7 5-1.1 9.6a629 629 0 0 1-1 11.4l-.4 2.9-3.7 5.6-6 8.8c-3 4.2-5 7.8-5.5 10.3-.4 1.8-.4 2.1.3 3.6 1.3 2.6 5 5.2 9.2 6.6 2.4.8 3.6.8 5.2.1zm-9.8-10c0-.2-.2-.3-.5-.2-.8.3-1.4-1.4-.8-2.4.8-1.4 3-2.8 2.5-1.4-.1.3 0 .4.4.3.5-.2.5-.1 0 1.2-.6 1.6-1.6 3.3-1.6 2.5z" style="fill:#fefefe;stroke-width:.352778" transform="translate(-37.4 -81.8)"/>
    <path d="M49.5 147.8h1.4c.3.1 0 .2-.8.2s-1 0-.6-.2zm-2.1-2.3c-1.6-1-4-2.4-5.6-3-1.5-.7-3-1.4-3.2-1.7-.2-.2-.5-.4-.7-.3-.5.3-.7-1.9-.3-3.4.5-2 1.8-4.9 2.2-4.9.1 0 .2-.1.2-.3-.2-.4 2-2.2 2.6-2.2.2 0 1-.5 1.7-1.2 1.3-1.2 3.2-2 3.2-1.2 0 .2.2.2.5 0 .5 0 .6 0 .3.7-.1.5 0 .9.2 1 .3.2.5 1 .5 2.2 0 1.3 0 1.7.3 1.4.8-.7 1-.4.9 1-.1 1 0 1.6.2 1.9.2.2.4 1 .3 1.7-.1 1 0 1.7.6 2.4l.7 1.4c0 .2.6 1 1.2 2 1.2 1.7 1.2 2.2-.5 3.4-1.7 1.2-2.4 1.1-5.3-1zM44 135c.5-1.3.5-1.4 0-1.2-.4.1-.5 0-.4-.3.5-1.4-1.7 0-2.5 1.4-.6 1 0 2.7.8 2.4.3-.1.5 0 .5.2 0 .8 1-.9 1.6-2.5zm10.4 10.8 1.4-1.2-1 1.2-1.4 1.2 1-1.2zm-15.2-3-.8-.9 1 .9 1 1c0 .2-.4 0-1.2-1zm54.9-2.5.8-.7c.1 0 0 .3-.4.7l-.9.7.5-.7zm-28.9-13c-.4-2 1.4-6 2.6-6 .4 0 .6-.3.6-.8 0-1.1 3-2.7 4-2.1.6.4-.2 2.1-2.3 5-1.5 2-4.2 5-4.5 5-.1 0-.3-.5-.4-1.1zm4.2-6.4c.1-.2 0-.3-.1-.3-.3 0-.4.1-.4.3l.1.4.4-.4zm29-6.2-.8-1 1 .8c1 .8 1.1 1.1.9 1.1l-1-1zm-45.7-2.8c0-.4 0-.5.2-.2v.7c-.2 0-.2-.1-.2-.5zm25.7-1.1c0-.6.5-.8 1-.4.5.3.5.3 0 .2-.3-.1-.7 0-.8.2-.1.3-.1.3-.2 0zm7.3-1.8H88c.6.1 0 .2-1.1.2-1.2 0-1.6 0-1-.2zm-32.7-.6c0-.4.1-.5.2-.2v.6c-.1.2-.2 0-.2-.4zm.4-3.4c0-.4 0-.6.2-.4v.9c-.1.2-.2 0-.2-.5zm32.8-.8.6-.6c.5-.4.6-.4.1.1-.4.6-.7.8-.7.5zm-32.4-3c0-.5 0-.7.1-.5v1l-.1-.5zm.3-4.5c0-.4 0-.5.2-.2v.7c-.1.1-.2-.1-.2-.5zm.4-4.4c0-.4 0-.6.1-.4v.9l-.1-.5zM67.9 82h.6c.1.1 0 .2-.4.2s-.5-.1-.2-.2zm2 0h1c.2 0 0 .2-.5.2s-.7-.1-.4-.2z" style="fill:#dce29e;stroke-width:.352778" transform="translate(-37.4 -81.8)"/>
    <path d="m69.3 137-1.2-.3c-3-.5-3.3-.7-3.8-2-1.4-3-1.3-8.2 0-11.1 1.5-2.9 4-5.6 7.5-8 7.9-5.2 13.6-6.8 18.6-5.2.7.2 1.4.3 1.7.2.3-.2.5-.1.4 0-.3.4 1.5 1.2 2 1 0-.2.2 0 .2.1 0 .2.3.4.6.4s.4.1.3.3c-.2.4.7 1.1 1.5 1.2.4 0 .7.1.7.3l1 1.8c1 1.7 1.6 4.4 1.6 6.8a17 17 0 0 1-2.8 8.1c0 .4-1.8 2-3 2.9-1.2.7-3.4.4-3.7-.6 0-.4-.3-.7-.5-.7-.7 0-1.3-1.2-.9-1.7.4-.4 0-.4-1.9-.3-2 .2-2.9.4-6.5 1.8-.7.2-1 .6-1 .7.2.2.2.2 0 0-.6-.2-3.8 1.4-5.7 3a7 7 0 0 1-3.5 1.3h-1.6zm4.6-6.7c.8-1-.4-1.7-1.3-.9-.5.5-.2 1.4.4 1.4.3 0 .7-.2 1-.5zm-6.7-3.3a37 37 0 0 0 5.2-7c.4-1 .4-1.4 0-1.6-1-.6-4 1-4 2.1.1.5-.1.8-.5.8-.8 0-1.5 1-2.2 3.2-.5 1.4-.5 3.8 0 3.8l1.5-1.3zm1.8-6c0-.3.1-.4.4-.4.2 0 .2.1.1.3l-.4.4-.1-.4zm28.8 2.5c-.4-.4-.7.2-.4.6.2.4.3.4.4 0v-.6zm-6.2 0c0-.2-.3-.5-.6-.5-.5 0-.7.5-.3.9.4.4.9.2.9-.3zm-5.9-6.1a.4.4 0 0 0-.5-.2c-.2.2-.3.4-.1.6 0 .2.3.2.5.1s.2-.3.1-.5z" style="fill:#f6d555;stroke-width:.352778" transform="translate(-37.4 -81.8)"/>
    <path d="m66.8 141.8-1.2-1.3 1.4 1.2a12 12 0 0 1 1.3 1.3c0 .3-.3 0-1.5-1.2zm4.9.4c-.2-.1-.8-.3-1.4-.3-1 0-1.2-.1-1.3-1-.1-.6-.3-1-.5-1s-.5 0-.6-.3c-.2-.4-.3-.2-.3.4 0 .8-.1.8-1.6-.7a9.5 9.5 0 0 1-2.2-4c-1-2.7-1.4-6.8-.9-8 .3-.7.4-.4.4 1.6 0 2.7.2 4 1 5.8.4 1 .8 1.4 1.8 1.6l1.8.4c2.3.6 5.2.1 6.5-1 1.8-1.5 5-3.2 5.6-3 .3.2.3.2.2 0-.2-.1.2-.5.9-.7a20 20 0 0 1 6.5-1.8c2-.1 2.3 0 2 .3-.5.5.1 1.7.8 1.7.2 0 .5.3.5.7.3 1 2.5 1.3 3.7.6 1.2-.8 3-2.5 3-2.9l.7-1.2a14.5 14.5 0 0 0 1.2-12.2c-.7-1.7-2.2-3.7-2.8-3.7-.3 0-.7-.2-1-.5-.8-1 .4-.5 2 .9a8 8 0 0 1 1.8 2.3c0 .5.3.8.5.7.2-.2.3 0 .1.4-.1.3 0 .5.2.3.1 0 .3.1.3.4 0 .4 0 1.8.2 3.3a17 17 0 0 1-10.1 16.9 28 28 0 0 1-7 1.6c-.9 0-3 .7-5 1.4-2 .6-3.7 1-3.9.9-.4-.3-2-.2-2.6.1h-.5zm4.9-3c0-.5-.3-.8-.7-1-.7 0-1.1.8-.8 1.6.4.9 1.5.5 1.5-.5zm11.4-6.7c-.1-.2-.3-.3-.5-.3s-.4.1-.5.3c0 .2.2.4.5.4s.5-.2.5-.4zm-15.6-2.2c-.4-1 1.2-1.7 1.7-.9.3.5-.4 1.4-1 1.4a.8.8 0 0 1-.7-.5zm1-.8c-.3-.3-1 .2-.7.7.2.2.4.2.6 0 .2-.3.3-.5.2-.7zm-31.6.2c.5-.6 1.1-1 1.4-1a2 2 0 0 0 1.1-.5c.3-.2.1 0-.3.6-.5.5-1.2 1-1.5 1a2 2 0 0 0-1 .4c-.3.2-.2 0 .3-.5zm21.6-4.2c0-.3.1-.8.3-1 .4-.7.4-.1 0 .8-.2.5-.3.6-.3.2zm34-1.3c-.3-.3-.3-.8.1-.8.2 0 .3.2.3.5 0 .6 0 .6-.4.3zm-6.7-.3c-.4-.4-.2-.9.3-.9.3 0 .6.3.6.6 0 .5-.5.7-.9.3zm-26-1.6.6-.7-.2.7c-.2.4-.5.7-.6.7l.2-.7zm1.8-2.4 1.5-1.7c.3-.1-.2.5-1 1.4a11 11 0 0 1-1.4 1.7c-.1 0 .3-.7 1-1.4zm18.8-2.3c0-.3.2-.4.3-.3.2 0 .2.3.1.5-.3.4-.4.4-.4-.2zm-15.7-.6c0-.2 2-1.6 4.4-3.2 5.5-3.6 7.8-4.3 12.6-4.3 3.3 0 4 .1 5.8 1 1.1.5 2 1 1.9 1.1-.1.1-.7 0-1.2-.3a16 16 0 0 0-9-1.3 32 32 0 0 0-11.9 5.4l-2.6 1.6z" style="fill:#d8b745;stroke-width:.352778" transform="translate(-37.4 -81.8)"/>
    <path d="m74.3 144.1-3.3-.3c-1 0-3.6-1.8-4.5-3.1-.4-.6-1-1-1.1-.9-.3.2-.3.1-.2-.1.2-.3 0-.9-.4-1.4-.4-.5-.8-1-.8-1.3 0-.2.3.1.7.7.4.6 1.2 1.5 1.8 2l1 1.1v-.8c0-.7.2-.8.4-.4.1.2.4.4.6.3.2 0 .4.4.5 1 .1.8.3 1 1.2 1l1.4.2h.7c1.2-.3 2.2-.3 2.5 0 .2.2 2-.3 3.9-1 2-.6 4.1-1.2 5-1.3 7-.8 10.9-2.9 14.2-7.6 3.1-4.5 4-10.4 2-14.8-1-2.4-.5-2 1 .8 1.7 3.4 2.2 6.4 1.6 9.7-.2 1.4-.6 2.5-.8 2.5-.2 0-.2.2-.1.4s-.1.4-.5.5c-.4.2-1.7 1.3-2.9 2.7-1.3 1.4-2.3 2.3-2.6 2.2-.3-.1-.5 0-.5.5 0 1-3.5 3.3-6.3 4.3-3.5 1.2-10 3.2-11 3.3-.5 0-2 0-3.5-.2zm9.5-3.2-.4-.4c-.1-.1-.3 0-.3.2s.2.3.3.3l.4-.1zm-8.7-1c-.3-1 .1-1.8.8-1.6.4 0 .7.4.7 1 0 1-1.1 1.4-1.5.5zm1-.5c0-.3-.2-.4-.4-.3l-.4.5c0 .2.2.4.4.4s.3-.3.3-.6zm-12.7-4c-.6-1.3-1.1-4.5-1-6.1 0-1 .1-.4.4 1.7a27.7 27.7 0 0 0 1.1 5.3l-.5-.8zm23.6-2.9c.1-.2.3-.3.5-.3s.4.1.5.3c0 .2-.2.4-.5.4s-.5-.2-.5-.4zm-14.3-2.3c-.1-.2 0-.5.2-.6.5-.4.9 0 .4.5-.2.3-.4.3-.6 0zm-10-3.1c0-.4.1-1 .3-1.4l.3-.7v.7L63 127l-.3.7zm.6-2.4c0-.4 1-2.4 1.3-2.4l-.4 1.2c-.7 1.3-.9 1.5-.9 1.2zm5.5-7.3.8-.7c.1 0 0 .3-.4.7l-.9.7.5-.7z" style="fill:#d1a932;stroke-width:.352778" transform="translate(-37.4 -81.8)"/>
    <path d="M46 146.9c-3.9-1.6-6.7-3.6-6.1-4.4 0-.2 0-.4-.4-.4-.3 0-.8-.3-1-.6-.8-1-.7-1.4 0-.7l3.5 1.7c1.6.7 4.1 2 5.6 3.1 2.5 1.8 2.7 1.8 3.8 1.5 1.3-.5 2.8-1.7 2.8-2.4l-1-1.8A7 7 0 0 1 52 141a4 4 0 0 0-.7-1.4c-.5-.7-.7-1.3-.6-2.4 0-.7 0-1.5-.3-1.7-.2-.3-.3-1-.2-1.9.2-1.4-.1-1.7-.9-1-.2.3-.3-.1-.3-1.4 0-1.2-.2-2-.5-2.1-.2-.2-.3-.6-.2-1.1.3-.7.2-.8-.3-.6-.3.1-.5 0-.5-.1 0-.6-1.6-.2-2.8.6-.6.4-1.3.8-1.6.8-.3 0-1 .6-1.7 1.3l-.8.8a90.7 90.7 0 0 1 4.9-6.7c-.3.5 1-.3 2.8-1.5.7-.6 1.3-.8 1.3-.6 0 .3.1.3.5 0 .4-.4.5-.3.5.3 0 .4.2.7.4.6.2-.2.3 0 .3.3s.3.5.5.5c.4 0 .5.3.3.8-.1.5 0 .7.2.5.3-.2.4.1.2 1-.2 1-.2 1 .4.6.5-.4.6-.3.6 1.2 0 .9 0 1.6.2 1.6.5 0 1.3 3.4 1 4-.2.3-.2.3.3 0 .6-.6.6-.6.7 1.9 0 .3.3.8.5 1.1.3.3.4.7.3 1-.1.2 0 .5.2.5s.3 0 .2.2c-.2.1 0 .5.3.9.5.5.5.8.2 1.7-.2.6-.3 1.2-.2 1.4.2.4-2.7 3.9-4 4.8-1.3.9-4 1.2-4 .5 0-.2-.2-.4-.5-.4s-.5.2-.4.4c.4.5 0 .4-2.3-.5zm32.4.6a5 5 0 0 1 1.6 0l-.8.1c-.9 0-1.2 0-.8-.1zm-25.3-38c0-.5.1-.6.2-.3v.7c-.1.1-.2-.1-.2-.5zm.7-7.1c0-.4.1-.5.3-.2v.6c-.2.2-.3 0-.3-.4zm34.3-1.6c0-.9.1-1.2.2-.8a5 5 0 0 1 0 1.6c-.1.4-.2 0-.2-.8zm-31.6-.5a21 21 0 0 1-.7-7l-.1-5.6 1-1.1c1-1.2 5.6-4 5-3a21 21 0 0 0-.2 4.4c.1 4.5-.2 8-.6 6.5-.2-.7-.4-.3-.6 1.5-.1 1.7-.5 2.7-1 3.2l-1 1.4c-.2.6-.2.7-.2.1 0-1-.7-.7-.8.3-.1.8-.2.7-.8-.7zM54.2 98c0-.5.1-.7.2-.4.1.2.1.6 0 .8-.1.3-.2 0-.2-.4zm.4-4.2c0-.5 0-.7.1-.5v.9l-.1-.4zm.3-3.8c0-.4.1-.5.2-.2v.7c-.1.1-.2-.1-.2-.5zm20-5.9.7-.6c.6-.5.6-.4.1.1-.4.6-.7.8-.7.5zm-3.1-1.5c-.5-.6-.5-.6 0-.2.7.5.9.8.6.8l-.6-.6zm-2.9-.7h.7c.1.1-.1.2-.5.2s-.5-.1-.2-.2z" style="fill:#94a85d;stroke-width:.352778" transform="translate(-37.4 -81.8)"/>
    <path d="M73.5 145.8c0-.2 0-.2-.4 0-.3 0-.6 0-.6-.2s-.1-.3-.3-.3c-1 .3-5.5-3.5-7.5-6.4-1.6-2.4-2.6-4.8-2-5.1.1-.1.3 0 .3.3 0 1 1.5 4 3 5.8 1.4 2 4.1 4.1 4.8 3.9.3-.1 1 0 1.5.1.6.2 2.2.3 3.7.3 2.5 0 5.2-.6 12.8-3.2 2.7-1 6.3-3.4 6.3-4.2 0-.4.2-.7.5-.6.2 0 1.6-1.1 3-2.6 1.3-1.4 2.6-2.5 2.7-2.4.3.4-1.7 3.8-2.5 4.3l-2.9 2.4c-3.8 3.6-6 4.7-13.5 7-3.4 1.1-9.4 1.7-9 1zm19.5-4.5c0-.1.2-.4.6-.7.5-.4.6-.4.1.2-.4.6-.7.7-.7.5zm-10-.6c0-.2.3-.3.4-.2l.4.4-.4.1c-.1 0-.3-.1-.3-.3zm-7.7-1c0-.2.2-.5.4-.6.2-.1.3 0 .3.3s-.1.6-.3.6a.4.4 0 0 1-.4-.4zm20.8-1.2 1.2-1.2 1.1-1-1 1.1c-1 1-1.3 1.3-1.3 1zm-34-6.7-.1-2c0-1 0-.8.3.6.3 2 .2 2.8-.1 1.4zm.2-4.5c0-.5.1-.7.2-.5v1c0 .2-.2 0-.2-.5z" style="fill:#a9922a;stroke-width:.352778" transform="translate(-37.4 -81.8)"/>
    <path d="M48.3 147.4c0-.2 0-.4.4-.4.3 0 .5.2.5.4s-.1.3-.3.3l-.6-.3zm-9.1-5c-.1-.2 0-.3.3-.3s.5.1.4.3l-.4.4-.3-.4zm18-.8c.5-2 .6-2.4.1-2.2-.3.2-.3.2-.2 0 .1-.3 0-.5-.1-.7-.2 0-.3-.3-.2-.5.1-.2 0-.3-.1-.3-.2 0-.3-.3-.2-.5 0-.3 0-.7-.3-1a2 2 0 0 1-.5-1.1c-.1-2.5 0-2.5-.7-2-.5.4-.5.4-.3 0 .3-.5-.5-4-1-4l-.3-1.7c0-1 0-1.7.2-1.6.2 0 .4.5.4 1 0 .6.2 1.1.4 1.3.2 0 .6.8.8 1.6.2.7.7 1.4 1 1.5.2.1.4.4.4.7 0 .8 1.5 5 1.8 5 .1 0 .4.4.5.8 0 .4 0 .6-.2.4-.3-.1-.3 0-.2.3 0 .3-.2 1.2-.7 2-.5 1-.8 1.4-.7 1zm-4.8-15.4c0-.8.2-.9.5-.2 0 .3 0 .6-.2.8-.1 0-.3-.2-.3-.6zm-.3-1.6c0-.4 0-.5.2-.2v.7c-.2 0-.2-.1-.2-.5zm-.5-1c.3-.2.6-.2.7 0l-.5.1c-.4 0-.5 0-.2-.2zm-.7-1c.2-.2.5-.3.6-.2.1.1 0 .3-.4.4-.5.2-.6.2-.2-.2zm5.5-17.8a4.9 4.9 0 0 1-2-3.4c-.2-1.6.6-11.9 1-12.7.2-.3.4 1.9.4 4.8 0 4.6.2 5.6.8 7 .6 1.4.7 1.4.7.6 0-1 .7-1.4.8-.4 0 .6 0 .5.3 0 .1-.4.6-1 1-1.5s.8-1.5 1-3.2c.1-1.8.3-2.2.5-1.5.4 1.5.7-2 .6-6.5 0-2.2 0-4.2.2-4.4.4-.6 1.3-.5 1.3.1 0 .3-.2.5-.4.5s-.3 2.9-.4 7.7c0 8.4-.2 9.8-1 9.8-.4 0-.7.3-.8 1-.1.5-.4 1-.7 1-.3 0-.7.2-1 .4-.2.3-.6.5-.8.4-.3-.1-.6 0-.6.3-.1.5-.2.5-.9 0zm29.8-.9c.4-.5.4-.6 0-.6-.3 0-.3-.2.1-.6.5-.4.5-.8.3-1.5-.3-.7-.3-1.3 0-1.8.4-.7.4-.8-.1-.6-.8.3-1.1-.4-.5-1 .5-.5.5-.7 0-1.5l-.4-1.6c0-.3-.3-.7-.5-.8a.5.5 0 0 1-.4-.7c.1-.3 0-.5-.2-.5s-.4-.2-.4-.5-.2-.7-.5-.8c-.3 0-.5-.4-.5-.6 0-1.4-1.5-.6-8 4.3-8 6-10 7.3-10.2 7-.1 0 3.5-3.1 8.1-6.7 8.6-6.8 8.6-7 7.4-8.4-.3-.3-.4-.6-.3-.8.2 0 1 .6 2 1.5 3 3.2 6 9.5 6 13 0 1.5-.2 1.9-1.2 2.8-.6.6-1 .7-.7.4zm-32.4-.5c0-.4.1-.5.3-.2v.7c-.2.1-.3-.1-.3-.5zm14.8-10.6 1-5.1c1-4.3 1-5.8-.1-2a6 6 0 0 1-.8 2c-.1-.2.5-3 .8-4 .2-.3.1-.5-.1-.5s-.7 1-1 2.2c-.8 2.1-.8 2-.3-1l.3-1.3-1.4.2c-.8 0-1.8.3-2.2.6-1.4.7-1.2.1.2-.8 1-.6 2-.8 3.8-1 2.3 0 2.6 0 3.1.8.3.4.5.9.3 1a86.1 86.1 0 0 1-3.4 9.9l-.2-1zm5.3-6.4c1-2 1.7-2.9 2.5-2.9 1 0 3.6 2.1 3.3 2.6-.2.3-.3.2-.4-.2 0-.3-.3-.5-.5-.4-.1.1-.3 0-.3-.2 0-.1-.6-.3-1.4-.2-1.1 0-1.6.3-2.6 1.4L73.2 88z" style="fill:#6f8e50;stroke-width:.352778" transform="translate(-37.4 -81.8)"/>
    <path d="m75.5 146.9-2.1-.9c-.7-.4-.6-.4.2-.2 1.9.6 5.4.2 8.8-.8 7.3-2.3 9.8-3.6 13.4-7 2.8-2.6 3.6-3 1.6-.9a49.3 49.3 0 0 1-10 7.9 16 16 0 0 1-12 1.9zm-13.4-14c-.1-.6-.2-1.2 0-1.3l.4 1v1.3s-.3-.4-.4-1zm-.1-5c0-.4 0-.6.2-.4v1c-.1.2-.2 0-.2-.5zm3.8-7.8.6-.6c.6-.5.6-.5.2.1-.5.6-.8.8-.8.5zm2.1-2.2 1-.9-.6 1-1 .8.6-.9z" style="fill:#9a7615;stroke-width:.352778" transform="translate(-37.4 -81.8)"/>
    <path d="m57.4 134.9-.8-2.8c0-.3-.2-.6-.5-.7-.2-.1-.7-.8-.9-1.5-.2-.8-.6-1.5-.8-1.6-.2-.2-.4-.7-.4-1.3 0-.7-.2-1-.6-1-.4.1-.7-.3-.8-1.2-.2-1-.5-1.4-.8-1.4-.3 0-.5-.2-.3-.6.1-.4 0-.5-.3-.3-.3 0-.6 0-.6-.3 0-.7-1.2-.4-2.6.6-2.6 2-2.3 1 1.4-4.6 3.6-5.6 4-6.8 4.2-10.2.1-2 .6-5 .9-5.2.1-.1.5.2.7.7l1.3 1.4c.8.5.8.5.8 0 0-.4.2-.6.5-.4.3 0 .7 0 1-.4.2-.2.6-.5.9-.5.3 0 .6-.4.7-1 .1-.6.4-1 .8-1s.6-.4 1-2.2l.3-2.3.2 3.2.1 3.1 1.4-1.2c.8-.7 1.2-1 1-.6-.8.9-.1.8 1.5-.3 1.3-.9 1.2-.8-.8 1.4a12.3 12.3 0 0 0-2 2.6c0 .1.8-.3 1.7-1 2.3-1.5 2.3-1.3 0 .7-1.2 1-2.4 2-2.8 2.5l-.7.8 1.4-.7c.8-.4 1.4-.7 1.5-.6 0 0-.7 1-1.8 2-2.2 2-2.4 2.7-.3 1 2.7-2 2.8-1.9.6.5-1.9 2-4 5.6-3 5 .3-.3.3.7 0 1-.2.2-.3.7-.3 1.1 0 .5-.2.9-.4.9s-.3.1-.3.4c.1.2-.4 2-1 3.8-1.2 3.2-1.4 5-.9 5.8.3.4.3.4.6 3.2l.4 3.8c.3 2.4-.3 2-1.2-.6z" style="fill:#6b8b28;stroke-width:.352778" transform="translate(-37.4 -81.8)"/>
    <path d="m58.6 138.4.2-1.4c0-.6 0-.6.3-.2.2.3.2.8 0 1.2-.6 1-.9 1.2-.5.4zm22.7-31.8c0-.6-.2-.8-.7-.8-.7 0-1-.6-.3-1 .8-.5-.2-.7-1.3-.3-1.4.6-1.5.3-.5-1 .5-.5.7-1 .6-1.2-.2-.1-.4 0-.5.1-.3.4-1.7 1.2-2 1.2-.2 0 0-.2.2-.5.4-.6.4-.6-.5-.4-1.3.3-1.2 0 .2-1.2 1.5-1.4 1-1.3-1.7.4-2.8 1.8-3.4 1.8-1.5 0 1.6-1.6 1.4-1.6-1.4.2-2 1.3-2.3 1.3-1.2 0 1-1 1-1.4-.2-.7l-1.9 1.2c-.7.3-.8.3-.4 0 .7-.8.5-1.2-.5-1l-1 .3.7-.8c.4-.4 3.8-3.1 7.7-6 6.5-5 8-5.7 8-4.3 0 .2.2.5.5.6.3.1.5.5.5.8 0 .3.2.5.4.5.3 0 .3.2.2.5 0 .3 0 .6.4.7.2.1.5.5.5.8 0 .4.2 1 .5 1.6.4.8.4 1 0 1.4-.7.7-.4 1.4.4 1.1.5-.2.5 0 .1.6-.3.5-.3 1 0 1.8.2.8.2 1-.2 1.4-.4.3-.4.5-.1.7.4.2-4 4.2-4.6 4.2-.2 0-.4-.4-.4-.9zm-27-4.9c0-.8 0-1 .1-.6v1.4c0 .3-.2 0-.1-.8zm12-2.1c-.1-.5-.3-.5-.7-.2-.4.3-.4.3-.4-.2.6-2.8.6-3.8.3-3.3-.3.4-.4 0-.2-1.6.5-6.4.5-7.4 0-8-.2-.4-.6-.6-1.2-.4-.7.2-.8.3-.8 4.9 0 5.4-.3 8.6-.7 7.2-.4-1.3-.4-13.8 0-13.8.2 0 .4-.2.5-.6.1-.6.2-.6.2 0 0 .7.5.8 1.6.2.4-.2 1.3-.5 2-.5l1.5-.2-.3 1.4c-.5 2.9-.5 3 .2.9.4-1.2.9-2.2 1.1-2.2.2 0 .3.2.1.6-.3 1-1 3.7-.8 3.8.1.1.5-.8.8-2 1-3.8 1.2-2.2.1 2.3-1.3 5.5-1.2 7.2.3 3A83.4 83.4 0 0 1 67 100c-.2 0-.5-.2-.6-.5zm7.3-5.2c.4-.8.4-.8-.2-.3-.5.4-.7.4-1.1 0-.5-.6-.6-.9-.2-2 .2-.6.2-1.2 0-1.3-.3-.3.7-3.3 1.2-3.6.2-.2.3 0 .1.2-.1.3.3-.1 1-.9 1.1-1.1 1.6-1.4 2.7-1.4.8 0 1.4 0 1.4.2s.2.3.4.2c.2-.1.3 0 .3.3 0 .4.2.5.6.3.4-.1.5 0 .4 0-.2.2 0 .6.2 1 1.1 1.2 1 1.6-1.3 3.5-2.4 1.8-3 2.1-2.6 1.2.3-.8-.3-.3-1.2 1l-.8 1.1.8-.6.7-.5-1.4 1.4c-1.4 1-1.4 1-1 .2zM71 87c0-.5.1-.5.2-.3v.7c-.1.1-.2 0-.2-.4zm.4-1.3.3-1.2c.2-.4.3-.5.3-.2s-.1.9-.3 1.3c-.2.4-.3.5-.3.1zm2.8-.8c0-.3.1-.6.3-.6.2 0 .3.3.2.6l-.4.5-.1-.5zM73 84h.7c.1.1 0 .2-.4.2-.5 0-.5 0-.3-.2z" style="fill:#597648;stroke-width:.352778" transform="translate(-37.4 -81.8)"/>
    <path d="M58.9 137.2c.1-.2 0-.8-.1-1.4l-.6-3.5c-.3-3.2-.3-3.4-.6-3.8-.5-.9-.3-2.6.9-5.8a17 17 0 0 0 1-3.8c0-.3 0-.4.3-.4.2 0 .4-.4.4-1 0-.4.1-.9.3-1 .3-.2.3-.4 0-.7-.5-.6.9-3 3-5.3 2.2-2.4 2-2.5-.6-.4-2 1.6-2 1 .3-1.2 1-1 1.9-1.9 1.8-2l-1.5.7-1.4.7.7-.8c.4-.4 1.6-1.6 2.8-2.5 2.3-2 2.3-2.2 0-.6l-1.7 1c-.4-.4 2.7-3.5 3.5-3.7 1.2-.3 1.5 0 .8.8-.4.5-.4.5.4 0l1.9-1c1.1-.8 1.3-.4.2.6-1.1 1.3-.8 1.3 1.2 0 2.8-1.8 3-1.8 1.4-.3-1.9 1.9-1.3 1.9 1.5 0 2.7-1.6 3.2-1.7 1.7-.3-1.4 1.3-1.5 1.5-.2 1.2.9-.2 1-.2.5.4-.3.3-.4.5-.3.5.4 0 1.8-.8 2-1.2.2-.2.4-.2.6 0 0 0-.1.6-.6 1-1 1.4-.9 1.7.5 1.1 1.1-.4 2.1-.2 1.3.4-.6.3-.4.9.3.9.4 0 .7.3.8 1 .1.8-.1 1.2-1.3 2.2-1.5 1.3-1.5 1.3-1.4.5 0-.8 0-.8-1-.7l-2 .2c-.6 0-1 .2-.9.3.1.2 0 .2-.3.1-.7-.2-5 2.6-7.3 4.8-3.2 3-6.1 8.3-7 12.3a22 22 0 0 0 0 7.7c.2.6-.8 3.3-1.3 3.3v-.3zm3.9-37 .5-7.9.3-4.7v4.6c0 2.5.2 5.9.3 7.4.2 2.8.2 3-.6 3.3l-.8.5zm1.6.4.4-7.4c.5-6.6.4-7.4-.8-6.9-.3.3-.7.3-.7.1 0-.7 1.6-.8 2-.1.5.6.5 1.6 0 8-.2 1.6-.1 2 .2 1.6.3-.5.3.5-.3 3.3 0 .5 0 .5.4.2.2-.2.6-.2.7-.1.5.5.2 1.1-.8 1.9l-1.1.7v-1.3zm3.2-1.4.5-1.6.5-1.2-.1 1.4c0 .8-.3 1.5-.5 1.5-.3.1-.4 0-.4-.1zm2.6-2 .7-3.6c.4-1.8.8-3.4 1-3.7.3-.5.3-.4.1 0l.1.9c.2 0 .2.7 0 1.4-.4 1-.3 1.3.2 1.8.4.5.6.5 1 .1.5-.4.6-.4.4.1-.2.7-3.7 3.6-3.5 3zM68.7 96c0-.3.2-1.1.5-1.8.2-.7.4-1 .4-.7l-.4 1.8c-.3.7-.5 1-.5.7zm6.6-3.1c1-1.4 1.4-1.7 1.2-.9 0 .3-.6 1-1.1 1.3l-1 .7zm-2.6-8.4c-.6-.5-.6-.6 0-.4l1 .2c.3 0 .6.2.6.4 0 .5-.8.4-1.6-.2z" style="fill:#546d29;stroke-width:.352778" transform="translate(-37.4 -81.8)"/>
    <path d="M60 134c-.3-1.4-.2-5.5.2-7.5.9-4 3.8-9.2 7-12.3 2.3-2.2 6.6-5 7.3-4.8h.3c0-.2.3-.4.8-.4l2-.2c1-.1 1.1 0 1 .5 0 .4-.3 1-.6 1.4-.8.9-2.2 1.7-1.8 1 1-1.6-5.3 1.8-8 4.3-2.2 2.2-5 6.3-4.7 7 .1.3 0 .3-.2.2-.3-.2-.4 0-.2.3.1.4 0 .6 0 .4-.8-.4-2 3.5-2.1 6.7-.1 3.3-.6 4.8-1 3.3zm1.7-4.6c0-.7 0-1 .1-.6v1.2l-.1-.6zm2.2-30.6c-.2-.6-.3-6.3 0-6l.3 6.6-.3-.6zm5-.5c.6-.8 1.5-4.2 1-4.4l-.2-.7c0-.3.2-.4.4-.3.3.2.3 0 .2-.5v-.6c.1.1.4-.1.7-.6l.5-.8-.2.9-.6 3.4c-.4 2-.7 2.8-1.3 3.4-.5.4-.7.5-.5.2zm-4.4-6c-.1-3.8-.2-4.5-.6-4.5-.8 0-.7-1 .1-1.5 1.1-.5 1.2.2.8 5.6l-.3 4.9zm7-2.2.3-1c.2-.2.3-.3.3-.1l-.3.9c-.2.3-.3.4-.3.2zm.8-2.7c0-.2-.3-.3-.5-.2-.4.3-.4 0 0-1.7.3-.8.6-1.2.8-1.1l1 .4c.6.2.6.3 0 1.6-.8 1.5-1 1.6-1.3 1z" style="fill:#384919;stroke-width:.352778" transform="translate(-37.4 -81.8)"/>
    <path d="M61 130c0-2 .4-3.2 1.4-5.3 2.7-5.9 6.1-9.7 10.6-12 3.8-2 4-1.4.4 1-4.1 2.7-9 7.4-10.2 10a15.5 15.5 0 0 0-1.6 6.8c0 1-.2 1.8-.4 2-.3.1-.4-.5-.3-2.4zm3.1-28.5c0-.5 0-.7.2-.4v.9c-.1.2-.2 0-.2-.5zm4.3-3.2.8-2.5c.3-1.1.7-2 .8-1.9.4.3-.6 3.8-1.2 4.4-.5.5-.6.5-.4 0zm-4.5-5.5c-.3-4.3-.2-5.5.3-5 .1.1.2 2.3.1 5v4.7zm6.2.2c0-.4 1.3-5.3 1.5-5.5.1-.1.4-.3.7-.3.3 0 .1.7-.7 2.5a110.3 110.3 0 0 0-1.5 3.3z" style="fill:#2a3710;stroke-width:.352778" transform="translate(-37.4 -81.8)"/>
  </g>
</svg>