<svg xmlns="http://www.w3.org/2000/svg" width="277.3" height="277.3" viewBox="0 0 73.4 73.4">
  <path d="M44.5 210v-36.6h73.4v73.4H44.5Z" style="fill:#fefefe;stroke-width:.352778" transform="translate(-44.5 -173.2)"/>
  <path d="M78.5 240.8c-.7-.4-1.3-1-1.6-1.4a6.5 6.5 0 0 0-2-1.7 17.3 17.3 0 0 1-6.1-5 11.9 11.9 0 0 0-4-3.3 21 21 0 0 1-6.2-5.5l-1-.8a5.6 5.6 0 0 1-2-2.6c-.9-1.8-1-2.4-1-8l-.2-6-1.5-1.2c-2.5-1.8-2.6-2.6-.8-6.3 2.5-5 9-14.3 11.5-16.7 1.2-1.1 2.5-1 4.8 0l1.9 1 2.1-1a8.5 8.5 0 0 1 2.7-1.1c.2 0 1.4-.4 2.5-1a9.1 9.1 0 0 1 7.6 0c.9.5 2.5 1 3.5 1.3 1.8.4 3 1 5.7 2.9a11 11 0 0 0 3.2 1.4l3 .7a9 9 0 0 1 2.5 1.1c1 .7 3.4 2 6 3.2 1.6.8 2.6 3.6 3 8.6.2 2.3-.3 5.1-1.7 10.3a73 73 0 0 1-7.2 14.9 41.2 41.2 0 0 1-12.5 13.2c-1.8 1.5-4 2.5-7 3.1-3.5.7-3.9.7-5.2-.1zM62 199.2c0-.2.3-.3.6-.3.4 0 .7 0 .8-.3 0-.2.4-.5.6-.8.3-.3.5-.7.5-1 .1-2.3.3-3.6.5-4l-.1-1c-.3-.8-.4-.8-1.5.9-2 2.6-3.4 6-2.9 6.6.3.3 1.5.2 1.5-.1z" style="fill:#ececd2;stroke-width:.352778" transform="translate(-44.5 -173.2)"/>
  <path d="M79 241a9 9 0 0 1-2.3-1.8c-.7-.8-2.1-1.8-3-2.3-1-.5-2.8-2-4.4-3.7a19.6 19.6 0 0 0-4.5-3.8c-1-.5-2.9-2-4.2-3.4a38.2 38.2 0 0 0-3.4-3.2c-1.6-1.1-2.4-3.7-2.6-8.7a35 35 0 0 1 0-5.8c.3-1.6.3-1.6-1-2.5-1.8-1.2-2.8-2.4-2.8-3.3 0-2.4 8-15 12.5-19.7 1.5-1.6 2.4-1.6 5-.4l2 1 2.1-1.1a7.9 7.9 0 0 1 3-1.1c.4 0 1.5-.4 2.3-.8 2.1-1.1 5.2-1.3 6.8-.4.7.4 2.5 1.1 4 1.5a13 13 0 0 1 4.8 2.2c1 .7 2.7 1.6 3.7 1.9a21 21 0 0 1 8.5 3.6l1.4.7 1.6.7c1.4.4 2.5 2 3 4.7.7 3.5.8 5.8.4 7.8l-1 4.9A59.8 59.8 0 0 1 91 237.5c-1.8 1.5-4.7 3-6 3a9 9 0 0 0-2.3.4c-1.7.6-2.5.7-3.7.2zm-3-30.4c1-.5 2.1-1.8 4-4.4 1.7-2.6 1.7-2.7 1-3.3-1-1-6.9 0-6.9 1.2 0 .2-.2.3-.5.3s-.5.2-.5.3c0 .7-1.6 1-3 .6-1.2-.3-1.6-.6-2.2-1.9-.5-.8-1.1-1.9-1.5-2.3-.8-.8-1-2.5-.4-3.8.3-.7.3-1.5-.3-3.6l-.8-2.7.8-.7c.8-.6 2-.4 2 .4 0 .2.3.3.6.3.7 0 1.3.7 2.1 2.3l1.4 2.1c.8 1 .9 1.1 4.6 1.2 4.8.2 5.2-.1 3-2a8 8 0 0 0-1.7-1.4 12 12 0 0 1-2.3-1.2 32.9 32.9 0 0 0-5-2.9c-3.1-1.9-5.4-.7-9 4.6a27 27 0 0 0-3 6.1c-.2.3-.2 1.1-.2 1.8 0 1.8 1.3 2.8 8.5 6.5 6.3 3.2 7.5 3.5 9.3 2.5zm-13.6-23.5a17 17 0 0 1 2.9-2c1.1-.4 1.2-.5.5-.8-1-.6-2-.6-2.6 0-1.8 1.7-3.4 4.3-2.6 4.3 0 0 1-.7 1.8-1.5z" style="fill:#d6d8c5;stroke-width:.352778" transform="translate(-44.5 -173.2)"/>
  <path d="M79.3 241.1a7 7 0 0 1-2.5-1.9 15 15 0 0 0-3.3-2.4c-1-.6-2.7-2-4.3-3.7a17.5 17.5 0 0 0-4.4-3.8c-1.1-.5-3-2-4.4-3.5l-3.5-3.5c-1.3-1.2-2.2-3.7-2.2-6.4l-.1-4.6c0-1.3 0-3 .2-3.5.2-1 0-1.2-1.4-2.2-2.3-1.7-2.8-2.7-2.3-4.3 1-3.2 11.3-18.4 13.1-19.5 1-.5 2-.4 4.2.7l2 1 1.2-.8c.6-.4 1.9-1 2.8-1.2 1-.2 2.5-.8 3.6-1.3 2.6-1 5-1 6.7 0 .6.3 2.3 1 3.6 1.3 1.3.3 3 1 4 1.6 3.7 2.3 4.4 2.7 6.4 3 2 .4 3.4 1 6.6 3 1.6 1 1.7 1 3.2 1.4 1.4.5 2.3 1.8 2.9 4.5 1 4 1 5.5 0 10.2a38 38 0 0 1-5 13.7 42 42 0 0 1-5.2 8.2l-3.2 4a27 27 0 0 1-3.3 3.4c-.9.6-2.4 1.8-3.3 2.7-2.1 1.8-5 3.2-6.3 3.2a9 9 0 0 0-2.3.5c-1.6.6-2.1.6-3.5.2zm-2.9-29.7a50 50 0 0 0 5.6-8.1c1.1-1.9 1.2-1.8-1.5-1.7-4.2.1-5.5.4-7 1.6-2.4 1.9-3.4 1.7-5.8-.9-2.1-2.2-2.3-2.8-1.6-4.8.3-1 .2-1.6-.4-3.8-.8-2.6-.8-2.8-.2-3.2.4-.3.9-.5 1.1-.5.7 0 3 2.5 3.7 4 .4.8 1.2 1.8 1.9 2.3 1 .7 1.3.8 5.5.5 4-.2 4.3-.2 4.8.4.2.4.7.7 1.1.8 1.4.2 1-.6-.7-2-2.2-1.5-2-1.4-7.6-4.6-4.9-2.8-6.4-3.5-7.8-3.5-1 0-3 1.3-3.9 2.5l-.9 1c-1 1-3 4.5-4 6.4-1.8 4-1.3 5.2 3.3 8.3 9 6 11.6 7.4 12.8 6.8.3-.2 1-.8 1.6-1.5zM61.8 188l1.7-1.5c1.6-1.4 3.5-1.4 6.6.1l2.8 1.3c.2.1.1 0-.1-.4l-2.7-1.7L67 184c-1.5-.9-2.5-1-3-.6-1 .8-3.9 4.5-3.7 4.8.3.6 1.1.4 1.6-.3z" style="fill:#cbcbb8;stroke-width:.352778" transform="translate(-44.5 -173.2)"/>
  <path d="M79.6 241.1c-.6-.1-1.8-1-2.7-1.8-.8-.8-2.4-2-3.5-2.6a21 21 0 0 1-4.4-3.8 16 16 0 0 0-4.4-3.8c-1.3-.6-3.1-2.2-5.5-4.6-3.9-4-4.5-5.2-4.4-8.8 0-.8 0-2.4-.2-3.4-.1-1 0-2.5.2-3.6.4-1.8.3-2-.4-2.4-.5-.3-1.4-1.2-2.2-2-1.1-1-1.3-1.4-1.1-2.2a80 80 0 0 1 12.4-19.4c1.4-1.5 2.5-1.5 5-.2l1.9 1 2.3-1.2c1.3-.6 2.6-1.1 3-1.1.3 0 1.4-.4 2.4-1a8 8 0 0 1 6.8 0c.8.5 2.5 1 3.6 1.3 1.1.3 2.8 1 3.8 1.6 3.3 2 4.5 2.7 6.3 3a29 29 0 0 1 8.2 3.8c.2.2 1 .5 1.5.6 1.5.3 3 2.3 3 4 0 .5.2 1.6.5 2.3.3.7.5 1.9.5 2.7 0 2-1.6 9.9-2.6 12.4a73.9 73.9 0 0 1-10 17.2 36.5 36.5 0 0 1-13.8 11.1l-2.7.6c-2.3.6-2.4.6-3.5.3zm-3.4-29.3a93 93 0 0 0 7.4-11c0-.2-.2-.2-.6-.1l-2.4.4c-5.4.5-5.6.6-7.4 1.8-1 .6-2 1.2-2.3 1.2-.7 0-2.4-1.1-4-2.6-1.4-1.3-1.6-2.5-.8-4 .4-.8.4-1.3-.3-3.7-.8-2.7-.8-2.9-.2-3.3.3-.3.7-.5 1-.5.5 0 2.3 2 3.1 3.6.4.8 1.3 1.9 2 2.4l1.2 1 4.4-.1c4-.2 4.6-.2 5 .4.5.6 2 1.6 2.2 1.4l.3-.8c.2-.6 0-1-.7-1.6a161.1 161.1 0 0 0-13.7-8.1c-.7-.6-3.3-.6-4.3-.1-1.5.8-3.2 2.5-5 5.2-3.5 5.3-4.4 8.4-2.8 10.2.5.5 3.8 2.9 7.4 5.3 7.8 5.2 8.2 5.4 10.5 3zm9-9.8-.5-.4c-.2 0-.3.2-.2.4.1.2.4.3.6.3.2 0 .2-.1.1-.3zm.5-1.4-.2-.8-.5.8c-.3.5-.2.7.2.7.3 0 .5-.3.5-.7zm1.4-4c-.3-1-1-.6-1 .5s0 1.1.6.5l.4-1zm-5-4.2a.8.8 0 0 0-.7-.3c-.2 0-.2.1.1.3.7.5.8.5.5 0zm-1.5-.7c0-.2-1-.7-2-1.2l-3-1.8a49 49 0 0 0-11.1-5.7c-1 .3-4.6 4.8-4.3 5.2.4.6 1 .4 2.7-1.2 2.7-2.5 3.4-2.4 11.3 1.7 7.1 3.7 6.7 3.5 6.4 3z" style="fill:#bcc2b8;stroke-width:.352778" transform="translate(-44.5 -173.2)"/>
  <path d="M79.7 241.2c-.6 0-1.6-.7-2.3-1.5-.8-.8-2.4-2-3.6-2.8-1.5-.8-3.2-2.4-4.8-4a16 16 0 0 0-4.4-3.8c-1.3-.6-3.1-2.2-5.5-4.6-3.9-4-4.5-5.2-4.4-8.8 0-.8 0-2.4-.2-3.4-.1-1 0-2.5.2-3.7.4-1.8.4-1.9-.6-2.6l-2.2-1.8c-1-1-1.1-1.4-1-2.1.9-3.3 8-14.4 12.2-18.9 1.9-2 2.6-2.1 5.3-.7l1.9 1 2.3-1.2c1.3-.6 2.6-1.1 3-1.1.3 0 1.4-.4 2.4-1a8 8 0 0 1 6.8 0c.8.5 2.5 1 3.6 1.3 1.1.3 2.8 1 3.8 1.6 3.3 2 4.5 2.7 6.3 3a29 29 0 0 1 8.2 3.8c.2.2 1 .5 1.5.6 1.5.3 3 2.3 3 4 0 .5.2 1.6.5 2.3.3.7.5 1.9.5 2.7 0 2-1.6 9.9-2.6 12.4a73.9 73.9 0 0 1-10 17.2 36.5 36.5 0 0 1-13.8 11.1l-2.7.6c-2 .5-2.4.6-3.4.4zm-4.2-28.7c1.3-.8 8.5-11.4 8.5-12.4a14.9 14.9 0 0 1-4.8 1c-3.8.2-4.7.4-6 1.4-2.2 1.7-3.6 1.5-6.2-1-1.5-1.3-1.7-2.4-.8-4l.4-1.2-.9-2.7-.7-2.6.9-.6c.8-.5.9-.5 1.6.1.4.4 1.2 1.5 1.7 2.5a15 15 0 0 0 2.4 3l1.2 1.1 4.5-.2 4.4-.2 1.3 1.4 1.3 1.5.4-1c.7-1.9.4-2.2-3.4-4.3l-7-4c-4.6-2.5-6.1-3-7.7-2.7-2.7.7-9 10-9.2 13.5 0 2 .1 2.2 8.2 7.7 7.1 4.8 8 5.1 10 3.7zm11.2-11.3a33 33 0 0 1 2.1-2.9c.2-.3.4-.8.3-1.1-.2-.8-2.6-2.8-4.7-3.9l-3.2-2-4.6-2.6-7.1-3.8c-3.7-2-4.7-2.3-5.2-2-.8.4-4.3 4.7-4.3 5.2 0 .9 1 .7 2-.3 1.7-1.8 3.2-2.5 4.7-2.3a116 116 0 0 1 18.6 9.6c.8 1.2.4 4-.6 5.5-.8 1-.8 1.1-.2 1.6 1 .7 1.1.6 2.2-1z" style="fill:#afb3a9;stroke-width:.352778" transform="translate(-44.5 -173.2)"/>
  <path d="M79.7 241.2c-.6 0-1.6-.7-2.3-1.5-.8-.8-2.4-2-3.6-2.8-1.5-.8-3.2-2.4-4.8-4a16 16 0 0 0-4.4-3.8c-1.3-.6-3.1-2.2-5.5-4.6-3.9-4-4.5-5.2-4.4-8.8 0-.8 0-2.4-.2-3.4-.1-1 0-2.5.2-3.7.4-1.8.4-1.9-.6-2.6-3.6-2.6-3.7-3.3-1.4-7.7a83.3 83.3 0 0 1 11.4-16c1.2-1 2-1 4.3.2l1.9 1 2.3-1.2c1.3-.6 2.6-1.1 3-1.1.3 0 1.4-.4 2.4-1a8 8 0 0 1 6.8 0c.8.5 2.5 1 3.6 1.3 1.1.3 2.8 1 3.8 1.6 3.3 2 4.5 2.7 6.3 3a29 29 0 0 1 8.2 3.8c.2.2 1 .5 1.5.6 1.5.3 3 2.3 3 4 0 .5.2 1.6.5 2.3.3.7.5 1.9.5 2.7 0 2-1.6 9.9-2.6 12.4a73.9 73.9 0 0 1-10 17.2 36.5 36.5 0 0 1-13.8 11.1l-2.7.6c-2 .5-2.4.6-3.4.4zm-5.1-28c1.4-.7 2.8-2.4 6-7.2 2.4-3.8 3.6-6 4.3-7.9.3-.8.4-1 .6-.6.1.3-.3 1.4-.8 2.5-1 1.9-1 2-.4 2.3 1.1.6 1.6.4 2.5-1l2.3-3.1 1.3-1.9-2-1.2a87.4 87.4 0 0 0-9-5.1c-.5-.4-2.5-1.5-4.6-2.5-2-1-3.9-2-4-2.2-.8-.5-5.5-2.7-6-2.7-.6 0-3.7 3.4-4.4 4.7-.4.7-.4 1 0 1.4.4.5.5.5 1.4-.6.6-.7 1.7-1.6 2.5-2 1.3-.6 1.7-.6 3-.3 2.3.6 17 8.4 17.6 9.4.8 1 .4 1.3-.8.5-1.3-.9-12.5-7-14.4-7.9-2.8-1.2-5.4.4-8.8 5.5-3.7 5.6-4.4 8-3 9.8 1 1.4 14 10.2 15.4 10.5l1.3-.5zm-6.7-11c-2.1-1.5-2.6-2.7-1.8-4.5.4-1.1.4-1.5-.3-4L65 191l1-.6c.8-.6.8-.5 1.7.5.4.5 1.2 1.7 1.6 2.6.5 1 1.5 2 2.3 2.6 1.4 1 1.5 1 5.9.9 4.2-.1 4.5-.1 4.9.5.2.4.6 1 .9 1.2.5.4.4.5 0 1-.5.4-1.8.7-4.5 1-3.8.5-4.8.8-6.4 2-1.3 1-2.5.8-4.5-.6zM86.8 192c-5.4-2.7-7.6-3.6-6.9-3 .8.8 11.6 6.1 12 6a19 19 0 0 0-5.1-3z" style="fill:#ccaf84;stroke-width:.352778" transform="translate(-44.5 -173.2)"/>
  <path d="M78.6 240.7c-.4-.2-1.2-1-1.8-1.6-.5-.6-2-1.6-3-2.3a15 15 0 0 1-4.4-3.6c-1.5-1.9-2.8-3-4.5-3.9a37 37 0 0 1-9.3-9c-.4-.8-.7-2.1-.7-3.7 0-1.4-.2-3.2-.4-4 0-1 0-2.6.2-3.8.4-2 .4-2-.6-2.8-3.6-2.6-3.7-3.3-1.4-7.7a83.3 83.3 0 0 1 11.4-16c1.2-1 1.9-1 4.3.2l2 1 1.7-1c1-.5 2.4-1 3.2-1.2.7-.1 2-.6 2.6-1 1.8-1 5.5-1 7 0 .6.4 2.1 1 3.5 1.3a16 16 0 0 1 4.8 2.2 15 15 0 0 0 5.3 2.3 21 21 0 0 1 5.9 2.5c1.6 1 3 1.7 3.2 1.7 1.5 0 3.6 2.5 3.6 4.4 0 .5.2 1.8.5 2.7.5 1.5.5 2.2.2 4.3-.6 4-1.7 8.8-2.3 10.3a87.5 87.5 0 0 1-10.1 17.3c-2.1 2.8-8 8-11.3 10-2.1 1.3-8.4 2.2-9.6 1.4zm15.3-11.6c.2-.1.4-.4.3-.5 0 0-.5.1-.8.4-.8.5-.4.7.5.1zM87 228c.1.2.4.3.7.3l.9-.1c.2 0 .2-.2-.3-.6-.6-.4-.5-.4.6-.3 1.2.2 1.4.1 3.4-2a9.7 9.7 0 0 0 2.6-3.7c.2-.8.5-1.4.7-1.3.1 0 .3-.1.4-.4.1-.3 0-.4-.3-.3l-2-.5c-1.4-.7-1.6-.7-2.8-.2l-1.6.7c-.3.1-.5.3-.5.5s-.1.3-.3.2c-.2-.2-.3.2-.2.6 0 .5 0 1-.2 1s-.3.1-.1.4c.1.2 0 .2-.4-.1-.6-.5-.6-.5-.5.7.1 1 0 1.3-.3 1.1-.2 0-.4-.3-.4-.5s-.2-.2-.4 0c-.2 0-.3.7-.2 1.4v.9c-.1-.3-.4-.5-.6-.5-.2 0-.3.2-.1.3 0 .1 0 .4-.2.7-.2.3-.2.5.4.6.4.2.7.4.7.6 0 .2-.2.3-.3.1-.2 0-.3 0-.2.4.2.4.3.5.7.1.4-.3.7-.3.8 0zm7.1-.7c0-.1-.2-.2-.5-.2s-.5.2-.5.4c0 .1.2.2.5 0 .3 0 .5-.2.5-.2zm2-9.1c.1-.2 0-.3-.2-.3-.4 0-.4 0 0-.3.6-.4.6-.4 0-1.2l-.7-1c0-.3.1-.3.2 0 .1.2.3.3.5.2l.3.1c0 .2.3.4.6.4s.4-.2.2-.4c-.3-.2-.3-.5 0-.8.2-.3.2-.5 0-.7-.6-.3-.5-.8.2-.6.4.2.4 0-.1-.5-.7-.9-.9-1-.8-.5 0 .7-.1 1.1-.5.9-.2-.2-.3-.1-.1.2.1.2 0 .5-.4.6-.9.3-1.9 1.6-1.9 2.3 0 .3-.3.7-.6.8-.5.2-.4.3.6.7 1.3.4 2.3.5 2.7 0zm-21.6-5c1.4-.6 2.8-2.3 6-7 2.4-3.9 3.6-6 4.3-8 .3-.8.4-1 .6-.6.1.3-.3 1.4-.8 2.5-1 1.9-1 2-.4 2.3 1.1.6 1.6.4 2.5-1l2.3-3.1 1.3-1.9-2-1.2a87.4 87.4 0 0 0-9-5.1c-.5-.4-2.5-1.5-4.6-2.5-2-1-3.9-2-4-2.2-.8-.5-5.5-2.7-6-2.7-.6 0-3.7 3.4-4.4 4.7-.4.7-.4 1 0 1.4.4.5.5.5 1.4-.6.6-.7 1.7-1.6 2.5-2 1.3-.6 1.7-.6 3-.3 2.3.6 17 8.4 17.6 9.4.8 1 .4 1.3-.8.5-1.3-.9-12.5-7-14.4-7.9-2.8-1.2-5.4.4-8.8 5.5-3.7 5.6-4.4 8-3 9.8 1 1.4 14 10.2 15.4 10.5l1.3-.5zm-6.7-11c-2.1-1.4-2.6-2.6-1.8-4.4.4-1.1.4-1.5-.3-4L65 191l1-.6c.8-.6.8-.5 1.7.5.4.5 1.2 1.7 1.6 2.6.5 1 1.5 2 2.3 2.6 1.4 1 1.5 1 5.9.9 4.2-.1 4.5-.1 4.9.5.2.4.6 1 .9 1.2.5.4.4.5 0 1-.5.4-1.8.7-4.5 1-3.8.5-4.8.8-6.4 2-1.3 1-2.5.8-4.5-.6zm23.8 8.4c.4-1.2 0-2.9-.6-2.9-.7 0-1.2 1.5-.8 2.4l.4 1.6c0 1 .5.4 1-1zm-5.5.2c-.3-.2-.4-.3-.4 0 0 .4.4.8.6.6.1 0 0-.4-.2-.6zm1.5-1.3c.2-.4-.4-.8-.9-.6-.4.3-.1 1 .4 1l.5-.4zm-1-17.3c-5.3-2.7-7.5-3.6-6.8-3 .8.8 11.6 6.1 12 6a19 19 0 0 0-5.1-3z" style="fill:#a4a79b;stroke-width:.352778" transform="translate(-44.5 -173.2)"/>
  <path d="M78.6 240.7c-.4-.2-1.2-1-1.8-1.6-.5-.6-2-1.6-3-2.3a15 15 0 0 1-4.4-3.6c-1.5-1.9-2.8-3-4.5-3.9a37 37 0 0 1-9.3-9c-.4-.8-.7-2.1-.7-3.7 0-1.4-.2-3.2-.4-4 0-1 0-2.6.2-3.8.4-2 .4-2-.6-2.8-3.6-2.6-3.7-3.4-1.5-7.5 1.6-3 6.4-10.3 7.1-11 .8-.6.3 2.2-.4 2.9-.4.3-.6.6-.5.8.2 0 .1.2 0 .2-.3 0-.4.2-.4.6 0 .3.2.2.7-.5 2.8-3.8 5.1-5.7 7-5.7a122 122 0 0 1 18.1 8.8c1.5 1.4.9 1.4-1.7 0a119 119 0 0 0-14.8-7.5c-1.1 0-3.8 1.8-4.9 3.3-3.7 5-5.6 8.7-5.6 10.8 0 1.8.7 2.4 8.6 7.8 8.2 5.7 8.7 5.7 12.5.3a64.5 64.5 0 0 1 4.5-6v-.6c.2 0 .6 0 .9-.2.3-.1.9 0 1.3.1.6.4.8.1 2-1.6a50 50 0 0 1 2.4-3c.5-.7 1-1.4 1-1.7 0-.3-.9-1-2-1.5a287.5 287.5 0 0 0-20.5-11c-2.4-1.3-2.7-1.3-3.8-1l-1.1.4 1-.8c1.2-1.1 1.7-1.1 4.3.1l2.1 1 1.8-1 3-1.2c.8-.1 2-.6 2.7-1 1.8-1 5.5-1 7 0 .6.4 2.1 1 3.5 1.3a16 16 0 0 1 4.8 2.2 15 15 0 0 0 5.3 2.3 21 21 0 0 1 5.9 2.5c1.6 1 3 1.7 3.2 1.7 1.5 0 3.6 2.5 3.6 4.4 0 .5.2 1.8.5 2.7.5 1.5.5 2.2.2 4.3-.6 4-1.7 8.8-2.3 10.3a87.5 87.5 0 0 1-10.1 17.3c-2.1 2.8-8 8-11.3 10-2.1 1.3-8.4 2.2-9.6 1.4zm15.3-11.6c.2-.1.4-.4.3-.5 0 0-.5.1-.8.4-.8.5-.4.7.5.1zM87 228c.1.2.4.3.7.3l.9-.1c.2 0 .2-.2-.3-.6-.6-.4-.5-.4.6-.3 1.2.2 1.4.1 3.4-2a9.7 9.7 0 0 0 2.6-3.7c.2-.8.5-1.4.7-1.3.1 0 .3-.1.4-.4.1-.3 0-.4-.3-.3l-2-.5c-1.4-.7-1.6-.7-2.8-.2l-1.6.7c-.3.1-.5.3-.5.5s-.1.3-.3.2c-.2-.2-.3.2-.2.6 0 .5 0 1-.2 1s-.3.1-.1.4c.1.2 0 .2-.4-.1-.6-.5-.6-.5-.5.7.1 1 0 1.3-.3 1.1-.2 0-.4-.3-.4-.5s-.2-.2-.4 0c-.2 0-.3.7-.2 1.4v.9c-.1-.3-.4-.5-.6-.5-.2 0-.3.2-.1.3 0 .1 0 .4-.2.7-.2.3-.2.5.4.6.4.2.7.4.7.6 0 .2-.2.3-.3.1-.2 0-.3 0-.2.4.2.4.3.5.7.1.4-.3.7-.3.8 0zm7.1-.7c0-.1-.2-.2-.5-.2s-.5.2-.5.4c0 .1.2.2.5 0 .3 0 .5-.2.5-.2zm2-9.1c.1-.2 0-.3-.2-.3-.4 0-.4 0 0-.3.6-.4.6-.4 0-1.2l-.7-1c0-.3.1-.3.2 0 .1.2.3.3.5.2l.3.1c0 .2.3.4.6.4s.4-.2.2-.4c-.3-.2-.3-.5 0-.8.2-.3.2-.5 0-.7-.6-.3-.5-.8.2-.6.4.2.4 0-.1-.5-.7-.9-.9-1-.8-.5 0 .7-.1 1.1-.5.9-.2-.2-.3-.1-.1.2.1.2 0 .5-.4.6-.9.3-1.9 1.6-1.9 2.3 0 .3-.3.7-.6.8-.5.2-.4.3.6.7 1.3.4 2.3.5 2.7 0zm-4.5-7.6c.4-1.2 0-2.9-.6-2.9-.7 0-1.2 1.5-.8 2.4l.4 1.6c0 1 .5.4 1-1zm-5.5.2c-.3-.2-.4-.3-.4 0 0 .4.4.8.6.6.1 0 0-.4-.2-.6zm1.5-1.3c.2-.4-.4-.8-.9-.6-.4.3-.1 1 .4 1l.5-.4zm6.3-6.7c.2-.2 0-.4-.1-.4-.2 0-.4.2-.4.4s0 .3.2.3l.3-.3zm-2-7.7a72 72 0 0 0-12.2-6.3c-.8-.2-.9-.2-.4.3.5.6 11.4 6.3 12 6.3l.6-.3zM68 202c-2-1.2-2.5-2.4-1.8-4.2.4-1.2.4-1.6-.3-4-.7-2.8-.7-2.8 0-3.3 1-.7 1.3-.6 2.5 1.6a19 19 0 0 0 2.7 3.5l1.5 1.5 4.7-.2c3.6 0 4.8 0 5 .4.3.2.3.4.2.4-.2 0 0 .3.3.7 1.1 1.2.5 1.7-2.5 2-4.2.3-6.4.8-7.5 1.8-1.3 1.1-3 1-4.8-.2zm.4-4.6c.3-.4.5-.8.4-1-.3-.3-1.6.6-1.6 1.2 0 .7.4.6 1.2-.2zm16.2 2c.2-.4.4-.6.5-.4 0 0 0 .4-.3.6-.3.3-.4.3-.2-.2zm-23-14a1769 1769 0 0 1 1.3-1.6c0 .2-.6 1-1.3 1.8l-1.2 1.4z" style="fill:#c5a578;stroke-width:.352778" transform="translate(-44.5 -173.2)"/>
  <path d="M78.4 240.7c-.4-.2-.8-.5-.8-.7 0-.6-2.1-2.4-4-3.2a13 13 0 0 1-4.1-3.6c-1.6-1.8-3-3-4.4-3.7a40.7 40.7 0 0 1-9.5-9.2c-.4-.8-.7-2.1-.7-3.7a39 39 0 0 0-.3-4 16 16 0 0 1 0-3.8c.5-2 .5-2-.5-2.8-3.6-2.6-3.7-3.4-1.5-7.5 1.6-3 6.4-10.3 7.1-11 .8-.6.3 2.2-.4 2.9-.4.3-.6.6-.5.8.2 0 .1.2 0 .2-.3 0-.4.2-.4.6 0 .3.2.2.7-.5 2.8-3.8 5.1-5.7 7-5.7a122 122 0 0 1 18.1 8.8c1.5 1.4.9 1.4-1.7 0a119 119 0 0 0-14.8-7.5c-1.1 0-3.8 1.8-4.9 3.3-3.7 5-5.6 8.7-5.6 10.8 0 1.8.7 2.4 8.6 7.8 8.2 5.7 8.7 5.7 12.5.3a64.5 64.5 0 0 1 4.5-6v-.6c.2 0 .6 0 .9-.2.3-.1.9 0 1.3.1.6.4.8.1 2-1.6a50 50 0 0 1 2.4-3c.5-.7 1-1.4 1-1.7 0-.3-.9-1-2-1.5a287.5 287.5 0 0 0-20.5-11c-2.4-1.3-2.7-1.3-3.8-1l-1.1.4 1-.8c1.2-1.1 1.7-1.1 4.3.1l2.1 1 1.8-1 3-1.2c.8-.1 2-.6 2.7-1 1.9-1 5.5-1 7 0a4 4 0 0 0 1.7.9 53.2 53.2 0 0 0 3.6 1c.7.3 2.2 1 3.3 1.8a14 14 0 0 0 5 2.1c2 .5 3.9 1.3 5.9 2.5 1.6 1 3 1.7 3.2 1.7 1.6 0 3.2 2 3.6 4.6l.7 3.4c.4 1.5.3 2.3-.7 7a55.6 55.6 0 0 1-23.1 34c-2 1.3-8.2 2.1-9.7 1.4zM88 234c.1.1.3 0 .4-.4.2-.4.1-.4-.4-.1l-1 .7c-.1.3-.3.3-.5 0-.1-.3-.4-.4-.5-.3-.6.6.7 1 1.3.4.3-.3.6-.4.7-.3zm5-3.3a12 12 0 0 1 1.6-1.5l1.8-2c2.4-2.7 2.4-2.7 1.9-2.8-.4-.1-.3-.3.1-.6s.6-.6.4-.8c-.1-.1-.5 0-.8.3-.4.3-.6.3-.4 0 .5-.8-.3-.4-1.3.7-1.8 2-2.6 2.5-2.6 1.9 0-.3.2-.4.3-.3.2 0 .3-.2.3-.6 0-.5.2-.6.6-.5.5.2.5.1.4-.3-.2-.3-.1-.6 0-.6.3 0 .5-.4.7-1 0-.5.4-1.3.7-1.8.3-.6.3-1 0-1.3-.3-.4-.2-.5.1-.5.7 0 1.5-1.2 2.1-3l.7-1.2c.1 0 .3-.3.3-.6l.1-1c0-.3.2-.6.3-.6.6 0 .8-2.8.2-3.8-.2-.6-.3-1-.1-.9.2.2.3.1.1-.1-.4-.7-1.2-.5-1.7.4-.4 1.1-.7 1.1-1.7.2-.6-.6-.8-.5-.7.5 0 .2-.3 0-.7-.5-.7-.9-.7-.9-1.1-.2a4 4 0 0 0-.5 1.8c0 1 0 1-1 1l-1-.1.7.6c.5.3.8.7.8.9 0 .2-.3 0-.7-.3-.6-.5-.6-.5-.8.3 0 .4-.2.8-.4.7-.6 0-.6-.7-.1-1.2.3-.3.4-.7.3-1 0-.2.1-.4.4-.4.5 0 .4-.2-.1-1.4-1-1.8-1.3-2-2-.6-.5 1-.5 1.3-.1 2.4.2.7.3 1.7.2 2.1-.2.5-.2.7.1.6.2-.2.4-.1.4 0 0 .3-.2.5-.4.5-.3 0-.3 0 0 .4.5.6 0 1-.5.6-.4-.3-.5-.3-.5.2s.4.7 1.2.6c.1 0 .2 0 0 .2 0 .2-.5.3-1 .2-.7-.2-.7-.2-.3.3.3.4.4.7.3.7a15.9 15.9 0 0 0-1.3.2c-.2 0-.3.3-.3.7 0 .5 0 .5.6 0 .6-.4.6-.4 0 .2-.2.4-.8.8-1.1 1-.4 0-.8.5-.8.9s-.2.6-.5.5c-.3 0-.4.2-.3.6.1.4 0 .8-.2.9-.3.1-.6.8-.7 1.6-.2.8-.5 1.5-.8 1.6-.2 0-.5.4-.5.7 0 .3-.1.6-.4.6-.2 0-.3.2-.1.5 0 .3 0 .5-.4.5-.3 0-.4.2-.3.4.2.3.4.3.6 0 .3-.2.7-.4 1-.4.4 0 .4.1-.1.5-.7.5-.8 1-.2.7.3 0 .2 0-.2.3-.6.6-.8 1.2-.2.8.2-.1.8.1 1.2.6.7.6 1 .7 1.3.4.4-.4.3-.5 0-.5-1.3 0 2.7-1.7 4.3-1.9.2 0 .6-.4 1-.9.3-.5.6-.7.6-.4 0 .2.3.3.7.2.5-.2.5-.2 0 .3a35.7 35.7 0 0 0-3.1 3.6c0 .2 1 .4 1.8.5.3 0 1.1-.6 1.8-1.3zm-7.6-1.3c-.2-.4 0-.5.2-.4.5.1.8 1 .3 1-.2 0-.4-.3-.5-.6zm6.7-14.5h.7c.1.1 0 .2-.5.2-.4 0-.4-.1-.2-.2zm-1-.7c0-.3.2-.4.4-.3.2.1.3.4.2.5-.3.5-.6.4-.6-.2zm3.3-3c.2-.4.6-.7.8-.7.1 0 0 .3-.4.7l-.7.7s0-.3.3-.7zm4.9 11.2-.6-.4c-.3 0-.4 0-.3.2.2.3.9.5.9.2zm-12.7-11.1c0-.5-.7-.9-1-.7-.2.3.2 1 .6 1 .2 0 .4-.2.4-.3zm1.2-1.8c.2-.4-.4-.8-.9-.6-.4.3-.1 1 .4 1l.5-.4zm6.3-6.7c.2-.2 0-.4-.1-.4-.2 0-.4.2-.4.4s0 .3.2.3l.3-.3zm-2-7.7a72 72 0 0 0-12.2-6.3c-.8-.2-.9-.2-.4.3.5.6 11.4 6.3 12 6.3l.6-.3zM68 202c-2-1.2-2.5-2.4-1.8-4.2.4-1.2.4-1.6-.3-4-.7-2.8-.7-2.8 0-3.3 1-.7 1.3-.6 2.5 1.6a19 19 0 0 0 2.7 3.5l1.5 1.5 4.7-.2c3.6 0 4.8 0 5 .4.3.2.3.4.2.4-.2 0 0 .3.3.7 1.1 1.2.5 1.7-2.5 2-4.2.3-6.4.8-7.5 1.8-1.3 1.1-3 1-4.8-.2zm.4-4.6c.3-.4.5-.8.4-1-.3-.3-1.6.6-1.6 1.2 0 .7.4.6 1.2-.2zm16.2 2c.2-.4.4-.6.5-.4 0 0 0 .4-.3.6-.3.3-.4.3-.2-.2zm-23-14a1769 1769 0 0 1 1.3-1.6c0 .2-.6 1-1.3 1.8l-1.2 1.4z" style="fill:#9ca29a;stroke-width:.352778" transform="translate(-44.5 -173.2)"/>
  <path d="M78.4 240.7c-.4-.2-.8-.5-.8-.7 0-.6-2.1-2.4-4-3.2a13 13 0 0 1-4.1-3.6c-1.6-1.8-3-3-4.4-3.7a40.8 40.8 0 0 1-9.5-9.2c-.8-1.6-1.3-9.3-.8-12.2.3-1.4.2-1.5-1.6-2.8-1.6-1.2-1.9-1.6-2-2.7 0-1.5 1.2-4.2 4.4-9.1 1.7-2.6 1.7-2.6 2-1.6 0 .7 0 1.3-.3 1.5-.6.6-.6.8 0 .6a6 6 0 0 0 1.3-1.4 34 34 0 0 1 5.2-6c1.5-1 3.5-.8 6.3.6 1.3.8 4.8 2.6 7.7 4 5 2.6 6.7 3.6 6.4 4 0 0-3.5-1.7-7.5-3.9-8.3-4.4-9.4-4.8-11.7-3.1-1.6 1-5 5.9-6.6 9-1.3 2.7-1.6 4.3-1 5.6.3.4 3.7 3 7.6 5.7 9.2 6.3 9.3 6.3 13.2 1.2.8-1.2 1.6-2 1.7-1.8.1 0 .3-.1.4-.4.3-.7.8-.8 1.6 0 .5.4.7.2 2.1-2a50.3 50.3 0 0 1 4.4-6 35 35 0 0 1 3.2-4l.9-.8-6.7-3.2a65.4 65.4 0 0 0-9.6-3.8c-.8-.2-2.3-.9-4.7-2.2-4-2.4-6.5-3.3-7.4-2.9-.6.3-.6.2 0-.4 1.2-1 1.7-.9 4.2.3l2.1 1 1.8-1 3-1.2c.8-.1 2-.6 2.7-1 1.9-1 5.5-1 7 0a4 4 0 0 0 1.7.9 53.2 53.2 0 0 0 3.6 1c.7.3 2.2 1 3.3 1.8a14 14 0 0 0 5 2.1c2 .5 3.9 1.3 5.9 2.5 1.6 1 3 1.7 3.2 1.7 1.6 0 3.2 2 3.6 4.6l.7 3.4c.4 1.5.3 2.3-.7 7a55.6 55.6 0 0 1-23.1 34c-2 1.3-8.2 2.1-9.7 1.4zM88 234c.1.1.3 0 .4-.4.2-.4.1-.4-.4-.1l-1 .7c-.1.3-.3.3-.5 0-.1-.3-.4-.4-.5-.3-.6.6.7 1 1.3.4.3-.3.6-.4.7-.3zm5-3.3a12 12 0 0 1 1.6-1.5l1.8-2c2.4-2.7 2.4-2.7 1.9-2.8-.4-.1-.3-.3.1-.6s.6-.6.4-.8c-.1-.1-.5 0-.8.3-.4.3-.6.3-.4 0 .5-.8-.3-.4-1.3.7-1.8 2-2.6 2.5-2.6 1.9 0-.3.2-.4.3-.3.2 0 .3-.2.3-.6 0-.5.2-.6.6-.5.5.2.5.1.4-.3-.2-.3-.1-.6 0-.6.3 0 .5-.4.7-1 0-.5.4-1.3.7-1.8.3-.6.3-1 0-1.3-.3-.4-.2-.5.1-.5.7 0 1.5-1.2 2.1-3l.7-1.2c.1 0 .3-.3.3-.6l.1-1c0-.3.2-.6.3-.6.6 0 .8-2.8.2-3.8-.2-.6-.3-1-.1-.9.2.2.3.1.1-.1-.4-.7-1.2-.5-1.7.4-.4 1.1-.7 1.1-1.7.2-.6-.6-.8-.5-.7.5 0 .2-.3 0-.7-.5-.7-.9-.7-.9-1.1-.2a4 4 0 0 0-.5 1.8c0 1 0 1-1 1l-1-.1.7.6c.5.3.8.7.8.9 0 .2-.3 0-.7-.3-.6-.5-.6-.5-.8.3 0 .4-.2.8-.4.7-.6 0-.6-.7-.1-1.2.3-.3.4-.7.3-1 0-.2.1-.4.4-.4.5 0 .5-.2-.2-1.5l-.8-1.5 1.3-2c.8-1.2 1.7-2.9 2.1-3.7l.8-1.5-.9-.7c-1-.8-1.3-.7-.6.2.5.6.4.6-.3.2-.6-.4-.8-.3-1.5.6-.5.8-.6 1.1-.2 1.4.3.4.2.4-.3.2-.4-.2-.7 0-.8.5-.1.4-.3.8-.5.8-.3 0-.2 1 .2 1.3.2.1.2 0 0-.3s-.1-.4 0-.2l.4.5.3.8c.2.4.2.4-.2 0-.7-.6-1-.4-1 .7.1.6.3 1 .4 1 .2 0 0 .6-.3 1.2-.5 1-.5 1.3-.1 2.4.2.7.3 1.7.2 2.1-.2.5-.2.7.1.6.2-.2.4-.1.4 0 0 .3-.2.5-.4.5-.3 0-.3 0 0 .4.5.6 0 1-.5.6-.4-.3-.5-.3-.5.2s.4.7 1.2.6c.1 0 .2 0 0 .2 0 .2-.5.3-1 .2-.7-.2-.7-.2-.3.3.3.4.4.7.3.7a15.9 15.9 0 0 0-1.3.2c-.2 0-.3.3-.3.7 0 .5 0 .5.6 0 .6-.4.6-.4 0 .2-.2.4-.8.8-1.1 1-.4 0-.8.5-.8.9s-.2.6-.5.5c-.3 0-.4.2-.3.6.1.4 0 .8-.2.9-.3.1-.6.8-.7 1.6-.2.8-.5 1.5-.8 1.6-.2 0-.5.4-.5.7 0 .3-.1.6-.4.6-.2 0-.3.2-.1.5 0 .3 0 .5-.4.5-.3 0-.4.2-.3.4.2.3.4.3.6 0 .3-.2.7-.4 1-.4.4 0 .4.1-.1.5-.7.5-.8 1-.2.7.3 0 .2 0-.2.3-.6.6-.8 1.2-.2.8.2-.1.8.1 1.2.6.7.6 1 .7 1.3.4.4-.4.3-.5 0-.5-1.3 0 2.7-1.7 4.3-1.9.2 0 .6-.4 1-.9.3-.5.6-.7.6-.4 0 .2.3.3.7.2.5-.2.5-.2 0 .3a35.7 35.7 0 0 0-3.1 3.6c0 .2 1 .4 1.8.5.3 0 1.1-.6 1.8-1.3zm-7.6-1.3c-.2-.4 0-.5.2-.4.5.1.8 1 .3 1-.2 0-.4-.3-.5-.6zm6.7-14.5h.7c.1.1 0 .2-.5.2-.4 0-.4-.1-.2-.2zm-1-.7c0-.3.2-.4.4-.3.2.1.3.4.2.5-.3.5-.6.4-.6-.2zm3.3-3c.2-.4.6-.7.8-.7.1 0 0 .3-.4.7l-.7.7s0-.3.3-.7zm4.9 11.2-.6-.4c-.3 0-.4 0-.3.2.2.3.9.5.9.2zM76 218.9l-1.2-.5a34 34 0 0 1-7.8-4.9c-2-1.6-4.2-2.9-3.4-2l5.8 4.3c4.5 3.4 5.5 4 6 3.8.5-.2.7-.5.6-.7zm10.4-7.7c0-.5-.7-.9-1-.7-.2.3.2 1 .6 1 .2 0 .4-.2.4-.3zm1.2-1.8c.2-.4-.4-.8-.9-.6-.4.3-.1 1 .4 1l.5-.4zm-6-1c-.1-.3-.4-.4-.6-.4-.2 0-.2.1-.1.3.1.2.4.4.6.4.2 0 .2-.2.1-.4zm-14-6.5c-2-1.5-2.4-2.6-1.6-4.2.6-1 .6-1.3-.1-3.4-.9-2.9-.9-3.3 0-4 .8-.4 1-.3 1.6.6l1.6 2.6c.4 1 1 1.8 1 1.8.2 0 .8.4 1.4.9 1 .9 1.2.9 5.6.8 4.4 0 5.6 0 5.2.7-.1.2 0 .6.4 1 .6.5.6.6 0 1-.3.2-2.3.6-4.5.8-2.7.3-4.2.6-4.8 1-2.7 1.9-3.7 2-5.8.4zm.8-4.2c1.2-.9 1.3-1.4.3-1.4s-2.1 1-2.1 1.7c0 .6.6.6 1.8-.3z" style="fill:#c3996d;stroke-width:.352778" transform="translate(-44.5 -173.2)"/>
  <path d="M77.3 239.4a16 16 0 0 0-3.3-2.5c-1.5-.6-3-1.9-5.8-5a14 14 0 0 0-3.4-2.7c-2-1-8.2-7-9.2-8.8a28.7 28.7 0 0 1-.8-12.1l.3-1.6-1.9-1.4c-1.6-1.2-1.9-1.6-2-2.7 0-1.5 1.2-4.2 4.4-9.1 1.7-2.6 1.7-2.6 2-1.6 0 .7 0 1.3-.3 1.5-.6.6-.6.8 0 .6a6 6 0 0 0 1.3-1.4 34 34 0 0 1 5.2-6c1.5-1 3.5-.8 6.3.6 1.3.8 4.8 2.6 7.7 4 5 2.6 6.7 3.6 6.4 4 0 0-3.5-1.7-7.5-3.9-8.3-4.4-9.4-4.8-11.7-3.1-1.6 1-5 5.9-6.6 9-1.3 2.7-1.6 4.3-1 5.6.3.4 3.7 3 7.6 5.7 9.2 6.3 9.3 6.3 13.2 1.2.8-1.2 1.6-2 1.7-1.8.1 0 .3-.1.4-.4.3-.7.8-.8 1.6 0 .5.4.7.2 2.1-2a50.3 50.3 0 0 1 4.4-6 35 35 0 0 1 3.2-4l.9-.8-6.7-3.2a65.4 65.4 0 0 0-9.6-3.8c-.8-.2-2.3-.9-4.7-2.2-4-2.4-6.5-3.3-7.4-2.9-.6.3-.6.2 0-.4 1.2-1 1.7-.9 4.2.3l2.2 1 1-.6c.6-.4 1.9-1 3-1.3l3.4-1.2c2.5-1.2 4.6-1.2 6.6-.2l2.2 1c.3 0 .7.1 1 .3l2.1.7c.8.2 2 .7 2.7 1.2a16 16 0 0 0 6.6 3c1.6.4 3.6 1.2 4.4 1.7a28.4 28.4 0 0 0 5.5 2.9c1 .5 2.2 2.6 2.2 3.7 0 .6.2 1.8.5 2.7.8 2.1.2 6.6-1.7 12.8a70.5 70.5 0 0 1-10.4 19 47.6 47.6 0 0 1-11.5 10.1c-1.3.8-3.6 1.4-7.2 1.7-1.8.2-1.9.2-3.6-1.6zm12.2-6a43 43 0 0 0 8.9-8.6c1-1.6 1.5-3 .8-3-.2 0-.4-.2-.4-.5 0-.2.2-.2.4 0 .3 0 .3 0 .2-.2-.4-.6-1.3-.5-1 0 0 .5 0 .6-.7.4-.5 0-.7 0-.5.4 0 .3 0 .7-.4 1-.4.3-.5.2-.3-.9l.5-1.5c.2-.2.2-.6 0-1-.3-.5-.2-.6.1-.6h1c.5 0 .5 0 0-.3-.4-.3-.4-.5.1-1l.6-1c0-.3.2-.5.4-.6.2 0 .4-.5.5-.9 0-.4.2-1 .3-1.1.2-.2.3-.7.4-1l.7-2.2c.4-1 .4-1.6.2-1.7-.2 0-.4-.4-.4-.8a1 1 0 0 0-.6-.9c-.8-.3-3.2-.4-3 0 0 0 0 .2-.2.2s-.4-.2-.4-.4c0-.3-.3-.5-.7-.6-.4 0-.7.2-.7.4 0 .3-.2.2-.4 0-.1-.4-.2-.7-.1-.8 0-.1-.1-.2-.4-.2-.3 0-.5.2-.4.4.1.3 0 .5-.2.5-.3 0-.3.1 0 .4.6.7.5 1.2-.2.6-.5-.4-.5-.4-.3 0 .3.4.2.5-.3.3-.3-.1-.5 0-.5.2s-.3.1-.7-.2c-.7-.6-.7-.7.7-2.8a62 62 0 0 0 2.1-3.7l.8-1.5-.9-.7c-1-.8-1.3-.7-.6.2.5.6.4.6-.3.2-.6-.4-.8-.3-1.5.6-.5.8-.6 1.1-.2 1.4.3.4.2.4-.3.2-.4-.2-.7 0-.8.5-.1.4-.3.8-.5.8-.3 0-.2 1 .2 1.3.2.1.2 0 0-.3s-.1-.4 0-.2l.4.5.3.8c.2.4.2.4-.2 0-.7-.6-1.1-.4-.9.6.2.8.2.8-.5.6-.8-.2-.8-.2-.2.3.5.4.5.6-.1 2.7-.4 1.3-.7 3-.7 3.7 0 .8-.2 1.4-.6 1.5-.2.1-.4.3-.3.5.3.4-.1 1.7-.5 1.7-1-.2-1.7.8-1.5 2.4 0 .7 0 .8-.9.8-.5 0-.8.1-.6.2.5.2.2 1.1-.6 2-.7.7-1.2.8-.8.2.1-.2 0-.3-.2-.1-.5.3 0 1.3.5 1.1.4-.1.4 0 .3.8a94 94 0 0 0-.3 1.4c0 .6-.5 1-.5.4 0-.3-.2-.3-.5.2-.3.4-.7.5-1 .3-.4-.2-.4-.1 0 .2.3.4.2.6-.3 1-1 .9-.6 2.2.7 2.2.6 0 1.2.2 1.4.5.3.3.3.5.2.5-.2 0 0 .4.4.8.8.9 1.2.8 2.3-.1a3 3 0 0 1 1.5-.8c.4 0 .7-.2.7-.5 0-.2.1-.4.4-.4.4 0 .8-.3 1-.6.3-.4.6-.4.7-.2.3.4-1.7 2.2-2.5 2.2-.3 0-.4.2-.3.5.1.4 0 .5-.2.4-.2-.2-.5 0-.8.2-.3.2-.7.3-.9.1-.2 0-.4 0-.4.2 0 .3-.2.4-.6.3-.6-.2-.7 0-.6.5.1.6 0 .7-.6.5-.6-.2-.7-.1-.1.5.5.5.8.6 2.5.2 1-.3 2.8-1 3.9-1.7zm-8.9-5 .6-.3c.2 0 .3.1.3.3 0 .2-.2.4-.5.4s-.5-.2-.4-.4zm12.8-18.1.3-.6.2.6c0 .2-.2.5-.4.5s-.2-.3-.1-.5zm4.5-2c0-.3.2-.6.4-.6.3 0 .4.2.1.7l-.4.6-.1-.6zm2.4 11.7c-.2 0-.4-.2-.2-.4.2-.4-.4-.5-.7-.1-.4.3.5 1.2 1 1 .2-.2.2-.4-.1-.5zm1.3-.4c0-.2-.1-.3-.3-.2-.2.1-.4.4-.4.6 0 .2.2.3.4.1.2 0 .3-.3.3-.5zm-25.5-.7-1.2-.5a34 34 0 0 1-7.8-4.9c-2-1.6-4.2-2.9-3.4-2l5.8 4.3c4.5 3.4 5.5 4 6 3.8.5-.2.7-.5.6-.7zm10.7-7.8c0-.4-1-.8-1.3-.6-.3.4.2 1 .8 1 .3 0 .5-.2.5-.4zm1-1.9c0-.3-.2-.5-.6-.5-.7 0-1 .3-.5.8.4.4 1.2.2 1.2-.3zm-6.1-.9c-.1-.2-.4-.3-.6-.3-.2 0-.2.1-.1.3.1.2.4.4.6.4.2 0 .2-.2.1-.4zm7.4-.3c.1-.2-.1-.4-.5-.4s-.7.2-.6.4l.6.3c.1 0 .4-.1.5-.3zm10-1.3-.3-.3c-.2-.1-.3 0-.3.1 0 .2.1.4.3.4.2 0 .4 0 .4-.2zM67.8 202c-2-1.5-2.4-2.6-1.6-4.2.6-1 .6-1.3-.1-3.4-.9-2.9-.9-3.3 0-4 .8-.4 1-.3 1.6.6l1.6 2.6c.4 1 1 1.8 1 1.8.2 0 .8.4 1.4.9 1 .9 1.2.9 5.6.8 4.4 0 5.6 0 5.2.7-.1.2 0 .6.4 1 .6.5.6.6 0 1-.3.2-2.3.6-4.5.8-2.7.3-4.2.6-4.8 1-2.7 1.9-3.7 2-5.8.4zm.8-4.2c1.2-.9 1.3-1.4.3-1.4s-2.1 1-2.1 1.7c0 .6.6.6 1.8-.3z" style="fill:#b69469;stroke-width:.352778" transform="translate(-44.5 -173.2)"/>
  <path d="M77.2 239.4c-1-1-2.5-2.2-3.3-2.6a19 19 0 0 1-5.7-5c-.8-.9-2.2-2-3.2-2.5a33 33 0 0 1-9.4-9.2 32.3 32.3 0 0 1-.8-11.8l.3-1.6-1.9-1.4c-1.6-1.2-1.9-1.6-2-2.7 0-1.5 1.2-4.2 4.4-9.1 1.7-2.6 1.7-2.6 2-1.6 0 .7 0 1.3-.3 1.5-.6.6-.6.8 0 .6a6 6 0 0 0 1.3-1.4 34 34 0 0 1 5.2-6c1.5-1 3.5-.8 6.3.6 1.3.8 4.8 2.6 7.7 4 5 2.6 6.7 3.6 6.4 4 0 0-3.5-1.7-7.5-3.9-8.3-4.4-9.4-4.8-11.7-3.1-1.6 1-5 5.9-6.6 9-1.3 2.7-1.6 4.3-1 5.6.3.4 3.7 3 7.6 5.7 9.2 6.3 9.3 6.3 13.2 1.2.8-1.2 1.6-2 1.7-1.8.1 0 .3-.1.4-.4.3-.7.8-.8 1.6 0 .5.4.7.2 2.1-2a50.3 50.3 0 0 1 4.4-6c1.3-1.8 2.8-3.7 3.3-4.1l.8-.8-6.4-3.2-6.5-3.2-3.4-.5c-1-.2-2.4-.9-4.7-2.2-4-2.4-6.5-3.3-7.4-2.9-.6.3-.6.2 0-.4 1.2-1 1.7-.9 4.2.3l2.2 1 1-.6c.6-.4 1.9-1 3-1.3l3.4-1.2c2.5-1.2 4.6-1.2 6.6-.2l2.2 1c.3 0 .7.1 1 .3l2.1.7c.8.2 2 .7 2.7 1.2a16 16 0 0 0 6.6 3c1.6.4 3.6 1.2 4.4 1.7a28.4 28.4 0 0 0 5.5 2.9c1 .5 2.2 2.6 2.2 3.7 0 .6.2 1.8.5 2.7.8 2.1.2 6.6-1.7 12.8a70 70 0 0 1-6.9 14 47.4 47.4 0 0 1-11.4 12.6c-3.8 3-5.6 3.7-10.8 4.2-1.8.2-1.9.2-3.7-1.6zm5.6-4c-.2-.1-.1-.3.1-.3s.4.2.4.4c0 .4 1.2.2 3.2-.6a35.5 35.5 0 0 0 13.2-11.8 30.5 30.5 0 0 0 4.8-9.9c.5-.3-.3-1.7-.9-1.7-.2 0-.2.1.1.3l.4.4c-1.8.3-1.8.3-1.9 1.5 0 .4-.3 1-.6 1.4-.5.6-.6.6-.8.1-.1-.3 0-.5.2-.4.2 0 .4-.2.5-.4.1-.2 0-.4-.3-.4-.2 0-.2-.2.2-.7.3-.3.6-1.1.7-1.8l.8-2c.6-1 .6-1-.1-.5-.8.4-.8.3-.5-.4.4-1.2.2-2.6-.4-2.5-1 .3-1.2.3-1-.2 0-.2-.2-.4-.4-.4-1 .1-1.3 0-1.3-.5 0-.3.1-.6.3-.6.2 0 .4-.1.4-.3 0-.1-.3-.3-.6-.3s-.5.2-.5.3l-1 .2c-1 0-1.1-.1-1.1-1 0-1.2-1.3-1.6-1.7-.5-.1.4-.2 1-.1 1.1 0 .2 0 .2-.2 0-.1 0-.8.8-1.4 2a7.8 7.8 0 0 1-1.5 2c-.7 0-.6-.5.7-2.5a62 62 0 0 0 2.1-3.7l.8-1.5-.9-.7c-1-.8-1.3-.7-.6.2.5.6.4.6-.3.2-.6-.4-.8-.3-1.5.6-.5.8-.6 1.1-.2 1.4.3.4.2.4-.3.2-.4-.2-.7 0-.8.5-.1.4-.3.8-.5.8-.3 0-.2 1 .2 1.3.2.1.2 0 0-.3s-.1-.4 0-.2l.4.5.3.8c.2.4.2.4-.2 0-.7-.6-1.1-.4-.9.5.3 1 0 1.2-.7.5-.3-.3-.5-.3-.5-.1l.6.6c.4.4.4.7-.2 2.7a17 17 0 0 0-.7 3.6c0 .9-.2 1.4-.5 1.4-.5 0-3.5 4.4-3.3 4.9.1.1-.1.4-.5.5-.5.1-.7.3-.5.7 0 .3 0 .5-.1.4-.2 0-.6.3-1 .8-.6 1-.7 1.1-.8 2.3 0 .3-.4.8-1 1-.5.2-.8.6-.8 1s-.3 1-.7 1.3c-.5.5-.6.7-.3 1.2.2.4.5.6.8.5.3-.2.3-.1 0 .2-.7.7-.6 1.2 0 .9.4-.1.9 0 1.2.4.3.4 1 .8 1.3.9.4 0 .7.3.6.7 0 .3 0 .6.3.6.2 0 .3.2.3.5s-.2.6-.5.6-.6.1-.7.3c-.3.4 0 1.4.4 1.4v-.3zm1.4-2.4c-.2-.2 0-.3.1-.3.2 0 .4.1.4.3 0 .2 0 .4-.2.4l-.3-.4zm1.8-1c.4-.4.8-.7 1-.5.3.3-.6 1.3-1.2 1.3-.4 0-.3-.3.2-.8zm11.8-12c-.4-.2-.3-.3.1-.5.8-.3 1-.3 1 .3s-.4.6-1 .2zm-21.7-1a34 34 0 0 1-9-5.4c-2-1.7-4.2-3-3.4-2.2l5.8 4.4c4.5 3.4 5.5 4 6 3.8.5-.2.7-.5.6-.7zm10.7-7.9c0-.4-1-.8-1.3-.6-.3.4.2 1 .8 1 .3 0 .5-.2.5-.4zm17.9-.1c0-.3-.1-.6-.3-.6-.1 0-.3-.2-.4-.6-.1-.4-.2-.3-.2.3s.1 1 .4 1.2l.5.2v-.5zm-16.8-1.8c0-.3-.3-.5-.7-.5-.7 0-1 .3-.5.8.4.4 1.2.2 1.2-.3zm-6.2-.9c-.1-.2-.4-.3-.6-.3-.2 0-.2.1-.1.3.1.2.4.4.6.4.2 0 .2-.2.1-.4zm7.4-.3c0-.2 0-.4-.4-.5-.7-.3-1 0-.7.4.3.5.8.5 1 .1zm12.9-3.1c0-.6 0-.6-.4-.1-.4.7-.4 1.1 0 .9.2-.2.4-.5.4-.8zm-1 0c0-.2-.3-.5-.5-.8-.2-.5-.3-.4-.2.2 0 .4 0 .6-.4.6-.2 0-.3 0-.2.2.2.4 1.2.1 1.2-.3zm-33.3-3c-2-1.5-2.4-2.6-1.6-4.2.6-1 .6-1.3-.1-3.4-.9-2.9-.9-3.3 0-4 .8-.4 1-.3 1.6.6l1.6 2.6c.4 1 1 1.8 1 1.8.2 0 .8.4 1.4.9 1 .9 1.2.9 5.6.8 4.4 0 5.6 0 5.2.7-.1.2 0 .6.4 1 .6.5.6.6 0 1-.3.2-2.3.6-4.5.8-2.7.3-4.2.6-4.8 1-2.7 1.9-3.7 2-5.8.4zm.8-4.2c1.2-.9 1.3-1.4.3-1.4s-2.1 1-2.1 1.7c0 .6.6.6 1.8-.3z" style="fill:#8d928f;stroke-width:.352778" transform="translate(-44.5 -173.2)"/>
  <path d="M77.2 239.4c-1-1-2.5-2.2-3.3-2.6a19 19 0 0 1-5.7-5c-.8-.9-2.2-2-3.2-2.5a33 33 0 0 1-9.4-9.2 32.3 32.3 0 0 1-.8-11.8l.3-1.6-2-1.5c-2.6-2-2.6-3 0-7.5 1-1.8 2-3.4 2.3-3.4.2-.1.5.2.6.6.4.9.8.6 2.2-1.6a21 21 0 0 1 6.4-7c1.9-.8 2.7-.5 8.1 2.4 2.2 1.2 5.5 3 7.3 3.8a19 19 0 0 1 3.7 2.3c.4.5.3.5-.8-.1l-7.3-4c-7-3.7-8.4-4.1-10.3-2.8-1.6 1.1-4 4.1-6 7.6-3 5-3 6.8 0 9 3.5 2.7 12 8.5 13 8.8 1.5.6 2.2.3 4.5-1.8 1.2-1.3 2.4-2 2.6-2 .3.2.3.4 0 .7l-.3.8a8 8 0 0 1-.7 2.3c-.5 1-.9 2-.8 2.2 0 .1-.1.2-.3.2-.2 0-.3.2-.2.4.1.2 0 .3-.1.3-.2 0-.4.3-.5.7v.7c.3 0 1.5-2 1.5-2.6 0-.2.4-.6.7-.8A119.9 119.9 0 0 1 92.4 195a99 99 0 0 0-15.4-7.6 49 49 0 0 1-6.5-2.8l-4.7-2.3c-.8-.3-1-.4-.5-.6.4-.1 1.5.2 2.8.8l2.1 1.1 1.5-.8c.9-.5 2.2-1 3.1-1.3a24 24 0 0 0 3-1.1c2.6-1.2 4.7-1.2 6.7-.2l2.2 1c.3 0 .7.1 1 .3l2.1.7c.8.2 2 .7 2.7 1.2a16 16 0 0 0 6.6 3c1.6.4 3.6 1.2 4.4 1.7a28.4 28.4 0 0 0 5.5 2.9c1 .5 2.2 2.6 2.2 3.7 0 .6.2 1.8.5 2.7.8 2.1.2 6.6-1.7 12.8a70 70 0 0 1-6.9 14 47.4 47.4 0 0 1-11.4 12.6c-3.8 3-5.6 3.7-10.8 4.2-1.8.2-1.9.2-3.7-1.6zm5.6-4c-.2-.1-.1-.3.1-.3s.4.2.4.4c0 .4 1.2.2 3.2-.6a35.5 35.5 0 0 0 13.2-11.8 30.5 30.5 0 0 0 4.8-9.9c.5-.3-.3-1.7-.9-1.7-.2 0-.2.1.1.3l.4.4c-1.8.3-1.8.3-1.9 1.5 0 .4-.3 1-.6 1.4-.5.6-.6.6-.8.1-.1-.3 0-.5.2-.4.2 0 .4-.2.5-.4.1-.2 0-.4-.3-.4-.2 0-.2-.2.2-.7.3-.3.6-1.1.7-1.8l.8-2c.6-1 .6-1-.1-.5-.8.4-.8.3-.5-.4.4-1.2.2-2.6-.4-2.5-1 .3-1.2.3-1-.2 0-.2-.2-.4-.4-.4-1 .1-1.3 0-1.3-.5 0-.3.1-.6.3-.6.2 0 .4-.1.4-.3 0-.1-.3-.3-.6-.3s-.5.2-.5.3l-1 .2c-1 0-1.1-.1-1.1-1 0-.7-.2-1-.6-1-.4 0-.5-.2-.3-.6.4-.9.3-3.3-.3-3.8-.3-.4-.6-.4-1.5 0-.7.4-1.1.7-1 .9 0 .1 0 .4-.3.5-.6.2-2.5 3-3.5 5-.6 1.3-.5 2.2.3 2.8.4.3.3.8-.2 2.6a17 17 0 0 0-.7 3.6c0 .9-.2 1.4-.5 1.4-.5 0-3.5 4.4-3.3 4.9.2.1-.1.4-.5.5-.5.1-.7.3-.5.7 0 .3 0 .5-.1.4-.2 0-.6.3-1 .8-.6 1-.7 1.1-.8 2.3 0 .3-.4.8-1 1-.5.2-.8.6-.8 1s-.3 1-.7 1.3c-.5.5-.6.7-.3 1.2.2.4.5.6.8.5.3-.2.3-.1 0 .2-.7.7-.6 1.2 0 .9.4-.1.9 0 1.2.4.3.4 1 .8 1.3.9.4 0 .7.3.6.7 0 .3 0 .6.3.6.2 0 .3.2.3.5s-.2.6-.5.6-.6.1-.7.3c-.3.4 0 1.4.4 1.4v-.3zm1.4-2.4c-.2-.2 0-.3.1-.3.2 0 .4.1.4.3 0 .2 0 .4-.2.4l-.3-.4zm1.8-1c.4-.4.8-.7 1-.5.3.3-.6 1.3-1.2 1.3-.4 0-.3-.3.2-.8zm11.8-12c-.4-.2-.3-.3.1-.5.8-.3 1-.3 1 .3s-.4.6-1 .2zM82 221.3l3-4.2c1.5-2.1 1.7-2.6 1.3-2.9-.6-.3-2 .3-1.8.8.1.2 0 .3-.3.2-.2 0-.4.1-.4.3 0 .1-.5.5-1.1.8-.7.3-1.1.7-1 .7l-.5.8a11.5 11.5 0 0 0-2 2.8c-.5.9-.4 1 .3 1.6l1 .6c.2 0 .8-.7 1.5-1.5zm-5.8-2c0-.4-.6-.9-1.3-1.2-1.8-1-4-2.3-9.8-6.3a58.6 58.6 0 0 0-6-3.8c-1.3-.5-1.2-.5 3.5 3.1 13.4 10 13.6 10.1 13.6 8.1zm10.6-8.2c0-.4-1-.8-1.3-.6-.3.4.2 1 .8 1 .3 0 .5-.2.5-.4zm17.9-.1c0-.3-.1-.6-.3-.6-.1 0-.3-.2-.4-.6-.1-.4-.2-.3-.2.3s.1 1 .4 1.2l.5.2v-.5zm-16.8-1.8c0-.3-.3-.5-.7-.5-.7 0-1 .3-.5.8.4.4 1.2.2 1.2-.3zM89 208c0-.2 0-.4-.4-.5-.7-.3-1 0-.7.4.3.5.8.5 1 .1zm12.9-3.1c0-.6 0-.6-.4-.1-.4.7-.4 1.1 0 .9.2-.2.4-.5.4-.8zm-1 0c0-.2-.3-.5-.5-.8-.2-.5-.3-.4-.2.2 0 .4 0 .6-.4.6-.2 0-.3 0-.2.2.2.4 1.2.1 1.2-.3zm-33.6-3.4c-1.7-1.4-1.9-2-1.2-3.6.4-1.2.4-1.5-.2-3.8-.9-3.1-.9-3.1 0-3.7.8-.5 1-.4 1.6.5l1.6 2.6c.4 1 1.3 2 2.1 2.6 1.4.9 1.6 1 6.1 1H82l.3 1c.2 1.4 0 1.6-2.6 2a82.2 82.2 0 0 0-4.5.4c-.6 0-1.8.5-2.6 1.1-2.1 1.4-3.7 1.4-5.3 0zm1.1-3.6c1.2-.7 1.3-1 1-1.4-.7-.8-2.6.1-2.7 1.3-.2 1.2 0 1.2 1.7 0z" style="fill:#ec744a;stroke-width:.352778" transform="translate(-44.5 -173.2)"/>
  <path d="M77.2 239.4c-1-1-2.5-2.2-3.3-2.6a19 19 0 0 1-5.7-5c-.8-.9-2.2-2-3.2-2.5a33 33 0 0 1-9.4-9.2 32.3 32.3 0 0 1-.8-11.8l.3-1.6-2-1.5c-2.6-2-2.6-3 0-7.5 1-1.8 2-3.4 2.3-3.4.2-.1.5.2.6.6.4.9.8.6 2.2-1.6a21 21 0 0 1 6.4-7c1.9-.8 2.7-.5 8.1 2.4 2.2 1.2 5.5 3 7.3 3.8a19 19 0 0 1 3.7 2.3c.4.5.3.5-.8-.1l-7.3-4c-7-3.7-8.4-4.1-10.3-2.8-1.6 1.1-4 4.1-6 7.6-3 5-3 6.8 0 9 3.5 2.7 12 8.5 13 8.8 1.5.6 2.2.3 4.5-1.8 1.2-1.3 2.4-2 2.6-2 .3.2.3.4 0 .7l-.3.8a8 8 0 0 1-.7 2.3c-.5 1-.9 2-.8 2.2 0 .1-.1.2-.3.2-.2 0-.3.2-.2.4.1.2 0 .3-.1.3-.2 0-.4.3-.5.7v.7c.3 0 1.5-2 1.5-2.6 0-.2.4-.6.7-.8a119.9 119.9 0 0 1 13.4-19.1c.7 0 .3-.6-.6-1.2l-1-.6h1a4 4 0 0 0 2.2-.9l1-.9-2.2.2c-1.3.2-2.5.5-2.7.7-.3.4-1.2 0-4.3-1.5l-4-2 1.5-.2c1.4-.1 1.5-.3 1.6-1.3.2-1.3-.4-1.5-3.9-1.3-2.9.2-3.4.4-2.5 1 .8.7.7.7-1.9-.1-1.2-.4-3.8-1.6-5.8-2.6l-4.7-2.3c-.8-.3-1-.4-.5-.6.4-.1 1.5.2 2.8.8 2 1.1 2.2 1.1 3.3.6.8-.4 1-.4.5 0-.8.6-.8.7.5 1.2 1 .4 1.2.4 2-.2 1.1-.9 1.3-2.2.3-2.3-.5 0-.3-.1.5-.4l2.7-1c2.5-1.2 4.6-1.2 6.6-.2l2.2 1c.3 0 .7.1 1 .3l2.1.7c.8.2 2 .7 2.7 1.2a16 16 0 0 0 6.6 3c1.6.4 3.4 1 4 1.5 1.3 1 5 2.8 5.5 2.8.7 0 2.2 2 2.4 3.4 0 .7.3 1.9.6 2.5.8 2.6.3 6.6-1.5 13.3a68 68 0 0 1-7 14.4 47.4 47.4 0 0 1-11.4 12.5c-3.8 3-5.6 3.7-10.8 4.2-1.8.2-1.9.2-3.7-1.6zm5.6-4c-.2-.1-.1-.3.1-.3s.4.2.4.4c0 .4 1.2.2 3.2-.6a35.5 35.5 0 0 0 13.2-11.8 30.5 30.5 0 0 0 4.8-9.9c.5-.3-.3-1.7-.9-1.7-.2 0-.2.1.1.3l.4.4c-1.8.3-1.8.3-1.9 1.5 0 .4-.3 1-.6 1.4-.5.6-.6.6-.8.1-.1-.3 0-.5.2-.4.2 0 .4-.2.5-.4.1-.2 0-.4-.3-.4-.2 0-.2-.2.2-.7.3-.3.6-1.1.7-1.8l.8-2c.6-1 .6-1-.1-.5-.8.4-.8.3-.5-.4.4-1.2.2-2.6-.4-2.5-1 .3-1.2.3-1-.2 0-.2-.2-.4-.4-.4-1 .1-1.3 0-1.3-.5 0-.3.1-.6.3-.6.2 0 .4-.1.4-.3 0-.1-.3-.3-.6-.3s-.5.2-.5.3l-1 .2c-1 0-1.1-.1-1.1-1 0-.7-.2-1-.6-1-.4 0-.5-.2-.3-.6.4-.9.3-3.3-.3-3.8-.3-.4-.6-.4-1.5 0-.7.4-1.1.7-1 .9 0 .1 0 .4-.3.5-.6.2-2.5 3-3.5 5-.6 1.3-.5 2.2.3 2.8.4.3.3.8-.2 2.6a17 17 0 0 0-.7 3.6c0 .9-.2 1.4-.5 1.4-.5 0-3.5 4.4-3.3 4.9.2.1-.1.4-.5.5-.5.1-.7.3-.5.7 0 .3 0 .5-.1.4-.2 0-.6.3-1 .8-.6 1-.7 1.1-.8 2.3 0 .3-.4.8-1 1-.5.2-.8.6-.8 1s-.3 1-.7 1.3c-.5.5-.6.7-.3 1.2.2.4.5.6.8.5.3-.2.3-.1 0 .2-.7.7-.6 1.2 0 .9.4-.1.9 0 1.2.4.3.4 1 .8 1.3.9.4 0 .7.3.6.7 0 .3 0 .6.3.6.2 0 .3.2.3.5s-.2.6-.5.6-.6.1-.7.3c-.3.4 0 1.4.4 1.4v-.3zm1.4-2.4c-.2-.2 0-.3.1-.3.2 0 .4.1.4.3 0 .2 0 .4-.2.4l-.3-.4zm1.8-1c.4-.4.8-.7 1-.5.3.3-.6 1.3-1.2 1.3-.4 0-.3-.3.2-.8zm11.8-12c-.4-.2-.3-.3.1-.5.8-.3 1-.3 1 .3s-.4.6-1 .2zM82 221.3l3-4.2c1.5-2.1 1.7-2.6 1.3-2.9-.6-.3-2 .3-1.8.8.1.2 0 .3-.3.2-.2 0-.4.1-.4.3 0 .1-.5.5-1.1.8-.7.3-1.1.7-1 .7l-.5.8a11.5 11.5 0 0 0-2 2.8c-.5.9-.4 1 .3 1.6l1 .6c.2 0 .8-.7 1.5-1.5zm-5.8-2c0-.4-.6-.9-1.3-1.2-1.8-1-4-2.3-9.8-6.3a58.6 58.6 0 0 0-6-3.8c-1.3-.5-1.2-.5 3.5 3.1 13.4 10 13.6 10.1 13.6 8.1zm-12.3-4c0-.7-1.7-2.2-2-2-.4.5 1 2.7 1.5 2.5.3 0 .5-.3.5-.6zm23-4.2c0-.4-1-.8-1.4-.6-.3.4.2 1 .8 1 .3 0 .5-.2.5-.4zm17.8-.1c0-.3-.1-.6-.3-.6-.1 0-.3-.2-.4-.6-.1-.4-.2-.3-.2.3s.1 1 .4 1.2l.5.2v-.5zm-48.4-1.6c0-1.3-1-1.2-1.2 0 0 .9 0 1 .6 1 .4-.1.6-.5.6-1zm31.6-.2c0-.3-.3-.5-.7-.5-.7 0-1 .3-.5.8.4.4 1.2.2 1.2-.3zM89 208c0-.2 0-.4-.4-.5-.7-.3-1 0-.7.4.3.5.8.5 1 .1zm12.9-3.1c0-.6 0-.6-.4-.1-.4.7-.4 1.1 0 .9.2-.2.4-.5.4-.8zm-1 0c0-.2-.3-.5-.5-.8-.2-.5-.3-.4-.2.2 0 .4 0 .6-.4.6-.2 0-.3 0-.2.2.2.4 1.2.1 1.2-.3zM91 188.4c.4-.2.6-.6.6-1 0-.6-.2-.7-1.7-.7-1.4 0-1.8.1-2.1.7-.7 1.3-.2 1.8 1.3 1.6a9 9 0 0 0 2-.6zm-10.7-3.9c.8.2 1.3-.5 1.3-1.6 0-.8-.2-1-1.4-1.2-2.5-.4-3.4.1-3.4 2 0 .9.2 1.2.5 1 .3 0 .6 0 .8.2.1.3.4.3 1 0 .4-.3 1-.4 1.2-.4zm-13 17c-1.7-1.5-1.9-2.2-1.2-3.7.4-1.2.4-1.5-.2-3.8-.9-3.1-.9-3.1 0-3.7.8-.5 1-.4 1.6.5l1.6 2.6c.4 1 1.3 2 2.1 2.6 1.4.9 1.6 1 6.1 1H82l.3 1c.2 1.4 0 1.6-2.6 2a82.2 82.2 0 0 0-4.5.4c-.6 0-1.8.5-2.6 1.1-2.1 1.4-3.7 1.4-5.3 0zm1.1-3.7c1.2-.7 1.3-1 1-1.4-.7-.8-2.6.1-2.7 1.3-.2 1.2 0 1.2 1.7 0zm4.5-15.7c.2-.3.5-.4.6-.3.1.1-.1.3-.4.5-.5.2-.6.1-.2-.2z" style="fill:#b08758;stroke-width:.352778" transform="translate(-44.5 -173.2)"/>
  <path d="M77.2 239.4c-1-1-2.6-2.3-3.5-2.7-1.7-.9-4-3-5.8-5.4a9 9 0 0 0-2.8-2 36 36 0 0 1-9.5-9.1 35.3 35.3 0 0 1-.8-11.7l.3-1.9-2-1.4c-2.6-2-2.6-3 0-7.5 1-1.8 2-3.4 2.3-3.4.2-.1.5.2.6.6.4.9.8.6 2.2-1.6a21 21 0 0 1 6.4-7c1.9-.8 2.7-.5 8.1 2.4 2.2 1.2 5.5 3 7.3 3.8a19 19 0 0 1 3.7 2.3c.4.5.3.5-.8-.1l-7.3-4c-7-3.7-8.4-4.1-10.3-2.8-1.6 1.1-4 4.1-6 7.6-3 5-3 6.8 0 9 3.5 2.7 12 8.5 13 8.8 1.5.6 2.2.3 4.5-1.8 1.2-1.3 2.4-2 2.6-2 .3.2.3.4 0 .7l-.3.8a8 8 0 0 1-.7 2.3c-.5 1-.9 2-.8 2.2 0 .1-.1.2-.3.2-.2 0-.3.2-.2.4.1.2 0 .3-.1.3-.2 0-.4.3-.5.7v.7c.3 0 1.5-2 1.5-2.6 0-.2.4-.6.7-.8a119.9 119.9 0 0 1 13.4-19.1c.7 0 .3-.6-.6-1.2l-1-.6h1a4 4 0 0 0 2.2-.9l1-.9-2.2.2c-1.3.2-2.5.5-2.7.7-.3.4-1.3 0-4.4-1.6l-4-2h1.5c1.6 0 1.7-.1 1.7-1.3.1-1.5-.4-1.6-3.9-1.4-2.8.2-3.3.4-2.7 1 .7.9-3.7-.7-7.5-2.7l-4.7-2.3c-.8-.3-1-.4-.5-.6.4-.1 1.5.2 2.8.8 2 1.1 2.2 1.1 3.3.6.8-.4 1-.4.5 0-.8.6-.8.7.5 1.2 1 .4 1.2.4 2-.2 1.1-.9 1.3-2.2.3-2.3-.5 0-.3-.1.5-.4l2.8-1c2.2-1 5-1 6.8 0 .7.4 1.6.8 1.9.8.2 0 .7.1 1 .3l2.1.7c.8.2 2 .7 2.7 1.2 2.1 1.6 3.8 2.3 6.2 2.9 1.3.3 3.1 1 4 1.4 2.8 1.6 5.4 3 5.9 3 .7 0 2.2 2 2.4 3.4 0 .7.3 1.9.6 2.5.8 2.6.3 6.6-1.5 13.3a68 68 0 0 1-7 14.4 47 47 0 0 1-11.4 12.5c-3.9 3-5.6 3.7-10.8 4.2-1.8.2-1.9.2-3.7-1.6zm11-5.2c3.5-1.7 8.4-6.5 11.7-11.3 3-4.4 3.7-6 5.2-10 1.9-5.2 2.3-7 1.8-7.8-.3-.6-.3-.7 0-.5.3.2.4.1.3-.2-.2-.6-1.2-.6-1 0 0 .2-.3.5-.7.6-.5.2-.7.5-.7 1.2 0 .5-.2 1.1-.4 1.4-.2.4-.3.4-.3-.3 0-.4-.2-.7-.4-.7-.4 0-.4-1 0-1.2.5-.1 0-1.7-.4-1.7-.2 0-.2.2 0 .4.1.3 0 .3-.2.2a1 1 0 0 1-.4-.8c0-.2-.3-.5-.6-.5-.8 0-2.2-1-2.2-1.7 0-.5-.1-.5-.4 0-.2.4-.3.8-.2 1 .1.2 0 .4-.3.5-.7.3-1.7-.7-1.4-1.2.2-.3.1-.4-.2-.2-.2.2-.4 0-.4-.4s-.2-.8-.5-1c-.3 0-.5-.5-.5-1 0-1.3-.7-1.7-2-1-.7.3-1.1.6-1 .8 0 .1 0 .4-.3.5-.3 0-1.1 1-1.8 2.2-2.2 3.4-2.6 4.8-1.6 5.5.6.5.6.6 0 2.8-.4 1.2-.7 2.8-.7 3.5 0 .9-.2 1.4-.5 1.4a17 17 0 0 0-2.7 3.4c-3 4.6-4.2 5.7-5.6 5.7-1.2 0-1.8.7-1 1.1.3.3.2.3-.3.3-.6 0-.8.3-1 1.2-.3 1.4.1 5.2.6 5.2.1 0 .2.2 0 .4l.1.3c1.1-.2 2 0 2.2.7.1.7.2.7.6.2.4-.7 1.6-.4 1.6.4 0 .6-2.1 1.1-3.1.8-.4-.2-.8-.2-.8 0 0 1 3.2 1.8 5.5 1.4l4-1.6zm-6.2-13a23 23 0 0 0 4.5-7c-.4-.4-2.3.3-2 .8.1.2 0 .3-.3.2-.2 0-.4.1-.4.3 0 .1-.5.5-1.1.8-.7.3-1.1.7-1 .7l-.5.8a11.5 11.5 0 0 0-2 2.8c-.5.9-.4 1 .3 1.6l1 .6c.2 0 .8-.7 1.5-1.5zm-5.8-2c0-.3-.6-.8-1.3-1.1-1.8-1-4-2.3-9.8-6.3a58.6 58.6 0 0 0-6-3.8c-1.3-.5-1.2-.5 3.5 3.1 13.4 10 13.6 10.1 13.6 8.1zm-12.3-4c0-.6-1.7-2.1-2-1.8-.4.4 1 2.6 1.5 2.4.3 0 .5-.3.5-.6zM86 213c0-.1-.3-.4-.6-.5-.5-.2-.5-.1-.1.3.5.6.7.7.7.2zm.7-1.8c0-.4-1.4-1.1-1.7-.9-.3.3 1 1.7 1.4 1.4.2 0 .3-.3.3-.5zm-30.5-1.7c0-1.3-1-1.2-1.2 0 0 .9 0 1 .6 1 .4-.1.6-.5.6-1zm31.6-.2c0-.2-.4-.5-.8-.7-1-.2-1.2 0-.9.7.3.7 1.7.7 1.7 0zM89 208c0-.2-.2-.5-.7-.7-1-.4-1.2-.1-.5.6.5.5 1 .5 1.2.1zm13.2-6.7h-.6c-.4.2-.8 0-.8-.1 0-.2 0-.3-.2-.2-.1.1-.1.5 0 .8.2.6.5.5 1.6-.5zm-5.1-2.9c-.2-.1-.9.8-.9 1.3 0 .1.3 0 .5-.4.3-.4.5-.8.4-.9zm-6-9.9c.3-.2.5-.6.5-1 0-.6-.2-.7-1.7-.7-1.4 0-1.8.1-2.1.7-.7 1.3-.2 1.8 1.3 1.6a9 9 0 0 0 2-.6zm-10.8-3.9c.8.2 1.3-.5 1.3-1.6 0-.8-.2-1-1.4-1.2-2.5-.4-3.4.1-3.4 2 0 .9.2 1.2.5 1 .3 0 .6 0 .8.2.1.3.4.3 1 0 .4-.3 1-.4 1.2-.4zm-13 17c-1.7-1.5-1.9-2.2-1.2-3.7.4-1.2.4-1.5-.2-3.8-.9-3.1-.9-3.1 0-3.7.8-.5 1-.4 1.6.5l1.6 2.6c.4 1 1.3 2 2.1 2.6 1.4.9 1.6 1 6.1 1H82l.3 1c.2 1.4 0 1.6-2.6 2a82.2 82.2 0 0 0-4.5.4c-.6 0-1.8.5-2.6 1.1-2.1 1.4-3.7 1.4-5.3 0zm1.1-3.7c1.2-.7 1.3-1 1-1.4-.7-.8-2.6.1-2.7 1.3-.2 1.2 0 1.2 1.7 0zm4.5-15.7c.2-.3.5-.4.6-.3.1.1-.1.3-.4.5-.5.2-.6.1-.2-.2z" style="fill:#d16a48;stroke-width:.352778" transform="translate(-44.5 -173.2)"/>
  <path d="M77.2 239.4c-1-1-2.6-2.3-3.5-2.7-1.7-.9-4-3-5.8-5.4a8.9 8.9 0 0 0-2.8-2c-2.2-1-4.2-2.8-3.8-3.4.1-.2 0-.3-.2-.2-.5.4-4.9-4-5.5-5.5a40.1 40.1 0 0 1-.7-11.8c0-.1.2.5.2 1.4 0 2 .6 2.2 2 1 1-.8.8-1.8-.5-2.8-.7-.6-1-.7-1.2-.3-.2.3-.3.2-.3-.3s-.7-1.3-2-2.2c-2.6-2-2.6-3 0-7.5 1-1.8 2-3.4 2.3-3.4.2-.1.5.2.6.6.4.9.8.6 2.2-1.6a21 21 0 0 1 6.4-7c1.9-.8 2.7-.5 8.1 2.4 2.2 1.2 5.5 3 7.3 3.8a19 19 0 0 1 3.7 2.3c.4.5.3.5-.8-.1l-7.3-4c-7-3.7-8.4-4.1-10.3-2.8-1.6 1.1-4 4.1-6 7.6-3 5-3 6.8 0 9 3.5 2.7 12 8.5 13 8.8 1.5.6 2.2.3 4.5-1.8 1.2-1.3 2.4-2 2.6-2 .3.2.3.4 0 .7l-.3.8a8 8 0 0 1-.7 2.3c-.5 1-.9 2-.8 2.2 0 .1-.1.2-.3.2-.2 0-.3.2-.2.4.1.2 0 .3-.1.3-.2 0-.4.3-.5.7v.7c.3 0 1.5-2 1.5-2.6 0-.2.4-.6.7-.8a122.5 122.5 0 0 1 13.1-18.9c.6-.5.7-.7.4-1-.5-.2-.4-.3 1.8-1.8l1.4-1h-1.8c-1 0-2.6.2-3.6.4-1.8.3-2 .3-4.7-1.2l-2.9-1.5 1.2-.1c1.2-.2 1.3-.3 1.3-1.6v-1.4h-3.4c-4 .2-4.6.3-3.7 1 1.5 1.1-3.8-.9-7.9-3a33.8 33.8 0 0 0-4.6-2c-.4 0-.4-.2 0-.5.2-.3.9-.2 2.8.8 2.2 1 2.5 1 3 .6.7-.4.7-.4.3.1-.4.5-.3.7.7 1a4 4 0 0 0 1.4.5c.1 0 .3 0 .3.2 0 .7 1 0 1.6-1 .7-1.6.6-2.1-.5-2.2-.8 0-.6-.1.6-.4l2.8-1.1c1.2-.6 2.9-.5 2.9.1 0 .2.5.4 1.2.3.7 0 1.3 0 1.5.2l.8-.1c.4-.2.7-.2.9 0 .1.2.6.4 1 .4.5 0 1 .2 1.1.5.1.2 1 .6 2 .9 1 .2 2 .6 2.2.8 1.2 1 6 3 7.4 3 .8 0 3.4 1.3 6 2.9a13 13 0 0 0 2.8 1.3c1.3.4 2.6 2 2.9 4a18.5 18.5 0 0 1 .4 9.7l-.7 3.2a58.5 58.5 0 0 1-19 29.3c-3.9 3-5.6 3.7-10.8 4.2-1.8.2-1.9.2-3.7-1.6zm12.2-4.2c1-.5 2.3-1.5 3-2.1l1.3-1.2-1.4 1a47 47 0 0 1-3.9 2.3c-1.4.8-2 1.3-1.6 1.1.5 0 1.7-.6 2.6-1.1zm-1.3-1c3.6-1.7 8.5-6.5 11.8-11.3 3-4.4 3.7-6 5.2-10 1.9-5.2 2.3-7 1.8-7.8-.3-.6-.3-.7 0-.5.3.2.4.1.3-.2-.2-.6-1.2-.6-1 0 0 .2-.3.5-.7.6-.5.2-.7.5-.7 1.2 0 .5-.2 1.1-.4 1.4-.2.4-.3.4-.3-.3 0-.4-.2-.7-.4-.7-.4 0-.4-1 0-1.2.5-.1 0-1.7-.4-1.7-.2 0-.2.2 0 .4.1.3 0 .3-.2.2a1 1 0 0 1-.4-.8c0-.2-.3-.5-.6-.5-.8 0-2.2-1-2.2-1.7 0-.5-.1-.5-.4 0-.2.4-.3.8-.2 1 .1.2 0 .4-.3.5-.7.3-1.7-.7-1.4-1.2.2-.3.1-.4-.2-.2-.2.2-.4 0-.4-.4s-.2-.8-.5-1c-.3 0-.5-.5-.5-1 0-1.3-.7-1.7-2-1-.7.3-1.1.6-1 .8 0 .1 0 .4-.3.5-.3 0-1.1 1-1.8 2.2-2.2 3.4-2.6 4.8-1.6 5.5.6.5.6.6 0 2.8-.4 1.2-.7 2.8-.7 3.5 0 .9-.2 1.4-.5 1.4a17 17 0 0 0-2.7 3.4c-3 4.6-4.2 5.7-5.6 5.7-1.2 0-1.8.7-1 1.1.3.3.2.3-.4.3-.5 0-.8.3-1 .9-.3 1.2.1 5.3.6 5.4.2.1.3.3.1.5l.1.3c1.1-.2 2 0 2.2.7.1.7.2.7.6.2.4-.7 1.6-.4 1.6.4 0 .6-2.1 1.1-3.1.8-.4-.2-.8-.2-.8 0 0 1 3.2 1.8 5.5 1.4l4-1.6zm-20.8-9.1-.5-.8c-.2.2.5 1.7.8 1.7 0 0 0-.4-.3-1zm6.7-1.7c.4-2.2.4-2.2-.4-3-2-1.8-2.5-.4-1.2 3.3.4 1.3.8 2.2 1 2l.6-2.3zm-11.6 1.3c-.2-.5-.5-.8-.5-.7-.2.1.5 1.6.8 1.6 0 0 0-.4-.3-.9zm19.6-3.4c2.5-3.2 4.8-6.8 4.5-7.1-.4-.4-2.3.3-2 .8.1.2 0 .3-.3.2-.2 0-.4.1-.4.3 0 .1-.5.5-1.1.8-.7.3-1.1.7-1 .7l-.5.8a11.5 11.5 0 0 0-2 2.8c-.5.9-.4 1 .3 1.6l1 .6c.2 0 .8-.7 1.5-1.5zm-25.7-1.6c-.4-.7-.5-.8-.5-.3 0 .8.7 2.3 1 1.7l-.5-1.4zm20-.5c0-.3-.7-.8-1.4-1.1-1.8-1-4-2.3-9.8-6.3a58.6 58.6 0 0 0-6-3.8c-1.3-.5-1.2-.5 3.5 3.1 13.4 10 13.6 10.1 13.6 8.1zm-11.4-3.1c-.1-.6-.2-1 0-1 .1-.1 0-.3-.4-.5-.3-.2-.6-.5-.6-.7 0-.2-.4-.7-1-1.2-.9-.9-1.8-.8-1.8.2 0 .7 1.6 4.2 2.4 5 .5.7.6.7 1.1 0 .5-.6.6-1 .3-1.8zm-7.3 1c-.1-.9 0-1 .3-.9.3.2.3.1 0-.4-.6-.9-.7-.9-1.4-.5-.4.3-.3.6.3 1.6 1 1.6 1.1 1.6.8.2zm28.5-4.2c0-.1-.3-.4-.6-.5-.5-.2-.5-.1-.1.3.5.6.7.7.7.2zm.7-1.8c0-.4-1.4-1.1-1.7-.9-.3.3 1 1.7 1.4 1.4.2 0 .3-.3.3-.5zm1-1.9c0-.2-.3-.5-.7-.7-1-.2-1.2 0-.9.7.3.7 1.7.7 1.7 0zm1.3-1.2c0-.2-.2-.5-.7-.7-1-.4-1.2-.1-.5.6.5.5 1 .5 1.2.1zm13.2-6.7h-.6c-.4.2-.8 0-.8-.1 0-.2 0-.3-.2-.2-.1.1-.1.5 0 .8.2.6.5.5 1.6-.5zm-5.1-2.9c-.2-.1-.9.8-.9 1.3 0 .1.3 0 .5-.4.3-.4.5-.8.4-.9zm-8.4-9.2c.1-.2.5-.3 1-.2.3.1 1 0 1.6-.5.9-.6 1.2-.7 2.4-.4 1.6.4 2.5.1 1.7-.6-.6-.5-4.7-1.1-6.5-1-1.1.1-1.3.2-1.4 1.1-.2 1.7.5 2.7 1.2 1.6zm13.7-.7c.1-.2-.4-.3-1.2-.3-1.4 0-2 .5-1 .8.6.2 2-.1 2.2-.5zm-21.9-4c.4 0 .9-.4 1-.8.3-.5.7-.8 1.4-.8.5 0 1-.1 1.1-.3.3-.4-.8-.7-3.8-1-2.1-.2-2.5-.1-2.9.4-.6 1-.6 3 0 2.8.3 0 .6 0 .8.2.1.3.4.3 1 0a4 4 0 0 1 1.4-.5zm9.7-1.1H89l.6.1c.7 0 1 0 .7-.1zm-10.4-3c.2-.2 0-.2-.3 0-.6.1-.7.4-.2.4.2 0 .4-.2.5-.4zm-12.5 21.1c-1.7-1.4-1.9-2-1.2-3.6.4-1.2.4-1.5-.2-3.8-.9-3.1-.9-3.1 0-3.7.8-.5 1-.4 1.6.5l1.6 2.6c.4 1 1.3 2 2.1 2.6 1.4.9 1.6 1 6.1 1h4.7l.3 1c.2 1.4 0 1.6-2.6 2a82.2 82.2 0 0 0-4.5.4c-.6 0-1.8.5-2.6 1.1-2.1 1.4-3.7 1.4-5.3 0zm1.1-3.6c1.2-.7 1.3-1 1-1.4-.7-.8-2.6.1-2.7 1.3-.2 1.2 0 1.2 1.7 0z" style="fill:#7d8282;stroke-width:.352778" transform="translate(-44.5 -173.2)"/>
  <path d="M77.2 239.4c-1-1-2.6-2.3-3.5-2.7-1.7-.9-4-3-5.8-5.4a8.9 8.9 0 0 0-2.8-2c-2.2-1-4.2-2.8-3.8-3.4.1-.2 0-.3-.2-.2-.5.4-4.9-4-5.5-5.5a40.1 40.1 0 0 1-.7-11.8c0-.1.2.5.2 1.4 0 2 .6 2.2 2 1 1-.8.8-1.8-.5-2.8-.7-.6-1-.7-1.2-.3-.2.3-.3.2-.3-.3s-.7-1.3-2-2.2c-1.7-1.3-2-1.7-2-2.7 0-1.2 1.7-4.6 3.5-7.2.9-1.3.9-1.3.9.6 0 1 0 1 .6.5.3-.3 1.6-2 2.8-3.8 3.8-5.7 5.7-7.2 8.4-6.5a28 28 0 0 1 6.4 3.4l-2.6-1.1c-2.6-1.4-3.9-1.5-5.4-.7a29 29 0 0 0-8.5 12c-.7 2.7-.2 3.3 7.4 8.6 8.9 6.1 9 6.1 11.4 4 1.9-1.8 2.8-2.1 2.5-1-.3 1.5-1 3.4-1.3 3.4-.1 0-.3.3-.3.7 0 .4-.1.7-.3.7-.2 0-.3.1-.3.2.2.6-.5 1.9-1 1.9-.2 0-4-2.3-8.1-5.2a169 169 0 0 0-9.1-5.8l-1.5-.7 1.5 1.2c.7.7 5 4 9.5 7.3 7.8 5.8 8.1 6 8.5 5.2A153.6 153.6 0 0 1 92 195.5c.5-.5.6-.7.2-1-.4-.2-.3-.4 1.9-1.8l1.4-1h-1.8c-1 0-2.6.2-3.6.4-1.8.3-2 .3-4.7-1.2l-2.9-1.5 1.2-.1c1.2-.2 1.3-.3 1.3-1.6v-1.4h-3.5c-2 .1-3.7.3-4 .5-.1.2 0 .3.2.3.3 0 .4.1.3.2-.3.3-2.6-.6-7.8-3.2-5-2.4-6.5-3.6-2-1.5 2.2 1 2.5 1 3 .6.6-.4.7-.4.3.1-.4.5-.3.7.7 1a4 4 0 0 0 1.4.5c.1 0 .3 0 .3.2 0 .7 1 0 1.6-1 .7-1.6.6-2.1-.5-2.2-.8 0-.6-.1.6-.4l2.8-1.1c1.2-.6 2.9-.5 2.9.1 0 .2.5.4 1.2.3.7 0 1.3 0 1.5.2l.8-.1c.4-.2.7-.2.9 0 .1.2.6.4 1 .4.5 0 1 .2 1.1.5.1.2 1 .6 2 .9 1 .2 2 .6 2.2.8 1.2 1 6 3 7.4 3 .8 0 3.4 1.3 6 2.9a13 13 0 0 0 2.8 1.3c1.3.4 2.6 2 2.9 4a18.5 18.5 0 0 1 .4 9.7l-.7 3.2a58.5 58.5 0 0 1-19 29.3c-3.9 3-5.6 3.7-10.8 4.2-1.8.2-1.9.2-3.7-1.6zm12.2-4.2c1-.5 2.3-1.5 3-2.1l1.3-1.2-1.4 1a47 47 0 0 1-3.9 2.3c-1.4.8-2 1.3-1.6 1.1.5 0 1.7-.6 2.6-1.1zm-1.3-1c3.6-1.7 8.5-6.5 11.8-11.3 3-4.4 3.7-6 5.2-10 1.9-5.2 2.3-7 1.8-7.8-.3-.6-.3-.7 0-.5.3.2.4.1.3-.2-.2-.6-1.2-.6-1 0 0 .2-.3.5-.7.6-.5.2-.7.5-.7 1.2 0 .5-.2 1.1-.4 1.4-.2.4-.3.4-.3-.3 0-.4-.2-.7-.4-.7-.4 0-.4-1 0-1.2.5-.1 0-1.7-.4-1.7-.2 0-.2.2 0 .4.1.3 0 .3-.2.2a1 1 0 0 1-.4-.8c0-.2-.3-.5-.6-.5-.8 0-2.2-1-2.2-1.7 0-.5-.1-.5-.4 0-.2.4-.3.8-.2 1 .1.2 0 .4-.3.5-.7.3-1.7-.7-1.4-1.2.2-.3.1-.4-.2-.2-.2.2-.4 0-.4-.5 0-.4 0-.7-.2-.7s-.3-.5-.4-1.1c0-1.4-1.3-2.6-2-2-.3.2-.8.3-1 .1-.4 0-.5 0-.4.2.1.2 0 .3-.2.3s-.3.3-.2.5c0 .4-.1.6-.5.8-.4.1-1 1-1.5 2-.4.9-.9 1.7-1.1 1.7-.3 0-.5.2-.5.4 0 .3 0 1-.2 1.8-.3 1.2-.2 1.5.4 2l.7.6-.6 2.3a16 16 0 0 0-.7 3.5c0 .9-.2 1.3-.6 1.5l-1.1.4c-.3.2-.4 0-.2-.3.5-1.4-3-.9-4.4.6-1.3 1.5-4 5.8-4 6.4l1 .7c1 .5 1.1.5 2.4-1a20 20 0 0 0 3.5-4.6c.7-1.3 1-1.5 1.4-1 .2.3 0 .4-.3.4s-.4.2-.3.5c0 .3 0 .6-.2.7l-2 2.7c-1.8 2.8-2.7 3.5-4.1 3.5-1.1 0-1.7.7-1 1.1.4.3.3.3-.3.3-.5 0-.8.3-1 .9-.3 1.2.1 5.3.6 5.4.2.1.3.3.1.5l.1.3c1.1-.2 2 0 2.2.7.1.7.2.7.6.2.4-.7 1.6-.4 1.6.4 0 .6-2.1 1.1-3.1.8-.4-.2-.8-.2-.8 0 0 1 3.2 1.8 5.5 1.4l4-1.6zm-20.8-9.1-.5-.8c-.2.2.5 1.7.8 1.7 0 0 0-.4-.3-1zm6.7-1.7c.4-2.2.4-2.2-.4-3-2-1.8-2.5-.4-1.2 3.3.4 1.3.8 2.2 1 2l.6-2.3zm-11.6 1.3c-.2-.5-.5-.8-.5-.7-.2.1.5 1.6.8 1.6 0 0 0-.4-.3-.9zm-6-5c-.5-.7-.6-.8-.6-.3 0 .8.7 2.3 1 1.7l-.5-1.4zm8.5-3.6c-.1-.6-.2-1 0-1 .1-.1 0-.3-.4-.5-.3-.2-.6-.5-.6-.7 0-.2-.4-.7-1-1.2-.9-.9-1.8-.8-1.8.2 0 .7 1.6 4.2 2.4 5 .5.7.6.7 1.1 0 .5-.6.6-1 .3-1.8zm-7.3 1c-.1-.9 0-1 .3-.9.3.2.3.1 0-.4-.6-.9-.7-.9-1.4-.5-.4.3-.3.6.3 1.6 1 1.6 1.1 1.6.8.2zm28.5-4.2c0-.1-.3-.4-.6-.5-.5-.2-.5-.1-.1.3.5.6.7.7.7.2zm.7-1.8c0-.4-1.4-1.1-1.7-.9-.3.3 1 1.7 1.4 1.4.2 0 .3-.3.3-.5zm1-1.9c0-.2-.3-.5-.7-.7-1-.2-1.2 0-.9.7.3.7 1.7.7 1.7 0zm1.3-1.2c0-.2-.2-.5-.7-.7-1-.4-1.2-.1-.5.6.5.5 1 .5 1.2.1zm13.2-6.7h-.6c-.4.2-.8 0-.8-.1 0-.2 0-.3-.2-.2-.1.1-.1.5 0 .8.2.6.5.5 1.6-.5zm-5-2.5c0-.2 0-.4-.2-.4s-.4.2-.4.4l.1.3.4-.3zm-8.5-9.6c.1-.2.5-.3 1-.2.3.1 1 0 1.6-.5.9-.6 1.2-.7 2.4-.4 1.6.4 2.5.1 1.7-.6-.6-.5-4.7-1.1-6.5-1-1.1.1-1.3.2-1.4 1.1-.2 1.7.5 2.7 1.2 1.6zm13.7-.7c.1-.2-.4-.3-1.2-.3-1.4 0-2 .5-1 .8.6.2 2-.1 2.2-.5zm-21.9-4c.4 0 .9-.4 1-.8.3-.5.7-.8 1.4-.8.5 0 1-.1 1.1-.3.3-.4-.8-.7-3.8-1-2.1-.2-2.5-.1-2.9.4-.6 1-.6 3 0 2.8.3 0 .6 0 .8.2.1.3.4.3 1 0a4 4 0 0 1 1.4-.5zm9.7-1.1H89l.6.1c.7 0 1 0 .7-.1zm-10.4-3c.2-.2 0-.2-.3 0-.6.1-.7.4-.2.4.2 0 .4-.2.5-.4zm-12.6 21.2c-1-.9-1.3-1.4-1.3-2.3 0-.7.2-1.6.4-2 .2-.5.2-1.3-.4-3.2-.9-3.2-.9-3.2 0-3.7 1-.6 1.4-.3 2.8 2.5a9 9 0 0 0 2.5 3.2c1.4.9 1.6 1 6.1 1h4.7l.2 1v1.3l-4 .7c-3.2.4-4.3.7-5.7 1.5-2.2 1.4-3.6 1.4-5.3 0zm1.5-3.9c1-.7 1.2-1 .8-1.4-.9-1-3.8 1-3 2.1.3.6 1 .4 2.2-.7zm10.3-5c-6-3.3-6.4-3.8-.9-1 3.6 1.8 6.5 3.6 5.8 3.5l-4.9-2.5z" style="fill:#7c817d;stroke-width:.352778" transform="translate(-44.5 -173.2)"/>
  <path d="M77.2 239.4c-1-1-2.6-2.3-3.5-2.7-1.7-.9-4-3-5.8-5.4a8.9 8.9 0 0 0-2.8-2c-2.2-1-4.2-2.8-3.8-3.4.1-.2 0-.3-.2-.2-.5.4-4.9-4-5.5-5.5a40.1 40.1 0 0 1-.7-11.8c0-.1.2.5.2 1.4 0 2 .6 2.2 2 1 1-.8.8-1.8-.5-2.8-.7-.6-1-.7-1.2-.3-.2.3-.3.2-.3-.3 0-.4-.6-1.1-1.2-1.7-.6-.5-.9-.8-.6-.7a404.7 404.7 0 0 1 17.6 12.6l4.8 3.5.8-1.9a135.2 135.2 0 0 1 16-24.6c-.8 0-.4-.7 1.3-1.8l1.6-1h-1.8c-1 0-2.6 0-3.6.3-1.8.3-2 .3-4.7-1.2l-2.9-1.5 1.2-.1c1.2-.2 1.3-.3 1.3-1.6v-1.4h-3.4c-1.8.1-3.7.3-4.1.5-.7.4-1.5.1-6.3-2.3-3-1.4-5.5-2.7-5.5-2.8 0-.2 1.5.3 3.3 1.2 1.2.7 1.6.7 2.2.4.6-.4.7-.4.3 0-.4.5-.3.7.7 1a4 4 0 0 0 1.4.5c.1 0 .3 0 .3.2 0 .7 1 0 1.6-1 .7-1.6.6-2.1-.5-2.2-.8 0-.6-.1.6-.4l2.8-1.1c1.2-.6 2.9-.5 2.9.1 0 .2.5.4 1.2.3.7 0 1.3 0 1.5.2l.8-.1c.4-.2.7-.2.9 0 .1.2.6.4 1 .4.5 0 1 .2 1.1.5.1.2 1 .6 2 .9 1 .2 2 .6 2.2.8 1.2 1 6 3 7.4 3 .8 0 3.4 1.3 6 2.9a13 13 0 0 0 2.8 1.3c1.3.4 2.6 2 2.9 4a18.5 18.5 0 0 1 .4 9.7l-.7 3.2a58.5 58.5 0 0 1-19 29.3c-3.9 3-5.6 3.7-10.8 4.2-1.8.2-1.9.2-3.7-1.6zm12.2-4.2c1-.5 2.3-1.5 3-2.1l1.3-1.2-1.4 1a47 47 0 0 1-3.9 2.3c-1.4.8-2 1.3-1.6 1.1.5 0 1.7-.6 2.6-1.1zm-1.3-1c3.6-1.7 8.5-6.5 11.8-11.3 3-4.4 3.7-6 5.2-10 1.9-5.2 2.3-7 1.8-7.8-.3-.6-.3-.7 0-.5.3.2.4.1.3-.2-.2-.6-1.2-.6-1 0 0 .2-.3.5-.7.6-.5.2-.7.5-.7 1.2 0 .5-.2 1.1-.4 1.4-.2.4-.3.4-.3-.3 0-.4-.2-.7-.4-.7-.4 0-.4-1 0-1.2.5-.1 0-1.7-.4-1.7-.2 0-.2.2 0 .4.1.3 0 .3-.2.2a1 1 0 0 1-.4-.8c0-.2-.3-.5-.6-.5-.8 0-2.2-1-2.2-1.7 0-.5-.1-.5-.4 0-.2.4-.3.8-.2 1 .1.2 0 .4-.3.5-.7.3-1.7-.7-1.4-1.2.2-.3.1-.4-.2-.2-.2.2-.4 0-.4-.5 0-.4-.1-.7-.4-.7-.2 0-.1-.3.2-.9.5-.8.5-.9 0-.9-.2 0-.5-.2-.5-.4 0-.7-1.6-1.4-2-1 0 .3-.5.4-.8.3-.4-.1-.6 0-.5.1.1.2 0 .3-.2.3s-.3.3-.2.5c0 .4-.1.6-.5.8-.4.1-1 1-1.5 2-.4.9-1 1.7-1.2 1.7-.3 0-.4.1-.3.3.1.2 0 .8-.3 1.3-.8 1.1-.7 1.7.3 2.5l.9.7-.7 2.3c-.4 1.2-.7 2.8-.7 3.5 0 1.1-.1 1.4-.7 1.4a4 4 0 0 1-1.6-.6c-1.5-1-3.5.4-5.8 3.8a19 19 0 0 0-2.2 4l1 .7c1 .5 1.1.5 2.4-1a20 20 0 0 0 3.5-4.6c.7-1.2 1.3-1.7 1.3-1 0 .3-.2.4-.5.4-.2 0-.3.1-.1.2.2.3-2.7 4.6-4.2 6.3-.6.6-1.2 1-2 1-1.1 0-1.7.6-1 1 .4.3.3.3-.3.3-.5 0-.8.3-1 .9-.3 1.2.1 5.3.6 5.4.2.1.3.3.1.5l.1.3c1.1-.2 2 0 2.2.7.1.7.2.7.6.2.4-.7 1.6-.4 1.6.4 0 .6-2.1 1.1-3.1.8-.4-.2-.8-.2-.8 0 0 1 3.2 1.8 5.5 1.4l4-1.6zm-20.8-9.1-.5-.8c-.2.2.5 1.7.8 1.7 0 0 0-.4-.3-1zm6.7-1.7c.4-2.2.4-2.2-.4-3-2-1.8-2.5-.4-1.2 3.3.4 1.3.8 2.2 1 2l.6-2.3zm-11.6 1.3c-.2-.5-.5-.8-.5-.7-.2.1.5 1.6.8 1.6 0 0 0-.4-.3-.9zm-6-5c-.5-.7-.6-.8-.6-.3 0 .8.7 2.3 1 1.7l-.5-1.4zm8.5-3.6c-.1-.6-.2-1 0-1 .1-.1 0-.3-.4-.5-.3-.2-.6-.5-.6-.7 0-.2-.4-.7-1-1.2-.9-.9-1.8-.8-1.8.2 0 .7 1.6 4.2 2.4 5 .5.7.6.7 1.1 0 .5-.6.6-1 .3-1.8zm-7.3 1c-.1-.9 0-1 .3-.9.3.2.3.1 0-.4-.6-.9-.7-.9-1.4-.5-.4.3-.3.6.3 1.6 1 1.6 1.1 1.6.8.2zm28.5-4.2c0-.1-.3-.4-.6-.5-.5-.2-.5-.1-.1.3.5.6.7.7.7.2zm.7-1.8c0-.4-1.4-1.1-1.7-.9-.3.3 1 1.7 1.4 1.4.2 0 .3-.3.3-.5zm1-1.9c0-.2-.3-.5-.7-.7-1-.2-1.2 0-.9.7.3.7 1.7.7 1.7 0zm1.3-1.2c0-.2-.2-.5-.7-.7-1-.4-1.2-.1-.5.6.5.5 1 .5 1.2.1zm13.2-6.7h-.6c-.4.2-.8 0-.8-.1 0-.2 0-.3-.2-.2-.1.1-.1.5 0 .8.2.6.5.5 1.6-.5zm-13.5-12c.1-.3.5-.4 1-.3.3.1 1 0 1.6-.5.9-.6 1.2-.7 2.4-.4 1.6.4 2.5.1 1.7-.6-.6-.5-4.7-1.1-6.5-1-1.1.1-1.3.2-1.4 1.1-.2 1.7.5 2.7 1.2 1.6zm13.7-.8c.1-.2-.4-.3-1.2-.3-1.4 0-2 .5-1 .8.6.2 2-.1 2.2-.5zm-21.9-4c.4 0 .9-.4 1-.8.3-.5.7-.8 1.4-.8.5 0 1-.1 1.1-.3.3-.4-.8-.7-3.8-1-2.1-.2-2.5-.1-2.9.4-.6 1-.6 3 0 2.8.3 0 .6 0 .8.2.1.3.4.3 1 0a4 4 0 0 1 1.4-.5zm9.7-1.1H89l.6.1c.7 0 1 0 .7-.1zm-10.4-3c.2-.2 0-.2-.3 0-.6.1-.7.4-.2.4.2 0 .4-.2.5-.4zm-6.5 36.7-3.5-2.2c-4.2-3-12.3-8.3-12.5-8.3l-2.3-1c-1-.6-2.2-1-2.4-1-.7.3-1.6-1.5-1.4-2.8.4-2.6 3.6-6.7 3.6-4.7 0 .8.6.9 1 0 1.2-2.1 5-7.3 6.6-9 1.8-1.9 2-2 3.5-2 .9 0 2.1.3 2.8.7l1.2.6-2-.2-2-.1-2.3 2.2a32.9 32.9 0 0 0-6.4 10.1c-.9 2.7-.3 3.7 4 6.7l7 4.8c4.6 3.2 5.8 3.4 7.8 1.4l1.4-1.4v1c0 .6-.1 1.6-.4 2.2-.6 1.5-1 2.4-1 3-.3 1-.8 1-2.7 0zm-6-15.5c-1.2-.9-1.4-1.2-1.4-2.3 0-.7.2-1.6.4-2 .2-.5.1-1.3-.4-3.3-.8-2.7-.7-3.4.2-3 .3 0 .5 0 .4-.2 0-.2 0-.4.3-.5.1 0 .9 1 1.6 2.2.8 1.6 1.8 2.8 2.7 3.5l1.5 1h9.5v1.2c0 .7 0 1.3-.2 1.3a181.7 181.7 0 0 0-8.1 1c-.2 0-1 .5-1.7 1.1-1.7 1.4-2.9 1.4-4.7 0zm1.7-3.9c1.4-.9.8-2-.8-1.6-1 .3-2 1.7-1.7 2.5.2.5.3.5 1 0l1.5-.9zm12.7-3.7-1.7-1c0-.1.8.2 1.8.7l1.7 1c0 .3 0 .3-1.8-.7zm-5.3-2.8c-1.3-.7-1.2-1 0-.3.7.3 1.1.6 1.1.7 0 .2 0 .2-1.1-.4zm-5.8-3.2c-.6-.5-.6-.5.1-.2l.8.6c0 .3-.1.2-.9-.4z" style="fill:#787e81;stroke-width:.352778" transform="translate(-44.5 -173.2)"/>
  <path d="M77.2 239.4c-1-1-2.6-2.3-3.5-2.7-1.7-.9-4-3-5.8-5.4a8.9 8.9 0 0 0-2.8-2c-2.2-1-4.2-2.8-3.8-3.4.1-.2 0-.3-.2-.2-.5.4-4.9-4-5.5-5.5a40.1 40.1 0 0 1-.7-11.8c0-.1.2.5.2 1.4 0 2 .6 2.2 2 1 1-.8.8-1.8-.5-2.8-.7-.6-1-.7-1.2-.3-.2.3-.3.2-.3-.4 0-.4 0-.7.2-.7L59 209a5207 5207 0 0 0 17 12.3l.3-1.3c.2-.7 1-2.8 2-4.5a144.8 144.8 0 0 1 14.2-21c-.7-.2-.4-.6 1.3-1.8l1.6-1h-1.8c-1 0-2.6 0-3.6.3-1.8.3-2 .3-4.7-1.2l-2.9-1.5 1.2-.1c1.2-.2 1.3-.3 1.3-1.6v-1.4h-3.5c-2 .1-3.7.3-4 .5a96.8 96.8 0 0 1-11.6-5c-.5-.4 1.2.2 3 1.1 1.3.7 1.7.7 2.3.4.6-.4.7-.4.3 0-.4.5-.3.7.7 1a4 4 0 0 0 1.4.5c.1 0 .3 0 .3.2 0 .7 1 0 1.6-1 .7-1.6.6-2.1-.5-2.2-.8 0-.6-.1.6-.4l2.8-1.1c1.2-.6 2.9-.5 2.9.1 0 .2.5.4 1.2.3.7 0 1.3 0 1.5.2l.8-.1c.4-.2.7-.2.9 0 .1.2.6.4 1 .4.5 0 1 .2 1.1.5.1.2 1 .6 2 .9 1 .2 2 .6 2.2.8 1.2 1 6 3 7.4 3 .8 0 3.4 1.3 6 2.9a13 13 0 0 0 2.8 1.3c1.3.4 2.6 2 2.9 4a18.5 18.5 0 0 1 .4 9.7l-.7 3.2a58.5 58.5 0 0 1-19 29.3c-3.9 3-5.6 3.7-10.8 4.2-1.8.2-1.9.2-3.7-1.6zm12.2-4.2c1-.5 2.3-1.5 3-2.1l1.3-1.2-1.4 1a47 47 0 0 1-3.9 2.3c-1.4.8-2 1.3-1.6 1.1.5 0 1.7-.6 2.6-1.1zm-1.3-1c3.6-1.7 8.5-6.5 11.8-11.3 3-4.4 3.7-6 5.2-10 1.9-5.2 2.3-7 1.8-7.8-.3-.6-.3-.7 0-.5.3.2.4.1.3-.2-.2-.6-1.2-.6-1 0 0 .2-.3.5-.7.6-.5.2-.7.5-.7 1.2 0 .5-.2 1.1-.4 1.4-.2.4-.3.4-.3-.3 0-.4-.2-.7-.4-.7-.4 0-.4-1 0-1.2.5-.1 0-1.7-.4-1.7-.2 0-.2.2 0 .4.1.3 0 .3-.2.2a1 1 0 0 1-.4-.8c0-.2-.3-.5-.6-.5-.8 0-2.2-1-2.2-1.7 0-.5-.1-.5-.4 0-.2.4-.3.8-.2 1 .1.2 0 .4-.3.5-.7.3-1.7-.7-1.4-1.2.2-.3.1-.4-.2-.2-.2.2-.4 0-.4-.5 0-.4-.1-.7-.4-.7-.2 0-.1-.3.2-.9.5-.6.5-.9.2-.9-.5 0-1.5-1.7-1.2-2 0-.2-.4-.3-1.1-.3-.8-.1-1.2 0-1 .3.2.2 0 .3-.4.1-.6-.1-1 .3-2.2 2l-1.5 2.6c0 .2-.3.6-.7.8-.6.4-.7.7-.6 1.5.1.7 0 1-.4 1-.3 0-.4.1 0 .5.1.3.2.6.1.7 0 0 .3.6.9 1l1 1-.6 2.2a16 16 0 0 0-.7 3.5c0 1.1-.1 1.4-.7 1.4a4 4 0 0 1-1.6-.6c-.7-.4-1.1-.5-2.1-.2-.7.2-1.5.6-1.7.8a28.8 28.8 0 0 0-4.2 7c0 .6 1.1 1.4 1.8 1.4.3 0 1-.5 1.7-1.1.8-.7 1-.9.9-.5-.8 1.4-2 2.3-3 2.3-1.1 0-1.7.7-1 1.1.4.3.3.3-.3.3-.5 0-.8.3-1 .9-.3 1.2.1 5.3.6 5.4.2.1.3.3.1.5l.1.3c1.1-.2 2 0 2.2.7.1.7.2.7.6.2.4-.7 1.6-.4 1.6.4 0 .6-2.1 1.1-3.1.8-.4-.2-.8-.2-.8 0 0 1 3.2 1.8 5.5 1.4l4-1.6zm-20.8-9.1-.5-.8c-.2.2.5 1.7.8 1.7 0 0 0-.4-.3-1zm6.7-1.7c.4-2.2.4-2.2-.4-3-2-1.8-2.5-.4-1.2 3.3.4 1.3.8 2.2 1 2l.6-2.3zm-11.6 1.3c-.2-.5-.5-.8-.5-.7-.2.1.5 1.6.8 1.6 0 0 0-.4-.3-.9zm-6-5c-.5-.7-.6-.8-.6-.3 0 .8.7 2.3 1 1.7l-.5-1.4zm8.5-3.6c-.1-.6-.2-1 0-1 .1-.1 0-.3-.4-.5-.3-.2-.6-.5-.6-.7 0-.2-.4-.7-1-1.2-.9-.9-1.8-.8-1.8.2 0 .7 1.6 4.2 2.4 5 .5.7.6.7 1.1 0 .5-.6.6-1 .3-1.8zm-7.3 1c-.1-.9 0-1 .3-.9.3.2.3.1 0-.4-.6-.9-.7-.9-1.4-.5-.4.3-.3.6.3 1.6 1 1.6 1.1 1.6.8.2zm28.5-4.2c0-.1-.3-.4-.6-.5-.5-.2-.5-.1-.1.3.5.6.7.7.7.2zm.7-1.8c0-.4-1.4-1.1-1.7-.9-.3.3 1 1.7 1.4 1.4.2 0 .3-.3.3-.5zm1-1.9c0-.2-.3-.5-.7-.7-1-.2-1.2 0-.9.7.3.7 1.7.7 1.7 0zm1.3-1.2c0-.2-.2-.5-.7-.7-1-.4-1.2-.1-.5.6.5.5 1 .5 1.2.1zm13.2-6.7h-.6c-.4.2-.8 0-.8-.1 0-.2 0-.3-.2-.2-.1.1-.1.5 0 .8.2.6.5.5 1.6-.5zm-13.5-12c.1-.3.5-.4 1-.3.3.1 1 0 1.6-.5.9-.6 1.2-.7 2.4-.4 1.6.4 2.5.1 1.7-.6-.6-.5-4.7-1.1-6.5-1-1.1.1-1.3.2-1.4 1.1-.2 1.7.5 2.7 1.2 1.6zm13.7-.8c.1-.2-.4-.3-1.2-.3-1.4 0-2 .5-1 .8.6.2 2-.1 2.2-.5zm-21.9-4c.4 0 .9-.4 1-.8.3-.5.7-.8 1.4-.8.5 0 1-.1 1.1-.3.3-.4-.8-.7-3.8-1-2.1-.2-2.5-.1-2.9.4-.6 1-.6 3 0 2.8.3 0 .6 0 .8.2.1.3.4.3 1 0a4 4 0 0 1 1.4-.5zm9.7-1.1H89l.6.1c.7 0 1 0 .7-.1zm-10.4-3c.2-.2 0-.2-.3 0-.6.1-.7.4-.2.4.2 0 .4-.2.5-.4zM73.4 217c-1-.6-5.2-3.3-9-6a97.2 97.2 0 0 0-9.7-5.9c-2.1-1.2-2.4-1.3-1.5-.2l.6.8-.9-.7c-1.3-1.1-1.7-1.7-1.7-2.7 0-1 1.8-4.6 2.7-5.5.5-.6 1.2-.3 1 .3 0 .7.7.8 1 0 1.2-2.1 5-7.3 6.6-9 1.8-1.9 2-2 3.5-2 .9 0 2.1.3 2.8.7l1.2.6-2-.2-2-.1-2.3 2.2a32.9 32.9 0 0 0-6.4 10.1c-.9 2.7-.3 3.7 4 6.7l7 4.8c1.9 1.3 4 2.5 4.6 2.6 1 .2 3.3-.5 3.3-1l.6-.9c.5-.6.5-.6.2.3-.3.8-.3 1 .2.8.5-.2.5-.2.2.2a1 1 0 0 0-.2 1c.1.3 0 .4-.2.3-.2-.2-.4 0-.4.2l-.7 2.1-.6 1.7zm-6-15.4c-1.3-1-1.4-1.2-1.4-2.5s0-1.4.4-.8c.1.5.4.8.4.8.1 0 1-.4 1.8-1 1-.7 1.5-1.3 1.4-1.6-.3-.8-1.9-.6-2.9.3-.5.4-.8.6-.6.3.1-.2 0-1.6-.5-3-.8-2.8-.7-3.5.2-3.2.3.1.5 0 .5-.5 0-.6 0-.6.6.1l1.5 2.6a8.5 8.5 0 0 0 2.5 3c1.4 1 1.5 1 6.2 1l4.7-.1v1.2c0 .7 0 1.3-.2 1.3a181.7 181.7 0 0 0-8.1 1c-.2 0-1 .5-1.7 1.1-1.7 1.4-2.9 1.4-4.7 0zm4.2-4.2c0-.2-.1-.4-.3-.4-.2 0-.3.2-.2.4.1.2.3.3.4.3l.1-.3zm10.2-3.4-1.7-1c0-.1.8.2 1.8.7l1.7 1c0 .3 0 .3-1.8-.7zm-5.3-2.8c-1.3-.7-1.2-1 0-.3.7.3 1.1.6 1.1.7 0 .2 0 .2-1.1-.4zm-5.8-3.2c-.6-.5-.6-.5.1-.2l.8.6c0 .3-.1.2-.9-.4z" style="fill:#b38936;stroke-width:.352778" transform="translate(-44.5 -173.2)"/>
  <path d="M77.2 239.4c-1-1-2.6-2.3-3.5-2.7-1.7-.9-4-3-5.8-5.4a8.9 8.9 0 0 0-2.8-2c-2.2-1-4.2-2.8-3.8-3.4.1-.2 0-.3-.2-.2-.5.4-4.9-4-5.5-5.5a40.1 40.1 0 0 1-.7-11.8c0-.1.2.5.2 1.4 0 2 .6 2.2 2 1 1-.8.8-1.8-.5-2.8-.7-.6-1-.7-1.2-.3-.2.3-.3.2-.3-.4 0-.4 0-.7.2-.7L59 209a5207 5207 0 0 0 17 12.3l.3-1.3c.2-.7 1-2.8 2-4.5a144.8 144.8 0 0 1 14.2-21c-.7-.2-.4-.6 1.3-1.8l1.6-1h-1.8c-1 0-2.6 0-3.6.3-1.8.3-2 .3-4.7-1.2l-2.9-1.5 1.2-.1c1.2-.2 1.3-.3 1.3-1.6v-1.4h-3.5c-2 .1-3.7.3-4 .5a96.8 96.8 0 0 1-11.6-5c-.5-.4 1.2.2 3 1.1 1.3.7 1.7.7 2.3.4.6-.4.7-.4.3 0-.4.5-.3.7.7 1a4 4 0 0 0 1.4.5c.1 0 .3 0 .3.2 0 .7 1 0 1.6-1 .7-1.6.6-2.1-.5-2.2-.8 0-.6-.1.6-.4l2.8-1.1c1.2-.6 2.9-.5 2.9.1 0 .2.5.4 1.2.3.7 0 1.3 0 1.5.2l.8-.1c.4-.2.7-.2.9 0 .1.2.6.4 1 .4.5 0 1 .2 1.1.5.1.2 1 .6 2 .9 1 .2 2 .6 2.2.8 1.2 1 6 3 7.4 3 .8 0 3.4 1.3 6 2.9a13 13 0 0 0 2.8 1.3c1.3.4 2.6 2 2.9 4a18.5 18.5 0 0 1 .4 9.7l-.7 3.2a58.5 58.5 0 0 1-19 29.3c-3.9 3-5.6 3.7-10.8 4.2-1.8.2-1.9.2-3.7-1.6zm12.2-4.2c1-.5 2.3-1.5 3-2.1l1.3-1.2-1.4 1a47 47 0 0 1-3.9 2.3c-1.4.8-2 1.3-1.6 1.1.5 0 1.7-.6 2.6-1.1zm-1.3-1c3.6-1.7 8.5-6.5 11.8-11.3 3-4.4 3.7-6 5.2-10 1.9-5.2 2.3-7 1.8-7.8-.3-.6-.3-.7 0-.5.3.2.4.1.3-.2-.2-.6-1.2-.6-1 0 0 .2-.3.5-.7.6-.5.2-.7.5-.7 1.2 0 .5-.2 1.1-.4 1.4-.2.4-.3.4-.3-.3 0-.4-.2-.7-.4-.7-.4 0-.4-1 0-1.2.5-.1 0-1.7-.4-1.7-.2 0-.2.2 0 .4.1.3 0 .3-.2.2a1 1 0 0 1-.4-.8c0-.2-.3-.5-.6-.5-.8 0-2.2-1-2.2-1.7 0-.5-.1-.5-.4 0-.2.4-.3.8-.2 1 .1.2 0 .4-.3.5-.7.3-1.7-.7-1.4-1.2.2-.3.1-.4-.2-.2-.2.2-.4 0-.4-.5 0-.4-.1-.7-.4-.7-.2 0-.1-.3.2-.9.5-.6.5-.9.2-.9-.5 0-1.5-1.7-1.2-2 0-.2-.4-.3-1.1-.3-.8-.1-1.2 0-1 .3.2.2 0 .3-.4.1-.6-.1-1 .3-2.2 2l-1.5 2.6c0 .2-.3.6-.7.8-.6.4-.7.7-.6 1.5.1.7 0 1-.3 1s-.4.2-.2.5c.5.8.5 2-.1 2-.3 0-.5.2-.5.5s-.3.6-.6.6-.6.4-.7 1c-.1.6-.4 1-.5.9-.5-.3-.4.8 0 1.6.3.5.3.7 0 .7s-.2.3.2 1c.3.4.4.7.2.6-.5-.3-2.7.3-3.3 1a28.8 28.8 0 0 0-4.2 7c0 .5 1.1 1.3 1.8 1.3.3 0 1-.5 1.7-1.1.8-.7 1-.9.9-.5-.8 1.4-2 2.3-3 2.3-1.1 0-1.7.7-1 1.1.4.3.3.3-.3.3-.5 0-.8.3-1 .9-.3 1.2.1 5.3.6 5.4.2.1.3.3.1.5l.1.3c1.1-.2 2 0 2.2.7.1.7.2.7.6.2.4-.7 1.6-.4 1.6.4 0 .6-2.1 1.1-3.1.8-.4-.2-.8-.2-.8 0 0 1 3.2 1.8 5.5 1.4l4-1.6zm-20.8-9.1-.5-.8c-.2.2.5 1.7.8 1.7 0 0 0-.4-.3-1zm6.7-1.7c.4-2.2.4-2.2-.4-3-2-1.8-2.5-.4-1.2 3.3.4 1.3.8 2.2 1 2l.6-2.3zm-11.6 1.3c-.2-.5-.5-.8-.5-.7-.2.1.5 1.6.8 1.6 0 0 0-.4-.3-.9zm-6-5c-.5-.7-.6-.8-.6-.3 0 .8.7 2.3 1 1.7l-.5-1.4zm8.5-3.6c-.1-.6-.2-1 0-1 .1-.1 0-.3-.4-.5-.3-.2-.6-.5-.6-.7 0-.2-.4-.7-1-1.2-.9-.9-1.8-.8-1.8.2 0 .7 1.6 4.2 2.4 5 .5.7.6.7 1.1 0 .5-.6.6-1 .3-1.8zm-7.3 1c-.1-.9 0-1 .3-.9.3.2.3.1 0-.4-.6-.9-.7-.9-1.4-.5-.4.3-.3.6.3 1.6 1 1.6 1.1 1.6.8.2zm44.7-15.8h-.6c-.4.2-.8 0-.8-.1 0-.2 0-.3-.2-.2-.1.1-.1.5 0 .8.2.6.5.5 1.6-.5zm-13.5-12c.1-.3.5-.4 1-.3.3.1 1 0 1.6-.5.9-.6 1.2-.7 2.4-.4 1.6.4 2.5.1 1.7-.6-.6-.5-4.7-1.1-6.5-1-1.1.1-1.3.2-1.4 1.1-.2 1.7.5 2.7 1.2 1.6zm13.7-.8c.1-.2-.4-.3-1.2-.3-1.4 0-2 .5-1 .8.6.2 2-.1 2.2-.5zm-21.9-4c.4 0 .9-.4 1-.8.3-.5.7-.8 1.4-.8.5 0 1-.1 1.1-.3.3-.4-.8-.7-3.8-1-2.1-.2-2.5-.1-2.9.4-.6 1-.6 3 0 2.8.3 0 .6 0 .8.2.1.3.4.3 1 0a4 4 0 0 1 1.4-.5zm9.7-1.1H89l.6.1c.7 0 1 0 .7-.1zm-10.4-3c.2-.2 0-.2-.3 0-.6.1-.7.4-.2.4.2 0 .4-.2.5-.4zM73.4 217c-1-.6-5.2-3.3-9-6a97.2 97.2 0 0 0-9.7-5.9c-2.1-1.2-2.4-1.3-1.5-.2l.6.8-.9-.7c-1.3-1.1-1.7-1.7-1.7-2.7 0-1 1.8-4.6 2.7-5.5.5-.6 1.2-.3 1 .3 0 .7.7.8 1 0 1.2-2.1 5-7.3 6.6-9 1.8-1.9 2-2 3.5-2 .9 0 2.1.3 2.8.7l1.2.6-2-.2-2-.1-2.3 2.2a32.9 32.9 0 0 0-6.4 10.1c-.9 2.7-.3 3.7 4 6.7l7 4.8c1.9 1.3 4 2.5 4.6 2.6 1 .2 3.3-.5 3.3-1l.6-.9c.5-.6.5-.6.2.3-.3.8-.3 1 .2.8.5-.2.5-.2.2.2a1 1 0 0 0-.2 1c.1.3 0 .4-.2.3-.2-.2-.4 0-.4.2l-.7 2.1-.6 1.7zm-6-15.4c-1.3-1-1.4-1.2-1.4-2.5s0-1.4.4-.8c.1.5.4.8.4.8.1 0 1-.4 1.8-1 1-.7 1.5-1.3 1.4-1.6-.3-.8-1.9-.6-2.9.3-.5.4-.8.6-.6.3.1-.2 0-1.6-.5-3-.8-2.8-.7-3.5.2-3.2.3.1.5 0 .5-.5 0-.6 0-.6.6.1l1.5 2.6a8.5 8.5 0 0 0 2.5 3c1.4 1 1.5 1 6.2 1l4.7-.1v1.2c0 .7 0 1.3-.2 1.3a181.7 181.7 0 0 0-8.1 1c-.2 0-1 .5-1.7 1.1-1.7 1.4-2.9 1.4-4.7 0zm4.2-4.2c0-.2-.1-.4-.3-.4-.2 0-.3.2-.2.4.1.2.3.3.4.3l.1-.3zm10.2-3.4-1.7-1c0-.1.8.2 1.8.7l1.7 1c0 .3 0 .3-1.8-.7zm-5.3-2.8c-1.3-.7-1.2-1 0-.3.7.3 1.1.6 1.1.7 0 .2 0 .2-1.1-.4zm-5.8-3.2c-.6-.5-.6-.5.1-.2l.8.6c0 .3-.1.2-.9-.4z" style="fill:#a7784e;stroke-width:.352778" transform="translate(-44.5 -173.2)"/>
  <path d="M77.2 239.4a19 19 0 0 0-3.4-2.7 24 24 0 0 1-4.5-3.8 24 24 0 0 0-4.4-3.8c-1.8-.9-3.5-2.4-3.5-3 0-.3-.3-.5-.7-.5-.4 0-1-.4-1.3-1-.3-.6-1-1.3-1.6-1.6l-1.4-1.3c-.2-.6-.2-.7 0-.5.6.3.5-.5-.1-1.6-.5-.8-.5-.8-.5-.2 0 .6-.1.6-.4.2l-.4-5.8V210c.1 1.7.7 2 2.1.8 1-.8.8-1.6-.5-2.9-.7-.7-1-.7-1.2-.3-.3.4-.3.4-.3-.3 0-.4 0-.7.2-.7L59 209a5207 5207 0 0 0 17 12.3l.3-1.3c.2-.7 1-2.8 2-4.5a144.8 144.8 0 0 1 14.2-21c-.7-.2-.4-.6 1.3-1.8l1.6-1h-1.8c-1 0-2.6 0-3.6.3-1.8.3-2 .3-4.7-1.2l-2.9-1.5 1.2-.1c1.2-.2 1.3-.3 1.3-1.6v-1.4h-3.5c-2 .1-3.7.3-4 .5a96.8 96.8 0 0 1-11.6-5c-.5-.4 1.2.2 3 1.1 1.3.7 1.7.7 2.3.4.6-.4.7-.4.3 0-.4.5-.3.7.7 1a4 4 0 0 0 1.4.5c.1 0 .3 0 .3.2 0 .7 1 0 1.6-1 .7-1.6.6-2.1-.5-2.2-.8 0-.6-.1.6-.4l2.8-1.1c1.2-.6 2.9-.5 2.9.1 0 .2.6.4 1.3.4h2c1.2 0 3.4.7 3.4 1 0 .2.8.5 1.7.8 1 .2 2 .6 2.3.8.8.9 5 2.6 7 3 2 .4 3.2.9 6.3 2.9 1 .5 2.2 1.1 2.9 1.3 1.3.4 2.6 2 2.9 4a18.5 18.5 0 0 1 .4 9.7l-.7 3.2a57 57 0 0 1-17.9 28.3c-5 4-6.3 4.6-11.9 5.2l-1.8.2zm12.2-4.2c1-.5 2.3-1.5 3-2.1l1.3-1.2-1.4 1a47 47 0 0 1-3.9 2.3c-1.4.8-2 1.3-1.6 1.1.5 0 1.7-.6 2.6-1.1zm-1.7-.6a37 37 0 0 0 12.7-12.3 49 49 0 0 0 6.3-14c.7-2.3 1-6.7.5-6.7-.1 0-.2.2-.2.5 0 .2-.2.4-.7.4-.4 0-.8 0-.8.2s.2.3.4.3.3.2.3.4-.2.3-.5.3-.5.2-.6.4c-.1.3-.4.2-.8-.2-.6-.6-.8-1.4-.2-1 .2 0 .3 0 .3-.2s-.2-.4-.5-.5a.8.8 0 0 1-.5-.7c0-.2 0-.7-.2-1.1-.2-.4-.1-.7 0-.8.6-.2-1.5-2.2-2.1-2.2-.4 0-.5-.2-.3-.5 0-.2 0 0-.4.3-.7.8-.7 1.1 0 1.4.3 0 .5 0 .5-.2s.2-.2.4-.1c.3.2.2.3-.2.6-.7.4-1.7-.3-1.4-1 0-.3 0-.5-.2-.4-.6.5-1.4-.2-1.4-1.2 0-1.2-.8-1.4-1.9-.5-.4.3-1 .4-1.7.3-.8-.2-1-.1-.8.2.2.3 0 .4-.4.2-.6-.1-1 .3-2.2 2l-1.5 2.6c0 .2-.3.6-.7.8-.6.4-.7.7-.6 1.5.1.7 0 1-.3 1s-.4.2-.2.5c.5.8.5 2-.1 2-.3 0-.5.2-.5.5s-.4.6-.7.7c-.5 0-.7.4-.7 1s-.2 1-.4.8c-.6-.3-.6.7 0 1.6.5.8.5.8 0 .6-1-.3-.9 0 0 1.1.5.5.7.8.4.6-.5-.3-2.7.3-3.3 1a28.8 28.8 0 0 0-4.2 7c0 .5 1.1 1.3 1.8 1.3.3 0 1-.5 1.7-1.1.8-.7 1-1 .9-.5-.8 1.6-2.1 2.4-3.5 2.3-1.3-.1-1.4-.1-1.6 1.3a18 18 0 0 0 .1 6.8c.4 1 .7 1.3 1.6 1.5.6.2 1.2.5 1.2.7 0 .2-.3.3-.6.2l-1-.4c-.7-.3-.7.2-.1 1 1.3 1.6 5.2 1.5 9-.3zm12.7-34.5c.2-.2 0-.3-.3-.1-.4.1-.5 0-.4-.2.1-.2.5-.2 1-.1.4.1.6 0 .4-.2-.1-.2 0-.4.3-.4.5 0 .5.2.1.7-.2.4-.6.8-.9.8-.2 0-.3-.2-.2-.5zm-2.8-.5c0-.2.3-.3.9-.4.6 0 1 .1.8.3-.2.4-1.4.5-1.7 0zm.9-1.2c-.5-.3-.5-.3 0-.3.4 0 .7.1.7.3 0 .5 0 .5-.7 0zm-2.3-1.4c0-.2.2-.3.3-.3.1 0 .2.1.2.3 0 .2-.2.4-.4.4s-.3-.2-.1-.4zm-28.9 28-.5-.7c-.2.2.5 1.7.8 1.7 0 0 0-.4-.3-1zm6.7-1.7.4-2.5c-2.3-1.5-2.8-1.6-2.8-.2 0 1 1.5 5.4 1.7 5.2l.7-2.5zm-11.6 1.4c-.2-.5-.5-.8-.5-.7-.2.1.5 1.6.8 1.6 0 0 0-.4-.3-.9zm2.5-8.6c-.1-.6-.2-1 0-1 .1-.1 0-.3-.4-.5-.3-.2-.6-.6-.6-1s-.2-.7-.3-.6c-.2.1-.6 0-.9-.5-.6-.7-1.6-.5-1.6.4 0 .7 1.6 4.2 2.4 5 .5.7.6.7 1.1 0 .5-.6.6-1 .3-1.8zm-7.3 1c-.1-.9 0-1 .3-.9.3.2.3.1 0-.4-.6-.9-.7-.9-1.4-.5-.4.3-.3.6.3 1.6 1 1.6 1.1 1.6.8.2zm31.2-27.9c.1-.2.5-.3 1-.2.3.1 1 0 1.6-.5.9-.6 1.2-.7 2.4-.4 1.6.4 2.5.1 1.7-.6-.6-.5-4.7-1.1-6.5-1-1.1.1-1.3.2-1.4 1.1-.2 1.7.5 2.7 1.2 1.6zm13.7-.7c.1-.2-.4-.3-1.2-.3-1.4 0-2 .5-1 .8.6.2 2-.1 2.2-.5zm-21.9-4c.4 0 .9-.4 1-.8.3-.5.7-.8 1.4-.8.5 0 1-.1 1.1-.3.3-.4-.8-.7-3.8-1-2.1-.2-2.5-.1-2.9.4-.6 1-.6 3 0 2.8.3 0 .6 0 .8.2.1.3.4.3 1 0a4 4 0 0 1 1.4-.5zm9.7-1.1H89l.6.1c.7 0 1 0 .7-.1zm-10.4-3c.2-.2 0-.2-.3 0-.6.1-.7.4-.2.4.2 0 .4-.2.5-.4zM73.4 217c-1-.6-5.2-3.3-9-6a97.2 97.2 0 0 0-9.7-5.9c-2.1-1.2-2.4-1.3-1.5-.2l.6.8-.9-.7c-1.3-1.1-1.7-1.7-1.7-2.7 0-1 1.8-4.6 2.7-5.5.5-.6 1.2-.3 1 .3 0 .7.7.8 1 0 1.2-2.1 5-7.3 6.6-9 1.8-1.9 2-2 3.5-2 .9 0 2.1.3 2.8.7l1.2.6-2-.2-2-.1-2.3 2.2a32.9 32.9 0 0 0-6.4 10.1c-.9 2.7-.3 3.7 4 6.7l7 4.8c1.9 1.3 4 2.5 4.6 2.6 1 .2 3.3-.5 3.3-1l.6-.9c.5-.6.5-.6.2.3-.3.8-.3 1 .2.8.5-.2.5-.2.2.2a1 1 0 0 0-.2 1c.1.3 0 .4-.2.3-.2-.2-.4 0-.4.2l-.7 2.1-.6 1.7zm-6-15.4c-1.3-1-1.4-1.2-1.4-2.5s0-1.4.4-.8c.1.5.4.8.4.8.1 0 1-.4 1.8-1 1-.7 1.5-1.3 1.4-1.6-.3-.8-1.9-.6-2.9.3-.5.4-.8.6-.6.3.1-.2 0-1.6-.5-3-.8-2.8-.7-3.5.2-3.2.3.1.5 0 .5-.5 0-.6 0-.6.6.1l1.5 2.6a8.5 8.5 0 0 0 2.5 3c1.4 1 1.5 1 6.2 1l4.7-.1v1.2c0 .7 0 1.3-.2 1.3a181.7 181.7 0 0 0-8.1 1c-.2 0-1 .5-1.7 1.1-1.7 1.4-2.9 1.4-4.7 0zm4.2-4.2c0-.2-.1-.4-.3-.4-.2 0-.3.2-.2.4.1.2.3.3.4.3l.1-.3zm10.2-3.4-1.7-1c0-.1.8.2 1.8.7l1.7 1c0 .3 0 .3-1.8-.7zm-5.3-2.8c-1.3-.7-1.2-1 0-.3.7.3 1.1.6 1.1.7 0 .2 0 .2-1.1-.4zm-5.8-3.2c-.6-.5-.6-.5.1-.2l.8.6c0 .3-.1.2-.9-.4z" style="fill:#987149;stroke-width:.352778" transform="translate(-44.5 -173.2)"/>
  <path d="M77.2 239.4a19 19 0 0 0-3.4-2.7c-1-.5-2.9-2-4.5-3.8a21.8 21.8 0 0 0-4.4-3.8c-1.7-.8-3.5-2.4-3.5-3 0-.2-.4-.5-.9-.6-.5-.2-1-.6-1.2-1a4 4 0 0 0-1.4-1.5c-.6-.3-1.2-1-1.5-1.3-.2-.6-.2-.7 0-.5.6.3.5-.5-.1-1.6-.5-.8-.5-.8-.5-.2 0 .6-.1.6-.4.2l-.4-5.8V210c.1 1.7.7 2 2.1.8 1-.9.8-2.2-.6-3.2-1-.7-1-.7-1.2 0-.1.4-.2.4-.2-.3 0-.4 0-.7.2-.7l3.2 2.2a183 183 0 0 0 6.4 4.7l-.4-.1c-.3-.2-.3-.1-.2 0 .2.2.6.4 1 .4.3 0 .5.2.4.5 0 .2 0 .3.2.2.4-.2 2.7 1.4 2.4 1.6a47.3 47.3 0 0 1 7 4.7c.7.8.8.7 1-.7.2-.7 1-2.8 2-4.5a144.8 144.8 0 0 1 14.2-21c-.7-.2-.4-.6 1.3-1.8l1.6-1h-1.8c-1 0-2.6 0-3.6.3-1.8.3-2 .3-4.7-1.2l-2.9-1.5 1.2-.1c1.2-.2 1.3-.3 1.3-1.6v-1.4h-3.5c-2 .1-3.8.3-4.2.5-.4.3-.6.3-.6 0 0-.2-.2-.3-.4-.2-.2.1-.3 0-.3-.2s-.2-.3-.4-.1c-.2.1-9.3-4.1-9.8-4.7a26 26 0 0 1 4.5 2c1.6.8 3 1.3 3.3 1.2.2-.1.3 0 0 .2-.1.4 0 .4.4.3l.8-.3c.2 0 1.2-2 1.2-2.6 0-.3-.4-.6-1-.6-.8 0-.6-.1.6-.4l2.8-1.1c1.2-.6 2.9-.5 2.9.1 0 .2.6.4 1.3.4h2c1.2 0 3.4.7 3.4 1 0 .2.8.5 1.7.8 1 .2 2 .6 2.3.8.8.9 5 2.6 7 3 2 .4 3.2.9 6.3 2.9 1 .5 2.2 1.1 2.9 1.3 1.3.4 2.6 2 2.9 4a18.5 18.5 0 0 1 .4 9.7l-.7 3.2A57 57 0 0 1 91.4 237c-3.7 3-5.2 3.5-10.5 4.1l-1.8.2zm12.2-4.2c1-.5 2.3-1.5 3-2.1l1.3-1.2-1.4 1a47 47 0 0 1-3.9 2.3c-1.4.8-2 1.3-1.6 1.1.5 0 1.7-.6 2.6-1.1zm-3.8.3c3-1 6.1-3.1 9.2-6.3a46.3 46.3 0 0 0 12.7-25c.2-3 0-4.9-.6-4.5-.1 0-.2-.3-.2-.7 0-.6-.1-1-.5-1.3-1-.5-1.1-.4-.7.4.3.5.3.7 0 .7s-.3.2 0 .6c.3.7.2 1.2-.4 1.2-.1 0-.2-.3 0-.6 0-.3 0-.5-.4-.5-.5 0-.6-.2-.5-.9.2-.6 0-.9-.6-1-.7-.3-.7-.3 0-.6.4-.1.5-.3.3-.3-.3 0-.6-.4-.7-.8-.1-.4-.4-.6-.7-.5-.5.2-1.2-.4-1.2-1 0-.1.2-.1.4 0 .2.2.3.1.1-.2-.2-.3-.5-.2-1.2.6l-1 1.2c0 .2 0 .3-.3.2-.4 0-.2-.7.2-1 .2 0 .2-.3 0-.5 0-.3-.8-.1-2.2.6-1.1.5-2 .8-2.2.7 0-.2-.5-.2-.9-.1-.4 0-.6.3-.5.5.2.2 0 .3-.4.1-.6-.1-1 .3-2.2 2l-1.5 2.6c0 .2-.3.6-.7.8-.6.4-.7.7-.6 1.5.1.7 0 1-.3 1s-.4.2-.2.5l.3 1.2c.1.6 0 .8-.5.7-.4 0-.6.1-.5.5 0 .5-.1.7-.6.7-.6 0-.7.2-.7 1s-.2 1-.6.9c-.7-.3-.7.3 0 1.4.6.8.6.8-.2.6l-.8-.2.8 1c.5.6.7 1 .5.8-.2-.1-.5-.1-.6.1-.1.2-.5.4-.9.4-1 0-2.8 2-4.9 5.9-1 1.7-1 2.1-.1 2.7 1 .8 1.5.6 2.8-.6.8-.8 1-1 .9-.5a3.6 3.6 0 0 1-3.4 2.2c-1.4 0-1.5 0-1.7 1.4-.5 2.6-.3 5.6.5 8 .7 2 1 2.2 2 2.6 1.8.6 3.3.6 5.5-.2zm-18.3-10.4-.5-.8c-.2.2.5 1.7.8 1.7 0 0 0-.4-.3-1zm6.7-1.7.5-2.4a5 5 0 0 0-1.3-1.2c-.7-.6-1.2-.8-1-.6 0 .2 0 .4-.2.4s-.4.4-.4 1c0 1 1.5 5.4 1.7 5.2l.7-2.4zm-11.6 1.3c-.2-.5-.5-.8-.5-.7-.2.1.5 1.6.8 1.6 0 0 0-.4-.3-.9zm2.5-8.6c-.1-.6-.2-1 0-1 .1-.1 0-.3-.4-.5-.3-.2-.6-.6-.6-1s-.5-1-1-1.3c-.8-.6-1-.6-1.4-.3-.2.3-.4.7-.4 1 0 .6 1.7 4.2 2.4 5 .5.6.6.6 1.1-.1.5-.6.6-1 .3-1.8zm-7.3 1c-.1-.9 0-1 .3-.9.3.2.3.1 0-.4-.6-.9-.7-.9-1.4-.5-.4.3-.3.6.3 1.6 1 1.6 1.1 1.6.8.2zm31.2-27.9c.1-.2.5-.3 1-.2.3.1 1 0 1.6-.5.9-.6 1.2-.7 2.4-.4 1.6.4 2.5.1 1.7-.6-.6-.5-4.7-1.1-6.5-1-1.1.1-1.3.2-1.4 1.1-.2 1.7.5 2.7 1.2 1.6zm13.7-.7c.1-.2-.4-.3-1.2-.3-1.4 0-2 .5-1 .8.6.2 2-.1 2.2-.5zm-21.9-4c.4 0 .9-.4 1-.8.3-.5.7-.8 1.4-.8.5 0 1-.1 1.1-.3.3-.4-.8-.7-3.8-1-2.1-.2-2.5-.1-2.9.4-.6 1-.6 3 0 2.8.3 0 .6 0 .8.2.1.3.4.3 1 0a4 4 0 0 1 1.4-.5zm9.7-1.1H89l.6.1c.7 0 1 0 .7-.1zm-10.4-3c.2-.2 0-.2-.3 0-.6.1-.7.4-.2.4.2 0 .4-.2.5-.4zM73.4 217c-1-.6-5.2-3.3-9-6a97.2 97.2 0 0 0-9.7-5.9c-2.1-1.2-2.4-1.3-1.5-.2l.6.8-.9-.7c-1.3-1.1-1.7-1.7-1.7-2.7 0-1 1.8-4.6 2.7-5.5.5-.6 1.2-.3 1 .3 0 .7.7.8 1 0 1.2-2.1 5-7.3 6.6-9 1.8-1.9 2-2 3.5-2 .9 0 2.1.3 2.8.7l1.2.6-2-.2-2-.1-2.3 2.2a32.9 32.9 0 0 0-6.4 10.1c-.9 2.7-.3 3.7 4 6.7l7 4.8c1.9 1.3 4 2.5 4.6 2.6 1 .2 3.3-.5 3.3-1l.6-.9c.5-.6.5-.6.2.3-.3.8-.3 1 .2.8.5-.2.5-.2.2.2a1 1 0 0 0-.2 1c.1.3 0 .4-.2.3-.2-.2-.4 0-.4.2l-.7 2.1-.6 1.7zm-6-15.4c-1.3-1-1.4-1.2-1.4-2.5s0-1.4.4-.8c.1.5.4.8.4.8.1 0 1-.4 1.8-1 1-.7 1.5-1.3 1.4-1.6-.3-.8-1.9-.6-2.9.3-.5.4-.8.6-.6.3.1-.2 0-1.6-.5-3-.8-2.8-.7-3.5.2-3.2.3.1.5 0 .5-.5 0-.6 0-.6.6.1l1.5 2.6a8.5 8.5 0 0 0 2.5 3c1.4 1 1.5 1 6.2 1l4.7-.1v1.2c0 .7 0 1.3-.2 1.3a181.7 181.7 0 0 0-8.1 1c-.2 0-1 .5-1.7 1.1-1.7 1.4-2.9 1.4-4.7 0zm4.2-4.2c0-.2-.1-.4-.3-.4-.2 0-.3.2-.2.4.1.2.3.3.4.3l.1-.3zm10.2-3.4-1.7-1c0-.1.8.2 1.8.7l1.7 1c0 .3 0 .3-1.8-.7zm-5.3-2.8c-1.3-.7-1.2-1 0-.3.7.3 1.1.6 1.1.7 0 .2 0 .2-1.1-.4zm-5.8-3.2c-.6-.5-.6-.5.1-.2l.8.6c0 .3-.1.2-.9-.4z" style="fill:#ce542d;stroke-width:.352778" transform="translate(-44.5 -173.2)"/>
  <path d="M77.2 239.4a19 19 0 0 0-3.4-2.7c-1-.5-2.9-2-4.5-3.8a21.8 21.8 0 0 0-4.4-3.8c-1.7-.8-3.5-2.4-3.5-3 0-.2-.4-.5-.9-.6-.5-.2-1-.6-1.2-1a4 4 0 0 0-1.4-1.5c-.6-.3-1.2-1-1.5-1.3-.2-.6-.2-.7 0-.5.5.3.5-.2 0-1.5-.3-.9-.4-1-.6-.3-.3.7-.3.7-.5-.1a47 47 0 0 1-.4-7.6c.2.5 3-.3 3.3-.9.4-1.2-2.4-4.6-2.9-3.5-.1.3-.2.2-.2-.1 0-.4 0-.6.2-.6a156.7 156.7 0 0 1 13.3 9.7c.4 0 5.3 3.4 6.6 4.6.8.7 1 .6 1.1-.8.2-.7 1-2.8 2-4.5a142 142 0 0 1 14.1-20.3c.5-.3.5-.4 0-.7-.4-.3-.4-.4.2-1l2.1-1.2c1.1-.6 1.3-.8.8-1-.4 0-.5-.3-.4-.6 0-.2 0-.6-.2-.7-.2-.1 0-.4.5-.8.7-.4.8-.7.6-1.3-.3-.6-.8-.8-2.5-1.1-4.3-.8-5.3-.8-6-.4-.7.3-1 .3-1.7-.7-.5-.6-1-1.5-1-2-.1-1.5-.7-1.8-4.4-2.3-2.4-.3-3.3-.3-3.6 0-.3.2-.7.3-1 .2-.2-.2 0-.5.8-.7a5253.3 5253.3 0 0 0 2.1-.6c-.3.2 0 .4 1.6.6 1.2 0 2.5.2 3 .3.6.1 1.1 0 1.2-.2.3-.4 2.4 0 2.8.6.2.2 1.2.6 2.2.8 2.6.6 2.6 1 .1.8-1.3 0-2 0-2 .3 0 .4 1.3.6 2.4.4 1.4-.2 2.8 0 4.7 1 1.2.6 3 1.2 4.2 1.4a11 11 0 0 1 4.8 2c.3.2 1.4.9 2.5 1.4 1 .6 1.7 1 1.5 1.2-.3 0-.7 0-1-.3-.4-.4-.6-.3-1 .2-.7.6-.7.6 0 .4 1.1-.3 1.5.3.6 1-.5.5-.6.5 0 .4.8-.3 1.7 0 1.5.5-.1.2-.4.2-.6 0-.3 0 0 .2.4.8.5.5 1 .8 1.2.7.2-.2.2 0 .1.1a6 6 0 0 0 .5 2.4c1 2.7 1 6.6 0 11-.5 2-.8 3.9-.8 4.4a47 47 0 0 1-7.9 14.9 40.6 40.6 0 0 1-9.3 9.4c-3.7 3-5.2 3.5-10.5 4.1l-1.8.2zm11-3.6c2.4-1.1 5.3-3.1 5.3-3.6 0-.2-.5 0-1.1.5a26.5 26.5 0 0 1-5.9 3.4c-1 .4-1.7.8-1.3.8.4 0 1.8-.5 3-1zm-2.6-.3c3-1 6.1-3.1 9.2-6.3a46.3 46.3 0 0 0 12.7-25c.2-3 0-4.9-.6-4.5-.1 0-.2-.3-.2-.7 0-.6-.1-1-.5-1.3-1-.5-1.1-.4-.7.4.3.5.3.7 0 .7s-.3.2 0 .6c.3.7.2 1.2-.4 1.2-.1 0-.2-.3 0-.6 0-.3 0-.5-.4-.5-.5 0-.6-.2-.5-.9.2-.6 0-.9-.6-1-.7-.3-.7-.3 0-.6.4-.1.5-.3.3-.3-.3 0-.6-.4-.7-.8-.1-.4-.4-.6-.7-.5-.5.2-1.2-.4-1.2-1 0-.1.2-.1.4 0 .2.2.3.1.1-.2-.2-.3-.5-.2-1.2.6l-1 1.2c0 .2 0 .3-.3.2-.4 0-.2-.7.2-1 .2 0 .2-.3 0-.5-.4-.6-1.8-.5-3.1.3s-1.4.8-2.4 1c-.3 0-.4.1-.3.4.2.2 0 .3-.4.1-.6-.1-1 .3-2.2 2l-1.5 2.6c0 .2-.3.6-.7.8-.6.4-.7.7-.6 1.5.1.7 0 1-.3 1s-.4.2-.2.5l.3 1.2c.1.6 0 .8-.5.7-.4 0-.6.1-.5.5 0 .5-.1.7-.6.7-.6 0-.7.2-.7 1s-.2 1-.6.9c-.7-.3-.7.3 0 1.4.6.8.6.8-.2.6l-.8-.2.8 1c.5.6.7 1 .5.8-.2-.1-.5-.1-.6.1-.1.2-.5.4-.9.4-1 0-2.8 2-4.9 5.9-1 1.7-1 2.1-.1 2.7 1 .8 1.5.6 2.8-.6.9-.9 1.1-1 .8-.4-.2.4-.8 1.1-1.3 1.5-.8.6-1.3.7-2.5.5l-1.5-.2-.2 1.7c-.4 2.2 0 4.8 1 7.7.7 2.3.9 2.5 2 3 1.8.5 3.3.5 5.5-.3zm12-40.6c.3-.3.6-.4.7-.3 0 .1-.1.3-.4.5-.6.2-.6.1-.2-.2zm-24.9 38.8c-.2-.4-.5-.7-.6-.7l.2.7.6.7-.2-.7zm-4.8-7.9c0-.5 0-.8-.2-.7-.2.1-.2-.2-.1-.7.1-.5 0-1-.2-1-.5-.4-.4-1 .1-1 .6 0 1-1 1-2.4 0-.7-.1-.8-.3-.3-.2.3-.8 1-1.4 1.3-1.5.9-1.5 1.8 0 4l1 1.7.1-.9zm6-2.2c.7-2.8.7-2.7-.6-3.8-1.1-.8-1.3-.8-1.8-.4-.5.5-.5.8 0 2 .6 2.3 1.6 4.6 1.8 4.4 0 0 .4-1 .6-2.2zm-10.7 1.7c0-.2-.3-.6-.7-1-.8-.6-1-.4-.4.6.4.7 1 1 1 .4zm3.5-6.4.7-.1c.6 0 .5-1.2-.2-2l-.5-1c0-.2-.2-.4-.5-.6-.4 0-.5-.4-.3-.6.1-.2 0-.3-.2-.2-.2.2-.6 0-.8-.5-.2-.4-.4-.6-.5-.5-.1 0-.7-.3-1.2-.9-2.2-2-3-.6-1.7 2.6 1.3 2.9 2.5 4 3.9 4a9 9 0 0 0 1.3-.2zm-7.8-.9c0-.2.3-.6.5-.8.3-.3.5-.7.4-1 0-.4 0-1 .2-1.2.2-.4.1-.9-.3-1.4-.6-.7-.6-.7-1.8 0-1.8 1-2 1.5-1.2 3 .3.8.9 1.6 1.1 1.8.5.6 1.1.4 1.1-.4zm43.8-29.4c.4-.3 0-.4-1.3-.4a6 6 0 0 0-1.9.2l-.2.6c-.2.5 0 .5 1.3.2l2-.6zM73.4 217c-1-.6-5.2-3.3-9-6a97.2 97.2 0 0 0-9.7-5.9c-2.1-1.2-2.4-1.3-1.5-.2l.6.8-.9-.7c-1.3-1.1-1.7-1.7-1.7-2.7 0-1 1.8-4.6 2.7-5.5.5-.6 1.2-.3 1 .3 0 .7.7.8 1 0 1.2-2.1 5-7.3 6.6-9 1.8-1.9 2-2 3.5-2 .9 0 2.1.3 2.8.7l1.2.6-2-.2-2-.1-2.3 2.2a32.9 32.9 0 0 0-6.4 10.1c-.9 2.7-.3 3.7 4 6.7l7 4.8c1.9 1.3 4 2.5 4.6 2.6 1 .2 3.3-.5 3.3-1l.6-.9c.5-.6.5-.6.2.3-.3.8-.3 1 .2.8.5-.2.5-.2.2.2a1 1 0 0 0-.2 1c.1.3 0 .4-.2.3-.2-.2-.4 0-.4.2l-.7 2.1-.6 1.7zm-6-15.4c-1.3-1-1.4-1.2-1.4-2.5s0-1.4.4-.8c.1.5.4.8.4.8.1 0 1-.4 1.8-1 1-.7 1.5-1.3 1.4-1.6-.3-.8-1.9-.6-2.9.3-.5.4-.8.6-.6.3.1-.2 0-1.6-.5-3-.8-2.8-.7-3.5.2-3.2.3.1.5 0 .5-.5 0-.6 0-.6.6.1l1.5 2.6a8.5 8.5 0 0 0 2.5 3c1.4 1 1.5 1 6.2 1l4.7-.1v1.2c0 .7 0 1.3-.2 1.3a181.7 181.7 0 0 0-8.1 1c-.2 0-1 .5-1.7 1.1-1.7 1.4-2.9 1.4-4.7 0zm4.2-4.2c0-.2-.1-.4-.3-.4-.2 0-.3.2-.2.4.1.2.3.3.4.3l.1-.3zm10.2-3.4-1.7-1c0-.1.8.2 1.8.7l1.7 1c0 .3 0 .3-1.8-.7zm26.7-1.6c.1-.2.3-.3.4-.3l.1.3c0 .2-.1.4-.3.4-.2 0-.3-.2-.2-.4zm-20.9-.2c-.2-.1-.4-.3-.4-.5 0-.4 1-.7 1.2-.4.2.4-.3 1-.8.9zm-11.1-1c-1.3-.7-1.2-1 0-.3.7.3 1.1.6 1.1.7 0 .2 0 .2-1.1-.4zm9.7.3c-.5-.2-.6-.8-.1-.8.1 0 .4.2.5.5l.1.5-.5-.2zM70.7 188c-.6-.5-.6-.5.1-.2l.8.6c0 .3-.1.2-.9-.4zm-.3-3.9a94.4 94.4 0 0 1-4.7-2.5c-.4-.3 1.7.6 5.1 2.3 2 1 3.7 1.7 3.8 1.6.1-.1.2 0 .2.2s.2.3.4.2c.2-.1.3 0 .3.2 0 .5-.2.5-5-2z" style="fill:#6c706f;stroke-width:.352778" transform="translate(-44.5 -173.2)"/>
  <path d="M77.2 239.4a19 19 0 0 0-3.4-2.7c-1-.5-2.9-2-4.5-3.8a21.8 21.8 0 0 0-4.4-3.8c-1.7-.8-3.5-2.4-3.5-3 0-.2-.4-.5-.9-.6-.5-.2-1-.6-1.2-1a4 4 0 0 0-1.4-1.5c-.6-.3-1.2-1-1.5-1.3-.2-.6-.2-.7 0-.5.5.3.5-.2 0-1.5-.3-.9-.4-1-.6-.3-.3.7-.3.7-.5-.1a47 47 0 0 1-.4-7.6c.3.6 3.1-.3 3.3-1 0-.3-.1-1-.3-1.4l-.4-.7 1.4.8c1.6.9 3.4 2.6 2.5 2.4-1.4-.3 0 4 1.9 6.3.7.8 1.2 1 2 1a9 9 0 0 0 1.4-.2l.7-.1c.6 0 .5-1.2-.2-2l-.5-.9c0-.1-.4-.6-1-1.1-.5-.5.4 0 2 1.1 3.2 2.1 5.3 4 4.2 3.5-1-.4-1 1.2.4 4.4 1 2.5 1.1 2.4 1.8-.8l.6-2 1 .6c.8.5.8.5.6-.2-.3-1.4 3.2-7.9 8.8-16.3 3.3-4.8 4.6-6.5 4.3-5.4 0 .4-.6 1.2-1 1.7-.5.6-.9 1.2-.9 1.5l-.2.5c-.4.2-2.3 3-2.3 3.2 0 .2.7 0 1.4-.2 1.4-.5 1.8-.4 1.8.2 0 .2-.3.3-.6.2-.4 0-.6.1-.5.5 0 .5-.1.7-.6.7-.6 0-.7.2-.7 1s-.2 1-.6.9c-.7-.3-.7.3 0 1.4.6.8.6.8-.2.6l-.8-.2.8.9.7.9-1-.1c-.7 0-1.5.1-2 .4-.4.3-.8.4-1 .3 0-.2-.2 0-.2.1 0 .3-.2.3-.6.2-.5-.2-.6-.1-.1.4.4.5.4.6 0 .6-1.1 0-3.6 5-3.1 6.2.4 1 1.8 2 2.6 1.7.5-.2.6-.2.3.2-.3.3-.7.3-1.5 0-1.7-.5-2 0-2 3.4 0 3.6 1.2 8 2.3 8.6 3.6 2 9.8-.6 15.4-6.3a46.3 46.3 0 0 0 12.7-25c.2-3 0-4.9-.6-4.5-.1 0-.2-.3-.2-.7 0-.6-.1-1-.5-1.3-1-.5-1.1-.4-.7.4.3.5.3.7 0 .7s-.3.2 0 .6c.3.7.2 1.2-.4 1.2-.1 0-.2-.3 0-.6 0-.3 0-.5-.4-.5-.5 0-.6-.2-.5-.9.2-.6 0-.9-.6-1-.7-.3-.7-.3 0-.6.4-.1.5-.3.3-.3-.3 0-.6-.4-.7-.8-.1-.4-.4-.6-.7-.5-.5.2-1.2-.4-1.2-1 0-.1.2-.1.4 0 .2.2.3.1.1-.2-.2-.3-.5-.2-1.2.6l-1 1.2c0 .2 0 .3-.3.2-.4 0-.2-.7.2-.9.2 0 .2-.3.2-.5-.3-.7-2.4-.5-3.6.4-.7.4-1.2.6-1.5.4-.3-.1-.7-.2-1 0-.4 0-.5 0-.3-.3.1-.2 0-.4-.5-.6-1-.3-.9-.6.7-1.6.8-.4 1.7-1 2-1.3.6-.4.6-.4 0-.4-.4 0-.6-.2-.5-.5.2-.3 0-.7-.1-.8-.2-.1 0-.4.5-.8.7-.4.8-.7.6-1.3-.3-.6-.8-.8-2.5-1.1-4.3-.8-5.3-.8-6-.4-.7.3-1 .3-1.7-.7-.5-.6-1-1.5-1-2-.1-1.5-.7-1.8-4.4-2.3-2.4-.3-3.3-.3-3.6 0-.3.2-.7.3-1 .2-.2-.2 0-.5.8-.7a5253.3 5253.3 0 0 0 2.1-.6c-.3.2 0 .4 1.6.6 1.2 0 2.5.2 3 .3.6.1 1.1 0 1.2-.2.3-.4 2.4 0 2.8.6.2.2 1.2.6 2.2.8 2.6.6 2.6 1 .1.8-1.3 0-2 0-2 .3 0 .4 1.3.6 2.4.4 1.4-.2 2.8 0 4.7 1 1.2.6 3 1.2 4.2 1.4a11 11 0 0 1 4.8 2c.3.2 1.4.9 2.5 1.4 1 .6 1.7 1 1.5 1.2-.3 0-.7 0-1-.3-.4-.4-.6-.3-1 .2-.7.6-.7.6 0 .4 1.1-.3 1.5.3.6 1-.5.5-.6.5 0 .4.8-.3 1.7 0 1.5.5-.1.2-.4.2-.6 0-.3 0 0 .2.4.8.5.5 1 .8 1.2.7.2-.2.2 0 .1.1a6 6 0 0 0 .5 2.4c1 2.7 1 6.6 0 11-.5 2-.8 3.9-.8 4.4a47 47 0 0 1-7.9 14.9 40.6 40.6 0 0 1-9.3 9.4c-3.7 3-5.2 3.5-10.5 4.1l-1.8.2zm11-3.6c2.4-1.1 5.3-3.1 5.3-3.6 0-.2-.5 0-1.1.5a26.5 26.5 0 0 1-5.9 3.4c-1 .4-1.7.8-1.3.8.4 0 1.8-.5 3-1zm-15.5-2c-.2-.5-.5-.8-.6-.8l.2.7.6.7-.2-.7zm-4.8-8c0-.5 0-.8-.2-.7-.2.1-.2-.2-.1-.7.1-.5 0-1-.2-1-.5-.4-.4-1 .1-1 .6 0 1-1 1-2.4 0-.7-.1-.8-.3-.3-.2.3-.8 1-1.4 1.3-1.5.9-1.5 1.8 0 4l1 1.7.1-.9zm-4.7-.5c0-.2-.3-.6-.7-1-.8-.6-1-.4-.4.6.4.7 1 1 1 .4zm-4.3-7.3c0-.2.3-.6.5-.8.3-.3.5-.7.4-1 0-.4 0-1 .2-1.2.2-.4.1-.9-.3-1.4-.6-.7-.6-.7-1.8 0-1.8 1-2 1.5-1.2 3 .3.8.9 1.6 1.1 1.8.5.6 1.1.4 1.1-.4zm43.8-29.4c.4-.3 0-.4-1.3-.4a6 6 0 0 0-1.9.2l-.2.6c-.2.5 0 .5 1.3.2l2-.6zM65 211.4a66.2 66.2 0 0 0-12.6-7.9c-.7-.2-.9-.4-.9-1.2 0-1.3.8-3.2 1.8-4.2s1.2-1 1 .2c-.3 1 .3 2.4.8 2 .2 0 .3-.5.3-1 0-.9 1-2.7 3.3-6.2 4.5-6.6 6.4-8 9.6-6.5l1 .5H68c-2-.1-3.7 1.1-6 4.2a29 29 0 0 0-5 9.5c0 1.4 1 3 3 4.4a20 20 0 0 1 2.6 2.2c.6.5 1.2.9 1.4.7.3-.2.3 0 .2.2-.2.3.2.5 1 .4 0 0 .2.2.1.4 0 .3.2.5.4.5.9 0 2.2.8 2 1.2-.1.1 0 .4.2.5.3.2.3.1.2-.1-.4-.6 0-.5 1.2.3.6.4 1 1 1 1.2-.2.4 1.7 2 2.3 2 .2 0 .9.3 1.5.8 1 .8 1.5 2 .7 2-.2 0-4.6-2.8-9.7-6.1zm2-.7c0-.1-.2-.4-.6-.7-.5-.4-.5-.4-.1.2.5.6.8.7.8.5zm1-8.7-1.5-1.1c-.2-.3-.1-.4.1-.2.6.3 2.4-.6 3.3-1.8 1-1.3 1.2-.8.2.7-.5.7-.8 1.3-.7 1.3.9 0 2.2-2 2.2-3.1 0-.5-.2-1.2-.6-1.6-.4-.5-.3-.5.7.2 1.2 1 1.3 1 5.2.7 3.4-.1 4-.1 3.8.3 0 .3-.7.6-1.3.7l-1.2.2h1.4c1.2.1 1.6 0 1.7-.6.4-1 1-.8 1 .4 0 1.1-.3 1.2-3 1.6-4.2.5-6.6 1-6.6 1.2 0 .5-2.1 1.8-2.8 1.8-.3 0-1.1-.4-1.9-.7zm9.2-3.4c-.1-.1-.4-.2-.7 0-.3 0-.2.1.2.2.4 0 .6-.1.5-.2zm13.1-.8c0-.2.3-.5.5-.8.5-.3.5-.2.4.4-.2.7-.9 1-.9.4zm-24.1-3.4-.8-2.8c-.4-1.2 1-.1 2 1.7 1.3 2.1 1.3 2 .3-.7-.4-1-.6-2-.6-2.1.1-.1.8 1 1.6 2.4 1.2 2.2 1.3 2.6.7 2.4-.3 0-1 .2-1.6.6l-1 .7zm31.5.5c.2-.3.5-.4.6-.3 0 .1-.1.3-.4.5-.6.2-.6.1-.2-.2zm10.8-2.5c.1-.2.3-.3.4-.3l.1.3c0 .2-.1.4-.3.4-.2 0-.3-.2-.2-.4zm-20.9-.2c-.2-.1-.4-.3-.4-.5 0-.4 1-.7 1.2-.4.2.4-.3 1-.8.9zm-1.4-.7c-.5-.2-.6-.8-.1-.8.1 0 .4.2.5.5l.1.5-.5-.2z" style="fill:#906838;stroke-width:.352778" transform="translate(-44.5 -173.2)"/>
  <path d="M79 240.9a11 11 0 0 1-2-1.7c-.8-.9-2.2-2-3.2-2.4-1-.6-2.7-2-4.3-3.8a18.7 18.7 0 0 0-4.4-3.8c-2-1-3.7-2.4-3.7-3.1 0-.3-.2-.5-.5-.5s-1-.5-1.5-1.2a7.8 7.8 0 0 0-1.8-1.6c-.4-.2-1-.7-1.2-1.1-.2-.6-.2-.7 0-.5.5.3.5-.2 0-1.5-.3-.9-.4-1-.6-.3-.3.7-.3.7-.5-.1a47 47 0 0 1-.4-7.6c.3.6 3.1-.3 3.3-1 0-.3-.1-1-.3-1.3-.4-.7-.4-.7.4-.3.5.2 1 .6 1 .8.2.2.4.4.6.4.2 0 .7.3 1.2.8.5.4.6.7.3.7-1.4-.3 0 4 1.9 6.3.7.8 1.2 1 2 1a9 9 0 0 0 1.4-.2l.7-.1c.6 0 .5-1.2-.2-2l-.5-.9c0-.1-.4-.6-1-1.1-.5-.5.3 0 1.8 1 1.5 1.2 2.8 2 2.9 2 0 0 .6.4 1.1 1 .6.4.7.7.4.6-1-.4-1 1.2.4 4.4 1 2.5 1.1 2.4 1.8-.8l.6-2 1 .6c.8.5.8.5.6-.2-.3-1.4 3.2-7.9 8.8-16.3 3.3-4.8 4.6-6.5 4.3-5.4 0 .4-.6 1.2-1 1.7-.5.6-.9 1.2-.9 1.5l-.2.5c-.4.2-2.3 3-2.3 3.2 0 .2.5.1 1 0 1.2-.5 1.2-.5.1.6a11 11 0 0 0-1.6 2.4c-.5 1.1-.5 1.7-.1 3.3 0 .3-.1.5-.4.5-.3 0-.9.2-1.3.5-.4.2-.8.3-1 .2 0-.2-.2 0-.2.1 0 .3-.2.3-.6.2-.5-.2-.6-.1-.1.4.4.5.4.6 0 .6-1.1 0-3.6 5-3.1 6.2.4 1 1.8 2 2.6 1.7.5-.2.6-.2.3.2-.3.3-.7.3-1.5 0-1.7-.5-2 0-2 3.4 0 2.3.2 3.8.8 5.7.8 2.3 1 2.6 2.1 3.1 2.2 1 4.8.5 8.3-1.3 10.4-5.5 20.6-23.5 19.5-34.2-.3-2.7-.8-4-2.1-5.6-1-1.2-1-1.2-3.1-1-1.2.1-2.8.6-3.7 1-1 .4-1.4.5-1 .1 1.2-.9-.2-.6-1.6.4-.8.5-1.4.7-1.7.5-.3-.1-.7-.2-1 0-.4 0-.5 0-.4-.2.2-.1 0-.5-.4-.8-.7-.5-.7-.5 0-1l2.1-1.4c1-.5 1.1-.6.6-.7-.4-.1-.5-.4-.4-.7 0-.2 0-.6-.2-.7-.2-.1 0-.4.5-.8.7-.4.8-.7.6-1.3-.3-.6-.8-.8-2.5-1.1-4.3-.8-5.3-.8-6-.4-.7.3-1 .3-1.7-.7-.5-.6-1-1.5-1-2-.1-1.5-.7-1.8-4.4-2.3-2.4-.3-3.3-.3-3.6 0-.3.2-.7.3-1 .2-.2-.2 0-.5.8-.7a5253.3 5253.3 0 0 0 2.1-.6c-.3.2 0 .4 1.6.6 1.2 0 2.5.2 3 .3.6.1 1.1 0 1.2-.2.3-.4 2.4 0 2.8.6.2.2 1.2.6 2.2.8 2.6.6 2.6 1 .1.8-1.3 0-2 0-2 .3 0 .4 1.3.6 2.4.4 1.4-.2 2.8 0 4.7 1 1.2.6 3 1.2 4.2 1.4a11 11 0 0 1 4.8 2c.3.2 1.4.9 2.5 1.4 1 .6 1.7 1 1.5 1.2-.3 0-.7 0-1-.3-.4-.4-.6-.3-1 .2-.7.6-.7.6 0 .4 1.1-.3 1.5.3.6 1-.5.5-.6.5 0 .4.8-.3 1.7 0 1.5.5-.1.2-.4.2-.6 0-.3 0 0 .2.4.8.5.5 1 .8 1.2.7.2-.2.2 0 .1.1a6 6 0 0 0 .5 2.4c1 2.7 1 6.6 0 11-.5 2-.8 3.9-.8 4.4a47 47 0 0 1-7.7 14.6 31.3 31.3 0 0 1-7.2 7.8l-2.9 2.3c-2.5 2.3-5 3.2-9.6 3.6H79zm9.2-5c2.4-1.2 5.3-3.2 5.3-3.7 0-.2-.5 0-1.1.5a26.5 26.5 0 0 1-5.9 3.4c-1 .4-1.7.8-1.3.8.4 0 1.8-.5 3-1zm-15.5-2.2c-.2-.4-.5-.7-.6-.7l.2.7.6.7-.2-.7zm-4.8-7.9c0-.5 0-.8-.2-.7-.2.1-.2-.2-.1-.7.1-.5 0-1-.2-1-.5-.4-.4-1 .1-1 .6 0 1-1 1-2.4 0-.7-.1-.8-.3-.3-.2.3-.8 1-1.4 1.3-1.5.9-1.5 1.8 0 4l1 1.7.1-.9zm-4.7-.5c0-.2-.3-.6-.7-1-.8-.6-1-.4-.4.6.4.7 1 1 1 .4zm-4.3-7.3c0-.2.3-.6.5-.8.3-.3.5-.7.4-1 0-.4 0-1 .2-1.2.2-.4.1-.9-.3-1.4-.6-.7-.6-.7-1.8 0-1.8 1-2 1.5-1.2 3 .3.8.9 1.6 1.1 1.8.5.6 1.1.4 1.1-.4zm43.8-29.4c.4-.3 0-.4-1.3-.4a6 6 0 0 0-1.9.2l-.2.6c-.2.5 0 .5 1.3.2l2-.6zM65 211.4a66.2 66.2 0 0 0-12.6-7.9c-.7-.2-.9-.4-.9-1.2 0-1.3.8-3.2 1.8-4.2s1.2-1 1 .2c-.3 1 .3 2.4.8 2 .2 0 .3-.5.3-1 0-.9 1-2.7 3.3-6.2 4.5-6.6 6.4-8 9.6-6.5l1 .5H68c-2-.1-3.7 1.1-6 4.2a29 29 0 0 0-5 9.5c0 1.4 1 3 3 4.4a20 20 0 0 1 2.6 2.2c.6.5 1.2.9 1.4.7.3-.2.3 0 .2.2-.2.3.2.5 1 .4 0 0 .2.2.1.4 0 .3.2.5.4.5.9 0 2.2.8 2 1.2-.1.1 0 .4.2.5.3.2.3.1.2-.1-.4-.6 0-.5 1.2.3.6.4 1 1 1 1.2-.2.4 1.7 2 2.3 2 .2 0 .9.3 1.5.8 1 .8 1.5 2 .7 2-.2 0-4.6-2.8-9.7-6.1zm2-.7c0-.1-.2-.4-.6-.7-.5-.4-.5-.4-.1.2.5.6.8.7.8.5zm1-8.7-1.5-1.1c-.2-.3-.1-.4.1-.2.6.3 2.4-.6 3.3-1.8 1-1.3 1.2-.8.2.7-.5.7-.8 1.3-.7 1.3.9 0 2.2-2 2.2-3.1 0-.5-.2-1.2-.6-1.6-.4-.5-.3-.5.7.2 1.2 1 1.3 1 5.2.7 3.4-.1 4-.1 3.8.3 0 .3-.7.6-1.3.7l-1.2.2h1.4c1.2.1 1.6 0 1.7-.6.4-1 1-.8 1 .4 0 1.1-.3 1.2-3 1.6-4.2.5-6.6 1-6.6 1.2 0 .5-2.1 1.8-2.8 1.8-.3 0-1.1-.4-1.9-.7zm9.2-3.4c-.1-.1-.4-.2-.7 0-.3 0-.2.1.2.2.4 0 .6-.1.5-.2zm13.1-.8c0-.2.3-.5.5-.8.5-.3.5-.2.4.4-.2.7-.9 1-.9.4zm-24.1-3.4-.8-2.8c-.4-1.2 1-.1 2 1.7 1.3 2.1 1.3 2 .3-.7-.4-1-.6-2-.6-2.1.1-.1.8 1 1.6 2.4 1.2 2.2 1.3 2.6.7 2.4-.3 0-1 .2-1.6.6l-1 .7zm42.3-2c.1-.2.3-.3.4-.3l.1.3c0 .2-.1.4-.3.4-.2 0-.3-.2-.2-.4zm-20.9-.2c-.2-.1-.4-.3-.4-.5 0-.4 1-.7 1.2-.4.2.4-.3 1-.8.9zm-1.4-.7c-.5-.2-.6-.8-.1-.8.1 0 .4.2.5.5l.1.5-.5-.2z" style="fill:#b24b2b;stroke-width:.352778" transform="translate(-44.5 -173.2)"/>
  <path d="m79 240.9-1.9-1.7a18 18 0 0 0-3.4-2.6c-2-1.1-3.6-2.8-3.9-4-.1-.8-.6-1.1-1.9-1.5-.5-.2-.5-.3-.2-.5.4-.3.4-.4-.2-.7-.4-.2-1.4-1.9-2.3-3.8-1-1.8-1.9-3.3-2.1-3.3-.3 0-.8.2-1.2.5-.6.5-.7.5 0 1.7l.6 1.1-1-1c-.8-.7-1.3-1-1.4-.7-.2.3-.7 0-1.4-.8-.8-.8-1-1.2-.6-1.2.8 0 .6-.7-1-3.3-1-1.5-1.7-2.2-1.8-2-.1.3-.2-.2-.2-1a30.2 30.2 0 0 0-.1-3.3c.1.5 1.3.3 2-.3l.6-.3c.6 0 .3.6-.8 1.7-1.3 1.4-1.2 1.7 1.3 5.6 1.3 2 2 3 2.6 3 .7 0 1-.6.4-1-.3-.1-.3-1.2 0-3 0-.2.1-.2.3-.1.4.2.4 0-.2-2.9 0-.3.4.4 1 1.7 1.3 2.8 2.2 3.5 3.4 3 1-.3 1.1-.3 1.1.3 0 .2-.3.6-.7.7-.3.1-.7.4-.8.7-.4 1 3.4 7.6 4.6 8 .8.4 1.1 0 .8-1-.2-.5-.4-1.4-.4-2 0-.8-.1-1.3-.3-1.3-.6 0-.4-2.1.2-2.3.3-.2.5-.6.5-1-.2-1.9 0-1.6 1.2 1.2 1.5 3.5 2 4.1 2 2.4 0-1 .3-3 .9-4.5 0-.3.3-.3 1 .2.8.5.8.5.6-.2-.3-1.4 3.2-7.9 8.8-16.3 3.3-4.8 4.6-6.5 4.3-5.4 0 .4-.6 1.2-1 1.7-.5.6-.9 1.2-.9 1.5l-.2.5c-.4.2-2.3 3-2.3 3.2 0 .2.5.1 1 0 1.2-.5 1.2-.5.1.6a11 11 0 0 0-1.6 2.4c-.5 1.1-.5 1.7-.1 3.3 0 .3-.1.5-.4.5-.3 0-.9.2-1.3.5-.4.2-.8.3-1 .2 0-.2-.2 0-.2.1 0 .3-.2.3-.6.2-.5-.2-.6-.1-.1.4.4.5.4.6 0 .6-1.1 0-3.6 5-3.1 6.2.4 1 1.8 2 2.6 1.7.6-.2.6-.2.3.2-.4.4-.7.4-2-.1l-1.3-.6-.5 1a24 24 0 0 0 .1 8.6c2.1 6.1 10 4.8 17.9-3 8-8 13.9-21 13-29.2-.3-2.7-.8-4-2-5.6-1-1-1.3-1.1-2.7-1.1-1.3 0-1.5 0-1.1-.5.5-.7 1.2-.7.8-.1-.2.3-.1.3.3 0 .3-.3.6-.3.7-.2 0 .2.6.5 1.2.6 2.6.4 4.2 2.4 4.8 6.3.7 4.5-.5 10.4-3.6 17.2-1.5 3.3-1.6 3.7-1 3.3.7-.4-1.7 3.7-3.2 5.5l-2.1 2.8a29.5 29.5 0 0 1-6 6.5l-3.2 2.4a13 13 0 0 1-6.1 3.2c-2.7.5-5 .6-5.6.4zm10-5.1c2.4-1.2 3.5-2.1 6.5-5 3-3 5.2-5.9 4.6-5.9l-3.5 3.4c-5 5-10.2 8.2-13.5 8.2-.8 0-1.2.2-1 .4 0 .2 1 .3 2 .3 1.5 0 2.5-.3 4.9-1.4zm-15.3-.5c-.1-.5-.3-1.7-.3-2.7v-1.8l-1.1.3c-1.5.3-1.6.3-1.1 1.3.4 1 2.5 3.8 2.7 3.8l-.2-1zm-3-15.8c.2-.9.2-1-.2-.7-.3.3-.6.3-.7.2-.2-.1-.3 0-.3.4 0 .3-.1.6-.3.6-.2 0-.4-.5-.3-1a4 4 0 0 0-.4-1.9l-.5-.8 1.3 1c.7.5 1.3.8 1.3.6 0-.1.2 0 .3.4.3.3.3.8 0 1.4-.3.7-.3.7-.1-.2zm-5.7-8.1a66.2 66.2 0 0 0-12.6-7.9c-.7-.2-.9-.4-.9-1.2 0-1.3.8-3.2 1.8-4.2s1.2-1 1 .2c-.3 1 .3 2.4.8 2 .2 0 .3-.5.3-1 0-.9 1-2.7 3.3-6.2 4.5-6.6 6.4-8 9.6-6.5l1 .5H68c-2-.1-3.7 1.1-6 4.2a29 29 0 0 0-5 9.5c0 1.4 1 3 3 4.4a20 20 0 0 1 2.6 2.2c.6.5 1.2.9 1.4.7.3-.2.3 0 .2.2-.2.3.2.5 1 .4 0 0 .2.2.1.4 0 .3.2.5.4.5.9 0 2.2.8 2 1.2-.1.1 0 .4.2.5.3.2.3.1.2-.1-.4-.6 0-.5 1.2.3.6.4 1 1 1 1.2-.2.4 1.7 2 2.3 2 .2 0 .9.3 1.5.8 1 .8 1.5 2 .7 2-.2 0-4.6-2.8-9.7-6.1zm2-.7c0-.1-.2-.4-.6-.7-.5-.4-.5-.4-.1.2.5.6.8.7.8.5zm-7.1 1.1c-.2-1-.8-1.2-.8-.3 0 .2-.1.3-.3.3-.2 0-.4-.5-.4-1.2 0-1.3.6-1.7 1-.7.1.3.4.5.6.4.6-.4 1 1 .5 1.8-.4.8-.4.8-.6-.3zM68 202l-1.5-1.1c-.2-.3-.1-.4.1-.2.6.3 2.4-.6 3.3-1.8 1-1.3 1.2-.8.2.7-.5.7-.8 1.3-.7 1.3.9 0 2.2-2 2.2-3.1 0-.5-.2-1.2-.6-1.6-.4-.5-.3-.5.7.2 1.2 1 1.3 1 5.2.7 3.4-.1 4-.1 3.8.3 0 .3-.7.6-1.3.7l-1.2.2h1.4c1.2.1 1.6 0 1.7-.6.4-1 1-.8 1 .4 0 1.1-.3 1.2-3 1.6-4.2.5-6.6 1-6.6 1.2 0 .5-2.1 1.8-2.8 1.8-.3 0-1.1-.4-1.9-.7zm9.2-3.4c-.1-.1-.4-.2-.7 0-.3 0-.2.1.2.2.4 0 .6-.1.5-.2zm13.1-.8c0-.2.3-.5.5-.8.5-.3.5-.2.4.4-.2.7-.9 1-.9.4zm-24.1-3.4-.8-2.8c-.4-1.2 1-.1 2 1.7 1.3 2.1 1.3 2 .3-.7-.4-1-.6-2-.6-2.1.1-.1.8 1 1.6 2.4 1.2 2.2 1.3 2.6.7 2.4-.3 0-1 .2-1.6.6l-1 .7zm27 1c.2-.1 0-.4-.3-.7-.8-.6-.2-1.2 2-2.3 1-.4 1.6-1 1.6-1.2-.1-.2 0-.5.4-.7.4-.1.5-.4.3-1.3-.3-1.7-.8-2-3.7-2.6-1.5-.2-2.4-.5-2-.5.3 0 .6-.2.6-.4s.2-.3.6-.3c.3 0 .4.1.3.3-.1.2-.1.4 0 .4 2 .3 2.8.3 3 0 .1-.2.8 0 1.8.5s2.1 1 2.6 1c.8.1.7.2-.4.2-1.5 0-1.5.1-1.5 1 0 1.5.4 1.7 2 .8.8-.4 2-.7 2.8-.7h1.3l-1.1.4c-.7.2-1.2.5-1.2.7 0 .2-.2.2-.4.1-.3 0-.7.2-.9.7-.2.4-.7.8-1.2.8-.4 0-1 .3-1.3.6-.5.5-.4.6.7.6 1 0 1.1 0 .3.3l-2.6 1.2c-1.8.9-4.1 1.6-3.7 1.1zm4.9-2c0-.4-1-.5-1.2-.2-.2.1 0 .3.5.3l.7-.1zm2.5-1.1c0-.1.3-.4.7-.6.5-.3.6-.2.5.2-.2.5-1.2.8-1.2.4zm-13.3-6.6.4-.3c.1 0 .2.1.2.3 0 .2-.2.4-.4.4s-.3-.2-.2-.4zM86 184c.1-1.3-.3-1.7-2.3-2.1l-1.6-.4 1.7.1c1 .1 1.8 0 2-.2.2-.2.6 0 1 .4.6.6.7 1 .5 1.5a2 2 0 0 0-.1 1.3c0 .3-.2.4-.6.4-.6 0-.7-.2-.6-1z" style="fill:#5d6262;stroke-width:.352778" transform="translate(-44.5 -173.2)"/>
  <path d="m79 240.9-1.9-1.7a18 18 0 0 0-3.4-2.6c-2-1.1-3.6-2.8-3.9-4-.1-.8-.6-1.1-1.9-1.5-.5-.2-.5-.3-.2-.5.4-.3.4-.4-.2-.7-.4-.2-1.4-1.9-2.3-3.8-1-1.8-1.9-3.3-2.1-3.3-.3 0-.8.2-1.2.5-.6.5-.7.5 0 1.7l.6 1.1-1-1c-.8-.7-1.3-1-1.4-.7-.2.3-.7 0-1.4-.8-.8-.8-1-1.2-.6-1.2.8 0 .6-.7-1-3.3-1-1.5-1.7-2.2-1.8-2-.1.3-.2-.2-.2-1a30.2 30.2 0 0 0-.1-3.3c.1.5 1.3.3 2-.3l.6-.3c.6 0 .3.6-.8 1.7-1.3 1.4-1.2 1.7 1.3 5.6 1.3 2 2 3 2.6 3 .7 0 1-.6.4-1-.3-.1-.3-1.2 0-3 0-.2.1-.2.3-.1.4.2.4 0-.2-2.9 0-.3.4.4 1 1.7 1.3 2.8 2.2 3.5 3.4 3 1-.3 1.1-.3 1.1.3 0 .2-.3.6-.7.7-.3.1-.7.4-.8.7-.4 1 3.4 7.6 4.6 8 .8.4 1.1 0 .8-1-.2-.5-.4-1.4-.4-2 0-.8-.1-1.3-.3-1.3-.6 0-.4-2.1.2-2.3.3-.2.5-.6.5-1-.2-1.9 0-1.6 1.2 1.2 1.5 3.5 2 4.1 2 2.6 0-1.6.7-4.7 1-4.7.3 0 .8.2 1.2.5.8.5.8.5.7-.4 0-.6 0-.7.1-.3l.5 1a19.4 19.4 0 0 0-.4 10.2c2.1 6.1 10 4.8 17.9-3 8-8 13.9-21 13-29.2-.3-2.7-.8-4-2-5.6-1-1-1.3-1.1-2.7-1.1-1.3 0-1.5 0-1.1-.5.5-.7 1.2-.7.8-.1-.2.3-.1.3.3 0 .3-.3.6-.3.7-.2 0 .2.6.5 1.2.6 2.6.4 4.2 2.4 4.8 6.3.7 4.5-.5 10.4-3.6 17.2-1.5 3.3-1.6 3.7-1 3.3.7-.4-1.7 3.7-3.2 5.5l-2.1 2.8a29.5 29.5 0 0 1-6 6.5l-3.2 2.4a13 13 0 0 1-6.1 3.2c-2.7.5-5 .6-5.6.4zm10-5.1c2.4-1.2 3.5-2.1 6.5-5 3-3 5.2-5.9 4.6-5.9l-3.5 3.4c-5 5-10.2 8.2-13.5 8.2-.8 0-1.2.2-1 .4 0 .2 1 .3 2 .3 1.5 0 2.5-.3 4.9-1.4zm-15.3-.5c-.1-.5-.3-1.7-.3-2.7v-1.8l-1.1.3c-1.5.3-1.6.3-1.1 1.3.4 1 2.5 3.8 2.7 3.8l-.2-1zm-3-15.8c.2-.9.2-1-.2-.7-.3.3-.6.3-.7.2-.2-.1-.3 0-.3.4 0 .3-.1.6-.3.6-.2 0-.4-.5-.3-1a4 4 0 0 0-.4-1.8c-.4-.8-.3-.8 1.2.3 1.7 1.3 1.7 1.2 1.2 2.3-.3.5-.3.5-.1-.3zm-3.6-7c-1.2-.7-3.8-2.5-5.8-4a64 64 0 0 0-8.8-5.5c-.8 0-.8-1.4 0-3 .6-1.4 1.3-1.8 1.4-.7a10 10 0 0 0 2.7 4.7c1.5.7 13.7 10 13 10-.2 0-1.3-.7-2.5-1.5zm-7.2-.7c-.2-1-.8-1.2-.8-.3 0 .2-.1.3-.3.3-.2 0-.4-.5-.4-1.2s0-1.2.2-1.2c0 0 .7.4 1.3 1 1 .8 1 1 .6 1.7-.4.8-.4.8-.6-.3zm23 .9c-.2-.1-.2-.4 0-.7 0-.3-.2-.9-.5-1.3-.6-.7-.6-.7 0-.3.4.4.7.4 1 0 .2-.1.3-.3.1-.3-.3 0 0-.4 1.7-2.3l1.3-1.4-1.2 1.7a5.5 5.5 0 0 0-1.1 3.2c0 1.1-.2 1.5-.6 1.5l-.8-.1zm-26.2-9.8c-2.2-2-1.8-4 2-9.6 4-6 6.5-8 8.8-7 .7.4.7.4-.5.7-.7.1-2 .7-2.7 1.4-2.7 2.3-7 9.4-7.4 12.2a3 3 0 0 0 .6 2.4c1 1.4.8 1.4-.8-.1zM69 202c-1.4-.2-2-.8-.8-.8 2.2 0 3.3-1.2 3.5-3.7.1-1 .4-1.2.8-.6.1.2 1 .4 1.8.4 1.7 0 2 .5.7 1-1.6.6-1 .8 1.7.6 4.2-.4 4.8-.6 4.8-1.3 0-.4.2-.6.4-.5.2.1.3.6.3 1 0 1-.2 1-5.2 1.7-3.2.4-3.9.6-4.8 1.4-.7.6-1.4 1-1.7 1L69 202zm-2.8-7.6a6 6 0 0 1-.4-2c.1-.1.2 0 .2.3 0 .2.1.3.3.2.1 0 .6.4 1 1 .7 1.2.8 1.2.1 1.8-.6.5-.7.5-1.2-1.3zm2-1.6a6.9 6.9 0 0 1-1-2.4c.2-.2 2.4 4 2.3 4.4-.1.2-.7-.7-1.3-2zm24.8 1.9c-1-.7-.4-1.3 1.9-2.4 1-.4 1.6-1 1.6-1.2-.1-.2 0-.5.4-.7.4-.1.5-.4.3-1.3-.3-1.7-.8-2-3.7-2.6-1.5-.2-2.4-.5-2-.5.3 0 .6-.2.6-.4s.2-.3.6-.3c.3 0 .4.1.3.3-.1.2-.1.4 0 .4 2 .3 2.8.3 3 0 .1-.2.8 0 1.8.5s2.1 1 2.6 1c.8.1.7.2-.4.2-1.5 0-1.5.1-1.5 1 0 1.5.4 1.7 2 .8.8-.4 2-.7 2.8-.7h1.3l-1.1.4c-.7.2-1.2.5-1.2.7 0 .2-.2.2-.4.1-.3 0-.7.2-.9.7-.2.4-.7.8-1.2.8-.4 0-1 .3-1.3.6-.5.5-.4.6.7.6 1 0 1.1 0 .3.3l-2.7 1.2c-2.1 1-2.9 1.2-3.8.5zm5.1-1.4c0-.4-1-.5-1.2-.2-.2.1 0 .3.5.3l.7-.1zm2.5-1.1c0-.1.3-.4.7-.6.5-.3.6-.2.5.2-.2.5-1.2.8-1.2.4zm-13.3-6.6.4-.3c.1 0 .2.1.2.3 0 .2-.2.4-.4.4s-.3-.2-.2-.4zM86 184c.1-1.3-.3-1.7-2.3-2.1l-1.6-.4 1.7.1c1 .1 1.8 0 2-.2.2-.2.6 0 1 .4.6.6.7 1 .5 1.5a2 2 0 0 0-.1 1.3c0 .3-.2.4-.6.4-.6 0-.7-.2-.6-1z" style="fill:#a83a1b;stroke-width:.352778" transform="translate(-44.5 -173.2)"/>
  <path d="m79 240.9-1.9-1.7a18 18 0 0 0-3.4-2.6 5.5 5.5 0 0 1-2.9-3c-.7-1.5-1.1-2-1.9-2.2-1.4-.4-1.6-.6-1-.9.3-.2.3-.4 0-.7a2 2 0 0 1-.5-1.2c0-.4-.2-1-.5-1.2-.3-.3-.6-.7-.6-1 0-.2-.1-.4-.4-.5-.2-.1-.3-.4-.2-.6.1-.3.5 0 1 .9 1.4 2.2 2.9 4 3.4 4 1 0 2.6-1.5 2.6-2.5 0-.5.1-.7.2-.4.3.8.9.4.9-.5 0-1.6.8-5.4 1-5.4.3 0 .8.2 1.2.5.8.5.8.5.7-.4 0-.6 0-.7.1-.3.1.4.4.9.6 1.1.2.3.2.5 0 .5-.6 0-1.5 3-1.5 4.9 0 1.1-.2 1.7-.4 1.6-.2-.1-.3 0-.3.3 0 1 1.4 4.3 2 4.7.2.2.4.6.4.9-.1.6.4 1.7.8 1.7.1 0 .2-.3 0-.6 0-.5 0-.5.5.1 1 1 2.6 2 3.5 2 .4 0 .7.3.7.6 0 1.4 4.5.4 7.1-1.6 1-.8 1.4-1 1-.5a14.7 14.7 0 0 1-6.5 3.5c-2.8.6-5 .7-5.7.5zm1.8-1.8c0-.3-.2-.4-.4-.3-.6.2-1.5-.5-1.8-1.2-.2-.4-.2-.4-.2 0 0 .8 1.1 2.1 1.9 2.1.3 0 .5-.2.5-.6zm-7-4c-.3-.7-.4-1.9-.3-2.7 0-.8 0-1.6-.2-1.7-.2-.2-2.7.5-2.7.8 0 .4 3 4.7 3.4 4.7 0 0 0-.5-.3-1.2zm3.1.5c0-.3 0-.5-.2-.4-.1.2-.5 0-.9-.3-.3-.3-.6-.4-.6-.2s.3.6.8.9c1 .7 1 .7 1 0zm4.7.7h2l-1 .1c-1 0-1.5 0-1-.1zm4.5-.8.9-.4c.2 0 .1.2-.2.4l-.9.3c-.2 0 0-.1.2-.3zm1.4-.5 2-1.3a34 34 0 0 0 5.3-4.3c8-8 13.9-21 13-29.2-.3-2.7-.8-4-2-5.6-.6-.6-.9-1.1-.6-1.1.8 0 2.4 1.5 3.4 3.1s1 1.9 1 6c0 4-.2 4.8-1.3 8a53.8 53.8 0 0 1-6 12.4c-1.9 2.8-2.5 3.3-1.5 1.5.4-.8-.9.3-3.6 3a60.9 60.9 0 0 1-5.8 5.4 13.6 13.6 0 0 1-3.9 2zM59 223.8c-.6-.7-.8-1-.5-1 .7 0 .7-.9 0-2-.4-.5-.5-1-.4-1 .1-.2.2-.1.2 0 0 .3.5 1 1.1 1.7 1.2 1.3 2.1 1.4 3 .1.4-.6.6-.6 1-.2.6.4.4 1.2-.1.8-.2 0-.4 0-.4.2s-.3.4-.6.4c-.8 0-1.3.9-1 1.5.2.3.1.3-.2 0-.6-.6-1.5-.6-1.2 0 .3.8.1.7-1-.5zm-4-10c-.3-1-.2-1.1.2-.4.2.3.3.7.2.8 0 0-.3-.1-.4-.4zm12.2-1.3c-1.2-.7-3.8-2.5-5.8-4a64 64 0 0 0-8.8-5.5c-.8 0-.8-1.4 0-3 .6-1.4 1.3-1.8 1.4-.7a10 10 0 0 0 2.7 4.7c1.5.7 13.7 10 13 10-.2 0-1.3-.7-2.5-1.5zm15.7.2v-.7c.1-.3 0-.9-.4-1.3-.6-.7-.6-.7 0-.3.4.4.7.4 1 0 .2-.1.3-.3.1-.3-.3 0 0-.4 1.7-2.3l1.3-1.4-1.2 1.7a5.5 5.5 0 0 0-1.1 3.2c0 1.1-.2 1.5-.6 1.5l-.8-.1zm-26-9.8c-2.3-2-1.9-4 1.9-9.6 4-6 6.5-8 8.8-7 .7.4.7.4-.5.7-.7.1-2 .7-2.7 1.4-2.7 2.3-7 9.4-7.4 12.2a3 3 0 0 0 .6 2.4c1 1.4.8 1.4-.8-.1zM69 202c-1.4-.2-2-.8-.8-.8 2.2 0 3.3-1.2 3.5-3.7.1-1 .4-1.2.8-.6.1.2 1 .4 1.8.4 1.7 0 2 .5.7 1-1.6.6-1 .8 1.7.6 4.2-.4 4.8-.6 4.8-1.3 0-.4.2-.6.4-.5.2.1.3.6.3 1 0 1-.2 1-5.2 1.7-3.2.4-3.9.6-4.8 1.4-.7.6-1.4 1-1.7 1L69 202zm-2.8-7.6a6 6 0 0 1-.4-2c.1-.1.2 0 .2.3 0 .2.1.3.3.2.1 0 .6.4 1 1 .7 1.2.8 1.2.1 1.8-.6.5-.7.5-1.2-1.3zm2-1.6a6.9 6.9 0 0 1-1-2.4c.2-.2 2.4 4 2.3 4.4-.1.2-.7-.7-1.3-2zm24.4 1.7c-.2-.5 2-2 4-2.8 1-.4 2.3-1 3-1.6.8-.5 1.7-1 2-1 .3 0 .1.3-.5.7l-1.8 1.1a7 7 0 0 1-2.1 1c-.8.2-2 1-2.9 1.7-.8.7-1.5 1-1.7.9zm-6.6-13c-.1-.2 0-.4.1-.4.2 0 .4.2.4.5s-.1.5-.2.5l-.3-.5z" style="fill:#505454;stroke-width:.352778" transform="translate(-44.5 -173.2)"/>
  <path d="m79 240.9-1.9-1.7a18 18 0 0 0-3.4-2.6 5.5 5.5 0 0 1-2.9-3c-.7-1.5-1.1-2-1.9-2.2-1.4-.4-1.6-.6-1-.9.3-.2.3-.4 0-.7a2 2 0 0 1-.5-1.2c0-.4-.2-1-.5-1.2-.3-.3-.6-.7-.6-1 0-.2-.1-.4-.4-.5-.2-.1-.3-.4-.2-.6.1-.3.5 0 1 .9 1.4 2.2 2.9 4 3.4 4 1 0 2.6-1.5 2.6-2.5 0-.5.1-.7.2-.4.3.8.9.4.9-.5 0-1.7.8-5.4 1.2-5.4.2 0 .7.3 1.2.7.8.7.8.7.2 2.2-.3.8-.5 2.3-.5 3.4s-.2 1.7-.4 1.6c-.2-.1-.3 0-.3.3 0 1 1.4 4.3 2 4.7.2.2.4.6.4.9-.1.6.4 1.7.8 1.7.1 0 .2-.3 0-.6 0-.5 0-.5.5.1 1 1 2.6 2 3.5 2 .4 0 .7.3.7.6 0 1.4 4.5.4 7.1-1.6 1-.8 1.4-1 1-.5a14.7 14.7 0 0 1-6.5 3.5c-2.8.6-5 .7-5.7.5zm1.8-1.8c0-.3-.2-.4-.4-.3-.6.2-1.5-.5-1.8-1.2-.2-.4-.2-.4-.2 0 0 .8 1.1 2.1 1.9 2.1.3 0 .5-.2.5-.6zm-7-4c-.3-.7-.4-1.9-.3-2.7 0-.8 0-1.6-.2-1.7-.2-.2-2.7.5-2.7.8 0 .4 3 4.7 3.4 4.7 0 0 0-.5-.3-1.2zm3.1.5c0-.3 0-.5-.2-.4-.1.2-.5 0-.9-.3-.3-.3-.6-.4-.6-.2s.3.6.8.9c1 .7 1 .7 1 0zm4.7.7h2l-1 .1c-1 0-1.5 0-1-.1zm4.5-.8.9-.4c.2 0 .1.2-.2.4l-.9.3c-.2 0 0-.1.2-.3zm1.4-.5 2-1.3a34 34 0 0 0 5.3-4.3c8-8 13.9-21 13-29.2-.3-2.7-.8-4-2-5.6-.6-.6-.9-1.1-.6-1.1.8 0 2.4 1.5 3.4 3.1s1 1.9 1 6c0 4-.2 4.8-1.3 8a53.8 53.8 0 0 1-6 12.4c-1.9 2.8-2.5 3.3-1.5 1.5.4-.8-.9.3-3.6 3a60.9 60.9 0 0 1-5.8 5.4 13.6 13.6 0 0 1-3.9 2zM59 223.8c-.6-.7-.8-1-.5-1 .7 0 .7-.9 0-2-.4-.5-.5-1-.4-1 .1-.2.2-.1.2 0 0 .3.5 1 1.1 1.7 1.2 1.3 2.1 1.4 3 .1.4-.6.6-.6 1-.2.6.4.4 1.2-.1.8-.2 0-.4 0-.4.2s-.3.4-.6.4c-.8 0-1.3.9-1 1.5.2.3.1.3-.2 0-.6-.6-1.5-.6-1.2 0 .3.8.1.7-1-.5zm-4-10c-.3-1-.2-1.1.2-.4.2.3.3.7.2.8 0 0-.3-.1-.4-.4zm29.6-4.9c.2-.3.4-.5.5-.4 0 0 0 .4-.3.6-.3.4-.4.3-.2-.2zm-28.2-6.7c-.6-1-.7-2.8-.1-4.4.4-1.3.5-1.3 1.1-.7.4.4.4.6 0 1.5a5 5 0 0 0-.4 2.7v1.7l-.6-.8zM71 201c.4-.6.8-1.7.9-2.5.2-1.2.3-1.4.5-1 .2.3.2 1 .1 1.3-.3.9.2.9 5.4.3 3-.4 3.6-.5 4-1.2.3-.6.3-.6.3.3 0 .5-.1 1-.3 1l-4.5.5c-3.5.5-4.3.7-5 1.4-.6.5-1.2.9-1.6.9-.5 0-.5-.1.2-1zm21.6-6.4c-.2-.5 2-2 4-2.8 1-.4 2.3-1 3-1.6.8-.5 1.7-1 2-1 .3 0 .1.3-.5.7l-1.8 1.1a7 7 0 0 1-2.1 1c-.8.2-2 1-2.9 1.7-.8.7-1.5 1-1.7.9zm-6.6-13c-.1-.2 0-.4.1-.4.2 0 .4.2.4.5s-.1.5-.2.5l-.3-.5z" style="fill:#943318;stroke-width:.352778" transform="translate(-44.5 -173.2)"/>
  <path d="M78.1 240.3c-.3-.3-.5-.6-.2-.6.2 0 .6.3.8.5.6.7.3.7-.6 0zm5.8-.1h.9c.2 0 0 .2-.5.2-.4 0-.6-.1-.4-.2zm-7.3-1.8c-.8-.8-.8-.9-.1-.5.4.2.8.6 1 1 .2.7 0 .6-1-.5zm-2.3-2.3c-.9-2-.3-13.5.7-14.7.1 0 .5.1.9.5l.7.7-1 .7c-1 .8-1 1-1 4 0 1.7-.2 4-.3 5-.2 1.7 0 2.4.5 3.5.4.8.6 1.4.4 1.4-.2 0-.6-.5-1-1.1zm26.6-14.2c6.6-10.2 8.9-21.4 5.4-26.5-.4-.7-.8-1.3-.7-1.4.4-.4 2.8 2.2 3.3 3.7 1 2.5.8 7.8-.4 11.8-1 3.4-3.3 8.7-3.7 8.6-.2 0-3.2 3.2-3.2 3.6l-1.2 1.6c-1 1.2-1 1 .5-1.4zm-16.4-13c.2-.3.4-.5.5-.4 0 0 0 .4-.3.6-.3.4-.4.3-.2-.2zm-28.2-6.7c-.6-1-.7-2.8-.1-4.4.4-1.3.5-1.3 1.1-.7.4.4.4.6 0 1.5a5 5 0 0 0-.4 2.7v1.7l-.6-.8zM71 201c.4-.6.8-1.7.9-2.5.2-1.2.3-1.4.5-1 .2.3.2 1 .1 1.3-.3.9.2.9 5.4.3 3-.4 3.6-.5 4-1.2.3-.6.3-.6.3.3 0 .5-.1 1-.3 1l-4.5.5c-3.5.5-4.3.7-5 1.4-.6.5-1.2.9-1.6.9-.5 0-.5-.1.2-1z" style="fill:#762610;stroke-width:.352778" transform="translate(-44.5 -173.2)"/>
  <path d="M56.3 202.2c-.6-1-.7-2.8-.1-4.4.4-1.3.5-1.3 1.1-.7.4.4.4.6 0 1.5a5 5 0 0 0-.4 2.7v1.7l-.6-.8zM71 201c.4-.6.8-1.7.9-2.5.2-1.2.3-1.4.5-1 .2.3.2 1 .1 1.3-.3.9.2.9 5.4.3 3-.4 3.6-.5 4-1.2.3-.6.3-.6.3.3 0 .5-.1 1-.3 1l-4.5.5c-3.5.5-4.3.7-5 1.4-.6.5-1.2.9-1.6.9-.5 0-.5-.1.2-1z" style="fill:#353739;stroke-width:.352778" transform="translate(-44.5 -173.2)"/>
</svg>