<svg xmlns="http://www.w3.org/2000/svg" width="277.3" height="277.3" viewBox="0 0 73.4 73.4">
  <path d="M44.4 210v-36.7h73.3v73.4H44.4Z" style="fill:#fefefe;stroke-width:.352778" transform="translate(-44.5 -173.2)"/>
  <path d="M77 245.3c-6.7-1.4-12.5-6.5-13.4-12-.2-1.2-.7-2-2.3-3.6-4.3-4.6-7-9.6-8.5-15.6-1-3.5-.7-5.7.8-8.8 1.4-2.7 4.7-6 8-7.8 2-1.1 2.6-1.8 3.1-2.9a30 30 0 0 1 10.4-9.8c4-2.6 4.3-3 4-6.3-.2-2.2-.2-2.7.4-3.2.5-.5 1-.6 2-.4 2 .3 3.2 1.2 4.4 3.6 1 1.8 1.1 2.5 1.1 4.5v2.3l1.4.7c1.6.8 3.5 2.8 3.7 4l.4 2.4.2 1.6 3.1 1.1a27 27 0 0 1 10.1 6.2c4.9 4.8 5.8 9 3.7 15.6a33 33 0 0 1-8.3 13.9c-1.3 1.4-1.9 2.3-2 3.3-1 5-5.8 9.4-12 11-2.3.6-7.9.6-10.3.2z" style="fill:#fef8d6;stroke-width:.352778" transform="translate(-44.5 -173.2)"/>
  <path d="M76.3 245c-6.6-1.5-11.8-6.4-12.7-11.8-.2-1.2-.7-2-2.6-4a32.3 32.3 0 0 1-7.2-11.9c-1.3-3.7-1.4-4.2-1.2-7 0-2.2.3-3.4 1-4.7 1-2.4 5.6-6.8 8.2-8.2 1.6-.8 2.2-1.3 2.8-2.6a29 29 0 0 1 10.5-10c4-2.6 4.3-3 4-6.3-.2-2.2-.2-2.7.4-3.2.5-.5 1-.6 2-.4 2 .3 3.2 1.2 4.4 3.6 1 1.8 1.1 2.5 1.1 4.5v2.3l1.4.7c1.6.8 3.5 2.8 3.7 4l.5 2.5c.3 1.7.3 1.7 2.2 2.3 2.5.8 6.8 3 9 4.5a16 16 0 0 1 6.8 11.6c.1 2.1 0 3-1.1 6.3-2 5.7-4 9.3-8.5 14a7.1 7.1 0 0 0-2 3.3c-.5 2.5-1.5 4.2-3.4 6a18.4 18.4 0 0 1-13.8 5c-1.9 0-4.3-.2-5.5-.4zm9.5-16.5c3-.4 3.5-.6 4.4-1a3 3 0 0 1 1.6-.3c.4 0 .6 0 .4-.2l-.7-.3c-.2 0-.4-.2-.3-.5 0-.4 0-.3-.4.1-.3.5-.6.5-.8.3-.1-.3-.4-.3-.8 0-.3.3-.4.3-.3.1a25 25 0 0 0-6.4-.3 29.6 29.6 0 0 1-23-7.8c-5.5-5.7-4.8-13.2 1.8-18.4 2.5-1.9 2.9-3 .7-1.9-1.8 1-5.3 4.2-6.3 6-2 3.5-2.3 4.4-2.3 6.7s1.5 6 2.3 6c.3 0 .3.2 0 .5-.6.6-.5 1.2.7 2.6 4.8 5.4 15.2 9.1 24.3 8.7 2 0 4.3-.2 5.1-.3z" style="fill:#fdd4e1;stroke-width:.352778" transform="translate(-44.5 -173.2)"/>
  <path d="M76.3 245c-6.5-1.5-11.8-6.5-12.7-11.8-.2-1.2-.8-2-2.7-4.1a30 30 0 0 1-7-11.8c-1.4-3.7-1.5-4.2-1.3-7 0-2.2.3-3.4 1-4.7 1-2.4 5.5-6.8 8.3-8.3 1.7-.8 2.4-1.5 2.9-2.4 1.2-2.4 3.4-4.9 6-6.9 3.4-2.5 6.8-4.6 7-4.3.4.4-2.4 3.7-3.2 3.7-.2 0-.8.5-1.4 1-.6.6-1.3 1.1-1.4 1.1-.2 0-.3.2-.3.4 0 .6.5.4 2-1l2.6-2.2c1.4-1.1 2.6-3 2-3.3-.3 0 0-.5.5-1 .6-.7.8-1.3.7-2.1-.3-4-.2-4.7.7-5.1 3-1.5 7.2 3.2 7 8v2l1.5.9a9 9 0 0 1 2.6 2.2c1 1.2 1 1.5 1 4 0 1.7 0 2.4.3 2 .1-.4.3-.6.3-.4 0 .2.8.6 1.7.8 2.2.5 7 3 9.3 4.6 4 3 6.7 7.3 7 11.5a32 32 0 0 1-8.3 18.8c-2.3 2.4-3 3.5-3.3 4.9-.7 2.5-1.6 4.1-3.6 6.1-2.1 2-5.2 3.7-8.5 4.5a32 32 0 0 1-10.7 0zm9.5-16.5c3-.4 3.5-.6 4.4-1a3 3 0 0 1 1.6-.3c.4 0 .6 0 .4-.2l-.7-.3c-.2 0-.4-.2-.3-.5 0-.4 0-.3-.4.1-.3.5-.6.5-.8.3-.1-.3-.4-.3-.8 0-.3.3-.4.3-.3.1a25 25 0 0 0-6.4-.3 29.6 29.6 0 0 1-23-7.8c-5.5-5.7-4.8-13.2 1.8-18.4 2.5-1.9 2.9-3 .7-1.9-1.8 1-5.3 4.2-6.3 6-2 3.5-2.3 4.4-2.3 6.7s1.5 6 2.3 6c.3 0 .3.2 0 .5-.6.6-.5 1.2.7 2.6 4.8 5.4 15.2 9.1 24.3 8.7 2 0 4.3-.2 5.1-.3zM67 216.2l-.3-.4c-.2-.1-.4 0-.4.2s.2.3.4.3l.3-.1zm-1.5-1c-.4-.3-.8-.5-1-.4-.2.1-.1.4.3.7 1 .7 1.4.6.7-.2zm-1.3-1.5a.6.6 0 0 1-.1-.7c.1 0 0-.2-.2-.2s-.4-.2-.4-.5c0-.6-.4-.7-.8-.3-.4.3.7 2.1 1.3 2.1.4 0 .5-.1.2-.4zm38-2.7c0-.7 0-1.7-.2-2.2-.2-1-.3-1-.5.8-.2 1-.2 2 0 2.2.4.7.8.3.8-.8zm-4.5-5.4c0-.7-.1-1.3-.3-1.3-.2 0-.4.6-.4 1.3 0 .7.2 1.2.4 1.2s.3-.5.3-1.2zm-27-2.5c-.3-.3-.8-.5-1.1-.5-.3 0-.4-.2-.3-.3v-1c-.2-.4-.3-.4-.9 0-.5.3-.8.3-1.4 0-.7-.5-.7-.5 0 .6 1 1.3 3.5 2.6 4.1 2 .2-.2.1-.5-.3-.8zm10.1-26c0-.1-.2-.3-.4-.3-.1 0-.3.3-.3.6s.2.4.3.3l.4-.5z" style="fill:#fde6c9;stroke-width:.352778" transform="translate(-44.5 -173.2)"/>
  <path d="M76.3 245c-6.5-1.5-11.8-6.5-12.7-11.8-.2-1.2-.8-2-2.7-4.1a31 31 0 0 1-8.4-18.9c.3-4.9 3.5-9.4 9.3-12.7 1.7-1 2.6-1.8 3-2.7 1.2-2.3 3.5-4.8 6-6.8 3.4-2.5 6.8-4.6 7-4.3.4.4-2.4 3.7-3.2 3.7-.2 0-.8.5-1.4 1-.6.6-1.3 1.1-1.4 1.1-.2 0-.3.2-.3.4 0 .6.5.4 2-1l2.6-2.2c1.4-1.1 2.6-3 2-3.3-.3 0 0-.5.5-1 .6-.7.8-1.3.7-2.1-.3-4-.2-4.7.7-5.1 3-1.5 7.2 3.2 7 8v2l1.5.9a9 9 0 0 1 2.6 2.2c1 1.2 1 1.5 1 4 0 1.7 0 2.4.3 2 .1-.4.3-.5.3-.3s.8.5 1.8.8c1 .2 3 1 4.6 1.8 7.1 3.6 11.1 8.5 11.5 14.3.1 2.1 0 3-1.3 6.6-1.7 5-3.4 8-7 12.1-2.2 2.5-2.9 3.5-3.2 4.9-.7 2.5-1.6 4.1-3.6 6.1-2.1 2-5.2 3.7-8.5 4.5a32 32 0 0 1-10.7 0zm9.8-16c1.9-.1 4.4-.5 5.5-.8 2.7-.7 8.9-4 8.6-4.6-.2-.6-1.9-1-1.9-.5 0 .2 0 .3-.2.2-.1-.1-.7 0-1.3.3-.6.4-2.4 1-4 1.4-12.2 3.4-26 .7-33-6.2-2.7-2.8-3.8-5.2-3.8-8.5 0-3.6 1-5.7 4.5-9 3.7-3.6 3.9-4.8.5-2.6-3.1 2-5.4 4.5-6.8 7.3-1 2-1.2 2.8-1.2 4.9 0 1.7.3 3 .8 4.2l1 2.7c.2 1 3.2 4.2 5.6 5.8 4 2.7 10.6 4.8 16.6 5.4 4 .4 5.2.4 9 0zm-19.2-12.8-.3-.4c-.2-.1-.4 0-.4.2s.2.3.4.3l.3-.1zm-1.5-1c-.4-.3-.8-.5-1-.4-.2.1-.1.4.3.7 1 .7 1.4.6.7-.2zm-1.3-1.5a.6.6 0 0 1-.1-.7c.1 0 0-.2-.2-.2s-.4-.2-.4-.5c0-.6-.4-.7-.8-.3-.4.3.7 2.1 1.3 2.1.4 0 .5-.1.2-.4zm38-2.7c0-.7 0-1.7-.2-2.2-.2-1-.3-1-.5.8-.2 1-.2 2 0 2.2.4.7.8.3.8-.8zm-4.5-5.4c0-.7-.1-1.3-.3-1.3-.2 0-.4.6-.4 1.3 0 .7.2 1.2.4 1.2s.3-.5.3-1.2zm-27-2.5c-.3-.3-.8-.5-1.1-.5-.3 0-.4-.2-.3-.3v-1c-.2-.4-.3-.4-.9 0-.5.3-.8.3-1.4 0-.7-.5-.7-.5 0 .6 1 1.3 3.5 2.6 4.1 2 .2-.2.1-.5-.3-.8zm33-1.4-.6-.6c-.5-.4-.6-.4-.1.2.4.5.7.7.7.4zm-22.9-24.5c0-.2-.2-.4-.4-.4-.1 0-.3.3-.3.6s.2.4.3.3l.4-.5z" style="fill:#fdd4db;stroke-width:.352778" transform="translate(-44.5 -173.2)"/>
  <path d="M76.3 245c-3.2-.7-6.5-2.5-8.7-4.7-2.2-2.2-3.3-4-3.9-6.8-.3-1.5-.8-2.2-2.8-4.4a31 31 0 0 1-8.4-18.8c.3-4.8 2.9-8.6 8-12 1.5-1 2.8-1.7 3-1.7.7 0 0 .6-2 1.7a20 20 0 0 0-7.3 7.7c-1 2-1.2 2.7-1.2 4.9 0 1.7.3 3 .8 4.2l1 2.7c.2 1 3.1 4.1 5.3 5.7a44 44 0 0 0 31.5 4.7c2.7-.7 8.9-4 8.6-4.6-.2-.6-1.9-1-1.9-.5 0 .2 0 .3-.2.2-.1-.1-.7 0-1.3.3-.6.4-2.4 1-4 1.4-12.2 3.4-26 .7-33-6.2-3.7-3.8-4.8-8-3-12.6.7-1.9 3.2-4.8 5.8-6.9l.8-.6v1.5c0 1.2 0 1.3.5 1 .3-.3.6-.9.6-1.4 0-1.9.6-2 1.2-.2 1 2.9 2 4 4.2 4.6 1.1.3 2.6.5 3.3.4h1.3l-1.2-.9a5 5 0 0 0-2.2-.8c-.7 0-1-.3-1.5-1.2-.4-.9-.7-1.2-1.4-1.1-.5 0-1 .2-1 .3 0 .2-.2 0-.5-.3-.4-.4-.7-1.3-.7-2.6-.2-2.2.2-3.4 2-5.5 1.6-1.7 1-2-.8-.3-1.6 1.6-1.5 1 .4-1.2.7-.9 1.7-1.8 2.3-2a9 9 0 0 0 2-1.4c.4-.5 1-.9 1.2-.9.2 0 .8-.3 1.3-.7.4-.4.8-.6 1-.5l-.7.9a3041.9 3041.9 0 0 0-3.4 3c-1.1 2.2-1 2.6.3 1.3l2.7-2.2c2.2-1.7 3.8-3.4 4.6-5.2.9-1.6.9-2.2.3-4.7-.6-2.7 0-3.5 2-3.5 1.6 0 1.9.1 3.2 1.5a9.4 9.4 0 0 1 2.6 7v1.8l1.5.7c.8.5 2 1.4 2.6 2.2 1 1.2 1 1.5 1 4 0 1.7 0 2.4.3 2 .1-.4.3-.5.3-.3 0 .3.2.5.5.5.9 0 3.8 1 6.3 2.3 6.6 3.3 10.7 8.4 11.1 13.9.1 1.9 0 2.9-1 5.8-2 6-3.4 8.7-7.8 13.6-1.7 2-2.4 3-2.7 4.4-1.3 5-6 9.1-12 10.6-2.9.6-8 .6-10.8 0zM71 218.5c-.2-.2 0-.3.5-.1l.7-.1c0-.2-.7-.4-1.5-.6-1.7-.2-3.5-1-3.2-1.4.2-.1-.2-.4-.8-.6-1-.4-2.6-2-2-2 .3 0 0-.6-.5-1.1-1.6-1.9-2.4-1.2-1.3 1 .3.7.7 1 1 .9.2-.2.2-.1 0 .1-.4.8 3.3 3.3 6 4l1.2.3-.1-.4zm31.2-7.4-.3-2.2c-.2-1-.3-1-.5.8-.2 1-.2 2 0 2.2.4.7.8.3.8-.8zm-4.6-5.4c0-.7-.1-1.3-.3-1.3-.2 0-.4.6-.4 1.3 0 .7.2 1.2.4 1.2s.3-.5.3-1.2zm6-3.9-.6-.6c-.5-.4-.6-.4-.1.2.4.5.7.7.7.4zM69 198.4c0-.2 0-.3 0 0-.2.1-.4.2-.6.1-.2-.1-.3 0-.3.2 0 .5.8.3 1-.3zm12.5-21.2c0-.6-.8-.8-1.3-.3-.7.8-.3 1.5.6 1 .4-.2.7-.5.7-.7z" style="fill:#fdc8d4;stroke-width:.352778" transform="translate(-44.5 -173.2)"/>
  <path d="M76.3 245c-3.2-.7-6.5-2.5-8.7-4.7-2.2-2.2-3.3-4-3.9-6.8-.3-1.5-.8-2.2-2.8-4.4a31 31 0 0 1-8.4-18.8c.3-4.8 2.9-8.6 8-12 1.5-1 2.8-1.7 3-1.7.7 0 0 .6-2 1.7a20 20 0 0 0-7.3 7.7c-1 2-1.2 2.7-1.2 4.9 0 1.7.3 3 .8 4.2l1 2.7c.2 1 3.1 4.1 5.3 5.7a44 44 0 0 0 31.5 4.7c2.7-.7 8.9-4 8.6-4.6-.2-.6-1.9-1-1.9-.5 0 .2 0 .3-.2.2-.1-.1-.7 0-1.3.3a41 41 0 0 1-18.5 2.7c-15.6-1.5-25.2-10.4-21.6-20a17 17 0 0 1 5-6.2c.5-.3.5-.1-.2 1.5-1 2.3-1.4 4-1 3.6.3-.1.4.4.4 1.3 0 2.2.4 3.1 1.1 3.1 1 0 1.2.6.5 1.2-.7.8-.6 1.3.6 3.2 1.3 2 3 3.3 5.4 4.1 1.8.7 5.5.9 5.5.4 0-.4-1.4-.8-2.2-.8-.3 0-.6 0-.6-.3s-.4-.4-1-.3c-.9.2-2.8-.8-2.3-1.2 0-.1-.4-.3-1.1-.4-1.2-.2-2-1.2-1.4-2 0-.2 0-.3-.2-.3s-.7-.6-1.1-1.3c-.6-1-.8-1.8-.7-3 0-.8.2-1.6.3-1.7.4-.3.5-2.4 0-2.7-.4-.3-1.5 2-1.4 3.3 0 .6 0 1.1-.2 1.1-.6 0-.7-3.8-.1-5.9.4-1.7 1.4-2.7 1.4-1.5 0 .9 1 3.2 1.5 3.2.2 0 .4-2.2.4-3.9 0-.5.2-.2 2 2 1.2 1.5 6.5 2.8 7.3 1.8.4-.4.1-.7-1.6-1.4-1-.4-2.1-.8-2.2-.7-.3 0-1-1.9-1-2.8 0-.3-.3-1-.6-1.6a4 4 0 0 1-.5-1.7c0-.6 0-.6-.7 0-.4.4-.7.8-.7 1l-.4 1c-.5.8-1-.3-.8-1.8a7 7 0 0 1 2-3.9l1-.8.2 1c.2.9.2.9 1.2-.6.5-.9 2-2.4 3.4-3.4 5.3-4 6.4-6.2 5.3-10.5-.6-2.5 0-3.3 2-3.3 1.6 0 1.9.1 3.2 1.5 2 2 2.7 4.4 2.5 7l-.2 1.9 1.8.8a6 6 0 0 1 2.8 2.5c1.3 2 1.3 3.2 0 4.6-.9 1.2-1.2 2.4-.6 2.9l.4.8.2.8c0 .5 1.1-1 1.4-2l.7-1.4c.7 0 3.9 1.2 6.1 2.3 6.6 3.3 10.7 8.4 11.1 13.9.1 1.9 0 2.9-1 5.8-2 6-3.4 8.7-7.8 13.6-1.7 2-2.4 3-2.7 4.4-1.3 5-6 9.1-12 10.6-2.9.6-8 .6-10.8 0zm26-33.7c0-1.7-.7-5.2-1-5.6-.2-.2-.3.9-.4 2.3a17 17 0 0 1-.6 4c-.5 1.5-.5 1.6.3 1.9 1 .4 1.6-.5 1.6-2.6zm2-1.6c-.1-.5-.2-.2-.2.8s0 1.4.1 1v-1.8zm-41.7.4H62c-.2.1-.2.2.2.2s.6 0 .5-.2zm34.9-3.4V202l-.6 1c-.4.5-.7 1.6-.9 2.4l-.2 2.4c0 .7 1.4-.2 1.7-1.1zm6.1-5-.6-.6c-.5-.4-.6-.4-.1.2.4.5.7.7.7.4zM80 187.1c1.2-2.4.8-2.7-.5-.3l-1.7 2.6c-2.6 3-2.9 3.6-.8 1.5 1.2-1 2.5-2.7 3-3.8zm.6-8.8c0-.2.2-.4.6-.5.9-.3.7-1.1-.3-1.2-1.1-.2-1.6.4-1.2 1.2.2.5.6.8.8.8.2 0 .3-.2.1-.3z" style="fill:#fdd9c2;stroke-width:.352778" transform="translate(-44.5 -173.2)"/>
  <path d="M76.3 245c-3.2-.7-6.5-2.5-8.7-4.7-2.2-2.2-3.3-4-3.9-6.8-.3-1.5-.8-2.2-2.8-4.4a30 30 0 0 1-8.3-17.9v-2.8l.2 2.6c.3 2.9 1.6 6.8 2.8 8.5 2.9 4 10.5 7.8 18.4 9.2a49 49 0 0 0 21-1.4c3.7-1.3 11.5-7.1 10.4-7.8-.6-.3 1-3.4 1.7-3.2.3 0 .4-.1.2-.3-.1-.2 0-.7.3-1 .3-.4.3-.5 0-.3s-.2 0 .1-.7a9 9 0 0 0 .1-5.6 12 12 0 0 1-.5-2.5c0-.9-.4-1.9-.8-2.3a15.2 15.2 0 0 0-4.3-3.8c-.4 0-.8-.2-.9-.4-.3-.6-6.1-3.3-6.4-3l2.2 1.3c10.7 5 13.4 14.5 6.1 21.5-9.2 8.9-29.7 9.6-41 1.5a20 20 0 0 1-3.7-3.4c-2-2.7-2.4-5-1.5-9.4 0-.7.2-1.5.3-1.8 0-.8.8-2 .8-1.5 0 .3.2.4.4.3.2-.2.3-.5.2-.7-.1-.3 0-.4.6-.3.5.1.6 0 .4-.2-.1-.2 0-.4.1-.4.2 0 .5-.5.8-1 .2-.7.6-1.1.7-1.1.2 0 .1.5-.2 1.1-.7 1.8-1 3.2-.5 3 .2-.2.3.3.3 1.2 0 2.2.4 3.1 1.1 3.1 1 0 1.2.6.5 1.2-.7.8-.6 1.3.6 3.2 1.3 2 3 3.3 5.4 4.1 1.8.7 5.5.9 5.5.4 0-.4-1.4-.8-2.2-.8-.3 0-.6 0-.6-.3s-.4-.4-1-.3c-.9.2-2.8-.8-2.3-1.2 0-.1-.4-.3-1.1-.4-1.2-.2-2-1.2-1.4-2 0-.2 0-.3-.2-.3s-.7-.6-1.1-1.3c-.6-1-.8-1.8-.7-3 0-.8.2-1.6.3-1.7.4-.3.5-2.4 0-2.7-.4-.3-1.5 2-1.4 3.3 0 .6 0 1.1-.2 1.1-.6 0-.7-3.8-.1-5.9.4-1.7 1.4-2.7 1.4-1.5 0 .9 1 3.2 1.5 3.2.2 0 .4-2.2.4-3.9 0-.5.2-.2 2 2 1.2 1.5 6.5 2.8 7.3 1.8.4-.4.2-.7-1.6-1.4-1-.4-2.1-.8-2.2-.7-.3 0-1-1.9-1-2.8 0-.3-.3-1-.6-1.6a4 4 0 0 1-.5-1.7c0-.6 0-.6-.7 0-.4.4-.7.8-.7 1l-.4 1c-.5.8-1-.3-.8-1.8a7 7 0 0 1 2-3.9l1-.8.2 1c.2.9.2.9 1.2-.6.5-.9 2-2.4 3.4-3.4 5.3-4 6.4-6.2 5.3-10.5-.6-2.5 0-3.3 2-3.3 1.6 0 1.9.1 3.2 1.5 2 2 2.7 4.4 2.5 7l-.2 1.9 1.8.8a6 6 0 0 1 2.8 2.5c1.3 2 1.3 3.2 0 4.6-.9 1.2-1.2 2.4-.6 2.9l.4.8.2.8c0 .5 1.1-1 1.4-2l.7-1.4a33.3 33.3 0 0 1 11.6 6c3 2.2 5.7 7.5 5.7 11.1 0 2-1.8 7.6-3.4 10.9-1.4 2.8-2.3 4-5.5 7.6-1.7 2-2.4 3-2.7 4.4-1.3 5-6 9.1-12 10.6-2.9.6-8 .6-10.8 0zm26-33.7c0-1.7-.7-5.2-1-5.6-.2-.2-.3.9-.4 2.3a17 17 0 0 1-.6 4c-.5 1.5-.5 1.6.3 1.9 1 .4 1.6-.5 1.6-2.6zm2-1.6c-.1-.5-.2-.2-.2.8s0 1.4.1 1v-1.8zm-41.7.4H62c-.2.1-.2.2.2.2s.6 0 .5-.2zm34.9-3.4V202l-.6 1c-.4.5-.7 1.6-.9 2.4l-.2 2.4c0 .7 1.4-.2 1.7-1.1zM79.9 187c1.2-2.4.8-2.7-.5-.3l-1.7 2.6c-2.6 3-2.9 3.6-.8 1.5 1.2-1 2.5-2.7 3-3.8zm.6-8.8c0-.2.2-.4.6-.5.9-.3.7-1.1-.3-1.2-1.1-.2-1.6.4-1.2 1.2.2.5.6.8.8.8.2 0 .3-.2.1-.3zm-27.5 29a16 16 0 0 1 4.3-6.5c2-1.8 6-4.4 6.3-4.1.1 0-.6.6-1.5 1.1a19 19 0 0 0-8 8.1c-.8 1.5-1.2 2-1.1 1.4z" style="fill:#fdc3cc;stroke-width:.352778" transform="translate(-44.5 -173.2)"/>
  <path d="M76.3 245c-3.2-.7-6.5-2.5-8.7-4.7-2.2-2.2-3.3-4-3.9-6.8-.3-1.5-.8-2.2-2.8-4.4a30 30 0 0 1-8.3-17.9v-2.8l.2 2.6c.3 2.9 1.6 6.8 2.8 8.5 2.9 4 10.5 7.8 18.4 9.2a49 49 0 0 0 21-1.4c3.7-1.3 11.5-7.1 10.4-7.8-.6-.3 1-3.4 1.7-3.2.3 0 .4-.1.2-.3-.1-.2 0-.7.3-1 .3-.4.3-.5 0-.3s-.2 0 .1-.7a9 9 0 0 0 .1-5.6 12 12 0 0 1-.5-2.5c0-.9-.4-1.9-.8-2.3a15.2 15.2 0 0 0-4.3-3.8c-.4 0-.8-.2-.9-.4-.1-.2-1.8-1.2-3.8-2.1-3.4-1.6-5.1-2.8-4.2-2.8a32 32 0 0 1 11.7 6c3 2.2 5.7 7.5 5.7 11.1 0 2-1.8 7.6-3.4 10.9-1.4 2.8-2.3 4-5.5 7.6-1.7 2-2.4 3-2.7 4.4-1.3 5-6 9.1-12 10.6-2.9.6-8 .6-10.8 0zm-.4-19c-7.6-1.2-14.2-4.5-17.4-8.7-2-2.7-2.4-5-1.5-9.4 0-.7.2-1.5.3-1.8 0-.8.8-2 .8-1.5 0 .3.2.4.4.3.2-.2.3-.5.2-.7-.1-.3 0-.4.6-.3.5.1.6 0 .4-.2-.1-.2 0-.4.1-.4.2 0 .6-.5 1-1.2.2-.6.4-.8.3-.4-.2.4-.4 1.5-.6 2.5l-.8 3c-.3.6-.6 2.3-.7 3.7-.3 3.2.3 5.1 2 6.7l1.1 1-.7-1a4 4 0 0 1-.8-1.7c0-.3-.2-.6-.5-.7-.6-.2-.5-6.3.2-7.3.5-.7.6-.7.8.8.2 2 1.6 5 2.8 6.5 1.9 2.2 6 4 9.3 4 1.6 0 2-.3 1.5-1.1-.3-.5-.3-.5-.4 0 0 .3 0 .4-.2.2s-1.4-.8-2.8-1.2a17 17 0 0 1-3.4-1.5c-.5-.4-1.2-.6-1.4-.5-.2.2-.3.1-.1-.1.1-.3 0-.4-.3-.4-.4 0-.6-.3-.6-1 0-.4-.1-.8-.3-.8-.3 0-1-2-1-3 0-.4.3-.2 1.3 1 .8.8 1.5 1.4 1.6 1.3.1-.1-.2-.7-.7-1.2a6.8 6.8 0 0 1-2-4.7V205l.8 1c.8 1 2 1.3 1.6.3-.2-.3-.3-1.1-.4-1.8-.1-1.1.1-1.3 1.6-.7a14 14 0 0 0 5 1.4 6 6 0 0 0 1.8-.2l1-.3-.8-.6c-.4-.4-1-.6-1-.5-.2.1-.4 0-.4-.2s0-.3-.2-.3c-.6.2-3-1.6-3-2.2 0-.3-.2-1.1-.6-1.9-.6-1.1-.6-1.6-.4-3.2.5-3.1 1.2-4 6.1-8a25 25 0 0 0 3.2-3.2l1.4-1.9-.2 1.3c-.4 2-1.5 3.9-4 6.8-1.6 1.8-2.4 3-2.5 4-.2.9 0 1.2.3 1.2s.6-.5.8-1c.1-.7 1.2-2.2 2.7-3.9 2.7-2.9 3.7-4.7 4-7.2.3-1.4.2-1.6-.4-1.8-.5 0-.8-.6-1-1.4 0-.8-.3-1.6-.4-1.9-.2-.4 0-.5.5-.2s.8.2 1.4-.2c1-.8.7-1.7-.7-2-.8 0-1 0-1.3.7-.3.6-.3.6-.3 0 0-1.3.6-2 2.2-2 3.4 0 6.2 4.4 5.5 9-.2 1.6-.1 1.9.3 1.8 1-.3 3.7 1.7 4.6 3.4 1 2 .8 3.2-1 5l-1.4 1.2.6 1.5c.3.8.8 1.4 1 1.4.5 0 1.9-1.5 1.9-2.1 0-1 .4-1 1.1-.2.4.4.6.5.4.2-.2-.4 0-.4.5 0 .3.4 1.6 1 2.7 1.6 4.9 2.3 8.5 6.2 9.5 10.2 1.5 5.8-1.9 11.3-9 14.9-5 2.4-7.8 3-15 3.2l-7-.1zm25.7-11.9a8 8 0 0 0 .7-2c.1-1.3-.4-5-1-6.4-.6-1.5-1.7-1.8-2-.5v.7c.2 0 .4.4.4 1s.1 1.2.3 1.2c.4.2.2 3.6-.2 4.7s-.5 1.4-.2 1.3c.1 0 .4.2.5.6.5.9 1 .7 1.5-.6zm2.9-2.8-.2-1.7c0-.5-.2.3-.5 1.6-.2 1.4-.6 2.8-.7 3.2-.1.4.2 0 .6-.8.5-.9.8-2 .8-2.3zm-7.2-4c.4-.5.7-5.4.2-5.4-.1 0-.2.1-.2.3 0 .2-.4.8-1 1.4-.8 1-1.4 3.5-1 4.5.2.6 1.2.2 2-.7zM90.6 190c0-.3-.3-.9-.5-1.3-.5-.6-.6-.6-.6.4 0 .6.1 1.2.3 1.3.4.5.8.3.8-.4zm-5-4.3c-.2-.3-.3-.2-.3.2s0 .6.2.5v-.7zM53 207.3a16 16 0 0 1 4.3-6.5c2-1.8 6-4.4 6.3-4.1.1 0-.6.6-1.5 1.1a19 19 0 0 0-8 8.1c-.8 1.5-1.2 2-1.1 1.4zm9.5-4.5.2-1c0-.2.2-.3.4-.3.5 0 .4 1.7-.3 2-.4.1-.5 0-.3-.7zm4-6.2c-.5-.6 1.4-4.3 2.2-4.3v1.3c0 1.3-1.9 3.6-2.3 3z" style="fill:#e3dbcb;stroke-width:.352778" transform="translate(-44.5 -173.2)"/>
  <path d="M76.9 245c-6.6-1.4-11.6-5.6-13-11-.5-2-1-2.7-2.7-4.6a30.7 30.7 0 0 1-8.7-18.9v-2.1l.3 2.6a21 21 0 0 0 2.8 8.5c2.9 4 10.5 7.8 18.4 9.2a49 49 0 0 0 21-1.4c3.7-1.3 11.5-7.1 10.4-7.8-.6-.3 1-3.4 1.7-3.2.3 0 .4-.1.2-.3-.1-.2 0-.7.3-1 .3-.4.3-.5 0-.3s-.2 0 .1-.7a9 9 0 0 0 .1-5.6 12 12 0 0 1-.5-2.5c0-.9-.4-1.9-.8-2.3a15.2 15.2 0 0 0-4.3-3.8c-.4 0-.8-.2-.9-.4-.1-.2-1.8-1.2-3.8-2.1-5.2-2.5-6-3.7-1.5-2 5 2 9.2 4.8 11.7 8.1 1.7 2.3 3 5.7 3 8.2a32.6 32.6 0 0 1-9.3 18.8c-1.5 1.5-2 2.2-2.2 3.4-.6 3.6-3.7 7.6-7.5 9.5-4.3 2.1-10 2.8-14.8 1.8zm-4.2-4.2c-.4-3.7-.4-3.7-3.5-5.3l-2.9-1.4c0 .1.6 2.7 1.2 4.4.4 1.1 1 1.7 2.7 2.9a15 15 0 0 0 2.5 1.4c.2 0 .2-1 0-2zm-3.6-8.1c-.7-1-1.5-2.1-1.7-2.6a22.4 22.4 0 0 0-8.5-6.4c-.2.5 2.5 4.7 4.1 6.4a23 23 0 0 0 7.2 4.2c.2 0-.3-.7-1-1.6zM76 226c-7.6-1.2-14.2-4.5-17.4-8.7-2-2.7-2.4-5-1.5-9.4 0-.7.2-1.5.3-1.8 0-.8.8-2 .8-1.5 0 .3.2.4.4.3.2-.2.3-.5.2-.7-.1-.3 0-.4.6-.3.5.1.6 0 .4-.2-.1-.2 0-.4.1-.4.2 0 .6-.5 1-1.2.2-.6.4-.8.3-.4-.2.4-.4 1.5-.6 2.5l-.8 3c-.3.6-.6 2.3-.7 3.7-.3 3.2.3 5.1 2 6.7l1.1 1-.7-1a4 4 0 0 1-.8-1.7c0-.3-.2-.6-.5-.7-.6-.2-.5-6.3.2-7.3.5-.7.6-.7.8.8.2 2 1.6 5 2.8 6.5 1.9 2.2 6 4 9.3 4 1.6 0 2-.3 1.5-1.1-.3-.5-.3-.5-.4 0 0 .3 0 .4-.2.2s-1.4-.8-2.8-1.2a17 17 0 0 1-3.4-1.5c-.5-.4-1.2-.6-1.4-.5-.2.2-.3.1-.1-.1.1-.3 0-.4-.3-.4-.4 0-.6-.3-.6-1 0-.4-.1-.8-.3-.8-.3 0-1-2-1-3 0-.4.3-.2 1.3 1 .8.8 1.5 1.4 1.6 1.3.1-.1-.2-.7-.7-1.2a6.8 6.8 0 0 1-2-4.7V205l.8 1c.8 1 2 1.3 1.6.3-.2-.3-.3-1.1-.4-1.8-.1-1.1.1-1.3 1.6-.7a14 14 0 0 0 5 1.4 6 6 0 0 0 1.8-.2l1-.3-.8-.6c-.4-.4-1-.6-1-.5-.2.1-.4 0-.4-.2s0-.3-.2-.3c-.6.2-3-1.6-3-2.2 0-.3-.2-1.1-.6-1.9-.6-1.1-.6-1.6-.4-3.2.5-3.1 1.2-4 6.1-8a25 25 0 0 0 3.2-3.2l1.4-1.9-.2 1.3c-.4 2-1.5 3.9-4 6.8-1.6 1.8-2.4 3-2.5 4-.2.9 0 1.2.3 1.2s.6-.5.8-1c.1-.7 1.2-2.2 2.7-3.9 2.7-2.9 3.7-4.7 4-7.2.3-1.4.2-1.6-.4-1.8-.5 0-.8-.6-1-1.4 0-.8-.3-1.6-.4-1.9-.2-.4 0-.5.5-.2s.8.2 1.4-.2c1-.8.7-1.7-.7-2-.8 0-1 0-1.3.7-.3.6-.3.6-.3 0 0-1.3.6-2 2.2-2 3.4 0 6.2 4.4 5.5 9-.2 1.6-.1 1.9.3 1.8 1-.3 3.7 1.7 4.6 3.4 1 2 .8 3.2-1 5l-1.4 1.2.6 1.5c.3.8.8 1.4 1 1.4.5 0 1.9-1.5 1.9-2.1 0-1 .4-1 1.1-.2.4.4.6.5.4.2-.2-.4 0-.4.5 0 .3.4 1.6 1 2.7 1.6 4.9 2.3 8.5 6.2 9.5 10.2 1.5 5.8-1.9 11.3-9 14.9-5 2.4-7.8 3-15 3.2l-7-.1zm25.7-11.9a8 8 0 0 0 .7-2c.1-1.3-.4-5-1-6.4-.6-1.5-1.7-1.8-2-.5v.7c.2 0 .4.4.4 1s.1 1.2.3 1.2c.4.2.2 3.6-.2 4.7s-.5 1.4-.2 1.3c.1 0 .4.2.5.6.5.9 1 .7 1.5-.6zm2.9-2.8-.2-1.7c0-.5-.2.3-.5 1.6-.2 1.4-.6 2.8-.7 3.2-.1.4.2 0 .6-.8.5-.9.8-2 .8-2.3zm-7.2-4c.4-.5.7-5.4.2-5.4-.1 0-.2.1-.2.3 0 .2-.4.8-1 1.4-.8 1-1.4 3.5-1 4.5.2.6 1.2.2 2-.7zM90.6 190c0-.3-.3-.9-.5-1.3-.5-.6-.6-.6-.6.4 0 .6.1 1.2.3 1.3.4.5.8.3.8-.4zm-5-4.3c-.2-.3-.3-.2-.3.2s0 .6.2.5v-.7zM53 207.3a16 16 0 0 1 4.3-6.5c2-1.8 6-4.4 6.3-4.1.1 0-.6.6-1.5 1.1a19 19 0 0 0-8 8.1c-.8 1.5-1.2 2-1.1 1.4zm9.5-4.5.2-1c0-.2.2-.3.4-.3.5 0 .4 1.7-.3 2-.4.1-.5 0-.3-.7zm4-6.2c-.5-.6 1.4-4.3 2.2-4.3v1.3c0 1.3-1.9 3.6-2.3 3z" style="fill:#fdb7c6;stroke-width:.352778" transform="translate(-44.5 -173.2)"/>
  <path d="M76.9 245c-6.6-1.4-11.6-5.6-13-11-.5-2-1-2.7-2.7-4.6a30.7 30.7 0 0 1-8.7-18.9v-2.1l.3 2.6a21 21 0 0 0 2.8 8.5c2.9 4 10.5 7.8 18.4 9.2a49 49 0 0 0 21-1.4c3.7-1.3 11.5-7.1 10.4-7.8-.6-.3 1-3.4 1.7-3.2.3 0 .4-.1.2-.3-.1-.2 0-.7.3-1 .3-.4.3-.5 0-.3s-.2 0 .1-.7a9 9 0 0 0 .1-5.6 12 12 0 0 1-.5-2.5c0-.9-.4-1.9-.8-2.3a15.2 15.2 0 0 0-4.3-3.8c-.4 0-.8-.2-.9-.4a15 15 0 0 0-3.5-2c-1.7-.8-3.5-1.8-3.8-2.2-.9-1-.8-1 2 .1 5 2 9.2 4.8 11.7 8.1 1.7 2.3 3 5.7 3 8.2a32.6 32.6 0 0 1-9.3 18.8c-1.5 1.5-2 2.2-2.2 3.4-.6 3.6-3.7 7.6-7.5 9.5-4.3 2.1-10 2.8-14.8 1.8zm-4.2-4.2c-.4-3.7-.4-3.7-3.5-5.3l-2.9-1.4c0 .1.6 2.7 1.2 4.4.4 1.1 1 1.7 2.7 2.9a15 15 0 0 0 2.5 1.4c.2 0 .2-1 0-2zm-3.6-8.1c-.7-1-1.5-2.1-1.7-2.6a22.4 22.4 0 0 0-8.5-6.4c-.2.5 2.5 4.7 4.1 6.4a23 23 0 0 0 7.2 4.2c.2 0-.3-.7-1-1.6zm5.6-7c-3.7-.6-5.5-1.2-8-2.3-3.2-1.5-6.6-4-8.2-6.1-2-2.7-2.4-5-1.5-9.4 0-.7.2-1.5.3-1.8 0-.8.8-2 .8-1.5 0 .3.2.4.4.3.2-.2.3-.5.2-.7-.1-.3 0-.4.6-.3.5.1.6 0 .4-.2-.1-.2 0-.4.1-.4.2 0 .6-.5 1-1.2a35.9 35.9 0 0 0-.3 2.2l-1.1 3.1a13 13 0 0 0 .1 8.2c1 2 3.7 4.5 6.4 6 2.3 1.2 2.8 1 .8-.3-2.3-1.6-4.3-4-4.3-5.2 0-.4-.5-1.8-1.1-3-1-2-1-2.4-.7-3.8.2-1.1.3-1.3.3-.6a14 14 0 0 0 3.1 6.6c2.5 2.8 7.4 4.4 11.2 3.7l1.4-.2-1-.6c-.6-.3-1.4-.5-1.9-.5-.4 0-.8 0-.8-.3l-1.8-.7c-2-.4-5.2-2.5-5.2-3.4 0-.3-.2-.5-.4-.5s-.3-.1-.2-.3c.1-.2 0-.4-.1-.6-.2 0-.4-.4-.4-.8s.2-.3 1 .4a7 7 0 0 0 4.2 2c.7 0 .8-.1.4-.3a18 18 0 0 1-2.5-1.8c-2-1.6-3.4-3.8-3.4-5.3 0-.7.1-.7 1.7.8 2.3 2.2 3.2 2.3 2.2.3-.8-1.6-1-2.7-.4-3 .2-.2.6-.1.8 0 .4.4 2.1.9 3.8 1 1.3.2 3.2-.2 3.2-.6 0-.4-1.3-1.4-1.8-1.5l-1.7-.8c-1.6-1-2.3-2.4-2.7-5.4-.4-3.2.7-5 4.5-8a50.8 50.8 0 0 0 5.2-4.2c0 .8-1.8 3.5-3.6 5.6-2.2 2.6-3.4 4.7-3.6 6.2-.2 1-.1 1 1.5 1s1.7 0 1.4-.9c-.7-1.9-.4-2.7 2.4-5.7 3-3.1 4-5.3 4.1-7.7 0-1.3-.1-1.8-1-2.6-1.1-1.2-1.1-1.4.3-1.8.8-.3 1.2-.6 1.2-1.2.2-.9-1-1.6-2-1.4-.6.2-.7 0-.6-.4 0-.4.5-.6 1.7-.7 1.3 0 1.8 0 2.7.9a8.2 8.2 0 0 1 2.8 5.8c.1 3.3-.6 5-1 2.4-.2-.6-.2-.5-.3.4l-.2 2c-.2.4 0 .5.9.4.6 0 1.3-.3 1.5-.5.7-1 3.7 1.4 4.5 3.5.7 1.8-.6 3.8-3.2 5-1.1.5-1.4.8-1.4 1.6 0 .5.2 1.2.5 1.4.3.2.6.7.6 1 0 1.3 3.5-.9 4.3-2.8l.3-.8.8 1.2c.4.7.7 1.8.7 2.5 0 1 .2 1.4.6 1.4.8 0 1.3-1.6.7-2.3-1-1.1-.1-1.2 1.9-.2 10.1 5.1 12.5 14.4 5.4 21.2a28.2 28.2 0 0 1-11.4 6c-3.6 1-13 1.2-17.1.5zm28.1-9.5c.4-.3.8-.5 1-.3l.8-.4c.8-.9.7-3.3-.3-6.5-.8-2.9-1.1-3.2-.7-.8.4 2.3 0 5-1.4 7.3-.7 1.3-.5 1.5.6.7zm-1.9-1c1.5-1.7 1.8-3.4 1.2-6.5-.8-3.5-1.5-5-3-5.9-.7-.4-1.1-1-1.1-1.4 0-.6-.1-.6-.6.3a13 13 0 0 1-1.9 2.6c-1.8 2-2.4 4-1.5 5 .4.4.7.3 2-.7.7-.6 1.4-1 1.5-1l-.5 2.3c-.7 2-.7 2.1 0 2 .4-.2.6 0 .6.4 0 .3-.1.5-.4.3-.3-.2-.3-.1-.2 0l.7.4.6.1c.3 0 .3 1.1-.1 1.8-.2.3-.1.6.3 1 1 .7 1.4.6 2.4-.6zm-10.5-23.6c-.1-.2 0-.3.1-.3 1 0 .4-2.5-.7-3.5-.5-.3-.6-.2-.8 1.2-.3 2 0 3 1 3 .3 0 .5-.2.4-.4zM53 207.3a16 16 0 0 1 4.3-6.5c2-1.8 6-4.4 6.3-4.1.1 0-.6.6-1.5 1.1a19 19 0 0 0-8 8.1c-.8 1.5-1.2 2-1.1 1.4zm14.5-12.5c-.2-.2 0-.9.5-1.5.7-1.1.7-1.1.7-.2 0 1-.9 2.3-1.2 1.7z" style="fill:#f3ceb4;stroke-width:.352778" transform="translate(-44.5 -173.2)"/>
  <path d="M76.9 245c-6.6-1.4-11.6-5.6-13-11-.5-2-1-2.7-2.7-4.6-2.7-3-4.6-5.8-6-9-1.5-3-2-4.8-.8-2.6.5.8 1.6 2.4 2.6 3.4s1.6 2 1.5 2c-.3.3 3 5.3 4.5 6.9a20 20 0 0 0 6.7 4c.8.3.7.1-.6-1.4a8 8 0 0 1-1.5-2.2c0-.7-2.7-3.5-4.4-4.5l-1.6-1s.9.2 1.9.7c10 4.3 23.1 4.9 32.8 1.2a26 26 0 0 0 12.5-10.7c.6-1.4 1-3 1.1-5 .3-2.8.3-2.8.6-1.2.3 2.1 0 4-1.3 7.7a30 30 0 0 1-7.3 12.2c-2 2-2.5 2.8-2.8 4.3-2 8.2-12 13.1-22.2 10.9zm-4.2-4.2c-.4-3.7-.4-3.7-3.5-5.3l-2.9-1.4c0 .1.6 2.7 1.2 4.4.4 1.1 1 1.7 2.7 2.9a15 15 0 0 0 2.5 1.4c.2 0 .2-1 0-2zm2-15c-8.4-1.6-15.8-6.1-17.5-10.8-.8-2.4-.5-5.6.8-7 1-1 1.7-1.1 1.1 0-.6 1.1-.3 5.8.5 7.6.8 2 3.5 4.5 6.3 6 2.3 1.2 2.8 1 .8-.3-2.3-1.6-4.3-4-4.3-5.2 0-.4-.5-1.8-1.1-3-1-2-1-2.4-.7-3.8.2-1.1.3-1.3.3-.6a14 14 0 0 0 3.1 6.6c2.5 2.8 7.4 4.4 11.2 3.7l1.4-.2-1-.6c-.6-.3-1.4-.5-1.9-.5-.4 0-.8 0-.8-.3l-1.8-.7c-2-.4-5.2-2.5-5.2-3.4 0-.3-.2-.5-.4-.5s-.3-.1-.2-.3c.1-.2 0-.4-.1-.6-.2 0-.4-.4-.4-.8s.2-.3 1 .4a7 7 0 0 0 4.2 2c.7 0 .8-.1.4-.3a18 18 0 0 1-2.5-1.8c-2-1.6-3.4-3.8-3.4-5.3 0-.7.1-.7 1.7.8 2.3 2.2 3.2 2.3 2.2.3-.8-1.6-1-2.7-.4-3 .2-.2.6-.1.8 0 .4.4 2.1.9 3.8 1 1.3.2 3.2-.2 3.2-.6 0-.4-1.3-1.4-1.8-1.5l-1.7-.8c-1.6-1-2.3-2.4-2.7-5.4-.4-3.2.7-5 4.5-8a50.8 50.8 0 0 0 5.2-4.2c0 .8-1.8 3.5-3.6 5.6-2.2 2.6-3.4 4.7-3.6 6.2-.2 1-.1 1 1.5 1s1.7 0 1.4-.9c-.7-1.9-.4-2.7 2.4-5.7 3-3.1 4-5.3 4.1-7.7 0-1.3-.1-1.8-1-2.6-1.1-1.2-1.1-1.4.3-1.8.8-.3 1.2-.6 1.2-1.2.2-.9-1-1.6-2-1.4-.6.2-.7 0-.6-.4 0-.4.5-.6 1.7-.7 1.3 0 1.8 0 2.7.9a8.2 8.2 0 0 1 2.8 5.8c.1 3.3-.6 5-1 2.4-.2-.6-.2-.5-.3.4l-.2 2c-.2.4 0 .5.9.4.6 0 1.3-.3 1.5-.5.7-1 3.7 1.4 4.5 3.5.7 1.8-.6 3.8-3.2 5-1.1.5-1.4.8-1.4 1.6 0 .5.2 1.2.5 1.4.3.2.6.7.6 1 0 1.3 3.5-.9 4.3-2.8l.3-.8.8 1.2c.4.7.7 1.8.7 2.5 0 1 .2 1.4.6 1.4.8 0 1.3-1.6.7-2.3-.9-1 0-1 1.8 0 6 3 9 7 9.4 11.8.2 3.5-.8 5.9-4 9a24 24 0 0 1-11 6 25 25 0 0 1-9 1c-3.8.1-6.7 0-8.5-.3zm28.1-9.6c.4-.3.8-.5 1-.3l.8-.4c.8-.9.7-3.3-.3-6.5-.8-2.9-1.1-3.2-.7-.8.4 2.3 0 5-1.4 7.3-.7 1.3-.5 1.5.6.7zm-1.9-1c1.5-1.7 1.8-3.4 1.2-6.5-.8-3.5-1.5-5-3-5.9-.7-.4-1.1-1-1.1-1.4 0-.6-.1-.6-.6.3a13 13 0 0 1-1.9 2.6c-1.8 2-2.4 4-1.5 5 .4.4.7.3 2-.7.7-.6 1.4-1 1.5-1l-.5 2.3c-.7 2-.7 2.1 0 2 .4-.2.6 0 .6.4 0 .3-.1.5-.4.3-.3-.2-.3-.1-.2 0l.7.4.6.1c.3 0 .3 1.1-.1 1.8-.2.3-.1.6.3 1 1 .7 1.4.6 2.4-.6zm-10.5-23.6c-.1-.2 0-.3.1-.3 1 0 .4-2.5-.7-3.5-.5-.3-.6-.2-.8 1.2-.3 2 0 3 1 3 .3 0 .5-.2.4-.4zm15.9 10.6c-.6-.9-4.6-3.5-8.3-5.3l-3.6-2c.8 0 5.6 2.2 7.8 3.6 2.1 1.4 5 4 4.5 4-.1 0-.3 0-.4-.3zm-38.8-7.4c-.2-.2 0-.9.5-1.5.7-1.1.7-1.1.7-.2 0 1-.9 2.3-1.2 1.7z" style="fill:#fdadc1;stroke-width:.352778" transform="translate(-44.5 -173.2)"/>
  <path d="M76.9 245c-6.6-1.4-11.6-5.6-13-11-.5-2-1-2.7-2.7-4.6-2.7-3-4.6-5.8-6-9-1.5-3-2-4.8-.8-2.6.5.8 1.6 2.4 2.6 3.4s1.6 2 1.5 2c-.3.3 3 5.3 4.5 6.9a20 20 0 0 0 6.7 4c.8.3.7.1-.6-1.4a8 8 0 0 1-1.5-2.2c0-.7-2.7-3.5-4.4-4.5l-1.6-1s.9.2 1.9.7c10 4.3 23.1 4.9 32.8 1.2a26 26 0 0 0 12.5-10.7c.6-1.4 1-3 1.1-5 .3-2.8.3-2.8.6-1.2.3 2.1 0 4-1.3 7.7a30 30 0 0 1-7.3 12.2c-2 2-2.5 2.8-2.8 4.3-2 8.2-12 13.1-22.2 10.9zm-4.2-4.2c-.4-3.7-.4-3.7-3.5-5.3l-2.9-1.4c0 .1.6 2.7 1.2 4.4.4 1.1 1 1.7 2.7 2.9a15 15 0 0 0 2.5 1.4c.2 0 .2-1 0-2zm2-15c-8.4-1.6-15.8-6.1-17.5-10.8-.8-2.4-.5-5.6.8-7 1-1 1.7-1.1 1.1 0-.6 1.1-.3 5.8.5 7.6.8 2 3.5 4.5 6.3 6 2.3 1.2 2.8 1 .8-.3-2.3-1.6-4.3-4-4.3-5.2 0-.4-.5-1.8-1.1-3-1-2-1-2.4-.7-3.8.2-1.1.3-1.3.3-.6a14 14 0 0 0 3.1 6.6c2.5 2.8 7.4 4.4 11.2 3.7l1.4-.2-1-.6c-.6-.3-1.4-.5-1.9-.5-.4 0-.8 0-.8-.3l-1.8-.7c-2-.4-5.2-2.5-5.2-3.4 0-.3-.2-.5-.4-.5s-.3-.1-.2-.3c.1-.2 0-.4-.1-.6-.2 0-.4-.4-.4-.8s.2-.3 1 .4a7 7 0 0 0 4.2 2c.7 0 .8-.1.4-.3a18 18 0 0 1-2.5-1.8c-2-1.6-3.4-3.8-3.4-5.3 0-.7.1-.7 1.7.8 2.3 2.2 3.2 2.3 2.2.3-.8-1.6-1-2.7-.4-3 .2-.2.6-.1.8 0 .4.4 2.1.9 3.8 1 1.3.2 3.2-.2 3.2-.6 0-.4-1.3-1.4-1.8-1.5l-1.7-.8c-1.6-1-2.3-2.4-2.7-5.4-.4-3.2.7-5 4.5-8a50.8 50.8 0 0 0 5.2-4.2c0 .8-1.8 3.5-3.6 5.6-2.2 2.6-3.4 4.7-3.6 6.2-.2 1-.1 1 1.5 1s1.7 0 1.4-.9c-.7-1.9-.4-2.7 2.4-5.7 3-3.1 4-5.3 4.1-7.7 0-1.3-.1-1.8-1-2.6-1.1-1.2-1.1-1.4.3-1.8.8-.3 1.2-.6 1.2-1.2.2-.9-1-1.6-2-1.4-.6.2-.7 0-.6-.4 0-.4.5-.6 1.7-.7 2-.1 3 .7 4.5 3.3 1.2 2 1.4 3 .6 2.4-.7-.7-.9-.2-.4.9.3.5.5 1.4.5 2 0 .9-.1.7-.4-.6-.2-1-.5-1.7-.7-1.7a10 10 0 0 0-.3 3v3l1-.3.8-.2c0 .2.3 0 .6-.3.6-.6 1.6-.3 1.5.3l.2 1c.1.3-.1 1.1-.5 1.8-1.4 2.3-.2 3.9 2 2.5 1-.7 1-2.4.2-3.7-.3-.4-.4-.7-.3-.7l.9 1.1c.8 1.3.9 2.8.3 3.8-.4.8-2.7 2.3-4 2.7-.5.1-1 .5-1.3 1-.4.7-.1 3 .4 3 .2 0 .3.1.2.3 0 .1.5.2 1.3.1 1.6-.1 3-1.2 4.6-3.4.5-.6.5-.6 1 .4.4.7.7 1.4.7 1.8 0 .9-2 3.7-2.4 3.3l.2.4c.3.4.6.5.7.4.1-.2.4-.3.6-.3.8 0 2.2-1 2.7-1.9.6-1 .5-1.6-.4-2.6-.5-.7-.5-.7.3-.4.5.1 2 .9 3.3 1.7 6.2 3.7 9 9.7 7 15.1a10 10 0 0 1-1 2.2c-.2 0-.2-.8-.2-2 .2-2-1-6.2-2.2-8.8-.8-1.4-1-1.3-.4.3l.5 1.5s0 .8.2 1.5c.4 1.7-.5 5.2-1.9 7.2-1.2 1.8-1.3 2-.3 1.5.5-.2.7-.2.7.2 0 .9.8.9 2 0 .8-.5.2.1-1 1.4-2.8 2.6-6 4.3-10.7 5.7-2.8.8-4 1-9 1-3.9.1-6.8 0-8.6-.3zm25.6-9.5c2-2.4 2.5-4.3 2-7.7-.6-2.7-1.8-5.2-3.5-6.7-1.1-1-1.1-1-1.4-.3-.3 1-3 4-4.6 4.9-.9.5-1.1 1-1 1.3.2.3.3 1 .2 1.4 0 1.6 1.2 1.4 3.9-.3l1.2-.9-.9 1.5c-.4.7-1.3 2-2 2.6-1.5 1.7-2.1 2.7-1.6 2.3.3-.1.5 0 .7.3.1.5.3.5.7.2.3-.3.5-.3.5 0 0 .2.1.3.3.2.2-.1.4 0 .4.2s.3.3.7.3c.6 0 .7.1.3.6-.3.4-.3.5.2.7h1c.4-.1.7 0 .8.3.2.6 1 .3 2.1-1zm6-14c-.6-1-4.6-3.6-8.3-5.4l-3.6-2c.8 0 5.6 2.2 7.8 3.6 2.1 1.4 5 4 4.5 4-.1 0-.3 0-.4-.3zm-38.8-7.5c-.2-.2 0-.9.5-1.5.7-1.1.7-1.1.7-.2 0 1-.9 2.3-1.2 1.7z" style="fill:#fdb2bc;stroke-width:.352778" transform="translate(-44.5 -173.2)"/>
  <path d="M76.9 245c-6.6-1.4-11.6-5.6-13-11-.5-2-1-2.7-2.7-4.6-2.7-3-4.6-5.8-6-9-1.5-3-2-4.8-.8-2.6.5.8 1.6 2.4 2.6 3.4s1.6 2 1.5 2c-.3.3 3 5.3 4.5 6.9a20 20 0 0 0 6.7 4c.8.3.7.1-.6-1.4a8 8 0 0 1-1.5-2.2c0-.7-2.7-3.5-4.4-4.5l-1.6-1s.9.2 1.9.7c10 4.3 23.1 4.9 32.8 1.2a26 26 0 0 0 12.5-10.7c.6-1.4 1-3 1.1-5 .3-2.8.3-2.8.6-1.2.3 2.1 0 4-1.3 7.7a30 30 0 0 1-7.3 12.2c-2 2-2.5 2.8-2.8 4.3-2 8.2-12 13.1-22.2 10.9zm-4.2-4.2c-.4-3.7-.4-3.7-3.5-5.3l-2.9-1.4c0 .1.6 2.7 1.2 4.4.4 1.1 1 1.7 2.7 2.9a15 15 0 0 0 2.5 1.4c.2 0 .2-1 0-2zm3.4-15.6c-2.7-.9-4.6-1.7-7.6-3.3a20.2 20.2 0 0 1-7.4-10.3c-.2-1.4-.2-1.4.8.7 2.7 5.5 7.7 7.7 15.6 6.7l4.3-.9.8-.3h-1l-6.2-.6c-3.7-.3-6.7-1.4-8.2-3-1.4-1.6-1.3-2.2.2-1.2.7.4 4 1.2 5 1.2s.5-.5-1-1.2c-2.3-.9-6.2-4.6-6.4-6l-.3-1.2 1.4 1.3a9.4 9.4 0 0 0 5.3 2.7l1.3.1-1.5-1.2c-.8-.7-1.4-1.4-1.4-1.7 0-.3-.2-.5-.4-.6-.2 0-.3-.4-.2-.7.2-.4.9-.5 3.7-.5a26 26 0 0 0 5-.5c.3 0-4.8-2.5-5.2-2.5-.6 0-2.3-2-2-2.5 0-.2.4-.3.7-.3a7 7 0 0 0 2-.7c1-.5 1.5-.6 2.4-.2.8.3 1.2.3 1.7 0s.7-.4.7-.2.5 0 1-.5c.7-.6 1.1-1.2 1.1-1.4 0-.3.3-.4.7-.3.5.2.5.1 0-.2a.6.6 0 0 0-.8 0c-.2.2-.7.3-1.1.3-.4 0-1.3 0-2 .2-1.4.2-2.4-.4-2.4-1.6 0-.8 1.6-3 3.7-5 3-2.7 4-6.3 3-9.4-.4-1-.4-1.2.1-1.5.8-.4.8-1.8 0-2.4-.2-.3-.8-.5-1.3-.5-.6 0-.8-.1-.7-.5.1-.3.8-.4 1.7-.4 1.9 0 3 .8 4.4 3.3 1.2 2 1.4 3 .6 2.4-.7-.7-.9-.2-.4.9.3.5.5 1.4.5 2 0 .9-.1.7-.4-.6-.2-1-.5-1.7-.7-1.7-.1 0-.3 1.4-.3 3.1v3.1l2-.2c1.6-.2 2-.1 2.1.4.1.4-.1 1.2-.5 1.9-1.4 2.3-.2 3.9 2 2.5 1-.7 1-2.4.2-3.7-.3-.4-.4-.7-.3-.7l.9 1.1c.8 1.3.9 2.8.3 3.8-.4.8-2.7 2.3-4 2.7-.5.1-1 .5-1.3 1-.4.7-.1 3 .4 3 .2 0 .3.1.2.3 0 .1.5.2 1.3.1 1.6-.1 3-1.2 4.6-3.4.5-.6.5-.6 1 .4.4.7.7 1.4.7 1.8 0 .9-2 3.7-2.4 3.3l.2.4c.3.4.6.5.7.4.1-.2.4-.3.6-.3.8 0 2.2-1 2.7-1.9.5-.9.5-1 0-2l-.3-1c.1-.2 3.4 1.6 4.6 2.4 5.7 4.3 7.9 10 5.6 15l-.6 1.3-.2-2.5a29 29 0 0 0-2.6-8.7c-.7-1-.7-.7 0 1l.4 1.5s0 .8.2 1.5c.4 1.7-.5 5.2-1.9 7.2-1.2 1.8-1.3 2-.3 1.5.5-.2.7-.2.7.2 0 .6 1 1 1.2.5l.6-.3c.7 0-2.5 2.7-4.7 4a33.6 33.6 0 0 1-16.5 4.1c-2.7 0-4-.2-6.4-1zm24.2-9c2-2.3 2.5-4.2 2-7.6A12 12 0 0 0 99 202c-.6-.4-1-1-1-1.3l-.4-1c-.3-.3-.3-.2-.1.5.1.5 0 1.3-.3 2a19 19 0 0 1-4.8 4.6c-.6.3-.7.6-.6 1 .2.3.3 1 .2 1.4 0 1.6 1.2 1.4 3.9-.3l1.2-.9-.9 1.5c-.4.7-1.3 2-2 2.6-1.5 1.7-2.1 2.7-1.6 2.3.3-.1.5 0 .7.3.1.5.3.5.7.2.3-.3.5-.3.5 0 0 .2.1.3.3.2.2-.1.4 0 .4.2s.3.3.7.3c.6 0 .7.1.3.6-.3.4-.3.5.2.7h1c.4-.1.7 0 .8.3.2.6 1 .3 2.1-1zm-30.5 8.3c-5-1.6-10.7-5.6-12.2-8.5-1.3-2.5-1-6.4.4-8 1-1 1.5-1 .9.1-.9 1.7-.6 5.5.6 7.9 1.5 2.8 5.5 5.8 11 8.1 2.5 1.2 2.2 1.3-.7.4zm36.5-22.3c-.6-.9-4.6-3.5-8.3-5.3l-3.6-2c.8 0 5.6 2.2 7.8 3.6 2.1 1.4 5 4 4.5 4-.1 0-.3 0-.4-.3zM70 196l-.2-1.2c0-1.7 1.5-3.6 5-6.2 4.5-3.5 4.5-2.7.1 2.2l-2.7 3.4c-1.2 1.7-1.8 2.2-2.2 1.8z" style="fill:#f8a7b7;stroke-width:.352778" transform="translate(-44.5 -173.2)"/>
  <path d="M76.9 245c-6.6-1.4-11.6-5.6-13-11-.5-2-1-2.7-2.7-4.6-2.7-3-4.6-5.8-6-9-1.5-3-2-4.8-.8-2.6.5.8 1.6 2.4 2.6 3.4s1.6 2 1.5 2c-.3.3 3 5.3 4.5 6.9a20 20 0 0 0 6.7 4c.8.3.7.1-.6-1.4a8 8 0 0 1-1.5-2.2c0-.7-2.7-3.5-4.4-4.5l-1.6-1s.9.2 1.9.7c10 4.3 23.1 4.9 32.8 1.2a26 26 0 0 0 12.5-10.7c.6-1.4 1-3 1.1-5 .3-2.8.3-2.8.6-1.2.3 2.1 0 4-1.3 7.7a30 30 0 0 1-7.3 12.2c-2 2-2.5 2.8-2.8 4.3-2 8.2-12 13.1-22.2 10.9zm-4.2-4.2c-.4-3.7-.4-3.7-3.5-5.3l-2.9-1.4c0 .1.6 2.7 1.2 4.4.4 1.1 1 1.7 2.7 2.9a15 15 0 0 0 2.5 1.4c.2 0 .2-1 0-2zm9.4-14.8-1.6-.3-2-.6c-.3-.1-.6-.2-.7-.1-.1.1-.6 0-1.2-.2a30.7 30.7 0 0 0-2.9-1 26 26 0 0 1-7-3.7 24.8 24.8 0 0 1-4.9-7c-.1-.5.2-.2 1 .9a12 12 0 0 0 6.4 4.7c2.9.9 8.6.8 12-.2 4.7-1.3 6.9-2.3 3.8-1.8-.9.2-2.8.3-4.1.1-3-.2-2.8-.2-3.2-.1-.7.1-3.2 0-4.8-.2a11 11 0 0 1-5.2-2.4c-.6-.7-.6-.7.3-.4 1.6.4 5.8.8 6.4.6.6-.3.4-.4-.8-.8-3.5-1-6.7-3.4-8-6l-.8-1.6 1.3 1.3a12 12 0 0 0 6 3.1c2.2.5 9 .5 8.8 0h.7c.5 0 1.1 0 1.4-.3.3-.2.8-.4 1-.2.3 0 .6 0 .6-.2s-1-.3-2.8-.1c-1.5 0-3.3.2-4.1.3-1.5.1-5.2-1-5.4-1.6 0-.2-.3-.3-.5-.3-.4 0-1.3-1-1.3-1.3h.3c.2.2.4 0 .4-.4 0-.5.3-.6 2.7-.7 3.2 0 5.4-.3 5.4-.8 0-.2-.3-.4-.6-.4s-1.2-.3-2.2-.8c-.9-.5-2.3-1-3.1-1.3-1.5-.4-3-1.7-2.3-1.8l.8-.1.6-.1c.2 0 .7-.4 1.2-.8.6-.5 1-.7 1.7-.5 2.8.6 3.8.6 4.3-.2.3-.4 1.2-1.2 2.2-1.8 1.7-1.1 1.7-1.1.9-1.6a3 3 0 0 0-1.6-.3l-4.8.7c-.3.1-.8 0-1.1-.4-.8-.7-.4-1.4 2.7-4.7 1.3-1.4 2.7-3.2 3-4a8 8 0 0 0 .7-6c-.5-1-.5-1.2 0-2 1-1 .5-2.2-1-2.7-1.3-.4-1-.8.7-.8 2 0 3.8 1.7 5 4.6.4 1.3 0 1.3-.6-.1-.5-.9-.7-1-.9-.6-.3.4-.4.4-.7 0-.6-1-.7-.2 0 1.2.3 1 .5 2.4.5 4.6v3.1h2c2.4.1 2.8.9 1 2-.7.4-1 .7-.7.7.3 0 .4.1.1.4a4 4 0 0 0-.5 1.3c-.5 2 3 1.5 4.7-.6.6-.8.7-.8.7-.2 0 .4-.4 1.2-.9 1.7a10 10 0 0 1-4.7 2.3c-.5 0-.7.5-1 2-.4 2.3-.1 2.7 2.1 2.8 1.2 0 1.7-.2 3-1.4a11 11 0 0 0 2.1-2.2l.5-1 .5 1c.3.4.5 1.2.5 1.8 0 1-.3 1.3-3.3 4-1 1-1 1.4.5 1.5 1.4.1 3.3-1 4.7-2.5l1.3-1.5v1c0 1.3-1.7 3.2-4.8 5.5-1.7 1.3-2.1 1.8-2.1 2.6 0 2.2 1.9 2.5 4.2.7.7-.5 1.3-.8 1.3-.7 0 .6-1.5 2.5-2.5 3.4-2.9 2.2-3.1 2.5-3 3 .2.4.3.5.6 0 .2-.3.3-.3.3 0s.1.4.3.3c.2-.1.4 0 .4.2 0 .6 1.4 1.8 1.8 1.5.3-.1.3 0 .2.4-.2.5-.1.6.5.3l2.5-.2c1.5.1 1.7 0 3.4-1.9 1-1 1.7-1.6 1.6-1.3-.3.8-1.7 2.7-2.7 3.7l-.8.7 1.1-.2c.9-.2 1.2 0 1.3.3.2.4.4.5.6.4.2-.1.4-.1.4 0 0 .9-4.4 3.5-7.7 4.6-4 1.4-11.5 2.4-12.1 1.7zm7.9-10.6c-.1-.3-.3-.4-.4-.3v.5c.4.6.6.5.4-.2zm-20.2 9.1c-5-1.6-10.6-5.6-12.3-8.7-.8-1.5-.8-6 0-7.3.8-1.1 1.9-1.7 1.5-.7-.9 2-1 3.9-.4 5.8 1.5 4.7 4.9 7.7 13 11.1 1.3.6.3.5-1.8-.2zm22.9-8c-.4-.4-.4-.5.1-.3.3.1.6.4.6.5 0 .5-.2.4-.7-.2zm12.8-2.5a23 23 0 0 0-2.6-8.8c-.3-.6-1-1.4-1.6-2-.8-.7-.9-.7-.6 0 .1.4-.3.1-1.3-.8a5.9 5.9 0 0 1-1.4-1.8l-1-1.8c-1.2-1.7-1-1.7 1.8 0 1.9 1 2.2 1.3 4.1 3.1 2.5 2.3 4.2 5.9 4.3 8.5 0 1.4-.7 4.4-1.2 5-.4.5-.4.2-.5-1.4zm.8-11.8c-.6-.9-4.6-3.5-8.3-5.3l-3.6-2c.8 0 5.6 2.2 7.8 3.6 2.1 1.4 5 4 4.5 4-.1 0-.3 0-.4-.3zm-36.2-8c0-1.5 1.1-3 4.2-5.2 4.2-3.1 4.3-2.7.6 1.4a32.4 32.4 0 0 1-4.6 4.8c-.1 0-.2-.4-.2-1z" style="fill:#dac2b0;stroke-width:.352778" transform="translate(-44.5 -173.2)"/>
  <path d="M77.6 245.2a20 20 0 0 1-11.1-6.1 14.7 14.7 0 0 1-2.7-5.7 7.7 7.7 0 0 0-2.2-3.6c-2.8-3-4.8-5.9-6.1-8.7-1.4-2.8-2-5-1-3.2l3.8 6c4 6 6.8 8.8 10 10 2.4 1 3 .8 2-.4A9 9 0 0 1 69 232c-.4-.6-.3-.8.2-.8 1.3 0 2.4.1 3.4.7.8.3 1.1.4 1.2.1.1-.2.3-.3.5-.2.2.1.3 0 .3-.2s.3-.3.7-.3c.4 0 .7-.2.7-.4 0-.6-.4-1.4-.7-1.3 0 .1-.4 0-.7-.2a94 94 0 0 0 11.7.2l-1.9.4c-1.4.2-2 1.2-1.4 2 .5.7.8 1.8.4 1.5-.2 0-.3 0-.3.2 0 .5 0 .5 3.5-.2 3.4-.6 3.6-.7 6.8-3 2-1.6 3-2.5 2.8-3.2 0-.1.6-.5 1.3-.8 2.3-.9 5-2.8 7.7-5.4a15 15 0 0 0 4.8-8.7c.3-1.5.4-1.9.5-1.2a34.6 34.6 0 0 1-9 19c-1.7 1.9-2.2 2.6-2.6 4-1.7 8-11.1 12.8-21.4 11.1zM73 242c0-1.4-.6-4.3-.9-4.9-.2-.3-1.5-1.2-3-2l-3-1.4c-.1 0 0 1.2.5 2.7.6 2.6.8 3 2.1 4 1.6 1.3 3.4 2.4 4 2.4.2 0 .3-.4.3-.8zm12 .6a2 2 0 0 0-1.1 0c-.4 0-.2.1.4.1.6 0 .9 0 .6-.1zm2.3-.5c.4-.3.3-.4-.4-.4-.5 0-1 .2-1.2.4-.3.4.9.4 1.6 0zm.1-13h1c.3.2 0 .2-.6.2s-.7 0-.4-.2zm-5.4-3-1.6-.4-2-.6c-.3-.1-.6-.2-.7-.1-.1.1-.6 0-1.2-.2a30.7 30.7 0 0 0-2.9-1 26 26 0 0 1-7-3.7 24.8 24.8 0 0 1-4.9-7c-.1-.5.2-.2 1 .9a12 12 0 0 0 6.4 4.7c2.9.9 8.6.8 12-.2 4.7-1.3 6.9-2.3 3.8-1.8-.9.2-2.8.3-4.1.1-3-.2-2.8-.2-3.2-.1-.7.1-3.2 0-4.8-.2a11 11 0 0 1-5.2-2.4c-.6-.7-.6-.7.3-.4 1.6.4 5.8.8 6.4.6.6-.3.4-.4-.8-.8-3.5-1-6.7-3.4-8-6l-.8-1.6 1.3 1.3a12 12 0 0 0 6 3.1c2.2.5 9 .5 8.8 0h.7c.5 0 1.1 0 1.4-.3.3-.2.8-.4 1-.2.3 0 .6 0 .6-.2s-1-.3-2.8-.1c-1.5 0-3.3.2-4.1.3-1.5.1-5.2-1-5.4-1.6 0-.2-.3-.3-.5-.3-.4 0-1.3-1-1.3-1.3h.3c.2.2.4 0 .4-.4 0-.5.3-.6 2.7-.7 3.2 0 5.4-.3 5.4-.8 0-.2-.3-.4-.6-.4s-1.2-.3-2.2-.8c-.9-.5-2.3-1-3.1-1.3-1.5-.4-3-1.7-2.3-1.8l.8-.1.6-.1c.2 0 .7-.4 1.2-.8.6-.5 1-.7 1.7-.5 2.8.6 3.8.6 4.3-.2.3-.4 1.2-1.2 2.2-1.8 1.7-1.1 1.7-1.1.9-1.6a3 3 0 0 0-1.6-.3l-4.8.7c-.3.1-.8 0-1.1-.4-.8-.7-.4-1.4 2.7-4.7 1.3-1.4 2.7-3.2 3-4a8 8 0 0 0 .7-6c-.5-1-.5-1.2 0-2 1-1 .5-2.2-1-2.7-1.3-.4-1-.8.6-.8 2 0 4 1.8 5 4.6.5 1.3.2 1.3-.5-.1-.5-.9-.7-1-.9-.6-.3.4-.4.4-.7 0-.6-1-.7-.2 0 1.2.3 1 .5 2.4.5 4.6v3.1h2c2.4.1 2.8.9 1 2-.7.4-1 .7-.7.7.3 0 .4.1.1.4a4 4 0 0 0-.5 1.3c-.5 2 3 1.5 4.7-.6.6-.8.7-.8.7-.2 0 .4-.4 1.2-.9 1.7a10 10 0 0 1-4.7 2.3c-.5 0-.7.5-1 2-.4 2.3-.1 2.7 2.1 2.8 1.2 0 1.7-.2 3-1.4a11 11 0 0 0 2.1-2.2l.5-1 .5 1c.3.4.5 1.2.5 1.8 0 1-.3 1.3-3.3 4-1 1-1 1.4.5 1.5 1.4.1 3.3-1 4.7-2.5l1.3-1.5v1c0 1.3-1.7 3.2-4.8 5.5-1.7 1.3-2.1 1.8-2.1 2.6 0 2.2 1.9 2.5 4.2.7.7-.5 1.3-.8 1.3-.7 0 .6-1.5 2.5-2.5 3.4-2.9 2.2-3.1 2.5-3 3 .2.4.3.5.6 0 .2-.3.3-.3.3 0s.1.4.3.3c.2-.1.4 0 .4.2 0 .6 1.4 1.8 1.8 1.5.3-.1.3 0 .2.4-.2.5-.1.6.5.3l2.5-.2c1.5.1 1.7 0 3.4-1.9 1-1 1.7-1.6 1.6-1.3-.3.8-1.7 2.7-2.7 3.7l-.8.7 1.1-.2c.9-.2 1.2 0 1.3.3.2.4.4.5.6.4.2-.1.4-.1.4 0 0 .9-4.4 3.5-7.7 4.6-4 1.4-11.5 2.4-12.1 1.7zm7.9-10.7c-.1-.3-.3-.4-.4-.3v.5c.4.6.6.5.4-.2zm-20.2 9.1a24.6 24.6 0 0 1-12-8.3c-.9-1.3-1-5.2-.2-6.7.5-1.2.6-.9.5 1.5 0 1.6 1 4.6 2.3 6.4a27 27 0 0 0 11.1 7.3c1.4.6.4.5-1.7-.2zm22.9-8c-.4-.4-.4-.5.1-.3.3.1.6.4.6.5 0 .5-.2.4-.7-.2zm12.8-2.5a23 23 0 0 0-2.6-8.8c-.3-.6-1-1.4-1.6-2-.8-.7-.9-.7-.6 0 .1.4-.3.1-1.3-.8a5.9 5.9 0 0 1-1.4-1.8l-1-1.8c-1.2-1.7-1-1.7 1.8 0 1.9 1 2.2 1.3 4.1 3.1 2.5 2.3 4.2 5.9 4.3 8.5 0 1.4-.7 4.4-1.2 5-.4.5-.4.2-.5-1.4zm-6.8-17c-1.5-.8-2.5-1.4-2.4-1.5.4 0 5.2 2.5 5.2 2.7 0 .2.1.3-2.8-1.3zM70 194.2c0-1.6 1.1-3 4.2-5.3 4.2-3.1 4.3-2.7.6 1.4a32.4 32.4 0 0 1-4.6 4.8c-.1 0-.2-.4-.2-1z" style="fill:#f6a5a8;stroke-width:.352778" transform="translate(-44.5 -173.2)"/>
  <path d="M77.6 245.2a20 20 0 0 1-11.1-6.1 14.7 14.7 0 0 1-2.7-5.7 7.7 7.7 0 0 0-2.2-3.6c-2.8-3-4.8-5.9-6.1-8.7-1.4-2.8-2-5-1-3.2l3.8 6c4 6 6.8 8.8 10 10 2.4 1 3 .8 2-.4A9 9 0 0 1 69 232c-.4-.6-.3-.8.2-.8 1.3 0 2.4.1 3.4.7.8.3 1.1.4 1.2.1.1-.2.3-.3.5-.2.2.1.3 0 .3-.2s.3-.3.7-.3c.4 0 .7-.2.7-.4 0-.6-.4-1.4-.7-1.3 0 .1-.4 0-.7-.2a94 94 0 0 0 11.7.2l-1.9.4c-1.4.2-2 1.2-1.4 2 .5.7.8 1.8.4 1.5-.2 0-.3 0-.3.2 0 .5 0 .5 3.5-.2 3.4-.6 3.6-.7 6.8-3 2-1.6 3-2.5 2.8-3.2 0-.1.6-.5 1.3-.8 2.3-.9 5-2.8 7.7-5.4a15 15 0 0 0 4.8-8.7c.3-1.5.4-1.9.5-1.2a34.6 34.6 0 0 1-9 19c-1.7 1.9-2.2 2.6-2.6 4-1.7 8-11.1 12.8-21.4 11.1zM73 242c0-1.4-.6-4.3-.9-4.9-.2-.3-1.5-1.2-3-2l-3-1.4c-.1 0 0 1.2.5 2.7.6 2.6.8 3 2.1 4 1.6 1.3 3.4 2.4 4 2.4.2 0 .3-.4.3-.8zm12 .6a2 2 0 0 0-1.1 0c-.4 0-.2.1.4.1.6 0 .9 0 .6-.1zm2.3-.5c.4-.3.3-.4-.4-.4-.5 0-1 .2-1.2.4-.3.4.9.4 1.6 0zm.1-13h1c.3.2 0 .2-.6.2s-.7 0-.4-.2zm-6.6-3.4-3-.7a5 5 0 0 1-1.6-.5c-.2-.2-1.3-.6-2.4-1-2.4-.6-5-2-6.7-3.4-1.2-1-4.1-4.5-4.1-5l1.6 1.2c2.5 2.2 5.4 3 10.2 3a22 22 0 0 0 6.3-.8c4.2-1.2 6.7-2.2 4.5-2a65.8 65.8 0 0 1-8 .2c-2.2.4-8.3-.7-8.3-1.5 0-.2-.2-.3-.5-.3s-.6-.2-.7-.5c-.3-.8-.3-1 .2-.7.6.4 5.3.8 6 .5.7-.2.6-.3-.6-.7a13 13 0 0 1-6.1-3.8c-1.5-1.7-2-2.7-.8-1.7a13 13 0 0 0 5.3 2.3c2.1.5 9 .5 8.7 0h.7c.5 0 1.1 0 1.4-.3.3-.2.8-.4 1-.2.3 0 .6 0 .6-.2s-1-.3-2.8-.1c-1.5 0-3.3.2-4.1.3-1.5.1-5.2-1-5.4-1.6 0-.2-.3-.3-.5-.3-.4 0-1.3-1-1.3-1.3h.3c.2.2.4 0 .4-.4 0-.5.3-.6 2.7-.6 3 0 5.4-.4 5.4-.8 0-.5-3-1.8-5.2-2.4-2.2-.6-3.3-1.3-2.8-1.9l.6-.3h.6c.2 0 .7-.4 1.2-.8.6-.5 1-.7 1.7-.5 2.8.6 3.8.6 4.3-.2.3-.4 1.2-1.2 2.2-1.8l1.7-1.1-.9-.5c-.7-.4-3.2-.5-3.2-.1l-1 .2c-.7 0-1.5.2-2 .3-.4.1-1 0-1.2-.4-.8-.7-.4-1.4 2.7-4.7 1.3-1.4 2.7-3.2 3-4a8 8 0 0 0 .7-6c-.5-1-.5-1.2 0-2 .9-1 .6-2.1-.7-2.6-1.4-.5-1.3-1 .3-1 2 0 3.9 1.8 5 4.7.5 1.4.2 1.3-.5-.1-.5-.9-.7-1-.9-.6-.3.4-.4.4-.7 0-.6-1-.7-.2 0 1.2.3 1 .5 2.4.5 4.6 0 2.5.2 3.2.5 3 .3 0 .9 0 1.3.3.5.3 1.2.4 1.6.3 1.1-.3.9.7-.4 1.5-.7.4-1 .7-.7.7.3 0 .4.1.1.4a4 4 0 0 0-.5 1.3c-.5 2 3 1.5 4.7-.6.6-.8.7-.8.7-.2 0 .4-.4 1.2-.9 1.7a10 10 0 0 1-4.7 2.3c-.5 0-.7.5-1 2-.4 2.3-.1 2.7 2.1 2.8 1.2 0 1.7-.2 3-1.4a11 11 0 0 0 2.1-2.2l.5-1 .5 1c.3.4.5 1.2.5 1.8 0 1-.3 1.3-3.3 4-1 1-1 1.4.5 1.5 1.4.1 3.3-1 4.7-2.5l1.3-1.5v1c0 1.3-1.7 3.2-4.8 5.5-1.7 1.3-2.1 1.8-2.1 2.6 0 2.2 1.9 2.5 4.2.7.7-.5 1.3-.8 1.3-.7 0 .6-1.5 2.5-2.5 3.4-2.9 2.2-3.1 2.5-3 3 .2.4.3.5.6 0 .2-.3.3-.3.3 0s.1.4.3.3c.2-.1.4 0 .4.2 0 .6 1.4 1.8 1.8 1.5.3-.1.3 0 .2.4-.2.5-.1.6.5.3l2.5-.2c1.5.1 1.7 0 3.4-1.9 1-1 1.7-1.6 1.6-1.3-.3.8-1.7 2.7-2.7 3.7l-.8.7 1.1-.2c.9-.2 1.2 0 1.3.3.2.4.4.5.6.4.7-.5.3.3-.6 1.1-4 3.6-15.1 6.2-20 4.9zm9-10.3c0-.3-.2-.4-.3-.3v.5c.4.6.6.5.4-.2zm-21 8.9a25.3 25.3 0 0 1-10.8-7.8c-.9-1.1-1-1.6-1-3.7 0-1.2.2-2.8.5-3.3.5-1 .5-1 .3 1.4s.1 3.8 1 4.4l1 1.5c1.2 2 4.4 4.7 7.6 6.3l3 1.6c0 .1 0 .2-1.5-.4zm23.8-7.8c-.4-.4-.4-.5.1-.3.3.1.6.4.6.5 0 .5-.2.4-.7-.2zm13-2.1c0-.4.2-.5.3-.2v.6c-.2.1-.2 0-.2-.4zm-.3-2.9-.2-1c-.2-.7-.2-.7.2 0 .2.3.3.8.2 1-.1.3-.2.3-.2 0zm-.9-2.6c-.3-1 0-1.2.5-.1.2.4.2.8 0 .8-.1 0-.4-.3-.5-.7zm-.5-1.8c0-.2.1-.2.3-.1l.4.4-.4.1c-.2 0-.3-.2-.3-.4zm-.7-1.5c-.3-.3-.3-.6-.2-.6.2 0 0-.3-.4-.7l-.7-.8.8.6c.5.4.8.8.7.9-.1 0 0 .4.2.6l.2.5c-.1 0-.4-.2-.6-.5zm-4-3.3a7.5 7.5 0 0 1-1.5-2.1c-.1-.4-.6-1.3-1.2-2l-1-1 1.6.8c1.6 1 3.4 2.5 3.5 3.1 0 .3.4.8.8 1.2.8.9.7 1.2-.3.7-.6-.4-.7-.3-.5.1.3.8 0 .7-1.4-.8zm-.6-5.4c-1.5-.7-2.5-1.3-2.4-1.4.4 0 5.2 2.5 5.2 2.7 0 .2.1.3-2.8-1.3zM70 194.3c0-1.6 1.1-3 4.2-5.3 4.2-3.1 4.3-2.7.6 1.4a32.4 32.4 0 0 1-4.6 4.8c-.1 0-.2-.4-.2-1z" style="fill:#eda1b2;stroke-width:.352778" transform="translate(-44.5 -173.2)"/>
  <path d="M77.6 245.2a20 20 0 0 1-11.1-6.1 14.7 14.7 0 0 1-2.7-5.7 7.7 7.7 0 0 0-2.2-3.6c-2.8-3-4.8-5.9-6.1-8.7-1.4-2.8-2-5-1-3.2l3.8 6c4 6 6.8 8.8 10 10 2.4 1 3 .8 2-.4A9 9 0 0 1 69 232c-.4-.6-.3-.8.2-.8 1.3 0 2.4.1 3.4.7.8.3 1.1.4 1.2.1.1-.2.3-.3.5-.2.2.1.3 0 .3-.2s.3-.3.7-.3c.4 0 .7-.2.7-.4 0-.6-.4-1.4-.7-1.3 0 .1-.4 0-.7-.2a94 94 0 0 0 11.7.2l-1.9.4c-1.4.2-2 1.2-1.4 2 .5.7.8 1.8.4 1.5-.2 0-.3 0-.3.2 0 .5 0 .5 3.5-.2 3.4-.6 3.6-.7 6.8-3 2-1.6 3-2.5 2.8-3.2 0-.1.6-.5 1.3-.8 2.3-.9 5-2.8 7.7-5.4a15 15 0 0 0 4.8-8.7c.3-1.5.4-1.9.5-1.2a34.6 34.6 0 0 1-9 19c-1.7 1.9-2.2 2.6-2.6 4-1.7 8-11.1 12.8-21.4 11.1zM73 242c0-1.4-.6-4.3-.9-4.9-.2-.3-1.5-1.2-3-2l-3-1.4c-.1 0 0 1.2.5 2.7.6 2.6.8 3 2.1 4 1.6 1.3 3.4 2.4 4 2.4.2 0 .3-.4.3-.8zm12 .6a2 2 0 0 0-1.1 0c-.4 0-.2.1.4.1.6 0 .9 0 .6-.1zm2.3-.5c.4-.3.3-.4-.4-.4-.5 0-1 .2-1.2.4-.3.4.9.4 1.6 0zm.1-13h1c.3.2 0 .2-.6.2s-.7 0-.4-.2zm-4.2-3.3c-1.1 0-3-.4-4-.7-1-.4-1.8-.5-1.8-.5l-1-.2-1.4-.5a25 25 0 0 1-8-3.9 19 19 0 0 1-4-4.9c0-.1.6.3 1.3 1a11 11 0 0 0 6 3c3.2.7 8 .4 12.2-.8 4.3-1.3 6.4-1.5 7.1-.8.3.4.7.5 1 .4.2-.1.1 0-.1.5-.3.6-.3.8 0 .8s.3.1 0 .5c-.4.4-.3.5.7.3.7-.1 1.3-.4 1.4-.6l.6-.3 1.6-.3a4 4 0 0 1 1.8-.1c.6.2 2.7-1.1 4-2.7.7-.7.8-.8.5-.1-.2.4-1.2 1.5-2.2 2.5-1.7 1.6-1.8 1.8-1 1.7l1.4.1c.3.2.4.4.2.4s0 .2.2.6c.3.4.3.5 0 .3a.2.2 0 0 0-.4.1c0 .6-4.6 2.7-7.2 3.3-3.2.8-6.5 1.2-8.9 1zM69 224.3a25.3 25.3 0 0 1-11-7.8c-.8-1.1-1-1.6-1-3.7 0-1.2.3-2.8.6-3.3.5-1 .5-1 .3 1.4s.1 3.8 1 4.4l1 1.5c1.2 2 4.4 4.7 7.6 6.3l3 1.6c0 .1 0 .2-1.5-.4zm13.7-7.9c-.1-.2-.8-.3-1.5-.3s-1.2 0-1.2-.2c0-.1-.4-.1-.8 0-1.4.5-7 .2-8.6-.4-.9-.4-1.5-.8-1.5-.9 0-.1 1.6-.2 3.7-.1 3.6 0 5-.4 2.3-.7a13.1 13.1 0 0 1-8.9-6c0-.2.7.2 1.5.8 2.4 1.7 4.8 2.3 9.6 2.3a30 30 0 0 0 10.5-1.8c.4-.2.7 0 .8.8a2 2 0 0 0 1.3 1.5c1.2.5 2.3.1 4.6-1.5l1.4-1-.5 1a17.4 17.4 0 0 1-11.5 6.6c-.2.1-.4 0-.4-.2 0-.4 0-.4-.3 0-.2.3-.4.3-.5.1zm23-2c0-.4.2-.5.3-.2v.6c-.2.1-.2 0-.2-.4zm-.3-2.9-.2-1c-.2-.7-.2-.7.2 0 .2.3.3.8.2 1-.1.3-.2.3-.2 0zm-.9-2.6c-.3-1 0-1.2.5-.1.2.4.2.8 0 .8-.1 0-.4-.3-.5-.7zm-28.5-.2-1-.2c-.6 0-1.3-.4-1.5-.7-.3-.4-.6-.5-.7-.4-.1.1-.2 0-.2-.3s.2-.5.4-.6l1.9-.3 3.1-.6c2.2-.2 2.8-1 1.2-1.5l-2.4-.9a12 12 0 0 0-2.5-.8c-.6-.1-1.7-.5-2.2-.8L71 201l1.2-.1a3 3 0 0 0 2-1c.7-1 .7-1 2.8-.4 2.5.6 3.2.5 3.9-.8.8-1.7 2.8-3 3.6-2.5.3.2.1.8-.4 2-.5 1-.8 1.9-.7 2 .1.2 1.1.3 2.3.2 1.1-.1 2 0 2 .1 0 .2.2.3.4.3a18 18 0 0 0 4.6-4.1c0-1 .7-.4 1 .8.4 1 .4 1.4-.1 2.1a26 26 0 0 1-8.5 5.2l.2.4c.4.5.3.6-.4.6h-.8l.8.7c.5.3.7.7.4.7-.2 0-.3.1-.2.3.4.6-2 .3-2.6-.3-.3-.5-.4-.5-.2 0s0 .7-.3.7-.6.1-.6.3c0 .2-.2.4-.4.4s-.3-.2-.1-.3c0-.2-.2-.3-.6-.2l-.7.4c0 .3-3.4.4-3.6.2zm8.8-1.5c0-.2 0-.4-.2-.4s-.4.2-.4.4.1.3.2.3l.4-.3zm2.2 0c0-.2.2-.4.4-.6.2 0 .3 0 .1.4-.2.6-.5.7-.5.2zm17 0c0-.3.1-.3.3-.2l.4.4-.4.1c-.2 0-.3-.2-.3-.4zm-14-.4v-.6s.2.1.3.4c.3.6 0 .8-.3.2zm-4.4-.3c-.3-.2-.3-.4 0-.4.2 0 .4.2.6.4.2.4.1.4-.6 0zm5.1 0c-.2-.5.5-1.5 1-1.4a7 7 0 0 0 2.8-1.5l1.5-1.4 1.4-1.2-.6 1-1.3 1.9c-1.4 1.2-4.5 3-4.8 2.5zm12.6-1c-.3-.2-.3-.5-.2-.5.2 0 0-.3-.4-.7l-.7-.8.8.6c.5.4.8.8.7.9-.1 0 0 .4.2.6l.2.5c-.1 0-.4-.2-.6-.5zm-2.6-3c-.5-.3-1-.6-1.3-.6-.6 0-1.3-.8-1.6-1.7-.1-.4-.6-1.3-1.2-2l-1-1 1.6.8c1.7 1 3.4 2.5 3.5 3.2l.4.7c.1 0 .5.4.7.8.7.8 0 .7-1-.1zm-2-5.6c-1.5-.7-2.5-1.3-2.4-1.4.4 0 5.2 2.5 5.2 2.7 0 .2.1.3-2.8-1.3zM75 194.4c0-.4 1-1.8 2.5-3.4a68 68 0 0 0 4.1-4.7c1.3-1.9 2.3-2.8 1.6-1.6-.2.3-.1.3.2 0 .5-.5.2-2.5-.5-2.8-.8-.3-1.4-2-.9-3 .4-.7.4-.7.9 0 1 1.3 1.7 4.2 1.7 6.6v2.5l1.7.3h2.1c.2-.2.3 0 .2.2 0 .3-.7.9-1.4 1.3-.9.6-1.4 1.3-1.7 2.4-.5 2-1 2.4-3.1 2.5l-4.5.3c-2.8.1-3 .1-3-.6zm2.8-2.4c0-.2 0-.4-.2-.4l-.4.4c0 .2 0 .3.2.3s.4-.1.4-.3zm9.5 2.8c0-.2-.3-.2-.6 0-.4 0-.5 0-.4-.1a3 3 0 0 1 1.2-.4c.6-.1 1.6-.5 2.2-1 1.4-.7 1.8-.6.9.2-1 .8-3.3 1.8-3.3 1.3zm-17-1c-.7-.6 2.5-4 5.2-5.7 1-.6 1.2-.6.9 0-.4.6-5.5 6-5.7 6-.1 0-.3 0-.4-.2zM84 178l-.8-1c-.2-.4-1-1-1.9-1.2-1.4-.5-1.4-.5-.5-.7.6 0 1.5.1 2 .3 1 .5 2.5 2 2.5 2.5 0 .4-.8.4-1.3 0z" style="fill:#d5bba9;stroke-width:.352778" transform="translate(-44.5 -173.2)"/>
  <path d="M77.2 245.1c-6.9-1.4-12-5.8-13.3-11.3-.3-1.5-.9-2.5-2.7-4.5a28 28 0 0 1-6.8-11 53.6 53.6 0 0 0 8.8 12.5c2.4 2.4 3.4 4.4 3.4 6.7 0 1.7 4.7 5.4 6.6 5.2a7 7 0 0 1 2.3.8c2.4 1.1 6.8 1.4 10.6.6 4-.9 6-2.5 3.5-3-2.1-.4-5-.5-5.5-.1-.3.3-1.5.3-3.8.1-2.3-.2-3.4-.1-3.4.1.1.4-1 .3-2.2-.3-.5-.3-1-1-1.4-2-.4-1-.6-1.7-.4-1.7l-.2-.5c-.3-.2-.5-.6-.5-.9 0-.2-.4-.9-.9-1.4-1.5-1.6-1.2-1.8 1-.7 3.4 1.7 7.4 2 13.8 1.3 2.6-.3 3.4-.6 4-1.2.5-.5 1-.9 1.4-.9.3 0 1-.4 1.5-1 .6-.6 1.1-1 1.2-.9.5.5 2.4-.8 3.3-2 .5-.9 1.3-2 1.6-2.3.4-.5.6-.8.4-.8a29.6 29.6 0 0 0 8.6-8c.6-1 1.3-2.5 1.6-3.5.3-1 .6-1.4.6-1a34.5 34.5 0 0 1-8.6 16.6c-1.8 2-2.3 2.8-2.8 4.4-1.2 5-4.7 8.2-10.4 10.1-2.9 1-8.2 1.3-11.3.6zm6.1-19.3c-1.1 0-3-.4-4-.7-1-.4-1.8-.5-1.8-.5l-1-.2-1.4-.5a25 25 0 0 1-8-3.9 19 19 0 0 1-4-4.9c0-.1.6.3 1.3 1a11 11 0 0 0 6 3c3.2.7 8 .4 12.2-.8 4.3-1.3 6.4-1.5 7.1-.8.3.4.7.5 1 .4.2-.1.1 0-.1.5-.3.6-.3.8 0 .8s.3.1 0 .5c-.4.4-.3.5.7.3.7-.1 1.3-.4 1.4-.6l.6-.3 1.6-.3a4 4 0 0 1 1.8-.1c.6.2 2.7-1.1 4-2.7.7-.7.8-.8.5-.1-.2.4-1.2 1.5-2.2 2.5-1.7 1.6-1.8 1.8-1 1.7l1.4.1c.3.2.4.4.2.4s0 .2.2.6c.3.4.3.5 0 .3a.2.2 0 0 0-.4.1c0 .6-4.6 2.7-7.2 3.3-3.2.8-6.5 1.2-8.9 1zM69 224.3a25.3 25.3 0 0 1-11-7.8c-.7-1-1-1.7-1-3.2 0-1 .3-2 .5-2.2.4-.3.5-.2.3.7-.1 1.2.2 2.6.8 3.2a20.8 20.8 0 0 0 9 8l2.9 1.7c0 .1 0 .2-1.5-.4zm13.7-7.9c-.1-.2-.8-.3-1.5-.3s-1.2 0-1.2-.2c0-.1-.4-.1-.8 0-1.4.5-7 .2-8.6-.4-.9-.4-1.5-.8-1.5-.9 0-.1 1.6-.2 3.7-.1 3.6 0 5-.4 2.3-.7a13.1 13.1 0 0 1-8.9-6c0-.2.7.2 1.5.8 2.4 1.7 4.8 2.3 9.6 2.3a30 30 0 0 0 10.5-1.8c.4-.2.7 0 .8.8a2 2 0 0 0 1.3 1.5c1.2.5 2.3.1 4.6-1.5l1.4-1-.5 1a17.4 17.4 0 0 1-11.5 6.6c-.2.1-.4 0-.4-.2 0-.4 0-.4-.3 0-.2.3-.4.3-.5.1zm23-2c0-.4.2-.5.3-.2v.6c-.2.1-.2 0-.2-.4zm4.7-2.6c0-.5 0-.7.2-.5v.9c-.1.2-.2 0-.2-.4zm-5-.3-.2-1c-.2-.7-.2-.7.2 0 .2.3.3.8.2 1-.1.3-.2.3-.2 0zm-.9-2.6c-.3-1 0-1.2.5-.1.2.4.2.8 0 .8-.1 0-.4-.3-.5-.7zm-28.5-.2-1-.2c-.6 0-1.3-.4-1.5-.7-.3-.4-.6-.5-.7-.4-.1.1-.2 0-.2-.3s.2-.5.4-.6l1.9-.3 3.1-.6c2.2-.2 2.8-1 1.2-1.5l-2.4-.9a12 12 0 0 0-2.5-.8c-.6-.1-1.7-.5-2.2-.8L71 201l1.2-.1a3 3 0 0 0 2-1c.7-1 .7-1 2.8-.4 2.5.6 3.2.5 3.9-.8.8-1.7 2.8-3 3.6-2.5.3.2.1.8-.4 2-.5 1-.8 1.9-.7 2 .1.2 1.1.3 2.3.2 1.1-.1 2 0 2 .1 0 .2.2.3.4.3a18 18 0 0 0 4.6-4.1c0-1 .7-.4 1 .8.4 1 .4 1.4-.1 2.1a26 26 0 0 1-8.5 5.2l.2.4c.4.5.3.6-.4.6h-.8l.8.7c.5.3.7.7.4.7-.2 0-.3.1-.2.3.4.6-2 .3-2.6-.3-.3-.5-.4-.5-.2 0s0 .7-.3.7-.6.1-.6.3c0 .2-.2.4-.4.4s-.3-.2-.1-.3c0-.2-.2-.3-.6-.2l-.7.4c0 .3-3.4.4-3.6.2zm8.8-1.5c0-.2 0-.4-.2-.4s-.4.2-.4.4.1.3.2.3l.4-.3zm2.2 0c0-.2.2-.4.4-.6.2 0 .3 0 .1.4-.2.6-.5.7-.5.2zm17 0c0-.3.1-.3.3-.2l.4.4-.4.1c-.2 0-.3-.2-.3-.4zm-14-.4v-.6s.2.1.3.4c.3.6 0 .8-.3.2zm-4.4-.3c-.3-.2-.3-.4 0-.4.2 0 .4.2.6.4.2.4.1.4-.6 0zm5.1 0c-.2-.5.5-1.5 1-1.4a7 7 0 0 0 2.8-1.5l1.5-1.4 1.4-1.2-.6 1-1.3 1.9c-1.4 1.2-4.5 3-4.8 2.5zm12.6-1c-.3-.2-.3-.5-.2-.5.2 0 0-.3-.4-.7l-.7-.8.8.6c.5.4.8.8.7.9-.1 0 0 .4.2.6l.2.5c-.1 0-.4-.2-.6-.5zm-2.6-3c-.5-.3-1-.6-1.3-.6-.6 0-1.3-.8-1.6-1.7-.1-.4-.6-1.3-1.2-2l-1-1 1.6.8c1.7 1 3.4 2.5 3.5 3.2l.4.7c.1 0 .5.4.7.8.7.8 0 .7-1-.1zm-25.6-8c0-.5 1-2 2.5-3.5a68 68 0 0 0 4.1-4.7c1.3-1.9 2.3-2.8 1.6-1.6-.2.3-.1.3.2 0 .5-.5.2-2.5-.5-2.8-.8-.3-1.4-2-.9-3 .4-.7.4-.7.9 0 1 1.3 1.7 4.2 1.7 6.6v2.5l1.7.3h2.1c.2-.2.3 0 .2.2 0 .3-.7.9-1.4 1.3-.9.6-1.4 1.3-1.7 2.4-.5 2-1 2.4-3.1 2.5l-4.5.3c-2.8.1-3 .1-3-.6zm2.8-2.5c0-.2 0-.4-.2-.4l-.4.4c0 .2 0 .3.2.3s.4-.1.4-.3zm9.5 2.8c0-.2-.3-.2-.6 0-.4 0-.5 0-.4-.1a3 3 0 0 1 1.2-.4c.6-.1 1.6-.5 2.2-1 1.4-.7 1.8-.6.9.2-1 .8-3.3 1.8-3.3 1.3zm-17-1c-.7-.6 2.5-4 5.2-5.7 1-.6 1.2-.6.9 0-.4.6-5.5 6-5.7 6-.1 0-.3 0-.4-.2zM84 178l-.8-1c-.2-.4-1-1-1.9-1.2-1.4-.5-1.4-.5-.5-.7.6 0 1.5.1 2 .3 1 .5 2.5 2 2.5 2.5 0 .4-.8.4-1.3 0z" style="fill:#e9a89c;stroke-width:.352778" transform="translate(-44.5 -173.2)"/>
  <path d="M77.2 245.1c-6.9-1.4-12-5.8-13.3-11.3-.3-1.5-.9-2.5-2.7-4.5a28 28 0 0 1-6.8-11 53.6 53.6 0 0 0 8.8 12.5c2.4 2.4 3.4 4.4 3.4 6.7 0 1.7 4.7 5.4 6.6 5.2a7 7 0 0 1 2.3.8c2.4 1.1 6.8 1.4 10.6.6 4-.9 6-2.5 3.5-3-2.1-.4-5-.5-5.5-.1-.3.3-1.5.3-3.8.1-2.3-.2-3.4-.1-3.4.1.1.4-1 .3-2.2-.3-.5-.3-1-1-1.4-2-.4-1-.6-1.7-.4-1.7l-.2-.5c-.3-.2-.5-.6-.5-.9 0-.2-.4-.9-.9-1.4-1.5-1.6-1.2-1.8 1-.7 3.4 1.7 7.4 2 13.8 1.3 2.6-.3 3.4-.6 4-1.2.5-.5 1-.9 1.4-.9.3 0 1-.4 1.5-1 .6-.6 1.1-1 1.2-.9.5.5 2.4-.8 3.3-2 .5-.9 1.3-2 1.6-2.3.4-.5.6-.8.4-.8a7 7 0 0 1 1.9-1.4 23 23 0 0 0 7.9-8.8c.4-1.3.9-2.1 1-2a1083.1 1083.1 0 0 0-2.5 7.1c-1 2.9-3.4 6.3-6 9.2-2 2-2.4 2.8-2.9 4.4-1.2 5-4.7 8.2-10.4 10.1-2.9 1-8.2 1.3-11.3.6zm6.1-19.3c-1.1 0-3-.4-4-.7-1-.4-1.8-.5-1.8-.5l-1-.2-1.4-.5a25 25 0 0 1-8-3.9 19 19 0 0 1-4-4.9c0-.1.6.3 1.3 1a11 11 0 0 0 6 3c3.2.7 8 .4 12.2-.8 4.3-1.3 6.4-1.5 7.1-.8.3.4.7.5 1 .4.2-.1.1 0-.1.5-.3.6-.3.8 0 .8s.3.1 0 .5c-.4.4-.3.5.7.3.7-.1 1.3-.4 1.4-.6l.6-.3 1.6-.3a4 4 0 0 1 1.8-.1c.6.2 2.7-1.1 4-2.7.7-.7.8-.8.5-.1-.2.4-1.2 1.5-2.2 2.5-1.7 1.6-1.8 1.8-1 1.7l1.4.1c.3.2.4.4.2.4s0 .2.2.6c.3.4.3.5 0 .3a.2.2 0 0 0-.4.1c0 .6-4.6 2.7-7.2 3.3-3.2.8-6.5 1.2-8.9 1zm-16-2.4a20.8 20.8 0 0 1-9.2-7c-.8-1-1-1.8-1-3.2 0-1 .1-1.9.3-2 .2-.1.4.3.4 1 0 1.3.5 2.7 1 3l1 1.6c1.3 2 4.5 4.7 7.6 6.2 3.3 1.7 3.2 1.9-.1.4zm15.4-7c-.1-.2-.8-.3-1.5-.3s-1.2 0-1.2-.2c0-.1-.4-.1-.8 0-1.4.5-7 .2-8.6-.4-.9-.4-1.5-.8-1.5-.9 0-.1 1.6-.2 3.7-.1 3.6 0 5-.4 2.3-.7a13.1 13.1 0 0 1-8.9-6c0-.2.7.2 1.5.8 2.4 1.7 4.8 2.3 9.6 2.3a30 30 0 0 0 10.5-1.8c.4-.2.7 0 .8.8a2 2 0 0 0 1.3 1.5c1.2.5 2.3.1 4.6-1.5l1.4-1-.5 1a17.4 17.4 0 0 1-11.5 6.6c-.2.1-.4 0-.4-.2 0-.4 0-.4-.3 0-.2.3-.4.3-.5.1zm27.7-4.5c0-.4 0-.5.2-.2v.7c-.2 0-.3-.1-.2-.5zm-5.8-2.8c-.4-.9-.3-1.1.1-.4.2.3.3.7.2.8 0 0-.2 0-.3-.4zm-28.6-.4-1-.2c-.6 0-1.3-.4-1.5-.7-.3-.4-.6-.5-.7-.4-.1.1-.2 0-.2-.3s.2-.5.4-.6l1.9-.3 3.1-.6c2.2-.2 2.8-1 1.2-1.5l-2.4-.9a12 12 0 0 0-2.5-.8c-.6-.1-1.7-.5-2.2-.8L71 201l1.2-.1a3 3 0 0 0 2-1c.7-1 .7-1 2.8-.4 2.5.6 3.2.5 3.9-.8.8-1.7 2.8-3 3.6-2.5.3.2.1.8-.4 2-.5 1-.8 1.9-.7 2 .1.2 1.1.3 2.3.2 1.1-.1 2 0 2 .1 0 .2.2.3.4.3a18 18 0 0 0 4.6-4.1c0-1 .7-.4 1 .8.4 1 .4 1.4-.1 2.1a26 26 0 0 1-8.5 5.2l.2.4c.4.5.3.6-.4.6h-.8l.8.7c.5.3.7.7.4.7-.2 0-.3.1-.2.3.4.6-2 .3-2.6-.3-.3-.5-.4-.5-.2 0s0 .7-.3.7-.6.1-.6.3c0 .2-.2.4-.4.4s-.3-.2-.1-.3c0-.2-.2-.3-.6-.2l-.7.4c0 .3-3.4.4-3.6.2zm8.8-1.5c0-.2 0-.4-.2-.4s-.4.2-.4.4.1.3.2.3l.4-.3zm2.2 0c0-.2.2-.4.4-.6.2 0 .3 0 .1.4-.2.6-.5.7-.5.2zm3-.4v-.6s.2.1.3.4c.3.6 0 .8-.3.2zm-4.4-.3c-.3-.2-.3-.4 0-.4.2 0 .4.2.6.4.2.4.1.4-.6 0zm5.1 0c-.2-.5.5-1.5 1-1.4a7 7 0 0 0 2.8-1.5l1.5-1.4 1.4-1.2-.6 1-1.3 1.9c-1.4 1.2-4.5 3-4.8 2.5zm7.7-5.2c-.6-.7-.5-1 .3-.5.4.2.7.5.7.7 0 .5-.5.4-1-.2zm-23.3-6.9c0-.4 1-1.8 2.5-3.4a68 68 0 0 0 4.1-4.7c1.3-1.9 2.3-2.8 1.6-1.6-.2.3-.1.3.2 0 .5-.5.2-2.5-.5-2.8-.8-.3-1.4-2-.9-3 .4-.7.4-.7.9 0 1 1.3 1.7 4.2 1.7 6.6v2.5l1.7.3h2.1c.2-.2.3 0 .2.2 0 .3-.7.9-1.4 1.3-.9.6-1.4 1.3-1.7 2.4-.5 2-1 2.4-3.1 2.5l-4.5.3c-2.8.1-3 .1-3-.6zm2.8-2.4c0-.2 0-.4-.2-.4l-.4.4c0 .2 0 .3.2.3s.4-.1.4-.3zm9.5 2.8c0-.2-.3-.2-.6 0-.4 0-.5 0-.4-.1a3 3 0 0 1 1.2-.4c.6-.1 1.6-.5 2.2-1 1.4-.7 1.8-.6.9.2-1 .8-3.3 1.8-3.3 1.3zm-17-1c-.7-.6 2.5-4 5.2-5.7 1-.6 1.2-.6.9 0-.4.6-5.5 6-5.7 6-.1 0-.3 0-.4-.2zM84 178l-.8-1c-.2-.4-1-1-1.9-1.2-1.4-.5-1.4-.5-.5-.7.6 0 1.5.1 2 .3 1 .5 2.5 2 2.5 2.5 0 .4-.8.4-1.3 0z" style="fill:#e79aaa;stroke-width:.352778" transform="translate(-44.5 -173.2)"/>
  <path d="M77.2 245.1c-6.9-1.4-12-5.8-13.3-11.3-.3-1.5-.9-2.5-2.7-4.5a28 28 0 0 1-6.8-11 53.6 53.6 0 0 0 8.8 12.5c2.4 2.4 3.4 4.4 3.4 6.7 0 1.7 4.7 5.4 6.6 5.2a7 7 0 0 1 2.3.8c2.4 1.1 6.8 1.4 10.6.6 4-.9 6-2.5 3.5-3-2.1-.4-5-.5-5.5-.1-.3.3-1.5.3-3.8.1-2.3-.2-3.4-.1-3.4.1.1.4-1 .3-2.2-.3-.5-.3-1-1-1.4-2-.4-1-.6-1.7-.4-1.7l-.2-.5c-.3-.2-.5-.6-.5-.9 0-.2-.4-.9-.9-1.4-1.5-1.6-1.2-1.8 1-.7 3.4 1.7 7.4 2 13.8 1.3 2.6-.3 3.4-.6 4-1.2.5-.5 1-.9 1.4-.9.3 0 1-.4 1.5-1 .6-.6 1.1-1 1.2-.9.5.5 2.4-.8 3.3-2 .5-.9 1.3-2 1.6-2.3.4-.5.6-.8.4-.8a7 7 0 0 1 1.9-1.4 23 23 0 0 0 7.9-8.8c.4-1.3.9-2.1 1-2a1083.1 1083.1 0 0 0-2.5 7.1c-1 2.9-3.4 6.3-6 9.2-2 2-2.4 2.8-2.9 4.4-1.2 5-4.7 8.2-10.4 10.1-2.9 1-8.2 1.3-11.3.6zm5.8-20c-1.6-.1-3.7-.5-4.8-.8-7.1-1.9-8.3-2.5-11.5-5.1-2.3-2-4.3-4.3-3-3.6.3.2.9.6 1.2 1a10 10 0 0 0 2.9 1.7c2 1 2.3 1 7.3 1 3.6 0 5.7-.2 7.2-.6 3.2-.9 4.8-.8 5.7.3.7.8.7.9.2 1.3-.4.2-.7.6-.7.9-.1.5 1 .3 3.8-.8 1-.4 2.6-.8 3.5-.8.9-.1 2-.4 2.4-.7 1.4-.8 1.3-.2 0 .8-1.5 1-1.7 1.5-.6 1.4 1.1 0 1.2 1 .1 2-2.3 1.7-7.9 2.6-13.7 2zm-17.3-2.4a22 22 0 0 1-7.6-6.2c-.8-1.2-1-2-1-3.3 0-2.3.5-2.6.8-.5.3 2.6.3 2.6.8 2.6.2 0 .6.4.8 1 .8 2 3.9 4.6 7.5 6.6 3.1 1.6 2.1 1.5-1.3-.2zm19.4-7c-1-.2-1.6-.8-1.3-1.3.1-.2 0-.1-.4.1-.4.4-.6.4-.6.1 0-.5-1.1-.4-1.5.1-.1.3-.2.2-.2 0 0-.3-.2-.4-.4-.3-.2 0-.4 0-.5-.2-.2-.2-.5-.2-1 0-.3.2-.7.2-.8 0L77 214a12 12 0 0 1-5.2-1.5 24 24 0 0 0-1.7-.9 18 18 0 0 1-3.7-3.5l1.6.8c.9.6 2.1 1.2 2.8 1.5 1.9.7 9 1 11.7.4 2.8-.6 4.2-.7 4-.3-.1.2 0 .3.2.3.3 0 .2.3-.1.8-.6.9-.6.9.3.7.6 0 .8 0 .7.2-.1.2 0 .3.2.2l1.7-.3a8 8 0 0 0 4.2-1.7l1.6-1.1-.8 1.1c-1.9 2.7-7.2 5.6-9.4 5.1zm0-.6c0-.2-.3-.2-.6 0-.3 0-.2.1.2.2.4 0 .6-.1.5-.2zm25.3-3.2c0-.4 0-.5.2-.2v.7c-.2 0-.3-.1-.2-.5zm-5.8-2.8c-.4-.9-.3-1.1.1-.4.2.3.3.7.2.8 0 0-.2 0-.3-.4zM80 203.9l-5-1.4c-2.8-.8-4-1.4-2-1.1 1.2.2 1.3.1 1.3-.5 0-1.2 1.2-1.6 3.5-1 1.1.4 3.5.7 5.4.7 1.9 0 3.6.2 3.8.3.6.4 2-.5 4.2-2.5 1-1 2-1.6 2-1.5.6 1 .4 2.2-.4 3.2a20.1 20.1 0 0 1-8.2 4c-2.2.4-2.5.4-4.6-.2zm18.6-2.6c-.3-.1-.6-.3-.6-.5s.3-.2.7 0c.4.2.7.5.7.6 0 0 0 .1 0 0l-.8-.1zm-16.1-3.6.5-1c.6-.5 1.2-.7 1.2-.2 0 .3-1.3 1.5-1.6 1.5l-.1-.3zm-5.7-3.3.6-.8c.3-.3.4-.5.3-.5-.1 0 .3-.6 1-1.2 1.2-1.2 2.2-2.7 1.7-2.7-.5 0-3.7 3-4.3 4-.4.6-.7.9-.7.6 0-.3 1.5-2 3.3-3.8 3-3 3.3-3.2 4.6-3.2 1.2 0 1.3.1 1 1 0 .8 0 1 .2.9.6-.4 4 .1 3.8.5-.1.2-.8.4-1.6.5-1.2.2-1.4.4-1.8 1.6-.7 2-1.6 2.8-4 3l-3.1.3c-.5 0-1 0-1-.2zm-4.4-3.6c.8-.7 1.5-1.3 1.8-1.3.2 0 .1.2-.1.3-.3.2-.5.5-.5.6 0 .4-1.9 1.6-2.3 1.6-.1 0 .4-.6 1.1-1.2zm11-14c-.3-.6-1.1-1-2-1.3-1.5-.3-1.5-.4-.4-.4 1.4 0 3 .8 3.6 1.7.5 1-.5 1-1.2 0z" style="fill:#cdb4a1;stroke-width:.352778" transform="translate(-44.5 -173.2)"/>
  <path d="M78 245.2c-7.4-1.2-13-6-14.2-12l-.2-1.7.9 1.1a10 10 0 0 1 1.5 4.5c.2 1.2 3.4 4.2 5.5 5.2 3.2 1.5 5.1 2 9 2.2 4.5.2 7-.2 9.6-1.6 1.5-.7 1.9-1.1 1.9-1.7 0-.5-.2-1-.4-1a.4.4 0 0 1-.1-.6c.1-.2-.2-.3-.7-.1l-2.6.3-4.6.3a16 16 0 0 1-5.4-.3c-2.6-.6-3.7-1.1-3.3-1.5a2 2 0 0 0-.5-1c-.6-.6-.5-.6 4.4-.4a142.4 142.4 0 0 1 7.1.6c.3 0 .4.2.3.6-.3.8 1.1.3 2.3-.8.5-.5 1-.9 1.3-.9.2 0 .4-.1.4-.3 0-.2.2-.3.3-.2.2 0 .7-.2 1.1-.7.5-.5 1.7-1.3 2.7-1.9 1-.6 2.6-2 3.6-3.2 1.7-2 2.4-3.2 1.4-2.6-1 .6.5-1 4.4-4.8 3.2-3 4.4-4.5 5.2-6.2 1.2-2.4 1.4-2 .4.5a40.5 40.5 0 0 1-4 8.5 45 45 0 0 1-3.6 4.5c-1.8 2-2.3 2.8-2.8 4.4-.6 2.6-2.3 5.2-4.2 6.8-4.3 3.5-10.7 5-16.7 4zm-18-17.4a31 31 0 0 1-4.3-6.4c-1.7-3.4-1.3-3.1.7.4 1 1.8 2.5 4 3.3 5.2 1.8 2.3 1.9 2.7.3.8zm23-2.7c-1.6-.1-3.7-.5-4.8-.8-7.1-1.9-8.3-2.5-11.5-5.1-2.3-2-4.3-4.3-3-3.6.3.2.9.6 1.2 1a10 10 0 0 0 2.9 1.7c2 1 2.3 1 7.3 1 3.6 0 5.7-.2 7.2-.6 3.2-.9 4.8-.8 5.7.3.7.8.7.9.2 1.3-.4.2-.7.6-.7.9-.1.5 1 .3 3.8-.8 1-.4 2.6-.8 3.5-.8.9-.1 2-.4 2.4-.7 1.4-.8 1.3-.2 0 .8-1.5 1-1.7 1.5-.6 1.4 1.1 0 1.2 1 .1 2-2.3 1.7-7.9 2.6-13.7 2zm-17.3-2.4c-6-3-10-8-8.3-10.5.3-.5.4.1.8 2.6 0 .3.2.5.5.5.2 0 .6.4.8 1 .8 2 3.9 4.6 7.5 6.6 3.1 1.6 2.1 1.5-1.3-.2zm19.4-7c-1-.2-1.6-.8-1.3-1.3.1-.2 0-.1-.4.1-.4.4-.6.4-.6.1 0-.5-1.1-.4-1.5.1-.1.3-.2.2-.2 0 0-.3-.2-.4-.4-.3-.2 0-.4 0-.5-.2-.2-.2-.5-.2-1 0-.3.2-.7.2-.8 0L77 214a12 12 0 0 1-5.2-1.5 24 24 0 0 0-1.7-.9 18 18 0 0 1-3.7-3.5l1.6.8c.9.6 2.1 1.2 2.8 1.5 1.9.7 9 1 11.7.4 2.8-.6 4.2-.7 4-.3-.1.2 0 .3.2.3.3 0 .2.3-.1.8-.6.9-.6.9.3.7.6 0 .8 0 .7.2-.1.2 0 .3.2.2l1.7-.3a8 8 0 0 0 4.2-1.7l1.6-1.1-.8 1.1c-1.9 2.7-7.2 5.6-9.4 5.1zm0-.6c0-.2-.3-.2-.6 0-.3 0-.2.1.2.2.4 0 .6-.1.5-.2zm19.5-6c-.4-.9-.3-1.1.1-.4.2.3.3.7.2.8 0 0-.2 0-.3-.4zM80 203.9l-5-1.4c-2.8-.8-4-1.4-2-1.1 1.2.2 1.3.1 1.3-.5 0-1.2 1.2-1.6 3.5-1 1.1.4 3.5.7 5.4.7 1.9 0 3.6.2 3.8.3.6.4 2-.5 4.2-2.5 1-1 2-1.6 2-1.5.6 1 .4 2.2-.4 3.2a20.1 20.1 0 0 1-8.2 4c-2.2.4-2.5.4-4.6-.2zm18.6-2.6c-.3-.1-.6-.3-.6-.5s.3-.2.7 0c.4.2.7.5.7.6 0 0 0 .1 0 0l-.8-.1zm-16.1-3.6.5-1c.6-.5 1.2-.7 1.2-.2 0 .3-1.3 1.5-1.6 1.5l-.1-.3zm-5.7-3.3.6-.8c.3-.3.4-.5.3-.5-.1 0 .3-.6 1-1.2 1.2-1.2 2.2-2.7 1.7-2.7-.5 0-3.7 3-4.3 4-.4.6-.7.9-.7.6 0-.3 1.5-2 3.3-3.8 3-3 3.3-3.2 4.6-3.2 1.2 0 1.3.1 1 1 0 .8 0 1 .2.9.6-.4 4 .1 3.8.5-.1.2-.8.4-1.6.5-1.2.2-1.4.4-1.8 1.6-.7 2-1.6 2.8-4 3l-3.1.3c-.5 0-1 0-1-.2zm-4.4-3.6c.8-.7 1.5-1.3 1.8-1.3.2 0 .1.2-.1.3-.3.2-.5.5-.5.6 0 .4-1.9 1.6-2.3 1.6-.1 0 .4-.6 1.1-1.2zm11-14c-.3-.6-1.1-1-2-1.3-1.5-.3-1.5-.4-.4-.4 1.4 0 3 .8 3.6 1.7.5 1-.5 1-1.2 0z" style="fill:#dc92a3;stroke-width:.352778" transform="translate(-44.5 -173.2)"/>
  <path d="M78 245.2c-7.4-1.2-13-6-14.2-12l-.2-1.7.9 1.1a10 10 0 0 1 1.5 4.5c.2 1.2 3.4 4.2 5.5 5.2 3.2 1.5 5.1 2 9 2.2 4.5.2 7-.2 9.6-1.6 1.5-.7 1.9-1.1 1.9-1.7 0-.5-.2-1-.4-1a.4.4 0 0 1-.1-.6c.1-.2-.2-.3-.7-.1l-2.6.3-4.6.3a16 16 0 0 1-5.4-.3c-2.6-.6-3.7-1.1-3.3-1.5a2 2 0 0 0-.5-1c-.6-.6-.5-.6 4.4-.4a142.4 142.4 0 0 1 7.1.6c.3 0 .4.2.3.6-.3.8 1.1.3 2.3-.8.5-.5 1-.9 1.3-.9.2 0 .4-.1.4-.3 0-.2.2-.3.3-.2.2 0 .7-.2 1.1-.7.5-.5 1.7-1.3 2.7-1.9 1-.6 2.6-2 3.6-3.2 1.7-2 2.4-3.2 1.4-2.6-1 .6.5-1 4.4-4.8 3.2-3 4.4-4.5 5.2-6.2 1.2-2.4 1.4-2 .4.5a40.5 40.5 0 0 1-4 8.5 45 45 0 0 1-3.6 4.5c-1.8 2-2.3 2.8-2.8 4.4-.6 2.6-2.3 5.2-4.2 6.8-4.3 3.5-10.7 5-16.7 4zm-18-17.4a31 31 0 0 1-4.3-6.4c-1.7-3.4-1.3-3.1.7.4 1 1.8 2.5 4 3.3 5.2 1.8 2.3 1.9 2.7.3.8zm21.4-3.2a37.5 37.5 0 0 1-12.4-3.7l-2.4-1.8c-2.1-1.7-4.3-4.2-3-3.5a16.2 16.2 0 0 0 8.3 4c1.6.2 3.6.2 5.4 0l4.6-.2c1 0 2-.2 2.2-.4.3-.1.4 0 .2.4 0 .3 0 .5.1.4.2-.1.7 0 1 .3.8.6.6.6-.6.1-.7-.2-1-.2-1 .2 0 .3.3.6.5.7.2.2.3.1.1-.1-.1-.2 0-.4.2-.4s.3.2.2.5l-.2.8h-.4c-.2-.2-.3-.1-.3 0 0 .3-.3.4-.6.4-.2 0-.5.2-.5.4s.2.3.3.2l2-.4c.8 0 2.7-.6 4.1-1 1.4-.6 3.4-1 4.4-1.1 1.6-.1 1.7-.1 1 .4l-1 .5c-.2 0 0 .3.2.6.4.4.5.8.3 1.3s-.3.5-.3.2c0-.5-.1-.5-.4 0-.2.3-.3.4-.4.2 0-.2 0-.2-.2 0-.2.3-.8.6-1.3.7-1.3.3-8.8.5-10.1.3zm-15.7-2c-4.8-2.3-8.6-6.3-8.6-8.9 0-2.4.8-1.6 1 1.1.1.3.3.5.6.5.2 0 .6.4.8 1 .8 2 3.9 4.6 7.5 6.6 3.1 1.6 2.1 1.5-1.3-.2zm28.8.5c0-.2.2-.5.5-.8.6-.4.6-.4.2.3-.4.8-.7 1-.7.5zm1-3 .6-.4c.3 0 .4 0 .3.2-.2.3-.9.5-.9.2zm1.9-1.1c.3-.4.7-.6.8-.5.1.2-.2.4-.6.7-.8.4-.8.4-.2-.2zm-11-3.6v-.8c0-.5-.1-.5-.4 0-.2.3-.4.3-.4.1 0-.5-3-1-7.5-1-4 0-5-.3-7.8-2a21 21 0 0 1-4-3.7c.1-.1 1 .3 1.9 1 2.6 1.7 4.4 2.1 9.8 2.2a19.8 19.8 0 0 1 6 .6c.2-.1.2 0 0 .3-.3.4-.3.6 0 1 .4.3.6.3.7 0 .1-.4.2-.4.2 0 0 .5 2.5.6 4.4 0 .7-.2 2.3-1 3.6-1.9 1.8-1.2 2.2-1.4 1.7-.7-.8 1.2-3 2.8-5.4 4-2 1.1-2.9 1.4-2.8.9zm18.2-6.3c-.4-.9-.3-1.1.1-.4.2.3.3.7.2.8 0 0-.2 0-.3-.4zm-27.4-6a14 14 0 0 0-3-.9c-.4 0-1-.1-1.3-.3-.3-.2.2-.3 1.6-.2 1.5.1 2 0 1.4-.1-.4-.2-.5-.4-.3-.4s.5-.4.6-.8c.2-.5.4-.7.9-.5 1.3.6 3.3 1 5.6 1 1.3 0 2.7.2 3.2.4 1 .4 2.9-.6 5.3-2.9l1.8-1.7v1.3c0 1.5-.4 2-2.3 3.2a16 16 0 0 1-13.5 1.9zm21.3-2.1c-.7-.6-.7-.6.1-.2l.8.6c0 .2-.2.1-1-.4zm-16.9-6.8c-.1-.2-1-.3-1.7-.3-1.6 0-2.1-.5-1.1-1l1.8-1.6c.6-.6 1.3-1 1.5-.9.3.2.2.4-.1.7-1 .7-1.7 2.2-1.3 2.5.2.1.4 0 .4-.4a8 8 0 0 1 1.8-2.6c1.9-2 2-2 3.6-1.8 1.8.2 1.8.2.8.7l-1.4.4c-.3 0-.7.4-.9 1-.8 1.8-1.4 2.6-2.3 3-.5.3-1 .4-1.1.3zm1.2-18.4c-.3-.2-.3-.4 0-.4l.5.4c.3.4.2.4-.5 0z" style="fill:#e5909a;stroke-width:.352778" transform="translate(-44.5 -173.2)"/>
  <path d="M78 245.2c-7.4-1.2-13-6-14.2-12l-.2-1.7.9 1.1a10 10 0 0 1 1.5 4.5c.2 1.2 3.4 4.2 5.5 5.2 3.2 1.5 5.1 2 9 2.2 4.5.2 7-.2 9.6-1.6 1.5-.7 1.9-1.1 1.9-1.7 0-.5-.2-1-.4-1a.4.4 0 0 1-.1-.6c.1-.2-.2-.3-.7-.1l-2.6.3-4.6.3a16 16 0 0 1-5.4-.3c-2.6-.6-3.7-1.1-3.3-1.5a2 2 0 0 0-.5-1c-.6-.6-.5-.6 4.4-.4a142.4 142.4 0 0 1 7.1.6c.3 0 .4.2.3.6-.3.8 1.1.3 2.3-.8.5-.5 1-.9 1.3-.9.2 0 .4-.1.4-.3 0-.2.2-.3.3-.2.2 0 .7-.2 1.1-.7.5-.5 1.7-1.3 2.7-1.9 1-.6 2.6-2 3.6-3.2 1.7-2 2.4-3.2 1.4-2.6-1 .6.5-1 4.4-4.8 3.2-3 4.4-4.5 5.2-6.2 1.2-2.4 1.4-2 .4.5a40.5 40.5 0 0 1-4 8.5 45 45 0 0 1-3.6 4.5c-1.8 2-2.3 2.8-2.8 4.4-.6 2.6-2.3 5.2-4.2 6.8-4.3 3.5-10.7 5-16.7 4zm-18-17.4a31 31 0 0 1-4.3-6.4c-1.7-3.4-1.3-3.1.7.4 1 1.8 2.5 4 3.3 5.2 1.8 2.3 1.9 2.7.3.8zm20.4-3.3a26.7 26.7 0 0 1-6.2-1.6c-4-1.2-9-4.3-8.2-5 .2-.2.4 0 .6.2l.3.3c0-.2.5 0 1 .2a22 22 0 0 0 9.4 1l4.6-.2c1 0 2-.2 2.2-.4.3-.1.4 0 .2.4 0 .3 0 .5.1.4.2-.1.7 0 1 .3.8.6.6.6-.6.1-.7-.2-1-.2-1 .2 0 .3.3.6.5.7.2.2.3.1.1-.1-.1-.2 0-.4.2-.4s.3.2.2.5l-.2.8h-.4c-.2-.2-.3-.1-.3 0 0 .3-.3.4-.6.4-.2 0-.5.2-.5.4s.2.3.3.2l2-.4c.8 0 2.7-.6 4.1-1 1.4-.6 3.4-1 4.4-1.1 1.6-.1 1.7-.1 1 .4l-1 .5c-.2 0 0 .3.2.6.4.4.5.8.3 1.3s-.3.5-.3.2c0-.5-.1-.5-.4 0-.2.3-.3.4-.4.2 0-.2 0-.2-.2 0-.2.3-.8.6-1.3.7-1.7.4-9 .5-11 .2zm14-1.4c0-.2.3-.5.6-.8.6-.4.6-.4.2.3-.4.8-.7 1-.7.5zM63 221c-2.3-1.6-3.7-3-3.7-3.7 0-.5.8.1 2.4 1.7a30.7 30.7 0 0 0 3.4 3.2c-.2 0-1.1-.5-2-1.2zm32.6-1 .6-.4c.3 0 .4 0 .3.2-.2.3-.9.5-.9.2zm-38.2-4.7-.2-1.7v-1.4l.3 1.5c.4 1.6.3 2-.1 1.6zm28.3-.7c0-.5-3-1-7.2-1-3.3 0-3.7 0-6.2-1.3a17 17 0 0 1-3.8-2.6l-1.3-1.3 1.3.8c2.6 1.5 5.3 2 10 2 2.9 0 4.5.1 4.9.4.2.2.6.3.8.1l-.1.3c-.3.4-.3.6 0 1 .5.4.6.4.6 0s0-.3.3 0c.2.4.8.5 2.5.3 2-.2 3.2-.7 6.2-2.5 1-.6.9-.5-.4.8-2.1 2.3-6.8 4.2-6.9 2.8 0-.3 0-.3-.3 0-.2.4-.4.4-.4.2zm-6.8-11.4c-1-.4-2.2-.7-2.7-.7a5 5 0 0 1-1.6-.4l-.7-.3h2.8l-.7-.4c-.4-.1-.5-.3-.3-.3s.5-.4.6-.8c.2-.5.4-.7.9-.5 1.3.6 3.3 1 5.6 1 1.3 0 2.7.2 3 .3 1 .5 3-.3 4.9-2 1.5-1.5 2.5-1.7 2.3-.5-.2 1.5-2.2 3-6 4.3a11.3 11.3 0 0 1-8.1.3zm-.7-9.5c-.3-.2.5-1.1.9-1.1.2 0 .9-.6 1.6-1.3.9-1 1.3-1.2 1.6-.9.3.3.3.4 0 .4-.5 0-1.9 2.2-1.6 2.6.2.4.8 0 .8-.7 0-.6 1.3-2 2.3-2.4.6-.2.6-.2 0 .5-.3.3-.4.7-.3.9.1 0 0 .2-.2.2s-.3.2-.1.6c.1.4 0 .5-.2.3-.2-.1-.5 0-.7.4-.2.3-.4.5-.6.5h-.3c-.6.1-3 .2-3.2 0zm7-4.2c-.5-.2-.7-.4-.6-.6.2-.3.8-.3 1.8 0 1.3.2 1.5.3 1 .5-1 .4-1.2.4-2.3 0zm-2.3-13.8c-.3-.2-.3-.4 0-.4l.5.4c.3.4.2.4-.5 0z" style="fill:#c7ab96;stroke-width:.352778" transform="translate(-44.5 -173.2)"/>
  <path d="M77.6 245.1c-7-1.3-12.8-6.2-13.7-11.7-.2-1.3-.2-1.3.3-.7.3.4.6 1.2.6 1.6 0 .5.4 1.8 1 2.8 2.5 5 10.9 8.4 18.6 7.5 3.4-.5 3.4-.5 6.6-1.9 2.1-1 3-1.7 2-1.7-.5 0-.2-3.6.4-4.6l2.6-3c1.2-1.2 3.4-4 5-6.3 1.5-2.3 3.7-5.1 4.8-6.3 1.1-1.1 2.5-3 3.2-4.2 1.2-2.5 1.1-2-.4 2.2a30.6 30.6 0 0 1-7.5 11.9 7.8 7.8 0 0 0-2.3 3.8c-2 7.7-11.5 12.4-21.2 10.6zm2.8-20.6a26.7 26.7 0 0 1-6.2-1.6c-4-1.2-9-4.3-8.2-5 .2-.2.4 0 .6.2l.3.3c0-.2.5 0 1 .2a22 22 0 0 0 9.4 1l4.6-.2c1 0 2-.2 2.2-.4.3-.1.4 0 .2.4 0 .3 0 .5.1.4.2-.1.7 0 1 .3.8.6.6.6-.6.1-.7-.2-1-.2-1 .2 0 .3.3.6.5.7.2.2.3.1.1-.1-.1-.2 0-.4.2-.4s.3.2.2.5l-.2.8h-.4c-.2-.2-.3-.1-.3 0 0 .3-.3.4-.6.4-.2 0-.5.2-.5.4s.2.3.3.2l2-.4c.8 0 2.7-.6 4.1-1 1.4-.6 3.4-1 4.4-1.1 1.6-.1 1.7-.1 1 .4l-1 .5c-.2 0 0 .3.2.6.4.4.5.8.3 1.3s-.3.5-.3.2c0-.5-.1-.5-.4 0-.2.3-.3.4-.4.2 0-.2 0-.2-.2 0-.2.3-.8.6-1.3.7-1.7.4-9 .5-11 .2zm14-1.4c0-.2.3-.5.6-.8.6-.4.6-.4.2.3-.4.8-.7 1-.7.5zM63 221c-2.3-1.6-3.7-3-3.7-3.7 0-.5.8.1 2.4 1.7a30.7 30.7 0 0 0 3.4 3.2c-.2 0-1.1-.5-2-1.2zm32.6-1 .6-.4c.3 0 .4 0 .3.2-.2.3-.9.5-.9.2zm-38.2-4.7-.2-1.2v-.9l.3.9c.4 1 .3 1.6 0 1.2zm28.3-.7c0-.5-3-1-7.2-1-3.3 0-3.7 0-6.2-1.3a17 17 0 0 1-3.8-2.6l-1.3-1.3 1.3.8c2.6 1.5 5.3 2 10 2 2.9 0 4.5.1 4.9.4.2.2.6.3.8.1l-.1.3c-.3.4-.3.6 0 1 .5.4.6.4.6 0s0-.3.3 0c.2.4.8.5 2.5.3 2-.2 3.2-.7 6.2-2.5 1-.6.9-.5-.4.8-2.1 2.3-6.8 4.2-6.9 2.8 0-.3 0-.3-.3 0-.2.4-.4.4-.4.2zm-6.8-11.4c-1-.4-2.2-.7-2.7-.7a5 5 0 0 1-1.6-.4l-.7-.3h2.8l-.7-.4c-.4-.1-.5-.3-.3-.3s.5-.4.6-.8c.2-.5.4-.7.9-.5 1.3.6 3.3 1 5.6 1 1.3 0 2.7.2 3 .3 1 .5 3-.3 4.9-2 1.5-1.5 2.5-1.7 2.3-.5-.2 1.5-2.2 3-6 4.3a11.3 11.3 0 0 1-8.1.3zm-.7-9.5c-.3-.2.5-1.1.9-1.1.2 0 .9-.6 1.6-1.3.9-1 1.3-1.2 1.6-.9.3.3.3.4 0 .4-.5 0-1.9 2.2-1.6 2.6.2.4.8 0 .8-.7 0-.6 1.3-2 2.3-2.4.6-.2.6-.2 0 .5-.3.3-.4.7-.3.9.1 0 0 .2-.2.2s-.3.2-.1.6c.1.4 0 .5-.2.3-.2-.1-.5 0-.7.4-.2.3-.4.5-.6.5h-.3c-.6.1-3 .2-3.2 0zm7-4.2c-.5-.2-.7-.4-.6-.6.2-.3.8-.3 1.8 0 1.3.2 1.5.3 1 .5-1 .4-1.2.4-2.3 0zm-2.3-13.8c-.3-.2-.3-.4 0-.4l.5.4c.3.4.2.4-.5 0z" style="fill:#c8a488;stroke-width:.352778" transform="translate(-44.5 -173.2)"/>
  <path d="M77.6 245.1c-3.5-.7-7.2-2.5-9.6-4.7l-2-1.9 2.2 1.7a21 21 0 0 0 13.7 4.5c4 0 7-.7 9.8-2.1 1-.5 1.7-.7 1.5-.5-.3.5-3.2 2-5.4 2.6a25 25 0 0 1-10.2.4zm16.2-3.5.6-.6c.5-.5.5-.4.1.1-.5.6-.7.8-.7.5zm.2-2.2-.2-1.5c0-1 .4-1.6 4.7-5.8a36 36 0 0 0 5.2-5.8c.2-.7.6-1 1-1 .9 0 .6.6-2.8 4.4a19.4 19.4 0 0 0-2.9 3.7c0 1-1 3-2 3.8-.8.5-1.1 1-1 1.4 0 .4 0 .6-.2.5-.1-.1-.6 0-1 .1-.3.2-.7.3-.8.2zm-29.4-3.5c-.3-.7-.5-1.4-.4-1.6 0-.2.4.4.7 1.3.7 1.9.5 2-.3.3zm-.8-2.8c0-.4 0-.5.2-.2v.6c-.1.1-.2 0-.2-.4zm16.6-8.6a26.7 26.7 0 0 1-6.2-1.6c-4-1.2-9-4.3-8.2-5 .2-.2.4 0 .6.2l.3.3c0-.2.5 0 1 .2a22 22 0 0 0 9.4 1l4.6-.2c1 0 2-.2 2.2-.4.3-.1.4 0 .2.4 0 .3 0 .5.1.4.2-.1.7 0 1 .3.8.6.6.6-.6.1-.7-.2-1-.2-1 .2 0 .3.3.6.5.7.2.2.3.1.1-.1-.1-.2 0-.4.2-.4s.3.2.2.5l-.2.8h-.4c-.2-.2-.3-.1-.3 0 0 .3-.3.4-.6.4-.2 0-.5.2-.5.4s.2.3.3.2l2-.4c.8 0 2.7-.6 4.1-1 1.4-.6 3.4-1 4.4-1.1 1.6-.1 1.7-.1 1 .4l-1 .5c-.2 0 0 .3.2.6.4.4.5.8.3 1.3s-.3.5-.3.2c0-.5-.1-.5-.4 0-.2.3-.3.4-.4.2 0-.2 0-.2-.2 0-.2.3-.8.6-1.3.7-1.7.4-9 .5-11 .2zm14-1.4c0-.2.3-.5.6-.8.6-.4.6-.4.2.3-.4.8-.7 1-.7.5zM63 221c-2.3-1.6-3.7-3-3.7-3.7 0-.5.8.1 2.4 1.7a30.7 30.7 0 0 0 3.4 3.2c-.2 0-1.1-.5-2-1.2zm43.7-1c1.9-2 2.2-2.3 1.3-1.1a9.5 9.5 0 0 1-2.4 2.6l1.1-1.5zm-11 0c0-.1.2-.3.5-.4.3 0 .4 0 .3.2-.2.3-.9.5-.9.2zm-38.3-4.7-.2-1.2v-.9l.3.9c.4 1 .3 1.6 0 1.2zm28.3-.7c0-.5-3-1-7.2-1-3.3 0-3.7 0-6.2-1.3a17 17 0 0 1-3.8-2.6l-1.3-1.3 1.3.8c2.6 1.5 5.3 2 10 2 2.9 0 4.5.1 4.9.4.2.2.6.3.8.1l-.1.3c-.3.4-.3.6 0 1 .5.4.6.4.6 0s0-.3.3 0c.2.4.8.5 2.5.3 2-.2 3.2-.7 6.2-2.5 1-.6.9-.5-.4.8-2.1 2.3-6.8 4.2-6.9 2.8 0-.3 0-.3-.3 0-.2.4-.4.4-.4.2zm-6.8-11.4c-1-.4-2.2-.7-2.7-.7a5 5 0 0 1-1.6-.4l-.7-.3h2.8l-.7-.4c-.4-.1-.5-.3-.3-.3s.5-.4.6-.8c.2-.5.4-.7.9-.5 1.3.6 3.3 1 5.6 1 1.3 0 2.7.2 3 .3 1 .5 3-.3 4.9-2 1.5-1.5 2.5-1.7 2.3-.5-.2 1.5-2.2 3-6 4.3a11.3 11.3 0 0 1-8.1.3zm-.7-9.5c-.3-.2.5-1.1.9-1.1.2 0 .9-.6 1.6-1.3.9-1 1.3-1.2 1.6-.9.3.3.3.4 0 .4-.5 0-1.9 2.2-1.6 2.6.2.4.8 0 .8-.7 0-.6 1.3-2 2.3-2.4.6-.2.6-.2 0 .5-.3.3-.4.7-.3.9.1 0 0 .2-.2.2s-.3.2-.1.6c.1.4 0 .5-.2.3-.2-.1-.5 0-.7.4-.2.3-.4.5-.6.5h-.3c-.6.1-3 .2-3.2 0zm7-4.2c-.5-.2-.7-.4-.6-.6.2-.3.8-.3 1.8 0 1.3.2 1.5.3 1 .5-1 .4-1.2.4-2.3 0zm-2.3-13.8c-.3-.2-.3-.4 0-.4l.5.4c.3.4.2.4-.5 0z" style="fill:#d48a95;stroke-width:.352778" transform="translate(-44.5 -173.2)"/>
  <path d="M77.6 245.1c-3.5-.7-7.2-2.5-9.6-4.7l-2-1.9 2.2 1.7a21 21 0 0 0 13.7 4.5c4 0 7-.7 9.8-2.1 1-.5 1.7-.7 1.5-.5-.3.5-3.2 2-5.4 2.6a25 25 0 0 1-10.2.4zm16.2-3.5.6-.6c.5-.5.5-.4.1.1-.5.6-.7.8-.7.5zm.2-2.2-.2-1.5c0-1 .4-1.6 4.7-5.8a36 36 0 0 0 5.2-5.8c.2-.7.6-1 1-1 .9 0 .6.6-2.8 4.4a19.4 19.4 0 0 0-2.9 3.7c0 1-1 3-2 3.8-.8.5-1.1 1-1 1.4 0 .4 0 .6-.2.5-.1-.1-.6 0-1 .1-.3.2-.7.3-.8.2zm-29.4-3.5c-.3-.7-.5-1.4-.4-1.6 0-.2.4.4.7 1.3.7 1.9.5 2-.3.3zm-.8-2.8c0-.4 0-.5.2-.2v.6c-.1.1-.2 0-.2-.4zm15.2-9c-2.9-.4-2.6-.7.9-.7 2.1 0 4.3-.3 6.8-1 4.4-1 5.6-1.2 5.6-.8 0 .2-.4.4-1 .5-.5.2-1.3.6-1.7 1a3 3 0 0 1-1.3.6c-.3 0-.6.2-.7.4-.3.4-5.8.4-8.6 0zm-6.7-2.1a26 26 0 0 1-5.5-3c-1-.7-.2-.7 1.5 0l2.2.7c1.5.2 2.4.5 2.8.7.2.1.3 0 .3-.2 0-.3.2-.3.8 0 .3.2.8.3 1 .2.3-.2.6 0 .7.2.2.3.4.4.4 0 0-.3.3-.3 2.5.2.8.1.9.3.5.6-.2.3-.8.6-1.3.7-.5.1-.7.1-.4 0 .2 0 .4-.3.4-.6 0-.2-.3 0-.7.3-.3.3-.8.5-1 .4-.2-.1-.4 0-.6.1-.1.3-.4.3-.8 0-.4-.4-.5-.4-.3 0 .4.6-.3.5-2.5-.3zm34.3-1.9c1.9-2 2.2-2.3 1.3-1.1a9.5 9.5 0 0 1-2.4 2.6l1.1-1.5zM88.5 214c0-.2.2-.4.4-.4.3 0 1.4-.5 2.5-1.2 2.4-1.5 2.7-1.1.3.4-2 1.3-3.2 1.7-3.2 1.2zm-14.7-1c-2.4-1-4.2-2.1-4.8-2.8-.5-.6-.4-.6.5 0l1.7.7 1.8.5 2.4.5c.9 0 1.7.2 1.8.4 0 .1.7.3 1.3.3.6 0 1 .2 1 .4-.2 0 0 .3.4.4l-2 .2c-1.8 0-3.1-.2-4-.6zm5.8-9.7a6 6 0 0 0-2.5-.7c-1.3 0 3.5-.6 6.8-.7 3.2-.2 5-.9 6.6-2.5 1-1.1 1.6-1.2 1.2-.3-.5 1.5-2.9 3.2-5.5 4-2 .6-5.3.7-6.6.2zm2.2-11c0-.4.1-.6.3-.5.2 0 .4.3.4.5s-.2.4-.4.4c-.2.1-.3-.1-.3-.4z" style="fill:#bb9d84;stroke-width:.352778" transform="translate(-44.5 -173.2)"/>
  <path d="M80 245.4c-5.7-.9-9-2.3-12-5-1.8-1.7-1.8-1.8-.2-.5 4.2 3.5 8 4.8 14 4.8 2.6 0 4.8-.2 6.1-.6a9 9 0 0 1 2.2-.4 19.4 19.4 0 0 1-10.1 1.6zm13.8-3.8.6-.6c.5-.5.5-.4.1.1-.5.6-.7.8-.7.5zm1-3c-.2-2 0-2.2 3.4-6 4.4-4.6 5.3-5.6 5.6-6.6.1-.5.5-.8.9-.7.9 0 .6.5-2.8 4.4a19.4 19.4 0 0 0-2.9 3.7c0 1-1 3-2 3.8-.7.5-1.1 1-1 1.4 0 .3-.1.5-.5.5s-.7-.2-.7-.4zM79 224.2c-2.9-.4-2.6-.7.9-.7 2.1 0 4.3-.3 6.8-1 4.4-1 5.6-1.2 5.6-.8 0 .2-.4.4-1 .5-.5.2-1.3.6-1.7 1a3 3 0 0 1-1.3.6c-.3 0-.6.2-.7.4-.3.4-5.8.4-8.6 0zm-6.7-2.1a26 26 0 0 1-5.5-3c-1-.7-.2-.7 1.5 0l2.2.7c1.5.2 2.4.5 2.8.7.2.1.3 0 .3-.2 0-.3.2-.3.8 0 .3.2.8.3 1 .2.3-.2.6 0 .7.2.2.3.4.4.4 0 0-.3.3-.3 2.5.2.8.1.9.3.5.6-.2.3-.8.6-1.3.7-.5.1-.7.1-.4 0 .2 0 .4-.3.4-.6 0-.2-.3 0-.7.3-.3.3-.8.5-1 .4-.2-.1-.4 0-.6.1-.1.3-.4.3-.8 0-.4-.4-.5-.4-.3 0 .4.6-.3.5-2.5-.3zm34.3-1.9c1.9-2 2.2-2.3 1.3-1.1a9.5 9.5 0 0 1-2.4 2.6l1.1-1.5zM88.5 214c0-.2.2-.4.4-.4.3 0 1.4-.5 2.5-1.2 2.4-1.5 2.7-1.1.3.4-2 1.3-3.2 1.7-3.2 1.2zm-14.7-1c-2.4-1-4.2-2.1-4.8-2.8-.5-.6-.4-.6.5 0l1.7.7 1.8.5 2.4.5c.9 0 1.7.2 1.8.4 0 .1.7.3 1.3.3.6 0 1 .2 1 .4-.2 0 0 .3.4.4l-2 .2c-1.8 0-3.1-.2-4-.6zm5.8-9.7a6 6 0 0 0-2.5-.7c-1.3 0 3.5-.6 6.8-.7 3.2-.2 5-.9 6.6-2.5 1-1.1 1.6-1.2 1.2-.3-.5 1.5-2.9 3.2-5.5 4-2 .6-5.3.7-6.6.2zm2.2-11c0-.4.1-.6.3-.5.2 0 .4.3.4.5s-.2.4-.4.4c-.2.1-.3-.1-.3-.4z" style="fill:#c69a7c;stroke-width:.352778" transform="translate(-44.5 -173.2)"/>
  <path d="M80 245.4c-5.7-.9-9-2.3-12-5-1.8-1.7-1.8-1.8-.2-.5 4.2 3.5 8 4.8 14 4.8 2.6 0 4.8-.2 6.1-.6a9 9 0 0 1 2.2-.4 19.4 19.4 0 0 1-10.1 1.6zm14.7-8.6c-.2-.3 1.8-2.4 3.8-4l1-.8-1.1 1.7c-1.4 1.9-3.4 3.6-3.7 3.1zM79 224.1c-2.9-.4-2.6-.7.9-.7 2.1 0 4.3-.3 6.8-1 4.4-1 5.6-1.2 5.6-.8 0 .2-.4.4-1 .5-.5.2-1.3.6-1.7 1a3 3 0 0 1-1.3.6c-.3 0-.6.2-.7.4-.3.4-5.8.4-8.6 0zm-6.7-2.1a26 26 0 0 1-5.5-3c-1-.7-.2-.7 1.5 0l2.2.7c1.5.2 2.4.5 2.8.7.2.1.3 0 .3-.2 0-.3.2-.3.8 0 .3.2.8.3 1 .2.3-.2.6 0 .7.2.2.3.4.4.4 0 0-.3.3-.3 2.5.2.8.1.9.3.5.6-.2.3-.8.6-1.3.7-.5.1-.7.1-.4 0 .2 0 .4-.3.4-.6 0-.2-.3 0-.7.3-.3.3-.8.5-1 .4-.2-.1-.4 0-.6.1-.1.3-.4.3-.8 0-.4-.4-.5-.4-.3 0 .4.6-.3.5-2.5-.3zm16.2-8.1c0-.2.2-.4.4-.4.3 0 1.4-.5 2.5-1.2 2.4-1.5 2.7-1.1.3.4-2 1.3-3.2 1.7-3.2 1.2zm-14.7-1c-2.4-1-4.2-2.1-4.8-2.8-.5-.6-.4-.6.5 0l1.7.7 1.8.5 2.4.5c.9 0 1.7.2 1.8.4 0 .1.7.3 1.3.3.6 0 1 .2 1 .4-.2 0 0 .3.4.4l-2 .2c-1.8 0-3.1-.2-4-.6zm5.8-9.7a6 6 0 0 0-2.5-.7c-1.3 0 3.5-.6 6.8-.7 3.2-.2 5-.9 6.6-2.5 1-1.1 1.6-1.2 1.2-.3-.5 1.5-2.9 3.2-5.5 4-2 .6-5.3.7-6.6.2zm2.2-11c0-.4.1-.6.3-.5.2 0 .4.3.4.5s-.2.4-.4.4c-.2.1-.3-.1-.3-.4z" style="fill:#cd7a8a;stroke-width:.352778" transform="translate(-44.5 -173.2)"/>
  <path d="M80 245.4c-5.7-.9-9-2.3-12-5-1.8-1.7-1.8-1.8-.2-.5 4.2 3.5 8 4.8 14 4.8 2.6 0 4.8-.2 6.1-.6a9 9 0 0 1 2.2-.4 19.4 19.4 0 0 1-10.1 1.6zm14.7-8.6c-.2-.3 1.8-2.4 3.8-4l1-.8-1.1 1.7c-1.4 1.9-3.4 3.6-3.7 3.1zm-14.2-12.7c-1.3-.2-1.3-.3-.3-.3a24.5 24.5 0 0 0 4.2-.6 613.6 613.6 0 0 0 5.1-.6c-.3 0-.8.4-1.1.7-.4.3-.7.5-.9.3 0 0-.6 0-1 .2-1.2.4-4.3.6-6 .3zm-6-11.3c-2.5-.8-3-1-3-1.5 0-.2.2-.2.5 0a33 33 0 0 0 6.4 1.7c1.6.2 1.5.5-.4.5-1 0-2.5-.3-3.5-.7zm6.6-9.9c-2-.4-1.6-.6 2.1-.8H87l-.6.5c-1 .5-3.8.7-5.3.3z" style="fill:#b59378;stroke-width:.352778" transform="translate(-44.5 -173.2)"/>
  <path d="M80.5 224.1c-1.3-.2-1.3-.3-.3-.3a24.5 24.5 0 0 0 4.2-.6 613.6 613.6 0 0 0 5.1-.6c-.3 0-.8.4-1.1.7-.4.3-.7.5-.9.3 0 0-.6 0-1 .2-1.2.4-4.3.6-6 .3zm-6-11.3c-2.5-.8-3-1-3-1.5 0-.2.2-.2.5 0a33 33 0 0 0 6.4 1.7c1.6.2 1.5.5-.4.5-1 0-2.5-.3-3.5-.7zm6.6-9.9c-2-.4-1.6-.6 2.1-.8H87l-.6.5c-1 .5-3.8.7-5.3.3z" style="fill:#bc7583;stroke-width:.352778" transform="translate(-44.5 -173.2)"/>
  <path d="M79.3 224a18 18 0 0 1 5.5-.3c-.1.2-1.4.3-3 .4-1.4 0-2.6 0-2.5-.1zm6.3-.6c0-.2.4-.4.7-.4.4 0 .7.1.7.2l-.7.3c-.3.1-.7 0-.7-.1zm-10-10.4-1.4-.5 1.4.2 2.6.5 1.3.2h-1.3c-.7 0-1.8-.2-2.6-.4zm8-10.4-1-.3h1c.5 0 1 0 1 .3l-.1.3-1-.3z" style="fill:#b66d7a;stroke-width:.352778" transform="translate(-44.5 -173.2)"/>
</svg>