<svg xmlns="http://www.w3.org/2000/svg" shape-rendering="crispEdges" viewBox="0 -0.5 256 237"><g><path stroke="#444f75" d="M130 29h3M133 31h1M92 40h4M94 42h2M110 51h1M94 53h2M111 53h4M91 58h1M91 59h1M82 60h1M87 60h1M100 60h1M188 60h1M100 61h1M78 62h5M85 62h2M100 62h1M198 62h4M78 63h1M100 63h1M83 64h2M101 64h4M195 64h1M198 64h4M146 65h1M197 65h1M82 66h1M108 66h1M146 66h1M197 66h1M69 67h1M188 67h1M193 67h1M69 68h1M109 68h1M188 68h1M193 68h1M184 69h1M184 70h1M57 71h4M67 71h4M186 71h1M67 72h1M152 72h1M186 72h1M199 72h1M56 73h5M63 73h4M151 73h2M186 73h1M202 73h2M149 74h4M184 74h1M186 74h1M56 75h7M149 75h4M184 75h2M56 76h1M143 76h6M151 76h2M143 77h6M151 77h2M51 78h1M138 78h4M151 78h2M186 78h1M51 79h1M138 79h4M151 79h2M186 79h1M134 80h4M151 80h2M186 80h1M134 81h4M151 81h2M186 81h1M57 82h3M151 82h2M162 82h1M186 82h1M60 83h1M129 83h5M151 83h2M186 83h1M61 84h4M151 84h2M186 84h1M125 85h4M151 85h2M186 85h1M47 86h1M125 86h4M151 86h2M186 86h1M121 87h4M151 87h2M186 87h1M45 88h2M69 88h1M121 88h4M151 88h2M186 88h1M116 89h6M151 89h2M186 89h1M116 90h6M151 90h2M186 90h1M112 91h6M151 91h2M186 91h1M112 92h6M151 92h2M186 92h1M56 93h1M60 93h1M79 93h4M151 93h2M186 93h1M82 94h1M107 94h4M151 94h2M186 94h1M107 95h4M151 95h2M184 95h3M103 96h6M151 96h2M103 97h6M151 97h2M73 98h1M91 98h1M98 98h5M151 98h2M65 99h4M73 99h1M91 99h1M99 99h4M151 99h2M91 100h1M94 100h4M149 100h4M173 100h1M184 100h1M91 101h1M94 101h4M149 101h4M173 101h1M184 101h1M76 102h4M91 102h1M94 102h2M145 102h4M173 102h1M184 102h1M91 103h1M94 103h2M145 103h4M173 103h1M184 103h1M91 104h1M94 104h2M140 104h4M171 104h2M184 104h1M206 104h1M91 105h1M94 105h2M140 105h4M184 105h1M91 106h1M94 106h2M183 106h1M200 106h2M91 107h1M94 107h2M136 107h4M182 107h1M91 108h1M94 108h2M182 108h1M91 109h1M94 109h2M131 109h4M182 109h1M197 109h1M219 109h1M91 110h1M94 110h2M131 110h4M197 110h1M91 111h1M94 111h2M127 111h4M197 111h1M91 112h1M94 112h2M127 112h4M197 112h1M49 113h1M91 113h1M94 113h2M123 113h4M91 114h1M94 114h2M122 114h5M91 115h1M94 115h2M118 115h4M178 115h2M91 116h1M94 116h2M118 116h4M173 116h1M91 117h1M94 117h2M174 117h4M56 118h1M91 118h1M94 118h2M114 118h4M57 119h3M91 119h1M94 119h2M91 120h1M94 120h2M109 120h4M91 121h1M94 121h2M109 121h4M91 122h1M94 122h2M105 122h4M91 123h1M94 123h2M105 123h4M46 124h1M91 124h1M94 124h2M98 124h6M91 125h1M94 125h2M98 125h6M91 126h1M94 126h6M91 127h1M94 127h6M91 128h1M94 128h2M36 129h1M91 129h1M94 129h2M36 130h1M91 130h1M94 130h1M62 131h1M91 131h1M62 132h1M91 132h1M36 133h1M53 133h1M200 133h4M36 134h1M200 134h4M36 135h1M54 135h4M96 135h4M199 135h1M204 135h2M196 136h4M36 137h1M58 137h1M195 137h1M36 138h1M62 138h1M191 138h4M36 139h1M191 139h4M206 139h1M185 140h1M189 140h2M208 140h1M185 141h1M189 141h2M208 141h1M36 142h1M71 142h1M113 142h1M180 142h4M186 142h1M204 142h4M36 143h1M71 143h1M113 143h1M180 143h4M186 143h1M204 143h4M72 144h4M176 144h4M188 144h1M200 144h4M176 145h4M200 145h4M36 146h1M76 146h4M118 146h4M175 146h1M199 146h1M36 147h1M93 147h1M171 147h4M196 147h4M80 148h1M93 148h1M171 148h1M191 148h2M195 148h1M93 149h1M169 149h2M189 149h2M193 149h2M41 150h4M93 150h1M169 150h2M189 150h2M194 150h1M93 151h1M160 151h6M189 151h2M93 152h1M160 152h6M189 152h2M93 153h1M156 153h4M165 153h1M185 153h4M93 154h1M156 154h4M165 154h1M185 154h4M93 155h1M152 155h4M168 155h1M180 155h4M93 156h1M151 156h4M180 156h4M54 157h5M93 157h1M151 157h1M171 157h1M93 158h1M147 158h4M171 158h2M176 158h4M54 159h4M93 159h1M147 159h2M173 159h1M175 159h1M58 160h1M93 160h1M147 160h2M169 160h2M174 160h1M58 161h1M62 161h1M93 161h1M147 161h2M169 161h2M174 161h1M93 162h1M167 162h4M93 163h1M167 163h4M58 164h1M62 164h1M71 164h1M93 164h1M162 164h4M58 165h1M71 165h1M93 165h1M162 165h4M54 166h4M63 166h4M72 166h4M158 166h4M158 167h4M50 168h4M59 168h4M67 168h4M76 168h4M157 168h1M58 169h1M71 169h1M156 169h2M50 170h2M58 170h5M67 170h5M76 170h4M151 170h2M155 170h1M154 171h1M154 172h1M51 173h1M71 173h1M93 173h1M51 174h1M71 174h1M93 174h1M93 175h1M102 175h1M93 176h1M219 176h1M56 177h5M67 177h5M76 177h4M93 177h1M60 178h1M71 178h1M93 178h1M57 179h3M65 179h4M76 179h4M93 179h1M108 179h3M69 180h1M93 180h1M111 180h1M51 181h1M61 181h4M69 181h4M93 181h1M112 181h3M93 182h1M93 183h1M69 184h1M93 184h1M120 184h1M69 185h1M93 185h1M120 185h1M93 186h1M104 186h1M120 186h1M93 187h1M104 187h1M120 187h1M93 188h1M104 188h1M120 188h1M78 189h1M93 189h1M104 189h1M120 189h1M69 190h1M79 190h1M82 190h1M93 190h1M120 190h1M93 191h1M120 191h1M188 191h1M45 192h2M70 192h4M93 192h1M120 192h1M187 192h1M191 192h4M220 192h4M247 192h3M93 193h1M120 193h1M93 194h1M120 194h1M224 194h1M78 195h1M93 195h1M120 195h1M93 196h1M120 196h1M57 197h3M74 197h4M120 197h1M204 197h1M207 197h3M233 197h4M120 198h1M120 199h1M120 200h1M120 201h1M120 202h1M219 202h1M120 203h1M213 203h1M219 203h1M120 204h1M120 205h1M120 206h1M188 206h1M199 206h1M78 207h1M120 207h1M120 208h1M200 208h1M203 208h1M109 209h1M120 209h1M122 211h1M123 212h3M109 213h1M135 217h1M104 218h1"></path>
<path stroke="#ad6140" d="M100 38h1M104 38h1M100 39h1M104 39h1M96 40h4M104 40h1M114 40h2M104 41h1M96 42h5M105 42h9M100 43h1M100 44h5M124 46h1M111 47h1M111 48h1M120 51h1M127 51h4M120 52h1M120 53h5M127 53h4M125 55h2M45 126h4M45 127h5M45 128h5M45 129h9M45 130h9M38 131h1M40 131h1M47 131h11M38 132h1M40 132h1M47 132h11M38 133h1M54 133h9M38 134h1M54 134h9M38 135h1M45 135h2M58 135h9M38 136h1M58 136h9M38 137h1M47 137h7M59 137h12M38 138h1M63 138h9M38 139h1M43 139h4M63 139h9M38 140h1M47 140h1M58 140h1M67 140h9M38 141h1M47 141h1M58 141h1M67 141h9M38 142h1M49 142h1M62 142h1M72 142h9M38 143h1M49 143h1M62 143h1M72 143h9M38 144h1M47 144h1M58 144h1M76 144h9M38 145h1M47 145h1M58 145h1M76 145h9M39 146h2M43 146h7M56 146h5M67 146h5M80 146h9M49 147h1M58 147h1M60 147h1M71 147h1M80 147h9M41 148h4M47 148h3M54 148h2M58 148h1M60 148h1M67 148h3M71 148h5M81 148h10M58 149h1M60 149h1M69 149h1M89 149h3M45 150h2M58 150h1M60 150h3M65 150h2M69 150h2M89 150h3M47 151h1M60 151h1M71 151h1M80 151h1M85 151h7M47 152h1M60 152h1M71 152h1M80 152h1M85 152h7M67 153h1M71 153h1M80 153h1M85 153h7M67 154h1M71 154h1M80 154h1M85 154h7M58 155h1M65 155h2M69 155h1M71 155h3M80 155h1M85 155h7M58 156h1M69 156h1M71 156h1M80 156h1M85 156h7M59 157h4M69 157h3M80 157h1M85 157h7M80 158h1M85 158h7M63 159h4M74 159h2M80 159h1M85 159h7M67 160h1M80 160h1M85 160h7M67 161h4M80 161h1M85 161h7M71 162h1M80 162h1M85 162h7M71 163h1M80 163h1M85 163h7M80 164h1M85 164h4M80 165h1M85 165h4"></path>
<path stroke="#43d1f1" d="M184 60h3M184 61h3M180 62h9M180 63h9M180 64h9M184 65h7M185 66h6M189 67h4M189 68h4M50 80h2M50 81h2M50 82h6M50 83h6M50 84h10M50 85h11M50 86h2M54 86h7M54 87h11M54 88h11M56 89h14M56 90h14M63 91h11M63 92h11M65 93h13M65 94h13M65 95h17M69 96h14M70 97h13M76 98h9M76 99h9M80 100h9M81 101h3M85 101h4M82 102h1M86 102h3M81 103h1M87 103h2M81 104h1M87 104h2M80 105h1M88 105h1M88 106h1M88 107h1M88 108h1M88 109h1M88 110h1M88 111h1M88 112h1M88 113h1M88 114h1M88 115h1M88 116h1M88 117h1M88 118h1M88 119h1M50 120h4M88 120h1M50 121h4M88 121h1M50 122h13M88 122h1M50 123h13M88 123h1M50 124h17M88 124h1M50 125h17M88 125h1M54 126h15M80 126h1M87 126h2M54 127h15M80 127h1M86 127h3M54 128h15M80 128h1M86 128h3M58 129h23M86 129h3M58 130h24M86 130h3M63 131h20M85 131h4M63 132h26M67 133h25M67 134h25M71 135h25M72 136h24M76 137h24M76 138h24M76 139h25M81 140h24M81 141h24M85 142h24M85 143h24M89 144h25M89 145h13M107 145h7M94 146h7M108 146h10M94 147h6M109 147h9M94 148h6M110 148h12M94 149h6M111 149h12M94 150h6M112 150h11M94 151h6M105 151h1M112 151h15M94 152h6M105 152h1M116 152h11M94 153h6M105 153h2M118 153h11M94 154h6M105 154h2M120 154h9M94 155h6M105 155h3M120 155h9M94 156h6M121 156h8M94 157h6M121 157h8M94 158h6M122 158h7M94 159h6M123 159h6M94 160h6M123 160h6M94 161h6M123 161h6M94 162h6M124 162h5M94 163h5M124 163h5M94 164h4M124 164h5M94 165h3M123 165h6M90 166h7M123 166h6M89 167h8M123 167h6M85 168h13M122 168h7M85 169h14M122 169h7M85 170h20M123 170h6M83 171h11M98 171h9M124 171h5M83 172h11M98 172h10M125 172h4M83 173h9M102 173h8M126 173h3M83 174h9M102 174h10M126 174h3M83 175h9M107 175h6M127 175h2M83 176h9M107 176h12M127 176h2M83 177h9M111 177h9M127 177h2M83 178h9M111 178h10M128 178h1M83 179h9M112 179h9M128 179h1M83 180h9M116 180h6M128 180h1M83 181h9M116 181h7M127 181h2M83 182h9M120 182h9M83 183h9M120 183h9M83 184h9M122 184h7M83 185h9M122 185h7M83 186h9M105 186h2M122 186h7M83 187h9M105 187h2M122 187h7M83 188h9M105 188h6M122 188h7M83 189h9M105 189h6M122 189h7M83 190h9M105 190h7M122 190h7M87 191h5M107 191h7M122 191h7M87 192h5M107 192h7M122 192h7M111 193h3M122 193h7M111 194h3M122 194h7M122 195h7M122 196h7M122 197h7M122 198h7M122 199h7M122 200h7M122 201h7M122 202h7M122 203h7M122 204h7M122 205h7M122 206h7M122 207h7M122 208h7M122 209h7M123 210h6M127 211h2M127 212h2"></path>
<path stroke="#3a4466" d="M124 42h1M96 44h4M100 45h1M100 46h1M109 50h1M111 51h1M111 52h1M115 53h1M116 55h2M87 57h1M120 58h1M120 59h1M79 60h3M88 60h3M120 60h1M180 60h4M195 60h1M198 60h4M82 61h1M87 61h4M120 61h1M195 61h1M87 62h5M120 62h1M195 62h1M85 63h9M120 63h1M195 63h1M197 63h1M74 64h4M89 64h5M100 64h1M120 64h1M196 64h2M83 65h2M89 65h11M120 65h1M140 65h2M73 66h1M83 66h2M89 66h11M120 66h1M140 66h2M76 67h4M85 67h20M120 67h1M140 67h7M178 67h6M198 67h4M76 68h4M85 68h20M120 68h1M140 68h7M178 68h6M198 68h4M72 69h13M89 69h20M113 69h1M120 69h1M140 69h11M185 69h4M193 69h9M72 70h13M89 70h20M113 70h1M120 70h1M140 70h11M185 70h4M193 70h9M71 71h23M98 71h15M136 71h11M151 71h2M187 71h2M193 71h7M56 72h1M60 72h1M68 72h26M98 72h15M136 72h11M151 72h1M187 72h2M193 72h6M67 73h27M103 73h11M135 73h7M149 73h2M180 73h4M187 73h2M193 73h2M200 73h2M63 74h35M103 74h15M131 74h11M187 74h2M193 74h2M52 75h4M63 75h35M104 75h14M131 75h7M182 75h2M186 75h1M57 76h45M105 76h13M127 76h11M142 76h1M149 76h2M184 76h1M196 76h6M51 77h1M56 77h46M105 77h13M127 77h11M142 77h1M149 77h2M184 77h1M196 77h6M49 78h1M56 78h53M114 78h19M142 78h9M157 78h1M187 78h2M193 78h9M49 79h1M56 79h53M114 79h19M142 79h9M157 79h1M187 79h2M193 79h9M61 80h68M138 80h13M187 80h2M195 80h7M61 81h68M138 81h13M187 81h2M195 81h7M60 82h1M65 82h60M129 82h22M156 82h2M187 82h2M197 82h5M65 83h60M134 83h10M145 83h6M156 83h2M187 83h2M198 83h4M69 84h51M125 84h18M146 84h5M156 84h6M166 84h1M187 84h2M198 84h4M70 85h50M129 85h11M142 85h2M146 85h5M156 85h6M187 85h2M200 85h2M65 86h5M73 86h43M124 86h1M129 86h11M143 86h1M146 86h5M156 86h7M187 86h2M200 86h2M69 87h1M74 87h42M120 87h1M125 87h14M146 87h5M156 87h9M187 87h2M200 87h2M47 88h1M74 88h42M120 88h1M125 88h12M147 88h4M156 88h9M187 88h2M200 88h2M78 89h33M122 89h14M142 89h1M147 89h4M156 89h13M187 89h2M198 89h4M78 90h33M122 90h11M143 90h2M147 90h4M156 90h13M187 90h2M198 90h4M56 91h4M83 91h24M111 91h1M118 91h15M140 91h1M143 91h2M147 91h4M156 91h15M187 91h2M195 91h7M83 92h24M111 92h1M118 92h11M130 92h2M135 92h3M143 92h2M147 92h4M156 92h15M187 92h2M195 92h7M87 93h16M107 93h12M121 93h7M131 93h1M135 93h4M142 93h3M147 93h4M156 93h19M179 93h1M187 93h2M194 93h8M87 94h15M111 94h8M122 94h6M130 94h3M139 94h1M142 94h2M147 94h4M156 94h19M187 94h2M193 94h9M83 95h4M91 95h7M103 95h4M111 95h9M123 95h7M132 95h5M139 95h1M143 95h1M147 95h4M156 95h17M175 95h9M187 95h2M193 95h9M92 96h6M109 96h12M123 96h7M133 96h2M139 96h2M144 96h7M156 96h17M175 96h1M185 96h4M193 96h9M87 97h1M92 97h6M102 97h1M109 97h12M124 97h7M134 97h1M139 97h3M144 97h7M156 97h17M175 97h1M184 97h4M193 97h9M65 98h1M103 98h19M125 98h7M135 98h7M144 98h7M156 98h17M175 98h1M184 98h1M193 98h5M69 99h1M98 99h1M103 99h19M125 99h8M135 99h16M156 99h17M175 99h1M184 99h1M193 99h5M98 100h7M109 100h14M126 100h5M132 100h2M135 100h14M156 100h15M185 100h1M191 100h4M98 101h6M110 101h10M122 101h2M127 101h3M132 101h17M156 101h15M185 101h1M191 101h4M96 102h7M106 102h2M110 102h1M114 102h4M123 102h2M127 102h1M132 102h13M156 102h15M185 102h1M189 102h4M96 103h6M105 103h6M114 103h1M124 103h1M131 103h14M156 103h15M185 103h1M189 103h4M76 104h1M96 104h6M104 104h11M121 104h1M125 104h1M129 104h11M144 104h1M156 104h13M185 104h1M189 104h4M76 105h1M96 105h6M104 105h9M115 105h1M122 105h1M125 105h15M144 105h1M156 105h13M185 105h1M189 105h4M76 106h1M96 106h6M104 106h9M115 106h2M119 106h1M125 106h19M155 106h14M184 106h1M189 106h5M76 107h1M96 107h6M105 107h8M116 107h1M120 107h1M123 107h13M151 107h18M183 107h1M189 107h6M76 108h1M96 108h7M112 108h2M116 108h2M121 108h19M151 108h18M183 108h1M189 108h7M198 108h2M76 109h1M96 109h9M112 109h2M117 109h2M121 109h10M135 109h1M149 109h18M183 109h1M189 109h8M76 110h1M96 110h14M112 110h3M118 110h13M135 110h1M149 110h18M182 110h2M189 110h8M45 111h4M76 111h1M96 111h14M112 111h3M118 111h9M142 111h25M180 111h2M187 111h6M202 111h7M76 112h1M96 112h14M112 112h4M118 112h9M142 112h25M180 112h2M187 112h6M202 112h7M76 113h1M96 113h14M112 113h11M138 113h26M180 113h2M185 113h8M198 113h8M76 114h1M96 114h7M105 114h4M112 114h10M138 114h26M180 114h2M185 114h8M198 114h8M76 115h1M96 115h7M111 115h7M122 115h1M132 115h32M169 115h4M185 115h4M197 115h5M76 116h1M96 116h8M110 116h8M131 116h33M178 116h2M185 116h4M193 116h9M76 117h1M96 117h26M131 117h33M173 117h1M193 117h5M76 118h1M96 118h18M129 118h40M176 118h2M182 118h2M189 118h8M76 119h1M96 119h22M129 119h40M176 119h1M182 119h2M189 119h8M64 120h1M76 120h1M96 120h13M113 120h1M127 120h46M185 120h8M64 121h1M76 121h1M96 121h13M113 121h1M127 121h46M185 121h8M65 122h4M76 122h1M96 122h9M120 122h69M76 123h1M96 123h9M120 123h69M76 124h1M96 124h2M104 124h1M116 124h68M76 125h1M96 125h2M104 125h1M116 125h68M100 126h1M112 126h68M111 127h69M53 128h1M96 128h4M111 128h65M41 129h4M109 129h66M41 130h4M95 130h1M109 130h66M45 131h2M105 131h66M45 132h2M105 132h66M47 133h6M103 133h64M47 134h7M103 134h64M105 135h57M196 135h3M206 135h1M54 136h4M100 136h1M105 136h57M195 136h1M206 136h1M101 137h4M109 137h49M191 137h4M206 137h1M59 138h3M109 138h49M206 138h1M59 139h4M109 139h48M63 140h4M114 140h26M145 140h8M184 140h1M186 140h1M63 141h4M114 141h26M145 141h8M184 141h1M186 141h1M47 142h1M67 142h4M84 142h1M118 142h11M133 142h5M147 142h2M208 142h1M47 143h1M67 143h4M84 143h1M118 143h11M133 143h5M147 143h2M208 143h1M85 144h4M123 144h4M72 145h4M123 145h4M175 145h1M122 146h1M171 146h4M47 147h1M76 147h4M122 147h1M123 148h4M169 148h1M190 148h1M196 148h4M81 149h4M81 150h4M193 150h1M131 151h1M166 151h1M45 152h1M131 152h1M166 152h1M83 153h2M131 153h1M166 153h1M83 154h2M131 154h1M166 154h1M49 155h1M83 155h2M131 155h1M151 155h1M184 155h1M49 156h1M83 156h2M131 156h1M50 157h4M83 157h2M131 157h1M147 157h4M58 158h1M83 158h2M131 158h1M50 159h4M58 159h5M83 159h2M131 159h1M171 159h2M176 159h4M49 160h1M83 160h2M131 160h1M173 160h1M175 160h1M49 161h1M83 161h2M131 161h1M173 161h1M175 161h1M58 162h1M83 162h2M131 162h1M58 163h1M83 163h2M131 163h1M49 164h1M83 164h2M131 164h1M166 164h1M49 165h1M83 165h2M131 165h1M166 165h1M58 166h1M62 166h1M67 166h1M71 166h1M83 166h2M131 166h1M162 166h1M58 167h1M71 167h1M83 167h2M131 167h1M54 168h5M63 168h4M71 168h5M84 168h1M131 168h1M158 168h4M49 169h1M80 169h1M84 169h1M131 169h1M49 170h1M54 170h4M63 170h4M72 170h4M80 170h1M82 170h1M131 170h1M156 170h2M58 171h1M71 171h1M131 171h1M153 171h1M155 171h1M51 172h1M58 172h1M71 172h1M131 172h1M153 172h1M155 172h1M49 173h1M80 173h1M131 173h1M49 174h1M80 174h1M131 174h1M51 175h1M60 175h1M71 175h1M131 175h1M60 176h1M71 176h1M102 176h1M131 176h1M52 177h3M61 177h4M72 177h4M80 177h1M101 177h6M131 177h1M80 178h1M101 178h1M131 178h1M56 179h1M60 179h5M72 179h4M101 179h2M107 179h1M131 179h1M60 180h1M101 180h6M131 180h1M224 180h1M60 181h1M76 181h1M101 181h6M111 181h1M131 181h1M206 181h1M69 182h1M80 182h1M101 182h10M131 182h1M69 183h1M80 183h1M101 183h10M131 183h1M42 184h1M56 184h1M101 184h1M107 184h9M131 184h1M56 185h1M101 185h1M107 185h9M131 185h1M37 186h1M80 186h1M101 186h1M112 186h6M131 186h1M211 186h4M238 186h3M80 187h1M101 187h1M112 187h6M131 187h1M241 187h1M74 188h4M80 188h1M101 188h1M116 188h2M131 188h1M42 189h1M80 189h1M101 189h1M116 189h2M131 189h1M78 190h1M101 190h1M104 190h1M116 190h2M131 190h1M82 191h1M101 191h1M116 191h2M131 191h1M101 192h1M116 192h2M131 192h1M101 193h6M116 193h2M131 193h1M224 193h1M101 194h6M116 194h2M131 194h1M91 195h1M101 195h10M116 195h2M131 195h1M241 195h1M91 196h1M101 196h10M116 196h2M131 196h1M241 196h1M101 197h4M109 197h9M131 197h1M206 197h1M56 198h1M101 198h4M109 198h9M131 198h1M101 199h4M114 199h4M131 199h1M101 200h8M114 200h4M131 200h1M104 201h5M114 201h4M131 201h1M73 202h1M105 202h13M131 202h1M213 202h1M224 202h1M66 203h7M96 203h4M105 203h13M131 203h1M187 203h4M214 203h3M225 203h3M109 204h9M131 204h1M109 205h9M131 205h1M114 206h4M131 206h1M213 206h1M114 207h4M131 207h1M199 207h1M109 208h1M131 208h1M131 209h1M120 210h2M131 210h1M131 211h1M122 212h1M131 212h1M131 213h1M92 214h4M110 214h3M121 214h3M174 214h3"></path>
<path stroke="#181425" d="M108 21h3M107 22h4M106 23h7M106 24h7M106 25h7M106 26h7M119 26h3M106 27h1M111 27h2M116 27h8M106 28h1M112 28h1M117 28h7M106 29h1M112 29h1M117 29h7M106 30h1M112 30h1M117 30h7M130 30h3M106 31h1M112 31h1M117 31h1M122 31h2M130 31h3M106 32h1M112 32h1M117 32h1M123 32h1M128 32h7M106 33h1M112 33h1M117 33h1M123 33h1M128 33h7M106 34h1M112 34h1M117 34h1M123 34h1M128 34h7M196 34h1M106 35h1M112 35h1M117 35h1M123 35h1M128 35h7M196 35h1M105 36h2M112 36h1M117 36h1M123 36h1M128 36h1M134 36h1M196 36h1M101 37h6M112 37h1M117 37h1M123 37h1M128 37h1M134 37h1M196 37h1M106 38h1M112 38h2M116 38h2M123 38h1M128 38h1M134 38h1M196 38h1M96 39h1M106 39h1M112 39h1M116 39h2M123 39h1M128 39h1M134 39h1M196 39h1M106 40h1M112 40h1M117 40h1M123 40h1M128 40h1M134 40h1M196 40h1M92 41h3M106 41h1M112 41h1M117 41h1M123 41h1M128 41h1M134 41h1M196 41h1M92 42h1M117 42h1M123 42h1M128 42h1M134 42h1M196 42h1M92 43h1M96 43h4M117 43h1M123 43h6M134 43h1M196 43h1M92 44h1M117 44h1M123 44h1M127 44h2M134 44h1M196 44h1M92 45h1M117 45h1M123 45h1M128 45h1M134 45h1M196 45h1M92 46h1M128 46h1M134 46h1M196 46h1M92 47h1M128 47h1M134 47h1M196 47h1M92 48h1M106 48h5M128 48h1M134 48h1M196 48h1M92 49h1M128 49h1M134 49h2M196 49h1M92 50h1M111 50h4M134 50h5M196 50h1M92 51h1M132 51h4M138 51h1M196 51h1M92 52h1M116 52h3M132 52h4M138 52h1M196 52h1M92 53h1M138 53h1M196 53h1M92 54h2M123 54h1M128 54h3M138 54h1M196 54h1M92 55h2M123 55h1M127 55h4M138 55h1M190 55h1M196 55h1M92 56h2M123 56h1M126 56h1M138 56h1M190 56h1M196 56h1M91 57h3M123 57h4M138 57h1M190 57h1M192 57h1M196 57h1M84 58h3M92 58h2M123 58h2M138 58h1M185 58h6M194 58h3M92 59h2M123 59h2M138 59h1M189 59h2M196 59h1M92 60h4M123 60h2M138 60h1M190 60h1M196 60h1M92 61h4M123 61h2M138 61h1M180 61h1M190 61h1M196 61h2M201 61h1M95 62h5M123 62h2M138 62h1M190 62h1M196 62h1M75 63h2M95 63h5M123 63h2M138 63h3M190 63h1M196 63h1M202 63h1M123 64h2M138 64h2M202 64h1M70 65h3M86 65h3M101 65h3M123 65h2M138 65h1M143 65h3M179 65h4M198 65h8M123 66h2M138 66h1M204 66h2M65 67h1M84 67h1M123 67h2M138 67h1M205 67h1M66 68h3M81 68h4M105 68h4M123 68h2M138 68h1M147 68h3M176 68h1M185 68h3M194 68h3M205 68h1M61 69h3M85 69h4M110 69h3M123 69h2M136 69h3M152 69h3M176 69h1M189 69h4M205 69h1M64 70h1M123 70h2M154 70h1M176 70h1M190 70h2M205 70h1M121 71h4M132 71h3M154 71h1M176 71h2M190 71h2M204 71h2M57 72h3M95 72h2M114 72h11M131 72h4M148 72h2M154 72h1M176 72h4M190 72h2M202 72h4M118 73h2M122 73h9M147 73h2M154 73h1M176 73h2M190 73h2M205 73h1M53 74h2M98 74h4M118 74h2M123 74h8M143 74h6M154 74h1M176 74h2M180 74h4M190 74h2M196 74h6M205 74h1M118 75h2M122 75h5M154 75h1M176 75h2M180 75h2M190 75h2M205 75h1M48 76h3M103 76h1M118 76h9M138 76h4M154 76h1M176 76h2M185 76h10M205 76h1M48 77h1M154 77h1M176 77h2M188 77h6M205 77h1M48 78h1M137 78h1M154 78h1M176 78h2M190 78h2M205 78h1M48 79h1M52 79h4M110 79h3M134 79h4M154 79h3M176 79h2M190 79h2M205 79h1M48 80h1M57 80h3M129 80h4M154 80h1M176 80h2M190 80h3M205 80h1M48 81h1M129 81h1M154 81h1M159 81h2M176 81h2M190 81h3M205 81h1M48 82h1M154 82h1M176 82h1M190 82h3M205 82h1M48 83h1M61 83h4M125 83h3M154 83h1M162 83h4M176 83h1M190 83h3M205 83h1M48 84h1M154 84h1M176 84h1M190 84h3M205 84h1M48 85h1M65 85h4M121 85h3M154 85h1M167 85h3M176 85h1M190 85h3M205 85h1M48 86h1M145 86h1M154 86h1M167 86h4M176 86h1M190 86h3M205 86h1M70 87h3M117 87h2M143 87h1M154 87h1M171 87h1M176 87h1M190 87h3M205 87h1M43 88h2M142 88h1M154 88h1M171 88h6M190 88h3M205 88h1M144 89h1M154 89h1M176 89h1M190 89h3M205 89h1M75 90h2M112 90h3M137 90h1M145 90h2M154 90h1M176 90h1M190 90h3M205 90h1M79 91h3M107 91h4M146 91h1M154 91h1M176 91h1M190 91h3M205 91h1M107 92h1M146 92h1M154 92h1M176 92h1M190 92h3M205 92h1M128 93h1M134 93h1M141 93h1M146 93h1M154 93h1M176 93h1M190 93h2M205 93h1M84 94h3M103 94h4M133 94h1M146 94h1M154 94h1M176 94h4M190 94h2M205 94h1M131 95h1M138 95h1M154 95h1M190 95h2M205 95h1M88 96h3M98 96h4M121 96h1M138 96h1M154 96h1M174 96h1M180 96h4M190 96h2M205 96h1M131 97h1M154 97h1M174 97h1M190 97h2M205 97h1M122 98h1M154 98h1M174 98h1M189 98h3M205 98h1M92 99h6M154 99h1M185 99h8M205 99h1M92 100h1M154 100h1M171 100h1M187 100h4M205 100h1M92 101h1M124 101h1M154 101h1M171 101h1M187 101h2M190 101h1M205 101h1M92 102h1M153 102h2M171 102h1M187 102h1M205 102h1M92 103h1M149 103h6M171 103h1M187 103h1M205 103h1M92 104h1M187 104h1M205 104h1M92 105h1M103 105h1M145 105h4M169 105h1M187 105h1M205 105h5M92 106h1M113 106h1M169 106h1M187 106h1M205 106h2M92 107h1M104 107h1M115 107h1M121 107h2M141 107h3M169 107h1M185 107h3M205 107h1M211 107h3M92 108h1M141 108h3M185 108h3M205 108h1M211 108h4M92 109h1M185 109h3M202 109h1M205 109h1M215 109h1M92 110h1M115 110h1M136 110h4M167 110h1M185 110h3M203 110h3M215 110h4M92 111h1M132 111h4M167 111h1M183 111h3M198 111h4M211 111h5M217 111h2M92 112h1M132 112h4M183 112h1M211 112h5M217 112h2M92 113h1M183 113h1M209 113h2M217 113h2M92 114h1M109 114h1M128 114h3M165 114h2M183 114h1M194 114h3M207 114h4M217 114h2M92 115h1M165 115h3M182 115h2M217 115h2M92 116h1M105 116h3M123 116h4M165 116h4M180 116h4M190 116h2M202 116h4M217 116h2M92 117h1M180 117h2M203 117h3M217 117h2M92 118h1M118 118h4M169 118h4M179 118h2M185 118h3M198 118h4M217 118h2M92 119h1M118 119h4M179 119h2M198 119h4M217 119h2M48 120h1M92 120h1M174 120h1M178 120h4M197 120h1M217 120h2M48 121h1M92 121h1M114 121h4M174 121h10M194 121h4M217 121h2M48 122h1M92 122h1M110 122h3M189 122h4M217 122h2M48 123h1M92 123h1M110 123h3M190 123h2M217 123h2M48 124h1M92 124h1M217 124h2M46 125h3M92 125h1M106 125h3M185 125h4M217 125h2M92 126h1M217 126h2M42 127h2M50 127h3M78 127h2M92 127h1M101 127h4M180 127h4M217 127h2M92 128h1M101 128h3M180 128h4M217 128h2M92 129h1M96 129h3M176 129h4M217 129h2M37 130h1M92 130h1M96 130h4M176 130h4M217 130h2M37 131h1M92 131h2M95 131h1M171 131h1M201 131h5M217 131h2M37 132h1M59 132h3M95 132h1M171 132h4M201 132h5M217 132h2M37 133h1M46 133h1M96 133h4M167 133h4M196 133h3M205 133h1M217 133h2M37 134h1M96 134h1M168 134h3M217 134h2M37 135h1M101 135h1M191 135h4M207 135h1M217 135h2M37 136h1M48 136h6M68 136h3M101 136h3M163 136h4M191 136h4M207 136h2M217 136h2M37 137h1M207 137h2M217 137h2M37 138h1M54 138h4M72 138h4M106 138h2M159 138h3M184 138h7M207 138h2M217 138h2M37 139h1M158 139h4M187 139h2M217 139h2M37 140h1M76 140h1M157 140h1M180 140h4M187 140h1M210 140h1M217 140h2M37 141h1M154 141h4M180 141h4M187 141h1M210 141h1M217 141h2M37 142h1M64 142h2M81 142h3M114 142h4M149 142h4M176 142h4M187 142h1M210 142h1M217 142h2M37 143h1M149 143h4M179 143h1M210 143h1M217 143h2M37 144h1M68 144h3M119 144h3M145 144h4M171 144h4M209 144h4M217 144h2M37 145h1M86 145h2M118 145h4M145 145h4M171 145h4M190 145h1M205 145h8M217 145h2M37 146h1M167 146h4M190 146h1M211 146h2M217 146h2M37 147h3M72 147h4M90 147h3M123 147h4M140 147h4M167 147h3M190 147h1M201 147h3M211 147h2M217 147h2M92 148h1M140 148h3M166 148h3M211 148h2M217 148h2M42 149h2M77 149h3M86 149h2M92 149h1M128 149h3M136 149h4M160 149h8M191 149h1M196 149h4M207 149h6M217 149h2M92 150h1M136 150h4M167 150h1M191 150h1M196 150h4M207 150h6M217 150h2M92 151h1M132 151h4M156 151h4M191 151h2M202 151h4M217 151h2M81 152h3M92 152h1M132 152h4M156 152h4M191 152h4M202 152h4M217 152h2M48 153h5M81 153h1M92 153h1M132 153h2M151 153h4M189 153h4M198 153h4M217 153h2M48 154h1M81 154h1M92 154h1M132 154h2M151 154h1M190 154h2M198 154h4M217 154h2M48 155h1M81 155h1M92 155h1M132 155h2M147 155h4M193 155h4M217 155h2M48 156h1M54 156h4M81 156h1M92 156h1M132 156h2M147 156h3M185 156h4M193 156h5M217 156h2M48 157h1M81 157h1M92 157h1M132 157h2M145 157h1M200 157h4M217 157h2M48 158h6M59 158h3M81 158h1M92 158h1M132 158h1M145 158h1M180 158h4M191 158h2M200 158h4M217 158h2M48 159h1M81 159h1M92 159h1M132 159h1M144 159h2M181 159h3M191 159h2M200 159h4M217 159h2M48 160h1M54 160h3M64 160h2M81 160h1M92 160h1M132 160h1M142 160h4M176 160h4M187 160h4M198 160h8M217 160h2M48 161h1M81 161h1M92 161h1M132 161h1M142 161h4M176 161h4M187 161h4M198 161h8M217 161h2M48 162h1M53 162h1M81 162h1M92 162h1M132 162h1M142 162h5M148 162h1M172 162h1M182 162h4M191 162h15M217 162h2M48 163h5M59 163h3M68 163h3M81 163h1M92 163h1M132 163h1M142 163h7M172 163h3M182 163h4M191 163h15M217 163h2M48 164h1M54 164h4M63 164h4M81 164h1M91 164h2M132 164h1M142 164h7M167 164h4M178 164h4M189 164h17M218 164h1M48 165h1M75 165h1M81 165h1M132 165h1M142 165h7M168 165h3M179 165h2M189 165h17M218 165h1M48 166h1M81 166h1M132 166h1M142 166h7M174 166h4M182 166h22M218 166h1M48 167h6M59 167h3M68 167h3M76 167h6M86 167h2M132 167h1M142 167h8M163 167h4M173 167h5M182 167h22M218 167h1M48 168h1M81 168h1M132 168h1M142 168h8M182 168h20M218 168h1M48 169h1M54 169h4M64 169h2M72 169h4M81 169h3M132 169h1M142 169h8M159 169h3M171 169h2M180 169h22M218 169h1M48 170h1M81 170h1M132 170h1M142 170h8M158 170h4M171 170h2M180 170h22M218 170h1M48 171h2M76 171h1M80 171h2M132 171h1M142 171h9M157 171h1M167 171h4M173 171h27M218 171h1M48 172h2M80 172h2M132 172h1M142 172h11M156 172h2M167 172h4M173 172h27M218 172h1M48 173h1M75 173h1M81 173h1M132 173h1M142 173h11M156 173h4M162 173h5M171 173h27M218 173h1M48 174h1M75 174h1M81 174h1M95 174h2M132 174h1M142 174h18M162 174h5M171 174h27M218 174h1M48 175h2M80 175h2M95 175h1M132 175h1M142 175h11M160 175h2M169 175h26M215 175h4M48 176h3M76 176h1M81 176h1M95 176h1M98 176h3M132 176h1M142 176h11M160 176h2M169 176h26M215 176h1M48 177h3M81 177h1M95 177h1M98 177h2M132 177h1M147 177h6M162 177h7M173 177h20M211 177h4M48 178h7M61 178h4M72 178h4M81 178h1M95 178h1M98 178h2M103 178h4M132 178h1M147 178h6M162 178h7M173 178h20M211 178h3M221 178h2M48 179h7M81 179h1M95 179h1M98 179h2M132 179h1M151 179h2M162 179h3M177 179h14M48 180h12M65 180h4M76 180h6M95 180h1M98 180h2M107 180h4M132 180h1M151 180h2M160 180h4M178 180h13M207 180h3M225 180h3M53 181h7M81 181h1M95 181h1M98 181h2M132 181h1M151 181h2M160 181h4M178 181h13M53 182h7M64 182h1M81 182h1M95 182h1M98 182h2M132 182h1M156 182h4M182 182h7M202 182h4M232 182h1M56 183h9M70 183h3M81 183h1M95 183h1M98 183h2M112 183h3M132 183h1M156 183h4M182 183h7M39 184h3M57 184h12M75 184h7M95 184h1M98 184h2M103 184h4M116 184h3M132 184h1M156 184h2M160 184h4M178 184h4M184 184h3M198 184h4M207 184h3M234 184h3M61 185h8M81 185h1M95 185h1M98 185h2M103 185h1M118 185h1M132 185h1M156 185h2M160 185h4M179 185h2M184 185h2M61 186h8M81 186h1M95 186h1M98 186h2M103 186h1M108 186h3M118 186h1M132 186h1M156 186h2M165 186h4M174 186h4M184 186h2M193 186h4M65 187h8M81 187h1M95 187h1M98 187h2M103 187h1M118 187h1M132 187h1M156 187h2M165 187h4M173 187h5M184 187h2M193 187h1M65 188h9M81 188h1M95 188h1M98 188h2M103 188h1M118 188h1M132 188h1M156 188h2M169 188h4M184 188h9M39 189h3M66 189h11M81 189h1M95 189h1M98 189h2M103 189h1M112 189h3M118 189h1M132 189h1M156 189h2M169 189h4M184 189h8M216 189h3M243 189h2M70 190h7M81 190h1M95 190h1M98 190h2M103 190h1M114 190h1M118 190h1M132 190h1M156 190h2M169 190h3M184 190h4M191 190h1M44 191h2M70 191h12M95 191h1M98 191h2M103 191h3M118 191h1M132 191h1M156 191h2M169 191h2M180 191h8M192 191h5M221 191h2M247 191h3M75 192h7M95 192h1M98 192h2M118 192h1M132 192h1M156 192h2M169 192h2M180 192h6M196 192h1M75 193h7M95 193h1M98 193h2M118 193h1M132 193h1M156 193h2M169 193h2M176 193h6M184 193h2M196 193h1M74 194h1M78 194h8M95 194h1M98 194h2M107 194h4M118 194h1M132 194h1M156 194h2M169 194h2M176 194h6M184 194h2M200 194h2M52 195h1M55 195h1M79 195h12M95 195h1M98 195h2M113 195h2M118 195h1M132 195h1M156 195h8M169 195h2M173 195h9M184 195h2M201 195h1M79 196h3M88 196h3M95 196h1M98 196h2M115 196h1M118 196h1M132 196h1M156 196h8M169 196h2M173 196h9M184 196h2M205 196h1M232 196h1M79 197h3M88 197h3M94 197h6M118 197h1M132 197h1M154 197h12M169 197h2M176 197h6M184 197h2M205 197h1M57 198h3M75 198h7M88 198h12M106 198h2M118 198h1M132 198h1M154 198h13M169 198h2M176 198h6M184 198h2M205 198h5M234 198h3M75 199h2M92 199h8M118 199h1M132 199h1M158 199h9M168 199h3M175 199h3M184 199h2M61 200h3M70 200h7M92 200h8M110 200h3M118 200h1M132 200h1M145 200h8M158 200h13M173 200h5M182 200h4M210 200h4M229 200h3M70 201h3M96 201h4M118 201h1M132 201h1M145 201h8M158 201h13M173 201h4M183 201h3M69 202h4M96 202h8M118 202h1M132 202h1M140 202h4M162 202h9M173 202h2M184 202h3M214 202h2M101 203h3M118 203h1M132 203h1M140 203h4M162 203h9M174 203h1M184 203h2M218 203h1M101 204h4M118 204h1M132 204h1M140 204h2M145 204h4M159 204h8M169 204h2M182 204h4M191 204h1M218 204h1M75 205h3M101 205h7M118 205h1M132 205h1M140 205h2M145 205h4M158 205h9M169 205h2M182 205h4M192 205h3M218 205h5M106 206h7M118 206h1M132 206h1M140 206h2M149 206h2M154 206h4M169 206h2M178 206h8M110 207h3M118 207h1M132 207h1M140 207h2M149 207h1M154 207h4M169 207h2M178 207h4M110 208h4M118 208h1M132 208h1M140 208h2M151 208h5M169 208h2M174 208h7M84 209h2M110 209h9M132 209h1M140 209h2M151 209h5M169 209h2M173 209h8M201 209h2M210 209h2M114 210h5M132 210h1M140 210h2M153 210h3M169 210h2M173 210h6M88 211h3M115 211h7M132 211h1M140 211h2M154 211h2M169 211h10M205 211h3M121 212h1M132 212h1M140 212h2M154 212h2M169 212h8M121 213h1M132 213h1M140 213h2M154 213h2M169 213h8M125 214h1M132 214h1M140 214h2M154 214h2M169 214h4M96 215h1M126 215h1M131 215h2M136 215h6M154 215h2M169 215h3M96 216h1M129 216h4M140 216h2M154 216h2M169 216h2M130 217h5M141 217h3M154 217h2M162 217h8M154 218h2M162 218h7M145 219h11M158 219h10M145 220h11M158 220h10M149 221h7M158 221h3M150 222h11"></path>
<path stroke="#00ddff" d="M84 101h1M83 102h3M82 103h5M82 104h5M81 105h7M80 106h8M80 107h8M80 108h8M80 109h8M80 110h8M80 111h8M80 112h8M80 113h8M80 114h8M80 115h8M80 116h8M80 117h8M80 118h8M80 119h8M80 120h8M80 121h8M80 122h8M80 123h8M80 124h8M80 125h8M81 126h6M81 127h5M81 128h5M81 129h5M82 130h4M83 131h2M102 145h5M101 146h7M100 147h9M100 148h10M100 149h11M100 150h12M100 151h5M106 151h6M100 152h5M106 152h10M100 153h5M107 153h11M100 154h5M107 154h13M100 155h5M108 155h12M100 156h21M100 157h21M100 158h22M100 159h23M100 160h23M100 161h23M100 162h24M99 163h25M98 164h26M97 165h26M97 166h26M97 167h26M98 168h24M99 169h23M105 170h18M107 171h17M108 172h17M110 173h16M112 174h14M113 175h14M119 176h8M120 177h7M121 178h7M121 179h7M122 180h6M123 181h4"></path>
<path stroke="#3e2731" d="M113 40h1M95 41h1M113 41h1M124 44h3M104 45h1M124 45h1M104 46h1M116 46h2M122 46h2M111 49h5M115 50h1M116 51h4M131 51h1M131 52h1M131 53h1M124 54h1M124 55h1M50 128h3M38 130h2M54 130h4M58 131h1M58 132h1M45 133h1M45 134h1M47 135h1M47 136h1M67 136h1M54 139h4M72 139h4M59 141h4M76 141h4M67 144h1M67 145h1M38 146h1M40 147h1M89 147h1M91 148h1M67 149h1M76 149h1M59 150h1M76 150h4M85 150h4M62 151h1M84 151h1M62 152h1M84 152h1M53 153h1M53 154h1M54 155h4M70 155h1M62 158h1M72 164h4M89 164h2M89 165h1M76 166h5M85 166h4M96 175h2M96 176h2M96 177h2M169 177h4M96 178h2M169 178h4M96 179h2M165 179h12M96 180h2M164 180h14M96 181h2M164 181h14M96 182h2M160 182h22M96 183h2M160 183h22M96 184h2M164 184h14M96 185h2M164 185h14M96 186h2M169 186h5M96 187h2M169 187h4M96 188h2M96 189h2M96 190h2M96 191h2M96 192h2M96 193h2M96 194h2M96 195h2M96 196h2M153 199h5M153 200h5M153 201h5M144 202h18M144 203h18M149 204h9M149 205h9M151 206h3M151 207h3"></path>
<path stroke="#97b7d2" d="M111 20h1M195 33h1M197 33h1M191 43h1M191 44h1M191 45h1M191 46h1M191 47h1M191 48h1M191 49h1M191 50h1M191 51h1M191 52h1M191 53h1M191 54h1M191 55h4M193 56h2M193 57h2M82 58h1M82 59h1M73 62h1M142 62h1M73 63h1M142 63h1M69 64h1M51 73h1M51 74h1M52 86h2M52 87h2M52 88h2M51 91h1M61 91h2M51 92h1M61 92h2M52 93h4M56 95h4M60 96h1M60 97h1M74 98h2M74 99h2M69 100h1M76 100h4M69 101h1M76 101h5M73 102h1M81 102h1M74 104h2M49 111h1M49 112h1M51 113h1M52 115h4M50 116h2M50 117h2M56 117h5M50 118h6M60 118h1M50 119h6M60 119h1M54 120h6M54 121h6M63 122h2M69 122h1M63 123h2M69 123h1M67 124h2M67 125h2M69 126h1M74 126h2M69 127h5M69 128h5M216 177h3M215 178h5M215 179h5M228 179h1M211 180h13M44 181h3M211 181h13M47 182h5M207 182h21M42 183h1M47 183h5M207 183h22M233 183h3M43 184h13M202 184h4M211 184h22M43 185h13M202 185h4M211 185h22M39 186h21M198 186h13M215 186h22M39 187h21M198 187h13M215 187h22M35 188h2M43 188h22M194 188h21M220 188h21M246 188h1M37 189h1M43 189h22M193 189h22M220 189h22M246 189h1M38 190h1M47 190h18M197 190h19M224 190h18M250 190h2M47 191h22M189 191h2M198 191h22M224 191h22M251 191h1M43 192h1M48 192h21M189 192h2M198 192h22M224 192h22M251 192h1M44 193h3M52 193h22M187 193h8M202 193h22M229 193h13M246 193h2M52 194h22M187 194h8M202 194h22M229 194h13M47 195h1M51 195h1M56 195h22M187 195h13M207 195h21M233 195h4M242 195h1M51 196h1M56 196h22M187 196h13M207 196h21M233 196h4M51 197h5M61 197h13M83 197h4M187 197h17M211 197h22M238 197h4M55 198h1M61 198h13M83 198h4M187 198h17M211 198h22M238 198h1M55 199h2M65 199h5M82 199h5M187 199h18M215 199h14M237 199h2M65 200h4M78 200h13M187 200h22M215 200h13M233 200h1M60 201h1M67 201h2M78 201h14M187 201h22M216 201h12M233 201h1M63 202h2M74 202h22M191 202h22M220 202h4M229 202h1M74 203h22M191 203h22M220 203h4M229 203h1M69 204h5M78 204h22M187 204h4M196 204h21M224 204h2M73 205h1M78 205h22M187 205h4M196 205h21M83 206h22M200 206h13M83 207h22M200 207h13M78 208h1M87 208h22M182 208h2M196 208h4M204 208h5M213 208h5M82 209h1M87 209h22M199 209h1M204 209h5M213 209h1M82 210h1M91 210h19M213 210h1M86 211h1M92 211h22M180 211h1M202 211h2M209 211h2M92 212h21M96 213h13M114 213h2M96 214h13M114 214h1M92 215h4M100 215h5M109 215h1M173 215h1M95 216h1M100 216h5M109 216h1M96 217h1M102 219h2M143 219h1M162 222h1"></path>
<path stroke="#193c3e" d="M179 63h1M53 127h1M63 133h4M205 146h6M204 147h7M200 148h11M200 149h7M200 150h6M195 151h7M195 152h7M193 153h5M193 154h5M189 155h4M189 156h4M185 157h8M184 158h7M180 159h1M184 159h7M180 160h7M180 161h7M175 162h7M175 163h7M171 164h7M171 165h7M167 166h7M167 167h6M163 168h10M162 169h9M162 170h9M158 171h9M158 172h9M160 173h2M160 174h2M158 184h2M158 185h2M158 186h6M107 187h1M158 187h7M158 188h11M158 189h11M158 190h11M106 191h1M158 191h11M158 192h11M158 193h11M158 194h11M112 195h1M164 195h5M164 196h5M166 197h3M167 198h2M167 199h1M142 204h3M167 204h2M142 205h3M167 205h2M142 206h7M158 206h11M142 207h7M158 207h11M142 208h9M156 208h13M142 209h9M156 209h13M142 210h11M156 210h13M142 211h12M156 211h13M142 212h12M156 212h13M142 213h12M156 213h13M142 214h12M156 214h13M142 215h12M156 215h13M142 216h12M156 216h13M144 217h10M156 217h6M144 218h10M156 218h6M156 219h2M156 220h2M156 221h2"></path>
<path stroke="#171324" d="M105 23h1M105 24h1M105 25h1M119 25h3M105 26h1M105 27h1M105 28h1M116 28h1M105 29h1M116 29h1M105 30h1M116 30h1M105 31h1M116 31h1M105 32h1M116 32h1M127 32h1M105 33h1M116 33h1M127 33h1M105 34h1M116 34h1M127 34h1M105 35h1M116 35h1M127 35h1M101 36h4M116 36h1M127 36h1M116 37h1M127 37h1M105 38h1M127 38h1M97 39h3M105 39h1M113 39h3M127 39h1M105 40h1M116 40h1M127 40h1M105 41h1M116 41h1M127 41h1M116 42h1M127 42h1M116 43h1M189 43h1M116 44h1M189 44h1M101 45h3M116 45h1M127 45h1M189 45h1M127 46h1M189 46h1M105 47h6M127 47h1M189 47h1M105 48h1M127 48h1M189 48h1M127 49h1M189 49h1M127 50h2M139 50h1M189 50h1M139 51h1M189 51h1M119 52h1M139 52h1M189 52h1M139 53h1M189 53h1M127 54h1M139 54h1M189 54h1M139 55h1M189 55h1M88 56h4M124 56h2M139 56h1M189 56h1M191 56h2M139 57h1M189 57h1M83 58h1M139 58h1M83 59h4M139 59h1M185 59h4M194 59h2M139 60h1M189 60h1M79 61h3M139 61h1M181 61h3M189 61h1M198 61h3M94 62h1M139 62h1M189 62h1M74 63h1M77 63h1M94 63h1M141 63h1M178 63h1M189 63h1M203 63h1M178 64h1M203 64h1M85 65h1M139 65h1M178 65h1M183 65h1M139 66h1M66 67h3M81 67h3M105 67h4M139 67h1M147 67h4M176 67h1M185 67h3M194 67h3M139 68h1M150 68h1M139 69h1M61 70h3M85 70h4M110 70h3M136 70h4M152 70h2M189 70h1M192 70h1M189 71h1M192 71h1M94 72h1M97 72h1M147 72h1M150 72h1M189 72h1M192 72h1M189 73h1M192 73h1M52 74h1M55 74h1M189 74h1M192 74h1M189 75h1M192 75h1M52 78h4M110 78h3M134 78h3M155 78h2M189 78h1M192 78h1M189 79h1M192 79h1M189 80h1M57 81h3M130 81h3M158 81h1M161 81h1M189 81h1M189 82h1M128 83h1M189 83h1M144 84h1M189 84h1M144 85h1M170 85h1M189 85h1M140 86h2M144 86h1M189 86h1M43 87h2M116 87h1M119 87h1M141 87h2M144 87h2M172 87h4M189 87h1M138 88h3M143 88h3M189 88h1M74 89h4M112 89h3M137 89h2M140 89h2M145 89h1M189 89h1M74 90h1M77 90h1M134 90h2M138 90h1M141 90h1M189 90h1M133 91h2M138 91h2M141 91h1M189 91h1M79 92h3M108 92h3M133 92h1M139 92h3M189 92h1M120 93h1M129 93h1M133 93h1M140 93h1M189 93h1M192 93h1M83 94h1M120 94h2M134 94h4M140 94h2M145 94h1M189 94h1M192 94h1M121 95h1M130 95h1M137 95h1M141 95h1M145 95h1M189 95h1M192 95h1M122 96h1M131 96h1M137 96h1M142 96h1M189 96h1M192 96h1M122 97h1M132 97h1M136 97h2M142 97h2M189 97h1M192 97h1M92 98h6M123 98h1M132 98h2M185 98h4M192 98h1M123 99h2M133 99h2M124 100h1M172 100h1M105 101h5M125 101h1M130 101h2M172 101h1M189 101h1M104 102h2M109 102h1M112 102h1M119 102h3M125 102h2M129 102h2M172 102h1M103 103h2M112 103h1M116 103h4M121 103h2M126 103h4M172 103h1M103 104h1M116 104h2M119 104h1M122 104h2M127 104h1M102 105h1M116 105h2M119 105h2M123 105h1M170 105h1M102 106h2M114 106h1M117 106h2M120 106h2M170 106h1M103 107h1M114 107h1M118 107h1M170 107h1M214 107h1M104 108h7M115 108h1M118 108h2M109 109h2M115 109h1M119 109h1M136 109h4M167 109h1M203 109h2M216 109h3M110 110h1M116 110h1M110 111h1M116 111h1M110 112h1M167 112h1M184 112h2M198 112h4M110 113h1M103 114h1M110 114h1M127 114h1M103 115h7M189 116h1M192 116h1M178 118h1M181 118h1M178 119h1M181 119h1M114 120h4M175 120h3M182 120h2M194 120h3M189 123h1M192 123h1M105 125h1M41 127h1M44 127h1M37 129h3M54 129h4M99 129h1M41 131h4M59 131h3M94 131h1M172 131h3M200 131h1M41 132h4M92 132h3M200 132h1M46 134h1M63 134h4M97 134h3M167 134h1M196 134h3M205 134h1M105 138h1M108 138h1M158 138h1M59 140h3M77 140h3M110 140h3M154 140h3M209 140h1M209 141h1M63 142h1M66 142h1M209 142h1M63 143h4M81 143h3M114 143h4M176 143h3M187 143h1M209 143h1M68 145h3M85 145h1M88 145h1M189 145h1M189 146h1M170 147h1M189 147h1M200 147h1M41 149h1M44 149h1M85 149h1M88 149h1M127 149h1M192 149h1M192 150h1M46 151h1M81 151h3M167 151h1M193 151h2M167 152h1M167 153h1M49 154h4M152 154h3M167 154h1M189 154h1M192 154h1M150 156h1M169 156h2M169 157h2M169 158h2M57 160h1M63 160h1M66 160h1M172 160h1M172 161h1M49 162h4M59 162h3M68 162h3M147 162h1M173 162h2M54 165h4M63 165h4M72 165h3M90 165h3M167 165h1M178 165h1M181 165h1M85 167h1M88 167h1M150 167h1M150 168h1M63 169h1M66 169h1M150 169h1M158 169h1M150 170h1M50 171h1M59 171h3M68 171h3M77 171h3M151 171h2M156 171h1M52 173h4M63 173h4M72 173h3M94 173h4M153 173h3M52 174h4M63 174h4M72 174h3M94 174h1M97 174h1M94 175h1M57 176h3M68 176h3M77 176h4M94 176h1M101 176h1M216 176h3M94 177h1M55 178h1M94 178h1M214 178h1M220 178h1M223 178h1M55 179h1M94 179h1M94 180h1M52 181h1M94 181h1M43 182h4M52 182h1M60 182h4M70 182h3M94 182h1M112 182h3M229 182h3M94 183h1M74 184h1M94 184h1M119 184h1M39 185h3M57 185h4M74 185h7M94 185h1M104 185h3M116 185h2M119 185h1M178 185h1M181 185h1M198 185h4M207 185h3M234 185h3M94 186h1M119 186h1M35 187h3M61 187h4M94 187h1M108 187h3M119 187h1M194 187h3M211 187h4M238 187h3M94 188h1M119 188h1M77 189h1M94 189h1M119 189h1M192 189h1M242 189h1M245 189h1M77 190h1M94 190h1M119 190h1M192 190h1M46 191h1M94 191h1M114 191h1M119 191h1M220 191h1M223 191h1M74 192h1M94 192h1M114 192h1M119 192h1M48 193h3M74 193h1M82 193h5M94 193h1M107 193h4M114 193h1M119 193h1M197 193h5M225 193h3M242 193h4M86 194h1M94 194h1M114 194h1M119 194h1M94 195h1M119 195h1M200 195h1M52 196h4M82 196h6M94 196h1M112 196h3M119 196h1M200 196h5M229 196h3M238 196h3M119 197h1M74 198h1M105 198h1M108 198h1M119 198h1M74 199h1M77 199h1M119 199h1M209 199h1M77 200h1M119 200h1M209 200h1M214 200h1M119 201h1M214 201h1M66 202h3M119 202h1M187 202h3M216 202h3M225 202h3M119 203h1M74 204h4M105 204h4M119 204h1M158 204h1M192 204h3M219 204h5M74 205h1M108 205h1M119 205h1M223 205h1M105 206h1M119 206h1M79 207h3M105 207h5M119 207h1M150 207h1M182 207h6M196 207h3M214 207h3M119 208h1M181 208h1M83 209h1M86 209h1M119 209h1M181 209h1M200 209h1M203 209h1M209 209h1M212 209h1M119 210h1M114 211h1M92 213h3M110 213h3M122 213h4M97 215h3M105 215h4M125 215h1M127 215h4M172 215h1M97 216h3M105 216h4M125 216h4M136 216h4M171 216h2M170 217h1M101 218h3M130 218h5M141 218h3M169 218h2M161 221h1M161 222h1"></path>
<path stroke="#332d47" d="M129 30h1M93 43h1M93 44h1M93 45h1M93 46h1M118 46h4M93 47h1M93 48h1M93 49h1M109 49h1M136 49h4M93 50h1M93 51h1M115 51h1M93 52h1M95 54h1M95 55h1M87 56h1M95 56h1M118 56h1M95 57h1M118 57h2M193 58h1M193 59h1M91 60h1M98 60h2M91 61h1M92 62h2M197 62h1M85 64h4M94 64h6M141 64h1M104 65h1M70 66h3M100 66h1M104 66h1M142 66h1M202 66h2M80 67h1M204 67h1M80 68h1M204 68h1M177 69h1M204 69h1M177 70h1M204 70h1M113 71h7M153 71h1M178 71h2M202 71h2M113 72h1M153 72h1M94 73h4M102 73h1M114 73h4M131 73h4M142 73h1M153 73h1M195 73h1M199 73h1M153 74h1M204 74h1M98 75h1M102 75h2M138 75h11M153 75h1M187 75h2M193 75h3M204 75h1M51 76h1M102 76h1M153 76h1M195 76h1M204 76h1M102 77h1M153 77h1M180 77h2M195 77h1M204 77h1M133 78h1M153 78h1M179 78h1M204 78h1M133 79h1M153 79h1M179 79h1M204 79h1M60 80h1M133 80h1M153 80h1M156 80h2M179 80h1M193 80h2M204 80h1M133 81h1M153 81h1M156 81h2M193 81h2M204 81h1M153 82h1M177 82h1M193 82h4M204 82h1M144 83h1M153 83h1M158 83h4M177 83h1M193 83h5M204 83h1M65 84h4M120 84h5M143 84h1M153 84h1M177 84h1M193 84h5M204 84h1M69 85h1M124 85h1M141 85h1M153 85h1M162 85h4M177 85h1M193 85h7M204 85h1M70 86h3M116 86h8M153 86h1M163 86h4M177 86h1M193 86h7M204 86h1M153 87h1M165 87h6M177 87h1M193 87h7M204 87h1M146 88h1M153 88h1M165 88h6M177 88h1M193 88h7M204 88h1M136 89h1M139 89h1M153 89h1M169 89h6M177 89h1M193 89h5M204 89h1M139 90h1M142 90h1M153 90h1M169 90h6M177 90h1M193 90h5M204 90h1M78 91h1M136 91h2M142 91h1M153 91h1M171 91h4M177 91h1M193 91h2M204 91h1M78 92h1M132 92h1M134 92h1M138 92h1M142 92h1M153 92h1M171 92h4M177 92h1M193 92h2M204 92h1M130 93h1M132 93h1M153 93h1M175 93h1M178 93h1M193 93h1M204 93h1M102 94h1M119 94h1M128 94h1M138 94h1M144 94h1M153 94h1M175 94h1M204 94h1M87 95h4M98 95h5M144 95h1M146 95h1M153 95h1M173 95h2M204 95h1M91 96h1M102 96h1M135 96h1M143 96h1M153 96h1M184 96h1M204 96h1M88 97h4M98 97h1M121 97h1M138 97h1M153 97h1M180 97h4M188 97h1M204 97h1M124 98h1M142 98h1M153 98h1M198 98h4M204 98h1M122 99h1M153 99h1M198 99h4M204 99h1M105 100h1M108 100h1M123 100h1M134 100h1M153 100h1M186 100h1M195 100h7M204 100h1M120 101h2M153 101h1M186 101h1M195 101h7M204 101h1M108 102h1M111 102h1M113 102h1M131 102h1M186 102h1M193 102h9M204 102h1M102 103h1M125 103h1M130 103h1M186 103h1M193 103h9M204 103h1M145 104h4M155 104h1M186 104h1M193 104h9M204 104h1M149 105h7M186 105h1M193 105h9M204 105h1M210 105h1M123 106h2M144 106h1M149 106h6M185 106h1M194 106h6M204 106h1M210 106h1M113 107h1M145 107h6M195 107h5M204 107h1M207 107h4M111 108h1M145 108h6M169 108h2M196 108h2M204 108h1M207 108h4M111 109h1M114 109h1M140 109h9M207 109h8M111 110h1M117 110h1M140 110h9M207 110h8M111 111h1M115 111h1M131 111h1M136 111h6M209 111h2M111 112h1M131 112h1M136 112h6M209 112h2M111 113h1M132 113h6M164 113h1M168 113h1M184 113h1M193 113h5M206 113h1M111 114h1M132 114h6M164 114h1M168 114h1M184 114h1M206 114h1M123 115h4M131 115h1M164 115h1M184 115h1M193 115h4M202 115h1M108 116h2M122 116h1M127 116h4M164 116h1M184 116h1M122 117h1M127 117h4M164 117h1M178 117h2M184 117h5M198 117h4M123 118h6M175 118h1M197 118h1M123 119h6M175 119h1M177 119h1M197 119h1M118 120h9M184 120h1M118 121h9M184 121h1M114 122h6M114 123h6M47 124h1M113 124h3M184 124h1M45 125h1M109 125h7M76 126h1M101 126h4M109 126h3M180 126h4M100 127h1M105 127h6M100 128h1M105 128h6M176 128h4M101 129h8M175 129h1M40 130h1M101 130h8M175 130h1M96 131h9M96 132h9M101 133h2M101 134h2M53 135h1M100 135h1M104 135h1M162 135h1M195 135h1M54 137h4M105 137h4M158 137h4M58 138h1M58 139h1M105 139h4M157 139h1M185 139h1M189 139h2M207 139h2M109 140h1M140 140h5M45 141h2M109 141h1M113 141h1M140 141h5M129 142h4M138 142h9M188 142h1M129 143h4M138 143h9M188 143h1M45 144h2M54 144h4M71 144h1M122 144h1M127 144h17M175 144h1M204 144h1M122 145h1M127 145h17M204 145h1M127 146h13M200 146h4M127 147h13M76 148h4M131 148h5M170 148h1M189 148h1M80 149h1M132 149h3M195 149h1M67 150h1M80 150h1M127 150h8M195 150h1M45 151h1M65 151h1M61 152h1M65 152h1M67 152h4M65 153h1M72 153h4M155 153h1M65 154h1M155 154h1M169 155h2M184 156h1M49 157h1M180 157h4M49 159h1M169 159h2M62 162h1M62 163h1M67 163h1M50 166h4M59 166h3M68 166h3M149 166h2M62 167h1M67 167h1M49 168h1M80 168h1M83 168h1M51 171h1M62 171h1M67 171h1M62 172h1M67 172h1M56 175h1M67 175h1M51 176h1M67 176h1M55 177h1M100 177h1M100 178h1M102 178h1M80 179h1M100 179h1M103 179h4M210 179h1M100 180h1M210 180h1M65 181h4M77 181h3M100 181h1M100 182h1M43 183h4M53 183h3M73 183h1M100 183h1M111 183h1M202 183h4M229 183h4M100 184h1M102 184h1M210 184h1M42 185h1M100 185h1M102 185h1M210 185h1M73 186h1M100 186h1M102 186h1M111 186h1M100 187h1M102 187h1M111 187h1M100 188h1M102 188h1M115 188h1M100 189h1M102 189h1M80 190h1M100 190h1M102 190h1M188 190h1M100 191h1M102 191h1M82 192h1M100 192h1M102 192h1M186 192h1M195 192h1M100 193h1M100 194h1M100 195h1M111 195h1M100 196h1M87 197h1M92 197h1M100 197h1M87 198h1M100 198h1M210 198h1M100 199h1M105 199h5M113 199h1M100 200h1M73 201h1M101 201h3M109 201h1M113 201h1M100 203h1M186 203h1M217 203h1M213 207h1M87 211h1M120 212h1M177 212h1M124 214h1M131 214h1M173 214h1M101 217h3M129 217h1M129 218h1M168 219h1M168 220h1"></path>
<path stroke="#cbe1f0" d="M45 89h2M45 90h2M45 91h6M45 92h6M45 93h7M45 94h11M45 95h11M45 96h15M45 97h15M45 98h20M45 99h20M45 100h24M45 101h24M45 102h28M45 103h29M45 104h29M45 105h31M45 106h31M45 107h31M45 108h31M45 109h31M45 110h31M50 111h26M50 112h26M52 113h24M52 114h24M56 115h20M56 116h20M61 117h15M61 118h15M61 119h15M65 120h11M65 121h11M70 122h6M70 123h6M74 124h2M74 125h2"></path>
<path stroke="#5a6988" d="M107 20h4M111 21h1M111 22h1M113 23h1M113 24h1M113 25h1M122 25h1M113 26h1M122 26h1M113 27h1M113 28h1M124 28h1M113 29h1M124 29h1M129 29h1M133 29h1M113 30h1M124 30h1M133 30h1M113 31h1M124 31h1M127 31h2M134 31h2M113 32h1M124 32h1M135 32h1M113 33h1M124 33h1M135 33h1M196 33h1M113 34h1M124 34h1M135 34h1M195 34h1M197 34h1M113 35h1M124 35h1M135 35h1M195 35h1M197 35h1M100 36h1M113 36h1M124 36h1M135 36h1M195 36h1M197 36h1M100 37h1M113 37h1M124 37h1M135 37h1M195 37h1M197 37h1M124 38h1M135 38h1M195 38h1M197 38h1M124 39h1M135 39h1M195 39h1M197 39h1M124 40h1M135 40h1M195 40h1M197 40h1M91 41h1M124 41h1M135 41h1M195 41h1M197 41h1M91 42h1M135 42h1M189 42h1M195 42h1M197 42h1M91 43h1M94 43h2M135 43h1M195 43h1M197 43h1M91 44h1M94 44h2M135 44h1M195 44h1M197 44h1M91 45h1M94 45h6M135 45h1M195 45h1M197 45h1M91 46h1M94 46h6M135 46h1M195 46h1M197 46h1M91 47h1M94 47h11M135 47h1M195 47h1M197 47h1M91 48h1M94 48h11M135 48h1M195 48h1M197 48h1M91 49h1M94 49h15M195 49h1M197 49h1M91 50h1M94 50h15M195 50h1M197 50h1M91 51h1M94 51h16M195 51h1M197 51h1M91 52h1M94 52h17M195 52h1M197 52h1M91 53h1M96 53h15M195 53h1M197 53h1M91 54h1M96 54h20M195 54h1M197 54h1M91 55h1M96 55h20M195 55h1M197 55h1M96 56h22M195 56h1M197 56h1M96 57h22M195 57h1M197 57h1M87 58h4M98 58h18M118 58h2M184 58h1M191 58h2M197 58h1M87 59h4M98 59h18M118 59h2M184 59h1M191 59h2M197 59h1M78 60h1M83 60h4M101 60h19M187 60h1M191 60h4M78 61h1M83 61h4M101 61h19M187 61h2M191 61h4M74 62h4M83 62h2M101 62h19M140 62h2M178 62h2M191 62h4M202 62h2M79 63h6M101 63h19M191 63h4M198 63h4M70 64h4M78 64h5M105 64h15M142 64h1M189 64h6M204 64h1M69 65h1M74 65h9M105 65h15M191 65h6M206 65h1M69 66h1M74 66h8M105 66h3M109 66h11M184 66h1M191 66h6M206 66h1M70 67h6M109 67h11M202 67h2M206 67h1M70 68h6M110 68h10M202 68h2M206 68h1M60 69h1M65 69h7M114 69h6M155 69h1M178 69h6M202 69h2M206 69h1M60 70h1M65 70h7M114 70h6M155 70h1M178 70h6M202 70h2M206 70h1M56 71h1M61 71h6M155 71h1M180 71h6M200 71h2M206 71h1M61 72h6M155 72h1M180 72h6M200 72h2M206 72h1M52 73h4M61 73h2M155 73h1M184 73h2M206 73h1M56 74h7M155 74h1M185 74h1M202 74h2M206 74h1M51 75h1M155 75h1M202 75h2M206 75h1M47 76h1M52 76h4M155 76h1M182 76h2M202 76h2M206 76h1M47 77h1M52 77h4M155 77h1M182 77h2M202 77h2M206 77h1M47 78h1M50 78h1M180 78h6M202 78h2M206 78h1M47 79h1M50 79h1M180 79h6M202 79h2M206 79h1M47 80h1M49 80h1M52 80h4M180 80h6M202 80h2M206 80h1M47 81h1M49 81h1M52 81h4M180 81h6M202 81h2M206 81h1M47 82h1M49 82h1M56 82h1M178 82h8M202 82h2M206 82h1M47 83h1M49 83h1M56 83h4M175 83h1M178 83h8M202 83h2M206 83h1M47 84h1M49 84h1M60 84h1M167 84h4M175 84h1M178 84h8M202 84h2M206 84h1M47 85h1M49 85h1M61 85h4M175 85h1M178 85h8M202 85h2M206 85h1M49 86h1M61 86h4M171 86h1M175 86h1M178 86h8M202 86h2M206 86h1M51 87h1M65 87h4M178 87h8M202 87h2M206 87h1M51 88h1M65 88h4M178 88h8M202 88h2M206 88h1M47 89h1M70 89h4M178 89h8M202 89h2M206 89h1M47 90h1M70 90h4M178 90h8M202 90h2M206 90h1M60 91h1M74 91h4M178 91h8M202 91h2M206 91h1M60 92h1M74 92h4M178 92h8M202 92h2M206 92h1M61 93h4M78 93h1M180 93h6M202 93h2M206 93h1M56 94h1M78 94h4M180 94h6M202 94h2M206 94h1M60 95h1M82 95h1M202 95h2M206 95h1M83 96h4M176 96h4M202 96h2M206 96h1M61 97h4M69 97h1M83 97h4M176 97h4M202 97h2M206 97h1M85 98h6M176 98h8M202 98h2M206 98h1M85 99h6M176 99h8M202 99h2M206 99h1M89 100h2M174 100h10M202 100h2M206 100h1M89 101h2M174 101h10M202 101h2M206 101h1M80 102h1M89 102h2M174 102h10M202 102h2M206 102h1M80 103h1M89 103h2M174 103h10M202 103h2M206 103h1M80 104h1M89 104h2M173 104h11M202 104h2M207 104h4M89 105h2M171 105h13M202 105h2M89 106h2M171 106h12M202 106h2M211 106h1M89 107h2M171 107h11M200 107h4M89 108h2M171 108h11M200 108h4M89 109h2M169 109h13M198 109h4M89 110h2M169 110h13M198 110h4M219 110h1M89 111h2M169 111h11M193 111h4M219 111h1M89 112h2M169 112h11M193 112h4M219 112h1M47 113h1M50 113h1M89 113h2M169 113h11M219 113h1M47 114h1M51 114h1M89 114h2M169 114h11M219 114h1M47 115h1M49 115h3M89 115h2M173 115h5M219 115h1M47 116h1M49 116h1M89 116h2M174 116h4M219 116h1M47 117h1M49 117h1M52 117h4M89 117h2M219 117h1M47 118h1M49 118h1M89 118h2M219 118h1M47 119h1M49 119h1M56 119h1M89 119h2M219 119h1M47 120h1M49 120h1M60 120h1M89 120h2M219 120h1M47 121h1M49 121h1M60 121h1M89 121h2M219 121h1M47 122h1M49 122h1M89 122h2M219 122h1M47 123h1M49 123h1M89 123h2M219 123h1M45 124h1M49 124h1M69 124h5M89 124h2M219 124h1M49 125h1M69 125h1M73 125h1M89 125h2M219 125h1M41 126h4M49 126h5M70 126h4M89 126h2M219 126h1M89 127h2M219 127h1M40 128h1M74 128h6M89 128h2M219 128h1M89 129h2M219 129h1M89 130h2M219 130h1M36 131h1M89 131h2M219 131h1M36 132h1M89 132h2M219 132h1M92 133h4M219 133h1M92 134h4M219 134h1M67 135h4M200 135h4M219 135h1M36 136h1M71 136h1M96 136h4M200 136h6M219 136h1M71 137h5M100 137h1M196 137h10M219 137h1M100 138h5M195 138h11M219 138h1M101 139h4M195 139h11M219 139h1M36 140h1M80 140h1M105 140h4M191 140h17M219 140h1M36 141h1M80 141h1M105 141h4M191 141h17M219 141h1M109 142h4M184 142h2M189 142h15M219 142h1M109 143h4M184 143h2M189 143h15M219 143h1M36 144h1M114 144h4M180 144h8M191 144h9M219 144h1M36 145h1M114 145h4M180 145h9M191 145h9M219 145h1M89 146h5M176 146h13M191 146h8M219 146h1M118 147h4M175 147h14M191 147h5M219 147h1M36 148h5M122 148h1M172 148h17M193 148h2M219 148h1M123 149h4M171 149h18M219 149h1M123 150h4M171 150h18M219 150h1M127 151h4M169 151h20M219 151h1M127 152h4M169 152h20M219 152h1M47 153h1M129 153h2M160 153h5M169 153h16M219 153h1M47 154h1M129 154h2M160 154h5M169 154h16M219 154h1M47 155h1M50 155h4M129 155h2M156 155h12M171 155h9M219 155h1M47 156h1M50 156h4M129 156h2M155 156h14M171 156h9M219 156h1M47 157h1M129 157h2M152 157h17M172 157h8M219 157h1M47 158h1M54 158h4M129 158h2M151 158h18M173 158h3M219 158h1M47 159h1M129 159h2M149 159h20M174 159h1M219 159h1M47 160h1M50 160h4M59 160h4M129 160h2M149 160h20M219 160h1M47 161h1M50 161h4M59 161h3M129 161h2M149 161h20M219 161h1M47 162h1M54 162h4M63 162h4M129 162h2M149 162h18M219 162h1M47 163h1M54 163h4M63 163h4M129 163h2M149 163h18M219 163h1M47 164h1M50 164h4M59 164h3M67 164h4M129 164h2M149 164h13M219 164h1M47 165h1M50 165h4M59 165h4M67 165h4M129 165h2M149 165h13M219 165h1M47 166h1M89 166h1M129 166h2M151 166h7M219 166h1M47 167h1M54 167h4M63 167h4M72 167h4M129 167h2M151 167h7M219 167h1M47 168h1M129 168h2M151 168h6M219 168h1M47 169h1M50 169h4M59 169h4M67 169h4M76 169h4M129 169h2M151 169h5M219 169h1M47 170h1M52 170h2M83 170h2M129 170h2M153 170h2M219 170h1M47 171h1M52 171h6M63 171h4M72 171h4M82 171h1M94 171h4M129 171h2M219 171h1M47 172h1M52 172h6M63 172h4M72 172h4M82 172h1M94 172h4M129 172h2M219 172h1M47 173h1M50 173h1M56 173h7M67 173h4M76 173h4M82 173h1M92 173h1M98 173h4M129 173h2M219 173h1M47 174h1M50 174h1M56 174h7M67 174h4M76 174h4M82 174h1M92 174h1M98 174h4M129 174h2M219 174h1M47 175h1M52 175h4M61 175h6M72 175h4M82 175h1M92 175h1M103 175h4M129 175h2M219 175h1M47 176h1M52 176h4M61 176h6M72 176h4M82 176h1M92 176h1M103 176h4M129 176h2M47 177h1M65 177h2M82 177h1M92 177h1M107 177h4M129 177h2M215 177h1M219 177h5M47 178h1M56 178h4M65 178h6M76 178h4M82 178h1M92 178h1M107 178h4M129 178h2M47 179h1M69 179h3M82 179h1M92 179h1M111 179h1M129 179h2M211 179h4M220 179h8M47 180h1M61 180h4M70 180h6M82 180h1M92 180h1M112 180h4M129 180h2M228 180h1M47 181h4M73 181h3M82 181h1M92 181h1M115 181h1M129 181h2M207 181h4M224 181h5M65 182h4M74 182h6M82 182h1M92 182h1M116 182h4M129 182h2M206 182h1M228 182h1M65 183h4M74 183h6M82 183h1M92 183h1M116 183h4M129 183h2M206 183h1M38 184h1M70 184h4M82 184h1M92 184h1M121 184h1M129 184h2M206 184h1M237 184h1M38 185h1M70 185h4M82 185h1M92 185h1M121 185h1M129 185h2M206 185h1M237 185h1M38 186h1M60 186h1M74 186h6M82 186h1M92 186h1M121 186h1M129 186h2M197 186h1M237 186h1M241 186h1M38 187h1M60 187h1M74 187h6M82 187h1M92 187h1M121 187h1M129 187h2M197 187h1M237 187h1M37 188h6M78 188h2M82 188h1M92 188h1M111 188h1M121 188h1M129 188h2M193 188h1M215 188h5M241 188h5M38 189h1M79 189h1M82 189h1M92 189h1M111 189h1M121 189h1M129 189h2M215 189h1M219 189h1M39 190h8M65 190h4M92 190h1M112 190h2M121 190h1M129 190h2M189 190h2M193 190h4M216 190h8M242 190h8M69 191h1M83 191h4M92 191h1M121 191h1M129 191h2M197 191h1M246 191h1M250 191h1M44 192h1M47 192h1M69 192h1M83 192h4M92 192h1M121 192h1M129 192h2M188 192h1M197 192h1M246 192h1M250 192h1M47 193h1M51 193h1M87 193h6M121 193h1M129 193h2M186 193h1M195 193h1M228 193h1M47 194h1M51 194h1M87 194h6M121 194h1M129 194h2M186 194h1M195 194h1M228 194h1M92 195h1M121 195h1M129 195h2M186 195h1M206 195h1M228 195h1M237 195h1M78 196h1M92 196h1M121 196h1M129 196h2M186 196h1M206 196h1M228 196h1M237 196h1M56 197h1M60 197h1M82 197h1M121 197h1M129 197h2M186 197h1M210 197h1M237 197h1M60 198h1M82 198h1M121 198h1M129 198h2M186 198h1M204 198h1M237 198h1M57 199h8M70 199h4M78 199h4M87 199h5M121 199h1M129 199h2M186 199h1M205 199h4M211 199h4M229 199h8M60 200h1M69 200h1M91 200h1M121 200h1M129 200h2M186 200h1M228 200h1M61 201h6M69 201h1M74 201h4M92 201h4M121 201h1M129 201h2M186 201h1M209 201h4M215 201h1M228 201h5M121 202h1M129 202h2M228 202h1M65 203h1M73 203h1M121 203h1M129 203h2M224 203h1M228 203h1M100 204h1M121 204h1M129 204h2M186 204h1M195 204h1M217 204h1M100 205h1M121 205h1M129 205h2M186 205h1M195 205h1M217 205h1M78 206h1M82 206h1M121 206h1M129 206h2M195 206h1M217 206h1M82 207h1M121 207h1M129 207h2M195 207h1M217 207h1M82 208h5M121 208h1M129 208h2M201 208h2M209 208h4M121 209h1M129 209h2M83 210h8M110 210h4M122 210h1M129 210h2M180 210h2M201 210h12M91 211h1M123 211h4M129 211h2M204 211h1M208 211h1M87 212h5M113 212h7M126 212h1M129 212h2M178 212h2M204 212h5M91 213h1M113 213h1M120 213h1M127 213h4M91 214h1M109 214h1M113 214h1M120 214h1M127 214h4M100 217h1M104 217h1M100 218h1M135 218h1M144 219h1M146 221h3M162 221h7M152 223h10"></path>
<path stroke="#b86f50" d="M101 38h3M101 39h3M100 40h4M96 41h8M114 41h2M101 42h4M114 42h2M101 43h15M105 44h11M105 45h11M125 45h2M105 46h11M125 46h2M112 47h15M112 48h15M116 49h11M116 50h11M121 51h6M121 52h10M125 53h2M125 54h2M39 131h1M39 132h1M39 133h6M39 134h6M39 135h6M39 136h8M39 137h8M39 138h15M39 139h4M47 139h7M39 140h4M48 140h10M39 141h4M48 141h10M39 142h4M45 142h2M50 142h12M39 143h4M45 143h2M50 143h12M39 144h4M48 144h6M59 144h8M39 145h4M48 145h6M59 145h8M41 146h2M50 146h4M61 146h6M41 147h6M50 147h4M56 147h2M61 147h10M45 148h2M50 148h4M56 148h2M61 148h6M70 148h1M45 149h13M61 149h6M70 149h6M47 150h11M63 150h2M71 150h5M48 151h12M63 151h2M72 151h8M48 152h12M63 152h2M72 152h8M54 153h11M68 153h3M76 153h4M54 154h11M68 154h3M76 154h4M59 155h6M67 155h2M76 155h4M59 156h10M72 156h2M76 156h4M63 157h6M72 157h2M76 157h4M63 158h11M76 158h4M67 159h7M76 159h4M68 160h12M71 161h9M72 162h8M72 163h8M76 164h4M76 165h4"></path>
<path stroke="#262b44" d="M107 21h1M118 25h1M118 26h1M107 27h4M107 28h5M107 29h5M107 30h5M107 31h5M118 31h4M129 31h1M107 32h5M118 32h5M107 33h5M118 33h5M107 34h5M118 34h5M107 35h5M118 35h5M107 36h5M118 36h5M129 36h5M107 37h5M118 37h5M129 37h5M96 38h4M107 38h5M114 38h2M118 38h5M129 38h5M107 39h5M118 39h5M129 39h5M107 40h5M118 40h5M129 40h5M107 41h5M118 41h5M129 41h5M93 42h1M118 42h5M129 42h5M118 43h5M129 43h5M190 43h1M118 44h5M129 44h5M190 44h1M118 45h5M129 45h5M190 45h1M101 46h3M129 46h5M190 46h1M129 47h5M190 47h1M129 48h5M190 48h1M110 49h1M129 49h5M190 49h1M110 50h1M129 50h5M190 50h1M112 51h3M136 51h2M190 51h1M112 52h4M136 52h2M190 52h1M93 53h1M116 53h4M132 53h6M190 53h1M94 54h1M116 54h7M131 54h7M190 54h1M94 55h1M118 55h5M131 55h7M94 56h1M119 56h4M127 56h11M88 57h3M94 57h1M120 57h3M127 57h11M191 57h1M94 58h4M116 58h2M121 58h2M125 58h13M94 59h4M116 59h2M121 59h2M125 59h13M96 60h2M121 60h2M125 60h13M197 60h1M96 61h4M121 61h2M125 61h13M121 62h2M125 62h13M121 63h2M125 63h13M121 64h2M125 64h13M140 64h1M179 64h1M73 65h1M100 65h1M121 65h2M125 65h13M142 65h1M85 66h4M101 66h3M121 66h2M125 66h13M143 66h3M178 66h6M198 66h4M121 67h2M125 67h13M177 67h1M184 67h1M197 67h1M65 68h1M121 68h2M125 68h13M177 68h1M184 68h1M197 68h1M64 69h1M109 69h1M121 69h2M125 69h11M151 69h1M109 70h1M121 70h2M125 70h11M151 70h1M94 71h4M120 71h1M125 71h7M135 71h1M147 71h4M125 72h6M135 72h1M98 73h4M120 73h2M143 73h4M178 73h2M196 73h3M204 73h1M102 74h1M120 74h3M142 74h1M178 74h2M195 74h1M99 75h3M120 75h2M127 75h4M178 75h2M196 75h6M104 76h1M178 76h4M49 77h2M103 77h2M118 77h9M138 77h4M178 77h2M185 77h3M194 77h1M109 78h1M113 78h1M178 78h1M109 79h1M113 79h1M178 79h1M56 80h1M155 80h1M158 80h3M178 80h1M56 81h1M60 81h1M155 81h1M178 81h2M61 82h4M125 82h4M155 82h1M158 82h4M155 83h1M145 84h1M155 84h1M162 84h4M120 85h1M140 85h1M145 85h1M155 85h1M166 85h1M142 86h1M155 86h1M45 87h6M73 87h1M139 87h2M155 87h1M48 88h3M70 88h4M116 88h4M137 88h1M141 88h1M155 88h1M43 89h2M48 89h8M111 89h1M115 89h1M143 89h1M146 89h1M155 89h1M175 89h1M43 90h2M48 90h8M111 90h1M115 90h1M133 90h1M136 90h1M140 90h1M155 90h1M175 90h1M43 91h2M52 91h4M82 91h1M135 91h1M145 91h1M155 91h1M175 91h1M43 92h2M52 92h8M82 92h1M129 92h1M145 92h1M155 92h1M175 92h1M43 93h2M57 93h3M83 93h4M103 93h4M119 93h1M139 93h1M145 93h1M155 93h1M177 93h1M43 94h2M57 94h8M129 94h1M155 94h1M43 95h2M61 95h4M120 95h1M122 95h1M140 95h1M142 95h1M155 95h1M43 96h2M61 96h8M87 96h1M130 96h1M132 96h1M136 96h1M141 96h1M155 96h1M173 96h1M43 97h2M65 97h4M99 97h3M123 97h1M133 97h1M135 97h1M155 97h1M173 97h1M43 98h2M66 98h7M134 98h1M143 98h1M155 98h1M173 98h1M43 99h2M70 99h3M155 99h1M173 99h2M43 100h2M70 100h6M93 100h1M106 100h2M125 100h1M131 100h1M155 100h1M43 101h2M70 101h6M93 101h1M104 101h1M126 101h1M155 101h1M43 102h2M74 102h2M93 102h1M103 102h1M118 102h1M122 102h1M128 102h1M149 102h4M155 102h1M188 102h1M43 103h2M74 103h6M93 103h1M111 103h1M113 103h1M115 103h1M120 103h1M123 103h1M155 103h1M188 103h1M43 104h2M77 104h3M93 104h1M102 104h1M115 104h1M118 104h1M120 104h1M124 104h1M126 104h1M128 104h1M149 104h6M169 104h2M188 104h1M43 105h2M77 105h3M93 105h1M113 105h2M118 105h1M121 105h1M124 105h1M188 105h1M43 106h2M77 106h3M93 106h1M122 106h1M145 106h4M186 106h1M188 106h1M207 106h3M43 107h2M77 107h3M93 107h1M102 107h1M117 107h1M119 107h1M140 107h1M144 107h1M184 107h1M188 107h1M206 107h1M43 108h2M77 108h3M93 108h1M103 108h1M114 108h1M120 108h1M140 108h1M144 108h1M184 108h1M188 108h1M206 108h1M43 109h2M77 109h3M93 109h1M105 109h4M116 109h1M120 109h1M168 109h1M184 109h1M188 109h1M206 109h1M43 110h2M77 110h3M93 110h1M168 110h1M184 110h1M188 110h1M202 110h1M206 110h1M43 111h2M77 111h3M93 111h1M117 111h1M168 111h1M182 111h1M186 111h1M216 111h1M43 112h6M77 112h3M93 112h1M116 112h2M168 112h1M182 112h1M186 112h1M216 112h1M48 113h1M77 113h3M93 113h1M127 113h5M165 113h3M182 113h1M207 113h2M211 113h6M48 114h3M77 114h3M93 114h1M104 114h1M131 114h1M167 114h1M182 114h1M193 114h1M197 114h1M211 114h6M48 115h1M77 115h3M93 115h1M110 115h1M127 115h4M168 115h1M180 115h2M189 115h4M203 115h14M48 116h1M52 116h4M77 116h3M93 116h1M104 116h1M169 116h4M206 116h11M48 117h1M77 117h3M93 117h1M123 117h4M165 117h8M182 117h2M189 117h4M202 117h1M206 117h11M48 118h1M57 118h3M77 118h3M93 118h1M122 118h1M173 118h2M184 118h1M188 118h1M202 118h15M48 119h1M77 119h3M93 119h1M122 119h1M169 119h6M184 119h5M202 119h15M61 120h3M77 120h3M93 120h1M173 120h1M193 120h1M198 120h19M61 121h3M77 121h3M93 121h1M173 121h1M193 121h1M198 121h19M77 122h3M93 122h1M109 122h1M113 122h1M193 122h24M65 123h4M77 123h3M93 123h1M109 123h1M113 123h1M193 123h24M77 124h3M93 124h1M105 124h8M185 124h32M70 125h3M77 125h3M93 125h1M184 125h1M189 125h28M77 126h3M93 126h1M105 126h4M184 126h33M74 127h4M93 127h1M184 127h33M41 128h4M93 128h1M104 128h1M184 128h33M40 129h1M93 129h1M100 129h1M180 129h37M93 130h1M100 130h1M180 130h37M175 131h25M206 131h11M175 132h25M206 132h11M100 133h1M171 133h25M199 133h1M204 133h1M206 133h11M100 134h1M171 134h25M199 134h1M204 134h1M206 134h11M48 135h5M102 135h2M163 135h28M208 135h9M104 136h1M162 136h1M167 136h24M209 136h8M162 137h29M209 137h8M162 138h22M209 138h8M162 139h23M186 139h1M209 139h8M43 140h4M62 140h1M113 140h1M153 140h1M158 140h22M188 140h1M211 140h6M43 141h2M110 141h3M153 141h1M158 141h22M188 141h1M211 141h6M43 142h2M48 142h1M153 142h23M211 142h6M43 143h2M48 143h1M153 143h23M211 143h6M43 144h2M118 144h1M144 144h1M149 144h22M189 144h2M205 144h4M213 144h4M43 145h4M54 145h4M71 145h1M144 145h1M149 145h22M213 145h4M54 146h2M72 146h4M123 146h4M140 146h27M204 146h1M213 146h4M48 147h1M54 147h2M59 147h1M144 147h23M213 147h4M59 148h1M127 148h4M136 148h4M143 148h23M213 148h4M59 149h1M68 149h1M131 149h1M135 149h1M140 149h20M168 149h1M213 149h4M68 150h1M135 150h1M140 150h27M168 150h1M206 150h1M213 150h4M61 151h1M66 151h5M136 151h20M168 151h1M206 151h11M46 152h1M66 152h1M136 152h20M168 152h1M206 152h11M66 153h1M82 153h1M134 153h17M168 153h1M202 153h15M66 154h1M72 154h4M82 154h1M134 154h17M168 154h1M202 154h15M74 155h2M82 155h1M134 155h13M185 155h4M197 155h20M70 156h1M74 156h2M82 156h1M134 156h13M198 156h19M74 157h2M82 157h1M134 157h11M146 157h1M184 157h1M193 157h7M204 157h13M74 158h2M82 158h1M133 158h12M146 158h1M193 158h7M204 158h13M82 159h1M133 159h11M146 159h1M193 159h7M204 159h13M82 160h1M133 160h9M146 160h1M171 160h1M191 160h7M206 160h11M54 161h4M63 161h4M82 161h1M133 161h9M146 161h1M171 161h1M191 161h7M206 161h11M67 162h1M82 162h1M133 162h9M171 162h1M186 162h5M206 162h11M53 163h1M82 163h1M133 163h9M171 163h1M186 163h5M206 163h11M82 164h1M133 164h9M182 164h7M206 164h12M82 165h1M133 165h9M182 165h7M206 165h12M49 166h1M82 166h1M133 166h9M163 166h4M178 166h4M204 166h14M82 167h1M133 167h9M162 167h1M178 167h4M204 167h14M82 168h1M133 168h9M162 168h1M173 168h9M202 168h16M133 169h9M173 169h7M202 169h16M133 170h9M173 170h7M202 170h16M133 171h9M171 171h2M200 171h18M50 172h1M59 172h3M68 172h3M76 172h4M133 172h9M171 172h2M200 172h18M133 173h9M167 173h4M198 173h20M133 174h9M167 174h4M198 174h20M50 175h1M57 175h3M68 175h3M76 175h4M98 175h4M133 175h9M153 175h7M162 175h7M195 175h20M56 176h1M133 176h9M153 176h7M162 176h7M195 176h20M51 177h1M133 177h14M153 177h9M193 177h18M133 178h14M153 178h9M193 178h18M133 179h18M153 179h9M191 179h19M133 180h18M153 180h7M191 180h16M80 181h1M107 181h4M133 181h18M153 181h7M191 181h15M73 182h1M111 182h1M115 182h1M133 182h23M189 182h13M52 183h1M115 183h1M133 183h23M189 183h13M133 184h23M182 184h2M187 184h11M233 184h1M133 185h23M182 185h2M186 185h12M233 185h1M69 186h4M107 186h1M133 186h23M164 186h1M178 186h6M186 186h7M73 187h1M133 187h23M178 187h6M186 187h7M112 188h3M133 188h23M173 188h11M65 189h1M115 189h1M133 189h23M173 189h11M115 190h1M133 190h23M172 190h12M43 191h1M115 191h1M133 191h23M171 191h9M191 191h1M103 192h4M115 192h1M133 192h23M171 192h9M115 193h1M133 193h23M171 193h5M182 193h2M48 194h3M75 194h3M115 194h1M133 194h23M171 194h5M182 194h2M196 194h4M225 194h3M242 194h1M53 195h2M115 195h1M133 195h23M171 195h2M182 195h2M202 195h4M229 195h4M238 195h3M111 196h1M133 196h23M171 196h2M182 196h2M78 197h1M91 197h1M93 197h1M105 197h4M133 197h21M171 197h5M182 197h2M133 198h21M171 198h5M182 198h2M233 198h1M110 199h3M133 199h20M171 199h4M178 199h6M210 199h1M64 200h1M109 200h1M113 200h1M133 200h12M171 200h2M178 200h4M232 200h1M100 201h1M110 201h3M133 201h12M171 201h2M177 201h6M213 201h1M65 202h1M104 202h1M133 202h7M171 202h2M175 202h9M190 202h1M104 203h1M133 203h7M171 203h3M175 203h9M133 204h7M171 204h11M133 205h7M171 205h11M191 205h1M79 206h3M113 206h1M133 206h7M171 206h7M186 206h2M196 206h3M214 206h3M113 207h1M133 207h7M171 207h7M114 208h4M133 208h7M171 208h3M133 209h7M171 209h2M133 210h7M171 210h2M179 210h1M133 211h7M179 211h1M133 212h7M95 213h1M126 213h1M133 213h7M126 214h1M133 214h7M133 215h3M133 216h3M149 222h1"></path>
</g></svg>