<svg xmlns="http://www.w3.org/2000/svg" width="277.3" height="277.3" viewBox="0 0 73.4 73.4">
  <path d="M44.6 209.9v-36.7H118v73.4H44.6Z" style="fill:#fefefe;stroke-width:.352778" transform="translate(-44.5 -173.2)"/>
  <path d="M66.9 233.6c-3.6-.8-6.7-2.3-8.6-4a24 24 0 0 1-4.5-7.7 66.4 66.4 0 0 1-2.3-15.4c.4-5.2 4.5-8.5 16.6-13.7a50.6 50.6 0 0 1 19.8-5.4c5.3.7 14.8 5.7 19.6 10.5 2.9 2.9 4.2 5.4 4.2 8a46 46 0 0 1-2.2 12.4c-2.8 5.8-13.7 12.2-25.6 15a51 51 0 0 1-17 .3z" style="fill:#cc855f;stroke-width:.352778" transform="translate(-44.5 -173.2)"/>
  <path d="M67.9 233.7c-9.5-1.8-13.3-6.2-15.4-18-1.2-6.8-1.2-10.4-.2-12.4 1.8-3.4 8.2-7.4 18.1-11.3 8.9-3.6 14.8-5 18.1-4.4 5.5 1 13.4 5.3 18.2 9.8 3 2.8 4.5 5.2 4.8 7.6.3 2.2-1 11-2 13.2-2.8 5.8-14.1 12.4-25.9 15-4.6 1-12 1.2-15.7.5zm28-27c.9-.2.6-.3-1.3-.3-1.5 0-2.3 0-2.2.3.3.4 2 .4 3.6 0zm-29.7-1.9-2-.2c-1.2 0-2.2.1-2.1.3.1.2 2.8.2 4-.1zm-4-7.5h-.7c-.3.1-.2.2.2.2s.6 0 .5-.2zm3.9 0h-2l1 .1c1 0 1.5 0 1-.1z" style="fill:#d27545;stroke-width:.352778" transform="translate(-44.5 -173.2)"/>
  <path d="M67.9 233.7c-9.5-1.8-13.3-6.2-15.4-18-1.2-6.8-1.2-10.4-.2-12.4 1.8-3.4 8.2-7.4 18.1-11.3 8.9-3.6 14.8-5 18.1-4.4 5.5 1 13.4 5.3 18.2 9.8 3 2.8 4.5 5.2 4.8 7.6.3 2.2-1 11-2 13.2-2.8 5.8-14.1 12.4-25.9 15-4.6 1-12 1.2-15.7.5zm29.1-27c0-.2-1.2-.3-2.5-.3-1.4 0-2.2 0-2 .3 0 .2 1.2.4 2.5.4 1.4 0 2.2-.2 2-.4zm2.2.2c0-.2-.4-.2-.6 0-.3 0-.2.1.2.1.3 0 .5 0 .4-.1zM70 205.3c1.4-.1 1.3-.1-.8-.4-3.6-.3-7.3-.3-7.3 0 0 .7.7.8 3.5.6l4.6-.2zm-11.6-1c0-.3-.9-.4-2-.4-1.5 0-1.9.1-1.3.3 1 .5 3.3.5 3.3 0zm-2-2.5c.5-.2 1-.6 1-.9 0-.8-.5-.7-1.5.3-.9 1-.8 1.1.5.6zm5.8-1.7c.3-.2.4-.6.2-1-.1-.3 0-.5.4-.5.3 0 .5.2.5.3 0 .4 1 .3 2-.2.4-.2.9-.3 1.1-.2.2 0 .5 0 .6-.2.2-.2.7-.4 1.3-.4.6 0 1-.1 1-.3 0-.3-7.5-1-8-.6-.4.2-.9 2.6-.6 3 .3.4.9.5 1.5 0zm12-2c.5-.5.3-.6-.8-.6-.9 0-1.2.2-1.2.6 0 .3.3.5.8.5s1-.2 1.3-.5zm5.3 0c-.4-.3-2-.5-2-.2 0 .2.5.3 1 .3h1zm-12.3-3c.4-.3.4-.4-.3-.4-.5 0-1.1.2-1.4.4-.5.2-.4.3.3.3.5 0 1.1-.1 1.4-.3zm5.3-2.1c0-.2-.2-.4-.5-.4s-.5.2-.5.4.2.3.5.3.5-.1.5-.3zm9.7-.4c.1-.2 0-.4-.1-.5-.5-.3-1.5.2-1.3.5.3.5 1.1.4 1.4 0zm-6.7-.3c.3-.5-.5-.5-1.2 0-.5.2-.4.3.2.3a2 2 0 0 0 1-.3z" style="fill:#cb6737;stroke-width:.352778" transform="translate(-44.5 -173.2)"/>
  <path d="M67.9 233.7c-9.5-1.8-13.3-6.2-15.4-18-1.2-6.8-1.2-10.4-.2-12.4 1.8-3.4 8.2-7.4 18.1-11.3 8.9-3.6 14.8-5 18.1-4.4 5.5 1 13.4 5.3 18.2 9.8 3 2.8 4.5 5.2 4.8 7.6.3 2.2-1 11-2 13.2-2.8 5.8-14.1 12.4-25.9 15-4.6 1-12 1.2-15.7.5zM72 221c-.6-.5-.7-.5-1.2 0-.6.6-.6.6.6.6 1.1 0 1.1 0 .6-.6zm4.6.3c-.6-.5-1.1-.5-.8 0 0 .2.5.3.8.3.5 0 .5 0 0-.3zm-24.2-12.6c-.3-.5-.4-.5-.3.3 0 .5.2.8.3.7.2-.2.2-.6 0-1zm5-.3c1-.6 1-.6.2-.4l-1.3.2c-.3 0-.5.2-.5.4 0 .5.5.4 1.7-.2zm-2.3-1.5 1.4-1c.2-.3.8-.5 1.3-.5.8 0 1.6-.8 1.2-1.2-.1 0-1.2-.3-2.5-.4l-2.4-.2v.9a6 6 0 0 1-.4 1.7c-.5 1.4 0 1.7 1.4.7zm41.8 0c0-.3-1.2-.4-2.5-.4-1.4 0-2.2 0-2 .3 0 .2 1.2.4 2.5.4 1.4 0 2.2-.2 2-.4zm2.2 0h-.6c-.3.1-.2.2.2.2.3 0 .5 0 .4-.1zm-32-1c.9-.2 2.1-.2 2.7-.2.6 0 1.2 0 1.3-.2.2-.4-3.8-.8-7.2-.8-2 0-2.3.1-1.9 1.2.2.5 1.5.5 5.1 0zm-10-3.5c.7-.3.7-2-.1-2-.6 0-2.2 1.4-2.2 1.9 0 .3 1.4.4 2.2 0zm5.8-1.9a10 10 0 0 1 3.1-1.2c1.8-.3 3.7-1.2 3.4-1.6 0-.2-2-.4-4-.6-3.8-.2-4-.2-4.8.6-1 .9-1 1.6-.5 3 .5 1 .8 1 2.8-.2zm11.6-1.4c-.1-.5.3-.6 2.4-.6l2.8-.2c.3-.4-3.3-.7-6-.6l-2.3.1.7 1.1c.5.9.9 1 1.6 1 .5-.2.8-.4.8-.8zm-2.3-3.1c-.3-.1-.2-.5.3-1.4.8-1.2.8-1.2 4.5-1.7.2 0 .5-.2.6-.5.3-.7-5-.3-6.6.5-1.6.8-1.5.7-1.1 1.4l.5 1.3c.2.4.6.6 1.2.6s.8-.1.6-.2zm-4-.8c0-.4-.4-.7-.8-.7-.7 0-3.1.9-3.1 1.2l2 .2c2 0 2.2 0 2-.7zm16-2.5 1.8-.2-1.7-.2c-2.7-.4-3.8-.4-3.8.2 0 .6.7 1 1.4.6l2.3-.4zm-8-2h-.7c-.3.1-.2.2.2.2s.6 0 .5-.2zm4.4 0h-.9c-.2.1 0 .2.5.2s.7-.1.4-.2z" style="fill:#a56b4e;stroke-width:.352778" transform="translate(-44.5 -173.2)"/>
  <path d="M68.8 233.7c-8-1.1-12-4.3-14.6-11.2-1-2.6-2.5-12-2.6-15.1 0-5.2 3.2-8.3 13-12.9 13.6-6.1 21-7.9 26.5-6.1 8 2.5 16.6 8.6 19.2 13.5 1.4 2.5 1.4 4 .5 10.6-.7 4.7-1.5 6.4-4 9.1a50.1 50.1 0 0 1-38 12.1zm3.3-12.8c-.6-.5-.7-.5-1.2 0-.6.6-.6.6.6.6 1.1 0 1.1 0 .6-.6zm4.6.3c-.6-.5-1.1-.5-.8 0 0 .2.5.3.8.3.5 0 .5 0 0-.3zm-5-5.7c-.2-.2-.7-.3-1.2-.3-.9 0-1 0-.3.3 1 .5 1.7.5 1.4 0zm-19.2-6.9c-.3-.5-.4-.5-.3.3 0 .5.2.8.3.7.2-.2.2-.6 0-1zm5-.3c1-.6 1-.6.2-.4l-1.3.2c-.3 0-.5.2-.5.4 0 .5.5.4 1.7-.2zm-2.3-1.5 1.4-1c.2-.3.8-.5 1.3-.5.8 0 1.6-.8 1.2-1.2-.1 0-1.2-.3-2.5-.4l-2.4-.2v.9a6 6 0 0 1-.4 1.7c-.5 1.4 0 1.7 1.4.7zm45.3.2c-.6-.5-8.6-.9-8.6-.4 0 .7.7.8 5 .8 3 0 3.9 0 3.6-.4zm-14.2-.5c1.2-.3 1.2-.3.3-.5-.5-.2-2.1-.3-3.7-.3-2.5 0-2.6 0-1.3.3a7 7 0 0 1 1.8.5c.2.3 1.5.3 3 0zm-19-.8h2.5c.5 0 1.2-.2 1.6-.4.5-.3.4-.3-.6-.3l-5-.4a22 22 0 0 0-3.9-.2c-.2.1-.1.6 0 1 .5 1 1.2 1 5.3.3zm11.7 0c.2-.2-.1-.4-.6-.4s-1 .2-1 .4.4.3.7.3c.4 0 .8-.1 1-.3zm-21.9-3.4c.8-.3.8-2 0-2-.6 0-2.2 1.4-2.2 1.9 0 .3 1.4.4 2.2 0zm5.9-1.9a10 10 0 0 1 3.1-1.2c1.8-.3 3.7-1.2 3.4-1.6 0-.2-2-.4-4-.6-3.8-.2-4-.2-4.8.6-1 .9-1 1.6-.5 3 .5 1 .8 1 2.8-.2zm11.6-1.4c-.1-.5.4-.6 3.7-.6 2.1 0 3.9-.2 4-.3.2-.2-6.9-.6-9-.5l-1.8.1.7 1.1c.5.9.9 1 1.6 1 .5-.2.8-.4.8-.8zm29.2.8h-.7c-.2 0-.2.2.3.2.3 0 .5 0 .4-.2zm-13.5-1.2c.5-.2 0-.3-1.6-.3-1.4 0-2.4.1-2.4.3 0 .4 3 .4 4 0zm-18-2.7c-.3-.1-.2-.5.3-1.4.8-1.2.8-1.2 4.5-1.7.2 0 .5-.2.6-.5.3-.7-5-.3-6.6.5-1.6.8-1.5.7-1.1 1.4l.5 1.3c.2.4.6.6 1.2.6s.8-.1.6-.2zm-4-.8c0-.4-.4-.7-.8-.7-.7 0-3.1.9-3.1 1.2l2 .2c2 0 2.2 0 2-.7zm29.4-1.7h-1c-.2.1 0 .2.5.2s.7 0 .5-.2zm-13.4-.8 1.8-.2-1.7-.2c-2.7-.4-3.8-.4-3.8.2 0 .6.7 1 1.4.6l2.3-.4zm-8-2h-.7c-.3.1-.2.2.2.2s.6 0 .5-.2zm4.4 0h-.9c-.2.1 0 .2.5.2s.7-.1.4-.2z" style="fill:#aa532d;stroke-width:.352778" transform="translate(-44.5 -173.2)"/>
  <path d="M68.8 233.7c-7-1-10.8-3.5-13.5-8.8-1.4-2.8-2-5-2.5-9a41.4 41.4 0 0 0-1-5.6l.5.8c0 .5.3 1 .3 1l1.6-1.2c.9-.7 1.6-1 2-.9.4.2.5.4.2.7-.3.3-.2.5.3.8.5.2.8.6.7.8 0 .5.1.5 1.4-.1 1-.6 2.2-.4 1.3.2-.3.2-.3.3.3.3l1.4.2c.5.3.6.1.3-1.1-.2-1.2-.7-2-1.6-2.3-.2 0-.4-1.3-.5-2.6-.3-3-.6-3.4-3.6-3.4-2.2 0-2.4.1-3.5 1.3-.9 1-1.2 1.2-1.2.7 0-1.5 2.4-5 4-6 .6-.2.5 0-.2.8-1.4 1.4-1.3 2.2.2 2.2.7 0 1.5 0 1.8.2.4.2.6 0 .6-1.3 0-1.2-.2-1.5-.8-1.6-.9-.3-.8-.6.3-1.6 1.2-1 8.6-4.5 13.1-6.3 3-1.2 3.7-1.3 4.7-1 1.5.4 1.3.4 1.3-.2 0-.4-.2-.5-1-.4l-.9.2.9-.4a32 32 0 0 1 9.7-2.3c2.7-.2 3.6-.1 5.7.6a47 47 0 0 1 15.7 9c2.2 2.1 4.4 5.3 3.4 4.9-.3-.1-.7 0-1 .3-.5.7-1.6.8-2 .2-.2-.4-1.2-.4-1.2 0 0 .2.3.4.7.6.6.1.7.4.5 1-.4 1.7 2.3 1.2 2.9-.5.3-.9.7-1 1-.2.7 2-.4 11.7-1.6 14.3a23 23 0 0 1-7.5 7.6 52 52 0 0 1-33.2 8.1zm9.5-11.3c1.1-.2 1.4-.5 1.8-1.5 1.1-2.6-.6-4.2-3.3-3-1 .4-1.1.5-.8 1 .4.4.3.5-.3.9-.4.2-.7.2-.7 0s-.6-.5-1.4-.8c-1.3-.4-2-1-1.1-1 .2 0 .3-.4.3-1 0-.7 0-1 .8-1.1.6-.2.2-.3-1.6-.5s-2.5-.2-2.7.2c-.2.3-.4.3-.8 0-.6-.5-1.6-.3-1.6.3 0 .2.7.3 1.6.3 1.7 0 1.9.3.8 1.3-.4.4-.6.9-.5 1.2.1.4 0 .8-.1.9-1.5.9 1 2.6 3.6 2.6.8 0 1.7.2 2 .4.3.2 1 .3 1.6.2l2.4-.4zM64 220l.2-.8c.3-.7-1.4-2.5-2.1-2.2-.3.1-.8 0-1.1-.3-.3-.3-.7-.5-.8-.4-.6.3-.8-.5-.4-1s.3-.6-.4-.6c-.5 0-1.8 0-3-.2-2-.2-2-.2-2.1.6 0 .5.2 1 1 1.3.5.3 1 .9 1.1 1.2.2.6 2.5 1.8 3.7 1.8.5 0 1.3.5 1.8.9.6.6.9.7 1.5.4.3-.2.6-.5.6-.7zm-6.4-4.1h.7c.1.1 0 .2-.5.2-.4 0-.4 0-.2-.2zm31.7 4.5c3.6-.6 5.3-2.3 2.4-2.3-.8 0-1.6-.2-1.8-.3-.2-.1-.9-.2-1.5 0-.6 0-1 0-.9-.3.1-.2.5-.3.8-.3.5 0 .5 0 .1-.3-.6-.4-1.9 0-2 .6-.2.3 0 .4.2.3.2-.2.4-.1.4 0 0 .5-1.7 1.3-2 1-.7-.4-.9 1-.2 1.7.4.5.8.6 1.6.4l3-.5zm-4.3-3.2c.3-.4-1-1.2-1.6-.9l-.3.7c0 .6 1.6.8 2 .2zm6.1-3.5c1.2-.1-.6-2.1-1.9-2.1-.6 0-.7.1-.6.7.3.9-.4.9-.9 0-.3-.6-.2-.7.6-1 .6 0 .8-.3.5-.5-.4-.4-2.3.3-2 .8.1.2-.1.3-.5.3-.9 0-1 .6-.2 1.4.5.6 2.7.7 5 .4zm10-.3c1-.3 1.8-.8 1.8-1 0-.2.3-.4.7-.5.7-.2.8-.4.7-1.4-.2-1.8-.6-2.5-2.4-3.2a28 28 0 0 0-9.8-1c-1 1 3.1 2 5.4 1.4.5-.1 1.5 0 2.2.1.9.3 1.2.3 1.3 0 0-.3.3-.5.5-.5s.2.2.1.4.1.5.5.6c1.3.3 1.4 2.5.2 2.5-.3 0-.5.2-.5.4s.2.4.4.4.3 0 .2.2c-.1.1-.7-.2-1.2-.6-.8-.9-.9-.9-1.4-.2-.3.5-1 .7-2 .7-1.2 0-1.5.2-1.6.8 0 .4.2.8.7 1 1.1.6 2 .6 4.1-.1zm-24.8-.5c1.3-1-2.1-2.7-5.5-2.7l-2.6-.2c-.6-.2-1-.2-1 .1 0 .2-.2.4-.5.4-.7 0-.7.5 0 1 .3.3 1 .4 1.6.3.8-.2 1-.1.8.2-.1.2 0 .3.3.2.3-.1.7 0 1 .4.1.4.7.7 1.1.8 1.4.2 4.3-.1 4.8-.5zm8.9.4s0-.2-.3-.4l-.3-.8c.1-.7-2-.6-2.7 0-.6.6-.6.7 0 1.1.5.4 1.7.4 3.3.1zm-21-4.4c.3-.3 1.5-.8 2.6-1.1 1.1-.3 2.3-1 2.6-1.3a3 3 0 0 1 1.3-.6c.4 0 .9-.2 1.1-.5.4-.5.3-.5-.1-.5l-5-.4c-2.6-.3-4.6-.3-4.8-.1-.3.2 1.4 5 1.7 5l.7-.5zm22.2-2.2c1-.5 1-.6.4-.8-.4-.2-2.1-.3-3.9-.3-2.8 0-3 0-1.7.4.9.2 1.5.4 1.5.6 0 .3.8.6 2 .7.3 0 1-.2 1.7-.6zm-7.4-1.1c.2-.2-.2-.4-.8-.4-.7 0-1 .2-1 .4.2.2.6.3 1 .3.3 0 .7-.1.8-.3zm-6.8-3.1c-.7-1.9-1.9-3.6-2.3-3.6-.3 0-.7.3-1 .7-.3.5-.7.7-1 .5-.5-.3.6-1.6 1.5-1.6.4 0 .6-.2.4-.6-.4-1-.8-1.2-4.8-1.2-3.5 0-4 .1-4.7.8-.5.4-.8 1-.8 1.3 0 .7 1.4 3.7 1.8 4l5.8.3c5 0 5.4 0 5.1-.6zm-9.2.1c0-.3 2.8-2.1 3-2 .3.4-1.1 1.7-2 2h-1zm12.2-.8c.1-.3.6-.7 1.2-1 .7-.4.7-.5.2-.5-.3 0-.9.1-1.3.3-.3.2-.7.2-.8 0-.5-.7 5.1-2.6 6.8-2.2.5 0 1.1 0 1.2-.2.2-.2-.9-.4-2.8-.6-1.7 0-4.3-.2-5.7-.4-3-.2-3 0-1.6 2.3 1.6 2.8 2.4 3.5 2.8 2.3zm2.4.4c.8-.3.7-.8-.1-1-.7-.1-1.5.3-1.5.9 0 .3.8.4 1.6 0zm20.7-.1c0-.1-.3-.3-.7-.3-.4 0-.6.2-.5.3.2.4 1.2.4 1.2 0zm5.6-2.2c0-.2-.7-.3-1.5-.3-1 0-1.3 0-1 .3.7.5 2.5.5 2.5 0zm2.4.2c-.1-.2-.4-.2-.7 0-.3 0-.2.1.2.1s.6 0 .5-.1zM89.4 199c.5-.3 1.4-.4 2-.3.8.1 1 .1.3-.2-.8-.3-5.4-.5-5.4-.1l.6.8c.6.6 1 .6 2.5-.2zm5.3-.4-.5-.1c-.3 0-.5.2-.5.3 0 .2.2.3.5.2.3-.1.5-.3.5-.4zM80.1 196c.3-.2-.7-2.4-1.5-3.3-.6-.7-1.1-.8-3-.8-2.3 0-5.7.8-6 1.4-.2.2 0 1 .5 1.8l.7 1.5 4.6-.2c2.5-.1 4.6-.3 4.7-.4zm-11.9-1.7c-.5-.3-1.7 0-3.4.7l-1.3.6 2.5.2c2.2.1 2.5 0 2.6-.5 0-.4-.1-.8-.4-1zm14.7-.6a7 7 0 0 1 2.2-.7c2-.5 2-.5 1-.8a18 18 0 0 0-5.8 0l.7 1c.8.8 1.6 1 1.9.5zm14.8-.3a2 2 0 0 0-1.1 0c-.3.1-.1.2.4.2.6 0 .9 0 .7-.2zm-13.5-2.6c-.4-.1-.7-.5-.7-.7 0-.3-3.1-.5-4-.1-.3.1-.5.4-.4.7.1.4.9.5 3 .5s2.7-.1 2.1-.4zm2.6-1c.5-.2.5-.3.2-.5-.5-.3-1.8 0-1.8.5 0 .4.6.4 1.6 0z" style="fill:#904829;stroke-width:.352778" transform="translate(-44.5 -173.2)"/>
  <path d="M68.8 233.7c-5.2-.7-9.2-2.7-11.4-5.4a24 24 0 0 1-4.5-11.7l-.2-2 1 1.4c1.6 2 6.3 5 6.6 4 0-.2.5 0 1.1.4a7 7 0 0 0 2.5 1l1.5.2-.4-1.5c-.2-.9-.5-1.7-.7-2l-.6-1.7-.4-1.5-3.4-.2c-5.6-.4-7-.7-7-1.4-.2-.7 0-.7 4.8-.4l5 .2-.3-1.2c0-.6-.5-1.7-.8-2.4a11 11 0 0 1-1-3.2 6.2 6.2 0 0 0-1-2.4c-.2-.2-1.9-.4-3.8-.4-3-.1-3.3-.2-3-.7.3-.5.5-.6 1.2-.3.5.2 1.7.3 2.7.3h1.7l-.2-2.4c-.2-2.3-.2-2.5.6-2.9.7-.4.8-.4.6 1-.1.9 0 1.6.1 1.7.2.1.6.8.9 1.6l.5 1.3 2.6.2 5.8.2c3.8 0 3.8 0 2-3.4-2-3.6-1.7-3.5-6.8-3.3-4.1 0-4.4 0-3.6-.5.7-.4 1.7-.4 4.5-.3 3.4.2 3.6.1 3.6-.5 0-.4-.4-1-.9-1.4l-.8-.7.8-.4c1.1-.5 1.3-.5 1 0-.2.3.8 2.5 1.4 3.1.6.4 10 .7 10.4.3.2-.3-1.1-2.7-2-3.8-.8-.8-1-.9-4.4-.8-3.3 0-3.5 0-2.3-.4a8 8 0 0 1 3-.3c2 .2 2 .2 1.8-.6 0-.8.2-1 2.7-1.7 3.6-1 8-1.4 10.4-.8 4.6 1.3 14.4 6.8 14.6 8.3 0 .5.3.7.8.6.3 0 1.2.4 2 1.2 1.4 1.4 2.5 3 1.7 2.5-.8-.6-8.4-1.5-8.7-1.2-.4.5 1 1.7 2.3 1.9 1.9.3 2 .5.8 1l-1.1.5 1.3 1.5c1.2 1.2 1.7 1.4 3.5 1.7 2.4.3 3.3.1 3.4-.6l.3 1.3c.3 2-.4 7.8-1.1 10.2-2 6.4-13.6 13.5-26.4 16.2a47 47 0 0 1-14.7.6zM80.3 222l1.3-.6-.7-1.6c-.4-.9-1-2-1.6-2.4-.6-.6-.7-.8-.3-.8.4 0 .5-.2.4-.4-.2-.2-1-.3-2.4-.1-1.3.1-2 .1-1.9-.1.3-.4-2.5-.8-6-.8-2.8 0-3.2.3-1.8 1.7.6.7.6.9.2 1.1-.3.3-.3.4.2.6.4.1.5.4.4 1-.4 1.5.4 2.6 2 2.7.6 0 1.8.1 2.6.3 2 .4 6.2.2 7.6-.6zm9.1-1.2c2.3-.4 5-1.7 5-2.5 0-.2-.4-.8-1-1.3-.9-.8-1.1-.9-6.1-1-3 0-5.3 0-5.3.2 0 .3 1.3 2.2 1.5 2.2.2 0 .3.3.3.7 0 2.1 1 2.4 5.6 1.7zm1.6-6.7c1.2-.4 1.2-.9-.2-2-.9-1-1.2-1.5-1.3-2.7 0-.3-1.2-.3-1.7 0-.4.5-3.8 1.8-5.1 2-1.2.3-2 1.5-1.4 2.1.2.2 2 .4 3.8.5 1.9 0 3.5.2 3.6.3.3.3 1.3.2 2.3-.2zm12 0c.2-.2.7-.3 1.2-.3 2 0 2.3-1.3 1-3.8-1.4-2.6-2.6-3.2-8-3.7-2.4-.2-4.7-.3-5-.2-.6.2-.6.3-.1 1.3.3.7.8 1 1.3 1 .6 0 .7.2.4.5-.8.7-.5 1.2.9 1.5 1.2.4 1.3.4 1.2 1.7-.1.7 0 1.4.3 1.5 1.2.8 6.4 1.1 6.8.5zm-4.8-4.5c-.3-.4-.5-.8-.3-1 .2-.4.4-.2.7.4.5 1.2.4 1.3-.4.6zm-21.3 3.2c-.2-1.1-2-2.8-3.3-3a6 6 0 0 0-2 0c-.5.1-.9 0-.8-.1.3-.5-2.6-.5-3.5 0-1 .4-1.4 0-.8-.7.3-.3.8-.4 1.7-.3 1 .2 1.2.1 1-.2-.3-.4-.2-.4.3-.3.5.2.6.1.5-.5-.1-.6.2-1 1.2-1.5.7-.3 1.3-.7 1.3-.9a37 37 0 0 0-11-.9c-.2.6 1.8 5.3 2.4 5.6.3.2.5.6.5 1 0 .5.2.7.6.5.3-.1.8 0 1 .4.6.5.6.5 0 .3-1-.2-1.5.4-1 1 .3.2.6.1 1.1-.2.6-.3.9-.4 1 0 .4.5 1.8.6 6.4.7h3.7zm4.3-2.1c1 .2 2.2-.7 1.5-1.2-.4-.2-.3-.3.2-.3.3 0 1-.3 1.6-.7a10 10 0 0 1 2.1-1.1c1.3-.5 1.4-1.2.3-1.5l-6-.5-5.4-.2.6.8c.5.7.9.9 2.2.9 1 0 1.8.2 2 .5.1.3.6.4 1 .3.4-.1.8 0 1 .1 0 .2-.2.3-.5.3-.4 0-1.1.3-1.6.7-.5.4-1.1.7-1.3.7-.3 0 0 .5.4 1.2.7 1 .8 1 1 .5 0-.5.3-.6 1-.5zm27.2-1c.3-.3.9-.5 1.2-.4.4.1.8 0 1-.5.5-.8.5-1.4 0-.6-.5.8-1.3.8-1.6.1-.2-.6-2.9-1.4-3.3-1 0 0 0 .3.2.4.2.1.6.8 1 1.4.6 1.3.7 1.3 1.5.6zm-36.7-1c-.1-.2-.4-.2-.7-.1-.2.1-.2.2.3.2.3 0 .5 0 .4-.2zm-.2-1.1c0-.3-.2-.5-.4-.5s-.3.2-.3.5.1.5.3.5c.2 0 .4-.2.4-.5zm2.7 0s0-.5-.3-.9c-.7-1.3-2.6-.7-2.2.7.2.7.4.8 1.3.6l1.2-.4zm25.7-2.9c.3-.8-1-3-2-3.4-1.2-.4-2.7 0-3 .7 0 .3.1.6.6.8.8.3.8.3 0 .5l-1.4.4c-.2 0-.4.1-.4.3v.6c0 .3.4.4 1.1.3h1.9c1.2.6 3 .4 3.2-.2zm-17.2-1.1c0-.2.4-.5 1-.7 1-.5 1.1-1.1.2-1.1-.4 0-.5-.2-.3-1 .2-.7.1-.8-.6-.8-1 0-2 1-1.8 1.9 0 .3 0 .6-.2.6s-.4.1-.4.3c0 .3.3.3.8 0 .7-.3.7-.3.4 0a4 4 0 0 1-1.6.7c-1 .3-1 .3.7.4 1 0 1.8-.1 1.8-.3zm-3.9-1.9c.9-.5 1.4-1 1.2-1-.2 0-.3-.2-.2-.5.1-.3 0-.5-.2-.5s-.4-.3-.4-.6c0-.5.3-.6 1.8-.4 1.6.3 1.7.2 1.7-.4 0-.7-.2-.8-2.9-.8-1.6 0-4.2 0-5.8-.2-3.5-.3-3.4-.5-1 3.4l1.6 2.5 1.3-.2c.8-.2 2-.7 3-1.3zm-1.8-2 .7.1c.1.1 0 .2-.5.2-.4 0-.4-.1-.2-.2zm14.4 2.8c-.1-.2.3-.4 1-.5 2.2-.5 2.4-.6 2.3-1.6-.1-.7 0-1 1-1.1 1-.2 1-.2.1-.5-1.8-.4-9.3-.9-9.6-.6-.2.2-.1.8.3 1.5.8 1.3 1.6 1.4 2.6.3.3-.5.7-.6 1-.4.6.4.2 1.1-.5 1.1-.3 0-.5 0-.5.2 0 .3 2 2.2 2.2 2 .2 0 .2-.2 0-.4zm-.5-2 .5-.3c.3 0 .5 0 .3.2-.2.3-.8.5-.8.2zm-9.4-.1c.1-.2 0-.4-.1-.4-.2 0-.5.2-.6.4-.1.2 0 .3.1.3.2 0 .5-.1.6-.3zm11.3-3.5c0-.2-.1-.3-.5-.2-.9.3-1 .5-.2.5.3 0 .6-.2.7-.3zm10.8-1c-.3-.2-.6-.5-.8-.5-.4 0 .5 1 .9 1 .2 0 .1-.2-.1-.4zm-10-.3s0-.2-.3-.3c-.2-.2-.3-.1-.3.1s.1.4.3.4c.2 0 .4 0 .4-.2zm-7.6-2.2c.7-.6 3.5-.4 3.7.2.2.4 2.3 0 2.3-.5s-2.1-.8-7.4-1c-4.7-.3-4.8-.3-4.4.4.2.4 1 1.1 1.5 1.6 1.1.9 1.2.9 2.4.3l1.9-1zm15.6 1c.7-.3.7-.3-.2-.5a43 43 0 0 0-6.6-.8c-.4.5.5 1 2 1 .9 0 2.1.1 2.7.3 1.4.3 1.3.3 2.1 0zM88.8 191c-.3-.4-.3-.6 0-.7.2 0 .3-.4.2-.7-.3-.7-2.4-1-3.8-.6-.6.2-1.9.3-2.9.2-2-.2-3.5.2-3.4 1.1.1.5.7.6 3.5.8 6.6.4 6.8.4 6.4-.1z" style="fill:#7b4126;stroke-width:.352778" transform="translate(-44.5 -173.2)"/>
  <path d="M70.1 233.9c-7.6-.8-12-3.5-14.8-9.1-1-2.1-1.4-3.4-1.7-6l-.4-3.3 1.1 1.2c.6.6 1 1.2 1 1.3 0 .1 2 1.4 2.8 1.6l.7.5c0 .4 1.1.3 1.4-.1.1-.2.7 0 1.3.4a7 7 0 0 0 2.7 1c1.2.1 1.6 0 1.3-.1a3 3 0 0 1-.5-1.6c0-.6-.3-1.3-.5-1.5-.3-.2-.6-1-.7-1.9-.2-1.8-.2-1.7-5.6-2-5-.2-4.9-.2-5.2-.7-.5-.8-.1-1 3.2-.7 6.3.4 6.7.4 6.6 0l-.2-.7a.5.5 0 0 1 0-.7c0-.3 0-.6-.3-.7-.2-.1-.3-.4-.2-.6.1-.2 0-.3-.1-.3-.2 0-.3-.3-.2-.6.2-.4.1-.5-.1-.3-.5.2-1.3-2.4-1-3.1l.2.5v.8l.3-.8c.2-.9.3-.9.7.4.3.7.6 1.3.8 1.3.1 0 .2.2.1.5 0 .2.2.7.7 1 .5.4.9 1 .9 1.4 0 .5.2.7.6.5.3-.1.8 0 1 .4.6.5.6.5 0 .3-1-.3-1.8.3-1.1.8.4.4.7.4 1.2 0 .7-.4.8-.4 1 0 .3.4 1.7.6 5.3.7l4.8.2-.2-1c-.3-1.2-2.1-2.9-3.4-3.1a6 6 0 0 0-2 0c-.5.1-.9 0-.8-.1.3-.5-2.6-.5-3.5 0-1 .4-1.4 0-.8-.7.3-.3.8-.4 1.7-.3 1 .2 1.2.1 1-.2-.3-.4-.2-.4.3-.3.5.2.6.1.5-.5-.1-.6 0-1 1-1.4.6-.3 1.2-.4 1.2-.3 0 .2-.2.4-.4.4s-.2.5-.1 1c.2.7.4.8 1.3.6l1.2-.4c.3-.3-.7-1.6-1.3-1.6-.5 0-.5 0 0-.3.9-.6.8-.6-5.7-1.3-1 0-2.7-.3-3.7-.5l-1.7-.3h2.4c1.4 0 3-.2 3.5-.3.5 0 1.3 0 1.6.2.4.3 1.3.3 2 .2 1.3-.3 1.6-1 .7-2.2-.3-.4-.4-.8-.3-1l-.2-.1c-.2 0-.3-.3-.2-.5.1-.3 0-.6-.4-.7-.3-.2-.5-.5-.4-.8.2-.3.1-.5 0-.4-.2.2-.6-.2-.8-.8-.4-1-.5-1-1.5-.7-1.4.4-1.3.4-1.3 0l1-.3c.4 0 1-.3 1.2-.5.2-.4.2-.3.2 0s.2.4.4.3c.6-.4 1.6.6 1.7 1.7 0 .6.2 1.1.3 1.2.2.1 1 1.2 1.6 2.3 1.3 2 1.4 2 2.6 1.8 1.3-.3 5-2.3 4.1-2.3-.2 0-.3-.2-.2-.5.1-.3 0-.5-.2-.5s-.4-.3-.4-.6c0-.5.3-.6 1.7-.4 1.4.2 1.8.2 2-.3.3-.7 0-.8-5.6-1a48 48 0 0 1-5-.4c-.4-.3 2.2-.5 5.4-.4 1.8 0 3.3 0 3.3-.2l-.6-1.3c-.3-.6-.4-1-.3-1 .2 0-.1-.5-.7-1-.5-.5-.8-.9-.6-.9.7 0-1-.6-1.7-.7-.5 0-.7 0-.4-.2.2 0 .4-.6.4-1 0-.7.2-.9.6-.8.4 0 .9 0 1.2-.2.6-.5 5.6-.5 5.9 0 0 .1-.8.2-2 0-2.7-.2-4 .2-4 1.2 0 .8.1.8 2.8.7 2.7 0 6.5.4 6.2.7 0 .2-.5.3-1 .2-2-.4-6-.5-6.5-.2s-.3.6 1 1.8l1.5 1.3 1.3-.5 1.9-1.1c.7-.6 3.5-.4 3.7.2.2.4 2.3 0 2.5-.5.1-.4-1.4-.8-3-.9-.8 0-.9 0-.5-.3.4-.2.5-.4.2-.7-.4-.4-.3-.6 0-1 .4-.3.5-.6.2-.9-.4-.4-3.2-1-3.2-.5 0 .1-.1.3-.4.3-.2 0-.2-.2-.1-.4s-.5-.3-1.5-.4c-1.5 0-1.6 0-.6-.3a16 16 0 0 1 6.9.2c.8.3 1.3.5 1 .5-.3 0-.3.2.2.7.4.3 1 .6 1.2.5.3-.2.4 0 .3.6 0 .6 0 .8.4.7l1.6-.4c1-.2.7-.4-.7-.3-.6 0-.6 0-.2-.3.5-.3.5-.4 0-.4-.2 0-.3-.1-.2-.2.2-.3 6.8 3.1 7.5 3.8.2.2-.1.3-1.2.1-3.7-.5-5.7-.6-5.7-.3 0 .6.6 1 2 1 1.6.2 3 .9 2.7 1.3-.2.3.2.3 1 .1a221.4 221.4 0 0 1 2.3-.6c.6-.4 2.2.4 2.3 1.3 0 .5.3.7.7.6.6 0 2 1 3.6 3.1.6.7.6.8.1.4-.3-.3-.7-.4-.8-.3-.2.2-.4.1-.6 0-.6-.5-7.7-1-7.7-.5 0 .4 1.5 1.7 2.1 1.8l2.5.3c.1 0-.3.3-1 .6s-1 .7-.9 1c.1.3.4.5.5.4.4-.2 1.6 1.7 1.5 2.2-.1.4.5.5 2.9.4 2.8 0 3-.1 3-.8 0-.6.1-.6.3-.1 0 .3 0 .9-.3 1.3-.4.8-1.4 1-3.7.3-.9-.2-1.7-.3-1.8-.2-.1.1.3.8.9 1.6.6.7 1 1.5 1 1.7 0 .2.3.6.6.8.4.4.5.4.5 0 0-.1-.1-.3-.4-.3-.2 0 0-.3.4-.7 1-.9 2-1 1.7-.1-.2.4.1.2.6-.4l1-1-.3 1-.6 4.3c-.7 4-1.5 5.6-4.3 8.4-7.8 7.7-24 13-36 11.8zM80.3 222l1.3-.7-.7-1.6c-.4-.9-1-2-1.6-2.4-.6-.6-.7-.8-.3-.8.3 0 .6-.2.6-.4 0-.3-.6-.3-1.6-.2l-1.8-.1c-.4-.4-9-1.1-9.4-.9-.4.3 0 3.1.5 3.3.1 0 .2.3 0 .4 0 .2.1.3.4.1.6-.2.8.4.2.8-.5.3-.4 1.2.4 2 .5.4 1.2.6 2.2.6 1 0 1.3.2 1 .3-.2.2 1.3.3 3.5.3 3.1 0 4.3-.2 5.3-.7zm7.6-.9c.2-.2 1.1-.4 2-.5 2.1-.2 3-.5 3-1 0-.1.3-.3.6-.3 1 0 1-1.4-.3-2.6-1.1-1.2-2-1.6-2-1 0 .3-1.9.3-4.8.2-4.6-.2-4.8-.1-4.4.5l1 1.4c.5.4.8 1 .8 1.4 0 1.1.8 1.8 2.1 2l1.5.2.5-.3zm6.6-4.4c-.6-1-.7-1-1-.5-.2.3-.2.4 0 .2.2-.1.5 0 .8.4.7 1 1 1 .2-.1zm6 .5s.2-.2.2-.5c0-.4-.3-.6-1-.6s-1 .2-1 .5c0 .7.3 1 .9.8l.8-.2zm4.7-3c.9-.7 1.1-1.1 1-2 0-.5-.1-1-.3-1-.1 0-.2-.1 0-.3l-.1-.5c-.2 0-.6-.7-1-1.4-.3-.8-.7-1.3-.9-1.2-.1.2-.4 0-.6-.3-.4-.8-2.4-1.1-7.6-1.4-2.9-.2-4.1-.2-4.1.1 0 .6.8 2.2 1.1 2.2.2 0 .2.2 0 .4-.1.4 0 .4.3 0 .6-.5 1.3-.6.8 0-.8.7-.5 1.2.9 1.5 1.2.4 1.3.4 1.2 1.7-.1 1 0 1.3.7 1.7 1 .6 6.1.9 6.4.4.1-.3.5-.4.8-.4.4 0 .5 0 .3.2-.4.3-.6 1.2-.3 1.2a6 6 0 0 0 1.4-1zm-7-4.8c-.6-.6-.7-.7-.2-.7.3 0 .6.3.8.6.3.8.1.9-.7 0zm-10.5 4.7c2.8.4 4.2 0 4.1-1.1 0-.4-.2-.7-.3-.7-.7 0-2-1.8-1.9-2.5.1-.5 0-.7-.6-.7-.5 0-1 .1-1.2.3-.4.4-3.8 1.7-5.1 2-1.1.2-2 1.4-1.4 2 .2.2 1 .4 1.8.5.8 0 1.6.2 1.7.3.1.1.3 0 .4-.2.1-.2 1-.2 2.5 0zm-6.5-3.5c1 .2 2.2-.7 1.5-1.2-.4-.2-.3-.3.2-.3.3 0 1-.3 1.6-.7.5-.4 1-.6 1.2-.5.1.1.2 0 .2-.2 0-.3.4-.4 1.3-.2 1.2.2 1.5-.2.9-1.2a35 35 0 0 0-12.3-1c-.4.4 1.2 1.7 2.1 1.8 1 0 1.2.2.5.9-.3.3-.2.4.5.3 1-.1 1.4.5.4 1-.6.3-.7.5-.4.8.3.2.3.4.1.4-.1 0 0 .2.4.5.6.4.7.4.8 0 .1-.4.4-.5 1-.4zm-.6-2.6c0-.2.2-.3.4-.3s.3.1.2.3l-.4.4-.2-.4zm-8.9.5H71c-.2.1-.2.2.3.2.3 0 .5 0 .4-.2zm-10.2-.9c-.1-.3-.2-.2-.2.2s0 .6.1.5c.2-.1.2-.4 0-.7zm10-.1c0-.3-.2-.5-.4-.5s-.3.2-.3.5.1.5.3.5c.2 0 .4-.2.4-.5zm28.4-2.9c.1-.3 0-1-.4-1.6a4 4 0 0 1-.6-1.3c.2-.2-1.6-1-2.1-1-.3 0-.7.2-1 .4-.2.2-.4 0-.4-.2 0-.4 0-.4-.3 0-.2.4-.3.3-.5-.3-.2-1 0-1.4.6-1.4.3 0 .2.2-.1.4-.3.1-.4.3-.2.3.6 0 1.8-1 1.6-1.2-.2-.2-1.6-.3-7.3-.7-3.1-.3-3.3-.2-3.3.4 0 1 1.3 2.6 2 2.3.4-.1.8-.4 1-.6 0-.2.2-.1.2.2 0 .3.5 1.1 1 1.7 1 1 1.3 1.1 1.2.3 0-.4 1.7-.6 2.4-.3.5.3.6.3.5-.1-.2-.4 0-.5.3-.4.3.2.5.4.4.6-.1.1.2.4.6.6l.8.3-.9.2-1.3.4c-.2 0-.4.1-.4.3v.6c0 .3.4.4 1.1.3h1.9c1.2.6 3 .4 3.2-.2zm-17.2-1.1c0-.2.4-.5 1-.7 1-.5 1.1-1.1.2-1.1-.4 0-.5-.2-.3-1 .2-.7.1-.8-.6-.8-1 0-2 1-1.8 1.9 0 .3 0 .6-.2.6s-.4.1-.4.3c0 .3.3.3.8 0 .7-.3.7-.3.4 0a4 4 0 0 1-1.6.7c-1 .3-1 .3.7.4 1 0 1.8-.1 1.8-.3zm-1.2-3.2c.1-.2 0-.4-.1-.4-.2 0-.5.2-.6.4-.1.2 0 .3.1.3.2 0 .5-.1.6-.3zm11.3-3.5c0-.2-.1-.3-.5-.2-.9.3-1 .5-.2.5.3 0 .6-.2.7-.3zm10.8-1c-.3-.2-.6-.5-.8-.5-.4 0 .5 1 .9 1 .2 0 .1-.2-.1-.4zm-10.3-.9-1-.9c-.3 0-.3 0 0 .3.4.2.7.6.7.9 0 .2.2.5.4.5s.2-.3-.1-.8zm3.7-3c.6-.3.6-.4.1-.5-.3-.2-.7 0-1 .2-.4.6-.2.7 1 .2zm12 16.5c0-.2.2-.2.6-.1.8.2.9.4.2.4-.3 0-.6-.1-.8-.3zm-48.5-4.2c0-.6-1.4-.9-4.5-1-1.6 0-3-.1-3.1-.2-.3-.3.5-.3 3.5-.3 2 0 2 0 2-1v-1l.5 1c.2.6.6 1 1 1s.5-.1.4-.5c-.2-.4-.3-.5-.5-.1-.4.6-1.6-3.4-1.2-4.2.2-.5.3 0 .5 1.4.3 2 .7 3.1.7 1.8 0-.5.2-.4.5.4.3.6.4 1.2.4 1.3-.1.1 0 .3.3.4.3.1.5.4.4.8-.3.5-.9.7-.9.2zm16.5-4.5h.7c.1.1 0 .2-.5.2-.4 0-.4-.1-.2-.2zm-16-3.2c.3-.2 1-.4 1.5-.4 1.4 0 1.1.2-.6.5-1 .2-1.3.2-1-.1zm4.1-.6h.7c.1.1 0 .2-.4.2-.5 0-.5-.1-.3-.2zm34.3-1.2c-.4-.3-.4-.3.3-.3.4 0 .8.1 1 .3.2.5-.6.5-1.3 0zm-30.8-.5c-.3-.2-.6-.6-.6-.8 0-.2.3-.4.6-.5.5-.1.7 0 .7.8v1l-.7-.5zm3.6-2.7c.4-.5 2.2-.6 2.1-.2 0 .2-.6.4-1.2.4-.7 0-1 0-1-.2zm20-2.4c0-.2.1-.2.5-.1.8.2 1 .4.2.4-.3 0-.6-.1-.7-.3z" style="fill:#813e22;stroke-width:.352778" transform="translate(-44.5 -173.2)"/>
  <path d="M70.1 233.9c-7.8-.8-12-3.5-14.9-9.3-1-2.2-1.4-3.5-1.6-5.5l-.2-2.7 1 1 1.3 1a27.3 27.3 0 0 0 9.7 3.9c.7 0 .7 0 0-1.8l-.5-1.8c.1 0-.1-.5-.5-1.1-.4-.7-.7-1.5-.7-2 0-.9-.6-1.1-3.3-1.1-4.4 0-8.3-.9-7.6-1.6.1-.1 2.4 0 5 .2l5 .2a14 14 0 0 0-.7-3.4c-1-3.6-1-5.5 0-2.7l1.2 2.5c.4.4.8 1.4 1 2.2l.5 1.4 2.7.2c3.2.3 10 .3 10 0l-.6-1.2a6.2 6.2 0 0 0-3.1-3l-1-.4.8-.5c1-.8.7-2.4-.5-2.4-.6 0-.7 0-.2-.3.2-.2.4-.4.3-.6l-5.5-.7-5.6-.7h5c3 0 5.5 0 5.6-.2.2-.3-.3-1.6-1.7-4.5l-1-1.7c-.7-.7-.7-.9-.3-1.3.3-.3.5-.3.6 0 0 .3.3.5.6.5.2 0 .4.4.4 1 0 .5.8 2.1 1.7 3.5 1.5 2.3 1.8 2.5 2.9 2.5.6 0 1.3-.2 1.6-.5a4 4 0 0 1 1.6-1c1.5-.7 1.5-.7 1.5-.2 0 .2-.5.7-1.2 1-.7.5-1.2 1-1.2 1.1 0 .5 4 .4 5 0 .5-.2 1.1-.7 1.3-1.1.4-.7.3-.9-.1-1.2-.4-.3-.6-.8-.5-1.1 0-.6-.2-.7-1.5-.8-2.1-.1-2.7-.7-.8-.7 1.3 0 1.5-.2 1.4-.7 0-.5-.7-.6-4.7-.8L73 197c-.8-.1 6.7-.4 7.6-.3.8.1.8-.6.1-1.9-1-2-2.3-3.3-3.4-3.4h-1l.9-.3c.6-.1.7-.3.4-.5-.6-.4-.5-1.3.1-1.3.3 0 .8.4 1 1 .2.4.8 1 1.2 1 .7.2.8.3.4.5-.3.2 0 .9 1.5 2.4 2.4 2.6 2.5 2.6 4.6 2.4 1 0 1.9 0 2 .2 0 .2 1.3.3 2.7.3 2.4 0 2.7 0 2.9-.7.1-.6 0-1-.7-1.7-.5-.6-1-1.3-1-1.6 0-.4-.4-.6-1.6-.8-2.2-.3-2.6-.4-1.4-.5 1.1 0 1.1 0 .4-1.5-.3-.8-.8-1.4-1.3-1.5a26 26 0 0 0-4.5-.5c-1.5-.1-1.5-.1-.5-.4a16 16 0 0 1 6.9.2c.8.3 1.3.5 1 .5-.4 0-.4.1 0 .5.3.2.9.8 1.2 1.4.5.7.8.9 1.3.6.4-.2 1-.4 1.5-.4.7 0 .6 0-.5-.7-.6-.3-1-.6-.9-.7.4 0 7 3.5 7.5 4 .2.2-.1.3-1.2.1-3.8-.5-5.7-.6-5.7-.3 0 .6 1 1 2.4 1.1 1.4.1 2.8 1 2 1.2-.2.1-.6 0-.8-.1-.4-.4-1.1-.2-1.1.3 0 .2.3.5.8.7.7.3 1 .3 1.4 0 .3-.4.9-.7 1.4-.8.7-.2 1 0 1.1.5.1.4.6.8 1 .9.6.1 1 .4 1 .7 0 .3.6.5 2 .7 2.1.2 2.4.4 3.2 1.3.4.6.4.6-.6.3a27 27 0 0 0-8.2-.4c0 .5 1.6 1.8 2.3 1.8l1.2.3c.4.3.3.4-.2.6-.9.3-1 1-.3 1.5l1.1 1.4.7 1.2h2.9c1.8 0 3 .1 3 .3 0 .7-1.2.8-3.4.4a7 7 0 0 0-2.2-.2c-.1 0 .3.7.9 1.5.6.7 1 1.5 1 1.7 0 .2.3.6.6.9.4.3.5.5.1 1l1.6-1.4c1.7-1.8 2-2 1.8-1.1l-.6 4.2c-.7 4-1.5 5.6-4.3 8.4-7.8 7.7-24 13-36 11.8zm12.8-2c.1-.2.4-.3.5-.3.7 0 1.8-.6 1.8-1s-1-.3-1.2.1c-.2.3-.8.3-1.5.2-.6-.1-1.2-.2-1.2 0 0 0 0 .4-.2.7-.1.4 0 .5.7.5l1-.2zm-3.3-1.2c0-.2-.3-.3-.6-.3-.5 0-.7.4-.3.8.3.2.9 0 .9-.5zm3-1.5c.2-.8-1-1-1.9-.3-1.1.7-1 1 .5.9 1 0 1.4-.2 1.5-.6zm5.1 0c.8-.3 1-1.3.2-1.3-1 0-1.6.4-1.6 1 0 .8.4 1 1.4.4zm-8.5-2c.5-.4 1.4-.7 2-.7 1.2 0 3-.7 3-1.1 0-.4-6-.4-7 0s-1 1.6 0 2c1 .6 1 .6 2-.2zm1.3-4.8c1.6-.5 1.6-.7.1-3.5-.6-1.2-1-2.3-1-2.5 0-.3-1-.5-2.6-.6l-6-.6c-2-.2-4-.2-4.4-.1-1 .2-1 .9-.3 1.5.3.2.6.7.6 1 0 .4.2 1 .5 1.2.2.3.4.9.3 1.4-.3 1.5 1.1 2.4 3.9 2.5 1.3 0 2.4.2 2.6.4.3.3 4.6-.1 6.3-.7zm9-1.4c3-.6 5.3-2 5.4-3 0-.4-.3-1.1-.8-1.6-.7-.9-1-1-2.4-.7l-5.8.2h-4.3l.7 1c.3.7.8 1.3 1 1.4.3 0 .5.5.5 1 0 1.3 1 2.2 2.2 2.2l3.5-.5zm10.7-3.6c1-.3.6-1.2-.5-1.2-.7 0-1 .2-1 .5 0 .9.5 1.1 1.5.7zm5-3.1c.8-.6 1.2-1.2 1.2-1.8 0-1-2-4.7-2.7-4.7a.7.7 0 0 1-.6-.4c-.3-1-11.5-1.9-11.5-1 0 1 1.8 3.9 2.6 4.2l1 .6c.1 2.1 1 2.9 3.8 3.3 1.2.2 2.9.2 3.6 0 1 0 1.4 0 1.2.3-.4.6.1.4 1.4-.5zm-13.3-.9c0-.8-.2-1.1-.8-1.4-.6-.2-1-.7-1.2-1.6-.3-1.3-.4-1.4-1.3-1.3-2 .1-3.3.5-4 1.2-.3.3-.8.6-1 .6-.8 0 .2-1.3 1.1-1.5.5-.1 1-.5 1-1 .2-.5.4-.5 1-.2.8.6 1.9-.4 1.5-1.4-.2-1-1-1-6.7-1.4-4.2-.3-5.8-.2-5.8.2 0 .7 1.1 1.5 2 1.6 1.3 0 1.4.1.6 1-.5.5-.4.7.5 2.2.8 1.4 1 1.6 1.8 1.4.7-.1.7-.1.4.6-.8 1.5.4 1.8 7.5 2l3.4.1zM78.5 209c0-.4 1.1-.9 1.4-.6 0 .1 0 .4-.3.5-.7.5-1 .5-1 0zm21.9-4c.4-.2.4-.4-.3-1.3l-.8-1.4c0-.6-2.1-1.6-3-1.3-1.2.3-1.5-.5-.5-1.3 1.4-1 1.4-1-6.6-1.5-3-.3-3.3-.2-3.3.3 0 1 1.4 3 2.2 3 .4 0 1 .3 1.3.6.5.5.5.6 0 1-.9.6-.5.8 1 .6 1.6-.3 2.4-.1 2.4.6 0 .4.5.6 2 .8 3.1.3 5 .3 5.6 0zm-7.7-1.6c-.6-.4 0-1 1.2-1.3.6-.2.8-.1.5 0-.3.3-.3.5 0 .7.3.2.3.3 0 .5-.7.4-1.1.4-1.7 0zm7.7-5.7c0-.6-.7-1.2-1-1-.4.3-.4.5.1.8.8.6.9.6.9.2zM97 192c.6-.2.6-.3.1-.4-.3-.2-.7 0-1 .2-.4.6-.2.7 1 .2zm-30.3 17.6c-.1-.2 0-.3.2-.3s.3.1.3.3l-.1.4-.4-.4zm-6.2-5.2c0-.6-1.1-.8-4.6-1.1l-3.3-.3h3.8c4 0 5.3.3 5 1.2-.3.5-.9.7-.9.2zm-1.6-3.7c-.4-1.2-.5-2.2-.3-2.6.2-.5.3-.1.5 1.3l.5 2.6c.2.3.2.6.1.6s-.5-.9-.8-2zm2-4.1c.3-.2 1-.4 1.5-.4 1.4 0 1.1.2-.6.5-1 .2-1.3.2-1-.1zm28.4-.9c.1-.2.5-.6.8-.7.3 0 .8-.3 1.1-.4.3-.1 0 .2-.5.7-1.2 1-1.7 1.2-1.4.4zm-20.8-1.4c-.7-.5-.8-1.2 0-1.2.2 0 .5.3.6.7.3 1 .2 1-.6.5zm18.1-.5c0-.2.4-.4.8-.4s.6.2.5.4c-.2.2-.5.3-.8.3-.2 0-.5-.1-.5-.3zM85 192l-2-.2h2.5c1.6-.1 2.5 0 2.4.2l-.5.3-2.4-.3zm-13-.4c.3-.4 1.5-.6 2-.3.2.2-.1.3-.9.4h-1zm20.1-2.4c0-.2.1-.2.5-.1.8.2 1 .4.2.4-.3 0-.6-.1-.7-.3z" style="fill:#733a22;stroke-width:.352778" transform="translate(-44.5 -173.2)"/>
  <path d="M70.4 233.9c-7.2-.8-11.7-3.1-14.4-7.7-.8-1.4-1-2.5-2-7.7l-.2-1.4.8.8c.5.5 1 .8 1.2.8l1.9 1c.9.6 2 1.2 2.5 1.3.6.1 1 .5 1.2.9.2.7 1.6 1.2 2 .7 0-.2.8-.2 1.7 0 1.7.4 2.1.3 1.3-.5-.3-.3-.6-1.1-.7-1.8-.2-.7-.6-2-1-2.8-.5-.8-1-1.8-1-2.2-.2-.6-.8-.7-5.2-1.1-5.5-.6-5.9-.6-5.5-1.2.1-.2.6-.3 1.3-.1 1.5.3 8 .6 8.6.4.3-.2.3-.7-.2-2.5l-.7-2.4 1 1.2c.5.6 1 1.7 1.2 2.3.3 1.4.9 1.9 2.4 1.9h6c4.3.2 4.9.1 4.9-.4 0-.8-2-3.4-2.9-3.9-.5-.2-.6-.5-.4-.6.5-.3.2-2.7-.3-2.8-.2-.1-.3-.4-.3-.6 0-.5-1.1-.9-2.8-.9-.6 0-1.1-.2-1.1-.4 0-.1.7-.3 1.6-.3 1.8 0 1.8.2 1-3-.2-.9 0-.7 1.3 1 1.4 2 1.6 2 2.6 1.8.6 0 1.2-.4 1.4-.6.4-.6 2.7-1.7 3-1.5 0 0-.6.6-1.3 1l-1.5 1.3c0 .2 1.5.3 3.3.3h3.3l.4-1c.3-1 .3-1.3-.1-1.8a2 2 0 0 1-.5-1.1c0-.3-.3-.7-.7-.8-.4-.1-.6-.5-.6-1 0-.7-.2-.8-2.4-1-2.5-.1-2.5-.7 0-.7.6 0 1.2 0 1.2-.2-.1-1-2.2-4-3.2-4.6-.6-.4-1-.8-.7-.8.3 0 .3-.2-.1-.7-.5-.5-.5-.7-.2-1 .3 0 .5 0 .6.3 0 .2.4.7.8 1 .4.4.7 1 .7 1.2 0 .2 1 1.4 2.2 2.6l2.2 2.2 4.7.4c6.9.5 6.4.6 5.8-.7l-1.4-2c-.4-.5-.8-1.1-.8-1.4 0-.5-.8-.8-2.4-.9-1.2 0-1.2 0 .2-.5.6-.2-.3-2-1.7-3.3l-.9-.8 1 .2c1.2.3 3.3 2 4.2 3.3.3.5.6.7.8.5.1-.2.8-.4 1.4-.4.7 0 1.2-.2 1.3-.3 0-.3.3-.3.7 0 .4.2.4.3 0 .3s-.9.2-1.1.5c-.4.5-.3.6 1.4.5 1.3 0 2.4.2 3.1.6.7.3 1.1.6 1 .7 0 0-1.5 0-3.3-.3-1.8-.2-3.3-.3-3.5-.1-.5.5.7 1.3 2.1 1.3 1.5 0 1.5 0 .7.6-.7.6-.7.6-.1 1.3.9 1.2 3 1.9 4 1.3.5-.4.8-.4 1.3.1.3.3 1 .6 1.4.6 1.3 0 4.2.8 4.7 1.3.3.3.2.4-.6.3a33 33 0 0 0-7.8-.7c-.4.2-.3.5.4 1.5.5.6 1.1 1 1.3 1 .2-.1.7 0 1.1.1.6.2.6.3.1.3-.7 0-.8 1.3-.2 1.6l1.2 2.1c.4 1 1 2 1.4 2.3.6.5 1.3 1.8 1.7 3.1.5 1.4-.3.9-1.5-1-1.6-2.7-2.5-3.3-6-3.8-5-.6-8-.8-8.4-.3-.5.6 1.6 4.2 2.7 4.7l.8.6c-.1.7 1.1 2.4 2 2.7.4.2 2.1.5 3.8.6 1.6.1 2.9.4 2.8.5-.8 1.2 3.8-1.9 6.4-4.4 1.3-1.2 1.4-1 .7 1.2l-.4 1.4-.6 1.5c-.5 1-.5 1.3-.1.8.6-.7.6-.7.3.2l-.7 1.7c-.3.4-.5 1-.5 1.4 0 1-3.8 4.7-6.6 6.5-9 6-21.7 9.3-31.5 8.4zm14-1.9c1-.3 1.4-.7 1.5-1.2 0-.4.2-.8.3-.8l1-.2c.6-.2.8 0 .8.4 0 .3.2.5.5.4l7.2-2.6c.2 0 .6-.4.8-.7.3-.7.2-.7-1.3 0-1 .5-2.1 1-2.7 1-1 .3-1 .3-.7-1l.2-1.3-.8.5c-.5.4-.8.8-.8 1 .2.6-.8 1.4-1.5 1.4-.3 0-.4-.2-.3-.5.2-.5-1-1-1.6-.7-.2.1-.3 0-.2-.3.3-.8-.7-1.1-1.8-.6-.6.3-.8.6-.7 1 .1.2 0 .4-.1.3-.2-.1-.4 0-.6.1 0 .2-.4.4-.6.4-.2 0-.2-.2.1-.5.4-.5.3-.6-.2-.6-.3 0-.4-.1-.3-.4.1-.2.5-.3.9-.2.4.1.7-.1 1-.6.3-.5 1-1 1.5-1.2 1.6-.6 1.2-1.2-.5-1l-6 .6c-3.4.3-4.6.5-5.3 1a3 3 0 0 1-1.4.8c-.7 0-1.4 1.5-1 2 .4.3.4.6 0 1-.3.3-.2.5 0 .7 1 .7 1.7.8 2.1.3.6-.7 1-.6 1.1.3.1.4.6 1 1.2 1.4.9.5 1.6.6 4 .4 1.6 0 3.6-.4 4.3-.6zm-6.8-2c-.3-.5 2.2-3 2.8-2.7.9.3.6 1.2-.7 2.1-1.6 1-1.7 1.1-2 .6zm-1.7-1c-.1-.6 0-.8.5-.8.6 0 .7.1.3.7l-.5.7-.3-.7zm-8.4 2c0-.3-.4-.5-.7-.6-.5 0-.6 0-.4.5.2.6 1.3.7 1 0zm-2-4.6c0-.7-1-2-1.3-1.6-.2.2.6 2 1 2 .1 0 .3-.2.3-.4zm33.4 0c.3-.6.4-1.3.1-1.3-.4 0-1 .8-1 1.3s.5.6.9 0zm-27-.5c0-.2-.4-.4-.8-.4-.7-.1-1 .3-.5.7.4.4 1.2.2 1.2-.3zm17.7-.3c1-.7.3-1.4-1-.9-1 .5-1.1.8-.7 1.2.4.4 1 .3 1.7-.3zm-29-.6c-.2-.2-.5-.3-.7-.2-.1.2 0 .4.3.6.6.4 1 .1.4-.4zm0-1-.6-.7c-.4-.4-.5-.3-.5 0 0 .4 0 .7.2.8.3.4.8.3.8 0zm20.9-1.4c.6-.5.7-2 .2-2.3-.4-.2-1.4-2.4-1.9-3.7 0-.4-.6-.7-1.2-.8a128 128 0 0 0-13-1c0 .2.3 1.3.9 2.5.6 1.4.9 2.4.7 2.6-1.2 1.3 1 2.8 4.4 3 4 .4 9.2.3 9.9-.3zm9.9.1.5-.7c0-.2-1.3.6-1.6 1-.3.5.5.4 1-.3zm-2-1.5a20 20 0 0 0 3.7-1.3c1.7-.9 2-1.2 2-2 0-.5-.3-1.2-.6-1.6-.6-.5-1.3-.6-6.5-.6-3.3 0-6 .1-6.1.3-.2 0 .1.8.6 1.6s1 1.7 1 2c0 .2.2.7.5 1.1.6 1 2.6 1 5.4.5zm10.4-.5c.7-.6 1-1 .8-1.5-.1-.3 0-1 .5-1.7l.6-1.2-.7-.2c-1.5-.4-2.6-.2-3 .5-.6 1-.4 1.2 1.1 1.2h1.2l-1.1.8c-.7.4-1.3 1-1.4 1.4-.7 1.7.3 2 2 .7zm-7.3-6.8-.2-1c0-.3-.5-.7-1-1-.7-.2-1.1-.5-1.1-.7.1-1-.1-1.7-.8-2.3-.3-.3-.7-1-.7-1.4 0-.4-.1-.8-.3-.8-.2 0-.3-.1-.2-.3.3-.5-1-.7-6.7-1.1-6.2-.5-6.5-.4-5.5 1 .5.6 1.1 1.1 1.5 1.1.7 0 1 .6.2.8a18 18 0 0 0 3.2 5.6c.2.3 3.8.6 7.8.6 3.5 0 4 0 3.8-.5zm-8.7-3.7c0-.2.2-.3.4-.3s.3.1.3.3c0 .2-.1.4-.3.4a.4.4 0 0 1-.4-.4zm17-5.2c.3-.3-1.6-3.2-2.4-3.8-.4-.3-1.1-.5-1.8-.5-1.3 0-1.5-.4-.4-1.1.5-.3.7-.7.6-.8-.3-.4-9.6-1.2-10.7-1l-.8.2.7 1.3c1 1.7 1.5 2.3 2.9 3 .7.3.8.5.5.5-.7 0-.9.9-.4 1.2h1.4c.9-.3 1.3-.3 1.9.3.6.6 1.3.8 3.6 1 1.6 0 3 .1 3 .2.2.2 1.5-.2 2-.5zm6.3 1.8c0-.3 2.7-.3 3 0 .2.2-.5.3-1.4.3-.9 0-1.6-.2-1.6-.3zm-46.8-3.3c0-.2 0-.3.4-.3.3 0 .5.1.5.3 0 .2-.1.4-.3.4-.2 0-.4-.2-.6-.4zm9.5-6.6c-.4-.3-.4-.4 0-.5.6-.2 1 0 1 .5 0 .4-.4.4-1 0zm30.6-.8c0-.2.1-.3.3-.3.2 0 .4.1.4.3 0 .2-.2.4-.4.4a.4.4 0 0 1-.3-.4zM68 193.7c-.2-.4.3-.8.7-.5.3.3.2.8-.1.8-.2 0-.5-.1-.6-.3zm18.1-2h.7c.1.1-.1.2-.5.2s-.5-.1-.2-.2zm-13.4-.4h.7c.1.2-.1.2-.5.2s-.5 0-.2-.2z" style="fill:#6a331c;stroke-width:.352778" transform="translate(-44.5 -173.2)"/>
  <path d="M71.1 233.8c-7.4-.5-11.4-2.4-14.5-6.9l-1.2-1.7 1.3 1c.6.6 2.4 1.8 4 2.8l2.6 2c0 .6 2.4 1 5.9 1.3 1.7 0 4.5.4 6.2.6 2.4.3 3.7.3 5.8 0 3.4-.6 14-4.4 19-6.7.1-.1.2 0 0 .3a51 51 0 0 1-29 7.3zm30.9-9c0-.3.5-.6 1-.8.7-.5.7-.4 0 .3-.6.8-1.4 1-1 .4zm-29.5-.5c0-.2-.3-.3-.8-.2-.8.1-2-.3-1.6-.5.3-.3 6.6.1 6.5.4-.1.2-.7.2-1.2.1-.6 0-1.1 0-1.3.2-.3.5-1.6.5-1.6 0zm6.7-.6c0-.2.7-.4 1.5-.4 1.7 0 1.7.2-.2.5-.8.1-1.3.1-1.3-.1zm3.5-.8c0-.3 0-.7-.2-.7s-.3-.4-.2-1c.1-.8 0-1-.5-1.2-.5-.2-.9-.8-1.2-2-.3-1.2-.7-2-1.2-2.1-.6-.3-11.8-1.4-13.5-1.4-.5 0-.7 2.2-.2 2.6.6.6 1 2 .4 2-.2 0-.3-.1-.2-.3.2 0 0-.5-.4-.8a7 7 0 0 1-1.4-2.2l-.7-1.7h-4.1l2-.3c1.6-.2 1.9-.3 2-1l.1-.9.8 1 .8 1 6.4.2c4 0 6.4 0 6.5-.3.2-.1-.5-1.4-1.3-2.6a8.8 8.8 0 0 1-1.5-2.4l-.1-1.3c-.7-3 1-1.6 3.1 2.7.6 1.2 1.3 2.2 1.5 2.2.2 0 .3.3.3.6 0 .4.4.8 1 1 .7.4.8.6.6 1.5-.1.6 0 1.1.2 1.3.2.1.8 1 1.3 2.1a11 11 0 0 0 1.5 2.6l.8.8 3.3-.8c3.8-.8 4.7-.7 1.8.2l-2.5 1c-.4.3-1.7.6-3 .7-2 .2-2.2.2-2.2-.5zm12.9-4.5a23 23 0 0 0-.7-1.7l-.5-1.2h-3.3a78 78 0 0 0-4.1 0 5 5 0 0 1-1.8-.3c-.7-.2-.6-.3.9-.5 1-.2 1.8-.2 1.8 0 .2.3 4.9 0 5.3-.3.6-.6-3-6.5-3.8-6-.2 0-.2 0-.1-.3 0-.3-.2-1-.6-1.5-.7-.8-1.2-1-3-1.2-2.9-.3-3.7-.9-1-.7 1.6 0 2 0 2.2-.5.1-.2 0-.4-.1-.2-.4.4-1.2-.4-1.2-1.2 0-.7-1.5-3.3-2.1-3.7-.2 0-.3-.4-.2-.7.1-.2-.1-.7-.5-1-.4-.2-.8-.5-.8-.7 0-.2-.3-.8-.7-1.3-1-1.4-.8-1.6.6-.3 2.8 2.7 5.3 5.8 6.7 8.5.5 1 .7 1 1.7.9a4 4 0 0 1 2 .3c.5.3 2.7.6 4.8.7l4 .3v-.9c0-1.1-1.6-3.3-2.8-4-.6-.3-1.2-1-1.3-1.4-.1-.5-.7-1.3-1.4-2-.7-.5-1.2-1.3-1.2-1.5 0-.3-.3-1-.7-1.4a402.5 402.5 0 0 0-2.5-3c0-.1-.5-1-1.2-1.8a14 14 0 0 1-1.3-1.7c0-.4 1.7.9 3 2.2 1.5 1.6 1.6 1.6 5.2 2.2 2 .3 3.9.7 4.2.9.4.3.4.3 0 .1-1.4-.4-7-.6-7-.3 0 .5 1.1 1.5 1.8 1.5.3 0 .5.3.4.6-.1.4.4 1 1.4 1.9 1 .8 1.8 1.7 2 2.5.2.6.6 1.4.8 1.5a19.2 19.2 0 0 1 4.3 6.6c.2.3.1.3-.5-.1a8 8 0 0 0-1.3-.8 33 33 0 0 0-8.3-1.1l-4.6-.3.8 1.5 1.2 2.2 1.5 1.9c1.2 1.3 2 2.7 1.6 2.7-1 .1 2.3.7 5 1 2.5 0 3 .2 2.6.6-.3.3-1.2.5-3.1.4l-3 .1c-.1.1 0 .7.4 1.3.3.6.4 1.3.3 1.5-.4.6-1.6.4-1.8-.3zm-42.5-5c-.4-.2-.2-.3.7-.3.6 0 1 .1.9.3-.3.5-.9.5-1.6 0zm52.4-3.7c-.3-1-.2-1.4.4-.7l.5 1c0 .5-.6.3-.9-.3zM73.8 205c-.5-.3-.7-1-.7-2v-1.4l1 1.3c1 1 1.3 1.3 3.4 1.5l2.2.4h-2.1c-1.2 0-2.3.2-2.4.4-.3.5-.6.4-1.4-.2zm30.6-6.1c-.2-.5.5-.5 1.5 0 .6.2.6.3-.3.3a3 3 0 0 1-1.2-.3zm-2.8-1.1c-.1-.2 0-.4.2-.4s.3.2.3.4l-.1.3-.4-.3zm-23.3-6.4c0-.1 0-.3.3-.3s.7.2.8.3c.1.2 0 .4-.3.4s-.6-.2-.8-.4z" style="fill:#532918;stroke-width:.352778" transform="translate(-44.5 -173.2)"/>
</svg>