<?xml version="1.0" encoding="UTF-8" standalone="no"?>
<!-- Created with Inkscape (http://www.inkscape.org/) -->

<svg
   width="73.377777mm"
   height="73.377777mm"
   viewBox="0 0 73.377777 73.377777"
   version="1.1"
   id="svg5"
   sodipodi:docname="bricks.svg"
   inkscape:version="1.1.1 (3bf5ae0d25, 2021-09-20)"
   xmlns:inkscape="http://www.inkscape.org/namespaces/inkscape"
   xmlns:sodipodi="http://sodipodi.sourceforge.net/DTD/sodipodi-0.dtd"
   xmlns="http://www.w3.org/2000/svg"
   xmlns:svg="http://www.w3.org/2000/svg">
  <sodipodi:namedview
     id="namedview7"
     pagecolor="#ffffff"
     bordercolor="#666666"
     borderopacity="1.0"
     inkscape:pageshadow="2"
     inkscape:pageopacity="0.0"
     inkscape:pagecheckerboard="0"
     inkscape:document-units="mm"
     showgrid="false"
     inkscape:zoom="2.8882212"
     inkscape:cx="138.49355"
     inkscape:cy="132.43446"
     inkscape:window-width="1920"
     inkscape:window-height="1009"
     inkscape:window-x="-8"
     inkscape:window-y="-8"
     inkscape:window-maximized="1"
     inkscape:current-layer="layer1" />
  <defs
     id="defs2" />
  <g
     inkscape:label="Layer 1"
     inkscape:groupmode="layer"
     id="layer1"
     transform="translate(653.73865,343.75461)">
    <g
       id="g5666">
      <path
         style="fill:#fefefd;stroke-width:0.352778"
         d="m -653.73865,-307.06572 v -36.68889 h 36.68889 36.68889 v 36.68889 36.68889 h -36.68889 -36.68889 z"
         id="path5686" />
      <path
         style="fill:#f89352;stroke-width:0.352778"
         d="m -631.1917,-289.63972 c -7.84117,-6.32597 -14.31428,-11.55618 -14.38469,-11.62269 -0.20346,-0.19218 -1.78579,-10.14714 -1.64787,-10.36733 0.0684,-0.10917 1.88498,-1.06585 4.03691,-2.12596 2.15192,-1.06011 3.91259,-2.03121 3.91259,-2.15798 0,-0.12678 -0.63205,-0.64878 -1.40456,-1.16 -0.77251,-0.51122 -1.47895,-1.28638 -1.56988,-1.72257 -0.28543,-1.3693 -1.25889,-9.25648 -1.25889,-10.1998 0,-0.83806 0.52904,-1.12427 7.64595,-4.13636 l 7.64595,-3.23599 16.60752,8.06862 16.60752,8.06862 -0.0859,2.26119 -0.086,2.26119 4.23109,2.22864 c 2.86524,1.50919 4.22903,2.42025 4.22468,2.82222 -0.004,0.32647 -0.31815,2.49859 -0.69914,4.82692 -0.38099,2.32833 -0.6956,4.34261 -0.69913,4.47618 -0.006,0.22237 -10.54446,8.95787 -11.55928,9.58156 -0.24474,0.15041 -0.79257,0.0239 -1.23326,-0.28474 -0.77753,-0.54461 -0.79979,-0.52496 -1.14715,1.01242 -0.33632,1.48851 -0.70685,1.85458 -7.32588,7.23772 -3.8344,3.11845 -7.10265,5.66992 -7.26277,5.66992 -0.16013,0 -6.70664,-5.1758 -14.5478,-11.50178 z"
         id="path5684" />
      <path
         style="fill:#ee7a44;stroke-width:0.352778"
         d="m -619.17463,-280.00786 c -1.25667,-1.03147 -7.65527,-6.21225 -14.2191,-11.51287 -6.56384,-5.30061 -12.07315,-9.97448 -12.24291,-10.38637 -0.16976,-0.41189 -0.56324,-2.49515 -0.87441,-4.62945 -0.31117,-2.13431 -0.63609,-4.12522 -0.72207,-4.42424 -0.10894,-0.37893 0.45852,-0.84221 1.87255,-1.52879 1.11588,-0.5418 3.03971,-1.54566 4.27519,-2.2308 l 2.24632,-1.24569 -1.59316,-1.03634 c -1.7826,-1.15957 -1.64238,-0.73218 -2.56579,-7.82104 -0.33057,-2.53775 -0.45604,-4.6607 -0.28541,-4.82913 0.16747,-0.16531 3.62952,-1.71587 7.69343,-3.44568 l 7.38894,-3.14513 9.01523,4.38709 c 4.95837,2.4129 12.30929,5.98702 16.33536,7.94249 4.02608,1.95547 7.32014,3.67903 7.32014,3.83013 0,0.1511 -0.71623,0.38213 -1.59163,0.51341 -0.8754,0.13127 -2.01261,0.56981 -2.52713,0.97453 l -0.93548,0.73586 1.0068,0.26926 c 0.78885,0.21097 1.40203,0.0431 2.83254,-0.77533 l 1.82575,-1.04459 -0.0408,1.96332 -0.0408,1.96331 3.63774,1.86725 c 4.4154,2.26643 4.71562,2.52298 3.31287,2.83108 -1.28009,0.28116 -2.46655,1.46586 -1.96766,1.96475 0.22467,0.22467 0.84001,-0.0192 1.76529,-0.69968 l 1.4204,-1.04457 -0.68172,4.6601 c -0.57308,3.91746 -0.81003,4.77253 -1.48686,5.36565 -0.44282,0.38805 -3.11405,2.58166 -5.93605,4.87468 -5.06031,4.11175 -5.14279,4.16133 -5.99444,3.60331 -0.79329,-0.51978 -0.88135,-0.51939 -1.08252,0.005 -0.12045,0.31387 -0.22665,0.99425 -0.23602,1.51196 -0.0143,0.79116 -1.1293,1.83809 -6.99101,6.56422 -3.8357,3.09261 -7.12579,5.67353 -7.31132,5.73537 -0.18553,0.0618 -1.36551,-0.73148 -2.62218,-1.76294 z m 4.53292,-10.23438 c 1.10092,-0.83653 2.56774,-1.86328 3.2596,-2.28167 0.69187,-0.41838 1.56499,-1.10825 1.94028,-1.53303 l 0.68235,-0.77232 -0.88195,0.26121 c -0.48507,0.14367 -1.722,0.40996 -2.74874,0.59175 -1.02674,0.1818 -2.45314,0.6448 -3.16978,1.02889 -1.51115,0.80993 -2.90092,0.91259 -2.90092,0.21428 0,-0.28882 0.5478,-0.57168 1.35805,-0.70124 1.64272,-0.26269 3.22806,-1.43291 3.22806,-2.38282 0,-0.38208 -0.31331,-1.031 -0.69625,-1.44204 l -0.69625,-0.74733 0.43167,1.14509 c 0.40275,1.0684 0.36537,1.20213 -0.55815,1.99681 -1.8884,1.62495 -5.53658,0.82747 -5.53658,-1.21027 0,-1.02846 1.31009,-1.9485 3.1086,-2.18308 1.56383,-0.20398 1.59877,-0.23141 0.64157,-0.50361 -0.65391,-0.18595 -1.58268,-0.11076 -2.62325,0.21239 -2.03725,0.63267 -2.47803,1.76283 -1.37916,3.53617 0.66156,1.06763 1.05121,2.41123 0.69926,2.41123 -0.65102,0 -5.05942,-3.32744 -7.66865,-5.78826 -0.73905,-0.69702 -1.44058,-1.26739 -1.55896,-1.2675 -0.30724,-2.8e-4 -4.30666,-2.50235 -5.43783,-3.40196 -0.91053,-0.72413 -1.26418,-1.53673 -0.6688,-1.53673 0.15522,0 0.47205,0.18983 0.70406,0.42184 0.55754,0.55754 3.0994,0.38688 4.55982,-0.30613 1.24585,-0.5912 1.87886,-2.00408 1.2014,-2.68154 -0.29482,-0.29482 -0.3975,-0.15379 -0.3975,0.54594 0,1.71499 -3.16358,2.65922 -4.88047,1.45666 -1.45605,-1.01985 -0.66438,-2.36347 1.84416,-3.12988 1.26162,-0.38546 0.28003,-0.59159 -1.05792,-0.22217 -1.10517,0.30516 -1.45023,0.26809 -1.9817,-0.21289 -0.43892,-0.39721 -0.52871,-0.69719 -0.28241,-0.94349 0.19862,-0.19861 0.36112,-0.65572 0.36112,-1.01579 0,-0.54513 -0.14246,-0.48906 -0.8514,0.33514 -0.7009,0.81484 -1.1352,0.98981 -2.45685,0.98981 -1.06511,0 -1.81545,-0.21001 -2.22942,-0.62398 -0.89027,-0.89027 -0.26804,-1.70751 1.86338,-2.44738 l 1.73401,-0.60192 -1.85208,-0.0154 c -2.06857,-0.0172 -3.25901,0.78015 -3.2686,2.18942 -0.003,0.43656 -0.14962,1.02166 -0.32589,1.30023 -0.26561,0.41975 -0.41571,0.42745 -0.87654,0.045 -0.30583,-0.25382 -0.55606,-0.37585 -0.55606,-0.27118 0,0.2717 6.10218,5.00174 6.52639,5.05887 0.19403,0.0261 0.55122,0.0658 0.79375,0.0882 0.24254,0.0224 0.44106,0.23913 0.44116,0.48167 1.6e-4,0.38696 4.88387,4.33548 7.38558,5.9713 0.49748,0.32529 3.51193,2.58748 6.69877,5.02708 3.18685,2.4396 5.85797,4.43564 5.93582,4.43564 0.0779,0 1.04232,-0.68443 2.14325,-1.52096 z m 7.31515,-5.45398 c -0.11825,-0.11825 -0.48903,0.0719 -0.82396,0.42257 -0.58216,0.60951 -0.5727,0.61897 0.215,0.215 0.45318,-0.23241 0.72721,-0.51932 0.60896,-0.63757 z m 3.8343,-2.86848 c -0.0928,-0.0928 -0.44278,0.11736 -0.77771,0.46704 -0.58183,0.60746 -0.57431,0.61498 0.16875,0.16875 0.42774,-0.25688 0.70177,-0.54298 0.60896,-0.63579 z m -20.201,-0.47009 c 0.9901,-0.43056 1.72186,-1.00323 1.83506,-1.43614 0.3181,-1.21641 -0.0879,-1.29144 -1.16415,-0.21515 -0.79309,0.79309 -1.35149,1.02869 -2.43809,1.02869 -1.75605,0 -2.45002,-0.25826 -2.88675,-1.07428 -0.71875,-1.34301 0.93922,-2.78417 3.25422,-2.82864 1.12548,-0.0216 1.13513,-0.0339 0.29142,-0.37058 -1.30705,-0.52159 -3.58737,0.45142 -4.17636,1.78204 -0.58987,1.33261 -0.12931,2.27749 1.36383,2.798 0.60073,0.20942 0.99753,0.53401 0.88177,0.72132 -0.35352,0.572 1.29829,0.35173 3.03905,-0.40526 z m 31.42614,-7.52506 c 1.14131,-0.74842 1.73349,-1.5642 1.13545,-1.5642 -0.71195,0 -7.57365,5.26918 -7.57365,5.81589 0,0.0953 1.15094,-0.62714 2.55764,-1.60545 1.4067,-0.9783 3.15295,-2.16911 3.88056,-2.64624 z m 0,-3.4664 c 1.39963,-1.06247 0.0784,-3.19463 -2.22182,-3.5856 l -1.21777,-0.20698 1.49931,0.71347 c 2.24686,1.06921 1.86196,2.91591 -0.6261,3.00395 -1.64124,0.0581 -1.22841,0.56758 0.44971,0.55502 0.82462,-0.006 1.77712,-0.2221 2.11667,-0.47986 z m -16.01228,-1.23948 c 1.11589,-0.75778 2.59592,-1.6147 3.28897,-1.90428 0.69305,-0.28957 1.36962,-0.70372 1.50348,-0.92031 0.13387,-0.2166 0.86762,-0.71227 1.63057,-1.1015 1.34512,-0.68623 1.89109,-1.75168 0.89761,-1.75168 -0.26925,0 -1.54162,0.49232 -2.82749,1.09405 -3.11808,1.45913 -4.20871,1.03868 -2.53256,-0.97633 0.37222,-0.44748 1.24535,-0.9091 1.94028,-1.02583 2.37476,-0.3989 3.55656,-1.13948 3.55656,-2.22876 0,-1.18202 -0.75894,-1.9127 -2.60173,-2.50488 -2.44627,-0.78611 -6.21772,0.26398 -6.21772,1.73121 0,1.07908 -0.65049,1.38996 -2.05719,0.98318 -0.71181,-0.20583 -1.56679,-0.60376 -1.89996,-0.88429 -0.33407,-0.28128 -0.94306,-0.42183 -1.35781,-0.31337 -0.41363,0.10816 -0.66205,0.10666 -0.55205,-0.003 0.11,-0.11 -0.34949,-0.63668 -1.0211,-1.17041 -1.39856,-1.11142 -3.82842,-1.60413 -5.24845,-1.06424 -1.1775,0.44769 -1.62177,0.46253 -1.62177,0.0542 0,-0.1714 0.35719,-0.42968 0.79375,-0.57396 l 0.79375,-0.26231 -0.79308,-0.15606 c -0.6491,-0.12772 -0.72967,-0.27453 -0.44379,-0.8087 0.24912,-0.46548 0.22364,-0.69788 -0.0889,-0.8104 -0.24098,-0.0868 0.51435,-0.28052 1.67852,-0.43057 2.26308,-0.2917 4.58521,-0.99896 5.34199,-1.62703 0.80643,-0.66927 -0.11436,-1.67875 -2.54792,-2.79334 -1.25542,-0.575 -2.56435,-1.04545 -2.90874,-1.04545 -0.34439,0 -0.81667,-0.1905 -1.0495,-0.42333 -0.23283,-0.23283 -0.42333,-0.30087 -0.42333,-0.15119 0,0.14968 -0.23813,0.034 -0.52917,-0.25702 -0.29104,-0.29105 -0.52917,-0.69658 -0.52917,-0.9012 0,-0.43177 -3.24003,-2.14781 -4.05525,-2.14781 -0.30301,0 -1.69735,0.53736 -3.09853,1.19413 -2.81084,1.31752 -8.04706,3.49987 -10.43148,4.34762 l -1.53387,0.54535 1.71026,1.0806 c 0.94064,0.59433 3.02541,1.92349 4.63282,2.95367 1.6074,1.03019 3.23459,1.87307 3.61597,1.87307 0.38138,0 0.69342,0.15553 0.69342,0.34561 0,0.19009 0.59531,0.6704 1.32291,1.06736 1.33182,0.7266 6.15973,3.58545 7.14375,4.23016 0.29104,0.19069 1.08479,0.64983 1.76389,1.02031 0.6791,0.37048 3.61597,2.11799 6.52639,3.88335 2.91042,1.76537 5.34006,3.21016 5.39922,3.21065 0.0592,4.9e-4 1.02054,-0.61911 2.13642,-1.37689 z m -9.18755,-3.72977 c -0.7994,-0.5432 -1.25006,-1.1109 -1.1902,-1.4993 0.053,-0.3438 -0.075,-0.73552 -0.28445,-0.87049 -0.48698,-0.31384 -0.26706,-0.52438 0.83423,-0.79867 0.74695,-0.18604 0.95752,-0.0456 1.38198,0.92153 0.36127,0.82319 0.38838,1.17848 0.0973,1.27549 -0.27908,0.093 -0.23064,0.3982 0.15717,0.99007 0.69992,1.06821 0.60063,1.06636 -0.99606,-0.0186 z m 4.07753,0.14922 c -3.33972,-1.0015 -1.6253,-3.89608 2.01814,-3.40739 1.45328,0.19492 2.78819,1.07554 2.78819,1.83934 0,1.26502 -2.78593,2.17393 -4.80633,1.56805 z m 8.15771,-4.06453 c -0.19402,-0.0482 -0.78475,-0.18278 -1.31273,-0.29905 -0.52798,-0.11628 -1.14442,-0.55609 -1.36988,-0.97736 -0.90032,-1.68227 2.60815,-2.74307 4.99319,-1.50972 1.05324,0.54465 1.39453,1.67097 0.64642,2.13332 -0.52457,0.32421 -2.51282,0.76315 -2.957,0.65281 z m -17.10972,-0.95873 c -0.58234,-0.29461 -0.88194,-0.74225 -0.88194,-1.31771 0,-0.70503 0.27867,-0.96787 1.45869,-1.37583 1.27124,-0.43949 1.63393,-0.4376 2.82223,0.0147 1.06615,0.40578 1.36352,0.70583 1.36352,1.37582 0,0.99861 -1.21107,1.74924 -2.82222,1.74924 -0.58208,0 -1.45521,-0.20078 -1.94028,-0.44619 z m 7.34219,0.21561 c 0.25466,-0.10191 0.55893,-0.0894 0.67616,0.0279 0.11722,0.11723 -0.0911,0.2006 -0.46302,0.18529 -0.41097,-0.0169 -0.49456,-0.10052 -0.21314,-0.21314 z m -10.96404,-2.27223 c 0.2393,-0.2411 0.52396,-0.34949 0.63258,-0.24087 0.10861,0.10861 -0.0872,0.30587 -0.4351,0.43835 -0.50277,0.19145 -0.5433,0.15093 -0.19748,-0.19748 z m -4.22745,-2.45393 c -1.46797,-0.85501 0.0307,-2.44119 2.30654,-2.44119 1.6999,0 2.72054,0.5294 2.72054,1.41111 0,0.37441 -0.30706,0.84507 -0.68236,1.04593 -0.86811,0.46459 -3.53657,0.45486 -4.34472,-0.0159 z m 8.06342,-3.10436 c -1.44175,-0.30904 -2.01462,-1.33665 -1.11683,-2.00332 0.84766,-0.62945 3.72716,-0.66623 4.55865,-0.0582 0.76754,0.56124 0.44464,1.55792 -0.60172,1.85734 -1.37874,0.39453 -1.80817,0.42541 -2.8401,0.20421 z m -14.87516,-0.90366 c -1.44328,-1.07175 0.85332,-2.54371 3.27139,-2.09674 1.26614,0.23403 1.95006,0.84775 1.57989,1.41773 -0.7637,1.17593 -3.63996,1.5785 -4.85128,0.67901 z m 6.97049,-3.08983 c -1.1602,-1.1602 0.28107,-2.21753 2.65761,-1.94966 2.12004,0.23896 2.64009,0.80525 1.55428,1.69248 -0.94748,0.77418 -3.53678,0.93229 -4.21189,0.25718 z m 15.80444,9.79276 c 0,-0.0856 -0.15875,-0.25368 -0.35278,-0.3736 -0.19402,-0.11991 -0.35277,-0.0499 -0.35277,0.15557 0,0.20548 0.15875,0.3736 0.35277,0.3736 0.19403,0 0.35278,-0.07 0.35278,-0.15557 z m 3.15181,-1.33216 c 0.59484,-0.0169 1.08152,-0.18753 1.08152,-0.37915 0,-0.19162 0.24677,-0.52883 0.54837,-0.74937 1.12367,-0.82165 -0.21857,-2.04587 -2.94699,-2.68786 -1.36955,-0.32226 -3.21521,0.11806 -4.35143,1.03812 -0.70028,0.56706 -0.75516,0.77415 -0.40738,1.53743 0.45077,0.98934 2.48559,1.71224 4.04743,1.4379 0.52082,-0.0915 1.43363,-0.18016 2.02848,-0.19707 z m -4.12977,-0.64282 c -1.81654,-0.7296 -1.21282,-2.31615 1.01918,-2.67835 1.62258,-0.26331 3.93969,0.67589 3.77517,1.53019 -0.24162,1.25461 -2.92769,1.89788 -4.79435,1.14816 z"
         id="path5682" />
      <path
         style="fill:#ce6d47;stroke-width:0.352778"
         d="m -619.17463,-280.00786 c -1.25667,-1.03147 -7.65527,-6.21225 -14.2191,-11.51287 -6.56384,-5.30061 -12.07315,-9.97448 -12.24291,-10.38637 -0.16976,-0.41189 -0.56324,-2.49515 -0.87441,-4.62945 -0.31117,-2.13431 -0.63609,-4.12522 -0.72207,-4.42424 -0.10894,-0.37893 0.45852,-0.84221 1.87255,-1.52879 1.11588,-0.5418 3.03499,-1.54303 4.26471,-2.22494 l 2.23584,-1.23983 -1.3539,-0.89677 c -0.74464,-0.49323 -1.47134,-0.99991 -1.61487,-1.12597 -0.23917,-0.21004 -1.68638,-9.95638 -1.6739,-11.27295 0.003,-0.33661 0.11148,-0.42173 0.26458,-0.20796 0.14255,0.19904 1.78498,1.26476 3.64985,2.36827 1.86486,1.10351 4.0627,2.56784 4.88407,3.25408 0.82137,0.68624 1.73687,1.24771 2.03445,1.24771 0.63284,0 3.82323,1.74722 6.09498,3.33793 0.87312,0.61137 1.905,1.23122 2.29305,1.37744 0.38806,0.14622 3.67191,2.01543 7.29745,4.1538 l 6.59188,3.88794 2.13235,-1.44805 c 1.17279,-0.79642 2.41331,-1.54788 2.75672,-1.6699 1.58238,-0.56224 5.30523,-3.32816 5.25933,-3.90746 -0.0362,-0.45735 0.22428,-0.62071 1.0095,-0.63304 0.58208,-0.009 1.80184,-0.4546 2.71057,-0.98992 l 1.65225,-0.9733 -0.19951,1.93312 -0.19952,1.93313 3.22158,1.61797 c 1.77186,0.88989 3.22157,1.70134 3.22157,1.80323 0,0.1019 -0.30706,0.0209 -0.68236,-0.17993 -0.3753,-0.20085 -1.08179,-0.36519 -1.56997,-0.36519 -0.48819,0 -1.01456,-0.21495 -1.16972,-0.47766 -0.50695,-0.85834 -1.62579,-1.2295 -2.57517,-0.85428 -0.87028,0.34397 -0.86212,0.35723 0.61736,1.00219 2.25683,0.98383 1.92509,2.7992 -0.51153,2.7992 -1.06218,0 -1.16417,0.0941 -1.16417,1.07432 0,1.04054 0.0416,1.06825 1.32292,0.88141 0.72761,-0.1061 1.12448,-0.10006 0.88195,0.0134 -0.24254,0.11347 -0.44098,0.39302 -0.44098,0.62122 0,0.2282 -0.32366,0.61704 -0.71924,0.86409 -0.39558,0.24704 -0.62434,0.60273 -0.50835,0.79041 0.11599,0.18769 -0.0366,0.34124 -0.33909,0.34124 -0.30249,0 -0.54998,0.22168 -0.54998,0.49262 0,0.27095 -0.55563,0.98047 -1.23473,1.57673 -2.10404,1.84737 -1.37681,1.55724 2.20487,-0.87963 4.72961,-3.2179 4.6989,-3.18371 3.61597,-4.02604 l -0.88195,-0.686 1.23473,0.22434 c 0.67909,0.12338 1.29876,0.2788 1.37703,0.34537 0.0783,0.0666 0.67359,-0.2073 1.32292,-0.60861 0.64933,-0.40131 1.1806,-0.63417 1.1806,-0.51748 0,0.3369 -1.83522,3.1602 -2.3073,3.54954 -0.23525,0.19403 -0.52475,0.87869 -0.64332,1.52146 l -0.2156,1.16868 0.96575,-0.76136 c 0.84941,-0.66965 0.97998,-0.69104 1.08385,-0.17756 0.065,0.32109 -0.13219,1.20936 -0.43811,1.97393 -0.30592,0.76457 -0.41199,1.39013 -0.2357,1.39013 0.17629,0 0.47997,-0.43656 0.67485,-0.97014 l 0.35433,-0.97014 0.0278,0.89544 c 0.0302,0.97144 0.22451,0.78863 -7.44042,7.00069 -4.4076,3.57215 -4.4817,3.61455 -5.33726,3.05397 -0.79824,-0.52303 -0.8851,-0.52285 -1.08659,0.002 -0.12044,0.31387 -0.22665,0.99426 -0.23601,1.51196 -0.0143,0.79117 -1.12931,1.83809 -6.99101,6.56422 -3.8357,3.09261 -7.12579,5.67353 -7.31132,5.73537 -0.18553,0.0618 -1.36551,-0.73148 -2.62218,-1.76294 z m 4.53292,-10.23438 c 1.10092,-0.83653 2.56774,-1.86328 3.2596,-2.28167 0.69187,-0.41838 1.56031,-1.09482 1.92988,-1.50319 0.66633,-0.73629 0.66466,-0.74182 -0.19959,-0.66208 -1.96018,0.18086 -2.57918,-0.0756 -4.11551,-1.70501 -0.86898,-0.92164 -1.40739,-1.32895 -1.19647,-0.90514 0.55355,1.11227 0.48578,1.45227 -0.48243,2.42048 -0.62412,0.62412 -1.25112,0.86591 -2.24548,0.86591 -1.5696,0 -3.23861,-1.09082 -3.23861,-2.11667 0,-1.04292 1.66885,-2.11526 3.31077,-2.1274 1.91131,-0.0141 1.03412,-0.52996 -1.47456,-0.86712 -1.69102,-0.22728 -1.887,-0.34625 -2.06896,-1.25607 -0.11056,-0.55276 -0.50712,-1.28204 -0.88125,-1.62063 -0.60317,-0.54585 -0.65495,-0.54967 -0.45696,-0.0337 0.14123,0.36803 -0.10661,0.9118 -0.67433,1.47952 -1.69246,1.69246 -5.16304,0.96094 -5.16304,-1.08825 0,-0.98212 1.52292,-1.88276 3.24568,-1.91946 0.9708,-0.0207 1.04691,-0.0751 0.45849,-0.32798 -0.38806,-0.16676 -1.10243,-0.31963 -1.5875,-0.33972 -0.92849,-0.0385 -2.46945,-1.11065 -2.46945,-1.71824 0,-0.85036 -1.86897,-2.5159 -3.07764,-2.74264 -0.87319,-0.16381 -1.83575,-0.80272 -3.07416,-2.04047 -0.99161,-0.99109 -2.51343,-2.11511 -3.38182,-2.49781 -0.86838,-0.3827 -1.67634,-0.83337 -1.79547,-1.0015 -0.21596,-0.30479 -6.64654,2.56351 -6.65705,2.96932 -0.005,0.20758 7.66098,6.13465 8.84963,6.84189 0.3261,0.19403 2.39616,1.73436 4.60013,3.42295 5.41292,4.14717 16.31485,12.27566 16.46409,12.27566 0.0662,0 1.02108,-0.68443 2.12201,-1.52096 z m -19.69104,-14.80907 c -2.05239,-1.0384 -0.63765,-3.07274 2.13687,-3.07274 1.8931,0 2.6351,0.61011 2.31125,1.90044 -0.13575,0.54087 -0.61953,0.99276 -1.32676,1.2393 -1.42274,0.49598 -2.03459,0.48284 -3.12136,-0.067 z m -6.00034,-4.36281 c -1.8271,-0.69819 -1.46111,-2.3358 0.66433,-2.9726 2.4563,-0.73592 4.64497,1.07195 2.77839,2.29499 -0.966,0.63294 -2.67788,0.96988 -3.44272,0.67761 z m 33.00653,13.7179 c -0.11825,-0.11825 -0.48903,0.0719 -0.82396,0.42257 -0.58216,0.60951 -0.5727,0.61897 0.215,0.215 0.45318,-0.23241 0.72721,-0.51932 0.60896,-0.63757 z m 4.38791,-3.13221 c 0,-0.25519 -1.3596,0.56618 -1.61129,0.97342 -0.13171,0.21311 0.17695,0.11462 0.68591,-0.21886 0.50896,-0.33348 0.92538,-0.67303 0.92538,-0.75456 z m 1.10333,-0.74076 c 0.43881,-0.55953 0.42634,-0.57201 -0.13319,-0.1332 -0.58764,0.46086 -0.77452,0.75056 -0.48417,0.75056 0.0733,0 0.35107,-0.27782 0.61736,-0.61736 z m 13.76904,-4.32153 c 0,-0.48507 0.0801,-0.68351 0.17793,-0.44097 0.0979,0.24253 0.0979,0.63941 0,0.88194 -0.0979,0.24254 -0.17793,0.0441 -0.17793,-0.44097 z m 0.6777,-4.43912 c 0.0169,-0.41097 0.10052,-0.49456 0.21314,-0.21314 0.1019,0.25466 0.0894,0.55893 -0.0278,0.67616 -0.11722,0.11722 -0.2006,-0.0911 -0.18528,-0.46302 z m -26.03707,-6.53679 c -0.62611,-0.18091 -1.32217,-0.67234 -1.5468,-1.09207 -0.35201,-0.65774 -0.27734,-0.87587 0.5407,-1.57952 1.10801,-0.95307 2.91692,-1.07357 4.42319,-0.29465 1.85188,0.95765 1.56164,2.38632 -0.60716,2.98863 -0.72532,0.20144 -1.39814,0.35282 -1.49515,0.3364 -0.097,-0.0164 -0.68866,-0.17787 -1.31478,-0.35879 z m 5.90089,-4.89909 c -0.90187,-0.90187 -0.88791,-1.24338 0.0785,-1.92028 1.43744,-1.00681 4.8842,-0.50418 5.37866,0.78436 0.11237,0.29282 -0.0623,0.82694 -0.38805,1.18694 -0.86008,0.95038 -4.10031,0.91777 -5.0691,-0.051 z m -14.72847,-0.17317 c -0.63059,-0.27408 -1.14653,-0.73278 -1.14653,-1.01933 0,-1.4837 2.71315,-2.33234 4.74391,-1.48383 1.69443,0.70797 1.70761,1.81696 0.0299,2.51794 -1.50231,0.62771 -2.15523,0.62505 -3.6273,-0.0148 z m 23.54791,-1.4635 c -1.06715,-0.47977 -2.1784,-1.01575 -2.46944,-1.19106 -0.29104,-0.17531 -1.36786,-0.74325 -2.39293,-1.26207 -1.02508,-0.51883 -1.79597,-1.01112 -1.7131,-1.09399 0.0829,-0.0829 2.19157,0.88255 4.68599,2.14539 4.53567,2.29623 5.54553,3.04541 1.88948,1.40173 z m -16.66875,-2.44567 c -2.40854,-1.30665 0.36632,-3.22372 3.27615,-2.26339 1.96331,0.64795 2.12822,1.52965 0.45121,2.41236 -1.04207,0.5485 -2.55303,0.48812 -3.72736,-0.14897 z m 8.55486,0.20178 c 0,-0.19402 0.16812,-0.35277 0.3736,-0.35277 0.20548,0 0.27549,0.15875 0.15557,0.35277 -0.11992,0.19403 -0.28804,0.35278 -0.3736,0.35278 -0.0856,0 -0.15557,-0.15875 -0.15557,-0.35278 z m -23.37152,-0.73381 c -0.84085,-0.48975 -0.77544,-1.23212 0.16669,-1.89202 0.8788,-0.61553 3.2884,-0.7421 3.62922,-0.19063 0.12188,0.19719 0.37049,0.2665 0.55248,0.15402 0.64371,-0.39783 0.75695,0.93291 0.13763,1.61725 -0.69567,0.76871 -3.38084,0.95509 -4.48602,0.31138 z m 21.76326,-1.93148 c -0.6457,-0.51731 -0.63444,-0.52465 0.19715,-0.12861 1.07987,0.51429 1.28,0.67724 0.83178,0.67724 -0.18928,0 -0.6523,-0.24689 -1.02893,-0.54863 z m -2.36049,-0.91973 c -0.53357,-0.19488 -0.97013,-0.50393 -0.97013,-0.68677 0,-0.2709 1.89734,0.47967 2.44004,0.96527 0.25224,0.22569 -0.45773,0.0912 -1.46991,-0.2785 z m -12.34722,-0.67657 c -0.81434,-0.47431 -0.78438,-1.26864 0.065,-1.72322 0.94134,-0.50379 3.55097,-0.4697 3.55097,0.0464 0,0.22636 0.10446,0.30712 0.23213,0.17945 0.12767,-0.12767 0.44917,-0.052 0.71445,0.16817 0.40408,0.33535 0.38616,0.50657 -0.11041,1.05527 -0.66253,0.7321 -3.37861,0.89921 -4.45214,0.27394 z m -13.75833,-0.35278 c -0.81435,-0.47431 -0.78438,-1.26864 0.065,-1.72321 0.892,-0.47739 3.09188,-0.46983 3.38945,0.0116 0.12809,0.20726 0.45496,0.29162 0.72637,0.18746 0.79654,-0.30566 0.56957,0.75352 -0.29057,1.35599 -0.88491,0.61982 -2.96073,0.70953 -3.89025,0.16813 z m 21.09924,-1.57046 c -0.88052,-0.66599 -0.55394,-0.66196 0.73265,0.009 0.55576,0.28984 0.77234,0.52292 0.4813,0.51795 -0.29104,-0.005 -0.83732,-0.24213 -1.21395,-0.527 z m -14.04369,-1.60454 c -0.33954,-0.19776 -0.61736,-0.58423 -0.61736,-0.8588 0,-1.14252 3.05335,-1.69717 3.87733,-0.70432 0.23977,0.2889 0.57671,0.43828 0.74876,0.33196 0.17204,-0.10633 0.3128,0.0581 0.3128,0.36539 0,1.04351 -2.98846,1.64222 -4.32153,0.86577 z m -7.32013,-1.03007 c 0.29104,-0.18809 0.68791,-0.34197 0.88194,-0.34197 0.19403,0 0.11465,0.15388 -0.17639,0.34197 -0.29104,0.18808 -0.68792,0.34197 -0.88194,0.34197 -0.19403,0 -0.11466,-0.15389 0.17639,-0.34197 z m 3.13204,-1.24045 c 1.04353,-0.48192 1.99603,-0.87562 2.11667,-0.8749 0.54068,0.003 -2.00759,1.3144 -2.95566,1.52076 -0.65726,0.14306 -0.33931,-0.1017 0.83899,-0.64586 z m 2.9567,-1.25911 c 0.98138,-0.57148 3.08348,-1.40718 3.08348,-1.22585 0,0.18021 -3.12929,1.61535 -3.48443,1.59801 -0.12086,-0.006 0.0596,-0.17337 0.40095,-0.37216 z"
         id="path5680" />
      <path
         style="fill:#cd6639;stroke-width:0.352778"
         d="m -630.63171,-289.27902 c -7.56708,-6.11702 -14.04151,-11.40091 -14.38761,-11.74197 -0.43625,-0.42989 -0.87949,-2.10147 -1.44492,-5.44909 -0.4486,-2.65594 -0.75466,-4.82897 -0.68014,-4.82897 0.26784,0 7.35537,5.58204 8.01249,6.31053 0.36962,0.40976 0.90774,0.74502 1.19583,0.74502 0.28809,0 0.70005,0.21507 0.91546,0.47793 0.39161,0.47786 5.0063,4.06736 7.75419,6.03153 0.80131,0.57277 3.87025,2.83362 6.81988,5.0241 l 5.36295,3.9827 0.12532,2.20784 0.12533,2.20784 0.068,-2.18062 0.068,-2.18063 2.73402,-1.95945 c 6.19561,-4.44034 7.2595,-5.28238 6.84759,-5.41968 -0.2376,-0.0792 -0.8182,0.10905 -1.29023,0.41833 -0.47203,0.30928 -1.5762,0.56233 -2.45371,0.56233 -1.47638,0 -1.66165,-0.1048 -2.48171,-1.40386 -1.20156,-1.9034 -3.65238,-3.05832 -6.72468,-3.16892 -0.20355,-0.007 -0.57418,-0.57769 -0.8236,-1.26746 -0.63882,-1.76662 -2.89149,-3.33198 -4.79495,-3.33198 -1.57369,0 -2.81655,-0.92553 -3.0626,-2.28065 -0.15996,-0.88102 -2.24986,-2.30546 -3.38249,-2.30546 -0.59649,0 -1.48989,-0.65558 -2.88451,-2.11667 -1.1112,-1.16416 -2.24668,-2.11726 -2.52328,-2.11798 -0.2766,-7.4e-4 -1.03832,-0.32774 -1.69272,-0.72669 -0.65439,-0.39896 -1.4167,-0.63831 -1.69401,-0.53189 -0.98662,0.3786 -0.11105,-0.41994 0.93597,-0.85364 1.35097,-0.55958 1.33834,-0.83096 -0.0806,-1.73181 -0.63059,-0.40034 -1.33332,-0.85203 -1.56163,-1.00374 -0.4346,-0.28881 -2.06296,-11.31128 -1.72146,-11.65277 0.10795,-0.10796 0.19628,0.0683 0.19628,0.39167 0,0.32338 0.21625,0.58796 0.48055,0.58796 0.72562,0 7.3347,4.04355 8.3122,5.08555 0.47038,0.50142 1.09527,0.91168 1.38864,0.91168 0.60289,0 7.32089,3.72688 7.63544,4.23584 0.11224,0.1816 0.87218,0.6271 1.68876,0.99 1.28839,0.57258 12.11571,6.90106 12.59719,7.36296 0.097,0.0931 0.27124,1.14835 0.38718,2.34507 l 0.21079,2.17585 0.0538,-2.19402 0.0538,-2.19402 2.02847,-1.29914 c 1.11566,-0.71452 2.50472,-1.50538 3.0868,-1.75745 1.89188,-0.81931 4.94094,-3.18531 4.88945,-3.79411 -0.0362,-0.42788 0.20605,-0.56515 0.9035,-0.51201 0.52411,0.0399 1.53565,-0.28753 2.24786,-0.7277 0.71222,-0.44017 1.45658,-0.70041 1.65415,-0.57831 0.19756,0.12211 0.35921,0.90276 0.35921,1.73478 0,1.21438 0.15657,1.59215 0.79375,1.91519 l 0.79375,0.40242 -0.87325,-0.0839 c -1.33904,-0.12869 -1.31141,0.91393 0.0404,1.52271 1.60365,0.72221 2.08669,1.64093 1.20644,2.29458 -0.37664,0.27968 -1.12882,0.50851 -1.67153,0.50851 -0.86956,0 -1.01217,0.15902 -1.20087,1.3391 -0.15801,0.98816 -0.51939,1.54827 -1.37895,2.13724 -1.0739,0.73585 -1.1497,0.9109 -0.97107,2.24269 0.13936,1.03897 0.0796,1.374 -0.21271,1.19332 -0.22356,-0.13817 -0.40648,-0.0881 -0.40648,0.11131 0,0.19939 -0.23812,0.27115 -0.52916,0.15947 -0.7876,-0.30223 -0.63988,0.33912 0.19872,0.86283 0.64141,0.40057 0.8725,0.32761 1.94504,-0.61409 0.66943,-0.58777 1.73094,-1.33174 2.35892,-1.65327 2.00318,-1.02564 4.47731,-3.29274 4.24737,-3.89195 -0.15379,-0.40075 -0.031,-0.50604 0.45889,-0.39359 0.36786,0.0844 1.22446,-0.16971 1.90356,-0.56475 l 1.23472,-0.71827 -1.31257,1.47205 c -0.72191,0.80962 -1.81574,2.46892 -2.43072,3.68733 -0.61499,1.21842 -1.49277,2.70654 -1.95063,3.30693 -0.45786,0.6004 -0.83247,1.23775 -0.83247,1.41634 0,0.57424 -1.34059,2.84765 -2.27158,3.85219 -0.94116,1.01553 -1.25829,1.92977 -0.46245,1.33315 0.24254,-0.18182 1.11566,-0.8496 1.94028,-1.48395 2.83245,-2.17891 1.49676,-0.81881 -2.01874,2.05563 -3.48593,2.85027 -3.52615,2.87122 -4.40613,2.29463 -0.98797,-0.64734 -1.13185,-0.49242 -1.32107,1.42249 -0.0878,0.88843 -1.16421,1.91137 -7.14595,6.79097 -3.87343,3.15974 -7.1278,5.74065 -7.23195,5.73537 -0.10414,-0.005 -6.3806,-5.01444 -13.94769,-11.13147 z m 13.82293,6.8416 c -0.11261,-0.28142 -0.1962,-0.19783 -0.21313,0.21313 -0.0153,0.37189 0.0681,0.58025 0.18529,0.46303 0.11722,-0.11723 0.12975,-0.4215 0.0278,-0.67616 z m 13.74092,-7.87562 c -0.10116,-0.26363 -0.0185,-0.53445 0.18361,-0.60183 0.20215,-0.0674 0.31229,-0.45736 0.24477,-0.8666 -0.0948,-0.57434 -0.29878,-0.35027 -0.89427,0.98217 -0.75519,1.68976 -0.75647,1.7182 -0.0608,1.34591 0.39087,-0.20918 0.62789,-0.59603 0.52673,-0.85965 z m 0.0313,-2.99435 c 0.66407,0 0.80953,-0.19889 0.83854,-1.14653 0.0193,-0.63059 0.0931,-1.8609 0.164,-2.73402 0.12417,-1.5291 0.11036,-1.55506 -0.37537,-0.70556 -0.27735,0.48507 -0.50991,1.15423 -0.51678,1.48703 -0.007,0.3328 -0.46197,1.12655 -1.01132,1.76389 -0.54934,0.63734 -1.10288,1.44415 -1.23007,1.79291 -0.2143,0.58759 -0.17408,0.59407 0.54814,0.0882 0.42867,-0.30025 1.14096,-0.54592 1.58286,-0.54592 z m -0.20043,-5.02708 c 1.85315,-1.25629 2.35099,-2.09456 0.64568,-1.08721 -1.44717,0.85486 -3.06779,2.20548 -2.66506,2.22105 0.18048,0.007 1.08919,-0.50325 2.01938,-1.13384 z m -7.57458,-3.85851 c -0.11262,-0.28142 -0.19621,-0.19783 -0.21314,0.21314 -0.0153,0.37188 0.0681,0.58024 0.18529,0.46302 0.11722,-0.11723 0.12975,-0.4215 0.0278,-0.67616 z m 9.41255,-2.6978 c 1.64431,-1.45726 2.57734,-2.09781 3.50739,-2.40793 0.35232,-0.11749 0.55489,-0.42728 0.45301,-0.69279 -0.10137,-0.26416 0.10952,-0.75923 0.46864,-1.10017 0.66884,-0.63498 1.44558,-4.96543 1.43424,-7.99612 -0.006,-1.71304 -0.53671,-1.16157 -0.88919,0.92468 -0.14065,0.83252 -0.59173,1.63369 -1.21516,2.15827 -0.85619,0.72043 -2.15237,2.68609 -2.13073,3.23126 0.0274,0.69062 -0.0558,0.89824 -0.56402,1.4064 -0.31413,0.31414 -0.47121,0.67112 -0.34905,0.79328 0.12217,0.12216 0.54412,-0.12352 0.93769,-0.54597 0.39356,-0.42244 0.89459,-0.76807 1.1134,-0.76807 0.21881,0 0.29489,-0.10295 0.16906,-0.22877 -0.12582,-0.12583 0.1113,-0.52371 0.52693,-0.88418 0.41564,-0.36048 0.84931,-0.5533 0.96372,-0.42849 0.11442,0.1248 0.009,0.29812 -0.23514,0.38514 -0.24374,0.087 -0.34247,0.32116 -0.21939,0.52031 0.12308,0.19915 0.0168,0.49004 -0.23626,0.64642 -0.25303,0.15637 -0.51121,0.65456 -0.57374,1.10708 -0.14043,1.01628 -1.99905,2.6559 -3.34597,2.95174 -0.67688,0.14866 -1.0023,0.44012 -1.0023,0.89767 0,0.37263 -0.11907,0.68323 -0.26459,0.69021 -0.14552,0.007 -0.74083,0.4168 -1.32291,0.91073 l -1.05834,0.89804 1.18688,-0.58787 c 0.65278,-0.32333 1.8434,-1.16973 2.64583,-1.88087 z m -27.76659,-10.45369 c -0.22428,-0.47872 -0.46248,-0.71151 -0.52933,-0.5173 -0.0668,0.19421 0.0716,0.58589 0.30778,0.87041 0.61931,0.74622 0.68644,0.63922 0.22155,-0.35311 z m -13.05863,-11.54896 c -0.52055,-0.83421 -0.62398,-0.59711 -0.34595,0.79304 0.19541,0.97705 0.27997,1.06479 0.47923,0.49732 0.13307,-0.37897 0.0731,-0.95963 -0.13328,-1.29036 z m 22.22342,32.14933 c -1.89501,-1.49062 -0.61832,-3.32579 2.31369,-3.32579 1.39666,0 1.88992,0.16289 2.39972,0.79246 1.84597,2.27968 -2.24236,4.47705 -4.71341,2.53333 z m 27.82187,-3.50218 c 0.35119,-0.38805 0.7179,-0.70555 0.81491,-0.70555 0.097,0 -0.11094,0.3175 -0.46213,0.70555 -0.35119,0.38806 -0.7179,0.70556 -0.81491,0.70556 -0.097,0 0.11094,-0.3175 0.46213,-0.70556 z m 1.5875,-1.19153 c 0,-0.0732 0.27781,-0.35106 0.61736,-0.61736 0.55953,-0.43881 0.57201,-0.42633 0.1332,0.1332 -0.46086,0.58764 -0.75056,0.77451 -0.75056,0.48416 z m -36.96317,-0.76875 c -2.26226,-1.58455 0.78658,-4.0112 3.57557,-2.84589 2.37577,0.99266 1.28788,3.39506 -1.5374,3.39506 -0.68976,0 -1.60694,-0.24713 -2.03817,-0.54917 z m -6.64401,-4.71891 c -1.46595,-0.62467 -1.42596,-2.11408 0.0751,-2.79802 1.71636,-0.78203 4.37372,-0.16686 4.37372,1.0125 0,1.39413 -2.76402,2.50346 -4.44885,1.78552 z m -6.04706,-4.50599 c -1.25803,-0.24223 -1.66027,-1.35308 -0.80107,-2.21229 1.49341,-1.4934 5.47495,-0.59545 4.60095,1.03764 -0.30278,0.56575 -2.21407,1.50701 -2.79342,1.37568 -0.11657,-0.0264 -0.56948,-0.11688 -1.00646,-0.20103 z m 47.71646,-4.333 c -0.12359,-0.19997 0.018,-0.25912 0.33196,-0.13864 0.61116,0.23452 0.72298,0.48738 0.21553,0.48738 -0.18258,0 -0.42895,-0.15693 -0.54749,-0.34874 z m -21.78652,-1.55346 c -0.73387,-0.55708 -0.80739,-1.73426 -0.14277,-2.28584 1.45312,-1.20599 5.24456,-0.49395 5.46794,1.02688 0.0733,0.49884 -0.12906,1.01192 -0.5084,1.28931 -0.81483,0.59582 -4.01849,0.57564 -4.81677,-0.0303 z m 7.23194,-4.17281 c -1.15875,-0.55885 -1.05745,-1.95467 0.17639,-2.43039 1.35837,-0.52373 3.58066,-0.15555 4.46149,0.73915 l 0.74198,0.75367 -0.83283,0.68407 c -0.92715,0.76153 -3.22769,0.88979 -4.54703,0.2535 z m -15.16944,-0.44816 c -3.05262,-1.32679 0.72083,-3.53113 3.94578,-2.30501 1.35353,0.51461 1.19236,1.68852 -0.31848,2.31979 -1.50231,0.62771 -2.15523,0.62505 -3.6273,-0.0148 z m 21.55554,-2.29392 c -0.41671,-0.16813 -0.87074,-0.48868 -1.00897,-0.71233 -0.20516,-0.33195 1.75459,0.47328 2.26639,0.93123 0.25224,0.2257 -0.46494,0.10085 -1.25742,-0.2189 z m -14.29326,-1.4606 c -2.11198,-0.77354 -1.32197,-2.42231 1.16065,-2.42231 2.96771,0 4.32166,1.63242 2.01956,2.43493 -1.30707,0.45565 -1.9082,0.45326 -3.18021,-0.0126 z m 8.17174,0.0471 c 0,-0.19402 0.16812,-0.35277 0.3736,-0.35277 0.20548,0 0.27549,0.15875 0.15557,0.35277 -0.11992,0.19403 -0.28804,0.35278 -0.3736,0.35278 -0.0856,0 -0.15557,-0.15875 -0.15557,-0.35278 z m 3.70667,0.004 c -0.12359,-0.19997 0.018,-0.25912 0.33196,-0.13864 0.61115,0.23452 0.72297,0.48738 0.21553,0.48738 -0.18258,0 -0.42895,-0.15693 -0.54749,-0.34874 z m -27.18716,-0.86532 c -0.54617,-0.40557 -0.60638,-0.63766 -0.29745,-1.14653 0.53713,-0.88475 2.81533,-1.42978 3.69089,-0.88299 0.37108,0.23175 0.91498,0.42136 1.20866,0.42136 0.79529,0 0.64526,0.94036 -0.2501,1.56749 -0.98447,0.68955 -3.44718,0.71256 -4.352,0.0407 z m 25.77605,0.15977 c -0.1236,-0.19998 0.018,-0.25912 0.33195,-0.13865 0.61116,0.23453 0.72298,0.48739 0.21554,0.48739 -0.18258,0 -0.42895,-0.15694 -0.54749,-0.34874 z m -3.70667,-1.76793 c -0.29104,-0.18809 -0.37041,-0.34197 -0.17639,-0.34197 0.19403,0 0.59091,0.15388 0.88195,0.34197 0.29104,0.18808 0.37042,0.34197 0.17639,0.34197 -0.19403,0 -0.59091,-0.15389 -0.88195,-0.34197 z m -2.64583,-1.22198 c -0.58208,-0.26653 -0.81086,-0.4975 -0.5084,-0.51326 0.30247,-0.0158 0.85809,0.20443 1.23472,0.4893 0.8505,0.64328 0.6413,0.65018 -0.72632,0.024 z m -12.25903,-0.57017 c -1.37596,-0.80142 -0.26174,-2.08841 1.80807,-2.08841 0.58339,0 1.15882,0.15875 1.27874,0.35278 0.11991,0.19403 0.52616,0.35278 0.90276,0.35278 0.8842,0 0.88577,0.92592 0.002,1.3987 -0.86631,0.46363 -3.18453,0.45443 -3.99195,-0.0159 z m -13.75833,-0.35278 c -1.37596,-0.80142 -0.26174,-2.0884 1.80807,-2.0884 0.58339,0 1.16737,0.17258 1.29773,0.38351 0.13036,0.21093 0.5366,0.30516 0.90276,0.20941 0.93139,-0.24356 0.85194,0.64776 -0.11831,1.32735 -0.88491,0.61982 -2.96073,0.70953 -3.89025,0.16813 z m 21.43375,-1.37881 c -0.1236,-0.19997 0.018,-0.25912 0.33195,-0.13864 0.61116,0.23452 0.72298,0.48738 0.21554,0.48738 -0.18258,0 -0.42895,-0.15693 -0.54749,-0.34874 z m -14.45628,-1.8933 c -1.58975,-1.16245 1.0817,-2.5635 2.77385,-1.45475 0.48905,0.32043 1.05491,0.48018 1.25747,0.35499 0.20256,-0.12519 0.36829,0.0238 0.36829,0.3311 0,1.11403 -3.1699,1.66785 -4.39961,0.76866 z"
         id="path5678" />
      <path
         style="fill:#b56449;stroke-width:0.352778"
         d="m -630.63171,-289.27902 c -7.56708,-6.11702 -14.04151,-11.40091 -14.38761,-11.74197 -0.71473,-0.70431 -2.55832,-10.51106 -1.87359,-9.96628 0.21241,0.169 1.82045,1.39829 3.57343,2.73177 1.75297,1.33348 3.78232,3.01981 4.50967,3.74742 0.72735,0.7276 1.48101,1.32291 1.6748,1.32291 0.48376,0 5.65839,3.6525 6.51386,4.59778 0.38133,0.42137 1.14282,0.99856 1.69218,1.28265 0.97068,0.50196 10.11219,7.14686 11.17365,8.12205 0.30332,0.27867 0.61914,1.42192 0.73996,2.67865 l 0.21079,2.19248 0.0538,-2.18062 0.0538,-2.18063 2.73402,-1.95945 c 6.15895,-4.41407 7.26101,-5.28188 6.87218,-5.41148 -0.22407,-0.0747 -0.67784,0.0156 -1.00838,0.20052 -0.80795,0.45215 -3.33311,0.10373 -4.10234,-0.56604 -0.82963,-0.72236 -1.73867,-1.2446 -4.67187,-2.68399 -1.3582,-0.66649 -3.18382,-1.88159 -4.05695,-2.70022 -0.87312,-0.81863 -2.59641,-1.95207 -3.82952,-2.51875 -1.25611,-0.57726 -2.97094,-1.75825 -3.89964,-2.68567 -0.91169,-0.91043 -2.40596,-2.03895 -3.32059,-2.50782 -0.91463,-0.46886 -2.17604,-1.34693 -2.80313,-1.95126 -0.6271,-0.60433 -1.73548,-1.46397 -2.46309,-1.91032 -0.7276,-0.44634 -1.32292,-1.05522 -1.32292,-1.35307 0,-0.53206 -0.18288,-0.52805 -1.94027,0.0426 -0.38806,0.126 -0.18962,-0.0435 0.44097,-0.37676 0.63059,-0.33321 1.14653,-0.72122 1.14653,-0.86223 0,-0.14101 -0.71409,-0.70752 -1.58687,-1.25891 -0.87278,-0.55139 -1.59024,-1.16128 -1.59436,-1.35531 -0.004,-0.19403 -0.2375,-1.94028 -0.51861,-3.88055 -0.28112,-1.94028 -0.51616,-3.91143 -0.52231,-4.38033 -0.0227,-1.72796 0.30172,-0.45264 0.84553,3.32414 0.30715,2.13312 0.63337,4.2094 0.72493,4.61395 0.14131,0.62441 4.66959,3.98508 6.53224,4.84793 0.29104,0.13482 0.93446,0.52119 1.42981,0.85861 5.74911,3.91605 9.23091,6.07534 9.51412,5.90031 0.18973,-0.11726 0.34496,0.0313 0.34496,0.33007 0,0.51018 1.60296,1.188 1.96153,0.82944 0.13702,-0.13703 -5.77274,-4.32701 -10.15779,-7.20182 -0.63379,-0.41551 -1.57063,-1.16957 -2.08186,-1.67569 -0.51123,-0.50613 -1.14623,-0.93138 -1.41111,-0.94502 -0.26488,-0.0136 -0.1641,-0.16123 0.22395,-0.32798 0.38806,-0.16676 0.51409,-0.31435 0.28007,-0.32799 -0.23402,-0.0136 -1.28086,-0.87335 -2.32631,-1.91049 -1.35461,-1.34382 -1.8826,-2.12947 -1.8374,-2.73403 0.0349,-0.46658 -0.0595,-1.39519 -0.20967,-2.06358 -0.34732,-1.54551 -0.005,-2.13438 0.60331,-1.03727 0.25651,0.46278 0.47202,0.65284 0.47889,0.42236 0.0161,-0.53881 1.3538,-0.4481 1.56652,0.10622 0.0887,0.2312 1.08504,0.76547 2.21406,1.18727 1.12901,0.4218 2.33057,1.01753 2.67012,1.32383 0.50173,0.45261 0.61837,0.46409 0.62276,0.0613 0.003,-0.313 0.10091,-0.35897 0.26458,-0.12476 0.14255,0.20399 1.01453,0.65417 1.93773,1.0004 0.92319,0.34624 2.32728,1.17152 3.12018,1.83398 0.7929,0.66245 1.60281,1.20445 1.79979,1.20445 0.51351,0 12.16848,6.67842 12.63412,7.23948 0.21387,0.25769 0.45225,1.45299 0.52975,2.65622 0.19642,3.04946 0.52234,3.08173 0.52234,0.0517 v -2.5174 l 2.00517,-1.2827 c 1.10285,-0.70548 2.41254,-1.4603 2.91042,-1.67738 1.75864,-0.76678 5.06457,-3.19775 5.235,-3.8495 0.10598,-0.40527 0.37293,-0.5835 0.69106,-0.46142 0.28511,0.1094 1.1356,-0.14798 1.88997,-0.57196 0.75438,-0.42398 1.46053,-0.68194 1.56924,-0.57323 0.1087,0.1087 -0.75915,1.11026 -1.92855,2.22568 -1.16941,1.11543 -2.04095,2.16597 -1.93677,2.33455 0.10419,0.16857 0.0294,0.3065 -0.16621,0.3065 -0.49619,0 -2.15103,2.23617 -2.32558,3.14253 -0.22661,1.17666 -2.651,5.9671 -3.11567,6.15637 -0.31314,0.12754 -0.30965,0.1774 0.0139,0.19825 0.31505,0.0203 0.34074,0.26851 0.0948,0.91545 l -0.33747,0.8876 1.13995,-0.58345 c 2.15702,-1.10403 7.33726,-4.88858 7.806,-5.70288 0.17383,-0.30198 0.5153,-1.83145 0.75884,-3.39882 0.24354,-1.56738 0.4585,-2.49259 0.4777,-2.05602 0.0258,0.58757 0.24979,0.79375 0.86217,0.79375 0.84696,0 1.99497,0.97313 1.99497,1.69106 0,0.5443 -1.16932,1.13116 -2.25387,1.13116 -0.73946,0 -0.92876,0.2111 -1.12438,1.25388 -0.15321,0.81667 -0.63651,1.57406 -1.38609,2.17216 -1.03867,0.82878 -1.13242,1.0557 -0.96178,2.32791 0.13567,1.01149 0.0743,1.33866 -0.2174,1.1584 -0.22356,-0.13817 -0.40648,-0.0881 -0.40648,0.11131 0,0.19939 -0.23812,0.27115 -0.52916,0.15947 -0.7876,-0.30223 -0.63988,0.33912 0.19872,0.86283 0.64156,0.40066 0.87285,0.3273 1.95009,-0.61853 0.6722,-0.5902 1.82371,-1.37997 2.5589,-1.75504 0.73519,-0.37506 1.54397,-0.93166 1.79728,-1.23688 0.25331,-0.30523 0.62448,-0.55496 0.82482,-0.55496 0.20035,0 0.10153,0.29032 -0.21958,0.64514 -0.32112,0.35483 -0.58384,0.84045 -0.58384,1.07916 0,0.2387 -0.13471,0.35076 -0.29936,0.249 -0.4065,-0.25124 -1.81731,1.10313 -1.81731,1.74461 0,0.93442 -0.0454,1.04194 -0.56165,1.33086 -0.28134,0.15744 -0.41701,0.43919 -0.30149,0.6261 0.11552,0.18691 0.005,0.29622 -0.2465,0.2429 -0.28549,-0.0606 -0.47587,0.29958 -0.50815,0.9614 -0.0284,0.58208 -0.2277,1.4949 -0.4429,2.02847 -0.21521,0.53358 -0.32395,0.97014 -0.24164,0.97014 0.0823,0 -0.0825,0.55563 -0.36624,1.23472 -0.28374,0.6791 -0.40766,1.23473 -0.27537,1.23473 0.13229,0 1.32505,-0.79129 2.65057,-1.75842 1.32552,-0.96713 2.41004,-1.69942 2.41004,-1.6273 0,0.0721 -1.58312,1.42556 -3.51805,3.00765 -3.48593,2.85027 -3.52615,2.87122 -4.40613,2.29463 -0.98797,-0.64734 -1.13185,-0.49242 -1.32107,1.42249 -0.0878,0.88843 -1.16421,1.91137 -7.14595,6.79097 -3.87343,3.15974 -7.1278,5.74065 -7.23195,5.73537 -0.10414,-0.005 -6.3806,-5.01444 -13.94769,-11.13147 z m 13.82293,6.8416 c -0.11261,-0.28142 -0.1962,-0.19783 -0.21313,0.21313 -0.0153,0.37189 0.0681,0.58025 0.18529,0.46303 0.11722,-0.11723 0.12975,-0.4215 0.0278,-0.67616 z m 8.99378,-3.71685 c 0.22862,-0.27327 -0.0265,-0.23824 -0.69555,0.0955 -0.58115,0.28992 -1.27178,0.79153 -1.53473,1.11468 -0.39243,0.4823 -0.26781,0.46518 0.69556,-0.0955 0.64551,-0.37569 1.33613,-0.8773 1.53472,-1.11468 z m 5.07991,-4.8808 c 0.33934,-1.80887 0.0795,-1.7327 -0.79866,0.2341 -0.72431,1.62224 -0.73063,1.70604 -0.10338,1.37035 0.36746,-0.19666 0.77338,-0.91866 0.90204,-1.60445 z m -2.07168,-1.42929 c 0.42839,-0.46437 1.18105,-0.84303 1.6757,-0.84303 0.77072,0 0.90295,-0.16248 0.93307,-1.14653 0.0193,-0.63059 0.0941,-1.8609 0.16619,-2.73402 l 0.13108,-1.5875 -0.95993,1.08237 c -1.67544,1.88914 -3.06611,3.73698 -3.39766,4.5146 -0.17658,0.41417 -0.51768,1.18172 -0.75799,1.70568 -0.55151,1.20248 0.1164,1.61855 0.90266,0.56232 0.29104,-0.39097 0.87914,-1.09023 1.30688,-1.55389 z m -29.02938,-4.4967 c -0.12233,-0.31881 -0.36978,-0.57966 -0.54988,-0.57966 -0.18021,0 -0.15038,0.33084 0.0663,0.73577 0.4492,0.83935 0.81966,0.71975 0.48355,-0.15611 z m 30.58363,-1.34463 c 1.85731,-1.20349 2.42159,-2.15586 0.66123,-1.11599 -1.40937,0.83253 -3.07154,2.20509 -2.6897,2.22105 0.16692,0.007 1.07974,-0.4903 2.02847,-1.10506 z m -7.50654,-2.51905 c -0.0402,-1.48133 -0.10381,-1.75873 -0.19763,-0.86217 -0.0888,0.84842 -0.38342,1.45304 -0.82264,1.68811 -0.90081,0.4821 -0.88605,1.15854 0.019,0.87128 0.562,-0.17837 0.65629,-0.10063 0.46921,0.38688 -0.15919,0.41486 -0.10204,0.52847 0.17861,0.35503 0.25456,-0.15733 0.39,-1.09209 0.35343,-2.43913 z m -6.64348,-2.29893 c 0,-0.55234 -1.58949,-1.70408 -2.40792,-1.74477 -1.18931,-0.0591 -0.36498,0.82883 1.0281,1.10745 0.59612,0.11922 0.97567,0.37353 0.85322,0.57168 -0.12133,0.19631 -0.0525,0.35692 0.153,0.35692 0.20548,0 0.3736,-0.13108 0.3736,-0.29128 z m -10.05254,-11.34679 c -0.67843,-1.50447 -1.30389,-1.92558 -0.97136,-0.65399 0.1363,0.52122 0.0704,0.68127 -0.20942,0.50835 -0.22459,-0.1388 -0.40835,-0.62044 -0.40835,-1.0703 0,-0.44986 -0.22477,-1.00448 -0.49949,-1.23248 -0.68952,-0.57224 -1.05315,0.61553 -0.57415,1.87539 0.3152,0.82903 1.85735,1.83881 2.57295,1.68474 0.14552,-0.0313 0.26458,0.12824 0.26458,0.3546 0,0.22637 0.10422,0.30736 0.23159,0.17999 0.12738,-0.12738 -0.0555,-0.86821 -0.40635,-1.6463 z m 7.39067,19.59161 c -1.04255,-1.04255 -1.06208,-1.28311 -0.19152,-2.35821 0.95857,-1.18378 4.0225,-1.20867 4.96854,-0.0404 1.91053,2.35942 -2.56765,4.60795 -4.77702,2.39858 z m 27.88548,-3.36743 c 0.35119,-0.38805 0.7179,-0.70555 0.81491,-0.70555 0.097,0 -0.11094,0.3175 -0.46213,0.70555 -0.35119,0.38806 -0.7179,0.70556 -0.81491,0.70556 -0.097,0 0.11094,-0.3175 0.46213,-0.70556 z m 1.5875,-1.19153 c 0,-0.0732 0.27781,-0.35106 0.61736,-0.61736 0.55953,-0.43881 0.57201,-0.42633 0.1332,0.1332 -0.46086,0.58764 -0.75056,0.77451 -0.75056,0.48416 z m -36.96317,-0.76875 c -2.26226,-1.58455 0.78658,-4.0112 3.57557,-2.84589 2.37577,0.99266 1.28788,3.39506 -1.5374,3.39506 -0.68976,0 -1.60694,-0.24713 -2.03817,-0.54917 z m -6.48635,-4.77654 c -1.39191,-0.52919 -1.56876,-1.40452 -0.47401,-2.34617 1.03288,-0.88845 2.38801,-1.01428 3.81017,-0.35381 2.50818,1.16483 -0.65038,3.72109 -3.33616,2.69998 z m 30.99904,-0.66754 c 0.10091,-0.38588 0.3487,-0.59947 0.55065,-0.47466 0.20989,0.12972 0.26199,0.0567 0.12162,-0.1704 -0.36006,-0.58258 0.81207,-2.18113 1.5993,-2.18113 0.37183,0 0.76511,-0.23208 0.87396,-0.51574 0.10885,-0.28366 0.51271,-0.61565 0.89746,-0.73777 0.38475,-0.12211 0.6111,-0.31048 0.50299,-0.41858 -0.1081,-0.10811 0.14351,-0.4915 0.55914,-0.85197 0.41564,-0.36048 0.84931,-0.5533 0.96372,-0.42849 0.11442,0.1248 0.009,0.29812 -0.23514,0.38514 -0.24374,0.087 -0.34247,0.32116 -0.21939,0.52031 0.12308,0.19915 0.0168,0.49004 -0.23626,0.64642 -0.25303,0.15637 -0.51121,0.65456 -0.57374,1.10708 -0.14043,1.01628 -1.99905,2.6559 -3.34597,2.95174 -0.55127,0.12108 -1.0023,0.36628 -1.0023,0.54489 0,0.17861 -0.14389,0.32475 -0.31975,0.32475 -0.17587,0 -0.23719,-0.31572 -0.13629,-0.70159 z m 12.1947,-2.47341 c -0.059,-0.7836 -0.0388,-0.79647 0.7651,-0.48797 0.43888,0.16841 0.4755,0.32786 0.16205,0.70555 -0.56409,0.67969 -0.86488,0.6091 -0.92715,-0.21758 z m -49.57408,-1.49841 c -1.17003,-0.3911 -1.34181,-1.80564 -0.28777,-2.36974 0.87263,-0.46702 3.19819,-0.47605 3.19819,-0.0124 0,0.19403 0.23812,0.35278 0.52916,0.35278 0.61354,0 0.7182,1.25264 0.13478,1.61321 -0.83427,0.51561 -2.64584,0.72653 -3.57436,0.41616 z m 26.27225,-5.75354 c -2.40477,-1.68437 1.01037,-3.8894 3.57193,-2.30627 1.50821,0.93213 1.77664,1.56521 0.97231,2.29313 -0.80432,0.72789 -3.51261,0.73572 -4.54424,0.0131 z m 18.71962,-1.39111 c 0.003,-0.97014 0.0712,-1.32514 0.15225,-0.7889 0.0811,0.53624 0.0789,1.32999 -0.005,1.76389 -0.0838,0.43389 -0.1501,-0.005 -0.14745,-0.97499 z m -11.68414,-2.85629 c -1.07605,-0.75369 -0.8771,-1.93135 0.39769,-2.35399 1.29924,-0.43076 2.37441,-0.12876 3.60634,1.01295 0.96725,0.89642 0.98152,0.95495 0.34605,1.41962 -0.89848,0.65699 -3.36348,0.61246 -4.35008,-0.0786 z m -14.74928,-0.16172 c -1.46218,-0.44048 -1.81075,-1.37515 -0.81387,-2.18237 1.07557,-0.87095 2.7811,-0.75851 4.03501,0.26602 0.93705,0.76563 0.99519,0.9198 0.52444,1.39055 -0.70344,0.70344 -2.37634,0.93828 -3.74558,0.5258 z m 6.87189,-3.90829 c -1.93359,-0.7082 -1.36589,-2.42231 0.80225,-2.42231 1.16071,0 3.13083,1.0589 3.13393,1.68442 0.002,0.48728 -1.44237,1.15491 -2.40199,1.10995 -0.32691,-0.0153 -1.0173,-0.18275 -1.53419,-0.37206 z m -15.26786,-0.98897 c -0.7688,-0.84951 -0.52663,-1.26967 1.02742,-1.78256 1.07115,-0.35351 1.35095,-0.30476 2.37634,0.41405 0.63923,0.4481 1.24136,0.86793 1.33807,0.93296 0.0967,0.065 -0.13207,0.34337 -0.5084,0.61855 -1.02476,0.74932 -3.48598,0.64293 -4.23343,-0.183 z m 7.12363,-3.22549 c -0.9286,-0.54086 -0.74502,-1.24437 0.45436,-1.74117 0.92349,-0.38253 1.24468,-0.35185 2.32227,0.22178 1.51917,0.80871 1.78716,1.17757 1.14912,1.58169 -0.66214,0.41939 -3.16698,0.37964 -3.92575,-0.0623 z m -20.31721,-0.6773 c 0,-0.48507 0.0801,-0.6835 0.17793,-0.44097 0.0979,0.24254 0.0979,0.63941 0,0.88195 -0.0979,0.24253 -0.17793,0.0441 -0.17793,-0.44098 z m 6.73527,0.34179 c -1.03926,-0.41773 -1.01259,-1.31554 0.0535,-1.80128 0.66809,-0.3044 1.15302,-0.25114 2.29306,0.25184 0.79518,0.35083 1.44579,0.82694 1.44579,1.05801 0,0.78118 -2.32269,1.08217 -3.79236,0.49143 z m 7.05555,-3.175 c -1.07363,-0.43155 -1.00365,-1.33399 0.12542,-1.61737 0.95604,-0.23995 3.31417,0.63675 3.31417,1.23213 0,0.73134 -2.01663,0.9572 -3.43959,0.38524 z"
         id="path5676" />
      <path
         style="fill:#af532f;stroke-width:0.352778"
         d="m -616.71499,-278.39667 c -0.01,-0.14874 -0.009,-2.41357 0.003,-5.03294 l 0.0208,-4.7625 1.32018,-1.19378 c 0.72609,-0.65658 2.19962,-1.76783 3.27451,-2.46944 3.20792,-2.09393 5.24922,-3.71728 5.26385,-4.18609 0.0171,-0.54728 -0.17959,-0.55174 -1.15596,-0.0262 -1.32753,0.71449 -3.47035,0.36993 -4.65112,-0.74787 -1.13953,-1.07878 -3.09291,-2.1389 -5.19175,-2.81761 -0.72116,-0.23321 -2.00197,-1.12467 -2.84624,-1.98104 -0.89448,-0.9073 -2.5317,-2.00894 -3.92347,-2.64 -1.43846,-0.65223 -3.04251,-1.74243 -4.03293,-2.741 -0.90447,-0.91192 -2.40142,-2.04166 -3.32655,-2.51053 -0.92513,-0.46886 -2.19513,-1.34693 -2.82222,-1.95126 -0.62718,-0.60433 -1.73556,-1.46397 -2.46317,-1.91032 -0.7276,-0.44634 -1.32292,-1.05522 -1.32292,-1.35307 0,-0.38669 -0.22696,-0.48337 -0.79375,-0.3381 -0.77458,0.19853 -0.77285,0.18754 0.0719,-0.45554 0.85625,-0.65186 0.88101,-0.64854 2.29306,0.30748 0.7851,0.53155 1.66558,1.07431 1.95662,1.20612 0.29104,0.13182 0.93446,0.51573 1.42981,0.85315 5.74911,3.91605 9.23091,6.07534 9.51412,5.90031 0.18973,-0.11726 0.34496,0.0313 0.34496,0.33007 0,0.51018 1.60296,1.188 1.96153,0.82944 0.13702,-0.13703 -5.77274,-4.32701 -10.15779,-7.20182 -0.63379,-0.41551 -1.57063,-1.16957 -2.08186,-1.67569 -0.51123,-0.50613 -1.14623,-0.93138 -1.41111,-0.94502 -0.26488,-0.0136 -0.1641,-0.16123 0.22395,-0.32798 0.38806,-0.16676 0.51409,-0.31435 0.28007,-0.32799 -0.23402,-0.0136 -1.28086,-0.87335 -2.32631,-1.91049 -1.35461,-1.34382 -1.8826,-2.12947 -1.8374,-2.73403 0.0349,-0.46658 -0.0595,-1.39519 -0.20967,-2.06358 -0.34732,-1.54551 -0.005,-2.13438 0.60331,-1.03727 0.25651,0.46278 0.47202,0.65284 0.47889,0.42236 0.0161,-0.53881 1.3538,-0.4481 1.56652,0.10622 0.0887,0.2312 1.08504,0.76547 2.21406,1.18727 1.12901,0.4218 2.33057,1.01753 2.67012,1.32383 0.50173,0.45261 0.61837,0.46409 0.62276,0.0613 0.003,-0.313 0.10091,-0.35897 0.26458,-0.12476 0.14255,0.20399 1.01453,0.65417 1.93773,1.0004 0.92319,0.34624 2.32728,1.17152 3.12018,1.83398 0.7929,0.66245 1.60782,1.20445 1.81093,1.20445 0.3955,0 10.38163,5.63808 11.99937,6.77474 l 0.97014,0.68164 v 4.45116 c 0,4.08886 -0.0626,4.51782 -0.76946,5.27021 -0.75626,0.805 -0.75777,0.82791 -0.0882,1.33444 0.3747,0.28345 0.77621,0.52042 0.89224,0.52659 0.22341,0.0119 0.67098,-6.23334 0.67098,-9.36262 0,-1.72392 0.094,-1.92982 1.32291,-2.89823 0.72761,-0.57335 2.28492,-1.52624 3.46069,-2.11752 1.17578,-0.59128 2.34615,-1.32613 2.60084,-1.63301 0.25468,-0.30687 0.65407,-0.55795 0.88754,-0.55795 0.54541,0 1.95857,-1.49715 1.95857,-2.07498 0,-0.26264 0.25387,-0.36144 0.62559,-0.24346 0.34407,0.10921 1.23422,-0.12766 1.97811,-0.52636 0.74389,-0.3987 1.41639,-0.66103 1.49446,-0.58297 0.0781,0.0781 -0.73271,0.83987 -1.80172,1.69289 -1.72969,1.38022 -2.1306,1.96205 -1.98544,2.88141 0.023,0.14552 -0.10889,0.26458 -0.29305,0.26458 -0.54327,0 -2.15489,2.32361 -2.34721,3.38417 -0.0976,0.53812 -0.6487,1.67672 -1.22472,2.53021 -0.57602,0.8535 -1.37873,2.21348 -1.78381,3.02219 -0.40507,0.80871 -1.08945,1.78787 -1.52083,2.17593 -0.73399,0.66026 -1.43608,2.29305 -0.98601,2.29305 0.11177,0 1.62238,-0.96541 3.35692,-2.14536 1.73454,-1.17995 3.06697,-2.00501 2.96095,-1.83346 -0.10602,0.17154 0.43225,0.69818 1.19616,1.17031 0.76392,0.47212 1.38893,0.98409 1.38893,1.13771 0,0.24079 2.17972,-1.27814 5.75013,-4.00698 1.0253,-0.78364 1.73215,-0.75998 0.78479,0.0263 -0.29573,0.24543 -0.53769,0.6743 -0.53769,0.95303 0,0.27874 -0.13471,0.42354 -0.29936,0.32179 -0.69283,-0.4282 -2.11089,1.59027 -1.72912,2.46123 0.0485,0.11067 -0.19295,0.35855 -0.53658,0.55085 -0.34363,0.19231 -0.53027,0.50257 -0.41475,0.68949 0.11552,0.1869 -2.1e-4,0.29621 -0.25717,0.2429 -0.28585,-0.0593 -0.47372,0.24539 -0.48402,0.78501 -0.009,0.48507 -0.13499,1.22645 -0.27941,1.64751 -0.14442,0.42106 -0.3295,1.11306 -0.4113,1.53777 -0.21969,1.14081 -1.54032,3.74637 -2.15914,4.25995 -0.43887,0.36423 -0.7126,0.34091 -1.48165,-0.12621 -0.87621,-0.53219 -0.93472,-0.71885 -0.82233,-2.62308 0.0666,-1.12756 0.24686,-2.73746 0.40069,-3.57755 0.27816,-1.51921 0.27466,-1.52624 -0.65018,-1.30628 -0.51142,0.12164 -1.35998,0.53118 -1.8857,0.91008 -0.52572,0.3789 -1.12104,0.68892 -1.32292,0.68892 -0.20189,0 -0.36706,0.23812 -0.36706,0.52916 0,0.77476 0.76008,0.64808 2.11666,-0.35277 1.96905,-1.45272 1.923,-1.29743 -0.52688,1.77694 -1.0659,1.3376 -2.1151,2.99311 -2.33156,3.67891 -0.21646,0.68581 -0.83994,1.81732 -1.38552,2.51448 -1.19106,1.52196 -2.19572,3.81072 -1.95178,4.44643 0.097,0.25279 0.0623,0.46086 -0.0771,0.46238 -0.13943,10e-4 -0.4428,0.41065 -0.67416,0.90919 -0.41836,0.90154 -0.41598,0.90339 0.44098,0.3419 0.47388,-0.31051 0.86161,-0.50272 0.86161,-0.42714 0,0.27615 -7.40889,6.23225 -7.42634,5.97013 z m -0.68755,-24.727 c 0,-0.55234 -1.58949,-1.70408 -2.40792,-1.74477 -1.18931,-0.0591 -0.36498,0.82883 1.0281,1.10745 0.59612,0.11922 0.97567,0.37353 0.85322,0.57168 -0.12133,0.19631 -0.0525,0.35692 0.153,0.35692 0.20548,0 0.3736,-0.13108 0.3736,-0.29128 z m -10.05254,-11.34679 c -0.67843,-1.50447 -1.30389,-1.92558 -0.97136,-0.65399 0.1363,0.52122 0.0704,0.68127 -0.20942,0.50835 -0.22459,-0.1388 -0.40835,-0.62044 -0.40835,-1.0703 0,-0.44986 -0.22477,-1.00448 -0.49949,-1.23248 -0.68952,-0.57224 -1.05315,0.61553 -0.57415,1.87539 0.3152,0.82903 1.85735,1.83881 2.57295,1.68474 0.14552,-0.0313 0.26458,0.12824 0.26458,0.3546 0,0.22637 0.10422,0.30736 0.23159,0.17999 0.12738,-0.12738 -0.0555,-0.86821 -0.40635,-1.6463 z m -4.05857,24.34302 -13.93472,-11.26122 -0.61045,-3.27951 c -0.54185,-2.91099 -0.56969,-5.57255 -0.0583,-5.57255 0.37436,0 6.01317,4.42283 7.28294,5.7124 0.72739,0.73874 1.48655,1.34315 1.68702,1.34315 0.46369,0 5.73716,3.68447 6.3771,4.45555 0.26442,0.31862 1.10195,0.97144 1.86117,1.45071 3.88939,2.45527 11.34896,8.30802 11.55383,9.0651 0.33455,1.23637 0.38578,9.37208 0.0589,9.35896 -0.15553,-0.006 -6.55341,-5.07891 -14.21751,-11.27259 z m -1.71979,-5.95807 c -0.3638,-0.36381 -0.73895,-0.87974 -0.83365,-1.14653 -0.0947,-0.26679 -0.27552,-0.39024 -0.40181,-0.27434 -0.27568,0.25299 1.10335,2.08233 1.56974,2.08233 0.17995,0 0.0295,-0.29766 -0.33428,-0.66146 z m -11.56485,-6.48229 c -0.26636,-1.4256 -0.79894,-2.10075 -0.57766,-0.73231 0.2134,1.31979 0.39587,1.87883 0.61324,1.87883 0.0983,0 0.0822,-0.51593 -0.0356,-1.14652 z m -1.15355,-6.37722 c -0.45233,-0.45233 -0.50887,0.52193 -0.10908,1.8793 0.24455,0.83028 0.26644,0.81216 0.37366,-0.30944 0.0626,-0.65526 -0.0564,-1.3617 -0.26458,-1.56986 z m 37.72152,23.57513 c 0.4557,-0.48507 0.90792,-0.88194 1.00494,-0.88194 0.097,0 -0.19646,0.39687 -0.65216,0.88194 -0.4557,0.48507 -0.90792,0.88195 -1.00493,0.88195 -0.097,0 0.19645,-0.39688 0.65215,-0.88195 z m 1.41111,-0.98619 c 0,-0.0899 0.74667,-0.77537 1.65926,-1.52317 0.91259,-0.7478 1.54539,-1.1754 1.40622,-0.95021 -0.29655,0.47982 -3.06548,2.71393 -3.06548,2.47338 z m 3.93033,-3.55174 c 0.249,-0.55558 0.51684,-0.8178 0.5952,-0.58271 0.0784,0.23509 -0.12536,0.68966 -0.45272,1.01015 -0.55717,0.54549 -0.56627,0.51818 -0.14248,-0.42744 z m -16.51907,-4.44231 c -0.95125,-0.40555 -1.59309,-1.53749 -1.30196,-2.29614 0.2467,-0.64291 1.91897,-1.60001 2.79556,-1.60001 0.31986,0 1.1215,0.25621 1.78141,0.56937 0.93782,0.44502 1.19985,0.78227 1.19985,1.5443 0,0.53622 -0.2319,1.1674 -0.51534,1.40263 -0.68542,0.56885 -2.99623,0.79053 -3.95952,0.37985 z m -8.13695,-5.83228 c -2.23598,-1.61503 0.81287,-4.02031 3.613,-2.85035 0.93336,0.38999 1.23769,0.72781 1.23769,1.3739 0,1.14694 -0.75182,1.70323 -2.55783,1.89259 -1.0284,0.10782 -1.74834,-0.0228 -2.29286,-0.41614 z m 26.62884,-4.45764 c 0.2393,-0.2411 0.52396,-0.34949 0.63258,-0.24087 0.10861,0.10861 -0.0872,0.30587 -0.43509,0.43835 -0.50278,0.19145 -0.5433,0.15093 -0.19749,-0.19748 z m -33.12489,-0.34305 c -0.51688,-0.19651 -1.04289,-0.62597 -1.1689,-0.95434 -0.29916,-0.7796 1.30865,-2.18661 2.49867,-2.18661 1.14432,0 2.96142,0.94608 2.96142,1.54188 0,1.29583 -2.5699,2.25349 -4.29119,1.59907 z m 37.13494,-3.03672 c 0.25687,-0.42774 0.54297,-0.70177 0.63578,-0.60896 0.0928,0.0928 -0.11735,0.44278 -0.46704,0.77771 -0.60746,0.58183 -0.61498,0.57431 -0.16874,-0.16875 z m 6.0588,-0.10423 c -0.059,-0.7836 -0.0388,-0.79647 0.7651,-0.48797 0.43888,0.16841 0.4755,0.32786 0.16205,0.70555 -0.56409,0.67969 -0.86488,0.6091 -0.92715,-0.21758 z m -56.13296,-2.11667 c 0,-0.48507 0.0801,-0.68351 0.17794,-0.44097 0.0979,0.24253 0.0979,0.63941 0,0.88194 -0.0979,0.24254 -0.17794,0.0441 -0.17794,-0.44097 z m 6.02971,0.47192 c -0.64644,-0.26085 -0.53757,-1.55553 0.17639,-2.09751 0.78433,-0.59538 2.14866,-0.61569 3.3665,-0.0501 1.1116,0.51624 1.24413,1.49615 0.27267,2.01606 -0.69634,0.37267 -3.0195,0.45277 -3.81556,0.13156 z m 45.13426,-1.79484 c 0.0892,-1.07794 0.26187,-1.3445 0.93234,-1.43946 0.88123,-0.12481 2.17576,0.80926 2.17576,1.56992 0,0.60568 -1.12742,1.19246 -2.29115,1.19246 -0.85483,0 -0.91797,-0.10226 -0.81695,-1.32292 z m -18.35292,-3.82642 c -1.21254,-0.8493 -0.87969,-1.9866 0.73586,-2.51436 1.50379,-0.49124 2.62772,-0.20319 3.80645,0.97553 0.71306,0.71307 0.71947,0.78026 0.1358,1.4252 -0.77596,0.85742 -3.521,0.9241 -4.67811,0.11363 z m -27.50479,-2.70346 c -0.20288,-0.24446 -0.45369,-1.47477 -0.55736,-2.73403 l -0.18848,-2.28956 0.34181,2.11667 c 0.188,1.16416 0.5001,2.39448 0.69354,2.73402 0.40916,0.71817 0.24459,0.81645 -0.28951,0.1729 z m 34.58042,-1.51582 c -1.10536,-0.77422 -0.99051,-1.74916 0.26744,-2.27021 1.32503,-0.54885 2.43062,-0.27662 3.71652,0.91511 0.96725,0.89642 0.98152,0.95495 0.34605,1.41962 -0.89085,0.65141 -3.36042,0.61461 -4.33001,-0.0645 z m -14.76935,-0.18494 c -1.46097,-0.42805 -1.81188,-1.36507 -0.81387,-2.17321 1.07557,-0.87095 2.7811,-0.75851 4.03501,0.26602 0.92701,0.75743 0.99072,0.92152 0.52916,1.36299 -0.71972,0.68841 -2.41731,0.93474 -3.7503,0.5442 z m -20.884,-4.20477 c 0,-0.48507 0.0801,-0.68351 0.17794,-0.44098 0.0979,0.24254 0.0979,0.63941 0,0.88195 -0.0979,0.24253 -0.17794,0.0441 -0.17794,-0.44097 z m 27.75589,0.30564 c -1.17473,-0.43026 -1.48685,-1.17998 -0.7839,-1.88294 0.71693,-0.71693 2.29605,-0.68303 3.63316,0.078 1.32338,0.75321 1.38774,1.40325 0.18424,1.86081 -1.08835,0.41379 -1.7863,0.40094 -3.0335,-0.0559 z m -15.12864,-0.95407 c -0.96887,-0.78454 -0.72412,-1.28534 0.8882,-1.81746 1.07115,-0.35351 1.35095,-0.30476 2.37634,0.41405 0.63923,0.4481 1.24136,0.86793 1.33807,0.93296 0.0967,0.065 -0.13207,0.34337 -0.5084,0.61855 -0.96425,0.70508 -3.13767,0.62646 -4.09421,-0.1481 z m 6.98441,-3.26039 c -0.9286,-0.54086 -0.74502,-1.24437 0.45436,-1.74117 0.92349,-0.38253 1.24468,-0.35185 2.32227,0.22178 1.51917,0.80871 1.78716,1.17757 1.14912,1.58169 -0.66214,0.41939 -3.16698,0.37964 -3.92575,-0.0623 z m -13.58194,-0.33551 c -1.03926,-0.41773 -1.01259,-1.31554 0.0535,-1.80128 0.66809,-0.3044 1.15302,-0.25114 2.29306,0.25184 0.79518,0.35083 1.44579,0.82694 1.44579,1.05801 0,0.78118 -2.32269,1.08217 -3.79236,0.49143 z m 7.05555,-3.175 c -1.07363,-0.43155 -1.00365,-1.33399 0.12542,-1.61737 0.95604,-0.23995 3.31417,0.63675 3.31417,1.23213 0,0.73134 -2.01663,0.9572 -3.43959,0.38524 z"
         id="path5674" />
      <path
         style="fill:#994827;stroke-width:0.352778"
         d="m -616.55705,-283.47415 c 0.25577,-5.75239 0.059,-5.36933 4.0934,-7.97009 1.06715,-0.68794 2.37519,-1.65482 2.90674,-2.14862 0.53155,-0.4938 1.05684,-0.80743 1.16732,-0.69695 0.11047,0.11047 -0.9306,1.13077 -2.31348,2.26733 -2.72381,2.23864 -3.49148,3.44293 -3.71056,5.821 -0.24556,2.66543 -0.81389,5.53145 -1.26348,6.37151 -0.23845,0.44555 -0.39481,0.88549 -0.34747,0.97765 0.0473,0.0922 -0.10383,0.23087 -0.33593,0.30824 -0.32131,0.1071 -0.36821,-1.06918 -0.19654,-4.93007 z m -2.15635,1.15095 c 0.13725,-0.41886 -2.04695,-3.45612 -2.40083,-3.3385 -0.18989,0.0631 -0.96112,-0.5201 -1.71385,-1.29602 -0.75273,-0.77593 -1.59553,-1.41078 -1.8729,-1.41078 -0.27737,0 -0.41577,-0.14326 -0.30756,-0.31835 0.10821,-0.17509 -0.54357,-1.04822 -1.44841,-1.94028 -0.90484,-0.89206 -1.49201,-1.62192 -1.30482,-1.62192 0.18719,0 0.53084,0.1905 0.76368,0.42333 0.32925,0.32926 0.42333,0.32733 0.42333,-0.009 0,-0.23761 -0.71438,-0.86352 -1.5875,-1.3909 -1.16813,-0.70558 -1.5875,-1.18066 -1.5875,-1.7984 0,-0.66025 -0.1006,-0.75603 -0.4711,-0.44854 -0.36887,0.30613 -0.7708,-0.0278 -1.85209,-1.53869 -0.75954,-1.06131 -1.57942,-1.8578 -1.82195,-1.76996 -0.56874,0.20597 -0.56874,-0.41568 0,-1.02912 0.5479,-0.59096 1.75062,-0.0504 3.08681,1.38735 0.48506,0.52194 1.30897,1.17117 1.83089,1.44273 0.52192,0.27156 1.97413,1.24867 3.22714,2.17135 1.25301,0.92267 3.65956,2.68413 5.34789,3.91434 2.65071,1.93145 3.04728,2.35399 2.90548,3.09573 -0.0903,0.47244 -0.0258,1.60007 0.14347,2.50584 0.36756,1.96747 0.16397,2.78333 -0.7545,3.02352 -0.37499,0.0981 -0.64755,0.0737 -0.60568,-0.054 z m -8.56692,-4.4578 c -0.24498,-0.29518 -0.28318,-0.52917 -0.0864,-0.52917 0.19403,0 0.55041,0.23813 0.79195,0.52917 0.24498,0.29518 0.28318,0.52917 0.0864,0.52917 -0.19403,0 -0.5504,-0.23813 -0.79195,-0.52917 z m 25.96587,-5.64401 c -0.62212,-0.47093 -0.64479,-0.75973 -0.32456,-4.13392 0.18936,-1.9952 0.32728,-3.65839 0.30651,-3.69599 -0.12835,-0.23226 -3.12098,0.69156 -3.63197,1.12118 -0.34101,0.28671 -0.93751,0.75738 -1.32557,1.04593 -0.62865,0.46747 -0.63827,0.52587 -0.0882,0.53587 0.33954,0.006 0.61736,0.18695 0.61736,0.40174 0,0.21479 0.23812,0.29914 0.52916,0.18746 0.83323,-0.31974 0.62233,0.0132 -0.52661,0.83131 -0.79461,0.56582 -1.00345,0.61539 -0.8442,0.20042 0.11637,-0.30326 0.0358,-0.57122 -0.17894,-0.59548 -0.21479,-0.0242 -0.54927,-0.0838 -0.7433,-0.13229 -0.19403,-0.0485 -0.98778,-0.10804 -1.76389,-0.13229 -0.99954,-0.0312 -1.41111,-0.19844 -1.41111,-0.57326 0,-0.29104 0.17333,-0.52917 0.38518,-0.52917 0.21184,0 0.80715,-0.32831 1.32291,-0.72958 2.56127,-1.99272 6.81233,-4.91486 7.15003,-4.91486 0.20986,0 0.88233,0.34546 1.49436,0.7677 0.61204,0.42223 1.15109,0.79126 1.1979,0.82006 0.0468,0.0288 -0.0782,1.77542 -0.27769,3.88139 -0.19954,2.10596 -0.38263,4.35631 -0.40685,5.00077 -0.0476,1.2674 -0.43399,1.43519 -1.48053,0.64301 z m -27.74238,-0.58758 c -0.40398,-0.7877 -0.39451,-0.79716 0.215,-0.215 0.35066,0.33493 0.54082,0.70571 0.42257,0.82396 -0.11825,0.11825 -0.40516,-0.15578 -0.63757,-0.60896 z m 9.64888,-1.35559 c -1.56459,-0.63039 -1.81908,-2.44734 -0.44572,-3.18234 1.48729,-0.79598 4.30688,0.0323 4.65611,1.36773 0.4265,1.63093 -2.03416,2.69143 -4.21039,1.81461 z m -18.4624,-0.88756 c -0.37281,-0.44921 -0.35099,-0.50083 0.13319,-0.31504 0.31849,0.12222 0.57907,0.36398 0.57907,0.53725 0,0.45365 -0.20422,0.38994 -0.71226,-0.22221 z m 4.24003,-1.24747 c 0,-0.20548 0.15875,-0.27548 0.35278,-0.15557 0.19403,0.11992 0.35278,0.28804 0.35278,0.3736 0,0.0856 -0.15875,0.15557 -0.35278,0.15557 -0.19403,0 -0.35278,-0.16812 -0.35278,-0.3736 z m 21.30853,-1.33384 c -0.3832,-0.35701 -0.98331,-0.60704 -1.33356,-0.55564 -0.35026,0.0514 -0.53923,-0.004 -0.41993,-0.12344 0.11931,-0.11931 -0.77691,-0.59053 -1.99158,-1.04716 -1.21467,-0.45663 -2.95066,-1.45605 -3.85775,-2.22092 -0.9071,-0.76487 -2.54618,-1.85603 -3.64242,-2.42479 -1.09623,-0.56876 -3.13424,-1.96724 -4.52891,-3.10773 -1.39467,-1.14049 -3.40889,-2.64444 -4.47604,-3.34211 -1.06716,-0.69767 -2.25741,-1.61963 -2.645,-2.0488 -0.3876,-0.42917 -1.14166,-1.00626 -1.6757,-1.28242 -0.53403,-0.27616 -0.97097,-0.66237 -0.97097,-0.85824 0,-0.48384 0.78562,-0.0445 5.99722,3.35354 7.90168,5.15207 9.03684,5.84015 9.6348,5.84015 0.32438,0 0.78755,0.31668 1.02927,0.70373 0.24172,0.38706 2.53378,2.06913 5.09348,3.73794 2.5597,1.66881 4.73954,3.25713 4.8441,3.5296 0.26471,0.68982 -0.22858,0.61809 -1.05701,-0.15371 z m -24.87701,-0.98744 c -0.26393,-0.31802 -0.43274,-0.93785 -0.37514,-1.37741 0.0576,-0.43957 -0.0634,-0.90312 -0.26888,-1.03012 -0.20548,-0.12699 -0.37361,-0.0565 -0.37361,0.15661 0,0.24978 -0.17759,0.22583 -0.49967,-0.0674 -0.83326,-0.75857 0.0196,-1.14858 1.044,-0.47739 0.92438,0.60567 0.93116,0.60364 0.70682,-0.21215 -0.18669,-0.67891 -0.1606,-0.719 0.14847,-0.22807 0.42002,0.66715 0.69281,3.81411 0.33062,3.81411 -0.12801,0 -0.44868,-0.26019 -0.71261,-0.57821 z m 26.75699,-0.15562 c 0.12475,-0.47703 0.28466,-0.63694 0.37273,-0.37273 0.0848,0.25451 -0.0135,0.63047 -0.21848,0.83547 -0.26178,0.26179 -0.30769,0.12405 -0.15425,-0.46274 z m -17.11279,-1.22645 c -0.43123,-0.30204 -0.78405,-0.84866 -0.78405,-1.21472 0,-0.82262 1.28354,-1.76389 2.40529,-1.76389 1.09878,0 2.88638,1.29071 2.88638,2.08407 0,1.2942 -3.06782,1.90302 -4.50762,0.89454 z m 17.26047,-3.36783 c -0.0291,-1.0872 0.0478,-2.93955 0.17078,-4.11634 0.22007,-2.10551 0.2524,-2.15835 2.02792,-3.31494 0.99235,-0.64643 2.43953,-1.45305 3.21594,-1.79248 1.34427,-0.58769 1.37539,-0.58769 0.65185,0 -0.4179,0.33943 -1.64134,1.24237 -2.71876,2.00653 -1.07742,0.76417 -2.11307,1.79604 -2.30145,2.29306 -0.56858,1.5001 -0.8165,4.17007 -0.4105,4.42099 0.20333,0.12567 0.3697,0.38724 0.3697,0.58126 0,0.19403 -0.14794,0.26135 -0.32877,0.14959 -0.18082,-0.11175 -0.39516,0.23607 -0.47631,0.77294 -0.0811,0.53686 -0.17132,0.0866 -0.2004,-1.00061 z m -2.87508,0.39534 c 0,-0.32002 -0.55562,-1.07376 -1.23472,-1.67499 -0.6791,-0.60123 -1.23472,-0.9171 -1.23472,-0.70193 0,0.21517 -0.39501,-0.1442 -0.87781,-0.79859 -0.92124,-1.24867 -0.92812,-1.83078 -0.0127,-1.07102 0.45685,0.37914 0.5377,0.31638 0.5377,-0.4174 0,-0.88192 -1.29674,-2.39774 -2.05121,-2.39774 -0.23003,0 -0.41823,-0.3175 -0.41823,-0.70556 0,-0.38805 -0.15875,-0.7254 -0.35278,-0.74965 -0.19403,-0.0243 -0.54471,-0.0639 -0.77929,-0.0882 -0.38362,-0.0397 -1.09743,-2.34192 -0.81399,-2.62536 0.0641,-0.0641 0.59972,0.13323 1.1902,0.43858 0.59048,0.30535 1.33638,0.55518 1.65755,0.55518 0.5055,0 1.07565,0.37398 3.21325,2.10768 0.22592,0.18324 0.81472,0.43455 1.30844,0.55846 0.49372,0.12392 1.06539,0.42739 1.27038,0.67439 0.52304,0.63022 0.70181,6.6004 0.2123,7.08991 -0.58766,0.58766 -1.6144,0.46442 -1.6144,-0.19377 z m -29.25495,-0.93564 c -1.1581,-1.47229 -0.92317,-2.19872 0.31738,-0.98136 1.033,1.0137 1.38089,1.91088 0.74096,1.91088 -0.17995,0 -0.6562,-0.41828 -1.05834,-0.92952 z m 8.50735,-0.90803 c -1.00157,-0.26628 -1.15272,-0.44657 -1.05833,-1.26241 0.0739,-0.63852 0.44113,-1.10972 1.11591,-1.43169 0.88417,-0.42189 1.15549,-0.40087 2.2436,0.17378 1.34578,0.71074 1.79756,1.3923 1.27155,1.9183 -0.61665,0.61665 -2.39228,0.91586 -3.57273,0.60202 z m -7.05128,-4.93578 c -0.65449,-0.65449 -0.50618,-1.27001 0.45827,-1.90194 0.81666,-0.5351 0.9715,-0.535 2.10168,10e-4 1.49588,0.70984 1.7915,1.14239 1.23722,1.81026 -0.51882,0.62515 -3.19863,0.68893 -3.79717,0.0904 z m 45.08981,-0.89958 c 0.0165,-2.11123 0.88016,-2.71052 2.38613,-1.65569 0.92942,0.65098 0.97279,0.97558 0.22969,1.71868 -0.78339,0.78339 -2.62208,0.73911 -2.61582,-0.063 z m -26.46315,-2.57846 c 0,-0.46476 0.14865,-0.6345 0.41273,-0.4713 0.27751,0.17152 0.33893,0.0628 0.18746,-0.33195 -0.1239,-0.32288 -0.0983,-0.58704 0.0568,-0.58704 0.41342,0 1.2663,1.72205 0.98981,1.99854 -0.12964,0.12964 -0.23572,0.0505 -0.23572,-0.17586 0,-0.22636 -0.16812,-0.41157 -0.37359,-0.41157 -0.20548,0 -0.27549,0.15875 -0.15557,0.35278 0.11991,0.19402 -0.0295,0.35277 -0.33196,0.35277 -0.32006,0 -0.54999,-0.30367 -0.54999,-0.72637 z m 19.05,-0.11237 c 0,-0.0733 0.27781,-0.35107 0.61736,-0.61737 0.55953,-0.43881 0.57201,-0.42633 0.1332,0.1332 -0.46086,0.58764 -0.75056,0.77451 -0.75056,0.48417 z m -10.85761,-1.82709 c -1.03273,-0.72335 -1.00152,-1.83632 0.0651,-2.32231 0.66488,-0.30294 1.20442,-0.25124 2.48608,0.23823 1.96202,0.74931 2.65814,1.71611 1.63131,2.26566 -1.01708,0.54432 -3.28682,0.44578 -4.18251,-0.18158 z m -10.30905,-0.86194 c 0,-0.19403 0.16811,-0.35278 0.37359,-0.35278 0.20548,0 0.27549,0.15875 0.15557,0.35278 -0.11991,0.19402 -0.28803,0.35277 -0.3736,0.35277 -0.0856,0 -0.15556,-0.15875 -0.15556,-0.35277 z m 24.77423,-0.20238 c 0.33493,-0.35066 0.70572,-0.54082 0.82397,-0.42257 0.11825,0.11825 -0.15578,0.40516 -0.60896,0.63757 -0.78771,0.40398 -0.79717,0.39451 -0.21501,-0.215 z m -7.53724,-3.3033 c -0.6769,-0.5555 -0.76004,-0.80318 -0.44402,-1.32292 0.53503,-0.87994 1.63651,-0.97233 3.0269,-0.25388 1.4792,0.76436 2.15979,1.62 1.5813,1.98803 -0.82951,0.52774 -3.31964,0.28183 -4.16418,-0.41123 z m -15.49071,-0.67097 -0.80132,-0.64887 0.7431,-0.74311 c 0.63835,-0.63835 0.90742,-0.69204 1.90877,-0.3809 0.64112,0.19921 1.4288,0.4434 1.75041,0.54264 0.59416,0.18336 1.08825,1.32324 0.7292,1.68229 -0.48675,0.48675 -3.56804,0.16507 -4.33016,-0.45205 z m 8.16488,-3.19547 c -1.27555,-0.34371 -1.78286,-1.36826 -0.97486,-1.96881 0.49653,-0.36905 0.9047,-0.39353 1.76389,-0.10578 1.34836,0.45159 2.47259,1.36449 2.09634,1.70227 -0.46257,0.41527 -1.99309,0.61276 -2.88537,0.37232 z m -15.47711,-0.93817 c -0.97415,-0.68232 -0.98959,-1.07989 -0.0612,-1.57674 0.88295,-0.47254 2.77905,0.0644 3.65833,1.03603 0.55099,0.60884 0.53776,0.66034 -0.22192,0.86385 -1.36455,0.36553 -2.55466,0.25159 -3.37519,-0.32314 z m 7.00173,-3.59324 c -0.74411,-0.60254 -0.7593,-0.68595 -0.20823,-1.1433 0.50962,-0.42295 0.80422,-0.42082 2.06469,0.0149 1.8581,0.64236 1.96797,1.52486 0.20824,1.67247 -0.82733,0.0694 -1.5385,-0.11802 -2.0647,-0.54411 z m -13.42838,-0.0534 c -1.11209,-0.30944 -1.34394,-1.31106 -0.37469,-1.61869 0.87881,-0.27892 2.08759,0.0552 2.9535,0.81642 0.61865,0.54384 0.61865,0.57151 0,0.81542 -0.78469,0.30938 -1.43155,0.30608 -2.57881,-0.0132 z m 6.78912,-3.22355 c -0.91081,-0.3661 -1.00424,-0.78625 -0.30406,-1.36735 0.516,-0.42824 2.03303,0.0355 2.94083,0.89899 0.79816,0.7592 -1.08223,1.09321 -2.63677,0.46836 z"
         id="path5672" />
      <path
         style="fill:#88391d;stroke-width:0.352778"
         d="m -601.22388,-292.5901 c -0.45805,-0.3816 -0.65899,-0.6991 -0.44653,-0.70555 0.21246,-0.006 0.67363,0.30576 1.02481,0.69382 0.81701,0.90278 0.49905,0.90923 -0.57828,0.0117 z m -0.22744,-4.36516 0.17646,-3.37356 -1.06093,-0.36984 c -0.58351,-0.20341 -1.37417,-0.36984 -1.75703,-0.36984 -0.5881,0 -0.62585,-0.0847 -0.24328,-0.54563 0.24907,-0.3001 0.91041,-0.87146 1.46966,-1.26968 l 1.01683,-0.72404 1.23703,0.8287 1.23704,0.82871 -0.20549,2.29305 c -0.40295,4.49634 -0.59015,5.29615 -1.3326,5.6935 -0.69909,0.37413 -0.71043,0.31105 -0.53769,-2.99137 z m -17.97969,2.43013 c -1.86107,-0.83123 -1.42477,-3.02161 0.59972,-3.01078 1.48694,0.008 2.27582,0.35016 2.96995,1.28828 0.56102,0.75822 0.58659,0.96364 0.17166,1.37857 -0.752,0.752 -2.47337,0.91024 -3.74133,0.34393 z m 12.6118,-2.31004 c 0,-0.19402 0.2475,-0.35277 0.54999,-0.35277 0.30249,0 0.45187,0.15875 0.33196,0.35277 -0.11992,0.19403 -0.36741,0.35278 -0.54999,0.35278 -0.18258,0 -0.33196,-0.15875 -0.33196,-0.35278 z m -20.46111,-3.26141 c -1.15216,-0.60563 -1.1915,-2.03147 -0.0715,-2.58987 1.64109,-0.81818 4.85283,1.21103 3.71603,2.34782 -0.59306,0.59307 -2.7094,0.73362 -3.64457,0.24205 z m 10.31875,-0.38892 c -0.63059,-0.20687 -1.14652,-0.50205 -1.14652,-0.65595 0,-0.15391 -0.14197,-0.27983 -0.31547,-0.27983 -0.36536,0 -2.50676,-1.93833 -2.50676,-2.26904 0,-0.29422 3.86446,2.15256 4.7527,3.00917 0.38267,0.36905 0.62079,0.64866 0.52917,0.62138 -0.0916,-0.0273 -0.68253,-0.21886 -1.31312,-0.42573 z m 10.49514,0.33669 c 0,-0.0763 0.24637,-0.23319 0.54749,-0.34874 0.31395,-0.12047 0.45555,-0.0613 0.33196,0.13865 -0.20717,0.33521 -0.87945,0.49581 -0.87945,0.21009 z m -15.68183,-4.06755 c -0.11069,-0.1791 -0.636,-0.42577 -1.16735,-0.54817 -1.05264,-0.24247 -3.89748,-2.48601 -3.56892,-2.81457 0.20641,-0.20642 5.60144,3.16929 5.60144,3.50487 0,0.31016 -0.65182,0.20308 -0.86517,-0.14213 z m -12.46983,-1.15603 c -1.23084,-1.23084 0.25731,-2.72255 2.08162,-2.08659 1.12423,0.39191 2.08115,1.19262 2.08115,1.74143 0,0.8095 -3.41525,1.09268 -4.16277,0.34516 z m -6.4451,-4.72151 c -1.27941,-1.5416 1.8507,-2.3598 3.3351,-0.87179 0.6419,0.64346 0.67231,0.7952 0.21722,1.08396 -0.84675,0.53727 -3.03901,0.40633 -3.55232,-0.21217 z m 45.31052,-0.94057 c 0.117,-0.43656 0.21489,-0.98822 0.21754,-1.2259 0.006,-0.52559 2.15921,-0.18966 2.56042,0.39943 0.36695,0.53878 -1.03918,1.62022 -2.10667,1.62022 -0.74459,0 -0.85046,-0.12518 -0.67129,-0.79375 z m -18.04172,-4.15903 c -0.99977,-0.40154 -1.40514,-1.36483 -0.74914,-1.7802 0.27081,-0.17148 1.09527,-0.3142 1.83214,-0.31717 1.00353,-0.004 1.55922,0.23139 2.21421,0.93814 0.662,0.71431 0.76504,1.01297 0.42412,1.22932 -0.59231,0.37588 -2.71026,0.336 -3.72133,-0.0701 z m 6.97831,-4.3217 c -2.02506,-1.02456 -0.79628,-2.27394 1.58876,-1.6154 1.1777,0.32518 2.14842,1.38753 1.68829,1.84766 -0.37673,0.37674 -2.34975,0.2369 -3.27705,-0.23226 z m -15.69163,-0.72867 c -0.99804,-0.72979 -0.44921,-1.63852 0.98958,-1.63852 1.25606,0 3.21375,1.22528 2.86341,1.79214 -0.30739,0.49737 -3.11585,0.38539 -3.85299,-0.15362 z m 7.14829,-3.77524 c -0.92258,-0.53787 -0.36482,-1.39184 0.90504,-1.38565 1.19241,0.006 1.54568,0.18119 2.29851,1.14112 0.44538,0.5679 0.36058,0.6165 -1.05834,0.60664 -0.84837,-0.006 -1.81372,-0.16885 -2.14521,-0.36211 z m -14.79223,-0.6581 -0.83283,-0.67815 0.96707,-0.37028 c 0.53189,-0.20366 1.23924,-0.26585 1.57188,-0.1382 0.91459,0.35096 1.85753,1.24802 1.65549,1.57494 -0.33638,0.54427 -2.52709,0.29122 -3.36161,-0.38831 z m 7.36925,-3.23066 c -1.54014,-0.89705 -0.007,-1.62849 1.70788,-0.81477 0.66139,0.31386 1.20254,0.71131 1.20254,0.88323 0,0.4265 -2.14734,0.37599 -2.91042,-0.0685 z m -13.63056,-0.41791 c -0.4633,-0.23968 -0.82465,-0.58594 -0.803,-0.76947 0.0511,-0.43296 1.82175,-0.67468 1.82175,-0.24868 0,0.17803 0.35719,0.42158 0.79375,0.54122 0.66215,0.18146 0.70602,0.27512 0.26459,0.56491 -0.69163,0.45404 -1.05945,0.43846 -2.07709,-0.088 z m 7.14027,-3.07925 c -0.41671,-0.16813 -0.85149,-0.45752 -0.96617,-0.64308 -0.38542,-0.62363 1.00858,-0.65977 2.00863,-0.0521 0.81349,0.49432 0.8871,0.64143 0.41212,0.8237 -0.31803,0.12204 -0.60495,0.21183 -0.63759,0.19953 -0.0326,-0.0123 -0.40028,-0.15993 -0.81699,-0.32806 z"
         id="path5670" />
      <path
         style="fill:#6f2913;stroke-width:0.352778"
         d="m -619.43101,-294.52513 c -0.63059,-0.28165 -1.14653,-0.73962 -1.14653,-1.01771 0,-0.7846 1.6734,-1.72071 2.57372,-1.43977 1.12709,0.35172 2.55664,1.86098 2.14889,2.26872 -0.6124,0.61241 -2.41457,0.70753 -3.57608,0.18876 z m 18.0665,-3.17048 0.24592,-2.62434 -1.4392,-0.73422 c -0.79156,-0.40382 -1.43919,-0.79956 -1.43919,-0.87942 0,-0.0799 0.47625,-0.48432 1.05833,-0.8988 l 1.05833,-0.7536 1.07222,0.76349 c 1.06207,0.75626 1.07065,0.78847 0.90594,3.40071 -0.1479,2.34569 -0.83848,4.35051 -1.49857,4.35051 -0.11534,0 -0.099,-1.18095 0.0362,-2.62433 z m -25.80703,-2.38316 c -1.64578,-0.79531 -1.21015,-2.45329 0.60573,-2.30535 0.9804,0.0799 2.81327,1.36836 2.81327,1.9777 0,0.70384 -2.20355,0.91501 -3.419,0.32765 z m -7.4305,-5.27757 c -0.58672,-0.58671 -0.55813,-1.58833 0.052,-1.82246 0.65909,-0.25291 3.45304,1.1546 3.28824,1.65652 -0.1851,0.56374 -2.81194,0.69425 -3.34024,0.16594 z m -6.17203,-4.55986 c -0.76874,-0.44775 -0.79702,-1.24725 -0.0587,-1.66042 0.39846,-0.22299 0.85363,-0.0538 1.5875,0.5902 0.56588,0.49655 1.02887,1.02621 1.02887,1.17703 0,0.39426 -1.82846,0.3179 -2.55764,-0.10681 z m 45.02962,-0.88254 c 0.11777,-0.30691 0.21413,-0.70379 0.21413,-0.88195 0,-0.59383 1.23538,-0.33355 1.66243,0.35026 0.34203,0.54769 0.31945,0.71317 -0.12038,0.88195 -1.08284,0.41552 -1.98128,0.23633 -1.75618,-0.35026 z m -18.12483,-4.53824 -0.87645,-0.48515 1.22923,-0.3399 c 1.26652,-0.35022 2.4465,0.0481 2.73861,0.92442 0.19201,0.57604 -1.9984,0.50563 -3.09139,-0.0994 z m 7.05556,-4.23333 -0.87646,-0.48515 1.21143,-0.31391 c 0.97773,-0.25336 1.33395,-0.19139 1.84659,0.32125 0.34935,0.34935 0.63518,0.71455 0.63518,0.81157 0,0.36592 -1.97561,0.13183 -2.81674,-0.33376 z m -15.46909,-0.5045 c -0.37536,-0.23794 -0.35169,-0.34389 0.11704,-0.52376 0.91449,-0.35092 1.70317,-0.24953 2.44941,0.3149 0.63922,0.48348 0.59227,0.51759 -0.70556,0.51255 -0.76469,-0.003 -1.60209,-0.13963 -1.86089,-0.30369 z m 7.17333,-3.90862 c -0.64434,-0.26261 -0.61879,-0.31034 0.29444,-0.55011 0.72182,-0.18951 1.15991,-0.10262 1.5749,0.31236 0.53135,0.53135 0.50905,0.57302 -0.29444,0.55011 -0.47814,-0.0136 -1.18685,-0.1542 -1.5749,-0.31236 z m -14.2875,-0.3684 c -0.43819,-0.28318 -0.40786,-0.34198 0.17639,-0.34198 0.38805,0 0.94368,0.15389 1.23472,0.34198 0.43818,0.28318 0.40786,0.34197 -0.17639,0.34197 -0.38806,0 -0.94368,-0.15389 -1.23472,-0.34197 z m 6.87916,-3.52778 -0.70555,-0.30319 0.70555,-0.0194 c 0.38806,-0.0107 0.94368,0.13449 1.23473,0.32258 0.47037,0.30398 0.47037,0.33982 0,0.32258 -0.29105,-0.0107 -0.84667,-0.15583 -1.23473,-0.32258 z"
         id="path5668" />
    </g>
  </g>
</svg>
