<svg xmlns="http://www.w3.org/2000/svg" width="277.3" height="277.3" viewBox="0 0 73.4 73.4">
  <path d="M44.4 210v-36.7h73.4v73.4H44.4Z" style="fill:#fefefe;stroke-width:.352778" transform="translate(-44.5 -173.2)"/>
  <path d="M75.6 237.9a31.6 31.6 0 0 1-16.5-7.5 16.5 16.5 0 0 1-5.3-10.5c-.4-1.8-.8-3.8-1.1-4.4-.3-.5-.7-2-.9-3-.3-1.9-.3-2.4.2-3.4s.5-1.4 0-3.7c-.6-3-.2-6.2 1-9 1-2.3 4.5-6 7.1-7.5a33 33 0 0 0 2.7-1.9c.5-.3 1-.6 1.4-.6a46.3 46.3 0 0 1 28.7-1.8c.2.2 1.3.6 2.3 1 2.9.8 7 3 9.4 5 5.2 4.1 7.3 10.5 5.4 15.9-.3 1.1-.6 2.9-.6 4.2 0 1.2-.4 3.6-.7 5.3l-1.2 5.2c-.6 3.5-2.1 6.2-4.8 9-6 6-16.7 9-27.1 7.7zm-9-38c.3-.2.4-.6.3-.7-.3-.2-1.3.5-1.3 1s.6.4 1-.2zm-6.4-7.4c.9-.5 1-1.2.4-1.2-.5 0-1.7 1-1.7 1.5 0 .4.5.4 1.3-.3zm7.8 0c1.1-.3 1-1-.2-.7-1.1.3-2 1-1.1 1l1.3-.3zm10.3-.5c0-.2-.4-.3-1-.3-.7 0-.8 0-.4.3.7.5 1.4.5 1.4 0zm-9.3-4.4h-.6c-.3 0-.2.2.2.2.3 0 .5 0 .4-.2z" style="fill:#f4d2a1;stroke-width:.352778" transform="translate(-44.5 -173.2)"/>
  <path d="M75.3 237.8c-8-1.3-14.3-4.6-18-9.3a18.1 18.1 0 0 1-3.5-8.8c-.3-1.6-.7-3.5-1-4.2-.8-1.7-1.4-5.1-1-5.6.8-1.3 1-2.6.5-4.1-1.3-4.1.2-9.6 3.5-13.3a29 29 0 0 1 10.4-6.5 40 40 0 0 1 16.5-2.6c11 .6 18.5 3.5 24 9.3 4 4.2 5 10.7 2.4 15.1-1 1.8-4.8 5.6-5.8 6-.6.1-1 .8-.4.8.4 0 4-3 5.2-4.4l1.3-1.4-.2 2.6a26 26 0 0 1-.7 4.6l-1 4.8c-.7 3.7-2.1 6.5-4.5 9a28 28 0 0 1-14.5 7.5 44 44 0 0 1-13.2.5zm21.1-14.5c2.2-.8 4-1.7 4-2 .3-.7-1.6-.3-5 1.1l-4.3 1.8c-1.1.4-.6 1.1.6.8l4.7-1.7zm5.4-8.3c-.1 0-.4 0-.7.3-.3.3-.3.4.2.2.4-.2.6-.4.5-.5zm-23.6-11.5c.6-1.3.6-1.6-.2-1.6s-2.3 1.6-2 2.1c.4.7 1.8.4 2.2-.5zm12.4-2.2c0-.2-.3-.9-.9-1.4-.8-.8-1-.9-1.2-.3-.2.3-.3.9-.2 1.2.4 1 2 1.4 2.3.5zm-23.8-1c.7-.7.8-2.4.1-2-1 .5-1.7 1.3-1.7 1.9 0 .8.9.9 1.6.1zm35.5-3.7c0-.4-1.5-1.4-2.2-1.4-1 0-.6.8.4 1.3 1 .6 1.8.6 1.8.1zm-14.1-2.8c.9-.5.9-1.3 0-1.8-1.4-.7-2.4.7-1.4 1.7.5.5.5.5 1.4 0zm-27.5-1.3c.8-.7.8-1.1.1-1.4-.7-.3-2 .8-2 1.7 0 .7.9.6 2-.3zm7.8 0 1.2-.6-1.2-.2c-1.1 0-2.2.4-2.2 1s1 .4 2.2-.2zm10.9-.1c0-.5-1.7-1.2-2.3-1-.3.2-.6.5-.6.8 0 .4.4.5 1.4.5.8 0 1.5-.1 1.5-.3zm16-2.6c-.3-.3-.8-.4-1.2-.3-.4.2-.4.2.2.5l1.2.2c.4 0 .4 0-.1-.4zm-24.9-2.2c.3-.3-1.1-.6-2-.4-1.3.4-1 1 .5.7a3 3 0 0 0 1.5-.3zm19-2.3c0-.2-.3-.3-.8-.3s-.9.1-.9.3c0 .2.4.4.9.4s.9-.2.9-.4zm-10.6-.7c.1-.2 0-.3-.3-.3-.2.1-.5.4-.6.7 0 .2 0 .4.3.3.3-.1.5-.4.6-.7z" style="fill:#f7c56d;stroke-width:.352778" transform="translate(-44.5 -173.2)"/>
  <path d="M75.3 237.7a28.1 28.1 0 0 1-18-9.2 18.1 18.1 0 0 1-3.5-8.8c-.3-1.6-.7-3.5-1-4.2-.8-1.8-1.4-5-1-5.8l.7-1.4.3-1 .6 1.1c.9 1.7.6.8-.3-1.2-2.4-4.6-1.1-10.5 3-15a30 30 0 0 1 10-6.2c9.2-4 24.9-3.3 34 1.7 4.3 2.3 7.3 5.1 9 8.6.9 1.8 1.1 2.8 1.2 5 .2 2.3 0 3-.8 4.6a24.2 24.2 0 0 1-5.7 7.2c-.9.6-1.4 1.2-1.1 1.3.4.3 3.8-2.3 5.5-4.2l1.2-1.4-.2 2.8a19.8 19.8 0 0 1-5.2 12.2c-.2 0-.3.3-.3.6 0 .7 2.1-1.5 3.2-3.4.6-1.1.6-1.2.7-.5 0 .5-.4 1.8-.8 3-2.5 7.7-11 13.1-22 14.4-4 .4-6 .4-9.5-.2zm19.5-13.3c6.7-2.6 8.6-3.9 8.5-5.7 0-.2-.1 0-.3.4-.2.5-.6.8-1 .8-1 0-4 1-4.3 1.5-.2.2-.3.3-.4.2-.3-.1-3.8 1.2-3.8 1.5 0 .2-.3.2-.6.1s-.5 0-.5.2-.3.3-.6.1c-.4-.1-.5 0-.3.2.1.3 0 .4-.3.2-.3-.1-.8 0-1 .2a6 6 0 0 1-1.8.6c-1.9.3-1.2.8 1.2.8 1.5 0 2.9-.3 5.2-1.1zm7-9.4c-.1 0-.4 0-.7.3-.3.3-.3.4.2.2.4-.2.6-.4.5-.5zM55 210.2c0-.3-.3-.5-.5-.5s-.2.2 0 .5l.6.5v-.5zm23.1-6.7c.6-1.3.6-1.6-.2-1.6s-2.3 1.6-2 2.1c.4.7 1.8.4 2.2-.5zm12.4-2.2c0-.2-.3-.9-.9-1.4-.8-.8-1-.9-1.2-.3-.2.3-.3.9-.2 1.2.4 1 2 1.4 2.3.5zm-23.8-1c.7-.7.8-2.4.1-2-1 .5-1.7 1.3-1.7 1.9 0 .8.9.9 1.6.1zm35.5-3.7c0-.4-1.5-1.4-2.2-1.4-1 0-.6.8.4 1.3 1 .6 1.8.6 1.8.1zm-14.1-2.8c.9-.5.9-1.3 0-1.8-1.4-.7-2.4.7-1.4 1.7.5.5.5.5 1.4 0zm-27.4-1.4c.5-.5.5-.8.3-1.3-.3-.5-.5-.5-1.5.5-.6.6-1 1.3-1 1.5.4.4 1.5 0 2.2-.7zm7.7 0 1.2-.5-1.2-.2c-1.1 0-2.2.4-2.2 1s1 .4 2.2-.2zm10.9 0c0-.5-1.7-1.2-2.3-1-.3.2-.6.5-.6.8 0 .4.4.5 1.4.5.8 0 1.5-.1 1.5-.3zm16-2.6c-.3-.3-.8-.4-1.2-.3-.4.2-.4.2.2.5l1.2.2c.4 0 .4 0-.1-.4zm-24.9-2.2c.3-.3-1.1-.6-2-.4-1.3.4-1 1 .5.7a3 3 0 0 0 1.5-.3zm19-2.3c0-.2-.3-.3-.8-.3s-.9.1-.9.3c0 .2.4.4.9.4s.9-.2.9-.4zm-10.6-.7c.1-.2 0-.3-.3-.3-.2.1-.5.4-.6.7 0 .2 0 .4.3.3.3-.1.5-.4.6-.7z" style="fill:#deb28b;stroke-width:.352778" transform="translate(-44.5 -173.2)"/>
  <path d="M76.9 238a33.2 33.2 0 0 1-14.3-4.9c-5.3-3.5-8-7.8-8.8-13.9-.2-1-.6-2.6-1-3.5-1-2.2-1.1-5.2-.5-7l.5-1.3.4 1c.2.6.5 1 .6.8l-.8-2c-.8-1.6-1-2.4-1-4.8 0-3.5.5-5.1 2.4-8 4-6 13.3-10.2 24.2-11 1.9-.2 2.9-.1 2.9.1 0 .3.8.3 2.2.2 4.6-.4 13.1 1.9 18 5 5.4 3.3 8.4 7.7 8.6 12.6.2 3-.2 4-2.6 7.5a17.4 17.4 0 0 1-9 7.1l-2.8 1c-.5.3-1.6.7-2.4.9-3 .8-3.5 1-2.7 1 1 0 6.3-1.5 8.7-2.4a28 28 0 0 0 8.3-5.8l1.6-1.8-.2 2.7a20.2 20.2 0 0 1-5.2 12.3c-.2 0-.3.3-.3.6 0 .7 2-1.5 3.2-3.4l.7-1.3-.2 1.6a18 18 0 0 1-1.4 4.1c-4 8.4-16.6 13.8-29.1 12.5zm17.9-13.6c6.7-2.6 8.6-3.9 8.5-5.7 0-.2-.1 0-.3.4-.2.5-.6.8-1 .8a162 162 0 0 0-13.5 4.8c-2 .3-1.3.8 1 .8 1.6 0 3-.3 5.3-1.1zm-7.2-5.2c.2-.2 0-.3-.3-.1-.6.2-.7.5-.2.5.2 0 .4-.2.5-.4zm2-.4c.6-.4 0-.4-.9 0-.5.2-.5.4-.2.4s.8-.2 1-.4zm-29.4-4.5-1-.5c-.8-.2-.8-.2-.2.3.8.6 1.5.7 1.2.2zm-3.7-2.4a8.3 8.3 0 0 1-1.6-1.9c0-.3-.3-.4-.5-.2s2.7 3.4 3.3 3.4l-1.2-1.3zm21.5-7.7c.6-.6 1-2.6.4-2.6-.5 0-2.2 1.2-2.4 1.8-.4 1.3.8 1.8 2 .8zm12.5-2.8c.3-.7-1.4-2.5-2-2.2-.5.4-.4 1.8.1 2.3.6.6 1.7.5 2-.1zm-23.6-1c.6-.7.8-1.5.5-2-.4-.6-2.2.9-2.2 1.8 0 .8 1.2 1 1.7.2zm35.7-3.3c0-.6-1.6-1.9-2.3-1.9-1.2 0-1 .8.3 1.5 1.2.6 2 .8 2 .4zM89 193c0-1.5-2.2-2-2.4-.5-.2 1.1.8 2 1.7 1.5.4-.2.7-.6.7-1zm-28.8 0c1-.5 1.5-1.7 1-2.2-.5-.5-2.7 1.6-2.4 2.2.3.4.3.4 1.4 0zm8.8-.6 1.1-.6-1.3-.2c-1.3 0-2.4.4-2.4 1s1.4.4 2.6-.2zm10.8.2c0-.5-1.7-1.4-2.4-1.3-.8.2-1 1.2-.2 1.4 1.2.4 2.6.3 2.6 0zm15.8-3c-.3-.3-.8-.5-1.1-.4-.9.4-.4 1 .7 1 1 0 1 0 .4-.6zm-25.7-1.9c.8-.2.8-.3.3-.5-.8-.4-2.1-.1-2.3.4-.2.5.6.5 2 .1zm19.8-2.5c0-.2-.4-.3-.9-.3s-.9.1-.9.3c0 .2.4.4.9.4s.9-.2.9-.4zM79 185c.3-.2.4-.4.3-.6-.4-.3-1.4.1-1.4.6 0 .4.4.4 1 0z" style="fill:#f0ae6d;stroke-width:.352778" transform="translate(-44.5 -173.2)"/>
  <path d="M76.9 238c-10.9-1.2-19.5-6.8-22.2-14.3l-.8-4c-.1-1.2-.6-3-1-3.9-1-2.2-1.2-4.7-.7-6.6l.4-1.6.9 1.3c2 3 6.1 6.2 6.9 5.4.5-.5 1-.5.8 0-.2.3-.1.3.1.2.5-.3.2-1-.4-1-.3 0-.8-.3-1.1-.6l-.9-.7c-.1 0-1.5-1-3-2.3-3.3-3-4.3-5.1-4-8.6.7-6.7 5-11.3 14.2-15.2 4-1.7 15.4-3.6 15.4-2.6 0 .3.8.3 2.2.2 4.7-.4 13.1 1.9 18 5a20 20 0 0 1 7.5 7.8c1.3 2.7 1.6 6.4.6 8.6-1 2.2-4.5 6.3-5.4 6.3-.3 0-.7.3-.8.5-.1.3-.8.8-1.5 1.1-1.6.8-3.4 2-3.8 2.6-.3.5-2.8 1.6-4.8 2.2-3 .8-3.5 1-2.7 1 1 0 6.4-1.5 9-2.6 3.3-1.4 5.6-3 7.7-5.3l1.8-2v1.5c0 5.6-3 11.6-7.5 15.2-2 1.6-1.8 1.8.4.3l1.8-1.1a21 21 0 0 0 3-4c1.3-2.4.1 2.5-1.3 5.4-4 7.7-16.8 13-28.8 11.7zm-12.5-9-1.5-.9c-1.7-.8-6-4.7-7.4-7-1.5-2.1-1.6-1.7-.2.7 1 1.8 4.2 5.2 5 5.2.1 0 1 .5 1.8 1.2 1.5 1.1 2.7 1.7 2.3.9zm30.8-4.8c6.5-2.6 8.2-3.7 8.1-5.5 0-.2-.1 0-.3.4-.2.5-.7.8-1.8 1a47 47 0 0 0-7.5 2.5 40.5 40.5 0 0 1-6.5 2c-.6-.1-.6 0 0 .7.8.7 4.9.2 8-1zm-7.6-5c.2-.2 0-.3-.3-.1-.6.2-.7.5-.2.5.2 0 .4-.2.5-.4zm2-.4c.6-.4 0-.4-.9 0-.5.2-.5.4-.2.4s.8-.2 1-.4zM78 204.2c.8-.8.9-2.8 0-2.5l-.8.2c-.5 0-1.5 1.7-1.2 2.3.2.7 1.2.7 2 0zm12.5-2.8c.3-.7-1.4-2.5-2-2.2-.5.4-.4 1.8.1 2.3.6.6 1.7.5 2-.1zm-23.6-1c1-1.3.7-2.7-.5-2-.9.6-1.6 1.7-1.3 2.1.3.5 1.4.4 1.8 0zm35.7-3.3c0-.6-1.6-1.9-2.3-1.9-1.2 0-1 .8.3 1.5 1.2.6 2 .8 2 .4zM89 193c0-1.5-2.2-2-2.4-.5-.2 1.1.8 2 1.7 1.5.4-.2.7-.6.7-1zm-28.8 0c1-.5 1.5-1.7 1-2.2-.5-.5-2.8 1.6-2.4 2.1.3.5.3.5 1.4 0zm8.8-.6 1.1-.6-1-.2c-1.4-.1-2.7.3-2.7.9 0 .7 1.2.6 2.6-.1zm10.8.3c0-.5-1.4-1.5-2.1-1.5-.4 0-.8.3-1 .6-.4.4-.4.5.3.8 1.1.5 2.8.5 2.8 0zm15.8-3.1c-.3-.3-.8-.5-1.1-.4-.9.4-.4 1 .7 1 1 0 1 0 .4-.6zm-26-1.8c.5 0 1-.3 1-.5 0-.5-2.5-.2-2.7.3-.2.5 0 .5 1.6.2zm20-2.6c0-.2-.3-.3-.8-.3s-.9.1-.9.3c0 .2.4.4.9.4s.9-.2.9-.4zM79 185c.3-.2.4-.4.3-.6-.4-.3-1.4.1-1.4.6 0 .4.4.4 1 0z" style="fill:#f4ac51;stroke-width:.352778" transform="translate(-44.5 -173.2)"/>
  <path d="M76.9 238c-11.2-1.3-19.7-6.9-22.3-14.9-1-2.7-.8-3.8.1-1.8 1.4 2.8 6.8 7.4 9.4 8 1 .3 0-.6-1.2-1.2a32 32 0 0 1-7.3-6.7 29 29 0 0 1-3.6-9c-.2-1 0-2.3.2-3.2l.4-1.6.9 1.3c2 3 6.1 6.2 6.9 5.4.5-.5 1-.5.8 0-.2.3-.1.3.1.2.5-.3.2-1-.4-1-.3 0-.8-.3-1.1-.6-.4-.4-.8-.7-1-.6-.1.2-.3.1-.3 0 0-.2-.7-1.2-1.6-2.1-3.8-4-4.5-5.4-4.5-9.3 0-3 .7-4.8 3-7.7a30 30 0 0 1 16.7-8.9c4.4-.9 9.4-1.3 9.4-.8 0 .3.8.3 2.2.2a34 34 0 0 1 21.7 7.7c4.7 4.6 6 9.4 3.5 14.1-1 2.2-4 6-4.7 6-.2 0-.8.3-1.2.8-.5.5-1 .9-1.2.9a11 11 0 0 0-3.5 2.4c-.3.5-2.8 1.6-4.8 2.2-3 .8-3.5 1-2.7 1 1 0 6.4-1.5 9-2.6 3.3-1.4 5.6-3 7.7-5.3l1.8-2v1.5c0 5.6-3.4 12.3-7.7 15.4-1.3 1-1.9 1.9-1.1 1.9.8 0 4.1-2.7 5.4-4.3 1.4-1.9 1.4-1.9 1.1-.7-.8 3.8-4.5 8.4-8.9 11a37 37 0 0 1-21.2 4.2zm19.4-8 1.2-1.3c.5-.6.3-.5-.7.4a36 36 0 0 1-1.5 1.3h.2c.1 0 .5-.1.8-.4zm3-2c.3-.6-.4-.4-.7.2-.1.4 0 .5.2.4.3 0 .5-.3.6-.5zm-8.3-1.8 3-1.1 7.2-2.4c.8-.3 2.5-3.5 2.5-4.7 0-.7 0-.7-.5 0-.5 1-3 2.1-11.2 4.9-3.5 1.1-5.5 2-5.3 2.2.3.5 2.6 1.9 2.9 1.7l1.4-.6zm-3.4-7c.2-.2 0-.3-.3-.1-.6.2-.7.5-.2.5.2 0 .4-.2.5-.4zm2-.4c.6-.4 0-.4-.9 0-.5.2-.5.4-.2.4s.8-.2 1-.4zM78 204.2c.8-.8.9-2.8 0-2.5l-.8.2c-.5 0-1.5 1.7-1.2 2.3.2.7 1.2.7 2 0zm12.5-2.8c.3-.7-1.4-2.5-2-2.2-.5.4-.4 1.8.1 2.3.6.6 1.7.5 2-.1zm-23.6-1c.6-.7.8-1.5.5-2-.2-.3-.5-.3-1.2.1-1 .7-1.4 1.5-1.1 2 .3.5 1.4.4 1.8 0zm35.7-3.3c0-.6-1.6-1.9-2.3-1.9-1.2 0-1 .8.3 1.5 1.2.6 2 .8 2 .4zM89 193c0-1.5-2.2-2-2.4-.5-.2 1.1.8 2 1.7 1.5.4-.2.7-.6.7-1zm-28.8 0c1-.5 1.5-1.7 1-2.2-.5-.5-2.8 1.6-2.4 2.1.3.5.3.5 1.4 0zm8.8-.6 1.1-.6-1-.2c-1.4-.1-2.7.3-2.7.9 0 .7 1.2.6 2.6-.1zm10.8.3c0-.5-1.4-1.5-2.1-1.5-.4 0-.8.3-1 .6-.4.4-.4.5.3.8 1.1.5 2.8.5 2.8 0zm15.8-3.1c-.3-.3-.8-.5-1.1-.4-.9.4-.4 1 .7 1 1 0 1 0 .4-.6zm-26-1.8c.5 0 1-.3 1-.5 0-.5-2.5-.2-2.7.3-.2.5 0 .5 1.6.2zm20-2.6c0-.2-.3-.3-.8-.3s-.9.1-.9.3c0 .2.4.4.9.4s.9-.2.9-.4zM79 185c.3-.2.4-.4.3-.6-.4-.3-1.4.1-1.4.6 0 .4.4.4 1 0z" style="fill:#d4a473;stroke-width:.352778" transform="translate(-44.5 -173.2)"/>
  <path d="M77 237.9c-11.1-1-20-7-22.5-15.1-.8-2.5-.7-3.3.2-1.5 1.4 2.8 6.7 7.4 9.4 8 1 .4.3-.6-1.2-1.2-1.8-1-5.7-4.5-7.3-6.7a29 29 0 0 1-3.6-9c-.2-1 0-2.3.2-3.2l.5-1.6.5 1c1.8 3.3 6.6 6.8 11.5 8.2l2.4.8c.4.2.6.1.6-.1s-.2-.4-.5-.4a.5.5 0 0 1-.5-.5c0-.6-.6-.8-.8-.3 0 .2-1-.3-2.2-1l-2.9-1.7a4 4 0 0 1-1.2-.9c-.2-.3-.6-.5-.7-.4-.2.2-.4.1-.4 0 0-.2-.7-1.2-1.6-2.1-3.8-4-4.5-5.4-4.5-9.3 0-2.4.1-3 1.2-4.9 2-3.8 6.3-7.5 10.4-9l2.8-1.1c1.7-.8 4.7-1.6 7.6-2 3.7-.5 7.1-.7 7-.4-.2.2 1.5.3 3.5.3 9.2 0 19.4 4.9 23.4 11 2.2 3.6 2.5 7.1.6 10.7-1 2.2-4 6-4.7 6-.2 0-.7.3-1 .7-.4.4-1.2 1-1.8 1.2l-2.1 1.2c-.6.4-1.4.7-1.7.7-.3 0-.6.2-.6.3 0 .4-3.2 1.5-4.2 1.5-.4 0-.8.1-.9.3-.2.4-2.6.8-4.6.9l-1.8.2c-.2.2-1.9.3-3.8.3-2 0-3.6.1-3.7.2l-.8-.2c-.4-.2-.7-.2-.9.1-.1.2 0 .3.1.2.3-.2.5 0 .6.2.2.6 9.1.5 13.3-.3a30 30 0 0 0 17-7.8l2-2.3v1.6c0 5.5-3.4 12.2-7.7 15.3-1.3 1-1.9 1.9-1.1 1.9.8 0 4.1-2.6 5.4-4.3 1.3-1.7 1.4-1.8 1.2-.8a18 18 0 0 1-4.5 7.5 32.8 32.8 0 0 1-25.5 7.8zm19.3-7.9 1.2-1.3c.5-.6.3-.5-.7.4a36 36 0 0 1-1.5 1.3h.2c.1 0 .5-.1.8-.4zm3-2c.3-.6-.4-.4-.7.2-.1.4 0 .5.2.4.3 0 .5-.3.6-.5zm-8.3-1.8 3-1.1 7.2-2.4c.8-.3 2.5-3.5 2.5-4.7 0-.7 0-.7-.5 0-.5 1-3 2.1-11.2 4.9-3.5 1.1-5.5 2-5.3 2.2.3.5 2.6 1.9 2.9 1.7l1.4-.6zm-15.2-7.4c0-.1-.1-.3-.3-.3l-.6.3c0 .2 0 .4.4.4.3 0 .5-.2.5-.4zm-2.8-.3c0-.2-.7-.4-1.6-.6-1-.1-1.5-.3-1.3-.6 0-.2 0-.2-.2 0-.7.3-.5.8.5 1.1 1.3.5 2.6.5 2.6.1zm5-14.3c.8-.8.9-2.6.1-2.6-.7 0-2.3 1.5-2.3 2.2 0 1 1.2 1.3 2.2.4zm12.5-2.8c.3-.7-1.4-2.5-2-2.2-.5.4-.4 1.8.1 2.3.6.6 1.7.5 2-.1zm-23.2-1.7c.4-.7.5-1 .2-1.3-.8-.8-3 1.2-2.4 2.2.4.6 1.7 0 2.2-.9zm35.3-2.6c0-.6-1.6-1.9-2.3-1.9-1.2 0-1 1 .1 1.6 1 .5 2.2.7 2.2.3zm-13.8-3.5c.4-.7.4-.9-.1-1.4-1.3-1.3-3 .4-2 1.8.7.7 1.4.5 2-.4zm-27.9-1c.5-.4.6-1.5.1-1.8-.5-.3-2.6 1.7-2.3 2.3.3.4 1.4.2 2.2-.4zm8-.1 1.1-.6-1-.2c-1.4-.1-2.7.3-2.7.9 0 .7 1.2.6 2.6-.1zm10.8.3c0-.5-1.4-1.5-2.1-1.5-.4 0-.8.3-1 .5-.4.4-.3.6.2.9.8.5 3 .5 3 0zm15.8-3c-.4-.5-.8-.6-1.3-.4-.7.2-.7.3-.3.6.2.1.8.3 1.3.3.8 0 .8 0 .3-.6zm6.2-.2c-.1-.2-.7-.4-1.2-.5-.7-.2-.7-.2.2.3 1.2.6 1.5.6 1 .2zm-31.5-1.8c.7-.2.8-.3.3-.5-.9-.4-2.5-.1-2.7.4-.2.5 1 .6 2.4.1zm19.4-2.5c0-.2-.5-.3-1-.3-.7 0-1.1.1-1.1.3 0 .2.4.4 1 .4s1-.2 1-.4zm-10.3-.6c0-.3 0-.4-.5-.4l-.8.6c0 .3 0 .5.5.4.3 0 .7-.4.8-.6z" style="fill:#cf9969;stroke-width:.352778" transform="translate(-44.5 -173.2)"/>
  <path d="M73.6 237.4c-7-1.5-13-4.8-16.5-9.3a18.4 18.4 0 0 1-3-7l-.2-1.4.8 1.6a19.8 19.8 0 0 0 8 7.5 4 4 0 0 0 1.6.6 4 4 0 0 1 1.6.6c.4.3 1 .5 1.2.4.2 0-.1-.5-.8-.8l-3.4-1.8a26.5 26.5 0 0 1-7.7-7.1c-2.4-3.8-4-9.4-3-11.1l.4-1.3c.1-.4.4-.2.7.5 2.3 4.1 8.1 7.6 15.9 9.5 7 1.7 12.4 2 19 1 8.9-1.1 15.1-3.8 19.4-8.4 1.6-1.6 1.7-1.7 1.7-.9 0 1.5-.7 5.3-1.2 7-1 3-4.5 7.4-7.1 9.2-.8.5-1.1 1.5-.5 1.5.8 0 4.1-2.6 5.4-4.3 1.3-1.7 1.4-1.8 1.2-.8-1.5 6.2-8.4 12-17 14.3a53 53 0 0 1-16.5.5zm-.6-5.6-.9-.3c-.5-.1-.9 0-.9.1 0 .2.4.3 1 .3l.8-.1zm23.3-1.8 1.2-1.3c.5-.6.3-.5-.7.4a36 36 0 0 1-1.5 1.3h.2c.1 0 .5-.1.8-.4zm3.2-2.3c.3-.6.2-.7-.3-.4-.6.3-1 1.5-.4 1.3.2 0 .5-.4.7-.9zm-8.5-1.5 3-1.1 7.2-2.4c.8-.3 2.5-3.5 2.5-4.7 0-.7 0-.7-.5 0-.5 1-3 2.1-11.2 4.9-3.5 1.1-5.5 2-5.3 2.2.3.5 2.6 1.9 2.9 1.7l1.4-.6zm-13-8.4c-.3-.1-1.2-.2-2.1-.1-1.3.1-1.8 0-2.5-.6-.6-.5-1.2-.7-1.8-.5-.7.1-3.5-.6-6.2-1.6a52 52 0 0 0-2.8-1 9 9 0 0 1-2.9-1.2c-.4-.4-.8-.6-1-.4l-.2-.1c0-.2-.7-1.2-1.6-2.1-3.8-4-4.5-5.4-4.5-9.3 0-2.4.1-3 1.2-4.9 2-3.8 6.5-7.6 10.4-9l2.8-1a34 34 0 0 1 14.6-2.1A33.2 33.2 0 0 1 105 191c5.1 4.7 6.4 9.5 4 14.4-1.2 2.2-4.1 6-4.8 6-.2 0-.8.3-1.2.8-.5.5-1 .9-1.2.9-.2 0-.8.2-1.3.5a8 8 0 0 1-2.2.7c-.6.2-1.4.6-1.8 1a3 3 0 0 1-1.3.6c-1 0-3 .4-3.5.6l-1 .2c-.3 0-.6 0-.9.2a47 47 0 0 1-11.9.8zm.3-13.7c.5-1 .4-2.5-.1-2.5-1.3 0-3 2.1-2.1 2.9.4.5 1.8.2 2.2-.4zm12.3-2.9c0-.7-1.2-2.1-1.8-2.1-.5 0-.7 1-.5 2 .2.6.5.8 1.3.8s1-.1 1-.7zm-23.4-.9c.6-.7.7-2.3 0-2.3-.5 0-2.3 1.6-2.3 2 0 1 1.4 1.1 2.3.3zm35.8-3c0-.6-2-2-2.7-2-1.8 0-.7 1.3 1.6 2l1 .3v-.2zm-14.3-3.5c.2-.5.4-1 .3-1.3-.3-.8-1.9-1-2.5-.4-.5.5-.5.7 0 1.5.8 1.1 1.5 1.2 2.2.2zm-28.1-.9c.8-.6 1-1.7.4-2-.5-.4-2.6 1.6-2.3 2.1.3.6 1 .6 1.9-.1zm8.8-.6c.4-.3.4-.4-.2-.7-1-.3-2.9.4-2.9 1 0 .5.3.5 1.3.4.7-.1 1.5-.4 1.8-.7zm10 0c-1-1-2.7-1.3-3-.5-.3.8.5 1.3 2.2 1.3h1.6zm16.4-2.3c.2-.6-1.6-1-2-.5-.3.3-.2.5.4.7 1 .4 1.5.4 1.6-.2zm5.8-.6c-.5-.3-1.1-.5-1.4-.5-.3 0-.2.2.3.5s1.1.5 1.4.5c.3 0 .2-.2-.3-.5zm-31.2-1.6c.6-.2.6-.3 0-.5-.8-.4-2.4-.1-2.6.4-.2.5 1.4.6 2.6.1zm19.5-2.4c0-.5-1.2-.8-1.9-.6-1 .4-.6.9.7.9.7 0 1.2-.2 1.2-.3zm-10.6-.7c0-.2-.2-.4-.6-.4-.5 0-.8.2-.8.5 0 .7 1.1.6 1.4 0z" style="fill:#ec964b;stroke-width:.352778" transform="translate(-44.5 -173.2)"/>
  <path d="M73.6 237.4c-4.3-1-8.6-2.7-11.7-4.8a19 19 0 0 1-7.4-10.2l-.2-1.3.5 1.2a22 22 0 0 0 7 6.5c3.8 1.8 7.5 2.3 4.4.7a26.3 26.3 0 0 1-11-8.8c-2.4-3.8-4-9.4-3-11.1l.4-1.3c.1-.4.4-.2.7.5 2.8 5.2 11.5 9.4 22.5 10.7 12 1.5 25.1-1.9 31.3-8l2.3-2.4-.2 2.3c-.4 3.5-.9 5.3-2.2 7.8a22.5 22.5 0 0 1-7.4 7.8 17 17 0 0 0-2.8 2c-.5.7-1.2 1.1-1.4 1.1-.3 0-.5.3-.7.6-.2.5-.1.5.3.1.3-.2.6-.3.6-.1 0 .2.2 0 .4-.1.2-.3.7-.5 1-.5 1.9 0 7.3-3.7 8.8-6 1.4-2 1.4-1.2 0 1.6-2.2 4.7-8.7 9.3-15.7 11.2a53 53 0 0 1-16.5.5zm-.6-5.6-.9-.3c-.5-.1-.9 0-.9.1 0 .2.4.3 1 .3l.8-.1zm17.8-5.5c1.7-.8 5-2 8.5-3l2.6-.7.9-2c.4-1 1-2.5 1-3.2l.3-1.2-.7 1.5c-.4.8-1 1.5-1.1 1.5-.3 0-1.8.5-3.5 1.2s-4 1.5-5.2 1.8c-1.2.3-3 1-4.1 1.4-1.3.6-2.3.8-2.9.7-1.7-.4-1 .7 1 1.9 1.8.9 1.4.9 3.2.1zm-12.9-8.5c-.2-.1-1.1-.2-2-.1-1.3.1-1.8 0-2.5-.6a2 2 0 0 0-1.8-.5 7 7 0 0 1-3-.6l-2.3-.7c-.4 0-.8-.2-1-.5-.3-.3-.7-.4-1-.3-.3.1-.7-.2-1-1-1-1.5-2.6-3.2-3-3-.2.2-.8 0-1.3-.3-1.7-1.1-5-4.7-5-5.3 0-.4-.3-.9-.5-1.2-.8-1-1.3-3.4-1-5a13 13 0 0 1 3.9-6.4 24 24 0 0 1 9.8-6 34.1 34.1 0 0 1 15.3-2.4c6.6 0 7.5 0 10.7.9 8 2 14.2 6.3 16.7 11.3 1.1 2.4 1.2 2.8 1 4.6-.2 2.4-1.7 5.7-2.7 6-.4.1-.7.5-.7.8 0 .4-.6 1.1-1.3 1.7l-2.4 2c-2 1.9-3.8 3-4.7 3.3-.5.1-1.2.5-1.6.8-.4.4-1 .7-1.3.7-1 0-3 .4-3.5.6l-1 .2c-.3 0-.6 0-.9.2a47 47 0 0 1-11.9.8zm.4-13.7c.5-1 .4-2.5-.1-2.5-1.3 0-3 2.1-2.1 2.9.4.5 1.8.2 2.2-.4zm12.3-2.9c0-.7-1.2-2.1-1.8-2.1-.5 0-.7 1-.5 2 .2.6.5.8 1.3.8s1-.1 1-.7zm-23.4-.9c.6-.7.7-2.3 0-2.3-.8 0-2.3 1.4-2.3 2.2 0 .8 1.4 1 2.3.1zm35.8-3c0-.6-2-2-2.7-2-1.8 0-.7 1.3 1.6 2l1 .3v-.2zm-14.3-3.5c.2-.5.4-1 .3-1.3-.3-.8-1.9-1-2.5-.4-.5.5-.5.7 0 1.5.8 1.1 1.5 1.2 2.2.2zm-28.1-1c.8-.5 1-1.8.2-2-.6-.3-2.3 1.4-2.3 2.1 0 .7 1 .7 2.1 0zm8.8-.5c.8-.7-.4-1.1-1.9-.6-1.7.6-1.7 1.6 0 1.3.8-.1 1.6-.4 1.9-.7zm10 0c-1-1-2.7-1.3-3-.5-.3.8.5 1.3 2.2 1.3h1.6zm16.4-2.3c.2-.6-1.6-1-2-.5-.3.3-.2.5.4.7 1 .4 1.5.4 1.6-.2zm5.8-.6c-.5-.3-1.1-.5-1.4-.5-.3 0-.2.2.3.5s1.1.5 1.4.5c.3 0 .2-.2-.3-.5zM70 187.9c1-.3.6-.8-.6-.8s-2.1.3-2.1.7c0 .4 1.5.5 2.7.1zm19.8-2.5c0-.5-1.2-.8-1.9-.6-1 .4-.6.9.7.9.7 0 1.2-.2 1.2-.3zm-10.6-.7c0-.2-.2-.4-.6-.4-.5 0-.8.2-.8.5 0 .7 1.1.6 1.4 0z" style="fill:#f2ab2d;stroke-width:.352778" transform="translate(-44.5 -173.2)"/>
  <path d="M73.6 237.4c-4.3-1-8.6-2.7-11.7-4.8a19 19 0 0 1-7.4-10.2l-.2-1.3.5 1.2a22 22 0 0 0 7 6.5c3.8 1.8 7.5 2.3 4.4.7a26.3 26.3 0 0 1-11-8.8c-2.4-3.8-4-9.4-3-11.1l.4-1.3c.1-.4.4-.2.7.5 2.8 5.2 11.5 9.4 22.5 10.7 12 1.5 25.1-1.9 31.3-8l2.3-2.4-.2 2.3c-.4 3.5-.9 5.3-2.2 7.9a23.3 23.3 0 0 1-7.2 7.6c-1.6 1-1.6 1 .6-2.3 1.7-2.4 3.1-5.3 3.5-7.1l.2-1.2-1.4 1.4c-2.2 2.4-5 3.5-15.5 6.2-1.8.4-2 1.1-.4 1.8 3.3 1.5 7.9 4.4 7.8 5 0 .4.1.4.5.1.3-.2.5-.3.5-.1 0 .2.2 0 .4-.1.2-.3.7-.5 1-.5 1.9 0 7.3-3.7 8.8-6 1.4-2 1.4-1.2 0 1.6-2.2 4.7-8.7 9.3-15.7 11.2a53 53 0 0 1-16.5.5zm-.6-5.6-.9-.3c-.5-.1-.9 0-.9.1 0 .2.4.3 1 .3l.8-.1zm5-14c-.3-.1-1.2-.2-2.1-.1-1.3.1-1.8 0-2.5-.6a2 2 0 0 0-1.8-.5 7 7 0 0 1-3-.6l-2.3-.7c-.4 0-.8-.2-1-.5-.3-.3-.7-.4-1-.3-.3.1-.7-.2-1-1-1-1.5-2.6-3.2-3-3-.2.2-.8 0-1.3-.3-1.7-1.1-5-4.7-5-5.3 0-.4-.3-.9-.5-1.2-.8-1-1.3-3.4-1-5a13 13 0 0 1 3.9-6.4 24 24 0 0 1 9.8-6 34.1 34.1 0 0 1 15.3-2.4c6.6 0 7.5 0 10.7.9 8 2 14.2 6.3 16.7 11.3 1.1 2.4 1.2 2.8 1 4.6-.2 2.4-1.7 5.7-2.7 6-.4.1-.7.5-.7.8 0 .4-.6 1.1-1.3 1.7l-2.4 2c-2 1.9-3.8 3-4.7 3.3-.5.1-1.2.5-1.6.8-.4.4-1 .7-1.3.7-1 0-3 .4-3.5.6l-1 .2c-.3 0-.6 0-.9.2a47 47 0 0 1-11.9.8zm.3-13.7c.5-1 .4-2.5-.1-2.5-1.3 0-3 2.1-2.1 2.9.4.5 1.8.2 2.2-.4zm12.3-2.9c0-.7-1.2-2.1-1.8-2.1-.5 0-.7 1-.5 2 .2.6.5.8 1.3.8s1-.1 1-.7zm-23.4-.9c.6-.7.7-2.3 0-2.3-.8 0-2.3 1.4-2.3 2.2 0 .8 1.4 1 2.3.1zm35.8-3c0-.6-2-2-2.7-2-1.8 0-.7 1.3 1.6 2l1 .3v-.2zm-14.3-3.5c.2-.5.4-1 .3-1.3-.3-.8-1.9-1-2.5-.4-.5.5-.5.7 0 1.5.8 1.1 1.5 1.2 2.2.2zm-28.1-1c.8-.5 1-1.8.2-2-.6-.3-2.3 1.4-2.3 2.1 0 .7 1 .7 2.1 0zm8.8-.5c.8-.7-.4-1.1-1.9-.6-1.7.6-1.7 1.6 0 1.3.8-.1 1.6-.4 1.9-.7zm10 0c-1-1-2.7-1.3-3-.5-.3.8.5 1.3 2.2 1.3h1.6zm16.4-2.3c.2-.6-1.6-1-2-.5-.3.3-.2.5.4.7 1 .4 1.5.4 1.6-.2zm5.8-.6c-.5-.3-1.1-.5-1.4-.5-.3 0-.2.2.3.5s1.1.5 1.4.5c.3 0 .2-.2-.3-.5zM70 187.9c1-.3.6-.8-.6-.8s-2.1.3-2.1.7c0 .4 1.5.5 2.7.1zm19.8-2.5c0-.5-1.2-.8-1.9-.6-1 .4-.6.9.7.9.7 0 1.2-.2 1.2-.3zm-10.6-.7c0-.2-.2-.4-.6-.4-.5 0-.8.2-.8.5 0 .7 1.1.6 1.4 0z" style="fill:#d08b4d;stroke-width:.352778" transform="translate(-44.5 -173.2)"/>
  <path d="M73.6 237.4c-10-2-17.9-8.3-19.1-15-.2-1.2-.2-1.1.7.6a18 18 0 0 0 11.1 8.5l5.3 1.5c1.3.4 3 .7 4 .7a49 49 0 0 0 21.6-3.6c1.7 0 7.2-3.8 8.6-6 1.3-2 1.4-1.3.1 1.4-1.5 3.2-5.6 7-9.6 9-5 2.5-8 3.1-14.7 3.3-3.9 0-6.3 0-8-.4zm3.6-5.4-3.3-.5c-3.8-.6-6.1-1.3-9.4-3-3.8-2-6.8-4.4-8.6-7-2.9-4-4.7-10-3.8-12l.5-1.2c.1-.4.4-.2.7.5 2.3 4.1 8.1 7.6 15.9 9.5a48.5 48.5 0 0 0 31.9-2.6c2.8-1.4 4-2.2 6-4.1l2.3-2.4-.2 2.3c-.6 5.2-2 8.5-5.3 11.8-2 2-6 5-5.3 4l1.8-2.7c2-2.7 3.1-5.2 3.5-7l.2-1.4-1.1 1.3c-1.7 2-4 3-15.5 6.4-.7.1-2 .2-2.8.1-1.6-.2-1.6-.2-.4.2.7.2 1.3.5 1.5.7.1.3.7.7 1.3 1 4 2.1 6.3 3.3 6.7 3.7.5.5.4.5-.2.6-.4 0-1.3.2-2 .5l-3.6.9a68 68 0 0 1-10.8.4zm5.6-8.4c-.1-.1-.4-.2-.7 0-.3 0-.2.1.2.2.4 0 .6-.1.5-.2zm-3.2-6.7c-.4-.5-7.6-2-8-1.7a.9.9 0 0 1-.7-.4c-.3-.3-1-.5-2-.5s-1.6-.2-2-.7c-.3-.6-.9-.8-2-.8-1.4 0-2-.3-3-1.2-.7-.7-1.4-1.1-1.6-1-.2.1-.8 0-1.3-.4-1.7-1.1-5-4.7-5-5.3 0-.4-.3-.9-.5-1.2-.8-1-1.3-3.4-1-5a13 13 0 0 1 3.9-6.4 23.3 23.3 0 0 1 9.4-5.9 37 37 0 0 1 17-2.7c4.9.1 6.5.3 9.4 1.1 8.4 2.2 14.5 6.5 17 12 .8 1.7.9 2.3.7 4-.2 2.3-1.7 5.6-2.7 5.9-.4.1-.7.5-.7.8 0 .4-.6 1.1-1.2 1.7-.7.5-1.7 1.3-2 1.7-.5.5-1.4 1-2.1 1.2a9 9 0 0 0-2.2 1 6 6 0 0 1-2.4 1c-.9 0-2 .4-2.3.7-.3.2-.8.4-1 .3-.3-.1-1.4.1-2.6.5-1.1.4-3 .8-4.2.9-1.2 0-2.3.2-2.4.3-.2.2-.6 0-1-.1-.4-.3-.8-.3-1 0-.4.4-2.1.5-2.5.2zM78.3 204c.5-1 .4-2.5-.1-2.5-1.3 0-3 2.1-2.1 2.9.4.5 1.8.2 2.2-.4zm12.3-2.9c0-.8-1.1-2.1-1.9-2.1-.4 0-.5.4-.5 1.2 0 1.4.2 1.6 1.4 1.6.8 0 1-.2 1-.7zm-23.4-.9c.6-.7.7-2.3 0-2.3-.8 0-2.3 1.4-2.3 2.2 0 .8 1.4 1 2.3.1zm35.4-3.6c-.5-.8-2.4-1.9-2.9-1.6-.9.6.2 1.7 2.2 2.2 1.2.3 1.2.3.7-.6zm-14-2.9c.9-.9.6-1.7-.6-2-.6-.1-1.1 0-1.5.3-.5.5-.5.7 0 1.5.7 1 1.3 1.1 2.2.2zm-28-1c.8-.5 1-1.8.2-2-.6-.3-2.3 1.4-2.3 2.1 0 .7 1 .7 2.1 0zm8.7-.3c.9-.5 1-.6.4-.9-.7-.4-3 0-3.2.5-.2.2-.2.6 0 .9.2.5 1 .4 2.8-.5zm10.4 0-.9-.9c-.5-.4-2.2-.3-2.5.1-.4.7.7 1.4 2.3 1.4 1.4 0 1.5 0 1-.6zm16.1-2.5c.2-.6-1.6-1-2-.5-.3.3-.2.5.4.7 1 .4 1.5.4 1.6-.2zm5.8-.6c-.5-.3-1.1-.5-1.4-.5-.3 0-.2.2.3.5s1.1.5 1.4.5c.3 0 .2-.2-.3-.5zM70 187.9c1-.3.6-.8-.6-.8s-2.1.3-2.1.7c0 .4 1.5.5 2.7.1zm19.8-2.5c0-.5-1.2-.8-1.9-.6-1 .4-.6.9.7.9.7 0 1.2-.2 1.2-.3zm-10.6-.7c0-.2-.2-.4-.6-.4-.8 0-1.2.4-.9.8.4.4 1.3.1 1.5-.4z" style="fill:#94c74b;stroke-width:.352778" transform="translate(-44.5 -173.2)"/>
  <path d="M73.6 237.4c-10-2-17.9-8.3-19.1-15-.2-1.2-.2-1.1.7.6a18 18 0 0 0 11.1 8.5l5.3 1.5c1.3.4 3 .7 4 .7a49 49 0 0 0 21.6-3.6c1.7 0 7.2-3.8 8.6-6 1.3-2 1.4-1.3.1 1.4-1.5 3.2-5.6 7-9.6 9-5 2.5-8 3.1-14.7 3.3-3.9 0-6.3 0-8-.4zm3.6-5.4-3.3-.5c-3.8-.6-6.1-1.3-9.4-3a21.7 21.7 0 0 1-12-14c0-.6 1.1-.2 2.3.8 1 .9 1.2 1 1.2.4.2-1.7.1-2.6-.4-3-.4-.5-.6-.5-1.6.3-.5.5-1.2 1-1.4 1-.4 0-.9-2.8-.6-3.3.1-.2.4-.3.7-.3.3 0 .6-.2.7-.5 0-.2.6.1 1.5 1a27 27 0 0 0 14.3 7.4 48.5 48.5 0 0 0 31.9-2.6c2.8-1.4 4-2.2 6-4.1l2.3-2.4-.2 2.3c-.6 5.2-2 8.5-5.3 11.8-2 2-6 5-5.3 4l1.8-2.7c2-2.7 3.1-5.2 3.5-7l.2-1.4-1.1 1.3c-1.7 2-4 3-15.5 6.4-.7.1-2 .2-2.8.1-1.6-.2-1.6-.2-.4.2.7.2 1.3.5 1.5.7.1.3.7.7 1.3 1 4 2.1 6.3 3.3 6.7 3.7.5.5.4.5-.2.6-.4 0-1.3.2-2 .5l-3.6.9a68 68 0 0 1-10.8.4zm-8.4-7.2c-.2-.3-.4-1-.4-1.6a4 4 0 0 0-.7-2c-.6-.8-1-1-1.8-.8-.6.2-1 .1-1 0 0-.3-.4-.5-.9-.6-.5-.2-.9-.4-.9-.6 0-.2-.5-.7-1-1-1-.6-1.4-.6-2-.3-.7.3-.8.4-.3 1.6.8 2.4 1.7 4 2.2 4 .3 0 1-.5 1.5-1 1.3-1 1.6-.9 3.7 1.3.7.7 1.5 1.4 1.7 1.4.2 0 .2-.2 0-.4zm4.7-2c1-1 1-1.1.3-1.1-.4 0-1 .3-1.3.8-1.1 1.6-.4 1.8 1 .2zm9.3.8c-.1-.1-.4-.2-.7 0-.3 0-.2.1.2.2.4 0 .6-.1.5-.2zM59 217.5c.3-.6-.4-.8-1.1-.2-.7.4-.7.5 0 .5.5 0 1-.2 1-.3zm20.5-.6c-.4-.5-7.6-2-8-1.7a.9.9 0 0 1-.7-.4c-.3-.3-1-.5-2-.5s-1.6-.2-2-.7c-.3-.6-.9-.8-2-.8-1.4 0-2-.3-3-1.2-.7-.7-1.4-1.1-1.6-1-.2.1-.8 0-1.3-.4-1.7-1.1-5-4.7-5-5.3 0-.4-.3-.9-.5-1.2-.8-1-1.3-3.4-1-5a13 13 0 0 1 3.9-6.4 23.3 23.3 0 0 1 9.4-5.9 37 37 0 0 1 17-2.7c4.9.1 6.5.3 9.4 1.1 8.4 2.2 14.5 6.5 17 12 .8 1.7.9 2.3.7 4-.2 2.3-1.7 5.6-2.7 5.9-.4.1-.7.5-.7.8 0 .4-.6 1.1-1.2 1.7-.7.5-1.7 1.3-2 1.7-.5.5-1.4 1-2.1 1.2a9 9 0 0 0-2.2 1 6 6 0 0 1-2.4 1c-.9 0-2 .4-2.3.7-.3.2-.8.4-1 .3-.3-.1-1.4.1-2.6.5-1.1.4-3 .8-4.2.9-1.2 0-2.3.2-2.4.3-.2.2-.6 0-1-.1-.4-.3-.8-.3-1 0-.4.4-2.1.5-2.5.2zM78.3 204c.5-1 .4-2.5-.1-2.5-1.3 0-3 2.1-2.1 2.9.4.5 1.8.2 2.2-.4zm12.3-2.9c0-.8-1.1-2.1-1.9-2.1-.4 0-.5.4-.5 1.2 0 1.4.2 1.6 1.4 1.6.8 0 1-.2 1-.7zm-23.4-.9c.6-.7.7-2.3 0-2.3-.8 0-2.3 1.4-2.3 2.2 0 .8 1.4 1 2.3.1zm35.4-3.6c-.5-.8-2.4-1.9-2.9-1.6-.9.6.2 1.7 2.2 2.2 1.2.3 1.2.3.7-.6zm-14-2.9c.9-.9.6-1.7-.6-2-.6-.1-1.1 0-1.5.3-.5.5-.5.7 0 1.5.7 1 1.3 1.1 2.2.2zm-28-1c.8-.5 1-1.8.2-2-.6-.3-2.3 1.4-2.3 2.1 0 .7 1 .7 2.1 0zm8.7-.3c.9-.5 1-.6.4-.9-.7-.4-3 0-3.2.5-.2.2-.2.6 0 .9.2.5 1 .4 2.8-.5zm10.4 0-.9-.9c-.5-.4-2.2-.3-2.5.1-.4.7.7 1.4 2.3 1.4 1.4 0 1.5 0 1-.6zm16.1-2.5c.2-.6-1.6-1-2-.5-.3.3-.2.5.4.7 1 .4 1.5.4 1.6-.2zm5.8-.6c-.5-.3-1.1-.5-1.4-.5-.3 0-.2.2.3.5s1.1.5 1.4.5c.3 0 .2-.2-.3-.5zM70 187.9c1-.3.6-.8-.6-.8s-2.1.3-2.1.7c0 .4 1.5.5 2.7.1zm19.8-2.5c0-.5-1.2-.8-1.9-.6-1 .4-.6.9.7.9.7 0 1.2-.2 1.2-.3zm-10.6-.7c0-.2-.2-.4-.6-.4-.8 0-1.2.4-.9.8.4.4 1.3.1 1.5-.4zm-26.8 24c0-.5.1-.8.2-.8l.5.7c.3.6.3.7-.1.7-.3 0-.6-.3-.6-.7z" style="fill:#e98633;stroke-width:.352778" transform="translate(-44.5 -173.2)"/>
  <path d="M73.6 237.4c-10-2-17.9-8.3-19.1-15-.2-1.2-.2-1.1.7.6a18 18 0 0 0 11.1 8.5l5.3 1.5c1.3.4 3 .7 4 .7a49 49 0 0 0 22-3.6c1.4 0 5-2 7-4s2-1.4.2 1.4c-2.8 4-8.7 7.8-14.7 9.4a53 53 0 0 1-16.5.5zm3.6-5.4-3.3-.5c-3.8-.6-6.1-1.3-9.4-3a21.7 21.7 0 0 1-12-14c0-.6 1.1-.2 2.3.8 1 .9 1.2 1 1.2.4.2-1.7.1-2.6-.4-3-.4-.5-.6-.5-1.6.3-.5.5-1.2 1-1.4 1-.4 0-.9-2.8-.6-3.3.1-.2.4-.3.7-.3.3 0 .6-.2.7-.5 0-.2.6.1 1.5 1a27 27 0 0 0 14.3 7.4 48.5 48.5 0 0 0 31.9-2.6c2.8-1.4 4-2.2 6-4.1l2.3-2.4-.2 2.3c-.6 5.2-2 8.5-5.3 11.8-2 2-6 5-5.3 4l1.8-2.7c1.9-2.7 3.1-5.2 3.4-7l.3-1.3-1.5 1.5c-2 2.1-3.5 2.7-15.1 6-.7.2-1.9.3-2.6.2H84c.4.1.6.3.5.5-.1.1.6.5 1.5.9l2.2 1 2.5 1.5 2.9 1.6c.7.6.7.6 0 .6l-2 .6-3.6.9a68 68 0 0 1-10.8.4zm-8.4-7.2c-.2-.3-.4-1-.4-1.6a4 4 0 0 0-.7-2c-.6-.8-1-1-1.8-.8-.6.2-1 .1-1 0 0-.3-.4-.5-.9-.6-.5-.2-.9-.4-.9-.6 0-.2-.5-.7-1-1-1-.6-1.4-.6-2-.3-.7.3-.8.4-.3 1.6.8 2.4 1.7 4 2.2 4 .3 0 1-.5 1.5-1 1.3-1 1.6-.9 3.7 1.3.7.7 1.5 1.4 1.7 1.4.2 0 .2-.2 0-.4zm4.7-2c1-1 1-1.1.3-1.1-.4 0-1 .3-1.3.8-1.1 1.6-.4 1.8 1 .2zm9.3.8c-.1-.1-.4-.2-.7 0-.3 0-.2.1.2.2.4 0 .6-.1.5-.2zM59 217.5c.3-.6-.4-.8-1.1-.2-.7.4-.7.5 0 .5.5 0 1-.2 1-.3zm20.5-.6c-.4-.5-7.6-2-8-1.7a.9.9 0 0 1-.7-.4c-.3-.3-1-.5-2-.5s-1.6-.2-2-.7c-.3-.5-.9-.8-2-.8-2-.1-3-.9-3-2.2.1-1.2.5-1.6.8-1 .5.7 1.9-.4 2.4-1.9 1-2.7 1-2.8.4-2.3-.5.4-.6.4-.6-.3 0-.5-.2-.7-.4-.5-.3.1-.1-.2.3-.8.7-1 .7-2.2 0-2.2-.1 0-.3-.2-.3-.4s.5-.3 1-.3c.6 0 1.4-.3 1.7-.6.6-.6.7-2.3.1-2.3s-1.8.8-2.5 1.6l-.4.3c.5-1-.9-.4-2.6 1.2-1 1-2.4 2-3 2.1-1 .4-1 .4-.8-.3.2-.4 0-.6-.2-.6-.3 0-.2-.3.2-.8.6-.6.6-.7.1-.6-1 .4-1-.1-.2-1l.8-.8h-.8c-.4 0-.8.1-1 .3 0 .2-.3.4-.5.4-.3 0-.3-.2 0-.4.1-.3.3-1 .3-1.7s.2-1.4.4-1.6c.3-.4.2-1.5-.1-1.9-.1 0 .1-.5.5-1s.6-1 .5-1.2c-.4-.6 1-2 3.2-3.5 1.3-.8 2.5-1.4 2.8-1.4l1.8-.7a37 37 0 0 1 17-2.7c4.9.1 6.5.3 9.4 1.1 8.5 2.2 15.4 7.2 16.8 12 .5 1.8 0 6-.8 7.6a36 36 0 0 1-4 5.6l-1 1c-.4.3-1.3.9-2 1.1a9 9 0 0 0-2.2 1 6 6 0 0 1-2.4 1c-.9 0-2 .4-2.3.7-.3.2-.8.4-1 .3-.3-.1-1.4.1-2.6.5-1.1.4-3 .8-4.2.9-1.2 0-2.3.2-2.4.3-.2.2-.6 0-1-.1-.4-.3-.8-.3-1 0-.4.4-2.1.5-2.5.2zM66 204.2c0-.3-.2-.4-.5-.3-.5.2-.5.3-.1.5.6.4.6.4.6-.2zm12.4-.1c.5-1 .4-2.5-.1-2.5-1.3 0-3 2.1-2.1 2.9.4.5 1.8.2 2.2-.4zm12.3-2.9c0-.8-1.1-2.1-1.9-2.1-.4 0-.5.4-.5 1.2 0 1.4.2 1.6 1.4 1.6.8 0 1-.2 1-.7zm12-4.5c-.5-.8-2.4-1.9-2.9-1.6-.9.6.2 1.7 2.2 2.2 1.2.3 1.2.3.7-.6zm-14-2.9c.9-.9.6-1.7-.6-2-.6-.1-1.1 0-1.5.3-.5.5-.5.7 0 1.5.7 1 1.3 1.1 2.2.2zm-28-.9c.8-.6 1-2.3.3-2.3-.8 0-2.4 1.4-2.4 2.2 0 .8 1 .9 2 .1zm8.7-.4c.9-.5 1-.6.4-.9-.7-.4-3 0-3.2.5-.2.2-.2.6 0 .9.2.5 1 .4 2.8-.5zm10.4 0-.9-.9c-.5-.4-2.2-.3-2.5.1-.4.7.7 1.4 2.3 1.4 1.4 0 1.5 0 1-.6zm16.1-2.5c.2-.6-1.6-1-2-.5-.3.3-.2.5.4.7 1 .4 1.5.4 1.6-.2zm5.8-.6c-.5-.3-1.1-.5-1.4-.5-.3 0-.2.2.3.5s1.1.5 1.4.5c.3 0 .2-.2-.3-.5zM70 187.9c1-.3.6-.8-.6-.8s-2.1.3-2.1.7c0 .4 1.5.5 2.7.1zm19.8-2.5c0-.5-1.2-.8-1.9-.6-1 .4-.6.9.7.9.7 0 1.2-.2 1.2-.3zm-10.6-.7c0-.2-.2-.4-.6-.4-.8 0-1.2.4-.9.8.4.4 1.3.1 1.5-.4zm-26.8 24c0-.5.1-.8.2-.8l.5.7c.3.6.3.7-.1.7-.3 0-.6-.3-.6-.7z" style="fill:#d78336;stroke-width:.352778" transform="translate(-44.5 -173.2)"/>
  <path d="M73.6 237.4c-8.2-1.7-15.2-6.3-17.9-11.6-1.3-2.7-1.4-3.7 0-1.6 2.2 3.4 6.3 6.2 10.5 7.3l5.4 1.5c1.3.4 3 .7 4 .7a55.7 55.7 0 0 0 14.3-1 23.7 23.7 0 0 0 7.2-1.9c1.2 0 5.6-2.6 7.4-4.3.9-1 1.7-1.6 1.7-1.4 0 .7-2.5 4-4.6 5.8a29.3 29.3 0 0 1-11.5 6 53 53 0 0 1-16.5.5zm3.6-5.4-3.3-.5c-3.8-.6-6.1-1.3-9.4-3a21.7 21.7 0 0 1-12-14c0-.6 1.1-.2 2.3.8 1 .9 1.2 1 1.2.4.2-1.7.1-2.6-.4-3-.4-.5-.6-.5-1.6.3-.5.5-1.2 1-1.4 1-.4 0-.9-2.8-.6-3.3.1-.2.4-.3.7-.3.3 0 .6-.2.7-.5 0-.2.6.1 1.5 1a27 27 0 0 0 14.3 7.4 48.5 48.5 0 0 0 31.9-2.6c2.8-1.4 4-2.2 6-4.1l2.3-2.4-.2 2.3a20 20 0 0 1-2 7.5 23.5 23.5 0 0 1-7.1 7.6l-1.7 1 1.8-2.6c2.2-3.3 3.3-5.6 3.7-7.3l.2-1.4-1.3 1.3a20.2 20.2 0 0 1-9.2 4.3l-5.5 1.2c-2 .6-3.2.7-4.7.5-1.4-.2-2-.1-1.8.2.2.2.6.3 1.1.3.5 0 1 .2 1.3.5a37.7 37.7 0 0 1 6.4 3.2l3.9 2.1-1.6.4-2 .7c-1 .7-11.1 1.4-13.5 1zm-8.4-7.2c-.2-.3-.4-1-.4-1.6a4 4 0 0 0-.7-2c-.6-.8-1-1-1.8-.8-.6.2-1 .1-1 0 0-.3-.4-.5-.9-.6-.5-.2-.9-.4-.9-.6 0-.2-.5-.7-1-1-1-.6-1.4-.6-2-.3-.7.3-.8.4-.3 1.6.8 2.4 1.7 4 2.2 4 .3 0 1-.5 1.5-1 1.3-1 1.6-.9 3.7 1.3.7.7 1.5 1.4 1.7 1.4.2 0 .2-.2 0-.4zm4.7-2c1-1 1-1.1.3-1.1-.4 0-1 .3-1.3.8-1.1 1.6-.4 1.8 1 .2zm-14.4-5.3c.3-.6-.4-.8-1.1-.2-.7.4-.7.5 0 .5.5 0 1-.2 1-.3zm20-.7a22 22 0 0 0-4.8-1.3c-1-.1-2-.5-2.2-.8-.4-.6-.5-.6-.5 0 0 .7 0 .7-.3.3-.2-.3-.3-.7-.2-.8.1-.2 0-.3-.3-.3-.8 0-1.7-1.2-1.5-2.1.1-.6 0-.3-.5.5-.5 1.2-.6 1.3-.8.6-.1-.5 0-1.1.6-1.9a4 4 0 0 0 .9-1.7c0-.3.2-.2.3.3.5 1.2 1.2.8 1.4-.7 0-1 .3-1.4.8-1.5.3-.1.7-.5.7-.9 0-1 .3-1.8.7-1.5.3.1.3 0 .2-.6l.1-.7c.2 0 .4-.3.4-.6s.3-.6.8-.8c.4-.2.6-.4.3-.4-.2 0-.4-.2-.4-.4s0-.3.2-.2c.2.1.2-.4.2-1.2-.1-1.2-.3-1.4-1.3-1.7-.6-.1-1.6-.2-2.2-.1-.8 0-1.1 0-1-.3.1-.2 0-.3-.1-.3-.3 0-.4-.3-.4-.6 0-.5-.3-.5-1.2-.4-1.2.2-2.3 1-4 2.7-.5.5-.8.7-.7.5.6-1-.8-.3-2.5 1.2-1 1-2.4 2-3 2.1-1 .4-1 .4-.8-.3.2-.4 0-.6-.2-.6-.3 0-.2-.3.2-.8.6-.6.6-.7.1-.6-1 .4-1-.1-.2-1l.8-.8h-.8c-.4 0-.8.1-1 .3 0 .2-.3.4-.5.4-.3 0-.3-.2 0-.4.1-.3.3-1 .3-1.7s.2-1.4.4-1.6c.3-.4.2-1.5-.1-1.9-.1 0 .1-.5.5-1s.6-1 .5-1.2c-.4-.6 1-2.1 3.1-3.4 2-1.2 3-1.6 7.5-3.3 5.7-2 17-2.2 23.6-.5 6.5 1.7 12.2 5 15 8.7 2 2.7 2.4 4.3 1.9 7.5-.5 2.8-.9 3.8-2.2 5.2a58 58 0 0 0-1.8 2 18.6 18.6 0 0 1-5.8 4.4c-.6.5-2 1.1-3.1 1.5-1.1.3-2.1.7-2.2.9-.1.2-.4.2-.7.1-.3-.1-1.4.1-2.6.5-1.1.4-3 .8-4.2.9-1.2 0-2.3.2-2.4.3-.2.2-.6 0-1-.1-.4-.3-.8-.3-1 0-.5.4-1.9.5-3 0zm-.8-12.7c.6-1.2.4-2.5-.3-2.5-1 0-2.4 1.4-2.2 2.3.1 1 2 1.2 2.5.2zm12.3-2.9c0-.8-1.1-2.1-1.9-2.1-.4 0-.5.4-.5 1.2 0 1.4.2 1.6 1.4 1.6.8 0 1-.2 1-.7zm12-4.5c-.5-.8-2.4-1.9-2.9-1.6-.9.6.2 1.7 2.2 2.2 1.2.3 1.2.3.7-.6zm-14-2.9c.9-.9.6-1.7-.6-2-.6-.1-1.1 0-1.5.3-.5.5-.5.7 0 1.5.7 1 1.3 1.1 2.2.2zm-28-.9c.8-.6 1-2.3.3-2.3-.8 0-2.4 1.4-2.4 2.2 0 .8 1 .9 2 .1zm8.2-.2c1.3-.6 1.4-.8.9-1-1.3-.8-4.2.4-3.6 1.4.4.5 1.1.4 2.7-.4zm10.9-.2-.9-.9c-.5-.4-2.2-.3-2.5.1-.4.7.7 1.4 2.3 1.4 1.4 0 1.5 0 1-.6zm16.1-2.5c.2-.6-1.6-1-2-.5-.3.3-.2.5.4.7 1 .4 1.5.4 1.6-.2zm5.8-.6c-.5-.3-1.1-.5-1.4-.5-.3 0-.2.2.3.5s1.1.5 1.4.5c.3 0 .2-.2-.3-.5zm-31.2-1.6c.6-.2.6-.3 0-.5-.8-.4-2.8 0-3 .4-.1.5 1.8.6 3 .1zm19.5-2.4c0-.5-1.2-.8-1.9-.6-1 .4-.6.9.7.9.7 0 1.2-.2 1.2-.3zm-10.6-.7c0-.2-.2-.4-.6-.4-.8 0-1.2.4-.9.8.4.4 1.3.1 1.5-.4zm-12.5 26.4c0-.2 0-.4.2-.4s.4.2.4.4-.1.3-.2.3l-.4-.3zm-14.3-2.5c0-.4.1-.7.2-.7l.5.7c.3.6.3.7-.1.7-.3 0-.6-.3-.6-.7zm13-7.3c-.2-.2.2-.5.8-.6.8-.1 1.1-.4 1.4-1.3l.3-1.2v1.1c0 1.6-1.9 3-2.6 2z" style="fill:#9aa550;stroke-width:.352778" transform="translate(-44.5 -173.2)"/>
  <path d="M73.6 237.4c-8.2-1.7-15.2-6.3-17.9-11.6-1.3-2.7-1.4-3.7 0-1.6 2.2 3.4 6.3 6.2 10.5 7.3l5.4 1.5c1.3.4 3 .7 4 .7a55.7 55.7 0 0 0 14.3-1 23.7 23.7 0 0 0 7.2-1.9c1.2 0 5.6-2.6 7.4-4.3.9-1 1.7-1.6 1.7-1.4 0 .7-2.5 4-4.6 5.8a29.3 29.3 0 0 1-11.5 6 53 53 0 0 1-16.5.5zm3.6-5.4-3.3-.5c-3.8-.6-6.1-1.3-9.4-3a21.5 21.5 0 0 1-12-14c0-.6 1.2-.1 2.3.8 1 .9 1.2 1 1.2.4.2-1.7.1-2.6-.4-3-.4-.5-.6-.5-1.6.3-.5.5-1.2 1-1.4 1-.4 0-.9-2.8-.6-3.3.1-.2.4-.3.7-.3.3 0 .6-.2.7-.5 0-.2.6.2 1.4 1.1 5.7 6.6 20.1 10.2 33.5 8.4 5.1-.7 8.6-1.7 12.8-3.7 2.8-1.4 4-2.2 6-4.1l2.3-2.4-.2 2.3a20 20 0 0 1-2 7.5 23.5 23.5 0 0 1-7.1 7.6l-1.7 1 1.8-2.6c2.2-3.3 3.3-5.6 3.7-7.3l.2-1.4-1.3 1.3a20.2 20.2 0 0 1-9.2 4.3l-5.5 1.2c-2 .6-3.2.7-4.7.5-1.4-.2-2-.1-1.8.2.2.2.6.3 1.1.3.5 0 1 .2 1.3.5a37.7 37.7 0 0 1 6.4 3.2l3.9 2.1-1.6.4-2 .7c-1 .7-11.1 1.4-13.5 1zm-8.4-7.2c-.2-.3-.4-1-.4-1.6a4 4 0 0 0-.7-2c-.6-.8-1-1-1.8-.8-.6.2-1 .1-1-.1s-.3-.4-.5-.4c-.3 0-.9-.3-1.2-.7-1-1.3-2.3-1.8-3.1-1.3l-.8.4 1 2.5c.6 1.5 1.2 2.5 1.5 2.6.4 0 1.1-.3 1.7-.8l1.1-1 1.3 1 2 1.9c.3.4.8.7 1 .7.2 0 .2-.2 0-.4zm4.8-2c1.2-1.1 1.2-1.1.3-1.1-.8 0-2 1-2 1.8 0 .5.5.3 1.7-.8zM59 217.4c.3-.6-.4-.8-1.1-.2-.7.4-.7.5 0 .5.5 0 1-.2 1-.3zm20-.7a22 22 0 0 0-4.8-1.3c-1-.1-2-.5-2.2-.8-.4-.6-.5-.6-.5 0 0 .7 0 .7-.3.3-.2-.3-.3-.7-.2-.8.1-.2 0-.3-.3-.3-.8 0-1.7-1.2-1.5-2.1.1-.6 0-.3-.5.5-.5 1.2-.6 1.3-.8.6-.1-.5 0-1.1.6-1.9a4 4 0 0 0 .9-1.7c0-.3.2-.2.3.3.5 1.2 1.2.8 1.4-.7 0-1 .3-1.4.8-1.5.3-.1.7-.5.7-.9 0-1 .3-1.8.7-1.5.3.1.3 0 .2-.6l.1-.7c.2 0 .4-.3.4-.6s.3-.6.8-.8c.4-.2.6-.4.3-.4-.2 0-.4-.2-.4-.4s0-.3.2-.2c.2.1.2-.4.2-1.2-.1-1.2-.3-1.4-1.3-1.7-.6-.1-1.6-.2-2.2-.1-.8 0-1.1 0-1-.3.1-.2 0-.3-.1-.3-.3 0-.4-.3-.4-.6 0-.5-.3-.5-1.2-.4-1.2.2-2.3 1-4 2.7-.5.5-.8.7-.7.5.6-1-.8-.3-2.5 1.2-1 1-2.4 2-3 2.1-1 .4-1 .4-.8-.3.2-.4 0-.6-.2-.6-.3 0-.2-.3.2-.8.6-.6.6-.7.1-.6-1 .4-1-.1-.2-1l.8-.8h-.8c-.4 0-.8.1-1 .3 0 .2-.3.4-.5.4-.3 0-.3-.2 0-.4.1-.3.3-1 .3-1.7s.2-1.4.4-1.6c.3-.4.2-1.5-.1-1.9-.1 0 .1-.5.5-1s.6-1 .5-1.2c-.4-.6 1-2.1 3.1-3.4 2-1.2 3-1.6 7.5-3.3 5.7-2 17-2.2 23.6-.5 6.5 1.7 12.2 5 15 8.7 2 2.7 2.4 4.3 1.9 7.5-.5 2.8-.9 3.8-2.2 5.2a58 58 0 0 0-1.8 2 18.6 18.6 0 0 1-5.8 4.4c-.6.5-2 1.1-3.1 1.5-1.1.3-2.1.7-2.2.9-.1.2-.4.2-.7.1-.3-.1-1.4.1-2.6.5-1.1.4-3 .8-4.2.9-1.2 0-2.3.2-2.4.3-.2.2-.6 0-1-.1-.4-.3-.8-.3-1 0-.5.4-1.9.5-3 0zm-.8-12.7c.6-1.2.4-2.5-.3-2.5-1 0-2.4 1.4-2.2 2.3.1 1 2 1.2 2.5.2zm12.3-2.9c0-.8-1.1-2.1-1.9-2.1-.4 0-.5.4-.5 1.2 0 1.4.2 1.6 1.4 1.6.8 0 1-.2 1-.7zm12-4.5c-.5-.8-2.4-1.9-2.9-1.6-.9.6.2 1.7 2.2 2.2 1.2.3 1.2.3.7-.6zm-14-2.9c.9-.9.6-1.7-.6-2-.6-.1-1.1 0-1.5.3-.5.5-.5.7 0 1.5.7 1 1.3 1.1 2.2.2zm-28-.9c.8-.6 1-2.3.3-2.3-.8 0-2.4 1.4-2.4 2.2 0 .8 1 .9 2 .1zm8.2-.2c1.3-.6 1.4-.8.9-1-1.3-.8-4.2.4-3.6 1.4.4.5 1.1.4 2.7-.4zm10.9-.2-.9-.9c-.5-.4-2.2-.3-2.5.1-.4.7.7 1.4 2.3 1.4 1.4 0 1.5 0 1-.6zm16.1-2.5c.2-.6-1.6-1-2-.5-.3.3-.2.5.4.7 1 .4 1.5.4 1.6-.2zm5.8-.6c-.5-.3-1.1-.5-1.4-.5-.3 0-.2.2.3.5s1.1.5 1.4.5c.3 0 .2-.2-.3-.5zm-31.2-1.6c.6-.2.6-.3 0-.5-.8-.4-2.8 0-3 .4-.1.5 1.8.6 3 .1zm19.5-2.4c0-.5-1.2-.8-1.9-.6-1 .4-.6.9.7.9.7 0 1.2-.2 1.2-.3zm-10.6-.7c0-.2-.2-.4-.6-.4-.8 0-1.2.4-.9.8.4.4 1.3.1 1.5-.4zM66.7 211c0-.2 0-.4.2-.4s.4.2.4.4-.1.3-.2.3l-.4-.3zm-14.3-2.5c0-.4.1-.7.2-.7l.5.7c.3.6.3.7-.1.7-.3 0-.6-.3-.6-.7zm13-7.3c-.2-.2.2-.5.8-.6.8-.1 1.1-.4 1.4-1.3l.3-1.2v1.1c0 1.6-1.9 3-2.6 2z" style="fill:#e27c2c;stroke-width:.352778" transform="translate(-44.5 -173.2)"/>
  <path d="M73.6 237.4c-8.2-1.7-15.2-6.3-17.9-11.6-1.3-2.7-1.4-3.7 0-1.6 2.2 3.4 6.3 6.2 10.5 7.3l5.4 1.5c1.3.4 3 .7 4 .7a55.7 55.7 0 0 0 14.3-1 23.7 23.7 0 0 0 7.2-1.9c1.2 0 5.6-2.6 7.4-4.3.9-1 1.7-1.6 1.7-1.4 0 .7-2.5 4-4.6 5.8a29.3 29.3 0 0 1-11.5 6 53 53 0 0 1-16.5.5zm3.6-5.4-3.3-.5c-3.8-.6-6.1-1.3-9.4-3a21.5 21.5 0 0 1-12-14c0-.6 1.2-.1 2.3.8 1 .9 1.2 1 1.2.4.2-1.7.1-2.6-.4-3-.4-.5-.6-.5-1.6.3-.5.5-1.2 1-1.4 1-.4 0-.9-2.8-.6-3.3.1-.2.4-.3.7-.3.3 0 .6-.2.7-.5 0-.2.6.2 1.4 1.1 5.7 6.6 20.1 10.2 33.5 8.4 5-.7 8.5-1.7 12.8-3.7 2-1 3.7-1.6 3.8-1.5.1 0 .2 0 .2-.2s1-1.4 2.2-2.6l2.1-2.3-.2 2.3c-.4 3.3-.9 5.2-2 7.6a23.5 23.5 0 0 1-7.1 7.6l-1.7 1 1.8-2.6a20 20 0 0 0 3.7-7.5l.2-1.5-1.4 1.5c-1.8 2-5.3 3.6-9.1 4.4l-5.5 1.2c-2 .6-3.3.7-4.6.5-2.5-.2-3.4.3-1.4.9l3 .7a35 35 0 0 1 5.3 2.6l3.9 2.1-1.6.4-2 .7c-1 .7-11.1 1.4-13.5 1zm-8.4-7.2c-.2-.3-.4-1-.4-1.6a4 4 0 0 0-.7-2c-.6-.8-1-1-1.8-.8-.6.2-1 .1-1-.1s-.3-.4-.5-.4c-.3 0-.9-.3-1.2-.7-1-1.3-2.3-1.8-3.1-1.3l-.8.4 1 2.5c.6 1.5 1.2 2.5 1.5 2.6.4 0 1.1-.3 1.7-.8l1.1-1 1.3 1 2 1.9c.3.4.8.7 1 .7.2 0 .2-.2 0-.4zm4.8-2c1.2-1.1 1.2-1.1.3-1.1-.8 0-2 1-2 1.8 0 .5.5.3 1.7-.8zM59 217.4c.3-.6-.4-.8-1.1-.2-.7.4-.7.5 0 .5.5 0 1-.2 1-.3zm20-.7a22 22 0 0 0-4.8-1.3c-1-.1-2-.5-2.2-.8-.4-.6-.5-.6-.5 0 0 .7 0 .7-.3.3-.2-.3-.3-.7-.2-.8.1-.2 0-.3-.3-.3-.8 0-1.7-1.2-1.5-2.1.1-.6 0-.3-.5.5-.5 1.2-.6 1.3-.8.6-.1-.5 0-1.1.6-1.9a4 4 0 0 0 .9-1.7c0-.3.2-.2.3.3.5 1.2 1.2.8 1.4-.7 0-1 .3-1.4.8-1.5.3-.1.7-.5.7-.9 0-1 .3-1.8.7-1.5.3.1.3 0 .2-.6l.1-.7c.2 0 .4-.3.4-.6s.3-.6.8-.8c.4-.2.6-.4.3-.4-.2 0-.4-.2-.4-.4s0-.3.2-.2c.2.1.2-.4.2-1.2-.1-1.2-.3-1.4-1.3-1.7-.6-.1-1.6-.2-2.2-.1-.8 0-1.1 0-1-.3.1-.2 0-.3-.1-.3-.3 0-.4-.3-.4-.5 0-.3-.3-.6-.6-.6-.5 0-.5 0 0-.6.4-.5.3-.5-.4-.1-.4.2-1 .3-1 .2l-2.6-.3a7 7 0 0 1-2.6-.6c-.3-.3-.2-.3.2-.1.5.1.6 0 .4-.4a.8.8 0 0 0-.7-.5c-.4 0-.5-.3-.3-.8l.4-1.4c.2-.5.1-.7-.2-.5-.4.2-.2-.7.3-1.4.4-.5.3-1.7 0-2.2-.3-.3-.2-.5.3-.6a37.7 37.7 0 0 1 19.5-3.5c4.8 0 6.4.2 9.3 1 10.5 2.8 17.2 8.6 16.6 14.6-.3 2.8-.6 4.3-.9 4.5-.2 0-.3.4-.3.7 0 .7-2.4 3.7-4 5l-1.7 1.6c-.4.3-.8.6-1 .6-.3 0-1 .4-1.6.8-.6.5-2 1.1-3.1 1.5-1.1.3-2.1.7-2.2.9-.1.2-.4.2-.7.1-.3-.1-1.4.1-2.6.5-1.1.4-3 .8-4.2.9-1.2 0-2.3.2-2.4.3-.2.2-.6 0-1-.1-.4-.3-.8-.3-1 0-.5.4-1.9.5-3 0zm-.8-12.7c.6-1.2.4-2.5-.3-2.5-1 0-2.4 1.4-2.2 2.3.1 1 2 1.2 2.5.2zm12.3-2.9c0-.8-1.1-2.1-1.9-2.1-.4 0-.5.4-.5 1.2 0 1.4.2 1.6 1.4 1.6.8 0 1-.2 1-.7zm12-4.5c-.5-.8-2.4-1.9-2.9-1.6-.9.6.2 1.7 2.2 2.2 1.2.3 1.2.3.7-.6zm-14-2.9c.9-.9.6-1.7-.6-2-.6-.1-1.1 0-1.5.3-.5.5-.5.7 0 1.5.7 1 1.3 1.1 2.2.2zm-19.8-1.1c1.3-.6 1.4-.8.9-1-1.3-.8-4.2.4-3.6 1.4.4.5 1.1.4 2.7-.4zm10.9-.2-.9-.9c-.5-.4-2.2-.3-2.5.1-.4.7.7 1.4 2.3 1.4 1.4 0 1.5 0 1-.6zm16.1-2.5c.2-.6-1.6-1-2-.5-.3.3-.2.5.4.7 1 .4 1.5.4 1.6-.2zm5.8-.6c-.5-.3-1.1-.5-1.4-.5-.3 0-.2.2.3.5s1.1.5 1.4.5c.3 0 .2-.2-.3-.5zm-31.2-1.6c.6-.2.6-.3 0-.5-.8-.4-2.8 0-3 .4-.1.5 1.8.6 3 .1zm19.5-2.4c0-.5-1.2-.8-1.9-.6-1 .4-.6.9.7.9.7 0 1.2-.2 1.2-.3zm-10.6-.7c0-.2-.2-.4-.6-.4-.8 0-1.2.4-.9.8.4.4 1.3.1 1.5-.4zM66.7 211c0-.2 0-.4.2-.4s.4.2.4.4-.1.3-.2.3l-.4-.3zm-14.3-2.5c0-.4.1-.7.2-.7l.5.7c.3.6.3.7-.1.7-.3 0-.6-.3-.6-.7zm13-7.3c-.2-.2.2-.5.8-.6.8-.1 1.1-.4 1.4-1.3l.3-1.2v1.1c0 1.6-1.9 3-2.6 2zm-5.5-8.1c.7-.4 1.2-1 1.3-1.4.1-1 .8-1.1.8-.3s-1.7 2.3-2.6 2.3c-.7 0-.6-.1.5-.6z" style="fill:#d47d34;stroke-width:.352778" transform="translate(-44.5 -173.2)"/>
  <path d="M73.6 237.4c-8.2-1.7-15.2-6.3-17.9-11.6-1.1-2.3-1.5-4-.4-2 .8 1.4 3.1 3.7 5.8 5.6 1.4 1 2.9 1.6 5 2.1l5.5 1.5a43.2 43.2 0 0 0 15.1.1c.4.1 2.1 0 3.8-.3l4.2-.7c.6 0 2.2-.6 3.5-1.2a16 16 0 0 1 2.8-1.1c.2 0 1.4-1 2.6-2l2.2-2-1 1.7c-2.8 4-8.7 7.8-14.7 9.4a53 53 0 0 1-16.5.5zm3.6-5.4-3.3-.5c-3.8-.6-6.1-1.3-9.4-3a21.5 21.5 0 0 1-12-14c0-.6 1.2-.1 2.3.8 1 .9 1.2 1 1.2.4.2-1.7.1-2.6-.4-3-.4-.5-.6-.5-1.6.3-.5.5-1.2 1-1.4 1-.4 0-.9-2.8-.6-3.3.1-.2.4-.3.7-.3.3 0 .6-.2.7-.5 0-.2.6.2 1.4 1.1 5.7 6.6 20.1 10.2 33.5 8.4 5-.7 8.5-1.7 12.8-3.7 2-1 3.7-1.6 3.8-1.5.1 0 .2 0 .2-.2s1-1.4 2.2-2.6l2.1-2.3-.2 2.3c-.4 3.3-.9 5.2-2 7.6a23.5 23.5 0 0 1-7.1 7.6l-1.7 1 1.7-2.5c2.3-3.3 3.5-5.7 3.8-7.6l.2-1.6-1.3 1.5a18.5 18.5 0 0 1-9.2 4.5l-5.4 1.2c-1.8.5-3.3.6-4.5.5a6 6 0 0 0-2.5.1c-.6.4-.6.4 3.9 1.5.8.2 2.5 1 3.8 1.7 1.2.8 3 1.7 3.9 2.2l1.5.8-1.6.4-2 .7c-1 .7-11.1 1.4-13.5 1zm-8.4-7.2c-.2-.3-.4-1-.4-1.6a4 4 0 0 0-.7-2c-.6-.8-1-1-1.8-.8-.6.2-1 .1-1-.1s-.3-.4-.5-.4c-.3 0-.9-.3-1.2-.7-1-1.3-2.3-1.8-3.1-1.3l-.8.4 1 2.5c.6 1.5 1.2 2.5 1.5 2.6.4 0 1.1-.3 1.7-.8l1.1-1 1.3 1 2 1.9c.3.4.8.7 1 .7.2 0 .2-.2 0-.4zm4.8-2c1.2-1.1 1.2-1.1.3-1.1-.8 0-2 1-2 1.8 0 .5.5.3 1.7-.8zM59 217.4c.3-.6-.4-.8-1.1-.2-.7.4-.7.5 0 .5.5 0 1-.2 1-.3zm20-.7a21 21 0 0 0-5-1.3c-1-.1-1.8-.4-1.8-.6l.8-.2c.7 0 .8 0 .7-1.2 0-1.3 0-1.4 1.3-1.5.3 0 .6-.4.6-1s.2-1.1.3-1.3c.2-.1.4-.4.4-.7 0-.3.1-.6.4-.6.2 0 .5 0 .6-.2.1-.1.5-.2.7 0 .3 0 .6-.3.8-1 .4-1.1.2-1.5-1-1.7-.4 0-1-.2-1.3-.4-.5-.3-.4-.3.4-.4 1 0 1.6-.8 1.6-2.2 0-.5.2-1 .4-1s.4.3.4.6.2.4.7.3c1-.3.9-2.2-.3-3.8a5.9 5.9 0 0 0-5-2.5c-1 0-2.4-.3-2.9-.5-.6-.2-1.3-.2-2.3.1a5 5 0 0 1-1.6.4l-2.4-.3a7 7 0 0 1-2.6-.6c-.3-.3-.2-.3.2-.1.5.1.6 0 .4-.4a.8.8 0 0 0-.7-.5c-.4 0-.5-.3-.3-.8l.4-1.4c.2-.5.1-.7-.2-.5-.4.2-.2-.7.3-1.4.4-.5.3-1.7 0-2.2-.3-.3-.2-.5.3-.6l2.7-1c5.4-2.1 8-2.5 15.5-2.5 6.5 0 7.4.1 10.6 1 9.4 2.5 16 7.7 16.6 12.9a15.7 15.7 0 0 1-1.2 7.1c0 .4-.3.6-.6.6-.2 0-.5.2-.5.3a525 525 0 0 0-4.2 4.3 27 27 0 0 1-8.3 5c-.1.1-.4.2-.7.1-.3-.1-1.4.1-2.6.5-1.1.4-3 .8-4.2.9-1.2 0-2.3.2-2.4.3-.2.2-.6 0-1-.1-.4-.3-.8-.3-1 0-.5.4-1.9.5-3 0zm1.5-13.4c-.1-.2 0-.4.3-.5.2-.2.1-.2-.2-.3-.6 0-.8.4-.4.8.3.4.5.3.3 0zm10-2.2c0-.8-1.1-2.1-1.9-2.1-.4 0-.5.4-.5 1.2 0 1.4.2 1.6 1.4 1.6.8 0 1-.2 1-.7zm12-4.5c-.5-.8-2.4-1.9-2.9-1.6-.9.6.2 1.7 2.2 2.2 1.2.3 1.2.3.7-.6zm-14-2.9c.9-.9.6-1.7-.6-2-.6-.1-1.1 0-1.5.3-.5.5-.5.7 0 1.5.7 1 1.3 1.1 2.2.2zm-19.2-1.3c.7-.4.8-.6.4-.9-.8-.5-2.3-.3-3.2.4-1.7 1.4.7 1.9 2.8.5zm10.3 0-.9-.9c-.5-.4-2.2-.3-2.5.1-.4.7.7 1.4 2.3 1.4 1.4 0 1.5 0 1-.6zm16.1-2.5c.2-.6-1.6-1-2-.5-.3.3-.2.5.4.7 1 .4 1.5.4 1.6-.2zm5.8-.6c-.5-.3-1.1-.5-1.4-.5-.3 0-.2.2.3.5s1.1.5 1.4.5c.3 0 .2-.2-.3-.5zm-31.2-1.6c.6-.3.6-.3-.2-.6-1-.4-2.6 0-2.8.5-.1.5 1.8.6 3 .1zm19.5-2.4c0-.5-1.2-.8-1.9-.6-1 .4-.6.9.7.9.7 0 1.2-.2 1.2-.3zm-10.6-.7c0-.2-.2-.4-.6-.4-.8 0-1.2.4-.9.8.4.4 1.3.1 1.5-.4zm-26.8 24c0-.5.1-.8.2-.8l.5.7c.3.6.3.7-.1.7-.3 0-.6-.3-.6-.7zm13-7.5c-.3-.3-.3-.3.3-.3.5 0 1-.3 1.4-.7.4-.4.6-.4.5 0-.3.7-1.5 1.4-2.1 1zm-5.5-8c.7-.4 1.2-1 1.3-1.4.1-1 .8-1.1.8-.3s-1.7 2.3-2.6 2.3c-.7 0-.6-.1.5-.6z" style="fill:#c57a45;stroke-width:.352778" transform="translate(-44.5 -173.2)"/>
  <path d="M73.6 237.4a31 31 0 0 1-8.9-3.1c-4.6-2.4-8.8-7-9.8-10.9-.2-.5.1-.2.6.7 2.3 3.8 7.4 7.6 11.2 8.3 2 .4 3 .7 3.5 1 3 1.5 9.3 1.4 19.4-.4l5.1-.9c.6 0 2.2-.6 3.5-1.2l2.7-1.1c.2 0 1.4-.9 2.6-1.9 2-1.7 2-1.8 1.4-.6-2.1 3.6-8.7 8-14.8 9.6-3.6 1-12.8 1.2-16.5.5zm2.9-5.6c-10.2-1-18.7-6-22.2-13.1l-1.6-3.6c-.3-1.2.6-1 2 .2 1 .9 1.3 1 1.3.4.2-1.7.1-2.6-.4-3-.4-.5-.6-.5-1.6.3-.5.5-1.2 1-1.4 1-.4 0-.9-2.8-.6-3.3.1-.2.4-.3.7-.3.3 0 .6-.2.7-.5 0-.2.6.2 1.4 1.1 8.5 9.7 33.7 11.9 47.7 4.1 1.2-.7 2.2-1 2.4-1 .1.2.2.1.2 0 0-.7 3.8-4.5 4-4 .6.8-.6 6.2-2 9a25.8 25.8 0 0 1-7.2 7.7c-1.4.7-1.4.7.8-2.5a24 24 0 0 0 3.3-6c0-.7 1-.6 1.2.1.1.3.2.1.2-.5 0-.7-.1-1.2-.3-1.2-.2 0-.3.2-.3.4s-.2.3-.4.3-.4-.3-.4-.7c0-.5-.2-.4-1.2.7a18.6 18.6 0 0 1-9.2 4.5l-5.4 1.2c-1.8.5-3.3.6-4.5.5a6 6 0 0 0-2.5.1c-.6.4-.7.4 3.8 1.5.9.2 2.8 1 4.2 2l3.7 2c1.3.6 1.1.7-2.6 1.6a40.8 40.8 0 0 1-13.8 1zm-7.7-7c-.2-.3-.4-1-.4-1.6a4 4 0 0 0-.7-2c-.6-.8-1-1-1.8-.8-.6.2-1 .1-1-.1s-.3-.4-.5-.4c-.3 0-.9-.3-1.2-.7-1-1.3-2.3-1.8-3.1-1.3l-.8.4 1 2.5c.6 1.5 1.2 2.5 1.5 2.6.4 0 1.1-.3 1.7-.8l1.1-1 1.3 1 2 1.9c.3.4.8.7 1 .7.2 0 .2-.2 0-.4zm4.8-2c1.2-1.1 1.2-1.1.3-1.1-.8 0-2 1-2 1.8 0 .5.5.3 1.7-.8zM59 217.4c.3-.6-.4-.8-1.1-.2-.7.4-.7.5 0 .5.5 0 1-.2 1-.3zm47.5-.6c.1-.6 0-.9-.3-.9-.5 0-.7 1.1-.3 1.6.4.3.4.3.6-.7zM77 215.3l-1.5-.4c-1-.1-1.3-.3-1.5-1.3-.4-1.3-.3-1.6.9-1.6.6 0 .8-.3.8-1 0-.6.2-1.1.3-1.3.2-.1.4-.4.4-.7 0-.3.1-.6.4-.6.2 0 .5 0 .6-.2.1-.1.5-.2.7 0 .3 0 .6-.3.8-1 .4-1.1.2-1.5-1-1.7-.4 0-1-.2-1.3-.4-.5-.3-.4-.3.4-.4 1 0 1.5-.6 2-2.4.2-.5.3-.7.3-.3 0 .4.3.5.8.4 1-.3.9-2.2-.3-3.8a5.9 5.9 0 0 0-5-2.5c-1 0-2.4-.3-2.9-.5-.6-.2-1.3-.2-2.3.1a5 5 0 0 1-1.6.4l-2.4-.3a7 7 0 0 1-2.6-.6c-.3-.3-.2-.3.2-.1.5.1.6 0 .4-.4a.8.8 0 0 0-.7-.5c-.4 0-.5-.3-.4-.7.7-2 .7-2.3.3-2-.4.2-.2-.7.3-1.4.4-.5.3-1.7 0-2.2-.3-.3-.4-.5-.3-.5l1-.2a33.8 33.8 0 0 1 7-2.5 52.2 52.2 0 0 1 17.7-.6c10.9 1.7 19.7 7.6 20.3 13.6a15.7 15.7 0 0 1-1.2 7.1c0 .4-.3.6-.6.6-.2 0-.5.2-.5.3 0 .7-3.9 4.2-6.8 6.4-1.8 1.2-2.4 1.5-3.8 1.5-.9 0-1.8.1-2 .3a6 6 0 0 1-2.3.5 6 6 0 0 0-2.5.5 3 3 0 0 1-1.7.5 6670.7 6670.7 0 0 1-8.6 0H77zm3.6-12c-.1-.1 0-.3.3-.4.2-.2.1-.2-.2-.3-.6 0-.8.4-.4.8.3.4.5.3.3 0zm10-2.2c0-1-1.6-2.5-2.1-2.2-.4.3-.4 2.4 0 2.8l1.1.2c.9 0 1-.1 1-.8zm12-4.4c-.5-1-2.4-2-3-1.5-.5.6.3 1.5 1.8 2 1.7.5 1.8.4 1.3-.5zm-13.9-3c.9-.9.3-1.8-1.1-2-1.4 0-1.8.8-1 2 .7 1 1.3 1 2.1 0zm-19.3-1.2c.7-.4.8-.6.4-.9-.8-.5-2.3-.3-3.2.4-1.7 1.4.7 1.9 2.8.5zm10.3 0c-.6-1.3-3-1.6-3.4-.6-.3.8.5 1.2 2.3 1.2 1.3 0 1.5 0 1.1-.7zM96 190c-.2-.7-1.6-1-2.2-.5-.2.3-.1.5.5.7 1.3.6 1.8.5 1.7-.2zm5.9-.6a3 3 0 0 0-1.6-.5c-1 0-1 0 .1.5 1.5.7 2.4.7 1.5 0zm-31.3-1.6c.4-.3.4-.4-.3-.6-1-.4-2.6 0-2.8.5-.1.5 2.3.6 3.1.1zm19.3-2.6c0-.2-.5-.4-1.1-.4-.5 0-1 .2-1.1.4-.1.3.2.5 1.1.5.9 0 1.2-.2 1.1-.5zm-10.5-.5c0-.2-.2-.4-.6-.4-.8 0-1.2.4-.9.8.4.4 1.3.1 1.5-.4zm-26.8 23.8c0-.6.1-.7.4-.2.4.6.4 1 0 1-.2 0-.4-.3-.4-.8zm13.3-7.3c-.1-.2 0-.3.4-.3a2 2 0 0 0 1.1-.5c.4-.3.5-.3.3 0-.4.7-1.6 1.2-1.8.8zm-5.8-8c.7-.4 1.2-1 1.3-1.4.1-1 .8-1.1.8-.3s-1.7 2.3-2.6 2.3c-.7 0-.6-.1.5-.6z" style="fill:#d7762a;stroke-width:.352778" transform="translate(-44.5 -173.2)"/>
  <path d="M73.6 237.4a31 31 0 0 1-8.9-3.1c-4.6-2.4-8.8-7-9.8-10.9-.2-.5.1-.2.6.7 2.3 3.8 7.4 7.6 11.2 8.3 2 .4 3 .7 3.5 1 3 1.5 9.3 1.4 19.4-.4l5.1-.9c.6 0 2.2-.6 3.5-1.2l2.7-1.1c.2 0 1.4-.9 2.6-1.9 2-1.7 2-1.8 1.4-.6-2.1 3.6-8.7 8-14.8 9.6-3.6 1-12.8 1.2-16.5.5zm2.9-5.6c-10.2-1-18.7-6-22.2-13.1l-1.6-3.6c-.3-1.2.6-1 2 .2 1 .9 1.3 1 1.3.4.2-1.7.1-2.6-.4-3-.4-.5-.6-.5-1.6.3-.5.5-1.2 1-1.4 1-.4 0-.9-2.8-.6-3.3.1-.2.4-.3.7-.3.3 0 .6-.2.7-.5 0-.2.6.2 1.4 1.1 8.4 9.6 33.9 11.9 47.4 4.3l1.8-1 .1.7c.2.8.2.7.8-.4.7-1.6 4-5 4.3-4.6.5 1-.7 6.3-2.1 9a25.8 25.8 0 0 1-7.2 7.8c-1.4.7-1.4.7.8-2.5a24 24 0 0 0 3.3-6c0-.7 1-.6 1.2.1.1.3.2.1.2-.5 0-.7-.1-1.2-.3-1.2-.2 0-.3.2-.3.4s-.2.3-.4.3-.4-.3-.4-.7c0-.6-.2-.4-1.2.7-2.3 2.5-8.4 5-12.5 5-.9 0-2.6.3-3.9.6-1.3.4-3.2.6-4.5.6-1.3 0-2.1 0-2 .2.2.2 1.8.6 3.5 1 2.2.5 4 1.3 5.8 2.3 1.5.9 3.1 1.8 3.7 2 1.3.7 1.1.8-2.6 1.7a40.8 40.8 0 0 1-13.8 1zm-7.7-7c-.2-.3-.4-1-.4-1.6a4 4 0 0 0-.7-2c-.6-.8-1-1-1.8-.8-.6.2-1 .1-1-.1s-.3-.4-.5-.4c-.3 0-.9-.3-1.2-.7-1-1.3-2.3-1.8-3.1-1.3l-.8.4 1 2.5c.6 1.5 1.2 2.5 1.5 2.6.4 0 1.1-.3 1.7-.8l1.1-1 1.3 1 2 1.9c.3.4.8.7 1 .7.2 0 .2-.2 0-.4zm4.8-2c1.2-1.1 1.2-1.1.3-1.1-.8 0-2 1-2 1.8 0 .5.5.3 1.7-.8zM59 217.4c.3-.6-.4-.8-1.1-.2-.7.4-.7.5 0 .5.5 0 1-.2 1-.3zm47.5-.6c.1-.6 0-.9-.3-.9-.5 0-.7 1.1-.3 1.6.4.3.4.3.6-.7zM77 215.3l-1.5-.4c-1-.1-1.3-.3-1.5-1.3-.4-1.3-.3-1.6.9-1.6.6 0 .8-.3.8-1 0-.6.2-1.1.3-1.3.2-.1.4-.4.4-.7 0-.3.1-.6.4-.6.2 0 .5 0 .6-.2.1-.1.5-.2.7 0 .3 0 .6-.3.8-1 .4-1.1.2-1.5-1-1.7-.4 0-1-.2-1.3-.4-.5-.3-.4-.3.4-.4 1 0 1.5-.6 2-2.4.2-.5.3-.7.3-.3 0 .4.3.5.8.4 1.5-.4.3-3.9-1.7-5.2a1 1 0 0 1-.5-.8c0-.3-.2-.6-.5-.7-.3-.1-.4-.4-.3-.5 0-.2-.4-.6-1-1-.8-.3-1.3-.7-1.3-.8 0-.2-.4-.3-.9-.3-.9 0-2.5-2.5-2-3 .2-.2.4-1 .5-1.8.2-1.6-.6-3-1.6-3-.5 0-.6 0-.4-.3a46.7 46.7 0 0 1 18.1-.9 33 33 0 0 1 16.6 7.2c2.2 2.2 3 4.4 2.7 8-.1 1.6-.4 2.8-.6 2.9-.2 0-.3.6-.3 1.1 0 .5-.3 1.3-.7 1.6-.4.3-.8 1-1 1.3 0 .4-.5 1-1 1.5l-1.4 1.8c-.4.5-1.7 1.6-3 2.5-1.9 1.3-2.6 1.6-3.9 1.6-.9 0-1.8.1-2 .3a6 6 0 0 1-2.3.5 6 6 0 0 0-2.5.5 3 3 0 0 1-1.7.5 6670.7 6670.7 0 0 1-8.6 0H77zm3.6-12c-.1-.1 0-.3.3-.4.2-.2.1-.2-.2-.3-.6 0-.8.4-.4.8.3.4.5.3.3 0zm10-2.2c0-1-1.6-2.5-2.1-2.2-.4.3-.4 2.4 0 2.8l1.1.2c.9 0 1-.1 1-.8zm12-4.4c-.5-1-2.4-2-3-1.5-.5.6.3 1.5 1.8 2 1.7.5 1.8.4 1.3-.5zm-13.9-3c.9-.9.3-1.8-1.1-2-1.4 0-1.8.8-1 2 .7 1 1.3 1 2.1 0zm-9-1.3c-.6-1.2-3-1.5-3.4-.5-.3.8.5 1.2 2.3 1.2 1.3 0 1.5 0 1.1-.7zM96 190c-.2-.7-1.6-1-2.2-.5-.2.3-.1.5.5.7 1.3.6 1.8.5 1.7-.2zm5.9-.6a3 3 0 0 0-1.6-.5c-1 0-1 0 .1.5 1.5.7 2.4.7 1.5 0zm-12-4.2c0-.2-.5-.4-1.1-.4-.5 0-1 .2-1.1.4-.1.3.2.5 1.1.5.9 0 1.2-.2 1.1-.5zm-10.5-.5c0-.2-.2-.4-.6-.4-.8 0-1.2.4-.9.8.4.4 1.3.1 1.5-.4zm-26.8 23.8c0-.6.1-.7.4-.2.4.6.4 1 0 1-.2 0-.4-.3-.4-.8zm13.3-7.3c-.1-.2 0-.3.4-.3a2 2 0 0 0 1.1-.5c.4-.3.5-.3.3 0-.4.7-1.6 1.2-1.8.8zm-6-8a3 3 0 0 0 1.5-1.2c.3-.6.4-.7.4-.3 0 .7-1.6 2.1-2.4 2-.3 0 0-.2.6-.4zm8.7-5h1c.3.2 0 .2-.6.2-.5 0-.7 0-.4-.1zm1.7-.2.5-.3c.3-.1.5 0 .5.1 0 .2-.2.4-.5.4s-.5-.1-.5-.2zm-4.3-1.6c.7-.5 1.2-.5 1 0-.2.2-.6.3-.9.3-.5 0-.5 0 0-.3z" style="fill:#c67734;stroke-width:.352778" transform="translate(-44.5 -173.2)"/>
  <path d="M73.6 237.4a27 27 0 0 1-16.9-10c-1.4-2-1.2-2.2.4-.3 2.1 2.3 5.5 4.6 8.5 5.6l4.1 1.5c.8.3 1.8.4 2 .3a51.5 51.5 0 0 0 14 .3c.7-.5 4.4-1.3 5-1 .3 0 .9 0 1.2-.3.4-.2 1.4-.5 2.3-.6a24 24 0 0 0 9.1-4.5l2-1.6-1.2 1.5c-3 3.7-8.3 7-14 8.6-3.6 1-12.8 1.2-16.5.5zm2.9-5.6c-10.2-1-18.7-6-22.2-13.1l-1.6-3.6c-.3-1.2.6-1 2 .2 1 .9 1.3 1 1.3.4.2-1.7.1-2.6-.4-3-.4-.5-.6-.5-1.6.3-.5.5-1.2 1-1.4 1-.4 0-.9-2.8-.6-3.3.1-.2.4-.3.7-.3.3 0 .6-.2.7-.5 0-.2.6.2 1.4 1.1 6.5 7.4 23.6 10.9 38 7.7 3-.7 7.7-2.4 9.7-3.5l1.5-1 .1.9c.2.7.2.6.8-.5.7-1.6 4-5 4.3-4.6.5 1-.7 6.3-2.1 9a25.8 25.8 0 0 1-7.2 7.8c-1.3.6-1.3.6.5-2 1.5-2.1 3.6-6 3.6-6.5 0-.7 1-.6 1.2.1.1.3.2.1.2-.5 0-.7-.1-1.2-.3-1.2-.2 0-.3.2-.3.4s-.2.3-.4.3-.4-.3-.4-.7c0-.6-.1-.5-1 .6a19.5 19.5 0 0 1-11.6 5c-1.3 0-3 .3-4 .5-.8.2-2.6.4-4 .4-4.3.2-4.5.2-4.4.4.1 0 1.8.6 3.7 1a40 40 0 0 1 10.8 5.2 44 44 0 0 1-8.1 2c-3.2.3-6 .3-9 0zm-7.7-7c-.2-.3-.4-1-.4-1.6a4 4 0 0 0-.7-2c-.6-.8-1-1-1.8-.8-.6.2-1 .1-1-.1s-.3-.4-.5-.4c-.3 0-.9-.3-1.2-.7-1-1.3-2.3-1.8-3.1-1.3l-.8.4 1 2.5c.6 1.5 1.2 2.5 1.5 2.6.4 0 1.1-.3 1.7-.8l1.1-1 1.3 1 2 1.9c.3.4.8.7 1 .7.2 0 .2-.2 0-.4zm4.8-2c1.2-1.1 1.2-1.1.3-1.1-.8 0-2 1-2 1.8 0 .5.5.3 1.7-.8zM59 217.4c.3-.6-.4-.8-1.1-.2-.7.4-.7.5 0 .5.5 0 1-.2 1-.3zm47.5-.6c.1-.6 0-.9-.3-.9-.5 0-.7 1.1-.3 1.6.4.3.4.3.6-.7zm-22.3-3.7c0-.2-.3-.4-.6-.4-.5 0-.5 0 0-.5.7-.7 1-.6 1.5.1.5.6.5.6.5 0 0-.3-.2-.6-.3-.6-.2 0-.4-.2-.4-.5 0-.4.2-.5.8-.2 1.1.5 1.1 1.7 0 2.1-1 .4-1.5.4-1.5 0zm3.6-.2c.4-.6.4-.6-.2-.4-.5.2-.6 0-.5-.7.1-1.2.8-1.6 2.1-1.4 1 .1 1.3 0 1.6-.8.3-.7.2-1.1-.1-1.6-.3-.4-.4-1-.3-1.2 0-.2 0-.3-.2-.2-.2.1-.4 0-.4-.2s.2-.4.5-.4c.2 0 .2-.1-.2-.3-.5-.3-1.2-2-1-2.6 0-.2-.1-.5-.4-.8-.2-.3-.2-.5 0-.5h1c1.2 0 1.1-1.4 0-2.5-1-.8-1-.8-1.5-.1-.5.6-.5.6-1-.1-.3-.5-.7-.7-.9-.6-.2 0-.4 0-.5-.2-.1-.2-.4-.3-.5-.2-.2.1-.5 0-.8-.3-.2-.3-1-.7-1.7-.8-2-.4-7.8-3-8-3.7-.1-.2-.5-.3-1-.3-.9 0-2.5-2.5-2-3 .2-.2.4-1 .5-1.8.2-1.6-.6-3-1.6-3-1.4 0-.1-.6 2.2-1 3.3-.7 11.2-.8 15.3-.2 6.5 1 13.1 3.8 16.8 7.2 2.2 2.2 3 4.3 2.7 8-.1 1.6-.4 2.8-.6 2.9-.2 0-.3.5-.3 1s-.4 1.4-1 2c-.4.5-.8 1.2-.8 1.5 0 .3-.2.5-.4.5s-.7.5-1.2 1a12 12 0 0 1-5.2 3.4 6 6 0 0 0-1.7.5c-.4.3-1 .4-1.5.4-.4 0-1 0-1.4.2-.4.1-1.2 0-1.9-.1-.6-.2-1.2-.3-1.2 0 0 .4-1.3.3-1.5-.2 0-.3-.3-.1-.5.4-.3.4-.6.8-.8.8-.3 0-.2-.3 0-.6zm14.8-16.3c-.6-1-2.5-2-3-1.5-.6.6.2 1.5 1.7 2 1.7.5 1.8.4 1.3-.5zm-14-3c1-1 .3-1.8-1.3-1.8-1.4 0-1.8.9-.8 2 .8.8 1.3.8 2.1-.1zm-9-1.4c-1-1.4-4-1.2-3.4.2.2.4.7.6 2 .6 1.8 0 1.8 0 1.3-.8zm16.2-2.3c-.2-.7-1.6-1-2.2-.5-.2.3-.1.5.5.7 1.3.6 1.8.5 1.7-.2zm5.9-.6a3 3 0 0 0-1.6-.5c-1 0-1 0 .1.5 1.5.7 2.4.7 1.5 0zm-12-4.2c0-.2-.5-.4-1.1-.4-.5 0-1 .2-1.1.4-.1.3.2.5 1.1.5.9 0 1.2-.2 1.1-.5zm-10.5-.5c0-.3-.1-.4-.7-.4-.4.1-.8.4-1 .6 0 .3.2.5.7.4.5 0 .9-.4 1-.6zm-26.8 23.8c0-.6.1-.7.4-.2.4.6.4 1 0 1-.2 0-.4-.3-.4-.8zm24.3-3.7h.7c.1.2-.1.3-.5.3s-.5-.1-.2-.3zm1.3-.5c.2-.4.4-.6.5-.5 0 .2 0 .4-.3.7-.3.3-.4.3-.2-.2zM66 201h.7c0 .1-.1.2-.5.2s-.5-.1-.2-.2zm-6-7.7a3 3 0 0 0 1.4-1.3c.3-.6.4-.7.4-.3 0 .7-1.6 2.1-2.4 2-.3 0 0-.2.6-.4zm10.3-5.3.5-.3c.3-.1.5 0 .5.1 0 .2-.2.4-.5.4s-.5-.1-.5-.2zm-4.3-1.6c.7-.5 1.2-.5 1 0-.2.2-.6.3-.9.3-.5 0-.5 0 0-.3z" style="fill:#90a434;stroke-width:.352778" transform="translate(-44.5 -173.2)"/>
  <path d="M73.6 237.4a27 27 0 0 1-16.9-10c-1.4-2-1.2-2.2.4-.3 2.1 2.3 5.5 4.6 8.5 5.6l4.1 1.5c.8.3 1.8.4 2 .3a51.5 51.5 0 0 0 14 .3c.7-.5 4.4-1.3 5-1 .3 0 .9 0 1.2-.3.4-.2 1.4-.5 2.3-.6a24 24 0 0 0 9.1-4.5l2-1.6-1.2 1.5c-3 3.7-8.3 7-14 8.6-3.6 1-12.8 1.2-16.5.5zm2.9-5.6c-10.2-1-18.7-6-22.2-13.1-2.3-4.7-2.2-5.5.4-3.4 1 .9 1.3 1 1.3.4.2-1.6.1-2.6-.4-3-.4-.5-.6-.5-1.6.3-.5.5-1.2 1-1.4 1-.4 0-.9-2.8-.6-3.3.1-.2.4-.3.7-.3.3 0 .6-.2.6-.4.1-.3.8.2 1.5 1 6.8 7.5 23.6 10.9 38 7.7 3-.7 7.7-2.4 9.7-3.5l1.5-1 .1.9c.2.7.2.6.8-.5.7-1.6 4-5 4.3-4.6.5 1-.7 6.3-2.1 9a25.8 25.8 0 0 1-7.2 7.8c-1.3.6-1.3.6.5-2 1.5-2.1 3.6-6 3.6-6.5 0-.7 1-.6 1.2.1.1.3.2.1.2-.5 0-.7-.1-1.2-.3-1.2-.2 0-.3.2-.3.4s-.2.3-.4.3-.4-.3-.4-.7c0-.6-.1-.5-1 .6a19.5 19.5 0 0 1-11.6 5c-1.3 0-3 .3-4 .5l-5 .4-3.6.3s1.6.6 3.6 1.1a32 32 0 0 1 11 5.2c0 .3-5.5 1.6-8 2-3.2.3-6 .3-9 0zm-7.7-7c-.2-.3-.4-1-.4-1.6a4 4 0 0 0-.7-2c-.6-.8-1-1-1.8-.8-.6.2-1 .1-1 0 0-.3-.4-.5-.8-.6-.5-.1-1-.6-1.3-1.1-.5-1-1.6-1.3-2.8-.8-.9.4-.8.7.5 3.7 1 2 1.7 2.3 2.8 1.1 1-1 1.6-.9 3.5.9 1 .9 2 1.6 2.1 1.6.2 0 .2-.2 0-.4zm6-3.4c-1-.4-2 .4-2.9 2l-1 1.8 2.1-1.9c1.2-1 2-1.9 1.7-2zm-15.6-4.1c.4-.5.3-.5-.4-.4l-1.2.3c-.2 0-.4.1-.3.3.3.5 1.5.3 2-.2zm47.4-.4c.1-.6 0-.9-.3-.9-.5 0-.7 1.1-.3 1.6.4.3.4.3.6-.7zm-22.3-3.7c0-.2-.3-.4-.6-.4-.5 0-.5 0 0-.5.7-.7 1-.6 1.5.1.5.6.5.6.5 0 0-.3-.2-.6-.3-.6-.2 0-.4-.2-.4-.5 0-.4.2-.5.8-.2 1.1.5 1.1 1.7 0 2.1-1 .4-1.5.4-1.5 0zm3.6-.2c.4-.6.4-.6-.2-.4-.5.2-.6 0-.5-.7.1-1.2.8-1.6 2.1-1.4 1 .1 1.3 0 1.6-.8.3-.7.2-1.1-.1-1.6-.3-.4-.4-1-.3-1.2 0-.2 0-.3-.2-.2-.2.1-.4 0-.4-.2s.2-.4.5-.4c.2 0 .2-.1-.2-.3-.5-.3-1.2-2-1-2.6 0-.2-.1-.5-.4-.8-.2-.3-.2-.5 0-.5h1c1.2 0 1.1-1.4 0-2.5-1-.8-1-.8-1.5-.1-.5.6-.5.6-1-.1-.3-.5-.7-.7-.9-.6-.2 0-.4 0-.5-.2-.1-.2-.4-.3-.5-.2-.2.1-.5 0-.8-.3-.2-.3-1-.7-1.7-.8-2-.4-7.8-3-8-3.7-.1-.2-.5-.3-1-.3-.9 0-2.5-2.5-2-3 .2-.2.4-1 .5-1.8.2-1.6-.6-3-1.6-3-1.4 0-.1-.6 2.2-1 3.3-.7 11.2-.8 15.3-.2 6.5 1 13.1 3.8 16.8 7.2 2.2 2.2 3 4.3 2.7 8-.1 1.6-.4 2.8-.6 2.9-.2 0-.3.5-.3 1s-.4 1.4-1 2c-.4.5-.8 1.2-.8 1.5 0 .3-.2.5-.4.5s-.7.5-1.2 1a12 12 0 0 1-5.2 3.4 6 6 0 0 0-1.7.5c-.4.3-1 .4-1.5.4-.4 0-1 0-1.4.2-.4.1-1.2 0-1.9-.1-.6-.2-1.2-.3-1.2 0 0 .4-1.3.3-1.5-.2 0-.3-.3-.1-.5.4-.3.4-.6.8-.8.8-.3 0-.2-.3 0-.6zm14.8-16.3c-.6-1-2.5-2-3-1.5-.6.6.2 1.5 1.7 2 1.7.5 1.8.4 1.3-.5zm-14-3c1-1 .3-1.8-1.3-1.8-1.4 0-1.8.9-.8 2 .8.8 1.3.8 2.1-.1zm-9-1.4c-1-1.4-4-1.2-3.4.2.2.4.7.6 2 .6 1.8 0 1.8 0 1.3-.8zm16.2-2.3c-.2-.7-1.6-1-2.2-.5-.2.3-.1.5.5.7 1.3.6 1.8.5 1.7-.2zm5.9-.6a3 3 0 0 0-1.6-.5c-1 0-1 0 .1.5 1.5.7 2.4.7 1.5 0zm-12-4.2c0-.2-.5-.4-1.1-.4-.5 0-1 .2-1.1.4-.1.3.2.5 1.1.5.9 0 1.2-.2 1.1-.5zm-10.5-.5c0-.3-.1-.4-.7-.4-.4.1-.8.4-1 .6 0 .3.2.5.7.4.5 0 .9-.4 1-.6zm-26.8 23.8c0-.6.1-.7.4-.2.4.6.4 1 0 1-.2 0-.4-.3-.4-.8zm24.3-3.7h.7c.1.2-.1.3-.5.3s-.5-.1-.2-.3zm1.3-.5c.2-.4.4-.6.5-.5 0 .2 0 .4-.3.7-.3.3-.4.3-.2-.2zM66 201h.7c0 .1-.1.2-.5.2s-.5-.1-.2-.2zm-6-7.7a3 3 0 0 0 1.4-1.3c.3-.6.4-.7.4-.3 0 .7-1.6 2.1-2.4 2-.3 0 0-.2.6-.4zm10.3-5.3.5-.3c.3-.1.5 0 .5.1 0 .2-.2.4-.5.4s-.5-.1-.5-.2zm-4.3-1.6c.7-.5 1.2-.5 1 0-.2.2-.6.3-.9.3-.5 0-.5 0 0-.3z" style="fill:#ab6a48;stroke-width:.352778" transform="translate(-44.5 -173.2)"/>
  <path d="M74 237.3a32 32 0 0 1-10-3.5 26 26 0 0 1-7.7-7.2c-.6-1.2-.6-1.2.8.4 2.1 2.4 5.5 4.7 8.5 5.7l4.1 1.5c.8.3 1.8.4 2 .3a51.5 51.5 0 0 0 14 .3c.7-.5 4.4-1.3 5-1 .3 0 .9 0 1.2-.3a24.8 24.8 0 0 0 11.4-5.1l2-1.6-1.3 1.6c-2.6 3.2-6.9 6-11.8 7.8-5 1.7-12.6 2.2-18.2 1.1zm3.6-5.6c-10.3-1-18.3-5-22.2-11-.9-1.4-2.9-5.8-2.9-6.3 0-.4 1.1 0 2.2.9 1 .9 1.3 1 1.3.4.2-1.6.1-2.6-.4-3-.4-.5-.6-.5-1.6.3-.5.5-1.2 1-1.4 1-.4 0-.9-2.8-.6-3.3.1-.2.4-.3.7-.3.3 0 .6-.2.6-.4.1-.3.8.2 1.5 1 2.9 3.2 7.6 5.7 13.7 7.3a50.4 50.4 0 0 0 33.6-3l1.9-1 .1.8c.2.7.2.6.7-.5.5-1 3.8-4.8 3.8-4.3a37 37 0 0 1-2.2 4.5l-1 1.2c-.7.8-1.4 1-1.4.4a19.5 19.5 0 0 1-12.7 5.9c-1.2 0-3 .3-3.8.5l-5 .4c-2 0-3.6.2-3.7.3 0 0 1.6.6 3.6 1.1 4.2 1.1 11.6 4.7 10.7 5.2a38.3 38.3 0 0 1-15.5 1.9zm6.9-5.4c.3-.5-.7-.9-1.5-.6-.7.3-.3 1 .6 1 .4 0 .7-.3.9-.4zm-15.7-1.5c-.2-.3-.4-1-.4-1.6a4 4 0 0 0-.7-2c-.6-.8-1-1-1.8-.8-.6.2-1 .1-1 0 0-.3-.4-.5-.8-.6-.5-.1-1-.6-1.3-1.1-.5-1-1.6-1.3-2.8-.8-.9.4-.8.7.5 3.7 1 2 1.7 2.3 2.8 1.1 1-1 1.6-.9 3.5.9 1 .9 2 1.6 2.1 1.6.2 0 .2-.2 0-.4zm6-3.4c-1-.4-2 .4-2.9 2l-1 1.8 2.1-1.9c1.2-1 2-1.9 1.7-2zm-15.6-4.1c.4-.5.3-.5-.4-.4l-1.2.3c-.2 0-.4.1-.3.3.3.5 1.5.3 2-.2zm39.8 9.6c.1-.3 1-1.7 2-3 1.5-2.1 2-2.6 2.6-2.4.5.1 1.1-.2 1.9-.8 1-1 1.1-1 .7-.1a32 32 0 0 1-6.4 6.1c-.8.5-1 .6-.8.2zm-14.7-13.7c0-.2-.3-.4-.6-.4-.5 0-.5 0 0-.5.7-.7 1-.6 1.5.1.5.6.5.6.5 0 0-.3-.2-.6-.3-.6-.2 0-.4-.2-.4-.5 0-.4.2-.5.8-.2 1.1.5 1.1 1.7 0 2.1-1 .4-1.5.4-1.5 0zm3.6-.2c.4-.6.4-.6-.2-.4-.5.2-.6 0-.5-.7.1-1.2.8-1.6 2.1-1.4 1 .1 1.3 0 1.6-.8.3-.7.2-1.1-.1-1.6-.3-.4-.4-1-.3-1.2 0-.2 0-.3-.2-.2-.2.1-.4 0-.4-.2s.2-.4.5-.4c.2 0 .2-.1-.2-.3-.5-.3-1.2-2-1-2.6a1 1 0 0 0-.3-.7c-.2-.3 0-.4.6-.4 1.4 0 1.5-1.5.2-2.7-.9-.8-.9-.8-1.4-.1-.5.6-.5.6-1-.1-.3-.5-.7-.7-.9-.6-.2 0-.4 0-.5-.2-.1-.2-.4-.3-.5-.2-.2.1-.5 0-.8-.3-.2-.3-1-.7-1.7-.8-2-.4-7.8-3-8-3.7-.1-.2-.5-.3-1-.3-.9 0-2.5-2.5-2-3 .2-.2.4-1 .5-1.8.2-1.6-.6-3-1.6-3-1.4 0-.1-.6 2.2-1 3-.6 10.7-.8 14.3-.3 7.2.9 14 3.7 17.8 7.4 2.2 2.1 3 4.3 2.7 8-.1 1.5-.4 2.7-.6 2.8-.2 0-.3.5-.3 1s-.4 1.4-1 2c-.4.5-.8 1.2-.8 1.5 0 .3-.2.5-.4.5s-.7.5-1.2 1a12 12 0 0 1-5.2 3.4 6 6 0 0 0-1.7.5c-.4.3-1 .4-1.5.4-.4 0-1 0-1.4.2-.4.1-1.2 0-1.9-.1-.6-.2-1.2-.3-1.2 0 0 .4-1.3.3-1.5-.2 0-.3-.3-.1-.5.4-.3.4-.6.8-.8.8-.3 0-.2-.3 0-.6zm15-15.8c0-.7-2-2.3-2.8-2.3-1 0-.8 1.3.5 2 1.4.9 2.4 1 2.4.3zm-13.8-3.8c.3-1-.5-1.8-1.8-1.6-1.4 0-1.6 1-.5 2.2.9 1 1.9.7 2.3-.6zm-9.5-.2c.3-.3.3-.5-.1-1.1-.8-1-3.1-1-3.1.1 0 1 2.2 1.6 3.2 1zM96 190c-.1-.4-.5-.6-1.2-.6-1.1 0-1.6.7-.6 1 1.4.3 1.9.2 1.8-.4zm5.9-.6a3 3 0 0 0-1.6-.5c-.8 0-.8 0 .5.7 1.5.7 2.2.6 1-.2zm-12-4c0-.7-1.6-1-2.1-.4-.3.3-.3.4.1.7.8.5 2 .3 2-.4zm-10.4-.6c0-.4-.3-.5-.8-.5-1.1.2-1.3 1-.2 1 .6 0 1-.2 1-.5zm-26.9 23.7c0-.6.1-.7.4-.2.4.6.4 1 0 1-.2 0-.4-.3-.4-.8zm6.7-15h.7c0 .2-.1.3-.5.3s-.5-.1-.2-.2zm2.2-1.7c0-.4 0-.5.2-.2v.7c-.1.1-.2-.1-.2-.5zm9.3-4 .4-.4.1.4c0 .2-.1.4-.3.4-.2 0-.3-.2-.2-.4zm-4.8-1.2.6-.3c.3-.2.5-.1.3 0-.2.4-.9.6-.9.3z" style="fill:#c56b27;stroke-width:.352778" transform="translate(-44.5 -173.2)"/>
  <path d="M74 237.4a26 26 0 0 1-17.7-10.8c-.6-1.2-.6-1.2.8.4 2.1 2.4 5.5 4.7 8.5 5.7l4.1 1.5c.8.3 1.8.4 2 .3a50.3 50.3 0 0 0 14 .3c.7-.4 2.5-.8 4.6-1 1 0 1.9-.1 2.2-.3a5 5 0 0 1 2-.5c.8 0 2.1-.4 2.8-.7l2.7-1.3c.8-.3 2-1 2.6-1.5l1.3-.9-1.3 1.3a29 29 0 0 1-13 7 48 48 0 0 1-15.6.5zm3.6-5.7c-10.3-1-18.3-5-22.2-11-.9-1.4-2.9-5.8-2.9-6.3 0-.4 1.1 0 2.2.9 1 .9 1.3 1 1.3.4.2-1.6.1-2.6-.4-3-.4-.5-.6-.5-1.6.3-.5.5-1.2 1-1.4 1-.4 0-.9-2.8-.6-3.3.1-.2.4-.3.7-.3.3 0 .6-.2.6-.4.1-.3.8.2 1.5 1 5.3 5.8 16.6 9.3 28.7 8.8a45 45 0 0 0 17.8-4l1.7-.8v.9c0 1.3-.5 2-2.4 3.3a23 23 0 0 1-12.4 3.2c-1.8 0-3.2.2-3.2.3 0 .1-.5.2-1.2.2a22 22 0 0 0-5 .7c0 .1 1.7.6 3.7 1 4 1 11.5 4.7 10.6 5.2a38.3 38.3 0 0 1-15.5 1.9zm6.9-5.4c.3-.5-.7-.9-1.5-.6-.7.3-.3 1 .6 1 .4 0 .7-.3.9-.4zm-15.7-1.5c-.2-.3-.4-1-.4-1.6a4 4 0 0 0-.7-2c-.6-.8-1-1-1.8-.8-.6.2-1 .1-1 0 0-.3-.4-.5-.8-.6-.5-.1-1-.6-1.3-1.1-.5-1-1.6-1.3-2.8-.8-.9.4-.8.7.5 3.7 1 2 1.7 2.3 2.8 1.1 1-1 1.6-.9 3.5.9 1 .9 2 1.6 2.1 1.6.2 0 .2-.2 0-.4zm6-3.4c-1-.4-2 .4-2.9 2l-1 1.8 2.1-1.9c1.2-1 2-1.9 1.7-2zm-15.6-4.1c.4-.5.3-.5-.4-.4l-1.2.3c-.2 0-.4.1-.3.3.3.5 1.5.3 2-.2zm39.8 9.6c.1-.3 1-1.7 2-3 1.5-2.1 2-2.6 2.6-2.4.5.1 1.1-.2 1.9-.8 1-1 1.1-1 .7-.1a32 32 0 0 1-6.4 6.1c-.8.5-1 .6-.8.2zm5-10.4a13.6 13.6 0 0 1 4.6-6.2 37 37 0 0 1-2.2 4.5l-1 1.2c-.6.7-1.4 1-1.4.5zM84.2 213c-.3-.7.4-1 .8-.5.5.7.4 1-.1 1a.8.8 0 0 1-.7-.5zm5.2-.7c.1-.5 0-.5-.7-.4-.5.2-.9.1-.9 0 0-1 .5-1.5 1.3-1.5.5 0 .8.1.7.3-.2.2 0 .3.2.2.3-.1.8-.6 1-1.2.6-.8.6-1 .2-1.6a2 2 0 0 1-.3-1.5c0-.4-.1-1.2-.4-1.8l-.6-1.4-.4-.7c-.2-.2 0-.4.4-.5 1-.3 1-1.7 0-2.8-.9-.8-1-1-1-1.6 0-.5-3-3.3-4.9-4.8-1.4-1-1.7-1.5-1.6-2.3l.2-2.5v-1.5c-.2 0-.3-.3-.2-.7 0-.6-.2-.8-1-.7-.2 0-.3-.1-.3-.3 0-.3-.2-.3-.7 0-.8.4-1 .4-1 0 0-.2.2-.4.6-.4.5 0 .5 0 0-.5-.6-.4-.1-.4 3.3-.4 4.3.2 5.5.3 9.3 1.3 6 1.6 10.3 4 12 6.6a11 11 0 0 1 1.2 9.3c-.4 1.4-.8 2.1-2.2 4.6a19 19 0 0 1-2.3 2.6 9 9 0 0 0-1.8 2.2c0 .3-.3.4-.7.4-.4 0-.8.2-1 .4 0 .2-.5.3-.8.3-.4 0-.7.2-.7.4s-.4.3-.8.3c-.4-.1-.8-.3-.7-.6.1-.7-.6-.5-.8.3-.2.6-.4.6-.7.3-.3-.2-.5-.2-.7 0-.1.2 0 .4.2.4s.3.1.2.2c-.1.1-.4 0-.7-.1-.6-.5-1.7-.4-1.7 0 0 .3-.1.2-.3-.1-.2-.4-.4-.4-.4 0 0 .2-.1.3-.4.3-.2 0-.2-.2-.1-.5zm13.6-15.1c0-.7-2-2.3-2.9-2.3-1 0-.8 1.3.5 2 1.4.9 2.4 1 2.4.3zm-14-3.8c.4-1-.4-1.8-1.7-1.6-1.4 0-1.6 1-.5 2.2.9 1 1.9.7 2.3-.6zm7-3.4c-.1-.4-.5-.6-1.2-.6-1.1 0-1.6.7-.6 1 1.4.3 1.9.2 1.8-.4zm5.9-.6a3 3 0 0 0-1.6-.5c-.8 0-.8 0 .5.7 1.5.7 2.2.6 1-.2zm-12-4c0-.7-1.6-1-2.1-.4-.3.3-.3.4.1.7.8.5 2 .3 2-.4zm-37.3 23.1c0-.6.1-.7.4-.2.4.6.4 1 0 1-.2 0-.4-.3-.4-.8zm27.1-15.3c.2 0 .3-.4.2-.7-.2-.5 0-.5.6-.1.6.3.7.5.3.7a2 2 0 0 1-1 .3c-.3 0-.4 0-.1-.2z" style="fill:#75aa36;stroke-width:.352778" transform="translate(-44.5 -173.2)"/>
  <path d="M74 237.4a26 26 0 0 1-17.7-10.8c-.6-1.2-.6-1.2.8.4 2.1 2.4 5.5 4.7 8.5 5.7l4.1 1.5c.8.3 1.8.4 2 .3a50.3 50.3 0 0 0 14 .3c.7-.4 2.5-.8 4.6-1 1 0 1.9-.1 2.2-.3a5 5 0 0 1 2-.5c.8 0 2.1-.4 2.8-.7l2.7-1.3c.8-.3 2-1 2.6-1.5l1.3-.9-1.3 1.3a29 29 0 0 1-13 7 48 48 0 0 1-15.6.5zm3.6-5.7a39 39 0 0 1-14.7-4.2 22.8 22.8 0 0 1-8.5-8.7c-2.2-4.5-1.9-5.3 1-2.6 2 1.8 2.9 2 4.4.8l1-.7-1-.5c-1.2-.5-1.8-1-2.8-2.2-.8-1-.5-.8 1.8.7a45 45 0 0 0 24.7 5.5 45 45 0 0 0 17.8-4l1.7-.8v.9c0 1.3-.5 2-2.4 3.3a23 23 0 0 1-12.4 3.2c-1.8 0-3.2.2-3.2.3 0 .1-.5.2-1.2.2a22 22 0 0 0-5 .7c0 .1 1.7.6 3.7 1 4 1 11.5 4.7 10.6 5.2a38.3 38.3 0 0 1-15.5 1.9zm6.9-5.4c.3-.5-.7-.9-1.5-.6-.7.3-.3 1 .6 1 .4 0 .7-.3.9-.4zM72.3 224c1.8-1.6 2.5-2 3.5-2H77l-1.1-.4-1.8-.4c-.8-.2-2.6.4-2.6.9 0 .6-.7.3-2-1a6.4 6.4 0 0 0-2.4-1.4 10 10 0 0 1-3.4-1.3c-1.9-1.1-2.6-1.3-3.6-.7-1.1.5-1 .7.2 3.7 1 2.4 1.5 2.7 2.7 1.6 1.2-1.2 1.8-1.2 2.9 0 1 1 3.4 2.9 3.9 2.9l2.4-2zm26.7 2.9c.1-.3 1-1.7 2-3 1.5-2.1 2-2.6 2.6-2.4.5.1 1.1-.2 1.9-.8 1-1 1.1-1 .7-.1a32 32 0 0 1-6.4 6.1c-.8.5-1 .6-.8.2zm5-10.4a13.6 13.6 0 0 1 4.6-6.2 37 37 0 0 1-2.2 4.5l-1 1.2c-.6.7-1.4 1-1.4.5zM84.2 213c-.3-.7.4-1 .8-.5.5.7.4 1-.1 1a.8.8 0 0 1-.7-.5zm5.2-.7c.1-.5 0-.5-.7-.4-.5.2-.9.1-.9 0 0-1 .5-1.5 1.3-1.5.5 0 .8.1.7.3-.2.2 0 .3.2.2.3-.1.8-.6 1-1.2.6-.8.6-1 .2-1.6a2 2 0 0 1-.3-1.5c0-.4-.1-1.2-.4-1.8l-.6-1.4-.4-.7c-.2-.2 0-.4.4-.5 1-.3 1-1.7 0-2.8-.9-.8-1-1-1-1.6 0-.5-3-3.3-4.9-4.8-1.4-1-1.7-1.5-1.6-2.3l.2-2.5v-1.5c-.2 0-.3-.3-.2-.7 0-.6-.2-.8-1-.7-.2 0-.3-.1-.3-.3 0-.3-.2-.3-.7 0-.8.4-1 .4-1 0 0-.2.2-.4.6-.4.5 0 .5 0 0-.5-.6-.4-.1-.4 3.3-.4 4.3.2 5.5.3 9.3 1.3 6 1.6 10.3 4 12 6.6a11 11 0 0 1 1.2 9.3c-.4 1.4-.8 2.1-2.2 4.6a19 19 0 0 1-2.3 2.6 9 9 0 0 0-1.8 2.2c0 .3-.3.4-.7.4-.4 0-.8.2-1 .4 0 .2-.5.3-.8.3-.4 0-.7.2-.7.4s-.4.3-.8.3c-.4-.1-.8-.3-.7-.6.1-.7-.6-.5-.8.3-.2.6-.4.6-.7.3-.3-.2-.5-.2-.7 0-.1.2 0 .4.2.4s.3.1.2.2c-.1.1-.4 0-.7-.1-.6-.5-1.7-.4-1.7 0 0 .3-.1.2-.3-.1-.2-.4-.4-.4-.4 0 0 .2-.1.3-.4.3-.2 0-.2-.2-.1-.5zm13.6-15.1c0-.7-2-2.3-2.9-2.3-1 0-.8 1.3.5 2 1.4.9 2.4 1 2.4.3zm-14-3.8c.4-1-.4-1.8-1.7-1.6-1.4 0-1.6 1-.5 2.2.9 1 1.9.7 2.3-.6zm7-3.4c-.1-.4-.5-.6-1.2-.6-1.1 0-1.6.7-.6 1 1.4.3 1.9.2 1.8-.4zm5.9-.6a3 3 0 0 0-1.6-.5c-.8 0-.8 0 .5.7 1.5.7 2.2.6 1-.2zm-12-4c0-.7-1.6-1-2.1-.4-.3.3-.3.4.1.7.8.5 2 .3 2-.4zm-37.3 23.1c0-.6.1-.7.4-.2.4.6.4 1 0 1-.2 0-.4-.3-.4-.8zm27.1-15.3c.2 0 .3-.4.2-.7-.2-.5 0-.5.6-.1.6.3.7.5.3.7a2 2 0 0 1-1 .3c-.3 0-.4 0-.1-.2z" style="fill:#b76728;stroke-width:.352778" transform="translate(-44.5 -173.2)"/>
  <path d="M74 237.4c-6-1.2-10.7-3.4-14.4-7l-2.3-2 2 1.5a30.3 30.3 0 0 0 9.6 4.8 36 36 0 0 0 21.2 0 25.9 25.9 0 0 0 5.8-1.4c1-.2 2.7-1 4-1.6 2.4-1.3 1.8-.6-1.3 1.4a31.8 31.8 0 0 1-9 3.8 48 48 0 0 1-15.6.5zm3.6-5.7c-6.2-.7-10.7-2-14.7-4.2a22.8 22.8 0 0 1-8.5-8.7c-2.2-4.5-1.9-5.3 1-2.6 2 1.8 2.9 2 4.4.8l1-.7-1-.5c-1.2-.5-1.8-1-2.8-2.2-.8-1-.5-.8 1.8.7 9.6 6.6 29.5 7.5 41.6 1.9l2.6-1.2v.9c0 .5-.2 1.2-.4 1.5-.5 1-3.4 2.7-6.5 3.8-2.6.9-3.3 1-8 1a33.9 33.9 0 0 0-6.2.4c-.1.2-1 .6-2 .7l-1.8.4 4.1 1c3.4.7 4.8 1.3 7.7 3l3.6 2-1.8.5a45.2 45.2 0 0 1-14.1 1.5zm6.9-5.4c.3-.5-.7-.9-1.5-.6-.7.3-.3 1 .6 1 .4 0 .7-.3.9-.4zM72.3 224c1.8-1.6 2.5-2 3.5-2H77l-1.1-.4-1.8-.4c-.8-.2-2.6.4-2.6.9 0 .6-.7.3-2-1a6.4 6.4 0 0 0-2.4-1.4 10 10 0 0 1-3.4-1.3c-1.9-1.1-2.6-1.3-3.6-.7-1.1.5-1 .7.2 3.7 1 2.4 1.5 2.7 2.7 1.6 1.2-1.2 1.8-1.2 2.9 0 1 1 3.4 2.9 3.9 2.9l2.4-2zm28.4.4c1.8-2.6 2.2-3 2.9-3 .5.2 1.1 0 1.9-.7 1-1 1.1-1 .7-.1a32 32 0 0 1-6.4 6.1c-1.1.7-1.1.7 1-2.3zm3.3-8a13.6 13.6 0 0 1 4.6-6.1 37 37 0 0 1-2.2 4.5l-1 1.2c-.6.7-1.4 1-1.4.5zm-51.5-7.9c0-.6.1-.7.4-.2.4.6.4 1 0 1-.2 0-.4-.3-.4-.8zm45-1.4c-.7-.2-1.2-.6-1.2-.9 0-.5-1.8-4-2.2-4.3l-1.1-3a36 36 0 0 0-1.3-3.4c-.2-.4-.3-.8-.1-1 .1-.3 0-.4-.2-.2-.3.2-1.1.3-2 .4-1.5 0-1.5 0-.8-.6.4-.4.6-1 .5-1.4 0-.4 0-.8.2-.9.2-.1.3 0 .1.2-.1.2 0 .4.7.3.5 0 .8-.1.7-.2 0 0 0-.5.2-.9.3-.5.3-.6 0-.4-.3.1-.3 0 0-.2.5-.4.5-.6.1-1-.3-.3-.4-.9-.3-1.5 0-.5 0-1-.2-.8-.1 0-.3 0-.4-.4-.2-.3-.6-.5-1-.5a3 3 0 0 1-1.4-.3c-.3-.3 0-.3.8-.3 1.7 0 1.6-1-.2-1.2-.7-.1-1.4-.3-1.6-.5-.8-.9 7.8 1.3 11 2.8 2.5 1.1 4.1 2.3 2.4 1.8-1.5-.5-.6.6 1 1.2.8.3 1.4.7 1.4.9l.6.9c.9 1 1.5 5.2 1.2 7.3-.4 2.2-1.9 5.5-2.3 5.1-.1-.1-.2 0-.2.1.2 1 0 1.5-1 1.8-.6.3-1.2.3-1.3.1-.3-.6-1.2.1-1 .8.1.4.2.6 0 .6l-1.2-.4zM103 197c-1.1-2-4.5-3-3.7-1 .2.6 2.2 1.6 3.3 1.7.6 0 .7-.1.4-.7zm-7.1-7c-.2-.7-1.4-1-2.3-.5-.6.3-.6.4.2.7 1.4.6 2.2.5 2-.2zm-14.4-5.9s.5-.2 1.2-.2h1c-.2.4-2.2.5-2.2.2z" style="fill:#ad5d23;stroke-width:.352778" transform="translate(-44.5 -173.2)"/>
  <path d="M74 237.4c-3.9-.8-10.5-3.2-10.5-4a46.2 46.2 0 0 0 11.1 3.2c4.4.7 7.7.7 11.5.1l4.9-.7 2-.2-1.5.5c-4 1.5-12.2 2-17.4 1zm3.6-5.7c-6.2-.7-10.7-2-14.7-4.2a22.8 22.8 0 0 1-8.5-8.7c-2.2-4.5-1.9-5.3 1-2.6 2 1.8 2.9 2 4.4.8l1-.7-1-.5c-1.2-.5-1.8-1-2.8-2.2-.8-1-.5-.8 1.8.7a48.3 48.3 0 0 0 41.4 2c1.8-.9 2-.8 2 .4 0 2-4 4.2-9.8 5.2a21 21 0 0 1-6.7.2l-3.7-.4-1 .9c-1 1-1.9 1-4.8.3l-.9-.2.9.4c.5.2 3 1 5.6 1.5 4 1 5.4 1.5 8.3 3.2l3.4 2-1.9.4a45.2 45.2 0 0 1-14 1.5zm6.9-5.4c.3-.5-.7-.9-1.5-.6-.7.3-.3 1 .6 1 .4 0 .7-.3.9-.4zM72.3 224c1.8-1.6 2.5-2 3.5-2H77l-1.1-.4-1.8-.4c-.8-.2-2.6.4-2.6.9 0 .6-.7.3-2-1a6.4 6.4 0 0 0-2.4-1.4 10 10 0 0 1-3.4-1.3c-1.9-1.1-2.6-1.3-3.6-.7-1.1.5-1 .7.2 3.7 1 2.4 1.5 2.7 2.7 1.6 1.2-1.2 1.8-1.2 2.9 0 1 1 3.4 2.9 3.9 2.9l2.4-2zm28.5.4c1.7-2.6 2.1-3 2.8-2.9.5.1 1.1-.2 1.9-.8 1-1 1.1-1 .7-.1a32 32 0 0 1-6.3 6.1c-1.2.7-1.1.6.9-2.3zm4-9 .7-1.8a26 26 0 0 1 3.2-3.4 41.5 41.5 0 0 1-3.3 5.8c-1 1.2-1.4.8-.7-.7zm-52.3-6.9c0-.6.1-.7.4-.2.4.6.4 1 0 1-.2 0-.4-.3-.4-.8z" style="fill:#6a9131;stroke-width:.352778" transform="translate(-44.5 -173.2)"/>
  <path d="M74 237.4c-3.9-.8-10.5-3.2-10.5-4a46.2 46.2 0 0 0 11.1 3.2c4.4.7 7.7.7 11.5.1l4.9-.7 2-.2-1.5.5c-4 1.5-12.2 2-17.4 1zm3.6-5.7c-12.7-1.4-21-6.5-24-14.6-1-2.6-.2-2.8 2.1-.6 1 1 2 1.6 2.2 1.6.3 0 1.1-.4 1.9-.9 1.6-1 2.6-1 4-.3a51 51 0 0 0 36.4-.5c1.8-1 2-1 2 .3 0 .9-.2 1.3-1.4 2.1-3 2.3-9.2 3.8-13.5 3.4-4.8-.4-5.5-.6-5.3-1.2.1-.4 0-.3-.7.3-.8.8-.9.8-2.4.2a16 16 0 0 0-3.3-.7c-3.7-.4-5-.6-5.8-1.1-.5-.3-1.6-.6-2.4-.7-.8-.1-1.6-.5-1.8-.7-.3-.3-.6-.5-.9-.5l-1.5-.6c-1.1-.5-1.3-.5-2.6 0l-1.4 1c0 .8 1.9 5.2 2.4 5.6.3.3.7.3 1.7-.3l1.7-.8a9 9 0 0 1 2.3 1.8c1 1 2.2 1.8 2.5 1.8.4 0 1.6-.8 2.7-1.8 1.5-1.4 2.3-1.8 2.8-1.6l6 1.6a25 25 0 0 1 8.8 3.3l3.4 2-1.9.4a45.2 45.2 0 0 1-14 1.5zm6.9-5.4c.3-.5-.7-.9-1.5-.6-.7.3-.3 1 .6 1 .4 0 .7-.3.9-.4zm16.3-2c1.7-2.5 2.1-3 2.8-2.8.5.1 1.1-.2 1.9-.8 1-1 1.1-1 .7-.1a32 32 0 0 1-6.3 6.1c-1.2.7-1.1.6.9-2.3zm4-9 .7-1.7a26 26 0 0 1 3.2-3.4 41.5 41.5 0 0 1-3.3 5.8c-1 1.2-1.4.8-.7-.7zm-52.3-6.8c0-.6.1-.7.4-.2.4.6.4 1 0 1-.2 0-.4-.3-.4-.8z" style="fill:#8c4f31;stroke-width:.352778" transform="translate(-44.5 -173.2)"/>
  <path d="M73.2 231a27.4 27.4 0 0 1-17.7-10.2c-1.4-2.2-1.4-2.8 0-1.5 1.2 1.1 1.5.7.4-.5-.5-.5-1-1.5-1.2-2.3l-.4-1.3 1 1c.7.6 1.1 1.3 1.1 1.6l.5 1.5c.3.5.4.9.2.7-.6-.3 0 1.4.8 2.3 1 1 2 1.3 2 .5 0-.4.3-.3 1 .4 1 .8 1.2 1 1.8.6.7-.3.7-.3.5.2-.1.4 0 .5.3.4.3 0 .5-.4.5-.7l.3-.9c.2-.1.2 0 .1.2s0 .5.1.6c.2.1.5 0 .7-.4.2-.4.5-.3 1.5.7.6.7 1.3 1.6 1.4 2 0 .5.5 1 1 1.1.6.3.8.2.6-.2-.3-.8.3-.7 1.5.3s2.7 1.2 3.1.4c.3-.5.5-.5 1.3-.2 1.3.5 3.9.5 4.3 0 .3-.3 1-.3 2.5 0s2 .3 2.3 0c.1-.3.5-.2 1.3.3 1 .8 2.2.7 2.2-.1v-.5l2.7 1.3 2.6 1.4-2 .5c-1.2.4-3.1.8-4.4 1-3 .5-10.9.4-14-.2zm26.2-4.5c.7-.9 3.6-2.8 3.6-2.4 0 .2-2.2 1.9-3.5 2.7-.5.3-.5.2 0-.3zm-24.1-1c-.2-.2-.6-.3-1.1-.2-.5 0-1 0-1-.2-.2-.2-.5-.2-.8-.1-.5.2-.5.1-.1-.3.3-.3.9-1 1.4-1.3l1-.7 3.1 1c1.7.4 3.2.9 3.2 1 .2.1-3.5.7-4 .5a2 2 0 0 0-1 .3c-.3.3-.5.3-.7 0zm11.6-3.3a28 28 0 0 0-2.7-.4c-2-.2-2.4-.3-2.2-.8.1-.4 0-.3-.7.3-.8.8-.9.8-2.4.2a16 16 0 0 0-3.3-.7c-3.7-.4-5-.6-5.8-1.1-.5-.3-1.6-.6-2.4-.7-.8-.1-1.6-.5-1.8-.7-.3-.3-.6-.5-.9-.5l-1.5-.6c-1.1-.5-1.3-.5-2.6 0-1 .5-1.4 1-1.4 1.4 0 .4 0 .6-.2.3 0-.2-.4-.4-.8-.4-.9 0 2.9-2.1 3.8-2.1a5 5 0 0 1 1.8.5 51 51 0 0 0 36.5-.5c1.7-1 2-1 2 .3 0 2-4.1 4.2-9.5 5.2-2.5.4-5 .6-5.9.3zm18.4-8c.4-.8.8-1.4 1-1.4.4 0 .2.5-.7 1.6l-.9 1z" style="fill:#6b5329;stroke-width:.352778" transform="translate(-44.5 -173.2)"/>
  <path d="M74.1 231.2c-5.9-1-12.4-4-15.9-7.3-2.8-2.9-5.4-7-2.7-4.6 1.2 1.2 1.5.7.4-.5-.5-.5-1-1.4-1.1-2l-.2-1 .9.9c.5.5 1 1 1 1.2l.4 1.4c.3.5.4.9.2.7-.6-.3 0 1.4.8 2.3 1 1 2 1.3 2 .5 0-.5.3-.4.9.3.4.5 1.2 1 1.8 1.1 1.1.2 3.2-.5 2.7-1l.5.2a7 7 0 0 1 2.4 2.9c.2.6 1.6 1.2 1.6.6 0-.5 1-.3 1.6.4.8.8 2.5 1 3 .2.2-.5.4-.5 1.2-.2 1.3.5 3.9.5 4.3 0 .3-.3 1-.3 2.5 0s2 .3 2.3 0c.1-.3.5-.2 1.3.3 1.1.8 2.2.7 2.2-.2 0-.3 0-.4.2-.4 2 .9 4.7 2.5 4.6 2.7l-3 .9a62 62 0 0 1-15.9.6zm25.3-4.7c.8-1 3.6-2.8 3.6-2.4a15 15 0 0 1-3.5 2.7c-.5.2-.5.2 0-.3zm-24.1-1c-.1-.2-.6-.3-1-.2-1.4.1-1.8-.4-1-1.4 1-1 1.5-1 5.1 0 2.6.7 2.8.8 1.8 1l-2.5.3c-.7 0-1.6.2-1.8.4-.2.3-.4.2-.6 0zm9.5-3.5-2.5-.5v-.9c.2-.6.6-.7 2.3-.7 4.1 0 12.3-1.8 15.6-3.6 1.8-.9 2-.8 2 .4 0 2-4 4.2-9.4 5.2-3 .5-4.4.5-8 0zm-25.2-4.6c.9-.5 1.9-1 2.3-1 .5 0 .5.1-.3.3l-2 1c-.5.5-1.1.8-1.3.8-.2 0 .4-.5 1.3-1zm45.7-3.2c.4-.8.8-1.4 1-1.4.4 0 .2.5-.7 1.6l-.9 1z" style="fill:#6c3927;stroke-width:.352778" transform="translate(-44.5 -173.2)"/>
  <path d="M74 231a31 31 0 0 1-15.5-7c-1.8-1.6-1.7-2 0-.4.9.7 1.7 1.1 2 1 .1-.1.2 0 0 .2-.1.2 0 .5.5.7.9.5 1.5.5 1.2 0-.2-.3 0-.3.4-.2l1 .2c.1 0 .2.2 0 .4 0 .2.1.5.5.6.3.1 1 .5 1.5 1l.9.7-.7-.8c-.7-.9-.7-.9 0-.7.4 0 .8.4 1 .9.2.4.6.7.8.6.2 0 .8.2 1.4.6.7.4 1.6.6 3.1.6s2.4.2 3.2.7c1.1.8 2.6 1 2.6.3 0-.4 3.2 0 3.9.5.3.3.6.3.9-.2.5-.6 2.1-.8 3-.2.3.2.4.4.2.6-.5.5-9 .4-12 0zm13.1-.3 1.8-1c1-.8 2-.9 1.4 0-.3.2-.3.4 0 .4l.8-.6c.4-.6.6-.6 1.3-.3.7.4.7.5-1.3 1l-3.5.8c-1.3.2-1.3.1-.5-.3zm-11.6-6.2c0-.3-.4-.4-1-.3-1.2.2-1.4 0-.7-.7.6-.6 1.5-.5 4 .3l2 .7h-1.6c-.9 0-1.9 0-2.2.2-.3.1-.5 0-.5-.2zM85 222c-4.2-.6-3.8-1.6 1-2.1a47 47 0 0 0 14.4-3.7c1.6-.8 1.9-.7 1.9.5 0 2-4.1 4.2-9.5 5.2-3 .5-4.4.5-7.8 0zm-26-4c0-.3 2.4-1.6 3-1.6.5 0 .4.1-.2.3-.5.2-1.4.6-1.9 1l-1 .3z" style="fill:#9a2801;stroke-width:.352778" transform="translate(-44.5 -173.2)"/>
  <path d="M74 231a31 31 0 0 1-15.5-7c-1.8-1.6-1.7-2 0-.4.9.7 1.7 1.1 2 1 .1-.1.2 0 0 .2-.1.2 0 .5.5.7.9.5 1.5.5 1.2 0-.2-.3 0-.3.4-.2l1 .2c.1 0 .2.2 0 .4 0 .2.1.5.5.6.3.1 1 .5 1.5 1l.9.7-.7-.8c-.7-.9-.7-.9 0-.7.4 0 .8.4 1 .9.2.4.6.7.8.6.2 0 .8.2 1.4.6.7.4 1.6.6 3.1.6s2.4.2 3.2.7c1.1.8 2.6 1 2.6.3 0-.4 3.2 0 3.9.5.3.3.6.3.9-.2.5-.6 2.1-.8 3-.2.3.2.4.4.2.6-.5.5-9 .4-12 0zm13.1-.3 1.8-1c1-.8 2-.9 1.4 0-.3.2-.3.4 0 .4l.8-.6c.4-.6.6-.6 1.3-.3.7.4.7.5-1.3 1l-3.5.8c-1.3.2-1.3.1-.5-.3zm-11.6-6.2c0-.3-.4-.4-1-.3-1.2.2-1.4 0-.7-.7.6-.6 1.5-.5 4 .3l2 .7h-1.6c-.9 0-1.9 0-2.2.2-.3.1-.5 0-.5-.2zm6.8-3.2c-.1-.2 0-.6.2-.8.2-.2.4 0 .7.4.3.6.3.8-.1.8-.3 0-.6-.2-.8-.4zM59 218c0-.3 2.4-1.6 3-1.6.5 0 .4.1-.2.3-.5.2-1.4.6-1.9 1l-1 .3z" style="fill:#592e24;stroke-width:.352778" transform="translate(-44.5 -173.2)"/>
</svg>