<svg xmlns="http://www.w3.org/2000/svg" width="277.3" height="277.3" viewBox="0 0 73.4 73.4">
  <path d="M44.7 210v-36.8h73.4v73.4H44.7Z" style="fill:#fefefe;stroke-width:.352778" transform="translate(-44.5 -173.2)"/>
  <path d="M92.1 242.4c-1.5-.4-2.9-1.3-3.3-2.3-.3-.7-.6-.8-1.2-.7-4.8 1.6-11.2 1-16.6-1.6-2.3-1.1-4.7-3-4.7-3.6 0-.2-.8-1.2-1.7-2.1-2.6-3-3.4-4.9-3.4-8.3V221l-1.2-.5a5 5 0 0 1-1.7-1.5c-.6-.8-.6-1.2 0-6.6l.9-12.6c.3-7.5.8-9.5 2.8-12.5 2.1-3 4.2-4.4 9.4-6l5.4-1.7c1.5-.5 3.2-.7 5.6-.7 4.2 0 6.1.7 8.1 3.2a24.6 24.6 0 0 1 4.8 6.4 13 13 0 0 0 3.8 4.4c4.2 3.6 4.4 3.9 5.4 9.2a93.3 93.3 0 0 1-.6 35.8c-1 1.9-4.3 3.9-7.6 4.5-2 .5-2.5.5-4.2.1zm-20.5-53.2c1.5-.9 1.6-1 1.8-2.7.1-1 .4-2.5.7-3.3.7-2 0-1.4-1.6 1.3l-2.6 4.1c-1.7 2.5-1.9 3-.7 2.1l2.4-1.5z" style="fill:#feea71;stroke-width:.352778" transform="translate(-44.5 -173.2)"/>
  <path d="M92.1 242.4c-1.5-.4-2.9-1.3-3.3-2.3-.3-.7-.6-.8-1.2-.7-4.8 1.6-11.2 1-16.6-1.6-2.3-1.1-4.7-3-4.7-3.6 0-.2-.8-1.2-1.7-2.1-2.6-3-3.4-4.9-3.4-8.3V221l-1.2-.5a5 5 0 0 1-1.7-1.5c-.6-.8-.6-1.2 0-6.6l.9-12.6c.3-7.5.8-9.5 2.8-12.5 2.1-3 4.2-4.4 9.4-6l5.4-1.7c1.5-.5 3.2-.7 5.6-.7 4.2 0 6.1.7 8.1 3.2a24.6 24.6 0 0 1 4.8 6.4 13 13 0 0 0 3.8 4.4c4.2 3.6 4.4 3.9 5.4 9.2a93.3 93.3 0 0 1-.6 35.8c-1 1.9-4.3 3.9-7.6 4.5-2 .5-2.5.5-4.2.1zM68.5 208l1-3.2c.1-1.1.5-2.3.8-2.6.3-.3.5-1 .5-1.3 0-.4.3-1 .5-1.2.3-.2.6-1.3.7-2.4.1-1.2.4-2 .7-2.2.9-.5 2.8-4 2.5-4.7-.3-1-1.5-1.4-2.1-.9a8 8 0 0 0-1.7 4.1c-.1.7-.5 1.8-1 2.5a8 8 0 0 0-.8 1.7l-.1.8c0 .2-.2.3-.4.2-.2-.1-.3 0-.1.4.1.4 0 .5-.2.4-.3-.2-.3 0-.2.3.1.4.1.5 0 .4-.3 0-.4.2-.5.6l-.4 2.9c-.4 1.9-.3 5.4.2 5.4l.6-1.2zm3-18.8c1.6-.9 1.7-1 2-2.7 0-1 .3-2.5.6-3.3.7-2 0-1.4-1.6 1.3l-2.6 4.1c-1.7 2.5-1.9 3-.7 2.1l2.4-1.5z" style="fill:#b7c7c7;stroke-width:.352778" transform="translate(-44.5 -173.2)"/>
  <path d="M92.5 242.3c-1.5-.2-3.3-1.2-3.3-1.6 0-.2-.2-.6-.5-.9-.4-.6-.6-.6-2.5 0a24 24 0 0 1-14.9-2c-3.2-1.6-5-3-5-3.8 0-.3-.8-1.3-1.7-2.2a9.8 9.8 0 0 1-3.3-8c0-2.8 0-3-.8-3.3-1-.3-2.7-2.3-2.7-3l.5-5c.3-2.2.7-7.6.9-11.7.3-8.4.7-10 2.8-13.5 1.7-2.6 4.5-4.5 8.5-5.7l5-1.5c3-1 4.1-1.2 7-1 2.6 0 3.3.2 4.8 1 1.2.8 1.6.9 1.2.4a45 45 0 0 1 6.7 8c.6 1 1.5 2.4 2.2 3a42 42 0 0 1 5.5 5.2 54 54 0 0 1 2.9 14c.8 6.7-.7 24.9-2.2 27.3-1.7 2.9-7.3 5-11.1 4.3zm-24-34.3 1-3.2c.1-1.1.5-2.3.8-2.6.3-.3.5-1 .5-1.3 0-.4.3-1 .5-1.2.3-.2.6-1.3.7-2.4.1-1.2.4-2 .7-2.2 1-.6 2.8-4.1 2.5-5-.1-.4 0-.8.3-1 .4-.3.3-.3-.1-.3s-.6-.5-.8-1.9c-.4-3.4-.3-4 1-5.4.7-.9.8-1.2.4-1-1 .6-2.2 1.8-2.8 2.7l-2.7 4.3a16.3 16.3 0 0 0-2 3.6c0 .1.7-.1 1.2-.5 2.1-1.5 4.8-2.2 3.1-.8a5 5 0 0 0-.9 1.8c-.2.7-.6 1.4-.7 1.3-1.6-.1-2.5 1.3-2.7 4.6l-.1 2.4.7-1.3.7-1c0 .5-1.2 2.8-1.4 2.7-.1-.1-.2.2-.3.6l-.4 2.9c-.4 1.9-.3 5.4.2 5.4l.6-1.2zm5.3-18.9c0-.2 0-.3.4-.3.3 0 .5.1.5.3 0 .2-.1.4-.3.4-.2 0-.4-.2-.6-.4zm4.4-.5a.5.5 0 0 0-.7 0c-.3 0-.2.1.2.1s.6 0 .5-.1zm11.2-6.2c0-.3-.2-.2-.2.2 0 .3 0 .5.2.4v-.6z" style="fill:#a5b9c5;stroke-width:.352778" transform="translate(-44.5 -173.2)"/>
  <path d="M90.7 241.8c-.7-.3-1.4-1-1.7-1.6-.5-.8-.7-1-1.3-.8a23 23 0 0 1-13.2-.3c-3.6-1.2-7.2-3.3-8-4.8-.3-.6-1.2-1.8-2-2.7a10.7 10.7 0 0 1-3.2-8c0-2.7 0-2.7-1.2-3.4-2.3-1.3-2.4-1.8-1.8-7.2.3-2.5.7-8 .9-12 .2-6.7.4-7.7 1.2-10 1.7-5 4.6-7.6 10-9.4L76 180a17 17 0 0 1 6-.8c3.2 0 3.6 0 5.2 1 1.4.8 1.7.9 1.3.4a42.6 42.6 0 0 1 6.8 8.1 20 20 0 0 0 4.3 4.9 25 25 0 0 1 3.7 4c.6 1.4 2 9.5 2.5 13.5a88.6 88.6 0 0 1-2 26.8c-1.9 3.4-9.5 5.8-13.1 4zM68.5 208l1-3.2c.1-1.1.5-2.3.8-2.6.3-.3.5-1 .5-1.3 0-.4.3-1 .5-1.2.3-.2.6-1.3.7-2.4.1-1.2.4-2 .7-2.2 1-.6 2.8-4.1 2.5-5-.1-.7 0-1 .5-1 .5-.2.5-.3-.1-.3-.7 0-.8-.3-1-1.9-.4-3.4-.3-4 1-5.4.7-.9.8-1.2.4-1-1 .6-2.2 1.8-2.8 2.7l-2.7 4.3a16.3 16.3 0 0 0-2 3.6c0 .1.7-.1 1.2-.5 2.1-1.5 4.8-2.2 3.1-.8a5 5 0 0 0-.9 1.8c-.2.7-.6 1.4-.7 1.3-1.6-.1-2.5 1.3-2.7 4.6l-.1 2.4.7-1.3.7-1c0 .5-1.2 2.8-1.4 2.7-.1-.1-.2.2-.3.6l-.4 2.9c-.4 1.9-.3 5.4.2 5.4l.6-1.2zm5.3-18.9c0-.2 0-.3.4-.3.3 0 .5.1.5.3 0 .2-.1.4-.3.4-.2 0-.4-.2-.6-.4zm4.4-.5a.5.5 0 0 0-.7 0c-.3 0-.2.1.2.1s.6 0 .5-.1zm11.2-6.2c0-.3-.2-.2-.2.2 0 .3 0 .5.2.4v-.6z" style="fill:#f8cb52;stroke-width:.352778" transform="translate(-44.5 -173.2)"/>
  <path d="M90.7 241.8c-.7-.3-1.4-1-1.7-1.6-.5-.8-.7-1-1.3-.8a23 23 0 0 1-13.2-.3c-3.6-1.2-7.2-3.3-8-4.8-.3-.6-1.2-1.8-2-2.7a10.7 10.7 0 0 1-3.2-8c0-2.7 0-2.7-1.2-3.4-2.3-1.3-2.4-1.8-1.8-7.2.3-2.5.7-8 .9-12 .2-6.7.4-7.7 1.2-10 1.7-5 4.6-7.6 10-9.4L76 180a17 17 0 0 1 6-.8c3.2 0 3.6 0 5.2 1 1.4.8 1.7.9 1.3.4a42.6 42.6 0 0 1 6.8 8.1 20 20 0 0 0 4.3 4.9 25 25 0 0 1 3.7 4c.6 1.4 2 9.5 2.5 13.5a88.6 88.6 0 0 1-2 26.8c-1.9 3.4-9.5 5.8-13.1 4zm-22-31.6c0-.3.6-1.7 1.2-3 1.2-2.4 3.4-9.1 3.4-10.5 0-.4-.2-1-.4-1.2-.3-.3-.3-.4.1-.4.3 0 1-.7 1.6-1.6.7-1.3.9-2 .7-3-.2-1-.1-1.4.4-1.5.5-.1.4-.2-.2-.2-.4 0-.8.1-.8.3-.1.2-.3.2-.7 0-.4-.3-.4-.3.1-.3.6 0 .6-.3.4-3l-.2-2.9 1.2-1.4c.7-.8 1-1.2.5-1-1 .6-2.2 1.8-2.8 2.7l-2.7 4.3a16.3 16.3 0 0 0-2 3.6c0 .1.7-.1 1.2-.5.6-.5 1.7-1 2.4-1.3l1.4-.6-1.2 1c-.7.8-1.1 1.5-1.1 2 0 .7-.2 1-.7 1.2-1 .3-1.8 2-2 4.6 0 1.2-.3 2.5-.4 2.8a12 12 0 0 0-.8 7.3c.5 3.7.7 4.4 1.1 3.7.2-.3.3-.8.3-1zm9.5-21.6a.5.5 0 0 0-.7 0c-.3 0-.2.1.2.1s.6 0 .5-.1zm11.2-6.2c0-.3-.2-.2-.2.2 0 .3 0 .5.2.4v-.6z" style="fill:#a7b6b4;stroke-width:.352778" transform="translate(-44.5 -173.2)"/>
  <path d="M90.6 241.8a4 4 0 0 1-1.7-1.7l-.5-1.1-1.5.5c-1 .4-2.6.6-5.5.5-3.4 0-4.5-.1-6.9-.9-3.6-1.2-7.2-3.3-8-4.8-.3-.6-1.2-1.8-2-2.7a10.7 10.7 0 0 1-3.2-8c0-2.7 0-2.7-1.2-3.4-2.3-1.3-2.4-1.8-1.8-7.2.3-2.5.7-8 .9-12 .2-6.7.4-7.7 1.2-10a13 13 0 0 1 5.9-7.6 62 62 0 0 1 13-4.2c2.3-.2 5.5 0 6.8.4 1.8.6 3.2 2.2 3 3.3-.4 1.2-1.9 3-3.4 3.8-.7.3-1.1.6-.9.6.7 0 3.4-2 4-3 .9-1.2 1-2.1.2-3.3-.3-.5.4.2 1.6 1.4a27 27 0 0 1 5 6.9c0 .2 1.6 2 3.7 3.9a38 38 0 0 1 4 4.2c.6 1.6 2 9.6 2.5 13.6a111.8 111.8 0 0 1-2 26.8c-1.7 3.4-9.5 5.8-13.2 4zm-21.9-31.6c0-.3.6-1.7 1.2-3a48 48 0 0 0 3.4-10.5c0-.5-.2-1-.4-1-.3-.3-.2-.4.3-.6.3-.1 1-1 1.5-2l.9-1.8.6 1 .5 1.1v-1.6c0-2 .4-2.3 4.7-3.4 1.6-.4 2.8-.8 2.8-.9l-3 .4-4.4.7-1.7.1-.4-2.3c-.5-2.8 0-4.3 1.5-5.6l1.2-1-1.6 1c-1 .5-2 1.4-2.8 2.7l-3.1 4.8c-1 1.6-1.7 3-1.5 3l2.2-1.1c2.3-1.3 2.8-1.4 1.5-.2-.5.5-1 1.2-1 1.6 0 .5-.2.8-1 1-1.4.3-2 1.8-2.3 5.2a39 39 0 0 1-.7 5.9c-.2.9.4 6.4.8 7.5.2.5.3.5.5 0 .2-.2.3-.7.3-1zm5.5-21c-.1-.3 0-.4.1-.4.3 0 .4.1.4.3l-.1.4-.4-.4z" style="fill:#97a6a7;stroke-width:.352778" transform="translate(-44.5 -173.2)"/>
  <path d="M91 241.8a6.2 6.2 0 0 1-2-1.7c-.7-1-.8-1-2-.7a23 23 0 0 1-14-1c-3-1-6.4-3.3-6.4-4 0-.3-.8-1.4-1.8-2.5a11 11 0 0 1-3.5-8.2V221l-1.3-1c-2.1-1.3-2.3-2-1.7-6.8.3-2.4.7-7.7.9-12 .4-9.3.8-11.3 3.5-14.6 2.3-3 3.4-3.7 8.1-5.1l5-1.6c3-1 8.7-1 10.7-.1 2.1 1 3 2.2 2.3 3.6-.6 1.5-2.6 3-4.7 3.7-2.4.7-8.7 1.5-8.9 1.2l-.3-2.9c-.2-2.3-.2-2.6.5-3.6.5-.5 1.3-1.3 2-1.7.9-.6 1-.6.1-.4-1.7.5-3.5 2-4.5 3.6-.5.8-1.8 3-3 4.6-1 1.7-1.8 3.1-1.7 3.2.2 0 1.3-.4 2.4-1 1-.7 2-1 2.1-1 .1.1-.1.4-.5.6a3 3 0 0 0-1 1.4c-.3.8-.6 1.1-1.3 1.1-.5 0-1 .2-1.2.4a19.7 19.7 0 0 0-1.5 9.5 17 17 0 0 0 0 5.6c.5 3.5 1 4.6 1.2 3l1.4-3.5c1.3-2.7 3.4-9.3 3.4-10.6 0-.5-.2-1-.4-1-.3-.3-.2-.4.3-.6.3-.1 1-1 1.5-2l.9-1.7 1.1 2.5a18 18 0 0 1 1.2 2.9c0 .2.2.5.4.6.3.2.3 0 .1-.8-.1-.7 0-1.2.3-1.5.3-.3.7-1.1 1-1.8.4-1.5 2-3 5.7-5.5 3.6-2.5 4.8-4.2 4.1-6-.3-.8-.1-.7 1.1.6a34 34 0 0 1 4.8 6.5c0 .4 2 2.4 4 4.5l4 3.7 1 5a71.1 71.1 0 0 1 1.6 17.7c-.3 4.2-1.5 16-1.9 17-.3 1.3-2.4 3.2-4.5 4.3-2.7 1.4-6.7 1.7-8.6.7zM78 199c-.2-.4-.4-.6-.5-.4 0 .2-.3.3-.5.2-.2-.1-.6 0-1 .3-.4.5-.6 1.3-.4 2.9 0 .2.7-.3 1.5-1 1.2-1.2 1.3-1.5 1-2zm-4-9.9c0-.2 0-.3.2-.3.3 0 .4.1.4.3l-.1.4-.4-.4z" style="fill:#e3b649;stroke-width:.352778" transform="translate(-44.5 -173.2)"/>
  <path d="M91 241.8a6.2 6.2 0 0 1-2-1.7c-.7-1-.8-1-2-.7a23 23 0 0 1-14-1c-3-1-6.4-3.3-6.4-4 0-.3-.8-1.4-1.8-2.5a11 11 0 0 1-3.5-8.2V221l-1.3-1c-2.1-1.3-2.3-2-1.7-6.8.3-2.4.7-7.7.9-12 .4-9.3.8-11.3 3.5-14.6 2.3-3 3.4-3.7 8.1-5.1l5-1.6c3-1 8.7-1 10.7-.1 2.1 1 3 2.2 2.3 3.6-.6 1.5-2.6 3-4.7 3.7-2.4.7-8.7 1.5-8.9 1.2l-.3-2.9c-.2-2.3-.2-2.6.5-3.6.5-.5 1.3-1.3 2-1.7.9-.6 1-.6.1-.4-1.7.5-3.5 2-4.5 3.6-.5.8-1.8 3-3 4.6-1 1.7-1.8 3.1-1.7 3.2a7 7 0 0 0 2.3-1c2.2-1.2 2.9-1.4 1.5-.4-.5.4-1 1.1-1 1.5 0 .6-.4.9-1 1-1.3 0-1.5.5-2.2 3.2-.8 3.1-1 12.2-.3 15.8a8 8 0 0 0 .7 2.5c.3 0 2.7-4.6 2.6-5l.6-2.2.6-2c-.1 0 0-.5.3-1.1.9-2 1.7-7 1.2-7.5-.2-.3-.2-.5 0-.5l1.1-1.6 1.1-1.6c.3 0 2.1 4 2.1 4.5 0 .2.2.5.4.6.3.2.3 0 .1-.8-.1-.7 0-1.2.3-1.5.3-.3.7-1.1 1-1.8.4-1.5 2-3 5.7-5.5 3.6-2.5 4.8-4.2 4.1-6-.3-.8-.1-.7 1.1.6a34 34 0 0 1 4.8 6.5c0 .4 2 2.4 4 4.5l4 3.7 1 5a71.1 71.1 0 0 1 1.6 17.7c-.3 4.2-1.5 16-1.9 17-.3 1.3-2.4 3.2-4.5 4.3-2.7 1.4-6.7 1.7-8.6.7zM78 199c-.2-.4-.4-.6-.5-.4 0 .2-.3.3-.5.2-.2-.1-.6 0-1 .3-.4.5-.6 1.3-.4 2.9 0 .2.7-.3 1.5-1 1.2-1.2 1.3-1.5 1-2zm-4-9.9c0-.2 0-.3.2-.3.3 0 .4.1.4.3l-.1.4-.4-.4z" style="fill:#70a1b8;stroke-width:.352778" transform="translate(-44.5 -173.2)"/>
  <path d="M91 241.8a6.2 6.2 0 0 1-2-1.7c-.7-1-.8-1-2-.7a23 23 0 0 1-14-1c-3-1-6.4-3.3-6.4-4 0-.3-.7-1.3-1.5-2.2a11.6 11.6 0 0 1-3.8-8.2c-.2-3-.2-3-1.4-4-2-1.3-2.2-2-1.6-6.6.3-2.2.7-7.5.9-11.8.4-9.5 1-11.7 3.8-15.2 2.2-2.8 5.1-4.4 10.3-5.6 1-.2 2.5-.7 3.2-1 .7-.2 2.7-.5 4.8-.5 3 0 3.9 0 5.2.6 2.1 1 3 2.2 2.3 3.6-.6 1.5-2.6 3-4.7 3.7-2.4.7-8.7 1.5-8.9 1.2l-.3-2.9c-.2-2.3-.2-2.6.5-3.6.5-.5 1.3-1.3 2-1.7.9-.6 1-.6.1-.4-1.7.5-3.5 2-4.5 3.6-.5.8-1.8 3-3 4.6-1 1.7-1.8 3.1-1.7 3.2a7 7 0 0 0 2.3-1c2.2-1.2 2.9-1.4 1.5-.4-.5.4-1 1.1-1 1.5 0 .6-.4.9-1 1-1.3 0-1.5.5-2.2 3.2-1.1 4.5-.7 18.3.5 18.3a19 19 0 0 0 3.1-7.2l.6-2c-.1 0 0-.5.3-1.1.9-2 1.7-7 1.2-7.5-.2-.3-.2-.5 0-.5l1.1-1.6 1.1-1.6c.3 0 2.1 4 2.1 4.5 0 .2.2.5.4.6.3.2.3 0 .1-.8-.1-.7 0-1.2.3-1.5.3-.3.7-1.1 1-1.8.4-1.5 2-3 5.7-5.5 3.6-2.5 4.8-4.2 4.1-6-.3-.8-.1-.7 1.1.6a34 34 0 0 1 4.8 6.5c0 .4 2 2.4 4 4.5l4 3.7 1 5.1a70.4 70.4 0 0 1 1.6 17.6c-.3 4.3-1.5 16-1.9 17-.3 1.3-2.4 3.2-4.5 4.3-2.7 1.4-6.7 1.7-8.6.7zm-22.7-22c.2-.2.7-.6 1.2-.8 1-.6 1.2-1.3.3-1.3-.4 0-1-.3-1.4-.7-.7-.7-.7-.6-1.2 1l-.6 1.9c0 .4 1.2.3 1.7-.1zM78 199c-.2-.4-.4-.6-.5-.4 0 .2-.3.3-.5.2-.2-.1-.6 0-1 .3-.4.5-.6 1.3-.4 2.9 0 .2.7-.3 1.5-1 1.2-1.2 1.3-1.5 1-2zm-14.8 0c0-.7.1-1.3.3-1.5.2-.1.4-1.6.4-3.3 0-1.6.2-3.1.4-3.3.3-.2 2-2.5 2-2.8.1-.7.7-2 1-2.2.3-.2.3-.4 0-.7-.8-.4-1-.4-2 .4-.8.7-1 1-.8 2 .1.8 0 1.3-.4 1.6-.3.2-.5.4-.6.3l-.8.1c-.8.3-1 .8-1.3 4.2-.2 1.8.3 5.5.8 6.4.4.6 1-.1 1-1.2zm10.9-9.9c-.1-.2 0-.3.1-.3.3 0 .4.1.4.3l-.1.4-.4-.4z" style="fill:#879598;stroke-width:.352778" transform="translate(-44.5 -173.2)"/>
  <path d="M91 241.8a6.2 6.2 0 0 1-2-1.7l-.7-1.1-1.4.5c-2 .8-8.2.7-11 0-4.2-1.2-9.3-4-9.3-5.1 0-.3-.7-1.3-1.5-2.2a11.6 11.6 0 0 1-3.8-8.2c-.2-3-.2-3-1.4-4-2-1.2-2.1-2-1.6-6.4.3-2 .7-7.4.9-11.8.3-7.9.7-10.2 2-12.9a20 20 0 0 1 4.2-5c1.4-1 5-2.4 8-3l2.6-.9c1.5-.8 1.3-.4-.2.6-2 1.2-2.4 1.7-3.8 4.3a54 54 0 0 1-2.5 4c-.8 1.2-1.4 2.2-1.3 2.4.1.1 1.1-.3 2.2-1 2-1.2 3.4-1.7 2-.6-.5.3-1 .9-1.2 1.3-.1.4-.8 1-1.4 1.1-1.8.6-2.5 3.1-2.7 9.5-.2 4.8.5 11.6 1.2 12.3.1.1 1-1 1.7-2.6.8-1.5 1.4-2.7 1.2-2.6-.5.3-.5.2.3-2a8 8 0 0 0 .6-2c-.1 0 0-.6.3-1.2.9-2 1.7-7 1.2-7.5-.2-.3-.2-.5 0-.5l1.1-1.6 1.1-1.6c.3 0 1.7 3.3 1.7 3.8l-1 .6c-1 .3-1.3.6-1.6 2.3a33 33 0 0 0-.8 5.6l2.7-2.9c1.9-2 2.5-2.9 2.3-3.4-.1-.4 0-.8.5-1.1.4-.3.9-.9 1.1-1.4l.7-1 1-1.6c1-2 2-3.2 4.3-4.8 3-2.2 4.7-4.9 3.6-6.2l.6.7 2 2.3a17 17 0 0 1 2.2 3.2c.5 1 1.6 2.5 2.4 3.2l3.6 3.3 2.2 2.2 1 5.1a72 72 0 0 1 .7 27.7c-.8 7.5-.8 7.3-2.2 9-2.6 2.8-9 4.4-11.8 2.9zm-22.7-22c.2-.2.7-.6 1.2-.8 1-.6 1.2-1.3.3-1.3-.4 0-1-.3-1.4-.7-.7-.7-.7-.6-1.2 1l-.6 1.9c0 .4 1.2.3 1.7-.1zm-5-20.8c0-.7.1-1.3.3-1.5.2-.1.4-1.6.4-3.3 0-1.6.2-3.1.4-3.3.3-.2 2-2.5 2-2.8.1-.7.7-2 1-2.2.3-.2.3-.4 0-.7-.8-.4-1-.4-2 .4-.8.7-1 1-.8 2 .1.8 0 1.3-.4 1.6-.3.2-.5.4-.6.3l-.8.1c-.8.3-1 .8-1.3 4.2-.2 1.8.3 5.5.8 6.4.4.6 1-.1 1-1.2zm12-11.5c-.2-.5-.3-1.7-.4-2.7 0-2.5.8-3.6 3.2-4.7 1.7-.8 2.3-1 4.9-.8 3.3.2 5 1 5.8 2.6.4.9.4 1-.5 2.4-1.4 1.8-3.5 2.9-7.4 3.6-4.5.8-5.4.7-5.7-.4z" style="fill:#6798b3;stroke-width:.352778" transform="translate(-44.5 -173.2)"/>
  <path d="M91 241.8a6.2 6.2 0 0 1-2-1.7l-.7-1.1-1.4.5c-2 .8-8.2.7-11 0-4.2-1.2-9.3-4-9.3-5.1A8 8 0 0 0 65 232a11.6 11.6 0 0 1-3.6-8.2c-.2-2.8-.2-2.9-1.4-3.7-2-1.3-2.1-2-1.5-6.6l.8-11.7c.3-9.1.8-11 3-13.7 1.6-1.7 2-2.4 1.1-2-.9.6 1.8-2 2.8-2.7 1.4-.8 4.6-2 7.2-2.6a13 13 0 0 0 2.7-.8c1.5-.8 1.3-.4-.2.6-2 1.2-2.4 1.7-3.8 4.3a54 54 0 0 1-2.5 4c-.8 1.2-1.4 2.2-1.3 2.4.1.1 1.1-.3 2.2-1 2-1.2 3.4-1.7 2-.6-.5.3-1 .9-1.2 1.3-.1.4-.8 1-1.4 1.1-1 .4-1.3.7-1.9 2.5a44 44 0 0 0-.4 15.5c.8 5 .8 4.6 0 7.2-1.2 3-1 3.5 1.1 2.4a23.8 23.8 0 0 0 6.2-6c.4-.5-.1-1.3-.6-1l-1.2.6c-.5.1-1.3.7-1.8 1.2-.5.6-1.2 1-1.6 1.1-.6.1-.7 0-.6-1 0-.6.6-2.3 1.3-3.6.7-1.4 1-2.4.9-2.3-.5.3-.5.2.3-2a8 8 0 0 0 .6-2c-.1 0 0-.6.3-1.2.9-2 1.7-7 1.2-7.5-.2-.3-.2-.5 0-.5l1.1-1.6 1.1-1.6c.3 0 1.7 3.3 1.7 3.8l-1 .6c-1 .3-1.3.6-1.6 2.3a33 33 0 0 0-.8 5.6l2.7-2.9c1.9-2 2.5-2.9 2.3-3.4-.1-.4 0-.8.5-1.1.4-.3.9-.9 1.1-1.4l.7-1 1-1.6c1-2 2-3.2 4.3-4.8 3-2.2 4.7-4.9 3.6-6.2l.6.7 2 2.3a17 17 0 0 1 2.2 3.2c.5 1 1.6 2.5 2.4 3.2l3.6 3.3 2.2 2.2 1 5.1a72 72 0 0 1 .7 27.7c-.8 7.5-.8 7.3-2.2 9-2.6 2.8-9 4.4-11.8 2.9zm-22.6-19c0-.3-.3-.8-.7-1.3l-.7-.8v7.1l.7-2.3.7-2.7zM64 204c0-.2 0-.7.3-1.2.3-.6.5-1.6.5-2.2 0-.7.2-1.7.4-2.3.5-1.4.6-5.7.2-5.9-.6-.1 2.6-6.2 3.7-7 1.5-1.1 1.3-1.6-.5-1.3-.8.1-1.8.4-2.2.6-1.3.7-2.3 2.2-2 3 .1.7 0 1-1.2 1.5-1.2.6-1.4.9-1.6 2.3-.4 2.7-.3 5.8.2 8.4.7 3.3 1.2 4.3 1.9 4.3.3 0 .5-.1.3-.2zm11.2-16.6-.3-2.7c0-2.5.8-3.6 3.2-4.7 1.7-.8 2.3-1 4.9-.8 3.3.2 5 1 5.8 2.6.4.9.4 1-.5 2.4-1.4 1.8-3.5 2.9-7.4 3.6-4.5.8-5.4.7-5.7-.4z" style="fill:#d4a338;stroke-width:.352778" transform="translate(-44.5 -173.2)"/>
  <path d="M91 241.8a6.2 6.2 0 0 1-2-1.7l-.7-1.1-1.4.5c-2 .8-8.2.7-11 0-4.2-1.2-9.3-4-9.3-5.1A8 8 0 0 0 65 232a11.6 11.6 0 0 1-3.6-8.2c-.2-2.8-.2-2.9-1.4-3.7-2-1.3-2.1-2-1.5-6.6l.8-11.7c.3-9.1.8-11 3-13.7 1.6-1.7 2-2.4 1.1-2-.9.6 1.8-2 2.8-2.7 1.4-.8 4.6-2 7.2-2.6a13 13 0 0 0 2.7-.8c1.5-.8 1.3-.4-.2.6-2 1.2-2.4 1.7-3.8 4.3a54 54 0 0 1-2.5 4c-.8 1.2-1.4 2.2-1.3 2.4.1.1.8 0 1.5-.5l2.2-1.3c.8-.4.8-.4.3 0-.4.3-.8 1-1 1.4-.1.5-.7 1-1.4 1.2-1 .4-1.3.7-1.9 2.5-1 3.2-1.2 12-.3 16.7l.6 3.8-.8 2.2c-1.1 3-1 3.5 1.2 2.4a23.8 23.8 0 0 0 6.2-6c.4-.5-.1-1.3-.6-1l-1.2.6c-.5.1-1.3.7-1.8 1.2-.5.6-1.2 1-1.6 1.1-.6.1-.7 0-.6-1 0-1.2 2-5.3 3.2-7 .4-.6.8-1.6 1-2.2a46 46 0 0 0 1.3-9c-.1-.1 0-.5.3-.9.3-.3.8-1 1-1.6l.6-1 .6 1.6c.4 1 .6 1.7.5 1.8l-1.2.4c-.8.3-1 .6-1.4 2.3a33 33 0 0 0-.8 5.6l2.7-2.9c1.9-2 2.5-2.9 2.3-3.4-.1-.4 0-.8.5-1.1.4-.3.9-.9 1.1-1.4l.7-1 1-1.6c1-2 2-3.2 4.3-4.8 3-2.2 4.7-4.9 3.6-6.2l.6.7 2 2.3a17 17 0 0 1 2.2 3.2c.5 1 1.6 2.5 2.4 3.2l3.6 3.3 2.2 2.2 1 5.1a72 72 0 0 1 .7 27.7c-.8 7.5-.8 7.3-2.2 9-2.6 2.8-9 4.4-11.8 2.9zm-22.6-19c0-.3-.3-.8-.7-1.3l-.7-.8v7.1l.7-2.3.7-2.7zM64 204c0-.2 0-.7.3-1.2.3-.6.5-1.6.5-2.2 0-.7.2-1.7.4-2.3.5-1.4.6-5.7.2-5.9-.6-.1 2.6-6.2 3.7-7 1.5-1.1 1.3-1.6-.5-1.3-.8.1-1.8.4-2.2.6-1.3.7-2.3 2.2-2 3 .1.7 0 1-1.2 1.5-1.2.6-1.4.9-1.6 2.3-.4 2.7-.3 5.8.2 8.4.7 3.3 1.2 4.3 1.9 4.3.3 0 .5-.1.3-.2zm11.2-16.6-.3-2.7c0-2.5.8-3.6 3.2-4.7 1.7-.8 2.3-1 4.9-.8 3.3.2 5 1 5.8 2.6.4.9.4 1-.5 2.4-1.4 1.8-3.5 2.9-7.4 3.6-4.5.8-5.4.7-5.7-.4z" style="fill:#6594ab;stroke-width:.352778" transform="translate(-44.5 -173.2)"/>
  <path d="M91 241.8a6.2 6.2 0 0 1-2-1.7l-.7-1.1-1.4.5c-2 .8-8.2.7-11 0-4.2-1.2-9.3-4-9.3-5.1 0-.3-.7-1.4-1.6-2.3a12 12 0 0 1-3.6-8.3c-.2-2.9-.2-3-1.4-3.6-1.9-1.1-2.2-2.2-1.6-6.5l.8-11c.4-9.1.6-10.5 1.2-10.3.3.1.6 0 .7-.2v1.3c-.4 3.8 1.7 13.2 3 14 .9.4 1 0 1.3-4 .6-9.8 1.7-13.4 5.9-19.1 1.1-1.6 1.5-2.3 1-2.2-.3.2-1.3.4-2.2.5-1.6.2-4.3 1.8-5.6 3.5-.4.5-.7.8-.7.6 0-.2.5-.9 1.2-1.5.7-.7 1.1-1.4 1-1.5 0-.2.2-.4.5-.6 1-.5 6.7-2.4 8.2-2.7l1.3-.2-1.4 1c-.7.7-1.7 2-2.2 2.8-.4 1-1.6 2.8-2.6 4.3a9.9 9.9 0 0 0-1.6 2.9c.1.2.8 0 1.5-.5l2.2-1.3c.8-.4.8-.4.3 0-.4.3-.8 1-1 1.4-.1.5-.7 1-1.4 1.2-1 .4-1.3.7-1.9 2.5a47 47 0 0 0-.4 16.2l.6 4-.8 2.5c-1 3.1-.7 3.6 1.3 2.6 1.2-.6 5.6-4 6.5-5.2 2.4-2.7 3.1-4.8 1.9-5.3-.8-.2-3.3 1-4.3 2-2 2.1-2.3 0-.6-3.2.5-.8.9-1.8.9-2 0-.3.1-.4.4-.3.2.2.3.1.2 0-.2-.3 0-1.8.2-3.4l.7-4.8c0-1 .3-2 .6-2.6l1-1.5c.2-.6.4-.5 1 1 .3.9.5 1.6.4 1.7l-1.2.4c-.8.3-1 .6-1.4 2.3a25 25 0 0 0-.6 3.8l-.2 1.9.9-1c3.7-4 4.3-4.8 4.1-5.4-.1-.4 0-.8.5-1.1.4-.3.9-.9 1.1-1.4l.7-1 1-1.6c1-2 2-3.2 4.3-4.8 3-2.2 4.7-4.9 3.6-6.2l.6.7 2 2.3a15 15 0 0 1 2.2 3.2c.7 1.4 1.8 2.7 4 4.7 1.8 1.6 3.4 3.2 3.7 3.6A71.2 71.2 0 0 1 106 220a181 181 0 0 1-2 17.1c-1.4 3.7-9.4 6.6-13 4.7zm-23.6-14.2.8-2.5c.3-.8.5-1.8.5-2.2 0-.8-.9-2-1.4-2-.2 0-.3 1.7-.3 4 0 3.7 0 4.5.4 2.7zm-3.6-4.6c0-2.3-.3-3.3-.8-3-.1.1-.3 0-.3-.3 0-.2-.2 0-.5.5-.5 1-.4 3 .3 4.6.6 1.5 1.3.6 1.3-1.8zm0-34.6c0-.2.1-.3.3-.3.2 0 .4.1.4.3 0 .2-.2.4-.4.4a.4.4 0 0 1-.3-.4zm11.4-.9-.3-2.7c0-2.5.8-3.6 3.2-4.7 1.7-.8 2.3-1 4.9-.8 3.3.2 5 1 5.8 2.6.4.9.4 1-.5 2.4-1.4 1.8-3.5 2.9-7.4 3.6-4.5.8-5.4.7-5.7-.4z" style="fill:#768790;stroke-width:.352778" transform="translate(-44.5 -173.2)"/>
  <path d="M91 241.8a6 6 0 0 1-2-1.7c-.7-1.1-.7-1.1-2.1-.6-2 .8-8.2.7-11.1-.1-4-1.1-9.2-4-9.2-5.2 0-.2-.7-1.2-1.6-2.1a11.9 11.9 0 0 1-3.6-8.4c-.2-3-.2-3-1.3-3.6-2-1-2.2-1.5-1.5-9l.8-11.6c.2-6 .4-7.3 1-7 .3 0 .6 0 .7-.3v1.3c-.4 3.8 1.7 13.2 3 14 .9.4 1 0 1.3-4 .6-9.8 1.7-13.4 5.9-19.1 1.1-1.6 1.5-2.3 1-2.2-.3.2-1.3.4-2.2.5-1.6.2-4.3 1.8-5.6 3.5-.4.5-.7.8-.7.6 0-.2.5-.9 1.2-1.5.7-.7 1.1-1.4 1-1.5 0-.2.2-.4.5-.6.9-.5 6.7-2.4 8.1-2.7l1.2-.2-1.3 1.1a10 10 0 0 0-2 2.6 53 53 0 0 1-2.6 4.2c-2.5 3.7-2.5 4 .1 2.5l1.6-1-.2.9c-.4 1-.2.9-1.6 1.2-1.1.3-1.3.6-2 2.3-1 3-1.1 11.5-.3 16.7l.6 4-.8 2.5c-1 3.1-.7 3.6 1.3 2.6 1.2-.6 5.6-4 6.5-5.2 2.4-2.7 3.1-4.8 1.9-5.3-.8-.2-3 .7-4.2 2-.7.6-1.2.9-1.5.7-1.3-.8 1.5-6 5.7-10.5 1.4-1.6 2.7-3 2.7-3.3 0-.3.9-1 1.7-1.8.9-.7 2-1.9 2.6-2.6l3.1-3.7c2.5-2.7 4-5.6 3.7-7l-.2-1 .6 1 1.8 2.2c.7.8 1.7 2.2 2.1 3.2.6 1.3 1.8 2.6 4.2 4.7 1.9 1.7 3.6 3.5 3.8 4.1.8 1.9 2.3 10.3 2.7 15 .6 7-1 23.8-2.4 25.7-2.4 3.3-9.2 5.3-12.4 3.7zm-23.6-14.2.8-2.5c.3-.8.5-1.8.5-2.2 0-.8-.9-2-1.4-2-.2 0-.3 1.7-.3 4 0 3.7 0 4.5.4 2.7zm-3.6-4.6c0-2.3-.3-3.3-.8-3-.1.1-.3 0-.3-.3 0-.2-.2 0-.5.5-.5 1-.4 3 .3 4.6.6 1.5 1.3.6 1.3-1.8zm9.7-18.9c.3-1.7.5-2 .5-.7 0 .6-.1 1.3-.3 1.6-.3.4-.3 0-.2-.9zm.6-2.8c0-.6 0-.8.2-.4v1c-.1.3-.2 0-.2-.6zm.4-3.2c0-1.4.3-2.5.9-3.3l.7-1.6c0-.5.6.4.9 1.4.1.5 0 .9-.8 1.3-.9.5-1.1 1-1.4 2.5l-.4 1.8zm-10.7-9.7c0-.2.1-.3.3-.3.2 0 .4.1.4.3 0 .2-.2.4-.4.4a.4.4 0 0 1-.3-.4zm11.5-1.3c-.7-4.2.1-5.9 3.6-7.2 3.5-1.3 7.6-.5 9.4 2 .7.9.7 1 0 2-1.2 2.3-4.7 3.8-10.4 4.4l-2.4.2z" style="fill:#5988a5;stroke-width:.352778" transform="translate(-44.5 -173.2)"/>
  <path d="M91 241.8a6 6 0 0 1-2-1.7c-.7-1.1-.7-1.1-2.1-.6-2 .8-8.2.7-11.1-.1-4-1.1-9.2-4-9.2-5.2a9 9 0 0 0-1.6-2.1c-1.6-1.8-1.9-2.4-1.2-2.4.2 0 .6-.5 1-1 .7-1.2.7-3.2.2-8-.6-6.2-3-7.9-3.5-2.5-.3 2.6-.6 2.8-2.3 1.3-1.2-1.2-1.3-2.3-.7-7 .2-1.3.5-5.9.7-10.1l.5-8.3c.4-1 1.2.6 1.4 3.1.6 6.8 3.2 14.8 4.1 13 .2-.2.4-3.2.5-6.6.2-7 .8-10.4 2.4-13.6a39 39 0 0 1 5-7.5c1.1-1.2 1.1-1.3-.3-.8-.5.2-1.1.3-1.4.1-.4-.3 1.7-1 3-1.1h.8l-1 1.1a10 10 0 0 0-1.8 2.4c-.3.7-1.5 2.5-2.5 4-2.5 3.7-2.5 4 .1 2.5l1.6-1-.2.9c-.4 1-.2.9-1.6 1.2-1.1.3-1.3.6-2 2.3-1 3-1.1 11.5-.3 16.7.6 3.8.6 4 0 5.7-.5 1.3-.6 3.3-.8 9-.1 5 0 7 .2 6.9l.4-.7c0-.3.2-.7.5-1 .3-.2.5-.5.4-.7-.1-.1 0-.3.4-.4.3-.2.4-.4.3-.6-.1-.2 0-.7.2-1 .7-.8 2-4 2-4.8l-.1-1.6c-.2-.7-.3-.8-1.6-.6-1.8.2-2.1-.3-.6-1.1 1.6-.9 7.6-5.7 9.3-7.5.9-.9 1.8-2.2 2-2.9.4-.7.9-1.3 1.2-1.3a2 2 0 0 0 1-.5c1.4-1.1 2-1.7 1.8-2-.1-.1.3-.7.9-1.2.6-.7.9-1.2.7-1.4-.3-.4-.4-.6-.4-1.3 0-.2-.3-.3-.6-.3-.6 0-2.5 2.6-2.3 3.2 0 .1-.7.8-1.6 1.5-1.3 1-2 1.1-2.8 1a5 5 0 0 0-2.7.6c-1.8.9-2.3 1-2.3.2 0-1.2 1.6-3.7 4.4-6.6 1.9-1.8 2.9-3.1 2.6-3.3-.2-.1 0-.5.6-1l2.2-1.8c.8-.7.7-.4-.5.9l-1.8 2 1.9-1.8c1-1 1.7-1.9 1.6-2.1 0-.2 1.1-1.8 2.6-3.4 3-3.4 4.5-6.2 4.2-7.7l-.2-1 .6 1 1.8 2.2c.7.8 1.7 2.2 2.1 3.2.6 1.3 1.8 2.6 4.2 4.7 1.9 1.7 3.6 3.5 3.8 4.1a86 86 0 0 1 2.7 14.9c.6 7-1 23.9-2.4 25.8-2.4 3.3-9.2 5.3-12.4 3.7zM73.5 204c.3-1.7.5-2 .5-.7 0 .6-.1 1.3-.3 1.6-.3.4-.3 0-.2-.9zm.6-2.8c0-.6 0-.8.2-.4v1c-.1.3-.2 0-.2-.6zm.4-3.2c0-1.4.3-2.5.9-3.3l.7-1.6c0-.5.6.4.9 1.4.1.5 0 .9-.8 1.3-.9.5-1.1 1-1.4 2.5l-.4 1.8zm.8-11c-.7-4.2.1-5.9 3.6-7.2 3.5-1.3 7.6-.5 9.4 2 .7.9.7 1 0 2-1.2 2.3-4.7 3.8-10.4 4.4l-2.4.2zm-8.2-4.2 1.2-.5c.4 0 .4.1-.1.5l-1.2.6c-.4 0-.4-.2.1-.6z" style="fill:#57829b;stroke-width:.352778" transform="translate(-44.5 -173.2)"/>
  <path d="M91 241.8a6.2 6.2 0 0 1-2-1.7c-.7-1.1-.7-1.1-2.1-.6-2 .7-7.9.7-10.8 0-2.9-.8-7.6-3.1-8.8-4.3-.8-.9-.8-1-.3-1.7l1-2 1.2-1.8c.3-.3.6-1 .8-1.4 0-.5.6-1.5 1.1-2.2.6-.9 1-2 1-3.3.2-1.8.2-2-.6-2.2-.5-.2-1.2-.2-1.7 0-2 .7-2.5 0-.6-1a87 87 0 0 0 16.4-14.7c.8-1.4.8-1.5.2-2.5-1.3-2.3-1.6-2.4-3.2-.6-.8.9-1.5 1.8-1.5 2 0 .4-6.2 3.3-6.5 3-.9-.8 1-3.5 3.9-5.8 1-.9 3.3-3.1 5-5 3-3.4 3.7-4.7 1.8-2.8-2 2-1.3.6 1.3-2.3 3-3.4 4.5-6.2 4.2-7.7-.2-.8-.1-.8.8.5l1.6 1.9c.4.3 1.1 1.4 1.6 2.5a16 16 0 0 0 4.5 5.2c4.1 3.6 4.2 3.8 5.6 12.2.8 4.6 1 6.8 1 11.3 0 5.7-1.2 18-2 20.2-1.1 3.7-9.3 6.7-13 4.8zm-25.5-9.4c-.6-1-.6-2 0-2.7.4-.4.4-1.5.3-5.3a25 25 0 0 0-2.8-12c-.6-.9-.6-.9-1.2-.2-.3.5-.5 1.7-.5 4.5 0 4.3-.2 4.6-2 2.8-1.4-1.2-1.4-1.5-.7-8.2.3-2.6.7-7.2.8-10.3.2-5.5.6-6.7 1-3.4.2 1 .4 1.7.6 1.5a122 122 0 0 0 3 12.2c.2 1 .7 2.2 1 2.5.5.4.6.4.8-.4.2-.4.3-1 .2-1l-.1-7a34 34 0 0 1 1.9-14.3c.8-1.9 4.7-8 5-8 .3 0-1.5 3-3.3 5.6-2.1 3.2-2 3.5.5 2l1.6-1-.2.9c-.4 1-.2.9-1.6 1.2-1.1.3-1.3.6-2 2.3-1 2.9-1.1 11.5-.3 16.7.6 4 .6 4-.1 6.1a9 9 0 0 0-.7 3.5c.1 3-.1 12.8-.4 12.8-.1 0-.5-.3-.8-.8zm8-28.3c.3-1.7.5-2 .5-.7 0 .6-.1 1.3-.3 1.6-.3.4-.3 0-.2-.9zm.6-2.8c0-.6 0-.8.2-.4v1c-.1.3-.2 0-.2-.6zm.4-3.2c0-1.4.3-2.5.9-3.3l.7-1.6c0-.5.6.4.9 1.4.1.5 0 .9-.8 1.3-.9.5-1.1 1-1.4 2.5l-.4 1.8zm6-.8c.4-.4.8-.6.9-.6.2.3-.8 1.2-1.3 1.2-.4 0-.3-.2.3-.6zM75.2 187c-.7-4.2.1-5.9 3.6-7.2 3.5-1.3 7.6-.5 9.4 2 .7.9.7 1 0 2-1.2 2.3-4.7 3.8-10.4 4.4l-2.4.2zm-8-4.3 1-.4c.5 0 .5 0 0 .4-.2.2-.7.3-1 .3-.5 0-.5 0 0-.3zm6.9-1.4c0-.2 0-.4-.3-.5-.2-.1 0-.2.4-.1.6 0 .6.1.4.5-.5.5-.8.6-.5 0z" style="fill:#527c96;stroke-width:.352778" transform="translate(-44.5 -173.2)"/>
  <path d="M91 241.8a6.2 6.2 0 0 1-2-1.7c-.7-1.1-.7-1.1-2.1-.6-2 .7-7.9.7-10.8 0-2.9-.8-7.6-3.1-8.8-4.3-.5-.6-.6-.9-.3-.7.4.1.7-.2 1-1 .3-.6.7-1.4 1-1.7l1.1-2.6c.4-1.2 1-2.4 1.4-2.9.9-.8 1.4-2.5 1.7-4.5.1-1.7-.4-2.4-1.6-2-.5.3-1.6.5-2.3.6l-1.5.1 1.3-.6c2.1-1.2 7.4-5.7 12.7-10.8l5-4.8-1.1-2.3c-1.2-2.2-1.2-2.3-.6-3 .5-.6.6-.8.3-1.1-.8-.8-.5-2.1 1-4.2 1.7-2.5 1.8-3.3.2-1.9l-2 1.7-.9.7.7-.8 2.8-3.2c2.3-2.5 4-5.6 3.6-6.8-.3-1.3 2.9 2.5 4 4.8.8 1.5 2 2.8 4.4 5 1.9 1.7 3.6 3.3 3.7 3.7a65.5 65.5 0 0 1 2.9 19.9c0 5.5-1 17.5-1.8 20-1 3.8-9.3 7-13 5zm-25-9.5a3 3 0 0 1 .2-1.6c.2-.7.3-.5.4.9 0 1.8-.2 2.1-.6.7zm.4-9.7c0-1.4 0-2 .1-1.3v2.7l-.1-1.4zm-6.5-2.6c-1.8-1-2-1.8-1.3-7.7.4-3 .8-7.6.9-10.4.1-4.8.5-6.2.9-4 .6 3 1.2 22.6.7 22.6a5 5 0 0 1-1.2-.5zm5.6-2.2-.8-2.8c-.2-.4 0-.3.4.3 1.1 1.7 1.6 1.3 1.4-1.2-.6-5-.7-13.6-.3-16.5.6-4 1.4-7 1.8-6.4.2.4.7.2 2-.5l1.6-1-.2.9c-.4 1-.2.9-1.6 1.2-1.1.3-1.3.6-2 2.3-1 2.9-1.1 11.5-.3 16.7l.6 4-.8 2.2a20 20 0 0 1-1 2.5c-.1.2-.5-.6-.8-1.7zm-3.3-8.8c-.6-1.2-1.2-5.8-.6-5.2.4.4 1.6 5.8 1.3 6 0 .1-.4-.3-.7-.8zm11.3-4.9c.3-1.7.5-2 .5-.7 0 .6-.1 1.3-.3 1.6-.3.4-.3 0-.2-.9zm.6-2.8c0-.6 0-.8.2-.4v1c-.1.3-.2 0-.2-.6zm.4-3.2c0-1.4.3-2.5.9-3.3l.7-1.6c0-.5.6.4.9 1.4.1.5 0 .9-.8 1.3-.9.5-1.1 1-1.4 2.5l-.4 1.8zm5.2-.2 1-.8.9-.7-.7.7c-.3.5-.8.8-1 .8h-.2zM70 187.5l1.3-2 .6-.8-.5 1c-.3.7-.9 1.5-1.3 2l-.7.9zm5.3-.4c-.7-4.2.1-5.9 3.6-7.2 3.5-1.3 7.6-.5 9.4 2 .7.9.7 1 0 2-1.2 2.3-4.7 3.8-10.4 4.4l-2.4.2z" style="fill:#497696;stroke-width:.352778" transform="translate(-44.5 -173.2)"/>
  <path d="M91 241.8a6.2 6.2 0 0 1-2-1.7c-.7-1.1-.7-1.1-2.1-.6-2 .7-7.9.7-10.8 0-3-.8-7.7-3.1-8.8-4.4l-.9-1 1 .8c.4.4 1.1.9 1.5 1 .7.4.8.4 1.2-.5a62 62 0 0 0 1.6-5.7c0-1.2 1.1-2.8 1.8-2.8.2 0 .7-.4 1-1 .4-.6.9-.8 1.3-.7.8.2 2.4-1.5 2.7-3a3 3 0 0 1 .7-1.4c.6-.4.6-3.5 0-3.5-.1 0-.2-.2-.1-.5.2-.5-.3-1-1-1-.2 0-1.4.5-2.7 1.2a50 50 0 0 1-6.5 3.2 91.8 91.8 0 0 0 12.7-10.8l5.3-5.1-1.2-2.2c-1.2-2.2-1.1-3.1.4-3.1.8 0 .8-.8 0-1.4-.3-.3-.4-.6-.1-.8.2-.2.2-.6.1-.9-.2-.4 0-1.2 1.2-3.3.8-1.6.5-2-.7-.8l-2 1.7-.9.7.7-.8 2.8-3.2c2.3-2.5 4-5.6 3.6-6.8-.3-1.3 2.9 2.5 4 4.8.8 1.5 2 2.8 4.4 5 1.9 1.7 3.6 3.3 3.7 3.7a65.5 65.5 0 0 1 2.9 19.9c0 5.5-1 17.5-1.8 20-1 3.8-9.3 7-13 5zM59.9 220c-1.8-1-2-1.8-1.3-7.7.4-3 .8-7.6.9-10.4.1-4.8.5-6.2.9-4 .6 3 1.2 22.6.7 22.6a5 5 0 0 1-1.2-.5zm6.4-2.5c-.3-.8-.3-1 0-1.2.3-.2.3-1.3 0-4.5-.5-5.8-.5-11.6.1-15.4.6-3.8 1.2-5.8 1.6-5.2.2.4.7.2 2-.5l1.6-1-.2.9c-.4 1-.2.9-1.6 1.2-1.1.3-1.3.6-2 2.3-1 2.9-1.1 11.5-.3 16.7.6 3.9.6 4 0 5.8l-.8 1.8zm-4-8.5c-.7-1.2-1.3-5.8-.7-5.2.4.4 1.6 5.8 1.3 6 0 .1-.4-.3-.7-.8zm11.2-4.9c.3-1.7.5-2 .5-.7 0 .6-.1 1.3-.3 1.6-.3.4-.3 0-.2-.9zm.6-2.8c0-.6 0-.8.2-.4v1c-.1.3-.2 0-.2-.6zm.4-3.2c0-1.4.3-2.5.9-3.3l.7-1.6c0-.5.6.4.9 1.4.1.5 0 .9-.8 1.3-.9.5-1.1 1-1.4 2.5l-.4 1.8zm5.2-.2 1-.8.9-.7-.7.7c-.3.5-.8.8-1 .8h-.2zM70 187.5l1.3-2 .6-.8-.5 1c-.3.7-.9 1.5-1.3 2l-.7.9zm5.3-.4c-.7-4.2.1-5.9 3.6-7.2 3.5-1.3 7.6-.5 9.4 2 .7.9.7 1 0 2-1.2 2.3-4.7 3.8-10.4 4.4l-2.4.2z" style="fill:#4a728b;stroke-width:.352778" transform="translate(-44.5 -173.2)"/>
  <path d="M91.8 242.2a6.3 6.3 0 0 1-3-2.5c-.3-.8-.3-.8-2-.2-2.3.7-7.7.7-10.7 0-2.6-.8-6.8-2.6-7.5-3.4-.3-.4-.2-.4.7 0a4 4 0 0 0 1.3.6c.3 0 .9-2.3 1.1-4.2.3-2.3 2-5.4 3-5.6 1-.1 3.5-2.5 3.5-3.3 0-.3.2-.7.4-.8.2-.1.4-.5.4-.9 0-.3.2-.9.5-1.2.5-.4.6-1 .4-3 0-1.4-.3-2.7-.5-2.8-.1-.2-1.2.2-2.4.9-3.4 1.9-7 3.8-6.7 3.4a148.5 148.5 0 0 0 11-9.5l5.7-5.5-1.2-2.2c-1.4-2.5-1.5-2.5 1.5-2.3a4 4 0 0 0 2-.5c.7-.4.7-.5 0-1.2-.5-.4-.8-1-.9-1.2 0-1.4.2-5.4.5-6.3l.3-1.2-1.3 1.3c-3 2.8-3.3 2.8-.9 0 2.8-3.4 3.7-5 3.7-6.6v-1.1l1.6 1.6c.8.9 2 2.6 2.5 3.8a19 19 0 0 0 4.3 5c1.7 1.4 3.4 3 3.7 3.5a73.7 73.7 0 0 1 2 34.8c-.6 5.1-.8 5.6-1.7 6.8-1.6 2-5.2 3.6-8.2 3.8h-3zm9.5-16.6c.2-.6-.2-1.5-1.2-3.1-1.5-2.6-1.6-3-.9-4.4.8-1.4.8-3.6.1-5.2a14 14 0 0 1-.8-3c0-1-.3-1.6-.5-1.5-.2 0-.3-.4-.3-1 0-1-.1-1-.5-.6-1 1.1-1.5 8-.8 11.8l.4 2.3.9 3c.4 1.3.6 2.4.4 2.7-.2.4-.2.9-.1 2.6 0 .7 3-2.6 3.3-3.6zM60 220c-.5-.4-.7-.8-.6-1.5l.2-1 .1-1.4a753 753 0 0 1 .8-9.4c-.1-.6 0-1 .2-1 .1 0 .3 1.3.3 3 0 1.5 0 4.8.2 7.3.1 2.7 0 4.5-.1 4.5a3 3 0 0 1-1-.5zm6.7-7.5c-.6-5.3-.6-13.5-.1-16.4.5-3 1-4.9 1.4-4.7.2.1 1.1-.2 2-.7l1.6-1-.2.9c-.4 1-.2.9-1.6 1.2-1.1.3-1.3.6-2 2.3a51 51 0 0 0-.3 16.8c.6 3.5.6 4.1.1 5-.5 1.1-.5 1-1-3.4zm6.8-8.4c.3-1.7.5-2 .5-.7 0 .6-.1 1.3-.3 1.6-.3.4-.3 0-.2-.9zm-13.1-3.3c0-1.1 0-1.5.1-1v2l-.1-1zm13.7.5c0-.6 0-.8.2-.4v1c-.1.3-.2 0-.2-.6zm.4-3.2c0-1.4.3-2.5.9-3.3l.7-1.6c0-.5.6.4.9 1.4.1.5 0 .9-.8 1.3-.9.5-1.1 1-1.4 2.5l-.4 1.8zm5.5-.3.6-.6c.6-.4.6-.4.2.1-.5.6-.8.8-.8.5zm-4.7-10.7c-.5-3.2-.3-4.3 1-5.6 3.2-3 9.6-2.9 12 .3.7 1 .7 1 0 2.2-1.2 2.2-4.7 3.7-10.4 4.3l-2.4.2z" style="fill:#937436;stroke-width:.352778" transform="translate(-44.5 -173.2)"/>
  <path d="M91.8 242.2a6.3 6.3 0 0 1-3-2.5c-.3-.8-.3-.8-2-.2-2.3.7-7.7.7-10.7 0-2.6-.8-6.8-2.6-7.5-3.4-.3-.4-.2-.4.7 0a4 4 0 0 0 1.3.6c.3 0 .9-2.3 1.1-4.2.3-2.3 2-5.4 3-5.6 1-.1 3.5-2.5 3.5-3.3 0-.3.2-.7.4-.8.2-.1.4-.5.4-.9 0-.3.2-.9.5-1.2.5-.4.6-1 .4-3 0-1.4-.3-2.7-.5-2.8-.1-.2-1.2.2-2.4.9-3.4 1.9-7 3.8-6.7 3.4a148.5 148.5 0 0 0 11-9.5l5.7-5.5-1.2-2.2c-1.4-2.5-1.5-2.5 1.5-2.3a4 4 0 0 0 2-.5c.7-.4.7-.5 0-1.2-.5-.4-.8-1-.9-1.2 0-1.4.2-5.4.5-6.3l.3-1.2-1.3 1.3c-3 2.8-3.3 2.8-.9 0 2.8-3.4 3.7-5 3.7-6.6v-1.1l1.6 1.6c.8.9 2 2.6 2.5 3.8a19 19 0 0 0 4.3 5c1.7 1.4 3.4 3 3.7 3.5a73.7 73.7 0 0 1 2 34.8c-.6 5.1-.8 5.6-1.7 6.8-1.6 2-5.2 3.6-8.2 3.8h-3zm9.5-16.6c.2-.6-.2-1.5-1.2-3.1-1.5-2.6-1.6-3-.9-4.4.8-1.4.8-3.6.1-5.2a14 14 0 0 1-.8-3c0-1-.3-1.6-.5-1.5-.2 0-.3-.4-.3-1 0-1-.1-1-.5-.6-1 1.1-1.5 8-.8 11.8l.4 2.3.9 3c.4 1.3.6 2.4.4 2.7-.2.4-.2.9-.1 2.6 0 .7 3-2.6 3.3-3.6zM60 220c-.5-.4-.7-.8-.6-1.5l.2-1 .1-1.4a753 753 0 0 1 .8-9.4c-.1-.6 0-1 .2-1 .1 0 .3 1.3.3 3 0 1.5 0 4.8.2 7.3.1 2.7 0 4.5-.1 4.5a3 3 0 0 1-1-.5zm6.6-7.6c-.5-5.2-.5-13.4 0-16.3.5-3 1-4.9 1.4-4.7.2.1 1-.2 2-.7l1.5-1-.3.9c-.1.5-.7 1-1.5 1.2-1.7.6-2.3 2.8-2.7 9.3-.4 5-.2 7.2.7 12 .3 1.6.3 2.2-.1 3-.5.9-.5.6-1-3.7zm-6.2-11.6c0-1.1 0-1.5.1-1v2l-.1-1zm19.6-3 .6-.6c.6-.4.6-.4.2.1-.5.6-.8.8-.8.5zm-3.7-2.3c.7-.8.9-.9.9-.5 0 .2-.4.5-.8.8-.8.5-.8.5-.1-.3zm-1-8.4c-.5-3.2-.3-4.3 1-5.6 3.2-3 9.6-2.9 12 .3.7 1 .7 1 0 2.2-1.2 2.2-4.7 3.7-10.4 4.3l-2.4.2z" style="fill:#436a87;stroke-width:.352778" transform="translate(-44.5 -173.2)"/>
  <path d="M91.8 242.2a6.3 6.3 0 0 1-3-2.5c-.3-.8-.3-.8-2-.2-2.3.7-7.7.7-10.7 0-2.1-.6-6.7-2.5-6.7-2.9l2.2.7c1.8.8 2.3.9 3.2.5l2.6-.6c2.3-.2 2.3-.2 2-2.5 0-1.1-.3-2.2-.4-2.4-.5-.8-.3-2 .6-5l1.6-4.2a9 9 0 0 0 .8-3.4c0-1.2.2-2.6.3-3 .2-.5.2-1.3.2-1.8s.1-1 .3-1c.1-.2 0-.5-.3-.8-.5-.6-.7-.5-3.2.7a30.8 30.8 0 0 0-6.2 3.7 218.2 218.2 0 0 0 10.3-9.8l3.7-3.5-1-1.9c-.7-1-1.1-2-1.1-2.3 0-.3.6-.3 2.2-.1 2 .2 2.4.1 3-.4l1.6-1.3c1.2-.8 1.2-2.3 0-2-1 0-1.9-1.2-1.9-2.7v-5.1l-1 1.1c-.6.7-1.8 1.9-2.8 2.6-1.6 1.4-1.6 1.3.9-1.6 2.8-3.2 3.7-4.9 3.7-6.5v-1.1l1.6 1.6c.8.9 2 2.6 2.5 3.8.8 1.5 2 2.8 4.2 4.9a16 16 0 0 1 3.4 3.5c.2.5-.7 1.6-4.4 5.3-2.6 2.5-5 5.1-5.4 5.8l-.7 1.3.8-.8a8 8 0 0 0 1.4-1.9c.4-.7 2.1-2.5 3.9-4 1.8-1.6 3.6-3.3 4-3.9.4-.6.8-.8 1-.6.5.4 1.9 7.3 2.4 11.8.6 4.4.3 13.9-.7 21.7-.6 5.3-.7 5.9-1.7 7a12 12 0 0 1-8 3.8h-3.2zm6-1.8c1-.5 1-.6.4-1.2-.5-.5-.6-1-.4-2.1.2-1.3.2-1.5-.5-1.7-1.1-.3-.7-1.4 2.1-5.6 2.5-3.7 3.3-5.7 2.6-6.5a9.6 9.6 0 0 1-1.9-4c0-.5.3-1.4.6-2 .5-1 .5-4 0-6.1-.2-.9-.7-4.3-.7-5.3-.3-3.4-2.4-2.9-4.1 1-1.2 2.6-1.2 2.9-1.3 8.2 0 4 .1 5.2.7 6.5 1 2.2 1 6.1 0 7.7-.3.6-.9 1.2-1.2 1.3-1 .3-2.6 4.4-3 7.8-.2 1.6.3 2.2 2.2 2.6a7 7 0 0 0 4.5-.6zm-2.3-38c1-1.1 1.8-2 1.6-2-.4 0-4 3.2-4 3.6 0 .6.6.2 2.4-1.6zm-35 17.9v-4.5l.3-4.3.2 4.4c.1 3.9 0 5.2-.5 4.4zM67 215l-.4-3.5a88 88 0 0 1 0-15.4c.5-3 1-4.9 1.4-4.7.2.1 1-.2 2-.7l1.5-1-.3.9c-.1.5-.7 1-1.5 1.2-1.7.6-2.3 2.8-2.7 9.3-.4 5-.2 7.4.7 12 .4 1.8.2 3.2-.4 3.2-.2 0-.3-.6-.3-1.3zm13-17.2.6-.6c.6-.4.6-.4.2.1-.5.6-.8.8-.8.5zm-3.7-2.3c.7-.8.9-.9.9-.5 0 .2-.4.5-.8.8-.8.5-.8.5-.1-.3zm-1-8.4c-.5-3.2-.3-4.3 1-5.6 3.2-3 9.6-2.9 12 .3.7 1 .7 1 0 2.2-1.2 2.2-4.7 3.7-10.4 4.3l-2.4.2z" style="fill:#3d6483;stroke-width:.352778" transform="translate(-44.5 -173.2)"/>
  <path d="M91.8 242.2a6.3 6.3 0 0 1-3-2.5c-.3-.7-.4-.8-1.2-.5a22 22 0 0 1-12.7-.2c-1-.4-1-.4 0-.3.5.2 1.1 0 1.4-.2.2-.2 1.2-.4 2.1-.4 2 0 2.8-.7 2.4-1.8-.2-.9-.5-2.9-.5-5 0-1.6 1-5.5 2.4-8.7.5-1.1.8-2.6.8-3.2 0-.7.2-1.9.6-2.8.7-1.9 1-5 .3-5.6-.5-.4-2.6.3-4.2 1.6a5 5 0 0 1-1.4.9c-.2 0-.9.4-1.6 1-4.2 3-4.3 3-.4-.5 1.3-1.1 4.1-3.8 6.3-6l4-3.8-1-1.9c-.7-1-1.1-2-1.1-2.3 0-.3.6-.3 2.3-.1 1.4.1 2.4 0 2.5-.1.2-.2.8-.7 1.4-1l2-1.7c.8-1 .8-1.2.3-1.8-.2-.4-.6-.7-.7-.6H92c-.5-.2-.8-1-1.8-4.6l-.5-1.7-1 1.2c-.4.6-1.6 1.8-2.6 2.5-1.6 1.4-1.6 1.3.9-1.6 2.8-3.2 3.7-4.9 3.7-6.5v-1.1l1.6 1.6c.8.9 2 2.6 2.5 3.7.6 1.2 2 3 3.3 4.2a16 16 0 0 1 3 4l.9 1.6-1.6 1.5a46.6 46.6 0 0 0-8 8.3 9.5 9.5 0 0 0-1.3 2.4c.2.2 2.3-2.1 3-3.4.4-.7 2-2.5 3.6-3.9l3.6-3.4c1.1-1.4 1.7-1.1 2.2 1.2l.3 1.5c0 .4 0 .7-.2.7-.3 0-.1.2.2.5.7.5.7.5 0 1s-.8 1-.8 2.3c0 3.1 0 4-.4 3.9-.2 0-.4-.3-.5-.5 0-.2-.2-.6-.5-.8-.2-.3-.3-.6-.2-.8 0-.1 0-.3-.3-.4-.2 0-.4-.9-.3-2 0-2.7-.5-3.9-1.6-3.7-1 .3-3 2.6-4 4.9l-1.1 2.4c-.6 1 0 10.8.8 13 .6 1.9.6 2.4.3 3.9-.3 1-.6 1.7-.7 1.7-.4 0-1.8 2.3-2 3.3l-.2 1v.4l-.4 1.2c-.7 1.2-1.3 4.9-1 5.6.8 2.2 6.7 2 8.7-.3.7-.7.7-.7 0-1.3-.8-.6-.8-.8-.5-1.8.3-1.3.2-1.8-.6-1.8-1.2 0 0-3.7 2-5.9a23 23 0 0 0 2.4-3.8c.8-1.8 1.4-2.6 1.8-2.6.6 0 .6.3.5 3.2l-.7 7.5c-.4 3.7-.6 4.4-1.5 5.5a12.5 12.5 0 0 1-8 3.7h-3.2zm3.1-39c2.7-2.5 3.8-3.8 3.1-3.8-.7 0-5 3.9-5.1 4.7-.2.5-.5 1-.8 1.2-.4.2-.5.4-.3.4s1.6-1.1 3.1-2.5zM72 238c-.5-.3-.7-.5-.5-.5l1.2.5c.5.3.7.5.5.5L72 238zm29.7-17.2c-1.1-.4-1.1-2.9.1-4.3.5-.6.9-.9.9-.6 0 .2.1.3.3.2.6-.3 1.1 1 1 2.4l-.2 1.6c0 .2-.3.4-.6.4l-.6.3c0 .2-.4.2-.9 0zm-41.1-.5v-4.5l.3-4.3.2 4.4c.1 3.9 0 5.2-.5 4.4zM67 215l-.4-3.5a88 88 0 0 1 0-15.4c.5-3 1-4.9 1.4-4.7.2.1 1-.2 2-.7l1.5-1-.3.9c-.1.5-.7 1-1.5 1.2-1.7.6-2.3 2.8-2.7 9.3-.4 5-.2 7.4.7 12 .4 1.8.2 3.2-.4 3.2-.2 0-.3-.6-.3-1.3zm13-17.2.6-.6c.6-.4.6-.4.2.1-.5.6-.8.8-.8.5zm-3.7-2.3c.7-.8.9-.9.9-.5 0 .2-.4.5-.8.8-.8.5-.8.5-.1-.3zm-1-8.4c-.5-3.2-.3-4.3 1-5.6 3.2-3 9.6-2.9 12 .3.7 1 .7 1 0 2.2-1.2 2.2-4.7 3.7-10.4 4.3l-2.4.2z" style="fill:#466578;stroke-width:.352778" transform="translate(-44.5 -173.2)"/>
  <path d="M91.8 242a6.2 6.2 0 0 1-3.1-2.6c-.4-.5-.5-.5-2 0-2.6 1-11.5.5-12.6-.7h.7c.6.1 1.2 0 1.5-.2.2-.2 1.2-.4 2.1-.4 2 0 2.8-.7 2.4-1.8-.2-.9-.5-2.9-.5-5 0-1.6 1-5.5 2.4-8.7.5-1.1.8-2.6.8-3.2 0-.7.2-1.9.6-2.8.7-1.9 1-5 .3-5.6-.5-.4-2.6.3-4.2 1.6a5 5 0 0 1-1.4.9l-1.5.8c-4.3 3.2-4.4 3.2-.5-.3 1.3-1.1 4.1-3.8 6.3-6l4-3.8-1-1.9c-.7-1-1.1-2-1.1-2.3 0-.2.7-.3 2.5-.1l2.6.2 2-2c1.7-1.7 2-2 1.6-2.6-.2-.4-.5-.7-.6-.7-1.6.2-2.5-1.5-2.6-4.9 0-1.2-.1-2.2-.2-2.2l-1 1c-.7.8-.7.7.3-.9.6-1 1.1-2.4 1.2-3.2l.2-1.4 1.6 1.8c.9 1 2 2.5 2.3 3.4.4 1 1.8 2.6 3 4 1.4 1.2 2.8 3 3.3 4l.8 1.7-1.6 1.4a46.6 46.6 0 0 0-8 8.3 9.5 9.5 0 0 0-1.3 2.4c.2.2 2.3-2.1 3-3.4.4-.7 2-2.5 3.6-3.9l3.6-3.4c1.1-1.4 1.7-1.1 2.2 1.2l.3 1.5c0 .4 0 .7-.2.7-.3 0-.1.2.2.5.7.5.7.5 0 1s-.8 1-.8 2.3c0 3.1 0 4-.4 3.9-.2 0-.4-.3-.5-.5 0-.2-.2-.6-.5-.8-.2-.3-.3-.6-.2-.8 0-.1 0-.3-.3-.4-.2 0-.4-.9-.3-2 0-2.7-.5-3.9-1.6-3.7-1 .3-3 2.6-4 4.9l-1.1 2.4c-.6 1 0 10.8.8 13 .6 1.9.6 2.4.3 3.9-.3 1-.6 1.7-.7 1.7-.6 0-2.6 4.2-3 6.5l-.6 2c-.2.9-.3 2-.2 2.5.7 2.6 6.7 2.7 9 .2.6-.7.6-.7-.2-1.3-.7-.6-.7-.8-.4-1.8.3-1.3.2-1.8-.6-1.8-1.2 0 0-3.7 2-5.9a23 23 0 0 0 2.4-3.8c.8-1.8 1.4-2.6 1.8-2.6.6 0 .6.3.5 3.2a41 41 0 0 1-1.9 12.7c-2 2.8-8 4.8-11.5 3.8zm3.1-38.8c2.7-2.5 3.8-3.8 3.1-3.8-.7 0-5 3.9-5.1 4.7-.2.5-.5 1-.8 1.2-.4.2-.5.4-.3.4s1.6-1.1 3.1-2.5zm-23.4 34.6c-.2-.2-.3-.3-.1-.3l.9.3c.2.2.3.3.1.3l-.9-.3zm30.1-17c-1.1-.4-1.1-2.9.1-4.3.5-.6.9-.9.9-.6 0 .2.1.3.3.2.6-.3 1.1 1 1 2.4l-.2 1.6c0 .2-.3.4-.6.4l-.6.3c0 .2-.4.2-.9 0zm-34.6-9c-.3-2.4-.4-4.5-.3-4.6.2-.1.3.3.3.9l.5 4c.3 1.7.4 3 .2 3.3-.2.4-.4-.8-.7-3.7zm-.7-9.3c0-1.3.1-2.5.3-2.6.4-.3.4 3.7 0 4.4-.2.4-.3-.2-.3-1.8zm.5-5c.2-3.1.9-6 1.5-6 .5 0 .5 0-.1 1.7a16 16 0 0 0-1 3.8l-.6 2.5zm9.3-1.8.6-.6c.6-.5.6-.5.2.1-.5.6-.8.8-.8.5zm-7-4.2c.1-.2.7-.7 1.3-1l1.1-.7-.3.8c-.3.8-2.3 1.7-2 .9zm6.6-3.4-.5-2.3c-.2-1.9 0-2.3.6-3.4 1.7-2.4 6-3.5 8.7-2.2 1.2.5 3.6 3.2 3.6 3.9 0 .6-2.3 2.4-3.6 2.9a62 62 0 0 1-8 1.4c-.4 0-.8-.1-.8-.3z" style="fill:#3c617c;stroke-width:.352778" transform="translate(-44.5 -173.2)"/>
  <path d="M91.8 242a6.4 6.4 0 0 1-3.1-2.6c-.4-.5-.5-.5-2 0s-7.6.7-9.7.2c-1-.2-.9-.3 1-.7 3.7-.8 4-1 3.9-1.8 0-.5-.2-1.1-.3-1.4a11 11 0 0 1 0-6.6l.5-2 1.1-3.3c.6-1.5 1.2-3.4 1.3-4.2 0-.7.6-3 1.1-4.9 1.4-5.1.6-6.3-2.8-4l-1.9 1c-.2 0-1.4.8-2.7 1.8-2.2 1.6-2 1.3 2-2.6 2.5-2.4 5.1-4.9 5.8-5.4l1.2-1-1.1-2.2c-.6-1-1.1-2.1-1.1-2.3 0-.2 1.1-.2 2.6 0l2.6.2 2.3-2.3c2.3-2.4 3.8-5.3 3.1-6-.2-.2-.5-.2-.9.2-.7.7-1.2.7-1.7-.2-.3-.6-.3-.7.1-.5.3.2.1-.2-.3-.8l-.8-1.4c0-.2-.2-.6-.5-.8-.4-.3-.5-.8-.4-1.2.1-.5-.3-.2-1.2.9l-1.4 1.6 1-1.9c.7-1 1.2-2.4 1.3-3.2l.2-1.4 1.6 1.8c.8 1 1.9 2.5 2.3 3.4.4.9 1 2 1.4 2.4.4.5.6 1.5.6 2.2 0 1-.3 1.6-2 3.5-1.3 1.3-2.1 2.5-2 2.7.2.6 1.6.7 1.6.1 0-.2.1-.2.3-.1.2.1.4 0 .4-.2s.1-.3.2-.3l1.8-.7 1.5-.6-3 3a18.4 18.4 0 0 0-3.2 3.8c-.1.4-.4.8-.5.8-.3 0-2.7 3.5-3 4.5-.5 1.2.7.2 1.9-1.6a44 44 0 0 1 9-8.5c.4 0-.7 1-2.2 2.4a25 25 0 0 0-7.3 9.5c-.2.8 0 .7 1-.4l1.1-1.4.1 5.8c.2 9 .1 10.7-.2 10.8-.2 0-.3.2-.2.4 0 .1 0 1.1-.4 2.2l-.5 2.4-.5 2.6c-.2 1.2-.4 3.2-.4 4.5 0 2.2 0 2.3 1.3 2.9.9.5 1.7.6 3.5.5 2.8-.2 4.6-1.2 5.5-2.8.5-1 .4-1.4-.7-1.8-.1 0 0-.8.4-1.7l.7-1.6-1-.4c-.6-.2-1-.6-1-1 0-.9 1.2-2.7 2.4-3.6 1-.8 1-.8 1.8 0 .5.5.6.8.4 1.5-.3.7-.2.9.3 1 .6.2.7.4.5 2-.5 4.7-1.2 5.8-4.9 7.6a11.4 11.4 0 0 1-7.8 1.2zM67 211.7c-.3-2.3-.4-4.4-.3-4.5.2-.1.3.3.3.9l.5 4c.3 1.7.4 3 .2 3.3-.2.4-.4-.8-.7-3.7zm-.7-9.2c0-1.3.1-2.5.3-2.6.4-.3.4 3.7 0 4.4-.2.4-.3-.2-.3-1.8zm34.5-2c0-.2.2-.5.4-.6.2-.1.3 0 .3.1 0 .2-.1.5-.3.6-.2.1-.4 0-.4-.1zm-34-3c.2-3.1.9-6 1.5-6 .5 0 .5 0-.1 1.7a16 16 0 0 0-1 3.8l-.6 2.5zm9.3-1.8.6-.6c.6-.5.6-.5.2.1-.5.6-.8.8-.8.5zm-7-4.2c.1-.2.7-.7 1.3-1l1.1-.7-.3.8c-.3.8-2.3 1.7-2 .9zm6.6-3.4-.5-2.3c-.2-1.9 0-2.3.6-3.4 1.7-2.4 6-3.5 8.7-2.2 1.2.5 3.6 3.2 3.6 3.9 0 .6-2.3 2.4-3.6 2.9a62 62 0 0 1-8 1.4c-.4 0-.8-.1-.8-.3z" style="fill:#385b75;stroke-width:.352778" transform="translate(-44.5 -173.2)"/>
  <path d="M93.7 242.1H95c.3.1 0 .2-.8.2s-1 0-.6-.2zm7.6-3.2c.7-1 1.3-2.1 1.3-2.4 0-.3.1-.4.3-.3.6.4.5 1.8-.2 2.6-.4.4-1 1-1.6 1.3-1 .6-1 .6.2-1.2zm-12.5.7c-.5-.7-.5-.8-2-.2-1 .3-2.7.5-5.2.5-2 0-3.2-.1-2.8-.2l2.5-.9c1.9-.7 2.5-1.5 2-2.2-.2-.2-.6-1.5-.8-3-.4-2-.4-2.6 0-2.8.2-.2.4-.8.5-1.5a53.3 53.3 0 0 0 2.3-8.5 9 9 0 0 0 .5-2.2c.6-4.3 1.3-5.8 2.5-5.8.6 0 1-.7 2-2.8a21 21 0 0 1 6-7.5c1.3-1 1.1-.7-.8 1.3a22 22 0 0 0-5.8 8.7c-.1.8 0 1 .3.9.4-.2.6.2.7 1.4l.4 2.8c.3 2 .3 5.1 0 7.7a156 156 0 0 1-1.5 12.5c-.2 2.5-.3 2.6-.8 1.8zm13.6-4.3a.6.6 0 0 1 0-.7c.3-.2.4 0 .4.4.1.8 0 .9-.4.3zM67 211.7c-.3-2.3-.4-4.4-.3-4.5.2-.1.3.3.3.9l.5 4c.3 1.7.4 3 .2 3.3-.2.4-.4-.8-.7-3.7zm15.6-3c3.9-3.7 4.6-4.5 4.3-5-1.2-1.9-2-3.7-2-3.8l2.7.2 2.5.2 2.5-2.6c1.4-1.4 2.7-3.1 3-3.8.5-1.4 1.2-1.8.8-.5-.3 1-.5 1.3-2.7 3.8-.9 1.1-1.9 2.5-2.2 3.1-.5 1-.7 1.2-2 1.2-1 0-1.4.1-1.4.5 0 .3.2.5.3.4.2-.1.5 0 .6.4.1.3.3.4.4.3.1-.1.5 0 .8.2.4.4.5.4.3 0-.2-.3 0-.4 1-.4 1.1 0 1.2 0 .8.7-.5.9-3.1 3.6-3.1 3.3l-.7.2-1.5.6a55 55 0 0 0-7.7 4.6c-.7.5.8-1.1 3.3-3.6zm-16.3-5.1c0-.7.1-1.5.3-1.8.3-.4.3-.2.3.7 0 .7-.1 1.5-.3 1.8-.2.4-.3.2-.3-.7zm.4-3.2c0-.5 0-.7.1-.4v.9l-.1-.5zm0-1.8c0-1.4.9-6.4 1.3-6.8.7-.6.7 0 .2 1.4-.3.8-.8 2.5-1 3.8-.3 1.4-.5 2.1-.5 1.6zm9.4-3 .6-.5c.6-.5.6-.5.2.1-.5.6-.8.8-.8.5zm-7-4.1c.1-.2.7-.7 1.3-1l1.1-.7-.3.8c-.3.8-2.3 1.7-2 .9zm6.6-3.4-.5-2.3c-.2-1.9 0-2.3.6-3.4 1.7-2.4 6-3.5 8.7-2.2 1.2.5 3.6 3.2 3.6 3.9 0 .6-2.3 2.4-3.6 2.9a62 62 0 0 1-8 1.4c-.4 0-.8-.1-.8-.3zm14.4-1.3c.5-1 .9-2 .9-2.6 0-.6 0-.8.3-.4l.2.9a9 9 0 0 1-1.7 3.3c-.3.3-.2-.2.3-1.2z" style="fill:#34546c;stroke-width:.352778" transform="translate(-44.5 -173.2)"/>
  <path d="M84.3 239.4c1.1-.6 1.4-1.6 1.1-4a34 34 0 0 1 1.4-13.8c.3-1 .7-2.6.7-3.4l.6-2.4.5-1.1.7 1.6c.7 1.4.8 2.2.7 6.5 0 4.5-.5 12-1 14.9-.2 1-.4 1.1-2.3 1.7-1 .3-2.3.5-2.7.5-.5 0-.5 0 .3-.5zM67.6 215c-.3-.5-1-7.1-.9-7.6a36.7 36.7 0 0 0 .8 4.6c.5 2.7.5 3.8 0 3zm17.2-8.2 2.4-2.5L86 202l-1.2-2.2 2.7.3c2.5.2 2.6.2 3.8-1 1.2-1.1 1.2-.6-.1.8-.6.6-1.1.8-2.8.8-2.3 0-2.4.2-1.4 2 1.4 2.1 1.2 2.5-1.9 4.6l-2.8 2zM66.3 204l.3-1.7c.3-.8.3-.8.3.3a4 4 0 0 1-.3 1.8c-.3.4-.3.3-.3-.4zm.4-3.5c0-.5 0-.7.1-.4v.9l-.1-.5zm.3-3.7c0-.4 0-.5.2-.2v.6c-.1.2-.2 0-.2-.4zm9.1-1 .6-.6c.6-.5.6-.5.2.1-.5.6-.8.8-.8.5zm-8.6-1.6c.3-2 .5-2.5.9-2.5s.4-.1-.4 2c-.6 1.4-.7 1.5-.5.5zm1.7-2.6c0-.2.6-.7 1.2-1l1.1-.7-.3.8c-.3.8-2.3 1.7-2 .9zm6.5-3.4-.5-2.3c-.2-1.9 0-2.3.6-3.4 1.7-2.4 6-3.5 8.7-2.2 1.2.5 3.6 3.2 3.6 3.9 0 .6-2.3 2.4-3.6 2.9a62 62 0 0 1-8 1.4c-.4 0-.8-.1-.8-.3zm14-.5c.3-.5.8-1.6 1-2.4.3-.9.6-1.2.6-.8a8 8 0 0 1-1.8 3.8c-.2.2-.1-.1.2-.6z" style="fill:#475356;stroke-width:.352778" transform="translate(-44.5 -173.2)"/>
  <path d="M84.3 239.4c1.1-.6 1.4-1.6 1.1-4a34 34 0 0 1 1.4-13.8c.3-1 .7-2.6.7-3.4l.6-2.4.5-1.1.7 1.6c.7 1.4.8 2.2.7 6.5 0 4.5-.5 12-1 14.9-.2 1-.4 1.1-2.3 1.7-1 .3-2.3.5-2.7.5-.5 0-.5 0 .3-.5zm.5-32.6 2.4-2.5L86 202l-1.2-2.2 2.7.3c2.5.2 2.6.2 3.8-1 1.2-1.1 1.2-.6-.1.8-.6.6-1.1.8-2.8.8-2.3 0-2.4.2-1.4 2 1.4 2.1 1.2 2.5-1.9 4.6l-2.8 2zM67.7 193c0-.6.6-1.6.8-1.4 0 0 0 .6-.3 1-.3.6-.5.7-.5.4zm1.7-1.7c0-.2.4-.5 1-.7.5-.2.7-.3.6 0-.3.4-1.6 1-1.6.7zm6.2-3.7c-.3-1.5-.2-3.8.4-4.7.7-1 2.6-2.2 3.7-2.2.8 0 4.6 2 4.8 2.5l.6.3c.5 0 2 1.4 2 1.9 0 .6-4 2-7.4 2.5l-3.7.5-.4-.8zm15.4-3c0-.5 0-.7.2-.5v.9c-.1.2-.2 0-.2-.5z" style="fill:#2e4455;stroke-width:.352778" transform="translate(-44.5 -173.2)"/>
  <path d="M87 232.6c0-5 0-7.1.5-8.7.3-1.2.7-3.4.8-5 0-1.4.2-2.8.3-2.9.1 0 .5.4.8 1.2.5 1.2.5 2.2.3 7a52 52 0 0 1-1.6 14.7c-1.1.7-1.2.3-1.2-6.3zM85.5 206c.8-.8 1.5-1.4 1.6-1.3.2.1-.5.8-1.4 1.5l-1.7 1.4zm-.3-5.2c-.4-.7-.3-.7 1.1-.7.9 0 1.2.1.8.2-.3.1-.8.4-1 .7-.4.5-.5.4-.9-.2zm4.2-.3h.6c.2.2 0 .3-.4.2-.4 0-.5 0-.2-.2zM68 192c0-.1.2-.3.4-.3s.3.2.1.3c0 .2-.2.4-.3.4l-.2-.4zm1.8-.8c0-.1.3-.4.8-.6.7-.4.7-.4.3.2-.5.5-1.1.7-1.1.4zm5.8-3.5-.2-2a4 4 0 0 1 3.6-3.8 12 12 0 0 1 5.9 2.3c.2.2.7.5 1.1.6 2.3.7-1 2.4-6.3 3.2l-3.7.5-.4-.8z" style="fill:#273c4c;stroke-width:.352778" transform="translate(-44.5 -173.2)"/>
  <path d="M87.8 232.6c0-3.4.2-7.6.5-9.3.2-1.6.4-4 .3-5 0-2 0-2.1.4-1.5 1 1.2 1 3.7.4 11.8-.7 8.8-.9 10.3-1.3 10.3-.2 0-.3-2.9-.3-6.3zM85 200.4c-.1-.2.4-.3 1-.3l1.3.1c0 .3-2.1.4-2.3.2zM75.6 187c-.2-1.3.4-3.4 1-3 .1 0 .2-.1.2-.4 0-.3.2-.6.5-.6l2.3-.2c1.3-.1 1.8 0 1.8.3 0 .2.1.3.2.2.2-.1.7 0 1.3.3l1.3.6.6.3 1 .8c.7.4.6.5-.5 1-1 .6-7.4 2-9 2-.3 0-.5-.6-.7-1.3z" style="fill:#1b3346;stroke-width:.352778" transform="translate(-44.5 -173.2)"/>
  <path d="M88.6 234.5c0-.8 0-1.1.1-.7v1.5l-.1-.8zm.2-5.9.2-8c0-2.3.1-3.4.3-3 .4.7 0 12.9-.4 14.4-.2.7-.2-.5-.1-3.4zm-13.2-41.5c-.2-1.3.4-3.4 1-3 .1 0 .2-.1.2-.4 0-.3.2-.6.5-.6l2.3-.2c1.3-.1 1.8 0 1.8.3 0 .2.1.3.2.2.2-.1.7 0 1.3.3l1.3.6.6.3 1 .8c.7.4.6.5-.5 1-1 .6-7.4 2-9 2-.3 0-.5-.6-.7-1.3z" style="fill:#283135;stroke-width:.352778" transform="translate(-44.5 -173.2)"/>
  <path d="M88.6 234.5c0-.8 0-1.1.1-.7v1.5l-.1-.8zm.2-5.9.2-8c0-2.3.1-3.4.3-3 .4.7 0 12.9-.4 14.4-.2.7-.2-.5-.1-3.4zM75.9 188l.4-1c.2-.4.5-.7.9-.7l.8-.2c.3-.4 3.8-.4 3.8 0l1 .4c1.6.3.9.7-2.4 1.2l-3.7.6c-.8.1-1 0-.8-.3zm3.8-2.6c0-.2 1-.5 1.2-.2 0 .1-.2.3-.6.3h-.6z" style="fill:#182632;stroke-width:.352778" transform="translate(-44.5 -173.2)"/>
</svg>