<svg xmlns="http://www.w3.org/2000/svg" width="277.3" height="277.3" viewBox="0 0 73.4 73.4">
  <path d="M44.7 210.2v-36.7H118v73.3H44.7Z" style="fill:#fefefe;stroke-width:.352778" transform="translate(-44.5 -173.2)"/>
  <path d="M76 245.6c-1.5-1.4-1.5 0 .2-12.3l1.2-8-2-1.5c-3.8-2.9-10-7.3-10-7.2l-1.1 5.9c-1 5.5-1 5.9-2 6.7-2 1.7-2.7 2-3.8 1.4-1.7-1-1.7-1-1-11.8.7-11 1-12.8 2.3-12.6.5 0 .7 0 .5-.4-.3-.9 1.2-2 5.8-4.6a46 46 0 0 0 5.2-3.2c1-1 1-.8 2.2-13.4 0-1 .2-2.1.3-2.5l.3-3c.3-2.8.7-3.9 1.5-3.9.5 0 .5 0 .2-.3-.4-.2 0-.5 1.5-1l2.1-.5 4.6 1.5a65.6 65.6 0 0 1 19.6 9.7c.5 1 .3 2.7-2.2 15.7-1.7 8.9-2 14.8-1.4 22.7l.5 5-1.3 1.1c-1.1 1-1.5 1-2.1.8-2-1.1-2.4-1.7-4.3-8.5l-.6-2-1.4 1a40 40 0 0 0-2.9 2.2l-1.4 1.2-2.5 10-2.5 10-1.8 1.5c-1 .9-2 1.5-2.2 1.5-.1 0-.8-.5-1.5-1.2zm16.8-39.4.5-2.7.3-1.9-2.5-1.8a50.1 50.1 0 0 0-9.1-5.5l-2.3-1-.2 1.6c-.2.9-.3 2.3-.3 3v1.5l6.5 3.8 6.7 3.8.4-.8zm6.5-15c0-.4-.1-.4-.3 0l-.3 1.5c0 .6 0 .5.3-.2l.3-1.4zm-.3-5.5-.8-.8.6.9c.3.5.6 1.5.6 2.3v1.4l.2-1.5c.1-1.3 0-1.7-.6-2.3z" style="fill:#efd8a6;stroke-width:.352778" transform="translate(-44.5 -173.2)"/>
  <path d="m76.1 245.6-1.3-1.2.3-2c.8-5.9 2.4-17.2 2.3-17.3-.4-.4-11.8-8.6-12-8.6l-1.1 5.7c-.5 3.1-1 5.9-1.2 6.2-.2.5-3.2 2.6-3.8 2.6-.2 0-.8-.4-1.4-.9-.9-.9-.9-1-.7-4.3.7-11.3 1.3-18 1.6-18.3.3-.4.8-.5 1.6-.3 1.3.2 2-.7 1-1.6-.5-.6-.4-.7.1-1.1a77 77 0 0 1 7-4.4c3.5-2 3.8-2.5 4.2-6.5l.7-5.4c.3-1.6.4-3 .3-3.2l.2-2a27.2 27.2 0 0 0 .8-5l.3-1.6c0-.8 0-.8.5-.3.7.6.7 1.4.1 1-.2-.1-.2 0 .2.5.3.3.5.8.4 1-.1.3 0 .5.1.5.5 0 .5-3.6 0-4-.4-.6-.3-.6 2-1.2 1.1-.3 2-.1 7 1.5a64.8 64.8 0 0 1 18 9l.8 1-.8 4.4-2 10.8a67 67 0 0 0-1.5 20.7l.5 6.7-1 1c-1.4 1.1-1.9 1.1-3.3 0-1-.7-1.3-1.4-2.3-4.8-.6-2.2-1.2-4.2-1.4-4.4-.2-.4-1 .1-3 1.7l-2.9 2.1-1.8 7.8c-2.8 11.8-3 12.2-4.7 13.7-2.3 1.9-2.3 1.9-3.8.5zm7.7-24.6c.6-.5 1-1 1-1.2l1.4-1.4 1.3-1.2-1.6 1-2.4 1.5c-.7.6-.9.6-1.6.2-.4-.3-1-.4-1.3-.3-.6.2-.6.4-.1 1.1 1 1.7 1.2 2.5 1 3.1-.1.4.1 0 .5-.6.4-.7 1.2-1.7 1.8-2.2zm-10.6-8c0-.2-.1-.4-.3-.4-.2 0-.3.2-.2.4.1.2.3.3.4.3l.1-.3zm-3.3-5c-.3-.4-.9 0-.9.4 0 .2.2.2.5.1.3 0 .5-.3.4-.5zm-2.1-.7c-.2-.2-.4-.3-.6 0-.2.2-.3.5-.1.7.1.3.3.3.6.1.2-.2.2-.5 0-.8zm1.6-.4c0-.1-.4-.3-.7-.3-.7 0-1 .4-.5.8.2.3 1.2 0 1.2-.5zm23.7-1.7.5-2.8c.1-.8-.1-1.1-3.1-3.2-3-2.2-7.5-4.7-10-5.6-.8-.3-1-.3-1 .4a17 17 0 0 0-.2 3.2l.1 2.4 6.5 3.8c3.6 2.1 6.7 3.8 6.8 3.7l.4-2zm-25.5 1.3c.5-.3.7-.6.5-.6l-1.2.6c-.5.2-.7.5-.5.5l1.2-.5zm-2-1.2-.6.2c-.3.4-.3.4.2.2.4-.1.6-.3.5-.4zm1.4.4c.5-.2.5-.3 0-.7-.6-.6-1-.6-.5 0 .3.4.3.5 0 .7-.3 0-.4.2-.3.2.2 0 .5 0 .8-.2zm7.1-4c.1-.2 0-.4-.1-.4-.2 0-.4.2-.4.4s0 .3.2.3l.3-.3zm24-4.1c2.2-10.7 2.3-11.5.4-12.7-1-.7-1.6-.4-1.4.6.2.5.3.6.5.3.2-.4.4-.4.9 0 .4.4.5 1 .4 2.6A105.6 105.6 0 0 1 97 202c.1 0 .6-2 1-4.3zM88 192.9c-.7-.8-.5-1 .5-.4.5.3.7.2.7-.2l.2-2c.2-1 .1-1.5-.4-2-.7-.8-.7-.8.2-.4.7.4.8.4.7-.2-.2-.8-.8-1.5-1.1-1.3l-.9-.5a4.7 4.7 0 0 0-2.6-1.3l-.8-.2h-1.1c-.7 0-.6 0 .2.7s.8.8 0 .6c-.6-.1-.7 0-.9 1.1-.2 1.7 0 2.5.6 3 .4.4.5.6.2.9-.2.2 0 .4.8.6a7 7 0 0 1 2.6 1.3c1.6 1.2 2 1.2 1 .3zm13.9-7.5c0-.4-.1-.6-.6-.6-.9 0-1.6.5-1.3 1 .3.6 1.7.3 1.9-.4zm-25.5-5c-.1-.2-.2 0-.2.5s.1.7.2.4v-.9z" style="fill:#ebcf8b;stroke-width:.352778" transform="translate(-44.5 -173.2)"/>
  <path d="m76.1 245.6-1.3-1.2.3-2c.8-5.9 2.4-17.2 2.3-17.3-.4-.4-11.8-8.6-12-8.6l-1.1 5.7c-.5 3.1-1 5.9-1.2 6.2-.2.5-3.2 2.6-3.8 2.6-.2 0-.8-.4-1.4-1-.9-.8-1-.9-.7-3.5l.5-9c.5-7 .9-9.6 1.7-10.2.4-.4.6-.4.7 0 0 .2.3.4.5.4a36.2 36.2 0 0 0 5.6-4c.3 0 .3-.2.1-.3-.2-.2-1.2.3-2.2 1-2.2 1.3-3.1 1.5-1.8.4.5-.4.8-.9.8-1 0-.3.1-.3.4-.2.4.1.5 0 .4-.1-.2-.3 3.4-2.9 4-2.9.2 0 .4-.1.4-.3 0-.2.1-.3.3-.3.4.1 2.9-1.2 3.1-1.6.2-.2 0-.2-.3 0-.2 0-.2 0 .2-.3.5-.5 1.3-4 1.8-8.2.2-1.4.7-1.9 1.4-1.6.7.3.7.3-.1.3-.9 0-.9.1-.3.5.3.3.6.7.6.9 0 .2.2.4.4.4s.3-.5.3-1l.2-2.7c.1-1 0-1.5-.1-1.1-.3.6-.3.6-1.1 0-.5-.4-.8-1-.7-1.3.1-.5.2-.5 1-.1 1.2.6 1.4.3 1.4-2.4 0-1.6-.1-2-.7-2.1a3 3 0 0 1-1.1-.8c-.4-.5-.3-.5.7 0 .7.3 1.2.6 1.3.5l.3-2.1c.2-1.7.1-2-.4-2.4-.7-.4-.6-.4 1.8-1 1.1-.3 2-.1 7 1.5a64.8 64.8 0 0 1 18 9l.8 1-.8 4.4-2 10.8a67 67 0 0 0-1.5 20.7l.5 6.7-1 1c-1.4 1.1-1.9 1.1-3.3 0-1-.7-1.3-1.4-2.3-4.8-.6-2.2-1.2-4.2-1.4-4.4-.2-.4-1 .1-3 1.7l-2.9 2.1-1.8 7.8c-2.8 11.8-3 12.2-4.7 13.7-2.3 1.9-2.3 1.9-3.8.5zm6-22.3c.3-.8 1.1-1.8 1.7-2.3.6-.5 1-1 1-1.2 0-.2.9-1 1.9-1.7 3.5-2.7 2.4-2.4-1.6.4-2.3 1.5-2.3 1.6-3.5 1-1.1-.4-1.3-.4-1.7 0-.3.5-.2.7.4 1.5.5.5.8 1.2.8 1.5 0 .4 0 .7.3.7.4 0 .4.1 0 .4l-.4.7c0 .6.4.3 1-1zm1.5-8.1c2-1.4 2.9-2.2 2-1.7l-1.6 1c-.8.6-1 .6-1.6.3-.4-.2-.9-.3-1-.2-.2 0-.3 0-.2-.4.2-.4 0-.5-.6-.5-.7 0-.7 0-.2-.7.5-.5.6-.7.1-.8-.2-.1-.8 0-1.2.3-.8.5-.8.5-.6-.4l.1-1-1.3.8-1.3.8 1-.9c1-.8 1-.9.3-1.5-.4-.3-.9-.4-1.1-.3-.3.2-.4.1-.2 0 .3-.6-1-1.6-1.5-1.2-.4.4-.5.2-.3-.2l-.7-.7c-.6-.5-1-.5-1.6-.2-.7.4-.7.3-.4 0 .6-.7.6-1.2 0-1-.3.2-.5 0-.4-.2.1-.2-.5-.8-1.4-1.3l-1.6-1c0-.2 1.5-1.1 3.4-2.1l3.3-2c0-.2-.5 0-6 3a32.8 32.8 0 0 0-5.1 3.3l-.4.5c.2-.1.6 0 .9.4a40 40 0 0 0 4.3 3 90.8 90.8 0 0 1 4.8 3.3l1.6.9c.4.2 1 .6 1 .9.3.2.7.3 1.1.2.6-.1.7-.1.3.2-.5.3-.4.3.1.6.3 0 .8 0 1-.2.6-.6 1.2-.5.7.1-.4.4-.3.5.3.3.4-.1.7 0 .7.2 0 .5.8.1 3.3-1.6zm-8.6-1.6.6-.7c.6-.4.6-.4.2.2-.5.6-.8.7-.8.5zm7-.3c0-.2-.2-.3-.5-.3s-.4.1-.3.3l.5.4c.2 0 .4-.2.4-.4zm6.4-1.6c0-.3-1.3.5-1.8 1.2-.3.4-.1.3.7-.2l1.1-1zm4.7-6.5.5-2.8c.1-.8-.1-1.1-3.1-3.2-3-2.2-7.5-4.7-10-5.6-.8-.3-1-.3-1 .4a17 17 0 0 0-.2 3.2l.1 2.4 6.5 3.8c3.6 2.1 6.7 3.8 6.8 3.7l.4-2zm5-7.2c2-9.7 2-10.7 1.5-11.7s-2.2-2.2-2.6-1.8a74.4 74.4 0 0 1-.7 3c-.2 1.3-.1 1.3 1.4 2 1 .4 1.3.7 1 .8-.5.2-.6 1-.7 3.5 0 1.7-.3 3.3-.5 3.6-.2.2-.2.5-.1.7.1.2 0 .7-.1 1-.2.4-.4 1.8-.5 3.3-.3 3.2 0 2.3 1.3-4.4zm-.5-9c-.3-.2-.4-.4-.2-.4s.1-.1-.2-.3c-.4-.3-.3-.4.3-.2s.8 0 .8-.3-.2-.6-.4-.6a.4.4 0 0 1-.3-.3c0-.3.2-.3.7 0 .8.4.9.8.2 1.5-.3.3-.4.6-.3.7.3.4 0 .3-.6-.1zm-21.7 13.4c.1-.2.2-.5 0-.6-.2-.2-1.2.3-1.2.6 0 .5 1 .4 1.2 0zm-.9-.9.9-.5h-1c-.4 0-1 .2-1.3.5-.6.7.2.7 1.4 0zm19.7-2.3c0-.3 0-.3-.3.2-.4 1-.4 1.5 0 .9.2-.3.3-.8.3-1zm.2-1c.1-.2 0-.4-.1-.6-.2 0-.4 0-.4.4 0 .6.2.7.5.2zm.7-1.5a.7.7 0 0 0-.5-.3c-.2 0-.3.1-.3.3 0 .2.2.3.5.3s.4-.1.3-.3zm-8.6-3.5c-.7-.5-1.4-.9-1.6-.8-.2.2 0 .3.2.4l1.2.8 1 .7c.3 0-.1-.5-.8-1zm-11.8-.4-.1.4c0 .5 0 .7.1.5v-1zm13.2.6c-.3-.4-.3-.5.1-.5.6 0 1.3-1.7 1.3-3.1 0-.5-.3-1.1-.6-1.4-.6-.4-.5-.4.2-.2s.8 0 .7-1c0-.9-.3-1.2-1.3-1.6-1.7-.7-1.2-1 .6-.3 1.4.5 1.5.5 1.4-.3 0-.4-.2-.9-.4-1-.2-.2-.4-.6-.4-1 0-.3-.2-.5-.4-.4-.3 0-.8-.3-1.3-.7-.4-.3-1.3-.8-2-1l-1.7-.8c-.2-.2-.5-.3-.7-.2-.3.4.7 1.3 1.3 1.3.4 0 1 .3 1.3.7.3.4 1 .7 1.3.7 1 0 1.9 1 1.4 1.5-.3.3-.4.3-.4 0 0-.2-1-.7-2.1-1.2-1.2-.4-2.2-1-2.2-1.2 0-.6-1-1-1.5-.5-.2.2-.3.4-.2.5l1.5 1.1c1.4 1 1.6 1.7.2.8-1-.8-1.2-.8-1.7.2-.3.8-.2 1 .4 1.4l.8.6-.8-.2c-.6-.2-.8 0-.8.6-.1 2.3 0 3.2.4 3.7.3.4.3.5 0 .5-.5 0-.4 0 0 .3.3.2.5.6.5.8 0 .3.3.5.7.6.4 0 .5 0 .3-.1-.3-.2-.5-.4-.5-.6 0-.5 2.4.6 3.6 1.6 1.2 1 1.7 1.2 1 .4zm-2.5-9c0-.2.2-.3.4-.2l.4.4-.4.2a.4.4 0 0 1-.4-.4zm.6-2.8c-.1-.2 0-.4.1-.4.2 0 .5.2.6.4.1.2 0 .3-.2.3-.1 0-.4-.1-.5-.3zm10 8.5c0-.2-.1-.4-.3-.4-.2 0-.4.4-.4.8 0 .5 0 1.2-.2 1.5 0 .4 0 .2.4-.4.3-.5.5-1.2.5-1.5zm-21.2 1c-.2-.3-.2-.3-.3.2 0 .3.1.5.2.4.1-.1.2-.4 0-.7zm26.5-5.7c0-.4-.1-.6-.6-.6-.9 0-1.6.5-1.3 1 .3.6 1.7.3 1.9-.4zm-6.2-2c-.3-.5-.7-.8-1-.8 0 0-.9-.4-1.7-1-2-1.4-7.7-4-10.8-5-2.8-.9-3.5-1.4-1.7-1.4.8 0 1 0 .7-.4-.6-.5-3.4.5-3.6 1.3 0 .6 0 .6.4.3 1.1-.9 14.6 4.8 17.2 7.3 1 1 1.5.7.5-.4zm2.9-.8c0-.2 0-.2-.4-.1-.6.2-.7.5-.2.5.2 0 .4-.2.6-.4zM74.3 187c-.3-.2-.4-.4-.3-.5.3-.3 1.4.1 1.4.5s-.4.4-1 0z" style="fill:#dbc28a;stroke-width:.352778" transform="translate(-44.5 -173.2)"/>
  <path d="M76 245.6c-.7-.7-1.3-1.4-1.2-1.6l1.1-7.3c.5-3.8 1-8 1.3-9.2.1-1.3.2-2.4 0-2.5-.7-.7-11.2-8.2-11.5-8.4-.3 0-.8 1.8-1.4 5.6-.5 3.1-1 5.9-1.2 6.2-.2.5-3.2 2.6-3.8 2.6-.2 0-.7-.3-1.2-.7-.8-.6-.9-.9-.8-3.6.1-4.6 1.1-17.5 1.4-18.2.4-1.2.8-1.5 1.5-1.1.5.3 1 0 2.8-1.3a46 46 0 0 0 3.3-2.7c-.2-.2-1.2.3-2.2 1-2.2 1.3-3.1 1.5-1.8.4.5-.4.8-.9.8-1 0-.3.1-.3.4-.2.4.1.5 0 .4-.1-.2-.4 2.1-2 5.5-3.7 2.4-1.2 3-2.1 3.3-5.2a103.4 103.4 0 0 1 .7-5c.1-1 .7-1.6 1.4-1.3.7.3.7.3-.1.3-.9 0-.9.1-.3.5.3.3.6.7.6.9 0 .2.2.4.4.4s.3-.5.3-1l.2-2.7c.1-1 0-1.5-.1-1.1-.3.6-.3.6-1.1 0-.5-.4-.8-1-.7-1.3.1-.5.2-.5 1-.1 1.2.6 1.4.3 1.4-2.4 0-1.7 0-2-1-2.3-.4-.2-.7-.5-.6-.6l1 .2c.3.2.7.4.8.3l.3-2.1c.2-1.7.1-2-.4-2.4-.4-.2-.2-.4 1.3-.8l1.8-.6 5.6 2c7 2.3 16.8 7.1 18.1 9l.8 1-.8 4.3-2 10.8a67 67 0 0 0-1.5 20.7l.5 6.7-1 1c-1.4 1.1-1.9 1.1-3.3 0-1-.7-1.3-1.4-2.3-4.8-.6-2.2-1.2-4.2-1.4-4.4-.2-.4-1 .1-3 1.7l-2.9 2.1-1.8 7.8c-2.8 11.8-3 12.2-4.7 13.7-2.3 1.9-2.3 1.9-3.8.5zm6-22.3c.4-.8 1.2-1.8 1.8-2.2.6-.5 1.1-1.1 1.2-1.5.1-.5.4-.6.8-.5.3.1.5 0 .4 0-.1-.2.6-1 1.5-1.7l2-1.6c.3-.5-4 2-5.6 3.2-1.3 1-1.3 1-2.4.5-1-.5-1.2-.5-1.7 0s-.3 2.1.3 1.8c.5-.4 1 2.2.7 3.2l-.3 1.5c0 .3.1.2.3-.3l1-2.4zm1.7-8.1c1.9-1.4 2.8-2.2 1.9-1.7l-1.5 1c-.9.6-1.1.6-1.9.2-.5-.2-.8-.6-.8-.7 0-.2-.4-.3-.8-.3-.7 0-.7 0-.2-.7.8-.8.2-1.2-1-.7-.7.2-.8.2-.7-.4.2-.7.1-.7-.7-.2-.5.3-.9.4-.9.2s.3-.4.6-.6c.5-.1.4-.3-.1-.8-.3-.4-.8-.6-1-.5-.4 0-.5 0-.4-.1.1-.2-.1-.6-.5-.9-.4-.4-.7-.4-1-.2-.4.4-.5.2-.3-.2l-.7-.7c-.6-.5-1-.5-1.6-.2-.7.4-.7.3-.4 0 .6-.7.6-1.2 0-1-.3.2-.5 0-.4-.2.1-.2-.5-.8-1.4-1.3a6 6 0 0 1-1.6-1c0-.2 1-.8 2.2-1.5l2.2-1.3 1.2.9c1.4.9 2.2 1 2.2.4 0-.2.2-.3.5-.2.2.1.5 0 .6-.3.3-.6 0-.9-1-.9-.5 0-.6 0-.1-.3.4-.3.4-.4-.3-.4-.4 0-.8-.1-.8-.3a55.2 55.2 0 0 0-11.5 6.6c.2-.1.6 0 .9.4a40 40 0 0 0 4.3 3 90.8 90.8 0 0 1 4.8 3.3l1.6.9c.4.2 1 .6 1 .9.3.2.7.3 1.1.2.6-.1.7-.1.3.2-.5.3-.4.3.1.6.3 0 .8 0 1-.2.6-.6 1.2-.5.7.1-.4.4-.3.5.3.3.4-.1.7 0 .7.2 0 .5 1 0 3.4-1.6zm-8.7-1.6.6-.7c.6-.4.6-.4.2.2-.5.6-.8.7-.8.5zm7-.3c0-.2-.2-.3-.5-.3s-.4.1-.3.3l.5.4c.2 0 .4-.2.4-.4zm8.3-3.1c-.1-.1-.3 0-.4.2 0 .3-.3.5-.5.5a6 6 0 0 0-1.9 1.2c-1.4 1.2-1.3 1.2.8-.2 1.3-.8 2.2-1.6 2-1.7zm-1.2.3c.2 0 .4-.3.4-.7 0-.8-.3-.9-1.4-.1-.8.5-.7 1.3.2 1l.8-.2zm-1.4-1c.5-.4.7-.7.4-.7-.2 0-.3-.2-.2-.4.1-.2-.3-.2-.9.1-1 .6-1.3 1-.8 1.4.3.4.5.3 1.5-.4zm5.4-3.7.4-2.9.3-1.4-3.3-2.3a55 55 0 0 0-10-5.6c-.8-.3-1-.3-1 .4a17 17 0 0 0-.2 3.2l.1 2.4 6.5 3.9 6.8 3.8c.1 0 .3-.6.4-1.5zm5.5-10.2 1.5-8.3c0-1.4-3-3.9-3.3-2.6l-.1 1c-.7 3.2-.7 3 1 3.8.9.4 1.3.7 1 .8-.5 0-.6.4-.5 1.3.2 1 .2 1-.5.6-.5-.4-.5-.4-.2 0 .2.2.4 1.3.4 2.3 0 1-.2 2-.4 2.3a5 5 0 0 0-.5 1.7c0 .7 0 2.5-.2 4-.3 3.7 0 2.5 1.8-7zm-1.1-7c-.6-.7-.6-.7 0-.5.6.2.8 0 .8-.3s-.2-.6-.4-.6a.4.4 0 0 1-.3-.3c0-.3.2-.3.7 0 .8.4.9.8.2 1.5-.3.3-.4.6-.3.7.1.1.1.2 0 .2l-.7-.7zm-2.7 11c0-1-.5-.8-.6.3 0 .4 0 .7.2.7s.4-.4.4-1zm1.7-1-.5.5c-.2.5-.1.6.2.2.3-.2.4-.5.3-.6zm-1.2-.6c-.2-.3-.4-.5-.6-.5-.5 0-.3 1 .2 1.1.5.2.6.1.4-.6zm.5-1.2c-.7-.5-1-.5-1 0 0 .1.3.3.8.3.6 0 .7 0 .2-.3zm-6.4-4.7c.3-1.2.5-3 .6-4 .1-1.8 0-2-.8-2.4-1.1-.7-1-.7.5-.3 1 .3 1.1.3 1-.5 0-.5-.2-1-.5-1-.3-.2-.4-.3 0-.7.3-.4.1-.6-.9-1-.7-.1-1.2-.4-1.2-.6 0-.2-.8-.6-1.6-.7l-1.2-.5c-1.5-.8-2-.7-1.3.1.4.4.8.7 1 .7.3 0 .9.3 1.4.7.5.4 1.2.7 1.5.7.6 0 1.8 1 1.5 1.3-.2.2-4.9-2-4.9-2.3 0-.5-1.1-.8-1.5-.4-.3.3 0 .7.8 1.5.9.7 1 1 .4.6-1.4-.7-1.7.2-2 5.4-.1 3 .2 3.7 2.6 5l.7.4c-.4 0-.6 0-.4.2.1.2.4.3.7.2.3-.1 1 0 1.5.3 1.2.7 1.6.2 2.1-2.7zm-3-10.5c0-.2 0-.4.2-.4s.5.2.6.4c.1.2 0 .3-.2.3-.1 0-.4-.1-.5-.3zm-11.2 11.2-.1.4c0 .5 0 .7.1.5v-1zm21.9-1.6c.6.3.6.3 0-.2-.3-.3-.6-.7-.6-.9 0-.2-.1-.4-.3-.4-.2 0-.4.4-.4.8 0 .5 0 1.2-.2 1.5 0 .4 0 .3.3-.2.4-.8.6-1 1.2-.6zm-21.8-.2c-.2-.2-.2-.2-.3.3 0 .3.1.5.2.4.1-.1.2-.4 0-.7zm26.5-5.3c.4-.5.2-1-.7-1-.8 0-1.5.6-1.2 1 .3.6 1.4.6 1.9 0zm-6.3-2.5c-.5-.5-1-.8-1.1-.7-.2.1-.3 0-.3-.2s-.3-.4-.5-.4c-.3 0-.8-.4-1.3-.8a5.3 5.3 0 0 0-2-1.3l-4-1.6c-1.3-.7-3-1.3-3.6-1.4l-2.4-.8-1.2-.6 1.1-.1c.6 0 1.2-.3 1.2-.5s-.4-.3-1-.2c-1.8.4-3 1-3 1.5s.2.5.5.3c1.1-.9 14.7 4.9 17.2 7.3 1.1 1 1.5.6.4-.5zm2.8-.4c1.1-.6.2-.6-1.2 0-.9.4-1 .5-.4.5.4 0 1.1-.2 1.6-.5zm-24 4c-.3 0-.4-.3-.3-.4.3-.3 1.4.1 1.4.5s-.4.4-1 0z" style="fill:#e1c27d;stroke-width:.352778" transform="translate(-44.5 -173.2)"/>
  <path d="M76 245.6c-.7-.7-1.3-1.4-1.2-1.6l1.1-7.3c.5-3.8 1-8 1.3-9.2.1-1.3.2-2.4 0-2.5-.7-.7-11.2-8.2-11.5-8.4-.3 0-.8 1.8-1.4 5.6-.5 3.1-1 5.9-1.2 6.2-.2.5-3.2 2.6-3.8 2.6-.2 0-.7-.3-1.2-.7-1-.8-1-1-.4-11.9.6-9.6 1.2-12.1 2.6-10.8.2.3.8 0 2-1l3.1-2.2c1.5-.8 1.6-1.6.2-1-.6.1-.6 0 0-.5.7-.5.7-.5.1-.3-1.5.4.4-1 3-2.3l3-1.8c.4-.6.8-1.8 1-4.2.2-.9.4-1.9.6-2.2.4-.7 1.7-.9 1.7-.2.1.8.7-2 .9-4.3l.5-4.8c.3-2.5 0-3.3-.9-3.3a.9.9 0 0 1-.7-.4c-.1-.2.1-.2.7 0l1 .4c.4 0 .5-4.1.2-4.5-.3-.3-.2-.5.1-.6l1.6-.5c2.8-1 22.7 7.5 25 10.6l.7 1-.8 4.3-2 10.8a67 67 0 0 0-1.5 20.7l.5 6.7-1 1c-1.4 1.1-1.9 1.1-3.3 0-1-.7-1.3-1.4-2.3-4.8-.6-2.2-1.2-4.2-1.4-4.4-.2-.4-1 .1-3 1.7l-2.9 2.1-1.8 7.8c-2.8 11.8-3 12.2-4.7 13.7-2.3 1.9-2.3 1.9-3.8.5zm6-22.3c.4-.8 1.2-1.8 1.8-2.2.6-.5 1.1-1.1 1.2-1.5.1-.5.4-.6.8-.5.3.1.5 0 .4 0-.1-.2 1.4-1.6 3.4-3.2 2-1.5 4-3.1 4.3-3.6.3-.4-.6.1-2.1 1.3a53 53 0 0 1-5 3.6 18 18 0 0 0-3.1 2c-.4.5-.9.8-1 .8-.3 0 0-.5.7-1 1.3-1.3 1.4-1.6.4-1-.4.1-.7.4-.7.6l-.7.7c-.7.4-.8.4-.6-.1.2-.4 0-.5-.4-.3-.5.2-.5.1.1-.6.4-.4.8-.6 1-.5.1 0 1-.3 1.7-.9 1-.8 1.3-1 .9-1.2-.3-.1-.5 0-.5.2s-.2.4-.7.5c-1 0-3 1.6-3.8 2.8-.6.8-.4 2.4.2 2 .5-.3.8 1.5.6 3.5v1l1.1-2.4zm.8-6.2c0-.1.2-.3.5-.4.3-.1.5 0 .4.2-.3.3-1 .5-1 .2zm-2.5.1c.4 0 10.1-6.5 11-7.3.9-1-1 .1-4 2.2-1.5 1-3 2-3.3 2l-2.6-1.5a9.6 9.6 0 0 0-2.7-1.4c-.4 0-.5 0-.4-.2.3-.3-1.4-1.8-2.7-2.3-.5-.2-1-.5-1-.7l-.9-.5c-.5 0-1.3-.6-1.8-1a9.5 9.5 0 0 0-2-1.5c-.7-.4-1.2-.8-1.1-1 0-.2 1-.8 2-1.4l1.8-1 2 1.1c2.3 1.2 2.5 1.3 2.5.7 0-.2-.1-.3-.3-.1-.2 0-.4 0-.6-.2-.3-.6 0-.8.9-.4.5.3.8.3 1 0 0-.2 0-.3-.3-.2-.3 0-.5-.2-.4-.5 0-.5-.1-.7-.9-.7-.7 0-.8 0-.4-.3s.3-.4-.3-.4c-.7 0-.8 0-.4-.5.7-.9 0-.6-3.7 1.5l-5.4 3c-1 .5-2 1.3-2.4 1.6-.5.7-.5.8 2.2 2.5l10.8 7.3c.5.5 1.2.7 1.5.6.2 0 .7.2 1 .6.2.4.4.6.5.4 0-.2.3-.4.4-.4zm8.8-6.7c.2 0 .4-.3.4-.7 0-.8-.3-.9-1.4-.1-.8.5-.7 1.3.2 1l.8-.2zm-1.4-1c.5-.4.7-.7.4-.7-.2 0-.3-.2-.2-.4.1-.2-.3-.2-.9.1-1 .6-1.3 1-.8 1.4.3.4.5.3 1.5-.4zm5.6-4.7c.2-1.4.5-2.6.8-2.7.5-.2-6.5-5-9.7-6.7-4.4-2.2-4.8-2.3-5-1.4a17 17 0 0 0 0 3.2v2.4l6.5 3.9 6.8 3.8s.4-1.1.6-2.5zm5.3-9.2 1.5-8.3c0-1.4-2.7-3.6-3.3-2.6l-.4 2.2-.3 2 1.5.6c1.3.6 1.4.7.7.8-.6.1-.7.3-.3.7.2.3.2.5 0 .5-.3 0-.9-1-.8-1.4.1-.2-.7-.7-1-.8-.2 0-1 4-1 5 0 .2.1.3.4.3.3 0 .5-.2.4-.8-.1-.4 0-.5 0-.2l.9 1c.4.3.4.4-.2.2-.5-.2-.5 0 .3.6 1 .8 1 1.4-.1 1.8-.8.2-1.8-1-1.6-1.7.2-.5.2-.6 0-.3a14 14 0 0 0-1 5.4c.1.1.3 0 .4-.2 0-.4.3-.3 1.1 0 1 .5 1 .7.9 2.8-.2 3 .1 1.8 2-7.6zm-3 4.3c-.4-.4-.8-.8-.7-1 .1 0 .4.1.7.4l1 .7c.3.1.4.3.2.4 0 .1-.6-.1-1.1-.5zm.5-1.6c-1-.5-1.4-1.5-.5-1l1 .4c.4 0 .6.4.6.7 0 .6 0 .6-1.1 0zm-22.5-.8-.9-.4c-.2 0-.1.2.2.4l.9.3c.2 0 0-.2-.2-.3zm15.6-4.1c.2-1.2.5-1.6.9-1.4.3.1.4 0 0-.5-.2-.6-.2-.7.3-.5.6.2.6.2 0-.5-.7-.9-.8-2 0-1.7.2 0 .5 0 .5-.2s-.2-.3-.4-.3c-.5 0-.4-1.4.1-1.4.3 0-.2-.4-1-1-1.3-.8-1.3-.8-.3-.6a4 4 0 0 1 1.4.6l.9.3c.3 0 .3-.2-.2-.6-.6-.4-.6-.5-.2-.8.4-.3.3-.4-.5-.9-.9-.4-1-.5-.4-.5.7 0 .7 0 0-.7s-4.3-2.4-6.1-2.9c-.8-.2-1-.2-.8.2 0 .3.3.5.5.5s.3.1.2.2c-.1.1-.6 0-1-.2-.7-.4-.8-.3-.6.2.2.4 0 .5-.5.5-.6 0-.4.3.8 1 1 .4 1.8 1 2 1.2.1.3-.2.2-.7-.1-1.3-1-1.5-.8-1.6.8 0 .8-.2 1.7-.5 1.9-.3.2-.5.8-.6 1.4 0 .8 0 1 .3.5.3-.4.4-.2.4.6l.1 2.2c0 1.1.8 2 2.6 3l.7.4c-.4 0-.6 0-.4.2.1.2.4.3.7.2.3-.1 1 0 1.4.3 1.3.6 1.5.5 2-1.4zM87.4 183c-.5-.3-.5-.4 0-.4.4 0 .7.2.8.4.3.4-.2.4-.8 0zm-1.6-.7c-.4-.7 0-.8.5-.2.3.3.3.5 0 .5-.1 0-.4-.1-.5-.3zm-10.4 11.1c0-.5-.2-.9-.3-.9-.2 0-.3.4-.2.9l.3.9c.1 0 .2-.4.2-.9zm4.2-6-.4-.4c-.2 0-.3 0-.3.2s.1.4.3.4c.2 0 .4 0 .4-.2zm22.2-1.7c.4-.5.2-1-.7-1-.8 0-1.5.6-1.2 1 .3.6 1.4.6 1.9 0zm-5.5-1.9c-.1-.3 0-.5.5-.5.3 0 1-.2 1.5-.5 1.1-.6.2-.6-1.2 0-1 .4-1.3.4-2.7-.4-.9-.5-2-1.3-2.5-1.8-.5-.4-1-.8-1.3-.8a22 22 0 0 1-4.5-2 9 9 0 0 0-2-.8c-1.3-.2-1.3-1 0-.8.8 0 .9 0 .3-.3-.3-.2-.8-.3-1.1-.2h-.5c0-.2-.5-.5-1-.8-1.6-.6-4.1.2-4.2 1.4v.4c.4-.6.8-.5 3.3.3 7 2.2 15 6.3 15 7.7 0 .5 0 .5.2 0 .2-.2.3-.6.2-.9zm-14.4-7.5c-.1-.2-.5-.4-1-.4-.3 0-.6-.1-.6-.3 0-.2.2-.4.4-.4.6 0 1.9 1 1.6 1.3 0 .1-.3 0-.4-.2zm-4 3.1c0-.2 0-.5.3-.6.3-.2.3-.3-.1-.5-.4-.1-.6 0-.7.7-.1.5 0 .8.3.8s.4-.2.3-.4zm10.9-1.5-.8-.6c-.7-.4-.8-.4-.3.2.4.5 1 .8 1 .4zm-2.5-1.5-.5-.1c-.3 0-.6.1-.6.3 0 .2.3.3.6.2.3-.1.5-.3.5-.4zm-24.4 28.8c.2-.3.5-.4.6-.3.1.1 0 .3-.4.5-.5.2-.6.1-.2-.2zm1.5-.8c0-.1.3-.4.7-.6l.7-.2c0 .1-.3.4-.7.6l-.7.2zM74 190.8l-.3-.9c-.1-.4 0-.5.4-.3.6.2.8 1.5.2 1.5-.2 0-.3-.1-.3-.3zm0-6.3c0-.3.2-.4.5-.3l.9.2c.7 0 .2.5-.6.6-.5 0-.8-.2-.8-.5z" style="fill:#d5b98a;stroke-width:.352778" transform="translate(-44.5 -173.2)"/>
  <path d="m76 245.5-1-1 .4-3.2 1.2-9.6c.5-3.6.8-6.6.6-6.8l-6-4.5-5.9-4.3-1 5.5c-1.2 7.4-1 7-3 8.3-2 1.3-2 1.3-3.3.2-.8-.7-.9-1-.8-2.4l.5-8.4c.6-10.4 1.2-13 2.6-11.7.2.3.8 0 2-1l3.1-2.2c1.5-.8 1.6-1.6.2-1-.6.1-.6 0 0-.5.7-.5.7-.5.1-.3-1.5.4.4-1 3-2.3l3-1.8c.4-.6.8-1.8 1-4.2.2-.9.4-1.9.6-2.2.4-.7 1.7-.9 1.7-.2.1.8.7-2 .9-4.3l.5-4.8c.3-2.5 0-3.3-.9-3.3a.9.9 0 0 1-.7-.4c-.1-.2.1-.2.7 0l1 .4c.4 0 .5-4.1.2-4.5-.4-.5 0-.8 1.9-1a75.4 75.4 0 0 1 16 5.3c7.2 3.8 8.4 4.5 8.9 5.3.6 1 .7.4-2.2 16a63 63 0 0 0-1.6 19.4l.5 6.9c.2.8 0 1.2-.9 2-1.3 1.3-2 1.3-3.4 0-1-.8-1.3-1.6-2.3-5.2-.9-2.9-1.4-4.2-1.7-4-.4 0-2.9 1.8-4.9 3.5-.4.4-1.2 3.1-2.6 9-3 12-2.8 11.5-4.7 13-2 1.6-2.5 1.6-3.8.3zm6.2-22.3c.3-.7 1.3-1.8 2.1-2.4.9-.7 2-1.7 2.3-2.2l1-1c0 .2.9-.4 1.8-1.3l2.7-2.3c.6-.4 1.4-1.1 1.7-1.6.4-.5-.5 0-2 1.2a53 53 0 0 1-5 3.6 18 18 0 0 0-3.1 2c-.4.5-.9.8-1 .8-.3 0 0-.5.7-1 1.3-1.3 1.4-1.6.4-1-.4.1-.7.4-.7.6l-.7.7c-.7.4-.8.4-.6-.1.2-.4 0-.5-.4-.3-.5.2-.5.1.1-.6.4-.4.8-.6 1-.5.1 0 1-.3 1.7-.9 1-.8 1.3-1 .9-1.2-.3-.1-.5 0-.5.2s-.2.4-.6.5c-1.5 0-4.4 2.7-4.4 3.8 0 .3.3.8.8 1.2.7.7.7 1.6 0 5.5 0 .6.2.3.5-.7l1.3-3zm.6-6.1c0-.1.2-.3.5-.4.3-.1.5 0 .4.2-.3.3-1 .5-1 .2zm-2.5.1a133.8 133.8 0 0 0 11-7.6c-.3.2-.7 0-1-.3-.2-.4-.7-.6-1-.4-.2 0-.6 0-.7-.3 0-.3-.6-.5-1.2-.5s-1 .2-1 .3c.2.1 0 .2-.2.2-1-.1-.6.7.7 1.7l1.5 1-1.9 1.4c-1 .7-2.2 1.3-2.4 1.3-.3 0-1.5-.6-2.7-1.4a9.6 9.6 0 0 0-2.7-1.4c-.4 0-.5 0-.4-.2.3-.3-1.4-1.8-2.7-2.3-.5-.2-1-.5-1-.7l-.9-.5c-.5 0-1.3-.6-1.8-1a9.5 9.5 0 0 0-2-1.5c-.7-.4-1.2-.8-1.1-1 0-.2 1-.8 2-1.4l1.8-1 2 1.1c2.3 1.2 2.5 1.3 2.5.7 0-.2-.1-.2-.3-.1-.2.1-.4 0-.4-.2 0-.3.3-.4.7-.3.4.2.8 0 1-.1.1-.3 0-.3-.2-.2-.3.2-.4 0-.4-.4 0-.7-.4-1-1.2-.8-.2 0-.2-.1 0-.3 0-.2-.1-.4-.4-.4-.4 0-.5-.2-.4-.5v-.5l-3.8 2-5.4 3c-1 .5-2 1.3-2.4 1.6-.5.7-.5.8 2.2 2.5l10.8 7.3c.5.5 1.2.7 1.5.6.2 0 .7.2 1 .6.2.4.4.6.5.4 0-.2.3-.4.4-.4zm4.6-8.8c0-.2 0-.4-.2-.4l-.3.4c-.2.2 0 .3.1.3.2 0 .4-.1.4-.3zm8.4-3.7c.3-1.5.6-2.7.8-2.7 1.2 0-7.4-5.7-11.2-7.4-3.6-1.7-3.6-1.7-3.7 2.2v2.8l4.2 2.4c8.3 4.9 9 5.3 9.3 5.3.1 0 .4-1.2.6-2.6zm4-1.1 1.3-7.8c.8-3.8 1.5-7.5 1.5-8.2 0-1.7-2.6-4-3.3-3l-.5 2.4c-.2 1.6-.1 2 .3 2 .2 0 .9.3 1.3.7.8.6.8.7.3.7-.6 0-.6 0-.3.5.3.3.3.6.1.6-.3 0-.9-1-.8-1.4.1-.2-.7-.7-1-.8-.2 0-1 4-1 5 0 .2.1.3.4.3.3 0 .5-.2.4-.8-.1-.4 0-.5 0-.2l.9 1c.4.3.4.4-.2.2-.5-.2-.5 0 .3.6 1 .8 1 1.4-.1 1.8-.8.2-1.8-1-1.6-1.7.2-.4.2-.5 0-.4-.3.1-.6 1-.7 2-.5 3-.5 4.3-.2 4 .2 0 .4-.4.4-.7 0-.4 0-.4 1 0 1 .5 1 .6.8 2.8 0 1.6 0 2 .3 1.7.2-.3.3-1 .3-1.3zm-1.6-3.7c-.5-.4-.9-.8-.8-1 .1 0 .4.1.7.4l1 .7c.3.1.4.3.2.4 0 .1-.6-.1-1.1-.5zm.4-1.6c-1-.5-1.4-1.5-.5-1l1 .4c.4 0 .6.4.6.7 0 .6 0 .6-1.1 0zm-22.5-.8-.9-.4c-.2 0-.1.2.2.4l.9.3c.2 0 0-.2-.2-.3zm15.5-4c.3-1.2.6-1.7 1-1.5.3.1.4 0 0-.5-.2-.6-.2-.7.3-.5.6.2.6.2 0-.5-.7-.9-.8-2 0-1.7.2 0 .5 0 .5-.2s-.2-.3-.4-.3-.3-.3-.3-.7c0-.4.2-.7.4-.7.3 0 0-.3-.6-.7-1-.7-1-.7-.3-.7.4 0 .9.1 1 .3.1.2.5.4.8.4.5 0 .5-.1-.1-.6-.6-.4-.6-.5-.2-.8.4-.3.3-.4-.5-.9-.9-.4-1-.5-.4-.5.7 0 .7 0 0-.7s-4.3-2.4-6.1-2.9c-.8-.2-1-.2-.8.2 0 .3.3.5.5.5s.3.1.2.2c-.1.1-.6 0-1-.2-.7-.4-.8-.3-.6.2.2.4 0 .5-.5.5-.6 0-.4.3.9 1 .9.4 1.6.9 1.6 1l-.6-.2c-1.1-.6-1.3-.4-1.4 1.1 0 .8-.2 1.7-.5 1.9-.3.2-.5.8-.6 1.4 0 .8 0 1 .3.5.3-.4.4 0 .4 1.5l.1 2.3c0 .5 1.2 1.5 1.7 1.5.2 0 .3.1.2.3-.4.3 2 1.7 3.4 1.7 1.2.1 1.2 0 1.6-1.6zM87.4 183c-.5-.3-.5-.4 0-.4.4 0 .7.2.8.4.3.4-.2.4-.8 0zm-1.6-.7c-.4-.7 0-.8.5-.2.3.3.3.5 0 .5-.1 0-.4-.1-.5-.3zm-10.4 11.1c0-.5-.2-.9-.3-.9-.2 0-.3.4-.2.9l.3.9c.1 0 .2-.4.2-.9zm4.2-6-.4-.4c-.2 0-.3 0-.3.2s.1.4.3.4c.2 0 .4 0 .4-.2zm22.7-2.3c.6-1.2.6-1.2-1.4-.5-1.3.5-1.5.7-1.2 1 .8 1 2 .7 2.6-.5zm-6-1.2c-.1-.3.3-.6 1.3-.7 1.6-.3 1.8-.7.5-1l-.9.1c0 .2-.3.5-.6.7-.5.2-1.2 0-3.2-1.4-1.4-1-2.7-1.8-2.9-1.8-.3 0-2.4-1-4.4-2a9 9 0 0 0-2-.8c-1.3-.2-1.3-1 0-.8.8 0 .9 0 .3-.3-.3-.2-.8-.3-1.1-.2h-.5c0-.2-.5-.5-1-.8-1.6-.6-4.1.2-4.2 1.4v.4c.4-.6.8-.5 3.3.3 7 2.2 15 6.3 15 7.7 0 .5 0 .5.2 0 .2-.2.3-.6.2-.8zm-14.4-7.6c-.1-.2-.5-.4-1-.4-.3 0-.6-.1-.6-.3 0-.2.2-.4.4-.4.6 0 1.9 1 1.6 1.3 0 .1-.3 0-.4-.2zm13.4 5.3a.8.8 0 0 0-.6-.4c-.3 0-.3.2 0 .4.7.4.9.4.6 0zM78 179.4c-.1-.2 0-.5.2-.6.3-.2.3-.3-.1-.5-.4-.1-.6 0-.7.7-.1.5 0 .8.3.8s.4-.2.3-.4zm10.8-1.5-.8-.6c-.7-.4-.8-.4-.3.2.4.5 1 .8 1 .4zm-2.5-1.5-.5-.1c-.3 0-.6.1-.6.3 0 .2.3.3.6.2.3-.1.5-.3.5-.4zm-24.4 28.8c.2-.3.5-.4.6-.3.1.1 0 .3-.4.5-.5.2-.6.1-.2-.2zm1.5-.8c0-.1.3-.4.7-.6l.7-.2c0 .1-.3.4-.7.6l-.7.2zM74 190.8l-.3-.9c-.1-.4 0-.5.4-.3.6.2.8 1.5.2 1.5-.2 0-.3-.1-.3-.3zm0-6.3c0-.3.2-.4.5-.3l.9.2c.7 0 .2.5-.6.6-.5 0-.8-.2-.8-.5z" style="fill:#e1bb7a;stroke-width:.352778" transform="translate(-44.5 -173.2)"/>
  <path d="m76 245.5-1-1 .4-3.2 1.2-9.6c.5-3.6.8-6.6.6-6.8l-6-4.5-5.9-4.3-1 5.5c-1.2 7.4-1 7-3 8.3-1.9 1.3-2 1.3-3.2.3-.8-.6-.9-.9-.8-3.6.2-6 1.1-17 1.5-18.1.4-1.2 1.3-1.6 1.5-.6 0 .4.3.3 1.3-.6l3.7-2.7c1.7-1.2 2.3-1.7 1.9-1.8-.4 0-.6-.3-.5-.4.3-.5-.6-.4-1.2 0-.4.4-.4.4-.2 0l3-1.8c1.6-.8 3.1-1.8 3.5-2.3.5-.6.9-.7 1.4-.6.6.2.8 0 .6-.2a1 1 0 0 0-.8-.4c-.2 0-.5-.2-.5-.4s.2-.2.4 0c.3 0 .4 0 .1-.3-.4-.8-.5-1.7-.1-2 .1 0 .2-.5 0-.9 0-.6 0-.7.7-.5l1.1.2c.2 0 .2.3 0 .6 0 .2 0 .5.3.5.2 0 .4-.6.4-1.3 0-.8 0-1.7.2-2a219.5 219.5 0 0 0 1.2-16c-.5-.5-.1-.8 1.8-1a75.4 75.4 0 0 1 16 5.3c7.2 3.8 8.4 4.5 8.9 5.3.6 1 .7.4-2.2 16a63 63 0 0 0-1.6 19.4l.5 6.9c.2.8 0 1.2-.9 2-1.3 1.3-2 1.3-3.4 0-1-.8-1.3-1.6-2.3-5.2-.9-2.9-1.4-4.2-1.7-4-.4 0-2.9 1.8-4.9 3.5-.4.4-1.2 3.1-2.6 9-3 12-2.8 11.5-4.7 13-2 1.6-2.5 1.6-3.8.3zm6.2-22.3c.3-.7 1.3-1.8 2.1-2.4.9-.7 2-1.7 2.3-2.2l1-1c0 .2.9-.4 1.8-1.3l2.7-2.3a9 9 0 0 0 1.7-1.6c.4-.5-.6.1-2.2 1.4a36.4 36.4 0 0 1-6.8 4.4c-1.1 1-.7 0 .5-1l1.2-1.1-1.4 1-2.4 1.8c-.6.5-1 .8-1 .6 0-.5 1.6-2 3-2.8.8-.6.9-.7.4-1-.6-.3-1.4 0-1 .5 0 .1 0 .4-.3.5-.3.2-.3.1-.2-.1.9-1.4-3 1.5-3.9 3-.5.8-.5.8.4 1.6 1 1 1 1.5.4 5.7-.1.6 0 .3.4-.7l1.3-3zm1-3.9c0-.2 0-.3.3-.3.2 0 .3.1.2.3l-.4.4-.2-.4zm3.5-6.1a63.6 63.6 0 0 0 4.5-3.6c-.3.2-.6 0-.9-.3-.2-.4-.7-.6-1-.4-.2 0-.6 0-.7-.4 0-.3-.5-.5-.8-.4-1.1 0-1.5 0-1.3-.4.1-.2 0-.3-.4-.1-.5.1-.5.2.1.7.5.4.5.4 0 .2-.6-.2-1 .3-.7.8l1.6 1.2 1.3.8-1.9 1.4c-1.7 1.2-3.4 1.7-3.4 1l-1.2-.9c-.7-.3-1.2-.8-1.2-1 0-.2-.1-.3-.3-.1 0 0-.4 0-.7-.3-.3-.3-.7-.4-.9-.3-.2.1-.3 0-.2-.3.2-.4 0-.7-.8-1-.5-.3-.9-.6-.8-.8 0-.1 0-.3-.4-.3-.3 0-.5-.1-.5-.3 0-.2-.2-.4-.5-.3-.2.1-.7-.1-1-.5-.4-.3-.9-.6-1.2-.6-.3 0-.5-.2-.5-.4s-.4-.3-.8-.3c-.7 0-.7 0 .2-.6 1.3-.7 1-1-.5-.5-1 .3-1.3.3-2.1-.4a5 5 0 0 1-1-.8l1.9-1.2 2-1.1 1.9 1c1.2.6 1.8 1.1 1.7 1.4-.1.4 0 .4.3.1.3-.2.6-.3.7-.2.1.1.7-.1 1.4-.5.6-.4 1-.8.8-.8l-1.2.6c-.4.3-.8.5-1 .4l1-1 1.2-.7-1 .1c-.7.2-1 0-.8-.3.2-.4-.4-.6-1.3-.5-.2 0-.2-.1 0-.3 0-.2-.1-.4-.4-.4-.4 0-.5-.2-.4-.5.3-.7 0-.7-2.4.7a639 639 0 0 1-4.3 2.3c-3.4 1.8-5.4 3.2-5.4 3.7 0 .2 1 1 2.2 1.7 2.5 1.5 10.7 7.1 11.6 7.9.3.2.8.4 1.1.3.4-.2.5-.1.4.3-.3.8 1 .9 2.2 0l5.8-3.8zm-1.6-4.8c0-.2 0-.4-.2-.4s-.4.2-.5.4c-.2.2-.1.3 0 .3.3 0 .5-.1.7-.3zm8.2-3.7c.3-1.5.6-2.7.8-2.7 1.2 0-7.4-5.7-11.2-7.4-3.6-1.7-3.6-1.7-3.7 2.2v2.8l4.2 2.4c8.3 4.9 9 5.3 9.3 5.3.1 0 .4-1.2.6-2.6zm-17.8-.1-.6.2c-.3.4-.3.4.2.2.4-.1.6-.3.4-.4zm21.7-1 1.4-7.8c.8-3.8 1.5-7.5 1.5-8.2 0-1.7-2.6-4-3.3-3l-.5 2.4c-.2 1.6-.1 2 .3 2 .2 0 .9.3 1.3.7.6.4.7.7.4.7-.3 0-.8-.3-1.2-.5-.4-.3-.8-.6-1-.6 0 0-.4 1-.6 2.3-.5 2.8-.5 3 0 3l1.4.8c1 .7 1 1.7 0 1.7-.9 0-1.8-.9-1.6-1.5v-.6c-.2 0-.6 1.2-.8 2.7-.6 3.7-.6 3.8 0 3.3.4-.3.5-.6.4-.8l.7.1c1 .5 1 .7 1 3.5 0 1.2 0 1.5.3 1 .2-.2.3-.8.3-1.2zm-1.6-3.7c0-.2 0-.3.2-.3l.6.3c0 .2 0 .4-.2.4s-.4-.2-.6-.4zm.5-1.6c-1-.5-1.4-1.5-.5-1l1 .4c.4 0 .6.4.6.7 0 .6 0 .6-1.1 0zm-21.4-.1c.2-.4.2-.7 0-.7s-.4.3-.5.7v.7l.5-.7zm.3-3c0-.4-.3-.6-.8-.5-.6 0-.6 0-.2.2.4 0 .7.3.7.5l.1.3c.1 0 .2-.2.2-.5zm14.1-1.5c.3-1.3.5-1.6.7-1 .2.5.3.5.7 0 .2-.2.3-.7.1-1.1-.2-.6-.1-.6.4-.2.5.4.5.4.3-.3 0-.4-.3-.6-.5-.5-.2.2-.3 0-.2-.2.1-.3 0-.8-.3-1.1-.7-.8-.2-.9.8-.1 1 .7 1.5.6.6-.2-.5-.4-.8-1-.8-1.2 0-.3-.2-.6-.4-.6-.3 0-.4 0-.3-.2.4-.3 1.5.3 1.8 1.2.1.4.5.8.7.8.4 0 .4-.1 0-.2-.2-.1-.3-.4-.2-.7.2-.4-1.4-1.6-3-2.3-.5-.3-.5-.3 0-.3.3 0 .9.2 1.4.5 1.3.8 2 .7 1.1-.2-1-1-1-1 .2-.8.8.1.8 0-.4-.5-1-.4-1.2-.7-1-1.2 0-.5-.3-.8-2-1.5-4.2-2-5.2-2.5-5.4-2.9-.2-.2-.3.1-.2.7.2 1 .2 1-1.2.4-.9-.4-1-.4-.6 0 1.4 1 .4 1.2-1.7.3-.7-.3-1.2-.6-1-.7 0-.1.4 0 .7.2.6.5 1.1.3.7-.3 0-.2-.5-.4-.9-.4s-.6-.1-.5-.3c.1-.2 0-.4-.4-.5-.7-.3-.7-.3-1 .7-.2.6 0 .8 1.5 1.3 1 .4 2.3 1 3 1.5 1.4.9 1.5.9.4.7h-.6c.2 0 .3.5.2.9-.1.5-.3.6-.6.3-.3-.2-.4-.7-.3-1 .1-.5-.1-.8-1-1.1-.5-.3-1.1-.4-1.3-.2 0 0 0 .2.4.2.3 0 .7.2 1 .5.3.5.3.5-.3.3s-.6-.1 0 .3c.3.3.6.7.6.9 0 .1.5.5 1 .7 1.1.5 1.6 1.3.6 1-.4-.2-.5-.1-.3.3.3.8-.7 1.5-2 1.4-.6-.1-1-.3-1-.5s-.5-.3-1-.3h-1l.9.4c.5.2 1 .6 1 .7.2.2.8.3 1.5.3s1.3.2 1.3.3v.7c0 .5.1.5.4 0 .3-.3.4 0 .4 1.2l.1 2c0 .4 1.2 1.4 1.7 1.4.2 0 .3.1.2.3-.4.3 2 1.7 3.4 1.7 1.1.1 1.2 0 1.6-1.5zM83.8 183c-.3-.2-.3-.4 0-.4.2 0 .4.2.6.4.2.4.1.4-.6 0zm9.5 11c-.2-.2-.6-.4-.9-.4-.2 0-.6-.3-.8-.6-.2-.4-.4-.5-.6-.4-.3.3 1.4 2 2.1 2 .5 0 .5-.2.2-.6zm1.5-5.1c-.3-.4-.4-.3-.2.2.1.3.3.5.4.4.2 0 0-.4-.2-.6zm.8-2.4c-.3-.6-.8-.4-.7.3 0 .4-.2.6-.7.5-.5 0-.5 0 .2.4.8.5 1 .5 1.2-.2v-1zm-1.4-.3c0-.2-.5-.4-.8-.4-.5 0-.5 0 0 .4.6.4 1.1.4.8 0zm-12.8-.2-.4-.4c-.2 0-.3 0-.3.2s.1.4.3.4l.4-.2zm20.9-.9c.6-1.2.6-1.2-1.4-.5-1.3.5-1.5.7-1.2 1 .8 1 2 .7 2.6-.5zm-24.8-.1-.4-.4c-.2-.1-.3 0-.3.1 0 .2.1.4.3.4l.4-.1zm18.7-.3v-.9c0-.2.6-.5 1.4-.6 1.4-.3 2-1 .8-1-.4 0-.9-.1-1.1-.4-.4-.3-.4-.3-.2.2.1.4 0 .7-.5 1-.5.2-1 0-2.6-1l-2.3-1.7c-.3-.3-.7-.5-1-.5-.3 0-1.1-.3-1.9-.7-3.5-1.8-4.8-2.4-5.2-2.2-.3 0-.5 0-.5-.2 0-.7.6-.7 1.6-.2.5.3 1 .4 1.2.3.2 0 .8.2 1.4.6.7.4 1.3.6 1.4.5.2-.2-2.1-1.3-5.4-2.5-2.3-.8-2.7-.9-4.2-.5-1.4.3-1.6.6-1.6 1.3 0 .5.2.8.5.8s.5-.2.4-.4c-.7-1 6.8 1.7 11.8 4.3 4.3 2.2 5.8 3.3 5.4 3.9 0 .2 0 .3.2.3s.4-.2.4-.4zm-15.5-9.1c-.5-.3-.5-.4 0-.4.3 0 .7.2.8.4.3.4-.2.4-.8 0zm-2.8 5.6c.2 0 .2-.1.1-.3-.4-.7-.9-.4-.8.6 0 .6 0 .7.2.3 0-.3.3-.6.5-.6zm17.4.4a.8.8 0 0 0-.6-.4c-.3 0-.3.2 0 .4.7.4.9.4.6 0zM79.9 177h-.7c-.3.1-.2.2.2.2s.6 0 .5-.2zm-5.4 15c-.1-.1 0-.3.1-.3.2 0 .4.2.4.4l-.1.3-.4-.3zm-.5-2c-.4-.3-.4-.4-.2-.4.3 0 .6.2.7.3.3.5.1.5-.5 0zm.7-5.5c.2-.2.4-.2.7 0 .2.2 0 .4-.4.4s-.6-.2-.3-.4z" style="fill:#d8b577;stroke-width:.352778" transform="translate(-44.5 -173.2)"/>
  <path d="M76 245.5c-1-1-1-1-.6-4.1l1.2-9.7c.5-3.6.8-6.6.6-6.8l-6-4.5-5.9-4.3-1 5.5c-1.2 7.4-1 7-3 8.3-1.9 1.3-2 1.3-3.2.3-.8-.6-.9-.9-.8-3.7a186.2 186.2 0 0 0 .8-10.7c.4-6 1-9.2 1.8-8 .1.2.3.8.3 1.3 0 .7.1.8.2.2.3-1.2 2.6-3.3 5.2-4.8a9.5 9.5 0 0 0 2.4-1.7c0-.2.4-.4.9-.6.5 0 .8-.3.7-.4l-1 .2c-.6.2-1 .2-1.3-.2-.3-.4 0-.6 1.4-1.4l2.8-1.5.9-.5-.7.8-.7.9 1-.6c1.2-.8 1.5-.8.7.1-.7.8-.7.8.6 0 1.5-.9 1.5-.9 2-6.3.3-2 .7-3.6.8-3.6.2 0 .3.2.2.5-.1.3 0 .6.1.7.2.2.4 0 .4-.1 0-.3.1-.3.3-.2.3.1.4 0 .3-.4 0-.3.1-.7.4-.8.4 0 .4 0 .2.2-.3.2-.3.4 0 .7.3.3.4.2.5-.6 0-.7-.2-1-1-1.4-.6-.3-.7-.5-.5-.8.5-.4 1.5.5 2.2 2 .2.5.6.9 1 .9.7 0 .6-.5-.3-1.2-.8-.6-.8-.6.4-.4 1.3.3 2.3.9 1.3.9-.7 0-1 1.3-.4 1.7.2.2.5.3.6.2.2 0 .2 0 0 0l.3.8c.3.4.3.5 0 .5s.3.4 1.3 1c1 .4 1.7 1 1.6 1.1 0 .2.2.3.5.3s1.3.4 2.2 1c1 .6 1.4.7 1 .2-.5-.6-.5-.7 0-1.1.5-.5.5-.5.3 0-.1.4 0 .6.3.4.3-.1.5-.5.5-.9s-.1-.6-.3-.5c-.1.1-.2-.1-.2-.5 0-.9 0-.9 1.4.3 1.3 1 1.4 1.5.2.8-.8-.4-1-.2-.4.6.2.3.5.4.7.3.7-.5 2.6-.6 2.3-.2l.1.3c.8 0 .7-1-.2-1.9-.5-.5-1-.9-1.2-.9 0 0-.3-.2-.4-.5-.1-.4.2-.3 1.2.3l1.3.9.3-1c.1-.6 0-1-.4-1.3-1-.7-1.4-.6-.6.3l.6.7-1-.6c-.6-.4-.8-.7-.5-.9.2-.2-.1-.5-.9-1-1.8-1.2-1.6-1.3.3-.2.9.5 1.8.8 2 .7.2-.2.3 0 .2.2 0 .2.1.5.4.6.2 0 .4-.2.4-.6 0-.5.2-.7.3-.6.2.1.2.7 0 1.3l-1.1 6.7a12 12 0 0 1-.6 2.8 50.5 50.5 0 0 1-7.8-5.1l-3-1.3c-3.6-1.8-3.7-1.7-3.6 2.3l.1 2.8 5 2.9c8.8 5.1 9.1 5.3 8.8 4.6-.3-1 .1-1.4.9-.7.3.3.8.4 1 .3.5-.3 0-1.2-.5-1-.2 0-.6 0-.9-.2-.5-.3-.5-.4 0-.7.6-.4 2.5.5 2.5 1.2 0 1.3.6 0 .9-1.7 0-1 .8-5 1.6-8.7 1.5-7.4 1.6-8.5 1-9.6-.4-.7-.4-.7 0-.4.9.8 2 .5 2.6-.6.6-1.2.4-1.3-1.6-.5-1.3.6-1.5.6-2.4 0-.6-.3-1.2-.5-1.5-.3-.2.1-.3 0-.2-.3 0-.3.7-.6 1.5-.8l1.2-.5a213.7 213.7 0 0 1-5-2.7 74 74 0 0 0-14-5.5l-1.8.5c-1.1.4-1.4.4-1.7 0-.3-.3-.1-.5 1-.8l1.8-.4c1.3 0 12.3 4 15 5.4 7.2 4 8.4 4.6 8.9 5.4.6 1 .7.4-2.2 16a63 63 0 0 0-1.6 19.4l.5 6.9c.2.8 0 1.2-.9 2-1.3 1.3-2 1.3-3.4 0-1-.8-1.3-1.6-2.3-5.2-.9-2.9-1.4-4.2-1.7-4-.4 0-2.9 1.8-4.9 3.5-.4.4-1.2 3.1-2.6 9-3 12-2.8 11.5-4.7 13-2 1.6-2.5 1.6-3.7.3zm2.8-7.9c-.1-.3-.2-.2-.2.2s0 .6.2.5v-.7zm1-4.5a79.2 79.2 0 0 1 .6-4.8c-.3.3-1.5 7-1.5 8.4 0 1.2.4-.3.9-3.6zm-20.6-3.9c.1-.4 0-.6-.1-.5-.3.2-.4-.3-.3-1.3.1-1.3 0-1.6-.5-1.6-.4 0-.5.2-.4.6l.4 1.5c0 .7 0 .9-.5.7-.4 0-.3.1.3.6l1 .7.1-.7zm21.8-2.9c0-1.4 1.8-4.4 3.3-5.5.9-.7 2-1.7 2.3-2.2l1-1c0 .2.6-.2 1.1-.6l2.3-2c2.6-2.1 4.5-3.9 4.5-4.3 0-.2-.2-.1-.5.2a57.4 57.4 0 0 0-4 3.2c-2.6 2-3.7 2.7-3.4 1.9.3-.8-.3-.7-1.9.4-1.7 1.3-2.7 1.8-1.4.7 2.8-2.1 2.8-2.2 2-2.2-.3 0-.6.1-.5.3h-.3c-.7-.2-4.9 2.7-5.6 3.9a5 5 0 0 0-.7 1.7c-.2.8 0 1 .6.8.7 0 .9.1.9.7l-.2 3.4c-.1 1.6-.1 2.1.1 1.7.2-.2.4-.8.4-1zm4.7-12.5 6.3-4.3c.5-.4.8-.4 1-.2 0 .2.6.5 1 .7 1 .2 1 .2-.1-.8-1-1-1.1-1-1.5-.6-.4.5-2.4 1-2 .5 0-.1-.5-.6-1.3-1-.9-.4-1.3-.8-1-1 .4-.2.1-.8-.5-.8-.3 0-.2.1.1.4.4.3.4.3-.1.1-.4 0-1 0-1.3.3-.4.3-.4.2.1-.4.7-.8.4-1.3-.7-1-.5.2-.5.2-.1 0 1-.7-.7-1-1.7-.4-2.6 1.5-4.3 2.3-4 1.8.3-.3 1.3-1 2.2-1.4 1.6-.8 2.7-1.8 1.5-1.3-.4.2-.5.1-.3-.2.2-.4.1-.5-.3-.3l-1 .3-1.2.8c-.8.7-2.3 1.4-2.3 1.1l2.2-1.4c2-1.3 2-1.4 1.3-1.9-.4-.3-1.2-.5-1.8-.5-.6 0-1 0-.7-.2 1-.3.4-.8-.6-.6h-1c0-.2-.5-.6-1.1-.8-.6-.3-1-.6-.9-.8.5-.8-1-.2-5.6 2.4-5.1 2.7-7.3 4.1-7.3 4.7l1 .8c3.4 1.7 6.9 4.2 6.5 4.7-.1.1 0 .1.4 0 .3-.1.6 0 .6.1 0 .2.2.4.5.4s.5.1.5.3c0 .2.3.4.5.4.5 0 3.2 2 4.8 3.4.5.5 1.2.8 1.6.7a56 56 0 0 0 6.3-4zm-2.5-.4c-.2 0-.3-.3-.2-.5 0-.2 0-.6-.3-.9-.4-.5-.4-.5.3-.1.6.3.9.3 1 0l.1-.4-.9-.5c-.4-.3-1-.4-1.3-.3-1 .4-.6-.1.8-.9 1.2-.7 1.3-.7.7 0-.5.4-.6.7-.3.9h.6c.1 0 .4 0 .7.2.5.4 1.3.1 1-.4 0-.2 0-.4.2-.6.3-.1.4 0 .2.3s-.2.4.3.2c.3-.1.9 0 1.2.4.7.5.7.6-.5 1.5-.7.6-1.4 1-1.5 1l-1 .2h-1zm2.4-1.7.9-1-1 .9-1.3 1h.2c.2 0 .7-.4 1.2-1zm-4 .6c0-.2.2-.4.3-.4l.2.4c0 .2-.2.3-.4.3s-.3-.1-.2-.3zm-1.2-1c.2-.3 0-.4-.6-.4l-1-.2-.1-.7c-.2-.4 0-.5.7-.4.6 0 1-.2 1.2-.5 0-.3 0-.4-.7-.2l-.8.2.8-.4c.6-.3.9-.3 1 0 .2.2.8 0 1.8-.7a7 7 0 0 1 1.7-1 15 15 0 0 1-3.3 2.8c-.7.3-.8.5-.5.9.3.3.3.5 0 .7-.3.2-.3.1-.2-.1zm4.2-1.9c0-.8.1-.9.4-.1v.6c-.2.1-.3-.1-.4-.5zm-6.4-.8.5-.3c.3-.2.5-.1.4.1-.2.3-1 .5-1 .2zm3.3-1 .4-.3.2.4c0 .2-.2.3-.4.3s-.3-.1-.2-.3zm-7.6-.5c-.4-.1-.7-.4-.7-.7 0-.3.2-.4.3-.4l1.8-.7c2-1 2.4-.8.5.3-.9.5-1.4 1-1.3 1.3l.1.4-.7-.2zm2.2 0 .5-.3c.3 0 .5 0 .3.2-.2.3-.8.5-.8.2zM70 204c-.4-.3-.3-.8 0-.8.2 0 .3.2.3.5 0 .6 0 .7-.3.3zm1.5-1.5.9-.3c.2 0 0 .1-.2.3l-.9.3c-.2 0-.1-.1.2-.3zm21 8c.4-.5 0-.7-.5 0-.3.3-.4.5-.1.5.2 0 .5-.2.6-.4zm-28.8-.4-.3-.4c-.2 0-.4 0-.4.2s.2.4.4.4.3-.1.3-.2zm32.8-2.7c0-.2-.1-.3-.3-.3-.2 0-.4.2-.4.5s.2.5.4.4l.3-.6zm-25.2-6.2c.4-.2.5-.5.3-.5l-1 .5c-.4.3-.5.6-.4.6.2 0 .7-.3 1-.6zm22.6-3c.2-.8 0-1.2-.4-1.5-.8-.6-1-.7-1.4-.2 0 .2 0 .4.3.6l.5.9c0 .3-.1.5-.3.4-.2 0-.3 0-.3.2 0 .3.5.6 1.1.7.1 0 .4-.5.5-1zm.2 4.8c-.3-.3-.3-.5-.1-.5.4 0 1 .7.7 1-.1 0-.4-.2-.6-.5zm1.2-1.1v-.7c0-.2.2 0 .2.2s.2.4.5.4.5.1.5.3c0 .5-1 .3-1.2-.2zm-21.5-5.1c-.4-.4-.5-.7-.3-.7.4 0 1.3 1 1.1 1.2 0 .1-.4-.1-.8-.5zm23.2-.4c.2-.3.5-.5.5-.4.2.2-.3.9-.7.9-.1 0 0-.3.2-.5zm-23.6-.8c-.6-.5-.6-.6 0-.4l1 .2c.1 0 .3.2.3.4 0 .5-.5.4-1.3-.2zm22.4-.2c-.3-.1-.3-.3-.2-.3l1 .3c.2.2.3.4.1.4l-.9-.4zm-.3-5.9c0-.2-1.1-1-2.5-1.7-3-1.6-3-2 0-.5 2 1 2.3 1 2.7.6.3-.5.4-.4.3.4 0 1-.5 2-.5 1.2zm-19.3-2.9.2-3.4c0-.7.2-1.1.4-1 .2.1.2.4.1.6 0 .1 0 .3.2.3s.4-.2.4-.4c.1-.2.4 0 .6.4.4.7.4.7-.5.5-.8-.2-.9-.2-.8.7.1.8.5 1.1 1.7 1.7 1 .4 1.3.6.6.4-2.2-.5-2.5-.4-2.6.9 0 .6-.1 1.2-.3 1.4v-2zM96 186c0-.5.2-1 .3-1.2.4-.3.2 1.2-.1 1.7-.3.4-.3.3-.2-.5zm-1.4-.3-.9-.6a5 5 0 0 0-1.5-.7c-1.4-.4-1.7-1-.7-1.3.3-.1.8 0 1.2.5.3.4.7.7.8.5.1-.1.6.2 1 .7l.5.4c-.2-.2-.1-.4.1-.4s.4.3.4.7c0 .8 0 .8-1 .2zm-15.8-1.1c-.4-.8.6-1 1.7-.4.6.3.7.5.3.4-2-.7-2.1-.7-1.6 0 .3.2.3.5.1.5-.2 0-.4-.2-.5-.5zm13.1-2.3c0-.2.2-.3.4-.2.2.1.3.3.3.4l-.3.1c-.2 0-.4-.1-.4-.3zm-12.6-1c-2-1-2.2-1-2.2-.4 0 .4-.1.7-.3.7-.1 0-.2-.6 0-1.3 0-1 .1-1.2.4-.7.2.3.5.6.7.6.3 0 1.4.4 2.6 1 2.7 1.3 1.7 1.3-1.2 0zm9-1c-.5-.2-.6-.5-.4-.5.2 0 .6.3 1 .6.4.2.5.5.4.5l-1-.5zm-7-1c-1.5-.6-2.3-1.6-1.4-1.6.2 0 .4.1.4.3 0 .2.4.4 1 .5.4 0 1.1.4 1.4.9.6 1 .7 1-1.4 0zm5 .2c-.3-.2-.4-.4-.2-.4l.9.4c.3.2.4.3.2.3l-.9-.3zm3.2-.4c-.5-.3-.5-.3 0-.3.3 0 .7.1 1 .3.5.3.5.4 0 .4-.3 0-.7-.2-1-.4zm-11.3-1c-.3-.2-.4-.4-.2-.4l.9.4c.3.1.4.3.2.3l-1-.3zm-1-.8c0-.4 0-.6.2-.4v.9c-.1.2-.2 0-.2-.5zm4.2.4c0-.2.1-.4.3-.4.2 0 .4.2.4.4s-.2.4-.4.4a.4.4 0 0 1-.3-.4zm5.5.1h.7c.1.2 0 .2-.4.2-.5 0-.5 0-.3-.2z" style="fill:#b2a692;stroke-width:.352778" transform="translate(-44.5 -173.2)"/>
  <path d="M76 245.6c-1.2-1-1.2.1.5-12.5.6-4.3 1-8 .8-8.1a275 275 0 0 0-12-8.7l-.9 4.6c-1.2 7.8-1.2 7.6-3 9-1 .6-2 1-2.1 1-.2 0-.8-.3-1.2-.8-.8-.8-.9-1.2-.8-3.8a194.8 194.8 0 0 0 .8-10.5c.4-6 1-9.2 1.8-8 .1.2.3.8.3 1.3 0 .7.1.8.2.2.3-1.2 2.6-3.3 5.2-4.8a9.5 9.5 0 0 0 2.4-1.7c0-.2.4-.4.9-.6.5 0 .8-.3.7-.4l-1 .2c-.6.2-1 .2-1.3-.2-.3-.4 0-.6 1.4-1.4l2.8-1.5.9-.5-.7.8-.7.9 1-.6c1.2-.8 1.5-.8.7.1-.7.8-.7.8.6 0 1.5-.9 1.5-.9 2-6.3.3-2 .7-3.6.8-3.6.2 0 .3.2.2.5-.1.3 0 .6.1.7.2.2.4 0 .4-.1 0-.3.1-.3.3-.2.3.1.4 0 .3-.4 0-.3.1-.7.4-.8.4 0 .4 0 .2.2-.3.2-.3.4 0 .7.3.3.4.2.5-.6 0-.7-.2-1-1-1.4-.6-.3-.7-.5-.5-.8.5-.4 1.5.5 2.2 2 .2.5.6.9 1 .9.7 0 .6-.5-.3-1.2-.8-.6-.8-.6.4-.4 1.3.3 2.3.9 1.3.9-.7 0-1 1.3-.4 1.7.2.2.5.3.6.2.2 0 .2 0 0 0l.3.8c.3.4.3.5 0 .5s.3.4 1.3 1c1 .4 1.7 1 1.6 1.1 0 .2.2.3.5.3s1.3.4 2.2 1c1 .6 1.4.7 1 .2-.5-.6-.5-.7 0-1.1.5-.5.5-.5.3 0-.1.4 0 .6.3.4.3-.1.5-.5.5-.9s-.1-.6-.3-.5c-.1.1-.2-.1-.2-.5 0-.9 0-.9 1.4.3 1.3 1 1.4 1.5.2.8-.8-.4-1-.2-.4.6.2.3.5.4.7.3.7-.5 2.6-.6 2.3-.2l.1.3c.8 0 .7-1-.2-1.9-.5-.5-1-.9-1.2-.9 0 0-.3-.2-.4-.5-.1-.4.2-.3 1.2.3l1.3.9.3-1c.1-.6 0-1-.4-1.3-1-.7-1.4-.6-.6.3l.6.7-1-.6c-.6-.4-.8-.7-.5-.9.2-.2-.1-.5-.9-1-1.8-1.2-1.6-1.3.3-.2.9.5 1.8.8 2 .7.2-.2.3 0 .2.2 0 .2.1.5.4.6.2 0 .4-.2.4-.6 0-.5.2-.7.3-.6.2.1.2.7 0 1.3l-1.1 6.8c-.3 1.6-.6 2.8-.8 2.8a76.1 76.1 0 0 1-7.6-5.2l-2.8-1.3a20 20 0 0 0-3.4-1.4c-.4 0-.5.7-.4 3.3l.1 3.2 4.4 2.6c7.6 4.5 9.7 5.6 9.4 4.9-.3-1 .1-1.4.9-.7.3.3.8.4 1 .3.5-.3 0-1.2-.5-1-.2 0-.6 0-.9-.2-1-.7.3-1.1 1.4-.5 1 .4 1.7 1.9 1 1.9-.1 0-.3.3-.3.6 0 .8.7 0 .9-1l.5-3a163.6 163.6 0 0 1 2.3-11.3l.4-2 .2-2.4c0-1.2.1-1.4.7-1.4 1.2 0 2-.7 2-1.6 0-1-.1-1-2-.3-1.4.6-1.6.6-2.5 0-.6-.3-1.2-.5-1.5-.3-.2.1-.3 0-.2-.3 0-.3.7-.6 1.5-.8l1.2-.5a213.7 213.7 0 0 1-5-2.7 74 74 0 0 0-14-5.5l-1.8.5c-1.1.4-1.4.4-1.7 0-.3-.3-.1-.5 1-.8l1.7-.4c.7 0 9 2.8 11.6 3.8 2.4 1 11 5.6 11.9 6.4 1 .8.8 2.9-1 12.2a71 71 0 0 0-2.2 25.7l.4 6-1.1 1-1.2 1.2-1.2-.7-1.6-1c-.2-.3-.8-2.4-1.5-4.8-.6-2.4-1.3-4.3-1.4-4.3-.2 0-1.6 1-3 2l-2.8 2.2-2.4 9.8-2.4 9.8-1.7 1.7c-1 1-2 1.7-2.2 1.7-.3 0-1-.4-1.6-1zm2.8-8c-.1-.3-.2-.2-.2.2s0 .6.2.5v-.7zm1-4.5a79.2 79.2 0 0 1 .6-4.8c-.3.3-1.5 7-1.5 8.4 0 1.2.4-.3.9-3.6zm-20.6-3.9c.1-.4 0-.6-.1-.5-.3.2-.4-.3-.3-1.3.1-1.3 0-1.6-.5-1.6-.4 0-.5.2-.4.6l.4 1.5c0 .7 0 .9-.5.7-.4 0-.3.1.3.6l1 .7.1-.7zm22.4-4.4a8.4 8.4 0 0 1 3.3-4.3 192.4 192.4 0 0 0 10.6-9.8c0-.2-.2-.1-.5.2a57.4 57.4 0 0 0-4 3.2c-2.6 2-3.7 2.7-3.4 1.9.3-.8-.3-.7-1.9.4-1.7 1.3-2.7 1.8-1.4.7 2.8-2.1 2.8-2.2 2-2.2-.3 0-.6.1-.5.3h-.3c-.7-.2-4.9 2.7-5.6 3.9a5 5 0 0 0-.7 1.7c-.2.8 0 1 .6.8.7 0 .9.1.9.7l-.2 3.4c-.2 2.5-.2 2.5 1.1-.9zm4.1-11 6.3-4.3c.5-.4.8-.4 1-.2 0 .2.6.5 1 .7 1 .2 1 .2-.1-.8-1-1-1.1-1-1.5-.6-.4.5-2.4 1-2 .5 0-.1-.5-.6-1.3-1-.9-.4-1.3-.8-1-1 .4-.2.1-.8-.5-.8-.3 0-.2.1.1.4.4.3.4.3-.1.1-.4 0-1 0-1.3.3-.4.3-.4.2.1-.4.7-.8.4-1.3-.7-1-.5.2-.5.2-.1 0 1-.7-.7-1-1.7-.4-2.6 1.5-4.3 2.3-4 1.8.3-.3 1.3-1 2.2-1.4 1.6-.8 2.7-1.8 1.5-1.3-.4.2-.5.1-.3-.2.2-.4.1-.5-.3-.3l-1 .3-1.2.8c-.8.7-2.3 1.4-2.3 1.1l2.2-1.4c2-1.3 2-1.4 1.3-1.9-.4-.3-1.2-.5-1.8-.5-.6 0-1 0-.7-.2 1-.3.4-.8-.6-.6h-1c0-.2-.5-.6-1.1-.8-.6-.3-1-.6-.9-.8.5-.8-1-.2-5.6 2.4-5.1 2.7-7.3 4.1-7.3 4.7l1 .8c3.4 1.7 6.9 4.2 6.5 4.7-.1.1 0 .1.4 0 .3-.1.6 0 .6.1 0 .2.2.4.5.4s.5.1.5.3c0 .2.3.4.5.4.5 0 3.2 2 4.8 3.4.5.5 1.2.8 1.6.7a56 56 0 0 0 6.3-4zm-2.5-.4c-.2 0-.3-.3-.2-.5 0-.2 0-.6-.3-.9-.4-.5-.4-.5.3-.1.6.3.9.3 1 0l.1-.4-.9-.5c-.4-.3-1-.4-1.3-.3-1 .4-.6-.1.8-.9 1.2-.7 1.3-.7.7 0-.5.4-.6.7-.3.9h.6c.1 0 .4 0 .7.2.5.4 1.3.1 1-.4 0-.2 0-.4.2-.6.3-.1.4 0 .2.3s-.2.4.3.2c.3-.1.9 0 1.2.4.7.5.7.6-.5 1.5-.7.6-1.4 1-1.5 1l-1 .2h-1zm2.4-1.7.9-1-1 .9-1.3 1h.2c.2 0 .7-.4 1.2-1zm-4 .6c0-.2.2-.4.3-.4l.2.4c0 .2-.2.3-.4.3s-.3-.1-.2-.3zm-1.2-1c.2-.3 0-.4-.6-.4l-1-.2-.1-.7c-.2-.4 0-.5.7-.4.6 0 1-.2 1.2-.5 0-.3 0-.4-.7-.2l-.8.2.8-.4c.6-.3.9-.3 1 0 .2.2.8 0 1.8-.7a7 7 0 0 1 1.7-1 15 15 0 0 1-3.3 2.8c-.7.3-.8.5-.5.9.3.3.3.5 0 .7-.3.2-.3.1-.2-.1zm4.2-1.9c0-.8.1-.9.4-.1v.6c-.2.1-.3-.1-.4-.5zm-6.4-.8.5-.3c.3-.2.5-.1.4.1-.2.3-1 .5-1 .2zm3.3-1 .4-.3.2.4c0 .2-.2.3-.4.3s-.3-.1-.2-.3zm-7.6-.5c-.4-.1-.7-.4-.7-.7 0-.3.2-.4.3-.4l1.8-.7c2-1 2.4-.8.5.3-.9.5-1.4 1-1.3 1.3l.1.4-.7-.2zm2.2 0 .5-.3c.3 0 .5 0 .3.2-.2.3-.8.5-.8.2zM70 204c-.4-.3-.3-.8 0-.8.2 0 .3.2.3.5 0 .6 0 .7-.3.3zm1.5-1.5.9-.3c.2 0 0 .1-.2.3l-.9.3c-.2 0-.1-.1.2-.3zm21 8c.4-.5 0-.7-.5 0-.3.3-.4.5-.1.5.2 0 .5-.2.6-.4zm-28.8-.4-.3-.4c-.2 0-.4 0-.4.2s.2.4.4.4.3-.1.3-.2zm7.6-8.9c.4-.2.5-.5.3-.5l-1 .5c-.4.3-.5.6-.4.6.2 0 .7-.3 1-.6zm22.6-3c.2-.8 0-1.2-.4-1.5-.8-.6-1-.7-1.4-.2 0 .2 0 .4.3.6l.5.9c0 .3-.1.5-.3.4-.2 0-.3 0-.3.2 0 .3.5.6 1.1.7.1 0 .4-.5.5-1zm.2 4.8c-.3-.3-.3-.5-.1-.5.4 0 1 .7.7 1-.1 0-.4-.2-.6-.5zm1.2-1.1v-.7c0-.2.2 0 .2.2s.2.4.5.4.5.1.5.3c0 .5-1 .3-1.2-.2zm-21.5-5.1c-.4-.4-.5-.7-.3-.7.4 0 1.3 1 1.1 1.2 0 .1-.4-.1-.8-.5zm23.2-.4c.2-.3.5-.5.5-.4.2.2-.3.9-.7.9-.1 0 0-.3.2-.5zm-23.6-.8c-.6-.5-.6-.6 0-.4l1 .2c.1 0 .3.2.3.4 0 .5-.5.4-1.3-.2zm22.4-.2c-.3-.1-.3-.3-.2-.3l1 .3c.2.2.3.4.1.4l-.9-.4zm-.3-5.9c0-.2-1.1-1-2.5-1.7-3-1.6-3-2 0-.5 2 1 2.3 1 2.7.6.3-.5.4-.4.3.4 0 1-.5 2-.5 1.2zm-19.3-2.9.2-3.4c0-.7.2-1.1.4-1 .2.1.2.4.1.6 0 .1 0 .3.2.3s.4-.2.4-.4c.1-.2.4 0 .6.4.4.7.4.7-.5.5-.8-.2-.9-.2-.8.7.1.8.5 1.1 1.7 1.7 1 .4 1.3.6.6.4-2.2-.5-2.5-.4-2.6.9 0 .6-.1 1.2-.3 1.4v-2zM96 186c0-.5.2-1 .3-1.2.4-.3.2 1.2-.1 1.7-.3.4-.3.3-.2-.5zm-1.4-.3-.9-.6a5 5 0 0 0-1.5-.7c-1.4-.4-1.7-1-.7-1.3.3-.1.8 0 1.2.5.3.4.7.7.8.5.1-.1.6.2 1 .7l.5.4c-.2-.2-.1-.4.1-.4s.4.3.4.7c0 .8 0 .8-1 .2zm-15.8-1.1c-.4-.8.6-1 1.7-.4.6.3.7.5.3.4-2-.7-2.1-.7-1.6 0 .3.2.3.5.1.5-.2 0-.4-.2-.5-.5zm13.1-2.3c0-.2.2-.3.4-.2.2.1.3.3.3.4l-.3.1c-.2 0-.4-.1-.4-.3zm-12.6-1c-2-1-2.2-1-2.2-.4 0 .4-.1.7-.3.7-.1 0-.2-.6 0-1.3 0-1 .1-1.2.4-.7.2.3.5.6.7.6.3 0 1.4.4 2.6 1 2.7 1.3 1.7 1.3-1.2 0zm9-1c-.5-.2-.6-.5-.4-.5.2 0 .6.3 1 .6.4.2.5.5.4.5l-1-.5zm-7-1c-1.5-.6-2.3-1.6-1.4-1.6.2 0 .4.1.4.3 0 .2.4.4 1 .5.4 0 1.1.4 1.4.9.6 1 .7 1-1.4 0zm5 .2c-.3-.2-.4-.4-.2-.4l.9.4c.3.2.4.3.2.3l-.9-.3zm3.2-.4c-.5-.3-.5-.3 0-.3.3 0 .7.1 1 .3.5.3.5.4 0 .4-.3 0-.7-.2-1-.4zm-11.3-1c-.3-.2-.4-.4-.2-.4l.9.4c.3.1.4.3.2.3l-1-.3zm-1-.8c0-.4 0-.6.2-.4v.9c-.1.2-.2 0-.2-.5zm4.2.4c0-.2.1-.4.3-.4.2 0 .4.2.4.4s-.2.4-.4.4a.4.4 0 0 1-.3-.4zm5.5.1h.7c.1.2 0 .2-.4.2-.5 0-.5 0-.3-.2z" style="fill:#c9a669;stroke-width:.352778" transform="translate(-44.5 -173.2)"/>
  <path d="M76.1 245.6c-.6-.5-1-1.2-1-1.5 0-.4.3-.2 1.1.6.7.7 1.4 1 1.5 1a7 7 0 0 0 .3-2.5c0-1.2.2-2.3.3-2.4.2-.1.9-3.4 1.5-7.4 1.6-9 2.1-10.5 5.1-13a230.5 230.5 0 0 0 10.9-9.8 452.3 452.3 0 0 1 4.1-20.2l.2-2.5c0-1.2.1-1.4.7-1.4 1.2 0 2-.7 2-1.6 0-.5.2-.8.4-.7.7.4.4 3.6-1.2 12a71 71 0 0 0-2.2 25.7l.4 6-1.1 1-1.2 1.2-1.2-.7-1.6-1c-.2-.3-.8-2.4-1.5-4.8-.6-2.4-1.3-4.3-1.4-4.3-.2 0-1.6 1-3 2l-2.8 2.2-2.4 9.8-2.4 9.8-1.7 1.7c-1 1-2 1.7-2.2 1.7-.3 0-1-.4-1.6-1zm-.4-5.3c0-.4.1-.5.3-.2v.7c-.2 0-.3-.1-.3-.5zm1.4-.3c0-.3-.1-.5-.3-.4-.2.1-.4 0-.4-.2s-.2-.3-.4-.1c-.4.2-.3-1 .8-8.6l.7-5.2a32 32 0 0 0-5.2-4.3 174 174 0 0 1-7-5l-.9 4.7c-1.2 7.8-1.2 7.6-3 9-1 .6-2 1-2.1 1-.2 0-.8-.4-1.4-1-.6-.6-.8-1-.6-1 .2 0 .5.2.8.5.2.3.6.5.9.5.4 0 .5-.6.5-2.6 0-1.7-.2-2.7-.4-2.7s-.3-.1-.2-.3c.1-.2 0-.6-.5-.9-.7-.7-.7-2 0-10.4.4-4.1 1.1-6.6 1.4-4.4.1 1.2.7 2 .7 1s.8-2 2.6-3.4l1.5-1.1-1.3 1.4c-1.3 1.5-2 3.1-1.5 3.6.3.3.9-.7.7-1.4 0-.3.1-.7.4-.8.6-.2 2.6.5 2.6 1 0 0 .2.2.5.2.2 0 .6.2.7.5 0 .3.4.5.6.5.3 0 .4.1.4.5 0 .3 0 .5.3.5 1.2 0 1.7.2 1.7.6 0 .3.5.7 1.2 1a3 3 0 0 1 1.4.9c.2.2.4.4.6.2.2 0 .3 0 .3.3 0 .2.1.3.3.2.1-.1.8.2 1.5.8l1.5 1c.1 0 .8.5 1.4 1.1.6.6 1.2 1 1.4 1 0 0 3-1.8 6.3-4.2a79 79 0 0 1 6.5-4.2c.6 0-1.3 1.7-2.6 2.4-.7.3-1.3 1-1.3 1.3 0 .7 0 .7.4 0 .3-.3.5-.5.5-.3 0 .1.2 0 .5-.3.2-.3 1-1 1.8-1.5l1.4-1-.8 1-.5 1.2.7-.4c.3-.5 1.7-1.3 2.1-1.3.4 0-2.8 2.8-4.7 4.2l-1.6 1.1.6-1 .6-1.2-1 .6c-.8.5-1 .5-.7.1.5-.7.6-1.4.2-1.4-.4 0-1 1-.8 1.2.1.2 0 .2-.3 0a19 19 0 0 0-6.5 4.2A7 7 0 0 0 79 221c-.6 1.8-.6 2.6 0 1.7.8-1.3 1.5-.9 1.4.9 0 4-2 15.8-2.7 16.5-.5.5-.6.5-.6 0zm-.5-21c.1-.2 0-.4-.3-.4s-.6.2-.6.4.2.3.3.3c.2 0 .5-.1.6-.3zm-1.4-.9c0-.3-.2-.4-.5-.3-.4.2-.4.3 0 .5l.5.3v-.5zm-1.2-1.6c0-.2-.2-.3-.4-.3s-.3.1-.2.3l.4.4.2-.4zm-2.2-.9c0-.3-.1-.4-.3-.3-.2 0-.4.3-.4.5s.2.4.4.4.3-.3.3-.6zm-1.2-.8c0-.2 0-.3-.4-.3-.2 0-.4.1-.3.3l.3.3.4-.3zm-1.6-1.3-.1-.5c-.1 0-.3.2-.4.5 0 .3 0 .5.2.5s.3-.2.3-.5zm1.4 0c0-.3-.3-.7-.7-.9-.5-.3-.6-.2-.5.2.1.3.4.5.6.5.2 0 .2.2 0 .4 0 .2 0 .3.3.3.2 0 .3-.2.3-.5zm20.3-.2c.4-.6 0-.7-.5-.2-.3.4-.3.6 0 .6l.5-.4zm-22.6-.7c.7-.7.7-.7-.2-.4-.7.3-1 .3-1.4-.1-.3-.5-.3-.5.3-.3s.6.1 0-.2c-.3-.2-.5-.6-.4-.8.2-.3 0-.3-.3-.2-.3.1-.8 0-1-.3-.2-.3-.7-.4-1-.3-.2 0-.3 0-.2-.2 0-.1 0-.4-.4-.5a.6.6 0 0 0-.7.3c-.2.6 0 1 .5 1.1l1 .4c.7.4.8.4.6-.1-.2-.4-.1-.5.2-.4.2.2.4.5.4.8 0 .3 1.4 1.7 2 2l.6-.8zm-3.7-3.7-.3-.3a.2.2 0 0 0-.4.1c0 .2.2.4.4.4s.3 0 .3-.2zm15.1 1.4h.7c.1.1 0 .2-.5.2-.4 0-.5-.1-.2-.2zm10.3-2c-.5-.3-.7-.6-.3-.6.3 0 .4-.1 0-.4-.3-.3-.5-.3-1 0-.5.5-.5.5-.2 0 .7-.7.6-1.1-.4-1-.7.2-.8 0-.7-.6 0-.6 0-.8-.4-.7-.6.2-3.4-1-3-1.3 0-.1-.1-.2-.4-.2-.4 0-.8-.3-1-.7-.3-.4-.7-.6-.9-.5a2 2 0 0 1-1.2-.7l-.7-.5c0 .1-.6-.1-1.3-.5-.7-.4-1.3-.6-1.5-.5 0 0 0 .2.3.2.2 0 .4.1.4.3 0 .3-.3.2-.7 0-.4-.3-.6-.7-.5-1 .3-.7-.1-.5-4.7 2a19.5 19.5 0 0 1-4.2 1.9c.1-.2 1-.8 2-1.3 2-1 4.4-2.7 5.1-3.6.3-.3.6-1.7.7-3.2l.4-3.6.2-1 2.1.9c2.6 1 2.5 1 2.3.1-.2-.9.2-.9 1 0 .5.6.5.7 0 .8-.6.1-.4.3.6.7.7.3 1.3.8 1.3 1 0 .1-.7 0-1.5-.4-2.3-1-2.4-1-2.4 2.5v3.2l1.4.8 6.9 4 5.5 3.2-.7.8c-.9.9-1.3.9-2.5 0zm4.3 0c-.6-.4-.7-.5-.2-.3 1.1.6 1.8 1 1.4 1-.2 0-.8-.2-1.2-.6zm1-.2c-.3-.2-.4-.5-.3-.6.1 0 .4 0 .7.4.5.6.4.6-.4.2zm-1.7-1.1c-.3-.2-.5-.4-.4-.5.1-.1.5 0 1 .3.7.6.2.7-.6.2zm-25.8-5.8 1-.5c.9-.4.9-.4.3 0-.6.5-1.8 1-1.3.5zm23.3-1.8a118.5 118.5 0 0 1-4.3-3.3c.3 0 1 .3 1.7.7 1.2.7 1.2.7 1.1 0 0-.3 0-.6.3-.5H91c.4 0 .7.2.7.4s-.4.2-.9.1c-.6 0-.8 0-.7.4 0 .4.2.8.5 1 .3.4.5.4.8 0 .3-.5.3-.5.2 0-.2.5.1.9 1 1.5.6.4 1.2 1 1.2 1.2 0 .6.3.7-2.8-1.5zm-20.5 1.5c0-.1.4-.5 1-.8.5-.3.8-.4.6-.2-.2.4-1.6 1.2-1.6 1zm-.7-.7a58 58 0 0 0 1.1-.5c-.2.3-.6.6-.8.6l-.3-.1zm22.4-4.5c-.1-.2 0-.4.2-.4l.5.4c.1.2 0 .3-.1.3-.2 0-.5-.1-.6-.3zm-2-1.4c-.4-.4-.7-.7-.5-.7l1 .7c1 .9.6.9-.5 0zm4.3.1c0-.4.1-.5.3-.2v.7c-.2.1-.3-.1-.3-.5zm.6-2.7c.1-.3.3-.5.4-.4.1 0 0 .4-.2.6-.4.4-.4.3-.2-.2zm-16.1-1.3c-.5-.3-.5-.3 0-.3.4 0 .8.1.9.3.2.4-.2.4-1 0zm2-1h.7c.1.2 0 .3-.4.3-.5 0-.5-.1-.3-.2zm-1.3-.4c-.3-.2-.4-.4-.1-.4.2 0 .5.2.6.4.3.4.2.4-.5 0zm14.6-.7-1.8-1.2c-.4-.4 2.4 1 3.2 1.7 1.2.9.2.6-1.4-.5zm-16.2 0c-.1-.2 0-.3.3-.2.7.3.8.5.3.5-.2 0-.5-.1-.6-.3zm17.8-1.8.4-.5c.2-.1.2 0 .1.3-.2.6-.5.7-.5.2zm-19.4-1.2c0-.5.1-.5.3-.3v.7c-.2.1-.3 0-.3-.4zm21.4-.9-1.4-.6 1.5-.5c.8-.2 1.5-.5 1.4-.6a61.3 61.3 0 0 0-11.8-6.3 57 57 0 0 1 10.6 4.8l4.5 2.4-1 .6c-1.7.8-2.4.9-3.8.2zm1.9-.3c.5-.3.5-.4 0-.4-.4 0-.8.2-.9.4-.3.4.2.4.9 0zm-7.2.1c-.7-.5-.7-.5 0-.2l.9.6c0 .3-.2.2-1-.4zM78.7 181c-.8-.4-1.3-.7-1.1-.7.4 0 2.7 1 2.7 1.2 0 .2 0 .3-1.6-.5zm5.3-5.5c-1.4-.6-.7-.6.9 0 .7.3 1 .5.7.5a5 5 0 0 1-1.6-.5zm-7-.4c-.1-.2 0-.4.2-.4l1.8-.4c.8-.2 1.7-.2 2 0 .3.1-.1.3-1.2.5l-2.2.4c-.2.1-.5 0-.6-.1z" style="fill:#c59c63;stroke-width:.352778" transform="translate(-44.5 -173.2)"/>
  <path d="M76.1 245.6c-.6-.5-1-1.1-1-1.4 0-.3.4 0 1 .5l1.4 1c.3 0 .6-1.4.9-3.3.4-4.2 2.8-16.5 3.4-18a8.7 8.7 0 0 1 3.1-4 230.5 230.5 0 0 0 10.9-9.8 452.3 452.3 0 0 1 4.1-20.2l.2-2.5c0-1.2.1-1.4.7-1.4 1.2 0 2-.7 2-1.6 0-.5.2-.8.4-.7.7.4.4 3.6-1.2 12a71 71 0 0 0-2.2 25.7l.4 6-1.1 1-1.2 1.2-1.2-.7-1.6-1c-.2-.3-.8-2.4-1.5-4.8-.6-2.4-1.3-4.3-1.4-4.3-.2 0-1.6 1-3 2l-2.8 2.2-2.4 9.8-2.4 9.8-1.7 1.7c-1 1-2 1.7-2.2 1.7-.3 0-1-.4-1.6-1zm1-7.1c-1.2-.8-1.2-1.2-.5-6.3l.7-5.3.2-1.8-4-3a1237.8 1237.8 0 0 1-8.2-5.9l-.9 4.7c-1.2 7.8-1.2 7.6-3 9-1 .6-2 1-2.1 1-.2 0-.8-.4-1.4-1-1.2-1.2-.8-1.4.4-.3.5.4.9.7 1 .6 0 0 .2-1.5.2-3.2.1-2.3 0-3.1-.3-3.3-.3 0-.4-.4-.3-.7.1-.3 0-.6-.3-.7-.6-.2-.6-.8-.4-4.9.3-4.8.7-9 1-9.3.5-.4.6.2.3 2v1.8c.2 0 .4.4.4.8.1.5.2.1.2-.7.1-1.7.7-3.4 1.8-4.6 1-1 1.3-1 .5.2-.4.5-.8 1.5-1 2.2 0 .9 0 1 .2.7.2-.3.5-.4.6-.2.3.5 2.3 1.4 2.6 1.3.2 0 .6.3 1 .8.6.8 2.2 1.3 2.2.7 0-.5 1.4-2 1.6-1.8.1.1-.2.7-.6 1.3-.7 1-.7 1-.2 1.6.3.3.7.5.9.5.2 0 .4.2.4.5 0 .2.3 0 .6-.7.9-1.3 1.5-1.8 1.5-1 0 .3-.1.5-.3.5-.4 0-1 1.5-.9 2 .1.3.4.5.7.5.2 0 .5.1.5.3.1.2.5.4 1 .6.6.2.8.1.6-.2-.1-.2 0-.3.2-.3s.3.2.1.6c-.1.6 0 .9.8 1.3.5.3.9.5.7.5l.2.5c.3.4.5.4.7.1.5-.8.2-1.5-1.1-2.4-1-.7-1.3-1.2-1.2-1.5.2-.6 1.5-.8 1.5-.2 0 .2.2.4.5.4s.6.2.7.5c.1.3.4.5.7.5.3 0 .6.2.7.5.3.8-.1 1.7-.7 1.5-.6-.2-1 1-.6 1.7.3.5.5.3 1-.8a12 12 0 0 1 1.8-2c1.7-1.3 2.1-1.4 1-.2a5.4 5.4 0 0 0-2 3.8c-.3 1.2-.2 1.5.2 1.5.3 0 .6-.2.6-.5 0-.7.6-.7.8-.1.2.5-.5 6.7-1.4 11.9-.5 2.8-.8 3.7-1.1 3.6-.5-.1-.5 0 0 .4.5.7.3.7-.9 0zm-17-23.6c0-.6 0-.9-.5-.8-.4 0-.5 0-.2.2.2 0 .4.5.4.8 0 .4.1.7.2.7s.2-.4.2-.9zm22 1.8s.4-.5 1-.9l1-.6-1 1-1 .5zm-9.8-.6c-.5-.7-.4-1.8.2-2 .5-.2.5.9 0 1.2-.2.1-.2.4 0 .7.3.3.4.5.3.5l-.5-.4zm.8-.3c-.2-.3 0-.7.4-1 .8-.6 1.1.1.4.9-.5.4-.6.4-.8 0zm15.7-.6c0-.3.3-.6.8-.8l2.3-1.7c.8-.6 1.5-1 1.5-.9a7271 7271 0 0 1-4.1 3.4c-.4.2-.5.2-.5 0zm-4-.4a79 79 0 0 1 7.1-4.9c.3 0 0 .3-.6 1a5 5 0 0 1-1.6 1 7 7 0 0 0-1.8 1.3c-1.4 1-4.1 2.5-3.2 1.6zm4-1c.4-.3.7-.5.8-.4l-.6.6c-.7.4-.7.4-.2-.2zM67.5 212c-.2-.2 0-.5.3-.8.4-.3.5-.3.5.1 0 .7-.6 1.1-.8.7zm24-.6 1.1-.9-.7.9c-.4.5-.9.9-1 .9l.7-1zm-25-.3c0-.6.7-1.1 1-.8.1.1 0 .5-.4.8-.5.6-.6.6-.6 0zm-1.8-1c-.5-.5-.6-.6 0-1.2.3-.5.4-.5.4-.2-.1 1.3 0 1.6.5 1 .3-.5.6-.6.7-.3.6 1-.5 1.4-1.6.6zm-2-1.5c0-.6.3-.9.9-.7.4.2.4.3 0 .7-.4.6-1 .6-1 0zm28.4 0c.1-.3-.3-.8-1-1.2-.6-.3-1.2-.8-1.2-1.1 0-.3-.2-.5-.6-.4-.4 0-.6 0-.4-.3.1-.2-.2-.5-.7-.7-.4-.2-1-.5-1-.7-.2-.2-.5-.3-.9-.1-.3.1-.4 0-.3-.2.2-.4-.8-1-1.1-.6-.1 0 0 .2.2.2.3 0 .4.1.3.3-.2.2-.4.2-.7 0-.3-.3-.4-.6-.2-.7.5-.3-.9-1.2-2.7-1.8a30 30 0 0 1-3.1-1.3l-1.7-.8-4.4 2.3a22.2 22.2 0 0 1-4.2 2c.1-.2 1.3-1 2.6-1.6 1.3-.7 3-1.8 3.7-2.5 1.2-1 1.3-1.3 1.5-4l.4-3.7.2-1 .7.7c.4.5.8.8 1.2.6.3-.1.4 0 .3.2-.2.3 0 .3.5.1.6-.1.8 0 .6.2-.2.3 0 .3.7 0 .6-.2.9-.3.8-.1-.2.1 0 .4.3.7.6.4.5.4-.5.2l-1.2-.2v6.5l1.4.8 6.8 4c4.6 2.6 5.4 3.3 5.1 3.7-.5.7-1.6 1.1-1.4.5zm2-7.6c0-.2-1.1-1-2.3-1.8l-2-1.6c.2-.1 1 .3 2 1L93 200c.4.2.7.5.7.8 0 .5-.2.6-.5 0zm5.9-16.2c0-.2.4-.4.8-.5.7-.1.7-.1.1-.4-.4-.2-.9-.2-1.3 0-.4.3-1 .4-1.4.2-.7-.3-.6-.3.9-.8.9-.2 1.6-.6 1.6-.7 0-.2-.1-.3-.3-.3a15 15 0 0 1-4.1-2.4s1.2.4 2.5 1.2l3.6 1.9 1.3.6-1.7.7c-1.9 1-2 1-2 .5zm2.6-1.1c.2-.2-.1-.4-.6-.3-.6 0-.7 0-.2.3.6.4.6.4.8 0zm-8-4.5a21 21 0 0 0-2.8-1.3l-2.3-1.1c.2-.2 5.3 2 5.7 2.3.4.5-.2.5-.7 0zm-9-3.6c-.4-.2-.4-.4-.2-.4l.8.4c.3.2.4.3.2.3l-.9-.3zm-6.8-.8c1-.6 2.9-1 2.9-.8 0 .2-1.3.7-2.7 1l-1 .2z" style="fill:#c4955b;stroke-width:.352778" transform="translate(-44.5 -173.2)"/>
  <path d="M76.1 245.6c-.6-.5-1-1.1-1-1.4 0-.3.4 0 1 .5l1.4 1c.3 0 .6-1.4.9-3.3.4-4.2 2.8-16.5 3.4-18a8.7 8.7 0 0 1 3.1-4 230.5 230.5 0 0 0 10.9-9.8 452.3 452.3 0 0 1 4.1-20.2l.2-2.5c0-1.2.1-1.4.7-1.4 1.2 0 2-.7 2-1.6 0-.5.2-.8.4-.7.7.4.4 3.6-1.2 12a71 71 0 0 0-2.2 25.7l.4 6-1.1 1-1.2 1.2-1.2-.7-1.6-1c-.2-.3-.8-2.4-1.5-4.8-.6-2.4-1.3-4.3-1.4-4.3-.2 0-1.6 1-3 2l-2.8 2.2-2.4 9.8-2.4 9.8-1.7 1.7c-1 1-2 1.7-2.2 1.7-.3 0-1-.4-1.6-1zm1.3-6.9c-.4-.2-.6-.5-.4-.7 0-.2 0-.2-.4-.1-.7.3-.7-1 0-5.7l.7-5.3.2-1.8-1.8-1.3c-1-.8-1.6-1.5-1.5-1.7.1-.3 0-.3-.2-.2-.4.3-2.7-1.3-7.6-5-.5-.5-1-.8-1.1-.7l-.9 4.7c-1.2 7.8-1.2 7.6-3 9-1 .6-2 1-2.1 1-.2 0-.8-.4-1.4-1-1.2-1.2-.8-1.4.4-.3.5.4.9.7 1 .6.3-.3.3-6.4 0-6.5-.2-.1-.3-.6-.2-1.2 0-.9 0-1-.5-.8-.4.1-.5-.1-.5-1.7 0-2 .6-8.4.8-9.8.3-1.4.7-1.3.5.1l.1 2.4c.2.6.2 1 0 1s-.4.2-.4.5.2.5.4.5c.3 0 .4.5.3 1.1-.1.6 0 1 0 .8.2-.1.4-1.7.5-3.4 0-1.8.3-3.5.5-4 .4-.5.4-.3.3 1.6l.1 2.3c.2.1.3-.4.3-1.1l.3-1.4c.2-.3 2.3 1 2.5 1.5.1.3.5.5.9.5s.6.3.6.8c0 .6.1.6.5.3s.5-.1.4.9c0 .7 0 1.1.2 1l.2-.4.3-.9c.2-.5.4-.5 1-.2.3.2.5.6.4.7-.1.2-.4.2-.6 0-.2 0-.3 0-.1.2.1.2.5.3 1 .2.9-.3 2 .8 1.8 1.7-.1.4 0 .7.2.7s.3-.2.2-.4c0-.1 0-.4.2-.5.2-.1.3.2.3.8 0 .8.1.9.4.3.4-.6.4-.6 1 0 .2.5.7.8 1 .8.2 0 .5.2.5.4 0 .3 0 .4.1.3.4-.4 2.3 1.7 2.3 2.4 0 .4.3 0 .8-.8.4-.8 1.2-1.9 1.8-2.5 1-.8 1-.8.3 0-1.4 1.5-2.2 6.5-1.1 6.9.2 0 .4 0 .3-.2-.1-.2 0-1 .4-1.7l.7-1.4-.2 3.5a39.2 39.2 0 0 1-2.2 12.6c-.5-.1-.5 0 0 .4.4.7.4.7-.5.2zm-8-21c-.4-.7-.5-.5-.2.4.2.3.3.5.4.4.1-.1 0-.5-.2-.8zm-1.2-1.1c-.4-.4-.7.2-.4.7.2.3.3.3.4 0v-.7zm-4.4-2c0-.3-.2-.5-.3-.4v.5c.4.6.6.5.3-.1zm2.4.1c0-.2-.2-.3-.4-.3s-.3.1-.1.3c0 .2.2.4.3.4l.2-.4zm-3.5-1c0-.2-.2-.4-.4-.4s-.3.2-.2.4l.4.3s.2-.1.2-.3zm.2-1.8c-.1-.3-.2-.2-.2.2 0 .3 0 .5.2.4v-.6zm13.9 7c0-.3.2-.7.5-1 .3-.3.5-.2.7.2 0 .3-.1.7-.5.9-.6.3-.7.2-.7-.1zm-1-1.2c0-.5.6-1.4.7-1.2.1.1 0 .5-.3.9-.3.3-.5.5-.5.3zm9.4-3.1c0-.2 6-4.5 6.6-4.7 1.2-.4.3.4-2.5 2.2a28 28 0 0 0-3.2 2.3c-.2.3-.9.5-.9.2zm6.4-3.2c.4-.5.9-.9 1-.9l-.7.9c-.4.5-.9.9-1 .9l.7-1zm-.4-2.8c.3-.3 0-.6-1-1.1-.7-.4-1.3-1-1.3-1.2 0-.3-.2-.5-.6-.5-.3 0-.5-.1-.4-.3.1-.1 0-.4-.4-.5l-1.1-.7a1 1 0 0 0-1-.2c-.5.1-.5 0-.3-.3s.1-.4-.3-.2c-.4.1-.6 0-.4-.2.1-.2 0-.3-.6-.1-.6.1-.7 0-.4-.1.3-.2.4-.4.2-.5-1.8-1.1-3-1.7-3.6-1.7-.4 0-.8-.1-.8-.3l-1.7-.9c-1.4-.5-1.6-.5-2.5 0l-2 .9c-.9.3-.8.2.4-.8 1.4-1.3 1.9-2.8 2-6.4 0-1 .2-1.8.6-2 .3-.4.4-.4.3-.2-.1.3.4.7 1.4 1l1.7.6v3.3l-.2 3.3 1.3.9 6.9 4c4.6 2.6 5.4 3.3 5.1 3.7-.2.3-.7.6-1 .8-.6.2-.6.1-.3-.3zm1.8-7.8c-.4-.4-.3-.5.1-.5.3 0 .6.2.6.5l-.1.5c-.1 0-.4-.2-.6-.5zm-3.7-2.6c-.1-.2 0-.4.1-.4.2 0 .5.2.6.4.1.2 0 .3-.1.3-.2 0-.5-.1-.6-.3zm-9-5c-.3-.2-.4-.3-.1-.3.2 0 .5.1.6.3.3.5.2.5-.5 0zm18.7-8.4c0-.2.4-.4.8-.5.7-.1.7-.1.1-.4-.4-.2-.9-.2-1.2 0-.3.2-1 .3-1.5.2-.8-.2-.7-.3.8-.8 1-.2 1.7-.6 1.7-.7 0-.2-.1-.3-.3-.3a15 15 0 0 1-4.1-2.4s1.2.4 2.5 1.2l3.6 1.9 1.3.6-1.7.7c-1.9 1-2 1-2 .5zm2.6-1.1c.2-.2-.1-.4-.6-.3-.6 0-.7 0-.2.3.6.4.6.4.8 0zm-8-4.5a21 21 0 0 0-2.8-1.3l-2.3-1.1c.2-.2 5.3 2 5.7 2.3.4.5-.2.5-.7 0zm-16-4.4c.7-.4 3-1 3-.8 0 .2-1.3.7-2.6 1-.9.2-1 .2-.4-.2z" style="fill:#af9466;stroke-width:.352778" transform="translate(-44.5 -173.2)"/>
  <path d="m76 245.5-1-1.2c.1-.1.8.3 1.6 1 .7.7 1.2 1.2 1 1.2-.3 0-1-.5-1.6-1zm2.2.4c0-.2.5-.7 1.2-1.1 1-.7 1.3-1.1 2.1-4.2a92.2 92.2 0 0 0 2.1-9.5c.2-1-.4-1-1.4 0-.6.7-1.7 4.4-1.7 6.1 0 .2 0 .4-.2.3-.2-.1-.1-.8 0-1.5.2-.7.3-2 .3-3 0-.9.4-3 .8-4.7.4-1.7.6-3.1.5-3.2 0-.1.1-.8.5-1.5.6-1.5 5.1-5.5 5.8-5.1.2.1.2 0 0-.1 0-.3.4-.8 1.2-1.2a42 42 0 0 0 3.4-2.5c2.5-2 3.6-4 4.1-7.7l.7-3.7.6-2.5c0-.8.3-1.8.5-2.3l.6-3c1.1-7 1.1-7 2.2-7.7 1.1-.7 1.9-2.1 1.6-3-.1-.2 0-.4.1-.4.7 0 .4 3.5-1 10.8a76.8 76.8 0 0 0-2.4 27.2c.3 5.1.3 5.4-.3 6.1-1.3 1.4-1.9 1.5-3.3.6-1.2-.8-1.3-1.1-2.5-5.2l-1.3-4.7c-.2-.4-5.8 4-6.1 4.9l-2.1 8.2c-2.4 10.1-2.7 11.1-3.8 12.1-1.6 1.4-2.2 1.9-2.2 1.5zm5.2-17.1c0-.7 0-.7-.3-.3-.4.6-.4 1 0 1 .1 0 .3-.3.3-.7zm1-4.2c0-.2 0-.3-.2-.3s-.4.1-.4.3l.2.4.4-.4zm-4.7 16.2c0-.4 0-.6.1-.4v.9l-.1-.5zm-3.2-3c-.4-.4-.4-1 .1-5.6.4-3.3 1.2-5.2 1.7-4 .1.4.2.4.2 0 0-.2-.2-.5-.5-.6-.7-.3-.7-1.3.2-1.8.5-.4.7-.4.8 0 .2.2.2 0 .1-.3 0-.4.2-1.3.6-2.1l.6-1.4-.2 3.2A48 48 0 0 1 79 235c-.4 2.6-1 4.6-1 3 0-.3-.3-.7-.5-.8-.2-.1-.3 0-.1.2.1.2 0 .4-.2.4-.4 0-.4 0 0 .3.3.2.4.4.2.4-.3 0-.6-.2-.8-.5zm-18.5-8-1.2-1 1.2.8c.7.4 1.2.7 1.3.6 0 0 .3-1.6.4-3.4.2-2.7.2-3.2-.3-3.2-.4 0-.5-.3-.3-1.1 0-.9 0-1-.5-.8-.4.1-.5-.1-.5-1.7 0-2 .6-8.4.8-9.8.3-1.4.7-1.4.5 0a6 6 0 0 0 0 2.3c.3.7.3 1.2 0 1.2-.1 0-.3.2-.3.5s.2.5.4.5c.3 0 .4.5.3 1.1-.1.6 0 1 0 .8.2-.1.4-1.7.5-3.5 0-1.7.3-3.5.6-3.9.3-.5.3-.2.2 1.6l.1 2.3c.2.1.3-.4.3-1.1l.3-1.4c.2-.3 2.3 1 2.5 1.5.1.3.5.5.9.5s.6.3.6.8c0 .6.1.6.5.3s.5-.1.4.9c0 .7 0 1.1.2 1l.2-.4.3-.9c.2-.5.4-.5 1-.2.3.2.5.6.4.7-.1.2-.4.2-.6 0-.2 0-.3 0-.1.2.1.2.5.3 1 .2.9-.3 2 .8 1.8 1.7-.1.4 0 .7.2.7s.3-.2.2-.4c0-.1 0-.4.2-.5.2-.1.3.2.3.8 0 .8.1.9.4.3.4-.6.4-.6 1 0 .2.5.7.8 1 .8.2 0 .5.2.5.4 0 .3 0 .4.1.3.4-.4 2.3 1.7 2.3 2.4 0 .4.3 0 .8-.8.4-.8 1.2-1.9 1.8-2.5 1-.8 1-.8.3 0-.9 1-1.4 2.7-1.7 5.5-.1 1.8-.4 2.2-.9 1.3-.1-.3-1-1-1.9-1.7-.9-.6-1.5-1.2-1.3-1.4.1-.3 0-.3-.2-.2-.2.2-2.2-1.1-4.5-2.8-2.2-1.6-4.1-3-4.2-2.9 0 .1-.6 2.6-1 5.6L63 228c-.3.7-3 3-3.7 3l-1.3-1.1zm2.1-7.5s-.3.1-.4.5c-.2.5-.2.5.2.1.2-.2.3-.5.2-.6zm9.3-4.6c-.4-.7-.5-.5-.2.4.2.3.3.5.4.4.1-.1 0-.5-.2-.8zm-1.2-1.1c-.4-.4-.7.2-.4.7.2.3.3.3.4 0v-.7zm-4.4-2c0-.3-.2-.5-.3-.4v.5c.4.6.6.5.3-.1zm2.4.1c0-.2-.2-.3-.4-.3s-.3.1-.1.3c0 .2.2.4.3.4l.2-.4zm-3.5-1c0-.2-.2-.4-.4-.4s-.3.2-.2.4l.4.3s.2-.1.2-.3zm.2-1.8c-.1-.3-.2-.2-.2.2 0 .3 0 .5.2.4v-.6zm13.9 7c0-.3.2-.7.5-1 .3-.3.5-.2.7.2 0 .3-.1.7-.5.9-.6.3-.7.2-.7-.1zm-1-1.2c0-.5.6-1.4.7-1.2.1.1 0 .5-.3.9-.3.3-.5.5-.5.3zm9.4-3.1a45 45 0 0 1 7-4.7l-2.9 2.2a28 28 0 0 0-3.2 2.3c-.2.3-.9.5-.9.2zm6.2-3 .8-.7c.1 0 0 .3-.4.7l-.8.7c-.1 0 0-.3.4-.7zm0-3.3c-1-1-1.7-1.5-2-1.4-.1 0-.2-.2 0-.4 0-.3-.3-.7-.9-1l-.7-.6c.3 0 3.8 2 4.8 2.6.1.1-.4 1.2-.6 1.2l-.7-.4zm-6.7-5c-.3-.3-.5-.5-.3-.5l1 .5c.4.3.5.5.3.5l-1-.5zm8.3-2.5c-.4-.4-.3-.5.1-.5.3 0 .6.2.6.5l-.1.5c-.1 0-.4-.2-.6-.5zm-20-.7c.7-.5 1.2-.9 1.4-.9.2 0 .6-1.3.8-3.3.4-3.8.6-4.4 1-4.7.2-.1.2 0 .1.2s.4.6 1.4 1l1.6.6-.2 3.3-.2 3.3 1 .5 1.1.7c0 .2-1.6 0-1.8-.2l-1.7-.8c-1.4-.5-1.6-.5-2.8 0-2.5 1.2-2.7 1.2-1.6.3zm16.3-2c-.1-.1 0-.3.1-.3.2 0 .5.2.6.4.1.2 0 .3-.1.3-.2 0-.5-.1-.6-.3zm-9-4.9c-.3-.2-.4-.3-.1-.3.2 0 .5.1.6.3.3.5.2.5-.5 0zm17-9c-.7-.2-.5-.4 1-.9 1-.4 2-.6 2.3-.5.6.2-2.5 1.4-3.3 1.3zm-1.1-3.7c-.3-.2-.4-.3-.1-.3.2 0 .5.1.6.3.3.5.2.5-.5 0zm-5.8-2.8c-.8-.3-1.3-.6-1.1-.7.5 0 3.3 1.3 2.8 1.4a6 6 0 0 1-1.7-.7zm-12.8-2.9c.7-.4 3-1 3-.8 0 .2-1.3.7-2.6 1-.9.2-1 .2-.4-.2z" style="fill:#b38b57;stroke-width:.352778" transform="translate(-44.5 -173.2)"/>
  <path d="m76 245.5-1-1.2c.1-.1.7.3 1.4.8.6.6 1 1.2 1 1.3-.1 0-.7-.3-1.4-1zm2.2.4c0-.2.5-.7 1.2-1.1 1-.7 1.3-1.1 2-4.2a48 48 0 0 0 2.2-11.3c0-2.3-.6-2.6-.6-.3 0 .7-.4 1.5-.7 2-.4.4-1 2-1.3 3.4l-.6 2.7.1-2.8A34.5 34.5 0 0 1 82 226l.8-3.3a21 21 0 0 1 5.5-4c.2 0 .2 0 0-.3 0-.2 0-.4.2-.6.2 0 .4 0 .4.3 0 .2.2 0 .3-.3.2-.5.5-.8.7-.8.1 0 1.4-.9 2.7-2 2.8-2.2 3.9-4.1 4.4-8l.7-3.6.6-2.5c0-.8.3-1.8.5-2.3l.6-3c1.1-7 1.1-7 2.2-7.7 1.1-.7 1.9-2.1 1.6-3-.1-.2 0-.4.1-.4.7 0 .4 3.5-1 10.8a76.8 76.8 0 0 0-2.4 27.2c.3 5.1.3 5.4-.3 6.1-1.3 1.4-1.9 1.5-3.3.6-1.2-.8-1.3-1.1-2.5-5.2l-1.3-4.7c-.2-.4-5.8 4-6.1 4.9l-2.1 8.2c-2.4 10.1-2.7 11.1-3.8 12.1-1.6 1.4-2.2 1.9-2.2 1.5zM84 226c.1-.2 0-.3-.2-.3s-.3.1-.3.3l.1.4.4-.4zm.3-1.4c.4-.5-.3-.6-.7-.1-.4.4-.4.5 0 .5.3 0 .6-.2.7-.4zm3.8-3.7c0-.1-.2 0-.4 0-.2.2-.6 0-.8-.2-.2-.4-.3-.4-.1 0 0 .4 0 .9-.3 1.1-.2.2 0 .2.6-.2l1-.7zm-28.8 9.6c.2-.5.8-8 1-13.7l.3-4.2 2.2 1.7L65 216c.1.1-1.7 11-2 12a6 6 0 0 1-2 1.9c-1.7 1.2-2 1.3-1.8.6zm-1.4-.7-.7-.8.8.7c.7.6 1 1 .7 1-.1 0-.5-.4-.8-.9zm19.8-7c.3-1.5.5-1.8.5-.6 0 .4-.2 1-.4 1.4-.2.3-.3.1 0-.7zm-3.2-1c-.1-.2 0-.4.1-.4.2 0 .4.2.4.4l-.1.4-.4-.4zm17.2-14c0-.6.1-.7.5-.6.5.2.5.9-.1 1-.2.1-.4-.1-.4-.5zm-18-8.2c1-.8 1.3-1.5 1.6-4.7l.5-3 1.8.5 1.6.6v2c0 1 0 2.5-.2 3.3l-.2 1.3-1.5-.2a4 4 0 0 0-2.6.3c-1.4.7-1.8.7-1 0zm25.1-16.3.6-.3c.2 0 .2.2.1.3 0 .2-.3.4-.5.4s-.3-.2-.2-.4z" style="fill:#907455;stroke-width:.352778" transform="translate(-44.5 -173.2)"/>
  <path d="m81.1 242.8 1.7-6.4c.6-2.7 1.2-4.7 1.3-4.5a79.5 79.5 0 0 1-3 10.9zm-21.6-12.3a4 4 0 0 0 .5-2l.4-3.2a53 53 0 0 0 .7-7.1c.2-1.4.1-2-.2-2-.2 0-.4-.7-.4-1.7V213l1 .6 2.3 1.7 1.3 1.1-1 6a23 23 0 0 1-1.6 6.5l-2 1.5c-1.2.6-1.4.7-1 .2zM58 230c-.4-.6-.4-.6.2-.1l.6.6c0 .3-.3 0-.8-.5zm26.6-.6c0-.5 0-.5.2-.3v.7c-.2.1-.3 0-.2-.4zm11.7-.3c-1-.6-1.4-1.3-2-3.4a67 67 0 0 1-1.9-6.7c-.3 0-1.7 1-2.7 1.7-.6.5-1.2.9-1.3.8-.2 0-.3 0-.3.2s-.3.3-.6.3c-.2 0-.4 0-.3-.2a26 26 0 0 1 5.4-3.6c0-.4 3.3-2.4 4-2.4.2 0 0 .2-.5.4-1.1.4-1.4 1.6-.8 3.8.4 1.5.5 1.5.5.6 0-1 1-3.9 1-3.2l-.5 2.7c-.5 2.1-.5 2.4 0 3.4.3.6.6 2 .8 3.2.3 2.8.5 3 1.7 2 1-.8 1-.9.6-2.6l-.4-4.5c0-1.5-.2-3-.3-3.1-.2-.4-.3-.7-.4-2.1 0-.7-.1-1-.4-.7-.3.1-.2 0 0-.5.4-.4.8-2 1-4.4.2-2 .6-4 .8-4.4.3-.5.4-.5.2.6a83 83 0 0 0-.2 15.2l.4 5.7-1 1c-1.4 1.2-1.4 1.2-2.8.2zm-11.4-1.3c0-.5.1-.7.2-.4.1.2.1.6 0 .8 0 .3-.2 0-.2-.4zm.7-2.7c0-.4.1-.5.2-.2v.7c-.1.1-.2-.1-.2-.5zm.3-1.1c0-.4 1-1.5 1.4-1.5 0 0-.1.4-.5.8l-.8 1v-.3zm10.9-14.6c.1-.5.3-.6.4-.4 0 .3 0 .7-.3.9-.2.2-.3.1-.1-.5zm3.3-4.7c0-.5 0-.5.2-.3v.7c-.1.1-.2 0-.2-.4zm.5-3.4c.1-1.2.5-3.1.7-4.1.3-1 .7-3.1.9-4.6l.8-5.4c.4-2.3.5-2.4.5-1a94 94 0 0 1-2.9 15.1zm-26.8-1.6c1-.6 1.4-2 1.8-5.3 0-1.4.2-2.6.3-2.6l1.8.7 1.6.7-.2 2.2a42 42 0 0 0-.2 3c0 .8-.1.8-1.2.6-.8-.1-1.6 0-2.6.5-1.7.9-2.3 1-1.3.2zm26-4.4a.6.6 0 0 1 .1-.7c.2-.2.4 0 .4.4 0 .8-.1.8-.4.3zm.2-2.3c.1-.8.2-.8.3-.4.1.4 0 .9-.2 1-.2.3-.2 0-.1-.6z" style="fill:#7b624e;stroke-width:.352778" transform="translate(-44.5 -173.2)"/>
  <path d="M82 239.6c.1-.4.2-.5.3-.2v.6c-.1.2-.2 0-.2-.4zm-21.9-11.1c.1-1.9.2-2 .7-1.6.6.7 1 .7.7.1-.2-.7.6-1.4 1.1-.9.3.3.4.3.4-.2 0-.3-.1-.6-.3-.6-.1 0-.3-.6-.3-1.3 0-.7-.3-2-.5-2.9-.2-.8-.2-1.6-.2-1.7l-.1-1c-.2-.5-.2-.9 0-1 .2-.1.4.1.4.6 0 1.5.3 3.2.6 3.7s.4.5.8 0c.7-.7.9-3.6.2-3.2-.3.2-.3.1 0-.2.7-.8.5-1.1-.3-.7l-.8.3.8-.5c.4-.4.8-.8.8-1a227.5 227.5 0 0 1-2.2.3c-.4.1-.6 0-.6-.3s-.2-.6-.4-.7c-.2 0-.4-.7-.3-1.4l.1-1.4 2.2 1.7c1.8 1.3 2.2 1.8 2 2.4l-1 6a24 24 0 0 1-1.4 5.8c-.3.3-.4.3-.4-.3 0-.4.1-.7.3-.7.1 0 .3-.2.3-.4s-.3-.2-.7 0c-.3.3-.6.9-.6 1.4 0 .5-.3 1-.7 1.3-.7.5-.7.4-.6-1.6zm1 .1c-.1-.3-.3-.5-.4-.4v.8c.2.3.4.5.5.4v-.8zm2.4-5.2c.1-.3 0-.6-.1-.7-.2-.1-.4 0-.4.5 0 .8.2 1 .5.2zm32.8 5.7c-1.3-.8-1.7-2-3.2-7.6l-.6-2.6.9-.6c.4-.4.9-.6 1-.5.3.2 1 3.4.9 3.6l-.5-.8c-.4-1-1-1.2-1-.3 0 .4.3.9.9 1.1.8.4 1 .8 1.6 2.7.3 1.3.5 2.5.4 2.6-.1.2 0 .7.2 1l.7 1.5c.4.9.1.9-1.3-.1zm-.5-4.2c-.6-1.7-1.2-2.7-1.5-2.7-.5 0-.2.9.4 1.6l.9 1.3.4.6-.2-.8zm-34.9-.7c0-.7 0-.7.4-.3.4.7.4 1 0 1-.2 0-.4-.3-.4-.7zm38.5-1.3c0-.7.1-1 .2-.7v1.3c0 .3-.2 0-.2-.6zM88.8 221l.5-.7-.2.7-.5.7.2-.7zm-26-.6c-.1-.4.1-1 .4-1.2.4-.3.5-.3.5 0 0 .2-.1.4-.3.4-.2 0-.4.3-.5.8-.1.7-.1.7-.2 0zm36.3-.1c0-.5 0-.7.1-.5v1l-.1-.5zm-.4-5.6c0-1.2.1-2.2.3-2.2.4 0 .4 2.3 0 3.6-.2.6-.3.3-.3-1.4zm.3-3c0-.5.1-.6.2-.3v.7c-.1 0-.2-.1-.2-.5zm0-1.5c0-.4.1-.5.2-.2v.7c-.1 0-.2-.1-.2-.5zm.4-1.7c0-.6.1-.8.2-.5v1c-.1.3-.2 0-.2-.5zm-25-9.4c.6-.8.9-1.9 1.1-4.2l.4-3.1 1.7.7c.9.4 1.6.9 1.6 1 0 .2-.1.3-.3.1-.3-.1-.3.7-.2 2.7.2 1.8.1 2.8-.1 2.8a.7.7 0 0 1-.6-.3c-.2-.4-1.6 0-3.3.8l-1.2.6zm27.8-6.3c0-.5.1-.7.2-.5v1c0 .2-.2 0-.2-.5zm.4-1.8c0-.5 0-.7.2-.4v.8c-.1.3-.2 0-.2-.4zm.4-2.1c0-.7 0-1 .1-.6v1.2l-.1-.6zm.3-2.5c0-.7 0-1 .2-.6v1.2c-.1.4-.2.1-.2-.6z" style="fill:#745946;stroke-width:.352778" transform="translate(-44.5 -173.2)"/>
  <path d="M62.4 228.4c.2-.5.5-.8.6-.6 0 .2-.2.7-.5 1-.5.5-.5.5-.1-.4zm33.1 0a31 31 0 0 1-2.5-7.6c0-.9 1.5 2.7 2 4.5l.3 1.5c.2 1 .4 1.3.7 1.2.4-.1.5 0 .5.5 0 .9 0 .9-1 0zm-32.4-2c0-.5 0-.7.1-.5v1l-.1-.5zm.7-4c0-.7 0-.9.2-.5v1c-.1.3-.2 0-.2-.6zm.3-2c0-.5.1-.7.2-.5v1c0 .2-.2 0-.2-.5zm28.5-.7c0-.7 1.4-1.9 1.9-1.6.5.4.3 1.5-.4 1.7l-1 .4c-.3.2-.5 0-.5-.5zm-28.2-2.1c-.1-1.2-.2-1.3-1.4-1.3-1.7 0-2.5-.6-2.1-1.7.2-.5.2-1 0-1.1-.4-.5 2 1 3 1.9 1.1.8 1.2 1 1 2.2l-.4 1.2zm10-18.3c.7-.8 1.8-3.3 1.4-3.3-.1 0-.2-.9-.1-2v-2.1l1.4.5c.8.3 1.3.7 1.2 1-.1.1-.3.1-.4-.1-.1-.2-.6-.4-1-.5-.6-.1-.7 0-.7 2.3 0 1.7.2 2.4.5 2.4s.4.1.3.3c-.1.2 0 .4.2.5.3 0 .2.2-.3.4l-1.9.8c-1.2.5-1.2.5-.6-.2zm3.8-.8c0-.2.1-.3.3-.2l.4.4-.4.2c-.2 0-.3-.2-.3-.4zm0-1.7c0-.5.1-.7.2-.5v.9c0 .2-.2 0-.2-.4z" style="fill:#6a4d37;stroke-width:.352778" transform="translate(-44.5 -173.2)"/>
</svg>