<svg xmlns="http://www.w3.org/2000/svg" width="277.3" height="277.3" viewBox="0 0 73.4 73.4">
  <path d="M44.4 210v-36.7h73.4v73.4H44.4Z" style="fill:#fefefe;stroke-width:.352778" transform="translate(-44.5 -173.2)"/>
  <path d="M57.4 243.6c-.4-.5-1-3.4-2-11.6l-1.3-11 1.2-2.6c.7-1.6 1.3-3.4 1.4-4.6l.2-2h-1.4c-2.3 0-2.7-.7-3.3-5.6l-.5-4.4 6.7-7.4c3.7-4 8.7-9.3 11-12 4.5-5 6.5-6.9 7.7-7.2a71.1 71.1 0 0 1 25.4 9c3 2 6.9 5.3 7.8 6.7 1.8 2.7 1.9 7 .3 18.3-1.6 11.5-3.2 15.8-6.8 19.1-3.3 3-6 4.1-22.3 8.9a812.7 812.7 0 0 0-23.2 7c-.2 0-.6-.3-1-.6z" style="fill:#f5d3a2;stroke-width:.352778" transform="translate(-44.5 -173.2)"/>
  <path d="M57.4 243.6c-.4-.4-.6-1-.6-1.5l-1.3-11-1.2-10.3 1.2-2.5c.7-1.5 1.4-3.4 1.5-4.6l.2-2H56c-2.5 0-2.8-.6-3.5-5.7l-.7-4.4 5.8-6.1L69 183a55 55 0 0 1 7.1-7.2l1.6-.9 5.5 1.4a60 60 0 0 1 21.4 9.3c6.5 4.8 7.1 6 7 12.6 0 4-1.2 13.9-2.3 19-1.1 5.4-3.1 9.2-6 11.5-3 2.5-6 3.7-18.4 7.3a1090 1090 0 0 0-26.7 8.1l-.7-.6zm1.1-42.6c1.5-.4 2.5-.9 2.3-1-.2 0-1 0-1.7.3l-2 .5-1.5.5c-1.8.8 0 .7 3-.3z" style="fill:#e2a998;stroke-width:.352778" transform="translate(-44.5 -173.2)"/>
  <path d="M57.6 243.4c-.6-.7-.9-2.5-2-11.7l-1.3-11 1.2-2.5a16 16 0 0 0 1.5-4.5l.2-2H56c-2.4 0-2.8-.6-3.5-5.3l-.6-4.5a94 94 0 0 1 6.1-6.8c3.4-3.6 8.4-9 11.1-12.1 5.1-5.8 7.3-7.7 8.7-7.7 1.1 0 9.7 2.3 13.5 3.6 8.4 3 17.8 9.2 19.4 12.8 2 4.5-.5 26-3.7 32.4-1.9 3.7-5.2 6.3-10.5 8.3l-10.9 3.4c-8 2.3-26.5 8-27 8.2-.1.1-.5-.2-.9-.6zm1.8-42.6c2-.7 3.7-1.2 3.6-1.3-.2-.2-4 .6-4.8 1l-2.2.7c-1 .2-1.6.5-1.5.7.1.2.5.3.7.2l4.2-1.3zm10.3-3.2c0-.2 0-.2-.4-.1-.6.2-.7.5-.2.5.2 0 .4-.2.6-.4z" style="fill:#e9d060;stroke-width:.352778" transform="translate(-44.5 -173.2)"/>
  <path d="M57.6 243.4c-1-1.1-1.5-6.8-.6-7.1.5-.2.5-.5.3-1.7a220.3 220.3 0 0 1-1.4-11.3c-.2-1.2-.1-1.3 1.4-2.4.9-.6 1.8-1 2.1-.8.3.1 1-.2 1.8-.8 1.4-1 1.7-2.1.5-1.8l-.7-.1c0-.2-.9-1.2-2-2.2-1.2-1.2-1.9-2-1.9-2.6 0-.7-.1-.9-1.2-.9-1 0-1.2-.1-1.4-.8-.6-3.5-1-4.7-1.6-5.3a6 6 0 0 1-1-2.4l-.1-1.6 6-6.5c3.5-3.6 8.5-9 11.2-12.1 5.1-5.8 7.3-7.7 8.7-7.7 1.1 0 9.7 2.3 13.5 3.6 8.4 3 17.8 9.2 19.4 12.8 2 4.5-.5 26-3.7 32.4-1.9 3.7-5.2 6.3-10.5 8.3l-10.9 3.4c-8 2.3-26.5 8-27 8.2-.1.1-.5-.2-1-.6zm24.9-13.9c1.5-.3 1.4-.8-.2-.8-2.3 0-2.9-.3-3.1-1.7l-.3-1.2-.6.8c-1.8 2 .5 3.6 4.2 3zm2.2-2.5c.7-.4.2-1-.8-1.2-1.4-.2-2.6.8-1.8 1.6.2.2 2 0 2.6-.4zM71 218c.2-.4 0-.7-.8-1-1.2-.4-1.2-.6-.6-4 .2-1 .2-1-.3.3-.4.6-.7 2-.7 3-.1 1.5 0 1.9.5 2 1.2.3 1.7.2 2-.3zm5-.6c.3-.3.1-.3-.5-.1l-1.3.2c-.3 0-.5.2-.5.4 0 .4 1.8 0 2.3-.5zm3-1.4c.6-.7.5-.7-.7 0l-1.3 1c0 .3 1.5-.4 2-1zm-16.1-.2c.7-1.4-.5-4-1.3-3.1-.3.2-.2 3 0 3.4.4.5.9.4 1.3-.3zm11.6-.1c.7-.8.4-1.4-.8-1.4-1.2 0-2.2.8-1.8 1.4.3.5 2 .5 2.6 0zm-15-14.8c2-.7 3.7-1.2 3.6-1.3-.2-.2-4 .6-4.8 1l-2.2.7c-1 .2-1.6.5-1.5.7.1.2.5.3.7.2l4.2-1.3zm10.3-3.2c0-.2 0-.2-.4-.1-.6.2-.7.5-.2.5.2 0 .4-.2.6-.4z" style="fill:#f98f68;stroke-width:.352778" transform="translate(-44.5 -173.2)"/>
  <path d="M57.6 243.4c-1-1.1-1.5-6.8-.6-7.1.5-.2.5-.5.3-1.7a220.3 220.3 0 0 1-1.4-11.3c-.2-1.2-.1-1.3 1.4-2.4.9-.6 1.8-1 2.1-.8.3.1 1-.2 1.8-.8 1.4-1 1.7-2.1.5-1.8l-.7-.1c0-.2-.9-1.2-2-2.2-1.2-1.2-1.9-2-1.9-2.6 0-.7-.1-.9-1.2-.9-1 0-1.2-.1-1.4-.8-.6-3.5-1-4.7-1.6-5.3-.3-.4-.7-1.5-.9-2.3l-.2-1.6 5-5.3 10.8-11.8c6.4-7.2 8.6-9.2 9.8-9.2 1.7 0 3 .4 2.9 1-.1.2 0 .6.3.8.4.3.5.3.5 0s.2-.3.8 0l2.5 1c1.9.5 7 2.8 7.3 3.2.1.2.9.5 1.7.7.8.2 1.4.5 1.3.7 0 .1.4.5 1 .8 2.2 1 6.3 3.8 6 4.2a48.7 48.7 0 0 0-10 3 54.8 54.8 0 0 0 3.5-.7 49 49 0 0 1 9.5-2c.9 0 .9 0 .2-.8a40.8 40.8 0 0 0-9.5-6.6c.7 0 6.9 3.5 9.3 5.3 6.4 4.8 6.6 5.2 6.6 12.3 0 9.3-2.3 21.8-4.7 26.3a19 19 0 0 1-11 8.1l-10 3c-6.7 2-26.5 8-27 8.4-.2 0-.6-.3-1-.7zm24.9-13.9c1.5-.3 1.4-.8-.2-.8-2.3 0-2.9-.3-3.1-1.7l-.3-1.2-.6.8c-1.8 2 .5 3.6 4.2 3zm2.2-2.5c.7-.4.2-1-.8-1.2-1.4-.2-2.6.8-1.8 1.6.2.2 2 0 2.6-.4zM71 218c.2-.4 0-.7-.8-1-1.2-.4-1.2-.6-.6-4 .2-1 .2-1-.3.3-.4.6-.7 2-.7 3-.1 1.5 0 1.9.5 2 1.2.3 1.7.2 2-.3zm5-.6c.3-.3.1-.3-.5-.1l-1.3.2c-.3 0-.5.2-.5.4 0 .4 1.8 0 2.3-.5zm3-1.4c.6-.7.5-.7-.7 0l-1.3 1c0 .3 1.5-.4 2-1zm-16.1-.2c.7-1.4-.5-4-1.3-3.1-.3.2-.2 3 0 3.4.4.5.9.4 1.3-.3zm11.6-.1c.7-.8.4-1.4-.8-1.4-1.2 0-2.2.8-1.8 1.4.3.5 2 .5 2.6 0zm-13.7-15 10-3c6.5-1.8 18.6-5.7 18.4-5.9a45 45 0 0 0-6.4 1.7l-3.7 1a240.5 240.5 0 0 0-19 5.4c-5.4 1.4-7.4 2.1-7.2 2.5.2.4 1.3.2 7.9-1.7zm41.6-13.2c0-.2.2-.3.3-.2l.4.4-.4.2c-.1 0-.3-.2-.3-.4z" style="fill:#d3b745;stroke-width:.352778" transform="translate(-44.5 -173.2)"/>
  <path d="M57.5 243.4c-.4-.5-.7-1.2-.7-1.7 0-.8 0-.8.7-.2.6.6.6.6.5 0-.2-.7 0-1 1.5-1.6 1-.4 2-1 2.2-1.3.4-.4 1.1-.4 2.9-.3 2.1.1 2.5 0 3.1-.6a10 10 0 0 1 2.8-1.6c2-.9 2.8-1.5 3.5-2.7.7-1.3 3.4-2.4 4-1.7.2.2 0 .7-.2 1.1-.4.5-.5 1-.4 1 .3.4 2-1 2.7-2.3.6-1 1-1.4 2.4-1.7 1.8-.4 3.4-.2 3 .4-.4.6.6.9 1.7.6 1.6-.5 2.4-1.4 2.4-2.8 0-1.2.2-1.4 2.6-3 3.5-2.2 4.5-2.2 3.7.1-.2.6-.3 1.2-.2 1.3.3.3 2-.2 2.7-1l1-.6c.3 0 .4-.2.4-.4s.2-.3.4-.3c.5 0 1.6-1.2 1.9-2 .2-.7 0-.8-1.6-1-1-.1-1.8-.4-2-.7-.4-1.2 1.8-3 3.9-3 .8 0 2-1 2-1.8 0-.5-1-.4-1.1 0-.1.4-.3.4-.8 0-.6-.2-.6-.3-.2-.3.7 0 1.7-1 1.1-1-.2 0-.4 0-.4.3 0 .2-.2.3-.4.3s-.3-.2-.2-.5c.1-.3-.1-.6-.6-.7-.4-.1-.6-.3-.3-.4.2-.1.3-.7.2-1.6-.3-2.4-.6-2.8-2.4-2.7-1 0-1.8-.2-2.3-.6-.4-.4-.7-.5-.7-.4 0 .2-.2 0-.4-.2-.3-.4-1.1-.7-2.6-.7-1.3 0-2.1-.3-2.2-.6 0-.2.1-.4.4-.4.6 0 .7-.6.2-1.4-.2-.4-.3-.3-.6.2-.2.4-.6.5-1 .4-.6-.3-.7-1.1 0-1.7.3-.2.6-.3.6-.1 0 .4 1-1 1-1.4 0-.2-.2 0-.5.3-.3.4-.9.6-1.6.6-.7 0-1.5.3-1.8.5-.7.6-3 .4-3.8-.3-.4-.4-1.3-.3-4.3.5l-2 .5c-.2 0-.7.2-1.1.7l-.9.8 1.6-.4c3.4-.7 5.2.6 5.2 3.9 0 2.3-.5 3.4-2.4 5.1a9.8 9.8 0 0 1-5.6 2.8c-2 .4-2.3.3-3.6-.2-1.1-.5-1.4-.9-1.4-1.6 0-2.3 1.7-6 3.6-7.7.8-.7 1.2-1.2.8-1l-2.1.5c-.8 0-2.4.6-3.6 1.1-1.1.6-2.7 1.2-3.5 1.4-1.2.3-1.4.3-2.1-.6-.7-.8-.9-.8-3.1-.6-2 .2-2.4.2-2.4-.3s-.2-.6-1-.5a3 3 0 0 1-1.5-.3c-.6-.3-1.5-2-1.1-2l-.7-1c-.5-.6-1-1.4-1-1.9s1.7-2.5 5-6l10.8-11.8c6.4-7.2 8.6-9.2 9.8-9.2 1.7 0 3 .4 2.9 1-.1.2 0 .6.3.8.4.3.5.3.5 0s.2-.3.8 0l2.5 1c1.9.5 7 2.8 7.3 3.2.1.2.9.5 1.7.7.8.2 1.4.5 1.3.7 0 .1.4.5 1 .8 2.2 1 6.3 3.8 6 4.2a48.7 48.7 0 0 0-10 3 54.8 54.8 0 0 0 3.5-.7 49 49 0 0 1 9.5-2c.9 0 .9 0 .2-.8a40.8 40.8 0 0 0-9.5-6.6c.7 0 6.9 3.5 9.3 5.3 6.4 4.8 6.6 5.2 6.6 12.3 0 9.3-2.3 21.8-4.7 26.3a19 19 0 0 1-11 8.1l-10 3c-6.7 2-26.5 8-27 8.4-.2 0-.6-.3-1-.7zM75 215.7a3 3 0 0 0 1.2-1c.2-.6-.5-1.6-1-1.4-.2.1-.5-.1-.7-.5-.6-1.1-2.2-1-3.3.4-.5.6-1 1.3-1 1.5 0 .8.5 1.6.8 1.4.2 0 .4 0 .5.2.3.4 2.1.1 3.5-.6zm23-12.4c.1-.2 0-.4-.2-.4s-.3.2-.3.4l.1.3.4-.3zm3.2-1.2c0-.2-.2-.1-.2.3 0 .3 0 .5.2.4v-.7zm-40.4-1.5 10-3c6.5-1.8 18.6-5.7 18.4-5.9a45 45 0 0 0-6.4 1.7l-3.7 1a240.5 240.5 0 0 0-19 5.4c-5.4 1.4-7.4 2.1-7.2 2.5.2.4 1.3.2 7.9-1.7zm30.6-.4c.2.2.5 0 .8-.4.3-.6.2-.7-.3-.5-.8.3-2.2 1.5-2.2 2 0 .2.3 0 .7-.5.3-.4.8-.7 1-.6zm-10.5.3c0-.2.3-.5.7-.6.4-.1.7-.3.7-.5s-.6 0-1.2.2c-.7.4-1.2.7-1 1 .2.3.8.3.8-.1zm21.7-.3c.4-.6.3-.7-.6-.5-.6 0-.9.3-.8.6.3.7 1 .6 1.4-.1zm3.1-.1c.2-.2.1-.4-.1-.4s-.4.2-.4.4 0 .4.2.4l.3-.4zm-41.5 34.4c.4-.7.8-.9 1.6-.9 1 0 1 .1.3.3-.6.2-.9.5-.8.9 0 .4-.2.6-.8.6-1 0-1 0-.3-.9zm4.7-1.2c0-.5.4-.7.9-.5.3.1.4.3.3.5-.3.4-1.2.4-1.2 0zm13.6-4.9c-2.5-.1-3-.5-3-1.9 0-2.1 2.2-4.8 4.7-5.6 1.5-.5 4.6-.3 5.4.4.2.2.4 1 .4 2 0 1.2-.2 1.7-1.3 3-1.8 2-2.8 2.3-6.2 2.1zm2.7-1.6c.6-.8 0-1.3-2-1.5-1.2 0-1.8 0-2.4.5-.7.6-.7.8-.3 1.3.7.8 4.2.6 4.7-.3zm-16.7.1c0-.2.2-.3.4-.3s.3.1.3.3c0 .2-.1.4-.3.4a.4.4 0 0 1-.4-.4zm29.3-4.2c.4-.7 1-1 1.5-.5.3.3-.8 1.2-1.4 1.2-.4 0-.4-.2 0-.7zm-31.2-1.8c-.5-.7 3.4-2.3 4.7-1.8.4.1.4.2-.2.4-.3.2-1 .3-1.5.3s-1.2.4-1.5.8c-.7.7-1.2.9-1.5.3zm29-2.5c-.2-.1 0-.4.4-.6 1-.5 1.1-.5 1.1 0 0 .6-1.3 1-1.6.6zm-36-3A6.7 6.7 0 0 1 58 213c-.1-.7-.6-1.1-1.5-1.5l-1.3-.5 1.8.1c4 .5 4 .4 4 1.9a2858.6 2858.6 0 0 0 0 3.6l-1.5-1.3zm35.5-.5c-1.2-1.2.2-2.3 3-2.5 2.1-.1 2.5.4.8 1.3-.6.3-1 .7-1 1 .1.6-2.3.7-2.8.2zm4-4.1c-.5-.5-.2-1.1.5-1.4 1-.3 1.5.1 1 1-.3.6-1 .8-1.5.4zm-10.1-4c0-.2.1-.4.3-.4.2 0 .4.2.4.4s-.2.4-.4.4a.4.4 0 0 1-.3-.4zm-2.1-1.5c0-.9 0-1 .4-.7.2.2.7.4 1 .4 1 0 .8 1-.1 1.2-1.3.4-1.3.3-1.3-.9zm15.5-18c0-.1.2-.2.3 0 .2 0 .4.2.4.3l-.4.2c-.1 0-.3-.2-.3-.4z" style="fill:#d1ac38;stroke-width:.352778" transform="translate(-44.5 -173.2)"/>
  <path d="M57.5 243.4c-1-1-1-2.2 0-1.6.5.3 1.1.2 3.2-.4a14 14 0 0 0 3.1-1.2c.3-.3 1.3-.8 2.2-1l2.3-1.3c.9-.8 2.3-1.4 4.8-1.8a72 72 0 0 0 7.5-2.3l11.1-3.9c6.8-2.3 10.3-4.3 11.3-6.3a21 21 0 0 0 1.7-9.4c0-2.3.2-3.8.5-4.8a30 30 0 0 0 1.5-8.3c.3-3.4-.1-4.9-1.2-4.9-.4 0-1.4-.3-2.1-.7-.8-.4-2-.7-2.8-.7a104 104 0 0 0-22.5 5.1c-2 .9-7.7 3-10.2 3.7-1.5.5-2.2.6-2.5.3-.3-.2-.5-.2-.5-.1s-.2.1-.4 0c-.3-.3-1.2-.2-2.8.1-2.3.6-4.2 1.5-3.2 1.5.3 0 .4 0 .3.2-.1.1-.5 0-.8-.2-.4-.4-.5-.4-.5.1 0 .3-.3.5-.6.5l-1.8.2c-.9.2-1.1.2-1.1-.2 0-.3.4-.6 1-.7.7-.2 1.1-.4 1-.5-.1-.1-.7 0-1.3.2-1 .3-1.1.2-2-.7-.4-.6-.9-1.4-.9-1.9s1.7-2.5 5-6l10.8-11.8c6.4-7.2 8.6-9.2 9.8-9.2 1.7 0 3 .4 2.9 1-.1.2 0 .6.3.8.4.3.5.3.5 0s.2-.3.8 0l2.5 1c1.9.5 7 2.8 7.3 3.2.1.2.9.5 1.7.7.8.2 1.4.5 1.3.7 0 .1.4.5 1 .8 2.2 1 6.3 3.8 6 4.2a48.7 48.7 0 0 0-10 3 54.8 54.8 0 0 0 3.5-.7 49 49 0 0 1 9.5-2c.9 0 .9 0 .2-.8a40.8 40.8 0 0 0-9.5-6.6c.7 0 6.9 3.5 9.3 5.3 6.4 4.8 6.6 5.2 6.6 12.3 0 9.3-2.3 21.8-4.7 26.3a19 19 0 0 1-11 8.1l-10 3c-6.7 2-26.5 8-27 8.4-.2 0-.6-.3-1-.7zm-.5-38.7c0-.2 0-.4-.2-.4s-.4.2-.4.4.1.3.2.3l.4-.3zm1.7-.7c.1-.2-.1-.2-.5-.1-.8.2-1 .4-.2.4.3 0 .6-.1.7-.3zm2-3.4 10-3c6.5-1.8 18.6-5.7 18.4-5.9a45 45 0 0 0-6.4 1.7l-3.7 1a240.5 240.5 0 0 0-19 5.4c-5.4 1.4-7.4 2.1-7.2 2.5.2.4 1.3.2 7.9-1.7zm3.8 33.8c0-.4.7-1 1-.7l-.5.5c-.2.3-.5.3-.5.2zm15.3-6.5c-.6-.6-.6-1.7 0-3.2.8-1.8 2.8-3.3 5.3-4 1.5-.3 4.1.5 4.6 1.5.6 1.3-.3 3.5-2 4.9-1.2 1-1.6 1-4.4 1.2-2.1 0-3.2 0-3.5-.4zm5.4-.3c1.3-.5 1.4-1.3.3-2.3-1.4-1.3-5-1-5.6.4-.3.8 0 1.8.8 2 1.1.3 3.7.2 4.5-.1zm-18-7.4c.1-.2.4-.3.5-.3.2 0 .4.1.4.3 0 .2-.3.4-.6.4s-.4-.2-.3-.4zm5.6-3.2c.2-.2.6-.3 1-.3 1.7 0 3.1-1.3 3.1-2.8 0-.7-2.8-2.5-3.8-2.5-1.1 0-2.5 1-3 2.3-.1.7-.4 1.2-.5 1.1-.2-.2.7-3 1.5-4.4.6-1.3 3-3.4 4.7-4.3 2-1 4.7-1 5.7 0 .5.6.7 1.2.7 3a9 9 0 0 1-.5 3.3c-.9 1.6-4.2 4-6.5 4.5-2.5.6-2.6.6-2.4.1zm-13.1-1.5c-.5-.5-.8-1-.7-1.2.3-.5-1-2.2-2-2.6-.5-.2-.2-.3 1.3-.2 1.1 0 2.2.3 2.4.4.4.5.6 4.2.1 4.3a3 3 0 0 1-1.1-.7zm36-.7c-.5-.2-1-.6-1-.8-.2-.6 2-1.4 3.1-1.2l1 .2-1.1 1.1-1.2 1.2-.9-.5zm-7.2-12.2c0-.2.3-.4.6-.4.4 0 1-.4 1.5-1l.8-1-.2 1.1c-.1.6-.4 1.2-.7 1.3-.6.4-2 .4-2 0zm-6.8-1.6c-.4-.3-.6-.6-.5-.7 1.6-1.1 3.5-1.4 3.5-.4 0 .5-1.4 1.6-2 1.6l-1-.5zm20.6-13.6c0-.2.2-.3.3-.2l.4.4-.4.2c-.1 0-.3-.2-.3-.4z" style="fill:#f4744a;stroke-width:.352778" transform="translate(-44.5 -173.2)"/>
  <path d="M57.5 243.4c-1-1-1-2.2 0-1.6.5.3 1.1.2 3.2-.4a14 14 0 0 0 3.1-1.2c.3-.3 1.3-.8 2.2-1l2.3-1.3c.9-.8 2.3-1.4 4.8-1.8a72 72 0 0 0 7.5-2.3l11.1-3.9c6.8-2.3 10.3-4.3 11.3-6.3a21 21 0 0 0 1.7-9.4c0-2.3.2-3.8.5-4.8a30 30 0 0 0 1.5-8.3c.3-3.4-.1-4.9-1.2-4.9-.4 0-1.4-.3-2.1-.7-.8-.4-2-.7-2.8-.7a104 104 0 0 0-22.5 5.1c-2 .9-7.7 3-10.2 3.7-1.5.5-2.2.6-2.5.3-.3-.2-.5-.2-.5-.1s-.2.1-.4 0c-.3-.3-1.2-.2-2.8.1-2.3.6-4.2 1.5-3.2 1.5.3 0 .4 0 .3.2-.1.1-.5 0-.8-.2-.4-.4-.5-.4-.5.1 0 .3-.3.5-.6.5l-1.8.2c-.9.2-1.1.2-1.1-.2 0-.3.4-.6 1-.7.7-.2 1.1-.4 1-.5-.1-.1-.7 0-1.3.2-.9.3-1.1.2-1.8-.4-.4-.5-.8-1.3-.9-1.9-.2-1 .3-1.5 5-6.5l9.2-10c8.1-9 10-10.8 11.8-10.8h.8l-.8.7c-.5.4-.7.7-.4.5.2-.1.5 0 .7.1a66 66 0 0 1 17.7 7.8c1.7 1.4 3.5 2.4 4.7 2.7 1 .2.6.4-2.6 1.3a104.7 104.7 0 0 0-11.7 3.6 14419.7 14419.7 0 0 1-19.4 5.5 194.4 194.4 0 0 1-14.8 4.2c0 .7 1.4.8 3.4.2l3.8-1c4.4-1.1 18.4-5.3 25.8-7.7a76.9 76.9 0 0 1 21.6-5.1c-.3 0-.6-.2-.6-.4l-2.3-2c-2.3-1.7-3.1-2.5-1.3-1.3a31 31 0 0 1 8 7.1 48 48 0 0 1-.3 18.7c-1.5 10.2-3 14.4-6.2 17.5-3 3-6.4 4.5-18.5 8-6.7 1.9-26.5 8-27 8.3-.2 0-.6-.3-1-.7zm-.5-38.7c0-.2 0-.4-.2-.4s-.4.2-.4.4.1.3.2.3l.4-.3zm1.7-.7c.1-.2-.1-.2-.5-.1-.8.2-1 .4-.2.4.3 0 .6-.1.7-.3zm4.6-11a.8.8 0 0 0-.6-.3c-.3 0-.2.1 0 .3.8.5.9.5.6 0zm1.6-2.3c.5-.6.5-.6 0-.2-.7.5-.9.8-.6.8l.6-.6zm1.6-1.5c.1-.2.6-.4 1-.4.5 0 1-.2 1-.4.1-.3.3-.3 1 0 .4.3.7.3.7 0 0-.1-.2-.3-.5-.3-.4 0-.5-.2-.2-.9.2-.5.2-.9 0-.9a.3.3 0 0 1-.4-.3c0-.2.3-.3.6-.1.3 0 .5.4.5.6 0 .3.3.6.6.7.9.3.9 0 0-.9-1.3-1-1.2-1.4.3-1.2.8.2 1.2.1 1.2-.1 0-.3.3-.3 1 0 1.3.4 1.8.3.8-.2-.5-.3-.7-.6-.4-.6.2 0 .3-.1.2-.3-.1-.2 0-.3.3-.2.3.2.6 0 .6-.1 0-.5-1-.8-1.8-.6-.4.1-.7 0-.8-.4-.3-.6.1-.6 1.8 0 1 .5 1.6.5 2 .3.6-.3.4-.5-1.1-1.3l-2.1-.9c-.2 0-.6.4-1 1a17 17 0 0 1-2.3 3c-3 3.6-4 4.8-3.6 4.8.2 0 .5-.1.6-.3zm9.9-7.8a.9.9 0 0 0-.7-.4c-.2 0-.7-.2-1.1-.5-.6-.5-.5-.5.7 0 .7.3 1.6.7 1.8 1 .3.2.6.3.7.1.3-.2.4-.2-1.7-1.2-1-.5-1.6-1-1.4-1.2 0-.3-.1-.1-.6.2l-.7.7 1.1.8c1.2.8 2.3 1.1 1.9.5zm2-2-.2-.5-.4.6c0 .3 0 .5.2.5s.3-.2.3-.5zm-13.9 55c0-.4.7-1 1-.7l-.5.5c-.2.3-.5.3-.5.2zm15.3-6.5c-.6-.6-.6-1.7 0-3.2.8-1.8 2.8-3.3 5.3-4 1.5-.3 4.1.5 4.6 1.5.6 1.3-.3 3.5-2 4.9-1.2 1-1.6 1-4.4 1.2-2.1 0-3.2 0-3.5-.4zm5.4-.3c1.3-.5 1.4-1.3.3-2.3-1.4-1.3-5-1-5.6.4-.3.8 0 1.8.8 2 1.1.3 3.7.2 4.5-.1zm-18-7.4c.1-.2.4-.3.5-.3.2 0 .4.1.4.3 0 .2-.3.4-.6.4s-.4-.2-.3-.4zm5.6-3.2c.2-.2.6-.3 1-.3 1.7 0 3.1-1.3 3.1-2.8 0-.7-2.8-2.5-3.8-2.5-1.1 0-2.5 1-3 2.3-.1.7-.4 1.2-.5 1.1-.2-.2.7-3 1.5-4.4.6-1.3 3-3.4 4.7-4.3 2-1 4.7-1 5.7 0 .5.6.7 1.2.7 3a9 9 0 0 1-.5 3.3c-.9 1.6-4.2 4-6.5 4.5-2.5.6-2.6.6-2.4.1zm-13.1-1.5c-.5-.5-.8-1-.7-1.2.3-.5-1-2.2-2-2.6-.5-.2-.2-.3 1.3-.2 1.1 0 2.2.3 2.4.4.4.5.6 4.2.1 4.3a3 3 0 0 1-1.1-.7zm36-.7c-.5-.2-1-.6-1-.8-.2-.6 2-1.4 3.1-1.2l1 .2-1.1 1.1-1.2 1.2-.9-.5zm-7.2-12.2c0-.2.3-.4.6-.4.4 0 1-.4 1.5-1l.8-1-.2 1.1c-.1.6-.4 1.2-.7 1.3-.6.4-2 .4-2 0zm-6.8-1.6c-.4-.3-.6-.6-.5-.7 1.6-1.1 3.5-1.4 3.5-.4 0 .5-1.4 1.6-2 1.6l-1-.5z" style="fill:#d59642;stroke-width:.352778" transform="translate(-44.5 -173.2)"/>
  <path d="M57.5 243.4c-1-1-1-2.2 0-1.6.5.3 3.2-.4 14.8-3.9l18.3-5.3c6.8-1.9 11.8-4.6 13.7-7.4 2-3.1 2.5-5.2 4.9-20.9.6-4 .7-8 .1-9.9-.2-.7-.9-1.8-1.4-2.3-.9-.8-1.4-1-3.5-1.1-3.5-.2-6.3.4-14.1 3a555 555 0 0 1-14.5 4.3L61 203l-7.3 2.4-.7-.8c-.4-.4-.8-1.2-.9-1.8-.2-1 .3-1.5 5-6.5l9.2-10c8.1-9 10-10.8 11.8-10.8h.8l-.8.7c-.5.4-.7.7-.4.5.2-.1.5 0 .7.1a66 66 0 0 1 17.7 7.8c1.7 1.4 3.5 2.4 4.7 2.7 1 .2.6.4-2.6 1.3a104.7 104.7 0 0 0-11.7 3.6 14419.7 14419.7 0 0 1-19.4 5.5 194.4 194.4 0 0 1-14.8 4.3c0 .7 1.8.6 5.3-.3 8.4-2.4 20-5.9 27.7-8.3a76.9 76.9 0 0 1 21.6-5.1c-.3 0-.6-.2-.6-.4l-2.3-2c-2.3-1.7-3.3-2.6-1.2-1.2 8.2 5.7 9 7.1 8.7 15-.3 5-1.7 15.3-2.8 19.4-1.5 6-4 9.3-8.7 11.7a77 77 0 0 1-15.5 5.3c-7 2-23.2 7-25.2 7.8-.8.3-1 .2-1.7-.4zm5.8-50.4a.8.8 0 0 0-.6-.3c-.3 0-.2.1 0 .3.8.5.9.5.6 0zm1.6-2.3c.5-.6.5-.6 0-.2-.7.5-.9.8-.6.8l.6-.6zm1.6-1.5c.1-.2.6-.4 1-.4.5 0 1-.2 1-.4.1-.3.3-.3 1 0 .4.3.7.3.7 0 0-.1-.2-.3-.5-.3-.4 0-.5-.2-.2-.9.2-.5.2-.9 0-.9a.3.3 0 0 1-.4-.3c0-.2.3-.3.6-.1.3 0 .5.4.5.6 0 .3.3.6.6.7.9.3.9 0 0-.9-1.3-1-1.2-1.4.3-1.2.8.2 1.2.1 1.2-.1 0-.3.3-.3 1 0 1.3.4 1.8.3.8-.2-.5-.3-.7-.6-.4-.6.2 0 .3-.1.2-.3-.1-.2 0-.3.3-.2.3.2.6 0 .6-.1 0-.5-1-.8-1.8-.6-.4.1-.7 0-.8-.4-.3-.6.1-.6 1.8 0 1 .5 1.6.5 2 .3.6-.3.4-.5-1.1-1.3l-2.1-.9c-.2 0-.6.4-1 1a17 17 0 0 1-2.3 3c-3 3.6-4 4.8-3.6 4.8.2 0 .5-.1.6-.3zm9.9-7.8a.9.9 0 0 0-.7-.4c-.2 0-.7-.2-1.1-.5-.6-.5-.5-.5.7 0 .7.3 1.6.7 1.8 1 .3.2.6.3.7.1.3-.2.4-.2-1.7-1.2-1-.5-1.6-1-1.4-1.2 0-.3-.1-.1-.6.2l-.7.7 1.1.8c1.2.8 2.3 1.1 1.9.5zm2-2-.2-.5-.4.6c0 .3 0 .5.2.5s.3-.2.3-.5zm-13.9 55c0-.4.7-1 1-.7l-.5.5c-.2.3-.5.3-.5.2zm15.4-6.6c-.3-.4-.5-.7-.4-.8.2-.2.4 0 .5.2.2.3.9.6 1.5.8l1.2.2h-1.1c-.6.1-1.4-.1-1.7-.4zm5 0c.7-.3 1.3-.8 1.4-1 .3-.8-1.8-2.7-2.9-2.7a5 5 0 0 0-3.3 1.3c-.4.6-.4.5-.2-.4.4-1.8 2.6-3.6 5.2-4.2 1.5-.4 4.1.4 4.6 1.4 1 2.1-1.7 5.6-4.5 6l-1.4.1zm-17.7-7.6c.1-.2.4-.3.5-.3.2 0 .4.1.4.3 0 .2-.3.4-.6.4s-.4-.2-.3-.4zm5.6-3.2c.2-.2.6-.3 1-.3 1.2 0 2.2-.8 3.3-2.2l.6-1.2c-.2 0-1.2-.3-2.2-.9-2.2-1.2-3-1.3-4.2-.4-1.1.7-1.3.4-.5-1.2 1.5-3 5.2-5.4 8.2-5.4 2.6 0 3.2.7 3.2 3.7a9 9 0 0 1-.5 3.3c-.9 1.6-4.2 4-6.5 4.5-2.5.6-2.6.6-2.4.1zm-13.3-3.2a5 5 0 0 0-1.8-2l-1-.4h1.2c.7 0 1.7.1 2.2.3.8.3 1 .6 1 2 0 .9-.2 1.6-.4 1.6s-.7-.7-1.2-1.5zm36.1 1-1-.8c-.1-.6 2.1-1.4 3.2-1.2l1 .2-1.1 1.1-1.2 1.2-.9-.5zm-26.1 0 .3-1c.2-.2.4-.3.4-.1l-.4.9c-.1.3-.3.3-.3.1zM54 206c0-.3.5-.6 1.1-.8a22 22 0 0 0 2-.6c6.2-2.4 13-4 13.7-3 .1.3 0 .3-.5.1-.5-.2-.5-.1-.2.2.8.8.5 1-2 1.7-1.6.5-2.4.6-2.7.3-.3-.2-.5-.2-.5-.1s-.2.1-.4 0c-.3-.3-1.2-.2-2.8.1-2.3.6-4.2 1.5-3.2 1.5.3 0 .4 0 .3.2-.1.1-.5 0-.8-.2-.4-.4-.5-.4-.5.1 0 .3-.3.5-.6.5l-1.8.2c-.9.2-1.1.2-1.1-.2zm34.5-3.4c0-.2.3-.4.6-.4.4 0 1-.4 1.5-1l.8-1-.2 1.1c-.1.6-.4 1.2-.7 1.3-.6.4-2 .4-2 0zm-6.8-1.6c-.4-.3-.6-.6-.5-.7 1.6-1.1 3.5-1.4 3.5-.4 0 .5-1.4 1.6-2 1.6l-1-.5zm-3-2c0-.2.2-.3.5-.3s.5.1.5.3c0 .2-.2.4-.5.4s-.5-.2-.5-.4z" style="fill:#fa6636;stroke-width:.352778" transform="translate(-44.5 -173.2)"/>
  <path d="M57.5 243.4c-1-1-1-2.2 0-1.6.5.3 3.2-.4 14.8-3.9l18.3-5.3c6.8-1.9 11.8-4.6 13.7-7.4 2-3.1 2.5-5.2 4.9-20.9.6-4 .7-8 .1-9.9-.2-.7-.9-1.8-1.4-2.3-.9-.8-1.4-1-3.5-1.1-3.5-.2-6.3.4-14.1 3a555 555 0 0 1-14.5 4.3A571 571 0 0 0 61 203l-7.3 2.4-.7-.8c-.4-.4-.9-1.2-1-1.7-.2-1-.2-1 .6-.6.7.4 1.6.2 4.7-.6 7.9-2.1 20-5.8 28-8.3a76.9 76.9 0 0 1 21.5-5.1c-.3 0-.6-.2-.6-.4l-2.3-2c-2.3-1.7-3.3-2.6-1.2-1.2 8.2 5.7 9 7.1 8.7 15-.3 5-1.7 15.3-2.8 19.4-1.5 6-4 9.3-8.7 11.7a77 77 0 0 1-15.5 5.3c-7 2-23.2 7-25.2 7.8-.8.3-1 .2-1.7-.4zm7-9c0-.4.7-1 1-.7l-.5.5c-.2.3-.5.3-.5.2zm15.4-6.6c-.3-.4-.5-.7-.4-.8.2-.2.4 0 .5.2.2.3.9.6 1.5.8l1.2.2h-1.1c-.6.1-1.4-.1-1.7-.4zm5 0c.7-.3 1.3-.8 1.4-1 .3-.8-1.8-2.7-2.9-2.7a5 5 0 0 0-3.3 1.3c-.4.6-.4.5-.2-.4.4-1.8 2.6-3.6 5.2-4.2 1.5-.4 4.1.4 4.6 1.4 1 2.1-1.7 5.6-4.5 6l-1.4.1zm-17.7-7.6c.1-.2.4-.3.5-.3.2 0 .4.1.4.3 0 .2-.3.4-.6.4s-.4-.2-.3-.4zm5.6-3.2c.2-.2.6-.3 1-.3 1.2 0 2.2-.8 3.3-2.2l.6-1.2c-.2 0-1.2-.3-2.2-.9-2.2-1.2-3-1.3-4.2-.4-1.1.7-1.3.4-.5-1.2 1.5-3 5.2-5.4 8.2-5.4 2.6 0 3.2.7 3.2 3.7a9 9 0 0 1-.5 3.3c-.9 1.6-4.2 4-6.5 4.5-2.5.6-2.6.6-2.4.1zm-13.3-3.2a5 5 0 0 0-1.8-2l-1-.4h1.2c.7 0 1.7.1 2.2.3.8.3 1 .6 1 2 0 .9-.2 1.6-.4 1.6s-.7-.7-1.2-1.5zm36.1 1-1-.8c-.1-.6 2.1-1.4 3.2-1.2l1 .2-1.1 1.1-1.2 1.2-.9-.5zm-26.1 0 .3-1c.2-.2.4-.3.4-.1l-.4.9c-.1.3-.3.3-.3.1zM54 206c0-.3.5-.6 1.1-.8a22 22 0 0 0 2-.6c6.2-2.4 13-4 13.7-3 .1.3 0 .3-.5.1-.5-.2-.5-.1-.2.2.8.8.5 1-2 1.7-1.6.5-2.4.6-2.7.3-.3-.2-.5-.2-.5-.1s-.2.1-.4 0c-.3-.3-1.2-.2-2.8.1-2.3.6-4.2 1.5-3.2 1.5.3 0 .4 0 .3.2-.1.1-.5 0-.8-.2-.4-.4-.5-.4-.5.1 0 .3-.3.5-.6.5l-1.8.2c-.9.2-1.1.2-1.1-.2zm34.5-3.4c0-.2.3-.4.6-.4.4 0 1-.4 1.5-1l.8-1-.2 1.1c-.1.6-.4 1.2-.7 1.3-.6.4-2 .4-2 0zm-34.7-3A1916 1916 0 0 1 67.4 185c6.5-7.4 8.8-9.5 10.6-9.5.7 0 .6.1-.6 1-2 1.3-5.4 4.8-9.2 9.6a52.3 52.3 0 0 1-6.6 7.3c-1.2 1-2.7 3.1-2.4 3.5.1.2.1.2 0 0-.2 0-.7 0-1 .4-.7.6-.7.6 0 1.2a3 3 0 0 0 1.7.7c.8 0 .7 0-.6.5-.9.3-1.7.4-1.8.3 0 0 0-.2.3-.2.2 0 .2-.3.1-.7-.2-.9-.5-.8-1.5.3-.6.7-.7.9-.2.7.3-.1.7 0 .8.1 0 .2-.4.4-1.2.5l-2.1.6c-1.6.6-1.6.3.1-1.5zm27.9 1.4c-.4-.3-.6-.6-.5-.7 1.6-1.1 3.5-1.4 3.5-.4 0 .5-1.4 1.6-2 1.6l-1-.5zm-3-2c0-.2.2-.3.5-.3s.5.1.5.3c0 .2-.2.4-.5.4s-.5-.2-.5-.4zm-17.9-1c-.8-1.2-1-1.8-.2-1.5 1 .3 1.2.5.7.8-.4.2-.4.4 0 .7.3.4.4.4.4 0 0-.3.1-.4.5 0 .3.2.6.2.7.1.1-.1.2 0 .2.2s-.1.4-.3.4a3 3 0 0 0-.8.2c-.3.1-.8-.2-1.2-.8zm-1.3.4c-.3 0-.6-.3-.6-.5s.3-.1.8.1c1.3.7 1.3.8-.2.4zm3.4-1.1-1-1c.3 0 .6.1.8.3.2.3.8.5 1.2.6.6 0 .7 0 .4-.3-.3-.3-.5-.6-.5-.8 0-.2.2-.2.4 0 .3.3.6.2 1-.3l1.2-.6c.3 0 .3 0 0 .3-.4.2-.4.4-.1.5.2.2.5.1.8 0 .2-.1.3 0 .1.2-.3.5.1.5.9 0 .4-.2.3-.4-.4-1-.4-.4-1-.7-1.3-.7-.2 0-.4-.3-.4-.6 0-.6.4-.7 1-.1.2.3.5.1 1-.4.7-.8.7-.8 1.4-.1.4.3 1.3 1 2 1.3l1 .6-1-.8c-.5-.5-1-1.2-1-1.5-.2-.6.3-.8.7-.2 0 .2.4.3.6.3.2 0 .1-.2-.1-.5-.5-.6-.4-.6.6 0 1.3.6 1.4.5.8-.5-.2-.4-.5-.6-.8-.5-.2.2-.3 0 0-.2 0-.2.4-.3.7-.2.3 0 .8 0 1-.4.6-.5.6-.6 0-.3-.5.1-1 0-1-.1-.1-.2.3-.3 1-.3.9 0 1.1 0 .8-.4-.2-.3-.1-.4.4-.6.8-.3 2.4-2 1.8-2-.3 0-.1-.3.4-.7.7-.6.8-.6 1-.2 0 .7 1 .8 1 0 0-.2.4-.5.8-.6.7-.3.7-.3.1-1.2-.3-.5-.4-.8-.2-.6.2.1.4 0 .4-.2 0-.3.2-.3.5 0 .5.4 2.7.7 2.5.3l-1.8-1c-1.8-.8-1.9-1.4-.1-.7 1 .3 1 .3.6-.2-.4-.6-.4-.6.3-.2.7.4 1.2.2 1.2-.3 0-.2-.2-.2-.5-.1-.7.2-.7-.3-.1-.9.2-.3.3-.4 0-.4-.2 0-.5-.2-.6-.5-.1-.4.2-.4 1.5-.2a64.4 64.4 0 0 1 11 4.8c.2.5 3.1 2.3 4.7 3l1.3.5-2.7.7c-1.5.3-3.9 1-5.2 1.6a148 148 0 0 1-8.5 2.6c-5 1.3-18 5-20 5.7a3 3 0 0 1-1.6-1zm3.8-.4c0-.2-.2-.3-.4-.3-.1 0-.4.1-.5.3-.1.2 0 .4.3.4s.6-.2.6-.4zm3.1-1.7c0-.2-.3-.5-.8-.7-.7-.4-.7-.4.1-.2l.7.1c-1.1-1-1.3-1-1.5-.5-.1.3 0 .8.3 1 .6.7 1.2.8 1.2.3zm9.2-6c0-.2-.2-.4-.5-.4s-.5-.1-.5-.3c0-.2-.4-.4-.8-.4-.3 0-.7.2-.7.4s.2.3.5.3.3.1 0 .3c-.5.3-.4.4.1.5.9.2 2 0 2-.5zm-16 6.3c-.2-.2-.4-.3-.6-.1-.2 0-.3 0-.3-.2 0-.1.5-.3 1-.3.6 0 1 .1.8.2l-.5.5c0 .2-.3.1-.4 0z" style="fill:#cd9335;stroke-width:.352778" transform="translate(-44.5 -173.2)"/>
  <path d="M57.5 243.4c-.4-.5-.7-1.1-.7-1.5 0-.6 0-.6.6 0 .6.4 1.8.1 15-3.8l18.6-5.5c8.3-2.3 13-5.6 14.8-10.2 1.5-3.8 4-19 4-24 0-8.6-4.3-9.7-18.9-4.8l-9.6 3c-5.9 1.7-13.7 4-21 6.3-6 2-6.5 2-7.2 1.6a3 3 0 0 1-1.2-2.4l.8.2c.6.3 1.6.1 4.6-.7 7.9-2.1 20-5.8 28-8.3a76.9 76.9 0 0 1 21.5-5.1c-.3 0-.6-.2-.6-.4l-2.3-2c-2.3-1.7-3.3-2.6-1.2-1.2 8.2 5.7 9 7.1 8.7 15-.3 5-1.7 15.3-2.8 19.4-1.5 6-4 9.3-8.7 11.7a77 77 0 0 1-15.5 5.3c-7 2-23.2 7-25.2 7.8-.8.3-1 .2-1.7-.4zm38-28.9c-.4-.5.4-1.3 1.2-1.3 1 0 1.1.6.2 1.2-.9.6-1.2.6-1.5.1zm-41.7-14.8a1916 1916 0 0 1 13.6-14.8c6.5-7.4 8.8-9.5 10.6-9.5.7 0 .6.1-.6 1-2 1.3-5.4 4.8-9.2 9.6a52.3 52.3 0 0 1-6.6 7.3c-1.2 1-2.7 3.1-2.4 3.5.1.2.1.2 0 0-.2 0-.7 0-1 .4-.7.6-.7.6 0 1.2a3 3 0 0 0 1.7.7c.8 0 .7 0-.6.5-.9.3-1.7.4-1.8.3 0 0 0-.2.3-.2.2 0 .2-.3.1-.7-.2-.9-.5-.8-1.5.3-.6.7-.7.9-.2.7.3-.1.7 0 .8.1 0 .2-.4.4-1.2.5l-2.1.6c-1.6.6-1.6.3.1-1.5zm7-1.6c-.8-1.3-1-1.9-.2-1.6 1 .3 1.2.5.7.8-.4.2-.4.4 0 .7.3.4.4.4.4 0 0-.3.1-.4.5 0 .3.2.6.2.7.1.1-.1.2 0 .2.2s-.1.4-.3.4a3 3 0 0 0-.8.2c-.3.1-.8-.2-1.2-.8zm-1.3.3c-.3 0-.6-.3-.6-.5s.3-.1.8.1c1.3.7 1.3.8-.2.4zm3.4-1.1-1-1c.3 0 .6.1.8.3.2.3.8.5 1.2.6.6 0 .7 0 .4-.3-.3-.3-.5-.6-.5-.8 0-.2.2-.2.4 0 .3.3.6.2 1-.3l1.2-.6c.3 0 .3 0 0 .3-.4.2-.4.4-.1.5.2.2.5.1.8 0 .2-.1.3 0 .1.2-.3.5.1.5.9 0 .4-.2.3-.4-.4-1-.4-.4-1-.7-1.3-.7-.2 0-.4-.3-.4-.6 0-.6.4-.7 1-.1.2.3.5.1 1-.4.7-.8.7-.8 1.4-.1.4.3 1.3 1 2 1.3l1 .6-1-.8c-.5-.5-1-1.2-1-1.5-.2-.6.3-.8.7-.2 0 .2.4.3.6.3.2 0 .1-.2-.1-.5-.5-.6-.4-.6.6 0 1.3.6 1.4.5.8-.5-.2-.4-.5-.6-.8-.5-.2.2-.3 0 0-.2 0-.2.4-.3.7-.2.3 0 .8 0 1-.4.6-.5.6-.6 0-.3-.5.1-1 0-1-.1-.1-.2.3-.3 1-.3.9 0 1.1 0 .8-.4-.2-.3-.1-.4.4-.6.8-.3 2.4-2 1.8-2-.3 0-.1-.3.4-.7.7-.6.8-.6 1-.2 0 .7 1 .8 1 0 0-.2.4-.5.8-.6.7-.3.7-.3.1-1.2-.3-.5-.4-.8-.2-.6.2.1.4 0 .4-.2 0-.3.2-.3.5 0 .5.4 2.7.7 2.5.3l-1.8-1c-1.8-.8-1.9-1.4-.1-.7 1 .3 1 .3.6-.2-.4-.6-.4-.6.3-.2.7.4 1.2.2 1.2-.3 0-.2-.2-.2-.5-.1-.7.2-.7-.3-.1-.9.2-.3.3-.4 0-.4-.2 0-.5-.2-.6-.5-.1-.4.2-.4 1.5-.2a64.4 64.4 0 0 1 11 4.8c.2.5 3.1 2.3 4.7 3l1.3.5-2.7.7c-1.5.3-3.9 1-5.2 1.6a148 148 0 0 1-8.5 2.6c-5 1.3-18 5-20 5.7a3 3 0 0 1-1.6-1zm3.8-.4c0-.2-.2-.3-.4-.3-.1 0-.4.1-.5.3-.1.2 0 .4.3.4s.6-.2.6-.4zm3.1-1.7c0-.2-.3-.5-.8-.7-.7-.4-.7-.4.1-.2l.7.1c-1.1-1-1.3-1-1.5-.5-.1.3 0 .8.3 1 .6.7 1.2.8 1.2.3zm9.2-6c0-.2-.2-.4-.5-.4s-.5-.1-.5-.3c0-.2-.4-.4-.8-.4-.3 0-.7.2-.7.4s.2.3.5.3.3.1 0 .3c-.5.3-.4.4.1.5.9.2 2 0 2-.5zm-16 6.3c-.2-.2-.4-.3-.6-.1-.2 0-.3 0-.3-.2 0-.1.5-.3 1-.3.6 0 1 .1.8.2l-.5.5c0 .2-.3.1-.4 0z" style="fill:#ee5628;stroke-width:.352778" transform="translate(-44.5 -173.2)"/>
  <path d="M57.5 243.4c-.4-.5-.7-1.1-.7-1.5 0-.6 0-.6.6 0 .6.4 1.8.1 15-3.8l18.6-5.5c8.3-2.3 13-5.6 14.8-10.2 1.5-3.8 4-19 4-24 0-8.6-4.3-9.7-18.9-4.8l-9.6 3c-6 1.7-13.8 4-21 6.4l-6.5 2-1-1c-1-1-1.4-2.8-.5-1.9.2.3.7.5 1 .5 1.4 0 21.8-6 38.7-11.5a41 41 0 0 1 12.8-2.6h2.5l-1.8-1.5c-2.3-1.8-2.4-2.2-.1-.5 5.6 4.2 6.3 5.8 6 13-.3 5.1-1.7 15.4-2.8 19.5-1.5 6-4 9.3-8.7 11.7a77 77 0 0 1-15.5 5.3c-7 2-23.2 7-25.2 7.8-.8.3-1 .2-1.7-.4zm38-28.9c-.4-.5.4-1.3 1.2-1.3 1 0 1.1.6.2 1.2-.9.6-1.2.6-1.5.1zm-40.2-16.3A8881.1 8881.1 0 0 1 71 181c3.3-3.7 5.6-5.6 6.7-5.6.7 0 .6.1-.5.9-1.4.9-5 4.6-6.6 6.6a92.3 92.3 0 0 1-11 12 23 23 0 0 1-4.5 4.8c-1.5.8-1.5.3.2-1.5z" style="fill:#b45425;stroke-width:.352778" transform="translate(-44.5 -173.2)"/>
  <path d="m57.6 243.4-.6-1a61.3 61.3 0 0 0 15.3-4c7.9-2.5 15.3-4.6 16.5-5 6-1.5 11.1-3.7 13.8-6 2.7-2.3 4.2-5.8 5.1-11.7l1.5-9c1.9-11.8.6-15.7-5.2-16-3.3-.3-5.6.2-13.7 2.9l-15 4.6a502.6 502.6 0 0 0-21.4 6.5c-.3 0-.8-.4-1.2-.8-.6-.6-.6-.7 0-.3.7.6.7.1 0-.8-.6-.6-.6-.7-.1-.3.5.4 2.5-.1 12.2-2.9a566 566 0 0 0 21-6.4c10-3.1 16-4.7 18.4-4.7 2.1 0 4.3.7 5.3 1.7 2.2 2.3 2.4 7.3.7 19.2-1.8 13-3.5 17-8.7 20.4-2.9 1.8-6 3-16.2 5.9a930.9 930.9 0 0 0-27 8.1l-.7-.4zm-2.3-45.2A8881.1 8881.1 0 0 1 71 181c3.3-3.7 5.6-5.6 6.7-5.6.7 0 .6.1-.5.9-1.4.9-5 4.6-6.6 6.6a92.3 92.3 0 0 1-11 12 23 23 0 0 1-4.5 4.8c-1.5.8-1.5.3.2-1.5z" style="fill:#e83503;stroke-width:.352778" transform="translate(-44.5 -173.2)"/>
  <path d="m57.6 243.4-.6-1a61.3 61.3 0 0 0 15.3-4c7.9-2.5 15.3-4.6 16.5-5 6-1.5 11.1-3.7 13.8-6 2.7-2.3 4.2-5.8 5.1-11.7l1.5-9c1.9-11.8.6-15.7-5.2-16-3.3-.3-5.6.2-13.7 2.9l-15 4.6a502.6 502.6 0 0 0-21.4 6.5c-.3 0-.8-.4-1.2-.8-.6-.6-.6-.7 0-.3.7.6.7.1 0-.8-.6-.6-.6-.7-.1-.3.5.4 2.5-.1 12.2-2.9a566 566 0 0 0 21-6.4c10-3.1 16-4.7 18.4-4.7 2.1 0 4.3.7 5.3 1.7 2.2 2.3 2.4 7.3.7 19.2-1.8 13-3.5 17-8.7 20.4-2.9 1.8-6 3-16.2 5.9a930.9 930.9 0 0 0-27 8.1l-.7-.4z" style="fill:#a43219;stroke-width:.352778" transform="translate(-44.5 -173.2)"/>
</svg>