<?xml version="1.0" encoding="UTF-8" standalone="no"?>
<!-- Created with Inkscape (http://www.inkscape.org/) -->

<svg
   width="73.377777mm"
   height="73.377777mm"
   viewBox="0 0 73.377777 73.377777"
   version="1.1"
   id="svg5"
   sodipodi:docname="chemicals.svg"
   inkscape:version="1.1.1 (3bf5ae0d25, 2021-09-20)"
   xmlns:inkscape="http://www.inkscape.org/namespaces/inkscape"
   xmlns:sodipodi="http://sodipodi.sourceforge.net/DTD/sodipodi-0.dtd"
   xmlns="http://www.w3.org/2000/svg"
   xmlns:svg="http://www.w3.org/2000/svg">
  <sodipodi:namedview
     id="namedview7"
     pagecolor="#ffffff"
     bordercolor="#666666"
     borderopacity="1.0"
     inkscape:pageshadow="2"
     inkscape:pageopacity="0.0"
     inkscape:pagecheckerboard="0"
     inkscape:document-units="mm"
     showgrid="false"
     inkscape:zoom="2.8882212"
     inkscape:cx="142.30212"
     inkscape:cy="159.78693"
     inkscape:window-width="1920"
     inkscape:window-height="1009"
     inkscape:window-x="-8"
     inkscape:window-y="-8"
     inkscape:window-maximized="1"
     inkscape:current-layer="layer1" />
  <defs
     id="defs2" />
  <g
     inkscape:label="Layer 1"
     inkscape:groupmode="layer"
     id="layer1"
     transform="translate(502.40643,229.96559)">
    <g
       id="g3833">
      <path
         style="fill:#fefefe;stroke-width:0.352888"
         d="m -502.4408,-193.23089 v -36.67744 h 36.72324 36.72324 v 36.67744 36.67743 h -36.72324 -36.72324 z"
         id="path3855" />
      <path
         style="fill:#d1e9f8;stroke-width:0.352888"
         d="m -470.83763,-158.51982 c -9.3423,-2.05896 -15.72531,-9.27396 -14.7936,-16.72186 0.23642,-1.88988 1.2031,-4.8086 8.54004,-25.78543 l 3.52862,-10.08855 -0.10448,-5.42883 c -0.0697,-3.62393 -0.0186,-4.6667 0.15393,-3.13648 l 0.2584,2.29234 0.0609,-1.89469 c 0.0542,-1.68534 0.12273,-1.84348 0.62007,-1.43123 0.30752,0.2549 0.82394,0.49637 1.1476,0.5366 0.32367,0.0402 1.34325,0.19008 2.26575,0.333 1.08453,0.16802 1.67726,0.13137 1.67726,-0.10371 0,-0.32589 -1.34858,-0.63145 -3.88419,-0.88008 -0.51076,-0.0501 -0.88277,-0.30949 -0.88277,-0.61557 0,-0.31258 -0.39036,-0.57399 -0.95418,-0.63896 -1.09882,-0.12664 -1.50608,-0.99967 -1.03743,-2.22396 0.65001,-1.69808 2.50483,-2.70444 6.40546,-3.47535 1.96875,-0.3891 2.68502,-0.37289 5.03584,0.11402 4.21202,0.8724 6.05325,2.1113 5.9675,4.01535 -0.0242,0.53601 -0.20297,3.55481 -0.39739,6.70844 l -0.35349,5.73387 3.0294,8.7255 c 1.66617,4.79903 4.346,12.54533 5.95519,17.214 l 2.92579,8.48851 -0.24585,3.54069 c -0.31212,4.49513 -1.25377,6.55483 -4.35764,9.5316 -2.45164,2.35125 -4.48377,3.51081 -8.20198,4.68017 -3.27726,1.03067 -8.9379,1.26454 -12.35879,0.51061 z m -0.17655,-1.19658 c 0,-0.18787 -0.23835,-0.25025 -0.52966,-0.1386 -0.29132,0.11165 -0.52967,0.26537 -0.52967,0.3416 0,0.0762 0.23835,0.1386 0.52967,0.1386 0.29131,0 0.52966,-0.15372 0.52966,-0.3416 z m -1.23588,-0.36373 c 0.2762,-0.44634 -0.19125,-0.44634 -0.88277,0 -0.45646,0.29462 -0.44714,0.34261 0.0674,0.34727 0.3284,0.003 0.6953,-0.15331 0.81533,-0.34727 z m -5.47317,-1.87335 c 0,-0.0605 -0.51643,-0.46884 -1.14761,-0.9074 l -1.1476,-0.79739 0.99074,0.9074 c 0.91389,0.83701 1.30447,1.07576 1.30447,0.79739 z m 27.54243,-2.93144 c 0.58631,-0.66046 0.34915,-0.53693 -0.70622,0.36784 -2.1562,1.84853 -2.4947,2.21951 -1.23588,1.35449 0.58263,-0.40036 1.45657,-1.17541 1.9421,-1.72233 z m -8.49712,-2.28444 c 2.73254,-0.75834 5.31914,-1.9769 5.31914,-2.50587 0,-0.16272 -0.36602,-0.0563 -0.81338,0.23643 -1.14488,0.74922 -4.60062,1.91907 -7.3081,2.47397 -1.7371,0.35602 -2.00017,0.47846 -1.08185,0.50354 0.66734,0.0182 2.41523,-0.30041 3.88419,-0.70807 z m 0.7095,-3.14302 c 1.32835,-0.36788 2.4057,-0.93891 2.12766,-1.12772 -0.0915,-0.0621 -1.43752,0.3297 -2.99119,0.87071 -2.60612,0.90749 -2.06583,1.06829 0.86353,0.25701 z m -1.23782,-2.70442 c 2.26349,-0.5598 4.78814,-1.70993 4.78814,-2.18128 0,-0.16037 -0.75477,0.0767 -1.67726,0.52681 -1.90542,0.92972 -5.40586,1.8951 -6.87152,1.8951 -0.54183,0 -0.98514,0.14872 -0.98514,0.3305 0,0.38124 1.74323,0.17145 4.74578,-0.57113 z m 0.16197,-3.09581 c 1.04848,-0.27871 2.07338,-0.67357 2.27755,-0.87749 0.49419,-0.49358 0.4586,-0.48687 -2.59489,0.48893 -2.91308,0.93092 -2.70081,1.19083 0.31734,0.38856 z m -1.65888,-2.69766 c 2.17647,-0.45528 5.22572,-1.68114 5.22572,-2.10085 0,-0.15918 -0.71917,0.0283 -1.59817,0.41665 -0.87899,0.38834 -2.90495,1.00084 -4.50212,1.36111 -1.59718,0.36028 -2.47481,0.66843 -1.95029,0.68478 0.52451,0.0164 1.7957,-0.14641 2.82486,-0.36169 z m -15.71955,-2.49605 c -0.11272,-0.28133 -0.19639,-0.19777 -0.21333,0.21307 -0.0153,0.37177 0.0681,0.58007 0.18546,0.46288 0.11733,-0.11719 0.12988,-0.42137 0.0279,-0.67595 z m 16.54713,-0.85842 c 1.25372,-0.31453 2.2795,-0.72826 2.2795,-0.9194 0,-0.19114 -0.25881,-0.24833 -0.57513,-0.1271 -0.31632,0.12123 -1.30944,0.39784 -2.20692,0.61468 -0.8975,0.21685 -1.78276,0.53139 -1.96726,0.69898 -0.46554,0.42289 -0.14062,0.38774 2.46981,-0.26716 z m -15.25891,-0.65501 c 0.71141,0.19797 0.70311,0.16202 -0.117,-0.5065 -0.99299,-0.80945 -1.5953,-0.96009 -1.17725,-0.29445 0.15227,0.24246 0.2514,0.75824 0.22029,1.14617 -0.0469,0.58448 -0.0253,0.59707 0.12581,0.0735 0.13099,-0.45383 0.39811,-0.5718 0.94815,-0.41873 z m 14.82347,-2.50457 c 2.16949,-0.56147 4.31432,-1.48939 4.05086,-1.75253 -0.0782,-0.0781 -1.00661,0.18758 -2.06319,0.59035 -1.05657,0.40277 -3.03334,0.93729 -4.3928,1.18782 -1.99053,0.36682 -2.20669,0.46293 -1.11029,0.49366 0.7488,0.021 2.33074,-0.2127 3.51542,-0.5193 z m 0.68456,-3.37085 c 0.72829,-0.18199 1.32416,-0.50046 1.32416,-0.7077 0,-0.21704 -0.26202,-0.27298 -0.61794,-0.13194 -0.33987,0.13467 -1.37271,0.42726 -2.2952,0.65019 -0.9225,0.22293 -1.67727,0.52949 -1.67727,0.68125 0,0.26919 0.55597,0.18547 3.26625,-0.4918 z m -2.37847,-2.80315 c 2.48973,-0.45968 4.76195,-1.32267 4.76195,-1.8086 0,-0.20085 -0.26545,-0.23864 -0.61794,-0.088 -2.13293,0.91171 -4.64612,1.57467 -5.96937,1.57467 -0.84379,0 -1.53417,0.1587 -1.53417,0.35267 0,0.45214 0.78274,0.44497 3.35953,-0.0308 z m 9.90867,-2.01734 c -0.46837,-1.19362 -1.16278,-2.60972 -1.54314,-3.1469 -1.14902,-1.62271 -4.18017,-7.89535 -4.86031,-10.05787 -0.65493,-2.08238 -0.99905,-2.35235 -2.02285,-1.58701 -0.89609,0.66988 -0.79084,3.32108 0.27902,7.02913 l 0.47634,1.65095 -1.62566,0.55323 c -0.89411,0.30427 -2.23294,0.55322 -2.97518,0.55322 -0.74224,0 -1.34953,0.1587 -1.34953,0.35267 0,0.4433 0.66271,0.44023 3.47864,-0.0161 2.17485,-0.35246 2.30316,-0.32969 4.2373,0.752 2.71624,1.51908 5.51004,3.94482 6.05401,5.25642 0.83881,2.02255 0.70799,0.84342 -0.14864,-1.33971 z m -26.55782,-0.0571 c -0.19434,-0.1941 -0.82136,0.71533 -0.8293,1.2028 -0.003,0.18255 0.21995,0.0241 0.49539,-0.35211 0.27543,-0.37621 0.42569,-0.75902 0.33391,-0.85069 z m 18.67452,-1.65233 c 0.33986,-0.0931 0.61794,-0.3343 0.61794,-0.53594 0,-0.20165 -0.25224,-0.26996 -0.56054,-0.15181 -0.30829,0.11816 -1.18223,0.31412 -1.94209,0.43547 -0.75986,0.12136 -1.38156,0.36626 -1.38156,0.54422 0,0.29282 1.68005,0.14265 3.26625,-0.29194 z m -16.5551,-4.70646 c 0.17393,-0.7081 0.12161,-0.67339 -0.2658,0.17634 -0.2653,0.5819 -0.57982,1.45475 -0.69894,1.93967 -0.17393,0.7081 -0.12161,0.67339 0.2658,-0.17634 0.26531,-0.5819 0.57983,-1.45475 0.69894,-1.93967 z m 6.02743,1.53086 c 2.58794,-1.06147 2.48724,-0.85386 2.86267,-5.90155 0.228,-3.06553 0.21651,-3.13198 -0.50886,-2.94252 -0.40817,0.1066 -0.74212,0.0685 -0.74212,-0.0847 0,-0.39073 -1.52105,-0.74604 -1.83811,-0.42938 -0.23666,0.23636 -2.39919,9.23291 -2.39919,9.98109 0,0.44176 0.0706,0.42502 2.62561,-0.62295 z m 0.55236,-18.2041 c 0,-0.44176 0.23959,-1.14483 0.53241,-1.56237 0.49091,-0.7 0.47438,-0.77757 -0.2121,-0.99517 -1.03329,-0.32755 -1.30023,0.11894 -1.11319,1.8619 0.16702,1.55642 0.79288,2.10552 0.79288,0.69564 z m 9.31788,-3.71767 c 0.0983,-0.15887 -0.28956,-0.22021 -0.86193,-0.13631 -0.57237,0.0839 -1.04068,0.21389 -1.04068,0.28886 0,0.26872 1.72764,0.1302 1.90261,-0.15255 z m -9.67099,-3.05012 c 0,-1.85321 -0.0309,-1.91667 -0.79449,-1.6293 -0.64438,0.24252 -0.77333,0.52356 -0.68251,1.48747 0.0907,0.96237 0.82269,2.07013 1.36794,2.07013 0.06,0 0.10906,-0.86773 0.10906,-1.9283 z m -0.73323,1.1348 c -0.23512,-0.76729 -0.22019,-1.56913 0.0374,-2.00865 0.23419,-0.39961 0.32417,-0.18975 0.332,0.77431 0.006,0.72738 -0.0687,1.32251 -0.16582,1.32251 -0.0971,0 -0.18871,-0.0397 -0.20357,-0.0882 z m 13.09202,-2.86632 c 0,-0.0732 -0.27807,-0.35096 -0.61794,-0.61717 -0.56005,-0.43868 -0.57254,-0.4262 -0.13332,0.13315 0.46129,0.58745 0.75126,0.77427 0.75126,0.48402 z"
         id="path3853" />
      <path
         style="fill:#c5daf4;stroke-width:0.352888"
         d="m -470.13141,-158.46879 c -4.28423,-0.84569 -7.21329,-2.18125 -10.32662,-4.70859 -3.60518,-2.92662 -5.80055,-8.3412 -5.0389,-12.42778 0.41459,-2.22451 3.59873,-11.63304 3.87895,-11.46156 0.10291,0.063 0.20701,-0.30632 0.23133,-0.82066 0.0243,-0.51434 1.7672,-5.77553 3.87306,-11.69153 2.86012,-8.03493 3.88797,-11.38096 4.06252,-13.22504 l 0.23368,-2.46867 -0.0839,2.82134 c -0.076,2.5541 -0.38813,3.67316 -3.2958,11.81437 -2.98821,8.36667 -4.58318,13.50365 -2.90881,9.36848 0.38762,-0.9573 1.38426,-2.46343 2.21475,-3.34697 0.8442,-0.89811 1.00398,-1.15119 0.36239,-0.57398 -1.62681,1.46356 -1.75741,2.01415 1.91957,-8.09254 l 2.05289,-5.64268 v -5.88227 c 0,-5.57991 0.0318,-5.85355 0.61794,-5.32353 0.35386,0.31997 0.61794,1.06289 0.61794,1.73843 0,0.64882 0.15493,1.17968 0.34428,1.17968 0.19345,0 0.25238,0.45895 0.1345,1.04759 -0.2481,1.23896 0.55874,4.24242 1.13968,4.24242 0.22272,0 0.81278,-0.3204 1.31124,-0.712 l 0.9063,-0.712 0.14774,0.9765 c 0.0813,0.53708 0.17155,-0.72953 0.20065,-2.81468 0.0517,-3.70482 0.0348,-3.79178 -0.74158,-3.818 -0.43697,-0.0148 -1.35064,-0.25353 -2.03038,-0.53059 l -1.23587,-0.50377 1.41243,0.19673 c 0.77684,0.1082 1.67169,0.27235 1.98855,0.36477 0.31687,0.0924 0.66217,-0.0559 0.76734,-0.32964 0.14228,-0.37031 -0.24995,-0.55612 -1.53266,-0.72606 -0.94813,-0.12562 -1.81923,-0.3825 -1.93577,-0.57084 -0.11655,-0.18835 -0.37081,-0.34245 -0.56502,-0.34245 -0.19421,0 -0.2549,0.1587 -0.13487,0.35267 0.12002,0.19397 0.0593,0.35267 -0.13488,0.35267 -0.19421,0 -0.45131,-0.1587 -0.57134,-0.35267 -0.12003,-0.19397 -0.0196,-0.35267 0.2232,-0.35267 0.68167,0 -0.8469,-1.03407 -1.54735,-1.04678 -0.44334,-0.008 -0.61794,-0.29912 -0.61794,-1.03015 0,-1.37912 0.86583,-2.25481 3.17797,-3.21418 5.51536,-2.28848 14.13034,-0.42186 14.12191,3.05981 -0.003,1.21312 -1.48867,2.33232 -3.97005,2.99062 -0.9225,0.24474 -1.67727,0.57076 -1.67727,0.7245 0,0.39218 0.66842,0.32498 2.20073,-0.22128 1.85996,-0.66304 1.30627,-0.0357 -0.61539,0.69727 l -1.58534,0.60469 v 2.77343 c 0,2.7195 0.4647,3.68097 0.91433,1.89176 0.12185,-0.48492 0.40295,-0.8841 0.62466,-0.88707 0.22506,-0.003 0.16917,-0.17064 -0.12656,-0.37952 -0.40423,-0.28552 -0.41273,-0.34274 -0.0359,-0.24165 0.28287,0.0759 0.55472,0.72755 0.63645,1.52569 0.44934,4.38792 2.07964,0.71023 3.05628,-6.89447 0.0872,-0.67888 0.0844,1.30487 -0.006,4.40835 -0.16212,5.55311 -0.14806,5.69027 0.88566,8.64036 0.57772,1.64872 3.2092,9.25079 5.84774,16.89349 l 4.79736,13.89582 -0.1687,3.7341 c -0.14688,3.25099 -0.30743,4.01555 -1.241,5.90953 -3.3586,6.81377 -13.64728,10.94317 -22.77595,9.1412 z m -0.74694,-1.27975 c -0.42887,-0.42834 -1.25733,-0.75395 -2.01898,-0.79351 -0.71041,-0.0369 -1.29237,-0.20309 -1.29324,-0.36932 -8.8e-4,-0.16622 -0.23993,-0.21088 -0.53125,-0.0992 -0.29131,0.11165 -0.52966,0.0834 -0.52966,-0.0628 0,-0.14619 -0.91367,-0.73634 -2.03037,-1.31143 -1.1167,-0.5751 -2.50707,-1.44138 -3.0897,-1.92506 -0.74746,-0.62053 -0.6435,-0.43004 0.35311,0.64705 1.62694,1.7583 3.23297,2.66861 6.70906,3.80272 3.07908,1.00459 3.33701,1.01643 2.43103,0.11159 z m 16.6368,-2.00891 c 1.73443,-0.86769 4.3969,-2.9221 4.82686,-3.72449 0.24796,-0.46273 -0.24713,-0.17845 -1.29769,0.74513 -0.93423,0.82132 -2.70635,1.9888 -3.93804,2.5944 -1.23169,0.60561 -2.23944,1.16936 -2.23944,1.25279 0,0.21529 1.40088,-0.24376 2.64831,-0.86783 z m -21.58363,-11.33556 c 1.05968,-4.72882 2.08941,-8.69831 2.28829,-8.82107 0.19917,-0.12293 -0.16136,-0.58109 -0.80258,-1.01991 l -1.16418,-0.79672 0.82898,-3.25125 c 0.45593,-1.78819 0.83047,-3.51765 0.8323,-3.84324 0.002,-0.32559 0.24872,-0.83707 0.54865,-1.13662 0.29993,-0.29956 0.86525,-1.62017 1.25626,-2.9347 0.9586,-3.22266 1.04011,-3.33978 2.6346,-3.7855 l 1.3901,-0.38859 0.23129,-2.28199 c 0.12721,-1.25509 0.27698,-3.1502 0.33281,-4.21135 0.0989,-1.87896 0.0744,-1.9354 -0.93752,-2.16055 -0.57146,-0.12715 -1.30101,-0.34098 -1.62124,-0.47518 -0.32022,-0.13421 -0.69557,-0.0608 -0.83411,0.16306 -0.34492,0.55739 -2.25312,8.86403 -2.4911,10.84407 -0.10603,0.88217 -0.83804,4.07851 -1.6267,7.10298 -0.78865,3.02447 -2.51343,9.66423 -3.83284,14.75503 l -2.39893,9.25599 1.02772,0.73088 c 0.72649,0.51666 1.03427,0.59464 1.0501,0.26604 0.0123,-0.25567 0.17605,-0.0809 0.36387,0.38844 0.21025,0.52535 0.46755,0.72737 0.66951,0.52566 0.18042,-0.18019 1.19504,-4.19666 2.25472,-8.92548 z m 17.24494,5.91672 c 2.6793,-0.65998 5.22146,-1.85093 5.22146,-2.44615 0,-0.1668 -0.78694,0.0915 -1.74876,0.57398 -1.72368,0.86468 -6.57522,2.26764 -7.84164,2.26764 -0.35735,0 -0.64973,0.15473 -0.64973,0.34385 0,0.39023 1.07744,0.23151 5.01867,-0.73932 z m 1.19251,-3.21883 c 0.72963,-0.24276 1.38781,-0.62801 1.46262,-0.85612 0.12791,-0.39005 -3.1985,0.49607 -5.02549,1.33874 -1.02096,0.4709 1.87668,0.0784 3.56287,-0.48262 z m -2.77537,-2.37391 c 3.38278,-0.71318 4.94189,-1.333 5.72568,-2.27622 0.49712,-0.59826 0.0303,-0.77477 -0.54079,-0.20445 -0.56621,0.5655 -5.16105,2.05925 -7.14146,2.32163 -1.00779,0.13352 -1.83235,0.38103 -1.83235,0.55 0,0.40591 0.0181,0.40404 3.78892,-0.39096 z m 2.30219,-3.55395 c 0.72829,-0.19846 1.32416,-0.56209 1.32416,-0.80807 0,-0.32367 -0.73158,-0.20712 -2.64831,0.42192 -1.45657,0.47802 -2.64831,0.99025 -2.64831,1.13829 0,0.25441 0.91373,0.0814 3.97246,-0.75214 z m -2.91314,-2.45092 c 2.8031,-0.49439 5.64973,-1.70032 5.64973,-2.39342 0,-0.3938 -0.11176,-0.41926 -0.48444,-0.11035 -0.6733,0.55809 -5.33178,2.15244 -6.30626,2.1583 -1.13244,0.007 -2.39011,0.37969 -2.39011,0.70863 0,0.15319 0.27807,0.22523 0.61794,0.16009 0.33987,-0.0651 1.65078,-0.3006 2.91314,-0.52325 z m 10.4962,-2.20179 c -0.21764,-3.22105 -0.92339,-6.61252 -1.37603,-6.61252 -0.16086,0 -0.29246,0.24485 -0.29246,0.54411 0,0.29926 -0.75186,1.37049 -1.67079,2.38051 -0.91893,1.01002 -1.52905,1.71838 -1.35582,1.57414 0.41562,-0.34609 1.10916,0.68455 1.41967,2.10971 0.13686,0.62817 0.38964,1.22904 0.56174,1.33527 0.17209,0.10623 0.0862,-0.55902 -0.19078,-1.47834 -0.67435,-2.2379 -0.40393,-2.34463 0.61981,-0.24464 2.04676,4.19848 2.54768,4.28437 2.28466,0.39176 z m -7.48544,-0.19639 c -0.10871,-0.10858 -0.39364,-2.3e-4 -0.63316,0.24079 -0.34614,0.3483 -0.30558,0.38881 0.19767,0.19743 0.34824,-0.13244 0.54421,-0.32964 0.43549,-0.43822 z m -2.16575,-0.94226 c 2.05168,-0.48939 3.87333,-1.54266 1.97986,-1.14474 -2.53556,0.53285 -4.59041,1.15821 -4.59041,1.39701 0,0.34994 0.1444,0.33598 2.61055,-0.25227 z m 1.27364,-3.58084 c 3.41107,-1.24827 3.20417,-1.8671 -0.23377,-0.69923 -1.35941,0.46178 -3.29316,0.95246 -4.29724,1.09038 -1.00408,0.13792 -1.75234,0.36916 -1.6628,0.51386 0.23364,0.37757 4.32099,-0.21966 6.19381,-0.90501 z m -0.79449,-3.00359 c 1.1602,-0.35871 1.67309,-1.23933 0.52966,-0.90942 -0.33987,0.0981 -1.37271,0.38754 -2.2952,0.64328 -0.9225,0.25574 -1.67727,0.60338 -1.67727,0.77253 0,0.31994 1.46892,0.10388 3.44281,-0.50639 z m 7.32699,-0.65278 c -0.31806,-1.44634 -0.60334,-1.16142 -0.30897,0.30859 0.12408,0.61961 0.2992,1.05306 0.38917,0.96321 0.09,-0.0899 0.0539,-0.66216 -0.0802,-1.2718 z m -3.91688,-3.31769 c -0.51885,-2.06803 -1.0081,-3.6954 -1.08722,-3.61637 -0.0791,0.079 0.28065,1.8357 0.7995,3.90373 0.51884,2.06803 1.00809,3.6954 1.08721,3.61638 0.0791,-0.079 -0.28065,-1.83571 -0.79949,-3.90374 z m 4.97873,1.64252 c -0.13727,-0.33944 -1.73775,-4.72465 -3.55662,-9.74492 -1.81887,-5.02026 -3.37278,-9.1934 -3.45313,-9.27365 -0.0803,-0.0803 -1.11151,0.45647 -2.29147,1.19272 -1.9579,1.22165 -2.14583,1.44651 -2.15045,2.57297 -0.009,2.20957 0.66697,6.47509 1.06517,6.72088 0.52387,0.32337 -1.60115,1.03781 -3.08682,1.03781 -0.65076,0 -1.18319,0.16698 -1.18319,0.37107 0,0.24914 0.97047,0.29242 2.95362,0.13171 2.86511,-0.23219 3.01589,-0.20552 5.03179,0.88997 2.36037,1.28269 5.06044,3.7658 6.01026,5.52731 0.68098,1.26294 1.07936,1.60904 0.66084,0.57413 z m -2.10734,-1.6965 c -0.30402,-0.72671 -0.65499,-1.2192 -0.77994,-1.09442 -0.12494,0.12479 0.0691,0.88316 0.4313,1.68528 0.80597,1.7851 1.11999,1.25293 0.34864,-0.59086 z m -5.75184,0.47371 c 0.9225,-0.39356 1.67726,-0.87171 1.67726,-1.06254 0,-0.19367 -0.27302,-0.23293 -0.61794,-0.0889 -1.94092,0.81077 -4.92309,1.58068 -6.12257,1.58068 -0.7813,0 -1.38097,0.17098 -1.38097,0.39375 0,0.59814 4.44319,0.0307 6.44422,-0.82304 z m -0.61794,-3.21261 c 0.69331,-0.391 0.69204,-0.40043 -0.0701,-0.51634 -0.42695,-0.0649 -1.09183,0.0506 -1.47749,0.25675 -0.38568,0.20615 -1.02009,0.37481 -1.40981,0.37481 -0.38973,0 -0.82005,0.18011 -0.95627,0.40024 -0.30916,0.49962 2.85199,0.0833 3.91363,-0.51546 z m -15.9257,-4.02862 c 0.321,-0.6304 0.43919,-1.14617 0.26264,-1.14617 -0.17654,0 -0.40094,0.27772 -0.49867,0.61716 -0.0977,0.33945 -0.30047,0.93457 -0.45055,1.32251 -0.38866,1.00463 -7.4e-4,0.55631 0.68658,-0.7935 z m 1.27172,-3.38836 c 0,-0.44808 -0.1631,-0.24801 -0.67787,0.83152 -0.39641,0.83133 -0.38907,0.84258 0.12872,0.19709 0.30203,-0.37651 0.54915,-0.83939 0.54915,-1.02861 z m 1.38498,-3.64708 c 0.24825,-0.62053 0.38345,-1.33174 0.30045,-1.58045 -0.083,-0.24871 -0.39993,0.259 -0.70428,1.12825 -0.30434,0.86925 -0.66915,1.89785 -0.8107,2.28579 l -0.25735,0.70533 0.51025,-0.70533 c 0.28064,-0.38794 0.71337,-1.21305 0.96163,-1.83359 z m 11.89435,-5.60128 c -0.11789,-0.30681 -0.21434,-0.71293 -0.21434,-0.90248 0,-0.18955 -0.14397,-0.25576 -0.31995,-0.14714 -0.40561,0.25037 -0.0688,1.60747 0.39892,1.60747 0.19233,0 0.25325,-0.25103 0.13537,-0.55785 z m -9.07691,-11.78552 c -0.0813,-2.78031 -0.38501,-3.0199 -1.97581,-1.55855 -0.5449,0.50056 -0.81614,0.82343 -0.60274,0.71747 0.23681,-0.11757 0.4,0.22913 0.41881,0.88979 0.0285,1.00269 -0.006,1.03427 -0.46504,0.42869 -0.27272,-0.35955 -0.50091,-0.48302 -0.50709,-0.27437 -0.0203,0.68672 1.86923,2.13455 2.92056,2.2378 0.15592,0.0153 0.25101,-1.08306 0.21131,-2.44083 z m 11.76467,-1.49027 c -0.52789,-0.52724 -0.76444,-0.5891 -0.97171,-0.25415 -0.17759,0.287 -0.13056,0.35422 0.1337,0.19109 0.24157,-0.14911 0.40767,-0.0276 0.40767,0.29818 0,0.3024 0.1589,0.54981 0.35311,0.54981 0.19421,0 0.37154,0.27773 0.39407,0.61717 0.036,0.54253 0.0615,0.5372 0.21093,-0.044 0.0965,-0.37551 -0.1315,-0.9623 -0.52777,-1.35807 z m -15.48865,6.60395 c -0.001,-1.7457 0.0586,-2.50432 0.13269,-1.68581 0.0741,0.81851 0.0749,2.24681 0.002,3.17401 -0.073,0.92719 -0.13355,0.25751 -0.13463,-1.4882 z"
         id="path3851" />
      <path
         style="fill:#b1d3f4;stroke-width:0.352888"
         d="m -468.18932,-158.19923 c -8.41833,-1.08717 -14.86109,-5.68319 -16.76811,-11.96172 -0.55779,-1.83643 -0.72888,-5.78923 -0.25058,-5.78923 0.42992,0 1.91277,-4.87909 1.62446,-5.34501 -0.14254,-0.23035 -0.0976,-0.31159 0.1036,-0.18738 0.19747,0.1219 0.55274,-0.44125 0.79994,-1.26801 0.24459,-0.81801 1.2351,-3.50296 2.20113,-5.96655 1.78492,-4.55193 2.57739,-5.65729 5.58051,-7.78388 0.87367,-0.61867 0.87094,-0.61949 -0.26483,-0.0791 -1.24919,0.59433 -1.43267,0.51031 -0.63196,-0.2894 0.2836,-0.28325 0.58825,-0.91493 0.677,-1.40373 0.22225,-1.22412 1.27921,-2.7579 1.71511,-2.48884 0.22715,0.14022 0.30375,-0.24896 0.20883,-1.06103 -0.0825,-0.70536 -0.0576,-1.28247 0.0552,-1.28247 0.34688,0 1.14632,-3.11076 0.90122,-3.50684 -0.12677,-0.20488 -0.0937,-0.3725 0.0735,-0.3725 0.16718,0 0.31972,-0.55511 0.33898,-1.23357 0.0192,-0.67846 -0.0901,-1.15634 -0.24298,-1.06197 -0.51371,0.3171 -0.7021,-1.3799 -0.64562,-5.81582 0.0472,-3.70546 0.093,-4.04285 0.28734,-2.116 0.22269,2.20783 0.23346,2.22841 0.29216,0.55839 0.0823,-2.34278 0.41274,-1.85826 0.59161,0.86759 0.08,1.21926 0.2993,2.31179 0.48732,2.42784 0.18801,0.11605 0.3934,0.84375 0.45642,1.6171 0.082,1.00636 0.26516,1.38521 0.64424,1.33262 0.29132,-0.0404 0.84746,-0.11976 1.23588,-0.17633 0.59819,-0.0871 0.72283,0.12642 0.8148,1.39598 0.12227,1.68782 0.13099,1.68195 -1.49164,1.00482 -1.13353,-0.47303 -1.20062,-0.45719 -1.57927,0.37282 -0.21749,0.47676 -0.79936,2.72249 -1.29304,4.99052 -0.49368,2.26804 -1.04569,4.48077 -1.22669,4.9172 -0.18099,0.43643 -0.2061,0.7935 -0.0558,0.7935 0.23572,0 -2.66569,12.26059 -2.99837,12.67033 -0.0673,0.0828 -0.63706,-0.31358 -1.26621,-0.88093 l -1.14392,-1.03156 1.14033,1.2429 1.14032,1.24289 -2.28598,8.8074 -2.28599,8.80739 1.14566,0.99683 c 1.52159,1.32391 4.42714,2.7929 4.92109,2.488 0.22427,-0.13843 0.29644,-0.0851 0.16729,0.1236 -0.12493,0.20188 0.10458,0.4537 0.51003,0.5596 0.40544,0.10589 0.64338,0.0989 0.52875,-0.0156 -0.11463,-0.11448 -0.0112,-0.4516 0.2299,-0.74914 0.30669,-0.3785 0.31309,-0.46596 0.0213,-0.29119 -0.22934,0.13738 -0.51679,0.0885 -0.63878,-0.10864 -0.12198,-0.19713 -0.0707,-0.35842 0.11388,-0.35842 0.30195,0 0.8325,-1.42156 0.7415,-1.98682 -0.0201,-0.12466 0.1557,-0.34529 0.3906,-0.49029 0.2349,-0.14499 0.47826,-1.14907 0.5408,-2.23128 0.0625,-1.08221 0.28676,-2.29061 0.49827,-2.68532 0.27784,-0.51851 0.27734,-0.71765 -0.002,-0.71765 -0.21251,0 -0.30445,-0.13238 -0.20433,-0.29418 0.10012,-0.16179 0.26676,-0.75692 0.3703,-1.3225 0.10355,-0.56558 0.27552,-1.42507 0.38215,-1.90999 0.1818,-0.82672 0.37327,-2.18057 0.68201,-4.82243 0.12226,-1.04618 0.006,-1.18055 -1.78133,-2.05378 -1.05168,-0.5139 -1.91214,-1.09075 -1.91214,-1.2819 0,-0.19115 0.11917,-0.27398 0.26483,-0.18407 0.14566,0.0899 0.28378,-0.33715 0.30693,-0.94902 0.0649,-1.71485 0.37129,-3.09808 1.19018,-5.37333 0.41317,-1.14795 1.11221,-3.51256 1.55342,-5.25468 0.79257,-3.12944 0.81742,-3.17108 2.0686,-3.46661 l 1.26638,-0.29912 0.23367,-2.8814 c 0.12852,-1.58478 0.2609,-6.09509 0.29419,-10.02291 0.0586,-6.91812 0.0384,-7.14237 -0.6457,-7.16936 -0.50831,-0.0201 -0.55956,-0.0854 -0.18286,-0.23304 0.28784,-0.11284 0.71676,-0.39833 0.95315,-0.63443 0.33765,-0.33723 0.0685,-0.47713 -1.25572,-0.65257 -0.92704,-0.12282 -1.99155,-0.45171 -2.36559,-0.73086 -0.65405,-0.48812 -0.64967,-0.49989 0.11443,-0.30762 0.76824,0.19332 0.79449,0.11701 0.79449,-2.30988 0,-2.70189 -0.23663,-2.9754 -1.69288,-1.95667 -0.43488,0.30422 -0.6843,0.72505 -0.55428,0.93517 0.13002,0.21012 -0.055,0.59486 -0.41117,0.85497 -0.62023,0.45295 -0.61245,0.51027 0.18416,1.35717 0.45745,0.48633 0.68324,0.88424 0.50175,0.88424 -0.503,0 -2.26487,-1.73331 -2.26487,-2.22814 0,-0.62776 1.02839,-2.00388 1.49752,-2.00388 0.21899,0 1.08619,-0.33265 1.92712,-0.73923 1.91829,-0.92747 4.99707,-1.21535 7.52171,-0.7033 1.06815,0.21664 2.26859,0.44591 2.66765,0.50949 0.39905,0.0636 1.03465,0.31151 1.41243,0.55095 0.47238,0.2994 0.50469,0.37956 0.10346,0.25669 -0.9015,-0.27607 -1.08271,0.18137 -0.2912,0.73507 0.39043,0.27313 0.61952,0.64262 0.50907,0.8211 -0.11044,0.17847 0.0641,0.22295 0.38795,0.0988 0.48536,-0.18602 0.54362,-0.0769 0.33176,0.62121 -0.21135,0.69646 -0.17381,0.76769 0.21136,0.40109 0.37388,-0.35585 0.38414,-0.67595 0.0509,-1.587 l -0.41749,-1.14125 0.69505,0.83257 c 1.64403,1.96934 0.32007,3.74813 -3.54226,4.75912 -1.38965,0.36376 -1.76757,0.57896 -1.32857,0.75655 0.33744,0.1365 1.11797,0.0726 1.73452,-0.14211 1.76408,-0.61419 1.5848,-0.17868 -0.20794,0.50512 l -1.61044,0.61426 0.0576,5.33027 c 0.0406,3.75626 0.12784,4.75749 0.29555,3.3906 0.1309,-1.06682 0.2639,-1.50325 0.29555,-0.96984 0.0316,0.53341 0.0307,1.00951 -0.002,1.05801 -0.0328,0.0485 0.13294,0.44759 0.36834,0.8869 0.36487,0.68091 0.33461,0.83318 -0.20517,1.03228 -0.34823,0.12845 -0.72038,0.36154 -0.82698,0.51799 -0.18992,0.27873 0.11295,4.33858 0.53833,7.21617 0.1929,1.30497 0.13204,1.47599 -0.59446,1.67036 -0.44516,0.11909 -1.3258,0.2187 -1.95698,0.22135 -0.63118,0.003 -1.1476,0.18612 -1.1476,0.40772 0,0.2819 0.63628,0.33649 2.11865,0.18174 2.08042,-0.21717 2.11865,-0.20535 2.11865,0.6551 1e-5,0.64115 0.18949,0.87626 0.70622,0.87626 0.87058,0 0.92767,-0.89413 0.0883,-1.38242 -0.58556,-0.34064 -0.58497,-0.36003 0.0113,-0.3702 0.34611,-0.006 1.14966,0.20644 1.78568,0.47185 1.0597,0.44222 1.22232,0.72976 1.94465,3.43851 1.44411,5.41539 2.63413,9.12762 2.92603,9.12762 0.15879,0 0.13374,-0.40708 -0.0557,-0.90462 -0.51551,-1.3542 -0.42041,-1.62217 0.34376,-0.96869 0.37847,0.32365 0.58632,0.75853 0.46188,0.96639 -0.12444,0.20785 0.0686,0.13987 0.42901,-0.15108 0.61536,-0.4968 0.62939,-0.48052 0.23042,0.26729 -0.23366,0.43795 -1.2528,1.45703 -2.26474,2.2646 -1.01195,0.80757 -1.5221,1.36138 -1.13368,1.23069 0.69538,-0.23399 0.6957,-0.22951 0.0208,0.29223 -0.77899,0.60219 -1.40684,0.7052 -1.08011,0.1772 0.25052,-0.40485 -0.0633,-0.41654 -1.02934,-0.0383 -0.37193,0.14561 -0.71635,0.53775 -0.76539,0.87142 -0.0984,0.6693 0.59618,0.5652 2.42304,-0.36317 1.13471,-0.57663 1.80196,-0.31853 1.56051,0.60364 -0.0924,0.35271 0.11272,0.94212 0.4557,1.30982 0.34299,0.36769 0.73987,1.03437 0.88197,1.48152 0.18327,0.57671 0.3386,0.6833 0.53448,0.36677 0.18252,-0.29497 0.36036,-0.0631 0.52466,0.68395 0.13669,0.6216 0.32067,1.05814 0.40883,0.97009 0.0882,-0.088 -0.0859,-1.22015 -0.38671,-2.51578 -0.75162,-3.23688 -0.68274,-3.4686 0.43229,-1.45426 0.52954,0.95663 1.15556,1.80108 1.39116,1.87656 1.19212,0.38191 0.77682,-4.32268 -0.84845,-9.61123 -0.47687,-1.55174 -1.07039,-3.4907 -1.31892,-4.3088 -0.24854,-0.8181 -0.31418,-1.40246 -0.14589,-1.29858 0.59261,0.36579 1.70834,2.94622 1.70834,3.95098 0,0.82916 2.60373,9.13544 2.9821,9.51334 0.0598,0.0597 0.20589,-0.14464 0.32477,-0.45403 0.14137,-0.36796 0.0762,-0.47613 -0.18856,-0.31273 -0.27522,0.16989 -0.34099,0.007 -0.20557,-0.51069 0.10952,-0.41826 0.0457,-0.76048 -0.14177,-0.76048 -0.18749,0 -0.23838,-0.16565 -0.1131,-0.36811 0.12529,-0.20247 0.0358,-0.59922 -0.19894,-0.88167 -0.23472,-0.28246 -0.33184,-0.51356 -0.21584,-0.51356 0.116,0 -0.25174,-1.25319 -0.81719,-2.78488 -0.56546,-1.53168 -0.92589,-2.88695 -0.80098,-3.01172 0.12492,-0.12476 1.20722,2.59381 2.4051,6.04127 2.09545,6.03061 2.17254,6.37523 2.03458,9.09524 -0.24412,4.8132 -0.44679,5.67311 -1.84706,7.8369 -3.13732,4.84799 -9.06769,7.90279 -16.16572,8.32713 -1.52082,0.0909 -3.32127,0.0935 -4.001,0.006 z m -2.52025,-1.47474 c -0.22418,-0.35852 -1.21864,-0.8562 -2.20992,-1.10596 -2.34213,-0.59012 -5.50669,-2.18325 -7.08366,-3.56612 -1.64532,-1.44281 -1.6106,-0.7966 0.0489,0.91 1.36744,1.40625 4.65698,3.12447 7.45488,3.89388 2.23655,0.61504 2.2559,0.61362 1.7898,-0.1318 z m 16.56637,-2.13776 c 2.3389,-1.18809 5.02172,-3.38646 5.02172,-4.1149 0,-0.28775 -0.56488,0.0622 -1.32522,0.82098 -0.72887,0.72738 -2.47676,1.92629 -3.88419,2.66424 -1.40743,0.73796 -2.55897,1.41243 -2.55897,1.49884 0,0.36381 0.84715,0.0957 2.74666,-0.86916 z m -1.3383,-5.2246 c -0.38032,-0.59187 -0.39123,-0.59078 -0.19914,0.0199 0.11177,0.3553 0.22702,1.06946 0.25612,1.587 l 0.0529,0.941 0.14623,-0.96085 c 0.0804,-0.52846 -0.0348,-1.24261 -0.25612,-1.587 z m -2.87711,-0.12543 c 2.51553,-0.63955 4.99983,-1.84815 4.99983,-2.43241 0,-0.15793 -1.21941,0.24229 -2.70981,0.88938 -1.49039,0.6471 -3.79442,1.37012 -5.12007,1.60673 -1.32564,0.23661 -2.41025,0.57068 -2.41025,0.74237 0,0.364 1.61546,0.11551 5.2403,-0.80607 z m 2.9932,-2.43321 c 0.15871,-0.14641 0.0395,-0.36164 -0.26483,-0.47829 -0.30437,-0.11666 -0.5534,-0.049 -0.5534,0.15031 0,0.19933 -0.18345,0.24918 -0.40767,0.11078 -0.24095,-0.14873 -0.31225,-0.0974 -0.17435,0.1254 0.12832,0.20737 0.0337,0.46848 -0.21028,0.58024 -0.24397,0.11176 -0.0463,0.10747 0.43919,-0.01 0.48552,-0.11699 1.01263,-0.3325 1.17134,-0.47891 z m -2.41425,-0.65258 c 1.16138,-0.32392 2.03533,-0.74765 1.94209,-0.94161 -0.0932,-0.19397 -0.32842,-0.32139 -0.52263,-0.28317 -0.53975,0.10625 -3.79363,1.18614 -4.5904,1.52345 -1.29971,0.55024 0.85486,0.34731 3.17094,-0.29867 z m 1.03748,-1.68468 c 0.55548,-0.2129 0.79924,-1.20152 0.29371,-1.19121 -0.43349,0.009 -0.96484,0.4926 -1.05933,0.96444 -0.10028,0.5008 -0.0152,0.52601 0.76562,0.22677 z m -3.59765,-0.71726 c 2.95006,-0.58455 6.27484,-1.96287 6.27484,-2.60129 0,-0.43261 -0.45681,-0.44846 -0.90043,-0.0312 -0.58923,0.55417 -5.35197,2.11517 -7.20102,2.36015 -0.98207,0.13011 -1.78558,0.37482 -1.78558,0.5438 0,0.41469 0.24089,0.3966 3.61219,-0.27142 z m 3.63787,-2.40102 c 1.16958,-0.48808 1.79666,-1.09681 0.69487,-0.67454 -0.29131,0.11166 -0.52966,0.0422 -0.52966,-0.15438 0,-0.62229 -1.33924,-0.0357 -1.52328,0.66719 -0.21124,0.80676 -0.19288,0.80895 1.35807,0.16173 z m -0.3388,-1.3897 c 0.27721,-0.10624 0.50401,-0.40576 0.50401,-0.66561 0,-0.35956 -0.63282,-0.26477 -2.64831,0.39669 -1.45657,0.47802 -2.64831,0.97615 -2.64831,1.10695 0,0.22497 3.71305,-0.42428 4.79261,-0.83803 z m 10.32284,-1.45897 c -0.10872,-0.10858 -0.30616,0.0872 -0.43876,0.43495 -0.19163,0.50263 -0.15107,0.54313 0.19767,0.19743 0.24132,-0.23923 0.34981,-0.5238 0.24109,-0.63238 z m -10.2322,-0.64392 c 0.0898,-0.4659 -0.0551,-0.61062 -0.52155,-0.5209 -0.35528,0.0683 -0.70194,0.41456 -0.77036,0.76939 -0.0898,0.46591 0.0551,0.61063 0.52156,0.5209 0.35527,-0.0683 0.70193,-0.41456 0.77035,-0.76939 z m -3.82393,-0.21549 c 2.69484,-0.45324 5.64973,-1.69472 5.64973,-2.37368 0,-0.39124 -0.14264,-0.38551 -0.79449,0.0319 -0.86939,0.5567 -4.9622,1.79897 -7.06216,2.14354 -0.72829,0.11951 -1.32416,0.35393 -1.32416,0.52095 0,0.16702 0.27807,0.24959 0.61794,0.1835 0.33987,-0.0661 1.65078,-0.29388 2.91314,-0.5062 z m 2.38348,-3.59161 c 0.63118,-0.19545 1.1476,-0.58111 1.1476,-0.85701 0,-0.61944 0.18239,-0.63625 -2.21034,0.20368 -1.10512,0.38793 -2.25163,0.70533 -2.54779,0.70533 -0.29617,0 -0.53849,0.17265 -0.53849,0.38367 0,0.4154 2.11927,0.19287 4.14902,-0.43567 z m -2.91314,-2.62127 c 2.17075,-0.2844 5.12007,-1.4884 5.12007,-2.09017 0,-0.31449 -0.59411,-0.20554 -2.03037,0.37233 -1.11671,0.44931 -3.10294,1.0026 -4.41385,1.22955 -1.31092,0.22695 -2.38348,0.56765 -2.38348,0.75712 0,0.18946 0.43697,0.25853 0.97104,0.15348 0.53408,-0.10505 1.76554,-0.29508 2.73659,-0.42231 z m 2.20693,-3.72674 c 1.00717,-0.31189 1.60995,-1.00084 0.88277,-1.00897 -0.81882,-0.009 -5.03179,1.26579 -5.03179,1.52275 0,0.33567 2.34267,0.0456 4.14902,-0.51378 z m 0.29159,-3.48613 c 0.85922,-0.36785 1.56222,-0.85014 1.56222,-1.07175 0,-0.22161 -0.21968,-0.31874 -0.48818,-0.21583 -2.01322,0.77158 -5.44195,1.6517 -6.43462,1.6517 -0.65927,0 -1.19868,0.1792 -1.19868,0.39823 0,0.59332 4.6569,0.0521 6.55926,-0.76235 z m -1.06086,-1.75609 c 0,-0.83318 -0.67918,-0.73552 -0.84561,0.12159 -0.0628,0.32337 0.10178,0.58795 0.36572,0.58795 0.26394,0 0.47989,-0.31929 0.47989,-0.70954 z m -0.0418,-1.11041 c 0.89862,-0.40893 1.13403,-0.82247 0.63455,-1.11473 -0.30607,-0.17909 -3.79224,0.87378 -4.18195,1.26301 -0.42361,0.42308 2.56649,0.29809 3.5474,-0.14828 z m -12.51872,-29.56748 c 0,-0.19396 -0.1589,-0.35266 -0.35311,-0.35266 -0.19421,0 -0.35311,0.1587 -0.35311,0.35266 0,0.19397 0.1589,0.35267 0.35311,0.35267 0.19421,0 0.35311,-0.1587 0.35311,-0.35267 z m 11.29405,-0.7935 c 0.0136,-0.66564 -0.5573,-0.17473 -0.61004,0.52456 -0.0468,0.62013 0.0116,0.67675 0.27256,0.2645 0.18264,-0.28851 0.33451,-0.64358 0.33748,-0.78906 z m -1.05392,-0.2645 c 0,-0.19397 -0.27807,-0.35024 -0.61794,-0.34727 -0.52809,0.005 -0.54092,0.0551 -0.0883,0.34727 0.66639,0.43012 0.70622,0.43012 0.70622,0 z m 1.23588,-0.70533 c -0.12003,-0.19397 -0.37713,-0.35267 -0.57134,-0.35267 -0.19421,0 -0.25491,0.1587 -0.13488,0.35267 0.12003,0.19396 0.37713,0.35266 0.57134,0.35266 0.19421,0 0.25491,-0.1587 0.13488,-0.35266 z m -17.67611,30.18268 c 2.37918,-6.89083 3.02212,-8.56673 3.02212,-7.87744 0,0.502 -5.08128,14.93865 -5.36891,15.25386 -0.177,0.19397 0.87905,-3.12542 2.34679,-7.37642 z m 27.46127,4.83759 c -0.19804,-0.54332 -1.76065,-4.79665 -3.47246,-9.45187 l -3.11239,-8.46402 -0.0486,-4.23201 -0.0486,-4.23202 0.25748,4.05568 c 0.25106,3.95462 0.34195,4.29245 3.64753,13.5576 1.86452,5.22606 3.33315,9.55875 3.26362,9.6282 -0.0695,0.0694 -0.28847,-0.31825 -0.48651,-0.86156 z m -5.21554,-4.5033 c -0.37699,-0.28479 -0.50627,-0.52284 -0.28728,-0.52901 0.21898,-0.006 0.59596,0.22684 0.83773,0.51779 0.55819,0.67174 0.33008,0.67639 -0.55045,0.0112 z m -18.8705,-9.8307 c 0,-0.0666 0.33612,-1.0585 0.74694,-2.20418 0.41081,-1.14567 0.86495,-3.1146 1.00919,-4.37539 l 0.26226,-2.29234 0.0501,1.88418 c 0.0331,1.24474 -0.26499,2.77071 -0.87843,4.49651 -0.78398,2.20561 -1.19009,3.05571 -1.19009,2.49122 z m 17.76122,-14.33826 c 0,-1.06682 0.0662,-1.50324 0.1471,-0.96983 0.0809,0.53341 0.0809,1.40626 0,1.93967 -0.0809,0.53341 -0.1471,0.097 -0.1471,-0.96984 z m -12.96273,0.40362 c -0.10269,-0.16595 0.20573,-0.2268 0.68537,-0.13522 0.47965,0.0916 0.87209,0.22735 0.87209,0.30172 0,0.27288 -1.37664,0.1257 -1.55746,-0.1665 z m -3.30413,-1.10895 c 0,-0.67889 0.0727,-0.95661 0.16148,-0.61717 0.0888,0.33944 0.0888,0.8949 0,1.23434 -0.0888,0.33944 -0.16148,0.0617 -0.16148,-0.61717 z"
         id="path3849" />
      <path
         style="fill:#98c5d5;stroke-width:0.352888"
         d="m -468.76608,-158.32238 c -8.03817,-1.09611 -14.32457,-5.69252 -16.19135,-11.83857 -0.28959,-0.95345 -0.52826,-2.15882 -0.53036,-2.67859 -0.005,-1.19689 6.05758,-18.90919 6.92423,-20.23022 0.63963,-0.97499 4.69908,-4.18344 4.96146,-3.92138 0.13817,0.138 -2.74885,12.25267 -2.99718,12.57694 -0.0743,0.097 -0.75479,-0.51855 -1.51227,-1.36786 -0.75747,-0.84931 -1.37723,-1.44489 -1.37723,-1.32352 0,0.12137 0.59182,0.87492 1.31515,1.67456 l 1.31514,1.4539 -2.37726,9.33738 -2.37725,9.33739 1.0536,1.32862 c 1.50626,1.89944 7.75591,4.9516 10.13897,4.9516 0.98118,0 -0.95154,-1.38474 -2.62582,-1.88132 -2.22353,-0.65949 -5.62591,-2.41151 -6.97219,-3.59023 -1.22968,-1.07665 -0.63796,-0.83524 1.50461,0.61384 1.76173,1.19151 3.49369,1.95961 5.82239,2.58214 1.40588,0.37584 1.67726,0.36987 1.67726,-0.0369 0,-0.6844 1.3615,-16.59232 1.57536,-18.40673 0.0977,-0.82882 0.0278,-1.49884 -0.15644,-1.49884 -0.18321,0 -1.18658,-0.31893 -2.22973,-0.70873 l -1.89662,-0.70874 0.96514,-4.49311 c 1.05322,-4.90317 1.6608,-7.21512 1.71044,-6.50855 0.0391,0.55624 1.44428,-0.0886 1.44428,-0.6628 0,-0.19859 -0.19862,-0.24907 -0.44138,-0.11218 -0.35311,0.1991 -0.35311,0.15389 0,-0.22606 0.24276,-0.26122 0.44138,-0.79234 0.44138,-1.18027 0,-0.5486 0.0942,-0.61129 0.42373,-0.28214 0.71967,0.71877 0.98836,0.4765 0.99734,-0.8993 0.005,-0.72738 0.18095,-2.03666 0.39158,-2.90951 0.21062,-0.87285 0.4848,-5.82519 0.6093,-11.0052 l 0.22636,-9.41821 -1.3223,-0.22268 c -0.72727,-0.12247 -1.41084,-0.36575 -1.51905,-0.54062 -0.10821,-0.17486 0.0498,-0.22343 0.35126,-0.10791 0.42765,0.1639 0.54918,-0.05 0.5534,-0.97388 0.004,-0.89414 0.0892,-1.05443 0.34771,-0.6549 0.47068,0.72743 0.44299,0.12139 -0.0352,-0.77108 -0.28238,-0.52696 -0.28238,-0.6593 0,-0.485 0.25115,0.15503 0.38833,-0.15489 0.38833,-0.87734 0,-1.03681 -0.0697,-1.10125 -0.97104,-0.89707 -0.94369,0.21377 -0.95115,0.20373 -0.26483,-0.35631 0.6818,-0.55637 0.6696,-0.56792 -0.35311,-0.3342 -1.51155,0.34544 -2.72047,1.20069 -2.41523,1.70866 0.15619,0.25992 0.0232,0.2371 -0.34186,-0.0587 -0.3388,-0.27448 -0.59744,-0.32513 -0.59744,-0.11701 0,0.20185 -0.0833,0.58393 -0.18521,0.84907 -0.10187,0.26513 0.16335,0.85573 0.58937,1.31245 0.42603,0.45671 0.55877,0.75853 0.29498,0.67071 -0.26379,-0.0878 -0.79159,-0.577 -1.17289,-1.08708 -0.65873,-0.8812 -0.66343,-0.97292 -0.0942,-1.84051 0.32946,-0.5022 0.75203,-0.81865 0.93903,-0.70322 0.187,0.11543 0.77589,-0.0985 1.30864,-0.47531 1.54088,-1.08997 4.57178,-1.61227 7.36737,-1.26958 1.72147,0.21102 2.0947,0.33364 1.28137,0.42097 l -1.1476,0.12321 v 3.16765 3.16764 l 1.32416,-0.2391 c 0.72828,-0.1315 1.35431,-0.2614 1.39118,-0.28865 0.0369,-0.0273 0.10163,-1.1171 0.14392,-2.42189 0.0423,-1.30478 0.1392,-2.37234 0.21534,-2.37234 0.29907,0 2.22202,1.08678 2.22202,1.25581 0,0.0988 -0.30735,0.0154 -0.683,-0.18539 -1.05859,-0.56584 -1.33334,-0.4306 -0.42134,0.20739 0.63611,0.445 0.78838,0.82873 0.68381,1.7233 -0.15692,1.34249 0.41667,1.32171 1.14718,-0.0416 0.37615,-0.70196 0.38699,-1.1095 0.053,-1.99315 -0.39329,-1.04063 -0.3823,-1.07332 0.17395,-0.51776 0.32655,0.32615 0.62706,1.07366 0.66778,1.66112 0.0946,1.36409 -1.02236,2.28398 -3.70743,3.05341 -1.0861,0.31123 -2.02686,0.61173 -2.09058,0.66778 -0.30631,0.26947 0.0313,14.18214 0.42201,17.3908 l 0.44429,3.6487 -0.8396,0.31882 c -0.46178,0.17534 -1.30595,0.31881 -1.87593,0.31881 -0.56999,0 -1.03634,0.18074 -1.03634,0.40165 0,0.27638 0.65008,0.34278 2.08429,0.21289 l 2.08429,-0.18876 0.13883,1.18768 c 0.14449,1.23613 -0.17584,1.56055 -1.54085,1.56055 -0.40862,0 -0.64458,0.18596 -0.55936,0.44084 0.0867,0.25925 0.59002,0.39543 1.22199,0.33062 0.96043,-0.0985 1.09147,0.005 1.23359,0.97184 0.0875,0.59513 0.086,1.15499 -0.003,1.24413 -0.0892,0.0891 -1.09471,0.26744 -2.23434,0.39622 -2.8614,0.32333 -2.71962,1.01075 0.15321,0.74282 2.21183,-0.20629 2.22763,-0.20128 2.61706,0.82915 0.44693,1.18255 0.39681,1.23889 -1.40222,1.57597 -2.03947,0.38213 -1.61211,0.97275 0.53236,0.73572 1.0196,-0.11269 1.66412,-0.11733 1.43227,-0.0103 -0.44761,0.20662 -0.21757,1.22662 0.36437,1.61561 0.37126,0.24816 -1.94378,0.99363 -3.1208,1.00494 -1.14104,0.011 -2.2952,0.40463 -2.2952,0.78286 0,0.20122 0.48932,0.26646 1.1476,0.15301 0.63118,-0.10878 1.88323,-0.3003 2.78234,-0.4256 1.63293,-0.22755 1.63454,-0.22673 1.44951,0.73995 -0.10187,0.53227 -0.043,0.88929 0.1308,0.79339 0.17382,-0.0959 0.60096,-0.27584 0.9492,-0.39985 0.51362,-0.18291 0.56129,-0.35961 0.2525,-0.93588 -0.33274,-0.62096 -0.22352,-0.78525 0.86754,-1.30488 0.68651,-0.32697 1.24821,-0.80723 1.24821,-1.06723 0,-0.38045 -0.20339,-0.3677 -1.04179,0.0653 -0.57298,0.29593 -1.16885,0.53806 -1.32415,0.53808 -0.4437,4e-5 -0.26351,-2.23986 0.19239,-2.39164 0.2244,-0.0747 0.40801,-0.37136 0.40801,-0.65922 0,-0.33798 -0.2189,-0.45397 -0.61794,-0.32746 -0.50257,0.15934 -0.61182,-0.01 -0.58516,-0.90717 0.0243,-0.81736 0.27582,-1.23028 0.97105,-1.59409 0.51605,-0.27004 0.93827,-0.71456 0.93827,-0.98781 0,-0.42512 -0.14016,-0.42381 -0.97105,0.009 -1.3126,0.68386 -1.32047,0.67963 -1.35065,-0.72512 -0.0147,-0.67833 0.10451,-1.23332 0.26474,-1.23332 0.16023,0 0.29132,-0.25503 0.29132,-0.56673 0,-0.35887 -0.19426,-0.49228 -0.52966,-0.36374 -0.29131,0.11165 -0.52966,0.0493 -0.52966,-0.1386 0,-0.53347 1.05881,-0.40063 1.27416,0.15986 0.18858,0.49082 0.39941,1.44104 0.47559,2.14355 0.0211,0.19397 0.26109,0.0589 0.53345,-0.30018 0.45761,-0.60328 0.52594,-0.53633 0.89998,0.88167 1.14377,4.33606 2.2003,7.91466 2.50401,8.48145 0.28352,0.5291 0.0612,0.81209 -1.33009,1.69334 -0.91877,0.58195 -1.83801,1.04555 -2.04275,1.03024 -0.20474,-0.0153 -0.17363,-0.10789 0.0691,-0.20572 0.36633,-0.14764 0.66445,-1.17711 0.34087,-1.17711 -0.0553,0 -1.00471,0.3174 -2.10983,0.70534 -1.10512,0.38793 -2.25163,0.70533 -2.54779,0.70533 -0.29617,0 -0.53849,0.16843 -0.53849,0.37428 0,0.24373 0.55423,0.29127 1.58899,0.13629 1.53817,-0.23037 1.58899,-0.20855 1.58899,0.68229 v 0.92028 l 1.76537,-0.66996 c 0.97096,-0.36847 1.69088,-0.54956 1.59983,-0.40243 -0.31032,0.50148 -4.36659,1.79873 -6.42874,2.056 -1.1311,0.14111 -2.0075,0.4146 -1.94758,0.60775 0.0599,0.19315 0.37773,0.32251 0.70622,0.28746 0.32849,-0.0351 1.51093,-0.16966 2.62763,-0.29913 1.92954,-0.22371 2.03037,-0.19676 2.03037,0.54279 0,0.66702 0.13873,0.74685 0.97105,0.55879 1.78298,-0.40287 -0.0526,0.45583 -2.0847,0.97522 -1.03827,0.26539 -1.83215,0.62311 -1.76418,0.79496 0.068,0.17184 0.22687,0.29213 0.35311,0.26732 2.8345,-0.5571 2.87783,-0.55137 2.87783,0.38036 v 0.89622 l 1.83277,-0.69553 c 1.00802,-0.38254 1.89108,-0.6373 1.96234,-0.56612 0.26259,0.26226 -4.79486,1.99462 -6.90887,2.36653 -1.20057,0.21122 -2.18286,0.52577 -2.18286,0.69901 0,0.49361 2.32948,0.21419 5.03179,-0.60355 0.47667,-0.14425 0.61794,0.02 0.61794,0.71844 0,1.03164 -0.0115,1.02645 1.23307,0.55383 0.50927,-0.19338 0.84245,-0.21669 0.74042,-0.0518 -0.10204,0.16489 -1.10423,0.57422 -2.22711,0.90962 -1.12287,0.33541 -2.24021,0.67114 -2.48297,0.74607 -0.24276,0.0749 -0.44138,0.31691 -0.44138,0.53771 0,0.22081 0.22706,0.31445 0.50458,0.20808 0.27753,-0.10636 1.07202,-0.2997 1.76555,-0.42964 1.1091,-0.20781 1.26095,-0.15014 1.26095,0.47893 0,0.39336 0.19862,0.78663 0.44138,0.87393 0.46978,0.16894 -2.55781,1.10523 -4.76696,1.47419 -0.72828,0.12163 -1.32415,0.37266 -1.32415,0.55784 0,0.45307 0.33439,0.42959 3.22143,-0.22623 1.36294,-0.30961 2.55454,-0.48656 2.64799,-0.39322 0.0935,0.0933 0.3459,1.23037 0.56098,2.52674 0.37518,2.26133 0.42646,2.34816 1.26285,2.13849 1.20997,-0.3033 4.28077,-2.33826 5.5223,-3.65952 l 1.03332,-1.09968 -0.95114,-4.11231 c -0.52313,-2.26177 -0.86895,-4.19441 -0.76849,-4.29474 0.10046,-0.10033 0.18265,0.0638 0.18265,0.36479 0,0.30097 0.41232,0.81705 0.91626,1.14683 0.87823,0.57473 0.95013,0.56784 1.73222,-0.16598 0.69249,-0.64975 0.76757,-0.93409 0.49617,-1.87922 -0.59108,-2.0584 -0.29248,-1.84236 0.57835,0.41844 0.64714,1.68007 0.80877,2.60828 0.64481,3.70301 -0.51573,3.44354 -4.19635,7.73091 -8.2358,9.59347 -1.17417,0.54139 -2.13485,1.19667 -2.13485,1.45616 0,1.05082 5.19797,-1.87934 7.0293,-3.9625 0.57528,-0.6544 1.47292,-1.91744 1.99475,-2.80676 0.52183,-0.88932 1.03099,-1.53484 1.13148,-1.43449 0.38394,0.38347 -2.2893,4.23309 -3.97614,5.72587 -4.35849,3.85712 -11.71579,5.91515 -18.05561,5.05064 z m 0.11525,-36.22431 c -0.0895,-0.34313 -0.16867,-0.14777 -0.17586,0.43413 -0.007,0.5819 0.066,0.86264 0.16277,0.62388 0.0967,-0.23877 0.10262,-0.71487 0.0131,-1.05801 z m 11.7904,25.86955 c 0.51932,-0.4694 3.17396,-1.60408 2.9658,-1.26768 -0.14112,0.22805 -0.78822,0.63649 -1.43801,0.90764 -1.1354,0.47381 -1.83645,0.63902 -1.52779,0.36004 z m 4.97633,-20.67441 c -0.24744,-0.87285 -0.60173,-2.04916 -0.78732,-2.61403 -0.51862,-1.57849 -0.11671,-1.50262 0.72028,0.13597 0.47655,0.93295 0.708,1.94353 0.6338,2.76735 l -0.11688,1.29772 z m -28.63377,-1.23434 c 0.0368,-0.66803 0.62527,-1.79291 0.64576,-1.23433 0.0107,0.29095 -0.13462,0.76705 -0.32288,1.058 -0.18826,0.29095 -0.33356,0.3703 -0.32288,0.17633 z m 27.92951,-4.82513 c -0.81836,-2.3508 -1.42862,-4.3334 -1.35615,-4.40578 0.0725,-0.0724 0.80312,1.78999 1.62366,4.13861 0.82053,2.34862 1.4308,4.33122 1.35614,4.40578 -0.0746,0.0746 -0.8053,-1.78781 -1.62365,-4.13861 z m -27.16618,2.44463 c 0.0896,-0.24246 0.44058,-1.28429 0.77997,-2.31519 0.33939,-1.03089 0.67923,-1.81227 0.7552,-1.7364 0.17907,0.17885 -1.27672,4.49242 -1.51615,4.49242 -0.10006,0 -0.10862,-0.19837 -0.019,-0.44083 z m 20.4812,-4.34996 c -0.63118,-0.27569 -1.1476,-0.58227 -1.1476,-0.6813 0,-0.18371 2.47696,0.77505 2.7773,1.07502 0.30037,0.29999 -0.46452,0.1152 -1.6297,-0.39372 z m -10.7458,-0.92876 c 0.18831,-0.18807 0.63733,-0.2795 0.99782,-0.20319 0.48546,0.10278 0.39667,0.19146 -0.34237,0.34195 -0.64436,0.13121 -0.87654,0.0821 -0.65545,-0.13876 z m 14.76031,-4.72613 c -0.50497,-1.5 -0.85758,-2.78772 -0.7836,-2.86162 0.074,-0.0739 0.54767,1.09293 1.05263,2.59292 0.50496,1.5 0.85757,2.78773 0.78359,2.86162 -0.074,0.0739 -0.54767,-1.09292 -1.05262,-2.59292 z m -21.53434,1.62899 c 0.11911,-0.48492 0.43363,-1.35777 0.69894,-1.93967 0.3874,-0.84972 0.43973,-0.88444 0.2658,-0.17634 -0.11912,0.48492 -0.43364,1.35778 -0.69894,1.93968 -0.38741,0.84972 -0.43974,0.88443 -0.2658,0.17633 z m 19.42463,-7.49812 c -0.35339,-0.92417 -0.55978,-2.41106 -0.52735,-3.79904 l 0.0533,-2.28054 0.24753,2.645 c 0.13614,1.45476 0.43441,3.10345 0.66281,3.66376 0.22839,0.56031 0.35431,1.07962 0.27981,1.15403 -0.0745,0.0744 -0.39674,-0.54804 -0.71609,-1.38321 z m -13.99875,-1.31857 c 0,-0.77587 0.1589,-1.41067 0.35311,-1.41067 0.19421,0 0.35311,0.6348 0.35311,1.41067 0,0.77587 -0.1589,1.41067 -0.35311,1.41067 -0.19421,0 -0.35311,-0.6348 -0.35311,-1.41067 z m -2.47176,0.0416 c 0,-0.19397 0.1589,-0.45075 0.35311,-0.57063 0.19421,-0.11988 0.35311,-0.0593 0.35311,0.1347 0,0.19397 -0.1589,0.45075 -0.35311,0.57063 -0.19421,0.11988 -0.35311,0.0593 -0.35311,-0.1347 z"
         id="path3847" />
      <path
         style="fill:#93b5d9;stroke-width:0.352888"
         d="m -469.36634,-158.55191 c -0.6487,-0.64788 0.0807,-0.82729 3.5605,-0.87573 4.23429,-0.0589 3.70531,-0.22435 -1.20297,-0.37616 -1.77834,-0.055 -3.04953,0.0166 -2.82486,0.1591 0.29384,0.18638 0.29673,0.26062 0.0103,0.2645 -0.21899,0.003 -0.58982,-0.22525 -0.82408,-0.50716 -0.23425,-0.28191 -1.31949,-0.77201 -2.41163,-1.08911 -2.14841,-0.62378 -5.19188,-2.05653 -5.53033,-2.60348 -0.11545,-0.18656 0.46917,0.0364 1.29916,0.49542 1.48601,0.82188 5.90733,2.43488 6.10844,2.22851 0.0985,-0.10102 1.5148,-16.23853 1.67823,-19.12121 0.074,-1.30608 0.0104,-1.39968 -1.15752,-1.70278 -1.44607,-0.37528 -2.2223,-0.97085 -1.26534,-0.97085 0.48841,0 0.60242,-0.20392 0.47786,-0.85468 -0.11149,-0.58249 0.016,-0.90115 0.40022,-1.0006 0.9574,-0.2478 1.44492,0.11035 1.48527,1.09116 0.0213,0.51725 0.33375,-2.15421 0.69438,-5.93657 0.36064,-3.78236 0.74843,-7.53966 0.86177,-8.34956 l 0.20608,-1.47253 2.77465,-0.11447 c 3.04463,-0.12561 3.47847,0.25883 0.70654,0.62608 -1.60462,0.21259 -2.15845,0.56951 -1.4862,0.95779 0.14566,0.0841 1.09286,0.0434 2.10489,-0.0905 1.82276,-0.2412 1.84219,-0.23375 2.06811,0.79358 0.24184,1.09968 -0.19898,1.63885 -1.34813,1.64889 -0.33987,0.003 -0.61794,0.23347 -0.61794,0.51223 0,0.37856 0.30119,0.45801 1.19011,0.31394 1.11729,-0.18108 1.20011,-0.12483 1.35356,0.91937 0.0899,0.61174 0.0708,1.16876 -0.0425,1.23782 -0.11328,0.0691 -1.11963,0.23906 -2.23633,0.37778 -1.38763,0.17237 -2.03037,0.40894 -2.03037,0.7473 0,0.32596 0.27139,0.44014 0.79449,0.33424 0.43697,-0.0885 1.46981,-0.25207 2.2952,-0.36356 1.40929,-0.19036 1.50071,-0.15053 1.50071,0.65374 0,0.47105 0.19863,0.92981 0.44139,1.01949 0.24276,0.0897 -0.31339,0.35978 -1.23588,0.60025 -2.18505,0.56959 -2.22182,1.22047 -0.0506,0.89528 1.10826,-0.16599 1.5532,-0.12488 1.3961,0.129 -0.12682,0.20495 -0.0673,0.67745 0.13238,1.05 0.44731,0.83476 -0.049,1.08625 -2.77354,1.4054 -1.16533,0.1365 -1.97761,0.41708 -2.07735,0.71756 -0.12913,0.38904 0.12626,0.44797 1.20736,0.2786 0.75412,-0.11815 2.02772,-0.3178 2.83023,-0.44367 1.42363,-0.2233 1.45483,-0.2066 1.28381,0.68693 -0.16907,0.88331 -0.13712,0.90252 0.90046,0.54126 0.70325,-0.24485 1.05902,-0.59629 1.02745,-1.01495 -0.0278,-0.36864 -0.24244,-0.56602 -0.50575,-0.4651 -1.07422,0.4117 -0.33316,-0.3018 1.04031,-1.00162 1.06184,-0.54104 1.36516,-0.60358 1.04218,-0.2149 -0.26313,0.31666 -0.31637,0.63417 -0.12603,0.75166 0.18125,0.11188 0.39961,0.68024 0.48526,1.26303 0.0856,0.5828 0.0907,0.99471 0.0113,0.91538 -0.0794,-0.0793 -0.44899,0.15993 -0.82122,0.5317 -0.37224,0.37177 -0.87542,0.66341 -1.11818,0.6481 -0.35311,-0.0223 -0.35311,-0.0634 0,-0.20572 0.24276,-0.0978 0.44139,-0.41969 0.44139,-0.71522 0,-0.29554 -0.19863,-0.46575 -0.44139,-0.37824 -0.24276,0.0875 -1.4345,0.45192 -2.64831,0.80981 -2.56973,0.75767 -2.95069,1.41403 -0.61794,1.06465 1.53112,-0.22932 1.58899,-0.20514 1.58899,0.66385 v 0.90185 l 1.76537,-0.66996 c 0.97096,-0.36847 1.69088,-0.54956 1.59984,-0.40243 -0.30255,0.48892 -4.34298,1.79567 -6.3525,2.05452 -1.08916,0.14029 -1.93515,0.41378 -1.87998,0.60775 0.0552,0.19396 0.33866,0.32399 0.62997,0.28894 4.77204,-0.57413 4.59041,-0.58378 4.59041,0.24366 0,0.66702 0.13873,0.74685 0.97104,0.55879 1.74628,-0.39458 -0.0315,0.45042 -2.01338,0.95699 -0.99904,0.25536 -1.79292,0.61309 -1.76417,0.79496 0.0287,0.18186 0.15555,0.31036 0.28178,0.28555 2.8345,-0.5571 2.87784,-0.55137 2.87784,0.38036 v 0.89622 l 1.83277,-0.69553 c 1.00802,-0.38254 1.89107,-0.6373 1.96234,-0.56612 0.26259,0.26226 -4.79487,1.99462 -6.90888,2.36653 -1.20057,0.21122 -2.18286,0.52577 -2.18286,0.69901 0,0.49361 2.32948,0.21419 5.03179,-0.60355 0.47668,-0.14425 0.61794,0.02 0.61794,0.71844 0,1.03164 -0.0115,1.02645 1.23307,0.55383 0.50927,-0.19338 0.84246,-0.21669 0.74042,-0.0518 -0.10203,0.16489 -1.10423,0.57422 -2.2271,0.90962 -1.12288,0.33541 -2.24021,0.67114 -2.48297,0.74607 -0.24277,0.0749 -0.44139,0.31691 -0.44139,0.53771 0,0.22081 0.22706,0.31445 0.50459,0.20808 0.27752,-0.10636 1.07201,-0.2997 1.76554,-0.42964 1.1091,-0.20781 1.26095,-0.15014 1.26095,0.47893 0,0.39336 0.19863,0.78663 0.44139,0.87393 0.46977,0.16894 -2.55782,1.10523 -4.76696,1.47419 -0.72829,0.12163 -1.32416,0.37266 -1.32416,0.55784 0,0.45307 0.33439,0.42959 3.22144,-0.22623 1.36293,-0.30961 2.55453,-0.48656 2.64799,-0.39322 0.0935,0.0933 0.34409,1.21951 0.55697,2.50259 0.27263,1.64324 0.54064,2.33289 0.90661,2.33289 0.81356,0 4.36854,-2.28736 5.7066,-3.67177 l 1.21049,-1.25242 -0.95176,-4.11494 c -0.52346,-2.26322 -0.86956,-4.19704 -0.7691,-4.29737 0.10046,-0.10033 0.18265,0.0638 0.18265,0.36479 0,0.30097 0.41232,0.81705 0.91627,1.14683 0.87823,0.57473 0.95013,0.56784 1.73221,-0.16598 0.69249,-0.64975 0.76757,-0.93409 0.49617,-1.87922 -0.59107,-2.0584 -0.29248,-1.84236 0.57835,0.41844 0.64714,1.68007 0.80877,2.60828 0.64482,3.70301 -0.51777,3.45712 -4.02082,7.55271 -8.08449,9.45196 -2.38919,1.11664 -2.88151,1.51619 -2.30596,1.87146 0.48719,0.30072 4.32672,-1.7007 5.89139,-3.071 0.72147,-0.63183 1.76119,-1.76773 2.31049,-2.52421 0.5493,-0.75648 0.99873,-1.25853 0.99873,-1.11566 0,0.14287 -0.50598,0.96345 -1.1244,1.82351 -2.23802,3.11249 -6.59487,5.70796 -11.23439,6.69257 -2.35509,0.49981 -8.87708,0.68514 -9.29851,0.26423 z m 8.84977,-1.38863 c -0.11734,-0.11718 -0.42189,-0.12971 -0.67679,-0.0278 -0.28169,0.11258 -0.19802,0.19615 0.21333,0.21307 0.37224,0.0153 0.58079,-0.068 0.46346,-0.18523 z m 2.39083,-0.49226 c 0.44515,-0.19105 0.51041,-0.30309 0.17656,-0.30309 -0.29132,0 -0.84746,0.13639 -1.23588,0.30309 -0.44514,0.19105 -0.51041,0.30309 -0.17655,0.30309 0.29131,0 0.84745,-0.13639 1.23587,-0.30309 z m -12.95465,1.52243 c 0.2549,-0.10188 0.55946,-0.0893 0.67679,0.0278 0.11734,0.11719 -0.0912,0.20054 -0.46345,0.18523 -0.41135,-0.0169 -0.49502,-0.10049 -0.21334,-0.21307 z m -1.41243,-0.35267 c 0.2549,-0.10188 0.55945,-0.0894 0.67679,0.0278 0.11733,0.11718 -0.0912,0.20054 -0.46345,0.18522 -0.41136,-0.0169 -0.49503,-0.10049 -0.21334,-0.21306 z m -8.63312,-4.7846 c -1.754,-1.83704 -3.00287,-3.62405 -2.72598,-3.90061 0.11352,-0.11338 -0.12973,-0.74934 -0.54056,-1.41325 -1.5026,-2.42821 -1.3757,-3.64631 1.14559,-10.99702 4.42261,-12.89394 4.60528,-13.24283 8.24199,-15.74183 1.3028,-0.89523 1.55754,-0.97467 1.39592,-0.43531 -0.52184,1.74147 -2.83147,11.62474 -2.77086,11.85696 0.038,0.14547 -0.0622,0.2645 -0.22252,0.2645 -0.41172,0 -1.62098,-1.36747 -2.49491,-2.82134 -0.40809,-0.67889 -0.74257,-1.10488 -0.74329,-0.94665 -0.003,0.56639 0.80828,1.848 1.89487,2.99486 l 1.10523,1.16654 -2.24376,8.88448 c -1.23407,4.88647 -2.31321,9.14922 -2.39809,9.47277 -0.0856,0.32618 0.34042,1.15107 0.95618,1.8515 1.53092,1.74145 1.14204,1.58869 -0.59981,-0.2356 z m -1.1877,-2.50218 c 0,-0.0669 -0.34031,-0.424 -0.75623,-0.79351 -0.75355,-0.66944 -0.75451,-0.66901 -0.26817,0.12168 0.41477,0.67435 1.0244,1.07415 1.0244,0.67183 z m 25.45321,-2.12732 c 0.51932,-0.4694 3.17396,-1.60408 2.9658,-1.26768 -0.14112,0.22805 -0.78822,0.63649 -1.43801,0.90764 -1.1354,0.47381 -1.83645,0.63902 -1.52779,0.36004 z m -13.9772,-16.67739 c -0.55403,-0.44343 -0.57549,-0.52033 -0.0996,-0.35686 0.66099,0.22705 1.20306,-0.28829 0.65747,-0.62506 -0.37446,-0.23114 -0.36789,-1.60443 0.008,-1.60443 0.13131,0 0.21667,-0.26064 0.18969,-0.57921 -0.027,-0.31857 0.17412,-0.65736 0.44686,-0.75287 0.40446,-0.14164 0.44645,0.14401 0.22771,1.54904 -0.14751,0.94749 -0.26137,2.00044 -0.25302,2.33988 0.0186,0.75686 -0.25933,0.76382 -1.17681,0.0295 z m 12.27051,-1.52903 c 0.33987,-0.21287 0.61794,-0.6172 0.61794,-0.89851 0,-0.28131 -0.27807,-0.5163 -0.61794,-0.5222 -0.58852,-0.0102 -0.58852,-0.0278 0,-0.37019 0.93829,-0.54583 0.80228,-1.48029 -0.17656,-1.21302 -0.68764,0.18777 -0.71112,0.16475 -0.17458,-0.17119 0.46869,-0.29345 0.79772,-0.26373 1.34892,0.12186 0.53146,0.37178 0.6027,0.56043 0.26287,0.69612 -0.34619,0.13822 -0.35257,0.19329 -0.0248,0.21397 0.24277,0.0153 0.44139,0.26589 0.44139,0.55684 0,0.29095 0.19425,0.529 0.43168,0.529 0.61408,0 -0.78953,0.91615 -1.84411,1.20367 -0.7345,0.20026 -0.77898,0.17568 -0.26483,-0.14635 z m 6.62078,-2.82066 c -0.23799,-0.99077 -0.36248,-1.87154 -0.27666,-1.95725 0.0858,-0.0857 0.34477,0.66077 0.57544,1.65884 0.23067,0.99808 0.35516,1.87884 0.27665,1.95725 -0.0785,0.0784 -0.33745,-0.66806 -0.57543,-1.65884 z m -7.61817,-3.4841 c 0.10554,-0.17056 0.55189,-0.40071 0.99189,-0.51147 0.77181,-0.19426 0.77584,-0.18334 0.11456,0.3101 -0.75911,0.56645 -1.40512,0.68401 -1.10645,0.20137 z m -4.47579,-27.07888 c 0.24277,-0.0978 0.64001,-0.0978 0.88277,0 0.24277,0.0978 0.0441,0.17788 -0.44138,0.17788 -0.48553,0 -0.68415,-0.08 -0.44139,-0.17788 z m -3.79591,-3.68503 v -3.21326 l -1.32415,0.20984 c -0.99488,0.15766 -1.13255,0.1286 -0.55364,-0.11686 1.1036,-0.46793 4.81414,-0.80152 5.23232,-0.4704 0.20525,0.16252 0.30565,1.64553 0.23977,3.54176 l -0.11334,3.26218 h -1.74048 -1.74048 z m 6.77815,1.45518 c 0.10347,-1.35611 0.63712,-1.82104 0.63712,-0.55507 0,0.49636 0.0119,1.01754 0.0265,1.15816 0.0145,0.14063 -0.14796,0.31376 -0.36116,0.38474 -0.23791,0.0792 -0.35473,-0.30237 -0.30244,-0.98783 z m -12.78099,-1.74778 c 0,-0.37649 0.13595,-0.76844 0.3021,-0.871 0.16616,-0.10256 0.22708,0.20547 0.13539,0.68452 -0.19916,1.04053 -0.43749,1.14212 -0.43749,0.18648 z"
         id="path3845" />
      <path
         style="fill:#6ea6ee;stroke-width:0.352888"
         d="m -469.36634,-158.55191 c -0.58978,-0.58904 0.013,-0.71633 3.5605,-0.75185 2.24137,-0.0224 4.66357,-0.26925 5.91456,-0.60267 1.16526,-0.31056 2.52135,-0.60785 3.01354,-0.66063 1.74366,-0.18699 5.31674,-2.43586 7.31348,-4.60304 1.89385,-2.05552 1.92489,-2.07351 0.78892,-0.45729 -2.25326,3.20584 -6.56865,5.80875 -11.29249,6.81125 -2.35509,0.49981 -8.87708,0.68514 -9.29851,0.26423 z m -1.71405,-0.35846 c 0.2549,-0.10188 0.55946,-0.0893 0.67679,0.0278 0.11734,0.11719 -0.0912,0.20054 -0.46345,0.18523 -0.41135,-0.0169 -0.49502,-0.10049 -0.21334,-0.21307 z m -1.41243,-0.35267 c 0.2549,-0.10188 0.55945,-0.0894 0.67679,0.0278 0.11733,0.11718 -0.0912,0.20054 -0.46345,0.18522 -0.41136,-0.0169 -0.49503,-0.10049 -0.21334,-0.21306 z m 3.70723,-0.77563 c -1.00768,-0.12831 -1.90506,-0.30916 -1.99417,-0.40188 -0.0891,-0.0927 0.13087,-3.58064 0.48883,-7.75094 0.35796,-4.17029 0.89428,-10.75636 1.19181,-14.63571 0.5445,-7.09941 1.30742,-15.82092 1.39325,-15.92737 0.15764,-0.19551 5.44806,-0.64172 5.3291,-0.44947 -0.0808,0.13062 -0.94503,0.34323 -1.92043,0.47246 -1.24542,0.165 -1.77347,0.39407 -1.77347,0.76933 0,0.44329 0.35328,0.49445 2.07264,0.30017 l 2.07264,-0.2342 0.15933,1.08421 c 0.14049,0.95601 0.0416,1.11004 -0.83676,1.30271 -0.55277,0.12126 -0.99609,0.45394 -0.99609,0.74751 0,0.39933 0.24912,0.47435 1.01637,0.30604 0.88322,-0.19374 1.04654,-0.10289 1.24668,0.69353 0.12667,0.50407 0.14956,1.04699 0.0509,1.2065 -0.0987,0.1595 -1.14664,0.39929 -2.32874,0.53286 -1.43402,0.16204 -2.09967,0.38288 -2.00022,0.66361 0.1454,0.41047 2.35004,0.44944 4.00582,0.0708 0.62358,-0.1426 0.78268,0.0165 0.91469,0.91484 0.0902,0.61415 -0.008,1.13717 -0.22523,1.20167 -0.21177,0.0628 -0.83329,0.21267 -1.38116,0.333 -0.57261,0.12578 -0.92917,0.4007 -0.83863,0.64663 0.16783,0.45589 0.26062,0.46261 1.70688,0.12358 0.82958,-0.19446 0.94864,-0.1013 1.08873,0.85198 0.0865,0.58868 0.0384,1.14371 -0.10691,1.2334 -0.14531,0.0897 -1.23111,0.26402 -2.41289,0.38738 -1.57135,0.16404 -2.14868,0.36599 -2.14868,0.75162 0,0.43069 0.35037,0.48619 1.91205,0.30288 1.05162,-0.12345 2.14448,-0.31353 2.42857,-0.42241 0.3694,-0.14157 0.56304,0.11872 0.6799,0.9139 0.0932,0.63447 -0.002,1.16088 -0.22164,1.22606 -0.21177,0.0628 -0.822,0.20983 -1.35608,0.32671 -0.53408,0.11689 -0.97105,0.44256 -0.97105,0.72373 0,0.28117 0.19863,0.4501 0.44139,0.3754 1.83307,-0.56402 2.38348,-0.54538 2.38348,0.0807 0,0.35283 0.17555,0.81685 0.39012,1.03115 0.28476,0.28441 -0.12055,0.49384 -1.50071,0.77545 -1.03996,0.21219 -2.27563,0.42567 -2.74594,0.4744 -0.47031,0.0487 -0.92842,0.31062 -1.01802,0.582 -0.12963,0.39261 0.13523,0.44664 1.29649,0.2645 0.80268,-0.1259 2.10215,-0.32969 2.88773,-0.45286 0.78558,-0.12317 1.40236,-0.0835 1.37062,0.0882 -0.1843,0.99681 0.0664,1.26109 0.99697,1.05084 1.70163,-0.38449 -0.006,0.44388 -1.92732,0.93499 -0.9517,0.24326 -1.72175,0.60099 -1.7112,0.79496 0.0197,0.36254 0.36845,0.36837 2.04953,0.0343 0.84947,-0.16883 0.97105,-0.0839 0.97105,0.67843 v 0.87141 l 1.83277,-0.69553 c 1.00802,-0.38254 1.89293,-0.63544 1.96646,-0.56201 0.26739,0.26706 -4.04473,1.70191 -6.72483,2.23769 -1.85511,0.37086 -2.63281,0.66567 -2.39158,0.9066 0.24123,0.24093 1.091,0.22204 2.61321,-0.0581 2.96171,-0.54504 3.05708,-0.53578 3.05708,0.29693 0,0.58802 0.16915,0.67876 0.97105,0.52089 l 0.97104,-0.19116 -0.88277,0.40154 c -0.48552,0.22084 -1.58712,0.58921 -2.448,0.8186 -0.86088,0.22939 -1.63444,0.62445 -1.71904,0.87792 -0.10259,0.30741 0.0659,0.39859 0.50591,0.27384 2.39166,-0.67798 2.95492,-0.66178 2.95492,0.085 0,0.40335 0.19862,0.73818 0.44138,0.74408 1.03584,0.0252 -0.98956,0.76703 -3.2886,1.20454 -2.52773,0.48104 -3.10091,0.72028 -2.6956,1.12508 0.19915,0.1989 2.99962,-0.23731 5.05422,-0.78725 0.69031,-0.18477 0.7778,0.005 1.1476,2.48819 0.22018,1.47852 0.40032,2.82334 0.40032,2.98849 0,0.88356 -8.38099,1.92325 -11.89573,1.47571 z m -12.34035,-4.00897 c -1.63464,-1.71203 -3.45446,-4.24973 -2.49806,-3.4835 0.92044,0.73742 0.7257,0.15301 -0.53175,-1.59578 -1.71311,-2.38247 -1.55219,-3.77999 1.43077,-12.42558 l 2.48051,-7.18933 0.51752,1.19398 c 0.28463,0.65669 1.02875,1.73917 1.6536,2.40552 l 1.13608,1.21153 -1.86303,7.25249 c -2.55863,9.96038 -2.4455,9.59171 -2.86405,9.33335 -0.24571,-0.15166 -0.2832,0.0546 -0.11053,0.60814 0.25965,0.83234 0.25652,0.83339 -0.49183,0.16584 -0.94784,-0.8455 -0.99391,-0.3063 -0.0563,0.65943 1.0464,1.07783 2.92707,3.36274 2.76782,3.36274 -0.0768,0 -0.7836,-0.67447 -1.57071,-1.49883 z m 27.06095,1.04511 c 0,-0.0804 0.82343,-0.65742 1.82984,-1.28226 1.00642,-0.62484 1.65107,-0.92092 1.43254,-0.65794 -0.41621,0.50088 -3.26238,2.19355 -3.26238,1.9402 z m 4.62358,-5.45346 c -0.69288,-2.63956 -0.81427,-3.48577 -0.40941,-2.85414 0.22888,0.35708 0.64958,0.51254 1.08161,0.3997 0.45088,-0.11776 0.7099,-0.0101 0.71491,0.2973 0.005,0.28155 0.30745,0.11535 0.72835,-0.3997 l 0.7205,-0.88167 -0.23536,0.88167 c -0.24686,0.92475 -1.85037,3.87934 -2.10539,3.87934 -0.0814,0 -0.30428,-0.59512 -0.49521,-1.3225 z m -7.41902,-0.20322 c 0.64654,-0.50557 3.14674,-1.57801 2.95446,-1.26729 -0.13488,0.21797 -0.77688,0.61817 -1.42667,0.88932 -1.09256,0.45594 -1.87505,0.64952 -1.52779,0.37797 z m -0.70622,-12.00421 c 0.0809,-0.0707 0.54438,-0.31752 1.0299,-0.54846 0.83237,-0.39592 0.84364,-0.38858 0.19734,0.12856 -0.5625,0.4501 -1.71182,0.84333 -1.22724,0.4199 z m -20.63648,-5.30397 c -1.97186,-2.58201 -2.05933,-4.17583 -0.37091,-6.75801 0.88802,-1.35809 3.26088,-3.40734 4.49158,-3.87901 0.53368,-0.20454 0.57257,-0.12136 0.27959,0.59813 -0.18717,0.45964 -0.93258,3.17655 -1.65646,6.03756 -0.72389,2.86102 -1.43109,5.20185 -1.57157,5.20185 -0.14047,0 -0.66798,-0.54023 -1.17223,-1.20052 z m 14.53801,-34.30716 c 0.2549,-0.10187 0.55945,-0.0893 0.67679,0.0279 0.11734,0.11718 -0.0912,0.20054 -0.46345,0.18522 -0.41136,-0.0169 -0.49502,-0.10049 -0.21334,-0.21307 z m -4.17109,-3.61257 c 0,-2.71052 -0.0859,-3.16735 -0.61794,-3.28623 -0.33986,-0.076 0.20704,-0.25991 1.21535,-0.4088 2.16784,-0.32012 3.42711,-0.0261 3.13576,0.7322 -0.11115,0.28929 -0.20209,1.78261 -0.20209,3.31848 v 2.7925 h -1.76554 -1.76554 z m 6.86039,1.73748 c 0,-0.45679 0.11938,-0.57603 0.34806,-0.34763 0.22868,0.22839 0.22868,0.46686 0,0.69526 -0.22868,0.22839 -0.34806,0.10916 -0.34806,-0.34763 z m -12.80747,-2.11601 c 0,-0.48492 0.0801,-0.68329 0.1781,-0.44083 0.098,0.24246 0.098,0.63921 0,0.88167 -0.098,0.24246 -0.1781,0.0441 -0.1781,-0.44084 z"
         id="path3843" />
      <path
         style="fill:#86abbb;stroke-width:0.352888"
         d="m -469.36634,-158.55191 c -0.58978,-0.58904 0.013,-0.71633 3.5605,-0.75185 2.24137,-0.0224 4.66357,-0.26925 5.91456,-0.60267 1.16526,-0.31056 2.52135,-0.60785 3.01354,-0.66063 1.74366,-0.18699 5.31674,-2.43586 7.31348,-4.60304 1.89385,-2.05552 1.92489,-2.07351 0.78892,-0.45729 -2.25326,3.20584 -6.56865,5.80875 -11.29249,6.81125 -2.35509,0.49981 -8.87708,0.68514 -9.29851,0.26423 z m -1.71405,-0.35846 c 0.2549,-0.10188 0.55946,-0.0893 0.67679,0.0278 0.11734,0.11719 -0.0912,0.20054 -0.46345,0.18523 -0.41135,-0.0169 -0.49502,-0.10049 -0.21334,-0.21307 z m -1.41243,-0.35267 c 0.2549,-0.10188 0.55945,-0.0894 0.67679,0.0278 0.11733,0.11718 -0.0912,0.20054 -0.46345,0.18522 -0.41136,-0.0169 -0.49503,-0.10049 -0.21334,-0.21306 z m 3.70723,-0.77563 c -1.00768,-0.12831 -1.94949,-0.35049 -2.0929,-0.49372 -0.14341,-0.14323 0.21003,-0.16639 0.78544,-0.0515 0.8505,0.16989 1.05045,0.0881 1.06899,-0.43716 0.0126,-0.35538 0.13199,-2.23314 0.26543,-4.17281 0.13344,-1.93968 0.30463,-4.63758 0.38042,-5.99535 0.27945,-5.00608 0.62019,-9.17633 0.76998,-9.42352 0.0847,-0.13979 -0.2614,-0.3583 -0.76913,-0.48557 -0.92005,-0.23063 -0.9224,-0.24042 -0.70335,-2.91985 0.12088,-1.47864 0.36129,-4.0374 0.53424,-5.68612 0.17295,-1.64872 0.4223,-4.3863 0.55412,-6.08351 0.2195,-2.82617 0.30301,-3.08835 0.9924,-3.1156 0.414,-0.0164 1.65567,-0.14258 2.75926,-0.28047 1.10359,-0.13789 1.94138,-0.14541 1.86174,-0.0167 -0.0796,0.12868 -0.94285,0.33971 -1.91825,0.46894 -1.24542,0.165 -1.77347,0.39407 -1.77347,0.76933 0,0.44329 0.35328,0.49445 2.07264,0.30017 l 2.07264,-0.2342 0.15933,1.0842 c 0.14049,0.95602 0.0416,1.11005 -0.83676,1.30272 -0.55277,0.12126 -0.99609,0.45394 -0.99609,0.74751 0,0.39933 0.24912,0.47435 1.01637,0.30604 0.88322,-0.19374 1.04654,-0.10289 1.24668,0.69353 0.12667,0.50407 0.14956,1.04699 0.0509,1.2065 -0.0987,0.1595 -1.14664,0.39929 -2.32874,0.53286 -1.43402,0.16204 -2.09967,0.38288 -2.00022,0.66361 0.14703,0.41508 2.35903,0.44836 4.04542,0.0609 0.70803,-0.16269 0.79449,-0.0475 0.79449,1.0585 0,1.05031 -0.12211,1.24189 -0.79449,1.24646 -1.02846,0.007 -1.83003,0.52042 -1.54119,0.98719 0.14846,0.2399 0.61247,0.25557 1.34601,0.0455 1.32175,-0.3786 1.24228,-0.4296 1.39672,0.89643 0.10753,0.92328 -0.008,1.08086 -0.93671,1.28078 -0.58263,0.12538 -1.65519,0.24674 -2.38348,0.26969 -0.97409,0.0307 -1.32415,0.19441 -1.32415,0.61928 0,0.49149 0.28493,0.54411 1.91205,0.35312 1.05162,-0.12345 2.14448,-0.31353 2.42857,-0.42241 0.3694,-0.14157 0.56304,0.11872 0.6799,0.9139 0.0932,0.63447 -0.002,1.16088 -0.22164,1.22606 -0.21177,0.0628 -0.822,0.20983 -1.35608,0.32671 -0.53408,0.11689 -0.97105,0.43083 -0.97105,0.69765 0,0.37788 0.29059,0.41969 1.31425,0.18911 1.36851,-0.30826 2.03953,-0.16293 1.0315,0.22341 -0.85679,0.32837 -0.70472,1.20103 0.21429,1.2297 0.75724,0.0236 0.76137,0.0388 0.0883,0.32375 -0.38842,0.16443 -1.61988,0.41182 -2.73658,0.54977 -1.46349,0.18077 -2.03038,0.39933 -2.03038,0.7828 0,0.43537 0.33674,0.49096 1.85382,0.306 1.0196,-0.1243 2.25107,-0.31577 2.73659,-0.42548 0.75256,-0.17006 0.79162,-0.1413 0.26483,0.19497 -0.33987,0.21695 -0.61794,0.61298 -0.61794,0.88007 0,0.26709 0.27807,0.54757 0.61794,0.62328 0.33987,0.0757 -0.0574,0.25999 -0.88277,0.40952 -0.97758,0.1771 -1.50071,0.45628 -1.50071,0.80088 0,0.41907 0.31186,0.48683 1.50071,0.32609 0.82539,-0.11161 1.30209,-0.11233 1.05932,-0.002 -0.74119,0.33803 -0.49256,1.19909 0.35311,1.22288 0.77052,0.0217 0.76785,0.033 -0.0883,0.37521 -0.48553,0.19407 -1.74361,0.46174 -2.79574,0.59482 -1.15668,0.1463 -1.9783,0.43807 -2.07823,0.73803 -0.13505,0.40535 0.21478,0.45421 1.91296,0.26717 1.14303,-0.1259 2.47548,-0.32037 2.96101,-0.43217 0.75162,-0.17307 0.79097,-0.14467 0.26483,0.19119 -0.91318,0.58292 -0.81132,1.52624 0.13249,1.22706 0.47226,-0.1497 0.66792,-0.10453 0.52782,0.12188 -0.12245,0.19787 -0.85739,0.46687 -1.63321,0.59778 -0.86691,0.14628 -1.41058,0.42996 -1.41058,0.73602 0,0.57962 0.0725,0.58555 1.94209,0.15872 1.19305,-0.27237 1.31645,-0.25133 0.79449,0.13546 -0.88142,0.65317 -0.79204,1.38957 0.13915,1.14636 0.51374,-0.13418 0.64152,-0.0823 0.39754,0.16135 -0.19774,0.1975 -1.48064,0.54775 -2.85087,0.77834 -2.65875,0.44742 -3.35923,0.78301 -2.40097,1.15027 0.50674,0.19421 3.51221,-0.23307 5.45713,-0.77584 0.3202,-0.0893 0.23765,0.0196 -0.18345,0.24214 -0.62823,0.332 -0.7357,0.63457 -0.59886,1.68608 0.45047,3.46166 0.46836,3.51127 1.19728,3.32089 0.38328,-0.1001 0.69687,-0.0175 0.69687,0.18352 0,0.90611 -8.34568,1.97357 -11.89573,1.52154 z m -12.34035,-4.00897 c -1.63464,-1.71203 -3.45446,-4.24973 -2.49806,-3.4835 0.89221,0.71481 0.7369,0.17324 -0.42569,-1.48436 -1.45692,-2.07728 -1.59199,-3.2011 -0.7226,-6.01236 0.40841,-1.32063 0.81258,-2.33122 0.89816,-2.24575 0.0856,0.0855 -0.0845,0.83491 -0.37783,1.66543 -0.64343,1.82138 -0.6823,4.14061 -0.0869,5.18146 0.2399,0.41934 0.9526,1.49852 1.58379,2.39818 1.31281,1.87123 1.45941,2.34421 0.44138,1.42406 -0.91362,-0.82579 -0.92149,-0.24655 -0.009,0.69293 1.0464,1.07783 2.92707,3.36274 2.76782,3.36274 -0.0768,0 -0.7836,-0.67447 -1.5707,-1.49883 z m 2.45746,-21.16006 c -0.39338,-0.43643 -0.84163,-1.03156 -0.99612,-1.32251 -0.29801,-0.56125 -0.21673,-0.48449 1.21371,1.14617 0.46792,0.53341 0.77131,0.96984 0.6742,0.96984 -0.0971,0 -0.49841,-0.35708 -0.89179,-0.7935 z m 0.46535,-0.75969 c -1.97186,-2.58201 -2.05933,-4.17583 -0.37091,-6.75801 0.88802,-1.35809 3.26088,-3.40734 4.49158,-3.87901 0.53368,-0.20454 0.57257,-0.12136 0.27959,0.59813 -0.18717,0.45964 -0.93258,3.17655 -1.65646,6.03756 -0.72389,2.86102 -1.43109,5.20185 -1.57157,5.20185 -0.14047,0 -0.66798,-0.54023 -1.17223,-1.20052 z m 14.53801,-34.30716 c 0.2549,-0.10187 0.55945,-0.0893 0.67679,0.0279 0.11734,0.11718 -0.0912,0.20054 -0.46345,0.18522 -0.41136,-0.0169 -0.49502,-0.10049 -0.21334,-0.21307 z m -4.17109,-3.61257 c 0,-2.71052 -0.0859,-3.16735 -0.61794,-3.28623 -0.33986,-0.076 0.20704,-0.25991 1.21535,-0.4088 2.16784,-0.32012 3.42711,-0.0261 3.13576,0.7322 -0.11115,0.28929 -0.20209,1.78261 -0.20209,3.31848 v 2.7925 h -1.76554 -1.76554 z m 6.86039,1.73748 c 0,-0.45679 0.11938,-0.57603 0.34806,-0.34763 0.22868,0.22839 0.22868,0.46686 0,0.69526 -0.22868,0.22839 -0.34806,0.10916 -0.34806,-0.34763 z m -12.80747,-2.11601 c 0,-0.48492 0.0801,-0.68329 0.1781,-0.44083 0.098,0.24246 0.098,0.63921 0,0.88167 -0.098,0.24246 -0.1781,0.0441 -0.1781,-0.44084 z"
         id="path3841" />
      <path
         style="fill:#6a95cb;stroke-width:0.352888"
         d="m -470.66107,-160.43771 c -0.38245,-0.25039 -0.23172,-0.28985 0.54227,-0.14196 0.87386,0.16696 1.07615,0.0854 1.09474,-0.44133 0.0126,-0.35538 0.13199,-2.23314 0.26543,-4.17281 0.13344,-1.93968 0.30463,-4.63758 0.38042,-5.99535 0.27945,-5.00608 0.62019,-9.17633 0.76998,-9.42352 0.0847,-0.13979 -0.25747,-0.35731 -0.76038,-0.48338 -0.90397,-0.2266 -0.91192,-0.25788 -0.69713,-2.74351 0.72739,-8.41759 1.58264,-15.33487 1.58264,-12.80044 0,0.53638 0.91548,0.81685 1.94209,0.59499 1.30484,-0.28199 1.90837,-0.29348 3.00142,-0.0572 l 1.23588,0.2672 -1.1476,0.23522 c -0.7359,0.15084 -1.1476,0.44399 -1.1476,0.81713 0,0.4537 0.22508,0.53694 1.02165,0.37783 0.92,-0.18378 1.03681,-0.10086 1.17411,0.8334 0.16885,1.14903 0.0878,1.19687 -2.6583,1.56998 -2.18207,0.29646 -2.06037,1.10042 0.14747,0.9742 0.85302,-0.0488 1.90847,-0.17082 2.34544,-0.27122 0.70803,-0.16269 0.79449,-0.0475 0.79449,1.0585 0,1.05031 -0.12211,1.24189 -0.79449,1.24646 -1.02846,0.007 -1.83003,0.52042 -1.54119,0.98719 0.14846,0.2399 0.61247,0.25557 1.34601,0.0455 1.32175,-0.3786 1.24228,-0.4296 1.39672,0.89643 0.10753,0.92328 -0.008,1.08086 -0.93671,1.28078 -0.58263,0.12538 -1.65519,0.24674 -2.38348,0.26969 -0.97409,0.0307 -1.32415,0.19441 -1.32415,0.61928 0,0.49149 0.28493,0.54411 1.91205,0.35312 1.05162,-0.12345 2.14448,-0.31353 2.42857,-0.42241 0.3694,-0.14157 0.56304,0.11872 0.6799,0.9139 0.0932,0.63447 -0.002,1.16088 -0.22164,1.22606 -0.21177,0.0628 -0.822,0.20983 -1.35608,0.32671 -0.54961,0.12028 -0.97105,0.4495 -0.97105,0.75856 0,0.3505 0.22129,0.48441 0.61794,0.37393 2.26864,-0.63189 2.41379,-0.6417 1.76554,-0.1193 -0.85409,0.68829 -0.77308,1.29705 0.17656,1.32668 0.75724,0.0236 0.76137,0.0388 0.0883,0.32375 -0.38842,0.16443 -1.61988,0.41182 -2.73658,0.54977 -1.46349,0.18077 -2.03038,0.39933 -2.03038,0.7828 0,0.43537 0.33674,0.49096 1.85382,0.306 1.0196,-0.1243 2.25107,-0.31577 2.73659,-0.42548 0.75256,-0.17006 0.79162,-0.1413 0.26483,0.19497 -0.33987,0.21695 -0.61794,0.61298 -0.61794,0.88007 0,0.26709 0.27807,0.54757 0.61794,0.62328 0.33987,0.0757 -0.0574,0.25999 -0.88277,0.40952 -0.97758,0.1771 -1.50071,0.45628 -1.50071,0.80088 0,0.41907 0.31186,0.48683 1.50071,0.32609 0.82539,-0.11161 1.30209,-0.11233 1.05932,-0.002 -0.74119,0.33803 -0.49256,1.19909 0.35311,1.22288 0.77052,0.0217 0.76785,0.033 -0.0883,0.37521 -0.48553,0.19407 -1.74361,0.46174 -2.79574,0.59482 -1.15668,0.1463 -1.9783,0.43807 -2.07823,0.73803 -0.13505,0.40535 0.21478,0.45421 1.91296,0.26717 1.14303,-0.1259 2.47548,-0.32037 2.96101,-0.43217 0.75162,-0.17307 0.79097,-0.14467 0.26483,0.19119 -0.91318,0.58292 -0.81132,1.52624 0.13249,1.22706 0.47226,-0.1497 0.66792,-0.10453 0.52782,0.12188 -0.12245,0.19787 -0.85739,0.46687 -1.63321,0.59778 -0.86691,0.14628 -1.41058,0.42996 -1.41058,0.73602 0,0.57962 0.0725,0.58555 1.94209,0.15872 1.19305,-0.27237 1.31645,-0.25133 0.79449,0.13546 -0.88142,0.65317 -0.79204,1.38957 0.13915,1.14636 0.51374,-0.13418 0.64152,-0.0823 0.39754,0.16135 -0.19774,0.1975 -1.48064,0.54775 -2.85087,0.77834 -2.65875,0.44742 -3.35923,0.78301 -2.40097,1.15027 0.50674,0.19421 3.51221,-0.23307 5.45713,-0.77584 0.3202,-0.0893 0.23765,0.0196 -0.18345,0.24214 -0.62823,0.332 -0.7357,0.63457 -0.59886,1.68608 0.45047,3.46166 0.46836,3.51127 1.19728,3.32089 0.38328,-0.1001 0.69687,-0.0175 0.69687,0.18352 0,1.0985 -12.27914,2.09937 -13.77121,1.1225 z m -12.5446,-7.61221 c -2.22184,-3.06263 -2.44803,-4.06681 -1.5679,-6.96081 0.40557,-1.33359 0.80887,-2.35333 0.89622,-2.2661 0.0873,0.0872 -0.0812,0.83813 -0.37461,1.66865 -0.64343,1.82138 -0.6823,4.14061 -0.0869,5.18146 0.2399,0.41934 0.96007,1.50956 1.60037,2.42272 0.6403,0.91316 1.11283,1.71157 1.05006,1.77426 -0.0628,0.0627 -0.74555,-0.75639 -1.51729,-1.82018 z m 4.53719,-17.15778 c -0.39338,-0.43643 -0.84163,-1.03156 -0.99612,-1.32251 -0.29801,-0.56125 -0.21673,-0.48449 1.21371,1.14617 0.46792,0.53341 0.77131,0.96984 0.6742,0.96984 -0.0971,0 -0.49841,-0.35708 -0.89179,-0.7935 z m 0.8883,-0.51816 c -1.02761,-1.10006 -1.70873,-2.29035 -1.70832,-2.98534 1.6e-4,-0.25521 0.3298,0.20084 0.73253,1.01345 1.1726,2.36595 1.57923,2.50113 2.23012,0.74143 0.51981,-1.40533 0.54424,-1.4253 0.34164,-0.27922 -0.43779,2.47644 -0.57321,2.60454 -1.59597,1.50968 z m -1.68072,-4.53675 c 0.0169,-0.41084 0.10062,-0.4944 0.21334,-0.21307 0.102,0.25458 0.0895,0.55876 -0.0279,0.67595 -0.11733,0.11719 -0.20079,-0.0911 -0.18546,-0.46288 z m 0.99975,-2.55645 c 0.19044,-0.3554 0.62365,-0.87118 0.96269,-1.14617 0.38145,-0.3094 0.29618,-0.0631 -0.22368,0.64617 -0.92743,1.26528 -1.27516,1.50055 -0.73901,0.5 z m 12.41991,-4.41853 c 0.0809,-0.07 1.10052,-0.21589 2.26577,-0.32412 1.31616,-0.12224 1.78428,-0.0873 1.23588,0.0922 -0.87198,0.28544 -3.7865,0.47848 -3.50165,0.23193 z"
         id="path3839" />
      <path
         style="fill:#4c91eb;stroke-width:0.352888"
         d="m -468.85249,-160.73222 c -0.26765,-0.17988 -0.40008,-0.46691 -0.29431,-0.63784 0.17491,-0.28267 0.38876,-3.01465 0.76859,-9.8191 0.26418,-4.73248 0.61689,-9.17088 0.74577,-9.38439 0.0714,-0.11827 1.52455,-0.30003 3.22926,-0.40391 1.70471,-0.10389 3.33782,-0.25884 3.62913,-0.34434 0.29132,-0.0855 0.41049,-0.0889 0.26483,-0.008 -0.58617,0.32741 -0.21498,1.1487 0.52967,1.17194 0.75724,0.0236 0.76137,0.0388 0.0883,0.32374 -0.38842,0.16443 -1.61988,0.41183 -2.73658,0.54977 -1.46349,0.18078 -2.03038,0.39934 -2.03038,0.78281 0,0.43537 0.33674,0.49095 1.85382,0.306 1.0196,-0.1243 2.25107,-0.31577 2.73659,-0.42549 0.75256,-0.17006 0.79162,-0.1413 0.26483,0.19498 -0.33987,0.21695 -0.61794,0.61298 -0.61794,0.88007 0,0.26709 0.27807,0.54756 0.61794,0.62327 0.33987,0.0757 -0.0574,0.26 -0.88277,0.40953 -0.97758,0.1771 -1.50071,0.45627 -1.50071,0.80087 0,0.41907 0.31186,0.48683 1.50071,0.32609 0.82539,-0.1116 1.30209,-0.11232 1.05932,-0.002 -0.74119,0.33803 -0.49256,1.19909 0.35311,1.22288 0.77052,0.0217 0.76785,0.033 -0.0883,0.37521 -0.48553,0.19407 -1.74361,0.46173 -2.79574,0.59481 -1.15668,0.1463 -1.9783,0.43808 -2.07823,0.73803 -0.13505,0.40535 0.21478,0.45421 1.91296,0.26718 1.14303,-0.1259 2.47548,-0.32038 2.96101,-0.43217 0.75162,-0.17308 0.79097,-0.14468 0.26483,0.19118 -0.91318,0.58292 -0.81132,1.52624 0.13249,1.22706 0.47226,-0.1497 0.66792,-0.10452 0.52782,0.12188 -0.12245,0.19787 -0.85739,0.46688 -1.63321,0.59779 -0.86691,0.14628 -1.41058,0.42996 -1.41058,0.73602 0,0.57962 0.0725,0.58555 1.94209,0.15872 1.19305,-0.27237 1.31645,-0.25133 0.79449,0.13546 -0.88142,0.65317 -0.79204,1.38956 0.13915,1.14635 0.51374,-0.13417 0.64152,-0.0823 0.39754,0.16136 -0.19774,0.19749 -1.48064,0.54775 -2.85087,0.77833 -2.65875,0.44743 -3.35923,0.78302 -2.40097,1.15028 0.50674,0.19421 3.51221,-0.23307 5.45713,-0.77584 0.3202,-0.0894 0.23765,0.0196 -0.18345,0.24214 -0.62823,0.33199 -0.7357,0.63457 -0.59886,1.68608 0.44142,3.39212 0.49213,3.54598 1.11265,3.37626 0.33272,-0.091 0.0488,0.10586 -0.63093,0.43748 -1.40339,0.68468 -9.69658,1.09238 -10.5502,0.51866 z m -16.20409,-12.39662 c 0,-0.67888 0.0727,-0.95661 0.16148,-0.61716 0.0888,0.33944 0.0888,0.89489 0,1.23433 -0.0888,0.33944 -0.16148,0.0617 -0.16148,-0.61717 z m 21.36939,-11.16626 c 0.24276,-0.0978 0.64001,-0.0978 0.88277,0 0.24276,0.0978 0.0441,0.17788 -0.44138,0.17788 -0.48553,0 -0.68415,-0.08 -0.44139,-0.17788 z m -14.98129,-0.9126 c -0.39338,-0.43643 -0.84163,-1.03156 -0.99612,-1.32251 -0.29801,-0.56125 -0.21673,-0.48449 1.21371,1.14617 0.46792,0.53341 0.77131,0.96984 0.6742,0.96984 -0.0971,0 -0.49841,-0.35708 -0.89179,-0.7935 z m 13.92197,-0.49807 c 0.24276,-0.0978 0.64001,-0.0978 0.88277,0 0.24276,0.0978 0.0441,0.17788 -0.44139,0.17788 -0.48552,0 -0.68414,-0.08 -0.44138,-0.17788 z"
         id="path3837" />
      <path
         style="fill:#337cda;stroke-width:0.352888"
         d="m -462.80442,-165.96592 c 0.33987,-0.0887 0.89601,-0.0887 1.23588,0 0.33987,0.0887 0.0618,0.16129 -0.61794,0.16129 -0.67973,0 -0.9578,-0.0726 -0.61794,-0.16129 z m 2.31727,-0.35047 c 0.2549,-0.10188 0.55946,-0.0893 0.6768,0.0278 0.11733,0.11719 -0.0912,0.20054 -0.46346,0.18523 -0.41135,-0.0169 -0.49502,-0.10049 -0.21334,-0.21307 z m -2.66366,-1.06149 c 0.34357,-0.0894 0.82026,-0.0835 1.05933,0.0131 0.23906,0.0966 -0.042,0.16977 -0.62466,0.16258 -0.58263,-0.007 -0.77823,-0.0862 -0.43467,-0.17564 z m 1.95745,-1.75986 c 0.2549,-0.10187 0.55945,-0.0893 0.67679,0.0278 0.11733,0.11719 -0.0912,0.20054 -0.46346,0.18523 -0.41135,-0.0169 -0.49502,-0.10049 -0.21333,-0.21307 z m -1.25123,-2.82482 c 0.34356,-0.0894 0.82026,-0.0835 1.05932,0.0131 0.23907,0.0966 -0.042,0.16977 -0.62466,0.16258 -0.58262,-0.007 -0.77822,-0.0862 -0.43466,-0.17564 z m -1.06604,-1.40938 c 0.33986,-0.0887 0.89601,-0.0887 1.23587,0 0.33987,0.0887 0.0618,0.16128 -0.61794,0.16128 -0.67973,0 -0.9578,-0.0726 -0.61793,-0.16128 z m 1.96416,-1.76115 c 0.2549,-0.10187 0.55945,-0.0893 0.67679,0.0278 0.11734,0.11719 -0.0912,0.20054 -0.46345,0.18523 -0.41136,-0.0169 -0.49503,-0.10049 -0.21334,-0.21307 z m -2.31727,-2.82353 c 0.33986,-0.0887 0.89601,-0.0887 1.23588,0 0.33986,0.0887 0.0618,0.16129 -0.61794,0.16129 -0.67974,0 -0.95781,-0.0726 -0.61794,-0.16129 z m 0.17655,-6.33848 c 0.24276,-0.0978 0.64001,-0.0978 0.88277,0 0.24276,0.0978 0.0441,0.17788 -0.44138,0.17788 -0.48553,0 -0.68415,-0.08 -0.44139,-0.17788 z m -1.05932,-1.41067 c 0.24276,-0.0978 0.64001,-0.0978 0.88277,0 0.24276,0.0978 0.0441,0.17788 -0.44139,0.17788 -0.48552,0 -0.68414,-0.08 -0.44138,-0.17788 z"
         id="path3835" />
    </g>
  </g>
</svg>
