<svg xmlns="http://www.w3.org/2000/svg" width="277.3" height="277.3" viewBox="0 0 73.4 73.4">
  <path d="M44.5 210v-36.8h73.3v73.4H44.5Z" style="fill:#fefefe;stroke-width:.352778" transform="translate(-44.5 -173.2)"/>
  <path d="M77.2 244.5c-3.2-.6-5-2.8-4.7-5.5.2-1.5 0-1.6-1.8-3.4a30.4 30.4 0 0 1-7.6-11.4c-.5-1.6-.7-3-.7-6.7 0-6.8-.7-9.5-3.5-12.7-3.3-3.8-.5-3.8 4.5 0 1 .7 2 1.7 2.2 2 .6 1 1 .8 1-.7l1.5-12.6a769.4 769.4 0 0 0 2.1-17.7c.8-1.9 3-.2 6.3 4.7 1.6 2.5 1.8 2.6 2.2 2 1-2 5.3-2.6 8-1.3 2.3 1.2 4.3 5 6.6 12.9.4 1.2.6 3.5.7 6.8 0 2.6.2 4.9.2 5 .1 0 .8-1 1.6-2.4a30 30 0 0 1 6.5-8.8c1.8-1.5 4.7-2.7 7-3 2.1-.3 2 .4-.2 2a26 26 0 0 0-10.3 16.6l-2 8a36 36 0 0 1-9.7 17.2c-2.4 2.5-2.7 3-3 4.6-.3 2.8-1.6 4.2-4.2 4.5h-2.7zm2.7-43c.2-.6.1-.8 0-.6-.3.2-.6.8-.7 1.3-.2.6-.1.7.1.5.2-.2.5-.7.6-1.2zm-4.8-2.1c0-.5-1 1.2-1 1.7 0 .3.2 0 .5-.5l.5-1.2zm5.3-2.8c0-.4.2-.8.5-1 .3-.4.3-.5 0-.5s-.6.4-.8 1c-.5 1-.5 1.1 0 1.1.2 0 .3-.3.3-.6zm-4.4-1.8c.5-1 .5-1.2.1-.7-.3.2-.6.9-.8 1.4-.3 1 0 .8.7-.7zm5.5-4.2.2-1.4c.2-.4.1-.5-.1-.3-.5.6-.9 2.3-.5 2.3.2 0 .4-.3.4-.6zm-3.4-1.7.4-1.2c-.2 0-1.2 2-1.2 2.3 0 .4.2.1.8-1.1zm4.6-4.5c.2-.8.1-1-.1-.6l-.4 1.2c0 1 .2.7.5-.6z" style="fill:#f1e39a;stroke-width:.352778" transform="translate(-44.5 -173.2)"/>
  <path d="M76 244.1c-2.3-.7-3.3-2.2-3.3-5 0-1.8-.1-2-1.6-3.2a29 29 0 0 1-6-7.7c-2.2-4-2.4-4.9-2.7-11.6-.3-7.2-.6-8.4-3.2-11.6-1.6-2-2-3.2-1-3.2.7 0 4.9 2.7 6.6 4.4l1.9 1.7v-1l1.2-11 1.8-14.8c.6-5.6.7-6 1.6-6 .8 0 3.3 2.7 5.2 5.6l1.6 2.4 1.4-1.2c1.3-1.1 1.6-1.2 3.6-1.2 3 0 4.8 1 6.2 3.5a36.7 36.7 0 0 1 3.9 10c.6 1.7.7 2.9.7 6.8 0 2.5.1 4.8.3 5 0 .2.9-1 1.7-2.6a31 31 0 0 1 6.7-8.9c2.5-1.9 8-3.5 8-2.3 0 .2-1 1-2.2 1.9a23.7 23.7 0 0 0-8.4 11.3 84 84 0 0 0-2 8l-2.2 8.5a39.8 39.8 0 0 1-9.5 14.4c-2 2.1-2.3 2.6-2.3 3.8 0 1.8-1 3.3-2.3 3.9-1.4.6-4 .6-5.7.1zm8.2-23c-.1-.2-.2-.1-.2.3 0 .3 0 .5.2.4v-.6zm-6-.6c0-.2 0-.3-.2-.3s-.4.1-.4.3c0 .2 0 .4.2.4l.3-.4zm6.8-4c0-.1-.1-.2-.3 0-.2 0-.4.5-.4 1 0 .7 0 .7.4 0l.3-1zm-6.4.1c.3-.4.4-.8.3-1-.3-.2-1.3.7-1.3 1.3 0 .7.5.5 1-.3zm1-5.7c-.4-.5-1.3.2-1.5 1-.4 1.4.3 1.8 1 .5.3-.7.5-1.3.4-1.5zm5.9 1.5c.1-1.1-.3-1.4-.6-.5-.3.8-.3 1.6 0 1.6s.5-.5.6-1.1zm-11.6-2.8c-.3-.3-.9.4-.9 1.1 0 .8 0 .8.5 0l.4-1zm6-2c.7-1.6.7-1.9-.2-1.9-.8 0-1.5 1.5-1.2 2.5.3 1 .9.8 1.4-.5zm5.8.7.3-1.5c.2-.8.1-.9-.4-.4-.6.5-.8 2.5-.2 2.5.2 0 .3-.3.3-.6zm-11-2.3c.4-.8.4-1.2.1-1.5-.6-.5-1.4.7-1.4 2 0 1.2.5 1 1.2-.5zm5.9-3.2c.7-2.3.7-2.4 0-2.4-1.1 0-1.6.7-1.6 2.3 0 2.6.8 2.7 1.6.1zm5.7-1.6c-.4-.2-1 .7-1 1.7 0 1.6.6 1.5 1 0 .2-1 .2-1.7 0-1.7zm-11 .3c.7-1.9.7-2.2-.1-2.2-.8 0-1.1.7-1.1 2.4 0 1.6.5 1.5 1.2-.2zm2.3 0c0-.4-.1-.8-.3-1-.2 0-.4.3-.4 1 0 .6.2 1 .4.8.2 0 .3-.5.3-.8zm3.5-3.1.6-2.3c.2-1.2 0-1.3-.5-1.3-1 0-1.5 1-1.5 2.7 0 2 .7 2.5 1.4.9zm5.5-3.2c-.4-.4-.9.4-.9 1.6 0 2 .5 2.1.8.2a5 5 0 0 0 .1-1.8zm-10.3 1.3.8-2.2c.2-.4 0-.6-.5-.6s-.9.3-1.1 1c-.4 1-.5 3-.1 3.4.3.3.3.3 1-1.6zm2.5-.9c-.1-.5-.3-.8-.5-.8-.6 0-1 2.4-.4 3 .4.3 1-1.3.9-2.2zM82 192l.6-2.4c.2-1 .2-1.2-.4-1.2-.9 0-1.4 1.3-1.4 3.2 0 2.1.9 2.5 1.2.4zm4.3-3.2c-.5-.4-1 .9-.7 2 .3 2.1.7 2.1.8.1l-.1-2zm-8.1 1.6c.3-1 .7-2 .9-2.1.4-.6.3-1-.3-1s-1.9 2.7-1.9 4c0 1.6.6 1.1 1.3-.9zm1.5 1.3c0-.4.2-.8.4-1 .2-.2.2-.8 0-1.4l-.2-1-.5 1.1c-.5 1.5-.5 2.9 0 2.9.2 0 .3-.3.3-.6zm3.4-6.5c0-1 .3-2.3.4-2.7.1-.4 0-.8-.1-.8a13 13 0 0 0-1.6 4.6c0 .7.4 1.1.8.9l.5-2zm-1.3-3.3c.3-.3.4-.6.3-.8-.4-.3-2.7 3.6-2.7 4.5 0 .7.2.5 1-1.1a18 18 0 0 1 1.4-2.6zm4 2.7c0-.9-.3-2-.5-2.4-.2-.6-.2.7 0 3.7 0 .2.2.4.4.4s.2-.8.1-1.7zm-4.3.1c0-.2-.2-.1-.4.2l-.3.9c0 .2.2 0 .3-.2l.4-.9z" style="fill:#f6d460;stroke-width:.352778" transform="translate(-44.5 -173.2)"/>
  <path d="M76 244.1c-2.3-.7-3.3-2.2-3.3-5 0-1.8-.1-2-1.6-3.2a29 29 0 0 1-6-7.7c-2.2-4-2.4-4.9-2.7-11.6-.3-7.2-.6-8.4-3.2-11.6-1.6-2-2-3.2-1-3.2.7 0 4.9 2.7 6.5 4.3l1.8 1.7 1.7-14.6c2-17.4 2.2-18.2 3-18.2.9 0 3.4 2.8 5.3 5.7l1.6 2.4 1.4-1.2a6 6 0 0 1 1.7-1.2c.1 0-.4.6-1.3 1.4-1 .9-2 2.1-2.3 2.9-.6 1.2-.7 1.3-.2 1.5.4.1.8 0 1.1-.4.5-.7.5-.6.4.2 0 1.1-.5 1.4-1.3 1-1-.6-1.7 0-2.7 2-.8 1.8-.8 2-.3 2.6.5.5.6.5 1.2-.1.7-.7.8-.7.8.2 0 .6.2 1.1.6 1.4.5.3.5.3 0 .1-.5 0-1 0-1.4.4-.6.6-.7.6-.5 0 .2-.4 0-.5-.4-.5s-.8-.2-1-.4c-.5-.5-1 .2-1.4 1.6l-.2 1 .7-.8c.8-.9.8-1 .4 0-.5.8-.2 3.1.4 3.1.2 0 .4-.3.6-.8.2-.6.2-.6.4.5.2.8.1 1.4-.2 1.7l-.6 1.1c-.1.3-.2.1-.2-.4 0-.8-.2-1-.8-1-.6 0-.7.2-.6 1.3 0 1 .3 1.3.6 1.3s.7.6 1 1.2c.3 1 .3 1.3-.1 1.7-.3.3-.5 1.1-.5 1.8 0 1.1 0 1.2 1 1.1.5 0 1.3.1 1.8.3.5.2 1 .3 1.3.2.6-.2 1-1.8.5-2.4-.3-.3-.2-.7.1-1.4l.5-1 .3.9c.1.4.4 1 .6 1 .2.2 0 .6-.4 1-.8.8-1 1.8-.4 2.9.3.6.4.6 1.2-.1 1-1 1.4-2.5.8-3.4-.3-.6-.3-1 .3-2 .7-1.4 1-1.5 1.5-.7.6.6 1.9.3 1.7-.5 0-.3-.7-.9-1.5-1.3-.7-.5-1.2-.8-1-.8.4 0 .4-.3.3-1-.3-1.2.1-1.6 1-1 1 .7 1.7.1 1.7-1.5 0-1.4-.5-1.6-3-1.6-1.6 0-2.3-.3-2.3-1 0-.2 1-.2 2.2 0l2.2.1.6-1.2c.8-1.6.8-3.3 0-4-.5-.6-.6-.8-.2-1.1.3-.3.5-.8.5-1.2 0-.3.1-.7.3-.7.2 0 .4.3.4.5 0 .3.2.7.6 1 .5.4.5.3.3-1.7-.3-3-.7-3.7-1.5-3.9a5.6 5.6 0 0 1-2.4-.7c-.6-.4-.5-.4 1-.4a6 6 0 0 1 5.9 3.5 36.7 36.7 0 0 1 3.9 10c.6 1.7.7 2.9.7 6.8 0 2.5.1 4.8.3 5 0 .2.9-1 1.7-2.6a31 31 0 0 1 6.7-8.9c2.5-1.9 8-3.5 8-2.3 0 .2-1 1-2.2 1.9a23.7 23.7 0 0 0-8.4 11.3 84 84 0 0 0-2 8l-2.2 8.5a39.8 39.8 0 0 1-9.5 14.4c-2 2.1-2.3 2.6-2.3 3.8 0 1.8-1 3.3-2.3 3.9-1.4.6-4 .6-5.7.1zm8.2-23c-.1-.2-.2-.1-.2.3 0 .3 0 .5.2.4v-.6zm-6-.6c0-.2 0-.3-.2-.3s-.4.1-.4.3c0 .2 0 .4.2.4l.3-.4zm6.8-4c0-.1-.1-.2-.3 0-.2 0-.4.5-.4 1 0 .7 0 .7.4 0l.3-1zm-6.3.2c.5-.5.6-.8.3-1-.4-.2-1.4.5-1.4 1.2 0 .6.3.6 1.1-.2zm1.5-4.9c.2-1-1-1.5-1.8-.6-.5.7-.6 1.6-.2 2 .4.4 1.8-.5 2-1.4zm5.3.6c.1-1.1-.3-1.4-.6-.5-.3.8-.3 1.6 0 1.6s.5-.5.6-1.1zm-8.2-1c0-.2-.3-.4-.6-.5-1-.4-1.2-.3-.9.4.4.7 1.5.7 1.5 0zm-3-.6c.3-.4.4-.7.2-1-.5-.5-1.5 0-1.5.8 0 .9.5 1 1.3.2zm11.6-2.5.2-1.4c0-.8-.1-.9-.5-.5-.3.2-.6.9-.6 1.5 0 1 .5 1.3.9.4zm-2.6-.8c0-.2-.3-.5-.5-.7-.4-.3-.6-.3-.8 0-.1.2 0 .5.2.7.7.4 1 .4 1 0zM73 205.1c0-.2-.2-.5-.5-.5-.5 0-.7.8-.3 1.2.3.3.8 0 .8-.7zm13.6-2.3c.6-1.6.3-2.5-.7-1.7-.6.5-.8 3.2-.2 3.2.2 0 .6-.7.9-1.5zm-14.4-4.4c-.3-.3-1 .3-1 .9 0 .5.1.5.6-.1l.4-.8zm14.6-.3c.5-1.4.4-3-.2-3-.8 0-1.3 1.3-1 2.7.2 1.4.7 1.5 1.2.3zm0-7c0-2.3-.5-3.3-1.1-2.3-.4.7-.4 2.5 0 3.6.6 1.6 1 1 1-1.3zm-11.3 12.5c0-.8.4-1 1-.3.6.6.5 1-.3 1-.5 0-.7-.2-.7-.7zm3.3-3.1c-.6-1 .3-1.6 1-.8.5.5.5.6 0 1-.5.3-.7.2-1-.2zm2.2-12.3c-.1-.3 0-.5.3-.5.6 0 .7.6.2.9-.1 0-.4 0-.5-.4zm3.7-4.5c0-.6.1-.8.2-.5v1c-.1.3-.2 0-.2-.5z" style="fill:#d7ad53;stroke-width:.352778" transform="translate(-44.5 -173.2)"/>
  <path d="M75.6 243.8c-2-1-3-2.2-3-4.4 0-1.9 0-2-2.5-4.5a32 32 0 0 1-6.7-10.3 25 25 0 0 1-1-8.1c-.2-7-.7-8.8-3.3-11.7-1.7-2-1.9-2.4-1.1-2.7.7-.3 5.5 2.6 7 4.3l1.4 1.4a2870.1 2870.1 0 0 1 3.5-27.4c.3-3.7.7-5.4 1.4-5.4.6 0 3.4 3.2 5.2 5.9l1.8 2.6-.7 1.2c-.4.6-.7 1.3-.7 1.5 0 .7 1 .5 1.6-.2.6-.7.7 0 .2 1-.4.7-.5.7-1.2.2-.8-.6-1-.5-1.6.2l-.8 1.1c0 .2 0 .2-.2.1-.2 0-.3.1-.4.5l-.3 1.6c-.2 1.4.7 2 1.7 1 .5-.5.6-.4.7.6.1.6 0 1-.2 1-.1 0-.5.3-.8.7-.4.6-.4.6-.2 0 .1-.5 0-.6-.5-.6-.4 0-.8-.2-1-.5-.2-.7-1.5 1-1.8 2.4v1.8c.3.5.4.4.6-.6l.2-1.2.2 1.2c.1 1.4 1 1.9 1.3.7.2-.8.2-.7.4.4.2.8.1 1.4-.2 1.7l-.6 1.1c-.1.3-.2.1-.2-.4 0-.7-.2-1-.7-1-.8 0-1.3 1.5-1 3 .3 1 .9 1.1 1.2.1.3-.7.3-.6.5.6a3 3 0 0 1 0 1.7c-.7.6-.5 3.7.2 4.3.3.3.7.5 1 .4.1 0 .5 0 .8.4.4.4.3.4-.5.2l-1.5-.2c-.7-.1-1.3 1.5-1 2.3.2.6 1.6.8 1.6.2 0-.6.6-.3 1 .5.4 1 1.5 1.2 2.1.4.4-.6.5-.6.5.2 0 1 .6 1.8 1.4 1.8.7 0 1-.7 1-2 0-1 .6-1.1.6 0 0 .3.3 1 .6 1.2.5.5.7.5 1.3-.1 1-1 1-2.2-.2-2.5-.5-.1-1-.2-1.3 0-.3 0-.5-.2-.5-.5 0-.5.3-.7.8-.7.4 0 1-.3 1.5-.6 1.1-.8 1-3-.3-3.5-.5-.3-.7-.5-.3-.5 1.9 0 2.8-4.2 1-4.8-.6-.2-.6-.2.2-1 .5-.5.9-1.1.9-1.5 0-.4 0-.5.5-.1.3.2.5.6.5.9 0 .6.9 1.2 1.3 1 .5-.3.7-2 .6-4-.2-2.2-2.2-1.6-2.2.7 0 .7-.1.6-.6-.5a28 28 0 0 1-.5-1.5l-.8-.2c-.7 0-.7 0-.1-.2a4 4 0 0 0 1.3-1.5l.6-1.2.4 1.1c.3.8.7 1.2 1.2 1.2.6 0 .7-.2.4-2l-.3-3c0-.5-.2-.7-.7-.6-.6 0-.8.4-1 1.5-.1 1-.2 1.2-.2.4a3 3 0 0 0-.8-1.6c-.4-.4-.5-.7-.4-.7.2 0 .5-.5.8-1.1l.4-1.1.5 1c.5 1.3 1.2 1.5 1.2.5 0-.7-1-4.9-1.3-5.8-.1-.4 0-.5.6-.3.9.2 2.4 1.7 2.4 2.4l1.3 2.4a9.5 9.5 0 0 1 1.2 2.7c0 1 .8 2.8 1.2 2.6.2-.2.2-.1.1.1s0 1 .3 1.6c.3.7.4 1.6.3 2-.1.4-.1.4.2 0 .3-.4.4-.2.6.8v1.7c-.2.2 0 1.2.2 2.2.3 1.3.3 2.3 0 3-.1.5-.2 1.8 0 2.8l.1 1.9 1.5-3.1c2.2-4.5 5.2-8.5 7.5-10 2.2-1.5 7-3.1 7.5-2.5.2.2 0 .5-.6 1a23 23 0 0 0-8.4 9.3 42.8 42.8 0 0 0-4 12.6A37.3 37.3 0 0 1 87 235.6c-2.6 2.8-3 3.4-3 4.5 0 1.7-1 3.5-2.5 4-1.6.6-4.1.5-5.8-.3zm8.7-19c0-.5-.2-.8-.4-.7-.6.2-.8 1.2-.5 2 .2.5.3.5.6 0 .2-.2.3-.8.3-1.3zm-5.6-.4c.2-.4.2-.7-.1-.8-.8-.3-1.3.1-1.3 1 0 1 .8.8 1.4-.2zm6.3-2.1c.5-1 .5-2.1 0-2.1-.8 0-1.4.7-1.4 1.6 0 1.3.8 1.6 1.4.5zm-6.3-.1c.3-.3.7-.9.8-1.4.2-1 .2-1-.9-1-1 .2-1.2.4-1.3 1-.2 1.6.4 2.2 1.4 1.4zm3.1-.6c0-.7-.5-1.3-.9-1-.3.3.2 1.7.6 1.7.2 0 .3-.3.3-.7zm-2.1-3.4c.2-.5.4-1.3.4-1.8 0-.8-.1-.9-1.2-.8-1 .1-1.1.3-1.2 1.3-.2 2 1.2 3 2 1.3zm5.6.5.5-1.5c0-.9 0-1-.6-1-.9 0-1.4.8-1.1 2 .3 1 .6 1.1 1.2.5zm-2.5-.7c.6-.7.6-.7 0-1.2-1.6-1.1-2.5-.3-1.6 1.3.4.8.7.8 1.6 0zm-5.8-1.7c-.2-.7-1.4-1.3-1.7-1-.4.4.2 1.6.8 1.8.9.2 1.1 0 1-.8zm-3-1c.3-.6.3-.8-.1-1-.8-.2-1.2.1-1.2 1 0 .8.9.8 1.4 0zm12-1.2c.6-.6.6-3.1 0-3.1-.7 0-1.7 1-1.7 1.5 0 1.7.8 2.5 1.7 1.6zm.6-4.9a7 7 0 0 0 .5-2.7l.2-3.7c.3-2 .2-2-.6-2-1.1 0-1.8 1.3-1.5 3.2.2.7.4 1.4.6 1.5.1.1 0 .6-.5 1-.6.5-.6 1-.5 2 .5 2.2 1 2.4 1.8.7zm-16-1.1c-.2-.5-.7 0-.7.9 0 .7 0 .7.5 0 .2-.3.4-.8.3-1zm2.3-2.2c.3-1-.5-2.3-1-1.5-.1.2-.3.9-.3 1.4 0 1.2 1 1.3 1.3 0zm-1.6-1.6c.5-1.3.1-1.9-.6-1-.5.8-.7 2.6-.2 2.3l.8-1.3zm19.8-2.1c0-.6 0-1-.1-.9-.3.2-.5 2-.2 2l.3-1.1zm-19-3c.4-.6.4-1 .1-1.1-.6-.4-1.3 1-1.3 2.5 0 1.3 0 1.3.4.5l.9-1.8zm19.1-3.2c-.1-.5-.4-.8-.5-.7-.4.2-.5 2.7-.1 3.1.4.4.9-1.4.6-2.4zm-2 .5c-.2-.3-.3-.2-.3.2 0 .3.1.6.2.4v-.6zm1-5.9c-.2-1-.6-1.6-.8-1.5-.4.2-.3 1.4.3 3.2.3 1 .4 1 .7.6.2-.4.1-1.2-.2-2.3zm-1.5.5a4 4 0 0 0-.7-1.6c-.3-.4-.4-.2 0 1.2.4 1.8 1 2.2.7.4zm.2-4.5c-.4-1.6-1.6-4.4-2-4.7-.2 0-.5 0-.6.3 0 .3 0 .6.3.7.2 0 .5.5.6.9v.5c-.3 0-.4-.4-.4-.8 0-.3-.1-.4-.2-.2 0 .2 0 1.1.3 2.1.5 1.5.5 1.6.6.7v-1l.5.8c.9 2 1.3 2.3 1 .7zm-11.3 24.7c0-.5-.1-1-.3-1-.2-.1 0-.6.3-1 .4-.5.7-.7.7-.4 0 .2.3.7.6 1 .5.7.5.7 0 .7-.3 0-.7.4-1 .8-.2.8-.2.8-.3-.1zM73 194.8c0-.2.2-.4.4-.6.2 0 .2 0 .1.4-.2.6-.5.7-.5.2zm11.7-11.1c0-.6.1-.8.2-.5v1c-.1.3-.2 0-.2-.5zm-.6-2c0-.2 0-.3.4-.3.3 0 .5.1.3.3 0 .2-.2.4-.3.4l-.4-.4z" style="fill:#d39f2e;stroke-width:.352778" transform="translate(-44.5 -173.2)"/>
  <path d="M75.6 243.8c-2-1-3-2.2-3-4.4 0-1.9 0-2-2.5-4.5a32 32 0 0 1-6.7-10.3 25 25 0 0 1-1-8.1c-.2-7-.7-8.8-3.3-11.7-1.7-2-1.9-2.4-1.1-2.7.7-.3 5.5 2.6 7 4.3l1.4 1.4a458.9 458.9 0 0 1 2.4-18.2l.7-4.7c.2-.5.4-2.5.5-4.5.1-3.5.6-5.4 1.3-5.4.6 0 3.4 3 5 5.6l1.7 2.5-.8 1.3c-.4.8-1.2 2-1.8 2.7-1.4 1.8-2 3.6-1.8 4.8.2.7.1.8-.2.5-.4-.4-.6-.3-1.1.5a4 4 0 0 0-.7 2c0 .7-.3 2-.7 2.9-.7 1.4-.7 1.8-.4 3.2.5 1.8.5 2 .1 1.7-.5-.3-.8.9-.5 2.5.1 1 .4 1.5.9 1.7.4 0 .6.4.5.6-.1.5-1.6.7-1.7.2 0-.2-.1-.2-.3.1-.2.3-.3.8-.3 1 0 .5 0 .5.3 0 .3-.4.3-.3.3.3 0 .7 2 2.4 2.5 2 .2 0 .4.2.5.6 0 .4.4.7.8.7.3 0 1.7.6 3.1 1.4l3.4 1.5c.5.1 0 .2-1 .1-1.1 0-2.9-.3-4-.6-2-.6-2.4-.6-2.4.4 0 .6.2.7 1 .7.6 0 1.2.2 1.3.4.1.2.8.6 1.4.9.7.3 1.2.7 1.2 1 0 .3.3.7.8 1l.7.6h-.8c-.7.2-.9.4-.9 1.4 0 1.3 0 1.3 1.5 1.1.8 0 1.6.1 1.7.3.4.6 1.8.5 2-.2.5-1 .3-2.2-.3-2.3-.5-.1-.4-.3.3-.6.6-.3 1-.7 1-.9 0-.2.2-.1.4.2.4.6 1.4.1 2-1.1.6-1.3.2-1.8-1.3-1.6-1.3.2-2.4-.2-2-.8.3-.5 2-.8 2.2-.4 0 .2.3.3.4.3.5 0 1.5-2 1.5-3.1 0-1-.2-1.1-.8-1.1a2 2 0 0 0-1.2.4c-.3.3-.6.2-1-.2-.6-.5-.4-.7.3-.6.2 0 .5-.1.6-.4.2-.3.3-.3.3 0 0 1 1.3.3 2.5-1.3s1.3-1.7.8-2.8c-.6-1-.5-1.1.5-2.1 1.2-1 1.6-3 .8-3.3-.2 0-.2-.6.2-1.4.2-.6.5-1 .5-.6 0 1.2.7 1 1-.3.9-2.5 2.9-3.4 2.4-1.1a9 9 0 0 0 .2 2.7c.3 1.2.3 2 0 2.7-.1.6-.2 1.9 0 3l.1 1.8 1.5-3.1c2.2-4.5 5.2-8.5 7.5-10 2.2-1.5 7-3.1 7.5-2.5.2.2 0 .5-.6 1a23 23 0 0 0-8.4 9.3 42.8 42.8 0 0 0-4 12.6A37.3 37.3 0 0 1 87 235.6c-2.6 2.8-3 3.4-3 4.5 0 1.7-1 3.5-2.5 4-1.6.6-4.1.5-5.8-.3zm-2.5-16.1c-.4-.7-.5-.5-.2.4.1.3.3.5.4.4 0-.1 0-.5-.2-.8zm11.2-2.9c0-.5-.2-.8-.4-.7-.6.2-.8 1.2-.5 2 .2.5.3.5.6 0 .2-.2.3-.8.3-1.3zm-2.7 1.1c.8-.2.8-1.5 0-1.5-1.8-.2-2.2.1-1.3 1 .7.9.6.8 1.3.5zm-2.2-1.3c0-1-.5-1.4-1.4-1-.5 0-.7.4-.7 1s.1.8.5.6c.3 0 .5 0 .5.2s.3.3.5.2c.3-.1.6-.6.6-1zM85 222c.3-.5.5-1.2.4-1.4-.5-1.2-2.3.4-2 1.7.3 1 1 .8 1.6-.3zm-8.4-1.5c0-.2-.3-.3-.5-.3s-.3.1-.2.3c.1.2.4.4.6.4.2 0 .3-.2.1-.4zM91 202.2l-.1-1c-.2 0-.3.4-.3 1l.1 1 .3-1zM72.6 209c-.6-.5-.5-1 .3-1 .5 0 1 1 .5 1.3 0 0-.5 0-.8-.3zm12.4-8c0-.7.6-1 .9-.6 0 .1 0 .5-.4.7-.4.4-.5.3-.5-.1zm-13.7-3.4c0-.2.1-.3.3-.2l.4.4-.4.1c-.2 0-.3-.1-.3-.3zm18.1-2.6c-.3-.2-1.4-.2-2.3-.2-1.1.2-1.7 0-1.7-.2s.6-.3 1.6-.2c1.3 0 1.8 0 2.2-.6.4-.6.5-.6.8 0 .5.8 1.7.8 2 0 .2-.7.3-.7.6-.2.3.4.3 1 .2 1.3-.2.4-.3.6-.3.3 0-.2-.4-.3-1.3 0-.6 0-1.4 0-1.8-.2zm-1-6.4c-.3-.2-.4-.6-.2-.8.1-.3.3-.2.6.3.5.7.1 1.2-.5.5zm2-.4c0-.3 0-.4.3-.3.2.1.2.4.1.5-.3.5-.5.4-.5-.2z" style="fill:#9b9d27;stroke-width:.352778" transform="translate(-44.5 -173.2)"/>
  <path d="M76.1 244c-2.5-.9-3.5-2.5-3.4-5 .1-1.5 0-1.7-1.6-3.3a28.3 28.3 0 0 1-7.4-10.7 14 14 0 0 1-1-6.6c0-7-1-10.8-3.6-13.7a7.3 7.3 0 0 1-1.2-1.6c0-.7 5.8 3 7.2 4.5 3.7 4 5 7 5.8 14.4.6 4.8 1.6 7.5 3.7 9.6 2.1 2 3 2.3 1.2.2-2-2.2-2.8-4.2-4-10.4A96 96 0 0 0 70 213c0-.1 0-.2-.2-.2s-1-1-1.7-2.3l-1.5-2.3.5-3.8 1.6-11.4 1.6-12.1c.6-5.7.9-6 2.7-4.2a29 29 0 0 1 3.1 3.9l1.7 2.6-1.1 1.7-2.2 3.2c-.8 1.1-1 1.8-1 3 0 1.1 0 1.5-.4 1.2-.5-.5-1.6 1.4-1.7 2.9 0 .6-.3 1.8-.7 2.7-.6 1.3-.6 1.8-.3 3 .5 2 .5 2 0 1.8-.4-.3-.7 1.1-.5 2.4.4 1.9.6 2.4.9 2.2.1 0 .2 0 .2.3 0 .2-.2.4-.6.4-.4 0-.6-.1-.7-.3 0-.2-.1-.2-.3.1-.2.3-.3.8-.3 1 0 .5 0 .5.3 0 .3-.3.3-.2.3.5 0 .6.2 1 .5 1 .2 0 .6.3.9.7.3.4.7.7 1 .6.3-.2.5 0 .5.3 0 .7 1 1.6 1.5 1.3.3 0 .6 0 .8.3.2.3.1.3-.2.2-.2-.2-.4-.1-.4 0 0 .2.5.5 1 .7 1 .4 1 .4.1.3a30 30 0 0 1-1.8-.4c-.7-.1-1 0-1.1.6-.2.8.5 1.7 1.5 1.7.3 0 1 .5 1.4 1 .4.6 1 .8 1.4.7 1-.3 1.5 1.1.7 2-.6.5-.6.5-.8-.2-.1-.4-.5-.6-1-.6-.6 0-1 0-1 .3 0 .6 1.4 2 1.9 2 .7-.3 1.2 1.3.7 2-.7 1-.6 1.6.4 2 .7.4 1 .4 1.4 0 .5-.4.7-.4 1 .1.6.7 1.4.8 2 .1.7-.9.3-1.8-1-2-1-.2-1.1-.2-.4-.3.5 0 1.4-.3 1.8-.7l1-.7.1.8c.1.4 0 1-.1 1.2-.5.5-.3 2.4.2 2.4.2 0 .6-.5.9-1 .4-.7.4-1.1.1-1.6-.3-.4-.2-.7.2-1.2.7-.7 1.1-2.2.8-2.6-.4-.4-1.9-.1-2 .4-.2.3-.4.5-.6.5-.2 0-.3-.2-.3-.5s-.3-.5-.6-.5c-.6 0-.6-.1 0-.6.4-.2.8-.4 1-.3.2.1.3 0 .3-.4 0-.5.2-.4.7.3l.7.8.7-.9a4 4 0 0 0 .7-2v-1.3l-1.5.3c-1.2.2-1.6 0-2-.3-.3-.4-.3-.6 0-.6.7-.1.9-.2 1.3-.4.2-.2.5-.1.6 0 .5.7 1.3.4 1.8-.6.7-1.3.7-3 .1-3.3-.4-.2-.4-.2 0-.2.2 0 .4-.3.4-.5s.5-1 1.1-1.5c.8-.9 1-1.4.9-2-.1-.3-.4-.6-.6-.6-.1 0 .1-.6.6-1.3 1-1.4 1.2-3.9.4-4.1-.3-.2-.3-.3 0-.7.3-.2.5-.8.5-1.2 0-.7 0-.7.3 0 .6 1.5 1 1.3 1.5-.5.2-1 .5-1.6.6-1.4l.6.3c.3-.2 1 2.5 1 4-.1 6.5-.4 7.7-3 14.3a132.3 132.3 0 0 1-7.4 16.2c0 .5 3.2-4 4.8-6.9a74 74 0 0 0 4.6-11.5 68 68 0 0 0 2.5-8.4c-.5.3 1-2.6 2.9-5.4 1.7-2.6 3.7-4.8 5-5.5.5-.2-.1.5-1.3 1.5a27 27 0 0 0-3 3.5l-.8 1.6 2.5-2.3c3.4-3.2 4.6-4.1 7-5 2.7-.9 2.8-.8.8.4a21 21 0 0 0-7.5 9c-1.2 2.4-3 8-3 9.5 0 .7 0 .7-.3 0-.3-.5-.4-.5-.8.6a13 13 0 0 1-2 2.6c-1.2 1.2-1.8 2.3-3.3 6-1 2.6-1.7 5-1.7 5.8v2.3c0 2.1-.2 2.7-3 5.8-2.7 3-3 3.4-3.1 5-.2 1.4-.4 2-1.3 2.9-1 1-1.4 1.1-3.1 1.2-1.2 0-2.6-.1-3.4-.4zm-7.3-17.2c-.7-2.4-1.6-2.8-1.3-.5.3 2.1.9 3.2 1.4 2.7.2-.2.2-.9-.1-2.2zm5.3-7.7c0-.3-1-.8-1.3-.6v.6c.3.4 1.3.5 1.3 0zm17.6-17.7c0-.4-.1-.6-.3-.6-.6 0-1.1 1.7-.9 2.6.3.7.3.6.7-.3a6 6 0 0 0 .5-1.7zM77.1 215c-.6-.4-.6-.5 0-.7.4-.1.9 0 1.2.3l1.4.6c.6.1.5.2-.5.2a4 4 0 0 1-2.1-.4zm20.3-1.5c0-.4.1-.5.2-.2v.7c-.1 0-.2-.1-.2-.5zm-13.7-2.4c-.4-.5-.4-.6.3-.6.3 0 .7-.1.7-.3 0-.2.2-.2.5 0 .4.4.3.6-.1 1-.8.5-.9.5-1.4-.1zM72.6 209c-.6-.5-.5-1 .3-1 .5 0 1 1 .5 1.3 0 0-.5 0-.8-.3zm12.4-8c0-.7.6-1 .9-.6 0 .1 0 .5-.4.7-.4.4-.5.3-.5-.1zm-13.7-3.4c0-.2.1-.3.3-.2l.4.4-.4.1c-.2 0-.3-.1-.3-.3zm18.1-2.6c-.3-.2-1.4-.2-2.3-.2-1.1.2-1.7 0-1.7-.2s.6-.3 1.6-.2c1.3 0 1.8 0 2.2-.6.4-.6.5-.6.8 0 .5.8 1.7.8 2 0 .2-.7.3-.7.6-.2.3.4.3 1 .2 1.3-.2.4-.3.6-.3.3 0-.2-.4-.3-1.3 0-.6 0-1.4 0-1.8-.2zm-1-6.4c-.3-.2-.4-.6-.2-.8.1-.3.3-.2.6.3.5.7.1 1.2-.5.5zm2-.4c0-.3 0-.4.3-.3.2.1.2.4.1.5-.3.5-.5.4-.5-.2z" style="fill:#996e1e;stroke-width:.352778" transform="translate(-44.5 -173.2)"/>
  <path d="M76.1 244c-2.5-.9-3.5-2.5-3.4-5 .1-1.5 0-1.7-1.6-3.3a28.3 28.3 0 0 1-7.4-10.7 14 14 0 0 1-1-6.6c0-7-1-10.8-3.6-13.7a7.3 7.3 0 0 1-1.2-1.6c0-.7 5.8 3 7.2 4.5 3.7 4 5 7 5.8 14.4.6 4.8 1.6 7.5 3.7 9.6 2 2 3 2.3 1.3.4a15 15 0 0 1-2.2-3.3c-1-2-2.5-9.3-2.1-9.7.2-.2 0-.9-.4-1.6-1-1.9-.8-2.4.4-1.5 1.1.8 1.8 2.2 1.1 2.4-.9.3-.4 1.8.9 2.6.7.4 1.2 1 1.2 1.4 0 .8-.1.8-1 .3-.6-.3-.8-.2-.8.2 0 .7 2.8 3.7 3.4 3.7l.9.5c.3.4.3.6 0 .6-.8 0-.4 1.7.5 2.4 1.4 1.1 2.5 1.3 3.6.5.5-.3 1.2-.6 1.6-.5.3 0 .7-.3 1-1 .3-1.1.3-1.1-.6-1-.5.2-.8.1-.8 0 0-.3.3-.4.8-.4 1.2 0 3.1-2.4 2.9-3.5-.2-.6 0-1.1.6-1.9.6-.6 1-1.4.9-2.1 0-.7.1-1.5.3-1.9a9 9 0 0 0 .6-1.7c.2-.7 0-1-.4-1s-.5 0-.3-.2c.7-.5 1.7-3.2 1.5-4-.2-.8 0-1.1.7-1.6 1-.8 2-3.5 1.5-4.2-.3-.3-.2-.7.2-1.5.6-1.1 1.4-2.2 1.7-2.2v3.6c0 3.6-.1 3.8-2.5 10.1a131.7 131.7 0 0 1-7.5 16.2c0 .5 3.2-4 4.8-6.9a74 74 0 0 0 4.6-11.5 68 68 0 0 0 2.5-8.4c-.5.3 1-2.6 2.9-5.4 1.7-2.6 3.7-4.8 5-5.5.5-.2-.1.5-1.3 1.5a27 27 0 0 0-3 3.5l-.8 1.6 2.5-2.3c3.4-3.2 4.6-4.1 7-5 2.7-.9 2.8-.8.8.4a21 21 0 0 0-7.5 9c-1.2 2.4-3 8-3 9.5 0 .7 0 .7-.3 0-.3-.5-.4-.5-.8.6a13 13 0 0 1-2 2.6c-1.2 1.2-1.8 2.3-3.3 6-1 2.6-1.7 5-1.7 5.8v2.3c0 2.1-.2 2.7-3 5.8-2.7 3-3 3.4-3.1 5-.2 1.4-.4 2-1.3 2.9-1 1-1.4 1.1-3.1 1.2-1.2 0-2.6-.1-3.4-.4zm-7.3-17.2c-.7-2.4-1.6-2.8-1.3-.5.3 2.1.9 3.2 1.4 2.7.2-.2.2-.9-.1-2.2zm21.9-15c0-.5-.2-.8-.4-.6-.2 0-.3.6-.3 1 0 .6.1.9.3.7.2 0 .4-.6.4-1zm-18.5 1.8c-.6-.4-.6-.5-.1-.5.3 0 .6.2.8.4.3.6 0 .6-.7.1zm25.2 0c0-.4.1-.5.2-.2v.7c-.1 0-.2-.1-.2-.5zM67.8 210l-1-1.8.4-3.8 1.6-11.4 1.6-12.1c.6-5.7.9-6 2.7-4.2a29 29 0 0 1 3.1 3.9l1.7 2.6-.8 1.2-2 3c-.8 1-1.5 2.4-1.8 3-.2.8-.7 1.8-1 2.4-.4.5-.8 1.6-1 2.4a57.9 57.9 0 0 0-2 14 10 10 0 0 1-.2 2.3c-.1.1-.7-.6-1.3-1.5z" style="fill:#748c1e;stroke-width:.352778" transform="translate(-44.5 -173.2)"/>
  <path d="M76.6 244.2c-1.7-.5-2.4-1.3-2.2-2.6 0-.6.4-1.4.7-1.6.5-.4.4-.6-1-1.8-4.5-3.7-8.2-8-7.9-9.2.2-.3 0-.4-.2-.2-.2.1-.7-.4-1.3-1.6a16 16 0 0 1-1-6.2 43.8 43.8 0 0 0-2.7-14 9 9 0 0 0-1.7-2c-.7-.8-1.1-1.4-1-1.4.2 0 1.4.6 2.7 1.4 4.2 2.4 7.5 6.6 8.3 10.5.7 3.1.7 3.6 0 2.7-1.2-1.5-2.7-3-3-2.8-.5.3-.4 8.6.2 11.3a25 25 0 0 0 1.6 4.6c1.1 2.3 3.5 5 3.5 4 0-.5.6-1 1.7-1.4 1.6-.7 1.7-.7 3.2-.2.9.3 1.6.5 1.7.4 0 0-.5-.6-1.3-1.2a13 13 0 0 1-3.8-5.8c-.6-1.9-1.5-6.8-1.4-7.8 0-.4-.1-1-.3-1.4l-.6-1.7-.3-1 1 .7c1.2.8 1.9 2.2 1.2 2.4-.9.3-.4 1.8.9 2.6.7.4 1.2 1 1.2 1.4 0 .8-.1.8-1 .3-.6-.3-.8-.2-.8.2 0 .7 2.8 3.7 3.4 3.7l.9.5c.3.4.3.6 0 .6-.8 0-.4 1.7.5 2.4 1.4 1.1 2.5 1.3 3.6.5.5-.3 1.2-.6 1.6-.5.3 0 .7-.3 1-1 .3-1.1.3-1.1-.6-1-.5.2-.8.1-.8 0 0-.3.3-.4.8-.4 1.2 0 3.1-2.4 2.9-3.5-.2-.6 0-1.1.6-1.9.6-.6 1-1.4.9-2.1 0-.7.1-1.5.3-1.9a9 9 0 0 0 .6-1.7c.2-.7 0-1-.4-1s-.5 0-.3-.2c.7-.5 1.7-3.2 1.5-4-.2-.8 0-1.1.7-1.6 1-.8 2-3.5 1.5-4.2-.3-.3-.2-.7.2-1.5.6-1.1 1.4-2.2 1.7-2.2v3.3c0 3.1-.2 3.6-2.7 10.4a66.3 66.3 0 0 1-9.8 19c0 .6 1.2-.2 3-2 1.8-1.7 2.3-2 2.6-1.7.6.8 0 3-1.5 5a7.4 7.4 0 0 0-1.4 4 9.2 9.2 0 0 1-.8 2.9c-1 1.5-3.5 2.1-6.4 1.5zm-11.1-20c-.5-4.8-1.1-5.8-.8-1.6.1 2.8.8 6 1.1 5.6 0 0 0-2-.3-4zm25.2-12.4c0-.5-.2-.8-.4-.6-.2 0-.3.6-.3 1 0 .6.1.9.3.7.2 0 .4-.6.4-1zm-18.5 1.8c-.6-.4-.6-.5-.1-.5.3 0 .6.2.8.4.3.6 0 .6-.7.1zM68 210c-1.2-2-1.2-2 .5-13.8 1.6-11.3 1.7-11.7 2.4-11.7.4 0 1 .7 1.7 1.7.5 1 1 1.8 1.2 1.9.4.2-.7 3.4-1.6 4.7-.3.5-.7 1.6-.8 2.4a57.9 57.9 0 0 0-2.2 16.3c-.2 0-.7-.6-1.2-1.5zm29.4-6a8 8 0 0 1 1.4-2.2c1.3-1.5 1-.5-.4 1.7-1.2 1.7-1.5 1.9-1 .5zm-20.3-20.7c-.1-.4-.1-.7 0-.8 0-.1.2 0 .4.4.1.3.1.7 0 .8 0 0-.3-.1-.4-.4z" style="fill:#565b13;stroke-width:.352778" transform="translate(-44.5 -173.2)"/>
</svg>