<svg xmlns="http://www.w3.org/2000/svg" width="277.3" height="277.3" viewBox="0 0 73.4 73.4">
  <path d="M44.4 210v-36.6h73.4v73.4H44.4Z" style="fill:#fefefe;stroke-width:.352778" transform="translate(-44.5 -173.2)"/>
  <path d="M84.3 239.8c-1-.8-1.2-1.5-1.8-4.3l-.8-3.4-5.7-4.4c-15-11.7-19-14.5-19.1-13.8-.3 1-2.4 2-3.2 1.5-.6-.3-.8-.9-1-3-.2-2-.4-2.8-1-3.4-1-1-1.3-1.5-3-7.5-1.2-4.8-1.2-4.9-.5-5.6.4-.4 3.4-1.5 7-2.6 3.5-1.1 6.6-2.3 7-2.6.3-.4.8-2 1.2-4.8a49 49 0 0 1 1.1-5.2c.5-1.3 2-1.9 5.7-2.4 3-.4 3.2-.4 5.5.4a702 702 0 0 1 33.6 15.5c2.3 1.5 3.3 3 3 4.7-.3 1.3-6 21.5-6.6 23-.2.5-.7 1.2-1.2 1.5l-.8.5.7 1.4c.8 1.6.9 2 0 2.6-.8.7-1.6.6-2.8-.4-.6-.4-1.1-.8-1.3-.8l-5.7 4c-5.5 4.1-5.6 4.2-6 6-.5 1.6-2.2 4-3 4l-1.3-.9z" style="fill:#b6c5ad;stroke-width:.352778" transform="translate(-44.5 -173.2)"/>
  <path d="M84.4 239.8c-1-.8-1.2-1.4-1.7-4-.4-1.6-.7-3.1-.9-3.4-.2-.5-5.8-4.9-16-12.7l-8.5-6.4-.7.8c-2 2.5-3.7 1.8-3.7-1.6 0-1.6-.2-2.2-.9-3l-1.2-1.8c-.7-1.4-3-10-2.8-11 .1-.8.6-1 7-3.2a66 66 0 0 0 7.4-2.7c.2-.2.7-2.2 1-4.6 1.3-7 1-6.7 6-7.6a11 11 0 0 1 6.8.4c2.1.8 27.1 12.2 30.3 13.8 5 2.5 6 3.7 5.5 6.7l-3 10.8a434 434 0 0 0-3 10.6 5 5 0 0 1-1.3 2.2l-1 1 .7 1.5c.7 1.4.7 1.5.1 2.2-.8.9-1.5.8-3-.4l-1.2-1-5.6 4.2-5.7 4.2-.7 2.2c-.5 1.5-1 2.4-1.8 3l-1 .8z" style="fill:#9daf90;stroke-width:.352778" transform="translate(-44.5 -173.2)"/>
  <path d="M84.4 239.8c-1-.8-1.2-1.4-1.7-4-.3-1.7-.8-3.3-1-3.6-.8-1-24.1-19-24.7-19l-.3.7c-.1.4-.7 1-1.3 1.3-1.1.5-1.2.5-1.8 0-.6-.5-.7-1.1-.7-2.8 0-1.8-.2-2.3-.8-2.9-1-1-1.8-2.8-3.1-8.1-1-3.9-1.1-4.7-.8-5.2.5-.5.6-.4 1.7.6 1.7 1.5 2.3 1.8 2.3 1.1 0-.3.1-.5.3-.5.2 0 .4-.2.4-.4s-.3-.3-.8-.2c-1.5.4-1.8-.3-.4-1 .6-.4 1.1-.8 1-1 0-.3 1.7-1 4.6-2 2.6-.8 5-1.7 5.1-2 .2-.2.8-2.5 1.2-5 1-5 1.2-5.7 2.4-6.3 1-.5 4.5-1.2 6.5-1.2 2.1 0 3.9.7 18.7 7.4 15.6 7.1 18.4 8.5 19.7 10 1.7 1.7 1.5 3.1-2.2 15.6a50 50 0 0 1-4.1 11.8l-1 1 .8 1.5c.7 1.5.7 1.5 0 2.2-.8.8-1.6.6-3.1-.6l-1-.9-5.7 4.2a48 48 0 0 0-5.8 4.9c-.2.3-.4 1.3-.6 2-.3 1-.8 1.8-1.6 2.4l-1.1.9zm-30.6-43.1c0-.2 0-.4-.2-.4s-.4.2-.4.4.1.3.2.3l.4-.3zm21.6-13c-.5-.4-7.8-4-8-3.7-.1 0 0 .3.2.4.3 0 2 .9 3.9 1.8 3.1 1.6 4.4 2 3.9 1.6z" style="fill:#89a874;stroke-width:.352778" transform="translate(-44.5 -173.2)"/>
  <path d="M84.3 239.8c-.6-.5-1-1.5-1.6-4.1-.5-2-1-3.7-1.3-3.9l-6.1-4.8A452 452 0 0 0 57 213.3c-.2 0-.3.3-.4.6-.1.4-.7 1-1.3 1.3-1.1.5-1.2.5-1.8 0-.6-.5-.7-1.1-.7-2.8 0-1.8-.2-2.3-.8-2.9-.4-.3-1-1-1.2-1.5-.5-1-3-10.2-3-11.1 0-.9.7-.7 2.6.8 2 1.6 2.5 1.8 2.9.9 0-.3.3-.5.5-.4.2.2.4.1.4 0 .1-.2 1.5-.8 3-1.3 1.7-.6 3-1.1 3.2-1.3 0-.2.9-.6 1.7-1 1.7-1 2-1.5 1-1.5-.6 0-.8-.2-.8-.7 0-.4.2-.6.3-.5.2.1.5 0 .6-.2.1-.2 0-.4-.3-.5-.4-.2-.5-.4-.3-.8.2-.3.6-2.2.9-4.1.3-2 .7-4.1 1-4.9.3-1.2.3-1.3 1.3-.9l1.7 1 .8.2.7.5 1 .7c.3 0 .4.2.2.4-.2.3 0 .4.8.3l.8.7c.3.3.8.5 1 .5.4-.2.4 0 .3.2-.2.3-.2.4 0 .3.5-.3 2.3.4 2.3.9 0 .1.1.2.3 0 .1 0 .9.1 1.5.4 1.2.5 1.3.5 1.1 0-.1-.5-.1-.6.1-.2.2.2.7.3 1 .2.7-.2.7-.2 0 .3-.5.5-.4.5.6.4.7 0 2 .3 2.9.6 2 .8 2.2.4.3-.6a72.6 72.6 0 0 1-8-4.8c-.2-.3.1-.3 1-.1 2.2.4 1.6-.7-1.2-2.1a33 33 0 0 0-3.2-1.4l-1-.3c-.3-.1.3-.2 1.3-.2 2.5 0 3.4.3 20 7.8 19.4 8.8 19.8 9 19.7 12.4 0 1.1-1.1 5.6-3.2 12.7a50 50 0 0 1-4.1 11.8l-1 1 .8 1.5c.9 1.7.9 1.6-.2 2.3-1 .6-1.7.4-3.2-1-.7-.6-.8-.6-6.2 3.5-3 2.2-5.6 4.3-5.8 4.6a6 6 0 0 0-.7 2c-.1 1-.6 1.8-1.3 2.4-1.2 1.2-1.6 1.2-2.7.4zm.2-19.8c0-.1.2-.8.7-1.4l.8-1c0 .2.3.1.6 0 .8-.5 1-3.3.3-3-.3 0-.4.3-.3.5.2.2 0 .3-.2.1-.4-.2-6.2 2.6-5.9 2.9a51.1 51.1 0 0 0 4 2z" style="fill:#819c6f;stroke-width:.352778" transform="translate(-44.5 -173.2)"/>
  <path d="M84.2 239.6c-.6-.6-1-1.6-1.5-4l-.6-3.3-4-3.1a580 580 0 0 0-21-16c-.2 0-.4.3-.5.7a4 4 0 0 1-1.3 1.3c-1 .6-1 .6-1.7 0-.6-.5-.7-1.1-.7-2.7 0-1.8-.2-2.3-1.1-3.5-.8-1-1.4-2.5-2.5-6.4-1.3-5-1.6-6.3-1.1-6.3l2 1.3c2.5 2 3.4 2.3 3.4 1.7a21 21 0 0 1 6.8-3c.7-.2 1.3-.5 1.3-.7 0-.2.2-.3.4-.2.1.2.3 0 .3-.1 0-.2.3-.4.7-.4.4 0 1-.4 1.4-1l.7-.9-.7-.8c-.5-.4-1-.9-1.4-1-.5-.2-.6-.4-.4-.8.2-.3.6-2.3 1-4.3.5-3.6 1.2-5.3 1.9-5.3.2 0 .3.2.3.5s.3.6.6.6.4.1.3.3c0 .2.4.4 1 .6.8.1 1.2.3 1 .6 0 .2 0 .3.4.1.4-.1.6 0 .5.2 0 .3.1.4.3.4.3 0 .4.2.3.6-.1.3 0 .7.2.9.3.2.4 0 .2-.2-.1-.3 0-.3.2 0 .7.8 2 1.5 2.4 1.2.2-.1.4 0 .4.1 0 .2.6.7 1.2 1.1l1.1.5c0-.2.2-.4.7-.4.5 0 .8.2.7.3-.2.3.9.8 1.5.7.8-.2 1.5 0 1.3.4-.2.3 0 .2.6 0 1-.6 2.9-.7 2.4-.2-.2.3 0 .4 1 .3 1 0 1.4 0 1.2.5 0 .3 0 .4.4.2.4-.1.6 0 .6.3 0 .4 0 .4.3 0 .2-.4 1-.1 3.6 1.1a81.4 81.4 0 0 0 10.8 4.7s-.3-.4-1-.6l-1-.7c0-.3-2.6-1.6-2.8-1.4 0 0-.2 0-.3-.2-.2-.2-1.3-.9-2.6-1.5a8.1 8.1 0 0 1-2.4-1.6c0-.1-.2-.2-.3 0-.2 0-.5 0-.6-.2-.1-.2-.4-.3-.5-.2-.2 0-.4 0-.5-.3-.2-.5 0-.5.7-.2.6.2.8.2.8-.2a1 1 0 0 0-.4-.7c-.2-.2-.3-.1-.1.1.1.2 0 .4-.2.4s-.3-.3-.3-.6c0-.5-.1-.5-.4-.1-.3.4-.3.4-.5 0s-.4-.6-.6-.5c-.2.1-.3 0-.3-.2s-.5-.6-1.1-.9c-1.1-.5-1.1-.5-.3-.5h.9l-.8-.4c-.5-.2-.8-.7-.8-1 0-.4-.2-.8-.4-1-.3 0-.3.1-.2.7.3.8.2.8-.3.1-.3-.3-.4-.8-.3-1 0 0 0-.2-.4-.2-.3 0-.5-.2-.5-.5s-.2-.2-.4.1c-.3.5-.3.5-.3 0 0-.4-.4-.7-.8-.9l-.6-.3c.3-.3 26 11.5 27.7 12.6 2.2 1.4 3 2.9 2.8 4.7-.1.8-1.4 5.5-2.8 10.4l-3.2 11a5.4 5.4 0 0 1-1.5 2.7l-1 .8.8 1.6.8 1.7-.9.7c-1 .6-1.7.4-3.2-1-.7-.6-.8-.6-6.4 3.7l-5.7 4.3-.6 2c-.4 1.5-.9 2.3-1.6 2.8-1.2 1-1.4.9-2.5 0zm1.8-19.5c.3-.2.4-.7.3-1-.2-.3-.1-.5 0-.4.6.3 1.5-.2 1.5-.7 0-.3.1-.5.3-.5.7.1 1.1 0 1.1-.6 0-.3.2-.4.4-.3.2.1.3 0 .3-.4 0-.6 0-.6.4-.1.3.4.3.4.3-.2 0-.3.1-.5.2-.4.2.2 1.2-.6 1.2-1 0-.2-1.2 0-1.4.3-.2.2-.5 0-.7-.6l-.5-.9-4.8 2.4-4.7 2.4 1.6.8c1.4.8 3.3 1.6 3.9 1.7.1 0 .4-.2.6-.5zm-1 0 .5-.3c.3 0 .5 0 .4.2-.2.3-1 .5-1 .2zm3-31.1c-.1-.3-.2-.6 0-.7.3-.3.6.2.4.7 0 .3-.2.3-.4 0zm-1.4-.8c-.4-.4-.6-.8-.5-.8.2-.3 1.4.7 1.3 1 0 .3-.4.1-.8-.2zm-11.1-.9c0-.4 0-.5.2-.2v.7c-.1 0-.2-.1-.2-.5zm9.1-.3c-.4-.5-.3-.5.2-.3.3 0 .5.3.5.5 0 .4-.2.4-.7-.2z" style="fill:#769465;stroke-width:.352778" transform="translate(-44.5 -173.2)"/>
  <path d="M84.3 239.6c-.7-.6-1-1.6-1.6-4l-.6-3.3-4.8-3.8c-7-5.5-19.9-15.2-20.2-15.2-.2 0-.4.2-.5.6a4 4 0 0 1-1.3 1.3c-1 .6-1 .6-1.7 0-.6-.5-.7-1.1-.7-3s-.2-2.5-.5-2.7c-1-.4-1.8-2.1-3.1-7.1-.7-2.9-1.3-5.2-1.2-5.3l2 1.2c2.2 1.6 2.8 1.7 5.1.6l2.2-.8c.4 0 3.9-1.5 6-2.6 2.5-1.3 2.8-2 1.5-3.2l-1.6-1.2c-.5-.2-.5-.6 0-2.7l.6-3c0-.2.3-.3.8-.2.7.2.7.2 0-.2-.6-.5-.6-.6 0-1 .4-.4.6-.4.4-.1-.2.2-.1.4.1.4l1.7.6c1.2.5 1.2.5.6 1.2s-.6.7 0 .5c.7-.2.7-.2 0 .3-.6.5-.6.6.3.8.5.1.9.3.8.5 0 0 .2.2.7.2 1 0 3 1.7 2.7 2 0 .2 0 .3.4.3s.5.1.4.3c0 .2.1.4.5.6.4 0 .8.4.8.6 0 .2.3 0 .7-.4.6-.8.8-.7.7 0 0 .2.2.3.4.2.3-.1.6 0 .7.2.1.3.4.3 1 0s1-.3 1-.2c-.1.8.1 1 .7 1 .3-.2.8 0 1 .3.6.7 1 .7 2.3 0 .5-.2 1-.3 1-.1.1.2.6.3 1.1.4 1 0 1.3.4.5.7h.7c.7 0 .9 0 .5.2-.3.2 0 .3 1 .2l1.6-.2c.5-.2 2.7.8 2.5 1 0 .2.2.3.5.3.4 0 .6-.1.5-.2 0-.2.4-.2 1.2-.1.7 0 1.5 0 1.8-.3.4-.4.5-.3.3.3-.2.5-.1.8 0 .8.3 0 .5-.2.5-.4 0-.3 0-.3.2 0 .4.6 1.8.9 2.5.5.4-.3 1-.2 2 .3 1.6.9 2 .9 2 0 0-.6.1-.8.7-.6.5.1.7 0 .7-.5 0-.4.2-.7.4-.7s0-.3-.6-.8l-1.2-1-.6-.9c-.3-.3-.4-.4-.3-.1.2.3.1.4-.2.2a.8.8 0 0 1-.2-.8c.2-.4 0-.5-.5-.3-.4.1-.7 0-.7-.1 0-.3-.2-.4-.5-.4s-.6-.1-.6-.3c0-.2-.5-.6-1.2-.9-.7-.3-1.2-.7-1.1-.8.2-.2 10 4.4 12.1 5.7 1.2.8 2.1 1.7 2.5 2.5.7 1.5.7 1.6-3.8 16.9-2 7-2.6 8.6-3.4 9.3l-1 .8.9 1.6.8 1.7-.8.6c-1 .8-1 .8-2.8-.4l-1.4-1-5.7 4.2c-5.6 4.3-5.7 4.3-6.2 6.3-.5 1.8-1.9 3.5-2.8 3.5-.2 0-.7-.3-1.2-.8zm2.1-18.8c.4-.4.4-.5-.1-.3-.4.1-.6.4-.6.6 0 .4.2.3.7-.3zm.2-.8c1-.6 2-1 2.1-1 .3.1.4 0 .3-.2-.2-.6 1.5-1.4 2-1 .3 0 .3 0 .2-.2-.1-.3.3-.7 1.2-1.2.8-.4 1.3-.9 1.2-1-.1-.2 0-.3.3-.2.3.1.7 0 .8-.2.2-.3.1-.3-.1-.2-.2.1-.6-.2-1-.7-.5-.7-.6-.8-.9-.4-.2.2-.3.3-.3 0l-.5-.9c-.5-.6-.8-.5-6 2l-5.7 3.1c-.3.2.3.7 2 1.7L85 221l1.7-1zm-8.5-3c-.7-.4-.9-.4-1.6-.5-.2 0-.3-.3-.1-.5.1-.2 0-.3-.2-.1-.2.1-.4 0-.4-.4 0-.3.2-.5.5-.4.4.2.6 0 .6-.5 0-.6 0-.6-.8-.1s-1 2-.5 2.5c.2.2.2.1 0-.1-.2-.6.4-.6.8 0 0 .1.4.2.7.1.2-.1.5 0 .7.2l.6.3c.2 0 0-.2-.3-.5zm-3.2-1.2c0-.2-.1-.3-.5-.3s-.6.1-.5.3c.1.2.3.3.5.3s.4-.1.5-.3zm2.8 0c.2-.3.1-.4-.1-.4s-.4.1-.4.3c0 .2 0 .4.2.4l.3-.4zm-4.6-1.2c-.3-.2-.5-.6-.5-.8 0-.1.3 0 .7.5.6.6 1.8 1 1.8.5 0-.4-1-1-1.3-1-.3.2-.5 0-.5-.1 0-.5.7-.4 1.7.2 1.3.7 1.4.5.3-.5-.8-.7-.9-.8-.3-.5.5.2 1 .3 1.3.2.2 0 .1-.2-.2-.2a1 1 0 0 1-.8-.5c-.1-.4-.3-.5-.5-.4-.2.1-.4 0-.5-.3a.9.9 0 0 0-.8-.6.5.5 0 0 1-.5-.5c0-.3-.2-.5-.4-.5s-.2.2-.1.4c.1.3.2.4 0 .3l-.1-.4-.5-.9c-.5-.5-.4-.6.1-.4.4.2.6.1.5 0-.3-.6-1.2-.5-1.4 0-.1.3-.2.1 0-.3 0-.5 0-1-.3-1-.2-.1-.3-.1-.2 0 0 .8-.1 1.2-.4 1-.2 0-.3-.3-.2-.5 0-.1-.4-.5-1-.7-.7-.2-1.3-.5-1.3-.6 0-.5-2-1-2.4-.7-.3.3-.4.3-.4-.1 0-.5 0-.4-.4 0-.2.4-.3.4-.3 0 0-.2-.2-.3-.5-.1-.4.2-.9.3-2.3.5-.2 0-.3.2-.2.4.1.2.4.2.7.1.4-.1.5 0 .3.6-.2.7-.2.7.3.3.5-.4.6-.4.5 0 0 .2.2.5.4.6.4.1.4 0 .2-.3s-.1-.4.2-.2c.2.2.3.4.2.6-.3.4.7 1.4 1 1.1.1 0 .2 0 .2.4 0 .3.5.7 1.3 1 .7.2 1.1.5 1 .7-.2.3 0 .3.3.2h.6c0 .6 1.5.8 1.9.4.1-.3.2-.3.1.2 0 .3.2.8.6 1 .4.3 1 .6 1.2.9.6.6 1.4.6.9 0zm-.5-2.4c0-.2.2-.4.4-.4s.3.2.3.4-.1.4-.3.4a.4.4 0 0 1-.4-.4zm27.2-15.6c0-.4-.2-.3-1 .5-.6.7-.6.7.2.2.4-.2.8-.6.8-.7zm-2.6.2h-.6c-.3.1-.2.2.2.2.3 0 .6 0 .4-.2zm-6.7-1.1c.4-.2.3-.4-.4-.7-.6-.3-.9-.3-1 0-.1.4 0 .5.6.4.6-.2.6-.1.2.2-.6.4 0 .5.6 0zm-7.1-1.8c.1-.2 0-.4-.1-.4-.2 0-.5.2-.6.4-.1.1 0 .3.1.3l.6-.3zm-3.5-.4c0-.2 0-.3-.4-.1-.6.2-.7.5-.2.5.2 0 .4-.2.6-.4zm-4-.7-1-.3c-.2 0 0 .1.2.3l.9.3c.2 0 .1-.1-.2-.3zm-5.5-3.8c-.2-.1-.4 0-.7.2-.3.4-.3.4.2.2.4-.1.6-.3.5-.4zm-2.7-3.4-.6-.3c-.3-.2-.4-.1-.3 0 .2.4.9.6.9.3zm19.2 8.3c.1-.2.5-.4.8-.4.6 0 .6 0 .1.4-.7.4-1.2.4-.9 0zm-2.6-1.1c-.3-.2-.4-.3-.2-.3l.9.3c.3.2.4.3.2.3l-1-.3zM74 191.6c.2-.2.1-.5-.1-.8-.3-.4-.3-.4.2-.3.7.3.7.7.1 1.1-.2.1-.3.1-.2 0zm21.3-3.6c-.7-.5-.7-.5.2-.1 1 .5 1.2.7.8.7-.2 0-.7-.3-1-.6zm-27.7-.6c0-.1.2-.3.5-.4.4-.1.5 0 .4.2-.2.3-.9.5-.9.2z" style="fill:#6a8859;stroke-width:.352778" transform="translate(-44.5 -173.2)"/>
  <path d="M84.3 239.6c-.7-.6-1-1.6-1.6-4l-.6-3.3-4.8-3.8A478.4 478.4 0 0 0 57 213.3c-.2 0-.4.2-.5.6-.1.3-.7 1-1.3 1.3-1.5.9-2 .2-2.3-2.9-.2-2-.4-2.5-1.2-3.3-.7-.7-1.2-2-2-5l-1.4-5.2-.2-1.2 1.1.7 1.8 1.2c.7.7 2.6 1.1 3 .7.2-.2 2.1-1 4.3-1.7 8.2-3 9.4-4.2 6.1-6.6l-1.7-1.4.5-.8c.5-.6.7-.6 1-.3l1.6 1.3c.7.5 1.6 1.2 2 1.7.6.4 1 .7 1.2.7.2 0 .4.4.5.8 0 .4.4.7.6.6.4-.2.5.1.6.7 0 .5.3 1 .5 1.3.2.3.3.1.1-.4-.1-.5 0-.8.2-.8s.3-.2.2-.4c-.2-.2 0-.2.4 0 .3 0 .4.2.2.3-.6.2-.6 1.4 0 1.7.2.2.3 0 .2-.5-.2-.5 0-.7.4-.5.3 0 .6.3.6.6s-.1.4-.3.3c-.1 0-.3.1-.4.4-.2.3 0 .4.5.3.3-.1.6-.5.7-.8 0-.5 0-.5.3 0s1.4.8 1.4.3c0-.2.2-.3.4-.3.1 0 .2.2 0 .5 0 .3 0 .5.2.5.3-.1.6.2 1 .6.4.5.5.6 1 .2.4-.4.6-.4.6 0 0 .2.2.3.5.2.4-.2.5-.1.3.2-.1.2 0 .3.4.1.3-.1.8 0 1.3.5s1 .7 1.6.6c.4 0 .9 0 1 .2 0 .3.3.3.7-.1.5-.4.6-.4.4 0-.3.5.8 1.5 1.3 1.2.2-.1.1-.3-.1-.5-.2-.1 0-.2.7-.2h1l-.7.7c-.8.6-.8.6-.1.4l1.4-.5c.7-.1.7-.1 0 .5l-.3.4c.3-.2.7-.1 1 .2.6.4.7.4.2-.2-.4-.5-.4-.6.1-.6.3 0 .6.2.6.4s.1.3.4.1c.2-.1.2-.3-.1-.5-.4-.2-.3-.3.3-.3.9 0 1.4-.6.7-.8-.2-.1-.1-.1.2 0 .4 0 .9-.2 1.1-.5.4-.5.4-.5.4 0 0 .3-.3.8-.8 1-.4.1-.8.4-.8.6 0 .2.5 0 1.1-.3 1.4-.9 1.9-1 1.6-.2-.2.4-.1.5.3.4l.8-.2c.1 0 0-.2-.3-.4-.4-.3-.3-.3.3-.2.6.2.8.2.6-.2-.2-.3-.1-.3.1-.1.2 0 .4.3.2.5 0 .2.2.4.6.5.5.2.7.5.5.8-.1.3 0 .5.3.4.2-.1.4-.5.3-1 0-.7 0-.7.5-.3.3.2.6.3.7.2.2-.1.5 0 .7.1.5.5 2 0 2-.7 0-.6-.7-.4-1.1.3-.2.3-.4.4-.4.2 0-.3.2-.6.4-.7.3-.2.2-.3 0-.6-.4-.2-.3-.2.2 0 .5 0 .9 0 1.1-.5.2-.4.3-.8.2-1h.1c.1.1.5-.2.8-.6.3-.5 1.8-1.5 3.3-2.3l2.7-1.5 1.2 1.2c2.2 2 2.3 1.6-2.4 17.7-2.1 7.4-2.8 9.3-3.5 10-1.1.9-1.1 1-.2 2.7l.8 1.3-.8.7c-1 .8-1 .8-2.8-.4l-1.4-1-5 3.7-5.7 4.2c-.3.2-.8 1.3-1.2 2.4-.4 1.4-1 2.4-1.5 3-1.2 1-1.5.9-2.5 0zm3.9-19.6 3.8-2.4c3.5-2 4.7-2.9 4.8-3.5 0-.3 0-.5-.3-.4-.3.1-.6 0-.7-.5 0-.3 0-.6.2-.5.1.2.3 0 .3-.3 0-.2-.3-.6-.6-.7-.3-.1-.4 0-.3.2.1.3 0 .1-.5-.3l-.6-.8-1.8.9a63.7 63.7 0 0 1-9.5 4.2c.4-.3.5-.5.2-.7-.2-.1-.3-.4-.1-.6l-.1-.3c-.3 0-2-1.3-3.7-3-.5-.5-1.1-.9-1.4-.9-.2 0-.3-.2-.3-.4s-.1-.3-.3-.2c0 .2-.4 0-.7-.3-.7-.8-3.7-2.8-4-2.6 0 0-.2-.1-.3-.4-.2-.2-.7-.4-1.2-.5-.6 0-1.3-.3-1.6-.7-.4-.3-1.3-.6-2-.7-.9 0-1.7-.2-1.9-.3-.2-.2-.4-.1-.4 0 0 .3-.2.4-2.3.5-.5 0-.8.2-.8.4 0 .1-.3.2-.6 0-.3 0-.7 0-1 .3-.2.2-.5.3-.7.1 0 0-.3.2-.5.6-.3.4-.6.6-1 .5-.5-.2-.5-.1-.4.3.4.9-.5.8-1.8-.3-1.4-1-1.7-1-1.1-.3.6.7 4 3.2 12.3 9.2 6.3 4.5 9 6.3 7.4 5-.4-.3-.6-.8-.4-1.1.1-.5.3-.5.7-.2.3.3.5.3.5 0s.1-.3.3-.2c.2.1.3.4.1.6-.1.2 0 .3.2.1.2-.1.4 0 .4.2s.2.3.4.1c.2 0 .2-.4.1-.6 0-.2.1 0 .5.4.6.6.8.7.8.3 0-1 1.3-1.4 2.5-.8.6.4 1 .4.8.2-.1-.2.5 0 1.3.4a7 7 0 0 1 1.7 1.1c0 .2.2.2.4 0 .2 0 .3 0 .3.3 0 .4 0 .4 2.9-1.4zm-18.8-3.4c-5.4-4-6-4.9-1-1.3 1.7 1.2 2.3 1.4 2 .7-.2-.2-.2-.3 0-.1.3 0 .3.5.2.8-.1.4 0 .5.4.3.7-.2 2.8 1.2 3 2 0 .3 0 .6-.2.6s-2.1-1.4-4.4-3zm3.2 1.6c0-.2-.3-.5-.8-.7l-.8-.5.8.8c.8.8.8.9.8.4zM90.8 203c.1-.2 0-.3-.2-.3s-.3.1-.3.3l.1.4.4-.4zm2-.8c-.4-.3-.4-.3-.2.2.1.4.3.6.4.5.1-.1 0-.4-.2-.7zm6.7.1c.2-.4 0-.6-.2-.5-.3.1-.4.5-.3.7.2.7.3.7.5-.2zm-2.7 0c0-.1 0-.4-.4-.7-.3-.3-.5-.3-.5 0 0 .2.2.4.5.4s.2 0-.1.3c-.3.2-.4.4-.1.4l.6-.3zm6.2-1.7c-.7-.5-1.2-.5-1 0 .2.2.6.3 1 .3s.4 0 0-.3zm.3-1.1c0-.2-.1-.4-.3-.4-.3 0-.3.2-.2.4l.4.4.1-.4zm-14.2 1.3c-.3-.3-.6-.6-.6-.8l.5.2c.3.3.6.3.7 0a3 3 0 0 1 1-.7c.7-.4.7-.3 0 .4-.6.4-1 .9-.9 1 .1.5 0 .4-.7-.1zm-7-1c0-.2.3-.3.6-.4.3-.2.5-.1.3.1-.2.3-.8.5-.8.2zm-4.5-1.7c0-.2.1-.4.3-.5.2-.2.4 0 .4.3s-.2.5-.4.5-.3-.1-.3-.3z" style="fill:#637b51;stroke-width:.352778" transform="translate(-44.5 -173.2)"/>
  <path d="M84.3 239.7c-.5-.5-.9-1.2-1-2 0-1.3-.9-4.3-1.5-5.4a403 403 0 0 0-24.4-18.9c-.4-.1-.7 0-.8.4-.1.4-.7 1-1.3 1.3l-1.1.6.2-1c.3-1.4 0-2.4-.8-2.6-.5-.1-.7-.5-.7-1.2a3 3 0 0 0-1-2c-.8-.8-1.3-1.9-2.2-5.2l-1.3-4.9c-.2-.5-.2-.5.4 0l1.2.9 1.8 1.1c.7.5 1.3.7 1.4.5 0-.2.2-.3.4-.2.2.1.6 0 .8-.3.2-.3 2.2-1 4.3-1.8 2.2-.8 4.9-2 6.2-3 2.3-1.4 3-1.7 2.6-1.1 0 .2.1.5.5.8.4.3.6.6.5.8-.2.2 0 .2.3 0 .5 0 .6 0 .4.4-.2.4 0 .5.3.3s.3-.1.2.1c-.1.2.1.8.6 1.3.5.6 1 1.1 1 1.3 0 .2 0 .2.3.1.2 0 .3 0 .3.2s.2.4.4.4.3-.2.2-.5l.3.3c.3.4.7.7 1 .7l.6.1c.2 0 .3.2.2.4-.2.2 0 .3.4.1.4-.1.5 0 .3.3s-.2.3 0 .2c.6-.4 1.6.1 1.6.8 0 .4 0 .4.3.1.6-.5 2.1-.1 1.9.6-.2.4-.1.5.2.1.4-.3.7-.3 1.3.2l1.1.6c.2 0 .3.2.2.5 0 .3 0 .3.5 0 .2-.2.5-.7.5-1 0-.5 0-.5.3 0 .2.3.2.6 0 1-.3.2-.2.3.4.1a4 4 0 0 0 1.3-.5c.3-.3.4-.2.2.3s-.1.6.3.4c.4-.2.6 0 .6.3s.2.4.6.3c.3-.2.5-.1.4 0-.1.2.5.4 1.3.4 1 0 1.4-.2 1.4-.5 0-.2 0-.4.2-.4s.3.4.2.9c0 .5 0 .9.2.9s.3-.2.3-.4c0-.3.4-.7.8-1.1.8-.7 1.4-1 .7-.2-.8.8-.4 1 .6.2 1.1-.7 1.5-.5.7.4-.3.3 0 .2.5-.2.8-.5 1-.5.9 0-.2.3 0 .4.7.3.6-.2.8 0 .6.2-.1.3.1.2.6-.1.9-.6 1-.6 1.3.1.4.7.7.8 2.8.4l-.5-.5c-.7-.5-.7-.5 0-.3 1.2.4 1.3.5 1 1-.1.2 0 0 .4-.3.6-.7.6-.8 0-1-.6-.2-.6-.3 0-.3.3 0 .6-.3.6-.6 0-.4.2-1 .6-1.5.3-.5.6-1 .6-1.3l.3-1c.2-.3.1-1 0-1.7l-.4-1.1 3.2-1.6c1.7-.9 3-1.7 2.8-1.9 0-.2.3 0 .8.3s1.2 1 1.4 1.6c.8 1.4.5 2.7-2.8 13.7l-3 10.5c-.2 1-.8 1.8-1.4 2.3l-1 .8.9 1.5.9 1.6-.9.7c-1 .8-1 .8-2.7-.4l-1.4-1-5.6 4-5.7 4.2-.6 2c-.5 2-1.9 3.8-2.8 3.8-.2 0-.7-.3-1.2-.7zm1.4-2c0-1-.1-1.2-.4-.7-.2.3-.3 1-.1 1.3.3 1 .5.8.5-.6zm-1.4-1.4c-.3-.6-.4-.6-.4 0 0 .5.1 1.2.3 1.7l.2.8.2-1a3 3 0 0 0-.3-1.5zm-6.2-14c.2-.1 0-.4-.2-.6-.4-.2-.4-.3 0-.3.2 0 .4-.3.4-.5 0-.9 1-1.7 1.8-1.4.4 0 1.8.9 3.1 1.7 2.6 1.7 3 1.8 2.7 1.1-.1-.2.4-.7 1.2-1a4 4 0 0 0 1.4-1c0-.2.2-.3.4-.3s.6-.3 1-.7c.2-.3.3-.4.2-.1-.2.4-.1.4.5 0 .4-.2.7-.5.5-.7l.1-.3c.8.2 1.5 0 2.2-.8a4 4 0 0 1 1.3-.8c.6-.1 2.8-2.1 3.8-3.5l.7-1-.8.5c-.8.4-.8.4-.4-.1.4-.6.2-.8-1-1.2l-1.1-.4c-.5-.2-1.2-.4-1.4-.3-.3 0-2.6 1.1-5.2 2.4-4 2.1-4.7 2.3-4.6 1.7.1-.4 0-.7-.1-.7-.2 0-.3-.2-.1-.4 0-.2 0-.3-.3-.3-.2 0-.4 0-.4-.3.1-.3 0-.4-.2-.3-.3.2-2.1-1.3-2.1-1.9 0-.2-.3-.3-.5-.2-.3.1-1-.3-1.7-1-.6-.6-1-.9-.8-.6.2.5.2.5-.4 0-1.3-1-1.6-1.3-1.3-1.6.1-.1 0-.2-.4 0-.3 0-.6 0-.6-.2a7.3 7.3 0 0 0-.3-1.2l-.8.2c-.7.4-.8.4-.4 0 .4-.6.4-.7-.3-1-.8-.4-.8-.4-.2 0 .5.4.5.6.2.7-.7.2-1.5-.7-1.1-1.2.1-.3 0-.3-.4 0-.5.4-.8.5-1.4.2-3.2-1.6-8-1.3-12.6 1-1.9.8-2.1.9-2.8.4-1.2-.8-1.3-.2-.1.9 1.4 1.3 3.3 2.9 3.5 2.9l1.2 1c.7.8.8 1.2.6 1.5-.3.3-.3.3.3 0 1.1-.6 1.5-.5.7.1-.7.5-.7.5.1.3.6-.1.8 0 .6.2-.2.3 0 .3.4.2.4-.2.5-.1.3.2-.2.4-.1.4.4.3h.7c-.1.5 1.5 1.9 2 1.6.2-.1.3 0 0 .2 0 .2 0 .4.4.4.5 0 .7.4.6 1.1 0 .2.2.2.5 0 .3 0 .4-.3.3-.5-.2-.2 0-.3.1-.1.2.1.3.4.2.7 0 .3 0 .5.2.5.3 0 .4.2.2.4-.1.2 0 .2.4.1s.5-.3.2-.4c-.2 0-.4-.3-.4-.4 0-.2.5 0 1 .4.8.6 1 .9.7 1-.3.3-.1.3.4.2.5-.2.7-.1.6 0-.1.2 0 .4.2.4.3 0 1.5.8 2.9 1.6 2.5 1.8 2.8 2 3.2 1.3zm20.3-15.8c0-.2.1-.2.3-.1l.4.4-.4.1c-.2 0-.3-.2-.3-.4zm-11-1.9c0-.3.3-.5.5-.5s.2.2-.1.5c-.2.3-.5.5-.6.5l.1-.5zM63 190.7c-.2-.2-.2-.5-.1-.6.3-.3.7.1.5.6-.1.4-.2.4-.4 0z" style="fill:#5b744c;stroke-width:.352778" transform="translate(-44.5 -173.2)"/>
  <path d="M84.1 239.3c-1-1-1.1-1.7-.6-1.7.2 0 .5.3.6.8.2.5.3.6.6.2.2-.4.3-.3.3.1s.1.7.3.7c.2 0 .4-.7.4-1.4 0-1.1-.1-1.4-.5-1.2-.4 0-.6-.1-.8-.7-.1-.6-.4-.9-.7-.7-.5.2-.9-.4-1.4-2-.3-1-1.3-2-5.6-5.4A410.8 410.8 0 0 0 57 213.3c-.1 0-.4.2-.5.6-.2.7-2.3 2-2.3 1.4l.3-1.2c.4-.8-.4-2.4-1.2-2.7-.3-.1-.5-.5-.5-.9s-.4-1-.8-1.3a6.9 6.9 0 0 1-1.7-2.8c0-.2.2-.2.5 0 .7.2.5-1.6-.1-2.2-.5-.4-.4-.4.2-.1.5.2.7.5.6.7-.4.7 1.1 2.5 4 4.8a105.1 105.1 0 0 1 2.6 1.9l1 .8a89.4 89.4 0 0 0 12.3 9c.4.2.8.6.8.8 0 .2.1.3.3.2.2-.2.4-.1.4 0 0 .3.4.5.9.6.5.2.8.4.7.6-.1.1.1.4.6.5l1.4 1c.9.7 1.5.8 1.9.2.2-.3 0-.3-.4-.2-.5.2-.6.2-.2-.2.3-.4.3-.6 0-.8-.3-.2-.3-.3 0-.5s.5-.7.6-1.1c.4-2.6.6-2.8 2.1-1.9l1.2.9 2 1.2c1.4.9 1.8 1 2.1.7.3-.2.4-.5.2-.7-.3-.3.5-.8 6-4a76.1 76.1 0 0 0 6.3-4.4c-.3.1-.4 0-.2-.2.1-.2.5-.3.8-.2h.3c0-.2 0-.5.2-.7.2-.4 0-.7-1-1.3l-1.6-1.2c-.4-.6-3-.2-4.4.7a52 52 0 0 1-3.5 1.9l-2.1 1-.6-1c-.4-.7-.8-1-1.2-.9h-.3c0-.2-.6-.8-1.5-1.3s-1.5-.8-1.3-.5a74 74 0 0 0-11.7-7.5c.3.4-.1.4-4 .4-2 0-4.8.7-7.3 1.7-2.4 1-3.4 1.2-4.3.4-.6-.5-.8-1-.8-2.1 0-1.8.4-2.2 3.2-3.2l2.5-1c0-.1.4-.3.7-.3 1.5-.2 5-2 6.5-3.5.5-.5.6-.5.9.4l.3 1c0 .3 1.6 2.5 2 2.8.2.1.2.2 0 .2-.5 0 2.3 2.2 3.7 2.8.7.3 1.3.8 1.5 1 .2.2.2.2.3 0 0-.2 0-.2.2 0a26.5 26.5 0 0 0 6.1 3.2c0 .3 2.5 1.4 3 1.2v.3c-.2.3.3.5 1 .4.1 0 .2.1.2.3 0 .2.4.2.8.1.7-.1.7 0 .3.3-.4.3-.4.4.2.2.5 0 .9 0 1 .3.1.2.2.2.2 0 0-.3.5-.4 1-.3.7 0 1 0 1-.2-.2-.2 0-.4.4-.4s.8.2 1 .4c0 .2.5.3.8.2.4-.2.8 0 1 .1 0 .2.4.4.7.4.6 0 .5-.1 0-.6-.8-.5-.9-.5 2-.6 1 0 1.8 0 1.8.2-.1.1.2.4.8.5.5.1 1 .4 1.2.6.2.2.5.1.8-.2.3-.4.5-.6.3-.6-.1 0 0-.3.4-.6.5-.3.5-.5.2-.5s-.2-.2.2-.5.5-.5.3-.5c-.3 0-.2-.3.2-.8.4-.4.7-.8.5-1 0-.2 0-.6.2-.8.3-.5.8-2.2.9-3.6l.3-1.2c.2-.2.1-.4-.1-.4-.6 0-.4-.9.4-1.4.5-.4 2-1.1 3.4-1.7l2.6-1 .6 1c1 1.5.7 2.5-2.4 13.5l-3.2 11a4 4 0 0 1-1.4 2.3l-1 .8.8 1.6 1 1.6-.9.6c-1 .8-1 .8-2.7-.4l-1.5-1.1-5.5 4.1-5.7 4.2-.6 2.1c-.5 2-1.8 3.7-2.8 3.7-.3 0-.9-.5-1.4-1zm-1-27.8c-.2-.2 0-.3.3-.1.6.2.7.4.2.4l-.6-.3zm12.6-3.2.4-.3c.1 0 .2.1.2.3 0 .2-.2.4-.4.4s-.3-.2-.2-.4z" style="fill:#536a46;stroke-width:.352778" transform="translate(-44.5 -173.2)"/>
  <path d="M84.3 239.5c-.5-.4-.7-.8-.5-.8.2 0 .5.3.8.6.8 1 1 .6 1-1.5 0-1.5 0-2-.5-2a.9.9 0 0 1-.7-.5.8.8 0 0 0-.7-.5c-.3 0-.5-.2-.5-.4s-.1-.3-.3-.2c-.2.1-.4-.3-.6-.8-.2-1.3-3.7-4.2-16.8-14.1a168.2 168.2 0 0 1-7.6-6.1 230.5 230.5 0 0 0 10.1 7.5l1.5 1 1.4 1 1.4 1.1 1.4 1.1 1.2.9 1.8 1.2 1.6 1.1 1 .5c.4.1.7.4.7.6 0 .2.2.2.4.1s.3 0 .3.2.2.3.4.3c.3 0 1.1.5 2 1.1 2.8 1.9 3.1 1.5 3.1-3.2 0-1.8.2-3.8.3-4.4.3-1 1.2-1.7 9.5-6.8a19 19 0 0 0 4.3-3.2c.3-.2.7-.4 1-.4.1 0 .3-.2.2-.4-.1-.3.3-1.5.8-2.8l1.6-4.4c.3-1.1.7-2.3.9-2.5.5-.6.4-3.3 0-3.7-.6-.3-.1-.6 3.6-2 4.6-1.9 4.6-1.3.2 14.2-2.8 9.7-3.3 11-4.2 11.8l-1 1 .8 1.5 1 1.6-.9.6c-1 .8-1 .8-2.7-.4l-1.4-1-5.7 4c-5.5 4.2-5.6 4.2-6.2 6.1-.5 2-2 4-2.8 4-.2 0-.8-.5-1.2-1zm-30-24 .4-1.4c.4-1.1.4-1.3-.6-2.3-2.1-2.4-2.1-3 0-1.2l2.5 1.9c.4.2.5.5.2 1.1-.4.8-2.5 2.4-2.5 1.9zm31.2-3.3a998.8 998.8 0 0 0-9.3-6.2c0-.2 2.4 1.1 4.3 2.4.6.4 1 .5.8.3-.1-.2 0-.4.1-.4.2 0 .4.3.5.6.2.3.5.5.8.4.6-.3 1 .3.4.6h.4c.4-.1 1.3.1 2 .6 2 1.2 2.6 1.4 2.8.9.1-.3.2-.3.2 0s.2.4.4.3c.2-.2.5-.1.8.1.3.2.6.2 1 0l.8-.3c.2 0-.5.5-1.5 1-1.1.6-2 1.1-2.2 1l-2.3-1.3zm-30.4-6.8c-.7-1.3-.8-2.7-.2-2.9.3 0 .4-.3.3-.5 0-.1 1.5-.9 3.6-1.6 4.2-1.5 6.3-2.5 7.2-3.5.3-.3.8-.5 1-.4.1 0 .4 0 .4-.3.1-.2.3 0 .5.7.5 2.3 1.2 3.4 3.4 5.7l.8.8-1.4-.7c-1-.4-1.6-.6-1.8-.4A64.7 64.7 0 0 0 56 206c-.4.1-.8 0-1-.6zm19.6-.3-.8-.7 1 .6 1 .7c0 .3-.4.1-1.2-.6z" style="fill:#435a42;stroke-width:.352778" transform="translate(-44.5 -173.2)"/>
  <path d="M84.3 239.5c-.5-.4-.7-.8-.5-.8.2 0 .5.3.8.6.8 1 1 .6 1-1.5 0-1.5 0-2-.5-2a.9.9 0 0 1-.7-.5.8.8 0 0 0-.7-.5c-.3 0-.5-.2-.5-.4s-.1-.3-.3-.2c-.2.1-.4-.1-.5-.6-.3-1.1-.3-1.4.2-1 .2 0 .3 0 .1-.2a33.5 33.5 0 0 1-5.9-4.5c0-.3.7 0 2.2 1.2l2.8 2.2a5 5 0 0 0 1.8.9c.6.1 1 .3.8.5 0 .2.2.3.6.3.4 0 .7.2.7.6 0 .5 0 .5.4.2.3-.3.5-2 .5-5.7 0-6.2-.6-5.2 5.3-8.7 6.7-3.9 9.3-5.6 9.1-6 0-.3 0-.4.2-.3.2 0 .4-.4.6-1 .3-1.5.3-1.3 1-2.8l.8-2.4c0-.6.3-1 .5-.9.1.2.2 0 0-.3 0-.3 0-.6.2-.6.3 0 .4-.1.4-.3 0-.2-.1-.3-.3-.2-.2.1-.4 0-.4-.1 0-.2.3-.4.6-.4.4 0 .5-.2.4-.5v-.7c.3-.2.4-1 .3-2-.1-1.4 0-1.6.9-2.1l3-1.7c2-1 2.2-1 2.4-.5.4 1.8 0 4.2-2.4 12.5l-3.3 11.2c-.4 1.6-.8 2.4-1.6 3l-1 .7 1 1.6.8 1.6-.8.6c-1 .8-1 .8-2.7-.4l-1.4-1-5.7 4c-5.5 4.2-5.6 4.2-6.2 6.1-.5 2-2 4-2.8 4-.2 0-.8-.5-1.2-1zm24.3-34-.5-.7.2.7.5.7-.2-.7zm1.1-3c-.3-.3-.4-.2-.2.3.2.3.4.5.5.4 0-.1 0-.4-.3-.6zm.7-.5c0-.2-.2-.4-.4-.4s-.3.2-.1.4c0 .2.2.3.3.3.1 0 .2-.1.2-.3zm-1-.2-.7-.6c-.6-.4-.6-.4-.1.2.4.5.7.7.7.4zm.3-.9c0-.2-.2-.3-.4-.3s-.3.1-.2.3l.4.4.2-.4zm.6-.8c-.1-.2-.2-.2-.2.3 0 .3 0 .5.1.4.2-.1.2-.4 0-.7zm-3.8-.4c.4-.5.4-.5-.1-.3-.3 0-.6.3-.6.5 0 .4.2.4.7-.2zm1.4.2c.3-.2.4-.4.2-.4l-.9.4c-.3.1-.4.3-.2.3l1-.3zm2.2-.7c.3.4.3.3.1-.2-.1-.4 0-.6.3-.5.3.1.5 0 .5-.2 0-.4-.3-.4-1.2 0-.7.4-1.2.8-1.2 1l.6-.2c.4-.4.6-.4.9 0zm-.9-1.1c1-.6 1.6-1 1.4-1-.3 0-3.4 1.7-3.4 1.9 0 .3.4.1 2-1zM76 227.4c-.1-.2 0-.4.1-.4.2 0 .4.2.4.4l-.1.3-.4-.3zm-1.6-1.4c-.5-.5-.5-.5 0 0l.7.5c0 .3-.3.1-.7-.5zm-20.1-10.5.4-1.4c.4-1.1.4-1.3-.8-2.4l-1-1.4c.1-.1 1 .4 2.2 1.2 1.7 1.3 2 1.6 1.6 2.2-.3.8-2.4 2.2-2.4 1.8zm31.2-3.3-5.7-3.8c-3.5-2.2-4.8-3.3-2.6-2a197.2 197.2 0 0 0 4.1 2.4c-.1-.3 0-.5.1-.5.2 0 .4.3.5.6.2.3.5.5.8.4.6-.3 1 .3.4.6h.4c.5-.1.8 0 .8.2 0 .3 0 .3.2.2.1-.1.9.2 1.7.6.8.5 1.8.9 2.2.8.3 0 .8 0 1 .2.3.2.7.2 1.2 0a3 3 0 0 1 1-.4c.1 0-.6.5-1.6 1-1.1.6-2 1.1-2.2 1l-2.3-1.3zm-30.3-6.7c-.3-.5-.1-2.5.2-2.5.2 0 .2-.2 0-.4 0-.2 0-.3.3-.1.4.2 1 0 4.5-1.5l1.4-.4c.6 0 4-2.2 5-3.2l.8-.8 1 1.9c1 2 1.3 2.6 2.8 4l.9 1-1.5-.8c-.8-.4-1.5-.6-1.6-.5a39.2 39.2 0 0 0-8.5 2c-5.5 1.9-5 1.8-5.3 1.3zm19.9 0c-.3-.2-.4-.3-.1-.4.2 0 .5.2.6.4.3.4.2.4-.5 0z" style="fill:#4a5739;stroke-width:.352778" transform="translate(-44.5 -173.2)"/>
  <path d="m86 238.2.1-2.2-2-1.5c-2.4-1.8-2.5-2.5-.3-1.3l2.1.9c.7 0 .9-1.2.8-5.6 0-5.2 0-5.8 1-6.5a111.3 111.3 0 0 0 14.2-8.9l.2-.5 1.7-5.4c1-2.6 1.6-5.2 1.6-5.7 0-.6.4-1.3.8-1.7.8-.6.8-.6.1-.4-1.2.3.8-1.2 3-2.4 1.9-1 2.1-1 2.3-.4.4 1.8 0 4.2-2.4 12.5l-3.3 11.2c-.4 1.6-.8 2.4-1.6 3-.5.3-.9.8-.8 1 .1.1 0 .2-.3.2s-.9.4-1.3.7l-.9.7 1 1.1c1.2 1.2.7 1.1-.7-.1-.6-.5-1-.6-1.3-.4-.3.2-3 2-5.8 4.2l-5.3 3.9-.7 2c-.6 2.3-1.3 3-1.6 1.6v.3c0 .6-.2 1.3-.4 1.5-.3.3-.4-.2-.3-1.8zm22.6-32.7-.5-.7.2.7.5.7-.2-.7zm1.1-3c-.3-.3-.4-.2-.2.3.2.3.4.5.5.4 0-.1 0-.4-.3-.6zm.7-.5c0-.2-.2-.4-.4-.4s-.3.2-.1.4c0 .2.2.3.3.3.1 0 .2-.1.2-.3zm-1-.2-.7-.6c-.6-.4-.6-.4-.1.2.4.5.7.7.7.4zm.3-.9c0-.2-.2-.3-.4-.3s-.3.1-.2.3l.4.4.2-.4zm.6-.8c-.1-.2-.2-.2-.2.3 0 .3 0 .5.1.4.2-.1.2-.4 0-.7zm-2.4-.2c.3-.2.4-.4.2-.4l-.9.4c-.3.1-.4.3-.2.3l1-.3zm2.2-.7c.3.4.3.3.1-.2-.1-.4 0-.6.3-.5.3.1.5 0 .5-.2 0-.4-.3-.4-1.2 0-.7.4-1.2.8-1.2 1l.6-.2c.4-.4.6-.4.9 0zm-.9-1.1c1-.6 1.6-1 1.4-1-.3 0-3.4 1.7-3.4 1.9 0 .3.4.1 2-1zm-54.4 16.7c.8-1.8.6-2.4-.7-3.3-.6-.5-1.2-1-1.2-1.2 0-.3.4 0 2.3 1.3a98 98 0 0 0 1.5 1.2c.4.2-.5 1.9-1.2 2.2-.8.4-1 .3-.7-.2zm33.3-1.6c.2-.2.5-.3.6-.2.1 0 0 .3-.4.4-.5.2-.6.2-.2-.2zm-33-7.7c-.2-.5 0-2.5.3-2.5.2 0 .2-.2 0-.4 0-.2 0-.3.3-.1.4.2 1 0 4.5-1.5l1.4-.4c.6 0 4-2.2 5-3.2.7-.7.9-.7 1.1-.3.2.2.3.9.3 1.4 0 .5.4 1.5 1 2.2.8 1.2.8 1.3.1 1-.4 0-.7 0-.7.2A44.4 44.4 0 0 0 61 204c-6.2 2.1-5.6 2-5.8 1.5z" style="fill:#3d5641;stroke-width:.352778" transform="translate(-44.5 -173.2)"/>
  <path d="m86 238.2.1-2.2-2-1.5c-2.4-1.8-2.5-2.5-.3-1.3l2.1.9c.7 0 .9-1.2.8-5.6 0-5.2 0-5.8 1-6.5a125 125 0 0 1 8.7-4.7c-.4.3-.5.5-.2.5.2 0 .8.4 1.2.8.5.5.6.8.3 1-.3.2-.3.5-.2.7.2.3.1.3-.5 0-.5-.2-.7-.2-.8 0 0 .3-.6 0-1.1-.5-1.2-1-1.3-1-2.2-.3-.6.5-.6.5 0 .3s2 .4 2.4 1.1c.2.3.6.4 1 .3.4-.1 1 .1 1.6.8.6.6.9.7.7.3-.1-.4 0-.7.3-.8.5-.2.5-.3.1-.8-.3-.5-.3-.4.3 0 .4.4.8.7 1 .7v-.6c-.3-.6-.2-.6.3-.2.5.4.6.4.6-.2 0-.3.1-.4.2-.2.1.3.4.5.6.5.2 0 .3-.3.1-.5 0-.4 0-.5.4-.3.4.1.5 0 .3-.2-.1-.3 0-.4.5-.4.9.1 3-1.8 3.4-2.8 0-.5.2-.8.3-.7.1 0-.2 1.5-.7 3.3-.6 2.3-1.1 3.4-1.8 4-.6.5-1 1-1 1.2.1.1 0 .2-.3.2s-.9.4-1.3.7l-.9.7 1 1.1c1.2 1.2.7 1.1-.7 0-.4-.5-.9-.7-1-.6-.3 0-2.9 2-6 4.1l-5.4 4.1-.6 2c-.7 2.3-1.4 3-1.7 1.6v.3c0 .6-.2 1.3-.4 1.5-.3.3-.4-.2-.3-1.8zm4.3-11c.3-.5.4-.6 0-.4-.2.2-.4 0-.4-.3 0-.2.2-.5.4-.6.3-.1.2-.3-.2-.4-.3-.1-.5-.1-.4.1.2.2.1.4 0 .4-.3 0-.4.4-.4.8.1 1 .4 1.1 1 .3zm1.7-.8v-.4l-.6.8c-.5.5-.4.6 0 .4.4-.2.6-.5.6-.8zm2-1c-.1-.2-.4 0-.6.2-.4.3-.4.3.2.2.3-.2.5-.4.4-.5zm-2.7-.3c-.2-.3-.6-.5-.8-.5-.2 0-.1.2.3.5.9.7 1 .6.5 0zm1.4-.4-.7-.5c-.5-.3-.6-.3-.5.1.2.4 1.2.7 1.2.4zm.8-1c-.5-.3-1.1-.6-1.4-.5-.5 0-.5 0 0 .2l.7.6c.2.2.5.4.9.4.5 0 .4 0-.2-.6zm1.3-.2c-.5-.4-1.1-.7-1.4-.7-.3 0-.3-.1 0-.4.2-.3.6-.2 1.4.4 1 .7 1 .7 2 .2.6-.5.9-.5.9-.2 0 .2 0 .3.2.2.4-.4-1.2-1.6-1.7-1.4a4 4 0 0 1-1.7-.8c-1-.8-1.2-.9-1.4-.5-.5.7-.4 1.4 0 1.4.3 0 .3.2 0 .5-.3.5-.2.7.8 1.3 1.5.9 2 .9.9 0zm.5-.8c-.3-.3-.1-.5.6-.5.9 0 1 0 .7.5-.5.6-.8.6-1.3 0zm-1.7-1.1c-.4-.3-.6-.6-.4-.8.1-.1.5 0 .9.3.7.8.4 1.1-.5.5zm-2.8 2c0-.3 0-.5.2-.5.3-.1.3-.3 0-.4-.5-.2-.6 0-.5.4.1.8.1.7.3.7v-.3zm1.3-1.4c-.2-.1-.3-.4-.2-.6.2-.2 0-.2-.2 0-.5.2-.2.8.4.8.3 0 .3 0 0-.2zm-1.5-.3-.5-.3c-.3-.1-.5 0-.4.1.3.4 1 .5 1 .2zm.7-1c0-.1.3-.2.6-.1s.5 0 .5-.3c0-.7-.3-.7-1.2 0-.6.5-.8.9-.2.9.2 0 .3-.2.3-.4zm6-1.5c.2-.2-1.4-1.6-1.8-1.6-.2 0-.3.2-.3.4s.2.3.4.3.3.2.2.3c-.1.1-.4 0-.7-.2-.3-.2-.6-.3-.7-.2-.4.4 1.3 1.5 2 1.3.4 0 .8-.2.9-.3zm1.7.3c-.4-.6-.4-.6.2-.1l.6.6c0 .3-.3 0-.8-.5zm1.8-.5c.2-.2.5-.3.6-.2.1 0 0 .3-.4.4-.5.2-.6.2-.2-.2zm-3-2.4c-.5-.6-.5-.7 0-.5.3 0 .6.4.7.7.3.7.1.6-.7-.2zm.2-.9 1.3-.9 1.8-1.3c.5-.5.5-.5.4 0-.3.7-3.5 2.8-3.5 2.2zm-43.2-1.1c.8-1.8.6-2.4-.7-3.3-.6-.5-1.2-1-1.2-1.2 0-.3.4 0 2.3 1.3a98 98 0 0 0 1.5 1.2c.4.2-.5 1.9-1.2 2.2-.8.4-1 .3-.7-.2zm47.4-1.5c-.1-.4.5-2.8 1.5-5.8 1-2.7 1.7-5.5 1.7-6 0-.9.3-1.3 1.2-1.8 1-.6 1.1-.6.6 0-.4.4-.5 1-.4 1.2.1.5 0 .5-.4 0-.5-.4-.6-.4-.4.1.1.3 0 1.4-.3 2.3l-.4 1.8-.2.6c-.3.3-.3.5-.2.5.2 0 0 .2-.2.5s-.3.6-.1.6l-.2.4c-.2.3-.3.6-.2.7l-.2 1.2-.5 1.4-.6 1.7c-.4 1.2-.5 1.3-.7.6zm-14.1 0c.2-.3.5-.4.6-.3.1 0 0 .3-.4.4-.5.2-.6.2-.2-.2zm-32.8-7.5c-.2-.6-.2-2 0-2 .3 0 .3-.3.2-.5-.2-.3 0-.3.5-.2.5.1.7 0 .5-.2-.1-.2 0-.3.4-.1.3.1.5 0 .4 0-.2-.5 2.9-1.7 3.5-1.4.2 0 .7-.2 1-.6.6-.6.7-.6 1-.2.2.4.3.4.3 0 0-.2.2-.3.3-.2.2 0 .4 0 .5-.4.2-.3.5-.5.7-.5.3 0 1-.6 1.6-1.2 1.3-1.4 1.8-1.4 1.8.1 0 .6.4 1.6 1 2.3.8 1.2.8 1.3.1 1-.4 0-.7 0-.7.2A44.4 44.4 0 0 0 61 204c-5.5 1.9-5.6 2-5.7 1.8zm50.7-6.6c.6-.6 4.8-2.9 5.2-2.9.2 0-.6.6-1.9 1.3l-2.6 1.5-.7.4c-.2 0-.2-.1 0-.3zm2-.2c.3-.3 2.4-1.3 2.4-1.1 0 .2-2 1.2-2.4 1.2 0 0-.1 0 0 0z" style="fill:#3c533c;stroke-width:.352778" transform="translate(-44.5 -173.2)"/>
  <path d="m86 238.2.1-2.2-2-1.5c-2.4-1.8-2.6-2.7-.3-1 2.6 1.8 3 1.8 3 .4a12.3 12.3 0 0 1 .3-2.4c0-.2.3.4.5 1.5.3 1.2.5 1.6.5 1 0-.6.6-1.3 1.8-2.4 1-.8 1.7-1.7 1.6-1.8-.1-.2.1-.3.5-.3.5 0 .7-.2.5-.5-.1-.4.1-.6.7-.8.5-.1 1-.4 1-.7 0-.2.2-.5.6-.6a7 7 0 0 0 1.6-1.1 66.5 66.5 0 0 1 3.2-2.6c.3-.3.7-.4.9-.2.2 0 .4 0 .4-.4 0-.3.1-.5.3-.3.2 0 .4 0 .4-.2s.4-.5 1-.7c.6-.2 1-.5 1-.7 0-.2.5-.4 1-.5.4-.1.9-.6 1-1 .5-1.4.6-.3.2 1.4-.3 1.3-.7 2-1.5 2.6-.5.4-.9.8-.8 1 .1.2 0 .3-.3.3s-.9.4-1.3.7l-.9.7 1 1.1c.9.9 1 1 .4.8-.4-.2-1-.6-1.2-1-.2-.2-.6-.5-.8-.5-.2 0-2.9 1.9-6 4.2l-5.5 4.1-.7 2c-.6 2.3-1.3 3-1.6 1.6v.3c0 .6-.2 1.3-.4 1.5-.3.3-.4-.2-.3-1.8zm-31.2-23.4c.8-1.8.6-2.4-.7-3.3-.6-.5-1.2-1-1.2-1.2a17 17 0 0 1 3.7 2.6c.3.5-.3 1.7-1.1 2-.8.5-1 .4-.7-.1zm.5-9.7c0-.2.3-.7.7-1 .6-.7 1.2-.9 3.2-1 .2 0 .3-.2.2-.4-.1-.2 0-.3.3-.2.3.1.8 0 1-.4.4-.3.8-.4 1-.3.5.3 3-.8 2.6-1.2 0-.2 0-.4.2-.4s.8-.5 1.3-1c.5-.7 1.2-1 1.4-1 .3.1.5 0 .6-.2.1-.3.2 0 .2.6s.3 1.5.6 2c.4.7.4.8-.5 1.3l-1.6.4c-.4 0-2.9.7-5.5 1.6-5 1.7-5.7 1.8-5.7 1.2z" style="fill:#364a36;stroke-width:.352778" transform="translate(-44.5 -173.2)"/>
  <path d="m86 238.2.1-2.2-2-1.5c-1-.9-2-1.6-1.8-1.7.1-.1.8.3 1.6.9 1.6 1.3 3 1.9 4 1.6.6-.2.7-.1.4 1-.4 1.7-.8 2.7-1.2 2.7-.2 0-.4-.3-.5-.8v.3c0 .6-.2 1.3-.4 1.5-.3.3-.4-.2-.3-1.8zm15.5-11.2c-.7-.6-1-1-.8-1 .2 0 .8.4 1.4 1 1.3 1.4.9 1.4-.6 0zm-46.7-12.2c.8-1.8.6-2.4-.7-3.3l-1.2-1.1c0-.2.9.4 2 1.2l1.9 1.6c0 .4-.9 1.5-1.5 1.9-.7.3-.7.3-.5-.3z" style="fill:#3a3721;stroke-width:.352778" transform="translate(-44.5 -173.2)"/>
</svg>