<svg xmlns="http://www.w3.org/2000/svg" width="277.3" height="277.3" viewBox="0 0 73.4 73.4">
  <path d="M47.7 212.2v-36.6h73.4v73.3H47.7Z" style="fill:#fefefb;stroke-width:.352778" transform="translate(-47.8 -175.4)"/>
  <path d="M78 245.4a19 19 0 0 1-13.3-7.2c-2.6-3.5-6.2-11-7.1-14.7-.8-3.5-1-7.7-.2-10.9.3-1.3 1.5-4.1 2.5-6.4 1.9-3.9 2-4.2 1.6-5.4-1-3.2-3-4.3-8.4-4.4-.8 0-.5-2.4.8-4.8 2.3-4.7 5.8-8 9.8-9.3a50 50 0 0 1 24.8.9c7.9 1.8 11.9 4.1 12.7 7.3.2.8.4 1 1 .8 4.2-1.4 6-1.5 8.5-.8 2.4.8 4.5 2.6 5.8 5.2 1.4 2.9 1.5 6.4.2 10.4a36 36 0 0 1-8.1 12.7 31.7 31.7 0 0 0-4.8 6.6c-1.3 4.6-5.3 12-8 14.6a23 23 0 0 1-17.8 5.4zm29-37.3c3.2-3.3 4.6-6 4.8-9.2l.2-2.3-2.1.2c-3 .2-4.7 1.4-5.9 4l-1.6 3.4-.7 1.4 1 2.2 1.1 2.6c0 .9.7.4 3.2-2.3zm-15-9.3c1-.3 1.3-.5 1.5-1.5a5 5 0 0 0 0-2c-.2-.6-.1-.7.2-.5.3.2.3 0 0-.6-.3-.5-.6-.6-.6-.4-.3.7-.8.5-.9-.2 0-.4 0-.4-.2-.1-.1.4-.2.4-.4 0-.3-.4-1.2-.5-6-.8-3.9-.3-4.6-.3-4.6.2 0 .2-.2.2-.4.1s-.3 0-.3.2-.4.4-.9.3c-.8-.1-4 1.9-4 2.5 0 .3 5.6 2.3 7.9 2.8 2 .5 7.1.5 8.7 0zm3-5.4c0-1.3-4.2-3.9-7.9-4.6-.8-.2-.7 0 .8.8 1 .6 2.4 1.7 3.2 2.5.9.8 1.7 1.4 1.9 1.3.1-.1.4 0 .5.1.3.6 1.6.5 1.6 0z" style="fill:#e9d2a7;stroke-width:.352778" transform="translate(-47.8 -175.4)"/>
  <path d="M75.2 244.9c-2.5-.6-6-2.3-7.8-3.9a40.5 40.5 0 0 1-8.6-13.9 23.5 23.5 0 0 1 1.3-21c2-4 2.1-5.2.4-7.3-1.2-1.5-2.6-2.1-5.3-2.4-2-.2-2.4-.3-2.5-1l.4-1.9c.5-1.1.6-1.1.4-.2-.3 1.2-.5 1.2 4 0l2.4-.8-1.9.2-1.8.2v-1c0-2.2 3.3-5.8 7.2-7.7 3.6-1.8 7.3-2.2 13.4-1.4a57.3 57.3 0 0 1 9.8 1.3c.2 0 .3 0 .2.2-.2.2 0 .4.2.6.3 0 .6 0 .7-.3.1-.2.2-.2.2.2 0 .3.4.7.9.8.5.1 1.1.5 1.5.8.3.3.7.6.9.6.1 0 .5.3.8.7.5.7.5.7.3 0l-.2-.7.5.7c.2.4.8 1.1 1.4 1.6.7.7 1 .9 1.5.6.5-.3.6-.2.4.2 0 .3.1.8.5 1.2.5.4.6 1 .5 2l-.1 2c0 .3-.4-.1-.7-.9-1.8-3.9-6.8-6.1-13.7-6.1-4.5 0-7.9.9-8.5 2.2-.2.5-.7 1-1 1-.3 0-.5 0-.5.3 0 .2-.2.3-.5.3s-.8.3-1 .6c-.6.5-1.2.7-2.2.8-.3 0 0 .6.5.6l1.6.6c2.9 1.3 10.2 3.8 12.5 4.4 3.3.7 8.4.5 10.9-.6 5-2.2 6.3-7.3 2.8-11-1-1-4-2.4-6.4-3a56 56 0 0 0-17.2-3l-5.4-.2h4.4c7.5-.1 18 1.8 23.5 4.3 2.7 1.2 5 3.4 5.3 5.1l.2 1 1.8-.7a12 12 0 0 1 4.5-.7c2.3 0 2.9 0 4.5 1 5.7 3 7 10.4 3.2 18a46.1 46.1 0 0 1-7.3 10c-3.4 4-4.2 5.3-4.6 6.8a61 61 0 0 1-6.3 12.3c-1.7 2.2-5.7 5-8.8 6-3.1 1-10.2 1.2-13.2.5zM107 208c3.1-3.3 4.5-5.9 4.8-9 .1-2.5-.2-2.8-2.3-2.5a8 8 0 0 0-4.7 2.4c-.4.5-1.1 2-1.7 3.4a8.8 8.8 0 0 1-1.3 2.7c-.3 0 0 1 .7 2.5.7 1.3 1.2 2.6 1.2 2.8 0 .8.6.4 3.3-2.3zm-41.4-15H65c-.2 0-.2.2.2.2s.6-.1.5-.2zm-1.6-.4a2 2 0 0 0-1 0c-.4 0-.2.2.4.2.6 0 .9 0 .6-.2zm-2-.3a2 2 0 0 0-1.1 0c-.4 0-.2.1.4.1.6 0 .9 0 .6-.1zm-3.9-6.5 1.6-1.4-1.2 1.4-1.6 1.4 1.2-1.4zM65 182h.7c.1.2 0 .3-.5.2-.4 0-.4 0-.2-.2zm1.4-.3h.9c.2 0 0 .2-.4.2-.5 0-.7-.1-.5-.2z" style="fill:#cdb592;stroke-width:.352778" transform="translate(-47.8 -175.4)"/>
  <path d="M75 244.7c-5.7-1.5-9-4.3-12.7-10.5a31.4 31.4 0 0 1-5.3-17.9c.3-3.4 1.2-6.3 3.3-10.5 1.6-3.3 1.8-4.3 1-5.8-1.2-2.4-3.4-3.6-6.6-3.6-1.9 0-2.2-.4-1.9-1.7.2-.7.3-.8.6-.5.2.4.6.4 2.1-.3a17 17 0 0 1 9.8-.5c1.3.3 4.5 1.4 7.1 2.3a46.7 46.7 0 0 0 15 4.1c4.2.2 6.6-.3 9.2-2.1 2.2-1.6 3.3-3.4 3.3-5.8 0-2.2-1.3-4.4-3.4-5.6-.7-.5-1.2-.9-1-.9.8 0 3.6 2.1 4.5 3.3.5.6 1 1.6 1.2 2.1.2.8.4 1 .8.8 2.2-1 3.3-1.2 5.6-1.2 3 0 4.7.6 6.6 2.4 4.6 4.4 4.4 11.7-.5 19.2-.9 1.4-3.4 4.6-5.6 7.2a23 23 0 0 0-4.7 6.8 39.9 39.9 0 0 1-8 14.2 19.1 19.1 0 0 1-13.6 5 20 20 0 0 1-6.9-.5zm33.7-38.2c2.2-2.9 3-4.8 3.1-7.4.2-2.8 0-3-3-2.4-2.6.6-4.5 2.5-5.6 5.6a9 9 0 0 1-1.3 2.5c-.4.4-.3.8.7 3 .7 1.4 1.2 2.7 1.2 3 0 .7 3.4-2.3 5-4.3zm-44-13.9c-1.1-.2-3.1-.4-4.5-.4-2.3.1-2.4 0-2.5-.7-.1-2.4 4.5-6.4 8.7-7.5a19 19 0 0 1 10.4.4c.7 0 .9.1.7.4-.2.3 0 .3.3 0 .6-.5.7-.5 1 0 .3.3.9.5 1.4.5.4 0 1 .4 1.2.7.3.3.6.5.8.5.3 0 .4.2.4.5s.2.6.5.7a34.8 34.8 0 0 0-9.4 2c-.8.2-2.6 1.1-4 2a16 16 0 0 1-2.8 1.5l-2.3-.6zm28.7-7.7c-.9-.4-1-.5-.2-.3 1 .2 2.1.8 1.6.8l-1.4-.5zm-6.2-1.8h.6c.2.1 0 .2-.4.2s-.5-.1-.2-.2zM75 181.3h1.2c.3.1 0 .2-.6.2-.7 0-1-.1-.6-.2z" style="fill:#a78e6f;stroke-width:.352778" transform="translate(-47.8 -175.4)"/>
  <path d="M75.6 244.9c-3-.7-6.3-2.4-8.4-4.3-2-1.7-4.5-5.5-6.6-9.7-4.7-9.3-4.8-16.9-.1-25.3 1.2-2.2 1.4-2.8 1.2-4.1-.3-3.1-3-5.1-6.7-5.1-1 0-2-.2-2.1-.3-.3-.4 4.3-2.4 6.7-3 2-.3 2.5-.3 5.1.3 1.7.5 5.9 1.8 9.4 3.1a37 37 0 0 0 14.7 3.5 12 12 0 0 0 5.4-.7c5-2 7.2-6 5.5-9.9-.3-.7-.7-1.4-1-1.6-.3-.2-.3-.2 0-.2.6 0 1.8 1.7 2.3 3.1.2.6.6 1 .8 1 4-1.7 8.4-1.7 10.9 0 3.1 2 5.1 6.5 4.7 10.4-.6 5-2.8 9.2-9 16.6-2.5 3-4.6 5.7-4.6 6 0 1-3 7.6-4.7 10.6a17.9 17.9 0 0 1-8.2 7.9 24.6 24.6 0 0 1-15.3 1.7zm-11.3-26c1-.8 2.1-2.7 2.3-3.7l.6-1.6c.5-1 .4-4.7-.1-5.6-.3-.4-.7-.7-1-.7-.4 0-2.2 3.5-2.2 4.4 0 .3-.2 1-.5 1.6a12 12 0 0 0-.8 5.5c.3.6 1 .7 1.7 0zm36.3-1.5c0-2-.6-5-2-8-1.3-2.8-2.2-3.3-3-1.6-.3.9-.3 1.4.2 3.5 1 4 3.3 8.2 4.3 8 .2-.2.4-1 .5-1.9zm6.3-8.8c3-3.2 4.1-5 4.9-8.1.5-2 .5-2.6.2-3.3-.4-.9-.6-1-2.2-.7-3.4.4-5.6 2.4-6.9 6.3-.3.9-.8 1.8-1 2-.4.4-.3.9.7 3a20 20 0 0 1 1.2 3c0 .8.7.3 3.1-2.2zm-40.5-15.7c-2-.6-2.2-.8-1.8-1.3.3-.3.6-.4.8-.3.2 0 .3 0 .3-.2s-.2-.4-.4-.5h.7c.8 0 1.2 0 1.3-.4.1-.3.5-.4 1-.3.5.2.6.1.4-.3-.3-.4-.2-.4.3 0 .4.4.6.4.6 0 0-.2.4-.3 1.2-.2h1.3c0-.2.2-.3.5-.3 1 .2.9.5-.3 1-.7.1-2.2 1-3.3 1.6-1.1.8-2.3 1.3-2.6 1.2zm7.3-3.9c-.1-.1.1-.2.5-.2.3 0 .5 0 .5.2-.1.2-.4.3-.5.3a.6.6 0 0 1-.5-.3z" style="fill:#8b6e51;stroke-width:.352778" transform="translate(-47.8 -175.4)"/>
  <path d="M76.1 244.9a17.5 17.5 0 0 1-12.7-9 36 36 0 0 1-6.3-17.8c0-4.2.5-6.2 2.8-11.1 2.3-4.7 2.4-6 .9-8-1.2-1.8-3.2-2.6-6-2.6-2.3 0-2.1-.3 1-1.5 4.6-1.8 8.7-1.6 15 .6 8 3 10.8 3.8 13.8 4.3 6.4 1.1 11 0 14.9-3.8 1.5-1.4 1.8-2 1.8-3s.2-1.2 1.1-1.5c1.4-.5 1.5-.5 1.2 0-.3.4 1.4 2 2.2 2 .2 0 .5.2.5.4 0 .1 1.6.3 3.7.4 4.2.2 5.1.6 6.4 3.1 1.5 3 1 7.4-1.5 12.2-1.1 2.4-2 3.6-8 11-2 2.4-3.1 4-3.6 5.4a41.5 41.5 0 0 1-8.2 14.5 23 23 0 0 1-19 4.4zm24.9-20.7a39 39 0 0 0-3-20.3c-.1-.3-.6 0-1.5.9-2.2 2.4-2.2 4.4 0 12.7l1.6 6.2h1c.7-.1 1.2 0 1.3.4.3.6.4.6.6 0zm-34-2.6c1-1.2 2.2-6 2.2-8.2 0-3.7-1.6-9-2.8-9-.5 0-.8.5-2.1 3.4-.3.5-.7 1-1 1-.8 0-1.2 2.3-1.2 8 0 4.7.1 5.5 1.4 6.2.8.4 1 .4 1.9 0l1.7-1.4zm40.1-13.3c3-3 4.6-5.9 5-8.8.4-2.6 0-3.1-1.7-3.1-.8 0-2.3.4-3.3.8-2 1-3 2.3-4.2 5.3-.3 1-.8 2-1.1 2.2-.5.4-.5.7.3 2.2.5.9 1.1 2.2 1.3 3l.7 1.3c.2 0 1.5-1.3 3-2.9z" style="fill:#765d46;stroke-width:.352778" transform="translate(-47.8 -175.4)"/>
  <path d="M77.5 245.2a21 21 0 0 1-10.9-5.2 42.5 42.5 0 0 1-8.8-16.8 22.9 22.9 0 0 1 2.7-17.4c1.6-3.2 1.7-3.5 1.3-4.8-.8-3-3.1-4.6-6.6-4.6-2 0-2 0-1.1-.6l3.3-1.2c4-1.3 7-.8 17.8 2.8 8.5 2.9 11 3.4 15.2 3.1a28 28 0 0 0 5-.7l1.7-.5-1 1.3c-1.3 1.6-1.3 1.8-.4 1.8s.9.2-.2 2.7c-1.3 2.8-1.3 4.5 0 9.6a34 34 0 0 1 1 9c0 4 0 4.5-.6 5-1.3 1-3 2.6-3 3 0 .4 2.2.9 3.8.7 1-.1 3.3-2.8 4.3-4.7 1-2 1-2.2.8-5.8-.2-2.7 0-4 .3-4.6.4-.7.3-1.3-.3-4-.7-3-3-10.1-3.7-11.4-.5-1-.4-1.5.9-3 1.6-2.3 2.3-3.7 2.6-5.5.2-1.7.6-2 1-1 0 .4.4.8.7 1 .3 0 .5.4.5.6 0 1.2 1 1.4 4 1 3.7-.5 5.1-.3 6.6 1 2.6 2 3.1 5.7 1.6 10.6a39.9 39.9 0 0 1-8.3 12.8c-3.3 4-3.8 4.8-4.8 7.6a57.3 57.3 0 0 1-5.5 10.9 18.5 18.5 0 0 1-9.6 6.4 32 32 0 0 1-10.3.9zM68 228c.4-.3.6-1.5.9-4.3.2-2.1.6-5.1 1-6.7 1-5.2-.2-11.3-3-14l-1.4-1.5-.6.8c-.3.4-.7.8-1 .8-.2 0-.7.8-1 1.8l-1.4 4.5c-.9 3-1.1 7.3-.4 8.2.2.2.5 1.5.6 2.8.3 3.7 1.6 6.6 3.4 7.5 1.1.7 2.1.7 2.9.1zm39.1-19.5a16 16 0 0 0 5-8.4c.2-1 .3-2.2.1-2.8-.2-.8-.3-1-1.8-1a8 8 0 0 0-5.4 2.3c-.4.5-1.3 2-1.8 3.5-.6 1.4-1.3 2.7-1.5 2.8-.3.2 0 1.2 1 3.3a17 17 0 0 0 1.6 3c.1 0 1.4-1.2 2.8-2.7z" style="fill:#684c33;stroke-width:.352778" transform="translate(-47.8 -175.4)"/>
  <path d="M77.3 245c-4.1-.7-8.1-2.5-10.5-4.6a47.7 47.7 0 0 1-8.2-14.4c-1.4-4.1-1.8-10-.9-12.9.4-1.3.6-1.5.6-.8s.1 1 .5.8c.4-.2.5.4.4 3.3 0 3.4 0 3.6 1 5 1 1.5 2.5 5 2.2 5.2 0 0-.7-.3-1.3-.8-1.1-1-1.1-1-.7-.1.6 1 2.6 3.6 3.9 4.8 2.4 2.2 8.7 4.4 14.3 4.9 3.3.3 4.2.8 3.6 2.1-.3.6-.3 1 0 1.1l1 1.3c.4.7.7 1 1.3.7 1.8-.5 1.8-.5 1.2 0-.4.3-.5.6-.3.6.8 0 2.5-1 3-1.9.3-.4.6-.6.6-.4a14.3 14.3 0 0 1 5-1.7c.2 0 .5-.3.6-.6.2-.3.4-.4.4-.2 0 .7 2.6-2.2 4.4-5 2.6-3.7 3.7-5.2 3.7-5l-1.2 3.2a35.7 35.7 0 0 1-6.3 10.2 22.8 22.8 0 0 1-8.4 4.7c-2.3.7-7.6 1-10 .6zm.2-11.5c-1-.2-4.3-1.4-5.8-2.2-1.1-.6-1.4-1-1.8-2.4a30 30 0 0 1 0-8.5c1-2.2 1.2-10.6.3-13.3-.9-2.5-2.5-4.8-4.2-6.1-2-1.4-2.5-1.4-3 .2l-.6 1.3-.4-1.4c-1-3-2.8-4.4-6-4.7l-2.5-.2 2.2-.8c4.6-1.8 7.5-1.5 18.4 2A43.8 43.8 0 0 0 90 201h3.7l-.3 1.2c-.1.7 0 1.3.2 1.4.2.1.3 1.6.3 3.5 0 2.1.3 4 .7 5.7 1.5 5 2.2 12.8 1.5 14.7-.3.8-4.2 3.4-5 3.4l-3.4 1a24.4 24.4 0 0 1-10.2 1.5zm-2.2-32.1c-.3-.2-.5-.5-.4-.6 0-.2-.2-.4-.4-.5-.3 0-.3 0 0 .6.2.4.6.8.8.8.3 0 .3-.1 0-.3zm29 20.1.2-1.7-.6 1.3-.6 1.2-.2-4c-.3-5.5-.9-7.8-3-13.7a18 18 0 0 1-1.2-4.3 7 7 0 0 1 1-2.7c.7-1 1.4-2.3 1.6-3l.4-1.1.8 1.6.8 1.5 1.6-.4c1-.3 2-.5 2.6-.5.8 0 .8 0-.3.5-2.2 1-4 3.3-5 6.4l-1 2.8 1.3 3c.7 1.5 1.4 2.8 1.6 2.7 1.2 0 2 .2 2 .6 0 .3.2.4.5.3.2 0 .6 0 .7.3.2.2.1.3 0 .2-.3-.2-.5 0-.4.4 0 .4.2.8.3.8.2 0 .3.2.3.5 0 1.2 2.8-.7 3.6-2.4.2-.5.5-1 .7-1 .2 0 .3 0 .2-.2-.1 0 0-.8.5-1.4.8-1.6 1.2-4.6.4-4-.3.3-.6.3-.7.2-.1-.1 0-.2.2-.2.4 0 .4-.1 0-.5-.2-.3-.3-.6-.1-.6l-.1-.4c-.2-.2-.3-.6-.3-.8.1-.3 0-.6-.1-.7-.2-.1-.2-.8 0-1.7.2-1 .3-2.1.2-2.8 0-1-.3-1.2-1.3-1.4-1.2-.2-1.1-.2.5-.2 5.7-.2 6.9 6.9 2.4 14.6a19 19 0 0 1-1.5 2.3c-.1 0-1.9 2.3-3.8 5a75 75 0 0 1-4 5c-.2.1-.3-.4-.1-1.5z" style="fill:#5a432e;stroke-width:.352778" transform="translate(-47.8 -175.4)"/>
  <path d="M78.4 245.2c-8.7-1.5-12-4-16.7-12.4a29.7 29.7 0 0 1-4.4-15.5c0-1.7.1-2.8.2-2.5.2.4.4.6.6.6.2-.1.6 1.4.8 3.2l.6 4.4c.2.8.2 1-.1.7-.4-.2-.4 0-.2.6.5 1.8 1.7 3.8 3.7 6.3 1.7 2 2.6 2.7 4.2 3.4a1463.5 1463.5 0 0 1 4.8 2.2c-.2.4 2 2.4 3.9 3.6 3.6 2.3 7 3.3 9.8 2.8 2.8-.5 7.2-3 9.5-5.2a45 45 0 0 0 5.5-6.8c.2-.3.4-.4.6-.3.1.1-.6 1.7-1.5 3.5a20 20 0 0 1-12.4 10.7 34 34 0 0 1-8.9.7zm-2.7-13.4c-3.8-.5-4.5-1-4.9-3.1-.3-2.6-.2-6.4.4-10.8.3-2.2.5-5.1.5-6.4 0-3.6-1.7-7.7-4.2-10.2l-1.4-1.7c-.5-.8-.5-.9.3-1.5.4-.4 1-.7 1.3-.7.7 0 .3-.4-.5-.5-.3-.1-.7-.3-.7-.5s-.3-.4-.6-.4c-.2 0-.7-.3-1-.6-.7-.5-.7-.5.5-.3.7.1 4.6 1.3 8.7 2.7a77.3 77.3 0 0 0 14.9 3.8c1.6.2 2 .4 2 1 0 .4.4 1.2 1 1.7.5.6.8 1.2.7 1.5 0 .2 0 1.7.3 3.3.3 1.7.4 3.5.3 4.1-.1 1.1.4 1.7.7.7.4-1 1.2 4.5 1.2 8 0 3-.1 3.8-.7 4.4-.3.4-.5 1-.4 1.2.2.4 0 .6-.2.6s-.7.4-1.1.9c-.6.7-1.8 1.1-5.6 2a23.6 23.6 0 0 1-11.5.8zm4.6-27.3 2.7-.6c.9-.2 1.5-.5 1.5-.6 0-.2-2-1.2-4.4-2l-7.2-3c-3.2-1.4-3.8-1.5-4.6-.7-.5.5-.5.5 0 .5s1.6 1 4.4 4c2.7 3 4.2 3.5 7.6 2.4zm24.3 15.9.2-2.3-.6 1.6c-.3 1-.6 1.3-.6.8a935.6 935.6 0 0 0-1-9.8c.1-1-.3-2.1-1.6-4.8-2.4-4.5-2.5-6-.6-9 1.3-2 1.4-2 1.8 0 .2.8.4 1 1 .7l1-.2-1 1.5c-.6 1.3-1.8 4.8-2 6.1l1 2.7c.7 1.2 1.3 2.7 1.6 3.3.2.5.7 1 1 1.1.5.2 1 .9 1.3 1.8.7 1.7 1.4 2 2.8 1.5.9-.3.8-.1-1 2.6l-2.8 3.8-.7.9zM113 210c1-2.4 2-5.7 1.8-7.3-.1-1.1-.3-1.3-1-1.3-.5 0-.6 0-.4-.4.3-.3.3-.5 0-.7-.3-.2-.3 0-.2.2.2.3 0 .3-.2 0-.3-.4-.5-1.5-.6-2.5v-1.7l1 .4c.7.3 1.5 1 2 1.4.8 1.2 1.1 4.6.5 6.9-.5 2-2 5.4-2.5 5.4-.2 0-.3.2-.3.5 0 .2-.2.6-.5.7-.3 0-.2-.4.4-1.6zm-52-11.3c-1.5-1.7-2.7-2.4-4.8-2.5-1.4 0-1.6-.2-1.2-.5.7-.5 2.9-.8 4.1-.7l1.2.2c.1 0 .2.2 0 .4 0 .2 0 .3.2.3s.3.2.2.4c-.1.2 0 .4.3.5.6.3 1.4 2 1.2 2.8 0 .4-.4.1-1.3-.9z" style="fill:#523a25;stroke-width:.352778" transform="translate(-47.8 -175.4)"/>
  <path d="M78 245a20 20 0 0 1-11-4.8 43.8 43.8 0 0 1-8-13.3c0-.4 3.6 4.5 4.3 6 .3.5 2.2 2.6 4 4.5 2.9 2.7 4.1 3.7 6.3 4.7 2.5 1.2 3 1.3 6.7 1.5 3.5.1 4.4 0 6.6-.6 2.6-.8 7-3.1 7-3.7l.6-.2c.7 0 .6.2-.5 1.6-2.3 3-10.2 5.2-16 4.4zm1.2-15.8c.3-.4.3-.4 0-.2-.9.5-3-.6-3.7-2-.3-.7-.8-1.3-1-1.3-.2 0-.3-.2-.2-.3.1-.2 0-.6-.3-1s-.5-1-.5-1.5c0-.4-.2-.8-.4-1-.5-.2-.2-3 .3-3.5.4-.3.4-.5.1-.6-.2-.2-.2-.6.2-1.5.3-.8.3-1.2 0-1.3-.2 0-.2-.4 0-1 .3-.7.3-1 .1-1-.2 0-.3-.2-.3-.3v-.5c-.2-.5-.4-2-.4-3.1l-.2-1.8c-.7-1.6 0-1.8 3.1-1 1.3.3 2.6.6 2.9.5l2.7-.4c3.3-.3 5-.5 6-.9.7-.2 1-.1 1 .1-.1.3 0 .5.3.5.5 0 1.6 1.4 1.4 1.8 0 .5.5 3.7 1.1 6.6.8 3.3.8 8.2.1 8.6a1 1 0 0 0-.2.9c.3.7-1.8 2.7-3.8 3.7-3.2 1.5-4.6 2-6.6 2-1.8 0-2 0-1.7-.5zm25.7-11.5c0-2 0-3 .3-2.8.2.1.3.5.2.7 0 .3.1.6.5.7.8.3.9 1.8 0 3.2l-.9 1.2-.1-3zm-4.9-13.8c-.3-.5-.6-1.8-.7-3-.1-1.8 0-2.1 1-3.5.5-.8 1-1.3 1-1.2l.2 1.3c0 .6.2 1.2.5 1.3.3.2.3.5 0 1.5l-.7 1.5-.2 1.7c.1 1.6-.2 1.7-1 .4zm-40.6-7a5 5 0 0 0-2-.5c-.7 0-1.2-.2-1.2-.4 0-.6 1.9-.4 3 .4l1.2.9c0 .2 0 .2-1-.4z" style="fill:#492f17;stroke-width:.352778" transform="translate(-47.8 -175.4)"/>
</svg>