<svg xmlns="http://www.w3.org/2000/svg" width="208" height="208" viewBox="0 0 55 55">
  <path d="M54.1 211.7v-27.5h55.1v55H54Z" style="fill:#fdfdfc;stroke-width:.264583" transform="translate(-54.1 -184.2)"/>
  <path d="M75.4 236.5c-.4-.4-.7-1.1-.9-2.3 0-1-.5-2.4-.9-3.2a6 6 0 0 1-.7-2c0-.3-.1-.4-.4-.2a103 103 0 0 1-10 2.6c-.9-.2-1.7-1.6-1.7-2.6 0-.4-.5-1.7-1-2.8a13 13 0 0 1-1.3-7.7c.1-2.2 0-3.9-.2-6a165.4 165.4 0 0 1-1.6-17.3c-.2-.6-.3-1.3-.2-1.5.2-.7 1.6-1.1 3.5-1.1 1.3 0 2.7-.2 4.2-.7a88.1 88.1 0 0 1 16-3.7c2.7-.5 8.8-.5 9.6 0 .8.6.8 1.8-.1 3.5-.7 1.3-.7 1.6-.4 2.3.4 1 .4 3.8 0 5.9l-.4 2.4-.1.8 2-.2c3.3-.2 5.6.1 8 1a22.7 22.7 0 0 1 5 2.4c2.8 1.4 3.4 2.1 4 4.4.5 2.4.1 4.9-1 6.3l-.8 1 .4 1.5c.5 2 .5 4.6 0 5.8l-.8 2.8c-.4 1.5-.6 1.9-1.3 2.5a37 37 0 0 1-9.7 4l-5.4 1.7-3.7.1c-2 0-4.6.2-5.6.4-3.7.6-3.9.6-4.5 0zm-8-16c-.2-.4-.3-.6-.3-.4 0 .4.3 1.2.4 1l-.1-.7zM67 219c0-.2-.1-.2-.1.1 0 .3 0 .5.1.4v-.5zm.5-3.2v.6-.6zm-1.2-2c0-.9 0-2.3-.2-3.2V209c.1 0 .1-.2 0-.4 0-.1 0-.2.2-.2.1 0 .3.5.4 1.1.3 2.2.4 2.4.3.6a95.1 95.1 0 0 1-.4-4c-.2.8-.8.8-1 0l-.2-1c-.2-.4.1 3.6.4 5.8l.2 3.3c0 1.8.3 1.6.3-.3zm1-1-.1 1v.8c.2-.5.2-1.3 0-1.7zm-1-10h.5c-.3-.4-1.8.1-1.8.5s0 .4.4 0c.2-.2.7-.4 1-.4zm3.8-.9c2.5-.7 3.4-1 1.8-.7-1.5.3-5 1.4-4.6 1.4l2.8-.7zm4.3-1.3H74c-.2 0-.1.1.2.1h.3z" style="fill:#d3d0a3;stroke-width:.264583" transform="translate(-54.1 -184.2)"/>
  <path d="M75.5 236.5c-.4-.4-.7-1-.8-1.2V234a11 11 0 0 0-1-2.6l-.8-2.2c0-.4-.1-.5-.4-.3l-9 2.5c-1.6.4-2.5-.4-2.6-2.6 0-.5-.5-1.6-.9-2.5-1.4-2.9-1.5-3.5-1.4-7.8 0-2.2 0-4.8-.2-5.7-.4-2.2-1-10.1-1.2-14 0-1.6-.3-3.4-.5-4-.4-1.5.1-1.9 3.3-2.1 1.7-.1 3.4-.5 5.4-1 4.3-1.4 4.6-1.5 10-2.5 3.5-.7 6-1 9-1.2 5.9-.3 6.6 0 5.7 2.7a5 5 0 0 1-.7 1.3c-.3.3-.3.8-.2 1.5.4 2.4.4 4 0 6.4l-.4 2.9 3.5.1c3.3 0 3.6 0 6 .9a27.6 27.6 0 0 1 6.4 3l1.9 1.2a11 11 0 0 1 1.3 5c0 1.8-.3 2.8-1.3 4-.6.9-.6.9-.2 2.6.5 2.4.5 4.1-.1 5.8a9 9 0 0 0-.6 1.8 6 6 0 0 1-1.1 3 56 56 0 0 1-13.6 5.2c.3.4-2.6.8-5.2.8-2 0-4.7.3-8.8 1-.6 0-1-.1-1.5-.6zm8.4-3.3a134.4 134.4 0 0 1-.3-4.6c0 .3-.3.6-.5.6-.3 0-.4-.3-.3-1.1 0-.8.2-1.2.4-1.2.4 0 1-.6.8-.7l-.7-.4c-.5-.3-.5-.2-.7 1.3-.3 2.1-.3 6.1 0 6.5.2.4 1.3 0 1.3-.4zm11.8 0c.3-.3-.5 0-1 .4-.4.3-.4.4.2 0l.8-.4zm-26-6.6.2-1.6c.1-.8 0-1.7-.8-4l-1.2-4c-.2-1.2-1.2-13-1-13.1 0 0 6.7-1.8 10.5-2.6l4.3-1.5a9 9 0 0 1 3-.9c.3.1.4 0 .4-.8l-.1-1-1.8.8c-2.7 1-5.2 1.9-7 2.2l-4.7 1.1-4.8 1.3c-1.5.3-1.8.5-1.8 1l.3 3.5a47 47 0 0 0 2.5 15.4l1.1 3.5c.2 1.2.8 1.6.9.7z" style="fill:#c8b288;stroke-width:.264583" transform="translate(-54.1 -184.2)"/>
  <path d="M75.4 236.3c-.4-.5-.6-1.1-.7-2.2-.1-.8-.4-2-.7-2.4a10 10 0 0 1-.8-2c-.3-.8-.5-1-.8-1l-8.7 2.6c-1.4.3-2.4-.3-2.6-1.5a9 9 0 0 0-1.2-3.7c-1-1.8-1.3-3.5-1.3-7.8a51 51 0 0 0-.2-5.8 164.4 164.4 0 0 1-1.4-16.7c-.6-2.9-1-2.6 3.5-3.1 2.8-.4 4.2-.7 5.5-1.3a49 49 0 0 1 9-2.2l5-1 6.6-.3c3.3 0 3.9.2 3.7 1.7a7 7 0 0 1-.8 2c-.5.9-.5 1-.2 3 .3 1.8.3 2.6 0 5l-.5 3c0 .2 1.7.3 3.8.3 3.6 0 3.8 0 6.2 1 1.3.5 2.9 1.2 3.5 1.6l2.5 1.3c1.7.8 2.1 1.3 2.6 3.2.8 2.9.5 5.4-.8 6.9l-.7.7.5 2c.5 2.4.5 4 0 5.3l-.8 2.7c-.5 2-1 2.7-3.1 3.7a73.4 73.4 0 0 1-9.8 3.3c-.2-.2-1.8.4-1.6.7 0 .2 0 .2-.4.1-.3 0-1 0-1.5.3-.6.2-1.8.4-3.5.4-1.4 0-3.5 0-4.6.2-5 .7-5 .7-5.7 0zm19.3-2.5c.8-.4 1.4-.8 1.5-1h.3c.2 0 .2 0 .1-.1 0-.2-.6 0-1.4.4l-1.8 1c-1 .7 0 .3 1.3-.3zm-11 0 .1-4c.1-3.7 0-3.8-.5-4-.5-.3-.6-.2-.7.3-.3 1-.3 7.2 0 7.5.2.4 1.2.5 1.2.1zm-13.4-7 .7-.5.1-.5c.3-.3.3-.4-.2-.2-.5.1-.6 0-.7-1a23 23 0 0 0-1-3.4l-1.2-3.8c-.3-1.4-1.3-13.3-1.1-13.5.2-.1 6.8-1.8 9-2.2a36.6 36.6 0 0 0 8-2.7l.1.6c0 .3.2.5.4.4.2 0 .5 0 .5.2 0 .1.2-.5.2-1.4 0-1.5 0-1.7-.5-1.5l-3 1c-1.3.6-3.2 1.2-4.2 1.4A457.5 457.5 0 0 0 65 203l.2 4 .7 6.8c.3 3.8.7 5.7 2 9a29 29 0 0 1 1 3.4c.2 1 .2 1 1.5.7zm32.6-2.6c0-.4 0-.5-.1-.4-.2 0-.2 0-.1-.4.2-.6-.2-1.6-.5-1.2a6 6 0 0 0 .5 2.5l.2-.5zm-10-1.3c.2-.2.3-.3.4 0 .1.1.6 0 1.7-.5 1.2-.6 1.4-.8 1-1h-1.5c-1.4.2-4 1.3-3.7 1.5h-.5c-1-.4-1-.4-.8 0 .2.6 3.2.6 3.4 0zm-8.7-1.4c-.1-.1-.3-.3-.5-.3-.1 0-.2.2 0 .3 0 .2.2.3.4.3.1 0 .2-.1 0-.3zm-3.8-2c0-.2-.4-.5-.7-.8-.6-.3-.6-.5-.4-1 .2-.5.1-1-.3-1.8a5 5 0 0 0-.8-1.2c-.1 0-.3-.3-.3-.6l-.4-1.3c-.4-.6-.6-.7-.8-.5-.4.4-.4 1.6 0 2.2l.6 1.2c.5 1.7 1.3 3 2.2 3.6 1.2.7 1.1.7 1 .2zm23.7-2.6c.8-.8 1.1-1.3 1-1.6-.2-.4-.2-.4-.7 0-.6.5-1.8 2.3-1.8 2.6 0 .4.5 0 1.5-1zm1.5-2.8c.3 0 .4 0 .2.3v.2c1-1 1.5-4.8.7-6-.5-.9-2.8-2.1-3.1-1.8-.4.4-.2.8.5 1.3 1.3.8 2 2.9 1.3 4.1-.3.6-.6 2.6-.3 2.3 0-.2.4-.3.7-.4zm-41.4-17.5c0-.1.1-.2.3-.2.1 0 .2 0 0 .2 0 .2.1.2.3.1.3 0 .4-.2.3-.4-.2-.3.5-.2.9.1.2.2.4.2.6 0 .5-.3 2.9-1 3.6-1 .3 0 .6-.2.7-.4.1-.3 1.7-.9 3.2-1.2.4 0 1.6-.4 2.7-.7 1.7-.6 2.3-.7 3.7-.8.3 0 .6 0 .6-.2l1-.3c1.8-.3 4.3-1.7 3.9-2.2-.6-.5-7.8.7-13.5 2.3l-2.2.5-2.8.7-4.5.8c-2.8.3-3.6.6-3.6 1.5 0 .4 2 1 3.1 1 .7 0 1.1.1 1 .2 0 .2 0 .3.3.3.2 0 .4-.1.4-.3z" style="fill:#c8ae78;stroke-width:.264583" transform="translate(-54.1 -184.2)"/>
  <path d="M75.4 236.3c-.4-.5-.6-1.1-.7-2.2-.1-.8-.4-2-.7-2.4a10 10 0 0 1-.8-2c-.3-.8-.5-1-.8-1l-8.7 2.6c-1.4.3-2.4-.3-2.6-1.5a9 9 0 0 0-1.2-3.7c-1-1.8-1.3-3.5-1.3-7.8 0-2.2 0-4.8-.2-5.8-.4-2.5-.8-7.4-1-12.6-.2-2.5-.4-4.8-.6-5-.2-.4-.2-.7.1-1.1.5-.7 1.6-1 4.1-1.2 2.6-.2 6.8-1.2 6.3-1.6-.2-.1-.1-.2.3 0 .7.1 2.2-.1 2-.4 0-.1.2-.2.6-.1.6 0 .7 0 .3-.2-.3-.3-.2-.3.3-.1.8.2 2.8-.2 2.4-.5-.3-.1-.1-.1.4 0 .6 0 1.2 0 1.7-.3a8 8 0 0 1 2.3-.6 51.6 51.6 0 0 1 7.8-.8c4.6-.2 5.1 0 4.9 1.6a7 7 0 0 1-.8 2c-.5.9-.5 1-.2 3 .3 1.8.3 2.6 0 5l-.5 3c0 .2 1.7.3 3.8.3 3.6 0 3.8 0 6.1 1 1.3.5 2.8 1.1 3.3 1.5l1 .5-.9-.1c-1-.2-1.4.2-.5.7.8.4 2.9 2.3 3.3 3 .8 1.4 0 5-1.5 7-1 1.3-1.4 2.4-.9 2.4a15.7 15.7 0 0 0 5.2-7.3l.1 1.2c0 2-.3 3-1.2 4.1l-.7.7.5 2c.5 2.4.5 4 0 5.3l-.8 2.7c-.5 2-1 2.7-3.1 3.7-1.3.7-9 3.5-9.4 3.4a47 47 0 0 1 6.5-3h-1c-.8 0-1.9.5-3.3 1.3-1.2.7-2.7 1.4-3.4 1.6-1 .3-1.2.5-1 .7.3.2.2.2-.3 0-.3 0-1 0-1.4.3-1 .4-4.8.6-5 .2l-.6-.3c-.4 0-.4.1 0 .3.4.1 0 .2-1.3.4-1 0-2.5.3-3.3.4-2.2.4-3 .3-3.6-.3zm8.4-2.5v-4c.1-3.7 0-3.8-.5-4-.5-.3-.6-.2-.7.3a45 45 0 0 0 0 8c.2.4 1.2.2 1.2-.3zm-13.4-7 .6-.4c-.1-.1 0-.4.1-.6.3-.3.3-.4-.2-.2-.5.1-.6 0-.7-1l-.9-3.1a28.8 28.8 0 0 1-1.8-9.3l-.5-6.5-.2-1.9h.7a92.4 92.4 0 0 0 9.4-2.3c1.9-.5 3.1-1 6.8-2.4.2 0 .3.1.3.6 0 .6.1.6.4.4.3-.2.4-.2.5 0 0 .2.2-.4.2-1.3 0-1.5 0-1.7-.5-1.5l-3 1c-1.3.6-3.2 1.2-4.2 1.4l-10.3 2.6c-2 .5-2.2.6-2.2 1.2a88.2 88.2 0 0 0 .9 10c.3 3.8.8 6 2 9.7.5 1.3 1 2.7 1 3.1.2.8.5 1 1.6.5zm27-3.3c2.4-1.2 3.2-1.7 4-2.7 1-1.5 1-1.8-.2-.7-1 1-5.3 3.6-6.6 4l-2.4.5c-2.2.2-1.9.6.4.5a12 12 0 0 0 4.8-1.6zm5.6 0c-.2-1.5-.3-1.6-.7-1.3-.2 0-.3.5-.1 1.1.2 1.2.3 1.4.7 1.4.2 0 .2-.4 0-1.3zm-12 .1c1.6-.1 3.1-.5 4.5-1 2.1-.8 2.1-.8 1.4-1-1.2-.5-2.4-.4-4.6.3-1.9.7-2.2.7-4 .5a16 16 0 0 1-3.3-1 15 15 0 0 1-5.7-5.5 14.7 14.7 0 0 1-1.8-5.7c0-1.1-.3-1.3-1.4-.8-1.5.6-1.2 2.2 1 6.8a10.4 10.4 0 0 0 7.2 6.4l2.1.7.7.3-.8-.1-3.7-1.1c-2.2-.7-3.1-1.2-4.3-2.2-1-.8-1.4-1-1.1-.5l2.3 2.2c2.9 2.3 3.7 2.4 11.4 1.7zm-23.4-26.4 1.5-.3c.3 0 .6-.2.7-.3.1-.4 2.7-1 4.4-1.1.5 0 1-.2 1-.4l2-.4a23 23 0 0 0 6.7-2.6c.3-.2.4-.2.3 0v.3c.2 0 .4-.1.4-.3l.4-.2c.3 0 .8-.3 1.2-.7l.8-.6-.6-.5c-.9-1-2.4-.8-11.2 1a38 38 0 0 0-5 1.3l-2.7.7-4.5.8c-2.2.2-3 .4-3.2.8l-.4.6c0 .3 2.1 1.9 2.7 2l.7.2c0 .1.4 0 .8 0 .3-.2.6-.2.6 0h1c.5 0 1 .2 1 .3h.3c.1-.2.6-.4 1.1-.6zm5.5-2.3h.5l-.3.1c-.3 0-.4 0-.2-.1zm5.6-1.2.3-.2c.2 0 .2 0 .1.2 0 .2-.2.3-.2.3-.1 0-.2-.1-.2-.3zm1.9-.8.7-.2-.2.2-.6.3c-.2 0-.1-.1.1-.3zm-9.1 3.5c0-.2 0-.2-.3-.1-.4.1-.5.3-.1.3 0 0 .3 0 .4-.2zm34.7 11.4-.6-.7.7.6c.7.6.9.8.7.8l-.8-.7zm-34.7-18h.7c.2.1 0 .2-.3.2-.4 0-.5 0-.4-.2z" style="fill:#eab945;stroke-width:.264583" transform="translate(-54.1 -184.2)"/>
  <path d="M75.4 236.3c-.4-.5-.6-1.1-.7-2.2-.1-.8-.4-2-.7-2.4a10 10 0 0 1-.8-2c-.3-.8-.5-1-.8-1l-8.7 2.6c-1.4.3-2.4-.3-2.6-1.5a9 9 0 0 0-1.2-3.7c-1-1.8-1.3-3.5-1.3-7.8 0-2.2 0-4.8-.2-5.8-.4-2.5-.8-7.4-1-12.6-.2-2.5-.4-4.8-.6-5-.2-.4-.2-.7.1-1.1.5-.7 1.6-1 4.1-1.2 2.6-.2 6.8-1.2 6.3-1.6-.2-.1-.1-.2.3 0 .7.1 2.2-.1 2-.4 0-.1.2-.2.6-.1.6 0 .7 0 .3-.2-.3-.3-.2-.3.3-.1.8.2 2.8-.2 2.4-.5-.3-.1-.1-.1.4 0 .6 0 1.2 0 1.7-.3a8 8 0 0 1 2.3-.6 51.6 51.6 0 0 1 7.8-.8c4.6-.2 5.1 0 4.9 1.6a7 7 0 0 1-.8 2c-.5.9-.5 1-.2 3 .3 1.8.3 2.6 0 5l-.5 3c0 .2 1.7.3 3.8.3 3.6 0 3.8 0 6.1 1 1.3.5 2.8 1.1 3.3 1.5l1 .5-.9-.1c-1-.2-1.4.2-.5.7.8.4 2.9 2.3 3.3 3 .8 1.4 0 5-1.5 7-1 1.3-1.4 2.4-.9 2.4a15.7 15.7 0 0 0 5.2-7.3l.1 1.2c0 2-.3 3-1.2 4.1l-.7.7.5 2c.5 2.4.5 4 0 5.3l-.8 2.7c-.5 2-1 2.7-3.1 3.7-1.3.7-9 3.5-9.4 3.4a47 47 0 0 1 6.5-3h-1.2c-.8 0-1.7.4-3 1.2a27.1 27.1 0 0 1-6.6 2.8c-.8.3-4.4.4-4.6.1l-.6-.3c-.4 0-.4.1 0 .3.4.1 0 .2-1.3.4-1 0-2.5.3-3.3.4-2.2.4-3 .3-3.6-.3zm8.5-6.2c0-4 0-4-.6-4.3-.5-.3-.6-.2-.7.3-.3 1-.3 7.7 0 8 0 .2.4.2.7.2.6-.1.6-.1.6-4.2zm-13.5-3.3.6-.4c-.1-.1 0-.4.1-.6.3-.3.3-.4-.2-.2-.5.1-.6 0-.7-1l-.9-3.1a28.8 28.8 0 0 1-1.8-9.3l-.5-6.5-.2-1.9h.7a92.4 92.4 0 0 0 9.4-2.3c1.9-.5 3.1-1 6.8-2.4.2 0 .3.1.3.6 0 .6.1.6.4.4.3-.2.4-.2.5 0 0 .2.2-.4.2-1.3 0-1.5 0-1.7-.5-1.5l-3 1c-1.3.6-3.2 1.2-4.2 1.4l-10.3 2.6c-2 .5-2.2.6-2.2 1.2a88.2 88.2 0 0 0 .9 10c.3 3.8.8 6 2 9.7.5 1.3 1 2.7 1 3.1.2.8.5 1 1.6.5zm27-3.3c2.4-1.2 3.2-1.7 4-2.7 1-1.5 1-1.8-.2-.7-1 1-5.3 3.6-6.6 4l-2.4.5c-2.2.2-1.9.6.4.5a12 12 0 0 0 4.8-1.6zm5.6 0c-.2-1.5-.3-1.6-.7-1.3-.2 0-.3.5-.1 1.1.2 1.2.3 1.4.7 1.4.2 0 .2-.4 0-1.3zm-12 .1c1.6-.1 3.1-.5 4.5-1 2.1-.8 2.1-.8 1.4-1-1.2-.5-2.4-.4-4.6.3-1.9.7-2.2.7-4 .5a16 16 0 0 1-3.3-1 15 15 0 0 1-5.7-5.5 14.7 14.7 0 0 1-1.8-5.7c0-1.1-.3-1.3-1.4-.8-1.5.6-1.2 2.2 1 6.8a10.4 10.4 0 0 0 7.2 6.4l2.1.7.7.3-.8-.1-3.7-1.1c-2.2-.7-3.1-1.2-4.3-2.2-1-.8-1.4-1-1.1-.5l2.3 2.2c2.9 2.3 3.7 2.4 11.4 1.7zm9.4-3.6c.4-.6.5-.9.2-1-.2-.3-.1-.4.2-.6.2 0 .4-.3.4-.5s.2-.4.5-.3c.3 0 .5-.1.5-.5l.3-.9c.2-.6.2-1.1 0-1.5-.2-.2-.2-.3 0-.3l-.1-.3c-.2 0-.4-.6-.5-1-.2-1.8-.6-2.6-1-2.7-.4 0-.5 0-.4.4.3.6-.1.5-1-.5-.6-.4-1.2-.8-1.5-.8-.7 0-1-1-.4-1 .3 0 .4-.1.3-.5-.4-1.2-1-1.5-4-2-2.8-.4-4.4-.4-5.3.2l-2 .6c-4.6 1.2-5 1.4-5.5 3l-.5 1.1c-.1 0-.3.3-.4.7-.1.5 0 .9.3 1.3.5.5.5.5 0 .3-.3 0-.4 0-.4.2 0 .3.1.4.3.4.2 0 .6.3.9.6.5.6 1.1.7.6 0-.5-.5 0-.4 1 .4.4.3.9.6 1.1.5l.6.1c.1.3.3.3.7 0 .3-.1.5-.4.4-.5 0-.2 0-.3.3-.3.2 0 .4.2.4.4s.1.4.3.4c.2 0 .2-.2.1-.5l.1-.5c.2 0 .3 0 .3.2 0 .1.3.2.7.1l.8-.1-.8.5c-.7.5-.7.7 0 .6l.1.4c0 .2-.2.3-.4.2-.2 0-.4 0-.5.2-.1.1 0 .2.4.2.3 0 .5.2.5.3 0 .2.3.1.7 0 .6-.3.9-1 .4-1-.2 0-.3-.2-.3-.3 0-.4 1.8-.6 2.3-.3.2.2.5.3.7.2.3-.1.4 0 .4.3 0 .2.2.3.5.2.3-.1.3 0 .2.3-.1.4 0 .6.3.7.3.1.4.3.2.5-.4.3-.2 1 .2.8.1 0 .2 0 .2.3l.1.4.6.2c.2 0 .4 0 .4-.3 0-.2.1-.4.3-.3.2 0 .3.3.3.5-.1.2 0 .3.2 0 .5-.5.8-.4.6.1-.1.5-.1.4.3 0 .2-.3.4-.3.4-.2.1.2.6.2 1.4 0 .7-.2 1.2-.5 1-.6 0 0 0-.2.2-.2.4 0 1 .8.7 1 0 .2-.3.3-.5.2-.2-.1-.4 0-.4.1 0 .2.2.3.4.3.4 0 .4 0 0 .4-.3.2-.4.4-.2.4.1 0 .5-.3.8-.7zm-15.9-5.2v-.6c0-.3.2-.3.4 0 .2.1.3.4.3.6-.2.5-.5.5-.7 0zm5.3-.6c0-.2.2-.4.4-.4.1 0 .1.2 0 .4l-.5.4v-.4zm-4.2-.4c0-.1.1-.2.3-.2.1 0 .3 0 .3.2s-.2.3-.3.3a.3.3 0 0 1-.3-.3zm13 6.3c.2-.3.1-.4 0-.4-.2 0-.3 0-.3.2l-.4.4c-.4 0-.4 0 0 .1.4 0 .7-.1.8-.3zm-5.7-1.5-.1-.4c-.2 0-.3 0-.3.2 0 .5.2.6.4.2zm-2.5-2.7c-.2-.2-.3-.2-.3 0 0 .3.3.6.5.4l-.2-.4zm-22.8-18.7 1.5-.3c.3 0 .6-.2.7-.3.1-.4 2.7-1 4.4-1.1.5 0 1-.2 1-.4l2-.4a23 23 0 0 0 6.7-2.6c.3-.2.4-.2.3 0v.3c.2 0 .4-.1.4-.3l.4-.2c.3 0 .8-.3 1.2-.7l.8-.6-.6-.5c-.9-1-2.4-.8-11.2 1a38 38 0 0 0-5 1.3l-2.7.7-4.5.8c-2.2.2-3 .4-3.2.8l-.4.6c0 .3 2.1 1.9 2.7 2l.7.2c0 .1.4 0 .8 0 .3-.2.6-.2.6 0h1c.5 0 1 .2 1 .3h.3c.1-.2.6-.4 1.1-.6zm5.5-2.3h.5l-.3.1c-.3 0-.4 0-.2-.1zm5.6-1.2.3-.2c.2 0 .2 0 .1.2 0 .2-.2.3-.2.3-.1 0-.2-.1-.2-.3zm1.9-.8.7-.2-.2.2-.6.3c-.2 0-.1-.1.1-.3zm-9.1 3.5c0-.2 0-.2-.3-.1-.4.1-.5.3-.1.3 0 0 .3 0 .4-.2zm34.7 11.4-.6-.7.7.6c.7.6.9.8.7.8l-.8-.7zm-34.7-18h.7c.2.1 0 .2-.3.2-.4 0-.5 0-.4-.2z" style="fill:#bca276;stroke-width:.264583" transform="translate(-54.1 -184.2)"/>
  <path d="M75.4 236.2c-.5-.4-.6-1-.7-2a6 6 0 0 0-.7-2.4l-.8-2c-.2-1-.4-1.2-.8-1a2696 2696 0 0 0-9.5 2.5c-1.1 0-1.6-.5-1.9-2-.1-.9-.7-2.5-1.2-3.7l-1-2.1v-4.8c0-2.6-.2-5.6-.4-6.6s-.4-3.3-.4-5.1l-.4-4.7c-.2-.7-.3-2.5-.4-4l-.2-3.6c0-.7 0-.9.7-1 .8 0 1.3.4 1 1.1a6 6 0 0 0 1.5 2.4c.7.5 1.6 2 1.5 2.4-.1.2 0 .5.2.7.3.3.4.5.1.7-.2.3-.2.4 0 .4s.3.2.2.4c-.4 1 3.2.6 7.8-.7a17.3 17.3 0 0 0 5.3-2 29 29 0 0 0 11.4-6.4c1.6-1.7 1.7-2.5.5-3.6l-.8-.7-2.8.3a45 45 0 0 0-8.2 1.4l-3.4.8-4.3 1a28 28 0 0 1-8.5 1l2-.3a45 45 0 0 0 5.9-1.1 72 72 0 0 1 22.5-3.3c.8.3.8.4.6 1.4 0 .6-.4 1.5-.7 2-.5 1-.5 1.2-.2 3s.3 2.6 0 4.9l-.5 3c0 .3.8.4 3.2.4 3.7 0 5.6.2 5 .7-.3.2-.3.2.1 0l2.2.5c1.9.8 4 1.9 3 1.6-1-.2-1.1-.2-1.2.1-.1.2.2.5.6.8l1.4 1.2c.4.4.8.7 1 .7l.7 1.1c.4 1 .5 1.3.2 2.6l-.3 2a6 6 0 0 1-1.2 2l-1.3 2.1c-.3 1-1.7 2.5-2.5 2.9a6 6 0 0 1-3.6 0c-.6-.2-2.3.1-4.7 1-1.2.4-1.5.4-3.4 0a10 10 0 0 1-6.3-3.3c-2.8-2.9-4.4-6.7-3.8-9.3.2-1.2.2-1.4-.2-1.6-.3-.2-.6 0-1 .3l-.8.5c-.6 0-1 1.2-.8 2.4 0 .8.6 2.3 1.4 3.9l1.5 3.2 1.3 1.7.9 1.2c-.3.3-3.1-2-3.8-3.3-.2-.3-.3-.3-.3-.1 0 .8 1 2.1 2.7 3.8a8.4 8.4 0 0 0 6.8 2.8c3.2 0 4.1 0 3.8.2-.2 0-.3.2-.3.4s1 .2 2.7.2c2.6-.1 2.7-.1 5.5-1.5s3.2-1.7 5.6-4.6l2-2.5c.8-.9 1.7-2 2-2.7.6-1.5 1-1.6 1-.4 0 1.1-.8 2.9-1.5 3.6-.5.5-.5.6 0 2.5.5 2.7.5 4-.1 5.6-.3.6-.7 1.9-.8 2.7-.4 1.8-1.1 2.5-3.7 3.7a60 60 0 0 1-7.9 2.8 39 39 0 0 1 5.2-2.4c.6-.2.6-.3.2-.5-.6-.3-1.7 0-4 1.4a24.2 24.2 0 0 1-8.9 3c-1.4.2-2 .1-2.2 0-.1-.2-.5-.4-.8-.4-.5 0-.5 0 0 .3.4.1 0 .2-1.2.4-1 0-2.4.3-3.2.4-2.2.4-3 .3-3.6-.4zm8.5-6c0-4.2 0-4.2-.6-4.5-.3-.2-.7-.2-.7-.2-.3.3-.3 8.3 0 8.7 0 .1.4.3.7.2.6 0 .6-.2.6-4.2zm-12.2-4v-.4c0-.4 0-.5-.6-.4-.7.1-.7 0-1-1.3l-.9-3c-1.2-3.5-1.3-3.6-2.2-15.3l-.2-1.9 3-.7c1.6-.5 4.3-1 5.9-1.4 1.6-.3 4-1 5.5-1.7 1.4-.5 2.6-1 2.7-.9l.1 1.2c0 1 0 1 .6.7.4-.3.5-.6.5-2.3V197l-1.4.6a40 40 0 0 1-8.1 2.6 55.7 55.7 0 0 0-8.7 2.1l-2.2.6.1 1.5.5 4.8a44 44 0 0 0 2 12.3c.9 2.5 1.2 3.6 1.5 5.2l.2.7 1.3-.5 1.4-.5zm31.5-2-.3-1.4c-.2-.8-.5-1-.8-.4-.2.6.4 2.5.9 2.5.3 0 .3-.2.2-.7zm-2.8-4.2c.4-.6.5-.9.2-1-.2-.3-.1-.4.2-.6.2 0 .4-.3.4-.5s.2-.4.5-.3c.3 0 .5-.1.5-.5l.3-.9c.2-.6.2-1.1 0-1.5-.2-.2-.2-.3 0-.3l-.1-.3c-.2 0-.4-.6-.5-1-.2-1.8-.6-2.6-1-2.7-.4 0-.5 0-.4.4.3.6-.1.5-1-.5-.6-.4-1.2-.8-1.5-.8-.7 0-1-1-.4-1 .3 0 .4-.1.3-.5-.4-1.2-1-1.5-4-2-2.8-.4-4.4-.4-5.3.2l-2 .6c-4.6 1.2-5 1.4-5.5 3l-.5 1.1c-.1 0-.3.3-.4.7-.1.5 0 .9.3 1.3.5.5.5.5 0 .3-.3 0-.4 0-.4.2 0 .3.1.4.3.4.2 0 .6.3.9.6.5.6 1.1.7.6 0-.5-.5 0-.4 1 .4.4.3.9.6 1.1.5l.6.1c.1.3.3.3.7 0 .3-.1.5-.4.4-.5 0-.2 0-.3.3-.3.2 0 .4.2.4.4s.1.4.3.4c.2 0 .2-.2.1-.5l.1-.5c.2 0 .3 0 .3.2 0 .1.3.2.7.1l.8-.1-.8.5c-.7.5-.7.7 0 .6l.1.4c0 .2-.2.3-.4.2-.2 0-.4 0-.5.2-.1.1 0 .2.4.2.3 0 .5.2.5.3 0 .2.3.1.7 0 .6-.3.9-1 .4-1-.2 0-.3-.2-.3-.3 0-.4 1.8-.6 2.3-.3.2.2.5.3.7.2.3-.1.4 0 .4.3 0 .2.2.3.5.2.3-.1.3 0 .2.3-.1.4 0 .6.3.7.3.1.4.3.2.5-.4.3-.2 1 .2.8.1 0 .2 0 .2.3l.1.4.6.2c.2 0 .4 0 .4-.3 0-.2.1-.4.3-.3.2 0 .3.3.3.5-.1.2 0 .3.2 0 .5-.5.8-.4.6.1-.1.5-.1.5.3 0 .2-.3.4-.3.4-.2.1.2.6.2 1.4 0 .7-.2 1.2-.5 1-.6 0 0 0-.2.2-.2.4 0 1 .8.7 1 0 .2-.3.3-.5.2-.2-.1-.4 0-.4.1 0 .2.2.3.4.3.4 0 .4 0 0 .4-.3.2-.4.4-.2.4.1 0 .5-.3.8-.7zm-15.9-5.2v-.6c0-.3.2-.3.4 0 .2.1.3.4.3.6-.2.5-.5.5-.7 0zm5.3-.6c0-.2.2-.4.4-.4.1 0 .1.2 0 .4l-.5.4v-.4zm-4.2-.4c0-.1.1-.2.3-.2.1 0 .3 0 .3.2s-.2.3-.3.3a.3.3 0 0 1-.3-.3zm13 6.3c.2-.3.1-.4 0-.4-.2 0-.3 0-.3.2l-.4.4c-.4 0-.4 0 0 .1.4 0 .7-.1.8-.3zm-5.7-1.5-.1-.4c-.2 0-.3 0-.3.2 0 .5.2.6.4.2zm-2.5-2.7c-.2-.2-.3-.2-.3 0 0 .3.3.6.5.4l-.2-.4zm-27.1-7.4c0-.1-.2-.2-.6-.2-.7 0-.7 0-.2.2l.6.3.2-.3zm1.2-.1a1 1 0 0 0-.6 0l.3.1c.4 0 .5 0 .3-.1zm.2-1.4c0-1-.2-1.1-.9-1.4-1-.3-2.3-.3-2.3 0l.3.8c.2.4.2.6 0 .6-.9 0 1 1 2 1s1 0 .9-1zm25.7 17.2a29.3 29.3 0 0 0 5.7-1.5c.4-.2.5-.2.2.2l-1.6.8c-1.6.5-4.9.9-4.3.5z" style="fill:#daaa37;stroke-width:.264583" transform="translate(-54.1 -184.2)"/>
  <path d="M75.4 236.2c-.5-.4-.6-1-.7-2a6 6 0 0 0-.7-2.4l-.8-2c-.2-1-.4-1.2-.8-1a2696 2696 0 0 0-9.5 2.5c-1.1 0-1.6-.5-1.9-2-.1-.9-.7-2.5-1.2-3.7l-1-2.1v-4.8c0-2.6-.2-5.6-.4-6.6s-.4-3.3-.4-5.1l-.4-4.7c-.2-.7-.3-2.5-.4-4l-.2-3.6c0-.7 0-.9.7-1 .8 0 1.3.4 1 1.1a6 6 0 0 0 1.5 2.4c.7.5 1.6 2 1.5 2.4-.1.2 0 .5.2.7.3.3.4.5.1.7-.2.3-.2.4 0 .4s.3.2.2.4c-.4 1 3.2.6 7.8-.7a17.3 17.3 0 0 0 5.3-2 29 29 0 0 0 11.4-6.4c1.6-1.7 1.7-2.5.5-3.6l-.8-.7-2.8.3a45 45 0 0 0-8.2 1.4l-3.4.8-4.3 1a28 28 0 0 1-8.5 1l2-.3a45 45 0 0 0 5.9-1.1 72 72 0 0 1 22.5-3.3c.8.3.8.4.6 1.4 0 .6-.4 1.5-.7 2-.5 1-.5 1.2-.2 3s.3 2.6 0 4.9l-.5 3c0 .3.8.4 3.2.4 3.7 0 5.6.2 5 .7-.3.2-.3.2.1 0l2.2.5c1.9.8 4 1.9 3 1.6-1-.2-1.1-.2-1.2.1-.1.2.2.5.6.8l1.4 1.2c.4.4.8.7 1 .7l.7 1.1c.4 1 .5 1.3.2 3-.4 2.3-.6 2.6-1.8 4-1 1.1-.8.5.3-1 .4-.6.5-1.1.5-2.6 0-1-.1-1.9-.3-2l-1.1-1.7c-1.8-3.4-3.8-4.6-7.3-4.4a47 47 0 0 0-12.4 2.6c-2.5 1-4 3.6-3.6 6 .2.9.7 1.5 2.2 3.1 1.1 1.1 2.1 2 2.3 2 .1 0 .4.3.5.6.3.8 1.8 1.6 2 1.2.1-.2.3-.1.5.1.2.3.8.5 1.3.6.5 0 1 .2 1.2.3.1 0 .4 0 .6-.3.3-.3.5-.3.5 0 .1.2.7.1 2.2-.2 2-.4 2.3-.4 3.6 0a7 7 0 0 0 2.6.2c.9 0 1 0 .7.1-.7.3-2.6.4-3.4 0-.6-.2-2.3.1-4.7 1-1.2.4-1.5.4-3.4 0a10 10 0 0 1-6.3-3.3c-2.8-2.9-4.4-6.7-3.8-9.3.2-1.2.2-1.4-.2-1.6-.3-.2-.6 0-1 .3l-.8.5c-.6 0-1 1.2-.8 2.4 0 .8.6 2.3 1.4 3.9l1.5 3.2 1.3 1.7.9 1.2c-.3.3-3.1-2-3.8-3.3-.2-.3-.3-.3-.3-.1 0 .8 1 2.1 2.7 3.8a8.4 8.4 0 0 0 6.8 2.8c3.2 0 4.1 0 3.8.2-.2 0-.3.2-.3.4s1 .2 2.7.2c2.6-.1 2.7-.1 5.5-1.5s3.2-1.7 5.6-4.6l2-2.5c.8-.9 1.7-2 2-2.7.6-1.5 1-1.6 1-.4 0 1.1-.8 2.9-1.5 3.6-.5.5-.5.6 0 2.5.5 2.7.5 4-.1 5.6-.3.6-.7 1.9-.8 2.7-.4 1.8-1.1 2.5-3.7 3.7a60 60 0 0 1-7.9 2.8l5.1-2.5c.5-.2.5-.3.2-.5-.3-.3-1 0-3.7 1.4a50 50 0 0 1-5.2 2.4c-2.2.7-5.8 1.1-6.1.6-.1-.1-.5-.3-.8-.3-.5 0-.5 0 0 .3.4.1 0 .2-1.2.4-1 0-2.4.3-3.2.4-2.2.4-3 .3-3.6-.4zm8.5-6c0-4.2 0-4.2-.6-4.5-.3-.2-.7-.2-.7-.2-.3.3-.3 8.3 0 8.6 0 .2.4.4.7.4.6 0 .6 0 .6-4.3zm-12.2-4v-.4c0-.4 0-.5-.6-.4-.7.1-.7 0-1-1.3l-.9-3c-1.2-3.5-1.3-3.6-2.2-15.3l-.2-1.9 3-.7c1.6-.5 4.3-1 5.9-1.4 1.6-.3 4-1 5.5-1.7 1.4-.5 2.6-1 2.7-.9l.1 1.2c0 1 0 1 .6.7.4-.3.5-.6.5-2.3V197l-1.4.6a40 40 0 0 1-8.1 2.6 55.7 55.7 0 0 0-8.7 2.1l-2.2.6.1 1.5.5 4.8a44 44 0 0 0 2 12.3c.9 2.5 1.2 3.6 1.5 5.2l.2.7 1.3-.5 1.4-.5zm31.5-2-.3-1.4c-.2-.8-.5-1-.8-.4-.2.6.4 2.5.9 2.5.3 0 .3-.2.2-.7zm-40-15.7c.2-.1 0-.2-.5-.2-.7 0-.7 0-.2.2l.6.3.2-.3zm1.3-.1a1 1 0 0 0-.6 0l.3.1c.4 0 .5 0 .3-.1zm.2-1.4c0-1-.2-1.1-.9-1.4-1-.3-2.3-.3-2.3 0l.3.8c.2.4.2.6 0 .6-.9 0 1 1 2 1s1 0 .9-1zm25.7 17.2a29.3 29.3 0 0 0 5.7-1.5c.4-.2.5-.2.2.2l-1.6.8c-1.6.5-4.9.9-4.3.5zm10-3.7c0-.3 1.6-2 1.6-1.8 0 .1-.3.6-.8 1.1-.4.5-.8.8-.8.7z" style="fill:#ae9169;stroke-width:.264583" transform="translate(-54.1 -184.2)"/>
  <path d="M75.3 236.2c-.3-.5-.5-1.1-.5-1.8s-.3-1.8-.8-2.8l-.8-2c0-1-.4-1-4.7.3-6 1.8-7 1.8-7.4-.1a28 28 0 0 0-1.5-4.8c-.7-1.6-.7-1.8-.5-3.3.4-2 .3-9.6-.2-13.8a39 39 0 0 1-.2-5.6c.2-2.6 0-4.1-1.3-6.6l-.6-1.3.8.9c.4.5.9 1.3 1 1.8.2.5.4.8.6.7 0 0 .3 0 .4.2.1.2 0 .2-.1.1l-.3.1c0 .2.1.3.3.3 1 0 1.3 3.5.5 6-.3.7-.4 1.5-.3 1.6.2.2.8 3 1.2 5.4.4 2.4.4 2.7.8 3.2.6.6.7 1.8.3 1.8-.6 0-.8 1.3-.6 3.6l.2 2.4c.1 1.3 2.2 2.4 4.4 2.4.7 0 .8 0 .8-.5 0-.3.2-.5.4-.5.4 0 .4-.2 0-1.3-.6-2-.4-2 .4.2.5 1 .9 2.5 1 3.1 0 .7.2 1.2.4 1.3.3.2 4-1.2 3.8-1.5-.1-.1 0-.4.1-.6.3-.4.2-.4-1 0-1.6.5-1.6.5-1.6-.4 0-.5-.2-1.3-.4-1.8-.5-1.2-1.3-3.5-1.7-5-.3-.9-.5-3.3-1.2-12.1l-.2-1.9 3-.7c1.6-.5 4.3-1 5.9-1.4 1.6-.3 4-1 5.5-1.7 1.4-.5 2.6-1 2.7-.9l.1 1.6c0 1.2.1 1.4.5 1.3.5 0 .5-.3.7-2.4L85 197c-.1-.1-.8 0-1.6.4-2.5 1.1-2.9 1-.6 0 1.6-.9 2.7-1.7 4-3l2-1.8.4 2.3c.1 1.6.1 3-.1 4.5-.6 3.7-.8 3.4 2.2 3.3H94l-2.8.2c-2 .2-3.2.5-4 .9-.8.3-1.4.5-1.5.4 0-.2-.3-.2-.4-.2l-1.1-.1c-1-.3-3.8.8-5.2 2l-2 1.3c-2.5 1.2-2.8 3.2-1 7.3.6 1.2 1.2 2.8 1.3 3.3l.1 1-.9-1.3-1-1.6c-.4-.3.1 2.2.6 3a28 28 0 0 0 5.4 5.8c1 .6 1 .6.7 4.2a14 14 0 0 0 0 3.8l.4 2.2c0 .3.3.7.5.8.4.1-.1.3-1.3.4-1 0-2.3.3-3 .4-2 .4-2.9.3-3.5-.4zm6.4-4.6c0-.6-.2-.8-1-1.1-.4-.2-1.8-1.3-3-2.5l-2.2-2.1-.2.7-.2 2.3c0 1.4.1 1.5 1.3 2.2 1.1.8 2.3 1.2 4.3 1.2.9 0 1 0 1-.7zm-7.6-6 .8-3.5c.6-1.7.7-2 .3-2.6-.3-.6-.3-.5-.8 2l-.5 2.7-.3 1.4-.4 2c0 1.3.7-.2 1-2zm5.6-.4c0-.1 0-.3-.2-.3-.1 0-.2 0 0-.2 0-.2-.4-.8-1-1.4-1-1-2.6-2.4-2.3-1.9l-.1.5c-.4.2-.3 1.2 0 2 .6 1 3.1 2 3.6 1.3zm4.4 10.6c-.3-.4-.3-9.4 0-9.7l1 .1c1.5.6 4.3.7 6 .3l1.5-.3-1-.4-1-.3H92c.9 0 2-.2 2.8-.4.6-.3 1.2-.4 1.3-.3.2.2 2.7-.8 4-1.5l1.6-.7c.1 0 .4.6.6 1.4l.5 1.7c.4.8.6-.8.3-2.4-.4-1.6-.4-1.6.3-2.1a9 9 0 0 0 1.7-1.7l.9-1.2.2 1c.6 2 .7 4.1.2 5.4l-.8 2.9c-.5 2-1 2.7-3.2 3.7a51 51 0 0 1-7.7 2.8c-.2-.1 2.2-1.2 4.4-2 .7-.3 1.5-.8 1.6-1l.2-.6A29 29 0 0 0 95 233c-1.5.8-3.7 1.8-4.7 2.1-2.4.9-5.8 1.2-6.3.7zm16.7-14a73.1 73.1 0 0 0 6.6-8c.6-1.2.6-.3 0 1.4-.3.9-.8 1.6-2.2 2.8a53.8 53.8 0 0 0-5.3 5c-.2 0 .2-.5.9-1.2zm5.9-5.6.2-.8-.5.8-.3.8.6-.8zM87 222c-2.2-.6-3.8-1.5-5.3-3a13.8 13.8 0 0 1-3.3-5.3c-1-2.8-.6-5 1.3-6.4 1.2-1 5-2.4 6-2.2.4 0 1.4-.1 2.2-.4.8-.3 2.4-.7 3.5-.8a11 11 0 0 1 4.6.3c1.5.3 3 .7 3.3 1 1 .6 3.2 2.5 3.6 3l.8.4c.2 0 .3.3.3.7 0 .4.2.7.3.7.5 0 .7 1.4.3 3.3a5.3 5.3 0 0 1-1.3 2.9c-1 1-1 .8 0-.5.5-.6.6-1.2.6-2.6 0-1-.1-1.9-.3-2l-1.1-1.7c-1.8-3.4-3.8-4.6-7.3-4.4a47 47 0 0 0-12.4 2.6c-2.5 1-4 3.6-3.6 6 .2.9.7 1.5 2.2 3.1 1.1 1.1 2.1 2 2.3 2 .1 0 .4.3.5.6.3.8 1.8 1.6 2 1.2.1-.2.3-.1.5.1.2.3.8.5 1.3.6.5 0 1 .2 1.2.3.1 0 .4 0 .6-.3.3-.3.5-.3.5 0 .1.2.7.1 2.3-.2 1.7-.4 2.2-.4 3.2-.1l1.2.3h-1.6c-.9 0-2.2.3-3.1.6-1.8.7-3 .7-5.3.2zm-21.3-4-.3-2.2c0-.4.2.2.4 1.2.5 2.1.4 3 0 1zm34-13.3c-.6-.3-.8-.5-.4-.4.7.2 2.1.9 1.7.9l-1.3-.5zm-34-12.7 2-.5c.8-.1.8-.1-.2.2l-2 .5c-.9.2-.9.2.2-.2zm3.3-.8c.2-.2 6.4-1.5 6.5-1.3l-2 .5a258 258 0 0 0-4.5.8zm20-1.2c-.2-.1-.1-.5 0-.7.4-.7-.2-.9-3-.9h-2c.1-.2 1.4-.2 3-.3 3 0 3.6.2 3.1 1.5-.2.7-.9 1-1.2.4z" style="fill:#87d521;stroke-width:.264583" transform="translate(-54.1 -184.2)"/>
  <path d="M75.3 236.2c-.3-.5-.5-1.1-.5-1.8s-.3-1.8-.8-2.8l-.8-2c0-1-.4-1-4.7.3-6 1.8-7 1.8-7.4-.1a28 28 0 0 0-1.5-4.8c-.7-1.6-.7-1.8-.5-3.3.4-2 .3-9.6-.2-13.8a39 39 0 0 1-.2-5.6c.2-2.6 0-4.1-1.3-6.6l-.6-1.3.8.9c.4.5.9 1.3 1 1.8.2.5.4.8.6.7 0 0 .3 0 .4.2.1.2 0 .2-.1.1l-.3.1c0 .2.1.3.3.3 1 0 1.3 3.5.5 6-.3.7-.4 1.5-.3 1.6.2.2.8 3 1.2 5.4.4 2.4.4 2.7.8 3.2.6.6.7 1.8.3 1.8-.6 0-.8 1.3-.6 3.6l.2 2.4c.1 1.3 2.2 2.4 4.4 2.4.7 0 .8 0 .8-.5 0-.3.2-.5.4-.5.4 0 .4-.2 0-1.3-.6-2-.4-2 .4.2.5 1 .9 2.5 1 3.1 0 .7.2 1.2.4 1.3.3.2 4-1.2 3.8-1.5-.1-.1 0-.4.1-.6.3-.4.2-.4-1 0-1.6.5-1.6.5-1.6-.4 0-.4-.4-2-1-3.4-1.2-3.6-1.4-4.8-.8-4.8.3 0 .5-.2.5-.7 0-.3 0-.6.3-.7.2 0 .1-.2-.1-.5-.3-.2-.4-1-.4-2.5 0-1.7 0-2.1.5-2.6.7-.8.8-1.7.4-2.7-.4-.7-.6-.9-1-.7-.3.1-.4.1 0-.3.1-.2.2-.5.1-.7l.1-.3c.2 0 .2-.1.2-.3-.1-.2.2-.5.8-.7.5-.2.9-.4.8-.5 0-.2.1-.3.4-.4l4.2-1c2-.4 4.6-1.2 6-1.7 2.6-1 2.7-1 2.7.9 0 .9.1 1 .5 1 .5 0 .5-.3.7-2.4L85 197c-.1-.1-.8 0-1.6.4-2.5 1.1-2.9 1-.6 0 1.6-.9 2.7-1.7 4-3l2-1.8.4 2.3c.1 1.6.1 3-.1 4.5-.6 3.7-.8 3.4 2.2 3.3H94l-2.8.2c-2 .2-3.2.5-4 .9-.8.3-1.4.5-1.5.4 0-.2-.3-.2-.4-.2l-1.1-.1c-1-.3-3.8.8-5.2 2l-2 1.3c-2.5 1.2-2.8 3.2-1 7.3.6 1.2 1.2 2.8 1.3 3.3l.1 1-.9-1.3-1-1.6c-.4-.3.1 2.2.6 3a28 28 0 0 0 5.4 5.8c1 .6 1 .6.7 4.2a14 14 0 0 0 0 3.8l.4 2.2c0 .3.3.7.5.8.4.1-.1.3-1.3.4-1 0-2.3.3-3 .4-2 .4-2.9.3-3.5-.4zm6.4-4.6c0-.6-.2-.8-1-1.1-.4-.2-1.8-1.3-3-2.5l-2.2-2.1-.2.7-.2 2.3c0 1.4.1 1.5 1.3 2.2 1.1.8 2.3 1.2 4.3 1.2.9 0 1 0 1-.7zm-7.6-6 .8-3.5c.6-1.7.7-2 .3-2.6-.3-.6-.3-.5-.8 2l-.5 2.7-.3 1.4-.4 2c0 1.3.7-.2 1-2zm5.6-.4c0-.1 0-.3-.2-.3-.1 0-.2 0 0-.2 0-.2-.4-.8-1-1.4-1-1-2.6-2.4-2.3-1.9l-.1.5c-.4.2-.3 1.2 0 2 .6 1 3.1 2 3.6 1.3zm4.5 10.5c-.3-.2-.4-.6-.3-1.7l.2-1.4h1.1l1.5-.1.4.1c-.2.3 0 .3.7 0 .5-.2.7-.4.6-.9 0-.4 0-.7.2-.7 0 0 .2 0 .2-.2 0-.1-.3-.2-.6 0-.5 0-.6 0-.2-.4.5-.6.2-1.1-.3-.6-.3.2-.6.4-.9.4-.2 0-.4.2-.4.3 0 .1-.2.3-.5.3s-.5.1-.5.4c0 .4-.6.5-.6 0 0-.2-.2 0-.4.4-.3.6-.3.4-.4-2.3 0-1.7.1-3 .2-3.1.2-.1 2 .2 3 .5.6.2 2.3.1 4-.2l1.4-.3-1-.4-1-.3H92c.9 0 2-.2 2.8-.4.6-.3 1.2-.4 1.3-.3.2.2 2.8-.8 3.6-1.3.4-.2.7-.3.8-.2.1 0 .2 0 .2-.2s.1-.2.3-.1c.1 0 .2 0 .2-.2l.4-.2c.2 0 .4.1.4.3l.4 1.8c.4 1.2.5 1.3.7 1 .2-.4.2-1 0-2.3l-.4-1.7.8-.5 1.6-1.7.9-1.2.2 1c.6 2 .7 4.1.2 5.4l-.8 2.9c-.5 2-1 2.7-3.2 3.7a51 51 0 0 1-7.7 2.8c-.2-.1 2.2-1.2 4.4-2 .7-.3 1.5-.8 1.6-1l.2-.6a30 30 0 0 0-5.2 2c-3 2.2-10.2 4.2-11.5 3.2zm16.6-13.9a73.1 73.1 0 0 0 6.6-8c.6-1.2.6-.3 0 1.4-.3.9-.8 1.6-2.2 2.8a53.8 53.8 0 0 0-5.3 5c-.2 0 .2-.5.9-1.2zm5.9-5.6.2-.8-.5.8-.3.8.6-.8zM87 222c-2.2-.6-3.8-1.5-5.3-3a13.8 13.8 0 0 1-3.3-5.3c-1-2.8-.6-5 1.3-6.4 1.2-1 5-2.4 6-2.2.4 0 1.4-.1 2.2-.4.8-.3 2.4-.7 3.5-.8a11 11 0 0 1 4.6.3c1.5.3 3 .7 3.3 1 1 .6 3.2 2.5 3.6 3l.8.4c.2 0 .3.3.3.7 0 .4.2.7.3.7.5 0 .7 1.4.3 3.3a5.3 5.3 0 0 1-1.3 2.9c-1 1-1 .8 0-.5.5-.6.6-1.2.6-2.6 0-1-.1-1.9-.3-2l-1.1-1.7c-1.8-3.4-3.8-4.6-7.3-4.4a47 47 0 0 0-12.4 2.6c-2.5 1-4 3.6-3.6 6 .2.9.7 1.5 2.2 3.1 1.1 1.1 2.1 2 2.3 2 .1 0 .4.3.5.6.3.8 1.8 1.6 2 1.2.1-.2.3-.1.5.1.2.3.8.5 1.3.6.5 0 1 .2 1.2.3.1 0 .4 0 .6-.3.3-.3.5-.3.5 0 .1.2.7.1 2.3-.2 1.7-.4 2.2-.4 3.2-.1l1.2.3h-1.6c-.9 0-2.2.3-3.1.6-1.8.7-3 .7-5.3.2zm-21.3-4-.3-2.2c0-.4.2.2.4 1.2.5 2.1.4 3 0 1zm34-13.3c-.6-.3-.8-.5-.4-.4.7.2 2.1.9 1.7.9l-1.3-.5zm-30.1-1.3h.5c0 .1 0 .2-.3.2-.4 0-.4 0-.2-.2zm-4-11.3 2-.5c.8-.1.8-.1-.2.2l-2 .5c-.9.2-.9.2.2-.2zm3.3-.8c.2-.2 6.4-1.5 6.5-1.3l-2 .5a258 258 0 0 0-4.5.8zm20-1.2c-.2-.1-.1-.5 0-.7.4-.7-.2-.9-3-.9h-2c.1-.2 1.4-.2 3-.3 3 0 3.6.2 3.1 1.5-.2.7-.9 1-1.2.4z" style="fill:#ae9329;stroke-width:.264583" transform="translate(-54.1 -184.2)"/>
  <path d="M75.3 236.2c-.3-.5-.5-1.1-.5-1.8s-.3-1.8-.8-2.8l-.8-2c0-1-.4-1-4.7.3-6 1.8-7 1.8-7.4-.1a28 28 0 0 0-1.5-4.8c-.7-1.6-.7-1.8-.5-3.3.4-2 .3-9.6-.2-13.8a39 39 0 0 1-.2-5.6c.2-2.6 0-4.1-1.3-6.6l-.6-1.3.8.9c.4.5.9 1.3 1 1.8.2.5.4.8.6.7 0 0 .3 0 .4.2.1.2 0 .2-.1.1l-.3.1c0 .2.1.3.3.3 1 0 1.3 3.5.5 6-.3.7-.4 1.5-.3 1.6.2.2.8 3 1.2 5.4.4 2.4.4 2.7.8 3.2.6.6.7 1.8.3 1.8-.6 0-.8 1.3-.6 3.6l.2 2.4c.1 1.3 2.2 2.4 4.4 2.4.7 0 .8 0 .8-.5 0-.3.2-.5.4-.5.4 0 .4-.2 0-1.3-.6-2-.4-2 .4.2.5 1 .9 2.5 1 3.1 0 .7.2 1.2.4 1.3.3.2 4-1.2 3.8-1.5-.1-.1 0-.5.3-.8.3-.4.3-.5 0-.3s-2.2.9-2.7.9l-.1-.8c0-.4-.4-2-1-3.4-1.2-3.6-1.4-4.8-.8-4.8.3 0 .5-.2.5-.7 0-.3 0-.6.3-.7.2 0 .1-.2-.1-.5-.3-.2-.4-1-.4-2.5 0-1.7 0-2.1.5-2.6.7-.8.8-1.7.4-2.7-.4-.7-.6-.9-1-.7-.3.1-.4.1 0-.3.1-.2.2-.5.1-.7l.1-.3c.2 0 .2-.1.2-.3-.1-.2.2-.5.8-.7.5-.2.9-.4.8-.5 0-.2.1-.3.4-.4l4.2-1c2-.4 4.6-1.2 6-1.7 2.6-1 2.7-1 2.7.9 0 .9.1 1 .5 1 .5 0 .5-.3.7-2.4L85 197c-.1-.1-.8 0-1.6.4-2.5 1.1-2.9 1-.6 0 1.6-.9 2.7-1.7 4-3l2-1.8.4 2.3c.1 1.6.1 3-.1 4.5-.6 3.7-.8 3.4 2.2 3.3H94l-2.8.2c-2 .2-3.2.5-4 .9-.8.3-1.4.5-1.5.4 0-.2-.3-.2-.4-.2l-1.1-.1c-1-.3-3.8.8-5.2 2l-2 1.3c-2.5 1.2-2.8 3.2-1 7.3.6 1.2 1.2 2.8 1.3 3.3l.1 1-.9-1.3-1-1.6c-.4-.3.1 2.2.6 3a28 28 0 0 0 5.4 5.8c1 .6 1 .6.7 4.2a14 14 0 0 0 0 3.8l.4 2.2c0 .3.3.7.5.8.4.1-.1.3-1.3.4-1 0-2.3.3-3 .4-2 .4-2.9.3-3.5-.4zm6.4-4.6c0-.6-.2-.8-1-1.1-.4-.2-1.8-1.3-3-2.5l-2.2-2.1-.2.7-.2 2.3c0 1.4.1 1.5 1.3 2.2 1.1.8 2.3 1.2 4.3 1.2.9 0 1 0 1-.7zm-7.6-6 .8-3.5c.6-1.5.6-2 .4-2.5-.3-.7-.9-.8-.6 0 0 .1 0 .5-.2.7-.1.2-.2.5-.1.7l-.1.6c-.2.1-.2.4-.1.7l-.1.5c-.2 0-.3.4-.2.8 0 .5-.1 1.4-.3 2l-.4 2c0 1.3.7-.2 1-2zm5.6-.4c0-.1 0-.3-.2-.3-.1 0-.2 0 0-.2 0-.2-.4-.8-1-1.4-1-1-2.6-2.4-2.3-1.9l-.1.5c-.4.2-.3 1.2 0 2 .6 1 3.1 2 3.6 1.3zm4.6 10.7c-.1-.1-.3-.8-.3-1.7v-1.6h1.2l1.5-.1.4.1c-.2.3 0 .3.7 0 .5-.2.7-.4.6-.9 0-.4 0-.7.2-.7 0 0 .2 0 .2-.2 0-.1-.3-.2-.6 0-.5 0-.6 0-.2-.4.5-.6.2-1.1-.3-.6-.3.2-.6.4-.9.4-.2 0-.4.2-.4.3 0 .1-.2.3-.5.3s-.5.1-.5.4c0 .4-.6.5-.6 0 0-.2-.2 0-.4.4-.3.6-.3.4-.4-2.4v-3l1 .2 1.6.3c.3 0 .7 0 .8.2.3.3 2.7.2 2.8 0 .1-.2.4-.3.7-.2l.7-.1c0-.2.3-.2.5-.2.2.1.4 0 .4 0 0-.2-.4-.5-1-.6-1-.3-1-.3.5-.3.9 0 2.1-.2 2.8-.4 1-.4 1.3-.4 1.4-.1.2.2.3.3.3 0 0-.2.1-.2.4-.1.2 0 .4 0 .4-.2s-.2-.3-.3-.3c-.2 0-.3 0-.2-.2.1 0 .4 0 .6.2.2.2.5.3.6.2 0-.1 0-.3-.2-.5-.3-.1-.3-.2 0-.2l.4.2c.2.3 1.4-.2 1.4-.5 0-.2.2-.2.3-.1l.3-.1c0-.2 0-.3.2-.2.1 0 .5 0 .7-.2l.7-.4.5 1.7c.2 1 .4 1.7.6 1.7.4 0 .5-1.2.2-2.7-.4-1.6-.4-1.6.3-2.1a9 9 0 0 0 1.7-1.7l.9-1.2.2 1c.6 2 .7 4.1.2 5.4l-.8 2.9c-.5 2-1 2.7-3.2 3.7a51 51 0 0 1-7.7 2.8c-.2-.1 2.3-1.3 4-1.9 1.7-.6 2.5-1.2 2.4-1.5-.1-.4-.5-.3-2 .2-1 .4-2.4 1-3.2 1.6a20.9 20.9 0 0 1-11.6 3.4zm16.5-14a73.1 73.1 0 0 0 6.6-8c.6-1.3.6-.4 0 1.3-.3.9-.8 1.6-2.2 2.8a53.8 53.8 0 0 0-5.3 5c-.2 0 .2-.5.9-1.2zm5.9-5.7.2-.8-.5.8-.3.8.6-.8zm-16.1 6c.2-.2.4-.1.5 0h-.5zm-7.2-1.9c-.5-.4-.5-.4 0-.1.4.1.6.3.6.4 0 .2-.1.1-.6-.3zm-17.6-2.4-.3-2.2c0-.4.2.2.4 1.2.5 2.1.4 3 0 1zm15.2.1c-.9-1-2-2.6-1.3-2l2.4 3.1L81 218zm-2-2.9-.2-.6s.3.2.4.5c.4.8.2 1-.2.1zm25 0c.1-.3.3-.4.4-.3l-.2.4c-.3.3-.3.3-.2-.1zm.5-2c.1-1.6-1-4-3-6-2.8-2.7-4.8-3-11.5-1.8-3.8.7-7.5 2-8.8 2.8-1.3.9-2.7 3.2-2.7 4.4 0 1.5-.5.2-.5-1.4 0-1.6.6-2.9 1.8-4a14 14 0 0 1 6-2.1c.4 0 1.4-.1 2.2-.4.8-.3 2.4-.7 3.5-.8a11 11 0 0 1 4.6.3c1.5.3 3 .7 3.3 1 1 .6 3.2 2.5 3.6 3l.8.4c.2 0 .3.3.3.7 0 .4.2.7.3.7.5 0 .7 1.4.4 2.9-.3 1.2-.4 1.3-.3.4zm-4.7-8.5c-.6-.3-.8-.5-.4-.4.7.2 2.1.9 1.7.9l-1.3-.5zm-30.1-1.3h.5c0 .1 0 .2-.3.2-.4 0-.4 0-.2-.2zm-4-11.3 2-.5c.8-.1.8-.1-.2.2l-2 .5c-.9.2-.9.2.2-.2zm3.3-.8c.2-.2 6.4-1.5 6.5-1.3l-2 .5a258 258 0 0 0-4.5.8zm20-1.2c-.2-.1-.1-.5 0-.7.4-.7-.2-.9-3-.9h-2c.1-.2 1.4-.2 3-.3 3 0 3.6.2 3.1 1.5-.2.7-.9 1-1.2.4z" style="fill:#77c71b;stroke-width:.264583" transform="translate(-54.1 -184.2)"/>
  <path d="M75.3 236.2c-.3-.5-.5-1.1-.5-1.8s-.3-1.8-.8-2.8l-.8-2c0-1-.4-1-4.7.3-6 1.8-7 1.8-7.4-.1a28 28 0 0 0-1.5-4.8c-.7-1.6-.7-1.8-.5-3.3.4-2 .3-9.6-.2-13.8a39 39 0 0 1-.2-5.6c.2-2.6 0-4.1-1.3-6.6l-.6-1.3.8.9c.4.5.9 1.3 1 1.8.2.5.4.8.6.7 0 0 .3 0 .4.2.1.2 0 .2-.1.1l-.3.1c0 .2.1.3.3.3 1 0 1.3 3.5.5 6-.3.7-.4 1.5-.3 1.6.2.2.8 3 1.2 5.4.4 2.4.4 2.7.8 3.2.6.6.7 1.8.3 1.8-.6 0-.8 1.3-.6 3.6l.2 2.4c.1 1.3 2.2 2.4 4.4 2.4.7 0 .8 0 .8-.5 0-.3.2-.5.4-.5.4 0 .4-.2 0-1.3-.6-2-.4-2 .4.2.5 1 .9 2.5 1 3.1 0 .7.2 1.2.4 1.3.3.2 4-1.2 3.8-1.5-.1-.1 0-.5.3-.8.5-.5.5-.6 0-.3-.8.4-2.4.9-2.5.7-.4-.4-.5-2.7-.1-4.3.3-1.3.3-2 .1-3-.1-.7-.2-1.3 0-1.4.1-.1 0-1.3-.3-3.2-.2-1.2-.1-1.5.5-2.8l.6-1.5c-.1 0 0-.2.3-.4.4-.3.4-.4 0-1.1-.2-.5-.4-1.3-.3-1.8 0-.7.3-1 2-1.7 1-.5 1.9-1.1 2-1.3.1-.2.4-.3.6-.3l.7-.4c.2-.2 1.3-.6 2.6-1a34.3 34.3 0 0 0 4.4-1.7l.3 1.4c0 1 .2 1.3.6 1.3.4 0 .5-.4.6-2.4L85 197c-.1-.1-.8 0-1.6.4-2.5 1.1-2.9 1-.6 0 1.6-.9 2.7-1.7 4-3l2-1.8.4 2.3c.1 1.6.1 3-.1 4.5-.6 3.7-.8 3.4 2.2 3.3H94l-2.8.2c-2 .2-3.2.5-4 .9-.8.3-1.4.5-1.5.4 0-.2-.3-.2-.4-.2l-1.1-.1c-1-.3-3.8.8-5.2 2l-2 1.3c-2.5 1.2-2.8 3.2-1 7.3.6 1.2 1.2 2.8 1.3 3.3l.1 1-.9-1.3-1-1.6c-.4-.3.1 2.2.6 3a28 28 0 0 0 5.4 5.8c1 .6 1 .6.7 4.2a14 14 0 0 0 0 3.8l.4 2.2c0 .3.3.7.5.8.4.1-.1.3-1.3.4-1 0-2.3.3-3 .4-2 .4-2.9.3-3.5-.4zm6.4-4.6c0-.6-.2-.8-1-1.1-.4-.2-1.8-1.3-3-2.5l-2.2-2.1-.2.7-.2 2.3c0 1.4.1 1.5 1.3 2.2 1.1.8 2.3 1.2 4.3 1.2.9 0 1 0 1-.7zm-7.6-6 .8-3.5c.6-1.5.6-2 .4-2.5-.3-.7-.9-.8-.6 0 0 .1 0 .5-.2.7-.1.2-.2.5-.1.7l-.1.6c-.2.1-.2.4-.1.7l-.1.5c-.2 0-.3.4-.2.8 0 .5-.1 1.4-.3 2l-.4 2c0 1.3.7-.2 1-2zm5.6-.4c0-.1 0-.3-.2-.3-.1 0-.2 0 0-.2 0-.2-.4-.8-1-1.4-1-1-2.6-2.4-2.3-1.9l-.1.5c-.4.2-.3 1.2 0 2 .6 1 3.1 2 3.6 1.3zm4.3 9.6v-1h2c2.5 0 5-.9 5-1.8 0-.2-.3-.5-.5-.6-.3-.1-.4-.5-.3-1.3 0-.8.2-1.2.8-1.5.9-.6 1-.6 1 0 0 .4.4.3 2.2-.5.6-.3 1.1-.4 1.2-.3 0 .2.8-.1 1.8-.6l2-.8c.2.2 2.3-1.1 2.6-1.5.2-.3 0-1.5-.3-1.5l-5.8 2.7c-.5.3-1.1.5-1.4.5-.2 0-.5 0-.6.2 0 .1-.3.2-.5.1-.2 0-1 .2-1.6.5-1 .6-1.2.7-1.3.3-.1-.2-.6-.4-1.4-.4l-1.3-.1H89c.8-.1 1.4-.2 1.4-.4h.6c.4 0 .7 0 .7-.2s.3-.2.6-.1c1 .2.2-.4-.9-.7-.9-.3-.8-.3.6-.3.9 0 2.1-.2 2.8-.4 1-.4 1.3-.4 1.4-.1.2.2.3.3.3 0 0-.2.1-.2.4-.1.2 0 .4 0 .4-.2s-.2-.3-.3-.3c-.2 0-.3 0-.2-.2.1 0 .4 0 .6.2.2.2.5.3.6.2 0-.1 0-.3-.2-.5-.2 0-.3-.2-.1-.2.1 0 .4.1.5.3.4.3 1.4-.1 1.4-.6 0-.2.2-.2.3-.1h.3c0-.2.1-.3.3-.3l.8-.2c.5 0 .6.2 1 1.5.2.8.4 1.5.6 1.5.4 0 .5-1.2.2-2.7-.4-1.6-.4-1.6.3-2.1a9 9 0 0 0 1.7-1.7l.9-1.2.2 1c.6 2 .7 4.1.2 5.4l-.8 2.9c-.5 2-1 2.7-3.2 3.7a51 51 0 0 1-7.7 2.8c-.2-.1 2.3-1.3 4-1.9 1.7-.6 2.5-1.2 2.4-1.6-.2-.3-.5-.2-2 .3l-2.9 1.4a21.8 21.8 0 0 1-10.4 3.5H84zm0-6.5.3-1.9s.7 0 1.3.2l1.2.4-.8.2c-.4.1-.6.2-.5.3.3.1.3.3 0 .8-.3.3-.6.5-.7.4-.2 0-.2 0-.1.2l-.1.3c-.2 0-.3 0-.2.2.1.2 0 .4-.1.5-.2 0-.3-.3-.2-1.6zm16.8-6.5a73.1 73.1 0 0 0 6.6-8c.6-1.2.6-.3 0 1.4-.3.9-.8 1.6-2.2 2.8a53.8 53.8 0 0 0-5.3 5c-.2 0 .2-.5.9-1.2zm5.9-5.6.2-.8-.5.8-.3.8.6-.8zm-16.1 6c.2-.2.4-.1.5 0h-.5zm-7.2-1.9c-.5-.4-.5-.4 0-.1.4.1.6.3.6.4 0 .2-.1.1-.6-.3zm-17.6-2.4-.3-2.2c0-.4.2.2.4 1.2.5 2.1.4 3 0 1zm15.2.1c-.9-1-2-2.6-1.3-2l2.4 3.1L81 218zm-2-2.9-.2-.6s.3.2.4.5c.4.8.2 1-.2.1zm25 0c.1-.3.3-.4.4-.3l-.2.4c-.3.3-.3.3-.2-.1zm.5-2c.1-1.6-1-4-3-6-2.8-2.7-4.8-3-11.5-1.8-3.8.7-7.5 2-8.8 2.8-1.3.9-2.7 3.2-2.7 4.4 0 1.5-.5.2-.5-1.4 0-1.6.6-2.9 1.8-4a14 14 0 0 1 6-2.1c.4 0 1.4-.1 2.2-.4.8-.3 2.4-.7 3.5-.8a11 11 0 0 1 4.6.3c1.5.3 3 .7 3.3 1 1 .6 3.2 2.5 3.6 3l.8.4c.2 0 .3.3.3.7 0 .4.2.7.3.7.5 0 .7 1.4.4 2.9-.3 1.2-.4 1.3-.3.4zm-4.7-8.5c-.6-.3-.8-.5-.4-.4.7.2 2.1.9 1.7.9l-1.3-.5zM65.7 192l2-.5c.8-.1.8-.1-.2.2l-2 .5c-.9.2-.9.2.2-.2zm3.3-.8c.2-.2 6.4-1.5 6.5-1.3l-2 .5a258 258 0 0 0-4.5.8zm20-1.2c-.2-.1-.1-.5 0-.7.4-.7-.2-.9-3-.9h-2c.1-.2 1.4-.2 3-.3 3 0 3.6.2 3.1 1.5-.2.7-.9 1-1.2.4z" style="fill:#917352;stroke-width:.264583" transform="translate(-54.1 -184.2)"/>
  <path d="M75.3 236.2c-.3-.5-.5-1.1-.5-1.8 0-.6-.4-1.8-.8-2.8-.9-2-1-2.4-.6-2.4s.8-1.6 1-4.3c.2-1.2.6-2.8.9-3.5l.6-1.3.9 1c.5.4.8.8.7 1l-.8-.7-.8-.7-.3.7a3 3 0 0 0-.1 1.9c0 .9 0 1.1-.3 1.1-.2 0-.4.7-.6 2.7-.3 2.5-.3 2.7.2 3.5a6.7 6.7 0 0 0 4 2.7l2 .2c1.3 0 1.6.3 1.6 1.6 0 .5.2.7.5.7l-5.5 1c-1.4.1-1.5 0-2-.6zm8.7-1.4v-1h2c2.5 0 5-.9 5-1.8 0-.2-.3-.5-.5-.6-.3-.1-.4-.5-.3-1.3 0-.8.2-1.2.8-1.5.9-.6 1-.6 1 0 0 .4.4.3 2.2-.5.6-.3 1.1-.4 1.2-.3 0 .2.8-.1 1.8-.6l2-.8c.2.2 2.3-1.1 2.6-1.5.2-.3 0-1.5-.3-1.5l-5.8 2.7c-.5.3-1.1.5-1.4.5-.2 0-.5 0-.6.2 0 .1-.3.2-.5.1-.2 0-1 .2-1.6.5-1 .6-1.2.7-1.3.3-.1-.2-.6-.4-1.4-.4-1.1 0-1 0 .7-.3a44.8 44.8 0 0 0 12.1-4c.2.1.5 1 .7 2 .4 1.5.6 1.7.9 1.5.4-.4.3-2-.3-3.6-.2-.9-.2-1 1.4-2.6.9-1 1.7-1.5 1.7-1.4.8 2.7.9 4.2.2 6.1l-.9 3c-.5 2.2-1.6 3-7.4 5-1.5.5-2.7 1-2.8.9 0-.1.7-.5 1.7-.9 5.7-2.3 6.7-3 6.2-4.1-.1-.4-.3-.5-.3-.3v.5c0 .3-1 .8-3.6 1.8a30 30 0 0 0-3.5 1.6 20.8 20.8 0 0 1-9.9 3.3H84zm-22.3-4c-.3-.3-.6-1.1-.7-1.9-.1-.7-.5-2-1-2.8-.3-.8-.6-1.7-.5-2l.2-3.7c0-1.7.2-3.1.3-3.1.1 0 .2.2.2.6.1 5 .7 8 1.8 9 .8.9 2.5 1.3 4.2 1.1 1.4-.2 2-.5 2.3-1.2.1-.3.2-.3.2 0 0 .7.4.6 2.4-.1 1-.4 1.8-.9 2-1.3.4-.6.4-.6.2.3l-.1 2.1c0 .7-.1 1.1-.2 1 0-.3-1 0-7.7 2-2.1.6-3 .6-3.6 0zm22.4-2.5c0-1 .1-1.8.2-1.9 0 0 .7 0 1.3.2l1.2.4-.8.2c-.4.1-.6.2-.5.3.3.1.3.3 0 .8-.3.3-.6.5-.7.4-.2 0-.2 0-.1.2l-.1.3c-.2 0-.3 0-.2.2.1.2 0 .4-.1.5-.2 0-.3-.3-.2-1.6zm-2.4.9c0-.2-.1-.3-.2-.3-.5.1-1 0-.8-.2 0-.1-.3-.5-.9-.7-.8-.4-1-.5-.7-.8.2-.3.4-.3.6 0 .2.3.4.4.4.2s.3-.2.9 0c.8.1.9 0 1-.4l.1 1c0 .8 0 1.4-.2 1.4a.3.3 0 0 1-.2-.2zm-11.3-4.3a9.1 9.1 0 0 1 .1-4.1c.3-1.4.3-2.2.1-3-.1-.6-.2-1.1 0-1.2.1-.1 0-1.3-.3-3.2-.2-1.2-.1-1.5.5-2.8l.6-1.5c-.1 0 0-.2.3-.4.4-.3.4-.4 0-1.1-.2-.5-.4-1.3-.3-1.8 0-.7.3-1 2-1.7 1-.5 1.9-1.1 2-1.3.1-.2.4-.3.6-.3l.7-.4c.2-.2 1.3-.6 2.6-1l3.2-1.3c.6-.3 1.1-.5 1.2-.4l.3 1.9c0 1.3.2 1.7.6 1.8.4 0 .4-.2.6-1.7l.2-3c0-1 0-1.2.2-1 .2.4.5.3 1.5-.5 1.2-.8 1.3-.8.6-.1-.6.7-.6.7 0 .4l.7-.6.5-.2c.5 0 .5 1.4 0 4.4-.3 2.7-.4 2.8-4 2.8-2.7.1-2.8.1-6.6 2.1-2 1.2-4 3.4-4 5L74 212l-.4 1.8c-.2 1.6-.2 1.8.5 3.2.5.8.8 1.6.7 1.7l-.2.5a43.2 43.2 0 0 1-.6 2.6c-.5 2.5-.5 2.6-1.8 3l-1.3.5c-.3.2-.5 0-.6-.4zm-10.7-8.8c0-.3 0-.4.2-.2v.5c-.1.1-.2 0-.2-.3zm0-4c-.7-5.1-.8-6.3-.7-6.4a46 46 0 0 1 .6 6.4zm44.8.6c0-.3-.1-1.1-.5-2l-.5-1.4.7 1c.8 1.2.9 1.8.4 2.5-.2.3-.2.3 0-.1zm-26.1-1.8c.2-2.4 1.3-4 3.4-4.5.6-.1 1.6-.5 2.3-.8.6-.3 1.5-.5 2-.5l2.7-.5c1.7-.5 2.4-.6 3.6-.4l1.6.2-1 .3-3.5.8c-3 .5-7 1.7-8.3 2.6-1 .5-2.6 2.9-2.8 4v-1.2zM59 202.6v-.5 1-.5zm0-3.5v-.1c.2.2.1.4 0 .5v-.4zm-.7-1.8c-.3-.7-.4-1.2-.2-1 .3.3.8 2 .7 2.1l-.5-1.1z" style="fill:#765d46;stroke-width:.264583" transform="translate(-54.1 -184.2)"/>
  <path d="M75.6 236.4c-.5-.4-.6-.9-.8-2.2-.1-1-.5-2.1-.8-2.6-.6-1.1-.7-1.5-.2-2.6.4-.7.4-.7.3 0-.3 1.2 1.4 3.4 3.3 4.4 1 .5 4.2 1.2 4.5 1 .1-.1.3 0 .4.2.3.9.2 1-.8.8-1-.1-1 0-.5.3.5.4.4.5-1.5.7l-2.2.4c-.8 0-1.2 0-1.7-.4zm8.4-1.6v-1h2c2.5 0 5-.9 5-1.8 0-.2-.3-.5-.5-.6-.3-.1-.4-.5-.3-1.3 0-.8.2-1.2.8-1.5.9-.6 1-.6 1 0 0 .4.4.3 2.2-.5.6-.3 1.1-.4 1.2-.3 0 .2.8-.1 1.8-.6l2-.8c.2.2 2.3-1.1 2.6-1.5.2-.3 0-1.5-.3-1.5l-5.8 2.7c-.5.3-1.1.5-1.4.5-.2 0-.5 0-.6.2 0 .1-.3.2-.5.1-.2 0-1 .2-1.6.5-1 .6-1.2.7-1.3.3-.1-.2-.6-.4-1.4-.4-1.1 0-1 0 .7-.3a44.8 44.8 0 0 0 12.1-4 13 13 0 0 1 1.1 4.6c0 .7-.1 1.4-.3 1.7-.2.2-1.5.9-3 1.5-1.4.5-3.1 1.3-3.8 1.7-3.5 2.1-7 3.3-9.9 3.3H84zm15.2-2.7c4.7-2.1 4.5-1.9 4.4-6v-2.5c.2.3.2.2.3-.4 0-.5 0-1-.2-1.1-.3-.3-.1-.6.9-1.8.6-.8 1.3-1.4 1.4-1.3.4.2.8 3.5.7 4.4a35.3 35.3 0 0 1-1.5 5.2c-.3 1.3-1.2 2-4.5 3.4-2.6 1-3.7 1.2-1.5.1zm-37.4-1.3c-.3-.3-.6-1-.8-1.8-.1-.8-.5-2-.8-2.7-.5-1.1-.5-1.5-.3-4.3l.2-3 .1 3.5c.1 2.4.3 3.6.5 3.7.2 0 .5.5.8 1 .5.8.7.9 2 1 .9 0 1.7.3 1.8.5 0 .1.3.2.5 0 .2 0 .3 0 .2.2-.1.2-.3.4-.5.3-.3 0-.3.4 0 .6h.3c0-.1.5-.2 1.2-.1 1.1 0 1.2.1.6.3-4.8 1.5-5 1.5-5.8.8zm3-.5-.4.2c-.3.2-.2.3.1.1.3 0 .4-.2.4-.3zm-.5-.6v-.3c-.2 0-.4.2-.4.3l.1.3.3-.3zm-.6-.9-.3-.3-.3.1c0 .2.2.3.3.3l.3-.1zm20.4-.5c0-1 .1-1.8.2-1.9 0 0 .7 0 1.3.2l1.2.4-.8.2c-.4.1-.6.2-.5.3.3.1.3.3 0 .8-.3.3-.6.5-.7.4-.2 0-.2 0-.1.2l-.1.3c-.2 0-.3 0-.2.2.1.2 0 .4-.1.5-.2 0-.3-.3-.2-1.6zm-14.4.9c1.1-.5 1.4-1 .7-1.7-.3-.3-.1-.4 1.2-1l1.6-.5v.6c0 1.4-.3 1.8-1.7 2.3l-2.1.6c-.7.2-.6 0 .3-.3zm.7-4.3a9.1 9.1 0 0 1 .1-4.1c.3-1.4.3-2.2.1-3-.1-.6-.2-1.1 0-1.2.1-.1 0-1.3-.3-3.2-.2-1.2-.1-1.5.5-2.8l.6-1.5c-.1 0 0-.2.3-.4.4-.3.4-.4 0-1.1-.2-.5-.4-1.3-.3-1.8 0-.7.3-1 2-1.7 1-.5 1.9-1.1 2-1.3.1-.2.4-.3.6-.3l.7-.4c.2-.2 1.3-.6 2.6-1l3.2-1.3c.6-.3 1.1-.5 1.2-.4l.3 2.1v2h-.8c-1 0-1.9.4-4.6 2-2.5 1.4-5.7 5.4-5.4 6.8l-.2.2c-.2 0-.2 1.5 0 2.3l1 2.1.8 1.6-.6 2.8a9.6 9.6 0 0 1-.9 3c-.1.2-.6.4-1 .6l-1.3.4c-.3.2-.5 0-.6-.4zm4.4-1.7c0-.3.1-.7.3-.9.1-.3.2-.2 0 .4-.2 1-.3 1.2-.3.5zm29.5-11.7c0-.5 0-.6.2-.4.1.2.2.5.1.7 0 .2-.2 0-.3-.3zm-21-4.7c.4-.3.9-.7 1-1 .2-.2 1-.4 1.7-.5l2.8-.6c.8-.2 1.8-.3 2.5-.2 1.3.2.8.5-2.1 1-2 .4-4.2 1-6 1.6-.4.1-.4 0 .1-.3zm2-3.9c-.1-1.4 0-3.5.3-3 .2.2.4.2 1 0 .4-.2 1-.3 1.4-.3.7.1 1 1 .7 2.5-.2.7-.4.9-1.4 1.3-1.7.5-1.9.5-2-.5z" style="fill:#60a512;stroke-width:.264583" transform="translate(-54.1 -184.2)"/>
  <path d="M75.6 236.4c-.5-.4-.6-.9-.8-2.2-.1-1-.5-2.1-.8-2.6-.6-1.1-.7-1.5-.2-2.6.4-.7.4-.7.3 0-.3 1.2 1.4 3.4 3.3 4.4 1 .5 4.2 1.2 4.5 1 .1-.1.3 0 .4.2.3.9.2 1-.8.8-1-.1-1 0-.5.3.5.4.4.5-1.5.7l-2.2.4c-.8 0-1.2 0-1.7-.4zm23.6-4.3c4.7-2.1 4.5-1.9 4.4-6v-2.5c.2.3.2.2.3-.4 0-.5 0-1-.2-1.1-.3-.3-.1-.6.9-1.8.6-.8 1.3-1.4 1.4-1.3.4.2.8 3.5.7 4.4a35.3 35.3 0 0 1-1.5 5.2c-.3 1.3-1.2 2-4.5 3.4-2.6 1-3.7 1.2-1.5.1zm-37.4-1.3c-.3-.3-.6-1-.8-1.8-.1-.8-.5-2-.8-2.7-.5-1.1-.5-1.5-.3-4.3l.2-3 .1 3.5c.1 2.4.3 3.6.5 3.7.2 0 .5.5.8 1 .5.8.7.9 2 1 .9 0 1.7.3 1.8.5 0 .1.3.2.5 0 .2 0 .3 0 .2.2-.1.2-.3.4-.5.3-.3 0-.3.4 0 .6h.3c0-.1.5-.2 1.2-.1 1.1 0 1.2.1.6.3-4.8 1.5-5 1.5-5.8.8zm3-.5-.4.2c-.3.2-.2.3.1.1.3 0 .4-.2.4-.3zm-.5-.6v-.3c-.2 0-.4.2-.4.3l.1.3.3-.3zm-.6-.9-.3-.3-.3.1c0 .2.2.3.3.3l.3-.1zm6 .4c1.1-.5 1.4-1 .7-1.7-.3-.3-.1-.4 1.2-1l1.6-.5v.6c0 1.4-.3 1.8-1.7 2.3l-2.1.6c-.7.2-.6 0 .3-.3zm5-6c0-.3.2-.7.4-.9.1-.3.2-.2 0 .4-.2 1-.3 1.2-.3.5zm-2-9.8c0-.4 0-.5.1-.3.1.3.1.6 0 .8v-.5zm31.6-2c0-.4 0-.5.2-.3.1.2.2.5.1.7 0 .2-.2 0-.3-.3zm-31-.4v-.1.5s-.1 0 0-.4zm1.5-2.3.5-1.3c.6-2 4.2-4.1 7-4.4 1.2 0 1.7 0 1.7.2s-.4.3-.8.3c-.9 0-1.3.2-4.6 2-1.3.6-2.2 1.5-3.5 3l-.3.2zm8.5-2c.4-.2.9-.6 1-.9.2-.2 1-.4 1.7-.5l2.8-.6c.8-.2 1.8-.3 2.5-.2 1.3.2.8.5-2.1 1-2 .4-4.2 1-6 1.6-.4.1-.4 0 .1-.3zm2-3.8c-.1-1.4 0-3.5.3-3 .2.2.4.2 1 0 .4-.2 1-.3 1.4-.3.7.1 1 1 .7 2.5-.2.7-.4.9-1.4 1.3-1.7.5-1.9.5-2-.5z" style="fill:#655132;stroke-width:.264583" transform="translate(-54.1 -184.2)"/>
  <path d="M76.3 236.7h.7l-.4.1c-.3 0-.5 0-.3-.1zm-1-.6c-.4-.4-.4-.4 0 0 .3.1.5.3.5.4 0 .2-.2 0-.5-.4zm-1.1-4.2a4 4 0 0 1-.5-1.7v-.9l.4 1 .8 1.6c.3.5.3.7 0 .8-.1 0-.5-.3-.7-.8zm27.3-.7c2-1 2.4-1.8 2.4-4 0-1.6 0-2.1.4-2.5.2-.3.4-.5.2-.5l.1-.4c.2-.1.3-.6.3-1s.1-.8.3-.9c.1 0 0-.4 0-.8-.3-.3-.5-.5-.7-.4l.5-.7c.4-.5.8-.9 1-.9 0 0 .3.6.4 1.4a8 8 0 0 1-.3 4.7 14 14 0 0 0-.6 2.4c-.3 1.2-.6 1.9-1 2.3-1 .8-3 2-3.7 2-.3 0 0-.4.7-.7zm-28.8-3.9c0-.6 0-1 .2-1v1l-.1 1-.1-1zm-12 .4c0-.2.2-.3.3-.2.2 0 .3.2.3.4 0 .1-.1.2-.3.2l-.2-.4zm-.4-1.3c-.2-.4-.3-1.4-.3-2.2v-1.5l.2 1.7.4 2.2c.3.7 0 .5-.3-.2zM75 208.2c0-.5 1-1.9 1.9-2.6a8.8 8.8 0 0 1 5.5-2.5c1.3 0 1.5 0 .7.1a11 11 0 0 0-3.6 1.6l-1.4.8a8 8 0 0 0-2.1 1.7l-1 1zm10.4-2.1c0-.3 2.8-1 3.7-1 .6 0 .4.2-1 .4a34.8 34.8 0 0 0-2.7.6zm0-3.6c0-.7 0-1.1.2-1 0 .2.4.3.8.4 1.3.1 1.4 1.2.2 1.6-1.2.4-1.2.4-1.2-1z" style="fill:#4c3629;stroke-width:.264583" transform="translate(-54.1 -184.2)"/>
</svg>