<svg xmlns="http://www.w3.org/2000/svg" width="277.3" height="277.3" viewBox="0 0 73.4 73.4">
  <path d="M44.5 209.8v-36.6h73.4v73.3H44.5Z" style="fill:#fefefe;stroke-width:.352778" transform="translate(-44.5 -173.2)"/>
  <path d="M74.7 241.4a31 31 0 0 1-18.8-8.7c-3.5-3.4-4.7-6.3-6.1-14-.6-3.4-1.4-6.8-1.8-7.5a37 37 0 0 1-2.2-7.7l-.2-1.2.5 1 .5 1V203c-.2-1.3 0-1.5 1-1.9 1.3-.4 1.3-.4-.5-.2l-1.8.2.7-2.4c1.3-4.4 2.2-5.8 6.7-9.9 1-1 3.8-2.5 3.8-2l1.8-.9a47.9 47.9 0 0 1 24.8-5.2 50.4 50.4 0 0 1 17 2.7c5.6 2 8.6 3.8 12 6.8 2.3 2 4.5 6.3 4.9 9.2.3 2-.4 5.9-1.6 10l-2 9.2-1.7 8.3c-1.7 4.6-10 11.1-17.3 13.2a48.5 48.5 0 0 1-19.7 1.3z" style="fill:#ccd0c9;stroke-width:.352778" transform="translate(-44.5 -173.2)"/>
  <path d="M75.5 241.4c-10.4-1.4-18-5.5-22.2-12-1.7-2.6-2.2-4-3.5-11A49 49 0 0 0 48 211c-.8-2-2-6.1-2-7 0-.4.4.3.7 1.4 1 2.5 2.9 5.3 3.5 5 .3 0 .8.1 1.2.5.3.3.7.5.8.3.2 0-.2-.6-.8-1-.8-.8-.9-1-.5-1.3a2 2 0 0 1 1-.3l-.2.2c-.7.3-.4.7.6.7.7 0 1-.2 1-.8 0-.5-.2-.7-.3-.6-.2 0-.5-.2-.9-.6-.7-.9-1.4-1-1.6-.2-.2.3 0 .5.3.5s.4.2.3.4c-.3.5-.8.4-1-.3-.2-.4 0-.8.5-1.2.7-.5.7-.8.4-1-.3-.1-.4-.4-.3-.7.2-.2.1-.3 0-.3-.3 0-.5-.4-.5-.8 0-.5-.2-.7-1.3-.7-1 0-1.3 0-1.3-.6 0-.4.3-.8.6-.9.3 0 .5 0 .4.2-.2.4.3.4.9 0l.4-.6c-.1-.2.3-.5.9-.6a26 26 0 0 0-4.5.3c-.4.1-.6 0-.6-.3 0-.6.6-1.7.7-1.1 0 .3.5.4 1.6.3 2-.2 2.5-.5.8-.5-1 0-1-.1-.6-.6.4-.6.4-.6-.2-.4-.7.3-1.6 0-1.6-.5 0-.2.1-.2.3-.1.2.1.5 0 .6-.3.1-.5.3-.5 1.3 0 .6.2 1.4.2 1.8 0l.7-.2-.7-.3c-.7-.3-1-1.5-.5-1.5.2 0 .3-.2.3-.4s-.2-.3-.5-.2c-.4.1-.5 0-.5-.7 0-.4.2-.8.4-.8s.2.1.1.3c0 .1.1.5.5.8.6.6.7.6 1.4 0 .7-.4.7-.6.4-.8-.4-.2 0-.3 1-.3 1.4 0 1.5 0 1-.6-.6-.5-.6-.6-.1-1l1.4-.3c1 0 1.2-.4.6-.8-.2-.1-.6 0-1 .1-.4.3-.8.2-1.3-.2-.7-.5-.7-.5 0-.3a2 2 0 0 0 1.5-.1c.5-.3.5-.4-.3-.3h-1.6c-1-.2 2.6-.9 4.1-.8h1.2l-1.2-.5c-.6-.3-1.4-.5-1.6-.5-.3 0-.5-.2-.5-.4v-.3c.3 0 4.4 1.3 5 1.6.6.2.7.1.5-.7 0-.6 0-1 .3-.9.2 0 .6 0 1-.2.3-.1.9 0 1.3.2.6.3.7.2.7-.2s.2-.5.5-.4c.4.1.6 0 .6-.5 0-.9.6-.9 1.7-.1l1 .6-.7-.8c-.7-.7-.7-.7.4-.7.6 0 1.3-.2 1.5-.4.3-.5.4-.4.8 0 .6 1 1 .9.7 0-.2-.8-.2-.8.3-.4s.6.4.8-.1c.2-.4.4-.5.7-.2.2.2.8.2 1.4 0l1-.3-.9-.3a3 3 0 0 1-1.2-.8c-.5-.8 1.4.4 2.4 1.5l1 1.1-.3-1a20 20 0 0 0-1-2c-.4-.8-.4-1 0-1.2.3 0 .9.3 1.3.8.5.6.8.8 1 .5 0-.2.4-.4.6-.4.4 0 .5-.2.4-.6-.1-.2 0-.5.1-.5.2 0 .4.2.4.4s.7.2 1.6.1h1.3c-.3.2-.5.4-.5.6 0 .4 1 .3 1.8-.2.3-.2.4-.2.2 0-.3.7 1.2.9 1.8.3.4-.5.5-.5 1 0 .5.8 1.2.5 1-.5-.2-.6 0-.7.8-.7.9 0 1 .1.3.4-.6.2-.6.3.3.7.8.4 1.1.4 1.2 0 .1-.2.3-.3.5-.2.2.1.6 0 1-.2.3-.4.4-.4.2 0-.1.2 0 .4.1.4.2 0 .3.2.2.5-.1.2 0 .6.2.7.2.1.4 0 .4-.5 0-.9.6-1.3 1.2-.7.2.2.7.2 1 .1.6-.2.6-.1.3.6-.5.7-.5.7.4.2.6-.5 1.3-.6 2-.4 1.8.3 3.3 1 3.6 1.5a29.2 29.2 0 0 1 8.1 4.2l2.2 1.2c1.7 0 5 4.8 6 8.8.6 2 .6 2.5 0 5.6a39 39 0 0 1-1.2 5.5c-.4 1.2-1.3 5.5-2 9.6-1.7 8.5-2.3 10-5.1 12.8a46.5 46.5 0 0 1-11.1 7.4 45.3 45.3 0 0 1-21.7 2.3zm12.7-21.7c0-.2-.1-.3-.3-.3-.2 0-.4.1-.4.3 0 .2.2.4.4.4s.3-.2.3-.4zm1-1.5c-.2-.7-.6-1.3-.7-1.3-.2 0-.2.3-.1.6l.4 1.6c.1.6.4.9.5.7.2-.1.1-.9-.1-1.6zm9 0a31 31 0 0 0 11.5-6.2c.4 0 .8-1 .6-1.5-.1-.2-1 .4-1.9 1.3-.8.9-1.7 1.6-2 1.6-.2 0 0-.4.6-.9 1.1-1 1.2-1.2.5-1.2-.3 0-.6 0-.6.2s-.8.7-1.9 1.3c-1.7.9-2 1-2.5.5-.6-.4-.6-.4-.4.1.1.4 0 .7-.7 1-1 .5-1.9.5-1.9 0 0-.2-.2-.2-.5.1-.2.3-.4.6-.3.7.1.2-.2.3-.6.3-.4 0-.7.1-.7.3 0 .4-3.2 1-4.5.8-1.2-.1-1.4-.4-1.7-1.4 0-.6-1.5-2.5-1.5-2l3 6.3c.4.3 1.7 0 5.5-1.2zm6-4.1c.2-.2.6-.4 1-.4s.4 0 0 .4c-.7.4-1.2.4-1 0zM70 218.5a3 3 0 0 0-1.4-.7c-1.2-.3-1.4-.9-.4-.9.4 0 .8-.3.9-.6.2-.4.1-.5-.3-.2-.2.2-.8.3-1.2.2-.5-.1-1 0-1.1.2-.2.4-.5.4-1 .1-.5-.3-.5-.4 0-.4.3 0 .6-.2.7-.5.1-.3.5-.4 1-.3.8.1.9 0 .9-1.8 0-1-.2-2-.3-2.2-.1-.1-.7 0-1.1.3l-1 .6.8-1.3c.6-1 0-.6-3 2.2a38 38 0 0 0-3.6 3.6l10 2.2c.4 0 .4 0 .1-.5zm18-4.4c0-.2-.2-.4-.4-.6-.2 0-.3 0-.3.4 0 .3.1.5.3.5.2 0 .4-.1.4-.3zm-18.6-2.2a.7.7 0 0 0-.5-.3c-.2 0-.3.1-.3.3 0 .2.2.3.5.3s.4-.1.3-.3zm12.8-.4c.9 0 1.6-.1 1.6-.3 0-.2-.9-.3-1.9-.3l-3.3-.1c-.7 0-1.4 0-1.4.3 0 .2.2.3.5.2.4 0 1 0 1.5.3.5.1 1 .2 1.2 0H82zm3.3-.3c0-.2-.2-.3-.5-.3s-.5.1-.5.3c0 .2.2.3.5.3s.5-.1.5-.3zm1.6 0c-.1-.1-.4-.3-.7-.3-.3 0-.5.2-.4.4.2.1.5.3.8.3.3 0 .4-.2.3-.3zm-11-.5c0-.2-.2-.4-.6-.4-.4-.1-.5 0-.3.4.2.6.8.6.9 0zm-1.5 0c0-.3-.7-.5-.9-.2-.1.2 0 .4.3.4s.6 0 .6-.2zm14.3-.2c0-.1 0-.3-.2-.3s-.4.2-.4.3l.2.4.4-.4zm-34.3-.2h-1c-.2.1 0 .2.5.2s.7 0 .5-.2zm15.5-.6c.1.2.8.3 1.6.4 1 0 .8 0-1-.6-2.3-.7-3.2-.7-3.2 0 0 .1.3.2.7 0 .5 0 .7 0 .7.3 0 .4.2.4.5 0 .3-.1.6-.2.7 0zm-3.8-1.5c-1-.7-1.3-.6-.6.2.3.3.7.5 1 .5 0-.1 0-.4-.4-.7zm-3.4-2c0-.1-.3-.4-.8-.6-.7-.4-.7-.4 0 .2.7.5.8.6.8.4zm39.4-2.3c-.1 0-.4 0-.6.3-.4.3-.4.3.2.2.3-.2.5-.4.4-.5zm-41.5-.2-.5-.6c-.5-.3-.5-.3-.3.2s.8.8.8.4zm-1.6-2.1c-.1-.3-.4-.6-.5-.6-.2 0-.2.3 0 .7.6.8.8.7.5-.1zm-1-1.8c0-.3-.4-.4-.7-.3-.5.2-.5.3 0 .7.8.5 1 .4.7-.4zm-7.3-4-.1-.4-.4.3c-.1.2 0 .4.2.4s.3-.2.3-.4zm1.5-.4-.2-.4-.4.4c0 .2 0 .3.2.3s.4-.1.4-.3zm13.2-6.7c.1-.2 0-.3-.3-.2-.7.3-.8.5-.3.5.2 0 .5-.1.6-.3zm29.7-5.4.6-.8-.9.7-1 .8h.2c.2 0 .7-.3 1-.7zm-1.8-.3c0-.2 0-.2-.4-.1-.6.2-.7.5-.2.5.2 0 .4-.2.6-.4zm-44.8 23c-.2-.2 0-.4.5-.4.4 0 .6.2.5.4-.1.2-.3.3-.5.3s-.4-.1-.5-.3zm-.7-1c-.4-.4-.2-1.2.3-1.2.4 0 .5.2.3.5s-.1.3.3 0c.3-.3.7-.3.8-.2.2.4-1.4 1.2-1.7.9zm.4-8.4c.3-.2.6-.1.7 0 .1.1-.1.2-.5.2s-.5-.1-.2-.2zm-.2-.7c-.6-.3-.5-1 .2-1.6.5-.4.5-.4.3.1l.1.8c.4.3.5.9.1.9l-.7-.2zm1.6-3.5c0-.3.2-.5.3-.5l.1.5c0 .3-.1.5-.3.5-.2 0-.2-.2-.1-.5zm1 .2c-.1-.2 0-.4.1-.4.2 0 .4.2.4.4s0 .3-.2.3l-.3-.3zm1.1-.3h.7c.1.2 0 .2-.4.2-.5 0-.5 0-.3-.2zm16.2-9c-.2-.1 0-.3.3-.3s.5.2.5.4-.1.3-.3.3a.5.5 0 0 1-.5-.3z" style="fill:#d5caad;stroke-width:.352778" transform="translate(-44.5 -173.2)"/>
  <path d="M75.5 241.4c-10.4-1.4-18-5.5-22.2-12-1.7-2.6-2.2-4-3.5-11A49 49 0 0 0 48 211c-.8-2-2-6.1-2-7 0-.4.4.3.7 1.4 1 2.5 2.9 5.3 3.5 5 .3 0 .8.1 1.2.5.3.3.7.5.8.3.2 0-.2-.6-.8-1-.8-.8-.9-1-.5-1.3a2 2 0 0 1 1-.3l-.2.2c-.7.3-.4.7.6.7.7 0 1-.2 1-.8 0-.5-.2-.7-.3-.6-.2 0-.5-.2-.9-.6-.7-.9-1.4-1-1.6-.2-.2.3 0 .5.3.5s.4.2.3.4c-.3.5-.8.4-1-.3-.2-.4 0-.8.5-1.2.7-.5.7-.8.4-1-.3-.1-.4-.4-.3-.7.2-.2.1-.3 0-.3-.3 0-.5-.4-.5-.8 0-.5-.2-.7-1.3-.7-1 0-1.3 0-1.3-.6 0-.4.3-.8.6-.9.3 0 .5 0 .4.2-.2.4.3.4.9 0l.4-.6c-.1-.2.3-.5.9-.6a26 26 0 0 0-4.5.3c-.4.1-.6 0-.6-.3 0-.6.6-1.7.7-1.1 0 .3.5.4 1.6.3 2-.2 2.5-.5.8-.5-1 0-1-.1-.6-.6.4-.6.4-.6-.2-.4-.7.3-1.6 0-1.6-.5 0-.2.1-.2.3-.1.2.1.5 0 .6-.3.1-.5.3-.5 1.3 0 .6.2 1.4.2 1.8 0l.7-.2-.7-.3c-.7-.3-1-1.5-.5-1.5.2 0 .3-.2.3-.4s-.2-.3-.5-.2c-.4.1-.5 0-.5-.7 0-.4.2-.8.4-.8s.2.1.1.3c0 .1.1.5.5.8.6.6.7.6 1.4 0 .7-.4.7-.6.4-.8-.4-.2 0-.3 1-.3 1.4 0 1.5 0 1-.6-.6-.5-.6-.6-.1-1l1.4-.3c1 0 1.2-.4.6-.8-.2-.1-.6 0-1 .1-.4.3-.8.2-1.3-.2-.7-.5-.7-.5 0-.3a2 2 0 0 0 1.5-.1c.5-.3.5-.4-.3-.3h-1.6c-1-.2 2.6-.9 4.1-.8h1.2l-1.2-.5c-.6-.3-1.4-.5-1.6-.5-.3 0-.5-.2-.5-.4v-.3c.3 0 4.4 1.3 5 1.6.6.2.7.1.5-.7 0-.6 0-1 .3-.9.2 0 .6 0 1-.2.3-.1.9 0 1.3.2.6.3.7.2.7-.2s.2-.5.5-.4c.4.1.6 0 .6-.5 0-.9.6-.9 1.7-.1l1 .6-.7-.8c-.7-.7-.7-.7.4-.7.6 0 1.3-.1 1.4-.4.2-.2.5-.3.7-.2.7.4.4.8-.6 1-.7.1-.7.2.4.2.9 0 1.3.2 1.1.4-.1.2-.5.3-.8.2-.3-.1 0 .2.7.8 1 1 1.2 1 1.3.4 0-.4 0-1-.3-1.2-.4-.5-.1-.9.8-.9.5 0 1.3.9 2.6 2.8h.4c0-.2-.3-1-1-1.7-.8-1.1-1.3-1.4-2.3-1.5-.8 0-1.4-.3-1.5-.7-.1-.4 0-.4.4 0 .5.4.6.4.8-.1.2-.4.4-.5.7-.2.2.2.8.2 1.4 0l1-.3-.9-.3a3 3 0 0 1-1.2-.8c-.5-.8 1.4.4 2.4 1.5l1 1.1-.3-1a20 20 0 0 0-1-2c-.4-.8-.4-1 0-1.2.3 0 .9.3 1.3.8.5.6.8.8 1 .5 0-.2.4-.4.6-.4.4 0 .5-.2.4-.6-.3-.6 0-.6.7 0 .4.5.7.5 1 .2.1-.2.7-.3 1.2-.3s.7.1.5.2c-.3.1-.5.3-.5.5 0 .4 1 .3 1.8-.2.3-.2.4-.2.2 0-.3.7 1.2.9 1.8.3.4-.5.5-.5 1 0 .5.8 1.2.5 1-.5-.2-.6 0-.7.8-.7.9 0 1 .1.3.4-.6.2-.6.3 0 .5.8.4.4.8-1.7 1.4l-2 .8c-.2 0 .4.8 1.2 1.7 1.6 1.6 1.7 1.8.5 1.2-1.1-.6-1.6.1-.7 1 1.1 1.1 3.4 1 3.7 0 .4-1.5.3-1.9-1-2.4-.8-.3-1.5-.5-1.7-.4-.1 0-.2-.1-.2-.3 0-.2-.4-.4-.8-.4-.7 0-.7 0-.3-.3.9-.6 2-.4 3.3.5l1.2.8.5-1.7c.3-1.3.6-1.7 1-1.7.5 0 .6.2.5.5-.1.2 0 .6.2.7.2.1.4 0 .4-.5 0-.9.6-1.3 1.2-.7.2.2.7.2 1 .1.6-.2.6-.1.3.6-.5.7-.5.7.4.2.6-.5 1.3-.6 2-.4 1.8.3 3.3 1 3.6 1.5a29.2 29.2 0 0 1 8.1 4.2l2.2 1.2c1.7 0 5 4.8 6 8.8.6 2 .6 2.5 0 5.6a39 39 0 0 1-1.2 5.5c-.4 1.2-1.3 5.5-2 9.6-1.7 8.5-2.3 10-5.1 12.8a46.5 46.5 0 0 1-11.1 7.4 45.3 45.3 0 0 1-21.7 2.3zm12.7-21.7c0-.2-.1-.3-.3-.3-.2 0-.4.1-.4.3 0 .2.2.4.4.4s.3-.2.3-.4zm1-1.5c-.2-.7-.6-1.3-.7-1.3-.2 0-.2.3-.1.6l.4 1.6c.1.6.4.9.5.7.2-.1.1-.9-.1-1.6zm9 0a31 31 0 0 0 11.5-6.2c.4 0 .8-1 .6-1.5-.1-.2-1 .4-1.9 1.3-.8.9-1.7 1.6-2 1.6-.2 0 0-.4.6-.9 1.1-1 1.2-1.2.5-1.2-.3 0-.6 0-.6.2s-.8.7-1.9 1.3c-1.7.9-2 1-2.5.5-.6-.4-.6-.4-.4.1.1.4 0 .7-.7 1-1 .5-1.9.5-1.9 0 0-.2-.2-.2-.5.1-.2.3-.4.6-.3.7.1.2-.2.3-.6.3-.4 0-.7.1-.7.3 0 .4-3.2 1-4.5.8-1.2-.1-1.4-.4-1.7-1.4 0-.6-1.5-2.5-1.5-2l3 6.3c.4.3 1.7 0 5.5-1.2zm6-4.1c.2-.2.6-.4 1-.4s.4 0 0 .4c-.7.4-1.2.4-1 0zM70 218.5a3 3 0 0 0-1.4-.7c-1.2-.3-1.4-.9-.4-.9.4 0 .8-.3.9-.6.2-.4.1-.5-.3-.2-.2.2-.8.3-1.2.2-.5-.1-1 0-1.1.2-.2.4-.5.4-1 .1-.5-.3-.5-.4 0-.4.3 0 .6-.2.7-.5.1-.3.5-.4 1-.3.8.1.9 0 .9-1.8 0-1-.2-2-.3-2.2-.1-.1-.7 0-1.1.3l-1 .6.8-1.3c.6-1 0-.6-3 2.2a38 38 0 0 0-3.6 3.6l10 2.2c.4 0 .4 0 .1-.5zm18-4.4c0-.2-.2-.4-.4-.6-.2 0-.3 0-.3.4 0 .3.1.5.3.5.2 0 .4-.1.4-.3zm-18.6-2.2a.7.7 0 0 0-.5-.3c-.2 0-.3.1-.3.3 0 .2.2.3.5.3s.4-.1.3-.3zm12.8-.4c.9 0 1.6-.1 1.6-.3 0-.2-.9-.3-1.9-.3l-3.3-.1c-.7 0-1.4 0-1.4.3 0 .2.2.3.5.2.4 0 1 0 1.5.3.5.1 1 .2 1.2 0H82zm3.3-.3c0-.2-.2-.3-.5-.3s-.5.1-.5.3c0 .2.2.3.5.3s.5-.1.5-.3zm1.6 0c-.1-.1-.4-.3-.7-.3-.3 0-.5.2-.4.4.2.1.5.3.8.3.3 0 .4-.2.3-.3zm-11-.5c0-.2-.2-.4-.6-.4-.4-.1-.5 0-.3.4.2.6.8.6.9 0zm-1.5 0c0-.3-.7-.5-.9-.2-.1.2 0 .4.3.4s.6 0 .6-.2zm14.3-.2c0-.1 0-.3-.2-.3s-.4.2-.4.3l.2.4.4-.4zm-34.3-.2h-1c-.2.1 0 .2.5.2s.7 0 .5-.2zm15.5-.6c.1.2.8.3 1.6.4 1 0 .8 0-1-.6-2.3-.7-3.2-.7-3.2 0 0 .1.3.2.7 0 .5 0 .7 0 .7.3 0 .4.2.4.5 0 .3-.1.6-.2.7 0zm-3.8-1.5c-1-.7-1.3-.6-.6.2.3.3.7.5 1 .5 0-.1 0-.4-.4-.7zm-3.4-2c0-.1-.3-.4-.8-.6-.7-.4-.7-.4 0 .2.7.5.8.6.8.4zm39.4-2.3c-.1 0-.4 0-.6.3-.4.3-.4.3.2.2.3-.2.5-.4.4-.5zm-41.5-.2-.5-.6c-.5-.3-.5-.3-.3.2s.8.8.8.4zm-1.6-2.1c-.1-.3-.4-.6-.5-.6-.2 0-.2.3 0 .7.6.8.8.7.5-.1zm31.1-.6c0-.3-.1-.2-.2.2 0 .3.1.6.2.4v-.6zm-32-1.2c-.2-.3-.5-.4-.8-.3-.5.2-.5.3 0 .7.8.5 1 .4.7-.4zm30.8-3.4-1.3-3.8c-.3-.2-.3-.1 1.1 4.5.5 1.8 1 3.2 1.1 3 0 0-.3-1.7-1-3.7zm-38.2-.7-.1-.3-.4.3c-.1.2 0 .4.2.4s.3-.2.3-.4zm1.5-.3-.2-.4-.4.4c0 .2 0 .3.2.3s.4-.1.4-.3zm30-5.5-2.2-.6c-1-.2-.9-.1.6.4 2 .8 2.8.9 1.5.2zm-16.8-1.2c.1-.2 0-.3-.3-.2-.7.3-.8.5-.3.5.2 0 .5-.1.6-.3zm13.1.1H78c-.2.1-.2.2.3.2.3 0 .5 0 .4-.2zm2.2-.4c0-.2-.2-.3-.5-.3s-.5.1-.5.3c0 .1.2.3.5.3s.5-.2.5-.3zM78 188c0-.5-2.4-1.8-2.6-1.4-.2.3 0 .4 1.5 1.2 1.1.6 1.1.6 1.1.2zm5.3-2.6c-.2-.3-.2-.6-.1-.7.1-.2 0-.3-.2-.3-.5 0-.5.5 0 1 .6.6.8.6.3 0zm11.9-2.1.6-.8-.9.7-1 .8h.2c.2 0 .7-.3 1-.7zm-1.8-.3c0-.2 0-.2-.4-.1-.6.2-.7.5-.2.5.2 0 .4-.2.6-.4zm-44.8 23c-.2-.2 0-.4.5-.4.4 0 .6.2.5.4-.1.2-.3.3-.5.3s-.4-.1-.5-.3zm-.7-1c-.4-.4-.2-1.2.3-1.2.4 0 .5.2.3.5s-.1.3.3 0c.3-.3.7-.3.8-.2.2.4-1.4 1.2-1.7.9zm.4-8.4c.3-.2.6-.1.7 0 .1.1-.1.2-.5.2s-.5-.1-.2-.2zm-.2-.7c-.6-.3-.5-1 .2-1.6.5-.4.5-.4.3.1l.1.8c.4.3.5.9.1.9l-.7-.2zm1.6-3.5c0-.3.2-.5.3-.5l.1.5c0 .3-.1.5-.3.5-.2 0-.2-.2-.1-.5zm1 .2c-.1-.2 0-.4.1-.4.2 0 .4.2.4.4s0 .3-.2.3l-.3-.3zm1.1-.3h.7c.1.2 0 .2-.4.2-.5 0-.5 0-.3-.2zm16.2-9c-.2-.1 0-.3.3-.3s.5.2.5.4-.1.3-.3.3a.5.5 0 0 1-.5-.3z" style="fill:#bdc1ba;stroke-width:.352778" transform="translate(-44.5 -173.2)"/>
  <path d="M75.7 241.4a32.2 32.2 0 0 1-20.3-9.3c-3.1-3.3-4-5.5-5.4-13-.7-3.6-1.6-7.2-2-8a27 27 0 0 1-1.7-5.8c0-.3.5.5 1 1.7 1.2 2.4 4.2 5.7 4.6 5 .1-.2.9 0 2 .5.8.5 1.7.8 1.8.8 0-.1-.2-.3-.7-.5-.7-.2-.7-.3.6-.7.8-.2 1.2-.4.8-.5-.7 0-1-1-.5-1.3.2-.1.2 0 .1.2s0 .4.1.4c.2 0 .4-.2.4-.3 0-.2.3-.4.8-.3.5 0 .8-.1.8-.4 0-.3.3-.6.7-.8.4-.2 0-.2-.9 0-.9 0-2 .3-2.4.5-.6.3-1 .2-1.5-.3l-.7-.7 1.1-.6 1.2-.6h-1.3c-1 0-1.3-.2-1.3-.6 0-.4-.2-.5-.6-.3-.3 0-.4 0-.3-.2.1-.2 0-.6-.3-1-.4-.5-.3-.5.3-.3.4.2.6.2.4 0-.1 0 0-.4.2-.7.4-.5.3-.5-.5-.3-.5.1-1 0-1.2-.2-.1-.1.1-.3.6-.3.4 0 .6-.1.5-.3-.1-.2.3-.6 1-1l1.1-.5-1.2.2c-.7.2-1.3.4-1.4.6-.1.3-1.5-.5-1.5-.9 0-.1.3-.2.7 0 .3 0 1 0 1.6-.2 1-.3 1-.3-.3-.4h-1.4l1.2-.3 3.2-.6 2-.2 1.3 2.1c1.5 2.5 4 5 4.8 5 .2 0 .3.2.2.4-.1.2 0 .3.5.3.4 0 .7.2.7.4s.2.3.5.3c1 0 .6.7-1 1.6a6 6 0 0 0-2 1.7c-.5.9-.3.8 2.6-1.4 2.2-1.7 2.7-2.2 2-2.2-.5 0-6-3.6-6-4l-1.2-2a9 9 0 0 1-1.2-2.4c0-.3-.4-.4-1.2-.3a181 181 0 0 1-11.5 1.4c-.4-.3.4-.6 2.7-.9 2.3-.3 2.6-.5 3-1.4.3-.6.7-1 1.1-1 1 0 1.8-.5 1.3-.9-.5-.3-.5-.9 0-.9.3 0 .7-.4 1-1 .4-.9.6-1 1.2-.9.7.2.7.2 0-.5-.8-.7-.8-.7-.2-.8h.9c.1 0 .2-.1.2-.3 0-.2.4-.3.8-.2.5.1.6.1.4 0-.3-.1-.3-.5 0-1.2.2-1 .2-1-.6-.9-.6.2-.6.2-.2-.1.3-.2.8-.3 1-.3l2 .4c1 .1.5-.1-1.7-1-3-1-4.6-2-2.5-1.3l3 .9c1 .3 2 .5 2.3.4.3-.1.4 0 .3.1-.1.2 0 .4.1.4.2 0 .7 0 1 .2.5.2.6.1.3-.2-.3-.3-.4-.7-.3-1 .2-.5 2.3-.6 2.3 0 0 .1-.2.3-.4.3s-.3.1-.3.3c0 .2.4.2 1 0 1.2-.4 2-1.2.8-.9a1 1 0 0 1-1.2-.3c-.4-.6-.4-.6.3-.4.7.2.8.2.6-.3-.2-.5-.1-.6.5-.2.6.3.8.3 1.1-.3.3-.6.8-.7 1.8-.7s1.4 0 1.2.3c-.1.2-.5.3-.8.2-.3-.1 0 .2.7.8 1 1 1.2 1 1.3.4 0-.4 0-1-.3-1.2-.4-.5-.1-.9.8-.9.5 0 1.3.9 2.6 2.8h.4c0-.2-.2-.7-.6-1.2-.4-.6-.7-1.2-.7-1.5 0-.2-.2-.5-.4-.5a.4.4 0 0 1-.3-.3c0-.6 1.6-.2 2.5.5l.7.7-.5-1.2-1-2.2c-.3-.7-.3-1.1 0-1.4.2-.2.5 0 1.1 1.1.5.8 1 1.4 1.1 1.4.2 0 .2.2.1.4-.2.3-.1.4.2.2.3-.2.3-.4 0-.7-.6-.6-.4-1.3.3-1.1.4.1 1-.1 1.6-.6l1-.7.6.8c.4.5.7 1 .7 1.2l.6-.2c.3-.2.8-.3 1.3-.2h1.1c.2-.3.7-.3 1.1-.1.6.2.5.3-.6.8l-1.3.6 1.5 1.6c1.6 1.6 1.7 1.8.5 1.2-1.1-.6-1.6.1-.7 1 1.1 1.1 3.4 1 3.7 0 .4-1.5.3-1.9-1-2.4-.8-.3-1.5-.5-1.7-.4-.1 0-.2-.1-.2-.3 0-.2-.4-.4-.8-.4-.7 0-.7 0-.3-.3.9-.6 2-.4 3.3.5l1.2.8.5-1.7c.5-1.8 1.2-2.3 1.4-1 .1.8.8 1 2.2 1 .3 0 .6.2.6.4s-.2.3-.4.3c-.3 0-.3.2-.2.3.1.1.9-.4 1.6-1.1 1.7-1.6 2.4-1.4.9.2l-1 1.1 1.1-.8a7 7 0 0 0 1.3-1c.2-.3.4-.4.6-.4.3 0 .3 0 .2.2-.3.3.8 1.3 1.2 1h.3l-1 .7c-.8.5-.8.5-.1.5.4 0 .8.2 1 .4 0 .2.6.4 1.2.4s1 .1 1 .3c0 .6 1 .4 1.4-.2.3-.6.4-.6 1.3 0 .8.6 1 .7.5.8-.4.1-.7.4-.8.7-.2.4 0 .5.5.3.6-.2.7-.1.5.2-.2.3 0 .4.7.2.6 0 .9 0 .8.3-.2.3 0 .4.6.4 1 0 1.2-.4.3-.7-.3-.1-.5-.3-.4-.4.1-.2.7.1 1.3.6 1 .7 1 .8.5 1-.5.2-.4.3.4.3.5 0 1.4.4 2 .8l1 .8-.7.3c-.7.1-.6.2.3.1a4 4 0 0 0 1.1 0l-1.1-1.3-1.2-1.1 1.2.8a16 16 0 0 1 5 9c.4 1.9-.1 5.8-1.4 10a170 170 0 0 0-2.1 9.9 52 52 0 0 1-2.3 9.2 34.1 34.1 0 0 1-14.8 11.2 48 48 0 0 1-20.5 2zm1.8-10.7c.1-.2-.1-.4-.5-.4s-.8.2-.8.4.3.3.6.3c.2 0 .6-.1.7-.3zm12.1-11c0-.5-.6-2.6-1.3-4.7l-1.3-4h-2a93 93 0 0 1-14-1.6l-2.9-.7-4.1 3.8-4.3 4.1c-.1.3 1.6.8 6.2 1.7 3.9.8 7.9 1.4 7.9 1.2 0-.5-1-1.1-1.3-.8-.4.4-3-.5-3-1l.8-.9c.3-.4.7-.6.7-.4 0 .1.3 0 .6-.4.8-.7 2-.5 1.6.4-.1.3 0 .5.1.5.2 0 .5-.3.6-.7.1-.5 0-.7-.3-.7s-.5-.2-.5-.4.3-.3.7-.3c.4 0 .7-.3.9-.9.2-.9 1.9-1.5 1.9-.7 0 .3-.2.6-.4.7-.2.1-.3.5-.2.7.1.2 0 .6-.2.8-.3.3-.2.4.2.4.3 0 .6-.1.6-.3 0-.2.2-.4.4-.4.1 0 .3.5.3 1 0 .7.2 1.2.4 1.2s.3-.2.2-.4c-.2-.2 0-.4.1-.6.3 0 .6 0 .8.3.2.4.3.4.3 0 0-.3.2-.4.5-.3.3.1.4 0 .3-.3-.1-.4 0-.5.4-.3.3.1.5 0 .5-.3 0-.6-1.5-.7-2.3-.2-.2.2-.7 0-1-.4-.6-.6-.6-.7 0-1 .7-.4.7-.4 0-1-.4-.2-1-.4-1.2-.3-.6.2-1-.6-.4-.9.6-.3 1.4 0 2 .7.2.3.5.4.7.3.1-.2 0-.5-.2-.7-.8-.4-.1-.4.7 0 .7.5.7.5 0 1.3-.7.7-.7.8-.2 1 .8.3 1.2.3 1.2-.2 0-.2-.2-.3-.5-.1-.4.1-.4-.1.2-1 1-1.5 1.2-1.6 1-.9-.2.4-.1.7 0 .7.2 0 .4-.2.4-.3 0-.2.5-.3 1-.4 1.2 0 1.3.3.7 1.5-.3.7-.3.7.4-.1.6-.7.8-.8 1-.4.2.3.5.3.7.2.3-.2.3-.4 0-.7-.2-.3-.2-.5.2-.7 1-.3 1.6.2 1.6 1.4 0 .7-.2 1.1-.4 1-.2-.1-.3 0-.1.2.1.2.4.4.7.4.3 0 .6.1.6.3l.3 1.3v1.3c.1 1 0 1.2-.8 1.3-1 0-1.3.9-.5 1.2l1.7.2c1.2 0 1.3 0 1.3-.8zm-18.1-6c-.1-.2 0-.6.1-.8.2-.3.3-.6.1-.7-.1-.2 0-.5.5-.8.8-.6 1.4-.7 1 0-.1.2 0 .2.2 0 .2 0 .7.1 1.1.5l.8.7h-.9l-1.3-.4c-.2-.2-.4-.1-.4 0 0 .3.5.7 1 1 .5.3.7.5.3.4-.3-.1-.6 0-.6.1 0 .5-1.6.5-2 0zm1.6-.3c0-.2-.2-.4-.4-.4s-.3.2-.3.4.1.3.3.3c.2 0 .4-.1.4-.3zm-4-2.5c0-.4.3-.8.4-.9.2-.1.4.1.4.6 0 .6.2.7.7.6h.5c-.1.3-.6.4-1 .4-.7 0-1-.2-1-.7zm-1.7-.3c0-.2.3-.5.6-.8.4-.3.5-.3.5.1 0 .3-.3.7-.5.8l-.6-.1zm10.8 9.1c-.1-.2-.4-.3-.6-.3-.1 0-.3.1-.3.3 0 .2.3.4.6.4s.4-.2.3-.4zm21.9-2a30 30 0 0 0 9.5-5.3c2.4-2 3-2.7 2.4-3.3-.4-.3-3.7 1-4 1.5 0 .2-.4.3-1 .3-.4 0-.8.1-.8.3 0 .2-.6.4-1.3.6-.8.1-2.1.6-3.1 1-1.2.6-1.9.8-2.2.5-.2-.2-.4-.2-.4 0s-.4.5-1 .7c-.7.4-1 .4-1.4 0-.3-.2-.5-.2-.4 0 .1.7 0 1.2-.5 1a1 1 0 0 0-1 .2c-.1.3-.3.3-.3.2h-.9c-.7.4-.9.3-.9-.1s.2-.5.6-.4c.5.2.5.1-.1-.4-.4-.4-1-.8-1.4-.8-.8 0-1.9-.6-1.9-1.1 0-.2-.3-.6-.6-.9-.6-.4-.6-.5-.1-.8l1.5-.6 1-.4c0-.2 1-.7 2.3-1.3 1.2-.5 2.2-1 2.1-1.1 0 0-1.1.3-2.4.9l-4 1.5c-1 .2-2 .6-2 .7 0 .2.2.3.4.3s.4.2.4.4c0 .4 2.6 5.7 3.7 7.8l.5 1 2.4-.7 4.9-1.6zm-23.9 1.9c0-.3-1.4-.5-1.6-.2 0 .2.2.3.7.3l1-.1zm5.9-1.6c0-.2 0-.4-.2-.6-.2 0-.4 0-.4.4 0 .6.3.7.6.2zm2.3-.6c0-.3-.3-.4-.6-.3-.3.1-.5.4-.5.7 0 .3.2.4.5.3.3-.1.6-.4.6-.7zm-1.6-2.2c-.1-.1-.4 0-.6.3-.5.9-.3 1.2.3.6.3-.3.5-.7.3-.9zm2.4.3c.1-.2 0-.4-.1-.5-.2-.2-.4 0-.4.3 0 .6.2.7.5.2zm1.3-2.5c0-.2-.2-.3-.4-.2l-.3.6c0 .2.1.3.3.1.2 0 .4-.3.4-.5zm16.4-2.1a.8.8 0 0 0-.7-.3c-.2 0-.2.1.2.3.6.4.8.4.5 0zm-41.1-.7c0-.2-.2-.4-.3-.4-.2 0-.5.2-.6.4-.1.2 0 .3.3.3s.6-.1.6-.3zm51-1.8c-.2-.2-.5-.3-.9-.3s-.4 0 .2.3c.9.4 1 .4.7 0zm.5-1c-.7-.5-1.2-.5-.9 0 .1.2.5.3.8.3.5 0 .5 0 0-.3zM98.8 206s-.5 0-1 .4l-1 .7c0 .1.4 0 1-.4l1-.7zm-43.1.4c-.1-.2-.4-.2-.7 0-.3 0-.2.1.2.1s.6 0 .5-.1zm2.4-.2c0-.1-.2-.2-.5 0-.9.1-1 .4-.2.4.2 0 .6-.2.7-.4zm52 0c-.3-.2-.8-.3-1-.3-.4 0-.3.1.1.3 1 .4 1.6.4 1 0zm4.5-.4c0-.3-.5-.5-1.3-.5h-1.2l1 .4c1.4.6 1.5.6 1.5 0zm-56.8-.5h-.7c-.2 0-.2.2.2.2s.6 0 .5-.2zm-2.1-.4H55c-.3.1-.2.2.2.2s.6 0 .5-.2zm46.2-.6c.6-.4.8-.5.4-.6-.3 0-1 .4-1.4.8-.5.4-.6.6-.4.5l1.4-.7zm9.8.5c-.1-.2-.6-.3-1-.3-.7 0-.7 0 0 .3 1 .4 1.3.4 1 0zm4.7-3.5.2-1.7h-1.2c-1.3 0-3.2 1.3-2 1.3.4 0 .5.2.4.6-.2.3 0 .5.3.5s.6.1.6.3c0 .2.3.4.6.4.4 0 .5.2.3.6-.2.5-.1.5.2.2.2-.2.5-1.2.6-2.2zm-1.4.5v-.4l-.4-.7c-.2-.3-.2-.5 0-.5.4 0 1.5.8 1.5 1 0 .4-1 .9-1 .6zm-24.8-1c0-.2-.1-.1-.2.3 0 .3.1.6.2.4v-.6zm-1.3-4.7a39 39 0 0 0-1.6-4.3c1.8 6.3 2.5 8.4 2.6 8.3l-1-4zM54.4 199c.8-.3.8-.3-.2-.2l-1.5-.2c-.2-.2-.6 0-.8.2-.4.5-.3.6.6.5.5 0 1.4-.1 1.9-.3zm61.9 0c-.1-.2-.5-.3-.8-.3-.5 0-.5 0 0 .3 1 .4 1 .4.8 0zm-1-1c-.2-.2-.1-.4 0-.4.3 0 .5.2.5.4s0 .3.1.2l-.2-1.3c-.3-.7-.5-1-.9-1a4 4 0 0 1-1.2.3c-.4 0-.6.1-.5.3.1.2 0 .4-.3.4-.4 0-.5.2-.4.3.1.2.6.3 1 .2.7-.2 1 0 1.2.3 0 .3.3.6.5.6s.2-.2.1-.4zm-.8-.8c-.3-.5.1-.9.6-.4.2.2.2.4 0 .6-.2.1-.5 0-.6-.2zm-10.1-.4c-.1-.2-.2 0-.2.4 0 .5 0 .7.2.5v-.9zm-45.9-1.2s-.3.1-.4.5c-.2.5-.1.5.2.2.2-.3.3-.5.2-.7zm45.4-1c-.1-.5-.3-.8-.4-.8l.1 1.1c.1.5.3.9.4.8v-1zm8.5.9c.6-.3.5-.3-.5-.3-.6 0-1 0-.9.3.3.4.5.4 1.4 0zm2.4-.3h-.9c-.2.1 0 .2.4.2.5 0 .7 0 .5-.2zm-1.7-.8c.1-.2 0-.4-.3-.6-.7-.2-1 0-.8.6.3.5.8.5 1.1 0zm.9-1c-.3-.5-.7-.7-1.3-.7-1 0-1 0-.1.2.5.1 1 .4 1.1.7.5.7.7.6.3-.2zM62.3 190c-.2 0-.3 0-.4.3l-1.3 1.8c-.7.8-.5.7.4-.3.8-.9 1.4-1.7 1.3-1.8zm47.9 1.9h-.9l.5.1c.4 0 .6 0 .4-.1zm-28-2a6 6 0 0 0-2-.7c-1-.2-1-.1.5.4 2 .8 2.8.9 1.5.2zm-3.6-1.2H78c-.2.1-.2.2.3.2.3 0 .5 0 .4-.2zm2.2-.4c0-.2-.2-.3-.5-.3s-.5.1-.5.3c0 .1.2.3.5.3s.5-.2.5-.3zM78 188c0-.5-2.4-1.8-2.6-1.4-.2.3 0 .4 1.5 1.2 1.1.6 1.1.6 1.1.2zm26.1-1.6-.3-.4c-.2 0-.4 0-.4.2s.2.4.4.4.3-.1.3-.2zm-20.8-1c-.2-.3-.2-.6-.1-.7.1-.2 0-.3-.2-.3-.5 0-.5.5 0 1 .6.6.8.6.3 0zm-30 25.9c0-.2.3-.3.5-.2l.6.4-.6.1c-.2 0-.5-.1-.5-.3zm-3.9-12.5.6-.6c.4-.4.5-.3.5.1s-.2.6-.5.6l-.6-.1zm56.5-11.5c0-.2.1-.4.4-.4.2 0 .2.2.1.4s-.3.3-.4.3l-.1-.3zm-6-2.3h1c.5.4.4.4-.4.4-.5 0-.8-.2-.6-.4zm-28.4-.2c.1-.2.4-.4.6-.4.2 0 .2.2 0 .4 0 .2-.3.3-.5.3s-.2-.1-.1-.3z" style="fill:#d4b88c;stroke-width:.352778" transform="translate(-44.5 -173.2)"/>
  <path d="M75.7 241.4a32.2 32.2 0 0 1-20.3-9.3c-3.1-3.3-4-5.5-5.4-13-.7-3.6-1.6-7.2-2-8a27 27 0 0 1-1.7-5.8c0-.3.5.5 1 1.7 1.2 2.4 4.2 5.7 4.6 5 .1-.2.9 0 2 .5.8.5 1.7.8 1.8.8 0-.1-.2-.3-.7-.5-.7-.2-.7-.3.6-.7.8-.2 1.2-.4.8-.5-.7 0-1-1-.5-1.3.2-.1.2 0 .1.2s0 .4.1.4c.2 0 .4-.2.4-.3 0-.2.3-.4.8-.3.5 0 .8-.1.8-.4 0-.3.3-.6.7-.8.4-.2 0-.2-.9 0-.9 0-2 .3-2.4.5-.6.3-1 .2-1.5-.3l-.7-.7 1.1-.6 1.2-.6h-1.3c-1 0-1.3-.2-1.3-.6 0-.4-.2-.5-.6-.3-.3 0-.4 0-.3-.2.1-.2 0-.6-.3-1-.4-.5-.3-.5.3-.3.4.2.6.2.4 0-.1 0 0-.4.2-.7.4-.5.3-.5-.5-.3-.5.1-1 0-1.2-.2-.1-.1.1-.3.6-.3.4 0 .6-.1.5-.3-.1-.2.3-.6 1-1l1.1-.5-1.2.2c-.7.2-1.3.4-1.4.6-.1.3-1.5-.5-1.5-.9 0-.1.3-.2.7 0 .3 0 1 0 1.6-.2 1-.3 1-.3-.3-.4h-1.4l1.2-.3 3.2-.6 2-.2 1.3 2.1c1.5 2.5 4 5 4.8 5 .2 0 .3.2.2.4-.1.2 0 .3.5.3.4 0 .7.2.7.4s.2.3.5.3c1 0 .6.7-1 1.6a6 6 0 0 0-2 1.7c-.5.9-.3.8 2.6-1.4 2.2-1.7 2.7-2.2 2-2.2-.5 0-6-3.6-6-4l-1.2-2a9 9 0 0 1-1.2-2.4c0-.3-.4-.4-1.2-.3a181 181 0 0 1-11.5 1.4c-.4-.3.4-.6 2.7-.9 2.3-.3 2.6-.5 3-1.4.3-.6.7-1 1.1-1 1 0 1.8-.5 1.3-.9-.5-.3-.5-.9 0-.9.3 0 .7-.4 1-1 .4-.9.6-1 1.2-.9.7.2.7.2 0-.5-.8-.7-.8-.7-.2-.8h.9c.1 0 .2-.1.2-.3 0-.2.4-.3.8-.2.5.1.6.1.4 0-.3-.1-.3-.5 0-1.2.2-1 .2-1-.6-.9-.6.2-.6.2-.2-.1.3-.2.8-.3 1-.3l2 .4c1 .1.5-.1-1.7-1-3-1-4.6-2-2.5-1.3l3 .9c1 .3 2 .5 2.3.4.3-.1.4 0 .3.1-.1.2 0 .4.1.4.2 0 .7 0 1 .2.5.2.6.1.3-.2-.3-.3-.4-.7-.3-1 .2-.5 2.3-.6 2.3 0 0 .1-.2.3-.4.3s-.3.1-.3.3c0 .5 2.4-.4 2.6-1 .1-.3 0-.3-.6 0s-.8.3-1.3-.2c-.5-.6-.5-.6.2-.4.7.2.8.2.6-.3-.2-.5-.1-.6.5-.2.7.4 1 .3 1.3-.2.5-.7 1.3-.4 3.4 1.5 1.7 1.6 2.9 1.8 3.7.6.5-.8.5-1-.2-1.8-.4-.5-.7-1.1-.7-1.4 0-.2-.2-.5-.4-.5a.4.4 0 0 1-.3-.3c0-.5 1.5-.3 2.2.3.8.7.8 0-.2-1.9-.5-1.1-.6-1.7-.4-2 .3-.2.6 0 1.2 1.1.9 1.5 1.5 2 1.2.8-.2-.6 0-.7.7-.6.8 0 .8 0-1 2l-1.7 2.1 1.5 1.4c1 1 2 1.4 3.4 1.8l2.6.5c.4.2.4 0-.1-.3-.6-.5-.5-.6.9-1 1-.3 2.2-.4 3.4-.3 1.6.2 1.8.1 2-.5l.8-3.4c.6-2.6 1.3-3.6 1.5-2 .1.7.8 1 2.2 1 .3 0 .6.1.6.3 0 .2-.2.3-.4.3-.3 0-.3.2-.2.3.1.1.9-.4 1.6-1.1 1.7-1.6 2.4-1.4.9.2l-1 1.1 1.1-.8a7 7 0 0 0 1.3-1c.2-.3.4-.4.6-.4.3 0 .3 0 .2.2-.3.3.8 1.3 1.2 1h.3l-1 .7c-.8.5-.8.5-.1.5.4 0 .8.2 1 .4 0 .2.6.4 1.2.4s1 .1 1 .3c0 .6 1 .4 1.4-.2.3-.6.4-.6 1.3 0 .8.6 1 .7.5.8-.4.1-.7.4-.8.7-.2.4 0 .5.5.3.6-.2.7-.1.5.2-.2.3 0 .4.7.2.6 0 .9 0 .8.3-.2.3 0 .4.6.4 1 0 1.2-.4.3-.7-.3-.1-.5-.3-.4-.4.1-.2.7.1 1.3.6 1 .7 1 .8.5 1-.5.2-.4.3.4.3.5 0 1.4.4 2 .8l1 .8-.7.3c-.7.1-.6.2.3.1a4 4 0 0 0 1.1 0l-1.1-1.3-1.2-1.1 1.2.8a16 16 0 0 1 5 9c.4 1.9-.1 5.8-1.4 10a170 170 0 0 0-2.1 9.9 52 52 0 0 1-2.3 9.2 34.1 34.1 0 0 1-14.8 11.2 48 48 0 0 1-20.5 2zm1.8-10.7c.1-.2-.1-.4-.5-.4s-.8.2-.8.4.3.3.6.3c.2 0 .6-.1.7-.3zm12.1-11c0-.5-.6-2.6-1.3-4.7l-1.3-4h-2a93 93 0 0 1-14-1.6l-2.9-.7-4.1 3.8-4.3 4.1c-.1.3 1.6.8 6.2 1.7 3.9.8 7.9 1.4 7.9 1.2 0-.5-1-1.1-1.3-.8-.4.4-3-.5-3-1l.8-.9c.3-.4.7-.6.7-.4 0 .1.3 0 .6-.4.8-.7 2-.5 1.6.4-.1.3 0 .5.1.5.2 0 .5-.3.6-.7.1-.5 0-.7-.3-.7s-.5-.2-.5-.4.3-.3.7-.3c.4 0 .7-.3.9-.9.2-.9 1.9-1.5 1.9-.7 0 .3-.2.6-.4.7-.2.1-.3.5-.2.7.1.2 0 .6-.2.8-.3.3-.2.4.2.4.3 0 .6-.1.6-.3 0-.2.2-.4.4-.4.1 0 .3.5.3 1 0 .7.2 1.2.4 1.2s.3-.2.2-.4c-.2-.2 0-.4.1-.6.3 0 .6 0 .8.3.2.4.3.4.3 0 0-.3.2-.4.5-.3.3.1.4 0 .3-.3-.1-.4 0-.5.4-.3.3.1.5 0 .5-.3 0-.6-1.5-.7-2.3-.2-.2.2-.7 0-1-.4-.6-.6-.6-.7 0-1 .7-.4.7-.4 0-1-.4-.2-1-.4-1.2-.3-.6.2-1-.6-.4-.9.6-.3 1.4 0 2 .7.2.3.5.4.7.3.1-.2 0-.5-.2-.7-.8-.4-.1-.4.7 0 .7.5.7.5 0 1.3-.7.7-.7.8-.2 1 .8.3 1.2.3 1.2-.2 0-.2-.2-.3-.5-.1-.4.1-.4-.1.2-1 1-1.5 1.2-1.6 1-.9-.2.4-.1.7 0 .7.2 0 .4-.2.4-.3 0-.2.5-.3 1-.4 1.2 0 1.3.3.7 1.5-.3.7-.3.7.4-.1.6-.7.8-.8 1-.4.2.3.5.3.7.2.3-.2.3-.4 0-.7-.2-.3-.2-.5.2-.7 1-.3 1.6.2 1.6 1.4 0 .7-.2 1.1-.4 1-.2-.1-.3 0-.1.2.1.2.4.4.7.4.3 0 .6.1.6.3l.3 1.3v1.3c.1 1 0 1.2-.8 1.3-1 0-1.3.9-.5 1.2l1.7.2c1.2 0 1.3 0 1.3-.8zm-18.1-6c-.1-.2 0-.6.1-.8.2-.3.3-.6.1-.7-.1-.2 0-.5.5-.8.8-.6 1.4-.7 1 0-.1.2 0 .2.2 0 .2 0 .7.1 1.1.5l.8.7h-.9l-1.3-.4c-.2-.2-.4-.1-.4 0 0 .3.5.7 1 1 .5.3.7.5.3.4-.3-.1-.6 0-.6.1 0 .5-1.6.5-2 0zm1.6-.3c0-.2-.2-.4-.4-.4s-.3.2-.3.4.1.3.3.3c.2 0 .4-.1.4-.3zm-4-2.5c0-.4.3-.8.4-.9.2-.1.4.1.4.6 0 .6.2.7.7.6h.5c-.1.3-.6.4-1 .4-.7 0-1-.2-1-.7zm-1.7-.3c0-.2.3-.5.6-.8.4-.3.5-.3.5.1 0 .3-.3.7-.5.8l-.6-.1zm10.8 9.1c-.1-.2-.4-.3-.6-.3-.1 0-.3.1-.3.3 0 .2.3.4.6.4s.4-.2.3-.4zm21.9-2a30 30 0 0 0 9.5-5.3c2.4-2 3-2.7 2.4-3.3-.4-.3-3.7 1-4 1.5 0 .2-.4.3-1 .3-.4 0-.8.1-.8.3 0 .2-.6.4-1.3.6-.8.1-2.1.6-3.1 1-1.2.6-1.9.8-2.2.5-.2-.2-.4-.2-.4 0s-.4.5-1 .7c-.7.4-1 .4-1.4 0-.3-.2-.5-.2-.4 0 .1.7 0 1.2-.5 1a1 1 0 0 0-1 .2c-.1.3-.3.3-.3.2h-.9c-.7.4-.9.3-.9-.1s.2-.5.6-.4c.5.2.5.1-.1-.4-.4-.4-1-.8-1.4-.8-.8 0-1.9-.6-1.9-1.1 0-.2-.3-.6-.6-.9-.6-.4-.6-.5-.1-.8l1.5-.6 1-.4c0-.2 1-.7 2.3-1.3 1.2-.5 2.2-1 2.1-1.1 0 0-1.1.3-2.4.9l-4 1.5c-1 .2-2 .6-2 .7 0 .2.2.3.4.3s.4.2.4.4c0 .4 2.6 5.7 3.7 7.8l.5 1 2.4-.7 4.9-1.6zm-23.9 1.9c0-.3-1.4-.5-1.6-.2 0 .2.2.3.7.3l1-.1zm5.9-1.6c0-.2 0-.4-.2-.6-.2 0-.4 0-.4.4 0 .6.3.7.6.2zm2.3-.6c0-.3-.3-.4-.6-.3-.3.1-.5.4-.5.7 0 .3.2.4.5.3.3-.1.6-.4.6-.7zm-1.6-2.2c-.1-.1-.4 0-.6.3-.5.9-.3 1.2.3.6.3-.3.5-.7.3-.9zm2.4.3c.1-.2 0-.4-.1-.5-.2-.2-.4 0-.4.3 0 .6.2.7.5.2zm1.3-2.5c0-.2-.2-.3-.4-.2l-.3.6c0 .2.1.3.3.1.2 0 .4-.3.4-.5zm16.4-2.1a.8.8 0 0 0-.7-.3c-.2 0-.2.1.2.3.6.4.8.4.5 0zm-41.1-.7c0-.2-.2-.4-.3-.4-.2 0-.5.2-.6.4-.1.2 0 .3.3.3s.6-.1.6-.3zm51-1.8c-.2-.2-.5-.3-.9-.3s-.4 0 .2.3c.9.4 1 .4.7 0zm-21.2-2.8a65.8 65.8 0 0 0-5-15.4c-.8-.6-1.2-.6-1 0 .2.4.4.5.6.4.2-.2.3-.1.2.1-.2.2-.2.9 0 1.5.1 1 .2 1 .4.6.2-.5.4-.1.8 1.2 3.3 11 4.3 14 4.4 14l-.4-2.4zm21.7 1.8c-.7-.5-1.2-.5-.9 0 .1.2.5.3.8.3.5 0 .5 0 0-.3zM98.8 206s-.5 0-1 .4l-1 .7c0 .1.4 0 1-.4l1-.7zm-43.1.4c-.1-.2-.4-.2-.7 0-.3 0-.2.1.2.1s.6 0 .5-.1zm2.4-.2c0-.1-.2-.2-.5 0-.9.1-1 .4-.2.4.2 0 .6-.2.7-.4zm52 0c-.3-.2-.8-.3-1-.3-.4 0-.3.1.1.3 1 .4 1.6.4 1 0zm4.5-.4c0-.3-.5-.5-1.3-.5h-1.2l1 .4c1.4.6 1.5.6 1.5 0zm-56.8-.5h-.7c-.2 0-.2.2.2.2s.6 0 .5-.2zm-2.1-.4H55c-.3.1-.2.2.2.2s.6 0 .5-.2zm46.2-.6c.6-.4.8-.5.4-.6-.3 0-1 .4-1.4.8-.5.4-.6.6-.4.5l1.4-.7zm9.8.5c-.1-.2-.6-.3-1-.3-.7 0-.7 0 0 .3 1 .4 1.3.4 1 0zm4.7-3.5.2-1.7h-1.2c-1.3 0-3.2 1.3-2 1.3.4 0 .5.2.4.6-.2.3 0 .5.3.5s.6.1.6.3c0 .2.3.4.6.4.4 0 .5.2.3.6-.2.5-.1.5.2.2.2-.2.5-1.2.6-2.2zm-1.4.5v-.4l-.4-.7c-.2-.3-.2-.5 0-.5.4 0 1.5.8 1.5 1 0 .4-1 .9-1 .6zm-60.6-3c.8-.3.8-.3-.2-.2l-1.5-.2c-.2-.2-.6 0-.8.2-.4.5-.3.6.6.5.5 0 1.4-.1 1.9-.3zm34-.8c-.1-.6-.3-1-.4-.8v1c.2.6.4 1 .5.8l-.1-1zm27.9.8c-.1-.2-.5-.3-.8-.3-.5 0-.5 0 0 .3 1 .4 1 .4.8 0zm-1-1c-.2-.2-.1-.4 0-.4.3 0 .5.2.5.4s0 .3.1.2l-.2-1.3c-.3-.7-.5-1-.9-1a4 4 0 0 1-1.2.3c-.4 0-.6.1-.5.3.1.2 0 .4-.3.4-.4 0-.5.2-.4.3.1.2.6.3 1 .2.7-.2 1 0 1.2.3 0 .3.3.6.5.6s.2-.2.1-.4zm-.8-.8c-.3-.5.1-.9.6-.4.2.2.2.4 0 .6-.2.1-.5 0-.6-.2zm-10.1-.4c-.1-.2-.2 0-.2.4 0 .5 0 .7.2.5v-.9zm-45.9-1.2s-.3.1-.4.5c-.2.5-.1.5.2.2.2-.3.3-.5.2-.7zm29-.5c-.2-.3-.3-.2-.3.2 0 .3 0 .6.2.4v-.6zm16.4-.5c-.1-.5-.3-.8-.4-.8l.1 1.1c.1.5.3.9.4.8v-1zm8.5.9c.6-.3.5-.3-.5-.3-.6 0-1 0-.9.3.3.4.5.4 1.4 0zm2.4-.3h-.9c-.2.1 0 .2.4.2.5 0 .7 0 .5-.2zm-1.7-.8c.1-.2 0-.4-.3-.6-.7-.2-1 0-.8.6.3.5.8.5 1.1 0zm.9-1c-.3-.5-.7-.7-1.3-.7-1 0-1 0-.1.2.5.1 1 .4 1.1.7.5.7.7.6.3-.2zM62.3 190c-.2 0-.3 0-.4.3l-1.3 1.8c-.7.8-.5.7.4-.3.8-.9 1.4-1.7 1.3-1.8zm47.9 1.9h-.9l.5.1c.4 0 .6 0 .4-.1zm-6-5.6-.4-.4c-.2 0-.4 0-.4.2s.2.4.4.4.3-.1.3-.2zm-50.9 24.9c0-.2.3-.3.5-.2l.6.4-.6.1c-.2 0-.5-.1-.5-.3zm-3.9-12.5.6-.6c.4-.4.5-.3.5.1s-.2.6-.5.6l-.6-.1zm56.5-11.5c0-.2.1-.4.4-.4.2 0 .2.2.1.4s-.3.3-.4.3l-.1-.3zm-6-2.3h1c.5.4.4.4-.4.4-.5 0-.8-.2-.6-.4zm-28.4-.2c.1-.2.4-.4.6-.4.2 0 .2.2 0 .4 0 .2-.3.3-.5.3s-.2-.1-.1-.3zm9.6-1.7c-1.2-1.8-1.3-2.4-.1-.8.5.7 1 1 1 .7.2-.2.7-.3 1.3-.2.5.1 1.1 0 1.3-.1.1-.2.6-.2 1 0 .6.2.6.3-.6.8-2.6 1.1-2.9 1.1-4-.4z" style="fill:#afb3ad;stroke-width:.352778" transform="translate(-44.5 -173.2)"/>
  <path d="M76.4 241.4c-5.2-.6-8.8-1.5-12.3-3.1-6.8-3.2-11.7-8.4-13-13.8l-1.3-6.7a38 38 0 0 0-1.8-6.9c-1-2.5-1.7-4.8-1.7-5.6 0-.5 0-.5.2 0 1.3 3.5 3.7 6.4 6.8 8.1 1.6 1 2 1 2.7.7 1-.5 2.3-.5 2.3 0 0 .2-.2.3-.4.3s-.3.2-.3.4c0 .8 1.3.2 4.3-2.1l4.4-3.5 1.2-1-2-1a14.9 14.9 0 0 1-6.4-6l-1-2a242.3 242.3 0 0 0-12.5 1.5c0-.2.6-.4 1.3-.5a187 187 0 0 1 10.4-1.4c.6 0 .7-.3 1.5-3.5a9 9 0 0 1 2.1-3l1.9-2-1.4-.5c-1.8-.6-1.6-1 .3-.4 1 .3 1.7.3 2.7 0 1.9-.5 2.1-.7 2.8-2 .3-.7.7-1.2.9-1.2.4 0 1.8 1 3.1 2.2 1.5 1.4 2.7 1.5 3.5.4.5-.8.5-1 0-1.6-.6-.6-.6-.7-.2-1 .7-.5 1.1-.4.8 0 0 .2.5 1 1.3 1.8 1 1 2 1.4 3.4 1.8l2.6.5c.4.2.4 0-.1-.3-.6-.5-.5-.6.9-1 1-.3 2.2-.4 3.4-.3l1.8.2.3-1.3a158 158 0 0 0 1.4-5.4c.1-.2.6.5 1.1 1.7l1 2 2-1.7c2.7-2.2 2.9-1.7.1.7-1.4 1.3-2 2-1.6 2 .4 0 .7-.2.9-.5.1-.4.4-.5 1-.4.4.2.5.1.2 0-.3-.3-.3-.5.2-.9s.5-.4.3 0-.1.4.5.2c.4-.1.7 0 .7.2 0 .3.3.4.7.3.8-.3 1.7.6 1 .9h.5c.6-.1 1 0 1 .2s.3.4.7.4c.3 0 .8.1.9.3 0 .2 0 .4-.4.4-1.2 0-.4.5.8.6 1 0 1.7.3 2.5 1.1.6.6 1.4 1.1 1.7 1.1.6 0 .6 0 0 .5s-.6.6-.1.6c.3 0 .6.1.6.3 0 .2.4.4.9.4s.8-.2.7-.4c-.1-.2-.5-.2-.8-.1-.5.1-.5.1-.1-.2.3-.2.6-.2 1 0 .6.5 5 0 4.8-.5-.1-.2 0-.1.4.3a26 26 0 0 1 1.8 3.2c1 1.9 1.3 3 1.4 4.9.2 2.5-.5 7-1.5 10l-1.9 9c-.7 4-1.7 8-2 8.8-2 4.5-10.7 10.7-17.5 12.6a48.3 48.3 0 0 1-17.4 1.2zm-12.7-8c-.4-.4-.7-.5-.8-.3 0 .3 0 .6.3.8 1 .5 1.2.3.5-.4zm14-2.4c.3-.2.4-.4 0-.7-.5-.6-1.6-.3-1.7.5-.2.6.8.8 1.7.2zm12.1-.3c.1-.2.8-.4 1.6-.5.8-.2 1.4-.4 1.4-.6 0-.3-.5-.4-1.6-.2-1.7.3-2.6.7-2.6 1.3 0 .4 1 .4 1.2 0zm0-10.5c.2-.3-.3-2.5-1-4.8l-1.5-4.3-3.4-.2a84 84 0 0 1-11.4-1.3c-4.5-1-4.2-1-8.7 3a30 30 0 0 0-4.1 4.1c0 .4 6.7 2 12.1 3 2 .4 9.7 1 15.3 1 2 0 2.6 0 2.8-.5zm9-1.9c5.5-2 8-3.3 12-6.6 1.7-1.5 3.2-3.8 2.6-4.3-.2-.2-2.7-1-5.7-2l-5.5-1.9-2 1.5a40 40 0 0 1-12.2 5.4c-.3.2 2.9 7.2 3.2 7 .2-.2.3 0 .1.3-.3.7 0 1.7.5 1.5.2-.1.4 0 .5.3.3.8 1.7.5 6.5-1.2zm-3.1-7.4-1.7-1.2c-.3-.3-.3-.4 0-.2.6.5 1 .4 1-.4 0-1 1.2-.8 2 .4.3.6.7 1 .8 1 1.4-.9 2.1-1 2.7-.8.6.2.5.3-.2.4-.4 0-.9.4-1 .7-.1.3-.5.4-1 .2-.7-.1-1 0-.7.2.3.6-.5.5-2-.3zm5.4-1.4c-.6-.4-1.2-.6-1.4-.5 0 .1-.4 0-.7-.2-.4-.4-.5-.3-.5.3 0 .7-.1.8-.6.4-.6-.5-.7-1.2 0-.9.2.2.2.1 0-.1 0-.3-.4-.4-.7-.3-.3.1-.4 0-.3-.1.1-.2.4-.4.7-.4.3 0 .5-.2.6-.6 0-.5.1-.5.7 0 .4.4.7.6.8.5.1 0 0-.3-.4-.6-.4-.4-.4-.5.5-1.1 1.3-1 2.6-1.5 3.3-1.4.3 0 .9.6 1.4 1.1.5.6 1.2 1 1.6 1 .4 0 .5.2.2.5-.2.2-.6.2-1.4-.2-1.4-.7-1.6-.7-1.1.1.2.4.5.6.9.5.6-.2.6 0 0 .7-.2.3-.6.4-1 .3-.3 0-.7 0-.8.3-.1.2 0 .2.3.1s.6 0 .6.2c0 .8-.7.7-2.1-.4-1-.7-1.5-.9-1.5-.5 0 .2.6.8 1.4 1.2.7.4 1.1.8 1 .8-.3 0-1-.3-1.5-.7zm5.5-2.1c0-.2.1-.4.3-.4.2 0 .4.2.4.4s-.2.3-.4.3a.4.4 0 0 1-.3-.3zm4-.2c-.6-.5-.6-.5.2-.1 1.1.5 1.3.6.9.6-.2 0-.7-.2-1-.5zm-3.2-.4c-.7-.2-2-1.2-1.4-1.2.3 0 2.7 1 2.7 1.3h-.3l-1-.1zm-15.8-1.5a58 58 0 0 0-5.1-15.2c-1-.5-1-.5-.9.2.2.3.4.4.6.3.2-.2.3-.1.2.1-.2.2-.2.9 0 1.5.1 1 .2 1 .4.6.2-.5.6.4 1.2 2.6 1.5 5 3.8 12.5 4 12.8.4.7.3 0-.4-2.9zm24-1c1.4-2.7 1.2-5.7-.7-9.4-1-2-1.5-2.7-1.9-2.6l-2.7.5c-1.2 0-2 .3-1.7.4.4.1.4.2 0 .7-.4.5-.3.5.3.3s.6-.2 0 .2c-.7.6-.4 1 1 1 1.1 0 1.1 0 .2.4-.8.3-.8.4-.2.6.7.3.6.3-.1.5l-.9.2.8 1c.5.4 1.1.8 1.4.8.4 0 .3.2-.3.5-.5.3-.7.5-.5.6.2 0 .1.1-.2.3-.4.3-.4.4.1 1 .6.5.6.5 0 1.1-.6.5-.7.7-.4.8.4.2.4.3 0 .6-.2.4-.5.4-1 0a3 3 0 0 0-1.6-.2c-.8 0 5.6 2.6 6.9 2.7.3 0 .9-.7 1.5-2zm-11.2-4.5c.4-1.4-.2-6.2-.7-6.2-.2 0-.3.5 0 1.3l.2 3.7.1 2.4.4-1.2zm-16-1.7c-.1-.6-.3-1-.4-.8v1c.2.6.4 1 .5.8l-.1-1zm-1-3.1c0-.3-.2-.2-.2.2 0 .3 0 .6.2.4v-.6zm19.4-1.6h-.6c-.3 0-.2.2.2.2s.6 0 .4-.2zm-48.2 20c0-.2-.3-.4-.6-.4s0-.2.8-.5c1.5-.6 3-.7 1.7-.2-.5.2-1 .6-1 .9-.3.6-.9.7-.9.2zm-1-10.5c0-.3.1-.4.3-.3.2.1.3.4.2.6-.3.5-.5.4-.5-.3zm-.9-5c-.2-.2 0-.8.5-.8.2 0 .4.3.4.6 0 .5-.5.7-.9.3zm3-5.5.6-.6c.5-.4.6-.4.1.1-.4.6-.7.8-.7.5zm15.6-9c-.5-1-.7-2-.6-2 .2-.3.1-.3 1.3 1.4.8 1.2 1 2.3.3 2.3-.2 0-.6-.8-1-1.8zm6.5.8a1 1 0 0 1-.3-.6c0-.2.2-.2.5 0 .2.3.3.6.2.7h-.4z" style="fill:#cf9362;stroke-width:.352778" transform="translate(-44.5 -173.2)"/>
  <path d="M76.4 241.4c-5.2-.6-8.8-1.5-12.3-3.1-6.8-3.2-11.7-8.4-13-13.8l-1.3-6.7a38 38 0 0 0-1.8-6.9c-1-2.5-1.7-4.8-1.7-5.6 0-.5 0-.5.2 0 1.3 3.5 3.7 6.4 6.8 8.1 1.6 1 2 1 2.7.7 1-.5 2.3-.5 2.3 0 0 .2-.2.3-.4.3s-.3.2-.3.4c0 .8 1.3.2 4.3-2.1l4.4-3.5 1.2-1-2-1a14.9 14.9 0 0 1-6.4-6l-1-2a242.3 242.3 0 0 0-12.5 1.5c0-.2.6-.4 1.3-.5a187 187 0 0 1 10.4-1.4c.6 0 .7-.3 1.5-3.5a9 9 0 0 1 2.1-3l1.9-2-1.4-.5c-.8-.3-1.3-.6-1.2-.7 0 0 .7 0 1.4.3 1.9.6 5.5-.4 5.5-1.6 0-.3.2-.7.5-1 .5-.5.7-.5 1.5 0a10 10 0 0 1 2 1.7c1.2 1.2 1.3 2.2.8 4.8a54.6 54.6 0 0 1 1.2-2.7c-.2.1-.4 0-.4-.1 0-.2.3-.4.7-.4.6 0 .6.1.4 1-.2.7-.2 1.1 0 1.1s.4-.6.5-1.3c.4-2.5.5-2.6 2.4-2 1 .2 1.8.5 2 .7.2.2.1 1.4 0 2.8a95.4 95.4 0 0 0-.8 4.7c-.2.2-.2.5-.1.7.1 0 0 .4-.2.6-.2.3-.3.6-.2.7.3.4 1.3-2 1.3-3.3 0-.5.2-1.3.4-1.7.2-.4.3.2.1 2l-.2 3.3-.5 2.9c-.7 2.8-.6 3.7 0 3.4.4-.1.6-.5.5-.8-.1-.4 0-.7 0-.8a83 83 0 0 0 2.8-13.1c-.2-.4 0-.6.5-.6.8 0 .8 0 .2-.5-.5-.4-.4-.5 1.4-.8 2.6-.6 4.6-.2 5.2 1l1.8 4.3c.8 1.9 1.5 3.3 1.7 3.2v-.5l-.2-1.7c0-.7-.6-2.6-1.5-5-1.6-3.6-1.6-3.8-1.2-5.5.7-3.3.7-3.3 1.7-1l1 2 2-1.7c2.7-2.2 2.9-1.7.1.7-1.4 1.3-2 2-1.6 2 .4 0 .7-.2.9-.5.1-.4.4-.5 1-.4.4.2.5.1.2 0-.3-.3-.3-.5.2-.9s.5-.4.3 0-.1.4.5.2c.4-.1.7 0 .7.2 0 .3.3.4.7.3.8-.3 1.7.6 1 .9h.5c.6-.1 1 0 1 .2s.3.4.7.4c.3 0 .8.1.9.3 0 .2 0 .4-.4.4-1.2 0-.4.5.8.6 1 0 1.7.3 2.5 1.1.6.6 1.4 1.1 1.7 1.1.6 0 .6 0 0 .5s-.6.6-.1.6c.3 0 .6.1.6.3 0 .2.4.4.9.4s.8-.2.7-.4c-.1-.2-.5-.2-.8-.1-.5.1-.5.1-.1-.2.3-.2.6-.2 1 0 .6.5 5 0 4.8-.5-.1-.2 0-.1.4.3a26 26 0 0 1 1.8 3.2c1 1.9 1.3 3 1.4 4.9.2 2.5-.5 7-1.5 10l-1.9 9c-.7 4-1.7 8-2 8.8-2 4.5-10.7 10.7-17.5 12.6a48.3 48.3 0 0 1-17.4 1.2zm-12.7-8c-.4-.4-.7-.5-.8-.3 0 .3 0 .6.3.8 1 .5 1.2.3.5-.4zm14-2.4c.3-.2.4-.4 0-.7-.5-.6-1.6-.3-1.7.5-.2.6.8.8 1.7.2zm12.1-.3c.1-.2.8-.4 1.6-.5.8-.2 1.4-.4 1.4-.6 0-.3-.5-.4-1.6-.2-1.7.3-2.6.7-2.6 1.3 0 .4 1 .4 1.2 0zm0-10.5c.2-.3-.3-2.5-1-4.8l-1.5-4.3-3.4-.2a84 84 0 0 1-11.4-1.3c-4.5-1-4.2-1-8.7 3a30 30 0 0 0-4.1 4.1c0 .4 6.7 2 12.1 3 2 .4 9.7 1 15.3 1 2 0 2.6 0 2.8-.5zm9-1.9c5.5-2 8-3.3 12-6.6 1.7-1.5 3.2-3.8 2.6-4.3-.2-.2-2.7-1-5.7-2l-5.5-1.9-2 1.5a40 40 0 0 1-12.2 5.4c-.3.2 2.9 7.2 3.2 7 .2-.2.3 0 .1.3-.3.7 0 1.7.5 1.5.2-.1.4 0 .5.3.3.8 1.7.5 6.5-1.2zm-3.1-7.4-1.7-1.2c-.3-.3-.3-.4 0-.2.6.5 1 .4 1-.4 0-1 1.2-.8 2 .4.3.6.7 1 .8 1 1.4-.9 2.1-1 2.7-.8.6.2.5.3-.2.4-.4 0-.9.4-1 .7-.1.3-.5.4-1 .2-.7-.1-1 0-.7.2.3.6-.5.5-2-.3zm5.4-1.4c-.6-.4-1.2-.6-1.4-.5 0 .1-.4 0-.7-.2-.4-.4-.5-.3-.5.3 0 .7-.1.8-.6.4-.6-.5-.7-1.2 0-.9.2.2.2.1 0-.1 0-.3-.4-.4-.7-.3-.3.1-.4 0-.3-.1.1-.2.4-.4.7-.4.3 0 .5-.2.6-.6 0-.5.1-.5.7 0 .4.4.7.6.8.5.1 0 0-.3-.4-.6-.4-.4-.4-.5.5-1.1 1.3-1 2.6-1.5 3.3-1.4.3 0 .9.6 1.4 1.1.5.6 1.2 1 1.6 1 .4 0 .5.2.2.5-.2.2-.6.2-1.4-.2-1.4-.7-1.6-.7-1.1.1.2.4.5.6.9.5.6-.2.6 0 0 .7-.2.3-.6.4-1 .3-.3 0-.7 0-.8.3-.1.2 0 .2.3.1s.6 0 .6.2c0 .8-.7.7-2.1-.4-1-.7-1.5-.9-1.5-.5 0 .2.6.8 1.4 1.2.7.4 1.1.8 1 .8-.3 0-1-.3-1.5-.7zm5.5-2.1c0-.2.1-.4.3-.4.2 0 .4.2.4.4s-.2.3-.4.3a.4.4 0 0 1-.3-.3zm4-.2c-.6-.5-.6-.5.2-.1 1.1.5 1.3.6.9.6-.2 0-.7-.2-1-.5zm-3.2-.4c-.7-.2-2-1.2-1.4-1.2.3 0 2.7 1 2.7 1.3h-.3l-1-.1zm-16.3-3.4a51 51 0 0 0-4.6-13.3c-1-.5-1.1-.5-.7.4l2.3 7.7a99.3 99.3 0 0 0 2.5 7.2c-.2-.7-.2-.7.3 0l.5 1c0 .4.7 2 .9 2l-1.2-5zm24.5 1c1.4-2.8 1.2-5.8-.7-9.5-1-2-1.5-2.7-1.9-2.6l-2.7.5c-1.2 0-2 .3-1.7.4.4.1.4.2 0 .7-.4.5-.3.5.3.3s.6-.2 0 .2c-.7.6-.4 1 1 1 1.1 0 1.1 0 .2.4-.8.3-.8.4-.2.6.7.3.6.3-.1.5l-.9.2.8 1c.5.4 1.1.8 1.4.8.4 0 .3.2-.3.5-.5.3-.7.5-.5.6.2 0 .1.1-.2.3-.4.3-.4.4.1 1 .6.5.6.5 0 1.1-.6.5-.7.7-.4.8.4.2.4.3 0 .6-.2.4-.5.4-1 0a3 3 0 0 0-1.6-.2c-.8 0 5.6 2.6 6.9 2.7.3 0 .9-.7 1.5-2zm-22-3.5c-.4-.3-.4-.3-.2.2.1.4.3.6.4.5.1-.1 0-.4-.2-.7zm10.8-1.1c.4-1.4-.2-6.2-.7-6.2-.2 0-.3.5 0 1.3l.2 3.7.1 2.4.4-1.2zM71.7 196c0-.4-.1-.7-.2-.7l-.3.7.1.7c.2 0 .4-.3.4-.7zm35.1-2.7h-.6c-.3 0-.2.2.2.2s.6 0 .4-.2zm-48.2 20c0-.2-.3-.4-.6-.4s0-.2.8-.5c1.5-.6 3-.7 1.7-.2-.5.2-1 .6-1 .9-.3.6-.9.7-.9.2zm-1-10.5c0-.3.1-.4.3-.3.2.1.3.4.2.6-.3.5-.5.4-.5-.3zm-.9-5c-.2-.2 0-.8.5-.8.2 0 .4.3.4.6 0 .5-.5.7-.9.3zm3-5.5.6-.6c.5-.4.6-.4.1.1-.4.6-.7.8-.7.5zm15-5c-.5-.8-.6-1-.2-1.2.7-.5 1-.4.8.1 0 .3.3.9.8 1.3l1 .7h-.9c-.5 0-1.1-.4-1.5-1zm.6-4c-.5-1-.7-2-.6-2 .2-.3.1-.3 1.3 1.4.8 1.2 1 2.3.3 2.3-.2 0-.6-.8-1-1.8zm6.5.8a1 1 0 0 1-.3-.6c0-.2.2-.2.5 0 .2.3.3.6.2.7h-.4z" style="fill:#919591;stroke-width:.352778" transform="translate(-44.5 -173.2)"/>
  <path d="M74.7 241.2a35.6 35.6 0 0 1-16.9-6.8c-4.2-3.5-6.2-7-7.3-13a49.6 49.6 0 0 0-3.7-14.2l-.2-1 .6 1c2 3.5 4.2 5.6 8.4 7.8 2 1 2.5 1 2.9.6l3-2.4a43 43 0 0 0 4.3-3.5l1.8-1.5-1.8-1c-3-1.5-5.1-3.4-6.5-6L58 199l.5-2c.8-3 3.4-6.2 6.1-7.3 1.4-.6 2.1-1.2 2.4-1.9l.9-1.2c.5-.3 1.9.6 3.3 2 1.1 1.2 1.2 2.2.7 4.8a54.6 54.6 0 0 1 1.2-2.7c-.2.1-.4 0-.4-.1 0-.2.3-.4.7-.4.6 0 .6.1.4 1-.2.7-.2 1.1 0 1.1s.4-.6.5-1.3c.4-2.5.5-2.6 2.4-2 1 .2 1.8.5 2 .7.2.2.1 1.4 0 2.8a95.4 95.4 0 0 0-.8 4.7c-.2.2-.2.5-.1.7.1 0 0 .4-.2.6-.2.3-.3.6-.2.7.3.4 1.3-2 1.3-3.3 0-.5.2-1.3.4-1.7.2-.4.3.2.1 2l-.2 3.3-.5 2.9c-.7 2.8-.6 3.7 0 3.4.4-.1.6-.5.5-.8-.1-.4 0-.7 0-.8a83 83 0 0 0 2.8-13.1c-.2-.4 0-.6.5-.6.8 0 .8 0 .2-.5-.5-.4-.4-.5 1.4-.8 2.6-.6 4.6-.2 5.2 1l1.8 4.3c.8 1.9 1.5 3.3 1.7 3.2v-.5l-.2-1.7c0-.7-.6-2.6-1.5-5-1.6-3.6-1.6-3.8-1.2-5.6.6-3 .8-3.1 1.7-.7l.8 2.1 2-1.8 2.3-1.7c.1.1-.8 1-2 2-2.1 2-2.5 2.6-1.4 2.5 1.3-.1 5.4 2.3 7.6 4.3 1.3 1.3 2.3 2 2.5 1.8a56 56 0 0 1 9.7-1.2c.7 0 1 .3 1.7 1.4l.7 1.5a4 4 0 0 1-1-1.4 6 6 0 0 0-.8-1.4l-10.3 1.5.5 2.2c.5 2 .5 3.2-.5 6.4-.1.5 0 .7.5.7l5.4 1.9 5.2 1.8c.5 0 2.1-3.4 2.2-4.6a38.7 38.7 0 0 1-1.4 8.3 120 120 0 0 0-2 9c-1.4 7.5-2 9-4 11.3a34 34 0 0 1-26 10.8c-3.3 0-7-.1-8.4-.3zm-5.9-6.1c-.1-.2-4.4-1.8-5.7-2.2-1-.3-.8.8.3 1.4.4.3 1 .5 1.3.4.2 0 1 0 1.5.2 1.1.3 2.9.5 2.6.2zm-7.7-2.8-3.2-2.5a26 26 0 0 1-6.6-7.1c-.3-.4 0 .1.4 1.1.6 1 2 2.8 3.2 4 2.6 2.6 6.2 5.2 6.2 4.5zm28.4-.9c.4-.4 1.7-1 2.8-1.2l3.4-1c1-.5 1.1-.6.3-.6-1.5 0-6.9 1-7.3 1.4-.5.4-.6 2-.2 2 .1 0 .6-.2 1-.6zm-10.4-.5c.7-.2.7-.3.3-.6-.8-.5-3-.4-3.5.2-1 1.2.6 1.4 3.2.4zm3.8-.4s-.1-.3-.4-.4c-.7-.3-2.4.1-2.4.5 0 .3 2.4.2 2.8 0zm-27.6-8.4c0-.3-.2-.2-.2.2s0 .6.2.5v-.7zm35-2.3c.1-.9-2.6-8.3-3.3-8.9-.2-.1-2.7-.4-5.6-.5-3 0-6.6-.4-8.2-.7-5.7-1.2-4.7-1.5-9.6 3a25.3 25.3 0 0 0-4.2 4.3c0 .2.5.5.8.5l5 1.1a60 60 0 0 0 18.1 2h6.9zm6.5-.6c5.2-1.7 9.7-4 13-6.6 2.7-2 4.6-4.6 4-5.2-.2-.2-2.8-1.1-6-2.1l-5.5-1.8-2 1.2a44.3 44.3 0 0 1-7.7 4l-1.5-5.2c-1.5-5.6-3.8-13-4-13.2l-.9-.4c-.7-.2-.8-.1-.4.6l2.3 7.7a99.3 99.3 0 0 0 2.5 7.3c-.1-.3 0-.5 0-.4.5.2 1.6 3.4 1.3 3.7 0 .2-1 .6-2 .9a6 6 0 0 0-2 .8 56 56 0 0 0 4 9.1l.8.8 4.1-1.2zm-3.2-18.3c-.4-.3-.4-.3-.2.2.1.4.3.6.4.5.1-.1 0-.4-.2-.7zm-22-4.8v-.7c-.1 0-.3.3-.4.7l.1.7c.2 0 .4-.3.4-.7zm32.4 5.5c0-.3.4-.6.7-.6.3 0 .5 0 .4.1l-.7.6c-.6.4-.6.4-.4-.1zm-50.4-2.2h.9c.2 0 0 .2-.5.2s-.7-.1-.4-.2zm62.9-.3c0-.5 0-.5.2-.3v.7c-.1.1-.2 0-.2-.4zm-.9-2.9c-.3-.8-.2-1 .2-.4.2.4.3.8.2.9 0 0-.3-.1-.4-.5zm-40.9-8.9c-.5-1-.5-1 .1-1.2.5-.1.6 0 .5.3 0 .2.3.8.8 1.2l1 .7h-.9c-.6 0-1-.3-1.5-1zm1.2-2.5-.7-1.8c-.4-.8-.6-1.6-.5-1.7.2-.2.2-.2 1.1 1.8 1 2 1 2 .4 2a.4.4 0 0 1-.3-.3z" style="fill:#b08661;stroke-width:.352778" transform="translate(-44.5 -173.2)"/>
  <path d="M74.7 241.2a35.6 35.6 0 0 1-16.9-6.8c-4.2-3.5-6.2-7-7.3-13a49.6 49.6 0 0 0-3.7-14.2l-.2-1 .6 1c2 3.5 4.2 5.6 8.4 7.8 2 1 2.5 1 2.9.6l3-2.4a43 43 0 0 0 4.3-3.5l1.8-1.5-1.8-1c-3-1.5-5.1-3.4-6.5-6L58 199l.5-2a12 12 0 0 1 5.6-7.1c1-.4 1.8-.7 2-.6.1.1.6-.4 1-1.2.8-1.6.7-1.6 2-1 1.5.8 2.6 2.1 2.2 2.7a3 3 0 0 0-.3 1.4c0 .5-.2.7-.5.5-.2-.1-.3 0 0 .2 0 .3 0 .6-.2.7l-.5 1-.3 1-.7 1.4c-.3 1-.3 1 .9-.3a5 5 0 0 0 1.2-2c0-.4.2-.7.4-.9.6-.3.2 2-.4 2.8-.4.3-.6.8-.6 1 0 .3 0 .3.3 0 .7-1 .3 0-.4 1.2-.4.6-.6 1.2-.4 1.2.1 0 0 .2-.3.4s-.3.3 0 .3c.5 0 2.1-2.5 3-4.7.7-2.2.7-2.3 0-1.4-.7 1-.6.3.3-1.4.5-1.1.6-1.5.2-1.7-.3-.2-.3-.3.2-.3s.6.2.4 1.8l-.2 1.9.5-1.6.7-2.6c.3-1 .3-1 1.6-.8 2.7.6 2.7.5 1.6 5.5a46.8 46.8 0 0 0-1 8.7l-.2 1.4.7-1.5c.4-.8.9-2.1 1-3 .2-1.3.3-1.4.5-.6 0 .5-.1 2-.5 3.4-.7 2.6-.8 4.2-.4 4.5.2 0 .5-.3.7-.8.7-1.6 3-12.5 3-14.3.1-1.4.2-1.7.7-1.5.7.1.8-.2.3-.8-.6-.6 3-1.2 4.8-.9 1.3.3 1.4.4 2.3 2.8a129.8 129.8 0 0 0 5 11.6c-.8-2.3-1.4-4.6-1.1-4.8.2-.1-.9-3.9-2.4-7.9l-.2-.7.5.7c.4.5.3-.1-.4-2.2-.5-1.5-1-2.8-1.2-2.7-.4.3-.3-.5.1-2 .5-1.7.7-1.5 1.6.8l.6 1.7 2.1-1.8c1.1-1 2.2-1.7 2.2-1.7.1.1-.8 1-2 2-2.1 2-2.5 2.6-1.4 2.5 1.3-.1 5.4 2.3 7.6 4.3 1.3 1.3 2.3 2 2.5 1.8a56 56 0 0 1 9.7-1.2c.7 0 1 .3 1.7 1.4l.7 1.5a4 4 0 0 1-1-1.4 6 6 0 0 0-.8-1.4l-10.3 1.5.5 2.2c.5 2 .5 3.2-.5 6.4-.1.5 0 .7.5.7l5.4 1.9 5.2 1.8c.5 0 2.1-3.4 2.2-4.6a38.7 38.7 0 0 1-1.4 8.3 120 120 0 0 0-2 9c-1.4 7.5-2 9-4 11.3a34 34 0 0 1-26 10.8c-3.3 0-7-.1-8.4-.3zm-5.9-6.1c-.1-.2-4.4-1.8-5.7-2.2-1-.3-.8.8.3 1.4.4.3 1 .5 1.3.4.2 0 1 0 1.5.2 1.1.3 2.9.5 2.6.2zm-7.7-2.8-3.2-2.5a26 26 0 0 1-6.6-7.1c-.3-.4 0 .1.4 1.1.6 1 2 2.8 3.2 4 2.6 2.6 6.2 5.2 6.2 4.5zm28.4-.9c.4-.4 1.7-1 2.8-1.2l3.4-1c1-.5 1.1-.6.3-.6-1.5 0-6.9 1-7.3 1.4-.5.4-.6 2-.2 2 .1 0 .6-.2 1-.6zm-10.4-.5c.7-.2.7-.3.3-.6-.8-.5-3-.4-3.5.2-1 1.2.6 1.4 3.2.4zm3.8-.4s-.1-.3-.4-.4c-.7-.3-2.4.1-2.4.5 0 .3 2.4.2 2.8 0zm-27.6-8.4c0-.3-.2-.2-.2.2s0 .6.2.5v-.7zm35-2.3c.1-.9-2.6-8.3-3.3-8.9-.2-.1-2.7-.4-5.6-.5-3 0-6.6-.4-8.2-.7-5.7-1.2-4.7-1.5-9.6 3a25.3 25.3 0 0 0-4.2 4.3c0 .2.5.5.8.5l5 1.1a60 60 0 0 0 18.1 2h6.9zm6.5-.6c5.2-1.7 9.7-4 13-6.6 2.7-2 4.6-4.6 4-5.2-.2-.2-2.8-1.1-6-2.1l-5.5-1.8-2 1.2a48.4 48.4 0 0 1-7.6 4l-1.4-4.9a44 44 0 0 0-4.9-13.9c-.4-.1-.7-.2-.8-.1-.1.1 4 14.4 5.1 17.6.3.8.6 1.3.9 1.1.2-.1.1 0-.1.4-.3.3-1.2.7-2 1-.9.1-1.6.4-1.6.6a56 56 0 0 0 4 9.1l.8.8 4.1-1.2zm7.2-17.6c0-.3.4-.6.7-.6.3 0 .5 0 .4.1l-.7.6c-.6.4-.6.4-.4-.1zm-50.4-2.2h.9c.2 0 0 .2-.5.2s-.7-.1-.4-.2zm62.9-.3c0-.5 0-.5.2-.3v.7c-.1.1-.2 0-.2-.4zm-.9-2.9c-.3-.8-.2-1 .2-.4.2.4.3.8.2.9 0 0-.3-.1-.4-.5zm-40.5-8.5c-1-1-1-1.4-.3-1.6.5-.1.6 0 .5.4 0 .4.2.8.8 1.2 1 .5 1 .6.3.6-.4 0-1-.3-1.3-.6zm14.6-.5c-.2-.4-.4-.8-.3-.9.1 0 .4.2.6.6.2.4.4.8.3 1l-.6-.7zm-13.8-2.4-.7-1.8c-.4-.8-.6-1.6-.5-1.7.2-.2.2-.2 1.1 1.8 1 2 1 2 .4 2a.4.4 0 0 1-.3-.3z" style="fill:#7d8181;stroke-width:.352778" transform="translate(-44.5 -173.2)"/>
  <path d="M76.2 241.3a32.4 32.4 0 0 1-20-8.5 19.1 19.1 0 0 1-5.2-9l-.2-1.4.6 1a24.9 24.9 0 0 0 9.4 9c.7 0 0-.7-2-2a23.5 23.5 0 0 1-6.5-6.2c-.5-.8-1-1.6-1.3-1.8a27 27 0 0 1-1.3-5.1 46.3 46.3 0 0 0-2.9-10.1c-.2-.8 0-.7.7.7 1.4 2.5 4.3 5.2 7.1 6.6l3 1.6c.6.5.7.5.7 0 0-.2 1.1-1.3 2.5-2.3l4.7-3.7 2-1.9-2.4-1.4c-1.3-.7-3-2-3.7-2.7-1.7-1.6-3.3-4.7-3.2-5.9.5-4 4.5-8.7 7.6-9 .4 0 1-.6 1.3-1.3.8-1.5.7-1.5 2-.8 1.5.7 2.6 2 2.2 2.6a3 3 0 0 0-.3 1.4c0 .5-.2.7-.5.5-.2-.1-.3 0 0 .2 0 .3 0 .6-.2.7l-.5 1-.3 1-.7 1.4c-.3 1-.3 1 .9-.3a5 5 0 0 0 1.2-2c0-.4.2-.7.4-.9.6-.3.2 2-.4 2.8-.4.3-.6.8-.6 1 0 .3 0 .3.3 0 .7-1 .3 0-.4 1.2-.4.6-.6 1.2-.4 1.2.1 0 0 .2-.3.4s-.3.3 0 .3c.5 0 2.1-2.5 3-4.7.7-2.2.7-2.3 0-1.4-.7 1-.6.3.3-1.4.5-1.1.6-1.5.2-1.7-.3-.2-.3-.3.2-.3s.6.2.4 1.8l-.2 1.9.5-1.6.7-2.6c.3-1 .3-1 1.6-.8 2.7.6 2.7.5 1.6 5.5a46.8 46.8 0 0 0-1 8.7l-.2 1.4.7-1.5c.4-.8.9-2.1 1-3 .2-1.3.3-1.4.5-.6 0 .5-.1 2-.5 3.4-.7 2.6-.8 4.2-.4 4.5.2 0 .5-.3.7-.8.7-1.6 3-12.5 3-14.3.1-1.4.2-1.7.7-1.5.7.1.8-.2.3-.8-.6-.6 3-1.2 4.8-.9 1.3.3 1.4.4 2.3 2.8a129.8 129.8 0 0 0 5 11.6c-.8-2.3-1.4-4.6-1.1-4.8.2-.1-.9-3.9-2.4-7.9l-.2-.7.5.7c.4.5.3-.1-.4-2.2-.5-1.5-1-2.7-1.2-2.6-.4.2 0-2.3.5-3.1.2-.4.3-.4.6.3l.8 2 .5 1.2 2-1.7c1-1 2-1.8 2.2-1.8.1 0-.7.9-1.9 2-2.2 2-2.5 2.6-1.6 2.6 1.2 0 5 2.1 7 3.9l2.4 2.1c0 .2.7.2 1.4 0a8 8 0 0 1 2-.3c.6 0 .1.1-1 .3-1.5.3-1.8.5-1.6 1 .9 2.1 1 4.3.4 6.4l-.5 2.2 1.4.5a86.6 86.6 0 0 1 7.7 2.7l2.2.8.6-.8 1.2-2.7c.3-1 .6-1.7.6-1.4 0 .7-1.4 7.2-2 8.9l-1.7 8.5c-1.4 7.8-2.1 9.5-4.6 12a50.4 50.4 0 0 1-9.4 6.7c-5.4 2.7-15 4-22.9 3.2zm-3-5.3c-.2-.2-1.3-.5-2.6-.7l-5-1.5c-3-1.2-3.1-1.2-3.1-.6 0 .8 1.1 1.6 2.1 1.6l3.9.7c3.2.8 5.3 1 4.7.5zm4.1-4.3c.4 0 .8-.1.9-.3.1-.2 1.4-.4 3-.4l3.5-.2c.8-.2.8-.3.2-.5-1-.4-9-.4-9 0l-.2 1.8c-.1 1.5 0 1.5.4.6.3-.6.8-1 1.2-1zm15.6-1.6c3-.7 5.6-1.7 5.6-2.2 0-.2-.7-.2-1.7.1l-4 .9a34 34 0 0 0-3.4.7c-1 .4-1.2.5-1.2 1.8v1.4l1.2-1c.7-.7 1.8-1.3 3.5-1.7zm-37.6-8.5c-.2-.7-.3-1.2-.4-1v1.4c.2.7.3 1.2.4 1.1v-1.5zm33.6-.8c1.4 0 1.5 0 1.5-1.1 0-1.2-2.7-8.5-3.3-8.8-.2-.2-2.7-.4-5.7-.5-3 0-6.6-.4-8.2-.7-5.7-1.2-4.7-1.5-9.6 3a26.9 26.9 0 0 0-4.2 4.3 77.3 77.3 0 0 0 29.5 3.8zm15.2-4.4c5.5-2.8 11.1-8 9.8-9a65 65 0 0 0-6-2.1l-5.6-1.9-2.2 1.4c-2 1.4-7.3 4-7.5 3.9l-1.3-4.9a44 44 0 0 0-4.9-13.9c-.4-.1-.7-.2-.8-.1-.1.1 4 14.4 5.1 17.6.3.8.6 1.3.9 1.1.2 0 .1 0-.2.4a6 6 0 0 1-2 .9c-.8.2-1.5.6-1.5.8 0 .6 3.5 9 4 9.5s1 .4 5.4-1l6.8-2.7zm11.5-20.2c-.3-.8-.2-1 .2-.4.2.4.3.8.2.9 0 0-.3-.1-.4-.5zm-1.3-2.6c-.2-.4-.3-.8-.2-.9l.5.7c.5 1.1.3 1.2-.3.2zm-3.9-1.3h.7c0 .2-.1.2-.5.2s-.5 0-.2-.2zm2.5-.3h.6c.2.1 0 .2-.4.2s-.5-.1-.2-.2zM75 187.7c-1-1-1-1.5-.5-1.5.3 0 .6.2.6.5 0 .2.4.7 1 1 .8.5.9.6.2.6-.4 0-1-.3-1.3-.6zm14.6-.5c-.2-.4-.4-.8-.3-.9.1 0 .4.2.6.6.2.4.4.8.3 1l-.6-.7zm-14-3.4-1-2v-.5c.3 0 .5.2.6.6l.7 2c.4.7.5 1.2.4 1.2-.1 0-.4-.5-.7-1.3z" style="fill:#7d807d;stroke-width:.352778" transform="translate(-44.5 -173.2)"/>
  <path d="M75.2 241.2a31.6 31.6 0 0 1-19.3-8.6 18.8 18.8 0 0 1-4.9-8.8c-.1-1.3-.1-1.3.2-.6 1.4 3.2 9.3 10.5 10 9.3.1-.2-.9-1.1-2.2-2a27.7 27.7 0 0 1-7.6-7.8c-.5-1-1.2-3.2-1.7-6a43.2 43.2 0 0 0-3-9.5c0-.8.1-.6 1 .9l2 3c1.1 1.1 6 4.4 6.6 4.4.2 0 .7.3 1 .7.8.8 1.5 1 1.2.2-.1-.3 1.2-1.5 3.4-3.3l4.6-3.9 1-1-2.5-1.5c-3-1.7-4.6-3.4-6-5.9l-1-1.8.6-2c.6-2.4 1-3 3-5.2a7.7 7.7 0 0 1 4.4-2.5c.2 0 .7-.6 1.1-1.4.8-1.5.7-1.5 2-.8 1.5.7 2.6 2 2.2 2.6a3 3 0 0 0-.3 1.4c0 .5-.2.7-.5.5-.2-.1-.3 0 0 .2 0 .3 0 .6-.2.7l-.5 1-.3 1-.7 1.4c-.3 1-.3 1 .9-.3a5 5 0 0 0 1.2-2c0-.4.2-.7.4-.9.6-.3.2 2-.4 2.8-.4.3-.6.8-.6 1 0 .3 0 .3.3 0 .7-1 .3 0-.4 1.2-.4.6-.6 1.2-.4 1.2.1 0 0 .2-.3.4s-.3.3 0 .3c.5 0 2.1-2.5 3-4.7.7-2.2.7-2.3 0-1.4-.7 1-.6.3.3-1.4.5-1.1.6-1.5.2-1.7-.3-.2-.3-.3.2-.3s.6.2.4 1.8l-.2 1.9.5-1.6.7-2.6c.3-1 .3-1 1.6-.8 2.7.6 2.7.5 1.6 5.5a46.8 46.8 0 0 0-1 8.7l-.2 1.4.7-1.5c.4-.8.9-2.1 1-3 .2-1.3.3-1.4.5-.6 0 .5-.1 2-.5 3.4-.7 2.6-.8 4.2-.4 4.5.2 0 .5-.3.7-.8.7-1.6 3-12.5 3-14.3.1-1.4.2-1.7.7-1.5.7.1.8-.2.3-.8-.6-.6 3-1.2 4.8-.9 1.3.3 1.4.4 2.3 2.8a129.8 129.8 0 0 0 5 11.6c-.8-2.3-1.4-4.6-1.1-4.8.2-.1-.9-3.9-2.4-7.9l-.2-.7.5.7c.4.5.3-.1-.4-2.2-.5-1.5-1-2.7-1.2-2.6-.2 0-.2-.4 0-1.2.4-2.4.7-2.5 1.4-.6l.8 2c.1 0 1.1-.6 2.2-1.6s2-1.7 2.2-1.7l-1.8 1.8c-1.1 1-2 2-2.1 2.2 0 .2 1 .9 2.3 1.4a15 15 0 0 1 3.3 1.8c2.6 2.3 4.5 3.7 4.8 3.6.2-.1.3 0 .3.2s.1 1.4.4 2.7a7 7 0 0 1-.1 4.3l-.5 2.3 3.3 1.2c5.7 2 5.6 2.4-.2.5l-3.8-1.3-2 1.2c-3.5 2.4-8 4.4-8 3.6 0-.4-2.8-10.6-4-14.1-1-3-1.4-4-2-4.2-.4-.1-.7-.2-.8-.1-.1.1 4 14.4 5.1 17.6.3.8.6 1.3.9 1.1.2-.1.2 0 0 .2s-1.2.7-2.1 1c-1 .4-1.8.8-1.7 1 .1.8 3.7 9 4.2 9.5.4.6.6.6 1.3.3l4.3-1.5a35.2 35.2 0 0 0 15.5-9.3c1.6-1.9 1.4-2.3-1-3.2-.8-.3-1.3-.5-1-.5l1.8.5 1.6.4 1-1.8c.5-1 1-1.6 1-1.4 0 .7-1 5.2-1.4 6.3-.3.6-1 4.5-1.8 8.7-1.7 8.8-2.3 10.3-5.3 13.1a36 36 0 0 1-16.8 9 74 74 0 0 1-16 .4zm-1.6-5.2c0-.2-1-.4-1.8-.6-1 0-3.4-.8-5.4-1.4-2-.7-3.7-1.2-3.8-1.1-.1.1 0 .8.2 1.5.3.7.6 1.1.7 1 .3-.5 2.9-.3 5.3.3 2.2.6 5.1.8 4.8.3zm3.3-3.5c1.1-1.1 2.5-1.6 3-1.2.3.2.6.3.7.2l2.6-.4c1.3-.2 2.4-.4 2.4-.6 0-.5-8.6-.8-9.4-.5-.5.3-.7.8-.6 2.3 0 1.7 0 2 .3 1.4.3-.4.7-1 1-1.2zm11.7.7c0-1.2 1.8-2.4 4.6-3 2.8-.7 6.3-2.2 6.3-2.8 0-.4.2-.4-2.4.4-1.3.4-3.4 1-4.6 1.1l-3.5.7c-1.1.4-1.1.4-1 2.5 0 1 .2 2 .3 1.9.2-.1.3-.5.3-.8zm-33.5-12.4-.3-.9v.9c0 .5 0 1.3.2 1.7l.3 1v-1c.1-.5 0-1.3-.2-1.7zm34.8 0c.9-.6.7-2-1-6l-1.6-4-5.3-.3a75 75 0 0 1-8.4-.8c-6.4-1.2-5.2-1.5-9.8 2.7-3.6 3.2-4.8 4.6-4.4 5a85.1 85.1 0 0 0 16.5 3.4c3.7.3 13.6.3 14 0zm-15-33.5c-.7-1-.7-1-.3-1 .3 0 .6.1.6.4 0 .2.4.7 1 1 .9.6.9.6.2.6-.5 0-1.1-.4-1.6-1zm14.8 0c-.2-.5-.4-.9-.3-1 .1 0 .4.2.6.6.2.4.4.8.3 1l-.6-.7z" style="fill:#a47149;stroke-width:.352778" transform="translate(-44.5 -173.2)"/>
  <path d="M75.2 241.2a31.6 31.6 0 0 1-19.3-8.6 18.8 18.8 0 0 1-4.9-8.8c-.1-1.3-.1-1.3.2-.6 1.4 3.2 9.3 10.5 10 9.3.1-.2-.9-1.1-2.2-2a27.7 27.7 0 0 1-7.6-7.8c-.5-1-1.2-3.2-1.7-6a43.2 43.2 0 0 0-3-9.5c0-.8.1-.6 1 .9l2 3c1.1 1.1 6 4.4 6.6 4.4.2 0 .7.3 1 .7.8.8 1.5 1 1.2.2-.1-.3 1.2-1.5 3.4-3.3l4.6-3.9 1-1-2.5-1.5c-3-1.7-4.6-3.4-6-5.9l-1-1.8.6-2 1-3c1.1-1.4 3.5-4 4-4a5 5 0 0 0 1.4-.4c1.2-.7 1.3-.3.5 1.2L65 192c0 .2.6-.9 1.4-2.4 1.3-2.5 1.5-2.8 2-2.2.2.4.6.6 1 .4.8-.2 1.2 0 1.4 1.2 0 .5 0 .7-.3.5-.2-.1-.3 0-.2.3.1.2-.2 1.3-.7 2.4a734.2 734.2 0 0 0-2.9 7c.3 0 .3.3 0 .7-.4 1-.4 1.5 0 1.5.2 0 .4-.3.4-.6 0-.6 0-.6.3-.1.2.3.2.7 0 1.1-.2.4-.3 1-.3 1.4.2.8.2.8 1.1-.1a27 27 0 0 0 3-5c2-4.2 2.3-4 1.3.5l-.5 2.7c0 1.4.4-.2 1.4-5.4 1.3-6.4 1.5-6.8 2.1-6 .4.5.4 1 .1 2.8-.4 2.4-.6 5-.2 4.7l.4-2a53.7 53.7 0 0 1 .4-4.4c0-1.6.6-2.2 1.3-1.6.3.3.4.6.2.8-.3.4-.4.8-.4 2.8 0 .6-.2 1.3-.4 1.5-.2.2-.4 1.3-.5 2.3 0 1-.3 3.5-.6 5.4-.3 1.9-.3 3.6-.2 3.9.2.2.3.9.3 1.5 0 .5.1.8.2.6.3-.7.9-.2.9.6 0 1.3 1 .7 1.5-1 .5-1.5 2.5-10.2 3.4-15.1.3-1.8.5-2.2 1-2 .5.2.5 0 0-.6-.8-.7-.8-.7 0-.7.5 0 1-.2 1.4-.4.4-.1 1.5-.2 2.4 0l1.8.1 1.4 3.8c1.7 4.1 1.9 5 .8 3.4-.8-1.3-1-1-.1.5.3.6.4 1.4.3 1.7-.2.6 0 .7.9 1 1.5.3 1.3 1-.3.8-.5 0-.6.3-.1 1 .2.4.4.5.6.3.2-.2 2 1.5 2.9 2.8.4.6.4.6.2-.2-.2-.5-.3-1.7-.4-2.6 0-1-.3-2.6-.6-3.6-.7-2-.7-2-.2-1.7.2 0 .3 0 .2-.3l-.7-2.7a57 57 0 0 0-3.1-8.4 2 2 0 0 1 0-1.7c.3-1 .3-1 1 .8.2 1 .6 2 .8 2 .1.1 1.1-.6 2.2-1.6s2-1.7 2.2-1.7l-1.8 1.8c-1.2 1-2.1 2-2.1 2.2 0 .2 1.1.9 2.4 1.5 1.4.6 2.8 1.4 3.2 1.8 3.3 2.7 4.5 3.6 4.8 3.5.2-.1.3 0 .3.2s.1 1.4.4 2.7a7 7 0 0 1-.1 4.3l-.5 2.3 3.3 1.2c5.7 2 5.6 2.4-.2.5l-3.8-1.3-2 1.2a36.2 36.2 0 0 1-7.3 3.8c-.5 0-1-1.4-1.5-3.8-.3-1.5-2.7-9.6-3.8-12.5-.4-1.3-1-2-1.4-2.2-.4-.1-.8-.2-.8 0-.2 0 3 11.3 4.6 16.2.5 1.5.8 2.8.7 3l-1.7.7c-.7.3-1.4.7-1.4.9 0 .5 3.7 8.8 4.2 9.5.4.6.6.6 1.3.3l4.3-1.5a35.2 35.2 0 0 0 15.5-9.3c1.6-1.9 1.4-2.3-1-3.2-.8-.3-1.3-.5-1-.5l1.8.5 1.6.4 1-1.8c.5-1 1-1.6 1-1.4 0 .7-1 5.2-1.4 6.3-.3.6-1 4.5-1.8 8.7-1.7 8.8-2.3 10.3-5.3 13.1a36 36 0 0 1-16.8 9 74 74 0 0 1-16 .4zm-1.6-5.2c0-.2-1-.4-1.8-.6-1 0-3.4-.8-5.4-1.4-2-.7-3.7-1.2-3.8-1.1-.1.1 0 .8.2 1.5.3.7.6 1.1.7 1 .3-.5 2.9-.3 5.3.3 2.2.6 5.1.8 4.8.3zm3.3-3.5c1.1-1.1 2.5-1.6 3-1.2.3.2.6.3.7.2l2.6-.4c1.3-.2 2.4-.4 2.4-.6 0-.5-8.6-.8-9.4-.5-.5.3-.7.8-.6 2.3 0 1.7 0 2 .3 1.4.3-.4.7-1 1-1.2zm11.7.7c0-1.2 1.8-2.4 4.6-3 2.8-.7 6.3-2.2 6.3-2.8 0-.4.2-.4-2.4.4-1.3.4-3.4 1-4.6 1.1l-3.5.7c-1.1.4-1.1.4-1 2.5 0 1 .2 2 .3 1.9.2-.1.3-.5.3-.8zm-33.5-12.4-.3-.9v.9c0 .5 0 1.3.2 1.7l.3 1v-1c.1-.5 0-1.3-.2-1.7zm34.8 0c.9-.6.7-2-1-6l-1.6-4-5-.3a71 71 0 0 1-12.9-1.7l-1.3-.3-4.2 3.8c-3.7 3.3-5 4.7-4.5 5.1a85.1 85.1 0 0 0 16.5 3.4c3.7.3 13.6.3 14 0zm-8.5-16.5c-.2-.8-.4-1.6-.6-1.7-.3-.2-.3.1-.2 1l.5 2.9c.2 1.6.3 1.7.4.5l-.1-2.7zm2.1-2c0-.2-.2-.1-.2.3s.1.6.2.4v-.6zm8-4.1v-.6c.1 0 .3.1.4.4.2.6 0 .7-.3.2zm-16.7-11c-.6-.8-.6-1-.1-1 .3 0 .4.2.3.3 0 .2.3.7.8 1 .7.6.8.8.4.8-.3 0-1-.5-1.4-1z" style="fill:#6c6e6d;stroke-width:.352778" transform="translate(-44.5 -173.2)"/>
  <path d="M75.6 241.2c-10.9-1.3-19.6-6.3-23-13.4-.8-1.4-1.5-3.2-1.6-3.8-.2-1.2-.2-1.2.9.5 1.6 2.9 7.6 8.3 9 8.3 1 0 .3-.9-1.8-2.3a27.2 27.2 0 0 1-7.5-7.6c-.7-1.4-1.3-3.1-1.8-6a32.3 32.3 0 0 0-2.7-8.7c-.2-1-.1-1 .7.4l1.5 2.6c.3.6.7 1 .9 1 .2-.2.8.2 1.5.7a29 29 0 0 0 3.5 2.4c1.3.7 2.4 1.6 2.4 1.8 0 .2.2.6.5.9.4.3.5.2.5-.8s.3-1.4 1.7-2.5c2.3-1.7 7-6 7-6.4 0-.2-.8-1-2-1.6-3-1.6-5-3.6-6.2-5.9-.8-1.7-.8-2-.5-3.6.2-.9.7-2.2 1.2-3a15 15 0 0 1 3.7-4l1.2-.4c1.4-.6 1.3-.6.8.8-1 2.3-.5 1.8 1-1 1.2-2.5 1.4-2.8 1.8-2.2.3.4.7.6 1.2.4.7-.2 1 0 1.3 1.2 0 .5 0 .7-.3.5-.2-.1-.3 0-.2.3.1.2-.2 1.3-.7 2.4a734.2 734.2 0 0 0-2.9 7c.3 0 .3.3 0 .7-.4 1-.4 1.5 0 1.5.2 0 .4-.3.4-.6 0-.6 0-.6.3-.1.2.3.2.7 0 1.1-.2.4-.3 1-.3 1.4.2.8.2.8 1.1-.1a27 27 0 0 0 3-5c2-4.2 2.3-4 1.3.5l-.5 2.7c0 1.4.4-.2 1.4-5.4 1.3-6.4 1.5-6.8 2.1-6 .4.5.4 1 .1 2.8-.4 2.4-.6 5-.2 4.7l.4-2a53.7 53.7 0 0 1 .4-4.4c0-1.6.6-2.2 1.3-1.6.3.3.4.6.2.8-.3.4-.4.8-.4 2.8 0 .6-.2 1.3-.4 1.5-.2.2-.4 1.3-.5 2.3 0 1-.3 3.5-.6 5.4-.3 1.9-.3 3.6-.2 3.9.2.2.3.9.3 1.5 0 .5.1.8.2.6.3-.7.9-.2.9.6 0 1.3 1 .7 1.5-1 .5-1.5 2.5-10.2 3.4-15.1.3-1.8.5-2.2 1-2 .5.2.5 0 0-.6-.8-.7-.8-.7 0-.7.5 0 1-.2 1.4-.4.4-.1 1.5-.2 2.4 0l1.8.1 1.4 3.8c1.7 4.1 1.9 5 .8 3.4-.8-1.3-1-1-.1.5.3.6.4 1.4.3 1.7-.2.6 0 .7.9 1 1.5.3 1.3 1-.3.8-.5 0-.6.3-.1 1 .2.4.4.5.6.3.2-.2 2 1.5 2.9 2.8.4.6.4.6.2-.2-.2-.5-.3-1.7-.4-2.6 0-1-.3-2.6-.6-3.6-.7-2-.7-2-.2-1.7.2 0 .3 0 .2-.3l-.7-2.7a57 57 0 0 0-3.1-8.4 2 2 0 0 1 0-1.7c.3-1 .3-.9 1.3 1.6l1 2.6 2.4 1.2a36 36 0 0 1 5.2 3.4c3.1 2.4 3.6 3.2 3.6 6.4 0 1.8-1 5-1.4 5a36.5 36.5 0 0 1-9.5 5c-.2 0-.6-1.1-1-2.5-1.1-5-4.4-15.3-5-15.7-.3-.3-.8-.5-1-.5-.6 0-.6 0 2.4 10a158 158 0 0 1 2.5 8.9c0 .5-.3.8-1.6 1.1-1 .3-1.7.6-1.7.8a73 73 0 0 1-17.1-1.5l-2.3-.5-4.4 4c-3.6 3.2-4.4 4-4.3 4.7 0 .8.4 1 2.7 1.5l6.7 1.5 7 1.3c2.6.4 3.7.4 10.6-.2 2.2-.2 2.9-.2 2.9.2 0 .2.2.2.6-.2l.8-.5c.2 0 .3-.5.2-1.2l-.2-1.1.5.9c.3.5.6 1.1.6 1.4 0 1 .7 1.2 1.1.6.3-.3 2.6-1.4 5.3-2.3a75 75 0 0 0 7-3c3.8-2 9.1-6.7 9.1-8.1 0-.3.5-1.4 1.1-2.4l1-2-.2 1.5a130.6 130.6 0 0 0-3 13c-1.4 8-1.9 9.7-3.4 11.7-1.6 2.2-7 6.4-10.4 8a44.2 44.2 0 0 1-23.8 3.4zm1.7-1.4c0-.2-.3-.2-.6 0-.5.1-.6 0-.3-.3.5-.7.7-4.3.2-4.3-.6 0-.4-1.2.3-1.7.4-.4 1.5-.5 4.6-.5 3.2 0 4 0 4-.5 0-.2 0-.4.2-.3.2.1.3-.3.3-1s-.1-1.3-.2-1.3c-1-.1-9.2-.2-9.7 0-.5 0-.6.5-.5 4 0 4.7.5 7.2 1.2 6.6.3-.2.5-.5.5-.7zm11.3.7c.3-.2.4-.3 0-.3-.2 0-.4-.2-.4-.4s.3-.3.5-.2c.8.3 1-.2.4-.8-.3-.4-.5-1.2-.6-1.9 0-1.4.7-3.5 1.2-3.2.1 0 .3-.1.5-.5 0-.3 0-.7-.3-.8l-.2-.3 3.1-.5 3-.7c1-.3 2-.5 2.2-.4.3.2.5 0 .5-.4 0-.3.4-.7 1-.9.6-.2 1.2-.7 1.3-1 0-.4.8-1 1.6-1.6 1.7-1.2 1.3-1.5-.6-.7-3 1.3-6.4 2.3-10 3l-3.8.8a84 84 0 0 0-.1 11.2l.7-.4zm-24.7-4.2c0-.5.3-.6 2-.5 2.9 0 3 0 3 .7 0 .3.3.5.7.5.4 0 .6-.2.5-.3-.1-.2 0-.4.1-.4.3 0 .5.2.6.5.3.7 1 .7 1.3.1.1-.3.3-.3 1 0 .9.6 1 .6 1.1-.2.2-.8 0-.9-4.7-2a44 44 0 0 1-4.7-1.4l-2.4-.9.2 2.2.5 2.5c.2.4.8 0 .8-.8zm32.2-4c.4-.2.5-.4.4-.6-.2-.4-1.2 0-1.2.4s.1.4.8.1zM77 227.4c0-.4-.7-.9-1-.6-.2.2.2 1 .6 1 .2 0 .4-.2.4-.4zm-21.1-3c-.3-2.7-.9-5.1-1.2-5.1-.2 0-.3.3-.2.8l.6 3.3c.5 2.7 1 3.6.8 1zm25.5-20.2c-.2-.8-.4-1.6-.6-1.7-.3-.2-.3.1-.2 1l.5 2.9c.2 1.6.3 1.7.4.5l-.1-2.7zm2.1-2c0-.2-.2-.1-.2.3s.1.6.2.4v-.6zm-19.1-8.5c.1-.3 0-.5-.2-.4l-.3.6c0 .5.3.4.5-.2zm27.2 4.4c-.1-.2-.2-.5 0-.6 0 0 .2.1.3.4.2.6 0 .7-.3.2zM75 187.5c-.6-.9-.7-1.3-.1-1.3.2 0 .2.2.1.3 0 .2.3.7.8 1 .7.6.8.8.4.8-.3 0-.9-.3-1.2-.8z" style="fill:#905b35;stroke-width:.352778" transform="translate(-44.5 -173.2)"/>
  <path d="M75.6 241.2c-10.9-1.3-19.6-6.3-23-13.4-.8-1.4-1.5-3.2-1.6-3.8-.2-1.2-.2-1.2.9.5 1.6 2.9 7.6 8.3 9 8.3 1 0 .3-.9-1.8-2.3a27.2 27.2 0 0 1-7.5-7.6c-.7-1.4-1.3-3.1-1.8-6a32.3 32.3 0 0 0-2.7-8.7c-.2-1-.1-1 .7.4l1.5 2.6c.3.6.7 1 .9 1 .2-.2.8.2 1.5.7a29 29 0 0 0 3.5 2.4c1.3.7 2.4 1.6 2.4 1.8 0 .2.2.6.5.9.4.3.5.2.5-.8s.3-1.4 1.7-2.5c2.3-1.7 7-6 7-6.4.1-.2-.8-1-2-1.6-3-1.7-5-3.6-6.2-5.9-.8-1.7-.8-2-.5-3.6.2-.9.7-2.2 1.2-3a15 15 0 0 1 3.7-4 4 4 0 0 0 1.2-.4c.6-.2 1.1-.4 1.2-.3l-1.5 3.6c-2.2 5-2.6 5.8-2.4 5.8l1.6-2.7c.8-1.5 1.3-2.4 1.2-2-.6 1.4-.6 2.2-.2 2.2.2 0 .4-.1.4-.4 0-.2 0-.3.1-.2.2.1 0 1-.5 2-.6 1.7-.6 1.8-.1 1.7.8-.1 1 1 .3 2.4-.7 1.5-.7 2 0 1 .5-.6.5-.6.3.4s-.2 1 .4.4c.6-.9.7-.2 0 1.3-.4 1-.4 1.2.1 1.2.3 0 .7-.2.9-.4.1-.2.2-.2.2.2 0 .7 1-1 4-6.6C72 197 73 195 73 195.3a40.5 40.5 0 0 1-3.3 10.5c-.3.9-.4 1.6-.2 1.6.1 0 .3.3.3.7 0 .6-.2.7-.9.5-.7-.1-1.5.4-5.3 3.8-3.6 3.3-4.4 4.1-4.3 4.8 0 .8.4 1 2.7 1.5l6.7 1.5 7 1.3c2.6.4 3.7.4 10.6-.2 2.2-.2 2.9-.2 2.9.2 0 .2.2.2.6-.2l.8-.5c.2 0 .3-.5.2-1.2l-.2-1.1.5.9c.3.5.6 1.1.6 1.4 0 1 .7 1.2 1.1.6.3-.3 2.6-1.4 5.3-2.3a75 75 0 0 0 7-3c3.8-2 9.1-6.7 9.1-8.1 0-.3.5-1.4 1.1-2.4l1-2-.2 1.5a130.6 130.6 0 0 0-3 13c-1.4 8-1.9 9.7-3.4 11.7-1.6 2.2-7 6.4-10.4 8a44.2 44.2 0 0 1-23.8 3.4zm1.7-1.4c0-.2-.3-.2-.6 0-.5.1-.6 0-.3-.3.5-.7.7-4.3.2-4.3-.6 0-.4-1.2.3-1.7.4-.4 1.5-.5 4.6-.5 3.2 0 4 0 4-.5 0-.2 0-.4.2-.3.2.1.3-.3.3-1s-.1-1.3-.2-1.3c-1-.1-9.2-.2-9.7 0-.5 0-.6.5-.5 4 0 4.7.5 7.2 1.2 6.6.3-.2.5-.5.5-.7zm11.3.7c.3-.2.4-.3 0-.3-.2 0-.4-.2-.4-.4s.3-.3.5-.2c.8.3 1-.2.4-.8-.3-.4-.5-1.2-.6-1.9 0-1.4.7-3.5 1.2-3.2.1 0 .3-.1.5-.5 0-.3 0-.7-.3-.8l-.2-.3 3.1-.5 3-.7c1-.3 2-.5 2.2-.4.3.2.5 0 .5-.4 0-.3.4-.7 1-.9.6-.2 1.2-.7 1.3-1 0-.4.8-1 1.6-1.6 1.7-1.2 1.3-1.5-.6-.7-3 1.3-6.4 2.3-10 3l-3.8.8a84 84 0 0 0-.1 11.2l.7-.4zm-24.7-4.2c0-.5.3-.6 2-.5 2.9 0 3 0 3 .7 0 .3.3.5.7.5.4 0 .6-.2.5-.3-.1-.2 0-.4.1-.4.3 0 .5.2.6.5.3.7 1 .7 1.3.1.1-.3.3-.3 1 0 .9.6 1 .6 1.1-.2.2-.8 0-.9-4.7-2a44 44 0 0 1-4.7-1.4l-2.4-.9.2 2.2.5 2.5c.2.4.8 0 .8-.8zm32.2-4c.4-.2.5-.4.4-.6-.2-.4-1.2 0-1.2.4s.1.4.8.1zM77 227.4c0-.4-.7-.9-1-.6-.2.2.2 1 .6 1 .2 0 .4-.2.4-.4zm-21.1-3c-.3-2.7-.9-5.1-1.2-5.1-.2 0-.3.3-.2.8l.6 3.3c.5 2.7 1 3.6.8 1zm30.8-14c-.5 0-.8-.5-.8-1l-.3-1.8c-.2-.8-.2-.8.3-.1.3.3.6.8.6 1 0 .6 1 1 1 .4l-.3-1.5c-.2-1-.2-1.1.2-1 .3.2.5.1.5 0a49 49 0 0 0-2.2-7.4c-.6-1.4-.6-1.4-.5-.3 0 .6 0 1-.2 1-.2-.1-.3-.4-.3-.7 0-.3-.2-1-.5-1.5l-.5-1v1.6c0 2.3 0 2.4-.7 1-.7-1.2-.8-1.1-.8 1.4 0 .8-.2 1.6-.3 1.7-.2 0-.3.7-.2 1.3.2 1.1.1 1-.6-.8-.3-.8-.4-.8-.8.8a34 34 0 0 0-.7 3.4c-.2 1.6-.2 1.7.5 1.5.5-.1.8 0 1 .7l.4.8.2-.8c.2-.4.4-.7.6-.5.3.1.3-.1.2-.8-.6-2.3-.6-3.1 0-1.4a7 7 0 0 0 1 2c0 .1 0 .3-.2.4-.7.5-.4 1 .5.8.6-.1 1 0 1 .3 0 .6-3 .7-5.4.3l-1.3-.2.5-1.7a117.8 117.8 0 0 0 2.5-10.2 40 40 0 0 0 1.8-8c-.6-.3-.3-.8.4-.8l1.4-.3c.3-.2 1.2-.2 2.3 0 1.3.3 1.6.4 1 .6-.6.3-.6.3.2.5.4 0 .7.4.7.8 0 .3-.1.4-.3.3-.5-.3-.4.2.2 2l.5 2c0 .4-.4-.6-1-2-.8-2.7-1.5-3.6-2.5-3.6-.5 0-.5.3.2 2.6a462 462 0 0 1 4.8 16.4c0 .3-.6.7-1.5 1-.8.2-1.6.6-1.7.8-.1.1-.6.2-1 0zm-2.2-20.3c0-.2-.3 0-.6.2-.3.3-.3.4.2.2.4-.1.6-.3.4-.4zm-12 19.2c-2.3-.4-2.3-.4-.8-4.5.9-2.6 1-2.8.9-1.4-.2 1.5-.2 1.5.3.7.5-.9.5-.8.5.8 0 1.4.1 1.7.5 1.6.7-.3.9.3.7 1.8v1l1.1.1c.6.2.5.3-.3.3a23 23 0 0 1-3-.4zm19.7-2.6c-.3-.9-.4-2-.2-2.3.2-.6.2-.7.8-.1.3.3.7.4.8.3.2-.2.8.3 1.3 1l1 1.1-.3-1.2a38 38 0 0 1-.7-7c0-.5-.4-2.5-.9-4.4-1-4-1-4.3-.3-3 .7 1.2.7.8-.1-1.6-.4-1-.6-2-.5-2a38 38 0 0 1 7.4 4.6c2.8 2.1 3.3 3 3.3 6.2 0 1.8-1 5-1.4 5a36.6 36.6 0 0 1-9.5 5c-.2 0-.5-.7-.7-1.6zm-1.6-7c.3-.2.6-.2.7 0 .1 0 0 .2-.4.1-.5 0-.5 0-.3-.2zM75 187.4c-.6-.9-.7-1.3-.1-1.3.2 0 .2.2.1.3 0 .2.3.7.8 1 .7.6.8.8.4.8-.3 0-.9-.3-1.2-.8zm15.6-4a3 3 0 0 1-.2-1c0-.2.2 0 .3.5.2.5.3.9.2 1 0 0-.2-.1-.3-.5z" style="fill:#4c4d4c;stroke-width:.352778" transform="translate(-44.5 -173.2)"/>
  <path d="M78.4 241.3a21.7 21.7 0 0 1 6 .2c.2.2-5.5 0-6-.2zm-4.5-.4c-1-.1-1-.3-.8-.7.2-.4.3-.4.3-.1 0 .2.2.4.4.4s.3-.2.2-.5c-.6-1.4-.5-1.6.1-.5l.7 1.2v-2.4l-.1-2.5-4.1-1a57.3 57.3 0 0 1-8.3-2.3c-.1.1 0 1.3.3 2.7l.5 2.5-1.7-1c-1.4-.7-4.5-3-3.2-2.4.2.2.4 0 .4-.2 0-.6-.9-1.7-1.2-1.4-.1 0-.2 0-.2-.4 0-.8.5-.7 1.7.3 2.5 2.3 2.5 2.3 2.7 1.7.6-1.6.2-2.2-2.3-3.8a32 32 0 0 1-4.4-3.5c-1.7-1.7-4-5.2-4-6 0-.2.4.4 1 1.4a25 25 0 0 0 2 2.8l.9 1-.3-1.9c-.3-3-1.6-6.2-2.3-5.8-.1.1-.4-.2-.5-.7-.1-.5-.4-.9-.5-.9-.2 0-.4-.2-.4-.6 0-.3-.1-.4-.3-.3-.2.1-.4-.4-.6-1.2-.1-.8-.3-1.4-.5-1.4l-.4-.8c-.2-.8-.2-.8.4 0 .4.6.7.8.7.6 0-.1.7.3 1.4 1 .7.6 2.1 1.6 3 2 1 .5 2.3 1.4 2.9 2 1.1 1.2 1.5 1.2 1.6 0 0-.7 0-.6.4.2.2.7.6 1 1.6 1.2l3.3.7a111 111 0 0 0 9.5 2.3c3.2.6 8.6.8 9 .3.2-.4 5.8-.4 5.8 0 0 .3.4.3 1 .3.6-.1 1-.4 1.3-1.4.3-.6.5-1 .5-.8l.3 1 .1 1.7c0 .6.2 1 .5 1s.5-.4.5-1c0-1.3 1-2 3.2-2.4 3.6-.7 10.2-3.8 12.8-6a27 27 0 0 0 6.5-9.2l.8-1.4-.2 1.6c-.1.9-.5 2.5-.9 3.5-.4 1.1-.7 2.5-.8 3L113 220c-1.7 9-2.7 10.6-9 15-1.5 1.1-2 1.3-1.7.8.3-.5.3-.8 0-1-.1-.1-.2-.4 0-.6 0-.3.2-.7.1-1 0-.4 0-.7.3-.7.2 0 .4.2.4.4 0 .6.4 0 .5-.6 0-.3 0-.4-.3-.3-.2.2-.3 0-.1-.3l-.1-.6c-.2 0-.3-.3-.3-.7 0-.4.3-.7.5-.7.3 0 .4-.2.3-.6 0-.4.1-1 .4-1.6 1.6-2.3 2-3 2.7-3.7 1-1.2.5-1-3.1 1a39 39 0 0 1-12.3 4.2c-2 .3-3.6.8-3.8 1.1-.2.4-.3.4-.3 0 0-.3-1.3-.4-6-.3h-5.8v5l.3 5.7c.2.9.1 1-1.8.5zM62 236.3c0-.2-.1-.4-.3-.4-.2 0-.4.2-.4.4s.2.4.4.4.3-.2.3-.4zm-1.7-1.6c-.5-.5-1-.9-1.2-.9-.2 0 .1.5.7 1 .5.7 1 1 1.1 1 .1-.1-.2-.6-.6-1zm13.8-1.4c.4-.6.4-.6-.3-.4-1 .3-2-.6-1.7-1.5.2-.3.2-.8.2-1 0-.5 0-.5.4-.2.4.4.5.3.5-.6 0-1-.6-1.6-.6-.6 0 .8-1.3 1-1.6.2-.1-.4-.4-.5-.7-.4-.3 0-.4.3-.3.5.1.2.3.2.5.1s.2.2 0 .7c-.5 1-1.3 1.3-1 .4.2-.4 0-.4-.8 0-1.2.4-1.7 0-1.1-.9.3-.5.3-1 0-1.6-.3-1-1-1.2-1-.3 0 .5 0 .5-.5.2-.3-.3-.5-.3-.7 0l-.1.4.9.5c.5.3.8.3.8 0 0-.1.1-.2.3 0 .3 0 .3.3 0 .6-.6.8-.1 2.2.8 2.4.4.2.9 0 1-.1.2-.3.3-.3.5 0 .1.2 0 .7-.2 1-.4.5-.3.5.5 0 .6-.5.8-.9.7-1.3-.2-.5-.1-.5.4 0 .5.3.5.4 0 1-.6.5-.7 1 0 .4.3-.2.6-.1 1.3.3 1 .9 1.2.9 1.8.2zm-.4-1.2c0-.1-.3-.3-.5-.3-.3 0-.5.2-.4.3.1.2.4.3.5.3.2 0 .4-.1.4-.3zm-7.2-.5c-.6-.5-1.2-2.2-.6-1.8.2.1.3 0 .2-.4-.3-.6-.9-.7-.9-.2 0 .2-.6.6-1.2.8-1.1.4-1.2.5-.7.9.3.2.9.3 1.4.3.4 0 .9 0 1 .4.1.2.5.5.8.5.6 0 .6 0 0-.5zm-2-1.3c0-.2.2-.3.4-.3s.3.1.3.3c0 .2-.1.4-.3.4a.4.4 0 0 1-.4-.4zm-2.5-.5c0-.3-.2-.7-.5-1-.6-.4-.6-.2-.3 1 .2.9.8.8.8 0zm12.3-.3c-.1-.2-.2-.2-.2.2s0 .6.1.5c.2-.1.2-.4 0-.7zM59 229c.5.8.9.3.6-.8-.2-.6-.3-1.4-.2-1.9.2-.5 0-.8-.3-1-.3 0-.6-.6-.8-1.2 0-.6-.4-1.1-.6-1.1-.2 0-.2.3 0 .6.2.7.2.8.1 1.5 0 1-1-.4-1.3-1.9-.2-1-.3-1.3-.5-.7-.1.5-.3.3-.5-1a9 9 0 0 0-.7-2.4l-.5-.9v1.3l.6 4.5c.5 2.7.8 3.4 1.4 3.9.8.5.8.5.6-.8 0-.7 0-1.4.2-1.5.2 0 .4 0 .4.3s0 .3.3 0c.5-.9 1 0 .7 1.4-.1 1-.2 1-.3.4-.1-1-.7-1.1-.7-.3 0 1 .7 2.1 1 1.6.2-.3.3-.3.5 0zm4-.6c-.4-.2-.8-.4-1-.3 0 .1.2.4.6.7.4.3.7.4.8.3.1 0 0-.4-.5-.7zm14.9.3c0-.5-1.3-2.3-1.7-2.4-.5-.2-1.3 1.4-1 2 .2.6 2.7.9 2.7.4zm-13.4-.3a2 2 0 0 0-.3-.8c-.2-.3-.3-.3-.5.1v.7c.3.3.8.3.8 0zm25.6-.3c.1-.5 0-.5-.4-.2-.6.5-.6.7-.2.7.2 0 .4-.2.6-.5zm-28.5-1.4c0-1-.1-1.1-.9-.8-.8.4-.8.4-.2.7.4.1.5.2.2.3-.4 0-.4 0 0 .5.6.8 1 .6.9-.7zm34.1.5c.1-.2.5-.2.7 0 .3 0 .6 0 .6-.2 0-.6-1-.8-2-.4-.5.2-.9.5-.9.6 0 .4 1.4.4 1.6 0zm1.9-1c-.2-.4-.2-.3-.3.1 0 .4.1.6.2.5.1-.1.2-.4 0-.7zm-34.9 0-.1-.4-.4.4c-.1.2 0 .3.2.3s.3-.1.3-.3zm-12-12.2c-.2-.3-.5-.5-.6-.4 0 .1 0 .5.3.8.2.3.5.4.6.3.1 0 0-.4-.3-.7zm36 23.7c0-2 .2-4.4.4-5.4.2-1.3.3-.3.3 3.7 0 3.3 0 5.3-.3 5.3-.2 0-.4-1.4-.3-3.6zm-16.2 2c-.4-1 0-2 .6-1.4.1.1 0 .4-.2.5-.3.2-.2.5.3 1 .5.4.7.4.8 0 .1-.2.2-.2.2.2 0 1-1.3.8-1.7-.3zm-1.6.2c-.1-.2 0-.3.2-.3.1 0 .4.1.5.3.1.2 0 .4-.1.4-.2 0-.5-.2-.6-.4zm10.6 0c.2-.4.4-.6.5-.5 0 .1 0 .4-.3.6-.3.4-.4.3-.2-.2zm-13.3-.8c-.8-.4-.9-.5-.5-1 .3-.4.6-.5.7-.3.2.2.1.4-.1.4s-.4.1-.4.3c0 .2.2.3.4.2.2-.1.6 0 1 .2.5.5.5.4 0-.1-.4-.7-.2-1.3.6-1.3.7 0 .6 1.6 0 1.9-.4 0-.7.2-.7.2l-1-.5zm12.8-.3c0-.7.1-1 .5-1 .3 0 .5.2.5.4s-.1.3-.3.3c-.2 0-.4.3-.5.6 0 .4-.2.3-.2-.3zm-14.6-1c.1-.5.3-.6.5-.4.4.4.1 1.1-.4 1.1-.1 0-.2-.3 0-.7zm15-.7c0-.2 0-.4.2-.5.2 0 .3 0 .3.3s-.1.6-.3.6c-.1 0-.3-.2-.3-.4zM55 231.5c-.5-.5-.6-.8-.4-.7.5.2 1.6 1.6 1.3 1.6l-1-.9zm3.9-15c0-.3.5-.9 1.1-1.4l1.2-.8-1.1 1.2-1.1 1.4-.1-.4zm6.3-5.9 2.5-2.4-2.7-1.6a12.6 12.6 0 0 1-6-5.8c-.8-1.8-.8-1.9-.3-3.9s2.9-5.6 4-6.1l1.7-.8c.6-.3 1.2-.4 1.2-.3 0 .4-1.5 3.7-2.7 6.1l-.7 1.7-.2.7-.2.7c.1 0 .9-1.2 1.7-2.7.8-1.5 1.3-2.4 1.2-2-.6 1.4-.6 2.2-.2 2.2.2 0 .4-.1.4-.4 0-.2 0-.3.1-.2.2.1 0 1-.5 2-.6 1.7-.6 1.8-.1 1.7.8-.1 1 1 .3 2.4-.7 1.5-.7 2 0 1 .5-.6.5-.6.3.4s-.2 1 .4.4c.6-.9.7-.2 0 1.3-.4 1-.4 1.2.1 1.2.3 0 .7-.2.9-.4.1-.2.2-.2.2.2 0 .7 1-1 4-6.6C72 197 73 195 73 195.3a40.5 40.5 0 0 1-3.3 10.5c-.3.9-.4 1.6-.2 1.6.1 0 .3.3.3.7 0 .6-.2.7-.9.5-.7-.1-1.3.2-3.6 2.2l-2.7 2.3zm-17 .4c-.3-.5-.2-.5.1-.2.3.2.4.5.3.6-.1.1-.3 0-.5-.4zm38.4-.4c-.5-.1-.8-.6-.8-1.1l-.3-1.8c-.2-.8-.2-.8.3-.1.3.3.6.8.6 1 0 .6 1 1 1 .4l-.3-1.5c-.2-1-.2-1.1.2-1 .3.2.5.1.5 0a49 49 0 0 0-2.2-7.4c-.6-1.4-.6-1.4-.5-.3 0 .6 0 1-.2 1-.2-.1-.3-.4-.3-.7 0-.3-.2-1-.5-1.5l-.5-1v1.6c0 2.3 0 2.4-.7 1-.7-1.2-.8-1.1-.8 1.4 0 .8-.2 1.6-.3 1.7-.2 0-.3.7-.2 1.3.2 1.1.1 1-.6-.8-.3-.8-.4-.8-.8.8a34 34 0 0 0-.7 3.4c-.2 1.6-.2 1.7.5 1.5.5-.1.8 0 1 .7l.4.8.2-.8c.2-.4.4-.7.6-.5.3.1.3-.1.2-.8-.6-2.3-.6-3.1 0-1.4a7 7 0 0 0 1 2c0 .1 0 .3-.2.4-.7.5-.4 1 .5.8.6-.1 1 0 1 .3 0 .6-3 .7-5.4.3l-1.3-.2.5-1.7a117.8 117.8 0 0 0 2.5-10.2 40 40 0 0 0 1.8-8c-.6-.3-.3-.8.4-.8l1.4-.3c.3-.2 1.2-.2 2.3 0 1.3.3 1.6.4 1 .6-.6.3-.6.3.2.5.4 0 .7.4.7.8 0 .3-.1.4-.3.3-.5-.3-.4.2.2 2l.5 2c0 .4-.4-.6-1-2-.8-2.7-1.5-3.6-2.5-3.6-.5 0-.5.3.2 2.6a462 462 0 0 1 4.8 16.4c0 .3-.6.7-1.5 1-.8.2-1.6.6-1.7.8-.1.1-.6.2-1 0zm-2.2-20.4c0-.2-.3 0-.6.2-.3.3-.3.4.2.2.4-.1.6-.3.4-.4zm-12 19.2c-2.3-.4-2.3-.4-.8-4.5.9-2.6 1-2.8.9-1.4-.2 1.5-.2 1.5.3.7.5-.9.5-.8.5.8 0 1.4.1 1.7.5 1.6.7-.3.9.3.7 1.8v1l1.1.1c.6.2.5.3-.3.3a23 23 0 0 1-3-.4zm19.7-2.7c-.3-.9-.4-2-.2-2.3.2-.5.3-.5.8 0 .3.3.7.4.8.3.2-.2.8.3 1.3 1l1 1.1-.3-1.2a38 38 0 0 1-.7-7c0-.5-.4-2.5-.9-4.4-1-4-1-4.3-.2-3 .8 1.6.9 1 .1-1l-.7-2c0-.6 4.7 2.3 7.1 4.1 2.9 2.3 3.5 3.3 3.5 5.9 0 1.5-1 5.3-1.5 5.3l-1.8 1c-1.8 1.2-7 4-7.5 4-.2 0-.6-.8-.8-1.8zm-1.6-7h.7c.1.2 0 .3-.4.2-.5 0-.5 0-.3-.2zM75.3 188c-.9-1.2-.8-1.4.2-.6.6.4 1.1.9 1.1 1 0 .2-1 0-1.3-.4zm15.3-4.4a3 3 0 0 1-.2-1c0-.2.2 0 .3.5.2.5.3.9.2 1 0 0-.2-.1-.3-.5z" style="fill:#6c492f;stroke-width:.352778" transform="translate(-44.5 -173.2)"/>
  <path d="M78.4 241.3a21.7 21.7 0 0 1 6 .2c.2.2-5.5 0-6-.2zm-4.5-.4c-1-.1-1-.3-.8-.7.2-.4.3-.4.3-.1 0 .2.2.4.4.4s.3-.2.2-.5c-.6-1.4-.5-1.6.1-.5l.7 1.2v-2.4l-.1-2.5-4.1-1a57.3 57.3 0 0 1-8.3-2.3c-.1.1 0 1.3.3 2.7l.5 2.5-1.7-1c-1.4-.7-4.5-3-3.2-2.4.2.2.4 0 .4-.2 0-.6-.9-1.7-1.2-1.4-.1 0-.2 0-.2-.4 0-.8.5-.7 1.7.3 2.5 2.3 2.5 2.3 2.7 1.7.6-1.6.2-2.2-2.3-3.8a32 32 0 0 1-4.4-3.5c-1.7-1.7-4-5.2-4-6 0-.2.4.4 1 1.4a25 25 0 0 0 2 2.8l.9 1-.3-1.9c-.3-3-1.6-6.2-2.3-5.8-.1.1-.4-.2-.5-.7-.1-.5-.4-.9-.5-.9-.2 0-.4-.2-.4-.6 0-.3-.1-.4-.3-.3-.2.1-.4-.4-.6-1.2-.1-.8-.3-1.4-.5-1.4l-.4-.8c-.2-.8-.2-.8.4 0 .4.6.7.8.7.6 0-.1.7.3 1.4 1 .7.6 2.1 1.6 3 2 1 .5 2.3 1.4 2.9 2 1.1 1.2 1.5 1.2 1.6 0 0-.7 0-.6.4.2.2.7.6 1 1.6 1.2l3.3.7a111 111 0 0 0 9.5 2.3c3.2.6 8.6.8 9 .3.2-.4 5.8-.4 5.8 0 0 .3.4.3 1 .3.6-.1 1-.4 1.3-1.4.3-.6.5-1 .5-.8l.3 1 .1 1.7c0 .6.2 1 .5 1s.5-.4.5-1c0-1.3 1-2 3.2-2.4 3.6-.7 10.2-3.8 12.8-6a27 27 0 0 0 6.5-9.2l.8-1.4-.2 1.6c-.1.9-.5 2.5-.9 3.5-.4 1.1-.7 2.5-.8 3L113 220c-1.7 9-2.7 10.6-9 15-1.5 1.1-2 1.3-1.7.8.3-.5.3-.8 0-1-.1-.1-.2-.4 0-.6 0-.3.2-.7.1-1 0-.4 0-.7.3-.7.2 0 .4.2.4.4 0 .6.4 0 .5-.6 0-.3 0-.4-.3-.3-.2.2-.3 0-.1-.3l-.1-.6c-.2 0-.3-.3-.3-.7 0-.4.3-.7.5-.7.3 0 .4-.2.3-.6 0-.4.1-1 .4-1.6 1.6-2.3 2-3 2.7-3.7 1-1.2.5-1-3.1 1a39 39 0 0 1-12.3 4.2c-2 .3-3.6.8-3.8 1.1-.2.4-.3.4-.3 0 0-.3-1.3-.4-6-.3h-5.8v5l.3 5.7c.2.9.1 1-1.8.5zM62 236.3c0-.2-.1-.4-.3-.4-.2 0-.4.2-.4.4s.2.4.4.4.3-.2.3-.4zm-1.7-1.6c-.5-.5-1-.9-1.2-.9-.2 0 .1.5.7 1 .5.7 1 1 1.1 1 .1-.1-.2-.6-.6-1zm13.8-1.4c.4-.6.4-.6-.3-.4-1 .3-2-.6-1.7-1.5.2-.3.2-.8.2-1 0-.5 0-.5.4-.2.4.4.5.3.5-.6 0-1-.6-1.6-.6-.6 0 .8-1.3 1-1.6.2-.1-.4-.4-.5-.7-.4-.3 0-.4.3-.3.5.1.2.3.2.5.1s.2.2 0 .7c-.5 1-1.3 1.3-1 .4.2-.4 0-.4-.8 0-1.2.4-1.7 0-1.1-.9.3-.5.3-1 0-1.6-.3-1-1-1.2-1-.3 0 .5 0 .5-.5.2-.3-.3-.5-.3-.7 0l-.1.4.9.5c.5.3.8.3.8 0 0-.1.1-.2.3 0 .3 0 .3.3 0 .6-.6.8-.1 2.2.8 2.4.4.2.9 0 1-.1.2-.3.3-.3.5 0 .1.2 0 .7-.2 1-.4.5-.3.5.5 0 .6-.5.8-.9.7-1.3-.2-.5-.1-.5.4 0 .5.3.5.4 0 1-.6.5-.7 1 0 .4.3-.2.6-.1 1.3.3 1 .9 1.2.9 1.8.2zm-.4-1.2c0-.1-.3-.3-.5-.3-.3 0-.5.2-.4.3.1.2.4.3.5.3.2 0 .4-.1.4-.3zm-7.2-.5c-.6-.5-1.2-2.2-.6-1.8.2.1.3 0 .2-.4-.3-.6-.9-.7-.9-.2 0 .2-.6.6-1.2.8-1.1.4-1.2.5-.7.9.3.2.9.3 1.4.3.4 0 .9 0 1 .4.1.2.5.5.8.5.6 0 .6 0 0-.5zm-2-1.3c0-.2.2-.3.4-.3s.3.1.3.3c0 .2-.1.4-.3.4a.4.4 0 0 1-.4-.4zm-2.5-.5c0-.3-.2-.7-.5-1-.6-.4-.6-.2-.3 1 .2.9.8.8.8 0zm12.3-.3c-.1-.2-.2-.2-.2.2s0 .6.1.5c.2-.1.2-.4 0-.7zM59 229c.5.8.9.3.6-.8-.2-.6-.3-1.4-.2-1.9.2-.5 0-.8-.3-1-.3 0-.6-.6-.8-1.2 0-.6-.4-1.1-.6-1.1-.2 0-.2.3 0 .6.2.7.2.8.1 1.5 0 1-1-.4-1.3-1.9-.2-1-.3-1.3-.5-.7-.1.5-.3.3-.5-1a9 9 0 0 0-.7-2.4l-.5-.9v1.3l.6 4.5c.5 2.7.8 3.4 1.4 3.9.8.5.8.5.6-.8 0-.7 0-1.4.2-1.5.2 0 .4 0 .4.3s0 .3.3 0c.5-.9 1 0 .7 1.4-.1 1-.2 1-.3.4-.1-1-.7-1.1-.7-.3 0 1 .7 2.1 1 1.6.2-.3.3-.3.5 0zm4-.6c-.4-.2-.8-.4-1-.3 0 .1.2.4.6.7.4.3.7.4.8.3.1 0 0-.4-.5-.7zm14.9.3c0-.5-1.3-2.3-1.7-2.4-.5-.2-1.3 1.4-1 2 .2.6 2.7.9 2.7.4zm-13.4-.3a2 2 0 0 0-.3-.8c-.2-.3-.3-.3-.5.1v.7c.3.3.8.3.8 0zm25.6-.3c.1-.5 0-.5-.4-.2-.6.5-.6.7-.2.7.2 0 .4-.2.6-.5zm-28.5-1.4c0-1-.1-1.1-.9-.8-.8.4-.8.4-.2.7.4.1.5.2.2.3-.4 0-.4 0 0 .5.6.8 1 .6.9-.7zm34.1.5c.1-.2.5-.2.7 0 .3 0 .6 0 .6-.2 0-.6-1-.8-2-.4-.5.2-.9.5-.9.6 0 .4 1.4.4 1.6 0zm1.9-1c-.2-.4-.2-.3-.3.1 0 .4.1.6.2.5.1-.1.2-.4 0-.7zm-34.9 0-.1-.4-.4.4c-.1.2 0 .3.2.3s.3-.1.3-.3zm-12-12.2c-.2-.3-.5-.5-.6-.4 0 .1 0 .5.3.8.2.3.5.4.6.3.1 0 0-.4-.3-.7zm36 23.7c0-2 .2-4.4.4-5.4.2-1.3.3-.3.3 3.7 0 3.3 0 5.3-.3 5.3-.2 0-.4-1.4-.3-3.6zm-16.2 2c-.4-1 0-2 .6-1.4.1.1 0 .4-.2.5-.3.2-.2.5.3 1 .5.4.7.4.8 0 .1-.2.2-.2.2.2 0 1-1.3.8-1.7-.3zm-1.6.2c-.1-.2 0-.3.2-.3.1 0 .4.1.5.3.1.2 0 .4-.1.4-.2 0-.5-.2-.6-.4zm10.6 0c.2-.4.4-.6.5-.5 0 .1 0 .4-.3.6-.3.4-.4.3-.2-.2zm-13.3-.8c-.8-.4-.9-.5-.5-1 .3-.4.6-.5.7-.3.2.2.1.4-.1.4s-.4.1-.4.3c0 .2.2.3.4.2.2-.1.6 0 1 .2.5.5.5.4 0-.1-.4-.7-.2-1.3.6-1.3.7 0 .6 1.6 0 1.9-.4 0-.7.2-.7.2l-1-.5zm12.8-.3c0-.7.1-1 .5-1 .3 0 .5.2.5.4s-.1.3-.3.3c-.2 0-.4.3-.5.6 0 .4-.2.3-.2-.3zm-14.6-1c.1-.5.3-.6.5-.4.4.4.1 1.1-.4 1.1-.1 0-.2-.3 0-.7zm15-.7c0-.2 0-.4.2-.5.2 0 .3 0 .3.3s-.1.6-.3.6c-.1 0-.3-.2-.3-.4zM55 231.5c-.5-.5-.6-.8-.4-.7.5.2 1.6 1.6 1.3 1.6l-1-.9zm3.9-15c0-.3.5-.9 1.1-1.4l1.2-.8-1.1 1.2-1.1 1.4-.1-.4zm6.3-5.9c2.4-2.3 2.5-2.5 1.8-2.8l-.7-.4.8-1.4c.5-.7 2-3.4 3.2-6l2.5-4.6c.2.3-1.3 5.8-1.6 6a29.4 29.4 0 0 0-2.9 7c-.2 0-1.6 1-3 2.4l-2.7 2.3zm-17 .4c-.3-.5-.2-.5.1-.2.3.2.4.5.3.6-.1.1-.3 0-.5-.4zm33.6-1.2c0-.6 0-.7.3-.4.2.3.5.7.8.8.4.3.3.3-.3.3s-.8-.2-.8-.7zm-3.3-.6c.3-1.3.6-1.6.4-.3-.2.8 0 1 1 1 1.3.2 1.3.2-.1.2-1.5.1-1.5 0-1.3-.9zm-7 0c-1.1-.1-1.2-.3-.5-1.5.5-.8.5-.8.5 0s.6 1 .9.3c0-.3.2-.2.2.2 0 .3.4.8.8 1 .8.2.8.2 0 .2-.6 0-1.4 0-2-.2zm17.9-.3c.3-.3.5-.9.5-1.3 0-.6.1-.6.5.3.4 1 .4 1-.1 1.3-1 .5-1.5.3-1-.3zm2.8-1.7v-1.5c0-.1.2 0 .2.4 0 .3.1.6.3.7.2.1.2-.1.1-.5-.2-.9.4-.9 1.4 0 .3.4.8.7 1 .5l.4.1c0 .3-2.3 1.5-2.8 1.5-.2 0-.5-.5-.6-1.2zm-13.2 0c0-.4.1-.5.2-.2v.6c-.1.1-.2 0-.2-.4zm17-2.2c0-1.1 0-2.5-.2-3-.2-.7-.2-1 0-.9.2.1 0-1.2-.3-3a35 35 0 0 0-2.3-9.6c-.4-1 3.8 1.3 7 3.8 2.9 2.3 3.5 3.3 3.5 5.9 0 1.5-1 5.3-1.5 5.3-.2 0-1 .4-1.8 1s-2.1 1.3-3 1.7l-1.3.7v-2zm-32.7.5a11 11 0 0 1-4.1-4.5c-1-2-1-2-.5-4 .5-2.1 2.9-5.7 4-6.2l1.7-.8c.6-.3 1.2-.5 1.2-.3l-2.2 5c-1.6 3.5-2 4.8-1.8 5.2.2.3.6.6 1 .5.4 0 .5.2.3 1-.1.6 0 1 .2 1.2.3.2.3.7.2 1.4-.2 1 0 1.2.8 1.7.5.3.8.6.6.6-.2 0-.8-.3-1.4-.8zm18.9-10c0-.5.1-1.2.3-1.5.2-.4.3-.1.1.9-.3 1.7-.5 2-.4.6zm1.8-2.3c-.5-1-.5-1.1-.8-.5-.3.6-.3.5-.3-.5.2-1.7.9-1.7 1.4 0 .5 1.9.3 2.5-.3 1zm-1.2-3.1c-.3-.3-.2-.4.7-.6.6-.1 1.2-.3 1.3-.5.2-.4 2 .2 2.2.7.1.3 0 .3-.7 0-.6-.1-1.2 0-2 .2-.6.3-1.2.3-1.5.2zm-8-3c-.5-.7-.5-.7.2 0 .8.7 1 .9.5.9-.1 0-.5-.4-.7-.8z" style="fill:#3e4040;stroke-width:.352778" transform="translate(-44.5 -173.2)"/>
  <path d="m75.1 241.2-.2-5c0-.3-1-.7-3.9-1.3a45.5 45.5 0 0 1-8.4-2.5c-.2 0-1.7-.9-3.3-2-3.2-2.2-6.1-5-7.1-6.8-.7-1.2-.7-1.2 0-.4 1.1 1.7 2.6 3.2 2.8 3a22.5 22.5 0 0 0 10.4 6.4c.2.3.7.5 1 .5a436 436 0 0 1 2 .4c0 .2.6.2 1.3.2l1.3.1c0 .1.6.2 1.5.2.8 0 1.6.2 1.7.4.5.6.5 0 .4-3.7l-.2-3.6h-1.3c-2.4-.1-3-.2-4-.6-.4-.2-1.5-.4-2.2-.5-.8 0-1.5-.2-1.6-.3a7 7 0 0 0-2.7-.7c-.3 0-.5-.2-.5-.5s-.3-.5-.8-.6c-.4 0-1.1-.3-1.6-.7-.5-.3-1.1-.6-1.4-.6-.2 0-.4-.2-.4-.3 0-.2-.5-.6-1-1-1-.6-2-2.2-1.7-2.5 0 0 1 .4 2 1.1l1.9 1.2v-1.3c-.3-1.8.3-1.1.5.7l.2 1.5 2.7.8c3.6 1 5.3 1.3 4.6.8-.7-.4-.4-.7.6-.5.5.2.8.4.7.7-.2.4 2 1.2 3.5 1.2.6 0 .6 0 .1-.4-.4-.3-.3-.3.4-.2l1.1.3c.2 0 .2.1 0 .3 0 .3.5.4 1.6.4 1 0 4.5 0 8 .2h7.1c.8-.2.9-.5.9-2 0-1.4 0-1.8.3-1.2.2.4.3 1.1.3 1.6 0 .6.1 1 .2 1 .6 0 10-3.5 11.7-4.3a27 27 0 0 0 7.2-5.3c0-.2-.2-.2-.4 0-.6.3.4-1.4 1.4-2.5.5-.5 1.5-2.2 2.3-3.7l1.3-2.7-.2 1.8a7 7 0 0 1-.8 3c-.4.7-.5 1.4-.4 1.4a94 94 0 0 1-3 15.2l-1.5 2.3c-1 1.3-5.3 4.7-4.6 3.7.2-.4.6-.8.9-.8.2 0 .4-.1.4-.3 0-.3-.1-.3-.4-.2-.2.2-.3 0 0-1 0-.6.3-1.2.4-1.2.2 0 .2-1 .2-2l.1-2.1.3-1c0-.3.2-.8.4-1 1.6-2 2.3-2.9 2.1-3 0 0-1.4.6-3 1.6-2.6 1.6-2.9 1.7-2.8 1 0-.7 0-.8-.8-.7a5 5 0 0 0-1.8.8c-.5.3-1 .6-1.1.4a2 2 0 0 0-.9.2c-.3.2-1.2.4-2 .6-.8 0-1.8.4-2.4.7l-1 .2c0-.2-.5-.1-1 0-1 .5-1.3.5-3.4.8a34 34 0 0 1-5.4.6c-.5 0-.7.2-.7.6 0 .5-.1.4-.7-.1-.5-.6-.8-.7-2-.5-1.5.3-2.7-.3-3.1-1.3-.3-.7-1.5-.6-1.8 0l-.2 1.6c0 1 .1 1 1.3 1.2 1.6.2 10.3 0 13.3-.2l2.1-.2-2 .4-2.1.6h-6.3c-3.3-.1-6.1 0-6.2.1v6c.3 4.6.2 6.1-.2 5.5zm30.2-18.4c.5-.8 0-1.3-.7-.5l-.5 1c0 .5.8.2 1.2-.5zM87 239.4c0-2 .2-1.8.4.5 0 .7 0 1.3-.2 1.3-.1 0-.3-.8-.2-1.8zM62.3 237c.1-.2.3-.3.4-.3l.1.3c0 .2-.1.4-.3.4-.2 0-.3-.2-.2-.4zm25-.3c0-.5 0-.7.1-.5v.9c0 .2-.2 0-.2-.4zM62 235.6l-.2-2v-1l.4 1.2c.2.6.3 1.5.2 2 0 .6-.1.6-.4-.2zm25.3-2.3c0-.8 0-1 .1-.6v1.4l-.1-.8zm5.5-5.1a5 5 0 0 1 1.6-.3h.7l-.7.3c-.4.2-1 .3-1.6.3H92zm3.6-.9c1.6-.6 2.2-.6.8 0a5 5 0 0 1-1.5.5c-.3 0 0-.2.7-.5zm3.2-1c.3-.3 3.1-1.6 3.1-1.5 0 .2-2.7 1.6-3 1.6-.2 0-.2 0-.1-.1zm-45-1.6c0-.7 0-1 .2-.8.2.2.3.7.2 1.2-.1.7-.2.6-.3-.4zm-.2-2.2c0-.4.1-.6.2-.4v.9c0 .2-.2 0-.2-.5zm10.7.4c0-.2 0-.4.3-.4s.7.2.8.4c.1.2 0 .3-.3.3s-.6-.1-.8-.3zm-1.9-.7c0-.2.2-.2.5-.1.3 0 .6.2.6.3l-.6.1c-.3 0-.5-.1-.5-.3zm-2.4-1c0-.3-.4-.7-.6-.9-.2-.1 0-.2.5-.2s.7 0 .6.2c-.1.1 0 .4.2.7.2.3.2.5 0 .7-.3 0-.5-.1-.7-.5zm-6.9-1c-.1-.9-.6-2-1-2.4l-1.7-1.8-.9-1 1 .8c3 2 3.1 2.3 3 4.1l-.1 1.8zm28-10.4c0-.6 0-.7.3-.4.2.3.5.7.8.8.4.3.3.3-.3.3s-.8-.2-.8-.7zm-15.4-.3.9-.7-.5.7-.8.7.4-.7zm12-.3c.4-1.3.7-1.6.5-.3-.2.8 0 1 1 1 1.3.2 1.3.2-.1.2-1.5.1-1.5 0-1.3-.9zm-7 0c-1-.1-1-.3-.4-1.5.5-.8.5-.8.5 0s.6 1 .9.3c0-.3.2-.2.2.2 0 .3.4.8.8 1 .8.2.8.2 0 .2-.6 0-1.4 0-2-.2zm18-.3c.3-.3.5-.9.5-1.3 0-.6.1-.6.5.3.4 1 .4 1-.1 1.3-1 .5-1.5.3-1-.3zm-22.3-1-.8-.6.8-1.3c.5-.7 2-3.4 3.2-6l2.5-4.6c.2.3-1.3 5.8-1.6 6-.4.2-2.5 5.5-2.6 6.4 0 .8-.5.8-1.5 0zm25.1-.7v-1.5c0-.1.2 0 .2.4 0 .3.1.6.3.7.2.1.2-.1.1-.5-.2-.9.4-.9 1.4 0 .3.4.8.7 1 .5l.4.1c0 .3-2.3 1.5-2.8 1.5-.2 0-.5-.5-.6-1.2zm-13.2 0c0-.4.1-.5.2-.2v.6c-.1.1-.2 0-.2-.4zm17.2-1.8c0-1-.1-2.2-.3-2.9-.5-1.3-.2-2 .3-.7.3.6.4.7.4.2a5 5 0 0 0-.5-1.8c-.2-.7-.6-1.9-.7-2.7l-.4-2.3c-.2-.6-.1-.6.2-.2.5.9.4.3-.7-3l-1-3.4c0-.3 3.1 1.4 4.6 2.3.5.4 1 .9 1 1.2 0 .2.2.4.5.2.4-.1.5 0 .5.7 0 .5.1.6.3.3.2-.3.5-.2 1.1.5.5.5 1 .8 1.1.7.3-.2 1 2.6 1 4 0 1.3-1 5-1.4 5-.2 0-1 .4-1.8 1s-2.1 1.3-3 1.7l-1.4.8zm5.3-10.7c0-.5 0-.5-.3 0-.5.7-.5 1.1 0 .9.2-.2.3-.5.3-.9zm-5-2.4c0-.3-.2-.7-.4-.9-.2-.1-.2-.2 0-.2.3 0 .5-.2.5-.4 0-.3-.1-.3-.5 0-.2.2-.4.7-.3 1.2.2 1 .9 1.3.7.3zM62.8 205a10.6 10.6 0 0 1-3.7-4.6c-.7-1.3-.7-1.6-.2-3.6.3-1.6.8-2.6 1.9-3.8 1-1.2 1.5-1.5 1.7-1.2.2.4.3.4.5 0l.3-1.1c.2-.5.4.8.3 1.6 0 .2.2 0 .6-.5.4-.5.7-.8.8-.7l-2 4.4c-1.8 3.8-1.9 4.1-1.3 4.6.3.2.8.4 1 .3.4-.1.5 0 .3.8-.1.7 0 1.2.2 1.3.3.2.3.7.2 1.4-.2 1 0 1.2.8 1.7.5.3.8.6.6.6-.2 0-1.1-.5-2-1.2zm19.5-9.6c0-.5.1-1.2.3-1.5.2-.4.3-.1.1.9-.3 1.7-.5 2-.4.6zm1.8-2.3c-.5-1-.5-1.1-.8-.5-.3.6-.3.5-.3-.5.2-1.7.9-1.7 1.4 0 .5 1.9.3 2.5-.3 1zm-1.2-3.1c-.3-.3-.2-.4.7-.6.6-.1 1.2-.3 1.3-.5.2-.4 2 .2 2.2.7.1.3 0 .3-.7 0-.6-.1-1.2 0-2 .2-.6.3-1.2.3-1.5.2zm-8-3c-.5-.7-.5-.7.2 0 .8.7 1 .9.5.9-.1 0-.5-.4-.7-.8z" style="fill:#5a361e;stroke-width:.352778" transform="translate(-44.5 -173.2)"/>
  <path d="m75.1 241.2-.2-5c0-.3-1-.7-3.9-1.3a45.5 45.5 0 0 1-8.4-2.5c-.2 0-1.7-.9-3.3-2-3.2-2.2-6.1-5-7.1-6.8-.7-1.2-.7-1.2 0-.4 1.1 1.7 2.6 3.2 2.8 3a22.5 22.5 0 0 0 10.4 6.4c.2.3.7.5 1 .5a436 436 0 0 1 2 .4c0 .2.6.2 1.3.2l1.3.1c0 .1.6.2 1.5.2.8 0 1.6.2 1.7.4.5.6.5 0 .4-3.7l-.2-3.6h-1.3c-2.4-.1-3-.2-4-.6-.4-.2-1.5-.4-2.2-.5-.8 0-1.5-.2-1.6-.3a7 7 0 0 0-2.7-.7c-.3 0-.5-.2-.5-.5s-.3-.5-.8-.6c-.4 0-1.1-.3-1.6-.7-.5-.3-1.1-.6-1.4-.6-.2 0-.4-.2-.4-.3 0-.2-.5-.6-1-1-1-.6-2-2.2-1.7-2.5 0 0 1 .4 2 1.1l1.9 1.2v-1.3c-.3-1.8.3-1.1.5.7l.2 1.5 2.7.8c3.6 1 5.3 1.3 4.6.8-.7-.4-.4-.7.6-.5.5.2.8.4.7.7-.2.4 2 1.2 3.5 1.2.6 0 .6 0 .1-.4-.4-.3-.3-.3.4-.2l1.1.3c.2 0 .2.1 0 .3 0 .3.5.4 1.6.4 1 0 4.5 0 8 .2h7.1c.8-.2.9-.5.9-2 0-1.4 0-1.8.3-1.2.2.4.3 1.1.3 1.6 0 .6.1 1 .2 1 .6 0 10-3.5 11.7-4.3a27 27 0 0 0 7.2-5.3c0-.2-.2-.2-.4 0-.6.3.4-1.4 1.4-2.5.5-.5 1.5-2.2 2.3-3.7l1.3-2.7-.2 1.8a7 7 0 0 1-.8 3c-.4.7-.5 1.4-.4 1.4a94 94 0 0 1-3 15.2l-1.5 2.3c-1 1.3-5.3 4.7-4.6 3.7.2-.4.6-.8.9-.8.2 0 .4-.1.4-.3 0-.3-.1-.3-.4-.2-.2.2-.3 0 0-1 0-.6.3-1.2.4-1.2.2 0 .2-1 .2-2l.1-2.1.3-1c0-.3.2-.8.4-1 1.6-2 2.3-2.9 2.1-3 0 0-1.4.6-3 1.6-2.6 1.6-2.9 1.7-2.8 1 0-.7 0-.8-.8-.7a5 5 0 0 0-1.8.8c-.5.3-1 .6-1.1.4a2 2 0 0 0-.9.2c-.3.2-1.2.4-2 .6-.8 0-1.8.4-2.4.7l-1 .2c0-.2-.5-.1-1 0-1 .5-1.3.5-3.4.8a34 34 0 0 1-5.4.6c-.5 0-.7.2-.7.6 0 .5-.1.4-.7-.1-.5-.6-.8-.7-2-.5-1.5.3-2.7-.3-3.1-1.3-.3-.7-1.5-.6-1.8 0l-.2 1.6c0 1 .1 1 1.3 1.2 1.6.2 10.3 0 13.3-.2l2.1-.2-2 .4-2.1.6h-6.3c-3.3-.1-6.1 0-6.2.1v6c.3 4.6.2 6.1-.2 5.5zm30.2-18.4c.5-.8 0-1.3-.7-.5l-.5 1c0 .5.8.2 1.2-.5zM87 239.4c0-2 .2-1.8.4.5 0 .7 0 1.3-.2 1.3-.1 0-.3-.8-.2-1.8zM62.3 237c.1-.2.3-.3.4-.3l.1.3c0 .2-.1.4-.3.4-.2 0-.3-.2-.2-.4zm25-.3c0-.5 0-.7.1-.5v.9c0 .2-.2 0-.2-.4zM62 235.6l-.2-2v-1l.4 1.2c.2.6.3 1.5.2 2 0 .6-.1.6-.4-.2zm25.3-2.3c0-.8 0-1 .1-.6v1.4l-.1-.8zm5.5-5.1a5 5 0 0 1 1.6-.3h.7l-.7.3c-.4.2-1 .3-1.6.3H92zm3.6-.9c1.6-.6 2.2-.6.8 0a5 5 0 0 1-1.5.5c-.3 0 0-.2.7-.5zm3.2-1c.3-.3 3.1-1.6 3.1-1.5 0 .2-2.7 1.6-3 1.6-.2 0-.2 0-.1-.1zm-45-1.6c0-.7 0-1 .2-.8.2.2.3.7.2 1.2-.1.7-.2.6-.3-.4zm-.2-2.2c0-.4.1-.6.2-.4v.9c0 .2-.2 0-.2-.5zm10.7.4c0-.2 0-.4.3-.4s.7.2.8.4c.1.2 0 .3-.3.3s-.6-.1-.8-.3zm-1.9-.7c0-.2.2-.2.5-.1.3 0 .6.2.6.3l-.6.1c-.3 0-.5-.1-.5-.3zm-2.4-1c0-.3-.4-.7-.6-.9-.2-.1 0-.2.5-.2s.7 0 .6.2c-.1.1 0 .4.2.7.2.3.2.5 0 .7-.3 0-.5-.1-.7-.5zm-6.9-1c-.1-.9-.6-2-1-2.4l-1.7-1.8-.9-1 1 .8c3 2 3.1 2.3 3 4.1l-.1 1.8zm12.6-10.7.9-.7-.5.7-.8.7.4-.7zm25.9-2c-.2-.8-.2-.8.9-.2.8.4 1 .6.6.8-.9.5-1.3.4-1.5-.5zm4.3-2.1a46.5 46.5 0 0 0-3.2-16.8c0-.3 3.2 1.4 4.7 2.3.5.4 1 .9 1 1.2 0 .2.2.4.5.2.4-.1.5 0 .5.7 0 .5.1.6.3.3.2-.3.5-.2 1.1.5.5.5 1 .8 1.1.7.3-.2 1 2.6 1 4 0 1.3-1 5-1.4 5-.2 0-1 .4-1.8 1l-2.6 1.6-1.2.6zm5-10.7c0-.5-.1-.5-.4 0-.5.7-.5 1.1 0 .9.2-.2.3-.5.3-.9zm-5-2.4-.5-.9c-.2-.1-.2-.2 0-.2.3 0 .5-.2.5-.4 0-.3-.1-.3-.5 0-.2.2-.4.7-.3 1.2.2 1 .9 1.3.7.3zm-36.3 10.6c-.3-.6-1-1.6-1.3-2.4-.7-1.3-.7-1.6-.2-3.6.3-1.6.8-2.6 1.9-3.8 1-1.2 1.5-1.5 1.7-1.2.2.4.3.4.5 0l.3-1.1c.2-.5.4.8.3 1.6 0 .2.2 0 .6-.5 1.1-1.4 1-.8-1 3.4-2.5 5.2-2.9 6.4-2.2 7.6.6 1.2.3 1.2-.6 0zM84 189.6c1.6-.7 2.3-.7.9 0a5 5 0 0 1-1.6.4c-.3 0 0-.2.7-.4z" style="fill:#333433;stroke-width:.352778" transform="translate(-44.5 -173.2)"/>
</svg>