<svg xmlns="http://www.w3.org/2000/svg" width="277.3" height="277.3" viewBox="0 0 73.4 73.4">
  <path d="M45.4 212.6V176h73.4v73.4H45.4Z" style="fill:#fefefe;stroke-width:.352778" transform="translate(-44.6 -175.7)"/>
  <path d="M83 247.3c-2.3-.8-11.7-6.3-14.9-8.6a38 38 0 0 1-10.6-13.9 17 17 0 0 1-1-7c0-3.6-.2-5-.7-6-.6-1.5-.6-2.2.1-6.4.5-2.7.9-3.4 3.5-5.9 2.8-2.7 4.7-4 8-5.7 6.5-3.2 10.4-3.8 14.4-2.4l2 .7 1.3-1.7c1.7-2.3 2.8-2.6 5.3-1.6l1.2.5 2-2.5 3.8-5.6c2.4-3.8 2.7-4 4.3-3.7 2.6.4 5.5 3.4 5 5.1a18 18 0 0 1-2.4 3l-4.1 5-2 2.6 1.7 1.7c1.7 1.7 2.2 3.1 1.8 5-.2 1 0 1.3 1.6 3 1.1 1 2.1 2.4 2.4 3.2l1 2.3c1 1.2 1.2 3.1.7 4.4-.4.9-.4 1.4.2 3.3.5 1.8.6 3 .5 5.8 0 3.2-.2 4-1.4 7a32.2 32.2 0 0 1-7.1 10.8 55.7 55.7 0 0 1-14.5 7.7l-2.1-.1zm-16.8-44.6c0-.2-.1-.3-.3-.3-.2 0-.4.1-.4.3 0 .2.2.4.4.4s.3-.2.3-.4zm2.5-.6a2 2 0 0 0-.3-.7c-.2-.4-.4-.4-.9.1-.7.7-.7.7.3.8.5 0 .9 0 .9-.2zm1.6-.8c.3 0 .5-.5.4-1.7 0-1-.2-1.8-.3-1.8-.2 0-.3.2-.2.5v1c-.3.3-.5.3-1-.2-.3-.3-.4-.8-.3-1 .2-.3.1-.3-.2-.1-.2.1-.3.4-.2.7 0 .3 0 .5-.2.6-1 .1-2 .6-2 1 0 .3.2.1.6-.2.7-.6 1-.5.8.3 0 .1 0 .2.3 0 .1 0 .4.2.5.6.1.4.4.6.6.5.2-.1.3 0 .3.3s.1.3.2 0 .4-.5.7-.5zm-.8-.4c.1-.4 0-.6-.2-.6s-.3-.1-.2-.2c.2-.2.5-.1.8 0 .6.4.6.4 0 1-.6.4-.6.3-.4-.2zm2.6-1.3c.1-.4.4-.7.7-.7.2 0 .5-.3.6-.6.1-.3.1-.5 0-.4-.2.1-.6 0-.8-.1-.4-.3-.4-.4-.1-.6.2 0 .3-.3.2-.5-.1-.2-.4 0-.7.3-.3.5-.3.7 0 .9.5.3-.2 1.5-.8 1.4-.2 0-.3.2-.2.4.3.8 1 .7 1.1-.1z" style="fill:#eeebd3;stroke-width:.352778" transform="translate(-44.6 -175.7)"/>
  <path d="M82.7 247c-1.4-.5-7-3.6-11.7-6.5a37 37 0 0 1-12.7-14c-1.4-3-2-6.5-1.8-10.1.2-2.5.1-3.3-.3-4-.9-1.3-1-3-.4-5.8l.8-3.5c.3-2 7.5-7.7 12-9.8 6-2.6 9.2-3.1 13.2-1.9l2.2.7.5-.7c1.3-2 2.7-3.1 3.4-3.1a9 9 0 0 1 2.3.5l1.4.5 1.7-2.2c1-1.2 2.8-3.8 4-5.8a14 14 0 0 1 3.2-3.8c1.1-.3 3.6.8 4.9 2.2 1.7 2 1.6 2.8-1 5.8-2.4 2.6-6 7.3-6 7.7 0 .1.6.9 1.4 1.6 1.7 1.7 2.3 3.5 1.7 5.2-.2.6-.2 1.2 0 1.3 2.1 1.5 3 2.5 4.4 5.5 1.6 3 1.7 3.5 1.5 5-.4 2.5-.4 2.6.3 5 1 3.7.6 7.9-1 12-1.7 4-4.3 8-6.7 10.4a65 65 0 0 1-12.3 7.4 6 6 0 0 1-5 .5zM72 209.5h.3a2 2 0 0 0-1-.5c-.4 0-.6.1-.6.7s0 .7.3.2c.3-.3.7-.5 1-.4zm-2.3-1.4c.6-1.1 1.2-1.4 1.2-.5 0 .3-.1.5-.3.4a.2.2 0 0 0-.4.1c0 .8 2.4.3 2.6-.5 0-.2.2-.3.4-.2.1 0 .2-.2 0-.5 0-.3 0-.6.4-.8.3 0 .5-.5.5-1s.3-1 .7-1.2l.7-.2c0 .1.2.1.4 0s.1-.4-.2-.6c-.6-.5-.4-1.7.2-1.7.2 0 .2.3 0 .7-.3.5-.3.7.2.9.3.1.7 0 .9-.2.4-.7.3-1.1 0-.8-.3 0-.4 0-.4-.2 0-.5 1.5-2 1.8-1.9.2 0 .2 0 .1-.2s0-.5.4-.6c.4-.2.4-.3 0-.5-.3-.3-.3-.3 0-.3.4 0 .5-.3.4-.7-.1-.4 0-.8.2-.8s0-.1-.3-.3c-.4-.2-.5-.3-.2-.3.2 0 .3-.2.2-.4-.3-.6-5.9-.1-8 .6-4 1.4-7.5 4.5-8.1 7-.3 1 1 3.1 1.8 3.2.3 0 .5.2.5.4-.1.5 1.9 1.6 2.1 1.2.2-.2.6-.4 1-.3.4 0 .5.2.3.6l-.4.9c0 .4.8-.3 1.3-1.3zm7.2-8.6c.3-.3.6-.5.8-.5.2 0 0 .2-.2.5-.3.3-.6.5-.8.5l.2-.5z" style="fill:#d9d6c2;stroke-width:.352778" transform="translate(-44.6 -175.7)"/>
  <path d="M82.5 246.9c-1.8-.7-8.7-4.6-12.5-7a36.4 36.4 0 0 1-12.5-15.3c-1-2.8-1.3-6.6-.9-9 .3-1.7.2-2.1-.5-3.6-1-1.9-1-2.5-.3-4.8.3-1 .5-2.2.5-2.8 0-.9.1-1 .8-.6.7.4.9 0 .2-.7-.3-.4-.3-.5 0-.6A27.2 27.2 0 0 1 64 196c2-1.4 6.6-3.6 9.6-4.6 2.8-1 5-1 8 0l2.5.6c.7-1.2 3-3.5 3.5-3.7a7 7 0 0 1 2.5.4l1.7.5 1.4-1.8 4-5.8c2-2.8 2.9-4 3.5-4.2 1.3-.3 3.7.9 4.9 2.3 1.6 1.9 1.3 2.8-1.9 6.5l-4.1 5-1.3 2 1.6 1.6c1.8 2 2.2 3.2 1.7 5-.3 1.2-.3 1.3.6 2 1.7 1.2 2.5 2.3 4 5.3 1.4 3 1.7 4.3 1 5.9-.2.6 0 1.5.4 3.3 1.8 6-.1 13.4-5.2 20-2.6 3.5-4.2 4.7-10.7 8-5.8 3.1-6.9 3.4-9.1 2.5zm-9.6-36.2c0-.6.2-.9.6-.9.5 0 .5.1.2.5s-.3.5 0 .7c.9.3 1.3-.3 1.1-1.3-.1-.8 0-1 .5-.9.4 0 .6.4.6.8v.3c.2-.4.4-.4.8 0 .4.3.5.2.5-.4 0-.4.1-.8.3-1 .2 0 .2.2.1.6-.1.5 0 .7.4.5.4-.2.5 0 .4.5 0 .4-.2 1-.4 1.1-.2.4 0 .4 1.2.1.4 0 .8-.4.8-.7 0-.5 0-.5 2.7-.6 1 0 1.8 0 1.7-.2-.1 0 0-.4.2-.7.3-.6.2-.7-.2-.5-.7.3-.8-1.5 0-1.8H84c-.5.1-.8 0-.8-.2s.2-.3.4-.3c.3 0 .3-.1 0-.3-.4-.3-.4-.4.1-.7.4-.2.5-.4.3-.4-.3 0-.7.3-1 .7-.5.7-.5.7-.8.2v-.8c.1-.2 0-.4-.3-.7-.5-.3-.5-.5-.1-1.2.4-.8.4-.8-.2-.4-.3.2-.6.8-.7 1.1-.2.4-.5.7-1 .7-.3 0-.6.2-.7.4-.1.3-.2.2-.2-.1 0-.4.2-.6.5-.6.4 0 .5-.3.3-.8-.1-.4 0-.7.2-.7s.3.3.3.7c0 .5.1.5.4 0 .2-.3.2-.6-.1-1-.3-.3-.3-.5.1-.8.9-.7 1.6-3.1 1-3.4a.7.7 0 0 1-.2-.8c.1-.4 0-.7-1.1-1.9-1-1.2-7.5-.3-11.2 1.6-4 2-7.2 5.6-6.7 7.6.1.5.4.9.6.9.1 0 .3.2.3.5 0 .2.5.9 1.2 1.4l1.8 1.6a9 9 0 0 0 3.5 1.8c.3 0 .6.1.6.4 0 .2.2.1.6-.2 1-.8 1.6-.8 1.3.2-.2.5-.1.6.1.5.3-.2.4-.7.4-1.1zm8.3-2.9c.2-1 .5-1.5.5-.7 0 .3.2.5.4.4.2-.1.6 0 1 .4.6.6.6.6-.2.4-.4-.1-.8 0-.8.1 0 .2-.2.3-.5.3-.4 0-.5-.2-.4-.9zm-3.2-5.4c0-.2 0-.3.4-.1.6.2.7.4.2.4l-.6-.3zm6 8.6c0-.3-.2-.4-.4-.3-.2.1-.3.4-.3.7 0 .3.1.5.3.3.2 0 .4-.4.4-.7zm4.3.4c0-.2.1-.7.4-1 .6-.6.6-.6 0-.6-.8 0-1.2.9-1 1.7.1.2.3.4.5.4s.2-.2.1-.5zm-1-1.4c.1-.6 0-1-.3-1s-.7-.2-.9-.5c-.3-.6-.3-.6-.4.2 0 .4-.2.7-.4.8-.3 0-.3 0 0 .3.3.2.7.2.9.1.1 0 .2.2.2.6 0 1.1.9.7 1-.5zm3 .5c0-.6-.5-.6-1-.1-.3.4-.3.5.3.5.4 0 .7-.2.7-.4zM58.5 205c0-.3-.2-.5-.4-.5s-.2.2-.1.5l.3.6.2-.6zm30.3-14c0-.5 0-.7-.2-.5-.1.1-.5 0-1-.1-.5-.3-.8-.3-1.3.2-1 1-.8 1.3.8 1.1 1.2 0 1.6-.2 1.7-.8z" style="fill:#cfc9b6;stroke-width:.352778" transform="translate(-44.6 -175.7)"/>
  <path d="M82.4 246.9C80.3 246 70 240 68 238.4a42 42 0 0 1-7-7.4 21 21 0 0 1-4.4-14.8c.3-2.4.3-2.8-.3-3.8-.9-1.5-1.1-3.6-.6-4.7.3-.5.7-.9 1-.8.4.1.4 0 0-.4-.3-.4-.3-.7-.1-1 .3-.2.9.2 2 1.3a12 12 0 0 0 2 1.6c.1 0 1 .6 1.8 1.4 1.8 1.7 3.3 2.6 3.7 2.2.1-.1.1 0 0 .2-.3.4 1.3 1.4 2.2 1.3.6 0 1-.9.4-.9-.3 0-.8-.4-6.4-5.9a19.9 19.9 0 0 0-3.5-3c-.2 0-.2-.3 0-.8.2-1.1.9-2.7 1.1-2.5a25.6 25.6 0 0 1 14-9 12 12 0 0 1 7.5 0l2.5.8 1.2-1.4c.5-.8 1.3-1.7 1.7-2 .8-.5 1-.5 3 0 1 .3 2 .5 2.1.3l2.2-3 3.8-5.5c1-1.5 2.2-3 2.6-3 2.1-.6 6 2.2 6 4.3 0 .8-.7 1.8-2.9 4.3a84.5 84.5 0 0 0-4.1 5.2l-1.3 1.8 1.5 1.5c1.7 1.8 2.2 3.3 1.8 5-.3 1.2-.3 1.3 1.8 3.3a9.9 9.9 0 0 1 2 2.7l1.2 2.5c.9 1.7 1 2.3.8 3.5a10 10 0 0 0 .4 5.5c1.3 4.9-.3 11.7-4.1 17.4-3.3 4.8-4.8 6-12.1 10-5.7 2.9-6.8 3.2-9 2.3zm-12.6-33.2-.2-.4-.4.4c0 .2 0 .3.2.3s.4-.1.4-.3zm5-1.4c.3 0 .9-.4 1.2-.7.8-1 1.1-1 .9 0-.1.5 0 .7.2.5.2-.1.4 0 .4.2 0 .4 0 .4.3 0 .2-.3.4-.2.8.3.5.8 1.1 1 .8.3 0-.3.2-.6.6-.9.5-.3.7-.3.8.1.2.4.4.4 1.2.2.7-.3.9-.3.7.1-.3.7.4.7 1 0 .5-.4.7-.4.8-.2.2.5 1.4.5 1.7 0 .1-.2.4 0 .7.2.7.7 1.3.7 2.1 0 .4-.4 1.2-.7 1.7-.7.6 0 1.2-.3 1.2-.5s.4-.3.6-.3c1.1 0 .8-.7-.4-1-2-.3-5.3-2.6-4.8-3.4 0-.1 0-.2-.3-.2-.2 0-.2-.2 0-.5 0-.3 0-.3-.4 0-.3.3-.5.7-.4 1 .2.1 0 .2-.2 0a.7.7 0 0 1-.2-.7l-.1-.5c-.2 0-.3-.4-.2-.7.1-.4.3-.7.4-.7.2 0 .3-.4.3-.8 0-.7 0-.7-.5-.2-.6.6-.7.6-.9 0v-.3c.3.1.5-.2.6-.7.2-.7.1-1-.2-1.3-.4-.2-.1-.4.5-.3.2 0 .3-.1.3-.3 0-.2-.3-.4-.7-.4-.4 0-.9-.3-1-.6-.4-.4-.5-.5-.7-.2 0 .3-.3.5-.5.5-.4 0-.2-1.3.2-2.6.2-.4 0-.6-.9-.8-.7-.1-1-.3-.7-.5.6-.3-1.6-.7-4-.7-4.8 0-9.5 1.9-12.7 5-2.4 2.5-3.4 4.4-2.6 5.4 2 2.4 6.5 6.3 7 6 .2-.1.4 0 .4.1 0 .2.4.4.8.4.5 0 1 .2 1 .4s.2.3.6.2c.4-.2.7 0 .9.4.2.6.3.6.7 0 .2-.4.7-.6 1-.6zm-1.5.1c0-.4.1-.5.2-.2v.7c-.1 0-.2-.1-.2-.5zm15.3-20.7c.6-.4.6-.6.2-1-.6-.8-1.7-.8-2.5 0-1 .7-.8 1 .3 1.2l1.2.2.8-.4zm-23 19.2c-.4-.2-.4-.4-.2-.4l.7.4c.2.4.1.4-.6 0zm-6.8-6.3c-.5-.6-.5-.6.1-.1l.6.6c0 .3-.3 0-.7-.5z" style="fill:#c5b9a7;stroke-width:.352778" transform="translate(-44.6 -175.7)"/>
  <path d="M82.5 246.9a137 137 0 0 1-13.1-7.5 41.3 41.3 0 0 1-8.9-9.1 20 20 0 0 1-3.8-14.5c.3-2 .3-2.4-.3-3.3-.9-1.5-1.2-3.2-.8-4 .3-.5.4-.5.4-.1s0 .4.4 0c.3-.6.4-.5 1.5.5a6 6 0 0 1 1.4 2c.7 2.3 2.4 4.7 2.8 4 .1-.3 0-.7-.5-1-.3-.4-.5-.8-.4-1 .1-.2 0-.3-.2-.1-.3.1-.4-.1-.4-.7 0-.5-.2-.9-.4-.9-.3 0-.3 0-.2-.2.1-.1-.1-.6-.5-1.1-.8-1-1-1.8-.2-1.2.5.4.6.4.6 0 0-.2.6.2 1.4 1 .8.7 1.4 1.2 1.4 1 0-.1.5.2 1 .8 2 2 2.8 2.5 3.3 2.5.3 0 .7.2 1 .5.2.2.3.3.3.1 0-.1.6 0 1.4.4 1.7.9 3.4 1.3 3 .8 0-.2 0-.4.1-.3 1 .2.8-.2-.8-1.2a44.9 44.9 0 0 1-12.5-11.5c0-.8.6-1.6 2.4-3.4.6-.6 1.2-1.3 1.2-1.5 0-1.2 8.2-6 9.5-5.6.4 0 .7-.1.8-.4.2-.3.5-.4 1-.3.5.2.7.2.5 0-.1-.3.4-.6 1.4-.7 1.6-.2 3.5 0 7 1.1.6.2 1-.1 1.7-1.2l1.8-2c.8-.5 1-.5 3 0 1 .3 2 .5 2.1.3l2.2-3a76 76 0 0 0 3.8-5.5c1.3-2 2.1-2.9 2.7-3 2.3-.4 5.8 2.2 5.8 4.3 0 .8-.6 1.8-2.7 4.2a52.7 52.7 0 0 0-4.1 5.2l-1.4 1.9 1.6 1.8c1.8 2 2.1 3 1.6 4.8-.3 1.2-.2 1.3 1.3 2.6 1.1 1 2 2.4 3.2 4.7 1.7 3.4 1.8 4.2 1.2 5.7-.3.8-.2 1.6.4 3.9 1.2 4.1.9 7.4-1 12a28 28 0 0 1-7 10.7c-2.3 2.2-12 7.6-14.2 8-.8 0-1.8-.1-2.8-.5zm-8.9-30c-.3-.2-.3-.4 0-.4.1 0 .4-.2.5-.5.3-.7 0-.7-.6 0-.6.6-.5 1.2.2 1.2.3 0 .3-.1 0-.3zm-8.4-1.1c0-.6 0-1.3.2-1.7.2-.6.2-.6-.3 0-.5.7-.5.7-.7.2-.2-.4-.4-.6-.7-.6-.2 0-.2.1-.1.3.1.2 0 .4-.2.4-.1 0-.4-.5-.5-1v1c0 1.9.3 2.3 1.5 2.4.6 0 .8-.2.8-1zm13.7-2.4c1.2-.4 5-.5 4.8 0-.1.1 0 .3.3.3s.6-.2.6-.3c0-.2.7-.3 1.6-.3 1.3 0 1.5.1 1.4.5-.2.4 0 .3.6-.2.5-.5 1-.8 1.2-.8.9.2 1.9 0 1.9-.4 0-.3.7-.8 1.5-1.1l1.5-.7-1.6-.4c-1.9-.5-3.2-1.3-3.2-1.9 0-.2-.3-.4-.6-.4-.5 0-.5 0 0-.4.3-.2.2-.4-.7-.7-.9-.3-1-.5-.8-.8.2-.3.1-.7-.4-1.2-.7-.8-.9-1.3-.3-1 .1.1.4 0 .5-.1.1-.2 0-.4-.4-.4-.5 0-.5 0-.1-.3.7-.5.7-1.4 0-1.3-.2 0-.5-.3-.6-.6 0-.3 0-.6.3-.6.1 0 .3-.2.3-.4s-.3-.3-.7-.2c-.6.1-.7 0-.5-.5.2-.6-.2-.9-1-.7-.2 0-.3-.4-.2-.9.2-.8 0-1-1.7-1.8-2.4-1-6-1.1-9.9-.1-3.4.9-6 2.4-8.2 4.8-1.7 1.9-2.9 4.2-2.3 4.7.2 0 .5.5.7.9 1.1 2 8.8 7.3 9.7 6.7.2-.1.3 0 .3.3 0 .6.9.6 1.8 0 .3-.1.4-.1.2.2-.2.3 0 .3.5 0s1.3-.5 1.7-.6c.8 0 .8 0 .2.6-.5.7-.5.7 0 .6l1.6-.5zm5.5-14.2c.1-.2.3-.3.4-.3l.1.3c0 .2-.1.4-.3.4-.3 0-.3-.2-.2-.4zm4.2-7.5c.6-.4.6-.6.2-1-.6-.8-1.7-.8-2.5 0-1 .7-.8 1 .3 1.2l1.2.2.8-.4z" style="fill:#bab4a5;stroke-width:.352778" transform="translate(-44.6 -175.7)"/>
  <path d="M82.6 246.9c-1.5-.6-10.5-5.7-13.4-7.6a43.6 43.6 0 0 1-9.5-10.2 20.1 20.1 0 0 1-3-13c.2-2.2.2-2.7-.4-3.8a11 11 0 0 1-.9-2.4c-.1-.9 0-1 .6-1.3.5 0 .8 0 1.1.6.3.4.4.9.4 1 0 .2.2.2.5 0 .6-.2 1.4.8 1.7 2.1.2 1.1 1.8 3.1 2.5 3.1.3 0 .5.3.5.5 0 .6 1.7 1.8 2.1 1.5.2-.1.4-.5.4-.7 0-.8.6-.6.8.2.2.5.4.7.5.4 0-.2.4-.3.6-.2.3.1.5 0 .5-.4 0-.5.2-.5.8-.2.6.4.7.3.3-.3-.2-.4-.5-.8-.7-.8a.3.3 0 0 1-.4-.3c0-.2.6-.1 1.3.2l1.4.5h.4c.2 0 .8.5 1.5 1 .8.7 1.5 1 2 .9.5-.1 1.3 0 1.8.4 1 .6 1 .6 1 0 0-.3-.2-.4-.4-.3-.3.1-.5 0-.5-.2s-.2-.3-.3-.2c-.2.1-.4-.1-.4-.5 0-.5-.5-1-1.4-1.5-.8-.4-1.4-1-1.4-1 0-.2-.2-.3-.3-.3a8077.8 8077.8 0 0 0-4.5-3 33.8 33.8 0 0 1-7.6-7.3c-.7-1.5-.8-1.9-.4-1.6.2.1.6-.3.8-.9.3-.5.7-1 1-1 .1 0 .4-.4.5-.8.1-.4.4-.6.6-.4.3.1.4 0 .2-.2-.1-.2.3-.7.8-1.2.6-.5 1-1 .9-1-.2-.3.4-.4 1-.4.1 0 .3-.2.5-.6 0-.4.4-.7.6-.7.2 0 .7-.4 1.2-.8a4 4 0 0 1 2.1-.8c.8 0 1.4-.1 1.3-.3-.2-.2.5-.4 1.5-.3.3 0 .5-.1.5-.3 0-.2.3-.2.7-.2.4.1.8 0 .9-.2 0-.1.7-.2 1.3 0 .8.1 1 0 .8-.3-.2-.3-.1-.3.4 0 .8.5 2 .2 1.7-.3-.3-.5.5-.5 2.5.1 2.4.7 2.4.7 3.5-.8.5-.8 1.3-1.7 1.7-2 .8-.5 1-.5 3 0 1 .3 2 .5 2.1.3l2.2-3a76 76 0 0 0 3.8-5.5c1.3-2 2.1-2.9 2.7-3 2.3-.4 5.8 2.2 5.8 4.3 0 .8-.6 1.8-2.7 4.2a52.7 52.7 0 0 0-4.1 5.2l-1.4 1.9 1.6 1.8c1.8 2 2.1 3 1.6 4.9-.3 1.2-.3 1.3 1.1 2.4 1.4 1.1 2.9 3.3 2.3 3.3-.1 0 0 .3.4.7.3.3.5.9.4 1.2-.1.3 0 .5.1.4.4-.3 1.3 1.1 1.5 2.4a6 6 0 0 1-.1 2.2c-.3 1-.2 1.9.4 4 .4 1.7.7 3.8.7 4.7 0 5.7-4 14-9 18.4-2 1.9-11.8 7.3-13.7 7.7-.7.1-1.9 0-2.9-.4zm-11.8-29.2-.8-.5c-.7-.4-.7-.4 0 .2.6.5.8.6.8.3zm8.6-3.9c.3-.3.6-.4.6-.2l.5 1c.6.4.7.4 1.3-.3.3-.4.6-.6.6-.4 0 .2.7.3 1.6.3.9 0 1.7 0 1.8.2.2.2 2.1 0 3.5-.5 1.5-.5 2.3-1 2.1-1.3 0-.1.7-.7 1.7-1.2 1.7-1 1.8-1 1-1.2-1.7-.2-3.5-1.2-3.7-2-.1-.5-.4-.9-.5-.9-.2 0-.4-.1-.4-.3 0-.3.2-.3.4-.2.5.3.4-.4-.2-.9-.3-.2-.5-.6-.5-1 0-.2-.2-.3-.4-.2-.4.2-.4.2 0-1.1.2-.9.2-1.2-.3-1.5-.5-.2-.6-.7-.5-1.4.1-.6 0-1.1-.2-1.1s-.4-.3-.5-.7c-.1-.4-.5-.9-.8-1-.4-.1-.9-.4-1-.7a9 9 0 0 0-2.5-1.4c-1.7-.6-2.8-.8-5-.8-5.5 0-10.1 1.8-13.5 5.4-2.2 2.5-2.9 4-2.2 5.3 1.1 1.9 8 7 11.3 8.3 1 .4 1.2.4 1.8-.2.7-.6.7-.6.5 0v.5c.2-.1.6 0 1 .3.8.5 1.5.3 2.5-.8zm.6.6c0-.2 0-.4-.2-.4l-.3.4c-.2.2 0 .3.1.3.2 0 .4-.1.4-.3zm8.6-22.7c.6-.4.6-.6.2-1-.6-.8-1.7-.8-2.5 0-1 .7-.8 1 .3 1.2l1.2.2.8-.4zM63.1 213c0-.2-.3-.3-.6-.2-.3.2-.5 0-.5-.1 0-.3-.3-.4-.6-.4s-.5-.1-.4-.3c.2 0 0-.6-.4-1.2-.9-1.2-.9-1.4 0-1.4.7 0 2.1 1.5 2.1 2.3 0 .3.2.6.4.6s.2-.2.1-.4c-.2-.3-.1-.4.1-.2.2.1.4.5.3.7 0 .7-.5 1.2-.5.6zm14.6-21.7c-.7-.5-.7-.6.1-.6.5 0 .8.3.8.6 0 .6 0 .6-.9 0z" style="fill:#ceb391;stroke-width:.352778" transform="translate(-44.6 -175.7)"/>
  <path d="M82.6 246.9c-1.5-.6-10.5-5.7-13.4-7.6a43.6 43.6 0 0 1-9.5-10.2 20.1 20.1 0 0 1-3-13c.2-2.2.2-2.7-.4-3.8a11 11 0 0 1-.9-2.4c-.1-.9 0-1 .6-1.3.5 0 .8 0 1.1.6.3.4.4.9.4 1 0 .2.2.2.5 0 .6-.2 1.4.8 1.7 2.1.2 1.1 1.8 3.1 2.5 3.1.3 0 .5.3.5.5 0 .6 1.7 1.8 2.1 1.5.2-.1.4-.5.4-.7 0-.8.6-.6.8.2.2.5.4.7.5.4 0-.2.4-.3.6-.2.3.1.5 0 .5-.4 0-.5.2-.5.8-.2.6.4.7.3.3-.3-.2-.4-.5-.8-.7-.8a.3.3 0 0 1-.4-.3c0-.2.6-.1 1.3.2l1.4.5h.4c.2 0 .8.5 1.5 1 .8.7 1.5 1 2 .9.5-.1 1.3 0 1.8.4 1 .6 1 .6 1 0 0-.3-.2-.4-.4-.3-.3.1-.5 0-.5-.2s-.2-.3-.3-.2c-.2.1-.4-.1-.4-.5 0-.5-.5-1-1.4-1.5-.8-.4-1.4-1-1.4-1 0-.2-.2-.3-.3-.3a8077.8 8077.8 0 0 0-4.5-3 33.8 33.8 0 0 1-7.6-7.3c-.7-1.5-.8-1.9-.4-1.6.2.1.6-.3.8-.9.3-.5.7-1 1-1 .1 0 .4-.4.5-.8.1-.4.4-.6.6-.4.3.1.4 0 .2-.2-.1-.2.3-.7.8-1.2.6-.5 1-1 .9-1-.2-.3.4-.4 1-.4.1 0 .3-.2.5-.6 0-.4.4-.7.6-.7.2 0 .7-.4 1.2-.8a4 4 0 0 1 2.1-.8c.8 0 1.4-.1 1.3-.3-.2-.2.5-.4 1.5-.3.3 0 .5-.1.5-.3 0-.2.3-.2.7-.2.4.1.8 0 .9-.2 0-.1.7-.2 1.3 0 .8.1 1 0 .8-.3-.2-.3-.1-.3.4 0 .8.5 2 .2 1.7-.3-.3-.5.5-.5 2.5.1l2.1.6c.3 0 1-.8 1.7-1.8 1.2-1.6 1.4-1.8 2.6-1.8.8 0 2 .2 2.6.4 1.3.5 1.4.4 5.7-5.8 1.5-2.4 3-4.5 3.4-4.9 1.2-1.3 4.5-.3 6 1.9 1.2 1.6 1 2.5-1.4 5.2l-4.2 5-2 2.8 1.7 1.9 1.8 1.8-.2 2.2-.2 2.2 1.4 1c1.3 1 2.8 3.3 2.2 3.3-.1 0 0 .3.4.7.3.3.5.9.4 1.2-.1.3 0 .5.1.4.4-.3 1.3 1.1 1.5 2.4a6 6 0 0 1-.1 2.2c-.3 1-.2 1.9.4 4 .4 1.7.7 3.8.7 4.7 0 5.7-4 14-9 18.4-2 1.9-11.8 7.3-13.7 7.7-.7.1-1.9 0-2.9-.4zm-11.8-29.2-.8-.5c-.7-.4-.7-.4 0 .2.6.5.8.6.8.3zm8.6-3.9c.3-.3.6-.4.6-.2l.5 1c.6.4.7.4 1.3-.3.3-.4.6-.6.6-.4 0 .2.7.3 1.6.3.9 0 1.7 0 1.8.2.2.2 2.1 0 3.5-.5 1.5-.5 2.3-1 2.1-1.3 0-.1.7-.7 1.7-1.2 1.7-1 1.8-1 1-1.2-1.7-.2-3.5-1.2-3.7-2-.1-.5-.4-.9-.5-.9-.2 0-.4-.1-.4-.3 0-.3.2-.3.4-.2.5.3.4-.4-.2-.9-.3-.2-.5-.6-.5-1 0-.2-.2-.3-.4-.2-.4.2-.4.2 0-1.1.2-.9.2-1.2-.3-1.5-.5-.2-.6-.7-.5-1.4.1-.6 0-1.1-.2-1.1s-.4-.3-.5-.7c-.1-.4-.5-.9-.8-1-.4-.1-.9-.4-1-.7a9 9 0 0 0-2.5-1.4c-1.7-.6-2.8-.8-5-.8-5.5 0-10.1 1.8-13.5 5.4-2.2 2.5-2.9 4-2.2 5.3 1.1 1.9 8 7 11.3 8.3 1 .4 1.2.4 1.8-.2.7-.6.7-.6.5 0v.5c.2-.1.6 0 1 .3.8.5 1.5.3 2.5-.8zm.6.6c0-.2 0-.4-.2-.4l-.3.4c-.2.2 0 .3.1.3.2 0 .4-.1.4-.3zm9.4-22.3c1.2-1.3.8-2.3-.8-2.6-1.1-.2-1.4-.1-2.5 1-1.4 1.3-1.5 1.8-.2 2.3 1.5.6 2.6.3 3.5-.7zm8.7-5.3 3-4.3 1.8-2.6-1.1-.4c-.6-.2-1.1-.4-1.2-.3l-2 3c-2 3-2.4 3.5-1.6 3 .2-.1.3 0 .1.2-.1.2-.4.3-.5.2-.5-.2-1.3 1.3-1.2 2.2.2 1.3 1.4.8 2.7-1zM63 213c0-.2-.3-.3-.6-.2-.3.2-.5 0-.5-.1 0-.3-.3-.4-.6-.4s-.5-.1-.4-.3c.2 0 0-.6-.4-1.2-.9-1.2-.9-1.4 0-1.4.7 0 2.1 1.5 2.1 2.3 0 .3.2.6.4.6s.2-.2.1-.4c-.2-.3-.1-.4.1-.2.2.1.4.5.3.7 0 .7-.5 1.2-.5.6zm14.6-21.7c-.7-.5-.7-.6.1-.6.5 0 .8.3.8.6 0 .6 0 .6-.9 0z" style="fill:#b3a695;stroke-width:.352778" transform="translate(-44.6 -175.7)"/>
  <path d="M83.5 247.2a65.2 65.2 0 0 1-18.3-11.6 32.2 32.2 0 0 1-7.5-10.5c-.7-1.8-.8-2.7-.8-7 0-3.1-.2-5.3-.5-5.5l-.6-1.4c-.1-.7 0-1 .3-1s.6.4.8.8c0 .6.5.9 1.2 1 .7.2 1 .5 1 .9 0 .5 0 .5-.5-.1-.3-.4-.5-.5-.4-.3.2 1 4.6 5.1 5 5 .4-.2.5-.2.4 0 0 .2.4.5 1 .7.7.2 1.2.2 1 0 0-.1 0-.3.2-.3s.5.2.6.4c.1.2.5.3.8.2.4-.2.5 0 .3.3-.2.4 0 .5.3.4.3-.1.5 0 .5.2 0 .3.3.8.7 1l1.8 1.7c1 1 1.2 1 2.2.6.9-.4 1-.4 1.2.2.1.5.3.6.9.2.5-.3.7-.3 1 0 .5.5.4.5-.2.3-.7-.2-.7-.2 0 .3.6.5.8.5.9.1 0-.2.4-.6.7-.9.3-.3.4-.5.2-.6l-1.1-.7c-.5-.4-.5-.6-.2-.7.7-.3.5-.9-.3-.9-.5 0-.7-.2-.7-.8 0-.4.1-.6.3-.4.5.8 1.6 1.2 2.4.9.5-.3.8-.2 1 .2 0 .3.5.4 1.2.3.6 0 1.1 0 1.1.2 0 .7 4.6-.5 7.4-2 5-2.5 6.4-3.3 6.4-3.8 0-.4-1.5.1-2.6 1-.5.3-1.3.6-1.7.6-.4 0-.7.2-.7.4 0 0-.3.3-.8.4a11 11 0 0 0-3.5 1.8c-.2.2-.3.2-.3 0s-.8-.4-1.8-.4-2.6-.3-3.6-.6c-2.4-.8-7.5-3.6-5.4-3 .3.2.6 0 .6-.2s.1-.3.3 0c.1.2.7.5 1.2.7.8.4 1 .4 1.5-.1.6-.6.6-.6.4 0-.2.7 0 .8.6.9.7 0 .9-.1.7-.6 0-.3 0-.2.3.2.3.6.7.8 1.6.7.6 0 1.2-.2 1.2-.3 0-.2 0-.3.2-.2l1.1-.4c.5-.3 1.2-.4 1.6-.3.4.1 1 0 1.4-.3.4-.3 1.1-.4 1.6-.3.7.1 1.2-.1 2.2-1 1.3-1.3 2-1.7 1.5-1-.1.3 0 .4.2.2.2-.1.4-.4.4-.6 0-.3.5-.8 1.1-1.2.6-.4 1.2-1 1.3-1.2 0-.3 0-.4-.2-.1-.1.2-.9.3-1.6.3-1.4 0-2.7-1.1-2.7-2.2 0-.3-.2-.4-.3-.3-.2 0-.2-.3-.2-.9.2-.8 0-1-.3-1a1 1 0 0 1-.8-.4c-.2-.3-.1-.4.3-.2.7.2.8-.2.1-.8-.2-.2-.2-.4 0-.4s.3-.5.2-1.2c-.1-.7-.3-1.2-.5-1-.1 0-.3 0-.3-.2 0-.3.2-.4.4-.4.3 0 .3-.2 0-.6-.3-.2-.4-.5-.2-.5l-1-1-1.8-1.5c-.3-.3-1.5-.8-2.7-1.2a7.2 7.2 0 0 1-2.3-.9 25 25 0 0 0-9.1.2c-5.3 1.4-10.8 6-10.8 9.2 0 1 0 1-.7.3-1.5-1.5-1.3-2 1.7-5a14 14 0 0 1 3-2.7c.1.2.3 0 .4-.3.2-.3.5-.6.7-.6.3 0 .5-.2.5-.4s.2-.3.4-.1c.2 0 .6 0 1-.2s.4-.3 0-.4c-.2 0-.1-.2.4-.7.4-.3 1-.6 1.1-.5.2.2 0 .5-.3.8-.3.2 0 .2.8-.2 2.2-1 8-2 8-1.2 0 .1.6.2 1.5.2s1.6 0 1.6-.2c0-.1.3-.2.6 0 .3 0 .6 0 .7-.6.1-.4.3-.7.5-.7a7 7 0 0 0 1.5-1.8c1.2-1.6 1.4-1.8 2.6-1.8.8 0 2 .2 2.6.4 1.3.5 1.4.4 5.7-5.8 1.5-2.4 3-4.5 3.4-4.9 1.1-1.3 4.3-.4 5.9 1.7 1.3 1.7 1.1 2.6-1.3 5.3l-4.2 5.2-2 2.7 1.7 1.8 1.8 1.9-.2 2.2-.2 2.2 1.4 1.1c.7.6 1.4 1.4 1.6 1.8.3 1-.5 3.4-2 5.4-1.2 1.7-1 1.8.5.6.5-.4.6-.4.3 0-.8.8-.5 1.2.4.4.8-.8 1.6-.7 1 .1-.4.3-.3.4.2.4.4 0 .6.1.5.5l-.3 1.4c0 .8 0 .8.4.2.8-1 .9-.6.1.7-.6 1.1-.7 1.2 0 1l1-.6c.5-.4 1 .9 1.6 4.5 1 5.8-2.3 14.4-7.8 20-2.3 2.2-3.4 3-8 5.4-5.3 2.8-7 3.4-8.6 3zm-12.2-16.3c1 0 1.5-.2 1.4-.4a2 2 0 0 1-.3-.8c0-.7-.6-1.5-1-1.3-.1 0-.5 0-.8-.3-.4-.4-.6-.3-.9 0-.4.8-.4.1 0-.7.4-.6.4-.7 0-.5-.1.1-.3 0-.3-.2 0-.3-.3-.2-.8.2-.4.4-.6.5-.3.2l.4-1c0-.4-.1-.5-.2-.2-.3.7-.9.2-.9-.6 0-.4-.1-.6-.3-.5-.1 0-.5 0-.7-.4-.3-.2-.6-.4-.8-.3-.2.2-.3.1-.2 0 .1-.2-.4-1-1.2-1.8-.7-.7-1.3-1.2-1.3-1 0 0-.3 0-.6-.3s-.5-.7-.5-1c0-.2-.1-.3-.3-.2-.2.1-.5-.2-.8-.6-.2-.5-.6-1-.9-1-.2-.2-.1.3.3 1 .7 1.2.7 1.3.1.8s-.6-.5-.2.3c.7 1.3.4 1.6-.9.6-1-.8-1.2-.9-1.2-.4 0 .6.5 1.7 1.5 3.4l.6 1.3c.3.6.5.7 1 .6.4-.2.5-.1.3.2-.2.2-.2.7 0 1 .1.4.2.4.7 0 .5-.3.6-.3.4 0-.2.3 0 .4.3.4s.4.2.3.4c0 .2.2.3.6.3.5 0 .7.2.6.5-.2.4 0 .5.4.3.4 0 .7 0 .7.2s.6.7 1.3 1.2c1 .6 1.3.7 1.8.3.2-.3.5-.3.4-.1v.8c0 .4.1.4.3.1.2-.2 1-.5 2-.5zm.1-.8c0-.2 0-.4.3-.4.2 0 .4.2.3.4l-.3.5-.3-.5zm-5.3.2c-.1 0-.4 0-.7.3-.3.3-.3.4.2.2.4-.2.6-.4.5-.5zm13-7.5c0-.3-.1-.2-.1.2s0 .6.1.5c.2-.2.2-.5 0-.7zm19-10.4c.4-.6.4-.6-.3-.1a57.9 57.9 0 0 1-.6.7c.2 0 .6-.3.8-.6zm2.9-.1c.1-.2.4-.3.6-.2.2.2.3.1.1-.1-.2-.3-.4-.3-1 0-.3.1-.6.4-.6.5 0 .3.7.1.9-.2zM89.4 192c1.2-1.3.8-2.3-.8-2.6-1.1-.2-1.4-.1-2.5 1-1.4 1.3-1.5 1.8-.2 2.3 1.5.6 2.6.3 3.5-.7zm8.7-5.3 3-4.3 1.8-2.6-1.1-.4c-.6-.2-1.1-.4-1.2-.3l-2 3c-2 3-2.4 3.5-1.6 3 .2-.1.3 0 .1.2-.1.2-.4.3-.5.2-.5-.2-1.3 1.3-1.2 2.2.2 1.3 1.4.8 2.7-1zM74.3 219c0-.2.2-.4.4-.4s.3.2.3.4-.1.3-.3.3a.4.4 0 0 1-.4-.3zm-4-2.1c-.1-.2 0-.4.1-.4.2 0 .4.2.4.4l-.1.3-.4-.3zm2.6-2.7c-.5-.6-.4-.6.3-.2.8.4 1 .7.5.7-.2 0-.5-.2-.8-.5zm-13.6-.5c0-.2 0-.4.2-.4s.4.2.4.4 0 .3-.2.3l-.4-.3zm45.6-3.8c-.3-.7-.3-1.2 0-1.2.2 0 .3.4.4 1 0 1-.1 1-.4.2z" style="fill:#cb9e6b;stroke-width:.352778" transform="translate(-44.6 -175.7)"/>
  <path d="M83.5 247.2a65.2 65.2 0 0 1-18.3-11.6 32.2 32.2 0 0 1-7.5-10.5c-.7-1.8-.8-2.7-.8-7 0-3.1-.2-5.3-.5-5.5l-.6-1.4c-.1-.7 0-1 .3-1s.6.4.8.8c0 .6.5.9 1.2 1 .7.2 1 .5 1 .9 0 .5 0 .5-.5-.1-.3-.4-.5-.5-.4-.3.2 1 4.6 5.1 5 5 .4-.2.5-.2.4 0 0 .2.4.5 1 .7.7.2 1.2.2 1 0 0-.1 0-.3.2-.3s.5.2.6.4c.1.2.5.3.8.2.4-.2.5 0 .3.3-.2.4 0 .5.3.4.3-.1.5 0 .5.2 0 .3.3.8.7 1l1.8 1.7c1 1 1.2 1 2.2.6.9-.4 1-.4 1.2.2.1.5.3.6.9.2.5-.3.7-.3 1 0 .5.5.4.5-.2.3-.7-.2-.7-.2 0 .3.6.5.8.5.9.1 0-.2.4-.6.7-.9.3-.3.4-.5.2-.6l-1.1-.7c-.5-.4-.5-.6-.2-.7.7-.3.5-.9-.3-.9-.5 0-.7-.2-.7-.8 0-.4.1-.6.3-.4.5.8 1.6 1.2 2.4.9.5-.3.8-.2 1 .2 0 .3.5.4 1.2.3.6 0 1.1 0 1.1.2 0 .7 4.6-.5 7.4-2 5-2.5 6.4-3.3 6.4-3.8 0-.4-1.5.1-2.6 1-.5.3-1.3.6-1.7.6-.4 0-.7.2-.7.4 0 0-.3.3-.8.4a11 11 0 0 0-3.5 1.8c-.2.2-.3.2-.3 0s-.8-.4-1.8-.4-2.6-.3-3.6-.6c-2.4-.8-7.5-3.6-5.4-3 .3.2.6 0 .6-.2s.1-.3.3 0c.1.2.7.5 1.2.7.8.4 1 .4 1.5-.1.6-.6.6-.6.4 0-.2.7 0 .8.6.9.7 0 .9-.1.7-.6 0-.3 0-.2.3.2.3.6.7.8 1.6.7.6 0 1.2-.2 1.2-.3 0-.2 0-.3.2-.2l1.1-.4c.5-.3 1.2-.4 1.6-.3.4.1 1 0 1.4-.3.4-.3 1.1-.4 1.6-.3.7.1 1.2-.1 2.2-1 1.3-1.3 2-1.7 1.5-1-.1.3 0 .4.2.2.2-.1.4-.4.4-.6 0-.3.5-.8 1.1-1.2.6-.4 1.2-1 1.3-1.2 0-.3 0-.4-.2-.1-.3.3-2.4.4-2.7 0-.1 0 .2-.7.7-1.4 1.8-2.7 2.4-4.5 1.5-4.5-.2 0-.3.2-.2.4 0 .3-.3.8-.8 1.3s-.8 1-.8 1.2c0 .2-.3.8-.8 1.4l-.9 1-.2-.9c-.1-.5-.3-.8-.5-.7v-.9c0-.8 0-1-.4-1a1 1 0 0 1-.8-.4c-.2-.3-.1-.4.3-.2.7.2.8-.2.1-.8-.2-.2-.2-.4 0-.4s.3-.5.2-1.2c-.1-.7-.3-1.2-.5-1-.1 0-.3 0-.3-.2 0-.3.2-.4.4-.4.3 0 .3-.2 0-.6-.3-.2-.4-.5-.2-.5l-1-1-1.8-1.4c-.3-.3-1.1-.8-1.7-1-.6-.2-1.2-.5-1.2-.7l-.3-.8c-.3-.4-.4-.4-.6.3l-.2 1v-1c0-.4.3-1.1.8-1.6 1-1 2-1 4.3 0 1 .5 1.2.5 1.7-.2s.5-.7.4.3c0 .7.1 1 .5 1 .3 0 .5-.3.4-.6 0-.4 0-.6.2-.5.3.2 1.5-1.8 1.5-2.6 0-.2.1-.3.3-.2.2.1.3 0 .2-.3-.3-.7-.7-.7-1.2 0-.3.3-.6.5-.8.5-.4 0-.4-1 0-1.1a61 61 0 0 0 6.2-8.4l2.5-3.7h1.6c2.4 0 5 2.2 5 4.3 0 .3-1 1.7-2.2 3l-4.3 5.4c-2 2.6-2 2.8-1.4 3.3l1.8 1.9c1.1 1.4 1.4 3 .8 4.6-.2.6 0 1 1.2 1.9a6 6 0 0 1 1.8 1.9c.3 1-.5 3.4-2 5.4-1.2 1.7-1 1.8.5.6.5-.4.6-.4.3 0-.8.8-.5 1.2.4.4.8-.8 1.6-.7 1 .1-.4.3-.3.4.2.4.4 0 .6.1.5.5l-.3 1.4c0 .8 0 .8.4.2.8-1 .9-.6.1.7-.6 1.1-.7 1.2 0 1l1-.6c.5-.4 1 .9 1.6 4.5 1 5.8-2.3 14.4-7.8 20-2.3 2.2-3.4 3-8 5.4-5.3 2.8-7 3.4-8.6 3zm-12.2-16.3c1 0 1.5-.2 1.4-.4a2 2 0 0 1-.3-.8c0-.7-.6-1.5-1-1.3-.1 0-.5 0-.8-.3-.4-.4-.6-.3-.9 0-.4.8-.4.1 0-.7.4-.6.4-.7 0-.5-.1.1-.3 0-.3-.2 0-.3-.3-.2-.8.2-.4.4-.6.5-.3.2l.4-1c0-.4-.1-.5-.2-.2-.3.7-.9.2-.9-.6 0-.4-.1-.6-.3-.5-.1 0-.5 0-.7-.4-.3-.2-.6-.4-.8-.3-.2.2-.3.1-.2 0 .1-.2-.4-1-1.2-1.8-.7-.7-1.3-1.2-1.3-1 0 0-.3 0-.6-.3s-.5-.7-.5-1c0-.2-.1-.3-.3-.2-.2.1-.5-.2-.8-.6-.2-.5-.6-1-.9-1-.2-.2-.1.3.3 1 .7 1.2.7 1.3.1.8s-.6-.5-.2.3c.7 1.3.4 1.6-.9.6-1-.8-1.2-.9-1.2-.4 0 .6.5 1.7 1.5 3.4l.6 1.3c.3.6.5.7 1 .6.4-.2.5-.1.3.2-.2.2-.2.7 0 1 .1.4.2.4.7 0 .5-.3.6-.3.4 0-.2.3 0 .4.3.4s.4.2.3.4c0 .2.2.3.6.3.5 0 .7.2.6.5-.2.4 0 .5.4.3.4 0 .7 0 .7.2s.6.7 1.3 1.2c1 .6 1.3.7 1.8.3.2-.3.5-.3.4-.1v.8c0 .4.1.4.3.1.2-.2 1-.5 2-.5zm.1-.8c0-.2 0-.4.3-.4.2 0 .4.2.3.4l-.3.5-.3-.5zm-5.3.2c-.1 0-.4 0-.7.3-.3.3-.3.4.2.2.4-.2.6-.4.5-.5zm13-7.5c0-.3-.1-.2-.1.2s0 .6.1.5c.2-.2.2-.5 0-.7zm19-10.4c.4-.6.4-.6-.3-.1a57.9 57.9 0 0 1-.6.7c.2 0 .6-.3.8-.6zm2.9-.1c.1-.2.4-.3.6-.2.2.2.3.1.1-.1-.2-.3-.4-.3-1 0-.3.1-.6.4-.6.5 0 .3.7.1.9-.2zm-4.2-23c.5-.4 1.2-1.3 1.6-2.1.3-.8.9-1.5 1.1-1.6.3-.1.5-.4.4-.5-.1-.2 0-.3.4-.3.3 0 .5-.3.5-.7 0-.4.2-.9.5-1.1 1-.8 2-2.7 1.8-3.3a1 1 0 0 0-1-.6c-.3 0-.7-.2-.8-.4-.3-.5-.7 0-2.4 2.5a138.2 138.2 0 0 1-5.2 7.4c0 .2 1.8 1.4 2.1 1.4l1-.7zM74.3 219c0-.2.2-.4.4-.4s.3.2.3.4-.1.3-.3.3a.4.4 0 0 1-.4-.3zm-4-2.1c-.1-.2 0-.4.1-.4.2 0 .4.2.4.4l-.1.3-.4-.3zm2.6-2.8c-.5-.5-.4-.5.3-.1.8.4 1 .7.5.7-.2 0-.5-.2-.8-.6zm-13.6-.4c0-.2 0-.4.2-.4s.4.2.4.4 0 .3-.2.3l-.4-.3zm45.6-3.8c-.3-.7-.3-1.2 0-1.2.2 0 .3.4.4 1 0 1-.1 1-.4.2zm-43.7-5c-1.3-1.5-1.2-2 1.8-5 1.5-1.5 2.9-2.7 3-2.6.1.2.3 0 .4-.3.2-.3.5-.6.7-.6.3 0 .5-.2.5-.4s.2-.3.4-.1c.2 0 .6 0 1-.2s.4-.3 0-.4c-.2 0-.1-.2.4-.7.4-.3 1-.6 1.1-.5.2.2 0 .5-.3.8-.3.2 0 .2.8-.2 2.2-1 8-2 8-1.2 0 .1.6.2 1.5.2s1.6-.1 1.6-.3c0-.2.2-.1.4 0 .3.3.3.7 0 1-.3.6-.8.7-4 .6-5.7 0-10 1.4-13.4 4.8-2.1 2-2.8 3-3 4.6-.3 1.2-.3 1.2-.9.6z" style="fill:#a6988a;stroke-width:.352778" transform="translate(-44.6 -175.7)"/>
  <path d="M82.2 246.6c-2.1-.9-8.8-4.6-12.5-7-4.4-3-10.1-9.8-12-14.5-.7-1.8-.8-2.7-.8-7a19 19 0 0 0-.5-5.8l-.5-.8 1 .6.9 1c0 .5 5.2 5.5 5.7 5.5.3 0 .6.1.7.3l2.6 2c1.5.9 2.6 1.8 2.6 2 0 .3 2.4 1.4 3.2 1.4.4 0 .8.2 1 .5 0 .3.5.5.9.5s.5-.1.3-.2c-1-.4 0-.8 1.4-.6 1.4.2 1.5.2 1-.4-.4-.5-.4-.5.7 0l2 .7c.8.2.9.1.3-.2-.6-.4-.6-.4.2-1.1l.8-.7-.8.2c-.6.2-.8.2-.6-.1.1-.2 0-.4 0-.4-.2 0-.5-.5-.8-1-.3-1 0-1.6.4-.7.1.3.2.3.2 0 0-.2.3-.3 1.1 0 .7.1 1.9.1 3.1-.1l2.4-.4c.3 0 .5-.2.5-.3a21.8 21.8 0 0 0 4.1-1.7c1.5-.8 2.5-1.2 2.3-1-.3.4-.3.5.5.3.5 0 .8-.4.8-.7 0-.8.9-1.2 1.4-.7.3.3.5.3.9 0 .3-.4.3-.5-.1-.2-.3.2-.4.1-.2-.2.1-.2.3-.3.4-.2.1.1.6 0 1.1-.4 1-.5 1-.5 0 .5-1.6 1.6-1 1.4 1.4-.5 1.1-1 1.8-1.4 1.5-1-.2.3-.3.5-.1.6l-.4.3c-.4.1-.5.3-.3.5.2 0 1-.4 1.6-1 1-1 1.3-1.1 1.6-.8.4.3.4.3.2-.2l.1-.8c.2 0 .3.2.3.6 0 .5-.1.8-.2.8l-.2.6c0 .4 0 .6.3.4.1 0 .2-.3 0-.5 0-.3 0-.3.2-.2.3.2.4.4.3.6-.2.2 0 .4.1.5.3.2.3.5.2.8-.3 1 .6.4 1.3-.8l.8-1.2c.6 0 1.4 5.2 1.3 8.1-.1 5.2-4 12.8-8.4 17-2 1.8-12 7.3-14 7.7-1 .2-1.8 0-3.3-.6zm-10.9-11.8c0-.2 0-.3.2-.3s.5.2.6.5c.2.6 1.2.3 1.2-.3 0-.3.2-.6.4-.8.2-.1.3 0 .2.1-.1.2.2.6.6.8 1 .5 1.6.5 1 .1-.3-.2-.3-.5.3-1 .3-.4.7-1 .7-1.2 0-.2 0-.3.3-.3.4 0 .3-1-.2-1.2-.3-.1-.4-.5-.3-.8.2-.4.1-.5-.1-.4-.3.2-.4 0-.4-.2 0-.4-.5-.7-2-1-.2 0-1-.6-1.6-1.3l-2.7-1.9c-.7-.4-2-1.3-2.7-2a24.1 24.1 0 0 1-4.7-4.1 33.1 33.1 0 0 1-3.6-4c-.4 0 0 2 .6 3l.4 1.3c0 .5-.1.5-.7.2-.4-.2-.8-.3-1-.2-.6.7 2.5 7.4 4.3 9.4 1.8 1.9 4.5 3.9 5 3.7.1-.2.2-.1 0 0 0 .3.1.7.4 1 .6.4.6.3.4-.2-.2-.4-.1-.6.1-.4.2 0 .3.5.3.9 0 .6.1.6.5.3s.7-.2 1.2.3c.6.6 1.7.6 1.3 0zm.8-.5c-.1-.3 0-.4.3-.3.3.1.4.4.3.5-.2.5-.4.4-.6-.2zm2.3-.8c0-.9 0-.9.5-.4.3.4.5.8.3 1-.4.7-.7.4-.8-.6zm1.2-1.7c-.2-.5-.1-.5.3-.1.6.5.7.7.2.7-.1 0-.4-.3-.5-.6zm-7.9-10.7c-.7-.6-.7-.7-.2-1.3.3-.4.5-.5.3-.2 0 .2 0 .5.2.6.2.1.3.4.2.5-.1.2 0 .5.4.7.3.2.5.4.3.4s-.7-.3-1.2-.7zm-1.5-1.4c0-.3.2-.3.4-.2.2.1.3.3.3.4l-.3.1c-.2 0-.4-.1-.4-.3zm14.6-1.9c-1.5-.6-2-1.1-1.4-1.4.4-.2.6 0 .6.4s.1.4.2.1c.2-.3.4-.3 1 .2.5.5.7.6 1 .1.6-.7 1.3-.8 1.3-.1 0 .3.2.4.4.3.2-.1.2-.4.1-.6 0-.1.2-.4.6-.6.4-.3.7-.3.7-.2l.6-.2c.4-.4.5-.4.3 0-.2.3 0 .4 1.2.2l2-.2-.2-.4c-.5-.2-.4-.3.2-.3.4 0 1-.2 1.2-.5.2-.3.6-.6 1-.6.2 0 .3-.1.2-.3 0-.2.4-.4 1-.5.7-.2 1.4-.5 1.6-.9l1.6-1.8c.7-.7 1.1-1.3 1-1.5 0 0-.8.1-1.8.5-2.3.8-2.8.4-1.6-1.2 1.8-2.7 2.4-4.5 1.5-4.5-.2 0-.3.2-.2.4 0 .3-.3.8-.8 1.3s-.8 1-.8 1.3c0 .2-.3.8-.8 1.2l-.9.9v-3.1c0-.3-.2-.6-.4-.6-.3 0-.3-.1 0-.5.9-1-1.2-6.5-2.5-6.5l-1-.7c-.4-.4-1.4-.9-2.2-1-.8-.2-1.5-.5-1.5-.6l-.3-.9c-.3-.4-.4-.4-.6.2-.2.6-.2.6-.3 0 0-.4.4-1 1-1.5 1-1 1.8-1 4.2 0 1 .5 1.2.5 1.7-.2s.5-.7.4.3c0 .7.1 1 .5 1 .3 0 .5-.3.4-.6 0-.4 0-.6.2-.5.3.2 1.5-1.8 1.5-2.6 0-.2.1-.3.3-.2.2.1.3 0 .2-.3-.3-.7-.7-.7-1.2 0-.3.3-.6.5-.8.5-.4 0-.4-1 0-1.1a61 61 0 0 0 6.2-8.4c2.3-3.4 2.6-3.7 3.7-3.8 2.2-.3 5.3 2.3 5.3 4.4 0 .3-1 1.7-2.1 3l-4.3 5.4c-2 2.6-2 2.8-1.4 3.3 2.6 2.2 3.4 4.3 2.6 6.5-.2.5-.3 1-.1 1 .1 0 1 .6 1.7 1.4 1.3 1.2 1.5 1.6 1.3 2.4-.3 1.2-1.6 3.2-2.1 3.2-.3 0-.4.2-.3.5.1.3 0 .6-.2.7-.3.2-.4.2-.2 0 .1-.3 0-.6-.1-.7-.2-.1-.4 0-.4.2s-.2.3-.4.4c-.3 0-1.5.8-2.8 1.9-4.7 3.9-10.8 6.9-14 6.8-1 0-2.2-.2-2.8-.4zm18.7-12.6c.4-1.6 0-1.7-.7 0-.7 1.2-.7 1.3-.2 1.3.3 0 .7-.6.9-1.3zm-2.7-15.9c.5-.4 1.2-1.3 1.6-2.1.3-.8.9-1.5 1.1-1.6.3-.1.5-.4.4-.5-.1-.2 0-.3.4-.3.3 0 .5-.3.5-.7 0-.4.2-.9.5-1.1 1-.8 2-2.7 1.8-3.3a1 1 0 0 0-1-.6c-.3 0-.7-.2-.8-.4-.3-.5-.7 0-2.4 2.5a138.2 138.2 0 0 1-5.2 7.4c0 .2 1.8 1.4 2.1 1.4l1-.7zm-19.6 26.8c-.4-.2-.4-.3-.1-.3l.6.3c.3.5.1.5-.5 0zm-16.3-11.7c-.4-1-.3-1 2.2-3.7a17.5 17.5 0 0 1 3.5-3.3c0-.3 1.2-1 1.9-1 .2 0 .4 0 .5-.2.5-.7 1.8-1.2 2.4-1 .4.2.5.1.3-.2-.2-.4-.2-.4 1.8-.6l3.8-.3c1.6-.1 2.3 0 2.3.2 0 .3.5.4 1.3.3H82c0 .2-1.6.3-3.5.3-2 0-4.4.3-5.6.6-4.9 1.2-9.2 4.4-10.8 8l-.8 1.9z" style="fill:#9a9084;stroke-width:.352778" transform="translate(-44.6 -175.7)"/>
  <path d="M81.2 246.2a154 154 0 0 1-12-7 39.6 39.6 0 0 1-10.9-12.9 18.8 18.8 0 0 1-1.5-9.2c.1-2 .3-3.6.4-3.7 0 0 1.5 1.2 3 2.8a28.5 28.5 0 0 0 6 4.7c.6.1 1 .4 1 .5-.2.6 4.6 3.8 6 4l1.1.5c.1.2.7.3 1.3.3.9 0 1 0 .8-.4-.6-.8 2-1.2 2.8-.5.2.3.9.3 1.7.2.8-.2 1.1-.4.8-.5a.5.5 0 0 1-.1-.8c.2-.2.1-.3-.1-.1l-.5-.1c0-.2.2-.5.5-.5.2-.1 0-.4-.5-.6-.6-.2-1-.5-1-.6l.9.2c1.2.5 1-.1-.1-.6-1-.4-.9-.4.5-.3h1.5c0-.3.9-.4 2-.4 1 0 2.1-.2 2.4-.4.2-.3 1-.5 1.6-.6a3 3 0 0 0 1.5-.4c.4-.2.4-.2 0 .3-.5.6-.2 1 .5.7.2 0 .4-.3.2-.5 0-.2 0-.3.2-.1.6.3 4.4-1.9 4-2.4 0-.2 0-.3.4-.1.3 0 .6 0 .6-.2 0-.4 1-.4 1.2.1 0 .3.2.2.3-.2.2-.4.1-.5-.1-.3-.3.1-.3 0-.2-.2l1-.8c.7-.4.8-.4.4.1-.9 1 .5.5 2.4-.9l1.7-1c0 .2-.1.4-.3.5-.2 0-.3.5-.2 1 .2.6.3.6.8.3.3-.3.5-.3.3-.1-.1.1 0 .5.2.7.2.4.2.5 0 .5-.6 0-1.3 1.4-.9 1.8.4.4 2-1.5 3.1-3.6.6-1 .7-1.1.9-.5v1.7c-.2.5-.3 1.3-.2 1.8 0 .5 0 1-.3 1.2-.2 0-.2 0 0-.2 0-.2 0-.5-.2-.6-.2-.1-.4 0-.4.2l-.1.9c0 .2-.2.6-.5.9-.2.3-.3.7-.1 1 .2.3.3.3.5-.2.1-.3.4-.5.6-.3.2 0 .3 0 .3-.3 0-.2.4 0 .8.4.6.7.7 1.1.6 2.7-.3 2.7-3 8.7-5.2 11.8a20.4 20.4 0 0 1-8.3 7l-5.7 3c-3 1.6-4.5 1.7-7.4.3zm-1.6-6.2-.3-.4c-.2-.1-.4 0-.4.2s.2.3.4.3l.3-.1zm-2-1.5c-.1-.6 0-.9.2-.7.2.1.4.5.4.8 0 .3.2.4.6.3.2-.2.5-.4.5-.6 0-.2-.2-.2-.4-.1s-.4-.2-.5-.7c-.2-.5-.5-.9-.7-.9-.3 0-.5-.2-.5-.5 0-.6.7-.6 1.1 0 .2.2.3.2.3 0 0-.3-.3-.7-.6-.9-.4-.2-.5-.3-.2-.3s.4-.2.2-.4c0-.2 0-.4.2-.4s.3-.1.2-.3c-.3-.6 1-.4 2.4.2 1.4.7 3 .4 3-.4 0-.3 0-.5-.3-.5-.2 0-1.6-.7-3.1-1.6l-3-1.3c-.1 0-.2 0-.2-.2s-.6-.6-1.2-.8l-2-1a52 52 0 0 1-12.2-9.5c-3.6-3.6-4-4-4.4-3.4-.3.4-.3.5-.1.4.4-.2.8 1.1.8 2.5 0 .4 0 .4-.5-.1-.5-.7-.5-.6-.3.7.4 3.8 5.5 13.5 7 13.6a34.5 34.5 0 0 0 7.4 5c.8.2 1 .2 1.3-.2.1-.2 0-.5-.2-.7-.3-.2-.2-.3.1-.1.4 0 .5.4.4 1 0 .8 0 .8.5 0 .5-.6.5-.6.4.4-.2 1-.2 1 .1.4a2 2 0 0 1 1-1h.3c0 .2 0 .7.4 1 .5.7.5.7.3-.1 0-.5 0-.8.3-.7.2 0 .4.5.4.8 0 .6.4 1.2.7 1.2l-.1-.9zm2-1.2c-.7-.4-1.1-.4-.8 0 0 .2.4.4.8.4.5 0 .5 0 0-.4zm-.4-2.6c0-.3-.2-.4-.3-.3-.2 0-.3.3-.3.5 0 .1.1.3.3.3.1 0 .3-.2.3-.5zm7.1-1.1c0-.3-.1-.5-.3-.3-.2 0-.4.3-.4.5s.2.3.4.3.3-.2.3-.5zm1.3-.4c0-.7-.7-.4-.8.4-.1.3 0 .5.3.3.3 0 .5-.4.5-.7zm17-10.7v-.4c-.2 0-.3.2-.4.4-.2.2-.1.4.1.4s.4-.2.4-.4zm-15.8-1.2-.5-.3c-.4-.2-.5-.1-.4 0 .2.4 1 .6 1 .3zm4-2.8a7 7 0 0 1 1.8-1c.2 0-.3.5-1 1a7 7 0 0 1-1.8.8c-.2 0 .3-.4 1-.8zm-10.6-.5c-.3-.2-.2-.4.4-.7.7-.3.8-.3.7.1-.1.3 0 .5.1.5.2 0 .5-.3.6-.6.2-.4.3-.5.5-.2.3.5 1.2.4 1.9-.2a1 1 0 0 1 1 0c.3.2.3.3-.4.7-1 .5-4.2.7-4.8.4zm6.8-1.8 1.4-1c.1-.3.4-.4.5-.3.2.1.4 0 .4-.2s.1-.3.3-.1l.4-.1a22.9 22.9 0 0 0 5.7-5.4c0-.3.3-.8.6-1 1-1 1.5-2.4 1.4-3.4-.1-1-.1-1-1.3.7-.6.9-1.1 1.7-1.1 1.9 0 .4-1.9 2-2.9 2.4-1.5.6-1.9 0-.8-1.4 1.8-2.7 2.4-4.5 1.5-4.5-.2 0-.3.2-.2.4 0 .3-.3.8-.8 1.3s-.8 1-.8 1.2c0 .2-.2.7-.5 1-.6.8-.6.7-.8-.6v-1.7c.2-.3.3-.8.4-1.3 0-1.2-.8-4.2-1.2-4.2-.1 0-.3-.2-.3-.5 0-.5-4.4-2.9-6-3.2-.6 0-1-.3-.9-.5.1-.1 0-.5-.3-.7-.4-.3-.5-.3-.6.2-.2.6-.2.6-.3 0 0-.4.4-1 1-1.5 1-1 1.8-1 4.2 0 1 .5 1.2.5 1.7-.2s.5-.7.4.3c0 .7.1 1 .5 1 .3 0 .5-.3.4-.6 0-.4 0-.6.2-.5.3.2 1.5-1.8 1.5-2.6 0-.2.1-.3.3-.2.2.1.3 0 .2-.3-.3-.7-.7-.7-1.2 0-.3.3-.6.5-.8.5-.4 0-.4-1 0-1.1a61 61 0 0 0 6.2-8.4c2.3-3.4 2.6-3.7 3.7-3.8 2.2-.3 5.3 2.3 5.3 4.4 0 .3-1 1.7-2.1 3l-4.3 5.4c-2 2.6-2 2.8-1.4 3.3l1.8 1.9c1.1 1.4 1.4 3 .8 4.6-.2.6 0 1 1.2 2.1 1.7 1.5 2 3 1 3.8-.2.2-.5.6-.5.9 0 .3-.1.5-.4.5a33 33 0 0 0-6.2 4.6 28 28 0 0 1-4.7 3c-2.9 1.6-4.6 2.1-2.6.9zm7.8-26.9c.5-.4 1.2-1.3 1.6-2.1.3-.8.9-1.5 1.1-1.6.3-.1.5-.4.4-.5-.1-.2 0-.3.4-.3.3 0 .5-.3.5-.7 0-.4.2-.9.5-1.1 1-.8 2-2.7 1.8-3.3a1 1 0 0 0-1-.6c-.3 0-.7-.2-.8-.4-.3-.5-.7 0-2.4 2.5a138.2 138.2 0 0 1-5.2 7.4c0 .2 1.8 1.4 2.1 1.4l1-.7zm-35.7 15.3c-.3-1 .2-1.7 2-3.5 2-2.1 2.8-2.6 1.2-.9-.7.9-1.7 2.4-2.1 3.3-.7 1.5-.9 1.7-1 1zm5.5-6.6c0-.2 3.2-2 3.3-2 0 .2-.6.7-1.6 1.2l-1.7.8zm4.3-2.3c.8-.5 5-1.4 6.3-1.4.8 0 .8 0-.2.3a54.4 54.4 0 0 1-6 1z" style="fill:#b58757;stroke-width:.352778" transform="translate(-44.6 -175.7)"/>
  <path d="M81.2 246.2a154 154 0 0 1-12-7 39.6 39.6 0 0 1-10.9-12.9 18.8 18.8 0 0 1-1.5-9.2c.1-2 .3-3.6.4-3.7 0 0 1.5 1.2 3 2.8a28.5 28.5 0 0 0 6 4.7c.6.1 1 .4 1 .5-.2.6 4.6 3.8 6 4l1.1.5c.1.2.7.3 1.3.3.9 0 1 0 .8-.4-.6-.8 2-1.2 2.8-.5.2.3.9.3 1.7.2.8-.2 1.1-.4.8-.5a.5.5 0 0 1-.1-.8c.2-.2.1-.3-.1-.1l-.5-.1c0-.2.2-.5.5-.5.2-.1 0-.4-.5-.6-.6-.2-1-.5-1-.6l.9.2c1.2.5 1-.1-.1-.6-1-.4-.9-.4.5-.3h1.5c0-.3.9-.4 2-.4 1 0 2.1-.2 2.4-.4.2-.3 1-.5 1.6-.6a3 3 0 0 0 1.5-.4c.4-.2.4-.2 0 .3-.5.6-.2 1 .5.7.2 0 .4-.3.2-.5 0-.2 0-.3.2-.1.6.3 4.4-1.9 4-2.4 0-.2 0-.3.4-.1.3 0 .6 0 .6-.2 0-.4 1-.4 1.2.1 0 .3.2.2.3-.2.2-.4.1-.5-.1-.3-.3.1-.3 0-.2-.2l1-.8c.7-.4.8-.4.4.1-.9 1 .5.5 2.4-.9l1.7-1c0 .2-.1.4-.3.5-.2 0-.3.5-.2 1 .2.6.3.6.8.3.3-.3.5-.3.3-.1-.1.1 0 .5.2.7.2.4.2.5 0 .5-.6 0-1.3 1.4-.9 1.8.4.4 2-1.5 3.1-3.6.6-1 .7-1.1.9-.5v1.7c-.2.5-.3 1.3-.2 1.8 0 .5 0 1-.3 1.2-.2 0-.2 0 0-.2 0-.2 0-.5-.2-.6-.2-.1-.4 0-.4.2l-.1.9c0 .2-.2.6-.5.9-.2.3-.3.7-.1 1 .2.3.3.3.5-.2.1-.3.4-.5.6-.3.2 0 .3 0 .3-.3 0-.2.4 0 .8.4.6.7.7 1.1.6 2.7-.3 2.7-3 8.7-5.2 11.8a20.4 20.4 0 0 1-8.3 7l-5.7 3c-3 1.6-4.5 1.7-7.4.3zm-1.6-6.2-.3-.4c-.2-.1-.4 0-.4.2s.2.3.4.3l.3-.1zm-2-1.5c-.1-.6 0-.9.2-.7.2.1.4.5.4.8 0 .3.2.4.6.3.2-.2.5-.4.5-.6 0-.2-.2-.2-.4-.1s-.4-.2-.5-.7c-.2-.5-.5-.9-.7-.9-.3 0-.5-.2-.5-.5 0-.6.7-.6 1.1 0 .2.2.3.2.3 0 0-.3-.3-.7-.6-.9-.4-.2-.5-.3-.2-.3s.4-.2.2-.4c0-.2 0-.4.2-.4s.3-.1.2-.3c-.3-.6 1-.4 2.4.2 1.4.7 3 .4 3-.4 0-.3 0-.5-.3-.5-.2 0-1.6-.7-3.1-1.6l-3-1.3c-.1 0-.2 0-.2-.2s-.6-.6-1.2-.8l-2-1a52 52 0 0 1-12.2-9.5c-3.6-3.6-4-4-4.4-3.4-.3.4-.3.5-.1.4.4-.2.8 1.1.8 2.5 0 .4 0 .4-.5-.1-.5-.7-.5-.6-.3.7.4 3.8 5.5 13.5 7 13.6a34.5 34.5 0 0 0 7.4 5c.8.2 1 .2 1.3-.2.1-.2 0-.5-.2-.7-.3-.2-.2-.3.1-.1.4 0 .5.4.4 1 0 .8 0 .8.5 0 .5-.6.5-.6.4.4-.2 1-.2 1 .1.4a2 2 0 0 1 1-1h.3c0 .2 0 .7.4 1 .5.7.5.7.3-.1 0-.5 0-.8.3-.7.2 0 .4.5.4.8 0 .6.4 1.2.7 1.2l-.1-.9zm2-1.2c-.7-.4-1.1-.4-.8 0 0 .2.4.4.8.4.5 0 .5 0 0-.4zm-.4-2.6c0-.3-.2-.4-.3-.3-.2 0-.3.3-.3.5 0 .1.1.3.3.3.1 0 .3-.2.3-.5zm7.1-1.1c0-.3-.1-.5-.3-.3-.2 0-.4.3-.4.5s.2.3.4.3.3-.2.3-.5zm1.3-.4c0-.7-.7-.4-.8.4-.1.3 0 .5.3.3.3 0 .5-.4.5-.7zm17-10.7v-.4c-.2 0-.3.2-.4.4-.2.2-.1.4.1.4s.4-.2.4-.4zm-15.8-1.2-.5-.3c-.4-.2-.5-.1-.4 0 .2.4 1 .6 1 .3zm4-2.8a7 7 0 0 1 1.8-1c.2 0-.3.5-1 1a7 7 0 0 1-1.8.8c-.2 0 .3-.4 1-.8zm-10.6-.5c-.3-.2-.2-.4.4-.7.7-.3.8-.3.7.1-.1.3 0 .5.1.5.2 0 .5-.3.6-.6.2-.4.3-.5.5-.2.3.5 1.2.4 1.9-.2a1 1 0 0 1 1 0c.3.2.3.3-.4.7-1 .5-4.2.7-4.8.4zm6.8-1.8 1.4-1c.1-.3.4-.4.5-.3.2.1.4 0 .4-.2s.1-.3.3-.1l.4-.1a22.9 22.9 0 0 0 5.7-5.4c0-.3.3-.8.6-1 1-1 1.5-2.4 1.4-3.4-.1-1-.1-1-1.3.7-.6.9-1.1 1.7-1.1 1.9 0 .4-1.9 2-3 2.4l-1 .5.7-1.4c2.3-4.2 3-7.1 1.9-6.8-.3 0-.4-.2-.2-.6.2-.9-.4-2.3-1-2-.2 0-.4.9-.4 2.1 0 1.6-.3 2.7-1 4.4l-1.1 2.3-.2-1.2a4 4 0 0 1 0-1.6c.2-.3.3-.8.4-1.3 0-1.2-.8-4.2-1.2-4.2-.1 0-.3-.2-.3-.5 0-.5-4.5-3-5.6-3-1 0-1.3-.6-.5-1.4.5-.6.5-.8.1-1.2-.3-.5-.3-.6.6-.6a3 3 0 0 1 1.5.4c.2.3.4.4.4.2a19 19 0 0 1 5.4 3l1.3 1 1-2c1-2.4 1.3-2.7.8-.8-.3 1.1-.3 1.2.2.5.2-.4.7-1 1-1.2.6-1 .6-1.4-.4-2.1-.9-.7-1-.8-.4-1.3.5-.5.6-.5.8.2.2.7.3.6 1.8-1l1.5-1.8 2-2.3c1-1.2 2.3-2.8 2.7-3.7.5-1 .8-1.4 1-1.1.7.6 0 1.9-2.2 4.4-2.3 2.7-6 7.4-6 7.7l1.5 1.6c1.4 1.3 1.4 1.4 1.5 3.8.1 2.5.1 2.5 1.6 3.8 1.6 1.5 2 3 1 3.8-.3.2-.6.6-.6.9 0 .3-.1.5-.4.5a33 33 0 0 0-6.2 4.6 28 28 0 0 1-4.7 3c-2.9 1.6-4.6 2.1-2.6.9zm-27.9-11.6c-.3-1 .2-1.7 2-3.5 2-2.1 2.8-2.6 1.2-.9-.7.9-1.7 2.4-2.1 3.3-.7 1.5-.9 1.7-1 1zm5.5-6.6c0-.2 3.2-2 3.3-2 0 .2-.6.7-1.6 1.2l-1.7.8zm4.3-2.3c.8-.5 5-1.4 6.3-1.4.8 0 .8 0-.2.3a54.4 54.4 0 0 1-6 1zm22.8-5.3-1.7-1 .9-.8.9-.8-.4 1-.2 1a61 61 0 0 0 2 .6c0 .2.1.3.3.2.2-.1.4 0 .4.1 0 .7-.6.6-2.2-.3zm10.3-11c-.6-.8-2.8-1.5-3.7-1.1-.5.1-.6 0-.4-.2.6-1 4.6.2 5 1.6.3.7-.4.5-1-.2z" style="fill:#938679;stroke-width:.352778" transform="translate(-44.6 -175.7)"/>
  <path d="m80.5 245.8-7.3-4.1c-9.2-5.5-15.3-13.2-16.3-20.6-.1-1.3-.1-1.4.1-.6l.7 1.4c.5.7 2.2 5 2.3 5.8.3 2.4 6 8 10.5 10.4l2.3 1.3c.3.2 1 .7 1.8 1 .7.3 1.4.8 1.5 1 .2 0 .4 0 .5-.2.2-.2.5-.2 1.2 0 .5.2 1.6.5 2.4.5l2 .3a5 5 0 0 0 3.3-.9c.2-.2 0-.3-.3-.1-.5.1-.7 0-.9-.5 0-.4-.3-.6-.5-.5-.5.3-2-1-2-1.7 0-.4-.2-.6-.3-.5-.2 0-.5-.2-.7-.7-.4-.8-.1-1 1-.9.2 0 .3-.1.2-.4 0-.3.5-.4 1.8-.3 1.3 0 1.8 0 1.6-.4-.1-.2 0-.3.2-.1.5.3 1.7-.3 3-1.6.6-.6 1.2-1 1.3-1 .7 0 .5-1-.2-1-1 0-3 .6-3 1 0 .1-.5.4-1 .5-1 .2-1.6 0-3.8-1.1l-4.7-2.4a51.3 51.3 0 0 1-11.3-7.6c.6.6 2.6 2 4.4 3 2.7 1.7 3.6 2.1 5.6 2.3.1 0 .2.1 0 .3 0 .2.2.3.6.3.3 0 .7-.3.7-.6s.2-.4.6-.2c.5.2.5.1.2-.2-.7-.6-.6-1.2 0-.7.3.3.6.4.6.2 0-.1.5 0 1.1.5 1.4.9 4.2 1.1 4.4.4.1-.2 0-.4-.2-.2-.3.1-.7-.5-.7-1 0-.2-.3-.5-.6-.8-.3-.3-.4-.7-.3-.8 0-.2 0-.4-.3-.5-.2-.1 0-.2.3-.2 1 0 .9-1.2-.2-1.5-.8-.2-.8-.3.2-.2.6 0 1.2.3 1.4.6.4.4.8.4 2.3.1 1.4-.3 2-.3 2.2 0 .1.3.2.2.2-.2s.2-.5.6-.4c.3.1.5 0 .5-.2s.2-.3.4-.2c.2.1.9-.2 1.6-.7.7-.6 1.5-1 1.8-1.1.3 0 .7-.3.8-.5.2-.2.5-.3.7-.2.3.2.2.5-.2 1-.7.7-.7.7.7 0 .8-.3 1.5-.7 1.6-.9l.7-.6c.6-.3.7-.2.5.2-.2.5.7.5 1.2 0 .1-.2 0-.2-.3 0-.3.1 0-.2.5-.7 1-.9 2-1 1.4 0a2 2 0 0 0-.3 1c0 .7-.9 1.4-1.2 1-.1 0 0-.3.4-.5s.6-.5.6-.7c0-.2-.2-.2-.5 0-.6.6-1.5 2-1 1.7.3-.1.5.1.6.5.2.8-.3 1-.6.3-.1-.4-.4.5-.3 1.2 0 .1-.1.2-.3.2-.3 0-.5.2-.6.6-.1.6-.1.6.8 0 .5-.3.9-.4.9-.3 0 .6 4.3-4 5.7-6 .9-1.4 1.3-1.9 1.3-1.4a4 4 0 0 1-.8 1.9l-1 1.7c-.7 1.4-1.2 2.1-1.4 2-.2-.2-.4 0-.5.4l-1.2 1.6c-.8.9-1 1.2-.7 2 .2.6.2 1 0 1-.1-.2-.2 0-.2.3 0 .6.4.6 1 0 .3-.3.7-.6.9-.6.3 0 1.7-1.2 3-2.8.7-.8 1.1-1 1.2-.8 0 .3.3.4.5.3.2-.2.3 0 .3.3s-.1.6-.3.7c-.2.1-.4.6-.5 1l-.2.8.7-.8c.8-1 .8-1 0 1.8a30.6 30.6 0 0 1-7.8 13c-1 .9-4.3 3-7.5 4.6-7 3.7-7.4 3.8-11.4 1.7zm13.8-17c0-.3-.2-.2-.2.2s0 .6.2.5v-.7zm2.4-.7c.2-.2 0-.2-.3 0-.6.1-.7.4-.2.4.2 0 .4-.2.5-.4zM79 241.2c-.3-.2-.3-.3 0-.4l.6.4c.2.4.1.4-.6 0zm6-19c0-.3.3-.4.6-.4l.5.1-.5.4c-.3 0-.6 0-.6-.2zm10.6-3.7.6-.6c.6-.5.6-.5.2.1-.5.6-.8.8-.8.5zm-11.6-.6c0-.2.1-.3.3-.3.2 0 .4.1.4.3 0 .2-.2.4-.4.4a.4.4 0 0 1-.3-.4zm11.8-6.2c2.8-2.7 4.2-5 4-6.9l-.1-1.1-1.9 2.5c-1.7 2.4-3.4 4-3.8 3.5-.1-.1 0-.7.3-1.2 2-3.7 2.8-6.8 1.7-6.5-.3 0-.3-.2-.2-.8.2-1-.6-2.2-1.2-1.8-.3.1-.4.6-.2 1.2.3 1.4-.2 3.6-.7 3.6-.3 0-.5-.5-.5-1.3 0-2.6-3.4-5.8-6.8-6.4-2-.3-2.3-.6-1.6-1.5.6-.6.6-.8.2-1.2-.3-.5-.3-.6.6-.6a3 3 0 0 1 1.5.4c.2.3.4.4.4.2a19 19 0 0 1 5.4 3l1.3 1 1-2c1-2.4 1.3-2.7.8-.8-.3 1.1-.3 1.2.2.5.2-.4.7-1 1-1.2.6-1 .6-1.4-.4-2.1-.9-.7-1-.8-.4-1.3.5-.5.6-.5.8.2.2.7.3.6 1.8-1l1.5-1.8 2-2.3c1-1.2 2.3-2.8 2.7-3.7.5-1 .8-1.4 1-1.1.7.6 0 1.9-2.2 4.4-2.3 2.7-6 7.4-6 7.7l1.5 1.6c1.4 1.3 1.4 1.4 1.5 3.9.1 2.4.2 2.6 1.4 3.9.7.7 1.3 1.6 1.3 2a21 21 0 0 1-5.1 5.5c-.8.6-2 1.8-3 2.5-2.5 2.3-2.4 1.4.2-1zm-2.9-6.7c0-.3.2-.5.5-.5s.4.2.4.4c-.2.7-.9.8-.9.1zm-31.7-.5.5-1.1.7-.8-.3 1.1c-.5 1.2-.6 1.3-.9.8zm32.6-14.1-1.7-1 .9-.8.9-.8-.4 1-.2 1a61 61 0 0 0 2 .6c0 .2.1.3.3.2.2-.1.4 0 .4.1 0 .7-.6.6-2.2-.3zm10.3-11c-.6-.8-2.8-1.5-3.7-1.1-.5.1-.6 0-.4-.2.6-1 4.6.2 5 1.6.3.7-.4.5-1-.2z" style="fill:#86786c;stroke-width:.352778" transform="translate(-44.6 -175.7)"/>
  <path d="M80.6 245.9c-4.8-2.5-12-7-13.9-8.7-2-1.8-5.3-5.7-6.9-8.2-1.1-1.8-2.1-4-1.9-4.3.1-.1.2 0 .2.2 0 .3.2.3.4.2.3-.1.3 0 .2.2-.7 1 4 7.4 7.3 10.2a33.7 33.7 0 0 0 10.1 6.3l.9.5 1.9.7c1 .6 1.6.7 1.7.4.1-.3.4-.3 1 0l1.7.3c.6 0 .6-.1.2-.4-.3-.2-.4-.3-.2-.4 2.6-.1 3.6-.3 4-.8.4-.4.4-.5.1-.4-.3.2-.3 0 .1-.6.5-.6.5-.9.2-.9-2 0-3-.5-4-1.5-1.3-1-1.3-1.2-.7-1.6.4-.3 1-.5 1.5-.5.4 0 .8-.1.8-.3 0-.4 2.7-1.8 3.4-1.8.3 0 .4.2.2.4-.1.3 0 .3.4 0a3 3 0 0 1 1.2-.6c.7-.1 1.8-1.2 2-2 .1-.3.4-.6.5-.6.2 0 1.1-.7 2-1.6 1.5-1.5 2.6-2.1 2-1.2 0 .2 0 .3.3.2.3 0 .5.1.4.4 0 .4 0 .4.7 0a142.6 142.6 0 0 1 3.1-1.8c0 .6 1 .3 2-.7 1.1-1 1.5-1.2 1.5-.6 0 .2-.1.3-.4.2-.2 0-.4.2-.5.4-.2.4 0 .4.2.3.3-.2.4-.2.2 0-.1.3-.3.4-.5.3-.2 0-.7.3-1.1.8l-.9 1 1-.9 1-.8-.2 1c0 1.3.3 1.6.7.7 0-.4.4-.5.6-.3.2.1.3 0 .2-.1-.1-.2.3-1 .8-1.7.7-.9 1-1.2 1-.8 0 .3 0 .6-.2.6s-.3.2-.3.5c0 2.2-4.5 9.5-7.3 12-1 .9-4.4 3-7.5 4.6-6.8 3.6-7.3 3.6-11.2 1.7zm2.2-1-.9-.7c-.5-.3-.9-.4-.9-.2l.8.6c1 .5 1 .5 1 .3zm0-13c-4.9-2.3-5-2.4-5-3.2 0-.5.2-.6.4-.2.2.3.3.3.5-.3.3-.8.8-1 1.1-.4v.3c-.2 0-.4 0-.4.2-.1.2.3.4.8.5.6 0 .8.3.7.6-.1.3 0 .4.1.3.2 0 .4-.4.4-.7 0-.4.1-.4.9 0 .5.4.9.5.9.3l.3.3c.3.4.4.4.7 0 .3-.5.4-.5.4 0s.1.5.9.2c.4-.2.8-.5.8-.7 0-.1.2-.3.5-.3.8 0 2.4-.8 2.4-1.3 0-.2.2-.4.5-.4s.8-.5 1-1c.4-1.2.8-1.4 1-.7.1.3.1.2 0-.2 0-.3.2-.7.5-.8.4-.2.4-.3-.1-.7-.8-.6-1.3-.6-1-.1.1.2 0 .3-.1.3-.8 0-.7-1 .1-2 .5-.4.9-.6 1-.4 0 .4 0 .6.6 2 .3.7.5 1.4.4 1.6 0 .2.2.2.5 0 .6-.1.6 0 0 .4-1 .7 0 .7 1 0 .7-.5 1-.5 1.2-.2.4.5 3.6-1.7 6.1-4.3l2.3-2a36 36 0 0 1-4.2 4.9c-.1 0-.3.3-.3.5 0 .5-3.6 3.2-4.1 3.1-.2 0-.4 0-.4.3 0 .2-.3.3-.5.3-.3 0-1.3.4-2.2 1l-2.2.8a25 25 0 0 1-5.5 2.8l-2-.9zm12.7-6.2-.1-.4-.4.4c-.1.2 0 .3.1.3.2 0 .4-.1.4-.3zm2 3c-.4-.5-.3-1 .3-1 .2 0 .5-.1.6-.4.1-.2.3-.3.4-.2.1 0 0 .5-.4 1-.4.4-.7.7-.9.5zm6.5 0 .5-.6c.3-.2.5-.2.5 0s-.2.4-.5.5l-.5.1zm-17.8-1.6c0-.2 0-.4-.4-.4-.3 0-.5 0-.4-.2.1-.2-.1-.4-.5-.4-1 0-1 0-1.2-1.5-.2-1-.1-1 .1-.5.3.7.4.7.6 0 .3-.6.3-.6.6.2.3.7.4.7.6.3.2-.3.4-.4.4-.2 0 .1.5 0 1-.3.6-.3 1.3-.5 1.5-.3.3.1.3 0 .2-.4-.1-.3-.1-.5.1-.4.2.1.4 0 .4-.2 0-.3 0-.3.5 0 .7.7.2 2.4-.7 2-.3 0-.4 0-.3.4.1.3-.2.7-1 1-1 .5-1 .5-.2.4.5-.1 1 0 1.2.2.1.2 0 .3-.1.2H87c-.7.3-1 .3-1 0zm7.2-3c0-.3.2-.5.4-.5s.2-.2.1-.4 0-.4 0-.4c.2 0 .8 0 1.3-.2 1.4-.2 1.3.3-.2 1.2-1.5 1-1.6 1-1.6.3zm1.4-2.5 1-.7c.9-.4 1.1-.4 1.3 0 .2.2.2.3 0 .1-.1-.1-.7 0-1.3.3-.5.3-1 .4-1 .3zm2.7-11.2c.3-.5.8-1 1-1 0 0 .2-.2.2-.6 0-.3.2-.9.5-1.3a5 5 0 0 0 .5-2.4v-1.7l-1.5 2c-2.8 3.7-5.4 5.8-4 3.1 2-3.7 2.8-6.8 1.7-6.5-.3 0-.4-.2-.2-.6.2-.9-.4-2.3-1-2-.2 0-.4.7-.4 1.4 0 .8-.2 1.4-.5 1.5-.2 0-.4 0-.3-.2 0-.4-.5-1.3-1.8-3a12 12 0 0 0-5.8-2.8c-1.9-.4-2-.5-1.1-1.4.5-.5.5-.7.1-1.1-.3-.5-.3-.6.6-.6a3 3 0 0 1 1.5.4c.2.3.4.4.4.2a19 19 0 0 1 5.4 3l1.3 1 1-2c1-2.4 1.3-2.7.8-.8-.3 1.1-.3 1.2.2.5.2-.4.7-1 1-1.2.6-1 .6-1.4-.4-2.1-.9-.7-1-.8-.4-1.3.5-.5.6-.5.8.2.2.7.3.6 1.8-1l1.5-1.8 2-2.3c1-1.2 2.3-2.8 2.7-3.7.5-1 .8-1.4 1-1.1.7.6 0 1.9-2.2 4.4-2.3 2.7-6 7.4-6 7.7 0 .1.7.9 1.5 1.6l1.5 1.4v2.9c0 1.5.1 2.8.3 2.8.1 0 .6.6 1 1.3 1 1.7.6 2.7-2.7 5.7-1.5 1.3-2.4 2-2 1.4zm-36.2-6c0-.3.1-.6.3-.8.2 0 .2.2.1.6-.2.8-.4.9-.4.2zm32.4-14-1.7-1 .9-.8.9-.8-.4 1-.2 1a61 61 0 0 0 2 .6c0 .2.1.3.3.2.2-.1.4 0 .4.1 0 .7-.6.6-2.2-.3zm10.3-11c-.6-.8-2.8-1.5-3.7-1.1-.5.1-.6 0-.4-.2.6-1 4.6.2 5 1.6.3.7-.4.5-1-.3z" style="fill:#a6774a;stroke-width:.352778" transform="translate(-44.6 -175.7)"/>
  <path d="M80.6 245.9c-4.8-2.5-12-7-13.9-8.7-2-1.8-5.3-5.7-6.9-8.2-1.1-1.8-2.1-4-1.9-4.3.1-.1.2 0 .2.2 0 .3.2.3.4.2.3-.1.3 0 .2.2-.7 1 4 7.4 7.3 10.2a33.7 33.7 0 0 0 10.1 6.3l.9.5 1.9.7c1 .6 1.6.7 1.7.4.1-.3.4-.3 1 0l1.7.3c.6 0 .6-.1.2-.4-.3-.2-.4-.3-.2-.4 2.6-.1 3.6-.3 4-.8.4-.4.4-.5.1-.4-.3.2-.3 0 .1-.6.5-.6.5-.9.2-.9-2 0-3-.5-4-1.5-1.3-1-1.3-1.2-.7-1.6.4-.3 1-.5 1.5-.5.4 0 .8-.1.8-.3 0-.4 2.7-1.8 3.4-1.8.3 0 .4.2.2.4-.1.3 0 .3.4 0a3 3 0 0 1 1.2-.6c.7-.1 1.8-1.2 2-2 .1-.3.4-.6.5-.6.2 0 1.1-.7 2-1.6 1.5-1.5 2.6-2.1 2-1.2 0 .2 0 .3.3.2.3 0 .5.1.4.4 0 .4 0 .4.7 0a142.6 142.6 0 0 1 3.1-1.8c0 .6 1 .3 2-.7 1.1-1 1.5-1.2 1.5-.6 0 .2-.1.3-.4.2-.2 0-.4.2-.5.4-.2.4 0 .4.2.3.3-.2.4-.2.2 0-.1.3-.3.4-.5.3-.2 0-.7.3-1.1.8l-.9 1 1-.9 1-.8-.2 1c0 1.3.3 1.6.7.7 0-.4.4-.5.6-.3.2.1.3 0 .2-.1-.1-.2.3-1 .8-1.7.7-.9 1-1.2 1-.8 0 .3 0 .6-.2.6s-.3.2-.3.5c0 2.2-4.5 9.5-7.3 12-1 .9-4.4 3-7.5 4.6-6.8 3.6-7.3 3.6-11.2 1.7zm2.2-1-.9-.7c-.5-.3-.9-.4-.9-.2l.8.6c1 .5 1 .5 1 .3zm0-13c-4.9-2.3-5-2.4-5-3.2 0-.5.2-.6.4-.2.2.3.3.3.5-.3.3-.8.8-1 1.1-.4v.3c-.2 0-.4 0-.4.2-.1.2.3.4.8.5.6 0 .8.3.7.6-.1.3 0 .4.1.3.2 0 .4-.4.4-.7 0-.4.1-.4.9 0 .5.4.9.5.9.3l.3.3c.3.4.4.4.7 0 .3-.5.4-.5.4 0s.1.5.9.2c.4-.2.8-.5.8-.7 0-.1.2-.3.5-.3.8 0 2.4-.8 2.4-1.3 0-.2.2-.4.5-.4s.8-.5 1-1c.4-1.2.8-1.4 1-.7.1.3.1.2 0-.2 0-.3.2-.7.5-.8.4-.2.4-.3-.1-.7-.8-.6-1.3-.6-1-.1.1.2 0 .3-.1.3-.8 0-.7-1 .1-2 .5-.4.9-.6 1-.4 0 .4 0 .6.6 2 .3.7.5 1.4.4 1.6 0 .2.2.2.5 0 .6-.1.6 0 0 .4-1 .7 0 .7 1 0 .7-.5 1-.5 1.2-.2.4.5 3.6-1.7 6.1-4.3l2.3-2a36 36 0 0 1-4.2 4.9c-.1 0-.3.3-.3.5 0 .5-3.6 3.2-4.1 3.1-.2 0-.4 0-.4.3 0 .2-.3.3-.5.3-.3 0-1.3.4-2.2 1l-2.2.8a25 25 0 0 1-5.5 2.8l-2-.9zm12.7-6.2-.1-.4-.4.4c-.1.2 0 .3.1.3.2 0 .4-.1.4-.3zm2 3c-.4-.5-.3-1 .3-1 .2 0 .5-.1.6-.4.1-.2.3-.3.4-.2.1 0 0 .5-.4 1-.4.4-.7.7-.9.5zm6.5 0 .5-.6c.3-.2.5-.2.5 0s-.2.4-.5.5l-.5.1zm-17.8-1.6c0-.2 0-.4-.4-.4-.3 0-.5 0-.4-.2.1-.2-.1-.4-.5-.4-1 0-1 0-1.2-1.5-.2-1-.1-1 .1-.5.3.7.4.7.6 0 .3-.6.3-.6.6.2.3.7.4.7.6.3.2-.3.4-.4.4-.2 0 .1.5 0 1-.3.6-.3 1.3-.5 1.5-.3.3.1.3 0 .2-.4-.1-.3-.1-.5.1-.4.2.1.4 0 .4-.2 0-.3 0-.3.5 0 .7.7.2 2.4-.7 2-.3 0-.4 0-.3.4.1.3-.2.7-1 1-1 .5-1 .5-.2.4.5-.1 1 0 1.2.2.1.2 0 .3-.1.2H87c-.7.3-1 .3-1 0zm7.2-3c0-.3.2-.5.4-.5s.2-.2.1-.4 0-.4 0-.4c.2 0 .8 0 1.3-.2 1.4-.2 1.3.3-.2 1.2-1.5 1-1.6 1-1.6.3zm1.4-2.5 1-.7c.9-.4 1.1-.4 1.3 0 .2.2.2.3 0 .1-.1-.1-.7 0-1.3.3-.5.3-1 .4-1 .3zm2.7-11.2c.3-.5.8-1 1-1 0 0 .2-.2.2-.6 0-.3.2-.9.5-1.3a5 5 0 0 0 .5-2.4v-1.7l-1.5 2c-1.7 2.3-4 4.6-4.3 4.4-.2-.3 2.8-4.8 3.4-4.9.5 0 .8-.4 1.9-1.9.2-.3.8-.7 1.3-.8.8-.2 1 0 1.7 1 .7 1.2.7 1.5.4 2.4-.3.5-1.7 2-3.1 3.4-1.5 1.3-2.4 2-2 1.4zm-36.2-6c0-.3.1-.6.3-.8.2 0 .2.2.1.6-.2.8-.4.9-.4.2zm36.2-1c.1-.4.3-.6.4-.5.1.1 0 .4-.2.6-.4.4-.4.3-.2-.2zm1-.8c.2-.3.4-.5.5-.4 0 .1 0 .4-.3.6-.3.4-.4.3-.2-.2zm-1.4-.8v-.7c-.2.1-.7-.3-1.1-1-1-1.3-1-1.8-.4-1.4.2.2.3 0 .1-.3 0-.4 0-.5.1-.4.2 0 .6-.4.8-1 .2-.7.6-1.2.7-1.1.2.1.4 0 .5-.4.4-.9 1-.6 2 1 1.1 1.6 1.2 2 .6 3.2-.3.6-.6.8-1.2.7-.6-.2-1 0-1.4 1-.7 1.6-1 1.7-.7.4zm2.2-2.4c-.2-.2-.5-.4-.6-.3-.2.1.4.8.7.8.2 0 .2-.2 0-.5zm-5.8 2.7c0-.4-.5-1.3-1.8-3a12 12 0 0 0-5.8-2.8L84 196l1-1c.9-.9.9-.9 2.5-.3 1 .4 1.6.4 1.6.1 0-.2.3 0 .6.5.3.4.9.8 1.2.9 1 .1 3 3 3.2 4.1v1.4c0 .3-.1.5-.4.6-.2 0-.4 0-.3-.2zm4.1-9.3c0-.3.4-.8.8-1.2l1.8-2.3 2-2.6 2.3-2.9c1.4-2 2-2.5 2-1.7 0 .3-1 1.7-2.3 3l-4 5c-2.4 3.2-2.6 3.4-2.6 2.7z" style="fill:#996e45;stroke-width:.352778" transform="translate(-44.6 -175.7)"/>
  <path d="M80.6 245.9c-4.8-2.5-12-7-13.9-8.7-2-1.8-5.3-5.7-6.9-8.2-1.1-1.8-2.1-4-1.9-4.3.1-.1.2 0 .2.2 0 .3.2.3.4.2.3-.1.3 0 .2.2-.7 1 4 7.4 7.3 10.2a33.7 33.7 0 0 0 10.1 6.3l.9.5 1.9.7c1 .6 1.6.7 1.7.4.1-.3.4-.3 1 0l1.7.3c.6 0 .6-.1.2-.4-.3-.2-.4-.3-.2-.4 2.6-.1 3.6-.3 4-.8.4-.4.4-.5.1-.4-.3.2-.3 0 .1-.6.5-.6.5-.9.2-.9-2 0-3-.5-4-1.5-1.3-1-1.3-1.2-.7-1.6.4-.3 1-.5 1.5-.5.4 0 .8-.1.8-.3 0-.4 2.7-1.8 3.4-1.8.3 0 .4.2.2.4-.1.3 0 .3.4 0a3 3 0 0 1 1.2-.6c.7-.1 1.8-1.2 2-2 .1-.3.4-.6.5-.6.2 0 1.1-.7 2-1.6 1.5-1.5 2.6-2.1 2-1.2 0 .2 0 .3.3.2.3 0 .5.1.4.4 0 .4 0 .4.7 0a142.6 142.6 0 0 1 3.1-1.8c0 .6 1 .3 2-.7 1.1-1 1.5-1.2 1.5-.6 0 .2-.1.3-.4.2-.2 0-.4.2-.5.4-.2.4 0 .4.2.3.3-.2.4-.2.2 0-.1.3-.3.4-.5.3-.2 0-.7.3-1.1.8l-.9 1 1-.9 1-.8-.2 1c0 1.3.3 1.6.7.7 0-.4.4-.5.6-.3.2.1.3 0 .2-.1-.1-.2.3-1 .8-1.7.7-.9 1-1.2 1-.8 0 .3 0 .6-.2.6s-.3.2-.3.5c0 2.2-4.5 9.5-7.3 12-1 .9-4.4 3-7.5 4.6-6.8 3.6-7.3 3.6-11.2 1.7zm2.2-1-.9-.7c-.5-.3-.9-.4-.9-.2l.8.6c1 .5 1 .5 1 .3zm0-13c-4.9-2.3-5-2.4-5-3.2 0-.5.2-.6.4-.2.2.3.3.3.5-.3.3-.8.8-1 1.1-.4v.3c-.2 0-.4 0-.4.2-.1.2.3.4.8.5.6 0 .8.3.7.6-.1.3 0 .4.1.3.2 0 .4-.4.4-.7 0-.4.1-.4.9 0 .5.4.9.5.9.3l.3.3c.3.4.4.4.7 0 .3-.5.4-.5.4 0s.1.5.9.2c.4-.2.8-.5.8-.7 0-.1.2-.3.5-.3.8 0 2.4-.8 2.4-1.3 0-.2.2-.4.5-.4s.8-.5 1-1c.4-1.2.8-1.4 1-.7.1.3.1.2 0-.2 0-.3.2-.7.5-.8.4-.2.4-.3-.1-.7-.8-.6-1.3-.6-1-.1.1.2 0 .3-.1.3-.8 0-.7-1 .1-2 .5-.4.9-.6 1-.4 0 .4 0 .6.6 2 .3.7.5 1.4.4 1.6 0 .2.2.2.5 0 .6-.1.6 0 0 .4-1 .7 0 .7 1 0 .7-.5 1-.5 1.2-.2.4.5 3.6-1.7 6.1-4.3l2.3-2a36 36 0 0 1-4.2 4.9c-.1 0-.3.3-.3.5 0 .5-3.6 3.2-4.1 3.1-.2 0-.4 0-.4.3 0 .2-.3.3-.5.3-.3 0-1.3.4-2.2 1l-2.2.8a25 25 0 0 1-5.5 2.8l-2-.9zm12.7-6.2-.1-.4-.4.4c-.1.2 0 .3.1.3.2 0 .4-.1.4-.3zm2 3c-.4-.5-.3-1 .3-1 .2 0 .5-.1.6-.4.1-.2.3-.3.4-.2.1 0 0 .5-.4 1-.4.4-.7.7-.9.5zm6.5 0 .5-.6c.3-.2.5-.2.5 0s-.2.4-.5.5l-.5.1zm-17.8-1.6c0-.2 0-.4-.4-.4-.3 0-.5 0-.4-.2.1-.2-.1-.4-.5-.4-1 0-1 0-1.2-1.5-.2-1-.1-1 .1-.5.3.7.4.7.6 0 .3-.6.3-.6.6.2.3.7.4.7.6.3.2-.3.4-.4.4-.2 0 .1.5 0 1-.3.6-.3 1.3-.5 1.5-.3.3.1.3 0 .2-.4-.1-.3-.1-.5.1-.4.2.1.4 0 .4-.2 0-.3 0-.3.5 0 .7.7.2 2.4-.7 2-.3 0-.4 0-.3.4.1.3-.2.7-1 1-1 .5-1 .5-.2.4.5-.1 1 0 1.2.2.1.2 0 .3-.1.2H87c-.7.3-1 .3-1 0zm7.2-3c0-.3.2-.5.4-.5s.2-.2.1-.4 0-.4 0-.4c.2 0 .8 0 1.3-.2 1.4-.2 1.3.3-.2 1.2-1.5 1-1.6 1-1.6.3zm1.4-2.5 1-.7c.9-.4 1.1-.4 1.3 0 .2.2.2.3 0 .1-.1-.1-.7 0-1.3.3-.5.3-1 .4-1 .3zm2.7-11.2c.3-.5.8-1 1-1 0 0 .2-.2.2-.5s.2-1 .5-1.4c.4-.5.5-1.4.5-2.5-.1-1.3 0-1.9.5-2.3.9-1 1.1-.8 2 .6 1 1.7.6 2.7-2.7 5.7-1.5 1.3-2.4 2-2 1.4zm-3.4-.8c0-.6 1.1-2 3-3.9 2-1.9 2.5-2 1.1-.3a20 20 0 0 1-4 4.2zm-32.8-5.2c0-.3.1-.6.3-.8.2 0 .2.2.1.6-.2.8-.4.9-.4.2zm32.2-2.3c0-.4-.5-1.3-1.8-3a12 12 0 0 0-5.8-2.8l-1.7-.3.8-.9 1.1-.8c.7 0 4.8 2 6 3 .7.5 1.4 1.3 1.6 1.8.6 1.5.6 3 .1 3.2-.2 0-.4 0-.3-.2zm4.3-2.2.4-2c.1-.9 0-.8-.5.4-.6 1.4-.7 1.4-.8.6-.2-.9.7-2.7 1.6-3.3.8-.5 1 .4.4 2.3-.6 2-1.5 3.7-1.1 2zm2.3-.8c0-.3-.2-.6-.4-.6s-.1-.2.1-.5c.7-.7 1-.1.7.9-.3.6-.4.7-.4.2zm-2.1-6.4c0-.5 1-1.8 1.2-1.6l-.5 1c-.4.5-.7.8-.7.6zm2.7-4a14 14 0 0 1 1.7-1.8c.6-.5.3-.1-.5 1-1.7 2-2.3 2.4-1.2.8zm4-4.5c0-.6 1.7-2.6 1.7-2 0 .2-.4.8-.8 1.3-.5.6-1 .9-1 .7z" style="fill:#7b6e63;stroke-width:.352778" transform="translate(-44.6 -175.7)"/>
  <path d="m82.5 246.8-7.3-4a38 38 0 0 1-10.7-8c0-.2.6.2 1.4.9.7.7 2 1.6 2.7 2.1l2.4 1.8a4 4 0 0 0 1.3.9c.6 0 3.5 1.5 3.5 1.8 0 .2.3.3.6.3.4 0 2 .6 3.4 1.4 2.2 1.2 3 1.4 4.9 1.5 3.4 0 3.5 0 3-.5-.2-.3-1-.4-1.7-.3-.7 0-1.6 0-2.1-.3-.9-.3-.9-.3-.1-.4 1 0 2.4-.6 4.3-2 2.5-1.8 2.6-1.9 2.1-2.4-.3-.3-.2-.5.2-.8.3-.2.5-.6.5-1-.1-.4-.3-.4-1.4.2-.8.4-1.2.9-1.1 1.3 0 .4 0 .5-.1.3-.2-.3-.8-.4-1.8-.3-1.2.2-1.6 0-2-.6-1-1.4-.4-1.9 2.5-2.3 1 0 2.3-.7 3.6-1.6a9 9 0 0 1 2.3-1.2c.1 0 .7-.4 1.3-1 .8-.7 1.1-.9 1.4-.5.2.3.3.3.3-.1s.1-.8.4-.9c.3-.2.3 0 .2.3-.2.6-.2.6.5.3.6-.3.5-.2-.3.5-1 1-1 1-.1.7.5-.2 1-.5 1.1-.8.2-.2.5-.4.7-.2.1 0 .3 0 .3-.2s.4-.6 1-1c1-.5 1-.5.3.2-.3.3-.5.7-.4.8.3.4-2 2.1-2.4 1.9-.2-.2-.3-.1-.1.1.2.3.5.3 1.4-.3l1.2-.7-.1.7v.7l2.4-2c.3-.2.5-.2.8.2.4.5.4.5.5 0 0-.3.4-.9.9-1.4l1-.8-.3 1.2a25 25 0 0 1-5.7 8.4 83 83 0 0 1-7.3 4.4c-6 3.2-7.3 3.6-9.4 2.7zm9-7.3c0-.1-.3-.3-.7-.3-.6 0-.6 0-.2.2.6.4.6.4.8.1zm10.9-6c.1-.3 0-.4-.1-.4-.2 0-.5.1-.6.3-.1.2 0 .4.1.4.2 0 .5-.2.6-.4zm-12.6 4.8c.2-.2.5-.3.6-.2.1.1 0 .3-.4.4-.5.2-.6.2-.2-.2zM63 233.2l-1.7-2.2c.1 0 .8.7 1.5 1.6 1.5 1.7 1.6 2.1.2.6zm29.9-.5c0-.2.3-.3.3-.3.1 0 .2.1.2.3 0 .2-.2.4-.4.4s-.3-.2-.1-.4zm-8.7-.7-1.8-.7-1-.5c-.2 0-.3-.2-.3-.4.1-.4 1.1-.2 1.3.2l1.8.2c1.2-.1 2-.4 2.6-.9 1-1 3.5-2.1 4.6-2.1 1 0 5.5-2.4 8.2-4.5l2-1.6-1.5 1.8a8 8 0 0 1-2 1.8 30.8 30.8 0 0 1-7.2 4.2c-.5 0-1.5.6-2.3 1.1-1.9 1.3-3.3 1.7-4.4 1.4zm10.1-.4c.1-.4.3-.6.4-.5.1.1 0 .4-.2.7-.4.3-.4.3-.2-.2zM60.5 230c-.4-.6-.4-.6.2-.1l.6.6c0 .3-.3 0-.8-.5zm18.8 0c-.4-.3-.4-.4.2-.4.5 0 .8.2.8.4 0 .3-.4.3-1 0zm-19.8-1.5-.2-.7c.1 0 .4.3.6.7l.2.7c-.1 0-.4-.3-.6-.7zm27.4-3.1c0-.2.1-.3.5-.3s.6.1.5.3c-.1.1-.3.3-.5.3a.6.6 0 0 1-.5-.3zm7.7-16.8c.6-.9 4.4-4.8 4.4-4.5 0 .2-2.1 3-3.3 4.2-1.2 1.4-2 1.5-1.1.3zm4.8-.9c.6-1.5.7-2.2.4-3.2-.3-1.1-.2-1.4.4-1.7.6-.4.8-.3 1.3.3 1.3 1.9 1 2.7-1.4 5.1l-1.5 1.4zm-7.2-8.3c-1.8-1.9-3.5-2.6-6.7-3.2l-1.4-.2.8-.9c.5-.4 1-.8 1.2-.8.7 0 4.8 2 6 3 1.2.9 2.2 2.5 2 3.4-.1.3-.9-.3-2-1.3zm5.6.5.4-2c.1-.9 0-.8-.5.4-.6 1.4-.7 1.4-.8.6-.2-.9.7-2.7 1.6-3.3.8-.5 1 .4.4 2.3-.6 2-1.5 3.7-1.1 2zm2.3-.8c0-.3-.2-.6-.4-.6s-.1-.2.1-.5c.7-.7 1-.1.7.9-.3.6-.4.7-.4.2zm-2.1-6.4c0-.5 1-1.8 1.2-1.6l-.5 1c-.4.5-.7.8-.7.6zm2.7-4a14 14 0 0 1 1.7-1.8c.6-.5.3-.1-.5 1-1.7 2-2.3 2.4-1.2.8zm4-4.5c0-.6 1.7-2.6 1.7-2 0 .2-.4.8-.8 1.3-.5.6-1 .9-1 .7z" style="fill:#96663d;stroke-width:.352778" transform="translate(-44.6 -175.7)"/>
  <path d="m82.5 246.8-7.3-4a38 38 0 0 1-10.7-8c0-.2.6.2 1.4.9.7.7 2 1.6 2.7 2.1l2.4 1.8a4 4 0 0 0 1.3.9c.6 0 3.5 1.5 3.5 1.8 0 .2.3.3.6.3.4 0 2 .6 3.4 1.4 2.2 1.2 3 1.4 4.9 1.5 3.4 0 3.5 0 3-.5-.2-.3-1-.4-1.7-.3-.7 0-1.6 0-2.1-.3-.9-.3-.9-.3-.1-.4 1 0 2.4-.6 4.3-2 2.5-1.8 2.6-1.9 2.1-2.4-.3-.3-.2-.5.2-.8.3-.2.5-.6.5-1-.1-.4-.3-.4-1.4.2-.8.4-1.2.9-1.1 1.3 0 .4 0 .5-.1.3-.2-.3-.8-.4-1.8-.3-1.2.2-1.6 0-2-.6-1-1.4-.4-1.9 2.5-2.3 1 0 2.3-.7 3.6-1.6a9 9 0 0 1 2.3-1.2c.1 0 .7-.4 1.3-1 .8-.7 1.1-.9 1.4-.5.2.3.3.3.3-.1s.1-.8.4-.9c.3-.2.3 0 .2.3-.2.6-.2.6.5.3.6-.3.5-.2-.3.5-1 1-1 1-.1.7.5-.2 1-.5 1.1-.8.2-.2.5-.4.7-.2.1 0 .3 0 .3-.2s.4-.6 1-1c1-.5 1-.5.3.2-.3.3-.5.7-.4.8.3.4-2 2.1-2.4 1.9-.2-.2-.3-.1-.1.1.2.3.5.3 1.4-.3l1.2-.7-.1.7v.7l2.4-2c.3-.2.5-.2.8.2.4.5.4.5.5 0 0-.3.4-.9.9-1.4l1-.8-.3 1.2a25 25 0 0 1-5.7 8.4 83 83 0 0 1-7.3 4.4c-6 3.2-7.3 3.6-9.4 2.7zm9-7.3c0-.1-.3-.3-.7-.3-.6 0-.6 0-.2.2.6.4.6.4.8.1zm10.9-6c.1-.3 0-.4-.1-.4-.2 0-.5.1-.6.3-.1.2 0 .4.1.4.2 0 .5-.2.6-.4zm-12.6 4.8c.2-.2.5-.3.6-.2.1.1 0 .3-.4.4-.5.2-.6.2-.2-.2zM63 233.2l-1.7-2.2c.1 0 .8.7 1.5 1.6 1.5 1.7 1.6 2.1.2.6zm29.9-.5c0-.2.3-.3.3-.3.1 0 .2.1.2.3 0 .2-.2.4-.4.4s-.3-.2-.1-.4zm-8.7-.7-1.8-.7-1-.5c-.2 0-.3-.2-.3-.4.1-.4 1.1-.2 1.3.2l1.8.2c1.2-.1 2-.4 2.6-.9 1-1 3.5-2.1 4.6-2.1 1 0 5.5-2.4 8.2-4.5l2-1.6-1.5 1.8a8 8 0 0 1-2 1.8 30.8 30.8 0 0 1-7.2 4.2c-.5 0-1.5.6-2.3 1.1-1.9 1.3-3.3 1.7-4.4 1.4zm10.1-.4c.1-.4.3-.6.4-.5.1.1 0 .4-.2.7-.4.3-.4.3-.2-.2zM60.5 230c-.4-.6-.4-.6.2-.1l.6.6c0 .3-.3 0-.8-.5zm18.8 0c-.4-.3-.4-.4.2-.4.5 0 .8.2.8.4 0 .3-.4.3-1 0zm-19.8-1.5-.2-.7c.1 0 .4.3.6.7l.2.7c-.1 0-.4-.3-.6-.7zm27.4-3.1c0-.2.1-.3.5-.3s.6.1.5.3c-.1.1-.3.3-.5.3a.6.6 0 0 1-.5-.3zm12.5-17.6a6 6 0 0 0 .5-3.2c-.2-1 0-1.5.4-1.8.5-.5.6-.4 1.1.3 1.4 1.9 1.2 2.7-1.3 5.1l-1.5 1.4zm-7.2-8.4c-1.8-1.9-3.4-2.6-6.7-3.2-1.3-.2-1.3-.2-.7-.9.8-1 2.1-.8 4.6.4 2.5 1.2 4.7 3.5 4.7 4.8v.8l-2-2z" style="fill:#73655a;stroke-width:.352778" transform="translate(-44.6 -175.7)"/>
  <path d="M82.8 246.9a120 120 0 0 1-10.8-6.1c-.5-.6 1.7.5 3.3 1.5a6 6 0 0 0 2.1 1c.3 0 1.6.6 2.8 1.2 2 1.1 2.6 1.3 5 1.3a12.1 12.1 0 0 0 3.6-.2l-1.5.9a6 6 0 0 1-4.5.4zm4.4-2.8c-.4-.4 0-.8 2.1-2 1.7-1 2.3-1.5 2.3-2 0-.6.1-.7.4-.4.3.3.6.2 1.2-.5.6-.9.7-.9 1.2-.3.4.6.5.6.3.1s.3-.9 1.2-1l.5-.5c.7-.7 2.4-2.1 2.2-1.8-.1.3.2.9.6 1.5.5.5.9.8.9.6 0-.3-.2-.5-.4-.5-.4 0-.3-.8.2-1 .1-.2.5 0 .9.3.5.5.5.6-.3 1.7-1.3 1.7-6.5 5-7.5 4.7-.2 0-.3.1-.3.3 0 .2-.1.3-.3.3-.1 0-.6.1-1 .4-.6.3-.8.3-.7 0 .2-.2.1-.3-.1-.3s-.4 0-.4.2c0 .3-2.7.4-3 .2zm8-2.8-.8.2-.7.6c0 .1.4 0 .7-.2l.8-.6zm3.2-4.8c0-.2-.4 0-.6.3-.3.3-.4.8-.3 1 .1.1.4 0 .7-.4.2-.3.3-.8.2-1zm-28.5 3c-2.2-1.4-5-4-5-4.4 0-.2.4 0 .9.7.5.6 1.6 1.5 2.4 2 1.5.9 3.6 2.7 3.3 2.7-.1 0-.9-.4-1.6-1zm15.7-1.1c0-.3-.1-.3-.3-.2-.5.3-.5-.1 0-.7.7-.6 2-.6 2.4 0 .3.3.2.5-.7.8-1.4.5-1.4.5-1.4 0zm7.6-1.2c.4-.3.8-.5.9-.4.2.2-.7.9-1.2.9-.2 0 0-.3.3-.5zm-5.1-.3c0-.2.2-.2.4-.1l.3.4-.3.1a.4.4 0 0 1-.4-.4zm3.3-.7c1-.7 2.4-1.3 1.9-.8l-.4.2-1 .7c-.3.3-.8.7-1 .7-.3 0 0-.4.5-.8zm10 0s0-.3-.3-.4c-.3 0-.3-.2 0-.4.2-.1.4 0 .4.2s.2.2.4.1l.3.1c0 .2-.2.5-.5.6-.3.1-.5 0-.4-.1zm-17.5-4.9a46.6 46.6 0 0 0 11.8-5.3l2.5-1.4-1.5 1.2c-.7.7-1.6 1.3-1.8 1.3-.3 0-.5.1-.5.2 0 .2-.7.6-1.6 1-1 .4-2.7 1.2-3.9 1.9-2.3 1.2-5 1.8-5 1.1zM99 208.6l.6-1.2a4 4 0 0 0 .3-2.7c-.1-1.2 0-1.6.4-1.7.7-.3 1.6 1.6 1.4 2.6-.3 1-2.7 3.8-2.7 3zm-6-9a11.2 11.2 0 0 0-6.4-3.2c-2.3-.4-2.4-.5-1.8-1.1.3-.4 1-.7 1.5-.7 2.2 0 6.8 3 7.5 5 .5 1.1.2 1.2-.8 0z" style="fill:#695b50;stroke-width:.352778" transform="translate(-44.6 -175.7)"/>
</svg>