<svg xmlns="http://www.w3.org/2000/svg" width="277.3" height="277.3" viewBox="0 0 73.4 73.4">
  <path d="M44.7 212.4v-36.7h73.4v73.4H44.7Z" style="fill:#fefefe;stroke-width:.352778" transform="translate(-44.6 -175.7)"/>
  <path d="M83.7 237.7c-8.4-1-16.5-4.3-23-9.3-4.5-3.5-10-9.9-11.9-14-1-2-.7-3.6 1-6.5 1.2-2.1 2.1-3 3.5-3 .6 0 1.8-.2 2.7-.6l11-3.7a9486.1 9486.1 0 0 0 44.2-14c1.2-.3 3.4 10 3.6 17.3.4 12-2.5 21-9 27.6-5.6 5.5-12.4 7.5-22 6.2z" style="fill:#f6ecd2;stroke-width:.352778" transform="translate(-44.6 -175.7)"/>
  <path d="M85.8 238a53.7 53.7 0 0 1-17.8-5.2c-7-3.5-12.9-8.7-17.3-15.3-2.9-4.4-3-5.3-1.4-8.5 1.5-2.9 2.1-3.6 3.5-3.9 1-.2 1.1-.1 1.7 1.2a52 52 0 0 0 16.4 23 29 29 0 0 0 16.8 6.6c3.4.1 3.7 0 4.4-.7l.8-.8-2.1-.2a34 34 0 0 1-4.3-.8l-2.8-.7c-1-.1-3.5-1.5-6.9-3.7a35.4 35.4 0 0 1-12.3-11c-1.7-.9-8.6-13-7.8-13.8a8413.3 8413.3 0 0 0 52.9-17.1c.8-.3 2.7 7.7 3.2 14 1 13.2-3.3 24.3-12 30.4-2.2 1.5-2.5 1.8-1.5 1.5.4-.2.5-.1.3.2-.4.7 2.2-.5 3.6-1.7 7.9-6.3 11.7-17 10.7-29.9-.5-5.3-2-12-3.2-14.3-.3-.5-.2-.7.3-.7s.9.7 1.6 3.3c1.6 5.9 2.1 9.5 2.1 16 0 4.4-.1 6.7-.6 8.9-3.1 14.4-11.6 22.7-23.7 23.2h-4.6zm12.4-4.4c.1-.2 0-.4-.3-.4s-.6.2-.6.4.2.3.3.3c.2 0 .5-.1.6-.3z" style="fill:#efdda9;stroke-width:.352778" transform="translate(-44.6 -175.7)"/>
  <path d="M85.4 237.8a46.8 46.8 0 0 1-36-22.7c-1.4-2.4-1.4-3.4.1-6.3 1.2-2.5 2.2-3.5 3.3-3.4.6.1 1 .8 2.5 4 3.2 7.5 6.3 12 11.5 17.1 6.3 6 11.8 8.9 19.4 9.9 12.2 1.6 22.3-5.5 26.4-18.5a51 51 0 0 0-1.1-29.2c-.4-1.3-.6-2-.3-2 1 .3 2.8 8.4 3.4 14.5a47 47 0 0 1-2.4 20 26 26 0 0 1-16.4 16c-2.6.7-7.2 1-10.4.6zm3.3-4.6a22 22 0 0 1-8.9-3 52.2 52.2 0 0 0-5.8-3.5c-.9-.4-2-1.3-2.7-1.8a40.5 40.5 0 0 1-7.2-8 8 8 0 0 1-1.7-2.2l-1.8-3c-1.2-2-2.8-5.3-3.4-7.1-.1-.5.4-.8 3-1.6l21.4-6.8c17-5.6 27.3-8.8 27.6-8.8.7 0 1 1 2 5 2.8 11.5 1.8 22.8-2.6 29.5l-1.8 3a25 25 0 0 1-10.5 7.8c-1.8.6-5.5.8-7.6.5z" style="fill:#d4d370;stroke-width:.352778" transform="translate(-44.6 -175.7)"/>
  <path d="M85.5 237.8c-8.7-1-15.8-3.5-22.4-7.9a54 54 0 0 1-12.8-13.3c-2.4-3.8-2.4-4.3-.5-8 1.2-2.5 1.5-2.8 2.2-2.2.4.3.4.2.2-.4 0-.5 0-.7.3-.6.2 0 1 1.7 2 3.6 7.2 16 18.8 26.3 31.8 28 13 1.9 23.7-6.6 27.3-21.6.4-2 .6-2.3.4-1-.3 2.6-1.8 7-3.6 10.5a25 25 0 0 1-10.6 10.7 24.9 24.9 0 0 1-14.3 2.2zm3.2-4.6a22 22 0 0 1-8.9-3 50.8 50.8 0 0 0-5.8-3.5 39.7 39.7 0 0 1-9.9-9.9 18.3 18.3 0 0 1-3.3-4.8 52.6 52.6 0 0 1-3.7-7.7c0-.2 1.4-.8 3-1.3 3.5-1 12-3.7 21.5-6.8 17-5.6 27.3-8.8 27.6-8.8.7 0 1 1 2 5 2.8 11.5 1.8 22.8-2.6 29.5l-1.8 3a25 25 0 0 1-10.5 7.8c-1.8.6-5.5.8-7.6.5zm25.6-22.4c0-1 .1-1.3.2-.8v1.8c-.1.4-.2 0-.2-1zm.4-5c0-1.3 0-1.8.1-1v2.4-1.3zm-.4-5c0-1 .1-1.3.2-.8a5 5 0 0 1 0 1.6c-.1.4-.2 0-.2-.8zm-.3-3c0-.6 0-.8.1-.5v1c0 .3-.2 0-.1-.5zm-.4-2c0-.5 0-.7.2-.4v.9c-.1.2-.2 0-.2-.5zm-.4-1.7c0-.5.1-.7.2-.5v.9c0 .2-.2 0-.2-.4zm-1-3.7a138.5 138.5 0 0 0-.9-3.6c.5.4 2 5.4 1.8 5.8 0 .2-.5-.8-.9-2.2z" style="fill:#f68d66;stroke-width:.352778" transform="translate(-44.6 -175.7)"/>
  <path d="M85.5 237.8c-8.7-1-15.8-3.5-22.4-7.9a54 54 0 0 1-12.8-13.3c-2.4-3.8-2.4-4.3-.5-8 1.2-2.5 1.5-2.8 2.2-2.2.4.3.4.2.2-.4 0-.5 0-.7.3-.6.2 0 1 1.7 2 3.6 7.2 16 18.8 26.3 31.8 28 13 1.9 23.7-6.6 27.3-21.6.4-2 .6-2.3.4-1-.3 2.6-1.8 7-3.6 10.5a25 25 0 0 1-10.6 10.7 24.9 24.9 0 0 1-14.3 2.2zm4.6-4.8-1.3-.4c-.3-.1-.6-.2-.8-.1-.2 0-.5-.1-.8-.4-.2-.2-.8-.3-1.1-.1-1.2.3-4-.6-6-2a38.7 38.7 0 0 0-6.9-4.2 31 31 0 0 1-7.6-7.8c-.4-.3-.8-.7-.8-.9 0-.2-.2-.5-.5-.6-.3-.1-.7-.6-1-1.2l-1-1.8c-.4-.4-.7-.8-.5-1 0 0 0-.4-.2-.6a13 13 0 0 1-2.8-4.7c-.2-.8-.5-1.6-.7-1.7-.2-.1-.3-.5-.3-.9 0-.8 1.6-1.3 2.4-.7 1 .7 1.5.8 2 .5.6-.2.6-.3-.1-.4-.7-.1-.7-.2-.4-.6.2-.3.8-.5 1.3-.5.7 0 .8.1.6.9-.2.7-.1.8.3.6.4-.1.5-.3.4-.4-.2-.2.9-1.1 1.3-1.1.2 0 .7.4 1.2.9 1.3 1.2 1.7 1 1.5-.6 0-.8 0-1.4.2-1.4.1 0 .2.2.2.5s.2.6.4.8c.3.2.4 0 .2-.3-.1-.4 0-.5.3-.4.6.2 2-.5 2-1l-1.2-.6c-.7-.2-1-.4-.6-.5l2.3-.8a2017.8 2017.8 0 0 1 37.4-12c.3.2 1.7 5.3 2.3 8.1.3 1.3.5 4.8.5 8.9a30 30 0 0 1-.7 9.1 26.1 26.1 0 0 1-4.8 10.5c0 .6-3.5 4.5-4 4.5-.3 0-.6.1-.6.3a17 17 0 0 1-4.6 2.9c-.9.4-2.4.8-3.4.9a570.6 570.6 0 0 0-4.1.3zm5.7-9.1c-.2-.5-.4-.9-.5-.8-.2.2.3 1.6.6 1.6.2 0 .1-.4 0-.8zm-7.4-2.6c1-1.5 1.2-2.9.4-4.7-.9-1.8-2-3.2-2.5-3l-.7 1.1c-.3.9-.3.9-1 .4-1.1-.8-1.6-.7-1 0 .4.4.7.8.7 1l.5.8c.3.2.5 1 .5 1.5s.3 1.4.7 1.9c.4.4.7 1.1.7 1.4 0 .9.9.7 1.7-.4zm-1.7-1c-.7-.8-.7-5.5 0-5.7.8-.3 2.3 4.6 1.7 5.7-.4.7-1.1.7-1.7 0zm10.3.7-.9-.5c-.2 0 0 .2.3.5 1 .7 1.1.7.6 0zm-25.8-5c0-.2-.2-.5-.4-.6-.1-.1-.3 0-.3.3s.2.6.3.6c.2 0 .4-.2.4-.4zm3-.8c0-.3-.1-.2-.2.2 0 .3.1.5.2.4.2 0 .2-.4 0-.6zm-.8-.4c1-1 1.5-3 .9-4-.5-.5-.5-.4-.6 1-.1 3.6-3.2 2.5-3.2-1.2 0-.6.2-1.4.4-1.7.2-.6.5-.7 1.2-.4 1.2.5 1.3.4.7-.5-.8-1-2-.6-2.6 1-.7 2.1-.3 4.3.8 5.5 1.2 1.3 1.3 1.3 2.4.3zm13.9-11.3.2-1.8a4 4 0 0 0-3.1-3.6c-1-.2-1.1 0-1.3.6-.3 1 0 2.7.5 3 .3.1.3-.4.1-1.4-.3-2 .2-2.1 2-.6 1.2 1 1.4 1.3 1.3 2.2 0 1-.2 1.1-1.2 1.1-.7 0-1.2 0-1.2.2 0 .7 2.3 1 2.7.3zm10.6-1.1c.7-.6.9-1 .6-1.5-.2-.6-.3-.5-.5.4-.1.8-.4 1-1.1 1.2-.6 0-1 .2-.8.4.3.5.7.4 1.8-.5zm-1.8-2.9c.7-.5.6-.5-.2-.4-.4 0-.9.3-1 .5-.2.6.4.6 1.2 0zm11.6-.5c.1-.2 0-.3-.3-.1-.6.2-.7.4-.2.4.1 0 .4-.1.5-.3zm-2.4-1.9c-.3-.8-.4-1-.5-.5 0 .4 0 .9.3 1.2.6.7.7.6.2-.7zm1.4-1.8c-1-.7-2-.7-2 0 0 .3.2.4.5.3.3-.1.8 0 1.2.2.9.5 1.1 0 .3-.5zm7.6 15.5c0-1 .1-1.3.2-.8v1.8c-.1.4-.2 0-.2-1zm.4-5c0-1.3 0-1.8.1-1v2.4-1.3zm-.4-5c0-1 .1-1.3.2-.8a5 5 0 0 1 0 1.6c-.1.4-.2 0-.2-.8zm-.3-3c0-.6 0-.8.1-.5v1c0 .3-.2 0-.1-.5zm-.4-2c0-.5 0-.7.2-.4v.9c-.1.2-.2 0-.2-.5zm-.4-1.7c0-.5.1-.7.2-.5v.9c0 .2-.2 0-.2-.4zm-1-3.7a138.5 138.5 0 0 0-.9-3.6c.5.4 2 5.4 1.8 5.8 0 .2-.5-.8-.9-2.2z" style="fill:#f26b4a;stroke-width:.352778" transform="translate(-44.6 -175.7)"/>
  <path d="M85.5 237.8c-8.7-1-15.8-3.5-22.4-7.9a54 54 0 0 1-12.8-13.3c-2.4-3.8-2.4-4.3-.5-8 1.2-2.5 1.5-2.8 2.2-2.2.4.3.4.2.2-.4 0-.5 0-.7.3-.6.2 0 1 1.7 2 3.6 7.2 16 18.8 26.3 31.8 28 13 1.9 23.7-6.6 27.3-21.6.4-2 .6-2.3.4-1-.3 2.6-1.8 7-3.6 10.5a25 25 0 0 1-10.6 10.7 24.9 24.9 0 0 1-14.3 2.2zm4-5.5c-.6-.2-1.4-.3-1.6-.2-.3 0-.5 0-.5-.2s-1-.3-2.2-.3c-1.4 0-2.2-.1-2.3-.4 0-.3-.3-.5-.6-.5a9 9 0 0 1-3.4-2 19 19 0 0 0-6.2-3.6c-.2 0-.5-.4-.7-.9 0-.5-.4-.9-.6-.9-.3 0-.5-.1-.6-.3l-1.1-.8c-.6-.2-1.3-1-1.6-1.5a4 4 0 0 0-.9-1.2l-.2-.5c0-.5-2.2-2.9-3-3.2a1 1 0 0 1-.6-.9c0-.3-.3-1-.7-1.3-.4-.3-.6-.8-.5-1 0-.3 0-.6-.2-.8-.2 0-.3-.4-.2-.6 0-.3-.3-.7-.8-1a4 4 0 0 1-1.5-1.7c-.4-1-.3-1.2.3-1.8.7-.7.8-.7 2-.2 1.6.8 1.9.8 2.1-.1.1-.4.3-.7.5-.6.2.1.6 0 .8-.3.2-.3.6-.5.9-.5.5 0 1 1 .7 1.4-.1.2 0 .4.1.4.2 0 .4-.2.4-.4s.2-.4.4-.4.3.3.2.6c-.1.3 0 .5.3.5s.5.2.5.4-.1.3-.3.3c-.2 0-.4.6-.4 1.2 0 1.1.1 1.3 1 1.3.8 0 1 .5.5 1.3-.2.4-.4.4-.8 0-.5-.7-1-.8-1-.1 0 .2.6 1 1.3 1.7 1.1 1 1.4 1.4 1.2 2.2-.2 1 .7 1.6 1.6.7.3-.3.8-.5 1.3-.3 1.4.4 1.8.3 2-.6.1-.5.3-.7.3-.5 0 .2.2 0 .4-.3.3-.5.3-.8-.1-1.2-.3-.4-.7-1-.8-1.5-.1-.5-.5-1.2-.8-1.6-.6-.9-.6-1.4.1-1.1.8.3.6-.4-.3-1.4-1-1-1.9-1.1-2-.4-.2.3-.3.3-.8 0-.4-.4-.5-.3-.7.7-.3 1.5-.6 1.1-.7-1.2l-.2-2H71c1.2.1 1.4 0 1.3-.5-.1-.7 1.3-2.5 1.7-2.2.2 0 .7-.3 1.3-1l1-1-.8-.6-.8-.7.8-.2c1.5-.4 1.8-.3 1.5.5-.2.6-.1.7.2.5.2-.1.6 0 .8.2.4.3.7.2 1.1-.4.8-.8 1.6-.8 2.6-.1.4.2.8.4 1 .3l.2.6a9 9 0 0 0 1 2.8c.6 1 1 1.8 1 1.6 0-.2.3-.1.5 0 .3.3.6.4.7.3 0-.1.4.3.6.9.6 1.4 1.8 1.5 1.7 0 0-.5-.3-1.2-.5-1.6-.3-.5-.3-.8.1-1.3.4-.4.4-.6.2-.6s-.4-.4-.4-.9-.4-1.3-1-1.9l-.8-1 1-.7c.6-.3 1-.7 1-.9-.3-.4-1.6-.4-1.6 0 0 .5-1.4.8-1.6.4-.1-.2 0-.3.2-.3s.3-.4.2-.8c0-.6.1-.8.7-1 .5 0 .8.1.8.4 0 .2.3.3.6.2.3-.1 1 0 1.5.5 1.7 1.2 2.8.8 2.5-.8 0-.5.3-.3 1 .4 1 1 1.6.8 1.8-.4 0-.4.3-1 .5-1 .3-.3.2-.6-.4-1-.5-.4-.7-.8-.6-.8.2 0 .7 0 1.1-.2.5 0 .9 0 1 .2.4.7 1.2.4 1.2-.4-.1-.6.1-.8 1.1-1 .8-.2 1.3-.1 1.5.1.1.3.5.8 1 1.3l.7.9.2-.8c.2-.9.5-1 1.1-.3.4.3.4.3.4 0 0-.4.4-.4 1.2-.3 1.2.2 1.2.2 1-.7a4 4 0 0 0-.5-1.5c-.5-.6 0-1 2.5-1.8l2.2-.7.6 1.2.5 1.7.6 3.1c1.4 5 1.8 12.3 1.1 17.3a34.1 34.1 0 0 1-5.3 13.3 30 30 0 0 1-5.2 5.3c-.2 0-1.2.6-2.2 1.3a14 14 0 0 1-3.3 1.6c-2 .6-5.1.6-6.6.1zm9-7.4c.1-.7.1-.8 0-.2-.2 1-1.2 1-2 .1-.5-.6-1.7-3.3-1.7-4 0-1 2 .4 3.3 2.2.5.7.6.7.6.2 0-.8-2.7-3.5-3.4-3.3-.8.1-1 1-.4 3 .8 2.9 3.6 4.4 3.7 2zm-12-1.9c0-.2-.2-.4-.4-.5-.2-.2-.3 0-.3.3s.1.5.3.5c.2 0 .4-.1.4-.3zm2.2-1.5a4 4 0 0 0 1-2c0-.8 0-.8.3-.4.4.4.4.4.2-.1l-.2-1.5c0-.5-.2-.9-.5-.9-.4 0-.6-.3-.6-.9 0-.4.2-.8.4-.8.5 0 .4-.6-.3-1.5-.5-.5-1-.8-2.1-.9-1.6 0-2.1.3-1.5 1 .2.3.2.7 0 1-.3.4-.3.4-.5 0s-.3-1.2-.3-1.8c0-1-.2-1.2-1-1.2-.6 0-.8-.2-.9-.8 0-1-.8-1.9-1.3-1.7-.2 0-.7-.2-1-.6l-.6-.8v.8c0 1-.7 1.6-1.3 1.1-.3-.2-.5-.2-.5-.1l-.5-.2c-.4-.3-.6-.3-.6 0 0 .2-.4.5-.8.7-1 .4-1.2.9-.5 1.3.2.1.6 0 .8-.3.7-1 1.2-.7 1.2.8 0 1.4.6 1.8 1.4 1 .5-.5.6-.4 1 .7.2.7 0 .8-1.3.7-.8-.1-1.6 0-1.8.1-.4.2-.3.3 0 .3.4 0 .9.3 1.1.5.2.3.6.5.7.4.2-.1.4 0 .5.1 0 .2-.1.5-.5.7-.5.3-.7.3-.7 0 0-.2-.1-.3-.3-.1-.1.1 0 .5.4.7.5.3.6.8.5 1.3-.2.8 0 .8 1.2.9l1.4-.2c0-.9 1.1-.5 2.6.7 1 .7 1.9 1.4 2.1 1.4.3 0 .6.4.7.8.3 1.2 1 1.2 2.1-.2zm-1.7-1.2c-.3-.3-.6-.9-.7-1.3-.3-1.3 0-4.2.4-4.4.5-.1 1.9 3.4 1.9 4.6 0 1.3-.8 1.8-1.6 1.1zm-4.8-6.8c0-.6.2-.7 1.4-.4.3 0-.8 1-1 1-.2 0-.4-.2-.4-.6zm7.6 8.4c.1-.2 0-.3-.1-.3-.2 0-.4.1-.4.3l.1.4.4-.4zm1.3-5.4c0-.2-.2-.4-.4-.5-.2 0-.4.1-.4.5 0 .3.2.5.4.4.2 0 .4-.3.4-.4zm15.9-.2c.4-.4.7-.8.5-1-.1-.1-.4 0-.6.4-.6 1-1.6.7-2.6-.7-1.2-1.8-1.2-2.6 0-2.6 1.3 0 2.6.9 2.6 1.7 0 .5 0 .5.4 0 .5-.7.4-1-.1-1-.3.1-.4-.1-.4-.7.1-.7 0-.8-.2-.4-.3.5-.4.5-.4 0 0-.4-.1-.7-.3-.8-.2-.2-.3 0-.2.2.1.3-.2.5-1.1.5-1.8 0-2.3.8-1.4 2.3.6 1.1 2.2 2.8 2.7 2.8l1-.7zm-38.2-1.2c0-.8-.9-2.2-1.2-2-.3.4.5 2.8.9 2.8.2 0 .3-.3.3-.8zm21.9-2.3c0-.2 0-.4-.2-.4l-.3.4c-.1.1 0 .3.1.3.2 0 .4-.2.4-.3zm-23.8-4.1c0-.4-1.2-1-1.4-.8-.4.3.2 1.3.8 1.2.3 0 .6-.2.6-.4zm9-1.4c0-.3-.2-.5-.4-.5s-.3.2-.3.5.1.5.3.5c.2 0 .4-.2.4-.5zm9.5-.5c0-.4-.7-.9-1-.6-.2.2.3 1 .7 1 .2 0 .3-.2.3-.4zm12.9-4c.7-1 .7-2-.2-3.3-.5-.8-1-1-1.7-1-.6 0-1.1 0-1.1.2s-.3.3-.5.3c-.4 0-.6.4-.6 1.3 0 1 .3 1.5 1.1 2.3 1.3 1.2 2.2 1.3 3 .2zm-3-1c-.7-.7-.7-.8-.2-1.4 1.3-1.4 3.4-.3 2.8 1.4-.3 1-1.6 1-2.6 0zm12.6-2.5c.5-.5.6-2.4.1-2.4-.2 0-.2.3-.1.6 0 .4-.1.9-.4 1-.4.4-.7.3-1.4-.6-1-1-1.2-2.4-.6-2.4.2 0 .8.2 1.3.6.9.5 1 .5.8-.1-.2-.9-1.8-1.8-2.6-1.5-1 .4-.7 2.5.6 4 1.1 1.3 1.6 1.5 2.3.8zm-10.1-1.5-.7-.7c-.7-.6-.8-.6-.8-.1 0 .3.3.6.7.7l.7.2zm-.4-4.1c0-.2-.1-.4-.3-.4-.2 0-.5.2-.6.4-.1.2 0 .4.4.4.3 0 .5-.2.5-.4zm2-1.8c-.2-.2-.5-.3-.8-.3-.3 0-.5.1-.5.3 0 .2.3.4.7.4.4 0 .7-.2.5-.4zm-28 21.4c-.7-.7-1-3-.5-4.2.4-1 .4-1 1.4-.3 1 .5 1.1.9 1.3 2.4v2.2c-.3.6-1.8.5-2.3-.1zm43-2.5c0-1 .1-1.3.2-.8v1.8c-.1.4-.2 0-.2-1zm.4-5c0-1.3 0-1.8.1-1v2.4-1.3zM85 202.6c-.7-.7-1.7-3.4-1.4-3.7.4-.4 2.4.9 3 1.8.6 1 .4 2.6-.4 2.6-.3 0-.8-.3-1.2-.7zm29.3-1.7c0-1 .1-1.3.2-.8a5 5 0 0 1 0 1.6c-.1.4-.2 0-.2-.8zm-.3-3c0-.6 0-.8.1-.5v1c0 .3-.2 0-.1-.5zm-30.7-.6c0-.2.2-.4.4-.4s.4.2.5.4c0 .2-.2.4-.5.4s-.5-.2-.4-.4zm30.3-1.4c0-.5 0-.7.2-.4v.9c-.1.2-.2 0-.2-.5zm-.4-1.7c0-.5.1-.7.2-.5v.9c0 .2-.2 0-.2-.4zm-1-3.7a138.5 138.5 0 0 0-.9-3.6c.5.4 2 5.4 1.8 5.8 0 .2-.5-.8-.9-2.2z" style="fill:#9aa050;stroke-width:.352778" transform="translate(-44.6 -175.7)"/>
  <path d="M83.1 237.4a46.2 46.2 0 0 1-27.6-14.2c-4-4.2-7.2-9.4-6.7-10.7.2-.6.3-.6.5 0 .4.9.4.8.6-.4 0-.4 0-.8-.2-.8-.4 0 0-1.7.4-2 .1 0 .2.1 0 .4 0 .3 0 .6.3.7.2.2.3 0 .3-.4 0-.5.2-.7.8-.5.4 0 .5.3.3.4-.3.2.4 4.8.9 5.3.4.4.4-.3 0-2.3-.3-1.4-.3-2.4-.1-2.7.2-.4.3-.3.2 0-.1 1 .8 2.3 1.3 2 .3 0 .5 0 .5.2s.2.3.4.2c.1-.1.2-.5.1-.8-.3-1 .5.1 1.7 2.5 1.2 2.3 1 2.7-.2.5-.5-.8-1-1.2-1-1-.2.2 0 .7.4 1 .4.4.6 1 .5 1.2 0 .3.1.6.4.8.3 0 .5.4.3.6-.1.3-.3.2-.5 0-.1-.3-.3-.4-.4-.1-.2.2 0 .5.3.7.3.3.5.4.5 0 0-.6.6-.3.8.4.1.4.7 1 1.3 1.2.6.2 1 .5 1 .7 0 .1-.1.1-.4 0-.3-.2-.3 0 0 .3s.8.6 1 .6c.3 0 .5.2.3.4 0 .2.1.3.5.3.5 0 .5 0 0 .4-.4.3-.4.4.4.5.2 0 .5.2.8.5.3.4.3.4 0 .2-.2-.1-.4 0-.4.1 0 .2.3.4.7.5.5 0 .9.3 1 .6 0 .3 0 .4-.3.2s-.4-.1-.2.1c.1.3.4.4.5.3.2-.1 1.1.6 2.2 1.6a50 50 0 0 0 9.1 6.8 27 27 0 0 0 23.9 1.7 26 26 0 0 0 7.9-6.2c2.7-3.6 2.5-3.3 2.1-2.4-.8 1.5-4 5.1-6.1 6.7a22.1 22.1 0 0 1-8.2 3.8c-2.3.5-8.6.6-11.9.1zm-23.2-16c-.4-.5-.9-.8-1-.7 0 0 .2.6.7 1 .4.5.9.8 1 .7 0 0-.2-.5-.7-1zm29.6 11c-.6-.3-1.4-.4-1.6-.3-.3 0-.5 0-.5-.2s-1-.3-2.2-.3c-1.4 0-2.2-.1-2.3-.4 0-.3-.3-.5-.6-.5a9 9 0 0 1-3.4-2 19 19 0 0 0-6.2-3.6c-.2 0-.5-.4-.7-.9 0-.5-.4-.9-.6-.9-.3 0-.5-.1-.6-.3l-1.1-.8c-.6-.2-1.3-1-1.6-1.5a4 4 0 0 0-.9-1.2l-.2-.5c0-.5-2.2-2.9-3-3.2a1 1 0 0 1-.6-.9c0-.3-.3-1-.7-1.3-.4-.3-.6-.8-.5-1 0-.3 0-.6-.2-.8-.2 0-.3-.4-.2-.6 0-.3-.3-.7-.8-1a4 4 0 0 1-1.5-1.7c-.4-1-.3-1.2.3-1.8.7-.7.8-.7 2-.2 1.6.8 1.9.8 2.1-.1.1-.4.3-.7.5-.6.2.1.6 0 .8-.3.2-.3.6-.5.9-.5.5 0 1 1 .7 1.4-.1.2 0 .4.1.4.2 0 .4-.2.4-.4s.2-.4.4-.4.3.3.2.6c-.1.3 0 .5.3.5s.5.2.5.4-.1.3-.3.3c-.2 0-.4.6-.4 1.2 0 1.1.1 1.3 1 1.3.8 0 1 .5.5 1.3-.2.4-.4.4-.8 0-.5-.7-1-.8-1-.1 0 .2.6 1 1.3 1.7 1.1 1 1.4 1.4 1.2 2.2-.2 1 .7 1.6 1.6.7.3-.3.8-.5 1.3-.3 1.4.4 1.8.3 2-.6.1-.5.3-.7.3-.5 0 .2.2 0 .4-.3.3-.5.3-.8-.1-1.2-.3-.4-.7-1-.8-1.5-.1-.5-.5-1.2-.8-1.6-.6-.9-.6-1.4.1-1.1.8.3.6-.4-.3-1.4-1-1-1.9-1.1-2-.4-.2.3-.3.3-.8 0-.4-.4-.5-.3-.7.7-.3 1.5-.6 1.1-.7-1.2l-.2-2H71c1.2.1 1.4 0 1.3-.5-.1-.7 1.3-2.5 1.7-2.2.2 0 .7-.3 1.3-1l1-1-.8-.6-.8-.7.8-.2c1.5-.4 1.8-.3 1.5.5-.2.6-.1.7.2.5.2-.1.6 0 .8.2.4.3.7.2 1.1-.4.8-.8 1.6-.8 2.6-.1.4.2.8.4 1 .3l.2.6a9 9 0 0 0 1 2.8c.6 1 1 1.8 1 1.6 0-.2.3-.1.5 0 .3.3.6.4.7.3 0-.1.4.3.6.9.6 1.4 1.8 1.5 1.7 0 0-.5-.3-1.2-.5-1.6-.3-.5-.3-.8.1-1.3.4-.4.4-.6.2-.6s-.4-.4-.4-.9-.4-1.3-1-1.9l-.8-1 1-.7c.6-.3 1-.7 1-.9-.3-.4-1.6-.4-1.6 0 0 .5-1.4.8-1.6.4-.1-.2 0-.3.2-.3s.3-.4.2-.8c0-.6.1-.8.7-1 .5 0 .8.1.8.4 0 .2.3.3.6.2.3-.1 1 0 1.5.5 1.7 1.2 2.8.8 2.5-.8 0-.5.3-.3 1 .4 1 1 1.6.8 1.8-.4 0-.4.3-1 .5-1 .3-.3.2-.6-.4-1-.5-.4-.7-.8-.6-.8.2 0 .7 0 1.1-.2.5 0 .9 0 1 .2.4.7 1.2.4 1.2-.4-.1-.6.1-.8 1.1-1 .8-.2 1.3-.1 1.5.1.1.3.5.8 1 1.3l.7.9.2-.8c.2-.9.5-1 1.1-.3.4.3.4.3.4 0 0-.4.4-.4 1.2-.3 1.2.2 1.2.2 1-.7a4 4 0 0 0-.5-1.5c-.5-.6 0-1 2.5-1.8l2.2-.7.6 1.2.5 1.7.6 3.1c1.4 5 1.8 12.3 1.1 17.3a34.1 34.1 0 0 1-5.3 13.3 30 30 0 0 1-5.2 5.3c-.2 0-1.2.6-2.2 1.3a14 14 0 0 1-3.3 1.6c-2 .6-5.1.6-6.6.1zm9-7.5c.1-.7.1-.8 0-.2-.2 1-1.2 1-2 .1-.5-.6-1.7-3.3-1.7-4 0-1 2 .4 3.3 2.2.5.7.6.7.6.2 0-.8-2.7-3.5-3.4-3.3-.8.1-1 1-.4 3 .8 2.9 3.6 4.4 3.7 2zm-12-1.9c0-.2-.2-.4-.4-.5-.2-.2-.3 0-.3.3s.1.5.3.5c.2 0 .4-.1.4-.3zm2.2-1.5a4 4 0 0 0 1-2c0-.8 0-.8.3-.4.4.4.4.4.2-.1l-.2-1.5c0-.5-.2-.9-.5-.9-.4 0-.6-.3-.6-.9 0-.4.2-.8.4-.8.5 0 .4-.6-.3-1.5-.5-.5-1-.8-2.1-.9-1.6 0-2.1.3-1.5 1 .2.3.2.7 0 1-.3.4-.3.4-.5 0s-.3-1.2-.3-1.8c0-1-.2-1.2-1-1.2-.6 0-.8-.2-.9-.8 0-1-.8-1.9-1.3-1.7-.2 0-.7-.2-1-.6l-.6-.8v.8c0 1-.7 1.6-1.3 1.1-.3-.2-.5-.2-.5-.1l-.5-.2c-.4-.3-.6-.3-.6 0 0 .2-.4.5-.8.7-1 .4-1.2.9-.5 1.3.2.1.6 0 .8-.3.7-1 1.2-.7 1.2.8 0 1.4.6 1.8 1.4 1 .5-.5.6-.4 1 .7.2.7 0 .8-1.3.7-.8-.1-1.6 0-1.8.1-.4.2-.3.3 0 .3.4 0 .9.3 1.1.5.2.3.6.5.7.4.2-.1.4 0 .5.1 0 .2-.1.5-.5.7-.5.3-.7.3-.7 0 0-.2-.1-.3-.3-.1-.1.1 0 .5.4.7.5.3.6.8.5 1.3-.2.8 0 .8 1.2.9l1.4-.2c0-.9 1.1-.5 2.6.7 1 .7 1.9 1.4 2.1 1.4.3 0 .6.4.7.8.3 1.2 1 1.2 2.1-.2zm-1.4-1c-1-.6-1.7-3.7-.7-3.3.8.3.7-.4 0-.8-.6-.4-.6-1.5 0-1.6.5-.1 1.7 2.3 1.9 3.9.2 1.4-.5 2.4-1.2 1.9zm-5-7c0-.6 0-.7 1.3-.4.3 0-.8 1-1 1-.2 0-.4-.2-.4-.6zm7.5 8.4c.1-.2 0-.3-.1-.3-.2 0-.4.1-.4.3l.1.4.4-.4zm1.3-5.4c0-.2-.2-.4-.4-.5-.2 0-.4.1-.4.5 0 .3.2.5.4.4.2 0 .4-.3.4-.4zm15.9-.2c.4-.4.7-.8.5-1-.1-.1-.4 0-.6.4-.6 1-1.6.7-2.6-.7-1.2-1.8-1.2-2.6 0-2.6 1.3 0 2.6.9 2.6 1.7 0 .5 0 .5.4 0 .5-.7.4-1-.1-1-.3.1-.4-.1-.4-.7.1-.7 0-.8-.2-.4-.3.5-.4.5-.4 0 0-.4-.1-.7-.3-.8-.2-.2-.3 0-.2.2.1.3-.2.5-1.1.5-1.8 0-2.3.8-1.4 2.3.6 1.1 2.2 2.8 2.7 2.8l1-.7zm-38.2-1.2c0-.8-.9-2.2-1.2-2-.3.4.5 2.8.9 2.8.2 0 .3-.3.3-.8zm21.9-2.3c0-.2 0-.4-.2-.4l-.3.4c-.1.1 0 .3.1.3.2 0 .4-.2.4-.3zm-23.8-4.1c0-.4-1.2-1-1.4-.8-.4.3.2 1.3.8 1.2.3 0 .6-.2.6-.4zm9-1.4c0-.3-.2-.5-.4-.5s-.3.2-.3.5.1.5.3.5c.2 0 .4-.2.4-.5zm9.5-.5c0-.4-.7-.9-1-.6-.2.2.3 1 .7 1 .2 0 .3-.2.3-.4zm12.9-4c.7-1 .7-2-.2-3.3-.5-.8-1-1-1.7-1-.6 0-1.1 0-1.1.2s-.3.3-.5.3c-.4 0-.6.4-.6 1.3 0 1 .3 1.5 1.1 2.3 1.3 1.2 2.2 1.3 3 .2zm-3-1c-.7-.7-.7-.8-.2-1.4 1.3-1.4 3.4-.3 2.8 1.4-.3 1-1.6 1-2.6 0zm12.6-2.5c.5-.5.6-2.4.1-2.4-.2 0-.2.3-.1.6 0 .4-.1.9-.4 1-.4.4-.7.3-1.4-.6-1-1-1.2-2.4-.6-2.4.2 0 .8.2 1.3.6.9.5 1 .5.8-.1-.2-.9-1.8-1.8-2.6-1.5-1 .4-.7 2.5.6 4 1.1 1.3 1.6 1.5 2.3.8zm-10.1-1.5-.7-.7c-.7-.6-.8-.6-.8-.1 0 .3.3.6.7.7l.7.2zm-.4-4.1c0-.2-.1-.4-.3-.4-.2 0-.5.2-.6.4-.1.2 0 .4.4.4.3 0 .5-.2.5-.4zm2-1.8c-.2-.2-.5-.3-.8-.3-.3 0-.5.1-.5.3 0 .2.3.4.7.4.4 0 .7-.2.5-.4zM59 218.7c-.3-.3-.5-.7-.3-.7s.5.4.8.7l.3.8-.8-.8zm12.3-5.3c-.6-.8-.9-3.2-.5-4.3.4-1 .4-1 1.4-.3 1 .5 1.1.9 1.3 2.4v2.2c-.3.6-1.8.5-2.2 0zm.5-3.3c-.2-.4-.4-.5-.6-.3-.2.2-.3.6-.1 1 .1.4.3.5.5.2.2-.2.3-.6.2-1zm-17.9-.8c-.2-.5-.3-.5-.4 0 0 .8-.7-1.2-.8-2.5 0-.9 0-1 .2-.6.2.3.3.8.2 1.1-.1.3 0 .5.1.5.2 0 .6.5.9 1 .6 1.2.4 1.6-.2.5zm31-6.8c-.6-.7-1.6-3.4-1.3-3.7.4-.4 2.4.9 3 1.8.6 1 .4 2.6-.4 2.6-.3 0-.8-.3-1.2-.7zm0-2.3c-.2-.3-.5-.4-.6-.3 0 0 0 .4.3.7.3.3.5.4.6.3.1 0 0-.4-.2-.7zm-1.6-3c0-.2.2-.4.4-.4s.4.2.5.4c0 .2-.2.4-.5.4s-.5-.2-.4-.4z" style="fill:#ed5b41;stroke-width:.352778" transform="translate(-44.6 -175.7)"/>
  <path d="M83.1 237.4a46.2 46.2 0 0 1-27.6-14.2c-4-4.2-7.2-9.4-6.7-10.7.2-.6.3-.6.5 0 .4.9.4.8.6-.4 0-.4 0-.8-.2-.8-.4 0 0-1.7.4-2 .1 0 .2.1 0 .4 0 .3 0 .6.3.7.2.2.3 0 .3-.4 0-.5.2-.7.8-.5.4 0 .5.3.3.4-.3.2.4 4.8.9 5.3.4.4.4-.3 0-2.3-.3-1.4-.3-2.4-.1-2.7.2-.4.3-.3.2 0-.1 1 .8 2.3 1.3 2 .3 0 .5 0 .5.2s.2.3.4.2c.1-.1.2-.5.1-.8-.3-1 .5.1 1.7 2.5 1.2 2.3 1 2.7-.2.5-.5-.8-1-1.2-1-1-.2.2 0 .7.4 1 .4.4.6 1 .5 1.2 0 .3.1.6.4.8.3 0 .5.4.3.6-.1.3-.3.2-.5 0-.1-.3-.3-.4-.4-.1-.2.2 0 .5.3.7.3.3.5.4.5 0 0-.6.6-.3.8.4.1.4.7 1 1.3 1.2.6.2 1 .5 1 .7 0 .1-.1.1-.4 0-.3-.2-.3 0 0 .3s.8.6 1 .6c.3 0 .5.2.3.4 0 .2.1.3.5.3.5 0 .5 0 0 .4-.4.3-.4.4.4.5.2 0 .5.2.8.5.3.4.3.4 0 .2-.2-.1-.4 0-.4.1 0 .2.3.4.7.5.5 0 .9.3 1 .6 0 .3 0 .4-.3.2s-.4-.1-.2.1c.1.3.4.4.5.3.2-.1 1.1.6 2.2 1.6a50 50 0 0 0 9.1 6.8 27 27 0 0 0 23.9 1.7 26 26 0 0 0 7.9-6.2c2.7-3.6 2.5-3.3 2.1-2.4-.8 1.5-4 5.1-6.1 6.7a22.1 22.1 0 0 1-8.2 3.8c-2.3.5-8.6.6-11.9.1zm-23.2-16c-.4-.5-.9-.8-1-.7 0 0 .2.6.7 1 .4.5.9.8 1 .7 0 0-.2-.5-.7-1zm29 10.4a7 7 0 0 0-3.4-.5c-1.3.2-1.9 0-3.6-1-3-1.6-4.3-2.8-4.5-3.9-.2-.8-.4-1-1-.7-1 .3-1 .3-2.7-.5-1-.5-1.4-.8-1.2-.8.3 0 .5-.1.5-.3 0-.4-2.4-1.8-3-1.8-.8 0-2.7-3.1-2.7-4.5 0-.9.1-1.1.5-1 .3.2.6 0 .6-.1 0-.2.2-.4.5-.4s.4.2.3.6c-.2.6-.1.6.3 0 .4-.4.6-.5.9-.3.2.3.7.2 1.4-.1.9-.5 1.3-.5 2-.2 1.2.5 1.5.6 2 .6.2 0 .3.3.3.6s.3.5.6.5.5.3.5.7l.1 1.1c0 .6 2 .7 4.6.2 1-.2 1.6-.1 2.5.4 1.1.5 1.3.8 1 1.6-.2 1 .4 1.6 1.2 1a4 4 0 0 1 1.8-.6c.9 0 1.4-.2 1.4-.6.1-.3 0-.6-.3-.6s-.3-.1 0-.5c.3-.3.7-.4 1-.3.3.1.3-.1 0-1.4-.5-1.6-.5-1.7.1-1.7.8 0 1-1 .2-1.7-.4-.3-.6-.3-.8.2-.2.4-.5.5-.6.4-.2-.1 0-.5.3-.8.3-.3.5-.7.5-.9 0-.4-2-2.5-2.4-2.5-.2 0-.4-.1-.4-.3 0-.2.3-.3.5-.3.3 0 .6 0 .6-.2s-.3-.4-.7-.5l-.8-.1.8-.7c.4-.3.7-.8.5-1 0-.2 0-.4.2-.6.2-.1.5 0 .7.2.2.3.3.1.3-.5.1-1.8.2-2 1-2 .5 0 .7-.1.6-.5-.2-.5.5-.7 1.8-.5.2 0 .6-.4.8-.9.3-.7.3-.9 0-.9-.2 0-.3 0-.2-.1.2-.3 2 .6 2 1 0 .2.2.1.4-.2.3-.4.5-.3 1.2.5.9 1 1.6 1.2 1.6.4 0-.4-.2-.5-.6-.4-.6.2-.6.2 0-.2.4-.3.5-.8.4-1 0-.4 0-.7.2-.8.4-.3.1-2-.4-2.5-.4-.5-.4-1 0-.7.3 0 .4 0 .4-.4 0-.7.7-1.4 1.6-1.5.4 0 1.1-.6 1.6-1.2 1-1.2 1.2-1.2 1.8-.2.8 1.2 1.2 2.5.7 2.2-.3-.1-.2.2.2.7.3.5.7.8.8.6.3-.5.9 0 1.2.7.1.4.4.7.6.7.5 0 .4-.7-.1-.9-.2 0 0-.2.3-.2.7 0 .8-.2.8-1.2 0-1.2-.3-2.2-1.4-3.7-.5-.6-.9-.8-1.5-.7-.6.2-1 0-.8-.2 0-.2.3-.3.5-.3.6.1.5-3.2 0-3.7s-.2-.9 1.7-1.6c2.2-.9 2.9-.8 3.2.4 0 .5.6 2.4 1 4.1a49 49 0 0 1 1.4 12.9 29 29 0 0 1-6.9 20c-1 1.2-3 3-3.4 3-.3 0-.5 0-.5.3 0 .2-.1.3-.3.3l-2 1.1a11.2 11.2 0 0 1-10.3 1.4zm9.8-6c.2-.3.3-1 .2-1.6l-.1-1.4c-.1-.7-2.7-3-3.3-3-1 0-1.4 1.4-.8 3 .3.7.5 1.7.5 2.2 0 .6.2.8.8.8.4 0 1 .2 1.3.4.8.4 1 .4 1.4-.3zm-2.4-1.5c-.8-1.2-1.3-3.3-1-3.7.1 0 .8.4 1.5 1 1 1 1.3 1.5 1.3 2.4.1 1.7-.9 1.9-1.8.3zM83.2 221c-.2-.5-.5-.7-.6-.6v1.1c.2.7.4.9.6.6.3-.2.3-.6 0-1.1zm23.5-4.1c.6-.2.8-.5.8-1 0-1.1-.2-1.1-1-.1l-.7.8-1.3-1.4a6.7 6.7 0 0 1-1.2-2c0-1 1.7-.9 2.8.3.9.8 1.1 1 1.4.6.3-.4.3-.6-.3-.9-.4-.2-.7-.5-.5-.7 0-.2-.2-.7-.6-1-.8-.9-1.3-1-.7-.2.4.4.3.5-.6.5-1.5 0-2.2.3-2.2 1 0 1.1 1.3 3.3 2.2 3.8 1 .5 1 .5 2 .3zM91.1 214l-.4-1.4c-.2-.7-.6-.8-1-.3-.1.2 0 .7.3 1 .3.4.6.8.6 1 0 .3.2.5.4.5s.3-.4.1-.8zm4.8-9c0-.2-.2-.5-.4-.5s-.3.3-.3.6.1.5.3.5c.2 0 .4-.2.4-.5zm3.9-4.7c0-.2-.2-.3-.4-.3s-.3.1-.3.3c0 .2.1.4.3.4.2 0 .4-.2.4-.4zm-13.2 19.3c-.8-1-.8-2.8 0-2.5.2.1.5 0 .5-.2s-.3-.5-.6-.6c-.5-.2-.7-1.4-.2-1.7.5-.3 1 .5 1.6 2.4 1 2.8 0 4.6-1.3 2.6zm-27.6-1c-.3-.3-.5-.7-.3-.7s.5.4.8.7l.3.8-.8-.8zm5.8-2.5c-.4-.4-.8-1-.7-1.2 0-.3 0-.5-.3-.5-.2 0-.4-.2-.4-.5s-.2-.7-.6-.9c-.8-.4-.5-.7 1-1 1.1 0 1.3 0 2.1 1.3.7 1 1 1.6.8 2.4-.2 1.4-.6 1.5-1.9.4zm6.2-3.6c-.6-1.5-.6-2.3-.1-3.6l.4-1 1 1.1c1 1.2 1.6 3.2 1.2 4.2 0 .3-.6.5-1 .5-.8 0-1.1-.3-1.5-1.2zm.8-2.5c-.2-.4-.4-.5-.6-.3-.2.2-.3.6-.1 1 .1.4.3.5.5.2.2-.2.3-.6.2-1zm2.4-.2c-.1-.2 0-.3.2-.3s.3.1.3.3l-.1.4-.4-.4zm-20.3-.6c-.2-.5-.3-.5-.4 0 0 .8-.7-1.2-.8-2.5 0-.9 0-1 .2-.6.2.3.3.8.2 1.1-.1.3 0 .5.1.5.2 0 .6.5.9 1 .6 1.2.4 1.6-.2.5zm31.1-6.9c-1-1-1.7-3-1.2-3.4.4-.5 2.5.9 3 2 .3.6.3 1 0 1.4-.5 1-1 1-1.8 0zm0-2.2c-.3-.3-.6-.4-.7-.3 0 0 0 .4.3.7.3.3.5.4.6.3.1 0 0-.4-.2-.7zm10.5 1.6c-.7-.5-.8-.8-.5-1.3.3-.3.8-.7 1.4-.7.7-.1 1 0 1.1.8.5 1.8-.5 2.5-2 1.2zm-5.2-1.7c0-.6.1-.7.7-.4.4.2.6.5.5.7-.4.6-1.1.4-1.2-.3zm15.9-2c-.3-.2-.3-.7-.2-1 .1-.6.1-.6-.2-.3-.2.4-.4.4-.6-.3-.3-1 0-1.3 1.2-.4 1 .7 1.5 2.5.7 2.5-.3 0-.7-.2-1-.4z" style="fill:#f25131;stroke-width:.352778" transform="translate(-44.6 -175.7)"/>
  <path d="M83.1 237.4a46.2 46.2 0 0 1-27.6-14.2c-4-4.2-7.2-9.4-6.7-10.7.2-.6.3-.6.5 0 .4.9.4.8.6-.4 0-.4 0-.8-.2-.8-.4 0 0-1.7.4-2 .1 0 .2.1 0 .4 0 .3 0 .6.3.7.2.2.3 0 .3-.4 0-.5.2-.7.8-.5.4 0 .5.3.3.4-.3.2.4 4.8.9 5.3.4.4.4-.3 0-2.3-.3-1.4-.3-2.4-.1-2.7.2-.4.3-.3.2 0-.1 1 .8 2.3 1.3 2 .3 0 .5 0 .5.2s.2.3.4.2c.1-.1.2-.5.1-.8-.3-1 .5.1 1.7 2.5 1.2 2.3 1 2.7-.2.5-.5-.8-1-1.2-1-1-.2.2 0 .7.4 1 .4.4.6 1 .5 1.2 0 .3.1.6.4.8.3 0 .5.4.3.6-.1.3-.3.2-.5 0-.1-.3-.3-.4-.4-.1-.2.2 0 .5.3.7.3.3.5.4.5 0 0-.6.6-.3.8.4.1.4.7 1 1.3 1.2.6.2 1 .5 1 .7 0 .1-.1.1-.4 0-.3-.2-.3 0 0 .3s.8.6 1 .6c.3 0 .5.2.3.4 0 .2.1.3.5.3.5 0 .5 0 0 .4-.4.3-.4.4.4.5.2 0 .5.2.8.5.3.4.3.4 0 .2-.2-.1-.4 0-.4.1 0 .2.3.4.7.5.5 0 .9.3 1 .6 0 .3 0 .4-.3.2s-.4-.1-.2.1c.1.3.4.4.5.3.2-.1 1.1.6 2.2 1.6a50 50 0 0 0 9.1 6.8 27 27 0 0 0 23.9 1.7 26 26 0 0 0 7.9-6.2c2.7-3.6 2.5-3.3 2.1-2.4-.8 1.5-4 5.1-6.1 6.7a22.1 22.1 0 0 1-8.2 3.8c-2.3.5-8.6.6-11.9.1zm-23.2-16c-.4-.5-.9-.8-1-.7 0 0 .2.6.7 1 .4.5.9.8 1 .7 0 0-.2-.5-.7-1zm31.6 10.8c-1-.1-3.5-1.5-2.7-1.5.4 0 .4-1.2 0-2-.5-.7-1-.5-.8.3.1.6 0 .7-.9.7-.6 0-1-.1-1-.3 0-.5 1.1-1.5 1.7-1.5.2 0 .3-.2.2-.5 0-.3 0-.7.3-.9.2-.2.4-.8.3-1.4-.1-.6 0-1 .2-1s.4-.2.4-.4-.2-.3-.4-.2c-.3.2-.3.1-.2-.1.2-.2.5-.4.8-.4.3 0 .6-.3.8-.6 0-.4.4-.9.7-1.1.2-.3.4-.9.3-1.3-.2-.5.1-1 1-1.8.7-.7 1.5-1.2 1.8-1.2.3 0 .5-.2.5-.5 0-.2.4-.7 1-1.1 2.1-1.7 3.8-4 3.6-5-.1-.7.7-1.6 1-1.3.2 0 .4 0 .4-.4 0-.3.2-.5.5-.5s.5.1.5.3c0 .2.3.4.7.5.5.2.6.5.5 1.9l-.1 2.6c0 1.1 1.2 3.3 1.6 2.9.1-.2.2 0 .2.4-.2 1.4 0 1.8.4 1.3a2 2 0 0 1 1.2-.4c1.2 0 1.9-.4 1.9-1 0-.4.1-.8.3-.8.3-.1.3-.5 0-1.3-.2-.8-.1-1.1.2-1.3 1-.3.6-1-.3-.8-.9.2-1 .2-.7-.6.1-.5 0-1.1-.2-1.4-.5-.6-2.5-.8-2.5-.2 0 .2-.1.3-.3.2a.4.4 0 0 1-.2-.6c.1-.2 0-.6-.2-.9-.4-.4-.3-.5.3-.5.4 0 .8-.2.8-.5s.3-.7.7-1c.6-.2.7-.5.5-1.2-.2-.8-.1-.9.4-.7.6.3.6.2 0-.4-.5-.6-.6-1-.3-2 .2-.6.3-1.3.2-1.4l1.2-.4c1.8-.3 2.2-1.3 1.2-3.3-.4-.8-.6-1.5-.4-1.6.2-.1 0-1-.5-1.8-.7-1.2-.8-1.9-.7-3l.2-1.4.7 1c.3.5 1 1 1.2 1 .8 0 1.8 2.5 2.1 5.5.6 5.4.5 11.7-.2 14.7-1 4.3-1.8 6.7-2.6 8.2a35.7 35.7 0 0 1-6.8 8.2l-3.4 2.2a8 8 0 0 1-2 1l-1 .4c-.5.2-2.8.4-4 .2zm5.3-4.6c0-.2.7-.4 1.2-.4.8 0 1-.1 1-.7 0-.3.2-.7.4-.8.3 0 .2-.5 0-1.2-.4-1-.4-1.2.2-1.6.5-.4.5-.6.2-.8-.3-.2-.6 0-.8.2-.2.4-.3.4-.5-.2-.1-.3 0-.7.1-.8.3-.2.2-.6-.2-1.1-1.3-1.7-4.6-.7-4.6 1.4 0 .6.2 1.1.6 1.4.6.3.6.3 0 .3-1.1 0-1 .7.2 2 .9.8 1.2 1.4 1 1.9 0 .5 0 .7.4.7.3 0 .7-.1.8-.3zm-.6-3.3c-.7-1.2-1.2-3.3-1-3.6.4-.4 2.4 1.6 2.8 2.6.9 2.2-.6 3-1.8 1zm-2.1 2c-.5-.6-.8-.4-.5.3.2.4.4.5.6.4.2-.1.1-.4-.1-.7zm-2.4-2.6c0-.2-.2-.4-.4-.4s-.3.2-.2.4c.1.2.3.3.4.3 0 0 .2-.1.2-.3zm3.1-4.6c0-.2-.2-.4-.5-.4s-.5.2-.5.4.2.4.5.4.5-.2.5-.4zm13.4-8.8c0-.2-.1-.4-.3-.4-.2 0-.3.2-.2.4.1.2.3.3.4.3l.1-.3zm-23.6 19.4c0-.2.2-.4.5-.5.4-.1.6 0 .6.3s-.3.5-.6.5-.5-.1-.5-.3zm2-10c-.8-1-.8-2.8 0-2.5.2.1.5 0 .5-.2s-.3-.5-.6-.6c-.5-.2-.7-1.4-.2-1.7.5-.3 1 .5 1.6 2.4 1 2.8 0 4.6-1.3 2.6zm-27.6-1c-.3-.3-.5-.7-.3-.7s.5.4.8.7l.3.8-.8-.8zm45.4-3.7c-1.3-1.6-1.4-2.6-.3-2.6 2 0 3.4 2.3 2.3 3.5-.6.6-.8.5-2-1zM71 212.6c-.6-1.5-.6-2.3-.1-3.6l.4-1 1 1.1c1 1.2 1.6 3.2 1.2 4.2 0 .3-.6.5-1 .5-.8 0-1.1-.3-1.5-1.2zm.8-2.5c-.2-.4-.4-.5-.6-.3-.2.2-.3.6-.1 1 .1.4.3.5.5.2.2-.2.3-.6.2-1zm31.5.3c0-.4.1-.5.2-.2v.7c-.1.1-.2-.1-.2-.5zm-49.4-1c-.2-.6-.3-.6-.4-.2 0 1-.7-1.1-.8-2.4 0-.9 0-1 .2-.6.2.3.3.8.2 1.1-.1.3 0 .5.1.5.2 0 .6.5.9 1 .6 1.2.4 1.6-.2.5zm31.1-7c-1-1-1.7-3-1.2-3.4.4-.5 2.5.9 3 2 .3.6.3 1 0 1.4-.5 1-1 1-1.8 0zm0-2.2c-.3-.3-.6-.4-.7-.3 0 0 0 .4.3.7.3.3.5.4.6.3.1 0 0-.4-.2-.7zm10.5 1.6c-.7-.5-.8-.8-.5-1.3.3-.3.8-.7 1.4-.7.7-.1 1 0 1.1.8.5 1.8-.5 2.5-2 1.2zm10.7-3.6c-.3-.3-.3-.8-.2-1.2.1-.5.1-.5-.2-.2-.2.4-.4.4-.6-.3-.3-1 0-1.3 1.2-.4 1 .7 1.5 2.5.7 2.5-.3 0-.7-.2-1-.4zm3-7.3c-.4-.1-.8-.6-1-1-.3-.6-.7-1-1-1-.9-.1-.8-.2.5-.7 1.6-.6 1.9-.5 2.1 1 .3 1.6.2 2-.6 1.7z" style="fill:#89913a;stroke-width:.352778" transform="translate(-44.6 -175.7)"/>
  <path d="M84 237.6c-5.2-.7-12.7-3-16.7-5.2a48.2 48.2 0 0 1-15.6-13.8c-1.3-1.8-2.3-4.4-1.7-4.4.1 0 .2-.6.2-1.3 0-.7 0-1.2.2-1.2.1 0 .2-.3.2-.8.1-.8.4-1.2.7-1l.3 1.7c.2 2.4 2.2 8.7 3.2 10.1.4.6.5.6.5.1 0-.3-.1-.6-.3-.8-.2 0-.4-.5-.3-1 0-.4-.3-1.5-.7-2.4l-.6-1.7-.4-2c-.6-2.8-.6-2.8.5-1.6.5.5.9 1.2.8 1.4 0 .3.2.8.5 1.2.4.4.7.8.6 1-.3.6 2.3 4.8 3.5 5.7.8.6 1.3 1.3 1.2 1.6-.1.4.8 1.5 1.4 1.5l1.3.8 1 .8-.5-1c-.4-.5-.8-.8-1-.7 0 0-.4 0-.6-.4-.3-.4-.3-.4.2-.3l.8.2h.5c.1 0 .2.1.1.4 0 .2.3.5.7.8.5.2 1.7 1.2 2.7 2.1a36.4 36.4 0 0 0 19.7 10c2.5.3 2.5.3.7.3l-3-.1zm7.2 0a5 5 0 0 1 1.6 0l-.8.1c-.9 0-1.2 0-.8-.2zm4.2-.7c1-.3 1.8-.4 1.8-.3.2.1-2.4.8-3 .8-.4 0 .2-.2 1.2-.5zm2.6-.9.9-.3c.2 0 .1.1-.2.3l-.9.4c-.2 0 0-.2.2-.4zm2.8-1.1 1.5-1.2a34.9 34.9 0 0 0 2.7-1.9c-1.7 1.7-4.2 3.5-4.2 3zm-9.3-2.7c-1-.1-3.5-1.5-2.7-1.5.4 0 .4-1.2 0-2-.5-.7-1-.5-.8.3.1.6 0 .7-.9.7-.6 0-1-.1-1-.3 0-.5 1.1-1.5 1.7-1.5.2 0 .3-.2.2-.5 0-.3 0-.7.3-.9.2-.2.4-.8.3-1.4-.1-.6 0-1 .2-1s.4-.2.4-.4-.2-.3-.4-.2c-.3.2-.3.1-.2-.1.2-.2.5-.4.8-.4.3 0 .6-.3.8-.6 0-.4.4-.9.7-1.1.2-.3.4-.9.3-1.3-.2-.5.1-1 1-1.8.7-.7 1.5-1.2 1.8-1.2.3 0 .5-.2.5-.5 0-.2.4-.7 1-1.1 2.1-1.7 3.8-4 3.6-5-.1-.7.7-1.6 1-1.3.2 0 .4 0 .4-.4 0-.3.2-.5.5-.5s.5.1.5.3c0 .2.3.4.7.5.5.2.6.5.5 1.9l-.1 2.6c0 1.1 1.2 3.3 1.6 2.9.1-.2.2 0 .2.4-.2 1.4 0 1.8.4 1.3a2 2 0 0 1 1.2-.4c1.2 0 1.9-.4 1.9-1 0-.4.1-.8.3-.8.3-.1.3-.5 0-1.3-.2-.8-.1-1.1.2-1.3 1-.3.6-1-.3-.8-.9.2-1 .2-.7-.6.1-.5 0-1.1-.2-1.4-.5-.6-2.5-.8-2.5-.2 0 .2-.1.3-.3.2a.4.4 0 0 1-.2-.6c.1-.2 0-.6-.2-.9-.4-.4-.3-.5.3-.5.4 0 .8-.2.8-.5s.3-.7.7-1c.6-.2.7-.5.5-1.2-.2-.8-.1-.9.4-.7.6.3.6.2 0-.4-.5-.6-.6-1-.3-2 .2-.6.3-1.3.2-1.4l1.2-.4c1.8-.3 2.2-1.3 1.2-3.3-.4-.8-.6-1.5-.4-1.6.2-.1 0-1-.5-1.8-.7-1.2-.8-1.9-.7-3l.2-1.4.7 1c.3.5 1 1 1.2 1 .8 0 1.8 2.5 2.1 5.5.6 5.4.5 11.7-.2 14.7-1 4.3-1.8 6.7-2.6 8.2a35.7 35.7 0 0 1-6.8 8.2l-3.4 2.2a8 8 0 0 1-2 1l-1 .4c-.5.2-2.8.4-4 .2zm5.3-4.6c0-.2.7-.4 1.2-.4.8 0 1-.1 1-.7 0-.3.2-.7.4-.8.3 0 .2-.5 0-1.2-.4-1-.4-1.2.2-1.6.5-.4.5-.6.2-.8-.3-.2-.6 0-.8.2-.2.4-.3.4-.5-.2-.1-.3 0-.7.1-.8.3-.2.2-.6-.2-1.1-1.3-1.7-4.6-.7-4.6 1.4 0 .6.2 1.1.6 1.4.6.3.6.3 0 .3-1.1 0-1 .7.2 2 .9.8 1.2 1.4 1 1.9 0 .5 0 .7.4.7.3 0 .7-.1.8-.3zm-.6-3.3c-.7-1.2-1.2-3.3-1-3.6.4-.4 2.4 1.6 2.8 2.6.9 2.2-.6 3-1.8 1zm-2.1 2c-.5-.6-.8-.4-.5.3.2.4.4.5.6.4.2-.1.1-.4-.1-.7zm-2.4-2.6c0-.2-.2-.4-.4-.4s-.3.2-.2.4c.1.2.3.3.4.3 0 0 .2-.1.2-.3zm3.1-4.6c0-.2-.2-.4-.5-.4s-.5.2-.5.4.2.4.5.4.5-.2.5-.4zm13.4-8.8c0-.2-.1-.4-.3-.4-.2 0-.3.2-.2.4.1.2.3.3.4.3l.1-.3zm-23.6 19.4c0-.2.2-.4.5-.5.4-.1.6 0 .6.3s-.3.5-.6.5-.5-.1-.5-.3zm-24.9-8.5c0-.2 0-.2.4-.1.6.2.7.5.2.5-.2 0-.4-.2-.6-.4zm-1.4-.3v-.6c.1-.2 0-.5-.2-.8-.4-.4-.2-.3.5.1.6.4.9.8.7.9l-.5.5c-.1.1-.3 0-.5-.1zm28.4-.9c-.2-.3-.5-1-.6-1.8-.1-1 0-1.2.4-1 .3.1.6 0 .6-.2s-.3-.5-.6-.6c-.5-.2-.7-1.4-.2-1.7.5-.3 1 .5 1.6 2.4.9 2.6.1 4.5-1.2 3zm17.7-5c-1.3-1.6-1.4-2.6-.3-2.6 2 0 3.4 2.3 2.3 3.5-.6.6-.8.5-2-1zm-49-.2c-.5-.8-.5-.8.2-.1.8.7 1 .9.5.9-.1 0-.5-.4-.7-.8zm15.6-2.2a6 6 0 0 1-.5-1.9c0-.6 0-.5.5 0 .5.7.6.7.7.2.3-.7 0-1.4-.5-1.1-.2 0-.4-.2-.4-.6 0-1.7 2.2 0 2.7 2.1.3 1.6 0 2.5-1.1 2.5-.7 0-1-.3-1.4-1.2zm-16 .6c0-.6.6-.9.9-.4.1.2 0 .3-.1.2a.5.5 0 0 0-.6.2c-.1.3-.2.3-.2 0zm48.3-2.8c0-.4.1-.5.2-.2v.7c-.1.1-.2-.1-.2-.5zm-18.3-8c-1-1-1.7-3-1.2-3.4.5-.5 2.9 1.3 3.1 2.3.2.8-.3 2-.9 2-.1 0-.6-.4-1-.9zm0-2.2c-.3-.3-.6-.4-.7-.3 0 0 0 .4.3.7.3.3.5.4.6.3.1 0 0-.4-.2-.7zm10.5 1.6c-.7-.5-.8-.8-.5-1.3.3-.3.8-.7 1.4-.7.7-.1 1 0 1.1.8.5 1.8-.5 2.5-2 1.2zm10.7-3.6c-.3-.3-.3-.8-.2-1.2.1-.5.1-.5-.2-.2-.2.4-.4.4-.6-.3-.3-1 0-1.3 1.2-.4 1 .7 1.5 2.5.7 2.5-.3 0-.7-.2-1-.4zm3-7.3c-.4-.1-.8-.6-1-1-.3-.6-.7-1-1-1-.9-.1-.8-.2.5-.7 1.6-.6 1.9-.5 2.1 1 .3 1.6.2 2-.6 1.7z" style="fill:#ef3b20;stroke-width:.352778" transform="translate(-44.6 -175.7)"/>
  <path d="M84 237.6c-5.2-.7-12.7-3-16.7-5.2a48.2 48.2 0 0 1-15.6-13.8c-1.3-1.8-2.3-4.4-1.7-4.4.1 0 .2-.6.2-1.3 0-.7 0-1.2.2-1.2.1 0 .2-.3.2-.8.1-.8.4-1.2.7-1l.3 1.7c.2 2.4 2.2 8.7 3.2 10.1.4.6.5.6.5.1 0-.3-.1-.6-.3-.8-.2 0-.4-.5-.3-1 0-.4-.3-1.5-.7-2.4l-.6-1.7-.4-2c-.6-2.8-.6-2.8.5-1.6.5.5.9 1.2.8 1.4 0 .3.2.8.5 1.2.4.4.7.8.6 1-.3.6 2.3 4.8 3.5 5.7.8.6 1.3 1.3 1.2 1.6-.1.4.8 1.5 1.4 1.5l1.3.8 1 .8-.5-1c-.4-.5-.8-.8-1-.7 0 0-.4 0-.6-.4-.3-.4-.3-.4.2-.3l.8.2h.5c.1 0 .2.1.1.4 0 .2.3.5.7.8.5.2 1.7 1.2 2.7 2.1a36.4 36.4 0 0 0 19.7 10c2.5.3 2.5.3.7.3l-3-.1zm7.2 0a5 5 0 0 1 1.6 0l-.8.1c-.9 0-1.2 0-.8-.2zm4.2-.7c1-.3 1.8-.4 1.8-.3.2.1-2.4.8-3 .8-.4 0 .2-.2 1.2-.5zm2.6-.9.9-.3c.2 0 .1.1-.2.3l-.9.4c-.2 0 0-.2.2-.4zm2.8-1.1 1.5-1.2a34.9 34.9 0 0 0 2.7-1.9c-1.7 1.7-4.2 3.5-4.2 3zm-4.1-9.9c-.6-.7-1.5-3-1.5-3.8 0-.6 0-.7.7-.3 1 .5 2.5 3 2.4 3.7-.2.8-1.1 1-1.6.4zm-37-3.8c0-.2 0-.2.4-.1.6.2.7.5.2.5-.2 0-.4-.2-.6-.4zm-1.4-.3v-.6c.1-.2 0-.5-.2-.8-.4-.4-.2-.3.5.1.6.4.9.8.7.9l-.5.5c-.1.1-.3 0-.5-.1zm28.4-.9c-.2-.3-.5-1-.6-1.8-.1-1 0-1.2.4-1 .3.1.6 0 .6-.2s-.3-.5-.6-.6c-.5-.2-.7-1.4-.2-1.7.5-.3 1 .5 1.6 2.4.9 2.6.1 4.5-1.2 3zm18.4-4.3c-.7-.5-1.8-2.2-1.8-3 0-.6 1.8-.3 2.7.6 1.5 1.5.8 3.6-.9 2.4zm-49.7-1c-.5-.7-.5-.7.2 0 .8.7 1 .9.5.9-.1 0-.5-.4-.7-.8zm15.6-2.1a6 6 0 0 1-.5-1.9c0-.6 0-.5.5 0 .5.7.6.7.7.2.3-.7 0-1.4-.5-1.1-.2 0-.4-.2-.4-.6 0-1.3 1.2-.7 2.1 1.1 1.1 2 .9 3.5-.5 3.5-.7 0-1-.3-1.4-1.2zm-16 .6c0-.6.6-.9.9-.4.1.2 0 .3-.1.2a.5.5 0 0 0-.6.2c-.1.3-.2.3-.2 0zm30-10.8c-1-1-1.7-3-1.2-3.4.5-.5 2.9 1.3 3.1 2.3.2.8-.3 2-.9 2-.1 0-.6-.4-1-.9zm0-2.2c-.3-.3-.6-.4-.7-.3 0 0 0 .4.3.7.3.3.5.4.6.3.1 0 0-.4-.2-.7zm10.5 1.7c-.7-.6-.8-.9-.5-1.4 1-1.4 2.8-.7 2.6 1-.2 1-1 1.2-2 .4zm10.7-3.7c-.3-.3-.3-.8-.2-1.2.1-.5.1-.5-.2-.2-.2.4-.4.4-.6-.3-.3-1 0-1.3 1.2-.4 1 .7 1.5 2.5.7 2.5-.3 0-.7-.2-1-.4z" style="fill:#7b8436;stroke-width:.352778" transform="translate(-44.6 -175.7)"/>
  <path d="M79.6 236.7c-9.3-2-19.7-7.7-22.4-12.4a33 33 0 0 1-3.5-8.7l-.6-2.3c-1.1-3-.2-1.7 1.7 2.2 1.7 3.6 4 7.1 4.5 7.1.2 0 .2.2 0 .4 0 .2 1.3 1.9 3.1 3.7 4.3 4.4 5.6 5.2 3.3 2-.5-.5-.7-1.1-.6-1.3.2-.1 0-.4-.3-.6-.4-.2-.7-.5-.7-.7 0-.2 1.1.6 2.5 1.8a42 42 0 0 0 15.4 8.8c3 .9 1.6.9-2.4 0zm17-11.7a11 11 0 0 1-1.4-3.8v-.7l1 .7c1.2.8 2.3 2.9 2 3.7-.2.7-1 .7-1.6 0zm-.6-3.5c-.3-.3-.5-.3-.5 0 0 .1.1.4.3.5.1.2.3.2.4 0 0 0 0-.3-.2-.5zm-43.5-1.8c-1.4-1.8-2.1-3.4-2.1-4.3 0-.3.1-.5.3-.4.5.3.5-.2 0-.7-.4-.4 0-3.3.4-3.3.2 0 .3.5.1 1.2 0 .8 0 1.3.2 1.3s.4 0 .3.2c-.1.6.9 4.3 1.2 4.5.2.1.3.5.3.8 0 .4.2 1 .5 1.6.8 1.5.4 1.2-1.2-.9zm34-.2c-.6-1.3-.6-2.2 0-2 .2 0 .4-.3.5-.6 0-.4 0-.6-.4-.6-.6 0-.7-.6-.3-1.4.4-.6 1.2.7 1.8 3 .7 2.5-.5 3.6-1.5 1.6zm18.6-3.8c-.4-.3-.9-.8-1.1-1.2-.3-.6-.3-.6.2-.5.4.2.6.1.4-.2 0-.3-.4-.5-.7-.4-.4 0-.6-.1-.6-.5 0-.8 1.7-.6 2.7.4 1.5 1.5.8 3.6-.9 2.4zm-33.7-2.4c-.3-.4-.5-1-.5-1.5 0-.6 0-.8.2-.5.3.8.8.4.7-.8 0-.6-.2-1-.5-1s-.5-.2-.5-.5c0-1 1.2-.3 2 1.1 1 1.6 1 2.7.4 3.3-.5.6-1.1.5-1.8-.1zm14.2-10.5c-.7-.4-1.9-2.4-1.6-2.7.2 0 .3 0 .3.2 0 .3.3.6.7.8.6.4.6.3.3-.5-.3-.5-.7-.9-1.1-.9-.4 0-.7-.2-.7-.4 0-.1.3-.3.6-.3 1.6 0 3.6 2.7 2.6 3.7-.4.3-.7.4-1.1.1zm10.3-.7c-1.2-.7-1.3-1.6-.2-2.1s2 .1 1.9 1.4c-.1 1-.6 1.2-1.7.7zm.2-1.4a.4.4 0 0 0-.6-.1c-.2.1-.2.4-.1.5.1.2.3.3.5.2.2-.1.3-.4.2-.6zm10.3-2.3a28 28 0 0 0-.2-1.4c0-.3-.3-.5-.6-.5s-.5-.1-.5-.3c0-.6 1.2-.4 1.9.3.7.8.7 2.1 0 2.1-.3 0-.5 0-.6-.2z" style="fill:#596223;stroke-width:.352778" transform="translate(-44.6 -175.7)"/>
  <path d="M96.8 224.9c-1-1-2.2-4.8-1.3-4.2.2 0 .2.5.2.8-.1.4 0 .8.2 1 .2 0 .3 0 .3-.4 0-.8.9-.3 1.6.9.3.6.5 1.3.4 1.7-.3.9-.7 1-1.4.2zm-10.3-5.6c-.6-1.5-.6-1.6 0-1.6.7 0 .8-1.1.2-1.7-.2-.2-.3-.6-.3-1 .2-.5.3-.5.8.4.7 1.4 1.3 4 1 4.6-.3.9-1.2.5-1.7-.7zm18.6-3.6c-1-.7-1.7-2-1-1.7.4.2.6 0 .6-.4s-.2-.5-.7-.4c-.5.1-.7 0-.6-.2.4-1.4 3.4.2 3.4 1.8 0 1.1-.8 1.5-1.7 1zM71.4 213c-.7-1-.8-2 0-1.1.4.6.5.5.5-1 0-1.3-.1-1.7-.6-1.7-.4 0-.5 0-.2-.4.5-.5 1-.1 1.9 1.5.8 1.6.9 2.5.2 3-.6.7-1.2.6-1.8-.3zm13.4-11c-.8-1-.7-1.5.2-.7.3.3.8.5 1 .4.2-.3-1.2-2.2-1.7-2.2a1 1 0 0 1-.6-.2c-.2-.2 0-.3.3-.3.6 0 2.3 1.2 2.7 2.1.9 1.6-.9 2.5-1.9 1zm11 0c-1.2-.7-1.2-1.5 0-2 1-.5 2 .2 1.8 1.4-.1 1.1-.6 1.2-1.8.6zm.4-1c0-.4-.2-.6-.5-.6s-.5.2-.5.5.2.6.5.6.5-.3.5-.6zm10.1-2.7c0-.2 0-.4.3-.4.2-.1 0-.5-.6-1.1-.8-.8-.8-1-.3-1 .9 0 1.8 1.1 1.8 2 0 .8-.8 1.1-1.2.5z" style="fill:#532710;stroke-width:.352778" transform="translate(-44.6 -175.7)"/>
</svg>