<?xml version="1.0" encoding="UTF-8" standalone="no"?>
<!-- Created with Inkscape (http://www.inkscape.org/) -->

<svg
   width="73.377777mm"
   height="73.377777mm"
   viewBox="0 0 73.377777 73.377777"
   version="1.1"
   id="svg5"
   sodipodi:docname="glass.svg"
   inkscape:version="1.1.1 (3bf5ae0d25, 2021-09-20)"
   xmlns:inkscape="http://www.inkscape.org/namespaces/inkscape"
   xmlns:sodipodi="http://sodipodi.sourceforge.net/DTD/sodipodi-0.dtd"
   xmlns="http://www.w3.org/2000/svg"
   xmlns:svg="http://www.w3.org/2000/svg">
  <sodipodi:namedview
     id="namedview7"
     pagecolor="#ffffff"
     bordercolor="#666666"
     borderopacity="1.0"
     inkscape:pageshadow="2"
     inkscape:pageopacity="0.0"
     inkscape:pagecheckerboard="0"
     inkscape:document-units="mm"
     showgrid="false"
     inkscape:zoom="2.8882212"
     inkscape:cx="111.83354"
     inkscape:cy="146.63004"
     inkscape:window-width="1920"
     inkscape:window-height="1009"
     inkscape:window-x="-8"
     inkscape:window-y="-8"
     inkscape:window-maximized="1"
     inkscape:current-layer="layer1" />
  <defs
     id="defs2" />
  <g
     inkscape:label="Layer 1"
     inkscape:groupmode="layer"
     id="layer1"
     transform="translate(384.56458,145.83536)">
    <g
       id="g2796">
      <path
         style="fill:#fefefe;stroke-width:0.352778"
         d="m -384.56458,-109.14647 v -36.68889 h 36.68889 36.68889 v 36.68889 36.688887 h -36.68889 -36.68889 z"
         id="path2828" />
      <path
         style="fill:#d2eaea;stroke-width:0.352778"
         d="m -350.69791,-82.909111 c -4.36563,-3.384508 -10.75532,-8.299076 -14.19931,-10.921259 -3.44399,-2.622184 -6.2618,-4.993425 -6.2618,-5.269428 0,-0.276003 -0.88329,-7.054722 -1.96286,-15.063832 -1.07958,-8.0091 -2.054,-15.39263 -2.16538,-16.40784 l -0.20252,-1.84584 3.13552,-1.45245 3.13551,-1.45245 4.5427,2.37713 4.54269,2.37714 -0.13297,-4.19413 -0.13297,-4.19412 2.29305,-1.128 c 1.26118,-0.6204 2.53118,-1.13301 2.82223,-1.13915 0.29104,-0.006 4.73604,1.81598 9.87777,4.04916 5.14174,2.23317 12.71972,5.52241 16.83996,7.30942 4.12024,1.78702 7.57561,3.4687 7.6786,3.73708 0.10299,0.26838 -0.85714,8.12801 -2.13361,17.46584 l -2.32086,16.977868 -1.59967,1.634437 c -2.68804,2.746449 -2.76351,2.755209 -5.92989,0.688168 -1.511,-0.986392 -2.86939,-1.793438 -3.01865,-1.793438 -0.14926,0 -0.38156,2.182812 -0.51624,4.850694 l -0.24486,4.850695 -2.50542,2.38125 c -1.37799,1.309687 -2.7525,2.366726 -3.05447,2.348978 -0.30198,-0.01775 -4.12093,-2.801416 -8.48655,-6.185923 z m -15.81694,-32.191229 c -0.25911,-0.16425 -0.45154,-0.4033 -0.42762,-0.53124 0.0239,-0.12793 -0.11645,-0.50706 -0.31192,-0.8425 -0.30297,-0.51991 -0.35698,-0.4711 -0.36613,0.33085 -0.01,0.87244 0.35305,1.26364 1.224,1.31906 0.19402,0.0123 0.14078,-0.11193 -0.11833,-0.27617 z"
         id="path2826" />
      <path
         style="fill:#c1dadd;stroke-width:0.352778"
         d="m -354.45563,-85.957954 c -6.6264,-5.089585 -13.0042,-9.96817 -14.17288,-10.841295 -1.16869,-0.873125 -2.22066,-1.950611 -2.33773,-2.394416 -0.3809,-1.444095 -2.93656,-22.769365 -2.9879,-24.932095 -0.0275,-1.15659 -0.17487,-2.18846 -0.32759,-2.29305 -0.39647,-0.27152 -1.18762,-5.0471 -0.94211,-5.68687 0.11285,-0.2941 1.51017,-1.10059 3.10514,-1.79219 l 2.89995,-1.25747 4.53541,2.26602 c 2.49447,1.24631 4.57289,2.21675 4.61872,2.15652 0.0458,-0.0602 -0.0279,-1.85575 -0.1639,-3.99006 -0.17061,-2.67791 -0.12605,-4.00073 0.14377,-4.26832 0.21505,-0.21327 1.42786,-0.81765 2.69513,-1.34307 l 2.30414,-0.95529 16.74587,7.27244 c 9.21022,3.99984 16.94439,7.46748 17.18704,7.70587 0.35265,0.34645 0.0215,3.47464 -1.65029,15.59006 -1.1503,8.33615 -2.20107,16.073519 -2.33503,17.19415 -0.23203,1.940941 -0.34609,2.128957 -2.40666,3.967162 -1.1897,1.061314 -2.24246,1.930139 -2.33948,1.930728 -0.097,7.06e-4 -1.52576,-0.862767 -3.17499,-1.918568 l -2.99862,-1.919633 -0.41971,5.182186 -0.41971,5.182182 -2.40251,2.192133 c -1.32138,1.205671 -2.56126,2.195403 -2.75529,2.199403 -0.19403,0.004 -5.77437,-4.156939 -12.40077,-9.246527 z m -2.83968,-18.254116 -0.14379,-1.43798 1.79632,0.91027 c 0.98797,0.50064 1.96433,0.80643 2.16967,0.67952 1.05147,-0.64984 -1.17476,-6.66024 -4.084,-11.02603 -0.69008,-1.03558 -1.25469,-1.96045 -1.25469,-2.05527 0,-0.81724 -7.46073,-9.00232 -9.26042,-10.15949 l -0.97014,-0.62379 v 1.45168 c 0,0.79843 -0.0722,1.45169 -0.16035,1.45169 -0.0882,0 -0.56578,-0.40542 -1.06129,-0.90094 -0.99449,-0.99449 -1.5977,-0.88015 -1.60598,0.3044 -0.004,0.62838 -0.0694,0.67396 -0.34738,0.24376 -0.2872,-0.44442 -0.34284,-0.42268 -0.34737,0.13572 -0.009,1.09723 0.8169,5.31897 1.07756,5.50873 0.13327,0.097 0.52825,2.24013 0.87774,4.7625 0.75102,5.42025 0.43782,5.00352 6.85967,9.12689 3.97481,2.55216 5.83522,3.47907 6.38547,3.18143 0.11703,-0.0633 0.14807,-0.7622 0.069,-1.55309 z"
         id="path2824" />
      <path
         style="fill:#afd0d4;stroke-width:0.352778"
         d="m -350.16875,-82.724559 c -4.26861,-3.293632 -10.58958,-8.141254 -14.0466,-10.772496 -3.45702,-2.631243 -6.4242,-5.125339 -6.59374,-5.542439 -0.60395,-1.485846 -1.81728,-12.136936 -1.57025,-13.784236 0.13315,-0.88792 0.35769,-1.61441 0.49898,-1.61441 0.14128,0 0.45558,0.66321 0.69844,1.4738 0.24286,0.81059 0.66398,1.81326 0.93583,2.22816 0.27185,0.4149 0.80061,3.02048 1.17502,5.79018 0.37441,2.7697 0.73247,5.074074 0.7957,5.120831 0.0632,0.04676 1.46433,1.101563 3.11357,2.344014 1.64923,1.242452 3.52588,2.527819 4.17032,2.856378 1.13359,0.577939 1.19657,0.572527 1.93534,-0.166246 0.41999,-0.419989 0.71324,-1.061008 0.65166,-1.424485 -0.0692,-0.408711 0.0359,-0.569489 0.27554,-0.421375 0.27161,0.167862 0.35119,-0.506434 0.26608,-2.254494 -0.0668,-1.371693 -0.0659,-2.493983 0.002,-2.493983 0.0679,0 1.3964,0.73959 2.95215,1.643545 3.31212,1.924474 3.84836,1.806205 3.27001,-0.721195 l -0.35817,-1.5652 1.8743,0.91925 c 1.03087,0.50558 1.99338,0.80016 2.13893,0.65462 0.14554,-0.14554 0.0122,-0.9666 -0.29634,-1.82457 -0.30852,-0.85797 -0.42317,-1.4748 -0.25476,-1.37072 0.1684,0.10408 0.30619,0.12863 0.30619,0.0546 0,-0.19697 -2.01115,-4.14003 -2.74151,-5.375 -0.34424,-0.58209 -1.32794,-2.24896 -2.186,-3.70417 -0.85807,-1.45521 -2.0054,-3.2243 -2.54964,-3.93132 -0.54423,-0.70702 -0.98952,-1.4011 -0.98952,-1.54241 0,-0.14131 -0.83343,-1.28673 -1.85208,-2.54538 -1.51801,-1.87568 -2.59213,-2.72693 -5.95495,-4.71939 -4.28045,-2.53616 -4.73232,-2.71631 -4.99156,-1.98997 -0.10933,0.30631 -0.42151,0.19858 -1.02228,-0.35278 -1.08653,-0.99718 -1.34569,-0.99718 -1.35979,0 -0.0109,0.77389 -0.0242,0.77662 -0.52917,0.10896 -0.45164,-0.59713 -0.51794,-0.60842 -0.51794,-0.0882 0,1.75426 -2.02787,-1.179 -2.18524,-3.16089 l -0.10782,-1.3578 2.99861,-1.4655 2.99861,-1.46551 4.49371,2.32226 c 2.47154,1.27724 4.57504,2.24093 4.67444,2.14153 0.34385,-0.34385 0.29655,-4.36168 -0.0712,-6.04784 -0.44878,-2.05768 -0.32397,-2.21645 2.77896,-3.53522 l 2.27095,-0.96516 10.38907,4.53096 c 5.71399,2.49203 13.30055,5.7905 16.85903,7.32994 3.55847,1.53945 6.59435,3.03711 6.74639,3.32816 0.15399,0.29478 -0.75963,8.08123 -2.06273,17.57985 l -2.33916,17.050695 -2.2149,1.95573 -2.21489,1.955733 -2.98262,-1.984897 c -1.64044,-1.091692 -3.04643,-1.984894 -3.12442,-1.984894 -0.078,0 -0.24366,1.627188 -0.36816,3.615972 -0.44086,7.04245 -0.30689,6.648362 -3.07929,9.058173 -1.35569,1.178387 -2.57271,2.132348 -2.70448,2.119912 -0.13177,-0.01244 -3.73209,-2.717401 -8.0007,-6.011033 z m -6.45583,-51.186911 c -0.32926,-0.32926 -0.42333,-0.23519 -0.42333,0.42333 0,0.65852 0.0941,0.75259 0.42333,0.42334 0.32926,-0.32926 0.32926,-0.51741 0,-0.84667 z"
         id="path2822" />
      <path
         style="fill:#8fcace;stroke-width:0.352778"
         d="m -347.34652,-80.615068 c -5.41974,-4.233616 -9.08372,-7.05019 -17.69447,-13.602088 l -5.70002,-4.337135 -0.38159,-2.385669 c -0.71872,-4.49332 -1.49641,-10.74468 -1.35434,-10.88674 0.0781,-0.0781 0.71066,0.37393 1.40567,1.00452 1.25411,1.13787 1.268,1.18232 1.83579,5.87576 0.31467,2.60107 0.65648,4.86568 0.75957,5.032485 0.43307,0.700737 17.2084,12.992463 17.73166,12.992463 0.14156,0 0.46763,-0.581452 0.72461,-1.292115 0.49707,-1.37461 0.55737,-3.449271 0.18143,-6.241687 l -0.23061,-1.712972 1.63008,0.955294 c 2.20173,1.290298 2.68737,1.058957 2.28609,-1.089011 -0.17187,-0.91996 -0.24903,-1.736111 -0.17148,-1.813666 0.0776,-0.07756 1.03018,0.360807 2.11695,0.974139 l 1.97593,1.115148 -0.002,-1.532981 c -0.004,-3.208857 -5.11468,-12.541037 -11.36707,-20.754597 -0.97759,-1.28423 -2.26665,-2.28347 -5.02765,-3.89728 -2.04214,-1.19364 -3.63149,-2.30211 -3.53188,-2.46328 0.32479,-0.52553 -1.87229,-1.77865 -4.93152,-2.81274 -1.64808,-0.55708 -3.35227,-1.26206 -3.78709,-1.56662 -1.00944,-0.70704 -1.2501,-0.69647 -1.44874,0.0636 -0.14847,0.56815 -0.16459,0.56626 -0.20225,-0.0238 -0.0294,-0.46078 -0.22777,-0.58184 -0.7051,-0.43034 -0.4884,0.15501 -0.85653,-0.093 -1.39098,-0.9371 -0.39974,-0.63135 -0.67649,-1.19821 -0.61501,-1.2597 0.0615,-0.0615 0.72712,0.23871 1.47918,0.6671 1.45034,0.82615 1.3187,0.57045 -0.3546,-0.68882 l -1.01642,-0.76492 2.71166,-1.23574 c 1.49141,-0.67966 2.90993,-1.23574 3.15227,-1.23574 0.24234,0 2.63875,1.11904 5.32535,2.48676 2.6866,1.36772 5.09891,2.40458 5.36067,2.30413 0.26177,-0.10045 0.47594,-0.0289 0.47594,0.15907 0,0.18794 0.23813,0.34171 0.52917,0.34171 0.29104,0 0.52917,0.14176 0.52917,0.31503 0,0.34375 1.07013,0.84909 1.30363,0.6156 0.29839,-0.29839 0.44833,-3.64549 0.24267,-5.41723 -0.16557,-1.42648 -0.37354,-1.8915 -0.92402,-2.06622 -0.40208,-0.12762 -0.82305,-0.0431 -0.97001,0.19465 -0.18196,0.29442 -0.33278,0.22951 -0.5041,-0.21695 -0.17646,-0.45985 -0.3187,-0.51693 -0.51136,-0.20521 -0.35305,0.57125 -1.9433,-1.54039 -1.67892,-2.22938 0.1044,-0.27205 1.2506,-0.97562 2.54711,-1.56348 l 2.3573,-1.06885 7.97649,3.45958 c 4.38707,1.90277 11.98612,5.19692 16.88679,7.32033 7.67889,3.32718 8.94252,3.98209 9.14344,4.73883 0.12822,0.48295 -0.7802,8.34108 -2.01871,17.4625 l -2.25185,16.584408 -1.77631,1.693658 c -2.68455,2.559625 -2.49283,2.54743 -5.78936,0.368321 -1.61232,-1.065798 -2.98645,-1.882863 -3.05361,-1.815697 -0.0672,0.06716 -0.29495,2.41918 -0.50621,5.226709 -0.23353,3.1037 -0.55313,5.260524 -0.81534,5.502395 -2.41935,2.2317 -4.54399,4.011542 -4.75651,3.984593 -0.14346,-0.01819 -2.48335,-1.769177 -5.19973,-3.891075 z"
         id="path2820" />
      <path
         style="fill:#90b9c5;stroke-width:0.352778"
         d="m -342.75632,-77.131889 c -0.0826,-0.242534 -0.19666,-0.862428 -0.25351,-1.37754 -0.0855,-0.774743 -2.14715,-2.48738 -11.93187,-9.911955 -12.16508,-9.230773 -13.14466,-9.921826 -13.52511,-9.541379 -0.12252,0.122526 -0.22277,0.02058 -0.22277,-0.226544 0,-0.254194 -0.2295,-0.361251 -0.52847,-0.246528 -1.05784,0.405934 -1.71599,-1.49504 -2.52988,-7.307175 -0.43642,-3.11654 -0.72972,-5.73021 -0.65177,-5.80815 0.3095,-0.30951 2.30804,1.44097 2.47012,2.16353 0.095,0.42368 0.41141,2.65725 0.70305,4.96348 0.29164,2.30623 0.70969,4.40936 0.929,4.673604 1.20543,1.452464 18.23082,13.622225 18.67409,13.348261 0.45547,-0.281496 1.13577,-5.12227 0.93041,-6.620514 -0.11822,-0.862531 -0.12178,-1.661407 -0.008,-1.775283 0.11388,-0.113877 0.83449,0.113047 1.60136,0.504278 1.00445,0.512431 1.51959,0.607353 1.84236,0.339482 0.46032,-0.382034 0.49716,-2.43754 0.0565,-3.150595 -0.36924,-0.597436 0.18355,-0.482678 1.47871,0.306987 0.63528,0.387329 1.2306,0.704236 1.32292,0.704236 0.0923,0 0.16786,-1.204517 0.16786,-2.676708 0,-2.376848 -0.13355,-2.920248 -1.19218,-4.850698 -0.65571,-1.19569 -1.9048,-3.52336 -2.77578,-5.17259 -2.47401,-4.68469 -2.88044,-5.40222 -3.35218,-5.91813 -0.24253,-0.26525 -0.44097,-0.69038 -0.44097,-0.94474 0,-0.25435 -0.67147,-1.13393 -1.49216,-1.95462 l -1.49216,-1.49217 2.10952,1.13466 c 1.16024,0.62406 3.62776,1.99123 5.48338,3.03816 1.85562,1.04693 3.50999,1.9035 3.67639,1.9035 0.16639,0 0.59413,-0.26389 0.95052,-0.58642 0.61231,-0.55414 0.61477,-0.62315 0.0447,-1.25311 -0.58351,-0.64476 -0.56911,-0.65381 0.43811,-0.27516 0.92363,0.34723 0.98159,0.332 0.51229,-0.13462 -0.29104,-0.28938 -1.3775,-0.85772 -2.41435,-1.26298 -1.03685,-0.40526 -2.06872,-0.94115 -2.29305,-1.19087 -0.22434,-0.24971 -0.96351,-1.06375 -1.6426,-1.80897 -0.6791,-0.74521 -1.01176,-1.22719 -0.73924,-1.07106 0.33663,0.19287 0.41292,0.1503 0.23798,-0.13277 -0.14163,-0.22915 -0.44397,-0.38657 -0.67187,-0.34982 -0.2279,0.0368 -0.82059,-0.048 -1.31707,-0.18834 -0.49648,-0.14035 -1.13148,-0.30098 -1.41111,-0.35696 -1.02982,-0.20618 -1.98837,-0.62444 -5.01688,-2.18908 -2.19849,-1.13583 -3.68296,-1.65836 -5.11528,-1.80058 -2.17901,-0.21635 -5.90545,-1.89484 -11.43584,-5.15102 l -3.06792,-1.80633 2.49802,-1.15707 c 1.37392,-0.63638 2.63754,-1.15706 2.80804,-1.15706 0.17051,0 2.5484,1.12133 5.2842,2.49184 2.73581,1.37051 5.19432,2.40737 5.46336,2.30413 0.26904,-0.10324 0.48916,-0.0339 0.48916,0.15399 0,0.18794 0.23813,0.34171 0.52917,0.34171 0.29104,0 0.52917,0.14176 0.52917,0.31503 0,0.37659 1.08053,0.83869 1.34432,0.57491 0.10175,-0.10175 0.23449,-1.69088 0.29497,-3.53141 l 0.10998,-3.3464 -1.31561,-0.69464 c -2.1375,-1.1286 -0.94057,-0.82275 1.43821,0.36751 1.20179,0.60133 4.24882,2.01779 6.77118,3.14768 2.52236,1.12989 7.84049,3.59162 11.81806,5.47052 9.25262,4.37069 9.818,4.60047 10.25192,4.16654 0.23104,-0.23104 -0.52113,-0.74449 -2.2171,-1.51344 -5.48212,-2.48559 -6.99856,-3.31352 -6.56256,-3.58298 0.23888,-0.14764 0.5855,-0.17501 0.77026,-0.0608 0.18476,0.11419 0.23481,0.044 0.11121,-0.156 -0.28214,-0.4565 -7.92458,-3.44285 -10.29123,-4.02138 -1.9252,-0.47062 -10.04959,-3.80779 -13.36833,-5.49116 l -2.07944,-1.05476 2.34739,-1.09847 2.34739,-1.09848 7.14038,3.09285 c 19.16315,8.30048 26.36677,11.50019 26.36677,11.71157 0,0.12717 -0.87312,0.81094 -1.94027,1.51948 -1.75146,1.16291 -2.43394,1.98663 -1.64599,1.98663 0.16186,0 1.19374,-0.63007 2.29306,-1.40014 1.85509,-1.2995 1.99876,-1.34516 1.99876,-0.63527 0,0.79354 -4.13079,31.638713 -4.40978,32.928388 -0.0869,0.401768 -1.12112,1.544955 -2.29825,2.54042 l -2.14023,1.809933 -3.01868,-1.947379 c -1.66028,-1.071055 -3.07283,-1.893231 -3.139,-1.827054 -0.0662,0.06618 -0.29316,2.417392 -0.50442,5.224921 -0.23353,3.1037 -0.55313,5.260524 -0.81534,5.502395 -2.56116,2.36251 -4.56159,4.01767 -4.85577,4.01767 -0.19807,0 -0.42769,-0.198438 -0.51027,-0.440973 z m 5.38188,-37.649431 c 2.26982,-1.59402 3.255,-2.47904 2.75964,-2.47904 -0.36343,0 -5.67807,3.58214 -5.79376,3.90508 -0.2426,0.6772 0.60948,0.27672 3.03412,-1.42604 z"
         id="path2818" />
      <path
         style="fill:#6fcacf;stroke-width:0.352778"
         d="m -342.58406,-77.220129 c -0.23742,-0.286074 -0.3425,-0.752524 -0.23351,-1.036556 0.10899,-0.284029 -0.0717,-0.823514 -0.4015,-1.198852 -0.88479,-1.006895 -25.0282,-19.10044 -25.55228,-19.149377 -0.24607,-0.02297 -0.54756,-0.02928 -0.66998,-0.01401 -0.12241,0.01528 -0.49732,-0.275819 -0.83313,-0.646878 -0.42092,-0.465112 -0.81408,-2.131698 -1.26583,-5.365858 -0.36041,-2.58016 -0.72963,-5.20741 -0.82048,-5.83832 -0.14307,-0.99348 -0.0849,-1.10417 0.43403,-0.82643 1.47468,0.78923 1.82895,1.6719 2.36166,5.88411 0.29237,2.31183 0.60576,4.53568 0.69641,4.94189 0.23949,1.073118 23.15804,18.012021 23.81835,17.603931 0.41492,-0.256437 1.50172,-5.417668 1.50548,-7.149585 0.003,-1.257561 0.10264,-1.475542 0.60344,-1.316598 0.53778,0.170685 0.62422,-0.311019 0.83155,-4.63411 0.12726,-2.653524 0.23138,-6.276538 0.23138,-8.051128 0,-3.01419 -0.0731,-3.34138 -1.11066,-4.97131 -0.61087,-0.95962 -1.50356,-2.45914 -1.98376,-3.33226 -0.48021,-0.87313 -1.2901,-2.04584 -1.79976,-2.60604 -0.88808,-0.97613 -0.8025,-0.95458 2.05561,0.51767 1.64025,0.8449 3.4005,1.52385 3.91168,1.50877 0.97579,-0.0288 6.33522,-3.42729 6.33522,-4.01726 0,-0.60937 -0.69671,-0.36673 -2.57069,0.89528 -1.01052,0.68052 -1.89094,1.07641 -1.95649,0.87975 -0.0655,-0.19666 -0.26831,-0.2654 -0.45058,-0.15276 -0.18226,0.11265 -0.30865,0.0739 -0.28087,-0.086 0.11658,-0.67106 -0.0574,-1.17274 -0.40663,-1.17274 -0.20548,0 -0.27549,0.15875 -0.15557,0.35277 0.31006,0.5017 -0.38646,0.43761 -0.95858,-0.0882 -0.69139,-0.63542 -1.95801,-1.32031 -2.47622,-1.33894 -0.24516,-0.009 -1.16013,-0.74136 -2.03325,-1.62788 -0.87313,-0.88652 -1.36454,-1.48979 -1.09202,-1.34058 0.33357,0.18263 0.41133,0.13514 0.23798,-0.14537 -0.14163,-0.22915 -0.44397,-0.38657 -0.67187,-0.34982 -0.2279,0.0368 -0.82059,-0.048 -1.31707,-0.18834 -0.49648,-0.14035 -1.13148,-0.30098 -1.41111,-0.35696 -1.02982,-0.20618 -1.98837,-0.62444 -5.01688,-2.18908 -2.19816,-1.13566 -3.68317,-1.65842 -5.11528,-1.8007 -1.43552,-0.14263 -3.0361,-0.70742 -5.5457,-1.95692 -2.69751,-1.34304 -8.18901,-4.42969 -8.90376,-5.0046 -0.0464,-0.0373 1.16382,-0.58314 2.68932,-1.21298 l 2.77363,-1.14515 6.74396,3.37554 c 3.70918,1.85654 6.82493,3.37553 6.92388,3.37553 0.099,0 0.17992,-0.89958 0.17992,-1.99908 0,-1.09949 0.10618,-1.89289 0.23595,-1.76311 0.12978,0.12977 0.51089,-0.0129 0.84692,-0.31697 0.46424,-0.42013 0.67483,-0.44959 0.87689,-0.12265 0.16982,0.27478 0.11874,0.33931 -0.14137,0.17855 -0.24376,-0.15065 -0.40728,-0.0225 -0.40728,0.31909 0,0.31395 0.15875,0.4727 0.35277,0.35278 0.19403,-0.11992 0.55122,-0.0896 0.79375,0.0674 0.24254,0.15698 1.03864,0.28541 1.76912,0.28541 1.14831,0 1.24666,-0.0597 0.72633,-0.44097 -0.33101,-0.24254 -0.41273,-0.44098 -0.18162,-0.44098 0.23111,0 0.4202,-0.24749 0.4202,-0.54998 0,-0.3259 -0.16595,-0.44743 -0.40728,-0.29827 -0.24737,0.15288 -0.31172,0.0971 -0.1639,-0.14209 0.15647,-0.25318 0.52238,-0.28649 1.02464,-0.0933 0.89779,0.34533 12.56702,5.7227 18.65083,8.59461 2.69411,1.27177 4.2308,1.82117 4.4581,1.59387 0.2273,-0.22731 0.42842,-0.21491 0.58346,0.0359 0.1506,0.24367 1.00841,-0.14132 2.36006,-1.05921 1.16791,-0.79311 2.20845,-1.35703 2.31231,-1.25317 0.10387,0.10387 -0.22711,3.2534 -0.7355,6.99897 -0.5084,3.74557 -1.53455,11.30079 -2.28035,16.78938 l -1.35599,9.979244 -1.90444,1.734594 c -1.04744,0.954028 -2.13336,1.741801 -2.41316,1.75061 -0.27979,0.0088 -1.75212,-0.800304 -3.27184,-1.798027 -1.51971,-0.997722 -2.82714,-1.750021 -2.90538,-1.671775 -0.0783,0.07825 -0.32369,2.43731 -0.54542,5.242366 l -0.40316,5.100098 -2.14277,1.951535 c -2.70097,2.459912 -2.9249,2.58651 -3.45191,1.951492 z m 14.33927,-48.161801 c -1.13571,-0.56363 -2.26983,-1.19483 -2.52027,-1.40267 -1.35282,-1.12275 -9.71817,-4.59515 -13.58285,-5.63816 -2.61996,-0.70708 -6.99818,-2.48971 -12.06478,-4.91228 l -3.49349,-1.67039 2.32976,-1.08245 2.32976,-1.08246 3.95007,1.67945 c 2.17253,0.92369 8.15694,3.53372 13.29868,5.80006 5.14173,2.26634 10.89642,4.77939 12.78819,5.58455 1.89177,0.80517 3.43958,1.55198 3.43958,1.65958 0,0.35969 -3.19556,2.13106 -3.80674,2.11017 -0.33164,-0.0114 -1.5322,-0.48177 -2.66791,-1.0454 z"
         id="path2816" />
      <path
         style="fill:#89b3b8;stroke-width:0.352778"
         d="m -342.58406,-77.220129 c -0.23742,-0.286074 -0.3425,-0.752524 -0.23351,-1.036556 0.10899,-0.284029 -0.0717,-0.823514 -0.4015,-1.198852 -0.88479,-1.006895 -25.0282,-19.10044 -25.55228,-19.149377 -0.24607,-0.02297 -0.54756,-0.02928 -0.66998,-0.01401 -0.12241,0.01528 -0.49732,-0.275819 -0.83313,-0.646878 -0.42092,-0.465112 -0.81408,-2.131698 -1.26583,-5.365858 -0.36041,-2.58016 -0.72963,-5.20741 -0.82048,-5.83832 -0.14307,-0.99348 -0.0849,-1.10417 0.43403,-0.82643 1.47468,0.78923 1.82895,1.6719 2.36166,5.88411 0.29237,2.31183 0.60576,4.53568 0.69641,4.94189 0.23949,1.073118 23.15804,18.012021 23.81835,17.603931 0.41492,-0.256437 1.50172,-5.417668 1.50548,-7.149585 0.003,-1.257561 0.10264,-1.475542 0.60344,-1.316598 0.53778,0.170685 0.62422,-0.311019 0.83155,-4.63411 0.12726,-2.653524 0.23138,-6.276538 0.23138,-8.051128 0,-3.01419 -0.0731,-3.34138 -1.11066,-4.97131 -0.61087,-0.95962 -1.50356,-2.45914 -1.98376,-3.33226 -0.48021,-0.87313 -1.2901,-2.04584 -1.79976,-2.60604 -0.88561,-0.97343 -0.79386,-0.94999 2.07196,0.52917 1.64923,0.85124 3.39548,1.55698 3.88055,1.56832 0.89903,0.021 6.02024,-3.26467 6.27373,-4.02513 0.22788,-0.68365 -0.6069,-0.45372 -2.15322,0.59309 -2.16395,1.46491 -2.50659,1.64643 -2.21392,1.17287 0.13845,-0.224 0.0892,-0.40728 -0.10947,-0.40728 -0.19865,0 -0.54191,-0.33769 -0.76279,-0.75042 -0.54712,-1.02229 0.27802,-1.56498 1.16248,-0.76456 0.5637,0.51014 0.62542,0.51128 0.62542,0.0115 0,-0.30494 0.19843,-0.63451 0.44097,-0.73238 0.24253,-0.0979 0.0838,-0.19047 -0.35278,-0.20579 -0.43656,-0.0153 -0.79375,-0.20358 -0.79375,-0.41837 0,-0.21478 -0.23812,-0.29914 -0.52917,-0.18746 -0.33309,0.12782 -0.52916,-0.004 -0.52916,-0.35561 0,-0.49958 0.0965,-0.49543 0.91255,0.0393 0.5019,0.32886 0.98532,0.52516 1.07427,0.43621 0.22582,-0.22582 -2.07616,-1.52217 -7.63127,-4.29752 -2.61937,-1.30865 -5.46009,-2.78687 -6.31271,-3.28493 -0.85262,-0.49807 -3.25937,-1.33384 -5.34833,-1.85727 -3.24706,-0.81361 -3.97994,-1.13351 -5.05127,-2.20484 -0.68923,-0.68923 -1.53553,-1.41118 -1.88067,-1.60433 -0.34514,-0.19315 -0.54168,-0.43702 -0.43677,-0.54194 0.10492,-0.10492 2.1445,0.7563 4.53239,1.91382 2.38789,1.15752 4.40416,2.10458 4.4806,2.10458 0.0764,0 0.13899,-0.89958 0.13899,-1.99908 0,-1.09949 0.10618,-1.89289 0.23595,-1.76311 0.12978,0.12977 0.51089,-0.0129 0.84692,-0.31697 0.46424,-0.42013 0.67483,-0.44959 0.87689,-0.12265 0.16982,0.27478 0.11874,0.33931 -0.14137,0.17855 -0.24376,-0.15065 -0.40728,-0.0225 -0.40728,0.31909 0,0.31395 0.15875,0.4727 0.35277,0.35278 0.19403,-0.11992 0.55122,-0.0896 0.79375,0.0674 0.24254,0.15698 1.03864,0.28541 1.76912,0.28541 1.14831,0 1.24666,-0.0597 0.72633,-0.44097 -0.33101,-0.24254 -0.41273,-0.44098 -0.18162,-0.44098 0.23111,0 0.4202,-0.24749 0.4202,-0.54998 0,-0.3259 -0.16595,-0.44743 -0.40728,-0.29827 -0.24737,0.15288 -0.31172,0.0971 -0.1639,-0.14209 0.15647,-0.25318 0.52238,-0.28649 1.02464,-0.0933 0.89929,0.34591 12.56824,5.72331 18.67852,8.60762 2.38459,1.12563 4.22964,1.80698 4.35294,1.60748 0.13558,-0.21938 0.39277,-0.19791 0.70183,0.0586 0.38304,0.3179 0.92566,0.0943 2.52623,-1.04121 1.12112,-0.79533 2.08728,-1.29944 2.14701,-1.12025 0.0597,0.1792 -0.3098,3.39389 -0.82117,7.14376 -0.51137,3.74987 -1.52887,11.22923 -2.2611,16.62081 l -1.33134,9.802854 -1.90444,1.734594 c -1.04744,0.954028 -2.13336,1.741801 -2.41316,1.75061 -0.27979,0.0088 -1.75212,-0.800304 -3.27184,-1.798027 -1.51971,-0.997722 -2.82714,-1.750021 -2.90538,-1.671775 -0.0783,0.07825 -0.32369,2.43731 -0.54542,5.242366 l -0.40316,5.100098 -2.14277,1.951535 c -2.70097,2.459912 -2.9249,2.58651 -3.45191,1.951492 z m 14.8167,-47.918121 c -2.76152,-1.33368 -4.15358,-2.34005 -4.36069,-3.1525 -0.34959,-1.37134 -10.1741,-5.80743 -14.33522,-6.47282 -0.98968,-0.15826 -2.61453,-0.99061 -4.78038,-2.44883 -1.8046,-1.215 -3.37256,-2.11763 -3.48434,-2.00584 -0.11179,0.11179 -0.20326,0.71933 -0.20326,1.35009 v 1.14685 l -2.50508,-1.11306 -2.50509,-1.11306 2.33695,-1.11608 2.33694,-1.11608 5.548,2.39818 c 3.0514,1.319 9.04051,3.92987 13.30912,5.80194 4.26861,1.87208 9.30892,4.06377 11.20069,4.87044 1.89177,0.80668 3.43958,1.55472 3.43958,1.66232 0,0.36373 -3.19907,2.131 -3.80674,2.10296 -0.33164,-0.0153 -1.31735,-0.37283 -2.19048,-0.79451 z m -42.51995,-4.99931 c -0.77048,-0.46442 -2.01203,-1.18148 -2.75898,-1.59345 l -1.35811,-0.74904 2.49342,-1.2096 c 1.37138,-0.66528 2.5643,-1.2096 2.65092,-1.2096 0.20393,0 0.70135,5.27839 0.51499,5.46475 -0.0777,0.0778 -0.77175,-0.23863 -1.54224,-0.70306 z"
         id="path2814" />
      <path
         style="fill:#5fb7c5;stroke-width:0.352778"
         d="m -342.58402,-78.078409 c 0,-0.792988 -0.35027,-1.316401 -1.49931,-2.240474 -2.526,-2.031435 -22.22807,-16.880205 -23.63611,-17.813715 -0.72761,-0.482392 -1.32292,-1.12178 -1.32292,-1.420858 0,-0.437099 0.15573,-0.402167 0.79375,0.178057 1.91282,1.73953 24.82098,18.451149 25.2927,18.451149 0.30777,0 1.0913,-17.923619 1.0795,-24.69444 l -0.009,-5.11528 -1.2313,-1.54895 c -0.6772,-0.85193 -1.23128,-1.61007 -1.23128,-1.68476 0,-0.0747 0.51593,0.13283 1.14652,0.46116 2.05291,1.06889 2.99965,0.88896 5.89354,-1.1201 1.46373,-1.01617 2.66133,-2.01086 2.66133,-2.21041 0,-0.19955 -3.175,-1.98118 -7.05556,-3.95917 -3.88056,-1.97799 -8.08743,-4.16621 -9.34861,-4.86272 -1.34003,-0.74004 -3.85612,-1.65916 -6.05389,-2.21145 -3.20658,-0.8058 -3.94552,-1.12977 -5.01398,-2.19823 -0.68923,-0.68923 -1.53553,-1.41118 -1.88067,-1.60433 -0.34514,-0.19315 -0.53713,-0.44158 -0.42664,-0.55207 0.11049,-0.11049 2.25229,0.81929 4.75956,2.06616 6.23362,3.10001 6.27747,3.11429 7.26811,2.3683 0.82023,-0.61767 2.82857,-0.71483 6.52007,-0.31543 1.23764,0.13391 1.43434,0.0701 1.2517,-0.40583 -0.18057,-0.47055 -0.0431,-0.45166 0.82466,0.11331 0.9868,0.64249 1.01363,0.6436 0.51219,0.0212 -0.47693,-0.592 -0.47111,-0.6351 0.059,-0.43666 0.35036,0.13115 0.66681,0.0152 0.78268,-0.28673 0.10698,-0.27879 0.0143,-0.50689 -0.20599,-0.50689 -0.22028,0 -0.31787,-0.0826 -0.21687,-0.18364 0.10101,-0.10101 3.81174,1.50649 8.24607,3.57221 5.04524,2.35031 8.11381,3.6017 8.19974,3.34392 0.10309,-0.30926 0.25819,-0.31163 0.62224,-0.009 0.37924,0.31474 0.92915,0.0866 2.52333,-1.04684 1.26989,-0.90287 2.07287,-1.28181 2.1298,-1.00508 0.0503,0.24431 -0.92355,7.85905 -2.16404,16.92164 l -2.25542,16.477448 -1.89291,1.765353 c -1.0411,0.970947 -2.13103,1.767611 -2.42208,1.77037 -0.29104,0.0028 -1.79916,-0.841717 -3.35138,-1.876619 l -2.82223,-1.881636 -0.23828,1.978265 c -0.13105,1.088044 -0.34548,3.486386 -0.4765,5.32965 l -0.23823,3.351389 -2.26744,2.028472 c -2.57652,2.304978 -3.30593,2.524236 -3.30593,0.993759 z m -27.99065,-22.160421 c -0.56124,-1.10647 -1.86558,-10.56623 -1.50642,-10.92539 0.12986,-0.12986 0.52983,0.0726 0.88883,0.44985 0.47982,0.50425 0.80454,1.85408 1.22583,5.09568 0.66109,5.08673 0.70636,6.349996 0.22758,6.349996 -0.18905,0 -0.56516,-0.436562 -0.83582,-0.970136 z m 43.3556,-25.90379 c -1.15365,-0.57727 -2.2649,-1.26173 -2.46945,-1.52102 -0.50802,-0.64397 -2.73007,-1.941 -3.32807,-1.94262 -0.26771,-7.4e-4 -2.01396,-0.76457 -3.88056,-1.69742 -3.56411,-1.7812 -7.13993,-3.07193 -9.60055,-3.46539 -0.9522,-0.15227 -2.6271,-1.01676 -4.78584,-2.47019 -3.3905,-2.28275 -3.51426,-2.29702 -3.72073,-0.42903 l -0.10337,0.93513 -2.29305,-1.17147 -2.29306,-1.17148 2.26724,-1.03914 2.26725,-1.03914 1.43692,0.62851 c 0.79031,0.34568 5.80255,2.53598 11.13832,4.86732 5.33576,2.33135 12.22653,5.34816 15.31283,6.70402 l 5.61144,2.4652 -1.20172,0.73262 c -1.51197,0.92175 -1.79431,0.89675 -4.3576,-0.3859 z m -43.06824,-3.99494 c -0.77048,-0.46442 -2.00999,-1.18044 -2.75445,-1.59113 l -1.35357,-0.74673 2.52884,-1.21191 c 1.39087,-0.66656 2.58174,-1.21192 2.64639,-1.21192 0.1772,0 0.63806,5.30172 0.47503,5.46475 -0.0777,0.0778 -0.77175,-0.23863 -1.54224,-0.70306 z"
         id="path2812" />
      <path
         style="fill:#71aeb2;stroke-width:0.352778"
         d="m -342.58402,-78.078409 c 0,-0.792988 -0.35027,-1.316401 -1.49931,-2.240474 -2.526,-2.031435 -22.22807,-16.880205 -23.63611,-17.813715 -0.72761,-0.482392 -1.32292,-1.12178 -1.32292,-1.420858 0,-0.437099 0.15573,-0.402167 0.79375,0.178057 1.91282,1.73953 24.82098,18.451149 25.2927,18.451149 0.30777,0 1.0913,-17.923619 1.0795,-24.69444 l -0.009,-5.11528 -1.2313,-1.54895 c -0.6772,-0.85193 -1.23128,-1.60922 -1.23128,-1.68287 0,-0.0737 0.60417,0.17432 1.3426,0.55104 0.73843,0.37672 1.65124,0.65775 2.02847,0.62453 0.62617,-0.0552 0.69095,0.20061 0.74428,2.93819 0.0321,1.64924 0.0718,3.22351 0.0882,3.49838 0.0458,0.76872 0.39368,0.2343 0.58417,-0.89746 0.47518,-2.82312 2.34801,-6.79682 3.96591,-8.41472 0.68296,-0.68296 1.1756,-1.30695 1.09476,-1.38663 -0.0808,-0.0797 -2.68699,-1.44712 -5.79144,-3.03873 -11.20872,-5.74659 -15.199,-7.90148 -13.51626,-7.29926 0.32716,0.11709 0.96216,-0.0637 1.41111,-0.40173 0.81797,-0.61589 2.83035,-0.71277 6.51799,-0.31379 1.23764,0.13391 1.43434,0.0701 1.2517,-0.40583 -0.18057,-0.47055 -0.0431,-0.45166 0.82466,0.11331 0.9868,0.64249 1.01363,0.6436 0.51219,0.0212 -0.47693,-0.592 -0.47111,-0.6351 0.059,-0.43666 0.35036,0.13115 0.66681,0.0152 0.78268,-0.28673 0.10698,-0.27879 0.0143,-0.50689 -0.20599,-0.50689 -0.22028,0 -0.31787,-0.0826 -0.21687,-0.18364 0.10101,-0.10101 3.80004,1.50104 8.22008,3.56011 6.14301,2.8617 8.10392,3.63456 8.32285,3.28033 0.51592,-0.83478 0.78,0.63872 0.53268,2.97214 -0.12762,1.20401 -0.71327,6.36502 -1.30145,11.46891 -0.58818,5.10389 -1.01033,9.457042 -0.93812,9.673672 0.1751,0.525293 1.54592,-3.720222 1.84831,-5.724302 0.13174,-0.87313 0.37336,-2.8575 0.53692,-4.40972 0.48105,-4.56514 1.68378,-10.87515 2.47697,-12.99512 0.79079,-2.11357 2.07642,-3.98908 2.09502,-3.05627 0.006,0.29104 -1.00242,7.94402 -2.24049,17.00661 l -2.25105,16.47745 -1.89291,1.765353 c -1.0411,0.970946 -2.13103,1.76761 -2.42208,1.770369 -0.29104,0.0028 -1.79916,-0.841717 -3.35138,-1.876619 l -2.82223,-1.881635 -0.23828,1.978264 c -0.13105,1.088045 -0.34548,3.486387 -0.4765,5.329651 l -0.23823,3.351389 -2.26744,2.028472 c -2.57652,2.304976 -3.30593,2.524234 -3.30593,0.993757 z m -27.99065,-22.160421 c -0.56124,-1.10647 -1.86558,-10.56623 -1.50642,-10.92539 0.12986,-0.12986 0.52983,0.0726 0.88883,0.44985 0.47982,0.50425 0.80454,1.85408 1.22583,5.09568 0.66109,5.08673 0.70636,6.349996 0.22758,6.349996 -0.18905,0 -0.56516,-0.436562 -0.83582,-0.970136 z m 43.3556,-25.90379 c -1.15365,-0.57727 -2.2649,-1.26173 -2.46945,-1.52102 -0.57067,-0.72339 -2.75681,-1.93782 -3.54689,-1.97035 -1.16634,-0.048 -3.86989,-1.88351 -3.99074,-2.70938 -0.0769,-0.52531 -0.29018,-0.69548 -0.70555,-0.56282 -0.4919,0.15711 -0.50633,0.12711 -0.0831,-0.17261 0.28178,-0.19953 0.67865,-0.25866 0.88195,-0.1314 0.20329,0.12726 0.52837,0.25899 0.7224,0.29274 0.19402,0.0337 3.36902,1.40266 7.05555,3.04205 3.68653,1.63939 6.9409,3.06031 7.23195,3.15761 0.37605,0.12571 0.17189,0.39634 -0.70556,0.93529 -1.54613,0.94967 -1.81758,0.92741 -4.3906,-0.36011 z m -43.4249,-4.1216 c -0.96818,-0.59042 -1.0588,-0.79711 -0.93207,-2.12597 0.11525,-1.20855 0.32883,-1.56943 1.19342,-2.01653 0.57918,-0.29951 1.09572,-0.49316 1.14786,-0.43035 0.0521,0.0628 0.18691,1.26515 0.29947,2.67185 0.22689,2.83543 0.0841,2.99428 -1.70868,1.901 z m 25.94328,-5.11848 c -2.25447,-0.49303 -5.92375,-2.3684 -7.11307,-3.63549 l -0.82443,-0.87834 1.76389,0.697 c 2.94933,1.16542 9.34861,4.01418 9.34861,4.16171 0,0.2269 -1.1135,0.10595 -3.175,-0.34488 z m -12.7,-2.52349 -2.29306,-1.16992 2.28207,-1.04587 c 1.25514,-0.57523 2.49876,-0.96272 2.76361,-0.86109 0.29855,0.11457 0.3443,0.2696 0.12041,0.40798 -0.19862,0.12275 -0.41037,1.0367 -0.47055,2.031 l -0.10943,1.80782 z"
         id="path2810" />
      <path
         style="fill:#51a8b5;stroke-width:0.352778"
         d="m -342.59652,-78.366611 c -0.0121,-1.285787 -0.14649,-1.421931 -4.78649,-4.850694 -2.6257,-1.940278 -4.96164,-3.751178 -5.19098,-4.024217 -0.22934,-0.273043 1.88484,1.182225 4.69816,3.233928 2.81333,2.051706 5.15994,3.685582 5.21468,3.630838 0.13385,-0.133848 0.68743,-13.588732 0.98048,-23.830824 0.13046,-4.55966 0.30316,-8.40241 0.38378,-8.53946 0.0806,-0.13704 0.39233,-0.15487 0.6927,-0.0396 0.43856,0.1683 0.5336,0.77319 0.48256,3.0714 -0.035,1.57401 -0.0477,3.08673 -0.0283,3.3616 0.0539,0.76325 0.39841,0.23896 0.58969,-0.89746 0.48353,-2.87274 2.41123,-6.9301 3.92339,-8.25778 0.64167,-0.5634 1.16171,-1.22765 1.15564,-1.47611 -0.006,-0.24846 -2.07901,-1.48362 -4.60654,-2.7448 -2.52754,-1.26119 -5.81664,-2.96502 -7.30911,-3.7863 l -2.71359,-1.49324 2.29305,0.15244 c 2.44546,0.16256 3.1427,0.27102 3.70417,0.57616 0.19403,0.10546 0.79463,0.21871 1.33467,0.25169 0.54005,0.033 1.41317,0.27848 1.94028,0.54558 0.52711,0.26709 1.23619,0.44123 1.57574,0.38697 0.33955,-0.0543 0.61736,0.0554 0.61736,0.24373 0,0.18831 0.14779,0.25105 0.3284,0.13942 0.18063,-0.11163 0.42759,-0.0425 0.54882,0.15367 0.12123,0.19615 0.56876,0.54223 0.99451,0.76907 0.67225,0.35816 0.71663,0.34271 0.33725,-0.11749 -0.37313,-0.45261 -0.25734,-0.53666 0.79375,-0.57618 0.67683,-0.0254 1.23061,0.10267 1.23061,0.2847 0,0.18203 0.23721,0.23994 0.52714,0.12868 0.28993,-0.11125 0.44609,-0.33343 0.34702,-0.49372 -0.0991,-0.16029 -0.0308,-0.38372 0.15172,-0.49652 0.1825,-0.11279 0.38353,0.005 0.44672,0.26104 0.0775,0.31452 0.40174,0.3894 0.99684,0.23021 l 0.88195,-0.23591 -0.97014,-0.39355 c -0.53358,-0.21645 -0.97014,-0.44626 -0.97014,-0.51069 0,-0.33901 2.22562,0.11486 3.6475,0.74383 0.92832,0.41063 1.71856,0.57921 1.83465,0.39137 0.11216,-0.18148 0.37521,-0.32996 0.58455,-0.32996 0.4582,0 0.29781,2.00216 -1.15778,14.45281 -0.57772,4.94162 -1.00229,9.22787 -0.94348,9.525 0.13807,0.697685 1.53649,-3.56326 1.84884,-5.63337 0.13174,-0.87313 0.37336,-2.8575 0.53692,-4.40972 0.48105,-4.56514 1.68378,-10.87515 2.47697,-12.99512 0.73393,-1.96162 2.07388,-3.97639 2.0962,-3.15189 0.006,0.23846 -0.86547,6.82658 -1.93761,14.64028 -1.07214,7.8137 -2.09317,15.2939 -2.26895,16.622669 -0.17578,1.32877 -0.37014,2.442934 -0.4319,2.475922 -0.0618,0.03298 -0.93894,0.811124 -1.94927,1.729193 -2.23074,2.027029 -2.92553,2.136877 -2.92553,0.46253 0,-1.060171 -0.13157,-1.23559 -1.08356,-1.444685 -0.59596,-0.130891 -1.17666,-0.144882 -1.29046,-0.03108 -0.11379,0.113795 -0.41994,0.03009 -0.68033,-0.186013 -0.26039,-0.216112 -0.47343,-0.303526 -0.47343,-0.19426 0,0.109265 -0.43656,-0.02882 -0.97014,-0.30685 l -0.97014,-0.50551 -0.24663,1.672961 c -0.13565,0.920129 -0.35524,3.339835 -0.48798,5.377127 l -0.24136,3.704167 -2.28219,2.028472 c -2.71664,2.414612 -3.26347,2.532214 -3.28072,0.705555 z m -11.32139,-9.877777 c -0.43881,-0.559527 -0.42633,-0.572005 0.13319,-0.133195 0.33955,0.266294 0.61736,0.544107 0.61736,0.617361 0,0.29035 -0.28969,0.103473 -0.75055,-0.484166 z m -1.41111,-1.058334 c -0.43881,-0.559526 -0.42634,-0.572004 0.13319,-0.133194 0.33955,0.266294 0.61736,0.544106 0.61736,0.617361 0,0.29035 -0.2897,0.103473 -0.75055,-0.484167 z m -15.04771,-41.013518 c -1.03811,-0.63293 -1.11533,-0.78801 -0.74591,-1.49799 0.4418,-0.84909 1.70639,-2.17815 1.87822,-1.97396 0.25961,0.30851 0.53137,4.18046 0.29334,4.17929 -0.14722,-7.4e-4 -0.78876,-0.31903 -1.42565,-0.70734 z m 25.67604,-5.06646 c -2.25447,-0.49303 -5.92375,-2.3684 -7.11307,-3.63549 l -0.82443,-0.87834 1.76389,0.697 c 2.94933,1.16542 9.34861,4.01418 9.34861,4.16171 0,0.2269 -1.1135,0.10595 -3.175,-0.34488 z m -11.90625,-2.24895 c -1.37199,-0.68282 -1.43742,-1.24211 -0.28062,-2.39891 1.44136,-1.44136 1.95631,-1.15856 1.95631,1.07437 0,1.06715 -0.11906,1.93012 -0.26458,1.91771 -0.14552,-0.0124 -0.78052,-0.27933 -1.41111,-0.59317 z"
         id="path2808" />
      <path
         style="fill:#4f98a5;stroke-width:0.352778"
         d="m -342.59652,-78.366611 c -0.0121,-1.285787 -0.14649,-1.421931 -4.78649,-4.850694 -2.6257,-1.940278 -4.96164,-3.751178 -5.19098,-4.024217 -0.22934,-0.273043 1.8849,1.183343 4.6983,3.236415 l 5.11528,3.732854 0.22072,-2.001693 c 0.1214,-1.100931 0.4061,-7.716692 0.63266,-14.701692 0.45002,-13.874612 0.58533,-15.698612 1.16453,-15.698612 0.27588,0 0.32104,2.05355 0.15712,7.14375 -0.67803,21.054847 -0.67497,19.984498 -0.0526,18.432639 0.93153,-2.322865 1.49448,-5.062438 1.92103,-9.348611 0.22205,-2.231319 0.5481,-5.168198 0.72456,-6.526388 0.17645,-1.35819 0.42135,-3.58069 0.54421,-4.93889 0.28943,-3.19955 1.03598,-5.81254 2.11489,-7.40241 0.84797,-1.24955 1.12024,-2.29642 0.5986,-2.30161 -0.14552,-0.001 -3.43958,-1.66402 -7.32014,-3.69459 l -7.05555,-3.69194 1.97227,0.0786 c 1.63121,0.065 1.94617,0.17848 1.82135,0.65615 -0.083,0.31766 0.0198,0.68309 0.22855,0.81208 0.23007,0.14219 0.30086,0.0297 0.17982,-0.28576 -0.19729,-0.51411 0.63496,-0.61784 1.11395,-0.13884 0.1216,0.1216 0.4437,0.13566 0.71577,0.0313 0.45365,-0.17408 0.67025,0.28377 0.51655,1.0919 -0.0339,0.17837 0.16032,0.14006 0.43165,-0.0851 0.27133,-0.22519 0.62324,-0.29175 0.78202,-0.14791 0.15878,0.14384 0.15016,0.0234 -0.0192,-0.26764 -0.16931,-0.29104 0.18148,-0.13229 0.77953,0.35277 0.59805,0.48507 1.00533,1.0407 0.90508,1.23473 -0.10026,0.19402 0.0191,0.16674 0.26523,-0.0606 0.24613,-0.22737 0.70599,-0.33146 1.02189,-0.2313 0.4809,0.15246 0.491,0.12306 0.062,-0.18068 -0.28177,-0.19953 -0.62098,-0.29563 -0.75378,-0.21356 -0.1328,0.0821 -0.45787,-0.11762 -0.72239,-0.44377 -0.41408,-0.51056 -0.40738,-0.54818 0.0482,-0.27062 0.81823,0.49849 1.54339,0.52141 1.83794,0.0581 0.20035,-0.31514 0.26928,-0.30496 0.27332,0.0404 0.003,0.25399 0.15319,0.37046 0.3338,0.25883 0.18063,-0.11163 0.42759,-0.0425 0.54882,0.15367 0.12123,0.19615 0.56876,0.54223 0.99451,0.76907 0.67225,0.35816 0.71663,0.34271 0.33725,-0.11749 -0.37313,-0.45261 -0.25734,-0.53666 0.79375,-0.57618 0.67683,-0.0254 1.23061,0.10267 1.23061,0.2847 0,0.18203 0.23721,0.23994 0.52714,0.12868 0.28993,-0.11125 0.44609,-0.33343 0.34702,-0.49372 -0.0991,-0.16029 -0.0308,-0.38372 0.15172,-0.49652 0.1825,-0.11279 0.38353,0.005 0.44672,0.26104 0.0775,0.31452 0.40174,0.3894 0.99684,0.23021 l 0.88195,-0.23591 -0.97014,-0.39355 c -0.53358,-0.21645 -0.97014,-0.44626 -0.97014,-0.51069 0,-0.33901 2.22562,0.11486 3.6475,0.74383 0.92832,0.41063 1.71856,0.57921 1.83465,0.39137 0.11217,-0.18148 0.36891,-0.32996 0.57054,-0.32996 0.24053,0 0.2827,0.75821 0.12262,2.20486 -0.13418,1.21267 -0.784,6.88798 -1.44404,12.6118 -1.15807,10.042795 -1.38083,12.783042 -0.94635,11.641668 0.11079,-0.291041 0.30506,-0.608541 0.4317,-0.705555 0.8255,-0.632354 1.91251,-4.597333 2.68658,-9.799603 0.48276,-3.24445 1.11743,-7.32776 1.41039,-9.07401 0.62701,-3.73755 2.04025,-8.47095 2.19922,-7.36594 0.0592,0.41137 -0.69966,6.682 -1.68631,13.93472 -0.98664,7.25273 -1.93664,14.27395 -2.11109,15.602719 -0.17446,1.32877 -0.36773,2.442934 -0.42949,2.475922 -0.0618,0.03298 -0.93894,0.811124 -1.94927,1.729193 -2.23074,2.027029 -2.92553,2.136877 -2.92553,0.46253 0,-1.060171 -0.13157,-1.23559 -1.08356,-1.444685 -0.59596,-0.130891 -1.17666,-0.144882 -1.29046,-0.03108 -0.11379,0.113795 -0.41994,0.03009 -0.68033,-0.186013 -0.26039,-0.216112 -0.47343,-0.303526 -0.47343,-0.19426 0,0.109265 -0.43656,-0.02882 -0.97014,-0.30685 l -0.97014,-0.50551 -0.24663,1.672961 c -0.13565,0.920129 -0.35524,3.339835 -0.48798,5.377127 l -0.24136,3.704167 -2.28219,2.028472 c -2.71664,2.414612 -3.26347,2.532214 -3.28072,0.705555 z m 2.48194,-43.291059 c 0,-0.0902 -0.35719,-0.33707 -0.79375,-0.54863 -0.76222,-0.36937 -0.76655,-0.36286 -0.10896,0.16398 0.71976,0.57664 0.90271,0.6546 0.90271,0.38465 z m -13.80333,33.413282 c -0.43881,-0.559527 -0.42633,-0.572005 0.13319,-0.133195 0.33955,0.266294 0.61736,0.544107 0.61736,0.617361 0,0.29035 -0.28969,0.103473 -0.75055,-0.484166 z m -1.41111,-1.058334 c -0.43881,-0.559526 -0.42634,-0.572004 0.13319,-0.133194 0.33955,0.266294 0.61736,0.544106 0.61736,0.617361 0,0.29035 -0.2897,0.103473 -0.75055,-0.484167 z m -14.76591,-40.931788 -0.87617,-0.71251 0.64263,-1.34762 c 0.55191,-1.15735 0.6909,-1.26139 0.98444,-0.73687 0.18799,0.33592 0.29308,1.26298 0.23354,2.06013 l -0.10826,1.44938 z m 13.65957,-7.35648 c -0.81066,-0.42475 -0.9353,-0.66843 -0.75007,-1.46647 0.2085,-0.8983 1.01774,-1.83901 1.58201,-1.83901 0.28641,0 0.59003,3.53714 0.31803,3.7051 -0.0978,0.0604 -0.61525,-0.11946 -1.14997,-0.39962 z"
         id="path2806" />
      <path
         style="fill:#4d8b97;stroke-width:0.352778"
         d="m -342.49345,-80.54931 c 0.21454,-3.893397 0.40508,-4.516089 1.18408,-3.869577 0.6529,0.541859 0.62571,0.581035 1.66599,-2.40096 1.02247,-2.930962 1.43435,-5.462362 2.1713,-13.344813 0.79822,-8.53767 1.78099,-13.23445 3.0555,-14.60247 0.37372,-0.40114 0.51953,-0.72934 0.32404,-0.72934 -0.1955,0 -0.25897,-0.25144 -0.14104,-0.55875 0.17263,-0.44987 0.27253,-0.46705 0.51269,-0.0882 0.16406,0.2588 0.30072,0.33205 0.30369,0.16277 0.003,-0.16928 0.274,-0.0899 0.60228,0.17639 0.32829,0.26629 0.48879,0.30372 0.35666,0.0832 -0.13212,-0.22055 -0.0163,-0.58681 0.25731,-0.81391 0.40652,-0.33739 0.46281,-0.28017 0.30775,0.3128 -0.20174,0.77144 0.38523,1.00272 0.80814,0.31843 0.16754,-0.27108 0.0953,-0.31064 -0.21584,-0.11832 -0.25716,0.15894 -0.16262,-0.11768 0.21008,-0.6147 0.37269,-0.49701 0.82074,-0.81641 0.99565,-0.70977 0.17492,0.10664 0.0162,0.42009 -0.35277,0.69657 -0.65427,0.49028 -0.65341,0.49983 0.0347,0.38712 0.38806,-0.0635 0.83316,-0.27431 0.98911,-0.46833 0.1603,-0.19945 0.23492,-0.0464 0.17168,0.35214 -0.0617,0.3888 -0.38485,0.70521 -0.72058,0.70556 -0.91886,9.5e-4 -0.90908,0.61816 0.012,0.75873 0.49443,0.0755 0.88766,-0.0925 1.01924,-0.4354 0.16886,-0.44005 0.27445,-0.46078 0.49872,-0.0979 0.41773,0.6759 0.49565,0.46324 1.23534,-3.37109 0.37126,-1.9245 0.85951,-3.56026 1.08498,-3.63504 0.27947,-0.0927 0.36317,0.29122 0.26297,1.20603 -0.0808,0.73809 -0.70506,6.26323 -1.38713,12.27809 -0.68208,6.01486 -1.33464,11.769546 -1.45014,12.788192 -0.14508,1.279514 -0.085,1.852083 0.19449,1.852083 0.22247,0 0.496,-0.277812 0.60783,-0.617361 0.11184,-0.339549 0.56993,-1.411111 1.01799,-2.38125 1.3179,-2.853474 1.82282,-5.031014 2.6279,-11.333194 0.72927,-5.70869 2.14802,-12.94197 2.39383,-12.20455 0.0647,0.19397 -0.3636,3.82306 -0.95168,8.06465 -0.58809,4.24159 -1.45762,10.78342 -1.93231,14.537404 -0.47469,3.753982 -0.91371,6.852521 -0.97561,6.88564 -0.0619,0.03313 -0.93918,0.811371 -1.94951,1.72944 -2.18198,1.98272 -3.07984,2.174991 -2.8502,0.610344 0.18616,-1.268387 -0.1965,-1.66117 -3.06089,-3.141891 -1.71596,-0.887057 -2.15495,-0.995698 -2.38222,-0.58958 -0.15325,0.273826 -0.45564,3.011487 -0.67199,6.083691 -0.21635,3.072204 -0.41435,5.591225 -0.43999,5.597822 -0.0256,0.0066 -1.04787,0.919412 -2.2716,2.028472 -3.19434,2.895011 -3.38903,2.803048 -3.15251,-1.489142 z m 13.49137,-24.01105 c 0.11992,-0.19403 0.0499,-0.35278 -0.15557,-0.35278 -0.20548,0 -0.3736,0.15875 -0.3736,0.35278 0,0.19403 0.07,0.35278 0.15557,0.35278 0.0856,0 0.25368,-0.15875 0.3736,-0.35278 z m 0.10826,-1.59683 c -0.10862,-0.10862 -0.30588,0.0872 -0.43836,0.43509 -0.19144,0.50278 -0.15092,0.5433 0.19749,0.19748 0.24109,-0.2393 0.34948,-0.52396 0.24087,-0.63257 z m -0.009,-1.48998 c -0.0661,-0.92529 -0.47216,-1.48218 -1.08934,-1.4939 -0.15653,-0.003 -0.0375,0.34742 0.26458,0.77865 0.62244,0.88866 0.72319,1.48181 0.19639,1.15623 -0.19403,-0.11992 -0.35278,-0.0499 -0.35278,0.15556 0,0.20548 0.23635,0.3736 0.52522,0.3736 0.35457,0 0.50271,-0.31519 0.45593,-0.97014 z m 0.27878,-2.58693 c 0,-0.33939 -0.19447,-0.52148 -0.45155,-0.42283 -0.24835,0.0953 -0.37209,0.30183 -0.27499,0.45896 0.0971,0.15713 -0.0229,0.36244 -0.2666,0.45625 -0.24375,0.0938 -0.12,0.15552 0.27498,0.13714 0.42583,-0.0198 0.71816,-0.27607 0.71816,-0.62952 z m 0.38482,-2.17557 c -0.0979,-0.24253 -0.17793,-0.0441 -0.17793,0.44098 0,0.48507 0.0801,0.6835 0.17793,0.44097 0.0979,-0.24254 0.0979,-0.63941 0,-0.88195 z m -0.0936,-0.91134 c 0.0999,-0.16169 -0.0425,-0.29398 -0.31644,-0.29398 -0.27397,0 -0.41637,0.13229 -0.31644,0.29398 0.0999,0.16169 0.24233,0.29398 0.31644,0.29398 0.0741,0 0.21651,-0.13229 0.31644,-0.29398 z m -1.3934,-1.14726 c -0.11358,-0.18378 -0.35689,-0.24122 -0.54067,-0.12764 -0.18379,0.11359 -0.24123,0.35689 -0.12764,0.54068 0.11359,0.18379 0.35689,0.24122 0.54068,0.12764 0.18378,-0.11359 0.24122,-0.35689 0.12763,-0.54068 z m -11.71047,21.725965 c 0.004,-0.776111 0.0762,-1.052072 0.16054,-0.613248 0.0844,0.438824 0.0812,1.073824 -0.007,1.411111 -0.0883,0.337288 -0.15734,-0.02177 -0.15343,-0.797863 z m 7.31937,-24.497235 c 0,-0.18258 0.13229,-0.41372 0.29398,-0.51365 0.16169,-0.0999 0.29399,0.0495 0.29399,0.33196 0,0.28251 -0.1323,0.51365 -0.29399,0.51365 -0.16169,0 -0.29398,-0.14938 -0.29398,-0.33196 z m -22.01649,-20.42996 c -0.10225,-0.16544 0.0421,-0.60201 0.32074,-0.97014 0.48005,-0.63419 0.50724,-0.6184 0.51787,0.30081 0.0108,0.93111 -0.44969,1.29862 -0.83861,0.66933 z"
         id="path2804" />
      <path
         style="fill:#398c96;stroke-width:0.352778"
         d="m -342.07904,-80.115362 c 0.13708,-1.689414 0.33498,-3.210405 0.43978,-3.379971 0.10479,-0.169569 0.5636,-0.214676 1.01957,-0.100235 0.72379,0.18166 0.8728,0.03975 1.17388,-1.117945 0.53115,-2.042287 1.35773,-8.445564 1.96996,-15.260736 0.67995,-7.569041 1.60987,-12.362491 2.58805,-13.340661 l 0.70992,-0.70992 0.38303,1.02807 c 0.21068,0.56543 0.56935,1.52434 0.79706,2.1309 0.48978,1.30467 0.63523,5.95122 0.20468,6.53868 -0.17374,0.23704 -0.14194,0.50736 0.0755,0.64173 0.20661,0.1277 0.28545,0.37814 0.17519,0.55653 -0.11025,0.1784 0.0856,0.23385 0.43522,0.12322 0.57087,-0.18064 0.57858,-0.15325 0.0756,0.26862 -0.30808,0.25838 -0.48592,0.69031 -0.39521,0.95985 0.10961,0.32572 0.002,0.40568 -0.32182,0.23843 -0.29589,-0.15299 -0.27204,-0.0685 0.0608,0.21547 0.56141,0.47895 0.77762,2.152179 0.23474,1.816663 -0.16567,-0.102394 -0.21285,-0.416486 -0.10483,-0.697983 0.11834,-0.30839 0.0456,-0.41859 -0.18307,-0.27727 -0.20871,0.12898 -0.30381,0.523835 -0.21135,0.877442 0.0925,0.353603 -0.0468,0.949833 -0.30958,1.324955 -0.26275,0.37512 -0.36426,0.807717 -0.22559,0.961323 0.13867,0.15361 0.0537,0.165097 -0.18885,0.02554 -0.24253,-0.13959 -0.44097,-0.0763 -0.44097,0.140632 0,0.21693 -0.14394,0.305456 -0.31988,0.196723 -0.17593,-0.108733 -0.23502,0.126785 -0.13131,0.52337 0.10371,0.396586 0.0492,0.695505 -0.1211,0.664267 -1.47448,-0.270468 -1.61302,0.849037 -0.19577,1.581929 0.94365,0.487977 2.14085,1.619822 1.71337,1.619822 -0.10968,0 -0.75016,-0.32494 -1.42327,-0.72209 -0.67312,-0.397147 -1.31313,-0.577639 -1.42224,-0.401091 -0.10911,0.176548 -0.37159,3.0018 -0.58329,6.278337 l -0.38491,5.957344 -2.34182,2.204861 c -1.288,1.212673 -2.49007,2.204861 -2.67126,2.204861 -0.19792,0 -0.22994,-1.226234 -0.0802,-3.071668 z m 12.13455,-9.275554 c 0.10226,-1.072282 0.009,-1.411111 -0.38845,-1.411111 -0.28766,0 -0.73325,-0.277813 -0.99018,-0.617361 -0.39742,-0.525205 -0.39334,-0.551537 0.0274,-0.176389 0.72685,0.648148 1.05584,0.541059 1.08376,-0.352778 0.0231,-0.73938 0.0433,-0.746301 0.29563,-0.101018 0.21488,0.549589 0.31998,0.385502 0.5086,-0.794103 0.22113,-1.38285 0.28756,-1.455966 0.94985,-1.045506 0.57814,0.358302 0.76816,0.351243 1.01014,-0.03753 0.87592,-1.407262 2.38951,-8.419648 3.22479,-14.940258 0.69816,-5.45019 2.06337,-12.42825 2.37127,-12.12035 0.11196,0.11196 -2.87603,23.288716 -3.6506,28.316434 -0.12522,0.812825 -0.7345,1.629279 -2.1719,2.910416 -1.09884,0.979365 -2.08945,1.780664 -2.20136,1.780664 -0.11192,0 -0.14293,-0.635 -0.0689,-1.411111 z m 0.11617,-5.291667 c 0,-0.485069 0.0801,-0.683507 0.17793,-0.440972 0.0979,0.242535 0.0979,0.63941 0,0.881944 -0.0979,0.242535 -0.17793,0.0441 -0.17793,-0.440972 z m 0.36585,-3.351389 c 0.007,-0.582083 0.0863,-0.777501 0.17569,-0.434258 0.0894,0.343242 0.0836,0.819492 -0.0131,1.058333 -0.0966,0.238841 -0.16982,-0.04199 -0.16263,-0.624075 z m 0.35277,-3.174998 c 0.007,-0.58208 0.0863,-0.7775 0.1757,-0.43426 0.0894,0.34324 0.0836,0.81949 -0.0131,1.05833 -0.0966,0.23884 -0.16981,-0.042 -0.16262,-0.62407 z m 0.38009,-2.99861 c 0,-0.87313 0.0688,-1.23032 0.15288,-0.79375 0.0841,0.43656 0.0841,1.15093 0,1.5875 -0.0841,0.43656 -0.15288,0.0794 -0.15288,-0.79375 z m 0.6504,-0.039 c -0.0225,-0.50649 -0.11492,-1.69712 -0.20537,-2.64583 -0.13717,-1.43897 -0.11013,-1.54948 0.16311,-0.6666 0.23686,0.76532 0.27752,0.2926 0.14686,-1.70738 -0.13738,-2.10286 -0.0789,-2.70278 0.24418,-2.50313 0.2763,0.17076 0.33272,0.11348 0.16134,-0.1638 -0.4052,-0.65565 0.53448,-7.7327 1.0877,-8.19184 0.64224,-0.53301 0.64045,-0.49669 -0.40865,8.30395 -0.93938,7.88017 -1.12349,9.05284 -1.18917,7.57463 z m 0.54549,-6.75201 c -0.0979,-0.24254 -0.17794,-0.0441 -0.17794,0.44097 0,0.48507 0.0801,0.6835 0.17794,0.44097 0.0979,-0.24254 0.0979,-0.63941 0,-0.88194 z"
         id="path2802" />
      <path
         style="fill:#3c7b88;stroke-width:0.352778"
         d="m -342.23125,-78.050278 c 0,-0.553622 0.10199,-1.982372 0.22665,-3.175 0.21841,-2.089627 0.26278,-2.168416 1.22112,-2.168416 0.87501,0 1.04027,-0.180114 1.37558,-1.499306 0.39506,-1.554243 0.50654,-1.845676 1.72329,-4.505187 0.40129,-0.877122 0.88414,-2.782122 1.07301,-4.233333 0.18886,-1.451208 0.43573,-3.273563 0.54858,-4.049674 0.11286,-0.776111 0.28183,-2.363606 0.3755,-3.527776 0.19241,-2.3914 0.59881,-6.52266 0.69408,-7.05556 0.0347,-0.19402 0.0872,-0.78934 0.11679,-1.32291 0.0743,-1.34179 0.59008,-1.22127 0.69552,0.16253 0.0475,0.62297 0.26033,1.24022 0.47302,1.37167 0.21268,0.13145 0.2844,0.40453 0.15936,0.60684 -0.12504,0.20231 -0.0668,0.46703 0.1293,0.58826 0.19614,0.12122 0.53207,0.54822 0.7465,0.94889 0.31387,0.58647 0.29705,0.6726 -0.0863,0.4418 -0.39386,-0.23713 -0.39699,-0.18895 -0.0181,0.2788 0.32354,0.39936 0.34441,0.63574 0.0711,0.80468 -0.26938,0.16648 -0.27552,0.37358 -0.0202,0.68123 0.20176,0.24311 0.254,0.55487 0.11607,0.69279 -0.13792,0.13792 0.0619,0.15005 0.44404,0.0269 0.61701,-0.19877 0.63209,-0.17124 0.13467,0.24594 -0.30807,0.25837 -0.48592,0.6903 -0.39521,0.95985 0.10962,0.32571 0.002,0.40567 -0.32181,0.23842 -0.2959,-0.15299 -0.27205,-0.0685 0.0608,0.21548 0.56141,0.47895 0.77761,2.152173 0.23474,1.816657 -0.16568,-0.102394 -0.21285,-0.416486 -0.10484,-0.697977 0.11835,-0.30839 0.0456,-0.4186 -0.18307,-0.27728 -0.20871,0.12899 -0.30381,0.523839 -0.21134,0.877446 0.0925,0.353603 -0.0468,0.949833 -0.30959,1.324956 -0.26274,0.375119 -0.36426,0.807716 -0.22559,0.961322 0.13867,0.153611 0.0537,0.165097 -0.18884,0.02554 -0.24255,-0.139605 -0.44099,-0.07631 -0.44099,0.140617 0,0.21693 -0.14394,0.305456 -0.31988,0.196723 -0.17593,-0.108733 -0.23502,0.126785 -0.13131,0.52337 0.10371,0.396586 0.0492,0.695505 -0.1211,0.664267 -1.47448,-0.270468 -1.61302,0.849037 -0.19577,1.581929 0.94365,0.487977 2.14085,1.619822 1.71337,1.619822 -0.10968,0 -0.7709,-0.337182 -1.46937,-0.74929 -0.69848,-0.412107 -1.33928,-0.679958 -1.42402,-0.59522 -0.0847,0.08474 -0.32514,2.922231 -0.53422,6.305539 l -0.38015,6.151471 -2.3448,2.204861 c -1.28963,1.212673 -2.47121,2.204861 -2.62571,2.204861 -0.15451,0 -0.28093,-0.452963 -0.28093,-1.006584 z m 12.28676,-11.340638 c 0.10226,-1.072282 0.009,-1.411111 -0.38845,-1.411111 -0.28766,0 -0.73325,-0.277813 -0.99018,-0.617361 -0.39742,-0.525205 -0.39334,-0.551537 0.0274,-0.176389 0.72685,0.648148 1.05584,0.541059 1.08376,-0.352778 0.0231,-0.73938 0.0433,-0.746301 0.29563,-0.101018 0.21429,0.548069 0.33019,0.363894 0.55501,-0.881944 0.15629,-0.866073 0.34911,-1.313911 0.42849,-0.995201 0.23534,0.944895 1.44732,0.351734 1.86457,-0.91254 0.20703,-0.627335 0.78577,-1.682154 1.28608,-2.34405 l 0.90965,-1.203441 -0.22752,2.469444 c -0.37197,4.037457 -0.47693,4.287629 -2.58844,6.169589 -1.09095,0.972351 -2.07512,1.767911 -2.18704,1.767911 -0.11192,0 -0.14293,-0.635 -0.0689,-1.411111 z m 0.11617,-5.291667 c 0,-0.485069 0.0801,-0.683507 0.17793,-0.440972 0.0979,0.242535 0.0979,0.63941 0,0.881944 -0.0979,0.242535 -0.17793,0.0441 -0.17793,-0.440972 z m 0.36585,-3.351389 c 0.007,-0.582083 0.0863,-0.777501 0.17569,-0.434258 0.0894,0.343242 0.0836,0.819492 -0.0131,1.058333 -0.0966,0.238841 -0.16982,-0.04199 -0.16263,-0.624075 z m 0.35277,-3.174998 c 0.007,-0.58208 0.0863,-0.7775 0.1757,-0.43426 0.0894,0.34324 0.0836,0.81949 -0.0131,1.05833 -0.0966,0.23884 -0.16981,-0.042 -0.16262,-0.62407 z m 0.38009,-2.99861 c 0,-0.87313 0.0688,-1.23032 0.15288,-0.79375 0.0841,0.43656 0.0841,1.15093 0,1.5875 -0.0841,0.43656 -0.15288,0.0794 -0.15288,-0.79375 z m 0.33854,-3.175 c 0,-0.6791 0.0726,-0.95691 0.16134,-0.61736 0.0887,0.33954 0.0887,0.89517 0,1.23472 -0.0887,0.33955 -0.16134,0.0617 -0.16134,-0.61736 z m 0.35278,-3.52778 c 0,-0.6791 0.0726,-0.95691 0.16133,-0.61736 0.0887,0.33955 0.0887,0.89517 0,1.23472 -0.0887,0.33955 -0.16133,0.0617 -0.16133,-0.61736 z"
         id="path2800" />
      <path
         style="fill:#2b666f;stroke-width:0.352778"
         d="m -341.87847,-77.23715 c 0,-0.825846 1.62287,-4.510652 2.28363,-5.185089 0.42842,-0.437286 0.95086,-1.271316 1.16098,-1.853399 0.21012,-0.582084 0.70992,-1.931459 1.11068,-2.998612 l 0.72865,-1.940277 -0.21987,3.880555 c -0.12093,2.134306 -0.3801,4.083022 -0.57593,4.330481 -0.63767,0.805784 -4.48814,4.037002 -4.48814,3.766341 z m 12.23758,-11.529748 c 0.38964,-1.727204 1.59066,-3.883353 2.26072,-4.058578 0.38524,-0.100743 1.0185,-0.758243 1.40725,-1.46111 l 0.70682,-1.277941 -0.21498,1.931458 c -0.24175,2.17206 -0.32414,2.303995 -2.65998,4.259675 -1.4775,1.23703 -1.65859,1.310259 -1.49983,0.606496 z"
         id="path2798" />
    </g>
  </g>
</svg>
