<svg xmlns="http://www.w3.org/2000/svg" width="277.3" height="277.3" viewBox="0 0 73.4 73.4">
  <path d="M44.5 210v-36.7h73.4v73.3H44.5Z" style="fill:#fefefe;stroke-width:.352778" transform="translate(-44.5 -173.2)"/>
  <path d="M77.4 241.3a479.8 479.8 0 0 1-17-14.5c-.3-.6-2.2-7.3-2.4-8.8-.1-1 0-1.3.7-1.7.5-.3 1-.7 1-.9 0-.6-2.4-9.2-3.6-12.9a54.2 54.2 0 0 0-5.8-12c-.9-1.3-1.5-2.6-1.5-2.7.3-.2 3 2.7 4.5 4.8 1.7 2.4 3.7 6.9 4.6 10.2.5 1.6.9 2.9 1 2.8a64 64 0 0 0-3-11.7c-.7-1.9-1.2-3.5-1-3.6 0 0 1 1 1.9 2.4l1.8 2.5.2-1.4c.5-2.9 1-5 1.2-5l.9 1.4c.6 1.4 1.5 1.6 1.1.3-.3-1.2.4-.7 1.5 1l1 1.7v-2.8c.1-3.7.5-7.6.8-7.6.4 0 2.2 4.5 3.2 7.7.9 3 2.8 7 2.8 5.8 0-1.5-1-5.7-2.3-9.1-.7-2-1.1-3.6-1-3.6.1-.2 1.8 2.5 2.8 4.6l.7 1.2c-.2-.7.3-.9.6-.2.3.6 0-2.8-.7-6.2l-.4-3.6c0-1 2.6 4.1 3.5 7l1 2.7c0 .3.3-.3.4-1.3.4-2.5 1.4-6.4 1.8-6.4.1 0 .6 1 1 2.2.4 1.2.7 2 .7 1.7a138.8 138.8 0 0 1 1-8.3c.1-1.9 1.8 4.7 2.6 10v-7.9l.8 1.8 1.4 3.7 1 2.4c.3.3.7 1 1 1.7l.5 1 .8-4.4c.3-2.4.6-4.3.8-4.3l1 2c2.8 7 3 7.7 3.2 11.6.2 2.1.3 3 .3 2.1.1-2.2.4-3.4.8-3.1.2 0 .3 0 .3-.3 0-.8 3.2-7 3.6-7 .3 0 .4 1.6.2 5.6l-.1 5.5 1.2-5.9c.7-3.2 1.4-5.9 1.5-5.9.3 0 1.4 5.7 1.4 7.5 0 .7.1 1.3.3 1.3l1.4-1.8 1.1-1.9v6.1c.1 0 2.6-2.7 4.2-4.8 1.8-2.3 2.9-3.2 2.4-2l-2.1 8-3.5 12.8a21 21 0 0 0-1.3 5.7c.2.3.3 1 .1 1.8a36 36 0 0 1-3 8.2 930.4 930.4 0 0 1-21.2 17.7c-.1 0-1.8-1.3-3.7-3z" style="fill:#d2d8a7;stroke-width:.352778" transform="translate(-44.5 -173.2)"/>
  <path d="M70.9 235.7a122 122 0 0 1-10.5-9.4c-.4-.9-2-6-2.4-8.2-.2-.7 0-1 .8-1.8l1.1-.9-1.5-5.3c-2.7-9.8-4.4-14-7.4-18.7-2-3-2-3.6-.4-1.7a32 32 0 0 1 7.5 14l1 3.3a82.7 82.7 0 0 0-3.4-14.2l-1-2.4 1.2 1.4 1.9 2.5c.8 1.5 1.2 1.5 1.2.1 0-1.3.6-4.6 1-5 .1-.2.6.5 1 1.5.8 1.5 1 1.7 1.2 1.2.1-.4.1-1 0-1.6 0-.6.2-.3 1 1l1.3 2 .2-4.3.5-5.4.2-1 .7 1.5c.4.8 1.3 3.2 2 5.4 1.2 3.6 3.1 7.8 3.4 7.5.3-.3-1-6.2-2.1-9.3l-1.1-3.6c.1-.2 2.5 4 3 5.3.4 1.1.7 1.3.4.2-.1-.5 0-.7.2-.5.6.3.6-1.4-.2-6-.4-2.1-.7-3.9-.6-4 .2-.2 3.4 7 3.8 8.6.5 2.3 1 2.8 1 1.2 0-1.5 1.3-6.7 1.7-7.2.2-.2.6.6 1 1.9.7 2.4 1.2 2.8 1.2.9 0-2.3.8-7.7 1-7.2a57 57 0 0 1 2 8.5l.5 3-.2-4.8-.1-4.8.7 1.6 1.4 3.7a11 11 0 0 0 1 2.3l.9 1.7c.3.8.7 1.4.8 1.4l.6-3.7c.9-5.7.8-5.6 2.3-1.8 2.2 5.1 2.8 7.7 2.9 12.1v3.9l.5-3.7.4-3.4c0 .2 1-1.3 2-3.3l1.7-3.7.3 1.4c.2.8.2 3.3 0 5.6a22 22 0 0 0 0 4.1c.2-.1.8-2.7 1.4-5.7.6-3 1.3-5.6 1.4-5.6.2 0 1.3 5.5 1.5 7.6 0 1 0 1 1.3-.8l1.3-1.9v2.9l.1 2.8c.4 0 2.6-2.5 4.5-5.1a8 8 0 0 1 1.7-1.9c.2.2-3.1 13.2-5.2 20.3-1.2 4.1-1.7 6.3-1.4 6.5.4.4.2 3-.3 3.7l-1 2.8c-.5 1.3-1.1 2.7-1.4 3.1a551 551 0 0 1-21.2 17.9c-.2 0-4.8-3.8-10.3-8.5z" style="fill:#cfd768;stroke-width:.352778" transform="translate(-44.5 -173.2)"/>
  <path d="M70.9 235.7a122 122 0 0 1-10.5-9.4c-.4-.9-2-6-2.4-8.2-.2-.7 0-1 .8-1.8l1.1-.9-1.5-5.3a67 67 0 0 0-7.6-19.4l.7.2c.9.5 3.5 4.5 4.7 7.2l2 5.6c.4 1.9 1 3.4 1 3.3a79 79 0 0 0-3.6-14.9c-.2-.4.4 0 1.2 1l1.4 2c0 .2.2.4.3.4.2 0 .4-1 .6-2 0-1.2.4-2.6.6-3.3l.4-1.2 1 2c.5 1 1 1.7 1 1.5l.6.2c.6.4.6.4.3 0-.5-.7-1-2.8-.6-2.3l1.3 1.7.9 1.4v-2l.4-5.3.4-3.2.6 1.2c1 2 3.2 8.5 3 8.8-.3.5.2 2.8.6 2.8.2 0 .2-.4.1-1s0-.4.7.8c.5 1 1 1.7 1 1.6.3-.3-.8-6-1.7-8.4-1-3-1-2.9-.4-2.6.3 0 1 1.1 1.5 2.2l1 2.1v-.5c-.2-.4-.1-.5.1-.4.6.4.6-1 0-5.5-.4-2-.5-3.6-.4-3.7.2-.3 3 5.6 3.4 7.5.5 2.2 1 2.8 1 1.2 0-1.5.9-5.4 1.5-6.6l.5-1 .7 2.3c.7 2.5 1.2 2.8 1.2.8 0-1.2.2-2.4 1-5.3.2-1.2.3-1.2 1 2 .5 1.8.9 4.2.9 5.4.1 3.5.6 2.3.6-1.4 0-2 .1-3.6.3-3.7.2-.1.6.4.9 1.3l1 3.1c.6 1.3.6 1.9.3 3-.2.7-.3 1.4-.2 1.5l.4-.9c.4-1.6.5-1.7 1.2-.5l.6 1.2.2-1 .4-2.8.6-3.3c.4-1.5.4-1.5.8-.7.3.4.6 1.6.7 2.6.3 2 .5 2.5 1 1.9 0-.3.5.4 1 2 .6 1.8.8 3.7 1 7l.2 4.6.3-3.4c.2-2 .4-3.5.6-3.5l.9-1.5c.3-.8 1-2.4 1.7-3.4l1-2 .3 1.3c.2.7.2 3.1.1 5.4-.1 4.7 0 4.6 1.5-2.2.5-2.3 1-4.3 1.2-4.3.4 0 1 3 1.3 5.5.2 2.3.6 2.9 1 1.7 0-.4.6-1.1 1-1.7l1-1-.2 2.9c-.2 2-.4 3.2-.8 3.7a54.6 54.6 0 0 0 4.2-4.5c2.7-3.4 3.2-3.8 2.9-3l-1.8 7a325 325 0 0 1-3.4 12.6c-1.2 4.1-1.7 6.3-1.4 6.5.4.4.2 3-.3 3.7l-1 2.8c-.5 1.3-1.1 2.7-1.4 3.1a551 551 0 0 1-21.2 17.9c-.2 0-4.8-3.8-10.3-8.5zm11.5-24.1v-.3c-.3-.9-.4-.8-1.2.7-1 2-1 2.3 0 .7.5-.8 1-1.2 1.2-1.1zM93 208c.1-.5-1.5.8-2.7 2.3L89 212l2-1.8 2-2zm-20.4-1.2c-.3-.5-1-1.2-1.3-1.5-.5-.4-.6-.4-.3.2l.2 1c0 .3.1.3.3 0 .2-.4.4-.3.9.4l.8 1-.6-1zm21.7-4.6c1-1.5 1.1-2 .5-1.6-.3.2-1.9 3-1.6 3l1-1.4zm-30.2-.3-1.3-1.4h-.3c-.2.3 2 2.7 2.5 2.7.2 0-.2-.6-.9-1.3zm14.1.2c0-.7-.5-.2-.6.5 0 .6 0 .7.3.3l.3-.8zm23.8-2.5c1.1-1.5 2-2.9 1.9-3-.2-.2-2 2.2-3.3 4.5-1.2 2.1-1 1.8 1.4-1.5zm-15.9 1.7c.2-.3.1-.5 0-.3-.3 0-.4.3-.4.5 0 .5.2.4.4-.2zm-12.4-2.8c-.5-.7-.9-1.2-1-1.1l.6 1.4c.4.7.9 1.2 1 1.1l-.6-1.4zm-10.5.3c-.6-.7-1.2-1.1-1.2-.7 0 .2 1.5 1.6 1.7 1.6l-.5-.9zm26.5-.5c-.7-1.5-1-1.3-.3.2.4.7.7 1.1.8 1l-.5-1.2zm-11-.7c-.2-.6-.6-1-.7-1-.2.3.8 2 1.2 2l-.4-1zm6-.9c0-.3-.3-.5-.4-.4l.1.6c.4.5.6.4.3-.2zm-7.8-1.5.7-1.6.5 1c.5 1.3.7.3.1-1l-.3-1-.7 1.3c-1 1.7-1.5 3-1.2 3l1-1.7zm19.2 1c0-.2 0-.4-.2-.4s-.4.2-.4.4.1.3.2.3l.4-.3zm-24.8-4.4c-.1-.3-.3-.5-.4-.4l.1.5c.4.6.6.5.3-.1zM92 190c0-.2-.2-.1-.3.2l-.4.9c0 .2.2 0 .4-.2l.3-.9zm-15.2-.4c-.3-.5-.5-.7-.6-.5 0 .2 0 .6.3 1 .6.7.7.6.3-.5zm3 0c0-.6-.3-1.2-.5-1.4-.4-.3-.1 1.4.3 2 .3.7.5.3.3-.6zm4.2-6.7c-.1-.3-.3-.4-.4-.3l.1.5c.4.6.6.5.3-.2z" style="fill:#abae92;stroke-width:.352778" transform="translate(-44.5 -173.2)"/>
  <path d="M78 241.6a5515.3 5515.3 0 0 0-17.4-15c-.5-.9-2.4-8-2.4-8.9 0-.5.4-1.2 1-1.6l.8-.7-1.7-6.2a61.6 61.6 0 0 0-7.5-18.5c0-.6 1.3.6 2.7 2.7a39 39 0 0 1 5.3 12.8c1 3.5.9 2-.2-3.3-.9-4.4-1.8-7.6-3-10.8-.2-.4.3 0 1 .8a10 10 0 0 1 1.5 2.2c.3 1.2.7.6 1-1.5l.6-3.2.4-1.4 1.2 2.4c.6 1.4 1.1 2.2 1.1 1.9 0-.4.2-.6.5-.4.2.1.3 0 .1-.2a.5.5 0 0 0-.5-.3c0 .1-.2-.4-.2-1v-1.2c.1 0 .6.7 1 1.6l1.2 1.6c.2 0 .3-1.7.4-3.7 0-2 .2-4.3.3-5.2l.3-1.5 1.5 3.7c1.2 3 2.1 6.9 2.2 8.9l.4.2c.2 0 .2-.3.1-.8 0-.4.2 0 .8 1 .5 1 1 1.6 1 1.3.3-.6-.8-6-1.8-8.8-1-3.1-.4-2.9 1 .3 1 2 1.6 2.8 1.2 1.4-.1-.5 0-.6.3-.5.5.2.5.3-.4-5.6-.3-2-.4-3.6-.3-3.7a29.5 29.5 0 0 1 4 10c.1 0 .4-.8.5-1.9a31 31 0 0 1 1-4.5l.8-2.5.7 2.4c.4 1.3.9 2.4 1 2.4.1 0 .3-.7.3-1.5 0-1.4.2-2.4 1-5.5.2-1.2.3-1 1 2.4.5 2 .8 4.5.9 5.4.1 3.1.6 1.7.6-1.8 0-2 .1-3.6.3-3.7.4-.3 2.2 4.7 2.3 6.1 0 .5 0 1.4-.2 2-.3 1 0 .5.6-1.1.2-.6.3-.5.8.6.3.7.7 1.3.8 1.3.1 0 .3-1.1.4-2.5.2-1.5.4-3.5.7-4.5.4-2.2.8-2 1.4 1 .6 3 .6 3.1 1 2.6.6-1 1.8 4.6 2 9.3.2 3.7.3 4.2.5 2.8.2-1 .3-2.6.3-3.7 0-1 .2-1.7.3-1.6.2 0 .6-.6 1-1.5.3-1 1-2.6 1.7-3.6l1-2 .2 1.3v10.3c.2-.2.8-2.7 1.4-5.7l1.3-5.7c.4-.3.6.6 1.2 4 .5 3.7.8 4.4 1.3 3.2 0-.4.6-1.1 1-1.7l1-1-.3 3a9.3 9.3 0 0 1-.8 3.6 48 48 0 0 0 6.8-7.6c.6-.4-1.9 9.5-4.6 18.7a39.5 39.5 0 0 0-1.7 8 17 17 0 0 1-3.5 9.9c-3.2 3-19.8 16.7-20.3 16.7-.3 0-1.7-1-3.2-2.2zm4.4-30v-.3c-.3-.9-.4-.8-1.2.7-1 2-1 2.3 0 .7.5-.8 1-1.2 1.2-1.1zM93 208c.1-.5-1.5.8-2.7 2.3L89 212l2-1.8 2-2zm-20.4-1.2c-.3-.5-1-1.2-1.3-1.5-.5-.4-.6-.4-.3.2l.2 1c0 .3.1.3.3 0 .2-.4.4-.3.9.4l.8 1-.6-1zm21.7-4.6c1-1.5 1.1-2 .5-1.6-.3.2-1.9 3-1.6 3l1-1.4zm-30.2-.3-1.3-1.4h-.3c-.2.3 2 2.7 2.5 2.7.2 0-.2-.6-.9-1.3zm14.1.2c0-.7-.5-.2-.6.5 0 .6 0 .7.3.3l.3-.8zm23.8-2.5c1.1-1.5 2-2.9 1.9-3-.2-.2-2 2.2-3.3 4.5-1.2 2.1-1 1.8 1.4-1.5zm-15.9 1.7c.2-.3.1-.5 0-.3-.3 0-.4.3-.4.5 0 .5.2.4.4-.2zm-12.4-2.8c-.5-.7-.9-1.2-1-1.1l.6 1.4c.4.7.9 1.2 1 1.1l-.6-1.4zm-10.5.3c-.6-.7-1.2-1.1-1.2-.7 0 .2 1.5 1.6 1.7 1.6l-.5-.9zm26.5-.5c-.7-1.5-1-1.3-.3.2.4.7.7 1.1.8 1l-.5-1.2zm-11-.7c-.2-.6-.6-1-.7-1-.2.3.8 2 1.2 2l-.4-1zm6-.9c0-.3-.3-.5-.4-.4l.1.6c.4.5.6.4.3-.2zm-7.8-1.5.7-1.6.5 1c.5 1.3.7.3.1-1l-.3-1-.7 1.3c-1 1.7-1.5 3-1.2 3l1-1.7zm19.2 1c0-.2 0-.4-.2-.4s-.4.2-.4.4.1.3.2.3l.4-.3zm-24.8-4.4c-.1-.3-.3-.5-.4-.4l.1.5c.4.6.6.5.3-.1zM92 190c0-.2-.2-.1-.3.2l-.4.9c0 .2.2 0 .4-.2l.3-.9zm-15.2-.4c-.3-.5-.5-.7-.6-.5 0 .2 0 .6.3 1 .6.7.7.6.3-.5zm3 0c0-.6-.3-1.2-.5-1.4-.4-.3-.1 1.4.3 2 .3.7.5.3.3-.6zm4.2-6.7c-.1-.3-.3-.4-.4-.3l.1.5c.4.6.6.5.3-.2z" style="fill:#98a454;stroke-width:.352778" transform="translate(-44.5 -173.2)"/>
  <path d="M78 241.6a5515.3 5515.3 0 0 0-17.4-15c-.5-.9-2.4-8-2.4-8.9 0-.8.7-1.6 1.6-1.8a93 93 0 0 0-6.8-22l.8.3c.7 0 3 5.2 4 9.1a87 87 0 0 0 1.7 5.2c.3.7.7 2.4 1 3.9.2 1.4.4 2.4.5 2.2 0-.2.4-.4.7-.4.6 0 .6-.2.4-2-.4-2.5-1-4.4-1-3.6 0 .4-.2.6-.3.6-.5 0-1.4-2.7-2.4-7.5a73 73 0 0 0-1.4-6c-.8-2-.6-2.3.4-.7 1.2 1.8 1.6 2.2 1.5 1.5-.2-.9.4-4.9.8-5 .2-.2.3-.7.3-1.2 0-.8.3-.5 1.2 1.4 1.2 2.5 1.9 3.4 1.5 2-.2-.8-.2-.8.3-.2 1.4 2 1.5 2 .5 0-1.3-2.6-1.3-3.3 0-1.2l1 1.4c.2 0 .3-1.6.4-3.6 0-2 .2-3.7.4-4 .2-.1.4-.7.4-1.2v-.9l.5.9a34 34 0 0 1 2.6 8.1c-.1 1.2.8 5 1.1 4.8.2-.1.5 0 .7.4.4.8.4.6 0-1l-.3-1.2.7.9.7.9-.2-1.8a78 78 0 0 0-.4-2.8l-.2-1 .9 1c.8.9.9 1 .7.3-.1-.5-.6-1.2-1.1-1.8-1-1.1-2-4-1.3-3.7.2 0 .7.9 1 1.7.6 1.3.7 1.5 1 1 .1-.6.2-.6.7.4.3.6.6.9.6.7l-.3-.9c-.3-.5-1.5-8.2-1.4-9.3 0-.2.4.4 1 1.4 1 1.7 2.3 5.2 2.5 6.8.1.4.3.8.5.7.2 0 .5.4.8 1l.4 1-.2-1-.2-1.1.6.8c.6 1 .7 2.5.2 2.5-.2 0-2.2 4.7-2.1 5.2l1.3-2.4c1.2-2.5 1.3-2.6 1.5-1.5.1.5 0 1.1-.1 1.2-.3.2.7 2.4 1.6 3.7.8.9.8.1.1-1.2a3 3 0 0 1-.3-1.7c.3-1-2.2-8-3.1-8.6-.3-.2.4-3.5 1.2-5.2l.5-1.3.7 2.1c.8 3 1 3 1.3.7 0-1.2.3-2.1.6-2.2.2 0 .3-.5.3-.9l.3-1.2c.4-.6 1.5 4.4 1.6 7 0 1 .2 1.9.4 2 .2.3.4-.7.3-2.8 0-1.8 0-3 .1-2.4.2.5.3.7.5.4.4-.7 1.8 1.7 1.8 3.2 0 .7-.3 2-.6 3-.8 2.7-.4 3 .4.5a8 8 0 0 1 .9-2.2s.4.9.6 1.9c.6 2.8 1.4 5.4 1.5 4.8 0-.3.2-.2.7.4l.7.9-.5-1.2a29 29 0 0 1-2-5.8c0 .3.2.4.3.4.2 0 .4-1.1.6-2.5.1-1.4.4-3.4.7-4.3l.4-1.8.4 1c.2.6.6 2.4.8 3.9.5 2.8.8 3.4 1.3 2.5.6-1.1 1.3 2.9 1.3 7.3 0 2.3.1 4.2.3 4.2.2 0 .6-3.1.6-5.3v-1.6l.8.9c.6.7.6.8.3 0-.4-.8.5-3.6 1.7-5.2.4-.5.8-1.1.8-1.4 0-.2.1-.5.3-.7.3-.2.4 1.4.3 5.7 0 3.2 0 5.5.1 5.2l1.4-5.5c1.1-4.8 1.2-4.9 1.7-3.9.3.6.7 2.3 1 3.8.3 2.7.3 2.8.8 2 .2-.5.8-1.3 1.1-1.7l.7-.9v2.5c0 2.4-.1 2.6-1.5 4.3-.7 1-1.2 1.8-1 1.8.2 0 1.8-1.7 3.8-4.2.4-.5.4-.5.3.3-.1.5 0 .3.4-.5s1-1.8 1.5-2.3l1.8-2.3 1-1.2c0 .7-3 12.2-4.6 18a41 41 0 0 0-2 8.6c0 3.7-1.6 8-3.4 9.9-3.2 3-19.8 16.7-20.3 16.7-.3 0-1.7-1-3.2-2.2zm2.8-12.9c.6-.1.7-.4.7-2.5 0-1.3-.1-2.1-.3-1.9-.4.7-1.6.3-1.8-.6-.2-.5-.3.6-.3 2.4 0 3.6.2 5 .7 3.6.2-.4.6-.9 1-1zm-5.9-4.4c.3-.1.7-.2.9 0 .5.1.6-1.5 0-2.5-.3-.7-.3-.7-.1 0 0 .5 0 .8-.2.8s-.3-.2-.3-.5c0-.2-.3-.6-.6-.8-.4-.2-.8-1-1-1.9L73 218l.2 1.7c.3 3.5 1 6.8 1.1 5.9 0-.5.3-1 .5-1.2zm11.7-1.8c.2-1.2.2-1.3-.3-1-.4.4-.5.4-.6-.2 0-.3-.4.5-.6 1.8-.4 2-.4 2.5 0 2.7.5.4 1-.8 1.5-3.3zm3.7-1c0-.7 0-.6-.3 0-.4 1.3-.4 2.2 0 1.3.2-.4.3-1 .3-1.4zM71 218.6c-.8-3-1.8-5.4-2-5.1-.2.1.4 2.6 1.6 7.4.3 1 .5 1.3.8 1 .3-.3.1-1.2-.4-3.3zm24-3.5a19.5 19.5 0 0 0-1.8 5.9c0 1 1.5-3.6 1.9-6zm-28.7 2c.3-.1.7 0 .8.2.4.6.3-1.3 0-2.5-.3-.7-.3-.8-.4-.2 0 .6 0 .6-.9-.3a4 4 0 0 1-.9-2c0-.6 0-.7-.2-.2a22.7 22.7 0 0 0 .9 6c0-.4.4-.9.7-1zm31.4-.5c.5-1 1.9-5.9 1.5-5.5-.5.6-2.3 6.2-2 6.2l.5-.7zM81.5 213c.2 0 .4-.3.4-.8 0-.7 0-.7.4-.1 1.1 1.6 1.4 1.8 1 .8-.7-2-1-2.4-1.6-2-.5.4-2 4-2 4.5 0 .2.4-.3.8-1 .4-.8.8-1.4 1-1.4zm11.1-3.5c0 .6 0 .5.3-.3.6-1.9 0-1.8-2 .4-3 3.3-3.4 4.5-.6 1.6 2-2 2.5-2.4 2.3-1.7zm11.6-1.6.2-1.4-.5 1.6-.7 2.8-.1 1.2.4-1.4c.3-.7.6-2 .7-2.8zm-39.7 2.6c-.1-.3-.2-.2-.2.2s0 .6.2.5v-.7zm8.8-3.1c-2.2-3.3-2.8-3.4-2-.1.4 1.4.5 1.5.8.8.1-.4.2-1 0-1.2-.3-.7 1.3 1.3 2 2.3.2.5.6 1 .7.8l-1.5-2.6zm-6.4-1c-.2-.5-.1-.5.6.1l.7.7-.6-1.2c-.4-.6-1.5-2.2-2.6-3.4-2-2.4-2.6-4-.7-2l1 1.3-1.1-2c-1.1-1.7-2.3-2.8-1.9-1.6l.3 1.6c0 .7.5 1.6.9 2.1l2 3c1.4 2 1.8 2.5 1.4 1.4zm28-4.4c.2 0 .4-.3.5-.8 0-.6 0-.9-.2-.8-.6.2-3.4 4.9-3.4 5.6 0 .3.6-.5 1.4-1.8.8-1.3 1.5-2.3 1.7-2.2zm5.2.7a37.4 37.4 0 0 1 3.8-5.3c1-1.7-.2-1-1.6 1a41.9 41.9 0 0 0-4 7.2l1.8-2.9zm-22.2 1 .3-1 .8 1.1c1 1.6 1 1.2 0-.7-.7-1.5-1.3-1.8-1.4-.6 0 .5 0 1.2-.2 1.6v.8c.1 0 .4-.5.5-1.1zm8.2-1.9c0-.4.2-.2.6.5l.5 1-.2-1.2c-.2-.7-.4-1.4-.6-1.6-.3-.3-1.1 1.4-1.5 3.2l-.3 1 .8-1.1a5 5 0 0 0 .7-1.8zm-10.7-.5c-.7-1.7-2.4-4.5-2.8-4.5 0 0 .2.9.7 2 1.5 3.2 3.3 5.4 2 2.5zm15.5-1c-.8-2.2-1.6-3.5-2.1-3.5l-.6.1c0 .1 0 .5-.2.8-.2.7-.2.7.3 0 .4-.5.6-.4 1.6 1.7 1.3 2.6 1.7 3 1 1zm-5.6-2.9-.9-1.8v1.5c0 1.1 0 1.4.3 1 .2-.6.3-.6.7.4.2.6.5 1 .6 1 .1-.1-.2-1-.7-2zm11-1.8c-.2-.4-1.1 1.2-1.5 2.6-.2.5.1.3.7-.7.5-.8.8-1.7.7-2zM67.5 197c.7 1 .6.5-.1-.8-.8-1.3-1.1-1-1.1.7 0 1.2 0 1.2.4.3.3-.8.3-.8.8-.2zm24.6-5.9c.2.2.3 0 .3-.5 0-1.1-.7-1-1.2.4-1 2.1-1 3-.2 1.4.5-.9 1-1.4 1.1-1.3zm-24 2c0-.2-.4-.7-.8-1.2l-.7-.8.6 1.1c.6 1.2.8 1.4.8.9zm12-3c-.6-2.1-1.8-4.6-2-4.4-.2.1 0 .7.3 1.2s.7 2 1 3c.2 1.3.5 2 .8 2 .4 0 .4-.3 0-1.8zm-6.6-3.1c-.4-.7-.7-1-.8-.8-.1.4 1 2.3 1.3 2l-.5-1.2zm8-1.3c-.4-.8-.6-1-.7-.7-.1.4.9 2 1.2 2l-.5-1.3z" style="fill:#8a934c;stroke-width:.352778" transform="translate(-44.5 -173.2)"/>
  <path d="M78 241.6a5515.3 5515.3 0 0 0-17.4-14.9c-.5-1-2.5-8.5-2.4-9.2 0-.4.5-1 1-1.2.7-.4.8-.7.6-1.6-.5-2.2-4-13.8-4.8-16.1-.8-2-.9-2.3-.3-2.3.3 0 .9.9 1.3 1.7a118 118 0 0 1 5.3 18.2c.1-.4.4-.6.7-.5.7.3.6-1.7-.3-6.1-.6-3.4-.8-3.8-1.7-4.4-.6-.3-1-.9-1-1.2l-1-4.8a8 8 0 0 1-.5-3.1c.2-.2.7.4 1.2 1.2 1 1.5 1.3 1.2.5-.4-.6-1-.2-4 .6-5 .3-.4.4-1 .3-1.4-.4-1.5.4-.5 1.5 1.9.7 1.5 1.2 2.1 1.1 1.6v-1l1 1.6c1.4 2.5 1.4 1.9 0-.9-1.4-2.6-1.6-3.8-.2-1.4.4.8 1 1.4 1.1 1.4.2 0 .3-1.3.3-3 0-2.2.2-3 .5-3.2.4-.1.5-.6.4-1.7l-.2-1.4.8 1.4c.9 1.6 2.4 6 2.4 7 0 .8-.6.7-.8-.1-.3-.8-1.3-1.7-1.3-1.2 0 .2.5 1 1 1.7.8.9 1.3 2.1 1.7 4 .3 1.7.8 2.9 1 2.9.2 0 .6.3.8.8.6 1.1.5 0 0-2.2-.7-2.4-.7-2.4 0-1.6.4.6.4.4.3-1.8l-.2-2.5.9 1 .9 1.2-.4-1c-.3-1-1.4-2.8-1.8-3.1-.5-.5-.6-1.4-.1-1.4.3 0 .5.2.5.4 0 .3.2.8.5 1.2.6.7.6.6.4-.2-.2-.8-.2-.8.5.2.4.6.7.8.7.5 0-.3-.1-.7-.3-.9-.2-.2-.4-1.3-.6-2.5l-.2-2 1.1 1.6c.6 1 1.2 1.7 1.3 1.7.3 0-.9-2.4-1.7-3.3-1-1.1-1.4-2.9-.6-2.6.7.2 2.5 3.9 2.7 5.5 0 .8.4 1.6.6 1.7.3 0 .6.7.7 1.4l.3 1.3.2-1c.2-.9.3-1 .5-.5.2.4-.1 1.5-.8 2.9-.6 1.3-1.2 2.8-1.3 3.5-.1.9 0 .7 1-1.1l1-2.6c0-.1.2-.3.4-.3s.3.5.2 1.1c-.2 1.5.5 3.5 2 5.4.5.8 1 1.2.8 1l-.5-2.5a47 47 0 0 0-3.2-9.6c-.9-2.2-.9-4 .1-5 .3-.3.5-1 .6-1.5.1-1 .2-.8.8.9.8 2.3 1.3 3 1.3 1.7s.4-2.4.7-2.2c.3.2.6-.7.8-2.5 0-.8.2-.4.7 1.6l.7 4 .2 1.4-.8-1.8c-.5-1-1-1.9-1.3-1.9-.2 0-.3.3-.2.6l.2 1.3c0 .6.1.7.3.3.3-.4.5-.2 1 .6.2.6.5 1.5.5 2s.1.8.3.7c.2 0 .6.3.9.8.7 1.3.7.8 0-.8a10 10 0 0 1-.5-3.5c0-1.2.2-1.8.2-1.3.2 1 .7 1 1 .1 0-.4.2-.3.7.6.7 1.4.7 2-.2 5.4a12 12 0 0 0-.5 3c0 .1.3-.2.4-.7.1-.5.4-1.1.7-1.3.3-.2.5-.9.5-1.4 0-2 .6-1 1.4 2.3.6 2.7.7 3.6.4 4.5l-.2 1.2c.1.1.2 0 .2-.1 0-.2.2-.7.5-1 .4-.6.5-.4 1.6 2.2l1.4 2.9c.4 0-.3-2.4-1-4-.5-.7-.7-1.5-.5-1.8 0-.3 0-1-.4-1.5-1.3-1.9-1.6-3.9-1.2-7.1.4-3.5 1.3-6 1.7-4.8.2.4.5 2 .8 3.8.6 3 .5 3.2-.1 4.9-1 2.3-.6 2.6.5.4.6-1.3.9-1.5.9-1 0 1.1.7 1.5.8.4 0-2.3.6 2 .6 5v3.7c0 .2.5-.5 1.1-1.5 1.4-2.5 1.7-2.9 1.7-1.8 0 .4.1.7.3.6.3-.3-.2-2.8-.6-2.6-.2.1-.5-.2-.6-.8-.3-.8-.3-1.3.2-2.4.4-.8.8-1.5 1-1.6.2 0 .7-.9 1.1-1.8l.8-1.8-.1 6v5.6c.2-.2.5-1.4.7-2.6.7-3.9 1.5-6.2 1.9-5.6.2.4.3.4.3-.2 0-1.4.7 0 1 2.2.4 1.9.4 2.6 0 3.2-.2.4-.3.9-.2 1l1-1.2c.3-.7.6-1.2.7-1 0 .2.3-.2.7-.9l.6-1.2v2.3c0 2.3-.6 3.7-2.1 5-.7.5-1.1 1.7-.7 1.7.2 0 .4-.3.5-.6.2-.3.4-.5.5-.4.1.2.8-.6 1.6-1.7l1.5-1.8-.2 1.3c-.5 1.7.2.9 1-1.2a6 6 0 0 1 .9-1.9c.2 0 .2 0 .1.2l-.1.4 1.4-2 1.5-2.2c.4 0-1.4 7.2-4 16.2-1.5 5.1-2 7.6-2 9.4-.1 3.7-1.6 8-3.5 9.9-3.2 3-19.8 16.7-20.3 16.7-.3 0-1.7-1-3.2-2.2zm2.8-11.7c.3-.1.8-.6.9-1 .3-1.3-.2-8.2-.6-7.6-.2.4-.6.5-1 .4-.5-.2-.7-.6-.8-2.2l-.2 3.9c0 6.2.2 8.8.7 7.5.1-.5.6-.9 1-1zm5.8-7c.8-3.4 1.2-5.8.7-4.6-.1.4-.3.4-.6.1-.4-.3-.7.3-1.2 2.6-1 3.4-1 6.3-.3 6 .3-.1.9-1.7 1.4-4zM76 226c.9.2.9 0 .2-4.7l-.6-3.7c0-.2-.1-.1-.3.2-.5.7-1.7-.2-2.1-1.5-.3-1-.4-.8-.2 1 .1 1.1.4 3.8.8 6 .4 3.3.6 3.7 1 3.2a1 1 0 0 1 1.2-.5zm14.1-2 .3-2c.2-1 .2-1.6 0-1.5-.2.3-1 3.3-1 3.8 0 .4.7.2.7-.2zm-18-1.4c0-2-3.8-13.3-3.9-11.5 0 .6 2.3 9.8 2.8 11.1.4 1 1.1 1.2 1.1.4zm22.6-4.8a185.5 185.5 0 0 1 2.3-8.7c-.3-.3-3.7 11-4 12.6-.2 2.6.4 1 1.7-3.9zm-27.8 1c.5 0 .6-.2.6-1.3 0-1.9-.8-7-1-6.5 0 .3-.3.3-1-.1-.5-.4-.8-1-1-2.1-.4-2.8-.5-1.4-.2 2 .8 6.6 1.2 8.8 1.6 8.4.2-.2.6-.3 1-.3zm32.2-5.3c2.1-7.2 1.4-7.2-.9 0-1.5 4.8-1.7 5.4-.9 4.6.3-.2 1-2.3 1.8-4.6zm-9.2-1.4c3-3.2 2.8-3.1 2.5-1.7-.3 1.6.1 1.1.7-.8.7-2.3 0-2.2-2.3.4-1.8 2-4.2 6.3-4.2 7.4 0 .3.4-.3.8-1.5a16 16 0 0 1 2.5-3.8zm-9 3c.5-.1.9-.7 1.1-1.7l.4-1.4.7 1.4c.3.8.6 1.1.6.8 0-.8-1.3-3.4-1.7-3.4-.4 0-2 3.8-2.3 5.4l-.2 1.4.4-1.2c.2-.6.7-1.2 1-1.3zm23.5-6.7c.7-2.7 1.2-4.9 1-5-.2-.2-1.2 3-2 6.2a281.2 281.2 0 0 1-.6 4.2c.2-.4 1-2.8 1.6-5.4zm-29.6 1.4c-1.4-2.6-3.5-5.3-3.7-4.8l.5 3.2c.3 1.5.7 2.4.8 2.1 0-.3.3-.6.6-.6.6 0 .6-.2.1-1-.7-1.4 0-.7 1.1 1 1.5 2.2 1.8 2.3.6 0zm-6-1.6a20.2 20.2 0 0 0-3.4-5.3c0-.2.2-.2.4 0 .2 0 0-.5-.6-1.4-3-4.7-3.4-4.7-2.2 0 .2.8.5 1.4.7 1.3a27 27 0 0 1 4 5.6c.6 1 1.4 1 1-.2zm-4.4-6.4c-.9-1-1-1.6-.2-1 .5.5 1.4 1.8 1.1 1.8 0 0-.5-.3-.9-.8zm36.7-.1a8.8 8.8 0 0 1 1.7-2.2c.3 0 1.8-2.7 1.8-3.1 0-1.6-6.2 7.8-6.9 10.5-.1.5.3 0 .9-1l2.5-4.2zm-6.8 1.3.7-1.2-.2 1.2c-.1 1 0 1 .2.5.5-1 .6-3 .2-3-.4 0-3.2 4.7-3.5 6-.2.9.5-.2 2.6-3.5zm-15.9 2c.2 0 .2-.3.1-.9 0-.8 0-.8.8.5.5.8.9 1.3 1 1.1a14 14 0 0 0-2.2-4.1c-.3 0-.7 2-.7 3.5 0 .8 0 .8.4.3.2-.4.5-.6.6-.5zm7.5-1c.2 0 .3-.3.3-.7 0-1 .6-.8 1 .3 0 .6.2.8.3.4a29 29 0 0 0-2.7-7.8c-.2-.3-.3.3-.3 1.7 0 1.8 0 2 .4 1.5.5-.6.5-.6.9.2.3.7.2 1.3-.5 3.2-1 2.6-1 3.7-.3 2.2.3-.5.7-1 .9-1zm-10-1.4c-.8-2.3-2.6-5.6-3.2-5.6-.1 0-.2.1-.2.3a45897.7 45897.7 0 0 1 4 7.7c.2-.1-.1-1.2-.5-2.4zm-8.7-5.4c0-.6.2-.4.8.7 1.2 1.9 1.2 1.2 0-1-.5-1-1-1.6-1.2-1.4l-.5 2.2c-.1 1.8-.1 1.9.3 1 .3-.4.5-1.1.6-1.5zm14-4c0-1.4-2.6-7.8-3-7.4-.2.2.3 2.4.6 2.2.2 0 .4.5.5 1.3.4 2.5 1 4 1.5 4 .3 0 .5 0 .5-.2zm13 5c0-1 .2-2.1.3-2.6.2-.8.2-.8.7-.1.5.6.4 1-.3 2.6l-1 1.9zm-5.1-1.3c-.2-.2-.4-.6-.4-1 0-.3.2-.2.5.3.7 1 .6 1.4-.1.7z" style="fill:#84765a;stroke-width:.352778" transform="translate(-44.5 -173.2)"/>
  <path d="M80.4 243.6v-.7c0-.3 0-.5-.4-.5-1 0-2-1.2-2.1-2.6 0-1.2-.3-1.5-1.1-2-.7-.4-1-.8-1-1.3 0-.3 0-.4-.1-.2-.3.7-.9.6-1.9-.3l-.8-.8.3 1c.1.6.4 1.3.6 1.6.2.3-1.9-1.4-4.6-3.7a33 33 0 0 1-5.2-4.8c-.3 0-1.3-.6-2.1-1.4-1.4-1.2-1.6-1.7-2.5-5-1.5-5.4-1.5-5.6-.4-6.5l1-.7-1.1-4a158.3 158.3 0 0 0-4.5-15c.3.4.6.8.6 1 0 .3.1.2.3 0 .6-1 3.5 8 5 15.4.5 2 .9 3.4 1 3 0-.3.3-.5.6-.4.7.3.6-1.7-.3-6.1-.6-3.4-.8-3.8-1.7-4.4-.6-.3-1-.9-1-1.2l-1-4.8a8 8 0 0 1-.5-3.1c.2-.2.7.4 1.2 1.2 1 1.5 1.3 1.2.5-.4-.6-1-.2-4 .6-5 .3-.4.4-1 .3-1.4-.4-1.4.3-.5 1.5 1.9.7 1.5 1.2 2.2 1.1 1.6v-1l1 1.6c1.4 2.5 1.4 1.9 0-.9-1.4-2.6-1.6-3.8-.2-1.4.4.8 1 1.4 1.1 1.4.2 0 .3-1.3.3-3 0-2.2.2-3 .5-3.2.4-.1.5-.6.4-1.7l-.2-1.4 1 2c1.3 2.4 2.5 6.5 2 6.9-.1.1-.3 0-.4-.2 0-.2-.4-.8-.8-1.2-1-1.3-.8-.2.3 1.3.8.9 1.3 2.1 1.7 4 .3 1.7.8 2.9 1 2.9.2 0 .6.3.8.8.6 1.1.5 0 0-2.2-.7-2.4-.7-2.6 0-1.5.4.9.5.7.3-1.7l-.2-2.7.9 1 .9 1.2-.4-1c-.3-1-1.4-2.8-1.8-3.1-.4-.4-.6-1.4-.3-1.4.2 0 .5.5.8 1 .4 1.3 1.1 1.5.8.3-.2-.6-.1-.6.5.3.4.6.7.8.7.5 0-.3-.1-.7-.3-.9-.2-.2-.4-1.3-.6-2.5l-.2-2 1.1 1.6c.6 1 1.2 1.7 1.3 1.7.3 0-.9-2.4-1.7-3.3-.6-.6-1-1.5-1-2 0-2.1 2.2 1 2.9 4.2.2 1 .6 2.1.8 2.3.3.2.6 1 .7 1.6l.3 1.2.3-1c.1-.9.2-1 .4-.5.2.4-.1 1.5-.8 2.9-.6 1.3-1.2 2.8-1.3 3.5-.1.9 0 .7 1-1.1l1-2.6c0-.1.2-.3.4-.3s.3.5.2 1.1c-.2 1.5.5 3.5 2 5.4.5.8 1 1.2.8 1l-.5-2.5a47 47 0 0 0-3.2-9.6c-.9-2.2-.9-4 .1-5 .3-.3.5-1 .6-1.5.1-1 .2-.8.8.9.8 2.4 1.3 3 1.3 1.6 0-1 .6-2.9.7-2.1 0 1 .7-1 .7-2.1 0-.8 0-1.3.1-1.2.2.1 1 4.3 1.4 6.6.2 1.1.1 1-.7-.6-.4-1-1-1.9-1.2-1.9-.2 0-.3.3-.2.6l.2 1.3c0 .6.1.7.3.3.3-.4.5-.2 1 .6.2.6.5 1.5.5 2s.1.8.3.7c.2 0 .6.3.9.8.6 1.2.7.8.1-.7a12.6 12.6 0 0 1-.4-5c.2 1 .7 1.1 1 .2 0-.4.2-.3.7.6.7 1.4.7 2-.2 5.4a12 12 0 0 0-.5 3c0 .1.3-.2.4-.7.1-.5.4-1.1.7-1.3.3-.2.5-.9.5-1.4 0-2 .6-1 1.4 2.3.6 2.7.7 3.6.4 4.5l-.2 1.2c.1.1.2 0 .2-.1 0-.2.2-.7.5-1 .4-.6.5-.4 1.6 2.2l1.4 2.9c.4 0-.3-2.4-1-4-.5-.7-.7-1.5-.5-1.8 0-.3 0-1-.4-1.5-1.3-1.9-1.6-3.9-1.2-7.1.4-3.5 1.3-6 1.7-4.8.2.4.5 2 .8 3.8.6 3 .5 3.2-.1 4.9-1 2.3-.6 2.6.5.4.6-1.3.9-1.5.9-1 0 1.1.7 1.5.8.4 0-2 .6 2.4.6 5.2v3.5c0 .2.5-.5 1.1-1.5 1.4-2.5 1.7-2.9 1.7-1.8 0 .4.1.7.3.6.3-.3-.2-2.8-.6-2.6-.2.1-.5-.2-.6-.8-.3-.8-.3-1.3.2-2.4.4-.8.8-1.5 1-1.6.2 0 .7-.9 1.1-1.8l.8-1.8-.1 6v5.6c.2-.2.5-1.4.7-2.6.7-3.9 1.5-6.2 1.9-5.6.2.4.3.4.3-.2 0-1.4.7 0 1 2.2.4 1.9.4 2.6 0 3.2-.2.4-.3.9-.2 1l1-1.2c.3-.7.6-1.2.7-1 0 .2.3-.2.7-.9l.6-1.2v2.3c0 2.3-.6 3.7-2.1 5-.7.5-1.1 1.7-.7 1.7.2 0 .4-.3.5-.6.2-.3.4-.5.5-.4.1.2.8-.6 1.6-1.7l1.5-1.8-.2 1.3c-.5 1.7.2.9 1-1.2a6 6 0 0 1 .9-1.9c.2 0 .2 0 .1.2l-.1.4 1.4-2 1.5-2.2c.4 0-1.4 7.2-4 16.2-1.5 5.4-2 7.5-2 9.6 0 1.4-.2 3-.5 3.3l-1.1 3-.7 2.4-10.5 8.9c-9.6 8-11.2 9.2-11.8 8.6zm-.3-3.7c-.7-1.3-1.7-1.8-1.7-.9 0 .3.1.6.3.6.2 0 .3.1.2.3-.1.2.1.5.6.7 1 .4 1.1.3.6-.7zm1.4-4.2c0-.5-1.4-1.7-4.4-4l-8-6c-7.8-6.2-8-6.4-8.4-6-.3.3-.3.5 0 .6.2.2.4 0 .4-.2s.2-.1.5.3 2 2 4 3.4c2.2 1.6 3.4 2.8 3.4 3.2 0 .4.2.8.5.9.3 0 .4 0 .3-.5-.1-.3.9.4 2.3 1.5 4.1 3.3 5 4 5 4.5-.1.2.3.8.8 1.3l1 .8-.3-.8c-.2-.7 0-.6 1.3.5l1.5 1.2.1-.7zm-7.1-.9c-.2-.3-.4-.5-.6-.5-.3 0-.3.2 0 .7.4.8.9.7.6-.2zm12.2.5c.2-.1 0-.3-.1-.3-.2 0-.4.2-.4.3 0 .2 0 .4.2.4l.3-.4zm-15-.6-.5-1c-.4-.6-.7-.8-1-.5-.2.3-.1.6.3 1 .7.8 1.3 1 1.3.5zm13.6-.8c.2-.2 0-.3-.1-.3-.2 0-.4.1-.4.3 0 .2 0 .4.2.4l.3-.4zm-17.8-3.2c-1.8-1.8-2.3-2-2.6-1.2v.5c.2 0 1.1.7 2 1.6 1.4 1.3 1.8 1.6 2 1.2.3-.3-.1-1-1.4-2.1zm21.4.8c0-.2 0-.4-.2-.4s-.4.2-.4.4.1.3.2.3l.4-.3zm-8-1.6c.3-.1.8-.6.9-1 .3-1.3-.2-8.2-.6-7.6-.2.4-.6.5-1 .4-.5-.2-.7-.6-.8-2.2l-.2 3.9c0 6.2.2 8.8.7 7.5.1-.5.6-.9 1-1zm12.4-1c0-.1.4-.3.9-.3s.8-.2.8-.5c0-.8-.8-.6-1.7.4-.5.5-.7.8-.4.8.2 0 .4-.1.4-.3zm-6.6-6c.8-3.4 1.2-5.8.7-4.6-.1.4-.3.4-.6.1-.4-.3-.7.3-1.2 2.6-1 3.4-1 6.3-.3 6 .3-.1.9-1.7 1.4-4zM76 226c.9.2.9 0 .2-4.7l-.6-3.7c0-.2-.1-.1-.3.2-.5.7-1.7-.2-2.1-1.5-.3-1-.4-.8-.2 1 .1 1.1.4 3.8.8 6 .4 3.3.6 3.7 1 3.2a1 1 0 0 1 1.2-.5zm-9.6-.3c-.1-.7-1.2-1.5-1.5-1.1-.2.1 0 .5.1 1 .5.8 1.6 1 1.4 0zm34.6 0c.3-.2.4-.5.2-.5l-.7.5c-.3.3-.4.6-.2.6l.7-.6zm-38.8-.7c-.5-.5-1-.7-1.1-.5-.6.6 0 1.4 1 1.4h1zm36-.5c0-.2-.1-.3-.3-.3-.2 0-.5.1-.6.3 0 .2 0 .4.4.4.3 0 .5-.2.5-.4zm-8-.4c0-.3 0-1.2.2-2.2.2-.9.2-1.5 0-1.4-.2.3-1 3.3-1 3.8 0 .4.7.2.7-.2zM72 222.5c0-2-3.8-13.3-3.9-11.5 0 .6 2.3 9.8 2.8 11.1.4 1 1.1 1.2 1.1.4zm22.6-4.8a185.5 185.5 0 0 1 2.3-8.7c-.3-.3-3.7 11-4 12.6-.2 2.6.4 1 1.7-3.9zm-27.8 1c.5 0 .6-.2.6-1.3 0-1.9-.8-7-1-6.5 0 .3-.3.3-1-.1-.5-.4-.8-1-1-2.1-.4-2.8-.5-1.4-.2 2 .8 6.6 1.2 8.8 1.6 8.4.2-.2.6-.3 1-.3zm32.2-5.3c2.1-7.2 1.4-7.2-.9 0-1.5 4.8-1.7 5.4-.9 4.6.3-.2 1-2.3 1.8-4.6zm-9.2-1.4c3-3.2 2.8-3.1 2.5-1.7-.3 1.6.1 1.1.7-.8.7-2.3 0-2.2-2.3.4-1.8 2-4.2 6.3-4.2 7.4 0 .3.4-.3.8-1.5a16 16 0 0 1 2.5-3.8zm-9 3c.5-.1.9-.7 1.1-1.7l.4-1.4.7 1.4c.3.8.6 1.1.6.8 0-.8-1.3-3.4-1.7-3.4-.4 0-2 3.8-2.3 5.4l-.2 1.4.4-1.2c.2-.6.7-1.2 1-1.3zm23.5-6.7c.7-2.7 1.2-4.9 1-5-.2-.2-1.2 3-2 6.2a281.2 281.2 0 0 1-.6 4.2c.2-.4 1-2.8 1.6-5.4zm-29.6 1.4c-1.4-2.6-3.5-5.3-3.7-4.8l.5 3.2c.3 1.5.7 2.4.8 2.1 0-.3.3-.6.6-.6.6 0 .6-.2.1-1-.7-1.4 0-.7 1.1 1 1.5 2.2 1.8 2.3.6 0zm-5.7-.9a24.4 24.4 0 0 0-3.7-6c0-.1.2-.2.4 0 .2 0 0-.5-.6-1.4-3-4.7-3.4-4.7-2.2 0 .2.8.5 1.4.7 1.3a27 27 0 0 1 4 5.6c.3.5.7.9.9.8.2-.2.3 0 .3.1l.2.4c.1 0 .1-.4 0-.8zm-4.7-7c-.9-1-1-1.7-.2-1 .5.4 1.4 1.7 1.1 1.7 0 0-.5-.3-.9-.8zm36.7-.2a8.8 8.8 0 0 1 1.7-2.2c.3 0 1.8-2.7 1.8-3.1 0-1.6-6.2 7.8-6.9 10.5-.1.5.3 0 .9-1l2.5-4.2zm-6.8 1.3.7-1.2-.2 1.2c-.1 1 0 1 .2.5.5-1 .6-3 .2-3-.4 0-3.2 4.7-3.5 6-.2.9.5-.2 2.6-3.5zm-15.9 2c.2 0 .2-.3.1-.9 0-.8 0-.8.8.5.5.8.9 1.3 1 1.1a14 14 0 0 0-2.2-4.1c-.3 0-.7 2-.7 3.5 0 .8 0 .8.4.3.2-.4.5-.6.6-.5zm7.5-1c.2 0 .3-.3.3-.7 0-1 .6-.8 1 .3 0 .6.2.8.3.4a29 29 0 0 0-2.7-7.8c-.2-.3-.3.3-.3 1.7 0 1.8 0 2 .4 1.5.5-.6.5-.6.9.2.3.7.2 1.3-.5 3.2-1 2.6-1 3.7-.3 2.2.3-.5.7-1 .9-1zm-10-1.4c-.9-2.5-2.7-5.6-3.2-5.6-.1 0-.2.1-.2.3a45897.7 45897.7 0 0 1 4.1 7.6 8 8 0 0 0-.6-2.3zm-8.7-5.4c0-.6.2-.4.8.7 1.2 1.9 1.2 1.2 0-1-.5-1-1-1.6-1.2-1.4l-.5 2.2c-.1 1.8-.1 1.9.3 1 .3-.4.5-1.1.6-1.5zm14-4c0-1.4-2.6-7.8-3-7.4-.2.2.3 2.4.6 2.2.2 0 .4.5.5 1.3.4 2.5 1 4 1.5 4 .3 0 .5 0 .5-.2zm13 5c0-1 .3-2.1.3-2.6.2-.8.2-.8.7-.1.5.6.4 1-.3 2.6l-.9 1.9zm-5.1-1.3c-.2-.2-.4-.6-.4-1 0-.3.2-.2.5.3.7 1 .6 1.4-.1.7z" style="fill:#7a8546;stroke-width:.352778" transform="translate(-44.5 -173.2)"/>
  <path d="M80.4 243.6v-.7c0-.3 0-.5-.4-.5-1 0-2-1.2-2.1-2.6 0-1.2-.3-1.5-1.1-2-.7-.4-1-.8-1-1.3 0-.3 0-.4-.1-.2-.3.7-.9.6-1.9-.3l-.8-.8.3 1c.1.6.4 1.3.6 1.6.2.3-1.9-1.4-4.6-3.7a33 33 0 0 1-5.2-4.8c-.3 0-1.3-.6-2.1-1.4-1.4-1.2-1.6-1.7-2.5-5-1.5-5.4-1.5-5.6-.3-6.5l1-.8-2-6.6a168 168 0 0 0-2.5-8.4c-.8-2.1-.8-2.1-.1-1.6.4.4.5.4.6 0 0-1.6 3.3 9.7 4.5 15.6.4 1.8.5 2 1.2 1.8.8-.2.8-.3.7-1.8-.2-2-1.4-8.6-2-10.4-.2-.7-.6-1.4-1-1.5-.8-.3-2-3.7-2-6v-1l.8 1.3 1.5 2.7c1 2.4 1 1.4 0-1.3-.5-1.4-1-2.8-1-3.2 0-1 .8-3 1.1-2.7.2 0 .4-.3.4-1l.2-1.1.6 1.4 1 2.3c.3.8.4.8.6.1.2-.6.4-.4 1.4 1.4a14 14 0 0 0 1.3 2c.2 0-1-2.5-2-4.5-1.3-2.3-1-2.5.3-.2l1 1.7v-3.3c.2-2.7.3-3.3.7-3 .4 0 .5-.2.5-1.4v-1.5l.7 1.3a25 25 0 0 1 2.1 6.3c0 .4 0 .4-.5-.2l-.9-1.2c-.1-.3-.4-.4-.5-.3-.1.1 0 .6.2 1 .3.5.4 1.1.4 1.4 0 .4 0 .4.2.1.2-.3.4-.2.7.4.5.8 1.8 6 2.1 8.1.2.8.5 1.5.8 1.6.3 0 .4 0 .2-.3-.1-.2-.2-.4 0-.4l.5.8c.3.8.3.8.3 0l-.3-2.5c-.5-1.8-.7-7.2-.4-7.8.2-.2.6.3 1 1l1 1.5c.2 0-1.2-3.1-2-4.6l-.7-1.2.7.8c.8 1 .8 1 .6.1-.2-1.1 0-1 .9.6 1 1.9 1.2 1.6.3-.4a15 15 0 0 1-.9-3.5l-.1-1.9.4 1.4c.3.8.6 1.2.6 1 0-.4.4 0 .9.8a7 7 0 0 0 1.3 1.6c.2.2.6 1 .8 1.8.4 1.3.4 1.6-.4 3.5a12 12 0 0 0-.8 2.8c0 1-.5.9-1.4-.7-.4-.8-1-1.4-1-1.4-.5 0 .1 1.4 2.3 6 .9 1.8 1.6 3.5 1.6 3.8 0 .2.1.4.3.4.2 0 .3-.2.3-.5s.3-.9.7-1.3c.4-.4.7-1 .6-1.2-.5-1.2.2-.3 1.1 1.5.6 1.1 1.1 1.8 1.1 1.6 0-.7-2.4-5.7-2.8-5.7-.3 0-.7 1.7-.7 3.2 0 1.5-.6 1.2-.9-.4 0-.8-.4-2-.7-2.6-.7-1.2-.6-1.6 1-5.2.8-2 1.3-2.2 1.3-.6s1 5.6 1.1 4.7c.1-.5.5-.1 1.3 1.6.6 1.2 1 2 1 1.6l-.8-3.4c-.7-3.3-2.5-8.5-3.6-10.7-1-1.9-.9-4 0-4.6.4-.2.6-.9.7-1.5.1-1 .2-.9.8.8.9 2.3 1.3 2.7 1.3 1.2 0-1.4.5-1 1 .7.2.7.3 1 .3.5.1-1.1 1.5 1.4 1.5 2.7 0 .5.2 1.1.4 1.3.3.1.3 0 .2-.4-.4-.9 0-.7.6.4.3.5.5.8.5.5a3 3 0 0 0-.3-1.2c-.2-.3-.5-1.6-.5-2.7-.1-1.2 0-1.7.1-1.3.3.7.3.7.6-.3l.2-1 .7 1c.8 1.3.8 2.2 0 5.4-.7 2.7-1 5.2-.4 3 .2-.7.5-1.1.7-1 .2.1.5-.4.6-1.2.1-.8.3-1.5.5-1.6l1 3.2c.5 2.5.6 3.5.4 4.2-.2.5-.3 1-.2 1.1l.5-.8c.4-1 .4-1 1.6 1.7l1.5 3.6c0 .5.3.9.5.9.5 0 .1-1.7-.8-4l-.9-2.8a5 5 0 0 0-.6-1.8 10.2 10.2 0 0 1-1.2-6.8c.4-3.5.7-4.4 1-4.2.2.1.3-.2.3-.7 0-1.7.4-.7 1 3l.7 3.7-.8 2c-1 2.4-1 2.5-.3 2.2.2-.1.7-1 1-2l.7-1.8.3 2.5c.4 2.8.8 3.4 1 1.3.2-.8.2.3.2 2.4v3.8c.2 0 .6-.5 1-1.2.3-.7.8-1.2.9-1.2.1 0 .4-.4.5-.8.2-.8.3-.7.7.6.5 1.3.5 1.4.4.2l-.2-1.8c0-.3-.3-1-.7-1.4-1-1.2-.9-3.5.2-3.5.2 0 .7-.8 1-1.7 1.2-3.2 1.4-2.7 1.2 3.4v5.4c.2-.1.6-1.8 1-3.8.4-2.4.8-3.7 1.4-4.3 1-1 1-1 1.5 1.9.4 1.8.4 2.3-.1 3.2-.8 1.6-.7 1.9.2.5.4-.6.8-1 1-1 .2.2.5-.3.7-1 .7-2 1-1.8 1 .4 0 1.8 0 2.3-1 3.3l-1 1.2.7-1.5c.4-.8.6-1.6.5-1.8-.6-.6-5.2 6.8-7 11.2a81.7 81.7 0 0 0-4.4 15c0 .8.7-1.1 2-5.6a37.7 37.7 0 0 1 7.8-17.3l-.5 1.3a4 4 0 0 0-.5 1.6c0 .5 0 .5.5-.3l.7-1c.1 0 0 .2 0 .4l-.1.3s.9-1 1.8-2.4a37 37 0 0 1 1.8-2.5l-1.6 6.7c-.6 2-2.5 10.3-2.4 10.9 0 1.4 3.8-12.3 3.8-14 0-1 1.7-5.5 1.8-4.7 0 .3.6-.5 1.4-1.8l1.6-2.4c.3 0-2.6 11.9-5 20-1 3-1.3 4.8-1.1 5 .4.2 0 3.3-.4 4.2l-1.1 3-.7 2.3-10.5 8.9c-9.6 8-11.2 9.2-11.8 8.6zm-.3-3.7c-.7-1.3-1.7-1.8-1.7-.9 0 .3.1.6.3.6.2 0 .3.1.2.3-.1.2.1.5.6.7 1 .4 1.1.3.6-.7zm1.4-4.2c0-.5-1.4-1.7-4.4-4l-8-6c-7.8-6.2-8-6.4-8.4-6-.3.3-.3.5 0 .6.2.2.4 0 .4-.2s.2-.1.5.3 2 2 4 3.4c2.2 1.6 3.4 2.8 3.4 3.2 0 .4.2.8.5.9.3 0 .4 0 .3-.5-.1-.3.9.4 2.3 1.5 4.1 3.3 5 4 5 4.5-.1.2.3.8.8 1.3l1 .8-.3-.8c-.2-.7 0-.6 1.3.5l1.5 1.2.1-.7zm-7.1-.9c-.2-.3-.4-.5-.6-.5-.3 0-.3.2 0 .7.4.8.9.7.6-.2zm12.2.5c.2-.1 0-.3-.1-.3-.2 0-.4.2-.4.3 0 .2 0 .4.2.4l.3-.4zm-15-.6-.5-1c-.4-.6-.7-.8-1-.5-.2.3-.1.6.3 1 .7.8 1.3 1 1.3.5zm13.6-.8c.2-.2 0-.3-.1-.3-.2 0-.4.1-.4.3 0 .2 0 .4.2.4l.3-.4zm-17.8-3.2c-1.8-1.8-2.3-2-2.6-1.2v.5c.2 0 1.1.7 2 1.6 1.4 1.3 1.8 1.6 2 1.2.3-.3-.1-1-1.4-2.1zm13.6-.3c.9 0 1-2.4.7-8.4-.2-2.3-.4-3.2-.6-2.9-.7.7-1.7.4-1.7-.4 0-1.1.7-3.5 1-3.4.8.1 1.1-.2 1.5-1.6l.4-1.5.9 1.6c.7 1.4.8 1.5.6.6-.3-1.4-1.3-3.5-1.8-3.7-.4 0-2 3.1-2.6 5.4a91 91 0 0 0-.1 14.6c.2 1.1.2 1.1.7.4.3-.4.7-.7 1-.7zm7.8 1c0-.1 0-.3-.2-.3s-.4.2-.4.4.1.3.2.3l.4-.3zm4.4-2.4c0-.2.4-.4.9-.4s.8-.2.8-.5c0-.8-.8-.6-1.7.4-.5.5-.7.8-.4.8.2 0 .4-.1.4-.3zm-7.6-2.3 1.2-4.1c2-8.4 1.8-7.6 1-6.7-.3.5-.6.8-.6.6 0-.7 1.2-3 2-3.7l2.1-2.3 1.1-1.4-.2 1.3c-.2 1.7.1 1.7.6-.1l.6-2c.1-.3 0-.5-.3-.5-.7 0-3.9 3.5-5 5.5a38.4 38.4 0 0 0-3.4 12.3c0 1.3 0 2.3.2 2.3l.7-1.2zm-9.9 0c.8 0 .9 0 .9-1 0-2.7-1.3-10.5-1.7-10.4-.7.2-1.9-.6-2-1.2-.4-2-.5-2-.3.3.2 3 1.4 11.9 1.8 12.7.2.6.2.6.4 0 0-.5.3-.6 1-.5zm-9.4-1.1c-.1-.7-1.2-1.5-1.5-1.1-.2.1 0 .5.1 1 .5.8 1.6 1 1.4 0zm34.6 0c.3-.2.4-.5.2-.5l-.7.5c-.3.3-.4.6-.2.6l.7-.6zm-38.8-.7c-.5-.5-1-.7-1.1-.5-.6.6 0 1.4 1 1.4h1zm28-1.5.5-2.7c.4-2-.5-.4-1 2-.8 3-.8 3.3-.2 2.8.3-.2.6-1.2.7-2zm8 1c0-.2-.1-.3-.3-.3-.2 0-.5.1-.6.3 0 .2 0 .4.4.4.3 0 .5-.2.5-.4zm-26.8-4.8c-.4-2-1.3-4.8-1.8-6.5-.8-2.5-.9-2.8-.3-2.1.4.5.7.7.7.5 0-.9-1.5-4.6-2.5-6a20 20 0 0 1-1.5-2.6 17 17 0 0 0-3.3-4.9c-.3 0-.4.3-.2 1.2.2 1.7 1 4.4 1.1 3.7 0-.7 2.4 2.6 3.4 4.8a57 57 0 0 1 2 7c2 7.7 2.4 9.1 2.9 8.7.2-.3.1-1.4-.5-3.8zm-6.9-17.8c-.3-.4-.5-.8-.4-.9l.7.7c.7 1.1.6 1.2-.3.2zm2.5 17.5c1 .2 1 .2.7-1.8-.7-6.3-1.2-9-1.6-8.8-.4.3-1.7-.8-1.9-1.7v2a65 65 0 0 0 1.5 10.6c.2.7.2.7.3.1.1-.5.4-.6 1-.4zm30.7-1.5a158 158 0 0 0 3.7-12.2l-.4-.2a74 74 0 0 0-3.8 11.2c-.8 2.7-.4 3.4.5 1.2zm-22.2-6.9a29.4 29.4 0 0 0-3.9-5.9c-.5-.4-.6-.3-.5.4 0 1 1.3 6 1.3 5.1 0-.5.2-.6.8-.5.8.3.8.2.3-.9-.4-.6-.4-.7 0-.3.3.2 1 1.3 1.6 2.3.6 1.1 1.1 2 1.2 1.8l-.8-2zm19.2-7.3c0 1.1 0 1.1.3.3.5-1.6.7-3.8.4-3.8-.4 0-3.1 4.4-3.7 6.1-.9 2.5-.6 2.3 1.2-.8 1.7-3 1.8-3 1.8-1.8zm-30.8.8c-.1-.3-.2-.2-.2.4 0 .6 0 .9.2.7a2 2 0 0 0 0-1.1zm21.9.2c.3 0 .4-.3.4-1 0-1.6.5-1.3 1.2.6l.6 1.7-.2-1.4c-.3-1.6-2-6.7-2.7-8-.4-.8-.5-.7-.6 1.2 0 1.2 0 2.3.3 2.5.2.2.4 0 .4-.7v-1l.5.9c.4.8.4 1.1-.4 3-1 2.3-1.2 4.1-.4 2.7.2-.4.6-.6.9-.5zm-18.4-7.7.8 1.4c.4.8.9 1.4 1 1.3.2-.2-2-4.5-2.4-4.5-.3 0-.7 2.2-.7 4v1.1l.6-1.5.7-1.8zm14.4-2c-1.1-4.8-2-7.4-3.1-8.8-.6-.6-.6-.6-.4 1 .3 1.7.5 2.2.5 1.1 0-.4.3.3.5 1.5 1 4.2 1.7 6.4 2.2 6.2.3 0 .4-.5.3-1zm12.4 2.8.3-2.2.2-.8.5.7c.5.7.5 1-.2 2.2l-.8 1.4v-1.3zm-5-.8c-.3-.4-.5-.8-.4-.9 0-.1.4.2.7.7.7 1 .6 1.2-.3.2zM77 192.6c0-1.1 0-1.1.4-.4.3.6.3 1 0 1.2-.4.4-.5.2-.4-.8zm-2.5-4c-.2-.6-.8-1.6-1.3-2.1-1-1-1.5-3-.9-3 .4 0 1.8 2.6 2.5 4.7.6 1.7.3 2-.3.4zm7.3-2.7c-.7-1.6-.9-5.5-.3-4.5.4.6 1.2 5 1 5.6 0 .2-.4-.3-.7-1.1z" style="fill:#78833b;stroke-width:.352778" transform="translate(-44.5 -173.2)"/>
  <path d="M80.4 243.6v-.7c0-.3 0-.5-.4-.5-1 0-2-1.2-2.1-2.6 0-1.2-.3-1.5-1.1-2-.7-.4-1-.8-1-1.3 0-.3 0-.4-.1-.2-.3.7-.9.6-1.9-.3l-.8-.8.3 1c.1.6.4 1.3.6 1.6.2.3-1.9-1.4-4.6-3.7a33 33 0 0 1-5.2-4.8c-.3 0-1.3-.6-2.1-1.4-1.4-1.2-1.6-1.7-2.5-5-1.5-5.4-1.5-5.6-.3-6.5l1-.8-1.2-4.3-2.5-8.5c-.8-2.6-1.2-4-.9-3.8.4.4.5.3.6 0 0-1.5 3 9 4.7 16.8.4 1.5.7 2.5.8 2.2 0-.4.4-.6.6-.6.3 0 .5-.3.6-.7 0-.4.1-.3.3.3.5 1.5.4-.1-.2-4a13 13 0 0 0-.8-3.6c-.1.1-.6-1.7-1.2-4l-1.2-4.8c0-.4.1-.2.5.5 1 1.7 1 1.4-.2-1.8-.5-1.4-1-3.2-1-4-.2-1.1-.1-1.3.4-1.2.6.1.7-.1.9-1.8l.1-2 1.3 2.8c1 2.1 1.2 2.5 1.4 2 .2-.7.3-.6 1.2.8.5 1 1 1.7 1.1 1.7.3 0-.8-2.4-2-4.5a6 6 0 0 1-.9-1.9l1.3 2 1.2 2v-5.9c.2.2.4.4.7.4.2 0 .4-.7.3-2.2v-2.2l.8 1.8c1 2.2 2 5.4 1.8 5.7-.2.2-.4 0-.6-.2-1.2-2-1.5-2-1 .3.2.8.5 1.3.7 1 .1-.2.3-.2.6.1a21.4 21.4 0 0 1 1.4 7c.2 0 .5.6.6 1.3.2.7.6 1.4.9 1.5.3 0 .4 0 .2-.3-.2-.4-.2-.4 0-.2.3.2.5.7.6 1 .4 1.8.2-1.5-.2-3.5-.5-2.2-.6-5.7 0-6.5.1-.3.4 0 1 1 1.3 2 .7.1-.8-2.7-.6-1.3-.9-2-.5-1.5.5.6.7.7.8.4.1-.4.4-.1.8.7.9 1.7 1 1 .2-.9-.4-.9-.7-1.9-.7-2.2 0-.5.1-.5.4.1.2.6.3.6.3-.3 0-1 0-1 1 .6.7 1 1.1 1.8 1.1 2 0 .2.2.3.3.2.2-.1.4.3.6 1 .2.9.3 1 .8.5.6-.4.6-.4 0 .2a27 27 0 0 0-2.2 5.4c-.2.8-.3.7-1.3-.8-.6-.9-1.1-1.6-1.2-1.5-.1.1.3 1.4.9 2.8a15 15 0 0 1 1 3.2c0 .4.2.6.4.5.2-.2 1.7 2.6 2 3.8l.1.5c0 .1.2 0 .4-.4.2-.3.7-.6 1-.6.6 0 .7-.2.5-1.3l-.1-1.3 1 2c.6 1 1.1 1.6 1.1 1.4 0-.7-2.4-5.7-2.8-5.7-.4 0-.7 1.2-.7 2.7 0 1.7-.6 1.7-.9 0 0-.7-.4-1.9-.7-2.5-.5-.9-.5-1.3-.2-2.3 1.5-4.2 2.5-5.6 2.4-3.3 0 1.3.8 5.5 1.2 5.9.2.2.3 0 .3-.5 0-.7.3-.5 1 1l1 1.7c.5-.5-3.5-13.5-4.7-15.3-.7-1.2-.5-3.4.5-3.3.1 0 .3-.3.4-.8.1-1 .7-1.7.8-1l.6 2 .7 1.4.3-1.2.4-1.3.3 1.5c.2 1.6.8 2.4.8 1.3 0-1.2 1 1 1.1 2.3l.3 2.2c.3.8.3.7.4-.4v-1.2l.7 1c.5 1 .6 1.5.3 2.9-.3 1.9 0 6.4.4 6.7.2 0 .4-.2.5-.6.2-.4.4-.6.5-.5.2 0-.2 1.5-.7 3-.5 1.7-1 3.3-1 3.7 0 .4.1.5.2.2a2 2 0 0 1 1-.7c.6-.3.9-.7 1-1.9l.3-1.5.7 1.6.7 1.6-.2-1.4c-.3-1.9-1.8-6.4-2.7-7.9-.3-.6-.5-1.2-.3-1.3.2-.1.3-.4.2-.6-.2-.1 0-.3.2-.2.3 0 .6-.6 1-2a7 7 0 0 1 .6-1.9l.7 3.2c.6 2.5.6 3.3.3 4.5-.5 1.6-.1 1.6.5 0l.5-1.1.5 1.2 1.5 3.8c1.3 3.5 1.8 2.5.6-1.2l-1-3.3a5 5 0 0 0-.6-1.7 10.8 10.8 0 0 1-1.4-7.2c.4-2.8.5-3.3 1-3 .2.1.3-.2.3-.8 0-1.7.5-.5 1.1 2.7l.6 3-.8 2a6.8 6.8 0 0 0-.7 2.7c.3.8.7.2 1.5-2l.6-2 .3 2.1c.4 3 .7 3.5 1 1.6.2-1 .2-.2.2 2.2-.2 3.8.1 4.6.9 3 .2-.5.5-.8.7-.7.2 0 .5-.4.7-1l.4-1.2.5 1.4.4 1.4-.1-1.4-.2-2c0-.3-.3-.9-.7-1.3-.8-1-1-1.8-.3-1.8.3 0 .9-1.1 1.3-2.5.8-2.2 1-2.4 1.2-1.7.2.5.2 2.9.1 5.4-.2 4.4.2 5.8.7 2.4.4-3.1 1-4.4 1.7-4.2.4.2.7 0 1-.6.2-.6.2-.6.6.7.4 1.2.4 1.6-.3 3.1a18 18 0 0 0-.7 1.9c0 .5 2.5-2.4 2.8-3.3.4-1 .5-1 .7-.3.6 1.4.4 2.5-.7 3.7l-1 1.2.6-1.4c.9-1.7.9-2 .4-2-.4 0-3 3.9-5 7.1a109 109 0 0 0-6.4 19c-.2 1.9-.2 2 .2 1.2.3-.5 1-2.5 1.5-4.5A102 102 0 0 1 98 207a45 45 0 0 1 4.2-7l-.4 1.3a709.5 709.5 0 0 0-6 18.8c-.2.3 0 .2.5-.3 1-1 1.8-3 3.4-8.4a127 127 0 0 1 2.1-6.7c.8-2 3-5.9 3.7-6.3.5-.3.1 2-.9 5.3a95 95 0 0 0-2.5 11.8c.3 0 2-5.5 3.4-11 1.3-4.9 2.1-7.3 3.6-9.8 1-1.6 1.2-1.8 1.3-1.2.1.9-1.2 6.7-2.8 12.1-2.4 8.1-3 10.6-2.7 10.8.4.3 0 3.4-.4 4.3l-1.1 3-.7 2.3-10.5 8.9c-9.6 8-11.2 9.2-11.8 8.6zm-.3-3.7c-.7-1.3-1.7-1.8-1.7-.9 0 .3.1.6.3.6.2 0 .3.1.2.3-.1.2.1.5.6.7 1 .4 1.1.3.6-.7zm1.4-4.2c0-.5-1.4-1.7-4.4-4l-8-6c-7.8-6.2-8-6.4-8.4-6-.3.3-.3.5 0 .6.2.2.4 0 .4-.2s.2-.1.5.3 2 2 4 3.4c2.2 1.6 3.4 2.8 3.4 3.2 0 .4.2.8.5.9.3 0 .4 0 .3-.5-.1-.3.9.4 2.3 1.5 4.1 3.3 5 4 5 4.5-.1.2.3.8.8 1.3l1 .8-.3-.8c-.2-.7 0-.6 1.3.5l1.5 1.2.1-.7zm-7.1-.9c-.2-.3-.4-.5-.6-.5-.3 0-.3.2 0 .7.4.8.9.7.6-.2zm12.2.5c.2-.1 0-.3-.1-.3-.2 0-.4.2-.4.3 0 .2 0 .4.2.4l.3-.4zm-15-.6-.5-1c-.4-.6-.7-.8-1-.5-.2.3-.1.6.3 1 .7.8 1.3 1 1.3.5zm13.6-.8c.2-.2 0-.3-.1-.3-.2 0-.4.1-.4.3 0 .2 0 .4.2.4l.3-.4zm-17.8-3.2c-1.8-1.8-2.3-2-2.6-1.2v.5c.2 0 1.1.7 2 1.6 1.4 1.3 1.8 1.6 2 1.2.3-.3-.1-1-1.4-2.1zm14.4-8.3c0-5 0-8 .3-8.2.4-.4 1-.1 1.5.9.4.6.4.5.2-.6-.2-1.4-1.2-3.6-1.8-3.8-.2 0-.9 1-1.5 2.3a37.2 37.2 0 0 0-1.2 18l.1 1.4 1.3-1.1 1.2-1.2zm7 9c0-.1 0-.3-.2-.3s-.4.2-.4.4.1.3.2.3l.4-.3zm-3.4-3.8c.4-.9 1.2-4 2-6.9 1.2-5.2 2.2-8 3.6-9.6l.6-.8v1.1l.3 1.3c.1 0 .5-1 .9-2.3.4-1.3.6-2.5.5-2.6-.3-.3-2.4 1.5-4 3.7a31.8 31.8 0 0 0-5 17.7c0 .6.2.8.3.5 0-.3.5-1.2.8-2.1zm7.8 1.4c0-.2.4-.4.9-.4s.8-.2.8-.5c0-.8-.8-.6-1.7.4-.5.5-.7.8-.4.8.2 0 .4-.1.4-.3zm-17.5-1.4c.8 0 .9-.1.9-2.1a80.7 80.7 0 0 0-2.6-16 19 19 0 0 1 2 3.8c.3.8.6 1.2.6 1 0-1.3-2.8-6.7-4.6-8.7l-1-1.1v.9l.4 3c.3 1.1.6 3.2.8 4.5.5 5.7 2.3 16.4 2.5 15.3.1-.4.5-.6 1-.6zM78 225c-.1-1.4-.3-2-.3-1.4 0 1.5.4 5 .5 4.4.1-.2 0-1.5-.2-3zm12.3-2.2.4-3.3v-1l-.4.9-1.9 6.8-.2 1.1.9-1c.5-.7 1-2 1.2-3.5zm-24 2.7c-.1-.7-1.2-1.5-1.5-1.1-.2.1 0 .5.1 1 .5.8 1.6 1 1.4 0zm34.6 0c.3-.2.4-.5.2-.5l-.7.5c-.3.3-.4.6-.2.6l.7-.6zm-38.8-.7c-.5-.5-1-.7-1.1-.5-.6.6 0 1.4 1 1.4h1zm10.4-1.3-1.6-6.2c-.8-2.8-1.3-5.3-1.2-5.7.3-.8-1-4.3-2.2-6.2-.6-.7-1.4-2.3-2-3.4a20 20 0 0 0-2.2-3.4l-1.2-1.3.2 1.8a64.7 64.7 0 0 1 1.5 9.2c1 7.2 1.7 12.5 2 12.8.1 0 .2-.1.2-.5 0-.5.2-.6.9-.4.8.1.9 0 .9-1.6 0-1.9-1-8.5-1.5-10.7-.2-.7-.8-2-1.3-2.7-1.3-2-.8-2 .6 0a20 20 0 0 1 2 5c3.1 11.7 4 14.3 5 14.5l-.1-1.2zm-8-21.7c-.4-.5-.4-.6.2-.1l.6.6c0 .3-.3.1-.8-.5zm33.6 22.5c0-.2-.1-.3-.3-.3-.2 0-.5.1-.6.3 0 .2 0 .4.4.4.3 0 .5-.2.5-.4zM84.6 219c0-.6-.1-.2-.1 1s0 1.7.1 1.2V219zM69 216.8l-.4-1.4v1.2l.2 2.7.3 1.4.1-1.2c0-.7 0-1.9-.2-2.7zm15.3-.4c0-.4-.1-.2-.1.4 0 .6 0 .9.1.6a2 2 0 0 0 0-1zm17-1.6c.5-1.2.7-2.2.6-2.3 0 0-.4.7-.7 1.7a124.2 124.2 0 0 1-.8 2.8l1-2.2zm-8.4-8.8c.3-.8 1-1.8 1.2-2.2.6-.7.6-.7.4.2 0 .6 0 1 .2 1l.5-1.3c0-.7.3-1.9.4-2.5.4-1.8-.4-1.4-2 1.2a21 21 0 0 0-2.8 6.6c0 .6 1.4-1.4 2-3zm-31.5-3.2c-.1-.2-.2 0-.2.4 0 .5.1.7.2.5v-.9zm5.6-3.2c.3-.1.5-.8.5-1.4 0-1.1 0-1.1 1 .5.4 1 .9 1.7 1 1.7.4 0-2-5-2.6-5.2-.2 0-.4.5-.6 1.2-.2 1.7-.2 4.8 0 4l.7-.8zm14.8-4.8c-.8-3.3-1.4-5.3-2-6.9-1-2-1.7-2.8-1.7-1.7 0 1.2.6 3.5.7 2.8 0-.4.4.9 1 2.9.9 4.1 1 4.3 1.7 4 .3 0 .4-.4.3-1zm12.5 2.4c.3-1.9.6-2.5 1-1.6.2.6-.5 3-1 3.2v-1.6zm-10.1-6.6c-.7-1.7-.6-3.3.1-3.9.9-.6 1.1-.5 1.4.3.2.7-.5 4.5-.9 4.8-.1 0-.4-.5-.6-1.2zm-10.1-3c-.5-1.2-.8-2-.6-1.8.4.2 1.9 3.3 1.7 3.5a6 6 0 0 1-1.1-1.8zm7.8-1.8c-.7-1.4-.8-3.4-.3-3.4.4 0 1.3 3.6 1 4.2 0 .3-.4-.1-.7-.8z" style="fill:#6a664d;stroke-width:.352778" transform="translate(-44.5 -173.2)"/>
  <path d="M81.1 242c.2-2.2-.6-4.3-1.8-5-.9-.4-1.2 0-.6.7.9 1.1-1-.5-3-2.6a22 22 0 0 0-3.7-3 35 35 0 0 1-8.1-6.5c-1-1.5-2.7-2-3.4-1-.3.4-.5.5-.5.3 0-.3.2-.6.4-.7.2-.1.1-.5-.3-1-.7-.8-1.7-3.7-1.4-4l-.2-1c-.2-.4 0-.3.7.4.6.7 1.2 1.4 1.3 1.7.1.4.3.5.5.4.2 0 .8.3 1.3 1l2.1 1.7c.6.4.9.7.6.7-.8 0-.5 2 .5 2.8 1.5 1.1 2 .6 1.4-1.3-.3-.7-.3-.7.5 0a6 6 0 0 1 1.3 2c.4.8.6 1 1.3 1 .6 0 1.6.5 3.6 2.1 1.6 1.3 2.9 2.4 3 2.7.5 1.8 2.6 3.6 3.2 2.7.1-.3.3-.3.7.1.5.7 1.4.7 1.4 0 0-.6 1.1-1.2 2.1-1.1.6 0 1-.2 1.3-.7.7-1.4 2.3-3 2.6-2.5.4.6 1.1 0 1-.8-.2-.4 0-.7.2-.8.3-.1 2.1-1.6 4.2-3.2 3-2.5 3.6-2.9 3.5-2.1-.1.6 0 .8.4.8.8 0 1.4-1.3 1-1.9-.4-.4-.2-.7.9-1.6.7-.6 1-1 .6-.8l-14.4 11.1-3 2.4-1.5-1a93.1 93.1 0 0 1-10.8-8.2c-10.3-7.9-10.4-8-10.1-9.5.2-1-2-9.5-3.8-14.6-.8-2.4-.8-2.8-.1-1.6.4.8.5.8.5.1a65 65 0 0 1 4.4 15.6c.4 1.5.7 2.5.8 2.2 0-.4.4-.6.6-.6.3 0 .5-.3.6-.7 0-.4.1-.3.3.3.5 1.5.4-.1-.2-4a13 13 0 0 0-.8-3.6c-.1.1-.6-1.7-1.2-4l-1.2-4.8c0-.4 0-.2.4.3.4.6.8 1.6 1 2.2.2 1 .2 1 0-.2 0-.7-.5-2.4-1-3.7l-1.2-3.8c-.1-1.2 0-1.4.5-1.3.6.1.7-.1.9-1.8l.1-2 1.3 2.8c1 2.2 1.2 2.6 1.4 2 .2-.7.3-.6 1.2.8.5 1 1 1.7 1.1 1.7.3 0-.8-2.4-2-4.5a6 6 0 0 1-.9-1.9l1.3 2 1.2 2v-5.9c.2.2.4.4.7.4.2 0 .4-.7.3-2.2v-2.2l.8 1.8c1 2.2 2 5.4 1.8 5.7-.2.2-.4 0-.6-.2-1.2-2-1.5-2-1 .3.2.8.5 1.3.7 1 .1-.2.3-.2.6.1a22.3 22.3 0 0 1 1.5 7 64 64 0 0 1 2.3 12.5c1 7.8 2.6 17 2.6 14.6 0-.4.3-.6 1-.6.8 0 .8-.1.8-2.1a80.7 80.7 0 0 0-2.6-16l2 3.8c.5 1.2.6 1.3.4.3-.3-1.5-2.2-5.1-3.8-7.2-.8-1-1.1-1.8-.8-1.6.4.1.6 0 .6-1.1 0-.7-.3-2-.5-3a14 14 0 0 1 0-6.3c.1-.3.5 0 1 1 1 1.5.9.4-.2-1.8-.5-.9-.6-1.5-.4-1.9.3-.5.4-.4 1 .6.8 1.7 1 1 .1-.9-.4-.9-.7-1.9-.7-2.2 0-.5.1-.5.4.1.2.6.3.6.3-.3 0-1 0-1 1 .6.7 1 1.1 1.8 1.1 2 0 .2.2.3.3.2.2-.1.4.3.6 1 .2.9.3 1 .8.5.6-.4.6-.4 0 .2a27 27 0 0 0-2.2 5.4c-.2.8-.3.7-1.3-.8-.6-.9-1.1-1.6-1.2-1.5-.1.1.3 1.4.9 2.8a15 15 0 0 1 1 3.2c0 .4.2.6.4.5.3-.2 1 1.1 1.8 3.5.3 1 .4 1 .7.4.2-.3.7-.6 1-.6.6 0 .7-.2.5-1.3l-.1-1.3 1 2c1.2 2.1 1.5 1.8.4-.6-.4-1-.6-1.8-.5-2 .2-.3.1-.3 0-.2-.3.1-.6-.2-.9-.7-.8-1.5-1.1-1-1.5 2.3 0 .7-.3.2-1-1.7l-1-2.5.6-1.7c.8-2.1 1.8-4.2 1.9-3.7l.1 1.2c.4 3.4 1.6 7.4 1.6 5.3 0-.7.2-.5 1 .9.4 1 1 2.2 1.1 2.8l.3 1v-1c0-.4-.3-2-.8-3.6l-.9-3.3c0-1-3.1-9.5-3.5-9.7-.8-.5-.2-3.2.6-3 .1.1.3-.1.4-.5.2-1.7.5-1.8 1-.6.6 1.5.6 2 0 1.5-.5-.4-.6-.4-.6.2 0 1.2.6 3.5.7 2.8 0-.4.3.2.6 1.4 1.2 5.3 2 7.8 2.5 7.7.2-.1.4-.6.4-1a54.8 54.8 0 0 0-2.8-10.3c.2.1.4 0 .4-.1 0-.3.4 0 .8.6.8.8 1 .9 1 .2 0-1.2 1 1 1 2.3l.3 2.2c.3.8.3.7.4-.4v-1.2l.7 1c.5 1 .6 1.5.3 2.9-.3 1.9 0 6.4.4 6.7.2 0 .4-.2.5-.6.2-.4.4-.6.5-.5.2 0-.2 1.5-.7 3-.5 1.7-1 3.3-1 3.7 0 .4.1.5.2.2a2 2 0 0 1 1-.7c.6-.3.9-.7 1-1.9l.3-1.5.7 1.6.7 1.6-.2-1.4c-.3-1.9-1.8-6.4-2.7-7.9-.3-.6-.5-1.2-.3-1.3.2-.1.3-.4.2-.6-.2-.1 0-.3.2-.2.3 0 .6-.6 1-2a7 7 0 0 1 .6-1.9l.7 3.2c.6 2.5.6 3.3.3 4.5-.5 1.6-.1 1.6.5 0l.5-1.1 1 2.2c2 4.8 2.2 5.8 1.6 7.6l-.6 2c0 .6 1.4-1.4 2-3l1.3-2.2c.6-.7.6-.7.4.2 0 .6 0 1 .2 1l.5-1.3c0-.7.3-1.9.4-2.5.4-1.8-.4-1.4-1.8 1l-1.3 2-1-3c-.6-1.6-1-3.2-1-3.5 0-.4-.4-1.1-.7-1.7-1.3-2-1.7-4.4-1.4-7 .3-3 .5-3.5 1-3.2.2.1.3-.2.3-.8 0-1.7.5-.5 1.1 2.7l.6 3-.8 2a6.8 6.8 0 0 0-.7 2.7c.3.8.7.2 1.5-2l.6-2 .3 2.1c.4 3 .6 3.4 1 2.5.2-.5.3.3.2 2.2-.2 3 .1 3.7.9 2 .2-.4.5-.7.7-.6.2 0 .5-.4.7-1l.4-1.2.5 1.4.4 1.4-.1-1.4-.2-2c0-.3-.3-.9-.7-1.3-.8-1-1-1.8-.3-1.8.3 0 .9-1.1 1.3-2.5.8-2.2 1-2.4 1.2-1.7.2.5.2 2.9.1 5.4-.2 4.4.2 5.8.7 2.4.4-3.1 1-4.4 1.7-4.2.4.2.7 0 1-.6.2-.6.2-.6.6.7.4 1.2.4 1.6-.3 3.1a18 18 0 0 0-.7 1.9c0 .5 2.5-2.4 2.8-3.3.4-1 .5-1 .7-.3.6 1.4.4 2.5-.7 3.7l-1 1.2.6-1.4c.9-1.7.9-2 .4-2-.4 0-3 3.9-5 7.1a109 109 0 0 0-6.4 19c-.2 1.9-.2 2 .2 1.2.3-.5 1-2.5 1.5-4.5A102 102 0 0 1 98 207a45 45 0 0 1 4.2-7l-.4 1.3a709.5 709.5 0 0 0-6 18.8c-.2.3 0 .2.5-.3 1-1 1.8-3 3.4-8.4a127 127 0 0 1 2.1-6.7c.8-2 3-5.9 3.7-6.3.5-.3.1 2-.9 5.3a95 95 0 0 0-2.5 11.8c.3 0 2-5.5 3.4-11 1.3-4.9 2.1-7.3 3.6-9.8 1-1.6 1.2-1.8 1.3-1.2.1.9-1.2 6.7-2.8 12.1a58.7 58.7 0 0 0-3.3 12.3c-.7.6-.7 1.2 0 .9.7-.3.7-.3-.6 3.6-.7 2.3-1.4 3.7-2 4.3a612.4 612.4 0 0 1-20.3 17c-.4 0-.4-.4-.3-1.9zm5.3-5.7c.4-.4.6-1.7.2-1.7-.5 0-1.5 1.2-1.5 1.7 0 .6.7.6 1.3 0zm-4.6-14c0-4.9 0-7.9.3-8 .4-.5 1-.2 1.5.8.4.6.4.5.2-.6-.2-1.4-1.2-3.6-1.8-3.8-.2 0-.9 1-1.5 2.3a37.2 37.2 0 0 0-1.2 18l.1 1.4 1.3-1.1 1.2-1.2zm12.7 7.5c.6-.8.6-2.6 0-2.6-1 0-2.6 2.2-2.2 3 .2.7 1.5.4 2.2-.4zm-9-2.2 1.8-6.9c1.3-5.2 2.3-8 3.7-9.6l.6-.8v1.1l.3 1.3c.1 0 .5-1 .9-2.3.4-1.3.6-2.5.5-2.6-.3-.3-2.4 1.5-4 3.7a31.8 31.8 0 0 0-5 17.7c0 .6.2.8.3.5 0-.3.5-1.2.8-2.1zM78 225c-.1-1.4-.3-2-.3-1.4 0 1.5.4 5 .5 4.4.1-.2 0-1.5-.2-3zm12.3-2.2.4-3.3v-1l-.4.9-1.9 6.8-.2 1.1.9-1c.5-.7 1-2 1.2-3.5zm10.2 3.4c.8-.5 1-1.5.5-1.5-.2 0-.6.2-.8.6-1.3 1.5-1.2 2 .3 1zm-28-2.7c-.1-.6-.8-3.4-1.6-6a24 24 0 0 1-1.1-5.8c.2-.9-1-4.2-2.3-6.1l-2-3.6a20 20 0 0 0-2.2-3.4l-1.2-1.3.2 1.8a64.7 64.7 0 0 1 1.5 9.2c1 7.2 1.7 12.5 2 12.8.1 0 .2-.1.2-.5 0-.5.2-.6.9-.4.8.1.9 0 .9-1.6 0-1.9-1-8.5-1.5-10.7-.2-.7-.8-2-1.3-2.7-1.3-2-.8-2 .6 0a20 20 0 0 1 2 5c3.1 11.7 4 14.3 5 14.5l-.1-1.2zm-8-21.7c-.4-.5-.4-.6.2-.1l.6.6c0 .3-.3.1-.8-.5zM84.6 219c0-.6-.1-.2-.1 1s0 1.7.1 1.2V219zM69 216.8l-.4-1.4v1.2l.2 2.7.3 1.4.1-1.2c0-.7 0-1.9-.2-2.7zm15.3-.4c0-.4-.1-.2-.1.4 0 .6 0 .9.1.6a2 2 0 0 0 0-1zm17-1.6c.5-1.2.7-2.2.6-2.3 0 0-.4.7-.7 1.7a124.2 124.2 0 0 1-.8 2.8l1-2.2zM67 199.6c.3-.1.5-.8.5-1.4 0-1.1 0-1.1 1 .5.4 1 .9 1.7 1 1.7.4 0-2-5-2.6-5.2-.2 0-.4.5-.6 1.2-.2 1.7-.2 4.8 0 4l.7-.8zm12.8 42.2h.9c.2.1 0 .2-.5.2s-.7 0-.4-.2zM62 227.6c-1.5-.9-1.5-1.3-.1-.5 1 .5 1 .5 1.3 0 0-.3.3-.6.5-.6s.2.2 0 .4c0 .3.1.7.5 1 .6.4.6.4-.2.4-.5 0-1.4-.3-2-.7zm32.4-30c0-1.6.2-2.5.7-2.3.4.3.3 1.2-.2 2.5l-.5 1v-1.3zm-10.2-7c-.7-1.7-.6-3.3.1-3.9.9-.6 1.1-.5 1.4.3.2.7-.5 4.5-.9 4.8-.1 0-.4-.5-.6-1.2zm-10.1-3c-.5-1.2-.8-2-.6-1.8.4.2 1.9 3.3 1.7 3.5a6 6 0 0 1-1.1-1.8zm7.8-1.8c-.7-1.4-.8-3.4-.3-3.4.4 0 1.2 3.7 1 4.3 0 .2-.4-.2-.7-.9z" style="fill:#697133;stroke-width:.352778" transform="translate(-44.5 -173.2)"/>
  <path d="M81.1 242c.2-2.2-.6-4.3-1.8-5-.9-.4-1.2 0-.6.7.9 1.1-1-.5-3-2.6a22 22 0 0 0-3.7-3 35 35 0 0 1-8.1-6.5c-1-1.5-2.7-2-3.4-1-.3.4-.5.5-.5.3 0-.3.2-.6.4-.7.2-.1.1-.5-.3-1-.7-.8-1.7-3.7-1.4-4l-.2-1c-.2-.4 0-.3.7.4.6.7 1.2 1.4 1.3 1.7.1.4.3.5.5.4.2 0 .8.3 1.3 1l2.1 1.7c.6.4.9.7.6.7-.8 0-.5 2 .5 2.8 1.5 1.1 2 .6 1.4-1.3-.3-.7-.3-.7.5 0a6 6 0 0 1 1.3 2c.4.8.6 1 1.3 1 .6 0 1.6.5 3.6 2.1 1.6 1.3 2.9 2.4 3 2.7.5 1.8 2.6 3.6 3.2 2.7.1-.3.3-.3.7.1.5.7 1.4.7 1.4 0 0-.6 1.1-1.2 2.1-1.1.6 0 1-.2 1.3-.7.7-1.4 2.3-3 2.6-2.5.4.6 1.1 0 1-.8-.2-.4 0-.7.2-.8.3-.1 2.1-1.6 4.2-3.2 3-2.5 3.6-2.9 3.5-2.1-.1.6 0 .8.4.8.8 0 1.4-1.3 1-1.9-.4-.4-.2-.7.9-1.6.7-.6 1-1 .6-.8l-14.4 11.1-3 2.4-1.5-1a93.1 93.1 0 0 1-10.8-8.2c-10.3-7.8-10.4-8-10.1-9.4 0-.6 0-2-.3-3.1a13 13 0 0 1-.4-2.8c0-.3 0-.5-.2-.4-.1 0-.8-1.7-1.5-4l-1.3-4.6c-.1-.4 0-.4.6 0 .7.5 2 4.3 1.7 5.1-.2.4-.1.5.2.3.2-.2.3 0 .1.9-.1.7 0 1 .1 1 .2-.2.5 0 .6.5l2 9.3 1-.1c.8-.1 1 0 1.2.7.4 2-.3-4-1-8.5l-1.3-8.6c-.3-2-.6-3.3-.7-3.1-.1.2-.5-.2-.8-.9-.7-1.5-.7-1.5.1-1.3.7.2.7 0 .7-2.4 0-2.3 0-2.5.5-2 .3.2 1 1.6 1.4 3 .6 1.8.9 2.4 1 1.8 0-.5 0-1 .3-1.2.5-.3 1.9 2.7 2 4.5l-.1 1.7-1.2-1.7c-.6-1-1.4-2-1.8-2.4-.6-.6-.7-.6-.7 0l.5 2.9c.3 1.1.9 4.8 1.3 8 1.2 9.8 1.8 13.5 2.2 12.8.1-.3.6-.6 1-.6s.7-.3.8-1c.2-.7.3-.8.6-.4.2.3.3 1 .4 1.4l.3-1.7.2-2.7 1 3.8c.6 2.3 1.3 4.2 1.8 4.8l.8 1-.1-1.5c-.6-4.3-1-6.1-1.2-6-.4.2-1.1-3-1.3-5.3-.1-2-1.6-6-3-8.2-1.4-2.3-1.6-4.3-.4-4.3.6 0 .8-.3.8-1.5l.1-1.5 1.2 2.2c.8 1.6 1.3 3.4 2 7.2a38 38 0 0 1 1 6.8 110.1 110.1 0 0 0 1.4 8.1l1 6.7c0 .2.2.2.4 0a2 2 0 0 1 1.2-.5c.7 0 .8-.2 1-1.3V226l.6 1.8.6 1.7v-1.7c0-2.2-.5-7.7-1.2-11.7-.6-3.5-1.8-6.1-4.1-9.3-.8-1-1.2-1.8-.9-1.5.8.6.8.3 0-3.3l-.4-4.6c0-1.6 0-1.9.6-1.8.4 0 1 .5 1.1 1 .3.6.6 1.1.8 1.2.3.2-1.2-4-1.7-4.8 0-.2 0-.3.4-.3.3 0 .7.4 1 1 .9 1.7 1 1.3.2-.7s-.9-3.6-.2-3.4c.6.1 1.6 1.9 1.6 2.8 0 .6.1.7.3.3.2-.3.4-.1.6.7.1.8 0 1.8-.7 3.5l-1 2.4s-.6-.6-1-1.4c-.6-.8-1.1-1.3-1.2-1.2-.1 0 .3 1.3.9 2.8a15 15 0 0 1 1 3.5c0 .5.4 1 .7 1.3 1 .5 2 3.6 1.7 5-.2.7-.2 1 0 .9.3-.3.4-.5.5-1.5 0-.4.2-.5.5-.4.8.3 1.3-.5 1.3-2v-1.5l1.2 2.5c1 1.9 1.2 2.2 1 1.2l-1-3c-.6-1.3-.8-2.2-.6-2.8.2-.8.3-.7 1.1 1.3 1.2 3 1.4 1.6.4-1.8a63.1 63.1 0 0 0-5-14.7c0-.6.1-.6.4-.1.3.4.3.4.3 0 0-.5.1-.5.4 0 .2.3.3.2.4-.6.1-.7.3-.2.4 1.4.2 1.3.5 2.3.6 2.3.2 0 .2-.3.1-.8v-.5c.1 0 .6 1.8 1 3.8.8 4.2 1.3 5.4 2 5 .5-.3.5-.7.1-2.8-.3-1.3-.8-3.4-1.3-4.8a8.3 8.3 0 0 1-.6-2.9c.3-.7.7-.3 1 1l.2 1.2.4-1c.3-.8.4-.8.6-.1.2.4.4 1.8.5 3.1.2 2.6.6 3.6.6 1.7 0-.6.2-1 .4-1s.2-.3 0-.5c0-.3 0-.4.1-.2.2.2.4 2.4.4 5 0 3 .2 5 .4 5.2.4.4.3 1.1-.4 3.3-.9 2.6-1.3 6-.6 4.2.2-.4.6-1 1-1.2.4-.4.6-.4.8 0 .2.3.4-.2.7-1.6.4-1.6.5-1.9.9-1.5.3.3.6 1 .9 1.7.3 1 .3 1 .1-.7 0-1.1-.8-3.8-1.5-6a13 13 0 0 1-1-4s.3-.5.4-1.2c.6-3.2 1-3.3 1.6-.1.4 1.6.4 2.4 0 3.5-.5 2-.4 2.5.4 1 .5-1 .9-1.3 1-1.1.3.2 1 1.9 1.6 3.8l1.3 3.4-.8 2.3c-.4 1.4-1.2 3-1.8 3.8a29 29 0 0 0-3.9 8.7l-.4 2-.2-3.4c-.3-4-1.7-8.1-2.6-8.1-.8 0-2.7 4.4-3 7-.5 2.5-.3 13 .2 14.6.1.5.3.5 1.4-.3.9-.7 1.2-1.2 1.2-2 0-.7.1-1 .4-.9l1 .5c.4 0 .7.6.8 1 0 .7.4 0 1.3-2.6.7-2 1.3-3.3 1.4-3 0 .5.4.9.8 1 .5.2.6.4.5 1-.2.7 0 1 .2 1 1 0 1.7-2.2 2.4-7 .6-4.3 1.1-6.6 2.5-11.7.5-1.8.2-2.2-.8-1.3-.7.7-.7.7 0-.8.7-1.3.9-1.4 1.3-1 .3.3.5.7.6 1l.7-2.9c.3-1.8.6-3.6.5-4 0-.3 0-.8.3-1.2.4-.5.5-.5.7.5.1.7.4 1.2.5 1.2.4 0-.2-4.7-.6-5-.2-.3-.3-.6-.2-.8l.7-2.5c.4-1.7.6-2 1-1.6.5.3.5 1.3.4 4.9-.2 4.5 0 4.7 1 1.4.3-1.2.6-1.6 1.2-1.7.5 0 1-.3 1-.6.1-.2.4-.4.5-.3.2.1.3 0 .3-.2 0-.3.1-.4.2-.2.2 0-.2 1.3-.8 2.6-1.4 3.1-1.4 3.4 0 1.8a46.9 46.9 0 0 0-6.4 14.2 63.6 63.6 0 0 1-2 5c.2-1 .1-1-1 0-1 1-1.6 3.5-.9 4.3.2.3.6.4.8.3.2-.1.3.3.2 1.2l-.1 1.5.9-2c.6-1.8.9-2.1 1.4-2 .5.2.7.4.5 1-.1.4 0 .3.4-.3l1-1.7c.4-.3 1-1.7 1.6-3.2.6-1.4 1-2 .9-1.4-.2.9-.1 1.2.3 1.4.5.1.6.5.4 1.3-.4 1.7 0 1 1.2-2 1-2.4 1-2.5.9-1-.6 4 1.3-1 3.5-9.6.7-2.7 1.8-6.1 2.4-7.6 1-2.5 1.1-2.5 1.6-1.8.4.6.5 1 0 2.4-2.4 9.6-2.9 10.9-3.8 11.1-.6.2-.7.5-.7 2.6.1 3.7 0 5.4-.6 5.8-.6.5-.6 1 0 .8.8-.3.8-.3-.5 3.6-.7 2.3-1.4 3.7-2 4.3a612.4 612.4 0 0 1-20.3 17c-.4 0-.4-.4-.3-1.9zm5.3-5.7c.4-.4.6-1.7.2-1.7-.5 0-1.5 1.2-1.5 1.7 0 .6.7.6 1.3 0zm8-6.5c.7-.8.7-2.6 0-2.6-1 0-2.5 2.2-2.1 3 .2.7 1.5.4 2.2-.4zm6.1-3.5c.8-.5 1-1.5.5-1.5-.2 0-.6.2-.8.6-1.3 1.5-1.2 2 .3 1zM75.8 209c-.1-.4-.2-.2-.2.4 0 .6 0 .9.2.6a2 2 0 0 0 0-1zm-1.4-2c-.2-.2-.2-.1-.3.3 0 .3.1.5.2.4.2 0 .2-.4 0-.6zm1-1.9c0-.3-.1-.1-.2.4 0 .6.1.9.2.7a2 2 0 0 0 0-1.1zm-14.7-7.5c0-.2-.2-.4-.4-.4s-.2.2-.1.4l.4.4.1-.4zm19 44.2h.9c.2.1 0 .2-.5.2s-.7 0-.4-.2zm-17.8-14.2c-1.5-.9-1.5-1.3-.1-.5 1 .5 1 .5 1.3 0 0-.3.3-.6.5-.6s.2.2 0 .4c0 .3.1.7.5 1 .6.4.6.4-.2.4-.5 0-1.4-.3-2-.7zm20-7c0-2.6 0-4.7.2-4.7l1 .6c1 .6 1 .7.9 4-.1 2.6-.2 3.4-.6 3.3-.2 0-.6.2-1 .7-.5.7-.5.5-.5-3.9zm5 3c-.1-.6 1.7-7.4 2.4-9.2.7-2 .7-2 1.4-1.3s.7.8-.3 4.7l-1 3.5c-.3-.7-1.2 0-1.9 1.3-.3.7-.7 1.1-.7 1zm-11.2-7a44 44 0 0 1-.7-4.8l.9 2.2c.6 2 1 6.7.6 7l-.8-4.5zm19.6-.4a48.8 48.8 0 0 1 4.6-12c-.5 1-.5 1.6 0 1.3.3-.2.4 0 .2.3l-1.5 5c-.8 2.7-1.4 4.2-1.6 3.9-.2-.7-.4-.5-1.2 1.2-.3.7-.5.8-.5.3zM67 211l-.5-3.7s.5 1.1.9 2.6c.5 1.9.6 3.1.4 3.8-.2.8-.3.3-.8-2.7zm32.2 3a60.2 60.2 0 0 1 4.8-12.4c.1.3.3.6.5.7.6.4-2.7 10.3-3.4 10-.2-.1-.8.3-1.2 1-.4.6-.7 1-.7.8zm-22.4-9.4-1-2.3c-.5-1.3-.6-1.7-.2-2.8.6-2 2-4.9 2-4.4l.2 1.5c.2 2 .8 4.8 1 5.3.4.5.3.5-.2 0-.8-.6-1-.4-1.3 1.7-.2 1.3-.3 1.5-.5 1zm15.4-1.3-1.1-3c-.9-2.8-.9-4 0-6.1l.6-1.3.4 1.4c.2.8.4 3.2.4 5.3v3.9l1-1.7 1.2-1.6c.1 0-.3.8-.9 1.7l-1.1 1.8-.5-.4zm-7.1-1.7c0-.2.1-.4.3-.5.2-.2.3 0 .1.3-.2.6-.4.7-.4.2zm-16.7-3.8a8.6 8.6 0 0 0-1.6-2.5c-.2 0-.5.5-.7 1.2l-.3 1.4-1.1-2.4c-1.3-2.8-1.3-3.2 0-.7.6 1 .9 1.3.7.8a18.2 18.2 0 0 1-.2-4.1c.3 1.2 1.2-.1 1.2-2 0-1 .1-1.7.3-1.7.6 0 2.3 4.6 1.8 5-.1.2-.5 0-.7-.6-.5-.9-1-1.1-1-.5l.5 2.4c.5 1.8.6 1.9.8 1.1.2-.6.3-.7.5-.3.2.6 1.2 5.3 1 5.3l-1.2-2.4zm35.6.1c.6-1.6.4-2-.7-1-.7.6-.7.5 0-.3.8-1 1-1 1.4-.4.4.6.3 1-.7 2.4-.5.6-.5.6 0-.7zm-10.7-1c0-.8 0-1.1.1-.7a5 5 0 0 1 0 1.6l-.1-.8zm1 1c0-.3.2-.8.5-1.1.6-.7.6-.3 0 .9-.4.7-.5.8-.6.2zm-5.6-4.1a11 11 0 0 1-.3-5.7c.2-.7.4-.9 1-.8.5.1.6 0 .6-1.2 0-1 .2-.6.6 1.4.5 3 .5 3.6-.5 6.3l-.7 1.9zm-4.6-3.3c-.6-1.5-.6-2 0-2.5.4-.4.6-.4 1 0 .2.2.3.1.3-.3s.1-.6.2-.5c.3.3-.5 4.5-.9 4.5-.1 0-.4-.5-.6-1.2zm-2.3-4.7c-.4-1-.4-1.4 0-1.4.2 0 .5.6.6 1.2.3 1.7 0 1.8-.6.2zm-3.4 0c-.2-.2-.4-.7-.4-1 0-.5.2-.4.6.3.6 1.1.5 1.5-.2.8z" style="fill:#5b642f;stroke-width:.352778" transform="translate(-44.5 -173.2)"/>
  <path d="m81 243.5.2-3.2c0-1.8.1-3 .5-3.8.6-1.2.7-1.3 2.3-1.3.5 0 1-.3 1.3-.8.6-1.4 2.3-3 2.6-2.5.4.6 1.1 0 1-.8-.2-.4 0-.7.2-.8.3-.1 2.1-1.6 4.2-3.2 3-2.5 3.6-2.9 3.5-2.1-.1.6 0 .8.4.8.8 0 1.4-1.3 1-1.9-.4-.4 0-.8 1.4-2l2.6-2.1c.4-.5-1.3.7-3.7 2.5l-5.2 4c-.8.6-.8.6-.8-.3 0-.6.2-1.6.5-2.3.6-1.2.7-1.3 1.1-.8.8.7 1 .6 1.5-.8.2-.7.6-1.2.7-1.2.2 0 .6-.6 1-1.4.5-1.4.5-1.4 1.2-.7.5.5.7 1 .5 1.5-.3 1.4.4 0 1.4-2.5a34 34 0 0 1 1-2.6v2c0 1.2 0 1.7.1 1.2.2-1.1 1.7-4.6 2-4.6.7 0 1.4 3.7.7 4.3-.6.5-.6 1 0 .8.8-.3.8-.3-.5 3.6-.7 2.2-1.4 3.6-2 4.2l-10.4 9c-8.4 7-11.2 9.1-10.3 7.8zm5.4-7.2c.4-.4.6-1.7.2-1.7-.5 0-1.5 1.2-1.5 1.7 0 .6.7.6 1.3 0zm8-6.5c.7-.8.7-2.6 0-2.6-1 0-2.5 2.2-2.1 3 .2.7 1.5.4 2.2-.4zm6.1-3.5c.8-.5 1-1.5.5-1.5-.2 0-.6.2-.8.6-1.3 1.5-1.2 2 .3 1zm-20.8 15.5h.9c.2.1 0 .2-.5.2s-.7 0-.4-.2zm-2.4-6.3a6.7 6.7 0 0 0-2-1.4c-.3-.2-1-.6-1.3-1.1-.3-.5-.8-.8-1-.8-1 0-2.8-1.2-3.4-2-.3-.5-.6-.8-.7-.7-.3.3-3.2-2-4.8-3.9a9 9 0 0 0-2-1.9c-.2 0-.3.2-.2.4.2.2 0 .2-.3 0-.3 0-.8.1-1 .5-.3.4-.6.5-.6.3l.4-.8c.4-.3.3-.6-.2-1-1-.8-1.8-3.6-1.3-4 .2-.3.6 0 1.1.7.5.6 1 1 1.1.9.2-.1.4 0 .5.4l1.7 1.7c1.2.9 1.5 1.3 1.5 2.3 0 .9.2 1.4 1 1.9 1.2.9 2 .4 1.3-.8l-.5-.8 1 .6c.4.4 1 1.1 1.2 1.7.2.6.6 1 1 1a19 19 0 0 1 7 5.5c.6 1.2 2.4 2.4 3 2 .3-.2.3-.1.2.1-.5.8-1.5.5-2.7-.8zm4.6-.8c0-.2-.5-.5-1-.8-.7-.2-1.1-.5-1.1-.7 0-.2.4-.6 1-.9.6-.3 1-.8 1-1 0-.5.3-.6.9-.4l1 .2c.2 0 .3.4.3.8 0 .6 0 .7.4.3l.3-1.3c0-.4.3-1.5.7-2.4.7-1.6.8-1.6 1.4-1 .4.4.7 1.1.8 1.6.2.8.2.8.2 0 0-.5.3-.8.6-.8.7 0 1.3-.9 1.8-2.7.2-1 .5-1.5.5-1.3 0 .3.3.5.7.5.6 0 .7.2.7 1.3 0 1.2-.2 1.5-2.3 3l-5 3.9c-2.9 2.1-3 2.2-3 1.7zm-5-3.5c-1.7-1.3-1.7-1.3-.9-1.4.7-.1 1-.4 1-.8 0-1.1.6-.8 1 .4.6 1.9.2-7.4-.6-12.2-.3-2.2-.5-4.2-.3-4.3.1-.2.7 0 1.2.3 1.2.7 1.5.8 1.5.3 0-.2-.2-.4-.3-.3-.7 0-1.1-.1-1.1-.5 0-.2.1-.2.3-.1.6.3.8-.6.7-3 0-2.5 0-2.5.7-1.9.3.4.8 1.2 1 1.8.3 1 .2 1.5-1 4l-1.2 3v8l-.1 8c-.2 0-1-.6-2-1.3zm.8-17.8c-.2-.3-.4-.3-.4 0 0 .4.4.8.6.6.1-.1 0-.4-.2-.6zm-4.3 15c0-.2-.1-.5-.3-.5-.2 0-1-.6-1.9-1.3a21 21 0 0 0-3.3-2.6c-1.8-1.3-2-1.7-.8-1.7.4 0 .8-.4 1-.8.2-.7.3-.6.9.8l.5 1.6-.1-3.3v-3.2l1 3.7a16.3 16.3 0 0 0 2.7 6.2c0 .2 0 .3.1.2a74.3 74.3 0 0 0-1-9.6c.5.4 1 3 1.6 7l.5 3.5c.2.4 0 .6-.3.6a.5.5 0 0 1-.6-.5zm-11.3-.8c-.9-.8-.9-.8 0-.4.6.3.8.3 1-.1 0-.3.3-.6.5-.6s.2.2 0 .4c0 .3.1.7.5 1 .6.4.6.4-.3.4-.5 0-1.3-.3-1.7-.7zm2.4-6c-.4-.3-.6-.9-.6-2 0-.9-.5-4.7-1-8.5-2-13.8-2.3-16.8-1.4-17 .4 0 .7.3 1 1.4.5 2.2.8 2.6 1.8 2.6.7 0 .9.2.7.5-.1.3 0 .4.2.3.3-.2.5.2.5 1.4v1.7l-.8-1.2c-.4-.6-.6-1.3-.4-1.5.1-.2 0-.3-.2-.2-.2.1-.6-.1-1-.6-.3-.5-.8-.9-1-.9-.2 0 0 2.9.3 3.4l1 6.2a161 161 0 0 0 2 13.8c.1 1-.1 1.1-1 .6zm-2-1.8-.9-.7 1 .1c.6 0 1 .3 1 .7 0 .8 0 .8-1.1 0zm-1.8-1.2a128.9 128.9 0 0 0-1-6.4 132.7 132.7 0 0 0 1.5 6c.2.3.1.6-.1.6s-.4 0-.4-.2zm24.8-.8.4-5 .4-5.2c.2-.8.2-.8.9-.2.4.4.8 1.5 1 2.6.3 1.8.4 1.7.2-1 0-1.6-.4-4-.8-5.4-.5-2.3-.5-2.6 0-3 .3-.2.6-.6.7-1 .5-1.2 1.1-.4 2.2 2.7l1.2 3.2-.8 2.4c-.5 1.3-1.4 3.2-2 4.1a30 30 0 0 0-2.3 4c-.8 2.2-1.5 3.3-1 1.8zm8.2-1.2.5-5.3a60 60 0 0 1 1.8-10.8c0 .3.2.6.4.7.2 0 .5 1 .6 2 .2 1.1.3 1.8.4 1.5 0-.3.1-.4.2-.3.2.2.8-.7 1.5-1.8a13 13 0 0 1 1.5-2.4c.2 0-.4 1-1.2 2.4a70.8 70.8 0 0 0-5.7 14zm-24-6.2a25 25 0 0 1-1.4-7.3l-.2-3.2.8 1c1.3 1.4 2 5 2.3 9.7v4l-1.4-4.2zm13.2 1.5a30 30 0 0 1-1.6-3.9c-.2-.8-.6-2-1-2.7-.4-1-.4-1.3 0-1.1.2 0 .6.8.9 1.5.3 1 .5 1.3.7 1 .3-.5.1-1.7-.6-4.2-.3-1-.3-1.8-.1-2 .2 0 .2-.3.1-.5s0-.3.2-.1c.6.3.9-1.4.6-3.7-.2-1.6-1-5.3-1.9-7.3 0-.3 0-.5.2-.5s.5.5.6 1c.2 1.1.9 1.6.9.7 0-.2.1-.3.2-.1.2.1.5 2 .7 4.2.2 2.2.4 3.2.4 2.3 0-1 .3-1.8.5-2 .3-.1.3 0 .2.7-.2.9-.5 5-.8 11.3-.1 3.6 0 4.4.6 5.8 1 2.6.6 2.3-.8-.4zm-5-.4c-.2-.5-.2-.6.1-.2.3.2.4.5.3.6-.1.1-.3 0-.5-.4zm15-.3c0-.5 0-.5.2-.3v.7c-.2.1-.3 0-.3-.4zm-18-1.6c-.4-.6-.6-5.6-.3-5.2.2.2.9 5.7.7 5.8l-.4-.6zm18.3.1c0-.4.1-.5.2-.2v.7c-.1.1-.2 0-.2-.5zm.4-1.4c0-.4 0-.5.2-.2v.7c-.2.1-.3-.1-.2-.5zm-20.3-1.2c-.5-1.1-1.4-7-1.4-9.5 0-.7.1-1.2.4-1.3.2-.1.3 0 .2.3 0 .3.3 1.5.8 2.8.8 1.9.9 2.7.8 5.4 0 1.7 0 3.2-.2 3.3l-.6-1zm18.8 1 .6-.7c.6-.4.6-.4.2.2-.5.6-.8.7-.8.4zm-8.2-3.4c.2-1.7.3-2 .6-1.8.1.1 0 1-.3 1.8l-.5 1.5zm21.6.5c0-.5.1-.5.3-.3v.7c-.2.1-.3 0-.3-.4zm-38.5-.6c-.2-.4-.3-.8-.2-.9l.6.8c.4 1 .2 1.2-.4.1zm9.6-.6a8 8 0 0 0-.7-2c-.7-1.6-.7-1.6 0-3 .8-1.9 1-1.6 1.2 2.6.2 2 .1 3-.1 3s-.4-.2-.4-.6zm29.4-.3a18643.3 18643.3 0 0 0 1.2-3.5c.2.2-1 4.1-1.2 4.1v-.6zm-22-2c0-.6.2-.8.2-.5v1l-.1-.5zm7.8.7-.7-2.8c-.6-2.1-.6-2.6-.2-3.9.2-.8.5-1.2.5-.9 0 .4.2.7.4.7.2.1.3 1.5.2 3.7 0 2-.1 3.4-.2 3.2zM77.4 201v-1l.6.7c.8.9.9 1.2.3.8a.5.5 0 0 0-.6.2c-.2.2-.3 0-.3-.7zm20-.4c0-.6-.2-2.2-.5-3.4a8.5 8.5 0 0 1-.2-3.2c.2-.7.3-.7.3-.3 0 .6.1.6.6.2.5-.4.6 0 .3 3.6-.2 4-.5 5.6-.5 3.1zm-11.3-2c-.4-1.2-.5-1.9-.2-2.7.9-2.5 2.3-.2 1.6 2.5-.6 2-.8 2.1-1.4.2zm-17.6-1c-.4-.8-.6-1.5-.4-1.3.2 0 .4-.1.4-.5 0-.3.3.3.5 1.3l.4 2-.9-1.5zm5.3.4-.6-1.4c0-.1.4.2.7.8.8 1.4.7.5 0-1.6-.6-1.3-.6-1.7-.3-1.7s.5 0 .5.2l.5 1c.5.6.5.5.2-.4a51 51 0 0 0-1.2-4.1c1.1-.4 1.9.5 2 2.3 0 .9 0 1 .3.4.2-.7.2-.6.5.2a3 3 0 0 1-.4 2 21 21 0 0 0-1 2.4l-.4 1.1zm30.2-.1c.7-1.6.8-1.7.8-1 0 .2-.3.8-.7 1.3l-.7.9zm-9.8 0c0-.2.2-.5.4-.6.2-.1.2 0 .1.4-.2.6-.5.7-.5.2zm-14.5-2a508 508 0 0 1-2.6-7.1c.5.6.5.5.6-.9.1-1.3.2-1 .6 1.7.4 2.3.6 3 .8 2.3.2-.8.2-.8.5.5l.5 2.9c.3 1.7.2 2-.4.5zm-12.4-.4L67 194l-.2-1.3.5 1.4c.5 1.2.6 2.1.1 1.4zm21.7-1.3c-.6-1.5-1-5.4-.5-5.7.3-.1.4 0 .4.4 0 .3.2.5.5.4.2 0 .5-1 .6-2l.2-2 .4 2.8c.5 2.8.5 3-.4 5s-.9 2-1.2 1.1zM67.8 192c-.2-.5-.5-.9-.7-.9-.2 0-.4-.4-.4-1v-.9l.5.8c.2.5.5.7.6.6.2-.1.4.3.5.9.3 1.4 0 1.7-.5.5zm16.4-1.8c-.5-1-.5-1.4-.1-1.6h.5c.1.3.3.3.5.2.3-.2 0 2.3-.2 2.7-.1 0-.4-.5-.7-1.3zm1.2-2.4c0-.4.1-.5.2-.2.2.2.1.5 0 .6-.1.1-.2 0-.2-.4zm-3.5-2.2c-.4-1-.3-1 .2-.3l.5 1c0 .5-.3.3-.7-.7zm-3.5 0c-.3-.3-.4-.6-.3-.7 0 0 .4.1.6.4.6.7.3 1-.3.3z" style="fill:#4e512c;stroke-width:.352778" transform="translate(-44.5 -173.2)"/>
  <path d="m81.4 243 .2-3c-.1-2.5 0-2.7.9-3.6.5-.6 1.1-1 1.4-1 .6 0 3.6-3 3.6-3.7 0-.3.1-.3.3 0 .3.4 1-.1 3-2 1.4-1.4 3.1-2.8 3.9-3.2.7-.4 1.3-.9 1.3-1.1 0-.2.2-.1.5.2.4.7.5.6 1.2-.1.5-.5.8-1 .7-1.4-.1-.4 0-.8.4-.9.3 0 1.7-1 3-2.1 2.3-1.9 3.5-2.5 2.7-1.5-.2.2-.4 1-.6 1.5 0 .7-.6 1.7-1 2.4-1 1.4-1.5 2.9-1 2.5.3-.1.4-.1.4 0a771 771 0 0 1-18.2 15.6c-2.2 1.8-3.3 2.4-2.7 1.4zm4.9-6.5c.5-.2.8-1.9.3-1.9s-1.5 1.2-1.5 1.7.3.6 1.2.2zm8.3-6.7c.8-1 .9-2 .2-2.6-1-.8-3.5 2.7-2.5 3.6.4.4 1.6-.1 2.3-1zm6.5-4c.2-.4.2-.8 0-1-.3-.2-2 1.4-2 2 0 .5.2.5.8 0l1.2-1zm-21 7.5c0-.7 2-1.5 3-1.3.8.2 1.6 1.2 1 1.2l-2.1.2c-1.2.2-1.9.1-1.9-.1zm-2.7-2a8.7 8.7 0 0 1-1.5-1.2l.9-.3c.5 0 .8 0 .8.2s.3.6.6 1c.5.6.5.3.3-2.7 0-1.9-.2-4.2-.3-5.2-.1-1 0-1.9.1-1.9a259.9 259.9 0 0 0 .7 11.3l-1.6-1.2zm7.3.1c0-.6.2-1.5.5-2l.4-.8 1 1 1 .8-1 .8-1.5 1c-.3.3-.4.1-.4-.8zm3.2-1.6c0-.2.4-.8 1-1.4a7 7 0 0 0 1.1-1.5c.1-.2.5-.3 1-.1.4 0 .7.3.6.4a12 12 0 0 1-3.7 2.6zm-14.2-1.2-.6-4.2a77.6 77.6 0 0 0-.4-4.6c.4.7 1.5 8 1.3 8.7-.1.6-.2.6-.3.1zm-10.8-.6c-.4-.3-.4-.4 0-.5.6-.2 1 0 1 .5 0 .4-.4.4-1 0zm3.8 0c-.4-.3-.4-.4.3-.4.5 0 .7.1.6.3-.3.5-.2.5-.9 0zm4.6-2c-.7-.7-2-1.6-2.8-2-1.8-1-2.1-1.4-1-1.4a2 2 0 0 1 1.5.8c.6.8.6.7.5-2.4-.2-3.8 0-3.6 1 1 .6 2.2 1.1 3.5 1.6 3.9.4.3.6.7.6 1-.1.2-.7-.2-1.4-1zm21.5-.8c.2-1.2.3-1.3 1.3-1.4.8-.1 1.1-.4 1.5-1.3.2-.6.8-1.5 1.2-2l.8-.7.8.8.8.7-1.1.6c-.7.3-1.8 1.2-2.6 2-.8 1-1.8 1.8-2.2 2-.7.5-.7.5-.5-.7zM59 220.9c-.4-1.7 0-2.1 1-.9.3.5.9.9 1.1.9.5 0-1 1.4-1.5 1.4-.1 0-.4-.6-.6-1.4zm5.7.4c-.2-.1-.7-2.7-1.1-5.7-1.2-8.4-1.2-8-.8-7.2.3.6.3.5.4-.6 0-.7.5 1.8 1 5.5 1.1 7 1.2 8.5.5 8zm35-1.3.7-2c.4-.8.4-.8.6.5 0 .7 0 1.2-.1 1.1-.2 0-.5.2-.8.7-.6.8-.6.8-.4-.3zm2-1.4.5-2 .5-1.3.8.7.7.7-1.3 1.2c-.7.7-1.3 1-1.3.7zm-41-.9c0-.5.2-.7.2-.4.1.2.1.6 0 .8l-.1-.4zm25.4-3.5c0-1.6.2-2.8.4-2.8s.3.2.3.5c0 .7.7 1 1.3.4.9-1 .5-6.3-.8-10.3-.2-.6-.2-.6.3-.2.5.3.6.3.8-.4l.2-1c0-.2.1-.3.3-.3.2 0 .5.4 1.7 2.8 1.1 2.4.4 6.2-1.6 8.8a16 16 0 0 0-2 3.4l-1 1.9v-2.8zm-25.7 1.7c0-.4.1-.6.2-.4v.9c-.1.2-.2 0-.2-.5zm33.7-2a59.2 59.2 0 0 1 1.7-11c-.1.2 0 .8.3 1.2.4.5.5 1 .5 1l.1 1c.2.8 0 2-1.2 5.5l-1.5 4.5zm-24-2.8c-.6-1.6-1-3.7-1.2-5.2l-.1-2.4 1 .9c.7.7.9 1.2.9 2.3 0 .8-.2 1.7-.3 1.9-.2.2-.1.3.1.2.2-.2.4.6.5 2.3l.1 2.6-1-2.6zm-.1-6.2c-.3-.2-.5-.2-.5 0 0 .4.5.9.7.6l-.2-.6zm9.8 7.6c0-1 .1-1.5.3-1.3.2.1.7 0 1-.3.4-.3.3 0-.3 1.2-1 2-1 2-1 .4zm2.6-1.7c-.3-.5-.4-.9-.2-.9.4 0 .2-4-.2-5.4 0-.3 0-.8.2-1 .2-.3.4-1.5.5-2.7a231.2 231.2 0 0 1 .4 11l-.7-1zm-7.7-1.4a1 1 0 0 1-.2-.6c0-.3.1-.2.4 0 .2.2.3.5.2.6 0 .1-.3 0-.4 0zm-1.2-2c-.5-1-1.6-9.5-1.4-10.2 0-.3.6.7 1 2.2.9 2.2 1 3 1 5.7l-.2 3-.4-.7zm-10.9-1.6c-.5-.3-1.4-7.4-1-7.7.3-.4.5 0 .6 1.3 0 .6.2 1.4.3 1.5.3.4.9 5.2.6 5.2l-.5-.3zm.1-1.2c0-.3-.2-.2-.2.2s0 .6.2.5v-.7zm13.4-2a6 6 0 0 1-.4-2.1c0-.1.2 0 .2.4 0 .3.2.7.5.9.4.2.6.6.5 1.4-.1 1.1-.1 1.1-.8-.7zm15.5-1.5c-.2-.6-.2-1.2-.1-1.2 0-.1.3.3.4 1 .3 1.4 0 1.7-.3.2zm4 .5c0-.4.2-.5.3-.2v.7c-.2.1-.2-.1-.2-.5zm-19.4-1.2c0-.2.2-.3.4-.2l.3.4c0 .1-.1.2-.3.2a.4.4 0 0 1-.4-.4zm10.2-.9-.5-1.4c-.2-.7-.2-.7.4 0 .5.6.5.6.8-.2.2-.4.4-.6.4-.3s-.2 1-.5 1.6c-.4 1-.4 1-.6.3zm-12.2-1c-.5-.7-.5-.7.1-.1.4.3.6.7.5.8-.1 0-.4-.2-.6-.6zm-5.5-.5c-.1-.6 0-.7.2-.5.2.2.3.6.2.9 0 .2-.2 0-.4-.4zm5.8-.5c-.2-.6-.3-1.1-.2-1.2.2-.3 1 1.3.8 1.8-.1.2-.4 0-.6-.6zm-12 .1c-.3-.2-.4-.3-.1-.3.2 0 .5.1.6.3.3.4.2.4-.5 0zm12.8-1.5c0-.5.1-.8.2-.8 0 .1.4-.1.6-.4.4-.6.4-.5 0 .4-.5 1.5-.9 1.8-.8.8zm7-.1-.3-2c-.1-1 0-1 .2-.5.2.3.4 1.2.3 1.9 0 .7-.2 1-.2.6zm-15-.5c-.2-.2-.2-.5-.1-.6 0 0 .2 0 .3.4.3.6 0 .7-.3.2zm12.3 0c-.2-.2-.2-.5 0-.6 0 0 .2 0 .3.4.2.6 0 .7-.3.2zm-5-1.8c-.5-1.3-.5-1.5.2-1 .2 0 .4.7.3 1.2l-.1 1zm14.6.8c-.2 0-.3-.6-.2-1.1 0-.8 0-.8.3-.2.2.6.3.5.6-.5.3-.7.5-2 .5-3v-1.8l.3 1.6c.3 1.4.2 2-.5 3.5-.4 1-1 1.7-1 1.5zM67.8 192l-.2-.8.5.8c.2.3.3.7.2.7l-.5-.7zm10.3-.4c-.3-.6-.3-1.4-.2-1.7.2-.4.3 0 .5 1 .3 2 .2 2.2-.3.7zm10.3-.2v-1c0-.2.2.2.3.7.2.5.2 1 .1 1l-.4-.7zm-4.2-1v-.9s.2 0 .2.3c0 .2.1.3.3.2.2-.1.4 0 .4.3 0 .9-.7 1-.9.2z" style="fill:#433c2f;stroke-width:.352778" transform="translate(-44.5 -173.2)"/>
  <path d="M85.1 235c1.5-1.4 1.7-1.6 1.7-1.3 0 .3-2.3 2.5-2.7 2.6-.2 0 .2-.6 1-1.3zm-4-2.4c0-.6 1.3-.8 2.2-.5l.9.4h-1l-1.5.2c-.3.2-.5 0-.5-.1zm6.8.2a58 58 0 0 0 1-.5c-.2.3-.6.6-.8.6-.2 0-.3 0-.2-.1zm-9.3-4-.4-5.4.1-2.2a147.3 147.3 0 0 0 .6 10.6l-.3-3zm6.1 2.2.4-1.4c.4-.9.4-.9 1.2-.4 1 .7 1.1 1.2.3 1.2a3 3 0 0 0-1.3.6c-.5.5-.6.5-.6 0zm-7.7-.5c-.2 0-.3-.3-.2-.5.3-.5.7-.4 1 .2.2.6 0 .6-.8.3zm-3.9-5.8a79.7 79.7 0 0 0-.4-4.9c.3.5 1.4 7 1.4 8.3 0 .3-.1.5-.3.5-.1 0-.4-1.7-.7-4zm22.1 3.1c-.1-.6 0-.9.2-.6.2.2.2.6.2 1-.1.4-.2.4-.4-.4zM90 227c.2-.5.3-.5 1.3-.1.6.2.6.2-.4.4-.8.1-1 0-1-.3zm8-1 .7-1.4c.1-.7.1-.7.2 0 0 .4-.3 1-.8 1.4-.8.7-.8.7-.2 0zm1.2-.4c.2-.7 1-1.8 2.8-3.6l1.2-1.3-.9 1.3c-.5.7-1 1.5-1 1.8 0 .2-.5.9-1.2 1.4-.9.8-1.1.9-1 .4zm-6.3-1c0-.3.3-.7.6-.8.8-.3.9 0 .1.8-.6.6-.7.6-.7 0zm-22.4-.3c-.7-.3-.8-.7-1-3.4v-3.1a91.2 91.2 0 0 1 1.8 7l-.8-.5zm-2.3-1.1c-.6-.4-.7-.5-.3-.5.3 0 .8.2 1 .5.6.6.5.6-.7 0zm27.5-.8c0-.3.5-1 1-1.5.9-1 1-1 1.6-.6.6.5.6.5-.2.8-.4.1-1.1.5-1.6 1-.4.3-.8.5-.8.3zm-32-6.8c-1.2-8.6-1.2-8-.8-7.2.3.6.3.5.4-.6 0-.7.5 1.7 1 5.3 1.2 7.8 1.2 7.7.6 7.9-.3.1-.6-1-1.2-5.4zm36.3 3.8c0-.2.2-.9.5-1.3l.5-1v1c0 .5-.2 1.1-.5 1.4-.4.3-.5.3-.5 0zm-39.1-1.7c0-.5 0-.7.1-.4.1.2.1.6 0 .8l-.1-.4zm41.2-.3.4-1.2c.4-.9.4-.9 1-.2.8.8.9 1.1.2.9-.3-.1-.8 0-1 .3-.4.3-.6.4-.6.2zm-16-3.2c.1-1.6.3-2.8.5-2.8s.3.2.3.5c0 .7.7 1 1.3.4.9-1 .5-6.3-.8-10.3-.2-.6-.2-.6.3-.2.5.3.6.3.8-.4l.2-1c0-.2.1-.3.3-.3.2 0 .5.4 1.7 2.8 1.1 2.4.4 6.2-1.6 8.8a16 16 0 0 0-2 3.4l-1 1.9v-2.8zm-25.6 1.7c0-.4.1-.6.2-.4v.9c-.1.2-.2 0-.2-.5zm33.7-2a59.2 59.2 0 0 1 1.7-11c-.1.2 0 .8.3 1.2.4.5.5 1 .5 1l.1 1c.2.8 0 2-1.2 5.5l-1.5 4.5zm-24-2.8c-.6-1.6-1-3.7-1.2-5.2l-.1-2.4 1 .9c.7.7.9 1.2.9 2.3 0 .8-.2 1.7-.3 1.9-.2.2-.1.3.1.2.2-.2.4.6.5 2.3l.1 2.6-1-2.6zm-.1-6.2c-.3-.2-.5-.2-.5 0 0 .4.5.9.7.6l-.2-.6zm9.8 7.6c0-1 .1-1.5.3-1.3.2.1.7 0 1-.3.4-.3.3 0-.3 1.2-1 2-1 2-1 .4zm2.6-1.7c-.3-.5-.4-.9-.2-.9.4 0 .2-4-.2-5.4 0-.3 0-.8.2-1 .2-.3.4-1.5.5-2.7a231.2 231.2 0 0 1 .4 11l-.7-1zm-7.7-1.4a1 1 0 0 1-.2-.6c0-.3.1-.2.4 0 .2.2.3.5.2.6 0 .1-.3 0-.4 0zm-1.2-2c-.5-1-1.6-9.5-1.4-10.2 0-.3.6.7 1 2.2.9 2.2 1 3 1 5.7l-.2 3-.4-.7zm-10.9-1.6c-.5-.3-1.4-7.4-1-7.7.3-.4.5 0 .6 1.3 0 .6.2 1.4.3 1.5.3.4.9 5.2.6 5.2l-.5-.3zm.1-1.2c0-.3-.2-.2-.2.2s0 .6.2.5v-.7zm13.4-2.2c-.3-1-.5-1.8-.4-1.9 0-.1.2 0 .2.4 0 .3.2.7.5.9.4.2.6.6.5 1.3-.1 1-.2 1-.8-.7zm15.5-1.3c-.2-.6-.2-1.2-.1-1.2 0-.1.3.3.4 1 .3 1.4 0 1.7-.3.2zm4 .5c0-.4.2-.5.3-.2v.7c-.2.1-.2-.1-.2-.5zm-19.4-1.2c0-.2.2-.3.4-.2l.3.4c0 .1-.1.2-.3.2a.4.4 0 0 1-.4-.4zm10.2-.9-.5-1.4c-.2-.7-.2-.7.4 0 .5.6.5.6.8-.2.2-.4.4-.6.4-.3s-.2 1-.5 1.6c-.4 1-.4 1-.6.3zm-12.2-1c-.5-.7-.5-.7.1-.1.4.3.6.7.5.8-.1 0-.4-.2-.6-.6zm-5.5-.5c-.1-.6 0-.7.2-.5.2.2.3.6.2.9 0 .2-.2 0-.4-.4zm5.8-.5c-.2-.6-.3-1.1-.2-1.2.2-.3 1 1.3.8 1.8-.1.2-.4 0-.6-.6zm-12 .1c-.3-.2-.4-.3-.1-.3.2 0 .5.1.6.3.3.4.2.4-.5 0zm12.8-1.5c0-.5.1-.8.2-.8 0 .1.4-.1.6-.4.4-.6.4-.5 0 .4-.5 1.5-.9 1.8-.8.8zm7-.1-.3-2c-.1-1 0-1 .2-.5.2.3.4 1.2.3 1.9 0 .7-.2 1-.2.6zm-15-.5c-.2-.2-.2-.5-.1-.6 0 0 .2 0 .3.4.3.6 0 .7-.3.2zm12.3 0c-.2-.2-.2-.5 0-.6 0 0 .2 0 .3.4.2.6 0 .7-.3.2zm-5-1.8c-.5-1.3-.5-1.5.2-1 .2 0 .4.7.3 1.2l-.1 1zm14.6.8c-.2 0-.3-.6-.2-1.1 0-.8 0-.8.3-.2.2.6.3.5.6-.5.3-.7.5-2 .5-3v-1.8l.3 1.6c.3 1.4.2 2-.5 3.5-.4 1-1 1.7-1 1.5zM67.8 192l-.2-.8.5.8c.2.3.3.7.2.7l-.5-.7zm10.3-.4c-.3-.6-.3-1.4-.2-1.7.2-.4.3 0 .5 1 .3 2 .2 2.2-.3.7zm10.3-.2v-1c0-.2.2.2.3.7.2.5.2 1 .1 1l-.4-.7zm-4.2-1v-.9s.2 0 .2.3c0 .2.1.3.3.2.2-.1.4 0 .4.3 0 .9-.7 1-.9.2z" style="fill:#3b4523;stroke-width:.352778" transform="translate(-44.5 -173.2)"/>
  <path d="M85.1 235c1.5-1.4 1.7-1.6 1.7-1.3 0 .3-2.3 2.5-2.7 2.6-.2 0 .2-.6 1-1.3zm-3.7-2.5c0-.2.4-.3.8-.3.5 0 .5 0 0 .3-.7.5-1.1.5-.8 0zm6.5.3a58 58 0 0 0 1-.5c-.2.3-.6.6-.8.6-.2 0-.3 0-.2-.1zm-9.1-2c0-.7 0-1 .1-.7v1.3l-.1-.6zm6 .1c0-.5.4-.7 1.1-.7h.6l-1.2.9c-.6.5-.7.5-.5-.2zm-7.9-.5c-.3-.2-.3-.3 0-.3.2 0 .5.1.6.3.2.4.1.4-.6 0zm-3.3-3.4-.6-3.6c-.3-2.1-.4-3-.1-2.8a48 48 0 0 1 1.1 8c-.1 0-.3-.7-.4-1.6zm21.6.8c-.1-.6 0-.9.2-.6.2.2.2.6.2 1-.1.4-.2.4-.4-.4zm-16.7-2.2c0-1.3 0-1.8.1-1.1v2.5l-.1-1.4zm19.3.4c.3-.4.7-1 .8-1.4.1-.7.1-.7.2 0 0 .4-.3 1-.8 1.4-.8.7-.8.7-.2 0zm1.3-.4c.2-.7 1-1.8 2.8-3.6l1.2-1.3-.9 1.3c-.5.7-1 1.5-1 1.8 0 .2-.5.9-1.2 1.4-.9.8-1.1.9-1 .4zm-6.3-.8c0-.4.7-.9 1-.7 0 .1-.1.4-.4.7-.4.2-.6.3-.6 0zm-22.5-.8c-.6-.6-.8-1-.7-3 0-2 0-2.3.3-1.4a45 45 0 0 1 1.3 5.2l-.9-.8zm25.3-1.6c0-.2.4-.7.8-1 .6-.6 1-.7 1.4-.5.4.3.4.3 0 .3-.3 0-.9.4-1.3.8-.5.4-.9.6-.9.4zm-31.9-6.2c-.5-3.6-.5-4.9-.2-5.4s.4-.5.4-.1l.7 5c.8 5.6.8 5.2.2 5.2-.3 0-.6-1.3-1-4.7zm36.2 3.3.3-.6c.2 0 .4 0 .4.2s-.2.4-.4.5c-.2.2-.3.1-.3 0zm2-2.3c0-.6.7-1 1-.6 0 .1-.1.4-.4.7-.4.4-.5.3-.5 0zm-7.4-5c.2-2.8.4-4 .4-2 0 .7.1.9.4.5.5-.9.4 0-.4 2.2l-.7 2.2zm-14.7 1.5c0-.4 1-2.3 1.2-2.3.1 0 0 .5-.4 1.1-.6 1.3-.8 1.6-.8 1.2zm8.9-4.3c0-1.2-.3-3-.5-4v-1.7c.2-.1.4-.5.4-1 0-.7 0-.6.9.3.7.9 1 1.8 1 3.3 0 .7.2.6.6-.3.3-.6.3-.7.2-.1-.6 2.6-1.4 4.6-2 5.2-.5.6-.5.5-.6-1.7zm6.1-1.2c.2-.5.3-.7.4-.4.1.2 0 .6-.2.8-.3.3-.3.1-.2-.4zm-21.4-.9c-.2-.3-.3-1.4-.3-2.7.1-2 .2-2.1.7-1.5.3.3.3.5 0 .4-.3-.2-.3.6.1 3.5.1 1 0 1-.5.3zm-.6-6 .1-1.3c.2-.2.4.2.4 1 0 1.4-.1 1.5-.5.3zm-.4-2.5c0-.9 0-1 .4-.4.2.5.2.8 0 1-.3.3-.4.2-.4-.6zm3.1-3 .4-.5c.2-.1.2 0 .1.3-.2.7-.5.8-.5.3zm2.6-4.6c0-.4 0-.6.1-.4v.9l-.1-.5zm12.2.4c0-.2.2-.4.4-.5.2-.1.3 0 .1.3-.2.6-.5.7-.5.2zm-6-1c0-.3.2-.4.4-.4s.4.1.4.3c0 .2-.2.4-.4.4a.4.4 0 0 1-.3-.4z" style="fill:#353422;stroke-width:.352778" transform="translate(-44.5 -173.2)"/>
</svg>