<svg xmlns="http://www.w3.org/2000/svg" width="277.3" height="277.3" viewBox="0 0 73.4 73.4">
  <path d="M44.5 210v-36.7h73.4v73.4H44.5Z" style="fill:#fefefe;stroke-width:.352778" transform="translate(-44.5 -173.2)"/>
  <path d="M70.6 237.1a70 70 0 0 1-11.1-9c-7.5-6.5-8.6-7.7-8.8-10.6-.1-1-.4-2.6-.7-3.6-.3-1.1-.5-2.4-.5-3a6 6 0 0 0-.3-2.3c-1.2-3.5 0-5.2 5.9-8l19-9.5c17.8-8.7 16.9-8.5 21.7-6.3l9.2 4c7.4 3.1 9.2 4.4 9.1 6.6 0 2.9-.7 7.4-1.2 8.2-.2.5-.4 1.6-.4 2.5.1 1.8-.6 3-2.7 4.8L78 235.4c-2.7 2-5.1 2.6-7.4 1.7z" style="fill:#fdfce7;stroke-width:.352778" transform="translate(-44.5 -173.2)"/>
  <path d="M70.4 236.9c-1.4-.8-3-2-11.1-9-7.3-6.2-8.4-7.6-8.5-10 0-.8-.2-2.1-.5-3a14 14 0 0 1-.6-3.6c0-1.1-.1-2.1-.3-2.2-.1-.1-.4-.8-.5-1.6-.3-1.8.3-3.2 1.7-4.3a544 544 0 0 1 40.1-19.6c1.8-.2 3.4.4 11.5 4 11.1 4.9 12 5.4 12 7.8 0 .8-.2 1.7-.3 2a13 13 0 0 0-.4 3c0 1.3-.3 2.7-.6 3.2-.2.5-.4 1.5-.4 2.1.2 1.8-.3 2.9-2 4.4-1.7 1.7-31 24.3-33.7 26-2.3 1.6-4.5 1.8-6.4.8zm26.4-22.2a308.3 308.3 0 0 0 13.2-10.4 2 2 0 0 1-1.3.2c-.7-.2-2.7 1-5.3 3a14.7 14.7 0 0 0-3.9 2.7l-4.2 3.4c-2.6 2-6 5.2-6 5.6 0 .5 3.2-1.4 7.5-4.5z" style="fill:#fcf4da;stroke-width:.352778" transform="translate(-44.5 -173.2)"/>
  <path d="M70.4 236.9c-1.4-.8-3-2-11.1-9-7.3-6.2-8.4-7.6-8.5-10 0-.8-.2-2-.5-2.8-.2-.8-.5-2.4-.5-3.6 0-1.2-.2-2.3-.3-2.4-.2-.1-.5-.9-.6-1.7-.3-2 .4-3.3 2.2-4.5a716.1 716.1 0 0 1 39.6-19.3c1.8-.2 3.4.4 11.5 4 11.1 4.9 12 5.4 12 7.8 0 .8-.2 1.7-.4 2a15 15 0 0 0-.3 2.9 11 11 0 0 1-.5 3.1 6 6 0 0 0-.4 2.3c0 1.8-.4 2.9-2 4.4-1.8 1.7-31.2 24.3-33.8 26-2.3 1.6-4.5 1.8-6.4.8zm9.1-11c0-.3.2-.3.8-.2.6.2 1.2 0 2.4-.9l3.6-2.5a569 569 0 0 0 20.8-14.8c4-3.1 4.7-4 3.5-4.3-1.5-.4-4.4 1.4-11.8 7.3l-5.3 4.1c-1 .7-2.6 2-3.6 3a41 41 0 0 1-6.7 5.3c-.9.5-1.7 1.1-1.7 1.3 0 .1-.1.2-.3 0a1 1 0 0 0-.7.4c-.3.3-.6.5-.8.5-.5 0-1.3 1-1 1.2 0 .2 0 .3-.3.3-.2 0-.4.1-.4.3 0 .3.3.2.8-.1.4-.3.8-.7.7-1zm-20.6-7h-.7c-.3.1-.2.2.2.2s.6 0 .5-.2z" style="fill:#f4ebd4;stroke-width:.352778" transform="translate(-44.5 -173.2)"/>
  <path d="M70.2 236.8c-1.7-.9-17.2-14.3-18.2-15.7a8 8 0 0 1-1.1-3.4l-.7-3.3c-.2-.5-.4-1.9-.4-3 0-1.2-.1-2.2-.3-2.3-.6-.3-.8-3.2-.4-4.2.2-.5 1-1.3 1.9-1.9.8-.6 9.7-5.1 19.8-10.1a160 160 0 0 1 20-9.3c1.7-.2 2.6.1 12.8 4.6 7.2 3.1 7.9 3.5 9.3 4.7 1 .8 1.1 1.1 1.1 2.8 0 1-.2 2-.3 2-.2.2-.3 1-.2 1.8.1 1 0 2-.4 3a9 9 0 0 0-.5 3.1c0 1.9-.6 3-2.4 4.8A1622 1622 0 0 1 80 233.8c-5 3.8-7 4.4-9.8 3zm7.1-8c2-1 7.3-4.6 10.2-6.9 1.5-1.2 4.8-3.7 7.3-5.4 12.9-9.2 17-12.4 16.3-13-.8-.8-3 0-5.7 2-1.3 1-3.3 2.4-4.5 3.1l-4 3a34 34 0 0 1-3.7 3c-1 .7-3.2 2.4-4.7 3.8a19.2 19.2 0 0 1-6.3 4.3 29.5 29.5 0 0 0-6.7 4.6c-.4 0-.6 1.3-.2 1.7.5.5.8.5 2-.2zm-8.5-2-.4-.2a161 161 0 0 0-9.7-8.2 17.8 17.8 0 0 0-4.7-3c-.6.4 1.6 3 4.4 5.3a172.4 172.4 0 0 1 5.4 4.4c.2 0 .6.4 1 .8s1 .9 1.4 1c1 .4 2.6.4 2.6 0z" style="fill:#f5e8ca;stroke-width:.352778" transform="translate(-44.5 -173.2)"/>
  <path d="M70.2 236.8c-1.7-.9-17.2-14.3-18.2-15.7a8 8 0 0 1-1.1-3.4l-.7-3.3c-.2-.5-.4-1.9-.4-3 0-1.2-.1-2.2-.3-2.3-.6-.3-.8-3.2-.4-4.2.2-.5 1-1.3 1.9-1.9.8-.6 9.7-5.1 19.8-10.1a160 160 0 0 1 20-9.3c1.7-.2 2.6.1 12.8 4.6 7.2 3.1 7.9 3.5 9.3 4.7 1 .8 1.1 1.1 1.1 2.8 0 1-.1 2-.3 2l-.3 2.5c0 1.2-.2 2.7-.5 3.2-.3.7-.5 1.6-.4 2.4.2 1.5-.5 2.9-2.3 4.6A1622 1622 0 0 1 80 233.8c-5 3.8-7 4.4-9.8 3zm7.1-8c1.7-.9 7.1-4.5 9.6-6.3a225.5 225.5 0 0 1 15-10.8c.4 0 6.3-4.4 8-6.1 1.4-1.3 2-2.2 2.2-3.1.1-.8.1-1.5 0-1.6-.3-.3-8.8 5.5-15 10.5a274.7 274.7 0 0 1-8 6.2 33.4 33.4 0 0 1-6.7 5 27.9 27.9 0 0 0-5.8 3.9l-1.1.8c-.4 0-.6 1.3-.2 1.7.5.5.8.5 2-.2zm-8.5-2-.4-.2c-.3 0-1.2-.8-2.1-1.7-1.7-1.7-2-2-4.9-4.5-4.7-4.2-8.1-6.7-9-6.5-.4.1-.4.2 0 1.2a69.2 69.2 0 0 0 14 11.9c1 .3 2.4.2 2.4-.1z" style="fill:#ebe2ca;stroke-width:.352778" transform="translate(-44.5 -173.2)"/>
  <path d="M70.3 236.8a253 253 0 0 1-16.6-13.9c-2-2-2.8-3.5-2.9-5.2 0-.7-.2-2-.5-3-.3-.9-.5-2.5-.5-3.5s-.1-2-.3-2c-.6-.4-.8-3.3-.4-4.3.2-.5 1-1.2 1.5-1.7.6-.4 9.5-5 19.8-10.1 22.6-11.3 20-10.7 28.6-6.9l9 4c1.9.8 4 2 4.7 2.5 1.2 1 1.3 1.2 1.3 3 0 1-.1 2-.3 2-.2.2-.3 1.3-.3 2.5 0 1.3-.3 2.7-.6 3.3-.2.6-.4 1.6-.3 2.3.2 1.5-.5 2.9-2 4.4l-32.1 24.9c-3.3 2.4-5.8 3-8.1 1.7zm10.3-9.6c2.2-1.4 5.1-3.5 6.6-4.7 2.8-2.4 10-7.6 15.5-11.3 6.8-4.5 9.5-7.4 9.5-9.7 0-.9-.4-.9-1.5 0a27 27 0 0 0-4.7 3 401.7 401.7 0 0 1-10.2 7.7l-4.6 3.5-4.8 3.7c-1 1-2.6 2-3.3 2.4-2 1-6 3.6-7.8 5-1 .7-1.4 1.4-1.3 1.8l.1.9c0 .1.6.2 1.3.2 1 0 2.2-.5 5.2-2.5zm-10.4.6c0-.5-.6-1.2-2.7-2.7a37 37 0 0 1-4.6-3.7c-8-7.2-13.3-10.2-10.7-6a118 118 0 0 0 13.4 11.7c1.6 1.3 2.2 1.6 3.2 1.5 1 0 1.3-.3 1.4-.8z" style="fill:#e5dbc5;stroke-width:.352778" transform="translate(-44.5 -173.2)"/>
  <path d="M70.4 236.9c-1.2-.6-2.4-1.7-10.7-8.8-8.2-7-8.8-7.8-8.9-10.5 0-.6-.2-1.9-.5-2.8-.3-1-.5-2.6-.5-3.6s-.1-2-.3-2c-.6-.4-.8-3.3-.4-4.2.2-.5 1-1.3 1.7-1.8.7-.6 9.6-5.2 19.8-10.2 22.6-11.3 19.6-10.7 29.8-6.2 10.6 4.7 11.2 5 12.5 6 1 1 1.1 1.2 1.1 2.9 0 1-.2 2-.3 2-.2.2-.4 1.2-.4 2.3 0 1.2-.2 2.7-.5 3.3-.3.7-.4 1.7-.3 2.2a5 5 0 0 1 0 1.8c-.5 1.9.1 1.3-29.9 24.5l-4.2 3.3c-3.2 2.3-5.8 3-8 1.8zm7.8-7.9 3.5-2.2a41 41 0 0 0 5-3.7 75.7 75.7 0 0 1 8.8-6.8c3-2.2 5.6-4 8-5.5 3.3-2.2 7.7-6.2 8.2-7.4.6-1.3.7-2.6.2-2.6l-1.1.6c-.5.4-1.3.8-1.8 1l-2 1.6-5 3.6a61.3 61.3 0 0 0-5.3 3.9L92 215l-5.2 3.9a68 68 0 0 1-5.3 3.7c-7.7 4.6-9 5.8-7.7 7.3.7.9 2.6.5 4.5-.8zm-6.9.2c.2 0 .2-.6.1-1.2-.1-.8-.7-1.3-2.9-2.6-1.4-.9-4.6-3.3-7-5.4a40.6 40.6 0 0 0-9-6.5c-.8-.3-1-.2-1 .4 0 1.6 1.7 3.4 6 7 1.1.9 3.2 2.6 4.6 4l4.6 3.5c1.7 1.2 2.2 1.3 3.2 1.1.7 0 1.3-.2 1.4-.3z" style="fill:#dbd3c5;stroke-width:.352778" transform="translate(-44.5 -173.2)"/>
  <path d="M70.4 236.8c-1.6-.8-16.5-13.4-18-15.4a5.7 5.7 0 0 1-1.4-3c0-.8-.4-2.4-.7-3.5-.3-1-.5-2.8-.5-3.7 0-1-.1-2-.3-2.1-.2-.2-.4-1.1-.6-2-.2-1.6-.1-1.8 1.1-3.1 1.4-1.4 2.4-2 33.8-17.5 7.5-3.7 7.4-3.7 15.6 0l9 4a19 19 0 0 1 4.4 2.4c1.2 1.1 1.3 1.2 1 3l-.3 4a17 17 0 0 1-.6 3.4 8 8 0 0 0-.4 2.6c.1 1.1 0 1.7-.9 2.9a602 602 0 0 1-35.3 27.5c-2.3 1.4-3.8 1.5-5.9.5zm5.5-6.6a49 49 0 0 0 10.2-6.6c3.3-2.9 3.2-2.7 8.1-6.3 5.5-4 7-5.1 9.2-6.5 3.4-2.2 7.8-6.2 8.3-7.4.6-1.3.7-2.6.2-2.6l-1.1.6c-.5.4-1.3.8-1.8 1l-2 1.6-5 3.6a61.3 61.3 0 0 0-5.3 3.9A56 56 0 0 1 92 215l-5.9 4.3a46 46 0 0 1-14 7.6c-2.7-.6-5.1-2.2-12-8-2.5-2-5.3-4.2-6.4-4.7-1.8-1-1.9-1-2-.3-.2 1.5 1.5 3.4 6 7.1l4.5 3.8c1.4 1.3 3.7 3.1 5.2 4.2l2.7 1.9 2.5-.2c1.4 0 3-.2 3.4-.4z" style="fill:#e6d6b6;stroke-width:.352778" transform="translate(-44.5 -173.2)"/>
  <path d="M70.4 236.8c-1.6-.8-16.5-13.4-18-15.4a5.7 5.7 0 0 1-1.4-3c0-.8-.4-2.4-.7-3.5-.3-1-.5-2.8-.5-3.7 0-1-.1-2-.3-2.1-.2-.2-.4-1.1-.6-2-.2-1.6-.1-1.8 1.1-3.1 1.4-1.4 2.4-2 33.8-17.5 7.5-3.7 7.4-3.7 15.6 0l9 4a19 19 0 0 1 4.4 2.4c1.2 1.1 1.3 1.3 1 2.9l-.4 4.3c-.2 1.4-.5 3-.7 3.3a5 5 0 0 0-.2 2.3c.1 1.4 0 1.8-.9 3a651 651 0 0 1-35.3 27.6c-2.3 1.4-3.8 1.5-5.9.5zm6.3-6.6a132.2 132.2 0 0 0 15.2-11 74.2 74.2 0 0 0 6-4.5c2.4-1.4 8-5.3 10.7-7.5 2-1.5 3.2-2.8 3.6-3.8.9-1.7 1-3.3.2-3.3-.6 0-4.2 2.2-5.8 3.7l-5.7 4.1a55.3 55.3 0 0 0-5 3.7c-.2.3-1.8 1.5-3.4 2.6a136 136 0 0 0-5.3 3.9 81.9 81.9 0 0 1-11.2 7.3l-3.2 1.7-1.9-.7c-2.2-.7-3.7-1.8-10.2-7.3a115 115 0 0 0-7.3-5.6l-2.6-1.7v1.1c0 1.6 2 4.3 4.6 6.5l8.6 7.3 3.4 2.4 2.7 1.7 3-.2c1.7 0 3.3-.2 3.6-.4z" style="fill:#d6c9b0;stroke-width:.352778" transform="translate(-44.5 -173.2)"/>
  <path d="M70.3 236.7c-1.9-1-16.9-13.9-18.2-15.5a8 8 0 0 1-1.2-3.5l-.7-3.8a11 11 0 0 1-.4-2.9c0-.6 0-1.6-.3-2-.3-.5-.5-1.6-.5-2.4 0-1.5 0-1.8 1.4-3 .9-.8 3.4-2.2 5.5-3.3l18.6-9.2c8-4 15.1-7.3 15.7-7.4 1.4-.3 4.2.5 8.1 2.3l7.7 3.4c7.1 3 8.4 4 7.9 7l-.5 2.4c-.1.9-.3 1.2-.8 1a26 26 0 0 0-7.3 4.7l-5.4 4c-2 1.4-4.4 3-5.2 3.7A112.1 112.1 0 0 1 73 226.4c-1.6.4-5.2-1.6-9.6-5.2-6-5.1-12.2-9.8-12.7-9.8s-.1 2.3.5 3.5a24 24 0 0 0 6.5 6.7c6 5 7.8 6.5 10 8l2.3 1.6 3-.1 3.2-.2 3.5-2.3 7-5a307.2 307.2 0 0 1 15.1-11.3c4-2.7 7.6-5.5 9-6.8 1.3-1.2 2-.8 1.7 1-.4 2.6.2 2-24.8 21.3-12 9.2-12.7 9.7-14.7 9.7-.6 0-1.9-.4-2.7-.8z" style="fill:#c9baa5;stroke-width:.352778" transform="translate(-44.5 -173.2)"/>
  <path d="M70 236.5A211 211 0 0 1 52 221c-.5-.7-.9-1.8-1-2.9l-.7-4c-.3-1.2-.5-2.7-.5-3.3 0-.6 0-1.5-.3-2-.3-.4-.5-1.4-.5-2.3 0-1.3.1-1.7 1-2.6a535.2 535.2 0 0 1 40.2-20.3c1.7-.3 3.4.2 10.6 3.4l7.7 3.4c.8.3 2.3 1 3.3 1.7 2.4 1.5 2.6 2.2 1.6 6.5-.2 1-.5 1.2-1.2 1.3-1 0-3.4 1.6-6.8 4.3-1.2 1-3.7 2.7-5.5 4-1.9 1.1-4 2.7-4.8 3.3-8 6.6-20 14.2-22.7 14.3-2.2.1-4.8-1.5-11.4-6.9a69.8 69.8 0 0 0-10.3-7.6c-.5 0-.1 2.4.5 3.7 1 1.8 3 3.8 7.2 7.3l5 4.2c.7.7 2.6 2 4.1 3.1l2.7 1.9 3-.2c2.8-.3 3-.3 6.4-2.7 2-1.3 5-3.4 6.7-4.8a786.7 786.7 0 0 1 23.7-17.7c2-1.7 2.6-1.7 2.6-.2 0 1.6-1.1 3.3-3.5 5.2-3 2.5-25.4 19.8-29.5 22.8-5.3 4-6.5 4.2-9.5 2.5z" style="fill:#c7b497;stroke-width:.352778" transform="translate(-44.5 -173.2)"/>
  <path d="M70.4 236.6a173 173 0 0 1-18.6-15.9c-.3-.6-.7-2-1-3.3l-.5-3.4c-.2-.7 0-.5.7.8 1 2.1 3.6 4.8 8.7 8.8l4.6 3.9a30 30 0 0 0 3.7 2.7l2.4 1.7 2.7-.2c3.1-.3 3.5-.5 12.5-7.3a1757.1 1757.1 0 0 1 24.3-18c1.8-1.4 2.2-1.6 2.4-1.2.6 1.1 0 3-1.6 4.5-1.4 1.4-19.7 15.7-30 23.5-6.4 4.7-7.1 5-10.3 3.4zM69.2 225c-1-.5-4-2.7-6.7-5-8-6.4-12-9.4-12.2-8.9l-.3 1.2v-1c0-.9-.1-1.8-.3-2a4 4 0 0 1-.6-1.8c-.4-1.7.1-3 1.8-4.4 1.6-1.1 37.9-19 39.3-19.4 1.6-.3 3.4.2 10.2 3.2 13 5.8 13.6 6.1 13.6 8.7 0 2-.8 3-4 5.3l-5 3.5-5.9 4.2-9.3 6.8a109 109 0 0 1-14 9.3c-2.5 1.4-4.3 1.5-6.6.3z" style="fill:#b8a78e;stroke-width:.352778" transform="translate(-44.5 -173.2)"/>
  <path d="M70.3 236.5A166.5 166.5 0 0 1 52 220.9c-.5-.9-1-2-1-3s-.3-2.2-.5-2.7c-.7-1.9-.4-1.9.6 0 1.2 2.4 6.8 7.6 15.6 14.3 3.4 2.6 4 2.8 6.6 2.5 2.5-.2 3-.5 14.8-9.3a2392.4 2392.4 0 0 1 19-14.2c4.3-3.2 5.1-3.7 5.3-3.1.3.9-.1 2.4-1 3.6-.6.9-19.5 15.7-31.4 24.7-5.7 4.2-6.6 4.5-9.7 2.8zm-.6-11.5c-1-.5-5.2-3.5-9.4-6.8l-8.6-6.7a6.2 6.2 0 0 1-2.6-4.2c-.4-1.7.2-3 1.8-4.1 1.4-1 37.8-19.1 39.2-19.5 1.5-.3 3.7.3 10.5 3.4 12.9 5.6 13.4 6 13.4 8.6 0 .8-.2 1.8-.5 2.2-.6.8-.9 1-10 7.5-6.4 4.4-9 6.3-14 10a64 64 0 0 1-17.3 10.4c-.4 0-1.5-.3-2.5-.8z" style="fill:#ad9a85;stroke-width:.352778" transform="translate(-44.5 -173.2)"/>
  <path d="M70.3 236.5A170 170 0 0 1 52 220.8a6 6 0 0 1-1-3.3c0-1.8 0-2 .4-1.3 1.5 2 9.5 9 15.6 13.7 4.2 3.2 6.1 3.3 10 .8 2.1-1.3 26.2-19 32.3-23.8 2.5-1.9 3-2.1 3.1-1.5.6 1.8-.6 3.6-4.6 6.8-6.2 4.9-29 22.4-30.9 23.7-2.7 1.8-4.2 2-6.6.6zm-1.1-11.8a223.4 223.4 0 0 1-19.5-15.4c-.5-.8-.7-2.1-.7-3.6.2-1.7 2-2.7 21.1-12.3 18.3-9 19.3-9.5 21.2-9.5 1.7 0 3 .4 9 3 10.5 4.7 11.3 5 12.6 6.2.9.9 1.1 1.4 1.1 2.5 0 2-.8 3-4.8 5.7a838.8 838.8 0 0 0-22.4 16c-2.2 1.7-10.4 6.9-12.4 7.8-1.5.6-3.5.5-5.2-.4z" style="fill:#a89177;stroke-width:.352778" transform="translate(-44.5 -173.2)"/>
  <path d="M70.3 236.5C68 235.3 53 222.5 52 221c-.9-1.3-1.5-4.2-1-4.2a296.6 296.6 0 0 0 18 14.7c3.1 2 5 1.6 10.6-2.5l28.8-21.3c2.6-2 3.5-2.5 3.8-2.2.3.6 0 2-.7 3.2-.8 1.2-1.5 1.8-14.2 11.6L82 232.2c-4.6 3.5-7.7 5.4-9.1 5.4a8 8 0 0 1-2.7-1zm-1-11.8c-2.2-1.1-19-14.4-19.7-15.5-.3-.5-.5-1.7-.5-2.6 0-1.4.2-1.8 1.2-2.8.7-.7 8.5-4.8 20.1-10.5 18-9 19-9.4 21-9.4 1.6 0 2.8.4 8.8 3 10.8 4.8 11.4 5 12.7 6.2a3.7 3.7 0 0 1 .3 5 68162.6 68162.6 0 0 0-27.5 19.8c-2.6 2-9.7 6.5-11.3 7.1a6 6 0 0 1-5.1-.3z" style="fill:#988670;stroke-width:.352778" transform="translate(-44.5 -173.2)"/>
  <path d="M71.2 237c-1.6-.6-2.5-1.3-11.5-9-4-3.5-7.5-6.8-7.8-7.3-.7-1.1-1.2-4-.8-4a256.3 256.3 0 0 0 18 14.9 6 6 0 0 0 5.8.4c.7-.2 3.6-2.2 6.5-4.3 9.7-7 28.9-21.3 29.7-22 .7-.7.9-.7 1.1-.3 1 1.4-.6 3.7-4.4 6.7A967 967 0 0 1 76 236.3c-2.2 1.3-2.8 1.4-4.8.7zm-1.8-12.4a184.5 184.5 0 0 1-19.5-15.3c-.6-.8-.8-1.7-.8-2.8 0-2.3 1.2-3.2 10.3-7.7l19-9.4C91.1 183 91 183 95.7 185c2.8 1.1 10.4 4.4 13.8 6 2.7 1.1 4.4 2.8 4.4 4.3a6 6 0 0 1-.4 2 63 63 0 0 1-9 7l-14 9.9c-7.2 5-14.2 9.7-16 10.5-1.8.9-3.1.9-5.2-.2z" style="fill:#8f7a65;stroke-width:.352778" transform="translate(-44.5 -173.2)"/>
  <path d="M71.2 237c-1.5-.6-2.4-1.2-11-8.6-7.7-6.7-8.7-7.7-9-9.8-.1-.9-.2-1.6 0-1.7l1.5 1.2a362 362 0 0 0 15.9 13.1c3.2 2.2 5 2 9.7-1.2a2149.7 2149.7 0 0 0 33.8-25l.1 1.4c0 1.2-.2 1.7-1.3 2.9-.7.8-8.1 6.7-16.5 13.1C76 236.7 77 236 75.1 236.8c-1.8.8-2.1.8-3.9.2zm-1-12a145.2 145.2 0 0 1-20.3-15.7 5 5 0 0 1-.8-2.7c0-1.3.2-1.7 1.3-2.8.7-.7 2.6-2 4.2-2.6l18.8-9.4c18.4-9.1 17.5-8.8 22.4-6.7 16.2 6.8 18.2 8 18.2 10.4a5 5 0 0 1-.5 2c-.4.8-22 16.3-32.9 23.6-4.6 3.1-7.2 4.4-8.5 4.4a9 9 0 0 1-2-.5z" style="fill:#8c6d54;stroke-width:.352778" transform="translate(-44.5 -173.2)"/>
  <path d="M71.2 237a16 16 0 0 1-3-1.9 528.8 528.8 0 0 1-15.4-13.3c-1-1.2-1.7-2.7-1.4-3.6.2-.8.2-.8 2.5 1.1 8.4 7 14.6 12 15.8 12.6 2.2 1.1 4 1 6.5-.5 1.8-1.1 9-6.4 29.1-21.3 5.8-4.3 6.8-5 6.9-4.3.3 2.2-.7 3.4-8.4 9.4L78 235c-2.8 2-4.8 2.6-6.8 1.9zm-1-12c-.8-.3-1.6-.6-1.8-.8-9-7-18.2-14.3-18.7-15-1.2-2-.7-4.4 1.2-5.9.5-.4 9.3-4.9 19.6-10L89 184h2.3c2.1 0 2.9.3 8.8 3l6.5 2.9c.8 0 5 2.4 6 3.3 1.3 1.1 1.4 1.4 1.2 2.7-.2 1.7-.8 2.4-3.6 4.4A441 441 0 0 1 74 225c-1.8.6-2.2.6-4 0z" style="fill:#796652;stroke-width:.352778" transform="translate(-44.5 -173.2)"/>
  <path d="M71.6 237.1a8 8 0 0 1-2.1-1c-1.7-1.2-15-12.7-16.4-14.2-1.3-1.3-2-3-1.7-3.8.2-.6 1.6.4 7.8 5.6 11.2 9.4 12.3 10 15.5 8.5 2-.8 1-.2 20.7-14.8l16.2-12c.6-.4.6-.4.6.7 0 1.4-.7 2.7-2.1 4-1.2 1.1-13 10.3-26.8 20.9-8.1 6.2-9.4 6.9-11.7 6.1zM70.4 225a64 64 0 0 1-12.5-9c-8-6.3-8.8-7.2-8.8-9.5 0-1.2.6-2.3 1.8-3.2.5-.4 9.3-4.9 19.6-10L89 184h2.3c2.1 0 2.9.3 8.8 3l6.5 2.9c.8 0 5 2.4 6 3.3 1.3 1.1 1.4 1.4 1.2 2.7-.3 1.9-.9 2.5-6 6l-13.5 9.5c-20.1 14.2-21 14.7-24 13.6z" style="fill:#715845;stroke-width:.352778" transform="translate(-44.5 -173.2)"/>
  <path d="M71.5 237c-1.8-.7-2.4-1-8.2-6-10.9-9.4-12.5-11.1-12-13 .3-.5.6-.4 2.8 1.6a230.4 230.4 0 0 0 10.3 8.6 21 21 0 0 0 7.1 4.6c2.8.5 2.2 1 32.2-21.4 7.7-5.8 8.4-6.2 8.5-5.4.1 1.3-.5 2.6-2 4a32273.7 32273.7 0 0 0-27.8 21.6c-7.1 5.6-8.4 6.2-10.9 5.4zm-2.8-13c-1-.5-5.5-4-10.1-7.6-8.6-6.7-9.5-7.6-9.5-9.8a4 4 0 0 1 1.8-3.3c.5-.4 9.3-4.9 19.6-10L89 184h2.3c2.1 0 2.9.4 9.2 3.2 10.7 4.7 11 4.9 12.3 6.1 1 1 1.2 1.3 1 2.6-.1.8-.5 1.7-.8 2.1a243.3 243.3 0 0 1-38.4 26.6c-2 .9-4 .7-6-.5z" style="fill:#835230;stroke-width:.352778" transform="translate(-44.5 -173.2)"/>
  <path d="M71.5 237c-1.8-.7-2.4-1.2-9.5-7.2a50.9 50.9 0 0 1-10-9.5c.2-.1.5 0 .8.5.5.6.5.6.3-.2a4 4 0 0 0-.9-1.7c-.4-.4-.6-.8-.4-.9a89 89 0 0 1 11.7 9.4c5.9 5 8.1 6 10.4 5.2 1.7-.6 4.4-2.4 9.2-6l28.1-20.8c.6-.4.7-.4.7 0 0 .3-.3.9-.7 1.3-.4.4-.7 1-.7 1.2 0 .7-1 2.3-1 1.7 0-.3.1-.8.3-1 .3-.2.3-.5.2-.6-.3-.4-2.4 1.3-2.4 1.8 0 .6.2.6.9 0 .3-.4.6-.5.6-.2 0 .6-.7 1.7-1 1.7a1249.3 1249.3 0 0 1-30.6 23.6c-2.6 1.9-4.2 2.3-6 1.6zm-16-14.8c-.5-1.2-1.7-1.9-2-1-.1.3 0 .7.2.8.3.2.6.1.6-.1.1-.2.4.2.7.8.6 1.4 1 1 .5-.5zm13.2 1.9c-1-.6-5.5-4-10.1-7.7-8.5-6.6-9.5-7.6-9.5-9.7 0-.5.2-1 .4-1s.2-.1.1-.3c-.3-.6.5-1.4 1.3-1.4.4 0 .6-.2.5-.4-.1-.2 0-.3.3-.3s.5-.2.4-.3c-.2-.4 1.3-1.3 3.2-1.8a225.6 225.6 0 0 1 19.6-9.8c.6-.6 1.3-.6 1.3-.1 0 .2.2.3.4.1.3-.1.3-.3 0-.5-.4-.2-.2-.4.5-.7l3.3-1.4c1.2-.6 2.5-1 2.7-1 .3 0 .8-.4 1.2-.8.5-.5 1-.7 1.4-.5h.3c-.4-.4 1-1.3 2-1.1h.3c-1-.3 1.5-1.3 3.3-1.3 1.7 0 3.7.7 10.8 4l5.7 2.5c2 .8 4 2 4.7 2.7 1.2 1 1.3 1.3 1.1 2.6-.1.8-.5 1.7-.8 2.1a243.3 243.3 0 0 1-38.4 26.6c-2 .9-4 .7-6-.5zm1-4.2c-.3-.6-1.2-.5-1.2.1s.7 1 1.2.5c.1-.1.2-.4 0-.6zm-5.3-4c0-.1-.3-.3-.5-.3s-.3.2-.2.4c.1.2.4.3.6.3.2 0 .3-.1.1-.3zm8.5-1.3c.1-.2 0-.4-.1-.4-.2 0-.5.2-.6.4-.1.2 0 .3.1.3.2 0 .5-.1.6-.3zm-12-1.6c-.2-.3-.4-.5-.6-.3-.2.1-.2.3.1.5.7.4.7.4.5-.2zm1.6.3c0-.3-.7-.5-.9-.2-.1.2 0 .4.3.4s.6 0 .6-.2zm12.5-.2c.3-.4-.2-.4-.9 0-.4.3-.4.4.1.4.3 0 .7-.2.8-.4zm-9.8-1.9c-.1-.3.2-.5 1.1-.6 3-.4 4.9-1.6 3.4-2.2-.5-.2-.5-.1-.2.3.4.5.3.6-.6.6-.6 0-1.2-.2-1.3-.3 0-.2-.6-.3-1-.2-1.2.2-1.2-.5 0-1 .4-.2.8-.6.7-.8-.1-.4-2.4-.4-2.7 0 0 .2-.8.5-1.5.6-1 .2-1.3 0-1.3-.3s-.2-.5-.4-.5c-.5 0-.9 1.2-.4 1.3.8.3.5.9-.4.7-.5 0-.8-.3-.8-.9 0-1.2-1-1.6-2.2-1-.5.3-.7.6-.5.6.4 0 .9 1.2.9 2.5v.9l.3-1c.4-1 1.4-1.4 1.4-.6 0 .2.2.3.4.2.2 0 .8.3 1.3.9 1 1.1 1.5 1.2 2.3.5.7-.8 1-.7 1 .1 0 .4 0 .7.3.7.2 0 .3-.2.2-.5zm-3-1.2c-.3-.2-.4-.5-.3-.7.4-.6.8-.5 1 .3.2.8 0 .9-.7.4zm1.3-1.4c0-.2.3-.4.6-.4.2 0 .6.2.7.4.1.2-.1.3-.5.3s-.8-.1-.8-.3zm16.6 1.8c0-.2-.2-.4-.5-.6-.5-.2-.7.2-.3.6.3.4.8.3.8 0zm-7.6-1.5c.2-.2 0-.3-.3-.3s-.5.1-.5.3c0 .2.1.4.3.4.2 0 .4-.2.5-.4zm6-.2a.9.9 0 0 0-.7-.5c-.5 0-.5.1-.1.5.2.3.5.6.7.6.2 0 .2-.3 0-.6zM75 208c-.6-.6-1.3-.7-1.3-.2 0 .4.6.7 1.3.7.4 0 .4 0 0-.5zm1.5-.7c0-.2-.2-.6-.4-.7-.2-.1-.3-.5-.2-.8.1-.8-.7-1-1.1 0-.3.5-.3.8.2 1.3.7.9 1.5 1 1.5.2zm3.7-.2-.5-.3c-.2 0-.4.2-.4.3 0 .2.3.4.6.4s.4-.2.3-.4zm-29-.8c-.4-.3-.4-.3-.3.2.2.4.4.6.5.5.1-.1 0-.4-.3-.7zm5.2.5c0-.2-.2-.4-.5-.4s-.6.2-.7.4c-.2.2 0 .3.5.3.4 0 .7-.1.7-.3zm14.6-.4c.2-.2 0-.3-.1-.3-.2 0-.4.1-.4.3 0 .2 0 .4.2.4l.3-.4zm7.6.3a58 58 0 0 1-1-.5c.2.3.6.6.8.6.2 0 .3 0 .2-.1zm-17.6-2c1-.6 1-.7.5-.7a3 3 0 0 0-1.6.7c-1 .9-.5.9 1 0zm13 .3c-.1-.2-.3-.4-.5-.4s-.4.2-.5.4c0 .2.2.4.5.4s.5-.2.5-.4zm-20.4-.7c0-.2-.3-.3-.6-.3s-.4.1-.3.3l.5.4c.2 0 .4-.2.4-.4zm10.7-1c.2-.2 0-.4-.1-.4-.2 0-.4.2-.4.4s0 .3.2.3l.3-.3zm20-3.4-.6-.2c-.3 0-.5-.1-.5-.3 0-.2-.3-.4-.6-.4-.6 0-.6 0 0 .4.3.2.5.7.4 1.2 0 1 0 1 .6.2l.7-.9zm1-1.6c0-.2-.1-.3-.4-.3-.2 0-.2.1-.1.3l.4.4.1-.4zm-1-6.3c0-.2-.2-.4-.4-.4s-.3.2-.3.4.1.3.3.3c.2 0 .4-.1.4-.3z" style="fill:#7a4c2b;stroke-width:.352778" transform="translate(-44.5 -173.2)"/>
  <path d="M71.5 237c-1.8-.7-2.5-1.2-9.4-7.1a63.4 63.4 0 0 1-8.2-7.4c.3.1.5 0 .5-.4s.2-.2.5.5c.6 1.5 1 1.3.7-.3-.2-1-1.3-2-2-1.6-.1.2-.3 0-.3-.4s-.3-.9-.7-1.2c-.4-.2-.7-.7-.7-1 0-.3 2 1.2 11.6 9.3a29 29 0 0 0 8 5.4c2.8.5 1.8 1.2 32-21.3l8.3-6c.3.3-1.4 2.4-1.8 2.4a9 9 0 0 0-2.5 1.9c-1.6 1.5-2 2-1.7 2.4.3.3.2.7-.5 1.5l-.8 1 .3-1.2c.4-1.2.2-1.9-.3-1.1-.2.2-.4.4-.6.4-.2 0-.4.4-.6.8-.2.5-.1.6.3.5.6-.3.7.1 0 .9-.5.7-22.8 18-26 20.2-2.8 2-4.3 2.4-6.1 1.7zM96 219.4c0-.2-.2-.4-.4-.4s-.2.2-.1.4l.3.3c.1 0 .2-.1.2-.3zm2-2c-.1-.1-.2 0-.2.2s-.2.3-.4.2c-.2-.1-.2 0-.1.4.2.5.2.5.6 0 .1-.4.2-.7 0-.8zm2.2-1c0-.3-.6-.5-.8-.2-.1.1 0 .3.3.3l.5-.1zm1.6-1.3c.1-.5 0-.5-.5-.2-.4.2-.6.5-.5.7.3.5 1 .1 1-.5zM68.7 224c-1-.6-5.5-4-10.1-7.7-8.5-6.6-9.5-7.6-9.5-9.7 0-.7.1-.9.5-.7.4 0 .5 0 .5-.4 0-.3-.1-.6-.4-.6-.2 0-.3 0-.1-.2.1-.2.5 0 .7.4.5.7.5.7.5 0 0-.5.2-1 .3-1 .4-.3 1.3.4 1.3 1 0 .3.5.4 1.6.1.4 0 .6.2.7 1 .1 1.4 1 2.6 2 2.6.5 0 .9.2.9.5 0 .6-.6.8-1 .2-.3-.5-1.5-.4-1.5.2 0 .3.3.5.8.5s1 .1 1 .3l.7.3h.5c.1.1 0 .4-.2.7-.3.3-.3.5 0 .5.2 0 .4-.2.4-.4s.3-.3.7-.3c.4 0 .7-.2.7-.4s-.3-.3-.6-.3-.5-.2-.5-.4.2-.3.4-.3.3-.2.1-.5c0-.2 0-.1.3.2.3.3.8.6 1.1.6.3 0 .6.3.6.7 0 .8 1 1 2 .4.6-.3 1-.1 1.7.6.7.8 1 .8 1.2.4.5-.7.4-1-.2-1-.2 0-.5-.2-.5-.4s.3-.2 1 0c1.2.5 1.8.5 1.8-.2s1-1 1.5-.4c.2.4.3.3.3-.2 0-.8 1.3-1.5 2-.9.5.4.6.4 1-.1.5-.8 1.9-.8 2.2-.1 0 .3.4.5.7.5.3 0 .4-.2.3-.5l.5-1c.6-.3.6-.5.2-1.2-1-1.6-.4-1.6 1.3 0 1.3 1.2 1.5 2 .3 1.2-.5-.3-.8-.3-1.3.1-.5.5-.5.5.3.8.6.2.7.4.3.6-.4.2-.4.4-.1.4.2 0 .5-.2.6-.4.1-.2.5-.3.8-.3.5 0 .5 0 0 .2-.8.2-.8.7.2 1.3 1 .8 1.3.7 1.3-.2 0-.5.1-.6.6-.5.3.1 1 0 1.7-.2 1-.2 1.4-.2 1.7 0 .6.5 1.6.2 1.6-.4 0-.5-3.1-.7-3.7-.2-.3.2-.5.2-.7 0 0-.2.2-.5.7-.6.9-.2.9-.3.3-.7-1-.7-1.8-.6-1.6.2 0 .4 0 .7-.4.8-.8.4-.7-1 .2-1.8.7-.7.4-1.3-.4-.8-.5.3-2.5-.5-2.5-1 0-.3-.1-.3-.3-.2-.2 0-.6 0-1-.3-.7-.6-1.7-.8-1.4-.3.3.4-1 1.6-1.3 1.2-.2-.2 0-.4.1-.4.5 0 .5-1 0-1.3-.4-.2-1.4.5-1.2 1 .3.4-.7.7-2.4.8-3.3.2-3.2.1-2.7.8.5.6.5.6-.2 0l-1.4-.7c-.6-.1-.6-.2 0-.2.2 0 .5-.2.5-.5 0-.2-.3-.3-.7-.2h-.5c0-.2-.2-.4-.6-.6-.5-.1-.6-.3-.4-.4.3-.1.4-.3.3-.5-.1-.2.1-.3.5-.3s.7-.2.5-.4c-.2-.4-2 0-2.5.6s-1.5.6-1.5 0c0-.8-.1-.7-1.6.7-1 1-1.4 1.2-2 1-.9-.3-1.5.5-1 1.1.3.4.3.5 0 .5l-1-1c-.5-.6-1-1.1-1.3-1.1-.3 0-.5-.2-.5-.5 0-.8-.7-1.5-1-1-.2.2-.4.2-.7 0-.3-.4-.1-.7.7-1.2.6-.3 1-.4.8-.2-.1.3.1.4.7.4s.8-.1.7-.4c-.1-.2 0-.5.2-.7h.7c.1.2.8.2 1.5 0 .8-.3 1.2-.7 1-.8h-.9c-1 .4-.6-.1.6-.9 1.3-.7 3-1 2.6-.4-.2.2 0 .3.3.2.5-.2.5-.3.1-.5l-.3-.5a27.6 27.6 0 0 1 6.4-3.3 7050.2 7050.2 0 0 0 5.7-2.7c1.6-.7 2.3-.8 2.6-.5.5.4 1.2.1 1.2-.4 0-.2-.2-.4-.5-.4s-.5-.1-.4-.4c.2-.2.5-.2.8-.1.3 0 .8 0 1-.4.4-.3 1-.5 1.3-.4.4.1.5 0 .4-.3-.1-.3 0-.5.4-.5l1.7-.6c.6-.3 1.6-.5 2.3-.6.7 0 1 0 .8-.1-.5-.2-.5-1.2 0-1.2l.4.4c0 .2.5.1 1-.1l1.9-.8c.5 0 .9-.3.8-.5-.4-.6.4-1 1.9-1.1 1.8-.1 4.5.8 10.4 3.5l7 3c1.7.8 3.7 2 4.4 2.6 1 1 1.2 1.3 1 2.6-.1.8-.5 1.7-.8 2.1a243.3 243.3 0 0 1-38.4 26.6c-2 .9-4 .7-6-.5zm1.1-4.1c-.1-.8-.6-1-1.3-.5-.4.3-.4.4.2 1 .7.7 1.3.5 1.1-.5zm-5.4-4.2c-.4-.3-.8-.4-1-.3-.2.1 0 .4.3.7.4.2.8.4 1 .3.2-.2 0-.5-.3-.7zm10-.5c-.2-.4 0-.9.4-1.3.4-.3.7-.7.7-1 0-.5-1.6-.2-2.2.5-.3.4-1 .7-1.7.7-.6 0-1 .2-.8.4.1.2.7.3 1.4.3.9 0 1.2.2 1.2.5s.3.6.6.6c.4 0 .5-.2.3-.7zm-9.5-1.3c-.1-.6-1.1-1-3.4-1.4a4 4 0 0 1-1.1-.3c-.4-.3-1 .7-.6 1.1l2.2.3c1.2 0 2 .2 2.2.4.2.7.8.5.7-.1zm12.8-.5c0-.2-.3-.4-.5-.4-.3 0-.7.2-.8.4 0 .2.1.4.5.4s.8-.2.8-.4zm5.7-1.4c.7 0 .8-.4 0-1.3-.4-.6-.5-.6-.4 0 0 .2-.3.5-.6.8-.3.3-.5.7-.5 1 0 .2.1.2.4 0 .3-.3.7-.5 1-.5zm-4.4-.3c0-.3-.2-.4-.8-.4-.6 0-.9.2-.9.5 0 .7 1.5.6 1.7 0zm-4.5 0c-.4-.3-.4-.5 0-.9.3-.4.2-1-.4-1-.3 0-.7 1.5-.5 1.9.1.2.5.3.8.3.5 0 .5 0 .1-.3zm-20.5-4c1-1 .6-2-.6-1.7-.6.2-.7.2-.1.6.4.3.5.5.2.7-.4.3-.6 1-.2 1l.7-.6zm-2-.9c-.5-.6-1-1-1-.6 0 .6.5 1.3.9 1.3s.4-.1 0-.7zm38.5-.2-.4-.3c-.2-.2-.3 0-.3.1 0 .2.1.4.3.4.2 0 .4 0 .4-.2zm-3.4-.8c.8-.6 1-1.8.5-1.8-.6 0-1.4 1-1.4 1.7 0 .9 0 1 1 .1zm-7 0c0-.3 0-.4-.4-.4-.3 0-.5.1-.4.3l.4.4.4-.4zm11.6-1.2c.4-1-.3-1.5-1.5-.8-.7.3-.8.5-.4.5s.7.3.7.6c0 .8 1 .6 1.2-.3zm-24.2-.2c0-.4-.8-.8-1.5-.8-.2 0-.1.2.1.6.5.5 1.4.7 1.4.2zm13-.4c0-.2-.2-.4-.5-.4-.6 0-.6 0-.1.4.6.4.7.4.7 0zm13.1-.2-.3-.4c-.2 0-.4 0-.4.2s.2.4.4.4.3-.1.3-.2zm-6-.7c0-.5-1.7-1.7-2-1.4-.1.1 0 .4.4.7l.5.5c-.2 0-.2.2 0 .4.2.4.9.3 1-.2zm3.9-1c-.9-.5-2.8-.3-2.8.3 0 .4.2.5.9.3.5-.1.9 0 .9.2 0 .3.1.3.7 0s.7-.5.3-.7zm-11.4.3c.6-.7.6-1.1 0-.5-.5.3-.7.3-1.1 0-.6-.6-.7 0-.1.6.5.5.6.5 1.2 0zm-15.2-.9c1-.7 2.2-.6 2.7.1.1.2.3.3.4.2.1 0 0-.5-.5-1-.6-.6-1.7-.7-2.8-.3h-.5c-.1 0-.2 0 0 .3 0 .1-.2.4-.6.5-.7.2-1 1-.2 1l1.5-.8zm19.7-.7c.2-.4.1-.9 0-1.1-.1-.2 0-.3.1-.2.5.3 2.5-.5 2.7-1 .3-.8-.7-.6-1 0-.2.6-.3.6-.5 0-.4-1-1-1.1-1.3-.2-.2.6-.5.7-1.5.7-1.1 0-1.3.2-1.4.8 0 .8 0 .8.5.2.4-.6.5-.6.8 0 .4.7.3.8-.3.8-.4 0-.6.2-.5.4.4.6 2.2.4 2.4-.4zm5.2.4c.3 0 .2-.2-.3-.4s-.7-.5-.6-.7c.1-.2-.2-.4-.7-.4-.7 0-.8.2-.7.6.1.3 0 .7-.3.9-.4.3 0 .3 2.6 0zm2.3 0c-.1-.2-.5-.3-1-.2-.9.3-.8.5.3.5.5 0 .8-.1.7-.3zm-31-.4c0-.2-.2-.4-.4-.4-.3 0-.6.2-.6.4s.3.4.6.4c.2 0 .5-.2.5-.4zm1.5 0c0-.2-.2-.2-.5-.1-.3 0-.6.2-.6.3l.6.2c.3 0 .5-.2.5-.4zm17.6.2-.3-.4c-.2-.1-.4 0-.4.2s.2.4.4.4.3-.1.3-.2zm-11.3-.4-.3-.3a.2.2 0 0 0-.4.1c0 .2.2.4.4.4s.3 0 .3-.2zm17.5-.2-.5-.3c-.2 0-.4.2-.4.3 0 .2.3.4.6.4s.4-.2.3-.4zm9.7-.3c-.4-.3-.4-.3 0-.4.4 0 .7-.1.7-.3 0-.2.2-.4.5-.4s.6-.2.6-.6c0-.5-.2-.4-.8.2-.5.4-1.2.8-1.7.8-.7 0-.7 0-.4.5.3.3.7.5 1 .5.6 0 .6 0 .1-.3zm-32.8-.7c0-.2-.2-.4-.4-.4s-.3.2-.1.4c0 .2.3.3.3.3.1 0 .2-.1.2-.3zm17.6 0c-.7-.5-1.5-.5-1.2 0 .1.2.6.3 1 .3.6 0 .7 0 .2-.3zM67 198h-.7c-.3.1-.2.2.2.2s.6 0 .5-.2zm6.7 0c.3-.3.4-.6.3-.8-.4-.6-.9-.5-1.3.3s.1 1 1 .4zm11.7-3.2c.5-.3.6-.4.3-.3l-1.2.2c-.3 0-.5.2-.5.4 0 .4.4.4 1.4-.3zm-15.5-.1c0-.2-.3-.3-.6-.3-.5 0-.6 0-.1.3.7.4.7.4.7 0zm22.1-1h-.6c-.3.2-.2.3.2.3.3 0 .5-.1.4-.2zm-7.7-1.6c.4-.4.4-.6 0-.8-.3-.2-1 .4-1 1 0 .5.6.3 1-.2zm-4.7-2a.8.8 0 0 0-.6-.3c-.3 0-.2.1 0 .3.7.5.9.5.6 0zm-19.4 18.4c-.1-.2 0-.4.2-.6.2 0 .3 0 .3.4 0 .6-.2.7-.5.2zm7.5-.3h.9c.2.1 0 .2-.5.2-.4 0-.6 0-.4-.2zm2.6-.1c0-.2.1-.3.3-.2l.4.4-.4.2c-.2 0-.3-.2-.3-.4zm-8.5-.9c0-.5.5-1 .8-.6.3.2-.1 1.2-.5 1.2-.2 0-.3-.3-.3-.6zm-1.8-.1c0-.3-.5-.6-1-.9l-1.2-.5 1-.1a9 9 0 0 0 1.7-.5c.4-.2.6 0 .6.3s-.2.6-.4.6c-.1 0-.2.2-.1.5 0 .3 0 .6-.2.7-.2.1-.4 0-.4-.1zm12 0h.6c.1.2 0 .3-.4.3s-.5-.1-.2-.2zm1-.6h.7c.1.1-.1.2-.5.2s-.5-.1-.2-.2zm-11.4-.9c.1-.2.5-.3.8-.4.4 0 .3 0-.3-.2l-.8-.3.8-.3c.5-.1 1 0 1.3.2.5.4.4.5-.3 1-1 .5-1.8.5-1.5 0z" style="fill:#74492a;stroke-width:.352778" transform="translate(-44.5 -173.2)"/>
  <path d="M70.3 236.5a38 38 0 0 1-8.5-7.6c0-.6 0-.6.5-.2.8.6.7 0-.1-1-.4-.5-.8-.7-1-.4 0 .2-.4.2-.6 0-.2 0-.2 0 0 .4.4.5.5.6.1.6-.7 0-4-3-4-4l-.3-1.4c0-.3-1.1-1.5-2.4-2.7a10.7 10.7 0 0 1-2-2.1c.2 0 4.1 3.1 11.4 9.2 5.7 4.8 8 6 10.1 5.5a51 51 0 0 0 10.2-6.6 6010.5 6010.5 0 0 1 28.1-20.7c.2.3-1.8 2.2-4.5 4.3a28.2 28.2 0 0 0-2.8 2.4l-.5.2c-.4 0-1.3 1.1-1.3 1.7 0 .3.2.5.5.5s.6-.2.7-.5c0-.2.2-.3.2 0 0 .6-1.4 1.8-7.7 6.7l-11.6 9c-8.6 6.6-9.7 7.3-11.7 7.3-.9 0-2.1-.3-2.8-.6zm-10-10.7c0-.1 0-.3-.3-.3-.2 0-.3.2-.2.3l.4.4.2-.4zm-2.7-2c0-.3-.2-.4-.4-.4s-.3.1-.2.3l.4.4.2-.4zm37.3-3.6c0-.2-.1-.4-.3-.4-.2 0-.4.2-.4.4s.2.4.4.4.3-.2.3-.4zm2.4-1.3c.7-.6 1.4-1.9 1-1.9-.2 0-.6.4-1 1-.5.4-1.2.8-1.5.8-.3 0-.5.3-.5.7 0 .8.5.6 2-.6zm3-2.5c0-.2-.3-.4-.6-.4s-.5.2-.5.4c0 .3.2.5.5.5s.5-.2.5-.5zm1.8-1.1c.1-.4 0-.8-.2-1-.3-.2-1.3 1-1 1.4.2.5 1 .3 1.2-.4zM68.7 224c-1-.6-5.5-4-10.1-7.7-8.4-6.5-9.5-7.6-9.5-9.6 0-.4.1-.7.3-.5.2 0 .5-.1.7-.5.3-.5.4-.5.4.4 0 .7.2 1 1 1.3.5.2 1 .6 1.3 1 .4.4.5.4 1.1-.4l.8-1 .5 1c.4 1 .4 1 0 1-.3-.2-.5 0-.5.4 0 .5.5.9 1.5 1.3.8.3 1.3.7 1.2.9-.3.5.5.9 1 .4.4-.4 1-.5.8-.1-.1.5.5 1.9 1 1.9.2 0 .6.3 1 .7.3.3.8.7 1.1.7.3 0 .5.2.5.5 0 .5 1.4 1 2.2.8.3 0 .2-.3-.2-.7-.7-.7-.7-1 0-.8.3.2.5 0 .5-.5 0-.9.6-1.3 1.2-.8.2.2.8.3 1.2.2.8-.2 1.1.4.3.7h1c1-.1 1.3 0 1.3.4 0 .3 0 .5.2.5l1.1.3c.6.1.8 0 .6-.2-.1-.3 0-.4.3-.4s.6.1.6.3c0 .2.7.4 1.6.4 1.1 0 1.5-.2 1.5-.6 0-.3.3-.5.7-.5.7 0 3.2-1.7 3.2-2.2 0-.2-.3-.3-.7-.1-.6.1-.7 0-.4-.2 1-1 2.7-.5 2.3.6-.2.7.6 1 1 .4.3-.3.7-.4.9-.4.8.3 1.2-1 .6-2.1-.5-1-.5-1 .4-.8 1.2.3 2.3 0 2.3-.6 0-.5-.8-1-1.7-1-.7 0-3.2-1.1-3.2-1.4 0-.2.1-.3.3-.3.2 0 .3-.2.2-.4-.1-.2-.6-.3-1.1-.3-.5 0-.8-.2-.7-.3.4-.6-.5-.8-1-.2-.6.5-.7.5-1 0a8.8 8.8 0 0 0-4.1-1.6c-.4 0-1 .4-1.4.9-.7.7-1.1.9-2.1.8H69c-.2.2-.7.2-1.2 0l-.9-.2.9-.1h.9l-1-.3c-.5-.2-.7-.4-.4-.5.6-.4.6-1.7.1-1.7-.2 0-.2.2-.1.5.2.3.1.3-.3 0-.3-.3-1-.7-1.6-.8-.9-.3-1.2-.2-1.7.3-.6.7-2.1 1-1.7.4.5-.8-.6-.3-1.7.9-1 1-1.5 1.2-2.2 1-.8-.2-1 0-1 1 .2.6-.5 0-1.8-1.5-.8-1-1.6-1.7-1.8-1.6l-.8-.1c-.3-.2 0-.5.6-1 .6-.3 1-.4 1-.3 0 .2 0 .6.2 1 .3.6.3.6.8-.1.3-.4.4-1 .3-1.2-.2-.2 0-.3.5-.2.9.3 3.2-.4 3.2-.9 0-.1-.4-.2-1 0l-1 .2 1-.7c1-.9 2.5-1.3 2.8-.8 0 .2.4.2.7 0 .3-.2.4-.3 0-.3-1 0-.2-.8 2.4-2l3.2-1.6 6.7-3.2c1-.5 1.6-.5 2-.3.4.4 1.6.2 1.6-.3 0-.2-.3-.4-.7-.5h1.3c1.6.1 1.9 0 1.7-.4-.1-.3 0-.5.2-.5s.3-.3.2-.6c-.2-.3-.1-.5 0-.4.1 0 .8-.2 1.4-.6 1-.5 1.9-.7 4.3-.9.2 0 .3-.2.2-.4-.1-.2.1-.3.5-.3s.7-.2.7-.4.3-.3.7-.3c.3 0 1-.4 1.4-1 .8-.7 1-.8 2.5-.6 2.3.3 5.3 1.4 9.5 3.5a58.3 58.3 0 0 0 6.3 2.7c1 .4 2 1 2.6 1.1 2.8 1.3 3.9 3 3.1 5-.4 1.3-1.4 2.2-4.4 4.2l-7.9 5.6c-16 11.3-25 17.5-26.6 18.1-2 .9-4 .7-6-.5zm1.3-4.4c-.3-1-.3-1-1.1-.7-1 .2-1 1-.2 2 .6.6.7.6 1.1 0 .3-.3.4-1 .2-1.3zm-2.7-1.8c-1-.8-1.4-.6-.7.3.4.6.8.8 1 .5.2-.2.1-.5-.3-.8zm2.2-2.1c0-.1-.2-.2-.5-.2s-.5.2-.5.4c0 .1.2.2.5.1l.5-.3zm-3.1-.2c0-.2-.2-.3-.4-.3-.1 0-.4.1-.5.3-.1.2 0 .4.3.4s.6-.2.6-.4zm12.3 0c-.1-.2-.3-.4-.5-.4s-.4.2-.5.4c0 .2.2.4.5.4s.5-.2.5-.4zm6-7.6c-.2-.1-.5-.1-.8 0-.2 0-.2.2.3.2.3 0 .5 0 .4-.2zm5.1-.4-1.4-1.2c-.5-.6-.4-1.8 0-2 .3 0 .4.3.3.8-.1.7 0 .9.4.9.3 0 .5.1.4.3-.1.2 0 .4.3.4.7 0 .7-.2 0-1.3-.3-.5-.4-.8-.2-.8.4 0 1.3 1.4 1.2 1.8 0 .2 0 .3.3.3.2 0 .3-.2.2-.5-.1-.3.2-.7.7-1 .4-.2.8-.5.8-.7 0-.2.3-.2.7-.1.4.1.6 0 .6-.5s-.2-.7-.6-.8c-.5 0-.9-.3-1-.6 0-.4 0-.4.6-.3.4.1.8 0 .8-.1 0-.2-.2-.3-.4-.3s-.3-.3-.3-.6-.3-.5-.8-.5c-.4 0-.6-.1-.5-.2.1-.2-.2-.5-.7-.7-.6-.3-1-.4-1.3-.2-.4.4-2.4-.3-2.4-.9 0-.2.5-.6 1.1-.8 1.6-.7 1.3-1.2-.4-1l-1.9.5c-.2.2-.6.2-1 .2-.3 0-.7.2-1 .6-.4.8-1.3 1-3.2.2-1.1-.4-1.3-.4-1.2 0 .1.3 0 .4-.6.3-.7-.2-.7-.2-.1.5.4.4.8.8.9.7.7 0 1 .2 1.2.8.2.9 2 1.8 2.3 1.1 0-.2.3-.4.6-.4s.5-.2.6-.5c0-.4.2-.4.6-.2.5.3.5.4 0 .7-.3.2-.3.5.4 1.3.7 1 .7 1.1.2 2.1-.6 1.2-1.2 1.6-2.3 1.3-.5-.1-.7 0-.7.3s.3.6.7.8c.3 0 .7 0 .7-.2 0-.5 1-.3 1.2.2.2.3.6.6 1 .6.7 0 .9-.2.7-.6-.2-.6.4-.7.8-.1.3.4 1.5 1 2.3 1 .3 0 0-.3-.6-.6zm-1.8-3.9c-.8-.3-.5-.6.7-.6 1.8.1 1.9.2 1.3.5-.6.4-1.3.4-2 .1zm-1.3-1.9c-.6-.8-.5-1.4.2-1.4.2 0 .3.3.1.6-.1.4 0 .6.5.8.4 0 .6.3.5.5-.3.5-.7.3-1.3-.5zm-5.8 2.4c.1-.2-.2-.7-.6-1l-.7-.6.8-.6c.8-.5.8-.6.2-1-.4-.3-.9-.5-1.2-.5-.4 0-.3.1.2.5.7.5.6.6-.6.4-1.4-.1-1.4 0-.2 1.4.4.5.5.8.3 1-.2.1-.5 0-.6-.3-.1-.3-.4-.6-.5-.6-.2 0-.3.2-.2.4.2.2 0 .3-.1.3-.2 0-.4.2-.4.4 0 .1.7.3 1.5.4l1.7.2c.2 0 .3-.1.4-.4zm14.6-.4c0-.5-.2-.9-.4-.9s-.3.4-.2.9c.2 1.1.7 1.1.6 0zm-19.7-.6c-.3-.2-.5-.5-.4-.7.2-.3 0-.4-.7 0-.3 0-.6.3-.6.4 0 .2.3.3.5.2.3-.1.6 0 .8.1 0 .3.4.4.6.4.2 0 .1-.2-.2-.4zm21.7-.5c-.2-1-.7-1.4-1.1-1-.4.5.2 2 .8 2 .3 0 .4-.4.3-1zM65 201.5l1-.5c-.1.7 0 1 .4.5.2-.4.4-.4.8 0 .3.2.7.4.8.2.3-.2-.5-1-1.9-1.7-1-.5-1.1-.5-1.1 0 0 .2-.3.4-.6.4s-.4.2-.3.4c.1.2 0 .4-.1.4-.2 0-.6 0-1 .2-.3.1-.5 0-.5-.3s-.4-.5-1.2-.5c-.7 0-1.3 0-1.3.2s.4.4.8.4a3 3 0 0 1 1.5.5c1 .7 1.5.6 2.7-.2zm5.6-.4c-.4-.4-.8-.7-1-.5-.2.3.6 1.3 1.2 1.3.4 0 .3-.2-.2-.8zm26.5-1c0-.4.2-.7.5-.7s.5-.3.5-.7c0-.4.3-.7.6-.7.2 0 .5-.2.5-.4s-.1-.3-.2-.3a7 7 0 0 0-2.6 1.5c-.3.3-.9.6-1.4.6-1 0-1 0-.2.5.6.5.6.6.2.9-.4.2-.2.3.8.2 1 0 1.3-.2 1.3-.8zm-28.3.3c0-.1-.1-.3-.3-.3-.2 0-.4.2-.4.3 0 .2.2.4.4.4s.3-.2.3-.4zm-5.3-1c0-.2-.2-.4-.5-.4s-.5.2-.3.4c0 .2.3.3.5.3s.3-.1.3-.3zm14.5-.5c0-.4-.7-.5-.9-.2 0 .2 0 .3.4.3l.5-.1zm11.3-.2c0-.2-.2-.4-.4-.4s-.2.2-.1.4c0 .2.3.3.3.3.1 0 .2-.1.2-.3zm-15.3-1c.5-.4.8-1 .7-1-.3-.4-1.6.3-2.1 1.1s-.5.9 0 .9c.3 0 1-.4 1.4-1zm-7 .4h-.7c-.3.1-.2.2.2.2s.6 0 .5-.2zm11.9-.8c-.1-.2.1-.4.5-.4.7 0 .7 0 .4-.5-.4-.5-.5-.5-1 0-.3.6-.3 1.2.1 1.2v-.3zm9-.7c0-.2-.2-.4-.4-.6-.2 0-.3 0-.3.4 0 .3.1.5.3.5.2 0 .4-.1.4-.3zm-1.2-1c.3-.7-.5-1.2-1.6-1-1.4.4-1.8 1-.6.8.6 0 1.2-.2 1.4-.4.1-.2.2 0 0 .4-.2 1 .5 1.1.8.2zm3.2 0c-.3-.3-.8-.4-1.2-.3-.5.3-.5.4.4.6l1.2.3c.1 0 0-.2-.4-.6zm-13.5-.4c-.6-.3-.6-.3 0-.6 1.3-.5-.1-.8-2.8-.5-.8 0 1.5 1.4 2.4 1.4 1 0 1 0 .4-.3zm7 0c0-.2-.5-.4-1-.4s-.9.2-.9.4c0 .1.4.3 1 .3.4 0 .8-.2.8-.3zm-13.5-.4c0-.2-.3-.3-.6-.3-.5 0-.6 0-.1.3.7.4.7.4.7 0zm9.2 0c0-.2-.2-.4-.4-.4s-.3.2-.2.4l.4.4.2-.4zm13.2 0c-.2-.3 0-.6.2-.7.5-.4.5-.4-2.4-.5-.8 0-1.5 0-1.5.2 0 .4 2 1 2.7.8.2-.1.5 0 .5.2s.1.4.3.4c.3 0 .3-.2.2-.4zm-12.5-1.4c0-.2-.2-.4-.4-.4s-.3.2-.2.4l.4.3c.1 0 .2-.1.2-.3zm16-.6c.3-.9-.2-1.4-.7-.6-.3.3-.5.7-.5 1 0 .4 1 .2 1.2-.4zm-11-.4c0-.2.2-.4.6-.5 1.2-.3.8-.8-.5-.7-1.6.2-2.5 1.5-1 1.5.4 0 .8-.2.8-.3zm9.8-5.7c0-.2-.2-.4-.5-.4s-.6.2-.6.4.3.3.6.3.5-.1.5-.3zm-32.5 28 .4-.7c.5-.5 1.8-.2 1.7.3-.2.5-2 .8-2 .4zm5.7-1.5c-1.6-1-1.8-1.3-.9-1 .6.2.9 0 1-.3.1-.3.7-.7 1.3-1 .5-.1 1-.6 1.2-1 .1-.6.3-.6 1.4-.4.7 0 1.3 0 1.4-.2.4-.5 1.6-.5 1.8.1.2.3 1 .6 2 .7 1.3.2 1.6.4 1.5.8-.1.3-.5.4-1 .3-.5-.2-.6-.1-.4.3.2.5-.4 1-1.5 1-.4 0-.4-.1.1-.6.4-.2.6-.6.4-.7-.1-.2-.4-.1-.5.1-.2.3-.5.4-.7.3-.3-.2-.3-.4-.1-.7.2-.3.2-.6-.2-1-.5-.8-.5-.8-1-.1-.3.5-.3 1-.1 1.9.3 1 .2 1.3-.3 1.8-.9 1-3.8.8-5.4-.3zm37.2-.2c.2-.3.4-.6.6-.6.5 0 .2.8-.4 1-.2.1-.3 0-.2-.4zm-41.6-.2c-.4-.6.5-.8 1-.2.6.5.5.5-.1.5-.4 0-.8-.1-1-.3zm17.9-1c-.6-.2-.6-1.1 0-1.1.4 0 .6.3.6.7v.7l-.6-.2zM52 206.7c0-.3-.4-.5-.7-.5-.7 0-.6-1.6.2-1.7.5 0 .7.3 1 1.2 0 .6.3 1.2.6 1.3.2.1.1.2-.2.2-.4 0-.8-.2-.9-.5zm2.2-.4v-.7c0-.1.3 0 .4.4.1.3.1.7 0 .8l-.4-.5zm4.8 0c-1.2-.4-1.3-.4-.3-.4.6 0 1.3-.2 1.7-.4.4-.2.7-.3.7 0 0 .1-.3.4-.6.5-.3 0-.4.3-.3.5l.1.4-1.3-.6zm3.7-1.2c-.6-.2-.6-.3-.1-.3.3 0 .7.1.8.3.2.4.2.4-.7 0zm2.4-.7c.1-.1.5-.2.8-.1.7.3.6.5-.3.5-.4 0-.6-.2-.5-.4z" style="fill:#724424;stroke-width:.352778" transform="translate(-44.5 -173.2)"/>
  <path d="M70.3 236.5a38 38 0 0 1-8.5-7.6c0-.6 0-.6.5-.2.8.6.7 0-.1-1-.4-.5-.8-.7-1-.4 0 .2-.4.2-.6 0-.2 0-.2 0 0 .4.4.5.5.6.1.6-.7 0-4-3-4-4l-.3-1.4c0-.3-1.1-1.5-2.4-2.7a10.7 10.7 0 0 1-2-2.1c.2 0 4.1 3.1 11.4 9.2 5.7 4.8 8 6 10.1 5.5a51 51 0 0 0 10.2-6.6 5539.7 5539.7 0 0 1 25-18.6c1.5-1 2.1-1.4 2.1-1 0 .3-.5.8-1 1-.6.4-1 .8-1 1 0 .2-.3.3-.5.3-.3 0-.9.4-1.3 1a19 19 0 0 1-2.2 1.8l-2 1.7c-.4.4-.8.8-1 .8-.5 0-1.3 1.4-1 1.8 0 .2.5.3.8.3.5 0 .5 0 0 .4-.2.1-.6.2-.7.1-.2 0-.3 0-.3.2 0 .5-.9 1.2-6.3 5.4-19.4 15.1-19 14.7-21.2 14.7-.9 0-2.1-.3-2.8-.6zm16.5-10c0-.5-.8-.2-1 .3 0 .3.1.4.5.2.3 0 .5-.3.5-.5zm-26.4-.7c0-.1-.2-.3-.4-.3s-.3.2-.2.3l.4.4.2-.4zm29.4-2c.1-.2 0-.4-.1-.2-.2 0-.4.3-.4.5 0 .5.3.4.5-.2zm-32.2 0c0-.3-.2-.4-.4-.4s-.3.1-.2.3l.4.4.2-.4zm34.2-1.6c0-.2-.3 0-.7.3-.4.3-.7.8-.7 1 0 .2.3 0 .7-.3.4-.4.7-.8.7-1zm5-2.7c0-.2.3-.4.7-.4.5 0 1-.3 1.4-1 .4-.6.8-1 1-1 .2 0 .3-.3.3-.6 0-.7-1.2-.6-1.2 0-.2 1.4-.2 1.4-.5 1-.4-.7-1.8 0-1.8.7 0 .3-.3.6-.8.7-.5 0-.7.3-.7.7.1.4 0 .5-.4.4-.6-.2-.8.2-.3.7.3.2 2.2-.8 2.2-1.2zM68.6 224c-1-.6-5.5-4-10.1-7.7-8.3-6.4-9.5-7.6-9.5-9.5 0-.4.2-.7.7-.7.4 0 .7.2.7.5s.4.7 1 .9c.5.2 1 .6 1.2.9.2.3.5.3 1 0 1-.5 1.4-.4 1.2.8-.2 1-.1 1 1.2 1.6.8.3 1.4.7 1.4 1 0 .2.3.4.7.4.6 0 1 .3 1.2.8.2.4.6.8.8.8.2 0 .6.3 1 .7.3.3.8.7 1.1.7.3 0 .5.2.5.5s.4.6 1 .7l1.7.3c.5.2.9 0 1-.2.1-.3.3-.3.5 0 .5.7.2 1.2-.5.9-.5-.2-.5-.1 0 .7.8.9 1.3 1 1.3 0 0-.2.1-.5.3-.5.2 0 .6-.4.7-.8.4-1 1.4-1.2 2-.6.2.2.7.5 1.1.5.6.1.7 0 .6-.7 0-.8.4-1.2.6-.5.1.2.8.4 1.5.5 1.1.2 1.4 0 1.6-.5.2-.8 1-1 1.3-.2.1.3.5.6.7.6.6 0 .7-.5.1-1-.2-.2 0-.6.7-1.1 1.3-1 1.4-1.3.5-1.6-.4 0-.2-.1.4-.2.7 0 1 .2 1.3.9.4 1 1 1.1 1.3.3 0-.2.4-.4.6-.3.2.1.6 0 .9-.4.3-.4.3-.7-.1-1.6-.6-1.1-.4-1.2 1-.7.6.3 1 .2 1.2-.2.3-.3.7-.5 1-.5 1 0 .4-.6-1-.8-.7-.1-1.4-.5-1.5-.8-.2-.5 0-.5.6-.3 1.5.4 2.2.4 2-.3 0-.3 0-.6.3-.6.5 0 1 .8.8 1.3-.1.4 0 .5.3.3s1-.3 1.4-.3c.9.1.9.1-.2-.6-1-.6-1-.7-.2-.7.4 0 .8-.2.8-.5s-.2-.6-.4-.6-.3-.1-.3-.4c0-.2.2-.1.6.2.4.3.8.5 1 .3l-.2.4c-.4.5-.4.6.1.6.3 0 .6-.3.6-.6 0-.9 1.2-2 2-1.6.4.1.5 0 .3-.2-.2-.3 0-.4.3-.4s.5.1.5.3c0 .2.2.4.3.4.2 0 .4-.5.4-1 0-1.2-.5-1.5-.9-.6-.1.4-.4.4-1.2.1-1-.4-1.4-1-.5-1 .3 0 .5.2.5.4 0 .3.1.3.4 0 .5-.4-.6-1.8-1.5-1.8-.4 0-.5-.2-.4-.5.2-.6-1.6-1.1-2-.6-.5.4-2.5-.3-2.5-1 0-.2.3-.4.6-.4s.5.2.5.4.3.3.6.3c.5 0 .5 0 0-.5-.3-.5-.3-.6.2-1 1-.4.7-1-.4-1-.6 0-.7 0-.3-.2.4 0 1 0 1.5.3 1.3.7 1.3.2 0-1-1-1-3.7-2-3.2-1.1.1.1 0 .3-.1.3-.2 0-.5-.2-.6-.4-.1-.2-.5-.2-1-.1-.3.1-.9 0-1.2-.3-.5-.4-.5-.3-.3.2s0 .6-.6.4c-.4-.2-1.3-.3-1.9-.3-.6 0-1.2-.2-1.4-.3-.1-.1 0-.3.2-.3.4 0 .4 0 0-.4-.1-.3-.2-.6 0-.8 0 0 0-.1-.4 0-.4.2-.6.6-.6 1.1 0 1-.7 1-2.3 0-.7-.5-1.5-1-1.8-1-.3 0-.5 0-.4-.2.2-.2.8-.2 1.6 0 1.6.4 2.1.4 1.5 0-.6-.4-.2-1.2.5-.9h.5c0-.1-.5-.4-1.1-.5-1-.3-.9-.4.7-.2 1.5.2 1.8.1 1.8-.3 0-.8 1.2-1.7 2.2-1.7.6 0 .7 0 .3-.3-.8-.6 1.3-1 2.6-.5 1.4.6 1.9.6 1.4 0-.5-.5.8-1.8 2.1-2.1.5-.2.9-.4.8-.6-.1-.2.1-.4.5-.4.5 0 .7-.1.5-.4-.3-.5 2-.2 4.6.6a51.7 51.7 0 0 1 10.2 4.7c.2-.1 1.2.2 2.2.6l2.2.9c.2 0 .4.1.4.3 0 .2.2.4.5.4s.7.2 1 .4c.2.3.7.6 1 .7 1 .4 1.5 2 1.2 3.2-.3 1.3-1.5 2.6-4.5 4.5l-8 5.7c-16 11.3-25 17.5-26.6 18.1-2 .9-4 .7-6-.5zm1.4-4.2c.1-1.1-.2-1.4-1.4-.9-.7.3-.7 1.2 0 2s1.2.4 1.4-1.1zm3.2-.8c0-.2 0-.3-.2-.3s-.4.1-.4.3c0 .2 0 .4.2.4l.4-.4zm-2.8-2h-.7c-.2.2-.2.2.2.3.4 0 .6-.1.5-.2zm10.7-3.2c0-.2-.2-.4-.4-.4s-.3.2-.3.4c0 .1.1.3.3.3.2 0 .4-.2.4-.3zm16.3-11c-.2-.7 0-.8.4-.6h.6c0-.4-1.2-.8-2-.8-.3 0-.5.4-.5 1 0 1 .1 1.1.9 1.1.7 0 .8-.1.6-.7zm-.2-2H99l-1-.7c-.9-.7-.9-.7-.1-1 .4 0 .6-.3.5-.5 0-.2.1-.4.5-.5.4-.2.7-.4.5-.6-.2-.4-1.5-.4-1.5 0 0 .2-.2.4-.5.4-.2 0-.6.3-.9.7-.2.4-.8.7-1.4.7-.8 0-.9 0-.3.5.6.5.9 1.1.2.7-.1-.1-.3 0-.3.1 0 .6.4.8.8.5.3-.2 1.1-.3 2-.3zm-3.8-1.1c.3-.2.4-.5.3-.6-.3-.3-1.3 0-1.3.5s.3.5 1 0zm4.5-3.9c-.1-.2 0-.4.4-.5.3-.2.4-.4.3-.5 0 0-.5 0-1 .4-.5.3-.6.5-.2.7.7.2.7.2.5-.1zm-5.4-1.3c-.2-.6.6-.7 1.2 0 .3.2.4.2.4 0 0-.7-.5-.9-3.3-1-3-.2-3.2.2-.6 1 2.2.7 2.6.7 2.3 0zM96 193c-.4-.1-.4-.2 0-.7.3-.4.3-.5-.1-.8-.6-.4-1.1 0-1.3 1 0 .5.1.8.5.9.7.1 1.5-.2.9-.4zm-14-.3h-.6c-.3.1-.2.2.2.2s.6 0 .5-.2zm5.3-.1c-.2-.2-.4-.4-.6-.4-.2 0-.3.2-.3.4s.2.3.5.3.5-.1.4-.3zm2.8-.2c-.4-.4-.9-.5-1.5-.4-.7.2-.8.4-.4.6.2.2 1 .3 1.5.3.9 0 1 0 .4-.5zm-5.3-.1c-.1-.2.3-.5.8-.6.8-.2 1-.4 1-1 0-.9 0-.9-.8-.3a4 4 0 0 1-1.6.6c-.7 0-1.3.7-1.3 1.3 0 .2.4.3 1 .3s1-.2 1-.3zm4.1-1c-.2-.1-.6-.1-.8 0-.3 0 0 .2.4.2.5 0 .7-.1.4-.2zm-.6-1.7c-.8-.6-1.2-.7-1.2-.2 0 .2.3.4.6.5 1.2.3 1.3.2.6-.3zm.8-2.2h-.7c-.3.1-.2.2.2.2s.6 0 .5-.2zm.1-.6-.5-.3c-.4-.2-.5-.1-.4 0 .2.4.9.6.9.3zm5.5-.2c.2-.4-.6-.7-1.2-.5l-.4.5c0 .4 1.3.4 1.6 0zm-27 29c0-.3.1-.4.3-.4.2 0 .4.1.4.3 0 .2-.2.4-.4.4a.4.4 0 0 1-.3-.4zm1.6-.6c.1-.3.3-.5.4-.5l.1.5c0 .3-.2.5-.3.5-.2 0-.3-.2-.2-.5zm-7.3-.5c0-.6 1-.9 1.5-.4.3.2.3.4 0 .4-.2 0-.6 0-.9.2-.3 0-.6 0-.6-.2zm5.5-.4c.1-.2.4-.3.6-.2.4.3.4.6-.3.6-.3 0-.4-.2-.3-.4zm1-.7c-1.4-.6-2.2-1.4-1-1 .4.2.5.1.4-.1-.1-.6.7-1.5 1.1-1.2.4.2 1.3-.6 1.3-1.1 0-.3.1-.5.3-.5H72c1 0 1 .1 1 1.3 0 .6.2 1.2.4 1.2.6 0 .4.7-.4 1.4-1 .9-2.5.9-4.4 0zm7.4-1.7c.3-.3.7-.4.8-.3.2.2 0 .4-.2.6-.9.5-1.2.4-.6-.3zm5.3 0c-.6-.2-.6-1.1 0-1.1.4 0 .6.3.6.7v.7l-.6-.2zm-4.7-.7c-1.2-.1-2-.9-2.1-1.8 0-.3.3-.1.6.4.5.5 1 .8 2 .7.9 0 1.3.1 1.3.5 0 .3-.2.5-.3.4l-1.5-.2zm5.4-3.8c-.6-.4-.6-.5 0-.5.3 0 .6.1.6.3 0 .2.3.3.7.2.4-.2.7 0 .7.2 0 .5-1.1.4-2-.2zm-.8-1.2c-.5-.2-.7-.3-.5-.3.2 0 0-.4-.6-.8-.5-.3-.7-.7-.4-.7.2 0 .5.2.6.4.4.5.9.4.7-.2-.2-.3 0-.5.2-.5.3 0 .1-.3-.3-.6-.6-.4-.7-.6-.3-1.2.4-.8 1.3-1 1.3-.3 0 .3.5.3 1.6.2 1.4-.3 1.6-.2 2.1.6s.5 1 .1 2.1c-.2.7-.5 1.3-.6 1.3-2 .2-3.2.2-4 0zm6.9 0c-.4-.7 0-.8.7-.2.5.5.5.5 0 .5-.3 0-.6-.1-.7-.3zm-30-.2h1l-.5.1c-.5 0-.7 0-.4-.1zm-2-.7c-.4-.2-.6-.5-.4-.7.2 0 .6 0 .8.4.6.7.3.9-.5.3zm13.2 0a4 4 0 0 1-1-1.5c0-.8-.4-1.1-1-1.3h1.4c2.3.2 3-.2 3.4-1.8.2-.7 0-.9-.8-1-.7-.2-1.3-.1-1.6.1-.3.3-.7.4-1 .3-.3-.1-.6 0-.6.1 0 .2-.1.3-.3.3-.2 0-.3-.1-.2-.3.1-.2 0-.6-.4-.9-.6-.4-.6-.5 0-.7.3-.1.6-.5.6-1 0-.4-.3-.6-1-.6l-1.5-.1c-.3 0-.5.1-.6.4 0 .2 0 .4.4.4.2 0 .6.4.8.9.4.7.3.8-.7.7-1.7 0-2-.4-1.6-1.2.2-.6.2-.7-.1-.7-.3 0 .1-.3.8-.7 1.5-.8 1.9-.9 1.5-.4 0 .2 0 .4.2.4s.4-.2.4-.4.6-.3 1.4-.3c.8 0 1.4-.2 1.4-.4 0-.1.9-.2 2-.1 2 .2 2.7-.4.7-.7-1.1-.1-1.1-.1.2-.2.7 0 1.3 0 1.3.3 0 .1.4.4.8.5.8.2.8.2.1.7l-1.1.6c-.2 0-.5.3-.6.7 0 .4-.5.8-1 1-.7.3-.7.3.5.4.9 0 1.6-.3 2-.7.4-.4 1.1-.7 1.6-.7.6 0 .9-.2.7-.4-.1-.2-.6-.3-1-.1-.5.1-.6 0-.3-.2.3-.1.5-.4.5-.6 0-.2.5-.3 1-.3.7 0 1.5-.2 1.9-.3.5-.3.5-.2.3.3-.1.4-.4.8-.6 1-.2.1 0 .5.5 1 .8.5.8.6.3.8-.7.3-1.3 0-1.3-.7s-.5-.7-1.2.2c-.6.6-.6.8-.2 1 .3.2.8.4 1.1.4.8 0 .8.5 0 1-.3.3-.3.6-.1.9.4.5.3 2.3-.1 2.3-.2 0-.7-.2-1-.5-.5-.3-.5-.5-.2-.8.3-.3 0-.4-1.4-.3-1 0-1.8.2-1.8.2l.4.6c.5.5.5.6-.3 1.7-1 1.4-2.3 1.6-3.6.7zm5.8-5.8c.5 0 .5 0 0-.6-.5-.5-.7-.5-.9-.2 0 .2-.5.5-1 .5-1 0-1 0-.2.2.5 0 1 .4 1 .7.3.6.3.6.4 0 0-.3.4-.6.7-.6zm2 .7c0-.2-.4-.4-.7-.4-.3 0-.4.2-.3.4 0 .2.4.3.7.3.3 0 .5-.1.3-.3zm-7.8-1.1c-.4-.4-.6-.4-.9 0-.3.3-.2.4.4.4.7 0 .8-.1.5-.4zm9 6.4c0-.2.2-.4.4-.4s.4.2.4.4-.2.3-.4.3a.4.4 0 0 1-.3-.3zm-21.3-.7c-1-.4-1.4-1.4-.8-2 .3-.2.3-.2.2.3-.3.8-.2.8.8-.1.5-.4 1-.6 1.3-.5.3 0 .8 0 1.2-.3.3-.2.8-.3 1-.1 0 .1 0 .4-.3.5-.4.3-.4.4 0 .5.4.1.3.4-.4 1.1-.8 1-1.7 1.1-3 .6zm19.2-.3c-.4 0-.7-.3-.7-.5 0-.5 1-.3 1.5.3.4.5.3.5-.8.2zm12.2-.8c-.6-.2-.6-.2.3-.4H90c.6.4-.7.7-1.6.4zM65.1 202c0-.2 0-.4.2-.4s.4.2.4.4-.1.3-.2.3l-.4-.3zm3.5-.2c-.3-.3-.5-.6-.3-.8.1-.1.4 0 .4.2.1.2.4.4.7.4.3 0 .5.2.5.4 0 .5-.5.4-1.3-.2zm18 0a1 1 0 0 1 .2-1c.4-.3.4-.3.3.1-.1.4 0 .8.2 1 .3.3.3.4 0 .4s-.6-.2-.7-.5zM71 201c0-.2.1-.2.3-.1l.4.3-.4.2c-.2 0-.3-.2-.3-.4zm7.4 0c0-.1.1-.3.3-.3.2 0 .4.2.5.4.2.1 0 .3-.3.3s-.5-.2-.5-.3zm6.3 0c0-.1.3-.3.6-.3s.4.2.3.4l-.6.3-.3-.3zm-21.6-.9c.2-.5 1.5-.6 1.5-.1l-.8.4c-.7.1-.8 0-.7-.3zm17.2.3c-.1-.2 0-.3.3-.2.7.2.8.5.3.5l-.6-.3zm-20-.4c0-.2.3-.4.6-.4s.6.2.7.4c.1.2-.1.3-.5.3s-.7-.1-.7-.3zm1.7-.7c-.2-.2 0-.4.1-.4.2 0 .4.2.4.4s0 .3-.2.3l-.3-.3zm19.9-.6c-.5-.1-1-.4-1.2-.6a3 3 0 0 0-1.1-.7c-.7-.3-.7-.3.1-.5.8-.2.8-.3.3-.7-.4-.4-.5-.6-.1-1 .2-.2.6-.3.8-.2.2.2 1 .4 1.9.5 3 .5 4 .7 4.5 1.2.4.4.4.5-.2.5h-1.4c-.5 0-1 .2-1.2.8-.4 1-.7 1-2.4.7zm5.3-3.3c0-.1.2-.4.5-.5.8-.3.9-.3.7.3-.2.6-1.2.8-1.2.2zm-10.7-.6h.7c.1.2 0 .2-.5.2-.4 0-.4 0-.2-.2zm-6.4-1.2c.2-.2.8-.4 1.3-.5l1.8-.3c.7-.2 1-.2 1 .2s-.5.5-1.7.5c-.8 0-1.5 0-1.5.2s-.3.3-.6.3c-.5 0-.5-.1-.3-.4z" style="fill:#6c4225;stroke-width:.352778" transform="translate(-44.5 -173.2)"/>
  <path d="M69.8 236a45 45 0 0 1-7.7-6.4c0-.2.2-.2.5 0 .5.6 1 .6.7 0-.1-.2.1-.1.5.2 1 1 1.8.5 1-.5l-1.1-.6c-.3 0-.5-.2-.5-.5 0-.7-3.5-3.1-4.5-3.2-.9 0-1.6-1-.8-1 .5 0-1.8-2.3-4.3-4.3A152.3 152.3 0 0 1 63 227c4.9 4.2 7.7 5.9 9.5 5.9 2.2 0 3.5-.9 34.2-23.7 2.4-1.8 4.1-2.9 4.1-2.6 0 .3-.1.5-.3.5a74 74 0 0 0-10.8 8.5c-.2 0-.9.5-1.6 1a447.7 447.7 0 0 1-2.4 1.8c-.2 0-.9.7-1.5 1.4-.6.8-1.3 1.5-1.5 1.5-.7 0-3.8 2.5-3.8 3 0 .8.6.5 2.6-1.3 2-1.7 2.7-2.1 2.7-1.3 0 .2.7-.3 1.5-1 .8-.9 1.6-1.4 1.8-1.3.2 0 .2.3 0 .4A672.5 672.5 0 0 1 77 235.6c-3 2-4.6 2-7.1.5zm9.2-4c0-.3 0-.4-.4-.3-.7.3-.8 1.3-.1 1.1.2 0 .4-.4.5-.7zm3.7-2.9c.2-.9.2-.9-.3-.3-.6.8-.7 1.8-.2 1.5.2-.1.4-.6.5-1.2zm2.2-1.3c0-.3.3-.5.5-.4.5.4 2.1-.7 2.1-1.4 0-.9-.9-.6-2.2.7-1.3 1.3-1.5 1.6-1 1.6.2 0 .4-.2.6-.5zm-25 0c-.7-.5-1.2-2.5-.6-2.3.3.2 1.6 2.9 1.3 2.8l-.6-.5zm9.5-3.3c-.8-.4-4.9-3.4-9.1-6.7-11-8.6-10.6-8.2-11-10.2-.2-1-.2-1.2.5-1.2.4 0 .7.3.7.6s.4.7.8.9l1.3.6 1.2.6c.4 0 .7.5.8.9.1.4.4.7.7.7.3 0 1 .5 1.6 1 .6.6 1.3 1 1.6 1 .2 0 .7.4 1 .9l.5.5c0-.2.4 0 .9.5 1.7 1.7 2.6 2.5 3 2.4 1.2-.1 1.8 0 2 .6.3 1 1.2 2 1.6 1.7.3-.2.3 0 .4 1 0 .2.4.6.7 1 .6.3.7.3 1.1 0 .3-.4.6-1 .7-1.5.2-.7 0-1-.7-1.3-1-.5-1.1-1.2 0-1 .4 0 1-.1 1.4-.3.4-.2 1-.1 1.3.1.7.5 1.2.1.6-.5-.3-.4-.2-.5.4-.5.6 0 .7.2.6.5-.1.3 0 .7.1.8.4.2.5-.3.4-1 0-.2.3-.3.8-.3.6 0 .7.1.2.4-.4.2-.4.4 0 .7.2.3.6.2 1.4-.3a4 4 0 0 1 1.6-.8c.4 0 1.2-.4 2-1a22 22 0 0 1 2.5-1.7c.7-.4 1.2-1 1.3-1.5.1-.7.5-.9 1.3-.7.2 0 .7 0 1.1-.2 1-.2 1.1-.9.3-.9-.3 0-.5-.1-.5-.3 0-.2.3-.4.6-.4.4 0 .8-.2 1-.5 0-.3.3-.5.6-.5s.3 0 0 .3c-.4.2-.4.3 0 .6.2.1.4 0 .5-.2.1-.2.7-.7 1.5-1 1.4-.7 2.2-1.3 1.9-1.6v-.3c1.8-.1 3.5-1.3 3.3-2.1-.1-.5 0-.6.6-.3 1 .3 2-.6 2-1.8.1-.4.3-.6.5-.6.2.1.3.4.3.6 0 .2.3.1.8-.2.5-.4.8-.7.5-.8-.2 0-.4-.5-.4-1 0-.4-.1-.8-.3-.8-.2 0-.4.2-.4.4 0 .3-.1.3-.5 0-.4-.4-.4-.6.3-1.5.7-1 .7-1-.5-3.5-.1-.3-.6-.6-1.2-.6-1-.2-1.2-.6-.3-1.1.5-.4.4-.4-.4-.2h-.6c.6-.4.5-1.2-.1-1.4-1-.4-1.1-.3-1.5.7-.3.4-.7.8-1 .8-.7 0-4.2-1.4-4.8-2-.4-.5-.4-.5.1-.1s.7.4 1.2 0c.4-.5.4-.7-.2-1.2-.6-.6-.7-.6-.7 0 0 .3-.2.4-.5.3-.3-.1-.5-.4-.4-.5.4-.6-1.3-.3-2.2.4-.5.4-1.2.7-1.5.7-.4 0-1 .4-1.3 1-.6 1-.7 1.1-2.1.9-1.8-.2-2.6.2-2.6 1.4 0 .4-.1.5-.2.3-.1-.3-.6-.5-1.1-.5-1 0-1 0-.2-.3.7-.3.8-.5.6-1.1-.2-.6-.1-.7.6-.5.5.2.7.1.5-.1-.1-.2.2-.5.7-.6.5-.2.8-.4.7-.5-.2-.4 1.3-1.7 2.3-1.9.5 0 .8-.3.8-.5 0-.3.3-.5.8-.5s.9.2.9.4c0 .5 1.4.7 1.6.2.1-.3.7-.5 1.3-.5 1.2 0 1.9-.7 1.1-1.3-.4-.3-.3-.5.3-.9 1-.6 1.5-.7 3.5-.8.9 0 1.8.2 2.1.4.3.2 1 .5 1.8.6.7.1 1.8.6 2.4 1 .7.4 1.5.8 1.9.8.7.2 2.5 1 3.4 1.8.3.2.8.5 1.2.5.4.1.7.4.6.6 0 .3.2.4.5.4 1.1-.2 2.9.4 3.1 1 .1.2.5.4 1 .4.3 0 .6.3.6.5 0 .3.3.5.7.4 1.2-.4 2 1.6 1.4 3.6-.3 1-.5 1.1-.8.8-.4-.3-.5-.2-.6.4-.1.5-.4.8-.6.8-.3 0-.4 0-.3.2.2.2 0 .5-.5.8l-2.3 1.6c-1 .6-1.8 1.2-2.1 1.2-.3 0-.6.2-.7.5-.2.3-.5.5-.7.4a47.5 47.5 0 0 1-6.8 5.1 466.5 466.5 0 0 1-21.8 15.2c-2.5 1.4-5 1.7-7 .7zm4.2-4.9c.4-.1.4-1.2-.1-1.2-.6 0-1.2.7-1 1 .3.5.3.5 1 .2zm-2-1.7c-.2-.3-.5-.5-.6-.4-.2.3.3 1 .7 1 .3 0 .2-.3 0-.6zm29.7-17.8c-.2-.4-.5-.7-.6-.6-.3.3.2 1.3.6 1.3.3 0 .3-.2 0-.7zm8.1 0c0-.2-.1-.3-.3-.2-.2.1-.4.4-.4.6 0 .2.2.2.4.1s.3-.4.3-.5zm-4.5-1.8c-.2-.7-1.1-1-1.1-.3 0 .2.9 1 1.3 1l-.2-.7zm-3.3-1.1c0-.2.3-.3.7-.3.5 0 .5 0 0-.3-.8-.6-2-.5-2 .2 0 .4.2.7.6.7.4 0 .7-.2.7-.3zm3.2-1v-.9l.7.8c.8 1 1 1 1 .3 0-1-1.1-1.6-3-1.4-1.4.2-1.9.1-1.9-.2 0-.3 0-.4-.2-.3-.3.4.7 1.7 1.4 1.7.3 0 .7.2.8.4.4.6 1.2.3 1.2-.5zm3.4-1.7c-.4-1.5-1-1.7-3-1l-1.2.4 1 .5c.7.3 1 .3 1.5-.3s.8-.6 1-.3c.1.2 0 .5-.3.7-.8.4-.5 1 .5 1 .6 0 .7-.1.5-1zm-9.1-3.4c-.1-.2-.4-.2-.7 0-.3 0-.2.1.2.1s.6 0 .5-.1zm-.8-.9c.1-.2 0-.2-.4-.1-.5.2-.6.1-.4-.4.2-.5.1-.6-.5-.4-.4 0-1 0-1.2-.2-.8-.6-1-.2-.2.7.6.8 2.3 1 2.7.4zm-6.5-.7c0-.2-.2-.3-.4-.3s-.3.2-.3.5.1.5.3.3c.2 0 .4-.3.4-.5zm2.6-2.3c.7-.6.5-1.7-.3-1.8-.5 0-.5 0 0 .1.5.2.4.3-.3.6-.4.3-.8.7-.7 1 0 .4-.1.6-.3.5-.1-.1-.4 0-.5.2-.4.5 1.5 0 2.1-.6zm4.9 30.7c.3-.4.6-.6.7-.5.1.1-.1.4-.6.6-.7.5-.7.5-.1-.1zm-29.5-1.5h.7c.1.2 0 .3-.5.2-.4 0-.4 0-.2-.2zm6.8-.6c0-.3.2-.5.4-.5.1 0 .3.1.3.3 0 .2-.2.4-.3.5-.2.2-.4 0-.4-.3zm-7-2.1c-1.7-.8-1.5-1.8.6-2.7 1-.4 1.7-.6 1.8-.3 0 .2.3.3.5.3.3 0 .6.5.7 1 .2.7.1 1-.5 1.6-1 .7-1.5.7-3 0zm10.7-1c-.1-.1 0-.3.2-.3s.3.2.3.4l-.1.3-.4-.3zm2.1-7c-.6-.1-.9-.3-.7-.3.1 0 .1-.2-.1-.5-.3-.4-.3-.5.2-.7.6-.3.6-.3 0-.6-1.2-.7-.3-1 2.8-.7 1 0 1.3 1 .8 2.3-.3 1-1 1-3 .5zm-12.4-.3c-.9-.4-1.3-1-.8-1.2.2-.2.2-.5.1-.8-.1-.3 0-.5.7-.5.5 0 1-.1 1-.3 0-.4 1.7-.1 2.2.3.4.4-.7 2.3-1.4 2.6-.7.3-.8.3-1.8-.1zm-13-.8-.9-.5 1-.9c1-.8 3.2-1.3 2.7-.6 0 .2 0 .3.2.3.6 0 .4 1-.3 1.5-.7.7-1.7.8-2.8.2zm19.6-1.4c0-.2.2-.2.4-.1l.3.4-.3.1c-.2 0-.4-.1-.4-.4zm-.2-1c.1-.2.4-.3.6-.3.2 0 .3.1.3.3 0 .2-.2.4-.5.4s-.5-.2-.4-.4zm-4.3-1.5v-1.1h-2c-1.2 0-1.8 0-1.3-.1.4-.1.7-.3.7-.5 0-.3-.4-.3-1.2-.2-1.3.3-1.3.3-.7-.5.7-1.1.7-1.3-.4-1.7-1-.3-1-.3.9-.7 2.4-.5 3.3-.5 4.1.1.6.4.6.6.3 1.4-.3.5-.8 1-1.2 1-.3 0-.8.1-.9.3-.2.3 0 .4.6.2.6-.1 1 0 1.4.3.2.3.6.5.9.5.6 0 .6.4-.2 1.4-.9 1-1 1-1-.4zm2.3 0c.3-.8.7-1.3.9-1.3.2 0 .2.1 0 .3 0 .2.3.5.7.6.6.1.8.4.7.7-.1.4-.3.4-.7.1-.5-.4-1.7-.1-1.3.4 0 .2 0 .4-.3.4-.5 0-.4-.2 0-1.3zm19.3-1.6c-.8 0-1.6-.4-1.8-.8-.3-.4-.8-.7-1.2-.7-.4 0-.7-.1-.7-.3 0-.2.4-.3.8-.3.5 0 .8 0 .7-.3 0-.3.1-.5.3-.5.2 0 .6-.3.9-.6.3-.5.5-.5.9-.2.2.3.7.4 1 .4.3 0 .4 0 0-.2-.8-.3-.3-.8.8-.8.8 0 1 .1.6.3-.6.4 0 1.2.7 1 .3 0 1 0 1.6.3.6.3.8.5.5.5-.3 0-1.2.6-2 1.2-.7.7-1.4 1.2-1.5 1.2l-1.6-.2zm-10.6-.3-1.3-.3c-.7-.1-1-.4-1-1 0-.5-.2-1-.6-1.3-1.2-.7 3.7-.5 5.1.2l1 .5-1 .2c-.5.1-1 .4-1 .7 0 .5-.7 1.2-1.2 1zm-19.5-.5c.2-.7.8-.7 1.5-.2.5.4.5.4-.5.5-.7 0-1 0-1-.3zM75 198l.4-.4.1.4c0 .2-.1.3-.3.3-.2 0-.3-.1-.2-.3zm1-1.7c-.6-.5-.6-.5.3-.4h1.4c.7-.5 1.1 0 .4.5-.8.6-1.2.6-2 0zm-3.1-.1c-.4-.7.4-1.2 1.3-.8.7.3.7.3-.2.7-.6.3-1 .3-1.1 0zm-2.8-2.5c.1-.2.3-.3.5-.3s.4.1.4.3c0 .2-.3.4-.6.4s-.4-.2-.3-.4zm11.5 0c-.5 0-1-.4-1-.6-.2-.4 0-.4.3-.2l1.5.2c.6 0 1 0 .8.3-.2.6-.6.7-1.6.4zm2.6-.1c-.2-.6 1.3-1.4 1.8-1 .2.2.7.4 1.2.5.8.1 1.5 1 .7 1-.2 0-.3-.2-.2-.4.1-.2 0-.3-.3-.3s-.6.1-.6.3c0 .2-.1.4-.3.4-.2 0-.4-.1-.3-.3 0-.7-.2-.8-1-.3-.6.5-.8.5-1 .1zm10.2.2c.1-.2.4-.3.7-.2.8.3.7.5-.2.5-.4 0-.6-.2-.5-.3z" style="fill:#663c21;stroke-width:.352778" transform="translate(-44.5 -173.2)"/>
  <path d="M69.3 235.8c-2.4-1.6-6.5-5.3-5.9-5.4.3 0 .7.4.9.8.4.7.4.7.9-.3.5-.9.4-1-.8-2.2l-2.5-2c-.7-.3-1.2-.8-1.2-1 0-.1-.5-.5-1.1-.7-.9-.4-1.2-.4-1.5 0-.1.1-.2 0 0-.4.1-.6-.2-1.2-1.7-2.6l-1.8-1.9 1.9 1.6c4.3 3.4 5.8 4.7 6.7 5.5a45 45 0 0 0 7.2 5.2c3.2 1.3 3.2 1.3 23.5-13.7 5.3-4 9.7-7.2 9.8-7.1l-3.4 3.3c-.5.4-1.1.7-1.4.7-.3 0-.4.1-.3.2.1.2-.8 1-2 1.8-1.3.8-2.4 1.7-2.6 2-.2.3-1 1-1.8 1.4a22 22 0 0 0-3 2.5 7 7 0 0 1-2.2 1.6c-.2 0-1 .7-1.8 1.4a6 6 0 0 1-2.1 1.6c-1 .2-2 1.7-1.7 2.5.3.7 1.4.2 1.8-.9.2-.6.6-1 1-1 .2 0 .5-.3.7-.6 0-.3.4-.5.7-.4.3.2 1-.3 2-1.1.7-.8 1.3-1.3 1.3-1.2 0 .1.5-.2 1-.7 1.2-1 3.5-2.7 3.8-2.7 1 0-2.3 2.7-12.3 10.3-7.2 5.5-8.4 5.9-12 3.5zm3.4-.2c0-.3.4-.6.8-.8.9-.3.6-.5-.8-.7-.9-.1-1 0-.9.4l.2 1c0 .4.2.6.4.6s.3-.3.3-.5zM71 234c0-.3-.3-.5-.6-.5-.5 0-.7.4-.3.8.4.4.9.3.9-.3zm8.3-2.4c-.4-1-1.6 0-1.5 1.2v1l.9-.8c.5-.5.7-1 .6-1.4zm-10.9.5c-.5-.4-1 0-.8.4.1.1.5.2.8 0 .4-.1.4-.2 0-.4zm-2-.5c0-.3-.2-.5-.3-.4v.5c.4.6.6.5.4-.1zm14.4-.2c0-.2-.1-.4-.3-.4-.2 0-.3.2-.2.4.1.2.3.3.4.3l.1-.3zm-21-4.3c-.1-.3-.3-.7-.6-.7-.2-.1-.3-.3-.1-.5.4-.4 1 .4.8 1.1-.1.6-.2.6-.2.1zm9.6-2.8c-.8-.3-4.9-3.3-9.1-6.6-11-8.6-10.6-8.2-11-10.2-.3-1.5 0-1.5 1.8 0 .7.8 1.6 1.3 2 1.3.3 0 .9.5 1.3 1 .4.7 1 1.1 1.2 1.1.2 0 .7.3 1 .6.2.3 1.2 1 2.2 1.7l3.2 2.5c.9.9 1.7 1.3 2.4 1.4.6 0 1.2.3 1.4.7.6 1 1.2 1.6 1.6 1.6.2 0 .4.2.4.6 0 .9 1.4 1.8 2.2 1.4.3-.2.5-.5.3-.7 0-.2 0-.3.4-.1.5.1.6 0 .4-.2-.2-.3-.3-.8-.2-1 0-.5-.2-.9-.8-1.1-1.1-.5-1.2-1-.1-.8 1 .3 2.7 1.9 2.7 2.5 0 .2.2.5.5.5.6 0 1-.9 1-2 .1-.5.4-.7 1.6-.9.9-.1 1.7-.5 2-.8.2-.4.6-.6.9-.4.2.1 1-.3 1.7-.9.7-.6 1.5-1 1.8-1 .2 0 .4-.2.4-.4s.4-.5.9-.7c.5-.2.9-.5.9-.7 0-.3.2-.3.5-.2.2 0 .5 0 .7-.3 0-.4 0-.5-.4-.3-.3 0-.5 0-.5-.2s.5-.3 1.2-.3 1.6-.3 2.2-.7c.6-.5 1.2-.7 1.3-.6.2.1.3 0 .3-.2 0-.5 1.3-1.8 1.8-1.8a21 21 0 0 0 4.9-3.6c0-.2.3-.2.6-.1.4.1.8 0 1-.3a8 8 0 0 1 1.8-1.4c.8-.5 1.5-1 1.5-1.3 0-.1.4-.2.9-.2 1 .1 1.2-.3.2-.6-.4-.1-.8-.4-.8-.6 0-.3.3-.3.7-.2.5.2.5.1-.1-.3-.8-.7-2.6-.7-2.7-.1-.1.2-.3.2-.4 0-.1-.1 0-.6.4-1 .6-.7.7-.8 2.3-.2 1.5.4 1.7.6 1.5 1.3-.2 1 .7 1.2 1 .3.2-.3.5-.5.9-.5.3 0 .7-.3.8-.5.1-.3 0-.6-.1-.6-.2 0-.3-.2-.3-.4.1-.5 1.5-1.3 2.3-1.3.3 0 .4-.2.3-.4-.1-.2 0-.3.2-.3.3 0 .3-.4.1-1.2l-.3-1.7c0-.7-1.6-.8-2.1-.1-.5.6-2.6.7-5.3.3-1.2-.2-1.5-.4-1.2-.6.3-.2.2-.3-.4-.1h-1.7c-.6-.2-.7-.3-.3-1 .2-.3.5-.6.7-.6.2 0 .1.3-.1.5-.4.5-.4.6.1.6a2 2 0 0 0 1.2-.6c.5-.5.5-.6-.1-1-.6-.5-.6-.5.5-.3.7 0 1.5.2 1.7.3.3 0 .4 0 .4-.4 0-.3-.3-.5-.7-.5-.4 0-.6-.1-.5-.3.1-.2 0-.4-.4-.4-.3 0-.5.2-.3.5.2.7-.3.7-.9 0-.3-.4-.8-.5-1.5-.4-.5 0-1 0-1.2-.2 0-.1 0-.2.2-.2s.4-.2.4-.4-.4-.3-.8-.2c-.6 0-1 0-1-.4-.2-.3 0-.5.2-.5.3 0 .6-.1.6-.3 0-.2-.2-.4-.5-.4s-.3 0 0-.4c.5-.5 4.2.6 4.5 1.3 0 .3.6.5 1 .5a6 6 0 0 1 2.5 1.1c.8.6 1.8 1 2.1 1 .3 0 .6.3.6.6 0 .4.4.5 1.2.5.9 0 1.3.2 1.3.5s.4.6 1.1.8c.8.1 1.4.5 1.6 1 .2.5.6.9.8.9.2 0 .3-.2.2-.4-.3-.4 0-.4.9 0 .3.3.6.8.6 1.2 0 1.2-.3 2.4-.7 2.4-.5 0-1.7 1.3-1.7 2 0 .2-.3.5-.6.5-2 .1-2 .1-2 .8 0 .8-2 2.3-2.3 1.6-.2-.6-1.1-.4-1.1.2 0 .3-.2.5-.3.4-.4-.3-.9.7-.6 1.2.2.3 0 .4-.8.3a80.6 80.6 0 0 1-12.6 9c0 .4-.4.5-.6.3a44.2 44.2 0 0 1-9.8 7.4c-1.6 1.1-3.2 2-3.4 2-.3 0-.5.2-.5.4 0 .6-2.9 1.7-4.4 1.7-.8 0-2-.3-2.8-.7zm38-23.3c-.1-.2-.3-.2-.5.1-.5.8-.4 1.1.2.7.3-.3.4-.6.3-.8zm-6-9.2c0-.1 0-.3.3-.3s.2-.2-.2-.4c-.5-.3-.9-.2-1.6 0-.8.5-.8.5-.3.7 1 .4 2 .3 1.8 0zm1.7-2c0-.2-.3-.4-.6-.4s-.4.2-.3.4c.1.2.3.3.5.3s.4-.1.4-.3zm-8.2 31.6s.5-.6 1.2-1.1c.9-1 1-1 .6-.3-.3.7-1.8 1.8-1.8 1.4zm-42-2.3c-.4-.4-.7-.8-.6-1 .1 0 .6.3 1 .8 1 1 .9 1-.3.2zm19.1-1.3c-.2-.2-.2-.5 0-.6 0-.1.4 0 .7.5.4.7 0 .9-.7.1zm-2-4.2c-1.4-.6-1.5-1.3-.4-2 1.5-1 2-1 3-.1l1 .9-.9.8c-1 1-1.1 1-2.7.4zm35-3.2c1.7-1.5 2.6-1.8 1.1-.4-.7.7-1.5 1.3-1.8 1.3-.2 0 .1-.4.7-1zm3.2-2.3c.3-.4.7-.7.8-.7l-.5.7c-.3.4-.7.7-.8.7l.5-.7zm1.2-.8c0-.1.2-.4.5-.6.3-.3.6-.3.6 0 0 .1-.3.4-.6.5h-.5zm-27-2c-.8-.7-.8-.8-.2-1.4 1.6-1.7 3.8-.6 3 1.5-.3.8-1.6.7-2.7-.1zm-12.4-.2c-1-.7-.7-2 .4-2 .5 0 .9 0 1-.2 0-.2.4-.2.9 0 .7.2.7.4.4 1.2-.6 1.6-1.4 1.9-2.7 1zm-13-.6c-.5-.3-.5-.4.2-1.2.6-.6 1-.8 1.7-.6 1.4.3 1.5.4.9 1.4-.6.9-1.6 1-2.7.4zm37-5.7c-1.2-.4-1.8-1-1.8-1.7 0-1.1 2-1.5 4-1 1.2.4 1.4.6 1 .9a4 4 0 0 0-1 1.2c-.5 1-.8 1.1-2.1.6zm-12.5-.6c-.6-.3-.5-2 0-2.1 1.4-.1 2.8 0 3.6.3.8.3.7.4-.5.6-.2 0-.4.2-.5.4v.8c-.1.5-1.8.5-2.6 0zm-13.2-.2c.5-.4.5-1.5 0-1.5-.2 0 0-.3.5-.5a3 3 0 0 1 2.1-.2c1.6.3 2 .8 1.5 1.7-.3.6-.7.7-2.4.7-1.1 0-1.9-.1-1.7-.2zm34.6-.5c-.1-.2 0-.3.1-.3.2 0 .4.1.4.3l-.1.4-.4-.4zm2.1-1 .4-.4.1.4c0 .2-.1.3-.3.3-.2 0-.3-.1-.2-.3zm-5.3-.4c-.1-.2 0-.3.2-.3s.3.1.3.3l-.1.4-.4-.4zm1.2-.6h.7c0 .2-.1.2-.5.2s-.5 0-.2-.2zm5.2-.8c0-.2.2-.4.3-.4l.2.4c0 .2-.2.4-.4.4s-.3-.2-.1-.4zm-7-1c0-.2.4-.4.8-.4.3 0 .9.2 1.2.5.6.4.5.5-.8.5-1 0-1.4-.2-1.2-.5zm-1.7-.4c0-.2.3-.4.7-.4.4 0 .7.2.7.4s-.3.3-.7.3c-.4 0-.7-.1-.7-.3zm-12.7-.3h.6c.1.2 0 .3-.4.3s-.5-.1-.2-.3zm7.2-.9-1.5-.8.8-.9c.5-.4.8-.8.7-1-.2-.5.1-.4 1 .1.6.4.8.4.9 0 0-.2.4-.4.7-.4.5 0 .5 0 .2.4-.7.6-.5 1 .2.8.5-.1.8 0 .8.1 0 .3-.3.4-.5.4-.3 0-.7.5-.8 1-.3 1.3-.6 1.4-2.5.3zm-10.5.3-1.4-.3c-1-.3-1.2-.8-.2-1.1.3-.1.7-.5.9-1 .1-.4.7-.8 1.7-1 1-.3 1.5-.6 1.4-.9-.1-.3 0-.5.3-.5.4 0 .6.2.6.4s.3.4.7.4c.6 0 .7.1.7.7-.1.4-.4.9-.6 1-.3 0-.4 0-.3-.3.4-.7 0-.4-1 .6a6 6 0 0 0-1.3 1.6c-.3.5-.7.7-1.5.4zm5.8-3.7c-.8-.5-.1-1 1.2-.8 1 .2 1.2.2.7.7-.5.5-1.2.6-1.9.1zm2.6-.8a3 3 0 0 0-.5-1.5c-.3-.3-.2-.5.3-.7 1.5-.7 3.5-1 4.3-.8.8.2.8.2 0 .2-.4 0-.6.3-.5.5.2.7-.6 1.5-1.9 2-1 .4-1 .5-.5 1 .5.3.5.4-.3.4-.7 0-.9-.2-1-1z" style="fill:#63391d;stroke-width:.352778" transform="translate(-44.5 -173.2)"/>
  <path d="M69.7 236a27.5 27.5 0 0 1-6.3-5.5c.1-.1.4 0 .7.4.3.4.8.8 1 .8.4 0 .8.3 1 .6.3.3.4.3.5 0 .3-.7.7-.5 1 .3.1.6.2.6.9.2.4-.3.5-.5.3-.6-.3 0-.8-.4-1.3-.7-.4-.4-1.1-.6-1.5-.5-.4.1-.7 0-.7-.2s.3-.2.6-.1c.5.2.5 0-.1-.8-.6-1-.5-1 1.4.5 2.3 1.7 4 2.5 5.3 2.5 2 0 4-1.3 20.6-13.7l9.4-6.8-.7 1-1 .8-.9.6a75 75 0 0 0-3.4 2.8c-.5.5-1.3 1-1.6 1-.4.1-.7.5-.8 1-.2.3-.5.6-.8.6-.2 0-.5.2-.5.4 0 .1-.2.3-.4.3-.4 0-1.2.6-3.9 3-.5.5-1 .9-1.3.9-.2 0-1 .5-1.6 1.2-.7.7-1.4 1.2-1.6 1-.2 0-.2.1-.1.4.1.4 0 .6-.5.6s-1 .4-1.4.8c-.3.5-.8 1-1 1-.3 0-.4.1-.3.5.1.3 0 .5-.4.5-.6 0-.7.9-.2 1.2.2.1.8 0 1.3-.4 1.8-1.2.7.2-1.5 2-5.3 3.9-7.1 4.4-10.2 2.4zm3-.5c0-.3.4-.5 1.2-.5H75l-1-.6c-.5-.3-1-.4-1.2-.3-.1.1-.4 0-.7-.2-.5-.4-.5-.3-.3.4l.2 1.3c0 .3.2.5.4.5s.3-.3.3-.6zm-1.6-1.3c-.2-.5-1.8-1.1-2.2-.8 0 .1 0 .2.4.2.2 0 .7.4 1 1 .4 1 1.2.7.8-.4zm6.2.1c0 .7 2-1.8 2.1-2.5 0-.4-.2-.7-.4-.7-.6 0-2 1.6-2 2.3 0 .3-.2.6-.4.6a.4.4 0 0 1-.4-.4c0-.2-.1-.3-.3-.3-.2 0-.2.2 0 .6.4.6.6.6 1 .4.3-.3.4-.3.4 0zM83 231c0-.3.5-1 1.2-1.8l1.2-1c0 .3-.5 1.1-1.2 1.9-.7.7-1.2 1.1-1.2.9zm-19.3-3-2.8-2.2a52.9 52.9 0 0 1-4.4-4.1l3.9 3.1A39 39 0 0 1 65 229a7 7 0 0 1-1.3-1zm-4-.8c0-.3-.2-.7-.5-.7-.2-.1-.3-.3-.2-.4.3-.4 1 .4 1 1-.2.6-.3.6-.3.1zm27.9 0c0-.7 2-2.3 2-1.6 0 .2-.4.8-1 1.2-.7.5-1 .7-1 .4zm-18.2-2.8a281 281 0 0 1-18.4-14 5.5 5.5 0 0 1-1.7-2.6c-.3-1.4-.1-1.6.8-.7.5.5 1.5 1.2 2.4 1.7 1 .4 1.9 1.1 2.1 1.5.3.4.8.7 1 .7.3 0 .7.4 1 .8.2.4 1 1 1.5 1.2.6.3 1.7 1 2.3 1.6 2.4 2.1 3.3 2.8 3.6 2.6.4-.3 1.7.2 1.7.7 0 .4 1.2 1.6 1.7 1.6.2 0 .4.3.4.6 0 .4.4.9.8 1.2.7.5.9.5 1.9 0 .9-.5 1-.7.7-1-.3-.4-.3-.6 0-.9.6-.5 1.6.3 1.3 1-.1.3 0 .5.3.5.8 0 1.4-.6 1.5-1.5.2-1.3.5-1.8 1.2-1.5.2.1 1-.1 1.7-.5l1.6-.7c.3 0 .9-.4 1.5-.9.5-.5 1.3-1 1.6-1 .4-.2.7-.5.8-.8.1-.3.4-.5.7-.5.3 0 .7-.2 1-.4.2-.3.5-.5.7-.5.3 0 .5-.2.6-.5.1-.3 0-.4-.4-.3-.3.2-.6.1-.6 0 0-.2.6-.3 1.4-.3.9 0 1.6-.2 2.1-.7.5-.5 1-.7 1.2-.6.1 0 .3 0 .3-.4 0-.3.2-.5.4-.5.3 0 .6-.3.7-.6.2-.3.6-.5 1-.5s.7-.1.7-.3l1.1-1c.7-.3 1.6-1 2.2-1.6.6-.6 1-.9 1.2-.7.2.2.4.2.9 0 .3-.3.5-.6.3-.7 0-.2 0-.3.4-.3.3 0 .6-.1.6-.3 0-.2.2-.4.5-.4s1-.4 1.5-.9 1.2-.8 1.4-.7c.4.2.5 0 .3-.4-.1-.4 0-.5.3-.3a2 2 0 0 0 1.3-.5c.3-.4.7-.6.8-.5.3.3 1.3-.8 1.3-1.2 0-.3-.2-.4-.4-.4-.3 0-.3-.2 0-.6.6-.6 1.1-.7 1 0 0 .1.1.4.4.5.2 0 .3 0 .2-.4-.2-.4 0-.6.5-.6.4 0 .8-.3.9-.7.2-.8 1-1 1-.2 0 .7.5.7.7 0 .2-.4-1.6-2.3-2.3-2.3-.5 0-.1-1.1.5-1.3.4-.1.4 0 0 .3-.5.3-.4.4.2.2.9-.2 2 .4 1.2.7-.3.2-.2.4.3 1 .7.8 2 .9 1.6.2-.3-.5.3-.4.8 0 .5.5.1 2.6-.5 2.3-.5-.2-1.3.6-1 1 .2.1.1.2 0 .2-.3 0-.5.3-.6.7-.2.5-.4.7-1 .6-1-.2-1.8.4-1.6 1.2.1.3-.2.7-1 1.2-.7.4-1.1.5-1.2.2-.2-.6-1.1-.4-1.1.2 0 .3-.2.5-.3.4-.4-.3-.9.7-.6 1.2.2.3 0 .4-.8.3a80.6 80.6 0 0 1-12.6 9c0 .4-.4.5-.6.3a44.2 44.2 0 0 1-9.8 7.4c-1.6 1.1-3.2 2-3.4 2-.3 0-.5.2-.5.4 0 .6-2.9 1.7-4.4 1.7-.8 0-2-.3-2.8-.7zm38-23.3c-.2-.4-.8 0-.8.6 0 .5 0 .5.5.2.3-.3.5-.6.3-.8zm-16.3 23.2c.2-.3.6-.6.8-.6.2 0 .1.3-.1.6-.3.2-.6.5-.8.5-.2 0-.2-.2 0-.5zm-38.2-5.4-.8-1 1 .9 1 1c0 .2-.4 0-1.2-1zm16.8-5.4c-.3-.6.2-1.7 1-2.1.9-.5 2.1.5 2 1.6-.1.5-.5.7-1.4.8-.8 0-1.4 0-1.6-.3zm35.5-3.2c1.5-1.2 2.3-1.5 1-.4-.6.6-1.4 1.1-1.6 1.1-.1 0 0-.3.6-.7zm-22.4-4.8c-.7-.6-.7-.9-.1-1.5.7-.7 2-.5 2.2.5v1.2c-.3.6-1.5.5-2.1-.2zm-13.1-.6c-.3-.8.3-1.4 1.6-1.5 1 0 1.1 0 1 .9 0 .7-.3 1-1.3 1-.8.1-1.2 0-1.3-.4zm-12.3-.3c-.6-.5-.6-.5 0-1 1.2-1.1 3-.1 1.8 1-.5.6-1 .5-1.8 0zm36-6c-.3-.4-.7-.6-1-.6-.1 0 0-.4.3-1 .4-.5.7-.7.8-.4.2.3.4.3.5 0 .4-.5 1.8-.5 2.3 0 .2.3.2.7 0 1.4-.3.8-.6 1-1.4 1-.5 0-1.2-.2-1.5-.5zm-11.9-.4c-.3-.5-.3-.7 0-1 .5-.5 2.3 0 2.3.8 0 .7-1.7.8-2.3.2zm-12-.5c-.4-1-.1-1.1 1.5-1.1.9 0 1.4.1 1.4.4 0 1.3-2.2 1.8-2.8.7zm12.3-1.4h.7c.1.2 0 .3-.5.2-.4 0-.5 0-.2-.2zm21-3.2c-.2-.2-.6-.4-.8-.2-.3.2-.3 0 0-.5.2-.4.3-1 .1-1.2-.1-.2 0-.3.2-.2.5.4 1.5 0 1.3-.5-.1-.1 0-.3.2-.3s.3-.1.1-.3c-.3-.6.3-.4 1 .2.7.4.7.5.2.5-.3 0-.7.1-.8.3 0 .2.5.3 1.4.3 1 0 1.7.2 2.1.5.6.6.5.6-.5.4-1-.2-1.1 0-1.3.5-.2.9-2.4 1.3-3.2.5zm-10.2-.5c-.5-.2-.8-.5-.8-.7 0-.1-.3-.3-.6-.3-.2 0-.5-.1-.5-.3 0-.2.3-.4.5-.4.3 0 .6-.1.6-.3 0-.2.4-.3 1-.2 1 0 1.7 1.2 1.3 2-.2.7-.4.7-1.5.2zm-11.7-.4c-1.3-.4-1.3-1-.1-1.2.4 0 .7-.4.7-.7 0-.5.3-.6 1-.6 1.6.1 1.7.2.9.5-.6.3-.8.6-.7 1.3 0 1.1-.2 1.2-1.8.7zm20.7-3.3h.7c0 .2-.1.2-.5.2s-.5 0-.2-.2zm-1.7-.4c-.3-.2-.3-.4 0-.5.1-.1.5 0 .7.3.5.6.1.7-.7.2zm-3.3-.6c-1-.3-.7-.7.7-1.1 1.5-.5 1.9-.3 1.9.5 0 .5 0 .5-.3.1a.8.8 0 0 0-.8-.2c-.3.2-.3.4 0 .6.4.2.4.3-.2.3l-1.3-.2zm-6.8-1c-.4-.8-.3-1 .2-1.3 1-.5 3.2-.4 3.2.1 0 .8-.9 1.6-2 1.8-.9.2-1 .1-1.4-.6z" style="fill:#5a3821;stroke-width:.352778" transform="translate(-44.5 -173.2)"/>
  <path d="M69.7 236c-1.9-1.2-4.4-3.4-4.4-4 0-.1.3 0 .7.3.3.3.8.6 1 .6.3 0 .5.2.6.5.2.3.5.4.7.3.4-.1.5 0 .5.6 0 .5.2.7.7.6.3 0 .7.3.9.7.4.9 2.3 1.1 2.3.3 0-.3.4-.5 1-.5s1.2-.2 1.4-.5c.3-.3 1-.4 1.5-.4.8 0 1.3-.2 1.7-.8.3-.4.7-.8 1-.8.2 0 .5-.1.5-.3.2-.4 2.4-1.5 2.4-1.2 0 .4-5.3 4.4-6.9 5.2-1.8.9-3.6.7-5.6-.6zm4-2c-.2-.2-1-.3-1.6-.2-.6 0-1.1 0-1.1-.2 0-.1-.5-.4-1.1-.5-.6 0-1-.3-1-.5.2-.2-.5-.8-1.4-1.4-1-.6-1.9-1.4-2-1.7 0-.3.5 0 1.3.7 3.2 2.6 5.7 3.3 8 2.1 1.8-.8 11-7.4 21.4-15.3 1.8-1.4 2.3-1.6 2.3-1.1l-2 1.5c-1 .6-2 1.4-2.3 1.8a1 1 0 0 1-.9.6c-.2 0-.5.2-.5.4s-.5.6-1.1.9c-.6.3-2 1.3-3 2.2-2.9 2.6-4.2 3.6-4.7 3.6-.2 0-1 .6-1.6 1.2-.6.7-1.3 1.3-1.5 1.3-.2 0-.6.4-1 .9-.2.4-.7.8-1 .8-.2 0-.9.4-1.4 1l-1.4.8c-.3 0-.7.3-1 .7-.3.8-.6.9-1.3.4zm9.3-3.1c0-.6 1.7-2.4 2-2.1 0 0-.3.7-1 1.3-.6.7-1 1-1 .8zm4.5-3.8c0-.3.2-.5.3-.5.2 0 .7-.4 1-.8.5-.4.9-.6.8-.4 0 .4-.3.9-1.3 1.6-.7.6-.8.7-.8.1zm-25.9-.7c-.3-.3-.6-.6-.5-.7.1-.1.5.1.9.5.7.8.6.9-.4.2zM59 224l-1.5-1.5L59 224l1.6 1.4c0 .3-.4 0-1.8-1.3zm12 .7c0-.2-.2-.4-.6-.4-.4 0-.8-.3-1-.8-.3-.6-.4-.6-.4-.1 0 .8-.1.8-9.2-6.3-8.5-6.5-10.1-8-10.5-9.7l-.2-1.2.8.7c1.2 1 3 2.3 3.4 2.3a17414.5 17414.5 0 0 1 3.7 3c.6.5 1.4 1.4 1.6 1.9.3.5.4.6.3.3-.3-1 .2-.8 2.5 1.1 1.1 1 2.3 1.8 2.6 1.7 1.2 0 1.6.1 2 .9.1.4.7 1 1.1 1.1.5.2.8.6.7 1-.1.3.3 1 1 1.6.8.8 1.1 1 1 .5 0-.3.2-.6.4-.6l1.2-.6c.7-.5.7-.6.1-1-.5-.2-.5-.4-.2-.7.5-.6 1.2-.2 1.2.7 0 .4.2.7.5.7.8 0 1.6-.4 1.6-.9 0-.2.2-.5.5-.6.3-.1.5-.4.5-.7 0-.2.5-.5 1.2-.7a11 11 0 0 0 3.2-1.6 61.8 61.8 0 0 1 8.2-5.2c.9-.4 1.5-.9 1.5-1.1 0-.3.3-.5.6-.5.2 0 .6-.3.7-.7.1-.4.5-.7.8-.7a17 17 0 0 0 4.7-2.8c0-.1.6-.4 1.1-.5.5-.1 1-.5 1-.8 0-.3.1-.4.3-.3.2.1.4 0 .4-.4 0-.5 0-.5.4-.2.3.3.6.1 1.4-.6a4 4 0 0 1 1.8-1c.3 0 1-.3 1.4-.8.3-.4.9-.7 1.2-.7.3 0 .5-.2.5-.5s.1-.6.3-.6c.2 0 .4-.4.4-1 0-.7 0-.8.4-.4.6.5 1 .5.8-.2-.2-.3 0-.5.5-.5.4 0 .8-.3.9-.7.2-.8 1-1 1-.2l.1.6c.5 0 2.2-1.7 2-2-.1-.1 0-.2.3 0 .3 0 .6.5.6 1 .1.7 0 1-.7 1.2-.6 0-1 .6-1.3 1.4-.3.9-.5 1.1-.7.8-.4-.5-3.6 1.3-3.8 2.2-.1.4-.4.5-.8.4-.6-.1-.7 0-.7.7 0 .6-.1.7-.4.3-.2-.4-.3-.3-.5.4s-.4 1-.8.8c-.3 0-.4 0-.4.5 0 .8-.6 1.3-.8.6-.1-.3-.3-.2-.8.2l-.4.6c.2 0 0 .3-.2.6s-.6.4-1 .3c-.2 0-.5.2-.7.7-.3.7-2.7 2.7-3.4 2.7-.1 0 0-.3.4-.7.3-.4.5-.9.3-1-.2-.5-1.1.5-2 2.1-.5 1.3-2.4 2.5-2.6 1.8-.3-.7-.8-.6-1 .3-.2.4-.4.6-.7.5-.4-.1-.5 0-.5.6 0 .5-.3 1-.6 1.3-.5.4-.6.4-1 0l-.7-.7c-.2 0 0 .3.3.7.3.3.4.7.3.8-.4.4-.8.3-.8-.3 0-1-.7-.5-.8.5 0 .6 0 .7-.2.3 0-.3-.3-.6-.5-.6s-.3.3-.1.6c.2.6-.7 1.6-3.2 3.4-1.8 1.3-1.9 1.3-2 .5-.1-.7-.2-.6-.2.2 0 1-.2 1-1.1.9h-1c.4.3-.5 1.4-1 1.3-.2-.1-.5 0-.6.5-.1.5-.4.7-.6.6-.2-.2-.5 0-.6.3-.1.3-.4.5-.7.4-.2-.1-.6 0-.9.2-.6.6-2.7.8-2.7.3zm22-13.3c0-.3-.2-.4-.4-.3-.2.1-.3.4-.2.6.3.4.5.4.5-.3zm-2 12.9c.2-.3.6-.6.8-.6.2 0 .1.3-.1.6-.3.2-.6.5-.8.5-.2 0-.2-.2 0-.5zm8-9.3 1.9-1.5c1-.8 1.4-1 1.1-.5-.2.4-1 1-1.5 1.4-1.4.8-2 1-1.5.6zm-29.3-1.5c-.3-.6.2-1.7 1-2.1.9-.5 2.1.5 2 1.6-.1.5-.5.7-1.4.8-.8 0-1.4 0-1.6-.3zm34.8-2.6 1-.8 1-.7-.8.8c-.3.5-.8.8-1 .8h-.2zm-21.7-5.5c-.5-.6-.6-.8-.2-1.2.7-1 2-.7 2.3.3.4 1.6-1 2.2-2.1.9zm-13.1-.5c-.3-.8.3-1.4 1.6-1.5 1 0 1.1 0 1 .9 0 .7-.3 1-1.3 1-.8.1-1.2 0-1.3-.4zm-12.3-.3c-.6-.5-.6-.5 0-1 1.2-1.1 3-.1 1.8 1-.5.6-1 .5-1.8 0zm36.1-6.2-1-.6.3-.9c.3-.6.5-.7.7-.3.2.3.4.3.5 0 .4-.5 1.8-.5 2.3 0 .2.3.2.7 0 1.4-.4 1.2-1.4 1.4-2.8.4zm-11.9-.2a.8.8 0 0 1 0-1c.3-.6 2.2 0 2.2.8 0 .7-1.7.9-2.2.2zm-12-.5c-.5-1-.2-1.1 1.4-1.1.9 0 1.4.1 1.4.4 0 1.3-2.2 1.8-2.8.7zm40.2-3.2-1-.8c-.8 0-.4-.6.4-.7 1-.2 2.1.3 1.3.6-.3.2-.3.3 0 .7.7.8 0 1-.7.2zm-7.3-1.6c-.4-.4-.5-2-.1-1.8.4.3 1.4-.2 1.2-.6-.1-.1 0-.3.2-.3s.3-.1.1-.3c-.3-.6.3-.4 1 .2.7.4.7.5.2.5-.3 0-.7.1-.8.3-.1.2.4.3 1.1.3a4 4 0 0 1 2.3.5l.8.6-1-.2c-1-.2-1.3 0-1.6.5-.3.6-.7.8-1.7.8-.7 0-1.5-.2-1.7-.5zm-10.2-.6-1.2-.9.4-.6c1.1-1.1 3.2.2 2.6 1.7-.3.7-.6.7-1.8-.2zm-11.4 0c-1.3-.5-1.3-1.1-.1-1.3.4 0 .7-.4.7-.7 0-.5.3-.6 1-.6 1.6.1 1.7.2.9.5-.6.3-.8.6-.7 1.3 0 1.1-.2 1.2-1.8.7zm20.7-3.4h.7c0 .2-.1.2-.5.2s-.5 0-.2-.2zm-1.7-.4c-.3-.2-.3-.4 0-.5.1-.1.5 0 .7.3.5.6.1.7-.7.2zm-3.1-.6c-1.2-.3-1-.6.5-1.1 1.5-.5 1.9-.3 1.9.5 0 .5 0 .5-.3.1a.8.8 0 0 0-.8-.2c-.3.2-.3.4 0 .6.6.3.2.3-1.3 0zm-7-1c-.4-.8-.3-1 .2-1.3 1-.5 3.2-.4 3.2.1 0 .8-.9 1.6-2 1.8-.9.2-1 .1-1.4-.6z" style="fill:#58331b;stroke-width:.352778" transform="translate(-44.5 -173.2)"/>
  <path d="M72.7 236.6c0-.6.6-1 1-.5 0 .2.3.2.7 0 .4-.5.5-.4.4.2-.2.7-2 1-2 .3zM70 236c-.3-.2-.4-.5-.2-.6 0-.1.4 0 .6.2.2.2.4.4.3.5-.1.1-.4 0-.7-.1zm-2.6-2c-1-.9-1.5-1.4-1.1-1.3.7.4 3.3 3 3 3l-2-1.7zm9 1.3c0-.2.1-.4.3-.4.2 0 .4.2.4.4s-.2.3-.4.3a.4.4 0 0 1-.4-.3zm-6-2.2c-.3-.1-.8-.5-.9-.8-.2-.5 0-.5.8 0 2.5 1.2 4.5.5 10.1-3.6 1.4-1 2.5-1.8 2.6-1.7.2.2-1.7 2-2.2 2.1l-.5.1c-.2 0-.5.4-.6.8-.1.4-.6.8-1 .9-.6.1-1 .3-1 .5 0 .1-.5.5-1 .7l-1.7.8c-.6.5-3.5.6-4.6.2zm-3.4-2.6-1-1 1 .8c.7.4 1.2.9 1.2 1 0 .2-.1.1-1.2-.8zm-5.2-4.3c-.4-.6-.4-.6.2-.1l.6.6c0 .3-.3 0-.8-.5zm22.6-.5c.7-.5 1.3-1 1.4-.8.3.3-1 1.5-1.8 1.7-.6.1-.5 0 .4-.9zm-13-1.2c0-.3-.5-.6-.8-.6-.3 0-.7-.3-.9-.4-.1-.2 0-.2.3-.2.2.1.6-.2.9-.6.7-1.3 1.2-1.8 1.9-1.7.3.1 1-.1 1.5-.5 2.2-2 3-2.5 3.3-2.5.2 0 5-3.1 5.5-3.6a24.7 24.7 0 0 1 6-3.5l1.1-.6c.6-.3 1-.7 1-1.1 0-.4.2-.7.4-.7.3 0 1-.4 1.8-.8s1.6-.6 1.8-.5c.3 0 .4 0 .4-.4 0-.3.5-.8 1.2-1.2l1.5-1c.3-.2.7-.4 1-.4.4 0 1-.4 1.2-.8.3-.5 1-1 1.7-1.3 1.5-.6 3.8-2 4.7-3 .4-.5 1-.9 1.3-.9.3 0 .6-.1.6-.3 0-.2.2-.4.4-.4.4 0 .2 1.3-.3 1.8-.2.2-.7.4-1.1.4-.5 0-.9.4-1 .9-.2.7-.9 1-2 .8-.1 0-.2.1 0 .3 0 .2-.4 1-1.1 1.6-.7.7-1.2 1.1-1.2.9 0-.3-.3-.1-.8.3l-.7 1.1c0 .6-.7.8-1.3.3-.3-.2-.4-.3-.3 0 .1.2 0 .5-.3.6-.3.1-.5.3-.4.5.2.2.1.7-.1 1-.2.4-.4.5-.4.3s-.3 0-.7.5c-.6.7-.6.7-.4.2.2-.4.3-1 .1-1.2-.5-.7-2 .4-2.5 2-.6 1.5-1.3 1.6-.9.2.2-.6.2-.6-.3 0-.2.3-.7.6-.9.6-.2 0-.4.4-.4 1 0 .8 0 .8-.5.2-.5-.7-.5-.7-.7 0-.2.5-.6 1-1 1-.5.1-.6.4-.5.9.1.6-.1 1-1 1.6-.3.2-.4 0-.3-.2.2-.6-.5-1.7-.8-1 0 .2-.3.3-.5.2-.2-.1-.3 0-.3.5 0 .4-.2.7-.5.7s-.6.5-.7 1c-.1.7-.6 1.4-1.2 1.7l-2 1.4c-1.1 1-1.7 1-1.4.3.2-.5-.1-.6-1-.3-.4.1-.6.5-.6.7 0 .3-.2.5-.5.4-.2 0-.6.3-.9.8-.2.5-.3.6-.2.2.1-.5 0-.6-.3-.2-.3.2-.6.3-.7.1-.1-.1-.3.3-.3.8 0 .8 0 1-.3.5-.3-.4-.3-.4-.4 0 0 .4-.2.9-.6 1.1-.3.3-.4.3-.3.1.1-.2 0-.5-.5-.6-.4 0-.7 0-.7.3s-.3.7-.7.9c-.8.5-1 .4-1.3-.2zm12.7-6.8c0-.2-.1-.5-.3-.6-.2-.1-.4 0-.4.3s.2.6.4.6.3-.2.3-.3zm14.1-10.5c0-.3-.1-.4-.3-.3-.2 0-.4.3-.4.5s.2.4.4.4.3-.3.3-.6zm-12 17.4.6-.6c.4-.4.5-.4.3.1s-.9.8-.9.5zm-18.5-1.4c-3.6-2.6-15-11.6-16.4-13-1-.9-1.8-2-2-2.6l-.1-1 .6.7c.3.4 1 1 1.5 1.1l1.8 1c3.4 2.3 4.5 3.3 5.3 4.8.3.8.5 1 .6.5.1-.6.8-.8.8-.2 0 .2.2.3.5.3s.5.2.5.3c0 .6 2.4 2.3 3.3 2.4.8 0 3.4 2.2 3.4 2.8 0 .2.4.8 1 1.4.6.7.7 1 .4 1.2-.2.2-.3.5-.2.7.4.5.2.5-1-.4zm20.3 0c0-.2.3-.4.7-.6l.7-.2-.7.5-.7.2zm3-2.4c.1-.2.3-.3.4-.3l.1.3c0 .2-.1.4-.4.4-.2 0-.2-.2-.1-.4zm1.7-1.2c.6-.5 1.2-.8 1.2-.7.2.2-1.4 1.5-1.9 1.5-.1 0 .2-.4.7-.8zm3.8-2.9c.4-.3.7-.5.8-.4l-.6.6c-.7.4-.7.4-.2-.2zm-26.3-3.3c-.3-.4.1-2 .4-1.6.1 0 .4 0 .6-.2.6-.4 1.4.5 1.2 1.3-.1.8-1.8 1.1-2.2.5zm13-8c-.7-.7-.4-1.4.6-1.3 1 .2 1.4.6 1.2 1.3-.3.7-1 .8-1.8 0zM70 205c-.3-.3-.3-.6 0-1 .5-.5 1.9-.5 2.1.1.4 1-1.3 1.7-2.1.9zm-12.4-.4c-.3-.4-.3-.6 0-1 .7-.5 1.8 0 1.6.7-.1.7-1 .9-1.6.3zm36.4-6c-.6-.5-.6-1.7 0-1.7 1.3 0 2 .5 2 1.2-.2.9-1.4 1.2-2 .5zm-12.1-.3c-.4-.2-.4-.4-.1-.7.5-.5 1.7-.3 1.7.4 0 .6-.9.8-1.6.3zm27.7-.5c-.3-1.3-.2-1.3.9-.5.7.6.7.8.3 1-.8.5-1 .5-1.2-.5zm-39.6 0c-.3-.7.2-1.2 1-1 1 .1 1.1.3.9 1-.3.7-1.6.7-1.9 0zm41.2-1.2.3-.6c.2 0 .4 0 .4.2s-.2.4-.4.5c-.2.2-.3.1-.3 0zm-8-3.7c-.7-.6-.7-.6 0-1 .8-.4 2.6-.7 2.8-.3l-.1 1c-.4 1-1.7 1-2.7.3zm-11-.9c-.5-.7 0-1.3.6-.9.2.1.4 0 .4-.2 0-.8.7.4.7 1.2 0 .8-1.3.8-1.8-.1zM81 192c-.4-.7.4-1.3 1-.7.4.2.6.6.6.7 0 .5-1.3.4-1.6 0zm9.8-5c-1-.6-1-1.2.2-1.5 1.1-.2 2 .4 1.6 1.3-.2.7-.7.7-1.8.2z" style="fill:#512e17;stroke-width:.352778" transform="translate(-44.5 -173.2)"/>
  <path d="M70.3 233c-.2-.2.4-.3 1.5-.2 1.3.1 2.2 0 3-.4l1.3-.6-1 .7c-.8.8-3.8 1-4.8.5zm6.5-1.7c1.2-1 2-1.3 2-.9 0 .2-.3.4-.6.4-.2 0-.7.2-.9.5-.2.3-.6.5-.8.5-.2 0-.1-.2.3-.5zm3-2c0-.1.4-.5.9-.8.5-.3.8-.4.7-.2-.3.4-1.6 1.2-1.6 1zm-8.5-5.2c-.3-.6-.3-.7.2-.7s.5-.1.2-.6c-.3-.3-.4-.6-.3-.7.2-.1.3 0 .3.2s.1.3.3.2c.2-.1.3-.4.1-.6-.1-.3.1-.3.7-.2.6.2 1 .1 1 0 0-.5 1.2-1.9 1.6-1.9l1-.6c.8-.6 1-.6 1.4-.3.3.2.4.5.3.7 0 .1 0 .2.3.2.2 0 .2-.3.1-.8-.1-.6 0-1 .5-1.3l.8-.2c.4 1.4.3 1.7-1 2.5l-2 1c-.4 0-.8.4-.8.9-.1.4-.3.8-.5.8s-.3.2-.3.5c0 .2-.3.4-.6.4-.4 0-.6-.3-.5-.6 0-.4 0-.4-.5 0-.3.3-.5.7-.4 1 .2.3-.5.8-1.2.8-.2 0-.5-.3-.7-.7zm-11.2-6.5c-6.2-4.9-8-6.6-7.3-7.2.3-.3 1.6.4 1.8 1 0 .4.3.6.5.5.3-.2 1.3.7 2.3 1.8 1 1.1 2 1.8 2 1.5 0-.2.1 0 .3.5.3.7.5.8 1.2.7.7-.1 1 0 1.2.7.2.4.4.6.4.3 0-.4 0-.4.4 0l1 .3c.2 0 1 .5 1.8 1.1 1.1 1 1.4 1.3 1.2 2-.1.5 0 .7.4.7.3 0 .7.2.7.5.2.4.1.4-.2 0-.2-.4-.3-.3-.4.3-.1.7-.9.3-7.3-4.7zm20.7 1.4c-.3-2.2 0-2.6 1.8-3.6 1-.5 1.8-1.2 2-1.4 0-.3.3-.5.6-.5s.7-.3 1-.6c.4-.5 2.2-1.4 2.3-1.1l.6-.4c.4-.3.6-.3.6 0 0 .2.1.3.3.3.2 0 .4-.2.4-.5s.1-.5.3-.5l.9-.2c.3-.2.5 0 .5.4s-.2.5-.5.3c-.4-.1-.7 0-.8.5 0 .4-.5.8-.8.9-.5 0-.7.4-.7 1 0 .5-.2 1-.4 1.2-.3.1-.3 0-.2-.2.2-.2.1-.7-.1-1-.4-.4-.5-.4-1 0-.2.3-.8.5-1.2.4-.4 0-.6 0-.5.1.1.1 0 .6-.3 1-.3.5-.4 1-.3 1.3.1.2 0 .3-.1.1-.3 0-.5 0-.6.3-.1.3-.3.3-.5 0-.3-.5-.5-.4-1 .3-.2.4-.5 1.1-.5 1.6 0 .4-.4 1-.8 1.3-.9.5-.9.5-1-1zm-10.4-5.5c-.3-.5.1-1 1-1 .4 0 .6.1.6.6-.2.7-1.2 1-1.6.4zm-19.1-3c-.5-.4-.7-.9-.6-1 0-.1 0-.2 0 0-.5.2-1.3-.7-1.2-1.4 0-.5 0-.6.2-.3 0 .3.7.8 1.2 1.1.7.4 1.2 1 1.2 1.6.1 1 .1 1-.8 0zm41.4-.9c0-.2 0-.3-.2-.3s-.4-.2-.4-.4.3-.3.6-.3.9-.3 1.3-.6c.8-.8 1.1-.5.8.8-.2.6-.4.8-.7.7a1 1 0 0 0-.8.1c0 .2-.3.4-.5.4s-.3-.2-.1-.4zm4.2-2.2c-.2-.5 0-1 .8-1.7.7-.5 1.4-.9 1.7-.8.5.2.7.9.2.8-.7-.1-1.1.1-1.1.7 0 .5 0 .5-.4 0-.3-.5-.3-.5-.8 1.1-.1.4-.2.4-.4-.1zM83 205.2v-.7c.3-.4 1.6.2 1.6.7 0 .7-1.4.7-1.6 0zm-12.8-.3c-.4-.4-.3-.6.3-.7 1-.4 1.6 0 1 .7-.5.6-.8.6-1.3 0zm30.2-.4c.2-1 1-1.8 2.3-2.1.8-.2 1-.1 1 .3 0 .3-.2.5-.4.4-.1-.1-.4 0-.5.2-.1.2-.4.2-.5.1-.2 0-.4.1-.5.5-.2.3-.5.8-.9 1-.6.4-.6.3-.5-.4zm-42.8-.1c0-.2 0-.5.2-.6.4-.3 1 0 1 .5s-.9.5-1.2 0zm47.5-3.6c0-.2.1-.4.3-.4.2 0 .4.2.4.4s-.2.4-.4.4a.4.4 0 0 1-.3-.4zm2.8-1.8c0-.2.2-.3.4-.3.1 0 .3.1.3.3 0 .2-.2.4-.3.4a.4.4 0 0 1-.4-.4zm-13.7-.3c-.5-.3-.5-.4 0-.9.6-.8 1.4-.7 1.4.4 0 .9-.6 1-1.4.5zm-12.2-.2c-.4-.5-.2-.9.5-.9.4 0 .7.2.6.4-.1.6-.7.8-1 .5zm-11.5-.5c-.4-.3-.4-.4 0-.8.3-.3.5-.3.8 0 .6.6 0 1.2-.8.8zm33-5c-.8-.5 0-1.4 1.3-1.4 1 0 1.1.1.6 1.1-.4.8-.9.8-1.8.3zm-11-.6c0-.2 0-.5.2-.6.4-.3 1 0 1 .6 0 .4-.9.4-1.1 0zm-11.2-.4c-.5-.7.1-.9.8-.3.5.6.5.6 0 .6-.4 0-.7-.1-.8-.3zm9.5-5c-.6-.5-.6-.6 0-1 .5-.4.6-.4 1.1 0 .3.4.5.8.3 1-.3.5-.6.5-1.4 0z" style="fill:#492915;stroke-width:.352778" transform="translate(-44.5 -173.2)"/>
  <path d="M66 221.6c0-.2.2-.3.4-.2l.3.4c0 .1-.1.2-.3.2a.4.4 0 0 1-.4-.4zm8.8 0c-.4-.3-.4-.3.1-.3.4 0 .6.1.6.3 0 .4 0 .4-.7 0zm-11.9-2c-1.5-1-3.3-2.7-2.3-2 .1 0 .4 0 .7-.2.3-.3.5 0 .8.6.3.7.5.8.7.5.5-.7 1.5-.4 2.4.9.8 1 .8 1.1.2 1.4-.5.3-1 0-2.5-1.1zm1.4.2c-.2-.3-.4-.3-.4 0 0 .4.4.8.7.6 0-.1 0-.4-.3-.6zm10.5 1c0-.4 2.3-1.3 2.6-1.1.4.3 0 1-.6.7-.3 0-.6 0-.7.2-.2.3-1.3.5-1.3.2zm4.3-1.8c0-.3.1-.6.3-.6.2 0 .4.2.4.4s-.2.4-.4.5c-.2.1-.3 0-.3-.3zm-19.7-2.2v-.7c.1 0 .3.2.4.6.2.8 0 1-.4.1zm23-.1c.1-.2.4-.4.6-.4.2 0 .2.2.1.4 0 .2-.3.3-.5.3s-.3-.1-.2-.3zm-25.8-2c-1.8-1.4-3.5-3-2.2-2 .3.2.9.5 1.2.5 1 .2 1.6.6 2 1.6.1.4.5.8.7.7.2 0 .5.1.6.4.2.7-.4.4-2.3-1.1zm14-1.6c0-.1.3-.3.6-.3s.4.2.3.3c-.1.2-.4.4-.6.4-.1 0-.3-.2-.3-.4zm17-.3c.2-.2.6-.3.8-.3.2 0 .1.1-.2.3-.2.2-.6.3-.8.3-.2 0-.2-.1.1-.3zm-4.3-7.6c0-.3.3-.5.6-.5.6 0 .5.7-.2 1-.2 0-.4-.2-.4-.5zm-12.5-.5c.1-.2.4-.4.6-.4.1 0 .2.2 0 .4 0 .2-.3.3-.5.3s-.2-.1-.1-.3zm23.8-6.5c0-.3.1-.6.3-.6.2 0 .4.3.5.6.2.3 0 .5-.3.5a.5.5 0 0 1-.5-.5zm9.4-5.2c-.8-.5-.4-1 .7-1 .6 0 .9.1.8.6-.2.7-.7.9-1.5.4zm-13-6.3c0-.2.2-.4.4-.4s.4.2.5.4c.2.2 0 .3-.3.3s-.5-.1-.5-.3z" style="fill:#3d2110;stroke-width:.352778" transform="translate(-44.5 -173.2)"/>
</svg>