<svg xmlns="http://www.w3.org/2000/svg" width="277.3" height="277.3" viewBox="0 0 73.4 73.4">
  <path d="M16.8 156v-36.7H90v73.4H16.8Z" style="fill:#fefefe;stroke-width:.352778" transform="translate(-16.8 -119.2)"/>
  <path d="M39 181a577.7 577.7 0 0 1-18.6-31.9c-1-3.2-.8-3.4 3-4.6 3.1-1 3-.9 2.7-1.2-.6-.3-1.1-1.4-1.4-3-.2-1 0-1.4.6-2a106 106 0 0 1 14.5-6.7 46 46 0 0 1 5.6 2.6l5 2.7 4-1.1c3-.9 4.2-1 4.9-.8 1 .4 25.5 21.1 26.7 22.7.9 1.1 1 1.5.8 2.9-.2.9-.6 1.9-1 2.4-1 .9-16.2 7.4-17.5 7.4-.7 0-1.6-.7-3.8-3-2.7-2.9-2.9-3-3.7-2.6l-1 .4 1.3 1.8c1 1.5 1.2 2.2 1.2 3.6 0 1.5-.2 2-1 2.7-1 1-18.4 8.5-20.2 8.7-1.2.1-1.4 0-2.2-1z" style="fill:#f9d08b;stroke-width:.352778" transform="translate(-16.8 -119.2)"/>
  <path d="M38.9 180.8c-1.7-2.5-17.4-29.2-18-30.6-.3-.8-.7-2-.8-2.8-.2-1.6.3-2 3.8-2.9 1.3-.3 2.4-.7 2.4-.8l-.7-1c-.8-1-1-4-.3-4.6 1-.9 13.5-6.1 14.5-6.1.6 0 3 1 5.8 2.5l4.8 2.5 4-1.1c3.3-1 4.2-1 5-.8l10.2 8.4c18.8 16 17.5 14.7 17.2 17-.4 2.4-1.2 3-9.8 6.6a92.2 92.2 0 0 1-8.8 3.3c-.6 0-4.6-3.7-5.8-5.5-.5-.7-.6-.8-1.6-.3l-1 .7 1.2 2c1.6 2.2 1.7 4.4.5 5.8-.9 1-19.5 9-21 9-.4 0-1-.5-1.6-1.3zm5.1-5c1-.5 1.6-1 1.5-1.2-.2-.6-1.9-.7-2.7-.2-.5.2-1 0-2-1.1-.7-.8-1.4-1.4-1.6-1.4-.3 0-.3 0 0 .2.5.4 1.5 2 1.5 2.4 0 .2-.2 0-.5-.3l-1.6-2a6.4 6.4 0 0 1-1.2-1.5c0-.5-2-2.4-2.3-2.2 0 .1.1.5.5.8.4.2.7.8.6 1.2 0 .3 0 .6.2.6s.6.5.9 1L39 175c1 1.7 1.2 1.8 2.2 1.7.6-.1 1.9-.5 2.8-1zm11.6-4.8 4.7-2 1-.6-1-1c-1.1-1.4-1.3-1.4-2.5-.4-.6.6-.8 1-.7 1.7.2.7.1.9-.6.9a7 7 0 0 0-2 .6c-2.3 1-4.2 1.6-5 1.4-.8-.1-.8-.1-.1.4 1 .9 2.1.7 6.2-1zm-21-4.2c0-.2-.2 0-.2.5 0 .4.1.6.2.4v-.9zm37-2.2c1.7-.7 2-.8 1-.8-.5 0-1.2 0-1.4-.2-.3-.1-.5 0-.5.1 0 .3-.1.3-.3.2-.2-.1-.4 0-.4.2s-.1.3-.3.2c-.1 0-.3.1-.3.5v.7l2.2-.9zm-38.5-.7c-.1-.3-.3-.5-.4-.4v.6c.4.5.6.4.4-.2zm43.1-1.2c.1-.2 0-.4-.1-.4-.2 0-.5.2-.6.4-.1.2 0 .3.1.3.2 0 .5-.1.6-.3zm3.8-1.5c.5-.4.3-.5-1.4-.5-1.9 0-2 0-1.4.4.9.6 2 .7 2.8 0zm-16.4-3.3c1.9-1.3 2.9-2.3 2.9-2.7 0-.5.3-.6 1-.6.6 0 1.4-.3 1.9-.7l.8-.7h-1.4c-.8.1-2.1 0-3-.3-1.6-.5-2.5-.4-2.5.2 0 .1.5.4 1.2.6 1.7.5 1.6 1.9-.2 2.8-1.3.7-1.3.7-2.6 0a14 14 0 0 1-2-1.3c-.7-.7-2.2-1.3-1.9-.7.2.3 0 .3-.3.2-.4-.2-.5-.3-.2-.5.6-.4-1.2-1.8-2.5-2a8 8 0 0 1-2-.6 18.7 18.7 0 0 0-5.2-2.3c-.3-.3-.6-.4-.8-.3 0 .2 0 .3.3.3s.4 0 .3.2c-.3.2-4.6-1.8-5.2-2.5-.3-.3-.7-.5-1-.5a7 7 0 0 1-1.9-.7c-2.6-1.3-1.4 0 2.4 2.3l6.2 4.2a56 56 0 0 0 4.9 3.1 89.5 89.5 0 0 1 7.5 4.5c.2 0 1.7-1 3.3-2zm-10.2-4.7c-.4-.3-.4-.4.1-.4.3 0 .7.2.8.4.3.4-.2.4-.9 0zm-2.2-1c-.8-.6-.9-.8-.4-1 .3 0 .5 0 .4.2-.2.2.2.5.7.8.6.3.9.6.7.6a4 4 0 0 1-1.4-.7zm-2.2-1.9c0-.2 0-.2.4-.1.6.2.7.5.2.5-.2 0-.4-.2-.6-.4zm35.5 8.8c0-.1.3-.2.7 0 .4 0 .7 0 .7-.2 0-.4-3.2-3.4-5.1-4.9l-1.9-1.5c-.8-.8-.8-.4 0 .7l2.2 2.5c1 1 1.4 1.8 1.3 2.3 0 .5.2 1 .5 1.3.7.5 1.6.4 1.6-.2zm-11.4-8c0-.2.3-.3.5-.2.1 0 .4 0 .5-.2.1-.2 0-.5-.4-.6a92.3 92.3 0 0 0-10.4-5.4c-.8 0-.2.8.9 1.2.7.3 1.2.7 1.2.9 0 .1.8.6 1.7 1 1.7.9 3.6 2.6 3.6 3.4 0 .6 2.1.6 2.4 0zm-12.6-7.8c0-.3-1.5-1-2-1-.4 0 1.4 1.3 1.7 1.3.2 0 .3-.1.3-.3z" style="fill:#f6c478;stroke-width:.352778" transform="translate(-16.8 -119.2)"/>
  <path d="M38.9 180.8c-1.7-2.5-17.4-29.2-18-30.6-.3-.8-.7-2-.8-2.8-.2-1.6.3-2 3.8-2.9 1.3-.3 2.4-.7 2.4-.8l-.7-1c-.8-1-1-4-.3-4.6 1-.9 13.5-6.1 14.5-6.1.6 0 3 1 5.8 2.5l4.8 2.5 4-1.1c3.3-1 4.2-1 5-.8l10.2 8.4a188.7 188.7 0 0 1 16.9 14.8c.7 1.1.3 3.5-1 4.6-1 1-16 7.5-17.3 7.5-.6 0-4.6-3.7-5.8-5.5-.5-.7-.6-.8-1.6-.3-1 .6-1.3 1-.7 1.4l.8 1c.3.7.2.6-.7-.2-.8-.8-1.3-1-2.4-.9l-1.4.1.1 1.6c.1 1.4 0 1.5-.5 1-.3-.2-.5-.3-.3 0 .3.5-4.2 2.7-5.4 2.6-.5 0-1.1-.4-1.4-.8-.3-.4-.7-.7-1-.7-.3 0-.3.3.2 1.3.4.9 1 1.3 1.9 1.6 1.1.3 1.7.1 6-1.6a26 26 0 0 0 5-2.5c.5-.5.5-.5.9.1.6 1.3.4 3.5-.4 4.5-.9 1-19.5 9-21 9-.4 0-1-.5-1.6-1.3zm5.3-5.1c2.1-1 2.3-1 1.6-1.5-.9-.6-2.9-1-3-.4-.1.2-.4 0-.6-.5l-.9-1.2c-.2-.1-.1-.2.3-.2.7 0 .7 0 0-.6-.4-.3-.5-.5-.2-.3.8.4.4-.5-.9-1.7-.7-.7-1.4-1.2-1.6-1.1-.1 0-.2 0 0-.4l-.1-.5c-.8.1-1.3 0-1-.4 0-.2-.2-.5-.6-.8-.4-.2-.7-.6-.7-.8 0-.2-.7-.8-1.6-1.4-.8-.5-1.5-1.1-1.4-1.3.1-.1-.1-.3-.5-.3s-.7-.1-.7-.3c0-.2-.4-.7-1-1.2-.4-.5-.8-1.2-.8-1.5 0-.3-.2-.6-.5-.7a1 1 0 0 1-.6-.8c0-.5 0-.5-.3 0-.2.4-.2.9.1 1.5.4.6.6.8.7.5.1-.3.2 0 .2.7 0 .6.3 1.4.7 1.8l1.6 2.4a71.8 71.8 0 0 0 4.3 7l2.2 3.6c1.4 2.2 1.4 2.2 5.3.4zm-7.7-6.6c-1.7-2.3-1.8-2.7 0-.6 1.2 1.5 1.7 2.3 1.3 2.3l-1.3-1.7zm0-1.8c0-.2.2-.4.4-.6.2 0 .2 0 .1.4-.2.6-.5.7-.5.2zm-1.8-1.8c-.1-.6 0-1 .1-1 .2 0 .3.2.3.4 0 .3.2.6.4.7.2 0 .2.3-.1.5-.5.4-.6.3-.7-.6zM50 170c0-.3-.2-.5-.3-.4v.6c.4.5.6.4.3-.2zm-.8-1.7a57.9 57.9 0 0 1-1-.5c.2.3.6.6.8.6h.2zm1-.2c0-.2-.1-.4-.3-.4-.2 0-.3.2-.2.4l.4.3c.1 0 .2-.1.2-.3zm22.6-3.7c1.8-.8 3.3-1.7 3.8-2.2.6-.8.9-1 1.1-.5.3.4.6.4 1.6 0 .7-.2 1.4-.6 1.6-.8.3-.4 0-.5-1.4-.4-1 0-2.2-.1-2.7-.3-.7-.3-.8-.2-.8.8 0 .8-.2 1.2-1.1 1.8-1.4.8-4.1.8-4.8 0-.4-.5-.4-.5-.4 0 0 .4-.2.6-.4.5-.2-.1-.3 0-.4 0l-.1 1c-.3 1.6 0 1.6 4 0zm-9.3-6.3c1.5-1 2.9-2.2 3-2.7.3-.5.5-.7 1-.6.5.2 2.9-1 2.9-1.6 0-.5-.7-.6-1.5-.3-.6.2-1.2 0-2.5-.6-1-.5-2-.8-2.5-.7-.7.2-2.2-.5-1.8-.9.3-.3-1-1.2-3.4-2.2a60.1 60.1 0 0 1-6.2-2.9c-.1.1-.5 0-1-.2-.4-.2-.6-.2-.5.1.1.3 1 .9 2 1.4 1 .5 2 1 2 1.2.4.3-2-.7-3-1.2-.5-.2-.7-.2-.7 0s.9.8 1.9 1.3l3.1 1.8c.8.5 1.6.8 2 .7.2-.2.4-.1.3 0-.2.3.2.5.8.7.6 0 1 .3 1 .4-.4.3 2 2.1 3.2 2.5l1.6.7c.5.4-.6 1.5-1.7 1.6-.8 0-1.3-.2-2-1.1a4.4 4.4 0 0 0-2.3-1.4c-.6-.1-1.2-.3-1.2-.5l-.8-.7c-.5-.2-.9-.6-.8-.8 0-.2-1.4-1-2.8-1.3l-3-1.3-3.4-1.3c-.5 0-1-.2-1-.5-.2-.2-.4-.4-.5-.3-.2.1-.7 0-1.3-.3-.5-.3-1.1-.4-1.3-.3-.2.1-.2 0 0-.3.1-.3 0-.4-.3-.2-.4.1-.7 0-.9-.2-.1-.2 0-.3.2-.1.2.1.4.2.4 0l-.7-.5c-.5-.3-.7-.3-.6-.1.1.2-.1.3-.5.3-.3 0-.6 0-.6-.2 0-.7-.1-1-.4-1-.2.2-.4 0-.5-.2 0-.2-.8-.8-1.6-1.2-.9-.5-1.4-.7-1.3-.5.3.6-.8.5-1.3 0l-.6-.8-.3-.8c0-.2-1-1-2.2-1.7-1.3-.8-2-1.6-2-1.8.2-.3 0-.5-.2-.5-.4 0-2.7 1.5-2.7 1.8 0 .1.7.6 1.7 1.1l2.3 1.5a92.3 92.3 0 0 0 7.8 5.3L55.2 157a32 32 0 0 0 5 2.8c.4 0 1.9-.8 3.3-1.8zm-25.8-14-1-1.2 1 .6c.7.4 1.2.9 1.2 1.2v.4l-1.2-1zM85 159.2a4 4 0 0 0 1.3-.7 89 89 0 0 0-7.5-6.3L75 149c-2.7-2.4-3.2-2.7-2.1-1.2.5.6 1.3 1.4 1.7 1.6a6 6 0 0 1 1.6 1.5c.4.6 1.7 2 2.8 3 1 1 2 2.2 2 2.5 0 .3.2.6.5.8.6.2.7 2 0 2.3-.2 0 .2.2 1 .2.7 0 1.8-.2 2.5-.5zm-56.3-2c0-.2-.1-.3-.3-.4a.2.2 0 0 0-.4.1c0 .2.2.4.4.4s.3 0 .3-.2zm43.7-5.6c2-1 2-1.2.5-2.1a172.6 172.6 0 0 0-16.8-8.3c.5.1 1.2.5 1.5 1a17 17 0 0 0 4.4 2.6c.3.1.7.5.8.9.1.3.4.7.7.7.3 0 .6.1.7.4.2.2.1.3-.3.1-1.6-.6-1.8-.6-1.1 0 .4.3 1 .5 1.4.4.5-.2 1.6.3 3.2 1.3 2.6 1.8 3 2.2 2.8 3.1-.3.9.5.8 2.2 0zM49.9 146l-.8-.6c-.7-.3-.7-.3-.3.2.5.6 1.1.8 1.1.4zm5.2-5.8-1.2-.5a7 7 0 0 1-1.9-1c-.6-.4-1.1-.7-1.2-.5-.2.2 2.5 1.8 3.5 2.1l.8.2v-.3zm-23.5-3.7-.6-.2c-.2 0-.5.2-.5.4 0 .1.3.2.5.1l.6-.3z" style="fill:#e9b66c;stroke-width:.352778" transform="translate(-16.8 -119.2)"/>
  <path d="M39.2 181.1a6749.7 6749.7 0 0 0-11-18.4c-9.8-16.3-9.9-16.7-4.4-18.1l2.5-.9-.6-.8c-.3-.4-.7-1.5-.8-2.6l-.1-1.8 1.7-1c3-1.5 12.5-5.5 13.3-5.5.4 0 3 1.1 5.7 2.5l4.9 2.5 4.2-1.1c4-1.1 4.2-1.1 5-.6a574 574 0 0 1 26.9 23.2c.5 1.2 0 3.3-1 4.4-.9.9-16.1 7.5-17.3 7.5-.6 0-3.8-3-5.5-5.2-.8-1-.9-1-1.9-.6-.5.3-1 .7-1 .9-.2.4-1.4-.2-4-1.8l-1.4-.8.4.8c.3.4.3 1 .2 1.1-.3.6-.8 0-.9-1 0-.6 0-.7-.2-.3 0 .3-.3.6-.5.6s-.1.2.2.5c.9 1 2.3 2.9 2.3 3.2 0 .2-1-.7-2.1-1.8a14.7 14.7 0 0 0-3.3-2.6c-.6-.3-1.3-.7-1.5-1-.5-.6-1.3-.2-1 .4.2.2-.1.1-.7-.2-.5-.4-1-.6-1-.4l-.4-.2a172.5 172.5 0 0 0-1.7-1.8c.2 0 .5.2.8.5.2.3.6.6.8.6.2 0 0-.4-.6-1-1-.9-1.8-.8-1.5.3 0 .4 0 .6-.2.5-.1-.1-.3-.5-.3-.8 0-.4 0-.4-.5-.1-.3.2-.7.3-.9.2-.4-.3-.5-1 0-.9.5.1 1 0 1-.3 0-.2-.3-.3-.8-.2-.5 0-.9 0-.9-.2s.2-.3.3-.2c.2.1.4-.1.4-.5 0-.7 0-.7-.6-.3-.3.3-.6.3-.7 0l-1.1-.7c-.8-.4-.8-.4-.4.2.3.4.6.7.8.6.1-.1.2.2.2.7 0 .7.2 1 .6.8.3-.1.5 0 .5.2s.8 1.2 1.7 2.3c2.1 2.5 2.7 3.5 1 1.8-1.9-1.9-3-2.7-3.2-2.5-.1 0-.3 0-.4-.4-.1-.3-.4-.5-.5-.4-.2.1.4.9 1.2 1.8 1 1 1.5 1.7 1.4 2-.2.4 0 .6.2.5.3 0 .6.5.8 1.5.2 1.1.4 1.4.6 1 .3-.4.4-.3.4.2 0 .4 0 .6.2.5.4-.5 1.7 1.5 1.9 3 0 .4 2.3 1.6 3.6 1.8 1 .2 2.1-.1 6.2-1.8 3.4-1.4 5-2.2 5-2.6 0-.4.1-.4.5.2.3.4.6 1.4.6 2.2 0 1.3-.2 1.8-1 2.5-1 1-19.6 8.9-20.7 8.9-.4 0-1-.5-1.4-1zm0-3.7c0-.3-.2-.2-.2.2s0 .6.2.5v-.7zm4.4-1.3 2.7-1v-1c0-.4-.1-.7-.3-.7-.1.1-.4 0-.5-.1-.1-.2-.5-.4-.7-.4-.7 0-1.6-.9-1.4-1.2.1 0-.1-.3-.5-.5-.4-.3-.7-.6-.6-.7.2-.4-1.4-2.6-1.7-2.3-.1.1-.2 0-.2-.3s-.2-.8-.5-1l-.9-1.3c-.2-.5-.6-.7-.7-.6-.2.1-.4 0-.4-.4 0-.3-.3-.8-.7-1.2-.4-.4-.5-.7-.3-.7s.3-.2.3-.4-.1-.3-.3-.2c-.2.2-.7-.1-1.2-.6l-1-.8-2-1.5c-1.7-1.5-1.9-1.7-1.7-2.8.2-.8.1-1.1-.1-1-.2.2-.4.1-.4-.1s-.2-.3-.4-.3c-.3 0-.4-.1-.4-.4 0-.3 0-.3-.5 0-.5.2-1 0-2-1-.8-.6-1.3-1.2-1.1-1.2.2 0 0-.3-.5-.7-1-.8-1.7-.9-1 0a339.9 339.9 0 0 0 11.7 19.8c3.3 5.3 3.5 5.6 4.1 5.6.4 0 1.8-.4 3.2-1zm-14-20c-.4-.4-.8-.7-1-.6-.2.1-.2 0 0-.2.3-.5 1.1-.1 1.6.7.5 1 .2 1.1-.6.2zm43.6 8.1c1.8-.7 3.3-1.5 3.6-2 .2-.4.5-.5 1.1-.4.5.1 1.7-.2 3.1-.9a15 15 0 0 1 2.7-1c.3 0 1-.3 1.5-.6l1.1-.6-1-1a309.8 309.8 0 0 0-18.9-15.8c-.5 0-.3.4.6 1.2l.7.9.7.7c.4.4 1 .7 1.2.7.2 0 .5.3.7.8a20 20 0 0 0 2.5 2.4c1.9 1.4 2.3 2 2.2 2.9l1 1c.6.4 1 .9.9 1-.2.3-.1.4 0 .2.5-.2 3.5 2.9 3.2 3.3-.1.2.1.5.5.7.8.5.9.7.2 1.5-.4.6-.5.6-2.5 0-3-1-4.9-.1-3.7 1.7.1.2.2.7.1 1.1-.2.8-2 1-3.5.2-1.4-.7-2.2-.5-3 .5-.7 1-.7 1-.2 1.9.8 1.2 1.4 1.1 5.2-.4zm-10-5.9c1.5-1 3-2.2 3.2-2.7.3-.5.7-.8 1.1-.8.4.1 1.4-.4 2.2-1 .9-.7 2.2-1.6 3-2 .9-.5 1.6-1 1.6-1.3 0-.2-.9-.9-1.9-1.5a760.6 760.6 0 0 0-31.2-15.7c-1-.6-2.8-.4-4.2.4l-4.2 1.8a33 33 0 0 0-4.9 2.2l-1.3.9 3 2 7 4.8 3.3 2.2a362.3 362.3 0 0 0 20.4 12.6l3-1.9zm4.7-6.6c-.5-.3-.5-.3 0-.3l1 .3c.5.3.5.4 0 .4l-1-.4zm-1.5-.7c-.3-.2-.6-.6-.6-.9 0-.2-.5-.7-1-1-.7-.3-1.1-.4-1.1-.2s.1.4.3.4l1 .5c.6.5.6.5 0 .3a39 39 0 0 1-5.1-2.7c-.9-.7-.4-1 .6-.4.6.3 1 .7 1 .9 0 .2.2.3.4.1.2 0 .4 0 .4.2 0 .3.3.4.8.2.8-.2 3.6 1.1 3.6 1.8 0 .2.1.5.3.7.3.6.2.6-.6.1zm1-.3v-.5c.3-.1.4 0 .4.3 0 .6-.1.7-.4.2zm1.1.1h.7c.1.1 0 .2-.4.2-.5 0-.5 0-.3-.2zm-20.5-3c-.1-.1 0-.2.3 0 .6.2.7.4.2.4a.5.5 0 0 1-.5-.3zm-1.1-.4c-.1-.3-.3-.5-.5-.4l-1.6-.8c-.7-.5-1.6-.9-2-.9-.3 0-.5-.2-.4-.3 0-.2-.2-.4-.6-.6-.9-.5-1.2-.5-.8 0 .3.5-.3.2-2-1-.6-.5-1-1-1-1.1.2-.1.1-.4-.1-.6-.5-.7.2-1 1-.6.5.4 3.8 1.8 4.3 2 .7.2 2.4 1.1 2.8 1.5l.8.4 1 .7c.4.4 1 .8 1.2.8.3 0 .5.2.3.5 0 .3 0 .5.3.5.2 0 .3 0 .2.2 0 .1-.6 0-1.1-.2-.8-.3-1-.3-1.3 0-.2.4-.3.4-.5 0zm-6.9-4.3c-.2-.3-.6-.5-1-.5-.2 0-.3-.2-.2-.4.2-.3.1-.3-.1-.2-.5.3-.2 1 .4 1 .3 0 .6.2.7.5.2.3.4.5.5.4 0-.2 0-.5-.3-.8zm18.2 3c-.2-.4-.3-.4-.5 0-.3.5-.4.5-.9 0s-.4-.6.6-.5c1.2 0 2 .6 1.4 1-.2.1-.4 0-.6-.4zM52 144c-.6-.2-1.1-.2-1.2 0-.2 0-.2 0 0-.2.2-.6-.2-1-1.5-1.5-.9-.3-1.2-.3-1.2 0s-.2.1-.6-.3c-.3-.3-1-.7-1.5-.8-.4 0-1-.3-1-.5-.2-.2-.4-.3-.4-.1 0 .2-.3 0-.6-.2a4 4 0 0 0-1.5-1c-.8-.2-1-.2-1.6.4-.4.4-.5.7-.2.7.7 0 .9.2 2.1.9 3 1.7 1.9 1.3-2.5-1a43 43 0 0 0-5.8-2.7c.1-.1-.2-.4-.7-.7-.4-.2-.8-.2-.8 0 0 .1-.2.2-.5 0-.3 0-.8.2-1 .5-.4.3-.8.5-.9.4 0-.1.3-.5 1-.9.5-.4 1-.7.8-.8 0-.1.3-.2 1-.3.5 0 1.2-.2 1.5-.5.4-.3 1-.6 1.4-.6.5 0 1-.2 1.3-.4.3-.3 1-.5 1.5-.6 1.6-.2 5.6 1.3 7.2 2.7.7.6 1.5 1.1 1.8 1.1.2 0 .4.2.4.4 0 .3.1.4.2.2.3-.3 2.2.7 3.4 2 .7.6 1.4 1 1.8.8.3 0 .5 0 .4.2 0 .1.4.6 1 1 1.1.7 1.1 1 0 .4-1.3-.7-5.6-2.7-5.9-2.7l-.7-.6c-.6-.8-1-.8-.8.2 0 .4.4.8.6.8.3 0 .8.3 1.2.6.3.3.8.6 1 .6.3 0 .6.3.8.6.1.3 0 .4-.3.3-.3-.2-.3-.2 0 0 .1.3.7.6 1.1.7.7.2.8.1.6-.2-.2-.3-.1-.4.1-.2.4.2.4 1.1 0 1.4l-1-.1zm-11.6-4.8c-.3-.3-.6-.4-.8-.3-.2.2-.3 0-.1-.2.1-.2 0-.4-.1-.4l-1-.5c-.2-.3-.5-.4-.5-.2s.2.4.4.6c.2 0 .2.4.1.6-.1.2-.1.3 0 .2.2-.2.6 0 1 .4.8.8 1.6.6 1-.2zm11 .5-1-.3c-.1 0 0 .2.2.3l.9.4c.2 0 .1-.2-.2-.4zm-13.8-1.5c-.3-.3-.6-.6-.8-.6-.3 0-.1.3.3.5.8.7 1 .7.5 0zm-2.3-1.4c0-.3-.2-.4-.5-.3-.4.1-.4.2 0 .5l.5.3v-.5zm18.5 7c0-.4.1-.5.3-.3l.6.6c.1.1 0 .2-.3.2a.6.6 0 0 1-.6-.6zm-17.1-3c-.1-.2 0-.3.3-.3.4 0 .5.1.4.3l-.4.4-.3-.4zM33 158.2c-.7-.7-1-1.1-.6-.8.3.2.7.3.8.2.1 0-.3-.4-.9-.7-1.5-.8-1.4 0 0 1.4 1.6 1.6 2.2 1.5.7-.1zm5.3-1.9c0-.2-.2-.3-.4-.3s-.3.1-.2.3l.4.4.2-.4zm-13.8-6.1c0-.3-.1-.6-.3-.7-.4-.3-.8.7-.5 1 .4.4.8.2.8-.3z" style="fill:#e6ad58;stroke-width:.352778" transform="translate(-16.8 -119.2)"/>
  <path d="M39.2 181.1a6749.7 6749.7 0 0 0-11-18.4c-9.8-16.3-9.9-16.7-4.4-18.1l2.5-.9-.6-.8c-.3-.4-.7-1.5-.8-2.6l-.1-1.8 1.7-1c3-1.5 12.5-5.5 13.3-5.5.4 0 3 1.1 5.7 2.5l4.9 2.5 4.2-1.1c4-1.1 4.2-1.1 5-.6a574 574 0 0 1 26.9 23.2c.5 1.2 0 3.3-1 4.4-.9.9-16.1 7.5-17.3 7.5-.6 0-3.8-3-5.5-5.2-.8-1-.9-1-1.9-.6-.5.3-1 .7-1 .9-.2.4-1.4-.2-4-1.8l-1.4-.8.4.8c.5.8.2 1.6-.3 1.3-.2-.2-.4-.6-.4-1 0-.5-.2-1.1-.5-1.5-.5-.7-.5-.6 0 .3.2.8.2 1-.1 1.3-.3.1-.4.3-.2.4.2 0 .7.6 1.2 1 1.5 1.9.1 1.1-2.1-1-1.2-1.2-2.4-2-2.5-2-.2.1-.3 0-.3-.2s-.2-.3-.4-.2c-.1.1-.2-.1 0-.6.1-.6 0-.7-.4-.3-.4.3-.7.3-1.4-.4l-1-.8c-.2 0-.5-.2-.8-.5-.3-.3-.3-.4 0-.2.2.1.4 0 .4-.1 0-.2-.3-.4-.6-.4-.7 0-2.6-1.4-2-1.4.3 0 .5.1.6.3 0 .2.3.2.6 0 .4-.2.2-.3-.8-.5-.7-.1-1.4-.4-1.5-.6-.2-.2 0-.3.2-.1.3.2.4.2.2-.1-.1-.3-.6-.4-1-.2-.4.1-.7 0-.8-.4-.1-.3-.5-.5-.7-.5-.3 0-.5-.2-.3-.4.2-.3 0-.4-.3-.3-.7.3-1.8-.6-1.5-1.1.2-.3.1-.4-.3-.2-.5.1-1-.1-1.6-.8-.6-.7-1.1-1-1.4-.8-.4.2-.3.5.2 1 .3.4.7.9.7 1.2.1.4.7 1.2 2.6 3l2 2.5 1.2 1.6-1.1-.8c-.6-.5-1-1-1-1.3 0-.3-.8-.8-1.4-.8l-.5-.4c-.2-.3-.3-.3-.3 0 0 .1.2.5.5.7.3.3.5.7.4 1-.1.2 0 .5.2.6.2.2.2.5 0 .9-.2.3-.3.9-.3 1.2 0 .4-.1.8-.4.9-.4 0-.4 0-.3-.6.1-.4 0-.9-.1-1a.4.4 0 0 1-.1-.5c0-.2 0-.3-.2-.3s-.4.2-.5.4c-.1.3-.2.2-.2-.2 0-.3-.2-.5-.4-.4-.2 0-.4 0-.5-.2-.1-.2 0-.3.4-.3s.5-.1.1-.6c-.2-.3-.6-.4-.7-.3h-.3c.1-.9-.5-2-1-1.8-.3.1-.4 0-.3-.2.2-.2 0-.6-.3-.8-.2-.2-.9-1.1-1.3-2-.5-.9-1-1.7-1.2-1.8-.2-.2-.2-.3.1-.3.3 0 .4-.1.3-.3a1 1 0 0 0-.6-.2l-.9-.7c-.5-.5-.6-.7-.2-.8.3-.2-.1-.8-1.3-2-1-.8-1.8-1.8-1.8-2 0-.4-1.7-.9-2-.6-.1.1.2.4.6.6.5.1 1 .6 1.2 1 .2.5.1.5-.3 0-.7-.8-2.4-1.3-3.7-1-1.3.4-1.4.6-.5 1.6.3.4.7 1 .7 1.2 0 .3.6 1.1 1.1 2a488.5 488.5 0 0 1 11 18l2.4 3.7c2.2 3.5 3 4.5 3.6 4.5a20 20 0 0 0 5.3-2c.7-.3 1-.6.8-1.1-.1-.4-.4-.7-.7-.7-.3 0-.6-.3-.7-.5-.1-.3-.4-.5-.8-.3-.3 0-.4 0-.3-.1.2-.2-.1-.8-.7-1.3l-.7-1c.2 0-.2-.7-1-1.5a8 8 0 0 1-1.4-2.3c-.2-1-1.1-2.2-1.6-2.2-.2 0-.3.2-.1.4 0 .3 0 .2-.4-.2-.6-.7-.4-1.4.4-1.1.6.2.6.1.1-1-.2-.7-.2-1 .2-1 .3 0 .4.3.3.8-.2.6.2.9 1 .7.2 0 .3.2.3.5 0 .4.2.5.7.4.6-.2.7-.1.6.4 0 .4.1.6.5.6s.5.1.4.6c-.1.4-.3.6-.5.5-.2-.2-.3 0-.3.1 0 .2.3.4.7.4.5 0 .9.3 1 .7 0 .3.5.8 1 1 .4.2.8.6.8.8 0 .2-.2.3-.4.1-.2-.1-.3 0-.1.2.1.2.4.3.5.2.2 0 .5.3.7.9.5 1.2 2.1 2.3 4 2.6 1 .2 2.1-.1 6.2-1.8 3.4-1.4 5-2.2 5-2.6 0-.4.1-.4.5.2.3.4.6 1.4.6 2.2 0 1.3-.2 1.8-1 2.5-1 1-19.6 8.9-20.7 8.9-.4 0-1-.5-1.4-1zm0-3.7c0-.3-.2-.2-.2.2s0 .6.2.5v-.7zm1.4-12.9c-.6-.6-.6-.6-.2.2.2.5.5.8.6.6.1 0 0-.4-.4-.8zm32.6-.3c1.8-.7 3.3-1.5 3.6-2 .2-.4.5-.5 1.1-.4.6.2 1.5 0 2.6-.6 1-.5 2.6-1.2 3.7-1.5 1.1-.4 2-.7 2-.9 0-.4-3.5-3.6-7-6.6a491.5 491.5 0 0 1-13-10.7c-.7 0-.4.8.8 1.9 3.2 3 6 5.4 7.3 6.4.4.2.7.8.8 1.2 0 .5.5 1.1 1 1.5.5.4.9.9.8 1-.2.3-.1.4 0 .2.5-.2 3.5 2.9 3.2 3.3-.1.2.1.5.5.7.8.5.9.7.2 1.5-.4.6-.5.6-2.5 0-3-1-4.9-.1-3.7 1.7.1.2.2.7.1 1.1-.2.8-2 1-3.5.2-1.4-.7-2.2-.5-3 .5-.7 1-.7 1-.2 1.9.8 1.2 1.4 1.1 5.2-.4zm-10-5.8c1.4-1 3-2.2 3.2-2.7.4-.6.9-1 1.2-.9.3.1 1.3-.4 2.1-1 .9-.7 2.2-1.6 3-2 .9-.5 1.6-1 1.6-1.3 0-.5-2.3-1.8-9.4-5.5a762.2 762.2 0 0 1-16.6-8.6c-8.3-4.3-8-4.3-12.8-2.3l-3.4 1.4c-2.8 1-5.8 2.7-5.8 3.2s1.1 1.4 2.8 2.2l2.6 1.6a470 470 0 0 0 16.6 10.4c10.3 6.4 11.7 7.3 11.9 7.3l3-1.8zm4.7-6.7c-.4-.3-.4-.3.1-.3.3 0 .6.1.6.3 0 .5 0 .5-.7 0zm-1.5-.8c-.3-.2-.6-.7-.7-1-.2-.5-.1-.6.5-.2.3.3.5.5.3.6-.2 0-.1.3.2.6.4.2.6.5.5.5l-.8-.5zm-3.8-2a9.4 9.4 0 0 1-2.7-1.7c-.2-.6 1 0 1.6.6.2.3.4.4.4.3 0-.2.3 0 .6.3.4.4.6.5.8.2.2-.4.5-.4 1 0l.8.5-.7-.2c-.5-.2-.7-.2-.7 0s.1.4.3.4c.3 0 1.7 1 1.4 1l-2.8-1.3zm-15.3-2c-.6-.2-1.6-.6-2.1-1a5 5 0 0 0-1.5-.5c-.4 0-2.3-1.7-2.3-2 0-.1.3 0 .7.3.3.3 1 .6 1.5.6 1.4 0 2 .2 3.7 1.4 2 1.5 2 1.7 0 1.1zm-17.7.8a.8.8 0 0 0-.7-.4c-.4 0-.4 0-.1.4.5.7 1 .7.8 0zm-2-1.2-.8-.4c-.2 0-.1.2.2.4l.9.3c.2 0 0-.2-.2-.3zm37-6.1c-.6-.6-1.2-1-1.4-1-.2 0 0 .3.4.7.5.4.8.7.6.7l.4.7c.5.5.7.6 1 .3 0-.3-.2-.8-1-1.4zm-3-2.7c-.5-.3-1-.6-1.1-.5l-1-.7c-.4-.4-.8-.6-.8-.4 0 .2.8.9 1.7 1.5 1.8 1 2.6 1.2 1.1.1zm-3.5-1.4a2 2 0 0 0-1 0c-.4.1-.2.2.4.2.6 0 .9 0 .6-.2zm-15.6 25.8c-.5-.6-.5-.6.1-.2l.6.6c0 .3-.3.1-.7-.4z" style="fill:#d9a457;stroke-width:.352778" transform="translate(-16.8 -119.2)"/>
  <path d="m39.3 181.3-2.9-4.7-8.4-14.1c-6.5-11-7.6-13.2-7.8-15.2 0-1.5.1-1.6 3.5-2.7a11 11 0 0 0 2.6-1l-.6-.7a5 5 0 0 1-.7-2.5c-.2-1.8-.1-2 .8-2.5a15 15 0 0 1 2.1-1c1-.3 1-.3.3.2-.3.3-.8.5-1 .5-.3 0-.7.3-1 .7-.2.6 0 .8 1.2 1.7l2.8 1.7A914.5 914.5 0 0 0 57 158.3a21 21 0 0 1 2.2 1.5c.5.5.7.5 2 0 1.9-1 5.2-3.6 5.5-4.3.1-.3.5-.6 1-.6a4 4 0 0 0 2-1l2.9-2c.9-.6 1.7-1.2 1.7-1.4 0-.2-.6-.7-1.2-1.1-1-.7-13.4-7.3-20.8-11L50 137l4.2-1.1c3-.8 4.4-1 5-.9.6.3 11.1 9 11.9 9.9.5.6-1.9-1.3-6.4-5-4.7-3.9-5-4.1-6.5-4.1a8 8 0 0 0-2.4.3l-2.4.8c-1.7.4-2 1.2-.4.8a73 73 0 0 1 4.5-.5c-.1.2-.4.2-.6.1-.2-.1-.3 0-.1.2.1.2.5.2 1 0 .6-.2 1 0 1.6.4.4.3.7.7.7.9 0 .1-.3 0-.7-.4-.6-.6-.7-.6-.7 0s0 .6-.5 0c-.3-.4-.5-.5-.5-.3s.5.8 1 1.4c.6.7 1 1.3 1 1.5 0 .2.3.3.6.2.3-.1.6 0 .6.2s.2.4.5.4.6.2.7.5c.1.3.8.8 1.5 1.3 2.7 1.5 3.6 2 3.9 2a42 42 0 0 1 6.1 3.7c1.2.8 1.4 1.1 1.4 2.3 0 1 .2 1.5.9 2 2.6 1.9 3.3 2.7 3 3.4a1 1 0 0 0-.2 1c.2.3 0 .4-.2.1-.7-.4-3.6-.5-3.3 0 .1.2-.4.3-1.2.2-.3 0-.8.9-.8 1.7 0 .6.1.8.4.6.4-.2.4-.1 0 .2-.5.6-2.8.7-4.4.3-.6-.2-1-.2-.8 0 .1.2 0 .4-.3.5-.3.1-.7.6-.9 1-.3.5-.2.9.7 1.9 1.2 1.4 1.2 1.4 5.7-.5a9.6 9.6 0 0 0 3.1-1.8c.2-.4.6-.5 1.4-.4.6 0 1.6-.2 2.7-.7 1-.5 2.6-1.2 3.6-1.5 1-.4 1.9-.9 1.9-1 0-.3.1-.2.3.1.5.8-.2 3.2-1.1 4-.9 1-16.2 7.6-17.2 7.6-.7 0-3.2-2.3-5.2-4.8-1.2-1.5-1.3-1.5-2.3-1-.5.3-1 .7-1 1 0 .4-2-.7-5.3-2.9a13 13 0 0 0-3.3-1.8c-.3 0-.6-.1-.6-.3 0-.2-.7-.7-1.5-1.3l-1.5-1 1 1.2 1.1 1.2-1-.8-2.5-2.4c-.9-.8-2.2-1.7-2.9-2a5 5 0 0 1-1.4-1c-.2-.3-3-2.2-3.3-2.2l-1.6-1a40.5 40.5 0 0 0-9.5-5.8c.4-.7-.7-.7-3.2-.1-2.8.7-3.3 1-3.3 1.4 0 .2 1.1 2.2 2.5 4.3a18 18 0 0 1 2.3 4.5c-.1.2 0 .3.1.2.2-.1.8.6 1.3 1.5a26 26 0 0 0 2 3l1.5 2.6a51 51 0 0 0 3.5 5.9 99 99 0 0 1 3 4.6c2 3.2 2.4 3.7 3.2 3.7a25 25 0 0 0 6.4-2.4c.2-.1 0-.6-.2-1.1-.3-.6-.4-1.2-.2-1.4.3-.4.5-.4 1.5.1 2 1 3.3.9 8.4-1.3a31 31 0 0 0 5-2.4c.4-.7.7 0 .9 1.8.1 1.6 0 1.9-1 2.7-1 1-19.4 9-20.6 9-.4 0-1-.4-1.3-.8zm-.6-4.8-2.2-3.3-1.6-2.4a84.5 84.5 0 0 1 2.3 4.3c1.7 3.3 2 3.6 2 2.9.1-.3-.1-1-.5-1.5zm19.8-36.2c-.1-.3-.3-.5-.4-.4v.5c.4.6.6.5.4-.1zm-13.9 31c0-.3 0-.5.2-.5l.3.5c.1.3 0 .6-.1.6-.2 0-.4-.3-.4-.6zm5.3-9.9c-.2-.3-.3-.5 0-.5l.5.5v.6l-.5-.6zm35.2-4.3-.7-1 .8.8c.5.5.8.9.7 1-.1 0-.5-.3-.8-.8zm-48.8-.4c-.3-.6 0-.7.5-.2.2.3.3.5.1.5-.2 0-.5-.1-.6-.3zm46.4-1.7-.9-1 1 .9 1 1c0 .2-.3 0-1.1-.9zm-48-.4-.7-1.4c0-.4-1-.9-1.9-.8-.6 0-.6 0 0-.2.5-.3.4-.4-.7-1.4-1.6-1.3-4-3.7-4-4l1.3 1.1c.7.7 2 1.7 2.8 2.2 1.4 1 3.2 3 3.2 3.6 0 .2.4.7.8 1.1.4.5.6.8.4.8-.2 0-.7-.4-1.1-1zm44.7-2.4-2.1-2 2.2 1.9c1.9 1.6 2.4 2.1 2 2.1l-2.1-2zm-3.6-3-1-1.2 1.1 1c1.1 1 1.3 1.3 1 1.3l-1-1.1zm-2.6-2.3-.9-1 1 .9c.9.8 1.1 1 .8 1l-1-1zM29 136.4l.5-.3c.4-.1.5 0 .4.1-.2.4-.9.5-.9.2zm1.4-.7 1.2-.5c1-.3 1-.3.4.1-.6.5-1.6.8-1.6.4zm3.7-1.5a19 19 0 0 1 2.6-1.3c2.3-1 4-1.2 4-.6 0 .2-.5.4-1.1.4-.6 0-2 .4-3.2.9-2.2.9-2.8 1-2.3.6z" style="fill:#cb974f;stroke-width:.352778" transform="translate(-16.8 -119.2)"/>
  <path d="M39.3 181.3c-1-1.5-1-1.9-.4-1l.8.9-.1-1.9c-.1-1.7 0-1.8.8-2 1.2-.3 4.4-1.5 5.7-2.1.8-.4 1-.7.8-1.4-.3-1.1.2-1.3 2.3-.9 1.7.3 2 .3 6.6-1.6 2.7-1.1 5.1-2.3 5.4-2.5.5-.4.6-.4.8.3.7 2.4 0 3.9-2.1 5-2.3 1.1-18 7.6-19 7.8-.8.2-1.1 0-1.6-.6zm-3-5.6c-.8-.3-1.8-2.2-1.6-3.3 0-.4 0-.5-.2-.3-.2.6-.8.2-.8-.6 0-.4-.2-.7-.3-.6-.5.3-.7-.6-.3-1 .5-.6 2.4 2.7 2.1 3.6-.1.5 0 .5.2.2.2-.4.4-.3.8.3l1 2-.9-.3zm29.2-7.5a84.1 84.1 0 0 1-3-3.2l-.8-1-1.3.8c-.8.4-1.5.6-1.8.5l-16-10.6-15.4-10.3-2 .5c-2.7.7-3.3.6-1-.2 2.3-.9 2.3-1 1.6-1.7-.6-.7-1.3-4.3-.8-4.3a766.4 766.4 0 0 0 24.1 15 295.3 295.3 0 0 0 9.7 6c.4.4 1 .5 1.6.4 1-.3 4.3-2.5 5.8-4l1.3-.8c.2 0 1.8-1 3.7-2.3l3.5-2.3c.1 0 .2.6.2 1.4 0 1.3.2 1.7 1.5 2.9.9.7 1.3 1.3 1 1.1-.3-.2-.4 0-.2.4s.2.6 0 .4c-.1-.1-.5 0-.8.2-.4.4-.5.4-.2 0 .3-.5.2-.5-.2-.2-.3.3-.7.4-.8.3l-1.4.6c-.7.5-1.2 1-1 1 0 .2-.1.6-.4 1-.3.5-.8.7-2 .6-.8 0-1.4 0-1.4.2 0 .1-.4.2-1 .1-.5 0-.8.1-.8.4 0 .3-.2.5-.4.5-.5 0 0 1.8 1 3.1.5.6 1 1.2 1.3 1.2.7 0 6-2.3 7.2-3.1.5-.3 1.2-.6 1.4-.5a103 103 0 0 1 6.9-2.6c.9-.3 1.7-.8 1.7-1 0-.3.1-.2.3 0 .3.6.1 2.4-.4 3.3-.2.4-.3.4-.3 0 0-.3-.3 0-.7.7l-.7 1a151 151 0 0 1-16.4 6.8c-.2 0-1.4-1-2.6-2.3zm-6-4-.4-.3c-.2-.1-.4 0-.4.2s.2.3.4.3l.3-.1zm0-2.9c0-.2-.3-.4-.6-.5-.5-.2-.5-.2-.2.3.5.6.7.7.7.2zm-2.5-1.6-1.2-.7-1.1-.5.8.7c.8.6 1.5.9 1.5.5zm11.5-3.6h-.7c-.2.1-.2.2.3.2.3 0 .5 0 .4-.2zm-41.4 4.7c-5.9-9.8-6.8-11.7-6.8-13.6 0-1 0-1.1.3-.5l1.7 3c.8 1.2 1.4 2.5 1.4 2.7 0 .8 2.5 4.9 3.3 5.5.4.2.6.5.4.6-.2 0 .3 1.3 1.3 2.8 2.7 4.3 3.6 6 3.4 6.3-.1.2 0 .7.2 1.1l.3.9c-.1 0-2.6-3.9-5.5-8.8zm1.8-.1c-.3-.5-.4-.8-.2-.7.4.3 1.2 1.6 1 1.6l-.8-1zM51 137l3.9-1c3.3-1 4.9-1.1 4.5-.5-.1.2-.5.3-.7.1-.3 0-2.1.3-4 .8-3.3.8-4.8 1-3.7.6zm-11.6-4.9h.6c.2.1 0 .2-.4.2s-.5 0-.2-.2z" style="fill:#b88a4d;stroke-width:.352778" transform="translate(-16.8 -119.2)"/>
  <path d="M40 181.5v-2.1l-.1-1.8 1.4-.4 3.8-1.4c2-1 2.4-1.2 2-1.6-.8-1 0-1.3 2.2-1.2 2 .2 2.5 0 6.7-1.7 2.6-1.1 4.9-2.2 5.1-2.4.8-.6 1.2.4 1 2-.3 1.8-.5 2-1 1.8-.2-.1-.3 0-.1.1 0 .2 0 .5-.2.7-.3.2-4.6 2.2-9.7 4.3-8.4 3.6-11 4.4-11 3.7zm27.8-12c0-.2 0-.5-.2-.5s-.4.2-.4.5c0 .2-1.3-1-2.8-2.6-2.1-2.3-2.9-2.9-3.2-2.6-.8.6-2.2.8-3 .4l-5.3-3.4-24.5-16.1c-1.2-.8-1.3-.8-3.3-.3-2.8.7-3.3.4-.7-.4l2.2-.6-.7-1c-.6-.8-1.3-4.2-.9-4.2a766.4 766.4 0 0 0 24.1 15 390.4 390.4 0 0 0 9.6 6.1c.8 1.2 3.9 0 7-2.9a10 10 0 0 1 2-1.6l3.5-2.3a29 29 0 0 1 3.6-2.3v1.7a6 6 0 0 1-2 3.8l-1.5 1.3-2.9 2c-2.2 1.2-3.1 2.2-2.7 3l1.6 2 1.3 1.5 1.7-.5a33.7 33.7 0 0 1 2.9-.7c.3-.5 4-2.3 5.5-2.7a35 35 0 0 0 7.6-3.4c.4-.6.4 2.2 0 3.1-.3.5-.4.5-.4.2 0-.4-.2-.2-.5.3-.5 1-6.2 4-8.5 4.5a5 5 0 0 0-1.6.6c-.3.3-1.7 1-3.2 1.6-3 1.2-4.7 1.4-4.3.6zm-8.4-5.6c0-.3-.1-.5-.3-.5-.4 0-.8.5-.5.8.4.4.8.3.8-.3zm0-1.4a.5.5 0 0 0-.7 0c-.3 0-.2.1.2.2.4 0 .6-.1.4-.2zm-3.5-.5c0-.2-.8-.8-1.8-1.3-1.3-.6-1.7-.8-1.4-.4.3.4.6.6.8.6.2 0 .8.3 1.3.7 1 .8 1.1.9 1.1.4zm3.5-.5c0-.5-.8-1.1-4-3l-2.5-1.6c-.5-.4-1-.6-1.1-.5-.1.2 0 .4.4.5.3.1 1.3 1 2.2 1.8 1 1 1.7 1.4 2.1 1.3.4-.2.5-.1.4.1-.2.2.1.5.6.6.6.1.8.4.7.6-.2.3-.1.3.1.2.2-.1.5 0 .6.1.3.5.5.5.5-.1zm9.1-5.4h-.7c-.2.1-.2.2.3.2.3 0 .5 0 .4-.2zm-38.2 10.1-.3-1.1-.4-1-.8-1-1-1.7c-.4-.6-.4-.8-.1-.8.2 0 .3.2.3.5 0 .2.3.5.6.7.5.1 1.8 2.8 2.1 4.1.1.7 0 .8-.4.3zm-1.4-5.5c-.3-.5-.4-.8-.2-.7.4.3 1.2 1.6 1 1.6l-.8-1zm-2.6-2c-.8-.6-4.7-7-5.4-9-.3-.8-.6-2-.6-2.6 0-1 0-1 .3-.4l1.8 3a9.5 9.5 0 0 1 1.3 2.6c-.1.1.4 1.4 1.2 2.8.8 1.4 1.3 2.7 1.1 2.8-.1.2 0 .2.3.1.4-.1.5 0 .5.5v.6l-.5-.4zm27-22.4h.8c0 .2-.1.3-.5.2-.4 0-.5 0-.2-.2zm1.7-.4c.4-.2 1-.3 1.3-.3.3 0 .2 0-.2.3l-1.2.3c-.4 0-.3-.1.1-.3zm2.8-.6h1c.3 0 0 .2-.6.1-.6 0-.8 0-.4-.1zM39.3 132h.6c.2.1 0 .2-.4.2s-.5 0-.2-.2z" style="fill:#b98437;stroke-width:.352778" transform="translate(-16.8 -119.2)"/>
  <path d="M40 181.5v-2l-.1-1.8 3-1c3.4-1.2 4.6-1.8 4.3-2.5-.2-.7.4-1 2.5-1 1.7 0 3.2-.5 10.7-3.7.3-.1.4 0 .2.4 0 .3 0 .5.2.5s.4-.1.4-.3l.1-.7c.1-.8.6-.7.8 0 .2 1.2-.3 3.3-1 3.4-1.4 0-1.7.1-1.7.5 0 .1.3.2.6 0 .3 0 .5 0 .5.2s-1.2.8-2.6 1.4a119.3 119.3 0 0 0-8.5 3.7l-3.9 1.5c-3.4 1.5-5.4 2-5.5 1.4zm11-5.2c.4-.2.7-.4.7-.6 0-.2-.4-.2-.8 0-.5.3-.9.5-1 .4 0 0-.2 0-.3.3 0 .4.4.3 1.5-.1zm1.5-.4c.1-.3 0-.5-.1-.3-.2 0-.4.3-.4.5 0 .5.3.4.5-.2zm16-6.6v-.4c-.2.3-.5.4-.8.2-.3 0-.5 0-.5.3s-1.3-.8-2.8-2.5c-2.2-2.4-2.9-2.9-3.2-2.5-1 .8-1.3.5-1.2-1 0-.8.2-1.6.3-1.8.2-.2 0-.4-.3-.5-.8-.3-.7-.9 0-.8 1 0 1.7-.2 2-.6.2-.2.3.4.2 1.3 0 1 0 1.7.2 1.7a4 4 0 0 0 1.2-.9 4 4 0 0 1 1.4-1h.7c.1 0 .8-.6 1.4-1.3l1.2-1c0 .2.7-.2 1.5-1l1.6-1c0 .1.4 0 .9-.3 1.3-.8 1.5-.7.3.2-.5.4-1.3 1-1.7 1.5l-2 1.3c-1.5.7-3.5 2.3-3.5 2.8 0 .2.5.8 1 1.5.6.6 1.1 1.4 1.3 1.8.2.5.5.6 1.9.4 2.5-.3 2.5-.3 2.5-.7 0-.2.1-.2.3-.1 0 .1-.2.8-.6 1.5-.4.7-.7 1.6-.6 2 .1.5-.1.8-.8 1.2-1.5.7-2.2.6-2-.3zm4.7-1.5c.5-.6 1.4-.7 1.4-.2 0 .3-.8.7-1.5.7-.2 0-.2-.2.1-.5zm-15-3a675 675 0 0 1-27.4-18.3l-1.8-1a7 7 0 0 0-2.2-1.2c-.3 0-.5 0-.4-.2l-.5-1.2c-.7-1-1.3-4.2-.8-4.2.2 0 .8.5 1.4 1.1.5.6.8 1 .5.8-.3-.2-.4-.1-.2.1 0 .2 0 .5-.2.6l-.3.6c0 .2.3 0 .7-.4l.7-.7 1.4 1c1.6 1 1.9 1.4.6.8-.7-.4-.7-.4.1.3 1 .8 1.6 1 1.2.3-.1-.2 0-.3.2-.2.2 0 .4.3.4.5 0 .1.7.7 1.5 1.2 2.8 1.7 4.8 3.2 4.6 3.5 0 .2-.3.4-.3.4-.1 0-.1-.2 0-.4.4-.6-.6-.8-1.2-.2-.3.4-.4.6-.2.5h.9c.2.2.8.2 1.2 0 .6-.3.6-.3.3 0-.5.6-.6 1.3-.2 1 .2-.1.7.1 1.2.6l.9.7.7-.1c.3 0 .5.2.3.5-.2.6-.2.6 1.1.7.5 0 1 .3 1.3.6.3.3.3.3 0 .2-.3-.2-.5-.1-.6 0-.2.3 0 .5.5.6.4.2.7.4.7.6 0 .2.3.3.8.1 1.1-.4 2-.3 2.6.4.3.3.4.5.2.5l-.7-.4-.5-.2c0 .5 1.6 1.6 2.2 1.7.4 0 .4 0 0 .3s-.4.4-.1.4c.2 0 .4.1.2.3 0 .2.4.7 1.2 1 .7.4 1.2.8 1 .8a5 5 0 0 1-1.3-.6c-.6-.3-1.2-.4-1.3-.3a85.9 85.9 0 0 0 10.3 6.7c.8.6.3.7-.7.1zM48 157.3c-.3-.4-2.3-1.5-2.3-1.3a10 10 0 0 0 2.4 1.6l-.1-.3zm-4.6-3c-.6-.5-1.2-.9-1.4-.9-.3 0 2 1.7 2.3 1.7l-1-.8zm-8.1-6.2c-.1-.1 0-.4.2-.5.4-.2.4-.2 0-.4-.2-.1-.3-.3-.2-.5 0-.2-.5-.7-1.4-1.2-1.6-1-2.5-1.2-2.1-.5.2.3 0 .3-.4.1-1.8-.7-1.8-.7-1.2 0l1 .6c.3 0 .9.5 1.4.9.4.4 1 .6 1.4.6.4-.1.7 0 .8.5.1.4.3.8.5.8 0 0 .1-.2 0-.4zm-5.8-3.6-.7-.7c-.5-.4-.5-.4-.1.2.5.6.8.7.8.5zm-.8-2.5s-.2-.4-.6-.6c-.5-.5-.5-.5-.1.1.5.6.7.8.7.5zm45.4 22.4c-.3-.3 3.1-2 4.4-2.3.7-.2 1-.1.9 0-.2.3-.7.5-1 .5-.6.1-.8.4-.7 1 0 .4 0 .8-.2.8h-3.4zm6.4-2.5c-.5-.2-.4-.4.8-.8a5034.4 5034.4 0 0 1 4.4-1.7l-.2 1.4c-.3.9-.5 1-.6.7-.3-.6-1.8-.8-1.8-.3 0 .2-.2.3-.4.1-.2 0-.3 0-.3.2s-.2.3-.4.2c-.2-.2-.5-.1-.6 0-.2.3-.6.3-1 .2zm-15-4.6c0-.3 1.3-1.5 2-2 .4-.2.4-.1.2.3-.2.2-.3.8-.3 1.2 0 .5-.3.7-1 .7-.5 0-1 0-1-.2zm5.6-3.9c0-.2.1-.4.3-.5.2-.1.3 0 .2.3-.3.6-.5.7-.5.2zm2.5-1.2c0-.6.1-.8.2-.5v1.1c-.1.2-.2 0-.2-.6zm-31.8-2.7c-.3-.1-.6-.2-.7-.1-.1 0-.2-.1-.2-.4 0-.4.1-.4.8 0l.8.7c0 .2-.1.2-.7-.2z" style="fill:#a8742d;stroke-width:.352778" transform="translate(-16.8 -119.2)"/>
</svg>