<svg xmlns="http://www.w3.org/2000/svg" width="277.3" height="277.3" viewBox="0 0 73.4 73.4">
  <path d="M44.6 210.3v-36.7H118V247H44.6Z" style="fill:#fefefe;stroke-width:.352778" transform="translate(-44.5 -173.2)"/>
  <path d="m74.2 241.8-2-1.8-.3-8.2-.7-10.3-.2-2-3.9-2.8-3.8-2.9.2 1.5a165.8 165.8 0 0 1 1 10.4c.2.7-.1 1-1.8 2.2l-2.6 1.5c-.3 0-1-.6-1.8-1.3l-1.4-1.3-1.4-9.2-1.5-10c-.1-.4-1-1.3-2-2-1.8-1.4-2.3-2.4-2.6-5.7l-.3-2.2 1.4-1a1166 1166 0 0 1 37-17 6 6 0 0 1 2.5-.3c1.8.4 23.2 9.4 24.3 10.3.9.7.9.7.5 3.3-.4 2.5-1 3.5-3 4.5-.3.2-1 3.2-2 10.4-1.7 10.7-1.5 10-4 11.8-.7.5-1 .5-2.7-.6-1.1-.6-2-1.2-2-1.4l.7-6.5c.4-3.4.7-6.4.6-6.7 0-.3-3.8 2-10.8 6.8L81 218.6v21.3l-2.2 1.8-2.4 1.8-2.2-1.7z" style="fill:#e2c5ab;stroke-width:.352778" transform="translate(-44.5 -173.2)"/>
  <path d="M74.5 241.8c-1.1-.8-2-1.7-2-1.8l-.7-10.4c-.4-7.9-.7-10.3-1-10.5-.4-.1-2-1.4-4-2.7a13.9 13.9 0 0 0-3.4-2.2l.5 5.5c.7 7.4.8 6.8-1.6 8.4l-2.1 1.4-1.6-1.3c-1.8-1.5-1.6-.6-3.2-12l-1.3-8.9-2-2c-2.2-2-2.2-2-2.7-6-.3-2.1-1.3-1.5 26.1-14.2 6-2.8 11.5-5.2 12.3-5.4a5 5 0 0 1 3 .1c1.8.6 21 8.5 23 9.5l1.1.6-.2 2.4c-.3 3.1-.4 3.3-2 4.5-.8.5-1.5 1.3-1.6 1.7l-1.6 9.9c-1.5 9.5-1.5 9.7-3.5 11.1l-1 .7-1.9-1.1-1.9-1.2a209.6 209.6 0 0 1 1.5-14.2l-11 7.5-11.1 7.4.2 10.6.2 10.6-2.3 1.8-2.3 1.9zm3.7-27c2-.9 1.7-1-.5-.2-3.2 1.3-3.3 1.3-2 1.1a11 11 0 0 0 2.5-.8z" style="fill:#d8b394;stroke-width:.352778" transform="translate(-44.5 -173.2)"/>
  <path d="m74.2 241.6-1.7-1.5-.6-10.3c-.5-8.2-.8-10.4-1.2-10.7l-3.8-2.7a13.9 13.9 0 0 0-3.5-2.2l.5 5.5c.7 7.4.8 6.8-1.6 8.4l-2.1 1.4-1.6-1.3c-1-.9-1.6-1.6-1.7-2.4l-1.5-10c-1.2-7.8-1.4-8.9-2-9.3a24 24 0 0 1-2.1-1.8c-1.2-1.1-1.4-1.5-1.7-3.9-.3-2.5-.2-2.7.5-3.4.6-.7 26.7-13 35.2-16.7 4-1.8 3.7-1.9 19.8 5 9.7 4 9.7 4 9.7 5.3 0 2.9-.6 4.3-2.2 5.7l-1.6 1.5-1.4 9.4-1.5 9.7c0 .2-.7 1-1.5 1.7l-1.6 1.2-2-1.2c-1.8-1.2-1.8-1.3-1.7-2.6.5-4.3 1.5-12.6 1.4-12.7l-11 7.4-11.1 7.5v10.7l.1 10.7-1.9 1.6c-1 .8-2.1 1.5-2.4 1.5-.3 0-1.3-.7-2.2-1.5zm4.4-26.8a37 37 0 0 0 6.8-4.5l-.7.3c-.4.4-4.7 2.7-7 3.9a9 9 0 0 1-2.8.8c-1.4 0-5.4-1.6-6-2.5-.1-.3-.3-.4-.3-.1 0 .5.6 1 2.9 2.2 2.6 1.4 4.2 1.4 7-.1z" style="fill:#eda76f;stroke-width:.352778" transform="translate(-44.5 -173.2)"/>
  <path d="m74.2 241.6-1.7-1.5-.6-10.3c-.5-8.2-.8-10.4-1.2-10.7l-3.8-2.7a13.9 13.9 0 0 0-3.5-2.2l.5 5.5c.7 7.4.8 6.8-1.6 8.4l-2.1 1.4-1.6-1.3c-1-.9-1.6-1.6-1.7-2.4l-1.5-10c-1.2-7.8-1.4-8.9-2-9.3l-2.1-1.8c-1.2-1.1-1.4-1.5-1.6-3.4l-.2-2 .8.7c1 .8 11.8 8.3 12.7 8.7a1193.9 1193.9 0 0 1-4.3-3.6l-2.4-2 1.9-1c3.7-2.3 4.3-3 1.4-1.8-1.5.6-2 .4-.8-.2.5-.3 1.5-1.2 2.4-2.1.9-1 2.3-2 3.1-2.5 1.7-1 2.1-1.7.5-1a4 4 0 0 1-1.4.5c-.6 0-.9-1.3-.3-1.3.2 0 .6-.3.9-.7.4-.6.3-.7-.8-.5-1.7.3-1.6-.4.2-1.5a340 340 0 0 1 25.2-11.3c2-.2 2.7.1 16.5 6 9.7 4 9.7 4 9.7 5.3 0 2.9-.6 4.3-2.2 5.7l-1.6 1.5-1.4 9.4-1.5 9.7c0 .2-.7 1-1.5 1.7l-1.6 1.2-2-1.2c-1.8-1.2-1.8-1.3-1.7-2.6.5-4.3 1.5-12.6 1.4-12.7l-11 7.4-11.1 7.5v10.7l.1 10.7-1.9 1.6c-1 .8-2.1 1.5-2.4 1.5-.3 0-1.3-.7-2.2-1.5zm3.8-26.5a72.4 72.4 0 0 0 9-6l-3.8 2.2c-8.5 5-8.3 5-15.3.6l-2-1.3 1.8 1.6c2.5 2.2 5.4 3.7 7.1 3.8a9 9 0 0 0 3.2-.9zm36.2-22.9c.4-.6.3-.6-.7.1-1.3 1-1.4 1-.4.8a2 2 0 0 0 1-.9z" style="fill:#e29d68;stroke-width:.352778" transform="translate(-44.5 -173.2)"/>
  <path d="m74.2 241.6-1.7-1.5-.6-10.3c-.5-8.2-.8-10.4-1.2-10.7l-3.8-2.7a13.9 13.9 0 0 0-3.5-2.2l.5 5.5c.7 7.4.8 6.8-1.6 8.4l-2.1 1.4-1.6-1.3c-1-.9-1.6-1.6-1.7-2.4l-1.5-10c-1.2-7.8-1.4-8.9-2-9.3l-2.1-1.8c-1.2-1-1.4-1.5-1.6-3.3l-.2-2 2 1.5 7.3 5 8.4 6c5.6 4.2 7.4 4.8 10.6 3.3 1.5-.7 12.4-7.6 12.4-8l-6 3.5c-7.8 4.6-9 5-11.2 4.1-3.4-1.5-13.5-9-12.6-9.3.2 0 .7-.4 1-.7.6-.4.6-.4-.4 0-1.4.7-2.3.8-1.5.1.4-.3.5-.6.4-.7-.1-.2 0-.2.4 0 .4.1.6 0 .5-.2 0-.3.1-.5.4-.6.3-.2.4 0 .2.2-.2.3-.1.4.1.2.3-.1.4-.4.3-.5-.1-.2.2-.6.7-.9a19.3 19.3 0 0 0 2.8-2.1c.7-.6.7-.6-.2-.4l-1.4.4c-.3.1-.2 0 .2-.3.3-.2 1.3-1 2-1.8 1.3-1.2 1.3-1.3.7-1.5-.7-.2-.7-.2 0-1l1.6-1.7 1.2-1.1c.3-.1.3-.3 0-.4a9 9 0 0 1-1-.7c-.5-.4-.6-.5-.2-1 .5-.5.4-.6-.4-.6-2.4 0-.5-1.2 9-5.6a54.1 54.1 0 0 1 11.8-4.9c2-.2 2.7.1 16.5 6 9.7 4 9.7 4 9.7 5.3 0 2.9-.6 4.3-2.2 5.7l-1.6 1.5-1.4 9.4a473 473 0 0 0-1.5 9.7c0 .2-.7 1-1.5 1.7l-1.6 1.2-2-1.2c-1.8-1.2-1.8-1.3-1.7-2.6.5-4.3 1.5-12.6 1.4-12.7l-11 7.4-11.1 7.5v10.7l.1 10.7-1.9 1.6c-1 .8-2.1 1.5-2.4 1.5-.3 0-1.3-.7-2.2-1.5zm40-49c.5-1 .2-1-1 0-1 .7-1 .8-.2.8.4 0 1-.3 1.2-.7z" style="fill:#b39f8d;stroke-width:.352778" transform="translate(-44.5 -173.2)"/>
  <path d="m74.4 241.7-1.8-1.5-1.1-19.5c0-1-.4-1.3-4-4-3.3-2.3-4-2.7-4-2.2-.1.4 0 3 .4 5.9l.5 5.7c0 .2-1 1-2.1 1.9l-2.1 1.4-1.6-1.3c-1.3-1-1.6-1.6-1.8-3-2.3-16.4-2.6-18.1-3.6-18.8-2.6-2-3.2-2.8-3.5-5l-.2-2 2 1.6 8.1 5.7c3.3 2.2 7.1 5 8.5 6 1.4 1.1 3.2 2.4 4.2 2.9 1.6.8 1.9.8 3.3.5 1-.2 2.5-1 3.6-1.5 2.1-1.2 10.2-6.5 10.8-7.1.5-.5.3-.4-5.8 3.3-7.8 4.6-9 5-11.2 4.1-3.4-1.5-13.5-9-12.6-9.3.2 0 .7-.4 1-.7.6-.4.6-.4-.4 0-1.4.7-2.3.8-1.5.1.4-.3.5-.6.4-.7-.1-.2 0-.2.4 0 .4.1.6 0 .5-.2 0-.3.1-.5.4-.6.3-.2.4 0 .2.2-.2.3-.1.4.1.2.3-.1.4-.4.3-.5-.1-.2.2-.6.7-.9a19.3 19.3 0 0 0 2.8-2.1c.7-.6.7-.6-.2-.4l-1.4.4c-.3.1-.2 0 .2-.3.3-.2 1.3-1 2-1.8 1.3-1.2 1.3-1.3.7-1.5-.7-.2-.7-.2 0-1l1.6-1.7 1.2-1.1c.3-.1.3-.3 0-.4a9 9 0 0 1-1-.7c-.5-.4-.6-.5-.2-1 .5-.5.4-.6-.4-.6-2.2 0-.6-1.1 6-4.2 11.7-5.5 13.8-6.4 15.4-6.4 1 0 4.2 1.2 11.7 4.3 11.5 4.8 13.5 5.8 13.8 6.5a9 9 0 0 1-.2 2.7c-.3 2-.5 2.4-2 3.6l-1.5 1.5-1 6.7a1703.5 1703.5 0 0 1-1.7 10.5c-.2 2.2-.3 2.4-1.6 3.4-.7.6-1.5 1-1.7 1l-2-.9c-1.9-1-1.8-.7-.9-9 .4-3.4.7-6.1.6-6.2l-11 7.4-11 7.5v21.3l-2 1.6c-1 .9-2 1.6-2.2 1.6a7 7 0 0 1-2.1-1.4zm31.7-27c.2-2.5.1-2.1-.4 1.2-.2 1-.2 1.7 0 1.6l.4-2.8zm.5-3.8c0-.2-.2 0-.2.5s.1.7.2.4v-.9zm7.6-18.2c.5-1.1.2-1.2-1-.2-1 .8-1 .9-.2.9.4 0 1-.3 1.2-.7z" style="fill:#d79765;stroke-width:.352778" transform="translate(-44.5 -173.2)"/>
  <path d="m74.4 241.7-1.8-1.5-1.1-19.5c0-1-.4-1.3-4-4-3.3-2.3-4-2.7-4-2.2-.1.4 0 3 .4 5.9l.5 5.7c0 .2-1 1-2.1 1.9l-2.1 1.4-1.6-1.3c-1.3-1-1.6-1.6-1.8-3-2.3-16.3-2.6-18.1-3.6-18.8-2.7-2-3.2-2.6-3.4-4.5-.1-1-.2-1.9 0-2a140.4 140.4 0 0 0 10.4 7.2l7.4 5.3c1.8 1.4 4 2.9 4.9 3.3 2.7 1.4 4.6.5 15.3-6.5a107 107 0 0 0 6.2-4.3c0-.4-1 .1-5.1 2.8a60.4 60.4 0 0 1-14 7.6c-1.1 0-3.5-1-5.7-2.6a46.5 46.5 0 0 1-5.5-4.3c0-.2.5-.6 1.1-.9 1.5-.8 1-1.2-.6-.4-1.4.6-3 .4-1.8-.3a18 18 0 0 0 3.7-2.8 17 17 0 0 1 4.2-3.5c.2 0 .5-.1.6-.3.2-.4-.5-.3-2 .3l-1.2.4 1-.7 1-.7c.2 0 .3-.2.3-.5s.5-1 1.1-1.4c1.3-1.1 1.3-1.4.1-1-1.4.6-1.3.2.2-.6 1.6-1 2.5-2.2 1.6-2.2-.4 0-.4-.1.2-1 .4-.5.7-1.2.7-1.4 0-.2.3-.5.7-.7 1-.6 1-1.1-.2-.7-.5.2-1 .3-1.1.1l.3-.1c.4 0 .4-.1 0-.4-.3-.2-.6-.5-.6-.8 0-.2-.3-.4-.7-.4-.5 0-.9-.2-1-.5-.1-.3 1.3-1.2 5-3 9-4.2 11.3-5.2 12.9-5.2 1 0 4.3 1.2 12.3 4.6 11.6 4.8 13.1 5.6 13.3 6.4 0 .4-.8 1.2-2.3 2.3-3 2-3.5 2.5-2 1.8 1-.5 2.6-.8 2.6-.5 0 .6-1 2.7-1.4 3.2-.5.5-1 2.7-1.8 7.5a2031 2031 0 0 1-1.6 10.5c-.2 2.2-.3 2.4-1.6 3.4-.7.6-1.5 1-1.7 1l-2-.9c-1.9-1-1.8-.7-.9-9 .4-3.4.7-6.1.6-6.2l-11 7.4-11 7.5v21.3l-2 1.6c-1 .9-2 1.6-2.2 1.6a7 7 0 0 1-2.1-1.4zm31.7-27c.2-2.5.1-2.1-.4 1.2-.2 1-.2 1.7 0 1.6l.4-2.8zm.5-3.8c0-.2-.2 0-.2.5s.1.7.2.4v-.9zm-26.5-23.2c.1-.1 0-.3-.2-.3s-.3.2-.3.3l.1.4.4-.4zm33.8 6.5c.4-2.2 1-2.8.5-.6-.1 1-.4 1.8-.6 2-.2.2-.1-.4 0-1.4z" style="fill:#c28c62;stroke-width:.352778" transform="translate(-44.5 -173.2)"/>
  <path d="m74.4 241.7-1.8-1.5-1.1-19.5c0-1-.4-1.3-4-4-3.3-2.3-4-2.7-4-2.2-.1.4 0 3 .4 5.9l.5 5.7c0 .2-1 1-2.1 1.9l-2.1 1.4-1.6-1.3c-1.3-1-1.6-1.6-1.8-3-2.3-16.4-2.6-18.1-3.6-18.8-2.5-1.9-3.2-2.8-3.5-4.7l-.2-2 2.8 2a6566.6 6566.6 0 0 0 20.2 14c2.7 1.4 4.4.6 16.3-7a152.3 152.3 0 0 0 7-5c-.5.4-1.4.8-1.8 1-.4 0-2 .9-3.6 2a66.5 66.5 0 0 1-7.5 4.4l-2.6 1.6c-1.3.9-3 1.8-3.8 2.2-1.5.5-1.6.5-3.2 0a40 40 0 0 1-9-6c-1-.3-.6-.7 2.4-2.4 1.4-.8 2.6-1.5 2.5-1.6a29 29 0 0 0-5.4 2.3c-.5.2-1 .4-1.4.2-.6-.2-.6-.2 0-.6a17 17 0 0 0 3.9-3 42 42 0 0 1 7.4-5.1c.2-.1.3-.3.2-.4-.1-.1-1.2.2-2.4.9a7 7 0 0 1-2.4.9c-.1-.1.4-.5 1-.8.8-.4 1.2-.8 1.1-1-.1-.4.5-1 1.6-1.7l1.8-1.2-4 1.4c-1 .5-.6 0 .9-.9l1.4-1c0-.2.3-.4.6-.5.4-.1.8-.5.9-.7.2-.4 0-.5-.7-.2-1.3.5-1.3.5 0-1.3a9 9 0 0 1 2.5-2.3c2-1 1-1.2-1-.3-1 .4-1.8.7-1.9.6 0-.1.2-.3.6-.4.6-.2.6-.3.2-1-.4-1-1-1.2-1.9-.6-.5.2-.6.1-.6-.3 0-.5.6-1 2.4-1.8l6.6-3.1c6.2-3 7-3.3 8.6-3.3 1 0 4.3 1.2 12.3 4.6 11.5 4.8 13.1 5.6 13.3 6.4 0 .4-1.6 1.7-5 4a83.5 83.5 0 0 0-5.2 3.5c0 .1 1.3-.5 2.8-1.4a22 22 0 0 1 4-1.9c1-.3 1-.3.8.5l-.3 1.1c0 .3-.3.7-.5 1-.2.2-.9 3.6-1.5 7.5a1230.6 1230.6 0 0 1-1.6 10.5c-.2 2.2-.3 2.4-1.6 3.4-.7.6-1.5 1-1.7 1l-2-.9c-1.9-1-1.8-.7-.9-9 .4-3.4.7-6.1.6-6.2l-11 7.4-11 7.5v21.3l-2 1.6c-1 .9-2 1.6-2.2 1.6a7 7 0 0 1-2.1-1.4zm31.7-27c.2-2.5.1-2.1-.4 1.2-.2 1-.2 1.7 0 1.6l.4-2.8zm.5-3.8c0-.2-.2 0-.2.5s.1.7.2.4v-.9zm-26-.3c.4-.4.4-.4.2 0s-.1.4.5.1c.4-.2.7-.5.7-.6h-.4l.3-.3a33.1 33.1 0 0 0 1.7-1.7c-.1.3 0 .4.4.2 1-.3 1.6-1 1.3-1.3-.2-.2 0-.2.1 0 .3 0 .5 0 .6-.3 0-.2.5-.4 1-.5.5 0 1.1-.5 1.5-.9.3-.4.6-.6.6-.4 0 .2.2 0 .4-.3.2-.4.5-.6.7-.4.2 0 .3 0 .3-.2l1.7-1.5c1.1-.7 1.6-1.2 1.4-1.4-.2-.1-.8 0-1.4.4-.5.4-1.6 1-2.5 1.4-1.6.7-1.6.7-1.2 0 .2-.3.5-.6.6-.5.1 0 .5 0 1-.4.3-.3.4-.5.1-.5l-.7-.1c-.2 0-.5-.2-.6-.4-.2-.2-.2-.2 0-.1a2 2 0 0 0 1.2-.7c1-1 .5-1-1.2-.1-1.4.8-2 .9-2 .3 0-.1.2-.3.4-.3.4 0 2.1-1.7 2.1-2l-1.1.4-1.1.6.8-.8c1-.8.8-.8-.5-.3l-1 .3.8-1 .8-1-1.4.4-2.3 1c-.4.2 0-.3.8-1 1.5-1.4 1.5-1.5.5-1.3l-1.2.4-1.9.9-1.7.6.9-1c.5-.5.8-1 .7-1.2 0-.2 0-.3.3-.2.2 0 .5-.2.5-.5 0-.2.2-.4.4-.4.3 0 .5 0 .5-.3 0-.1.6-.8 1.5-1.4 1.3-1 1.1-1.2-.5-.5-.5.2-.5 0-.4-.9 0-.6.4-1 .6-1 .3 0 .5-.2.5-.4s-.2-.3-.5-.2c-.7.3-.7-.2.2-1.2.7-.9.9-1.2.3-.9-.2.1-.3 0-.3-.3s.7-1.3 1.6-2.2c1.4-1.3 1.5-1.5.6-1.2-1.1.5-1.4.3-.6-.5.4-.4.4-.5 0-.6-.2 0-.2-.2.3-.5.5-.4.6-.5.1-.7-.6-.2-8.6 2.9-8.8 3.5v2.2c.2 1 .3 4 .2 6.5 0 2.7.1 4.6.3 4.6.2 0 .2.1 0 .4-.3.4-.5 2.6-.5 5.5 0 .5.2 1 .4 1.1.2.1.2.4 0 .7-.2.5-.1 2.4.2 2.8l1.1-.5 1-.6-.9.8-1 .7c-.5 0-.7 1.2-.3 1.6.4.6.7.7 1.3 0zm1.1-3c.1-.3.7-.8 1.4-1.2a104.7 104.7 0 0 0-1.4 1.1zm4.6-3c0-.2.3-.4.7-.6l.7-.2-.7.5-.7.2zm-2.8-2c.1-.3.4-.5.8-.6.3 0 .9-.3 1.2-.6.4-.4.8-.6 1-.6.4 0-.8 1-2.1 1.6-.7.4-1 .4-.9.1zm5.8 3.6c-.1-.4 0-.5.3-.4.3.2.8 0 1.1-.4a5 5 0 0 1 1.2-.8c.4-.2.4-.2-.1-.2-1 0-2.8.9-3.3 1.6-.3.5-.3.7.3.7.5 0 .6-.1.5-.5zM70.6 204c-.1 0-.4 0-.7.3-.3.3-.3.4.2.2.4-.2.6-.4.5-.5zm28.2-2.2c.1-.2-.2-.1-.7.2l-.9.8c0 .2 1.4-.6 1.6-1zm-8.3-.8-.3-.4c-.2-.1-.4 0-.4.2s.2.4.4.4l.3-.2zm13-2.2-.6.2-.8.6.8-.2.7-.6zm10.3-3.6.3-1.5c.3-.7.3-.7.3-.1 0 .4 0 1-.3 1.4-.1.4-.3.5-.3.2z" style="fill:#b58c69;stroke-width:.352778" transform="translate(-44.5 -173.2)"/>
  <path d="M74.3 241.6c-1.2-1-1.8-1.7-1.8-2.3a666.5 666.5 0 0 0-1-18.8c0-.8-.7-1.4-4-3.8a15 15 0 0 0-4.1-2.5c-.1.4.4 7 .9 10.6l.2 1.7-2.2 1.4-2.1 1.5-1.6-1.3a6 6 0 0 1-1.6-1.7c0-.6-2-15-2.5-17.4-.4-2-.5-2.2-2-3.3-2-1.4-2.4-2.2-2.7-4.3l-.3-1.7 2.4 1.6 7.4 5.2c2.8 1.9 6.5 4.5 8.2 5.9 4.2 3.3 5.8 4 7.8 3.8 2.3-.3 4.4-1.6 17.3-10a124.8 124.8 0 0 1 18.7-11.4c1-.3 1.1-.3 1 .5l-.4 1.2c-.1.7-1.5 2-2.6 2.7-.7.4-1.2 1-1.3 1.6a277.8 277.8 0 0 0-3 19 8 8 0 0 1-2-.9c-1.9-1-1.8-.7-.9-9 .4-3.4.7-6.1.6-6.2l-11 7.4-11 7.5v21.3l-2 1.6a7.6 7.6 0 0 1-2.3 1.6c-.2 0-1.1-.6-2-1.5zm2.1-5.1a82 82 0 0 1-.4-6.1c0-3.1-.3-5.6-.7-5.4-.4.2-.2 3.8.4 10.9l.3 4.8c0 1.1.1 1.1.4.4.2-.6.2-2.2 0-4.6zm-16.6-12.3a118 118 0 0 0-2.3-12.8c-.4-.4-.1 2.2 1 8.6 1 7.1 1.3 8.1 1.6 7.8 0 0 0-1.7-.3-3.6zm13.2-9.5a44 44 0 0 1-8.7-5.9c-1-.3-.6-.7 2.4-2.4 1.4-.8 2.6-1.5 2.5-1.6a29 29 0 0 0-5.4 2.3c-.5.2-1 .4-1.4.2-.6-.2-.6-.2 0-.6a17 17 0 0 0 3.9-3 42 42 0 0 1 7.4-5.1c.2-.1.3-.3.2-.4-.1-.1-1.2.2-2.4.9a7 7 0 0 1-2.4.9c-.1-.1.4-.5 1-.8.8-.4 1.2-.8 1.1-1-.1-.4.5-1 1.6-1.7l1.8-1.2-4 1.4c-1 .5-.6 0 .9-.9l1.4-1c0-.2.3-.4.6-.5.4-.1.8-.5.9-.7.2-.4 0-.5-.7-.2-1.3.5-1.3.5 0-1.3a9 9 0 0 1 2.5-2.3c2-1 1-1.2-1-.3-1 .4-1.8.7-1.9.6 0-.1.2-.3.6-.4.6-.2.6-.3.2-1-.4-1-1-1.2-1.9-.6-.5.2-.6.2-.6-.3s1.6-1.5 7.7-4.3c7-3.3 8-3.7 9.8-3.7 1.7 0 3.3.6 12.7 4.5 11.5 4.8 13 5.6 13 6.4a255 255 0 0 1-24.5 15.8A64.4 64.4 0 0 1 83 211l-2.4 1.5c-2 1.4-4.9 2.8-5.6 2.7l-1.9-.5zm7.6-4.1c.4-.4.4-.4.2 0s-.1.4.5.1c.4-.2.7-.5.7-.6h-.4l.3-.3a33.1 33.1 0 0 0 1.7-1.7c-.1.3 0 .4.4.2 1-.3 1.6-1 1.3-1.3-.2-.2 0-.2.1 0 .3 0 .5 0 .6-.3 0-.2.5-.4 1-.5.5 0 1.1-.5 1.5-.9.3-.4.6-.6.6-.4 0 .2.2 0 .4-.3.2-.4.5-.6.7-.4.2 0 .3 0 .3-.2l1.7-1.5c1.1-.7 1.6-1.2 1.4-1.4-.2-.1-.8 0-1.4.4-.5.4-1.6 1-2.5 1.4-1.6.7-1.6.7-1.2 0 .2-.3.5-.6.6-.5.1 0 .5 0 1-.4.3-.3.4-.5.1-.5l-.7-.1c-.2 0-.5-.2-.6-.4-.2-.2-.2-.2 0-.1a2 2 0 0 0 1.2-.7c1-1 .5-1-1.2-.1-1.4.8-2 .9-2 .3 0-.1.2-.3.4-.3.4 0 2.1-1.7 2.1-2l-1.1.4-1.1.6.8-.8c1-.8.8-.8-.5-.3l-1 .3.8-1 .8-1-1.4.4-2.3 1c-.4.2 0-.3.8-1 1.5-1.4 1.5-1.5.5-1.3l-1.2.4-1.9.9-1.7.6.9-1c.5-.5.8-1 .7-1.2 0-.2 0-.3.3-.2.2 0 .4-.1.5-.4 0-.2.1-.4.3-.5.2 0 .6-.4 1-.8.3-.4 1.1-1 1.7-1.4 1-.5 1-.6.3-.4-.5 0-1.1.3-1.5.4-.5.2-.6.1-.4-.3.1-.3.4-.5.5-.4.2.1.4 0 .5-.2.2-.2 0-.3-.4-.3-.5 0-.5-.2.3-.8.8-.7.8-.7 0-.5-1 .2-1-.3 0-1.1.7-.6 1-1.4.3-1-.2.1-.3 0-.3-.3s.7-1.3 1.6-2.2c1.4-1.3 1.5-1.5.6-1.2-1.1.5-1.4.3-.6-.5.4-.4.4-.5 0-.6-.2 0-.2-.2.3-.5.5-.4.6-.5.1-.7-.6-.2-8.6 2.9-8.8 3.5v2.2c.2 1 .3 4 .2 6.5 0 2.7.1 4.6.3 4.6.2 0 .2.1 0 .4-.3.4-.5 2.6-.5 5.5 0 .5.2 1 .4 1.1.2.1.2.4 0 .7-.2.5-.1 2.4.2 2.8l1.1-.5 1-.6-.9.8-1 .7c-.5 0-.7 1.2-.3 1.6.4.6.7.7 1.3 0zm1.1-3c.1-.3.7-.8 1.4-1.2a104.7 104.7 0 0 0-1.4 1.1zm4.6-3c0-.2.3-.4.7-.6l.7-.2-.7.5-.7.2zm-2.8-2c.1-.3.4-.5.8-.6.3 0 .9-.3 1.2-.6.4-.4.8-.6 1-.6.4 0-.8 1-2.1 1.6-.7.4-1 .4-.9.1zm5.8 3.6c-.1-.4 0-.5.3-.4.3.2.8 0 1.1-.4a5 5 0 0 1 1.2-.8c.4-.2.4-.2-.1-.2-1 0-2.8.9-3.3 1.6-.3.5-.3.7.3.7.5 0 .6-.1.5-.5zM70.6 204c-.1 0-.4 0-.7.3-.3.3-.3.4.2.2.4-.2.6-.4.5-.5zm19.9-3-.3-.4c-.2-.1-.4 0-.4.2s.2.4.4.4l.3-.2zm23.3-6c0-.5.1-.5.2-.3v.7c-.1.1-.2 0-.2-.5zm.4-1.5c0-.4 0-.5.2-.2v.7c-.2.1-.2 0-.2-.5z" style="fill:#c4895c;stroke-width:.352778" transform="translate(-44.5 -173.2)"/>
  <path d="M74.3 241.6c-1.2-1-1.8-1.7-1.8-2.3a666.5 666.5 0 0 0-1-18.8c0-.8-.7-1.4-4-3.8a15 15 0 0 0-4.1-2.5c-.1.4.4 7 .9 10.6l.2 1.7-2.2 1.4-2.1 1.5-1.6-1.3a6 6 0 0 1-1.6-1.7c0-.6-2-15-2.5-17.4-.4-2-.5-2.2-2-3.3-2-1.4-2.4-2.2-2.7-4.3l-.3-1.7 2.4 1.6 7.4 5.2c2.8 1.9 6.5 4.5 8.2 5.9 5.4 4.3 7 4.7 11.1 2.7a177.8 177.8 0 0 0 18.5-12.4c.2.1 2.4-1 4.8-2.6a46 46 0 0 1 9.5-5.3c1.5 0 .1 3-1.8 4.2-.9.6-1.5 1.2-1.6 1.8a278 278 0 0 0-3 19 8 8 0 0 1-2-.9c-1.9-1-1.8-.7-.9-9 .4-3.4.7-6.1.6-6.2l-11 7.4-11 7.5v21.3l-2 1.6a7.6 7.6 0 0 1-2.3 1.6c-.2 0-1.1-.6-2-1.5zm2.1-5.1a82 82 0 0 1-.4-6.1c0-3.1-.3-5.6-.7-5.4-.4.2-.2 3.8.4 10.9l.3 4.8c0 1.1.1 1.1.4.4.2-.6.2-2.2 0-4.6zm-16.6-12.3a118 118 0 0 0-2.3-12.8c-.4-.4-.1 2.2 1 8.6 1 7.1 1.3 8.1 1.6 7.8 0 0 0-1.7-.3-3.6zm12.9-9.8c-1-.4-2-1-2.5-1.4-.6-.5-.6-.5.6-1.3l1.4-.9c0-.1-1.2.3-1.6.6-.4.3-1.4.4-2.3.4-.4 0-.4-.2 0-.7.4-.5.4-.5 0-.3-.3.2-.4.2-.2 0 .1-.3.5-.5.8-.4.3 0 .8-.4 1.1-1 .4-.7.7-1 .8-1 .1.1.3 0 .4-.4.2-.4.1-.5-.3-.4-.2.1-.6 0-.7-.2-.2-.2-.1-.3.1-.1.3.1.4 0 .4-.2s.1-.3.3-.2c.2.3 1.5-.9 1.3-1.2-.1-.2.1-.2.5 0 .3 0 .5 0 .3-.1-.1-.2 0-.5.4-.8 1-.8-.2-.5-2 .4-2.1 1-2.8 1.2-1.3.2a5 5 0 0 0 1.3-1.3 7 7 0 0 1 1.5-1.2l1-.7-1.2.2c-1.2.2-1.3.2-1.1-.5.1-.4.4-.9.6-1 .2-.1.2 0 0 .3s-.1.3.2.1c.2-.1.3-.5.2-.8-.1-.3 0-.4.4-.3.3.1.4 0 .3-.1-.2-.4.7-1.4 2.5-2.7l1-.8-1 .2-1.1.2 1.4-1.7 1.4-1.7-1 .2-1 .2 1-1c1.2-.9 1.6-1.9.7-1.5-.4.2-.4-.1.2-1.2.4-.8 1-1.5 1-1.5.2 0 .4.7.4 1.5 0 5.7.1 7.7.4 7.7.2 0 .2.2 0 .5-.5.5-.8 6.1-.4 6.4.1 0 .2 1.4.2 3-.1 2.2 0 2.8.4 3 .3 0 .8 0 1-.3.5-.4.6-.4.3 0-.2.4-.1.4.5.1.8-.4 1-1 .3-.5-.2 0 0-.2.4-.6l1.4-1.3c.2-.4.4-.4.2-.2 0 .3 0 .3.6.2.3 0 .7-.3.7-.4 0-.1.4-.5 1-.9.6-.3 1-.4 1-.2s.3.4.5.3c2-.2 1.5.5-1.8 2.5l-2.7 1.4-2.3 1.4a20.7 20.7 0 0 1-5.9 2.9l-2-.9zm14-7.1-.8.2c-.4.2-.7.5-.7.6l.7-.2.7-.6zm-17.3 1.3c-.4-.2-.4-.3 0-.5.3-.1.5 0 .5.3v.5l-.5-.3zm10.2 0c1.2-.9 1.9-1.1 1-.4-.5.4-1 .7-1.2.7-.2 0-.1-.2.2-.4zm2-1.3.8-.5.7-.2-.7.5c-.4.3-.7.3-.7.2zm13.2-4.9c-.5-.3-.6-.6-.4-1 .7-1 .4-1.4-.7-.8-.8.4-1 .4-1.4 0-.4-.2-.4-.2-.2.2.1.3 0 .2-.4-.2-.5-.5-.7-.8-.4-1.1.6-.7-.6-.6-2.3.3l-1.5.7 1.2-1.3c.8-.8 1-1.2.7-1.1-.4.1-.7 0-.7-.1 0-.2-.1-.4-.3-.4-.2 0-.3.3-.1.6.1.5 0 .6-.2.2a.8.8 0 0 0-1-.3c-.4.2-.4 0 .2-.8l.8-1-1.4.4-2.3 1c-.4.2 0-.3.8-1 1.5-1.4 1.5-1.5.5-1.3l-1.2.4-1.9.9-1.7.6.9-1c.5-.5.8-1 .7-1.2 0-.2 0-.3.3-.2.2 0 .4-.1.5-.4 0-.2 0-.4.2-.3.1 0 .6-.3 1-.8.4-.6 1.2-1.2 1.8-1.6 1-.5 1-.6.3-.4-.5 0-1.1.3-1.5.4-.5.2-.6.1-.4-.3.1-.3.4-.5.5-.4.2.1.4 0 .5-.2.2-.2 0-.3-.4-.3-.5 0-.5-.2.3-.8.8-.7.8-.7 0-.5-1 .2-1-.3 0-1.1.7-.6 1-1.4.3-1-.2.1-.3 0-.3-.3s.7-1.3 1.6-2.2c1.4-1.3 1.5-1.5.6-1.2-1.1.5-1.4.3-.6-.5.4-.4.4-.5 0-.6-.2 0-.2-.2.3-.5.5-.4.6-.5.1-.7-.8-.3-8.3 2.8-9.4 3.9-.9.9-1.8 1-2 .3a25 25 0 0 1 5.4-3c7.8-3.6 6.7-3.7 20.2 2 11.5 4.7 13 5.5 13 6.3 0 .5-3.2 2.7-11.5 8.1a35 35 0 0 1-5.8 3.2c-1.7 1-1.6 1-2.7.4zm19-7.5c0-.4.1-.4.2-.2v.7c-.1.1-.2 0-.2-.5zm.4-1.4c0-.4 0-.5.2-.2v.7c-.2.1-.2 0-.2-.5zM77.5 188c.3-.2.4-.9.4-1.5-.1-.9 0-1 .4-.5.9.7.7 1.6-.4 2-.8.4-.9.4-.4 0z" style="fill:#ba845a;stroke-width:.352778" transform="translate(-44.5 -173.2)"/>
  <path d="M74.3 241.6c-1.2-1-1.8-1.7-1.8-2.3a666.5 666.5 0 0 0-1-18.8c0-.8-.7-1.4-4-3.8a15 15 0 0 0-4.1-2.5c-.1.4.4 7 .9 10.6l.2 1.7-2.2 1.4-2.1 1.5-1.6-1.3-1.5-1.3-1-6.7c-1.8-12.8-1.8-13-3-13.8-2.2-1.7-3-2.8-3.3-4.6a9 9 0 0 1-.1-1.8c.1-.1 13.6 9.4 17.4 12.2 4.7 3.6 6.2 4.4 8.2 4 2.3-.2 4.4-1.5 16.3-9.2 12-7.8 17-10.9 18.4-11.2 1-.2 1-.2.8 1a5 5 0 0 1-1.5 2.3l-1.2 1.2-1.4 8.3a129.4 129.4 0 0 0-1.8 11.3 8 8 0 0 1-1.9-.9c-1.9-1-1.8-.7-.9-9 .4-3.4.7-6.1.6-6.2l-11 7.4-11 7.5v21.3l-2 1.6a7.6 7.6 0 0 1-2.3 1.6c-.2 0-1.1-.6-2-1.5zm2.1-5.1a82 82 0 0 1-.4-6.1c0-3.1-.3-5.6-.7-5.4-.4.2-.2 3.8.4 10.9l.3 4.8c0 1.1.1 1.1.4.4.2-.6.2-2.2 0-4.6zm-16.6-12.3a118 118 0 0 0-2.3-12.8c-.4-.4-.1 2.2 1 8.6 1 7.1 1.3 8.1 1.6 7.8 0 0 0-1.7-.3-3.6zm41-24.8c0-.2-.5-.2-1-.2-.4.1-.8 0-.8-.2s.2-.3.4-.3.3-.1.2-.3c-.2 0 0-.6.5-1 1-1 .5-1-1-.1-1.3.7-2 .9-1.7.3.1-.2-.1-.2-.7 0-.6.3-.9.3-.7 0 0-.2 0-.3-.2-.3-.3 0-.3-.1 0-.5.3-.5.2-.5-1-.4l-1.6.4c-.5.3.5-1 1-1.4.2-.1.1-.2-.2-.3-.4 0-.3 0 .2-.5.8-.6.5-.7-.5-.2-.3.2-.8.2-1 0-.4-.2-.3-.4.5-.8 1.5-.8 1-.7-1.7.3l-2.2 1 1-1c1.1-.8.8-1.4-.7-1-.8.1-.8.1-.3-1.2a5 5 0 0 1 1.2-1.9c1-.8.9-1-.2-.6s-1.5.4-.9 0c.3-.2.6-.5.6-.7l.1-.5c.4-.4.2-1.3-.2-1.3-.5 0-.5 0 0-.7.3-.3.6-.9.6-1.2 0-.3.4-.8.8-1.2l1.2-1.3c.3-.6.2-.8-.7-1.3-2.3-1.2-2.9-1.1-6.7.4-3.5 1.4-5.1 1.8-2.3.5l3.4-1.4c3.1-1.4 2.5-1.6 18.2 5 4.9 2 9.2 4 9.7 4.3 1.2 1 1 1.1-3.8 4.1l-4 2.7c-.3.5-5.6 3.2-5.6 2.8zm-8-3.9c.1-.2.4-.3.6-.3.2 0 .2.1.1.3-.1.2-.4.4-.6.4-.2 0-.2-.2-.1-.4z" style="fill:#987c61;stroke-width:.352778" transform="translate(-44.5 -173.2)"/>
  <path d="m74.2 241.3-1.6-1.5-.4-7.2c-.4-6.4-.3-7.3.1-7.6.7-.3.7-1.8 0-2.3-.3-.3-.6-1-.7-1.8-.2-1.3-.6-1.6-4.1-4.2-2.1-1.6-4-2.8-4-2.7-.3.2.4 8.4.8 11.2.2 1.2.1 1.3-1.7 2.5-1 .7-2 1.2-2.1 1.1a90.6 90.6 0 0 0-2.1-15.1c-.8-3.5-1.4-5-1.4-3.4v.9l-1-1a6.4 6.4 0 0 1-1.5-2.2c-.2-.7-1-1.7-2.3-2.6-1.7-1.3-1.9-1.6-2.3-3.4l-.3-2c.2-.2 13.3 9 17.5 12.2 4.7 3.5 6 4.2 7.7 4.2 2 0 3.8-1 17-9.6a126.3 126.3 0 0 1 18.2-11.1c1-.2 1-.2.8 1a5 5 0 0 1-1.6 2.3c-1.2 1.1-1.4 1.6-1.7 3.6a811 811 0 0 1-2.4 14.8c0 1.2-.2 2.3-.3 2.4-.3.3-3.4-2-3.4-2.5l.8-7c.4-3.5.6-6.5.5-6.6a58 58 0 0 0-6.3 4c-3.3 2.4-8.3 5.7-11 7.5l-4.8 3.3v1.9c0 1.8-.4 2.8-.8 1.8-.1-.3-.4 8.6-.3 9.7 0 0-.2.2-.5.2-.4 0-.5-.3-.3-1.3l.4-2.4c0-.6 0-1.2-.2-1.3-.2-.1-.4.2-.4 1l-.2 3.5c0 2 0 2.4.5 2.3.3 0 .7-.3.8-.5.2-.2.3 0 .3.2 0 .3 0 .7-.2.8-.4.4-.1 5.3.3 5.6.2.2-2.2 2.4-2.7 2.4l-.1-6.1c0-3.4-.1-6.3-.3-6.5-.1-.3 0-.7.4-1 .6-.4.6-.5 0-.3-.5.2-.6 0-.6-1.3 0-2.2-.3-4.2-.7-4-.2.1-.3 0-.3-.4s-.3-.2-.6.6c-.7 1.6-1.3 2-1.6 1-.2-.8-.2-.8-.2.1 0 .7.1 1 .4 1 .3 0 .6.3.6.6s0 .9.2 1.2l.3 1.2.4 6a70 70 0 0 0 .7 8.2l-1.7-1.4zm5-2.6-.1-.5c-.1 0-.3.2-.4.5 0 .3 0 .6.2.6s.3-.3.3-.6zm-1.2-1c0-.2-.2-.1-.2.3s.1.6.2.4v-.6zm0-1.9c0-.3-.1-.1-.1.5 0 .5 0 .8.1.6a2 2 0 0 0 0-1zm.9-9.8c0-.3-.2-.5-.4-.5s-.2.2-.1.5c0 .3.2.6.3.6l.2-.6zm-20.6 1.7c-1.2-1.3-1.3-1.4-2-6.9-.4-3-.7-5.7-.6-5.9.4-.5 1.2 0 1.6 1 .2.5.7 3 1.1 5.7a147.8 147.8 0 0 0 1.3 7.4l-1.4-1.3zm42.4-28.3c0-.2-.4-.2-.8-.2-.5.1-1 0-1-.2s.3-.3.5-.3.3-.1.2-.3c-.2 0 0-.6.5-1 1-1 .5-1-1-.1-1.3.7-2 .9-1.7.3.1-.2-.1-.2-.7 0-.6.3-.9.3-.7 0 0-.2 0-.3-.2-.3-.3 0-.3-.1 0-.5.3-.5.2-.5-1-.4l-1.6.4c-.5.3.5-1 1-1.4.2-.1.1-.2-.2-.3-.4 0-.3 0 .2-.5.8-.6.5-.7-.5-.2-.3.2-.8.2-1 0-.4-.2-.3-.4.5-.8 1.5-.8 1-.7-1.7.3l-2.2 1 1-1c1.1-.8.8-1.4-.7-1-.8.1-.8.1-.3-1.2a5 5 0 0 1 1.2-1.9c1-.8.9-1-.2-.6s-1.5.4-.9 0c.3-.2.6-.5.6-.7l.1-.5c.4-.4.2-1.3-.2-1.3-.5 0-.5 0 0-.7.3-.3.6-.9.6-1.2 0-.3.4-.8.8-1.2l1.2-1.3c.3-.6.2-.8-.7-1.3-2.3-1.2-2.9-1.1-6.7.4-3.5 1.4-5.1 1.8-2.3.5l3.4-1.4c3.1-1.4 2.5-1.6 18.2 5 4.9 2 9.2 4 9.7 4.3 1.2 1 1 1.1-3.8 4.1l-4 2.7c-.3.5-5.6 3.2-5.6 2.8zm-7.9-3.9c.1-.2.4-.3.6-.3.2 0 .2.1.1.3-.1.2-.4.4-.6.4-.2 0-.2-.2-.1-.4z" style="fill:#aa7852;stroke-width:.352778" transform="translate(-44.5 -173.2)"/>
  <path d="m74.2 241.3-1.6-1.5-.4-7.2c-.4-6.4-.3-7.3.1-7.6.7-.3.7-1.8 0-2.3-.3-.3-.6-1-.7-1.8-.2-1.3-.6-1.6-4.1-4.2-2.1-1.6-4-2.8-4-2.7-.3.2.4 8.4.8 11.2.2 1.2.1 1.3-1.7 2.5-1 .7-2 1.2-2.1 1.1a90.6 90.6 0 0 0-2.1-15.1c-.8-3.5-1.4-5-1.4-3.4v.9l-1-1a6.4 6.4 0 0 1-1.5-2.2c-.2-.7-1-1.7-2.3-2.6-1.6-1.2-1.9-1.6-2.2-3.2-.6-2.6-.6-2.6 1.1-1.3l5.2 3.6 9.3 6.7a60 60 0 0 0 7.2 4.8c2.7 1.3 3.6.8 17.7-8.3 14.5-9.4 17.3-11.1 18.7-11.1.7 0 .7 0 .1 1.1-.3.6-.7 1.4-1 1.7-.2.3-.6 1.7-.8 3.2l-1.3 7.4a118 118 0 0 0-1.4 9.8c-.3.3-3.4-2-3.4-2.5l.8-7c.4-3.5.6-6.5.5-6.6a58 58 0 0 0-6.3 4c-3.3 2.4-8.3 5.7-11 7.5l-4.8 3.3v1.9c0 1.8-.4 2.8-.8 1.8-.1-.3-.4 8.6-.3 9.7 0 0-.2.2-.5.2-.4 0-.5-.3-.3-1.3l.4-2.4c0-.6 0-1.2-.2-1.3-.2-.1-.4.2-.4 1l-.2 3.5c0 2 0 2.4.5 2.3.3 0 .7-.3.8-.5.2-.2.3 0 .3.2 0 .3 0 .7-.2.8-.4.4-.1 5.3.3 5.6.2.2-2.2 2.4-2.7 2.4l-.1-6.1c0-3.4-.1-6.3-.3-6.5-.1-.3 0-.7.4-1 .6-.4.6-.5 0-.3-.5.2-.6 0-.6-1.3 0-2.2-.3-4.2-.7-4-.2.1-.3 0-.3-.4s-.3-.2-.6.6c-.7 1.6-1.3 2-1.6 1-.2-.8-.2-.8-.2.1 0 .7.1 1 .4 1 .3 0 .6.3.6.6s0 .9.2 1.2l.3 1.2.4 6a70 70 0 0 0 .7 8.2l-1.7-1.4zm5-2.6-.1-.5c-.1 0-.3.2-.4.5 0 .3 0 .6.2.6s.3-.3.3-.6zm-1.2-1c0-.2-.2-.1-.2.3s.1.6.2.4v-.6zm0-1.9c0-.3-.1-.1-.1.5 0 .5 0 .8.1.6a2 2 0 0 0 0-1zm.9-9.8c0-.3-.2-.5-.4-.5s-.2.2-.1.5c0 .3.2.6.3.6l.2-.6zm-20.6 1.7c-1.2-1.3-1.3-1.4-2-6.9-.4-3-.7-5.7-.6-5.9.4-.5 1.2 0 1.6 1 .2.5.7 3 1.1 5.7a147.8 147.8 0 0 0 1.3 7.4l-1.4-1.3zm47.9-32.3c-.4-.3-.7-.6-.6-.9 0-.2.3-.3.5-.2.1.1.3 0 .3-.2a11 11 0 0 1 2.7-2l3.3-2.2c.7-.5 2-.2 2 .5 0 .5-3.2 2.8-6.3 4.6-1 .6-1.3.7-2 .4zm-2.1-1.8c.3-.3.7-.9.8-1.3 0-.4.4-1 .9-1.4 2.4-2 3.1-3 .9-1.4-.6.4-1.2.6-1.4.5-.3-.2-.3 0-.2.2.2.3.2.4-.2.3-.2-.1-1.5.4-2.8 1-1.2.7-2 1-1.6.7.4-.3.6-.7.4-.9-.2-.4 2.3-2.1 3.2-2.1.3 0 .5-.2.5-.3 0-.2.7-.7 1.6-1.2l1.5-.8 2.3 1a9 9 0 0 1 2.4 1.2 30.4 30.4 0 0 1-6.3 3.7l-1.7.9c-1 .4-1 .4-.3-.1zm-2-2.9c-.1 0-.3.1-.5.5-.2.5-.1.5.2.2.3-.3.4-.6.3-.7zm7.1-2.2c0-.2-.2-.4-.4-.4-.1 0-.3.2-.3.4l.3.3c.2 0 .4-.2.4-.3zm-12.8 2a7 7 0 0 1 2.2-1.5c1.2-.5 2.7-1.4 3.4-2 .7-.6 1.2-1 1.2-.8l.4-.1c.5-.5 1.4-.6 1.4-.2 0 .2-1.7 1.3-3.8 2.4-4.5 2.5-5 2.7-4.8 2.1zm-1.7-1.3-.1-1.1c0-.3 1-1 2.4-1.8 4-2.3 3.8-2.2 5.3-1.6l1.4.6-3.9 2-4.2 2.2c-.5.6-.9.4-1-.3zm8.3-.8c-.1-.1 0-.3.2-.3s1-.4 1.6-1c.8-.5 1.4-.8 1.8-.6.6.2.6.3-.2.7-.5.3-1.1.4-1.4.3-.3-.1-.4 0-.3.1.1.2-.1.6-.6.8-.6.2-1 .3-1 0zm-8.6-2.3c0-.4.2-.9.4-1.1.3-.3.3-.4 0-.4-.2 0-.4-.7-.4-1.6v-1.6l1.7.7 2.8 1.2 1.2.5-2.6 1.4-2.9 1.5-.2-.6z" style="fill:#a7744e;stroke-width:.352778" transform="translate(-44.5 -173.2)"/>
  <path d="m74.2 241.3-1.6-1.5-.4-7.2c-.4-6.4-.3-7.3.1-7.6.7-.3.7-1.8 0-2.3-.3-.3-.6-1-.7-1.8-.2-1.3-.6-1.6-4.1-4.2-2.1-1.6-4-2.8-4-2.7-.3.2.4 8.4.8 11.2.2 1.2.1 1.3-1.7 2.5-1 .7-2 1.2-2.1 1.1a90.6 90.6 0 0 0-2.1-15.1c-.8-3.5-1.4-5-1.4-3.4v.9l-1-1a6.4 6.4 0 0 1-1.5-2.2c-.2-.7-1-1.7-2.3-2.6-1.6-1.2-1.9-1.6-2.2-3.2-.6-2.5-.5-2.7.4-1.9a335.2 335.2 0 0 1 15.3 10.8c2.8 2.2 6 4.4 6.8 5 1.5.7 1.7.8 3 .4 2-.6 4.8-2 8.1-4.2l9.6-6.3c10.5-7 13.5-8.5 13.5-7.2 0 .3-.1.6-.3.7-.2.2-.6.7-.8 1.3l-.6 1 1.4-.8c1.6-1 1.6-1.1.9 3.1a209.4 209.4 0 0 0-2.5 15.7c-.3.3-3.4-2-3.4-2.5l.8-7c.4-3.5.6-6.5.5-6.6a58 58 0 0 0-6.3 4c-3.3 2.4-8.3 5.7-11 7.5l-4.8 3.3v1.9c0 1.8-.4 2.8-.8 1.8-.1-.3-.4 8.6-.3 9.7 0 0-.2.2-.5.2-.4 0-.5-.3-.3-1.3l.4-2.4c0-.6 0-1.2-.2-1.3-.2-.1-.4.2-.4 1l-.2 3.5c0 2 0 2.4.5 2.3.3 0 .7-.3.8-.5.2-.2.3 0 .3.2 0 .3 0 .7-.2.8-.4.4-.1 5.3.3 5.6.2.2-2.2 2.4-2.7 2.4l-.1-6.1c0-3.4-.1-6.3-.3-6.5-.1-.3 0-.7.4-1 .6-.4.6-.5 0-.3-.5.2-.6 0-.6-1.3 0-2.2-.3-4.2-.7-4-.2.1-.3 0-.3-.4s-.3-.2-.6.6c-.7 1.6-1.3 2-1.6 1-.2-.8-.2-.8-.2.1 0 .7.1 1 .4 1 .3 0 .6.3.6.6s0 .9.2 1.2l.3 1.2.4 6a70 70 0 0 0 .7 8.2l-1.7-1.4zm5-2.6-.1-.5c-.1 0-.3.2-.4.5 0 .3 0 .6.2.6s.3-.3.3-.6zm-1.2-1c0-.2-.2-.1-.2.3s.1.6.2.4v-.6zm0-1.9c0-.3-.1-.1-.1.5 0 .5 0 .8.1.6a2 2 0 0 0 0-1zm.9-9.8c0-.3-.2-.5-.4-.5s-.2.2-.1.5c0 .3.2.6.3.6l.2-.6zm-20.6 1.7c-1.2-1.3-1.3-1.4-2-6.9-.4-3-.7-5.7-.6-5.9.4-.5 1.2 0 1.6 1 .2.5.7 3 1.1 5.7a147.8 147.8 0 0 0 1.3 7.4l-1.4-1.3z" style="fill:#8f6f54;stroke-width:.352778" transform="translate(-44.5 -173.2)"/>
  <path d="M73.6 240.8c-.7-.8-.7-.9-.1-.4.7.7.7.7.8-.3.1-.7.2-.8.4-.5v1.4l-.3.8-.8-1zm-13-13.7a53.2 53.2 0 0 0-3.7-17.7c-.2 0-1.6-1.1-3-2.5a20.2 20.2 0 0 0-3-2.6c-.2 0-.7-1.3-1.1-3.3-.2-.9.1-.7 4.8 2.5l9.6 6.8c4 2.8 5.4 4 9 7.3.6.5 1.8.7 1.3.3-.4-.5.5-1.2 1.8-1.6 1.8-.5 5.1-2.4 16.4-9.8 8.5-5.5 10-6.3 10.5-6 .6.4.6.5.1 1-.3.4-.4.8-.3 1 .3.5-1.5 1.8-13 9.6l-11 7.6c-1.1.8-2.2 1.4-2.4 1.3-.5-.3-2 1-2 1.7-.2.8-.3.8-1.7-.7a6.9 6.9 0 0 1-1.5-2c0-.6-6.9-5.8-7.9-6-.2-.1-.2 1.8.2 6.1.3 3.5.6 6.4.5 6.5l-1.8 1.2-1.7 1.1zm42.6-8.2a12 12 0 0 0-1.5-1c-.2 0 0-3 .4-6.8l.8-7.3c0-.4 4.5-3.5 4.7-3.3 0 0-.2 2.2-.7 4.7-1.1 6-2 11.2-2 12.6 0 1.8-.3 2-1.7 1.1z" style="fill:#7c6148;stroke-width:.352778" transform="translate(-44.5 -173.2)"/>
  <path d="M61.7 221.4c.2-1.4.1-2-.1-1.6-.4.6-.5.5-.5-1 0-.5-.2-.9-.5-.8-.3 0-.4-.1-.3-.6.2-.5.1-.7-.2-.7-.4 0-.8-1.1-1.4-3.4-1-4-.8-3.7-2.4-4.8-3-2-5.6-4.4-6-5.4-1-3.3-1.2-3.3 4.3.4l9.6 6.8c4 2.8 5.4 4 9 7.3.7.5 1.6.7 1.3.2-.3-.5.4-1 1.9-1.4 1.9-.6 5.4-2.8 16.3-9.9 8.5-5.5 10-6.3 10.5-6 .6.4.6.5.1 1-.3.4-.4.8-.3 1 .3.4-1.4 1.7-9.1 7-3.2 2-7.7 5.2-10.1 6.8-5 3.5-7 4.6-8.2 4.6a2 2 0 0 0-1.3.4c-.3.4-.6.3-1.1-.3-.4-.5-.7-.8-.7-.6a87.5 87.5 0 0 0-9.4-6.8s0 1.3.3 2.7c.4 4.2.4 4.7-.3 4.3-.6-.3-.7-.2-.7.5 0 .4-.3 1.1-.5 1.6-.3.7-.3.4-.2-1.3zm41.8-2.3c-.4-.2-.6-.5-.6-.8 0-.2 0-.2.3.1.3.5.3.5.4 0 0-.3.1-.3.3.2.3.6.3.6.3-.2 0-.7 0-1-.4-.8-.4.1-.5-.1-.5-1 0-1.7-.4-2.8-1-2.6-.4.1-.5 0-.4-.6l.6-5.5.5-4.6 2.2-1.4 2.4-1.5-.7 4c-.5 2.2-1 5.8-1.4 8.1a13 13 0 0 1-1 4l-.4.1c-.1.2 0 .5.2.6.4.3.5 2.3 0 2.3l-.8-.4zm-43.5-.3c-.1-.2 0-.4.1-.4.2 0 .4.2.4.4l-.1.3-.4-.3z" style="fill:#845b41;stroke-width:.352778" transform="translate(-44.5 -173.2)"/>
  <path d="M61.7 221.4c.2-1.4.1-2-.1-1.6-.4.6-.5.5-.5-1 0-.5-.2-.9-.5-.8-.3 0-.4-.1-.3-.6.2-.5.1-.7-.2-.7-.3 0-.7-1-1.1-2.4l-1-3.6a3 3 0 0 0-1.4-2c-.6-.3-1.6-1-2.2-1.6l-2.6-2.2c-.8-.7-1.5-1.6-1.4-2l-.3-1.4c-.2-.6-.1-.7.2-.5l1 1c.2.3.7.6 1.1.6.4 0 1.3.5 2.2 1.1a174 174 0 0 1 14.1 10.1c1 .8 1.4 1.5 1.5 2.4.1.8.4 1.6.6 2 .5 1-.6.4-4.2-2.3a27 27 0 0 0-3.4-2.3l.2 2.7c.4 4.2.4 4.7-.3 4.3-.6-.3-.7-.2-.7.5 0 .4-.3 1.1-.5 1.6-.3.7-.3.4-.2-1.3zm11.6-.2c-.6-.6-.5-1.2 0-.7 1 .8 1.7.2 1.7-1.3 0-1.7.3-2.5.8-2.5l3-1.2a12 12 0 0 1 3.3-1.1c.4 0 1.3-.6 2.4-1.6 2.5-2.6 10-7.1 10.4-6.4.1.2-.3.7-.9 1.2-.6.5-1 1-1 1.3 0 .2-.3.4-.6.4-.2 0-.5.1-.5.3 0 .2.3.3.6.1.4 0-.1.4-1.1 1-1 .7-2 1.2-2.3 1.1-.3-.1-.4 0-.2.2.2.4-2.2 2.3-2.7 2-.2-.1-.3 0-.3.2s-.1.3-.3.2c-.2-.1-.4 0-.3.2 0 .3-.2.5-.6.5-.8 0-2.3.8-2.3 1 0 .2.5 0 1-.3 1.5-.8 1.4-.5-.2.6l-2.4 1.9a11.8 11.8 0 0 1-5.3 2.6c-.4 0-1 .2-1 .4-.3.4-.7.4-1.2-.1zm30.2-2c-.4-.3-.6-.6-.6-.9 0-.2 0-.2.3.1.3.5.3.5.4 0 0-.3.1-.3.3.2.3.6.3.6.3-.2 0-.7 0-1-.4-.8-.4.1-.5-.1-.5-1 0-1.7-.4-2.8-1-2.6-.4.1-.5 0-.4-.6l.6-5.4.5-4.6 1.2-.8 2.4-1.5 1.1-.7-.8 4-1.4 8.1a13 13 0 0 1-1 4l-.4.1c-.1.2 0 .5.2.6.4.3.5 2.3 0 2.3l-.8-.4zm-43.5-.4c-.1-.2 0-.4.1-.4.2 0 .4.2.4.4l-.1.3-.4-.3z" style="fill:#81593e;stroke-width:.352778" transform="translate(-44.5 -173.2)"/>
  <path d="M61.7 221.4c.2-1.4.1-2-.1-1.6-.4.6-.5.5-.5-1 0-.5-.2-.9-.5-.8-.3 0-.4-.1-.3-.6.2-.5.1-.7-.2-.7-.3 0-.8-1.1-1.3-3.3-.5-1.8-1-3.6-1.3-4-.3-.5-.4-.8-.2-.8s.5.1.6.3c.3.5.9.5.9 0 0-.2-.2-.3-.3-.2-.2 0-.6 0-1-.3-.6-.5-.6-.5.1-.5s.7-.2-.5-1.3c-1.2-1.2-1.2-1.2-.3-.6l2 1c.6.3 1.1.7 1.2 1 .1.3.5.6.7.6.3 0 .5.1.5.3 0 .2.4.4.8.6.5 0 1.2.6 1.7 1a18 18 0 0 0 2.5 1.7c2.3 1.3 3.1 2.3 3.3 4 0 .9 0 1.5-.2 1.5s-1.6-1-5-3.7c-1-.8-1.4-.6-1.2.5l.4 3.7c.3 2.7.3 2.8-.4 2.4-.6-.3-.7-.2-.7.5 0 .4-.3 1.1-.5 1.6-.3.7-.3.4-.2-1.3zm11.5-.4c-.5-.5-.4-.5.1-.3l1 .2c.2 0 .3.2.2.4-.4.5-.8.4-1.3-.3zm2.1-1.8c0-2 .2-2.2 2.8-3.1 1.4-.5 1.9-.6 2.2-.2.4.3.3.5 0 1-.4.4-.7 1-.9 1.6 0 .5-.7 1.1-1.5 1.6-2.2 1.2-2.6 1.1-2.6-1zm28.2 0c-.4-.3-.6-.6-.6-.9 0-.2 0-.2.3.1.3.5.3.5.4 0 0-.3.1-.3.3.2.3.6.3.6.3-.2 0-.7 0-1-.4-.8-.4.1-.5-.1-.5-1 0-1.7-.4-2.8-1-2.6-.4.1-.5 0-.4-.6l.6-5.3.5-4.5 2-1.4 2.3-1.5c.2-.1 0 1.3-.4 3.7-.5 2.2-1 5.8-1.4 8.1a13 13 0 0 1-1 4l-.4.1c-.1.2 0 .5.2.6.4.3.5 2.3 0 2.3l-.8-.4zm-43.5-.4c-.1-.2 0-.4.1-.4.2 0 .4.2.4.4l-.1.3-.4-.3zM55.6 208c-.6-.3-.7-.5-.3-.5.3 0 .7.2 1 .5.5.7.4.7-.7 0z" style="fill:#775c44;stroke-width:.352778" transform="translate(-44.5 -173.2)"/>
  <path d="M75.3 219.2c0-2 .2-2.2 2.8-3.1 1.4-.5 1.9-.6 2.2-.2.4.3.3.5 0 1-.4.4-.7 1-.9 1.6-.1.6-.6 1.2-1.7 1.7-2.2 1-2.4 1-2.4-1zm-12.8-1c-.2-.5-.3-.6-.6-.1-.2.4-.3.4-.3-.3 0-.4-.3-.9-.6-1.1-.4-.2-.5-.4-.4-.4.2 0 0-.5-.5-1.1-.5-.7-1.3-2.2-1.7-3.5a15 15 0 0 0-1.1-2.7c-.3-.3-.3-.4 0-.4.2 0 .5.1.6.3.3.5.9.5.9 0 0-.2-.2-.3-.3-.2-.2 0-.6 0-1-.3-.6-.5-.6-.5.1-.5s.7-.2-.5-1.3c-1.2-1.2-1.2-1.2-.3-.6l2 1c.6.3 1.1.7 1.2 1 .1.3.5.6.7.6.3 0 .5.1.5.3 0 .2.4.4.8.6.5 0 1.2.6 1.7 1a18 18 0 0 0 2.5 1.7c2.3 1.3 3.1 2.3 3.3 4 0 .9 0 1.5-.2 1.5s-1.6-1-5-3.7l-1-.5c-.2 0-.2 1.2 0 2.6 0 1.8 0 2.7-.2 2.7s-.5-.3-.6-.6zm42-7.8v-.9c0-.3 0-.5-.3-.4-.1.1-.3 0-.3-.2s-.1-.3-.3-.2c-.3.2-1-.6-.9-1.2l.1-2.2c0-1.6.1-1.7 2.2-3.1a9.2 9.2 0 0 1 2.3-1.3c.3.3-1.6 8.7-2.1 9.2-.3.3-.6.5-.7.3zM55.7 208c-.3-.2-.5-.5-.3-.5.3 0 .6.2.9.5.5.7.3.7-.6 0z" style="fill:#735239;stroke-width:.352778" transform="translate(-44.5 -173.2)"/>
</svg>