<svg width="277.3" height="277.3" viewBox="0 0 73.4 73.4" xmlns="http://www.w3.org/2000/svg">
  <path style="fill:#fefefe;stroke-width:.352778" d="M50.4 144.6V108h73.4v73.4H50.4ZM66.6 179c.4-.3.4-.8 0-2.9-.3-2-.3-2.6.1-2.8l11.2-8 10.8-7.8 2.2 1.6c1.7 1.2 2.4 1.5 3.1 1.3 1.6-.3 23-16.7 24-18.3.8-1.2 2.4-10.6 2.4-13.8 0-3.4-.9-5.6-2.7-7-1-.7-13.1-6-19.6-8.4-3.3-1.2-7.3-.2-11.8 3a25.5 25.5 0 0 0-9.3 13.8c-1 3-1 3.6-1 9 0 3.2.1 6.8.3 8l.2 2L71 152c-3 1.8-5.4 3.4-5.4 3.5 0 .1.3.6.8 1.1.6.7.5.7-.4-.1-1-1-1.2-1-1.8-.4l-1.8.9c-.7.2-1.9.8-2.6 1.5l-1.8 1.2c-.3 0-1.2.4-2 1l-1.4.8 2.3 2.8c2.7 3.1 4.3 4.6 6.5 6.1l1.4 1 2-1.4c1.5-1.2 1.8-1.6 1.5-2-.3-.4-.3-.6.2-.8l1-.9.8-.5 2.3-1.3c2-1.2 2.2-1.2 2.7-.7.7.6 1 .3-6.1 5.3l-4.3 3-2.8-2a48.7 48.7 0 0 1-5.3-5 20 20 0 0 0-2.7-2.7l.6 3.4.7 3.3 5.2 5c2.8 2.8 5.2 5 5.3 5 .1 0 .4 0 .7-.2zm-1.9-8.9c-.1-.2 0-.2.3-.1.6.2.8.5.2.5l-.5-.4zm.9-.6c0-.2.5-.6 1-.9.6-.3 1-.5 1-.3s-.2.5-.6.6c-.4.1-.7.4-.7.5 0 .2-.2.4-.4.4s-.3-.1-.3-.3zm-4.1-3.4c-.3-.9.9-2 2-1.9 1.6.2 1.2 1.8-.7 2.2-.8.2-1.2.1-1.3-.3zm1.9-1.1c-.2-.1-.5-.2-.7 0-.3 0-.2.1.2.2.4 0 .6-.1.5-.2zm2-1.5c-.6-.6.5-1.8 1.8-1.8 1 0 1.3.4 1 1.4-.1.5-.5.7-1.4.7-.6 0-1.2-.1-1.3-.3zm12.9-2.5c-.3-.2-.4-.4-.2-.4l.9.4c.3.1.4.3.2.3l-1-.3zm-7.1 6c2.4-1.6 4.2-3.2 3.7-3.2-.2 0-.9.5-1.6 1-.6.6-1.5 1.1-1.8 1.1-.3 0-.6.1-.6.3 0 .2-.5.6-1 1-1 .5-1.5 1.2-1 1.2.2 0 1.1-.7 2.3-1.4z" transform="translate(-50.4 -108)"/>
  <path style="fill:#f8ef99;stroke-width:.352778" d="M75.7 164.4c-.2-1 .6-1.7 1.3-1 .4.2.6.2.6 0s-.2-.4-.4-.4-.3-.2-.2-.4c.2-.2 0-.2-.4 0-.4 0-.5 0-.3-.4.3-.4.3-.4-.2 0-.4.3-.6.6-.4.8.2.4-.4.4-.8 0l-2.3-1.4a7 7 0 0 1-2.3-1.8c-.5-1-3.7-4.2-4.1-4.2-.2 0-.2.1 0 .4 0 .2 0 .3-.2.1-.2-.1-.4-.3-.4-.5a147.3 147.3 0 0 1 13-7.8c-.5.4-1 .7-1.2.7-.1 0-.2.2 0 .5 0 .4 0 .5-.4.3-.5-.2-.6 0-.4.4.2.6.2.6-.3.2-.8-.7-1 0-.3.8l.7.8-.8-.7c-1.3-1-1.4-.3 0 1.1l1.1 1.3-1.3-1c-2-1.8-2.4-1.5-.6.4 1.8 1.9 2.8 2.5 3.1 2 .3-.4 1.8-.8 3.8-1l1.8-.3.8.1c.2.2 1 .2 1.6 0 .7-.1 1.5 0 2.2.2.5.3.7.5.5.5-.4 0-.3.3.3.8 1 .9.7.9-.9 0-.7-.5-1.3-.7-1.5-.6-.1.2 0 .4.2.5.2 0 .8.4 1.2.8.5.4-.2.2-1.6-.6-2.6-1.3-2.7-1.3-2.7-1 0 .2 1 .8 2.1 1.4 1.2.5 2.2 1 2.2 1.2 0 .2-.3.4-6.4 4.8-2.9 2-5.3 3.7-5.5 3.7-.2 0-.5-.3-.6-.7zm1-.4c-.1-.2-.4-.3-.6-.3-.2 0-.2.1-.1.3.1.2.4.4.6.4.1 0 .2-.2 0-.4zm2-1.4c0-.2-.2-.3-.4-.3-.3 0-.3.1-.2.3l.4.4.1-.4zm.7-1c-.3-.2-.4-.4-.1-.5.2-.2.3-.5.2-.8-.2-.3-.3-.4-.4-.3-.2 0-.6-.1-1-.4-.6-.3-1-.5-1.1-.4-.1.1.1.4.5.6.5.2.7.6.5.8-.4.7-.4 1.4 0 1.2.3-.1.7 0 1 .1.3.2.6.3.7.2 0-.1 0-.4-.3-.5zm1.2-.4-.6-.3c-.2 0-.3.1-.1.3 0 .2.3.4.5.4s.3-.2.2-.4zm1.2-.5-1-.7c-.8-.4-1-.4-1 0 0 .3.1.4.2.3.1 0 .5 0 .8.2.5.4 1 .5 1 .2zm.9-.9c-.1-.2-.5-.4-.8-.4-.3 0-.4.2-.3.4.1.2.5.4.8.4.3 0 .4-.2.3-.4zm.9-.5-1-.7c-.7-.3-1.2-.4-1.2-.3 0 .2.4.5.8.7 1 .4 1.4.5 1.4.3zm1-.5c0-.4-3.9-2.6-4.4-2.4-.2 0 .7.7 2 1.4 2.5 1.5 2.4 1.4 2.4 1zm1-.7c0-.2-.5-.6-1.2-.9-1.4-.7-1.6-.1-.2.6 1.1.6 1.5.7 1.5.3zm.8-.7c0-.2-.2-.4-.5-.6-.6-.2-.8.2-.3.6.3.4.8.3.8 0zm-17-.3c0-.3-1.8-1.9-2.2-1.9-.2 0 .1.5.7 1 1 1 1.6 1.4 1.6 1zm2.9-2c-1-1.1-2-2-2.1-1.8 0 0 .7 1 1.7 2 1 1.1 2 2 2.1 1.8.1 0-.7-1-1.7-2zm15.1 1.7c0-.3-2.1-1.3-2.3-1.1-.1 0 .3.4.8.7 1 .6 1.5.7 1.5.4zm-15.8-.9c0-.4-2.2-2.1-2.5-1.9-.2.2 1.8 2.3 2.2 2.3.1 0 .3-.2.3-.4zM69 155c-.2-.3-.6-.5-.8-.5-.2 0 0 .3.3.7.7.8 1.2.7.5-.2zm4.2-.4c0-.2-.4-.7-1-1.1-1.3-1-1.4-.6-.3.5.8.9 1.3 1.1 1.3.6zm1.8-1.5c-2-1.8-2.7-1.8-.9 0 .8.8 1.6 1.4 2 1.4.3 0-.2-.6-1.1-1.4zm-1.8 0c0-.4-1-1.2-1.3-1-.2.3.6 1.3 1 1.3.2 0 .3 0 .3-.3zm6.4-28.9c.2-.4.3-1 .1-1.2-.1-.2 0-.3.1-.1.4.2 2.5-3 2.3-3.5 0-.2 0-.2.3 0 .3.3 0 1-1.3 2.9-1.7 2.6-2.2 3.2-1.5 2zm3.5-4.9c0-.2.3-.6.7-1 .4-.3.7-.7.6-.8l.1-.2c.7-.1 1.8-1 1.6-1.3-.1-.1 0-.2.3 0 .3 0 .6 0 .8-.3 0-.2.4-.4.6-.4.2 0-.4.6-1.4 1.3a14 14 0 0 0-2.5 2.1c-.5.6-.8.8-.8.6zm10.9-7h.7c0 .1-.1.2-.5.2s-.5-.1-.2-.2zm2.1 0h.7c0 .1-.1.2-.5.2s-.5-.1-.2-.2z" transform="translate(-50.4 -108)"/>
  <path style="fill:#fbab8b;stroke-width:.352778" d="M76.2 145.5c0-.6.1-.8.2-.4v1c-.1.3-.2 0-.2-.6zM117 143l.8-.7c.1 0 0 .3-.4.7l-.9.7.5-.7zm-41-3.6c0-.6 0-1 .1-.6v1.3l-.1-.7zm0-3.8c0-.5 0-.7.1-.5v.9l-.1-.4zm22-4.9c-.2-1.2-.1-1.6.7-2.9.5-.7.8-1.6.7-1.8-.3-.4-10.3-5.3-11.8-5.8-.6-.2-1 0-1.8.9-.6.6-1.4 1-1.8 1-.8 0-1.2.6-1.9 3-.5 2-.6 2-1.5 1.8l-1.1-.4-.6.4c-.3.5-.3.4-.3-.3 0-.5.1-.8.3-.7.2.2.2 0 0-.3 0-.4 0-.6.4-.6.6 0 1.3-1.3 1-1.9-.2-.2-.1-.3.1-.1.6.3 1-.5.4-.9-.4-.3-.3-.3.2-.2.4 0 .7-.1.8-.4 0-.2 0-.4-.2-.4-.3 0-.3-.2-.2-.4.2-.3.3-.3.5 0 .1.3.7-.2 1.6-1.2.7-1 2.1-2.2 3-2.8 1-.6 1.7-1.2 1.6-1.3-.2-.1.3-.4 1-.6 1.2-.4 1.4-.4 4.5 1.5a384 384 0 0 0 12.6 7.1c.1.1-1 1.4-2.6 3a62.2 62.2 0 0 0-4.1 4.2l-1.3 1.6zm22.4-2c0-.8.1-1 .2-.6v1.4c0 .3-.2 0-.2-.8zm-37-10.3 1-.8c.3 0 0 .4-.4.8-.4.5-1 1-1.2 1-.2 0 0-.5.5-1zm2.4-1.9c0-.2.2-.3.4-.3s.2.1.1.3l-.4.4-.1-.4zm9.4-4.1h.7c.1.1 0 .2-.4.2-.5 0-.5-.1-.3-.2z" transform="translate(-50.4 -108)"/>
  <path style="fill:#e4b662;stroke-width:.352778" d="M66.6 172.4c0-.4 7-5.6 9.5-7.1l4.5-3.1c2.8-2 4-3 3.8-3.3-.1-.3-.4-.4-.6-.3l.3-.5c.7-.8 1.2-1 .6-.3-.2.2-.3.6 0 1 .1.3.5.2 1.5-.6.7-.5 1.2-1 1-1.3 0-.1.1-.2.4 0 .4 0 .6 0 .6-.4s-.2-.5-.5-.4l.4-.6.6-1c-.1-.2 0-.4.3-.5.7-.2.7.1 0 .8-.4.6-.4.6.3.7.4 0 .6 0 .4-.2-.3-.2-.3-.4 0-.7.4-.3.6-.3.6 0 0 .1.1.2.3 0 .9-.5.3 1-.7 1.7-.5.4-1 1-.8 1.1a112.9 112.9 0 0 0-11.3 7.6l-11 7.9-.2-.5zm14.5-12c0-.1.2-.2.3 0 .2 0 .4.2.4.3l-.4.2c-.1 0-.3-.2-.3-.4zm.5-.6c0-.2 0-.3.4-.2.7 0 1 .4.3.4-.3 0-.6 0-.7-.2zM68 157.5a9 9 0 0 1-1.8-2c.2 0 1.1 1 2.2 2 2.5 2.5 2.2 2.5-.4 0zm15.1.5c.2-.2.4-.6.3-.8v-.1h.6c.3-.1.1.1-.2.5l-.9.8.2-.4zm2.1 0c.2-.2.4-.6.3-.8v-.1H86.5c0 .4-1 1.3-1.3 1.3l.1-.4zm-4.1-1c0-.2-.2-.3-.3-.2-.2.1-.5 0-.6-.1 0-.2.1-.3.4-.3.6.1 1.2 1 .7 1l-.2-.4zm-11-1.7a4 4 0 0 1-1-1.3c0-.2.2 0 .5.4.3.3.5.5.5.3 0-.4 1.5.9 1.5 1.3 0 .5-.6.3-1.5-.7zm1.1.5-.6-.6c-.6-.5-.6-.5-.1.1.4.6.7.8.7.5zm1.5-1.5c0-.2.2-.4.3-.3.2.1.3.4.1.5-.2.5-.4.4-.4-.2zm5 0c0-.4-.2-.7-.5-.7s-.5-.3-.5-.7c0-.4-.1-.9-.3-1.1-.1-.2 0-.5.1-.6.2-.2.4-.5.4-.8 0-.3-.2-.4-.4-.3-.2.1-.2.4-.1.6.1.2 0 .3-.2.1-.4-.2-.4-.1-.2.2.2.4.1.4-.4 0-.6-.5-.6-.5-.2 0 .2.3.3.7.1.9h.3c.3-.3.4-.2.2.2l-.4.8c0 .6.6 1.3 1 1 0 0 .3 0 .4.2 0 .1-.2.3-.7.3-.9.1-1.8-.7-1.2-1.1.2-.1.2-.4.1-.7-.7-1.1 0-3.4 1-2.9.2.2.3 0 .3-.1 0-.3.4 0 1 .6.4.6 1 1.1 1.2 1.1.2 0 0-.3-.3-.8-1.2-1.2-1.6-2.3-1.1-2.6.2-.1.3 0 .1.2-.2.4-.1.4.2.3.3 0 .5-.3.4-.5 0-.3.2-.3.5-.2.4.1.5 0 .4-.1-.5-.9 1-.3 2.3 1 .8.6 2.6 1.9 4 2.6l3.1 2c.7.6.7.6-.1.3-.5-.2-1.4-.2-2 0-.6.1-1.4 0-1.6 0-.2-.2-.6-.3-.8-.2l-1.8.3c-2.4.3-3.7.6-3.7 1l-.3.3c-.2 0-.3-.3-.3-.6zm2.1-3.8-2-1.6c-.2 0 .5.8 1.5 1.7 1 1 2 1.7 2 1.6.2 0-.5-.9-1.5-1.7zm0-1.3c-.5-.6-1.1-1-1.3-1-.2 0 .1.4.7 1 .5.6 1.1 1 1.3 1 .2 0 0-.4-.6-1zm.2-1.2c-.2-.3-.5-.5-.6-.4 0 .1 0 .4.3.7.2.3.5.5.6.4.1 0 0-.4-.3-.7zm6.7 6.5c0-.2.2-.3.4-.3s.3.1.2.3l-.4.4-.2-.4zm-2.8-.3c0-.2.2-.4.4-.4s.3.2.1.4l-.3.3-.2-.3zm-7.8-.5c-.2-.7-.2-1.3 0-1.5.2 0 .3.3.3.7 0 .8-.2 1.2-.3.8zm-3.8-.8c-.3-.3-.4-.6-.3-.7.3-.3 1.3.5 1.3 1 0 .4-.5.3-1-.3zm3.9-8.8c0-.4 0-.5.2-.2v.6c-.1.2-.2 0-.2-.4zm-.4-6.4c0-.4.1-.5.2-.2v.7c-.1.1-.2-.1-.2-.5zm21.7-6c.4-1.3.5-1.5.5-.5 0 .8 0 .8.8.2l.8-.7-.7 1c-.3.5-.8 1-1 1-.5 0-.5-.3-.4-1zm-19.1-4.3c.1-.2 0-.4-.2-.5-.3 0-.3-.2 0-.4.2-.1.4 0 .6.3 0 .3 0 .6-.2.8-.3.1-.3 0-.2-.2zm2 0c0-.3-.2-.4-.5-.4s-.6-.2-.7-.3c-.2-.2.2-.2 1 0l1.2.3-.1.3c-.1.2-.4.4-.6.4-.2 0-.3-.2-.3-.4zm23-5.6a33 33 0 0 1-5.2-3.2 91 91 0 0 1 7.6 4.4c0 .2 0 .2-2.5-1.2zm14.7 0c-.4-.6-.4-.6.1-.1.6.4.8.7.5.7l-.6-.6zm-32.6-.8.8-.7c.1 0 0 .3-.4.7l-.9.7.5-.7zm-3.7-.8.6-.7c.6-.4.6-.4.2.2-.5.6-.8.7-.8.5zm12-3.9c-2.2-1.2-3.9-2.3-3.9-2.5a63 63 0 0 0 5.7 3c1.4.9 2.5 1.7 2 1.7l-3.9-2.2zm-9.2 1 .6-.6c.6-.4.6-.4.2.1-.5.6-.8.8-.8.5zm2.3-1.8c1-.8 2.7-1.6 2.6-1.3 0 .1-.7.6-1.6 1-1 .5-1.4.6-1 .3z" transform="translate(-50.4 -108)"/>
  <path style="fill:#99a7af;stroke-width:.352778" d="M65.7 178.9c.1-.2 0-1.2-.2-2.2-.2-1.3-.2-2 0-2.2.3-.3.4-.2.4.3 0 .6.1.6.4.2.3-.4.3 0 .2 1.4-.2 1.3-.1 1.7.1 1.2.3-.6.3-.6.4.2 0 .6-.2 1-.6 1.2-.7.3-.9.3-.7-.1zm-4.7-4.5-.9-1 1 .8c.9.8 1.1 1.1.8 1.1l-1-1zm-2.9-2.5-.8-1 1 .9 1 1c0 .2-.4 0-1.2-1zm7 .3a83 83 0 0 1 10.5-7.5c0 .2-2.2 1.8-4.8 3.6a36.2 36.2 0 0 0-5.5 4.2c-.2 0-.4-.2-.3-.3zm-1.7-1v-.6c-.1-.2-.4-.4-.8-.3-.3 0-.5 0-.4-.2.2-.2-.8-1.5-1.3-1.5-.2 0-.2.2 0 .4.1.3 0 .3-.2.2-.3-.2-.4-.4-.3-.5.1 0-.2-.6-.7-1.2-.4-.6-.7-1.2-.6-1.4.1-.2 0-.3-.1-.2-.3.2-1.3-.8-2.4-2l-2-2.4 1.5-.9 1.9-1c.2 0 1-.5 1.8-1.1.7-.7 1.9-1.3 2.6-1.5.6-.2 1.4-.6 1.8-1 .6-.5.7-.5 1.8.5.6.5 1 .7.6.3-.5-.7-.5-.7.3 0 .4.3.7.8.6 1-.1.1 0 .2.1.2.2-.1 1.3.7 2.4 1.7a13 13 0 0 0 2.3 1.9c.2 0 1.2.5 2.3 1.2 1.2.7 1.8 1.2 1.4 1-.5 0-1 .2-1.8.8a51 51 0 0 1-3.7 2.7l-4.2 3c-1 1-1.6 1.1-1.9.8-.5-.5-1-.5-.8 0 .2.2.2.3 0 .3l-.2-.1zm2.2-1-.6-.3c-.3-.1-.4 0-.3.1.2.4.9.5.9.2zm.7-.9c0-.1.3-.4.7-.5.4-.1.7-.4.7-.6 0-.2-.5 0-1 .3-1.1.6-1.5 1.2-.8 1.2.2 0 .4-.2.4-.4zm4.3-2.9c.3-.3.8-.6 1-.6.3 0 1.2-.6 2-1.2 2-1.6 1.5-1.6-1 0l-2.3 1.2-.7.5a6 6 0 0 1-1 .9c-.4.1-.5.4-.4.7.2.3.8 0 2.4-1.5zm-6.3-.7c.9-1.4-1.3-2.2-2.4-1-1 1-.5 2 1 1.6.6-.1 1.2-.4 1.4-.6zm-1.6-.9h.7c0 .2-.1.3-.5.3s-.5-.1-.2-.3zm5.5-1.8v-1c-.3-.6-1.8-.5-2.4.1-1 1-.6 1.6 1 1.6.9 0 1.3-.2 1.4-.7zm-10.6 7c-.2-.3 0-.3.2-.2.2.2.4 0 .4-.3 0-.5 0-.6.4-.3.4.4.1 1.2-.4 1.2-.2 0-.5-.2-.6-.4zm-1.4-5.4-1-1.1 1.1 1 1.2 1.2c0 .3-.3 0-1.3-1zm20.3-1.6-.9-.8 1 .5c.5.2 1 .5 1 .7 0 .4 0 .4-1-.4zm2-1.3-1-.7c0-.3.7-.1 1.5.6 1 .8.9.8-.5.1zm-.1-1.4a6 6 0 0 1-1.5-1c0-.2 3 1.4 3.5 1.8.5.5-.8 0-2-.8zm1.8-.3c-.7-.6-.7-.6.1-.2l.8.5c0 .3-.2.2-1-.3zM68 156.4l-.8-1 1 .9 1.2 1h-.2c-.2 0-.7-.4-1.2-1zm4.1-1.1c-1.2-1.5-1.3-1.6-.2-.6 1 1 2 2.3 1.7 2.3l-1.5-1.7zm1.2-3.3c-.3-.2-.3-.3 0-.3l.6.3c.2.5.1.5-.6 0zm19.5-24c-.4-.2-.8-.6-.8-.7 0-.3.6 0 1.8.7.7.5 0 .5-1 0zm-2.2-1.4c0-.2-.1-.3-.2-.2-.4 0-7.6-3.8-7.4-4 .3-.3 8 3.9 8 4.3l-.2.3-.2-.4z" transform="translate(-50.4 -108)"/>
  <path style="fill:#e9571e;stroke-width:.352778" d="M84.9 145.4c-5.5-3.5-6.8-4.8-3.5-3.5 1 .4 1.5.5 1.5.2.1-.2 1.7.6 3.5 1.8 3.9 2.6 4 2.7 2.7 2.2-.6-.3-1.1-.4-1.2-.3-.2.2 2.6 2.4 3 2.4.3 0 .4.2.4.5s0 .5-.2.5-3-1.7-6.2-3.8zm-8.7-5c-.1-4.3 0-5.4.4-7.8.6-3.5 1.4-5.7 1.7-5.2.2.4.3.3.5-.1.2-.6 1.6-.5 1.6.1 0 .2.2.3.5.2l.5-.2-1.2 3.6-1.3 4.1c0 .3 0 1.3-.2 2.3-.1 1.7-.2 1.7-.6.9-.3-.5-.5-.8-.5-.6 0 .2-.3.1-.5-.1-.5-.4-.6 0-.7 2.9l-.1 3.2zm18-.8c-.5-1 .2-3.3 1-3.8.3-.1.5-.5.5-.7.2-.8.6-1.9 1-2.6a9 9 0 0 0 .7-2c.2-1 .2-1 .1.5-.1 2.2.5 2.1 2.1-.4.7-1.1 2.6-3.2 4.1-4.7l2.9-2.6-4-2.3a585.4 585.4 0 0 1-12.1-7c-.4-.4 1.8-1 4.2-1.4 1.7-.2 2.4 0 11.4 3.7 6.2 2.5 9.3 3.9 9 4-3.7 1.3-5.2 2-6.8 3.3a54.4 54.4 0 0 0-13.7 15.9H94zm-1-16.2c-9-4.5-8.8-4.7.2-.5 4.7 2.2 6.4 3.2 6 3.5l-6.3-3z" transform="translate(-50.4 -108)"/>
  <path style="fill:#5c5b59;stroke-width:.352778" d="M62.7 176.1a84.7 84.7 0 0 0-4.8-4.7c-2-1.7-2.3-2.1-2.7-4-.8-3.3-1-5-.5-4.5l.5.7c0 .2.5 1 1.2 1.7.6.7 1 1.1 1 .8l2 2 2.1 2c-.2-.4 0-.2.5.3s.7.6.6.3c-.1-.3.2 0 .7.6.5.5.8.8.7.5-.2-.4-.1-.4.4 0 .8.8 1.4.9 1.6.2.3-.6 10-7.4 9.7-6.8 0 .2-2.1 1.9-4.6 3.6a49.8 49.8 0 0 0-4.8 3.7c-.2.3-.2 1-.2 1.7.2 1 .1 1.1-.1.6-.6-1.2-.9.2-.4 2 .6 2.8.4 2.8-2.9-.7zm-4-6c.4-.7-.2-1.2-.7-.7-.5.5-.4 1 .2 1l.5-.4zm1.2-1.2-1.1-1.2-1.2-1 1 1.1c1 1 1.3 1.3 1.3 1zm6.4 8.4c0-.6.1-.8.2-.5v1c0 .3-.2 0-.2-.5zm1.6-19.7-1.8-1.9 1.9 1.8 1.8 1.8c0 .3-.3 0-2-1.7zm14.9.4-1.4-.9 1.5.6 1.4.9c0 .2 0 .2-1.5-.6zm1.3-.5c-.7-.5-.7-.5.2-.1 1 .5 1.3.6.8.6l-1-.5zM68 156l-1-1 1 .9 1 1c0 .2-.3 0-1-.9zm17.9.3-.8-.7 1 .4c.5.2.9.5.9.7 0 .4-.2.3-1.1-.4zm1-.6c-.4-.2-.6-.5-.4-.5.2 0 .7.2 1 .5 1 .7.6.7-.5 0zm3.7-.1c.2-.4.6-.7.8-.7.1 0 0 .3-.3.7l-.8.7s0-.3.3-.7zm-20.6-.7-.8-1 1 1c.9.7 1 1 .8 1l-1-1zm1.1-.3-1.2-1.3 1.3 1.2c1.2 1.1 1.5 1.4 1.2 1.4l-1.3-1.3zm16.7.6-.8-.5c0-.3.6-.2 1.2.3.8.6.7.7-.4.2zm-3-.5c-.4-.3-.6-.5-.4-.5.2 0 .7.2 1 .5.9.6.6.6-.5 0zm-12.8-1-.7-.8.8.7c.7.6 1 1 .7 1l-.8-.9zm3.5-1-1.7-1.9 2 1.8a158.7 158.7 0 0 0 1.8 2c-.2 0-1.1-1-2-2zm12.7.5a50 50 0 0 0-3.4-2c-1.5-1-2.9-1.9-3.1-2.2-.3-.4 0-.3.9.2a58.7 58.7 0 0 1 5.6 4zm-14.5-.5c-.6-.8-.6-.8.1-.4.9.5 1.4 1.1 1 1.1-.3 0-.7-.3-1-.7zm2-1.3-.9-1 1 1 1 .9c0 .3-.3 0-1.1-.9zm5.1.4c-.1-.5-.1-.6.2-.2.3.2.4.5.3.6-.1.1-.3 0-.5-.4zm-3.3-1.6-.9-1.2 1.2 1c1.1 1.2 1.3 1.3.8 1.3l-1.1-1.1zm1-.1c-.6-.7-1-1.2-.8-1.2.2 0 .8.5 1.3 1.2.6.7 1 1.2.8 1.2l-1.3-1.2zm.6-.9-.7-1c.2 0 .7.4 1.3 1 .5.6.8 1 .6 1-.1 0-.7-.4-1.2-1zm.7-.8c-.2-.7-.2-1 0-1 .1 0 .3.2.4.7.1.8 0 1-.4.3zm8.6-7c-1.4-.8-5.2-3.6-6.9-5.2-.8-.8-1.8-1.4-2-1.4-.5 0-.5-.3.1-1.9.4-1 .8-2 1-2 .1-.2 2.5 1 5.2 2.6 4.6 2.8 5 3.1 5.2 4.2.2 1 0 1.7-.5 2.7-.8 1.6-.8 1.6-2.1 1zm5.5-13c0-.2.3-.4.3-.4l.2.4c0 .2-.2.4-.4.4s-.2-.2-.1-.4zm-.8-.5c0-.3.1-.4.3-.3.2 0 .2.3.1.5-.3.4-.4.4-.4-.2zm2 .3c.2-.1.6-.1.8 0l-.4.1c-.5 0-.7 0-.5-.1zM89 126c-.6-.5-.6-.5.1-.2.5.2.8.5.8.6 0 .2-.2.2-.9-.4zm-3.4-1.8c-1.3-.7-1.2-1 0-.3.7.3 1.1.6 1.1.7 0 .2 0 .2-1.1-.4zm0-1.6c-.3-.2 0-.3.7-.3.6 0 1.2.1 1.3.3.2.4-1.4.4-2 0zm-1.9-.3c0-.2.2-.3.6-.3.8 0 .9.1.2.4-.3.1-.7 0-.8-.1z" transform="translate(-50.4 -108)"/>
  <path style="fill:#a63911;stroke-width:.352778" d="M90.9 158.7c-1.5-1-2-1.6-1.7-1.7.3-.2 1-.1 1.5.2.9.5 1 .4 1-.8.2-1.3-.3-1.8-3.4-3.6l-4.8-3.3a25.1 25.1 0 0 0-3.8-2.4.4.4 0 0 1-.4-.4c0-.2-.1-.3-.3-.2-.3 0-.4.2-.3.4.1.2-1.4 1.2-2 1.2 0 0-.2-2.4-.2-5.5 0-4.5 0-5.4.5-5 .2.1.5.2.7.1 0 0 .3.2.4.6.3.7.4.6.7-1l.5-2-.2 2.7c-.1 3 .2 3.6 1.3 2.6.5-.5.6-1 .5-2.2l.1-1.5 2.5 1.4c2.1 1.4 2.2 1.6 2.1 2.7 0 1.2 0 1.3 1.2 1.7 1.1.4 1.4.4 1.4 0 0-.7.6-1 1.2-.6.2.2.9.3 1.5.2 1-.2 1.1-.4 1.5-2 .2-1 .6-1.6.8-1.4.2 0 .2-.1 0-.6-.1-.6 0-.7.2-.5.4.1.4 0 .2-.6-.1-.5-.1-.7.2-.5.2.1.3 0 .1-.3 0-.3 0-.6.2-.6.3 0 .3-.2.2-.3-.1-.2.5-1.6 1.3-3.1 1.1-2 1.6-2.6 1.7-2 0 .3-.1 1.1-.4 1.7-.6 1.2-1 2.3-1.2 3 0 .2-.2.6-.4.7-.6.3-1.5 2.3-1.4 3 .3 1.5 1.7 0 3.4-3.5a10.7 10.7 0 0 1 2-2.8c.3-.4.4-.5.3-.2-.1.3 0 .2.3-.2s.6-.8.6-1c0-.3 5.5-5.9 7.3-7.2 1.8-1.4 4.3-2.7 6.4-3.2 1.2-.4 1.7-.3 2.5 0 2.3 1.3 3.6 4.1 3.5 7.8a79.5 79.5 0 0 1-2.6 13.7 231 231 0 0 1-23.9 18c-.4 0-1.7-.7-2.8-1.5zm.4-10c0-.3-.1-.5-.3-.5-.5 0-3.3-2.2-3-2.4 0 0 .5 0 1 .3 1.4.5 1.3.4-2.6-2.2-1.8-1.2-3.4-2-3.5-1.8 0 .3-.5.2-1.5-.2-3.3-1.3-2 0 3.5 3.5 3.2 2 6 3.8 6.2 3.8.1 0 .2-.2.2-.5zm-11.2-17.3c0-.7.6-1.8.6-1.2 0 .3-.1.7-.3 1-.2.3-.3.4-.3.2zm18.6-4.7c0-.1-2.2-1.4-4.9-2.7a43.5 43.5 0 0 1-4.8-2.6c.2-.2 10 4.9 10 5.2v.4c-.2 0-.3-.1-.3-.3zm-12-6c-.2-.2-.3-.4-.1-.4l.8.3c.3.2.4.4.2.4l-.9-.4z" transform="translate(-50.4 -108)"/>
  <path style="fill:#23201f;stroke-width:.352778" d="m60.8 169.6-.7-.8.8.7c.7.6 1 .9.7.9l-.8-.8zm-2.1-1.8-1-1.1 1 1L60 169c0 .2-.3 0-1.2-1zm-3-3.2c-1.5-1.7-1.5-1.7-.2-.6 1.1 1 2.2 2.5 1.9 2.5l-1.7-1.9zm35-7.4c-1-.4-1-.6.1-1.4 1.1-.8 1.1-.7.9.7-.2 1-.3 1-1 .7zm-1.3-3.6c-.7-.5-.7-.5 0-.2l.9.6c0 .3-.2.2-1-.4zm-9.6-2.7-1-1.2 1.2 1c1 1 1.3 1.3 1 1.3l-1.2-1.1zm-2.4-.7-.7-.8.8.7c.7.6 1 .9.7.9l-.8-.8zm3.7-2-1.2-1.1 1.5 1c.8.4 1.5 1 1.5 1 0 .4-.7 0-1.8-1zm-2.6-1.5c0-.1.3-.3.5-.3s.3.2.2.3c-.2.2-.4.4-.6.4-.2 0-.3-.2-.1-.4zm8.2-4c-1-.4-1.2-.5-1-1.7 0-1.1 0-1.3-2.2-2.7L81 137v1.5c0 1.2-.1 1.7-.6 2.2-.4.3-.8.5-1 .4-.1-.2-.2-1.6-.2-3.3 0-3.4.2-3.6 2.2-1.7 1.7 1.7 6.7 5.3 7.7 5.6.7.2.9 0 1.5-1.2.6-1 .7-1.8.5-2.7-.2-1-.6-1.4-5.3-4.2-3.9-2.3-5-3.2-5-3.6a275.8 275.8 0 0 0 2.1-7l5.6 2.9 5.7 3c1 0-.3-1-4.7-3.4l-5-2.8.8-1c.5-.5 1-1 1.3-1 .5 0 12.1 5.8 12.1 6.1l-2.2 4.2a41 41 0 0 0-3.5 7.6c-1 3.4-1.2 3.6-2.2 3.8-.5.1-1.2 0-1.4-.1-.5-.6-.9-.5-1.2.3-.2.5-.4.6-1.5.2zm9.3-14.5h-.9l.5.1c.4 0 .6 0 .4-.1zm-8.4-5.5c-.1-.2-.7-.3-1.3-.3-.6 0-1 .1-.7.3.6.4 2.2.4 2 0z" transform="translate(-50.4 -108)"/>
</svg>