<svg width="277.3" height="277.3" viewBox="0 0 73.4 73.4" xmlns="http://www.w3.org/2000/svg">
  <path style="fill:#fefefe;stroke-width:.352778" d="M16.5 156.3v-36.7H90v73.3H16.5Z" transform="translate(-16.8 -119.2)"/>
  <path style="fill:#cdb684;stroke-width:.352778" d="M51.7 188.9c-4.7-1.7-10.8-9.2-12.4-15.3l-.7-2.4-2.2 1.1c-2.4 1.5-3.2 1.5-5.6-.2-4-2.7-8.2-10-8.8-15.2-.4-3 0-3.5 3.6-5.4l3.2-1.8s-.1-1.4-.5-3c-.6-3-.3-5.8.9-7.3.3-.4 7-3.7 16.8-8.2 18.4-8.5 18.6-8.6 22.2-7 5.3 2.5 9.4 10.3 8.3 15.9-.6 3-1.4 4-5 6.3l-1.8 1.2 1.9.4c8 1.6 14.4 12.3 10.8 17.9-.6.8-25.9 22.3-27.2 23-1 .6-1.8.6-3.5 0z" transform="translate(-16.8 -119.2)"/>
  <path style="fill:#c6a974;stroke-width:.352778" d="M52.7 189c-5.1-1-12-9.5-13.6-16.4l-.4-1.8-2 1.2c-2.9 2-4.6 1.6-8-2-2-2-2.7-3-4.1-5.8-2.1-4.2-3-7.6-2.4-9.8.3-1.2.6-1.4 3.6-3 3.1-1.5 3.2-1.5 3-2.7a46 46 0 0 1-.5-4c-.2-3.1.3-5 1.7-5.9a642.7 642.7 0 0 1 34.5-15.4c4.5 0 9.6 4.6 11.3 10.3 1 3.2 1 6.4-.2 8.7-.8 1.5-1.4 2.1-3.7 3.7l-2.8 1.9h1.8c5.6.1 11.8 7 12.2 13.4.2 1.9 0 2.8-.4 3.7-.4 1-4.1 4.3-12.5 11.3-16.5 14-15.3 13.1-17.5 12.7zm2.4-3.6c.2-1.3-.2-3.1-.7-3.3-.3 0-.5.1-.5.4 0 .3.2.6.3.6.6 0 .4 2.6-.2 3.3-.6.6-.6.6.2.3a2 2 0 0 0 .9-1.3zm-1.9 1c0-.3-.7-.5-.9-.2 0 .2 0 .4.4.4.3 0 .5 0 .5-.2zm-4.7-1.5c0-.4-.2-.6-.5-.5-.3.1-.3.3 0 .6.5.7.5.7.5-.1zm-2-1.6-.8-.8.7 1 .8.8c.1-.1-.2-.6-.7-1zm-1-1.6c0-.4-.4-1-.7-1.5-.4-.3-.7-.8-.7-1 0-.3-1-1-1.3-.7a14 14 0 0 0 2.6 3.9v-.7zm3-3.8c-.4-.4-.9.6-.6 1.2.1.5.2.4.5-.2.2-.4.2-.9.1-1zm-1.3.4c0-.3-.1-.5-.3-.3-.2 0-.3.3-.2.5.3.5.5.4.5-.2zm-4.2-.6c0-.2.2-.2.4 0 .6.3-.4-1-1-1.4a3 3 0 0 1-.6-1.5c-.3-1.4-1-1.7-1-.5.1 1 1.4 3.8 1.8 3.8.2 0 .4-.1.4-.4zm-8.2-8.7c0-1.1 0-2.2-.2-2.5-.6-.9-.9-.2-.5 1.2.2.7.2 1.2 0 1-.1 0-.3.1-.3.4 0 .3.2.6.4.6s.3.2.2.4c0 .2-.4.4-.7.3-.3 0-.6.1-.6.3 0 .2.4.4.8.3.7-.1.8-.3.9-2zm7 1.6c-.3-.3-.2-.3.2 0 .6.5.6.5.6 0 0-.3.2-.6.4-.6.4 0 .4-.4 0-1-.3-.5-.5-.4-1.3.4-.7.8-.8 1.1-.4 1.4.6.4.7.3.4-.2zm5.6.1c.1-.2 0-.3-.1-.3-.2 0-.5.1-.6.3-.1.2 0 .4.1.4.2 0 .5-.2.6-.4zm-16.8-1c0-.4-.2-.7-.3-.7-.2 0-.3.1-.2.3.1.2 0 .4 0 .4-.3 0-.6-.5-.9-1.1-.2-.6-.5-1-.7-.9-.2.1-.4-.3-.5-1-.2-.7-.5-1.3-.7-1.3-.3 0-.5-.2-.5-.5s-.3-.5-.6-.5-.4-.2-.3-.5c.4-.6.5-1.7.1-1.4-.2 0-.3 0-.3-.3 0-.2-.2-.2-.4 0-.3 0-.3 0-.2-.4.1-.4-.1-1.1-.6-1.9l-.9-1.2.9-1c.5-.5.9-1.1.9-1.4 0-.3.1-.3.7 0l1.4.7c.9.4 1 .4 1-.2 0-.6-2.2-2-3.3-2.2-.7 0-1 .2-1.4 1.2-1.3 2.7.6 8 4.6 12.7 1.8 2 2 2.2 2.2 1.2zm14.8 0c-.8-.2-1.3-.6-1.3-.8 0-.2-.2-.3-.4-.3-.7 0 .1 1 1.2 1.3 1.7.6 2 .5.5-.1zM30 165c-.2-.5-.1-.7.2-.4.3.1.4 0 .2-.2-.1-.2-.4-.3-.5-.2-.2 0-.3-.2-.2-.5.1-.4 0-.7-.2-.7s-.4.2-.4.6c0 .3 0 .4-.2.1 0-.2-.3-.3-.5-.2-.2.1.1.7.6 1.2 1.2 1.3 1.3 1.3 1 .3zm14-4.4c.6-.9.7-1.3.6-3.4-.1-2.2-.5-3-1.4-3-.4 0-.2 1.2.4 2 .4.5.4.5 0 .1-.8-.7-1.2-.4-.6.5s.4 1.2-.4.4c-.3-.3-.5-.3-.9 0-.3.4-.3.5.2.3.4-.2.6-.1.6.1s-.1.4-.3.4c-.2 0-.3.2-.2.4.1.1.4.2.6.1.3 0 .5.2.5.9s-.1 1-.4.7c-.5-.4-1 .2-.7 1 .3.7 1.1.5 2-.5zm-5.8-.3c-1-.7-1.3-1.3-1.3-1.9 0-.5-.3-1.3-.7-1.8l-.6-.8v1c.2 1 .2.9-.1-.2l-.8-1.9c-.2-.4-.2-.6 0-.4.2 0 .4-.1.5-.5.2-.7 1.3-1 1.3-.4 0 .3-.1.3-.3.2-.5-.3-.4.2.2.7.2.3.4.8.3 1-.1.3.1.7.5 1 .6.3.7.2.5-.2 0-.3-.3-.6-.4-.6-.1 0-.3-.4-.3-1 0-1.4.2-1.4.7 0 .3.7.6 1 1 .7.4-.3.4-.4-.1-1-.9-1-.8-1.4 0-.6.8.7 1.5.5.8-.2-.5-.6-.5-1.1 0-.8.3.1.3 0 .2-.2-.2-.2-.4-.3-.6-.2-.2.1-.4 0-.5-.2-.1-.2 0-.3.2-.3.4 0 .4-.1 0-.4-.3-.1-.4-.4-.2-.7.2-.3-.1-.2-.6.2-.9.7-1 .7-.4 1.4s.6.7-.3 0c-.9-.5-1-.5-1.6.3-.3.4-.9.8-1.2.8a9 9 0 0 0-1.4.3l-.9.2.9-.7c.4-.4 1-.7 1.3-.7.3 0 .4-.2.3-.5-.2-.4 0-.5.5-.3.5 0 .7 0 .7-.4 0-.6-.8-1-1.2-.6-.2.2-.9.2-1.6 0l-1.2-.1 1.4-.2c1.3-.2 1.3-.3.7-.8-.6-.4-.6-.4-.4 0 .2.3-.4-.2-1.4-1.2-1-1-1.6-1.8-1.5-1.9.2 0 .6.1.8.3.5.4.6.3.6-.3 0-.5.1-.7.3-.5.2 0 .3.4.2.7 0 .2 0 .6.2.7.3.1.3 0 .2-.2-.4-.5.3-.5.8.1.3.4.3.6 0 .7-.3 0-.4.3-.2.5.2.1.4 0 .5-.2 0-.2.3-.3.5-.2.3.2.2 0-1-2.7l-1-2.5c-.2-.7-.1-.7.4.2 1.4 2.6 2.2 3 2.2 1.4 0-.5.2-.8.4-.7.2.2.3.4.1.6-.2.4.4.4.8 0 .3-.3.7-.1 1.5.6 1.2 1.2 1.9 1 1-.4-.3-.4-.6-.6-.6-.4 0 .2-.4-.3-.9-1a6.2 6.2 0 0 0-5.2-2.3c-1 .1-1.3.4-2 1.7-1.3 2.7-.7 6.5 1.6 11a23 23 0 0 0 6 7c1.6 1 2 .8.4-.2zm-6.1-11v-.7l.3.6c.2.8 0 1-.3.2zm9 11.6c-.3 0-.7-.3-1-.5-.3-.3-.3-.2-.2.2.1.3.6.6 1 .6.5 0 .6-.1.2-.3zm-2-1.1c0-.2-.5-.8-1-1.3-.6-.8-.8-.9-.8-.4 0 .3.3 1 .7 1.3.7.8 1 .9 1 .4zm.8-1.8c-.4-.4-.8-.7-1-.7-.2 0 0 .3.3.7.3.4.8.7 1 .7.2 0 0-.3-.3-.7zm-10.9-.8c0-.2-.2-.2-.2.3 0 .3 0 .5.2.4v-.7zm13.5-6.2c-.2-.6-.5-1.1-.7-1.1-.4 0-.4.3.3 1.2.7 1.2.8 1.1.4-.1zm-5.6-1.6c-.8-.9-1-1.4-.3-1 .4.2.4.1 0-.3-.2-.3-.3-.8-.2-1.1.3-.7-.8-1-1.3-.4-.3.4-.3.5 0 .5s.4 0 .3.2c-.1.1 0 .8.5 1.5l.6 1.8c0 .4.1.4.6 0s.4-.5-.2-1.2zm-1.7.1a3 3 0 0 0-1-.7c-.1 0 0 .4.4.7.4.4.8.8 1 .8.2 0 0-.4-.4-.8zm3.1 0c0-.2-.2-.3-.5-.4-.4-.2-.5-.1-.4.1.2.3 1 .5 1 .2zm3.2-.4-.4-1c-.2-.4-.3-.3-.3.5 0 .5.1 1 .3 1 .2 0 .4-.3.4-.5zm-3.2-.9-1-1c0-.2-.2-.1-.3 0-.2.2 1.5 2 2 2l-.7-1z" transform="translate(-16.8 -119.2)"/>
  <path style="fill:#b5905f;stroke-width:.352778" d="M50.2 188a26.8 26.8 0 0 1-11-15l-.5-2.2-1.9 1.2a7.1 7.1 0 0 1-3 1.2c-3 0-8-5.6-10.5-11.7-1.2-3-1.5-7.3-.5-8.1.4-.5 4-2.5 6.3-3.6l-.4-2c-.7-2.5-.7-5.7 0-7.3a5 5 0 0 1 1.7-1.9c1-.7 1.4-.7 4-.2.5.1.8 0 .6-.2 0-.1-.5-.3-.8-.3-1.9 0-.4-1 6.4-4 25.6-11.9 23.8-11.3 27.6-9.5 2.8 1.4 5.2 4 6.8 7.4a10 10 0 0 1 1.3 6.1c0 4.5-.6 5.6-4.5 8.2L69 148l2 .2c1.2 0 2.6.4 3.2.6 3.2 1.3 7 5.6 8.3 9.4.9 2.4 1 5.6.1 7.1-.4.7-5.5 5.3-11.7 10.5C54 190 55.3 189.1 53.5 189.1c-1 0-2-.4-3.3-1.1zm4.3-1.6c1.4-1.4 1-5-.7-5.3-.5 0-.6 0-.5.7v.7c-.2 0-.4 0-.5.3-.2.5-1.7-.7-1.7-1.3.2-.9 0-1.6-.3-1.5-.1.1-.3-.1-.3-.5 0-.8.2-.8 1.2-.1 1.1.7 1 0-.1-1l-.7-.4c.1.2 0 .5-.3.6-1 .4-1.5.3-.9-.1.3-.2.4-.4.2-.4l.2-.5c.5-.6.1-.7-1.4-.1-.7.2-1 .5-.9.7.2.3.1.4-.2 0-.3-.2-.8-.2-1.3 0-1 .4-3.4.3-3.1 0 0-.3.8-.4 1.5-.4 2.2 0 2.3-.3.8-3.4-1.5-3.1-2.3-5.5-1.1-3.3.4.8 1 1.5 1.3 1.7.4.2.5.4.2.4-.2 0 0 .7.5 1.7l.8 2.2c0 .2.2.2.4.1l1.4-.5 1-.2-1-1.2c-.9-1-1-1-1-.5.2.5.1.9-.1 1-.3.2-.3.2-.2 0 .1-.3 0-.5-.1-.7-.2 0-.3-.4-.2-.7.2-.2 0-.8-.5-1.2-.4-.4-.7-.9-.7-1.1 0-.2.2-.1.5.2.6.6 1 .7.7.2 0-.2 0-.4.2-.5.1-.1.4 0 .5.5.1.4.4.7.6.7.2 0 .6.3 1 .8.9 1 1.3.5.5-.7-.3-.5-.7-.8-.8-.7 0 .1-.4-.2-.6-.8-.5-1.2-3.3-3-5-3.4-1.6-.3-2.5 0-3.1 1.3-1.7 3.3 2.2 11.6 7.2 15.4 1.6 1.2 2.5 1.3 1 0l-.8-.7 1 .6c.5.3 1 .8 1 1.1 0 .5.3.6 1.5.5.4 0 .6 0 .4.3-.5.8 1.6.4 2.5-.5zm-3-.7v-.8c.5-.4-.9-2.2-1.6-2.2-.7 0-.7 0 0-.3.4-.2.5-.4.2-.5-.2-.2-.4-.6-.4-.9 0-.5 0-.5.3-.1.2.3.4.3.5.2 0-.2.1-.1 0 0 0 .3.6 1.4 1.3 2.5 1.4 2 1.8 2.8 1 2-.6-.6-1.1-.5-.9.1.2.3.2.5 0 .5l-.3-.5zm-1-.4c-.6-.6-.4-1 .2-.5.3.2.4.5.4.7-.1.2-.4.1-.6-.2zm-1.7-1.6c-.5-1.4-1.2-4-1-4l.7 1.7c.3 1 .7 2 1 2.3.2.3.2.4-.1.4-.2 0-.5-.2-.6-.4zm-1.5-.8c0-1-1-2.4-1.5-2.1-.5.3-.4-.6 0-1.3.4-.4.4-.4.2.1 0 .4 0 .7.3.9.6.2 1.4 2 1.2 2.6-.1.3-.2.2-.2-.2zm-2.7-7.4c-1-.8-1.5-1-1.7-.8-.2.3-.3.2-.2-.1.1-.3-.2-1-.7-1.6-.7-.7-.7-.8-.2-.4.8.6.8.6 1.2 0 .3-.5.4-.5.2 0-.2.7 1.1 2.4 1.7 2.1.2-.1.3 0 .1 0-.1.2.1.7.5 1.2 1.1 1.2.7 1-1-.4zm-1 .5c-.6-.2-.7-.3-.2-.3.3 0 .7.1.8.3.3.4.3.4-.7 0zm8.6 5.4c-.3-.5-.4-.5-.4 0s.4 1 .6.8l-.2-.8zm1.6-1.8c-.3-1.2-1.3-2.3-1.3-1.5 0 .3.3.9.5 1.3.3.4.5.8.3 1 0 0 0 .2.3.2s.3-.3.2-1zm-1.3-2.7c0-.2-.2-.7-.5-.9-.4-.3-.5-.3-.5 0s-.2.3-.6 0c-.5-.5-.6-.4-.3 0 .8 1.4 2 2 2 1zm-2.7-2.1c0-.3-.3-.6-.5-.6s-.2.3 0 .6l.6.5v-.5zM35 170.3c.5-1 .2-2.8-.8-5.3s-1.2-2.7-2.2-2.5c-.6.1-.9 0-.9-.2 0-.4-2 .5-2.5 1-.2.4-2 1-2.5 1-.3 0 .2-.3 1-.6 1.2-.6 1.5-.9 1.3-1.3-.1-.5-.1-.6.2-.2.2.4.5.4 1.2-.1s1-.5 1.6-.2c1.4.7 1.5.2.2-1.7-2-3-3.2-4.4-4.4-5-1.8-1-2.7-.9-3.4.2-1.5 2.4.8 9 4.7 13.2 3 3.2 5.4 3.8 6.5 1.7zm-2.5-.7c.2-.3.1-.9-.5-2-1.3-2-.9-1.9.6.4l1.2 1.8H33c-.7.1-.8 0-.5-.2zm-2-1.5c-.6-1.3-.5-1.6.1-.4.3.5.5 1 .4 1.1l-.5-.7zm2.4-3.2c-.3-.3-.7-.5-1-.5a.9.9 0 0 1-.6-.4c-.2-.2 0-.2.6 0 .5.2 1 .3 1.1.2.1-.1.1 0 0 0 0 .2 0 .5.3.8l.2.4c-.1 0-.4-.2-.6-.5zm-6.2-3.8-.7-.8.8.7.8.8c0 .3-.3 0-1-.7zm.8-.8-.5-1.2c.3 0 1.4 2.1 1.2 2.3 0 0-.4-.4-.7-1.1zm1-1.4c0-.2 0-.6.2-1 .2-.3.3-.2.3.4 0 .4.1.7.3.6h.5c.1.3-.1.4-.5.4-.3 0-.7-.1-.8-.4zm-2.3-.9c-.3-.4-.4-.9-.3-1 0-.3.3 0 .5.6.5 1.3.3 1.5-.2.4zm17.5 3.4c1.7-1.2 1.8-4.7.1-9-1-2.7-1.2-3-1.8-2.6-.6.5-1.8.5-2.1 0-.2-.2-.8.1-1.7.8-1 .8-1.4 1-1.6.6-.1-.4 0-.5.3-.4.3.1.6 0 .6-.1 0-.8 2-1.5 3-1.1.6.2 1 .2 1.3-.2.4-.3.4-.6-.2-1.3a58 58 0 0 1-1.8-2.6c-2-2.8-3-3.7-4.8-4.4-3.5-1.2-5 0-5.3 4a17 17 0 0 0 2.7 9.4c1.6 2.7 4.8 6 6.5 6.8 1.6.7 3.9.7 4.8 0zm-1.3-1.9a161.3 161.3 0 0 0-3-5l3.1 4.7c.8 1 .7 1.2-.1.3zm0-4.3c0-.2.1-.3.3-.2l.4.4-.4.1c-.2 0-.3-.1-.3-.3zm-8.4-2.4 1.9-1.2c.3-.3.5-.3.5 0 0 .5-1.4 1.4-2.7 1.6-1 .2-1 .2.3-.4zm6.8-.3c-.6-.2-.8-.5-.5-.5.3 0 .9.3 1.2.5.9.7.7.7-.7 0zm-5.1-3.3c-.2-.4-.4-.8-.3-1 .1 0 .4.3.6.8.5 1 .2 1.2-.3.2zm-2.2-.3c-.4-.5-.4-.5.2-.1l.6.6c0 .3-.3.1-.8-.5zm.6-3-.8-1.8c0-.1.6.7 1 1.8.6 1 1 1.9.9 1.9L34 146zm40.8 12.6a14 14 0 0 0 3.1-2.8h-.3c-.2.1-.5 0-.6-.3-.1-.3-.4-.5-.6-.3-.1 0-.2.4-.1.6 0 .2-.2.4-.8.4-.7 0-1 .2-1 .7 0 .4-.2 1-.6 1.4-1 1-.6 1.2.9.3zm-48-5.6c-.3-.3-.7-.5-1-.5-.4 0-.3.2.3.5 1 .6 1.2.6.7 0z" transform="translate(-16.8 -119.2)"/>
  <path style="fill:#a87648;stroke-width:.352778" d="M50.8 188.3c-2.4-1.1-7-6-9-9.2-.8-1.5-1.8-3.7-2.1-5-1-3.7-.9-3.5-3-2.1-2.4 1.4-3.3 1.5-5.4.2-4.3-2.8-8.6-10-9-15.5-.2-2.4.3-3.7 1.6-4.1 1-.3 3 .6 4.6 2.1 1.6 1.5 2.4 1.4 1 0-.6-.5-.9-1.1-.7-1.4.1-.2 0-.3-.4-.1-.3.1-.6 0-.6-.2s-.2-.2-.4 0c-.3.1-.3 0-.2-.4.2-.4 0-.7-.5-.9-.7-.2-.6-.4 1-1 1.4-.8 1.6-1 1.3-1.8-.5-2-.8-3.8-.8-5.5 0-1.5 0-1.6.7-1.4.7.2 1-.4.4-1.2-.5-.8.3-1.9 1.2-1.7.4.1.5.1.2 0-.8-.4 0-.8 1.4-.8 1.8 0 3.2.6 5.3 2.2 1 .7 1.8 1.1 1.9 1 .1-.2-.1-.6-.5-.8-.4-.2-.7-.5-.5-.7 0-.2 0-.3-.3-.2-.3 0-.5-.3-.4-.7 0-.7-.2-.8-.8-.7-.8.3-1.7-.3-1.4-.8.1-.2.4-.3.5-.2.2 0 .6-.1 1-.4.6-.4.5-.5-.5-.2-.6.2-1.2.2-1.5 0a26.2 26.2 0 0 1 7.6-3.4c-.3-.3 4-2.2 4.5-2a54.4 54.4 0 0 1 8.3-4.3c7.8-3.5 8.3-3.7 10-3.5 6.9.8 12.8 10.4 10.8 17.6-.5 1.8-1.8 3.3-4.9 5.2l-2.6 1.7h2c5.5 0 12 6.7 12.5 13 .3 2.7-.3 4.2-2.1 6-1.6 1.5-15.2 13-21.9 18.5-4.7 3.9-5.4 4.1-8.3 2.7zm3.9-1.7c1-1.2.8-4.4-.7-7.5a30.6 30.6 0 0 0-7.3-9.6c-2.3-1.3-4-1.8-5-1.2-3.5 1.8-1 10.1 4.9 15.7 3.3 3.2 6.5 4.2 8 2.6zm-9.3-8.7h.9c.2 0 0 .2-.5.2s-.7-.1-.4-.2zm3.9-1c.2-.2.5-.2.7 0 0 0-.1.2-.5.1-.4 0-.5 0-.2-.2zm7.7 5.4c-.4-1.3-.6-1.2-.3.3 0 .6.3 1 .4 1 .2-.1.2-.7 0-1.3zm-.9-3.4c-.2 0-.3-.3-.2-.6.1-.3 0-.5-.2-.5s-.4-.3-.4-.7c0-.4-.3-.9-.7-1.1l-.7-.4.7 1.5 1.2 2.4c.3.8.4.8.5.2.1-.4 0-.7-.2-.8zm-2.4-4.5c-.2-.5-.8-.7-.8-.2 0 .4.4.7.7.7.2 0 .2-.2.1-.5zm-1.6-1.9c-.4-.5-.9-1-1-.9-.1.2 1.1 2 1.5 2 .2 0 0-.5-.5-1zm-17.6-1.4c2-2-.6-8.8-5.5-14.7-.8-1-2.4-1.8-3.8-2-1 0-1.2 0-1.7 1.1-1.5 2.9 1 9.4 5.4 13.7 2.3 2.5 4.4 3.1 5.6 1.9zm31.5-5.8c.6-.1 1-.5 1-.8 0-.3.1-.4.3-.3.2 0 1-.4 1.7-1 .7-.8 1.8-1.6 2.3-2 .5-.3 1-.6 1-.8 0-.1.2-.3.4-.3s1.2-.5 2.2-1.2l1.8-1.3-2 1.9c-1.8 1.7-1.8 1.8-.5 1l1.5-1.1c.1-.2.3-.2.5-.1.2 0 .5-.2.7-.7.1-.5.6-1 1-1 .7 0 2-1 1.7-1.2-.2-.2-.4 0-.6.2-.2.3-.4.4-.6.3-.1-.2 0-.5.2-.8.4-.5.3-.7-.4-1.5-1.3-1.4-2-1.6-2.5-1-.4.3-.6.5-.6.3s-.2 0-.4.3c-.2.4-.5.6-.8.7-.5 0-2 1.2-2 1.7 0 .2-.5.6-1 1-.6.3-1 .7-1 .9 0 .1-.3.2-.4 0-.2 0-.4 0-.4.3l-.1 1c0 .3-.5.6-1 .6-.6 0-1.1.4-1.2.6-.2.3-.4.5-.6.3-.1 0-.2.4-.1 1 0 1 0 1-.3.6-.6-.9-.7-.8-.8.4 0 .8 0 1 .3.8.3 0 .1.1-.3.5-.3.4-.7.6-.8.4 0-.1-.2-.3-.4-.3s-.2.3 0 .7c.3.4.7.6.9.4.2-.2.8-.4 1.3-.5zm2-4.2.7-.4c.4 0 .7 0 .6.2-.2.3-1.3.4-1.3.2zm1.8-1.6c-.5-.5-.5-.6.1-.1.6.4.8.7.5.7 0 0-.4-.2-.6-.6zm-26 1.8c3.2-3 .5-11.1-6.5-19.2-.6-.7-1.5-1.1-2.9-1.4-1-.3-2-.6-2-.8 0-.1.2-.2.3 0 .2 0 .5 0 .6-.2.1-.2-.2-.4-.7-.4-.8 0-1 .1-.7.8.2.7.2.8-.3.2-.7-.8-1-.8-.8 0 .1.4 0 .9-.3 1.1-.3.2-.6.8-.7 1.4-.3.9-.3.9-.6.2-.5-1.2-.4.9.2 4 1 5 3.4 9.3 7 12.6 3 2.8 5.4 3.4 7.3 1.7zm3.2-1.5c0-.4 0-.7-.2-.7-.1 0-.3.3-.3.7 0 .4 0 .7.2.7l.3-.7zm34.1-.4c0-.2-.2-.4-.4-.5-.3-.2-.4-.2-.2 0 .1.2 0 .6-.4 1-.6.7-.6.7.2.2l.8-.7zm-.5-1.3c-.1-.1-.4 0-.7.2-.3.4-.3.4.2.2.4-.1.6-.3.5-.4zm-33.5-.3-.3-.7c-.2-.2-.1.6 0 1.2.2.3.4 0 .3-.5zm33.3-.6c0-.4-.8-.1-1 .4 0 .3 0 .3.4.2.3-.1.6-.4.6-.6zm-49.4-.6c0-.2-.2-.3-.4-.3s-.2.1-.1.3c0 .2.3.4.3.4l.2-.4zm15.5-2c-.2-.9-.4-1.5-.6-1.5v1l.6 2.1c0 .1.1 0 .2 0 .1-.1 0-.9-.2-1.7zm-.7-3.2c0-.5-.6-1.3-.9-1.1-.2.3.2 1.4.6 1.4.2 0 .3-.2.3-.3zm-.7-2c0-.4-.1-.5-.3-.4-.2.1-.4.4-.4.6 0 .2.2.3.4.3s.3-.2.3-.5zm-.8-1.6c-.5-.9-1-.5-.6.4.2.4.5.6.7.5.2-.2.2-.5 0-1zm-1.7-2.3c-.2-.3-.5-.5-.6-.4-.2.3.3 1 .7 1 .2 0 .2-.3 0-.6zm-1.8-2.5c-.6-.7-1.2-1.1-1.2-1-.3.2 1.7 2.6 2 2.4.2 0-.2-.7-.8-1.4zm13.3-3c.1-.2 0-.3-.1-.3-.3 0-.4.1-.4.3l.1.4.4-.4zm-.6-1.2c.3-.2 1.3-.6 2.4-.7 1.2-.2 2-.4 2.1-.7.2-.3.3-.5.5-.4.3.2 3.2-1.8 3-2a40.9 40.9 0 0 0 9.8-5c0-.2-.6-.9-1.3-1.5l-1.1-1.2-3.5 1.7c-3.4 1.7-3.5 1.7-4.1 1-.4-.3-.9-.5-1-.3-.3.1-.2.3.3.5.4.1.7.3.7.4 0 .1-.7.7-1.5 1.2-.9.6-1.5 1.2-1.4 1.3.2.1 0 .2-.3 0l-.6-.3 1.6-1c.9-.6 1.5-1.1 1.4-1.2-.1-.1-.4 0-.7.3-.5.3-.7.3-1-.2-.4-.5-.6-.4-1.7.6-1 .8-1.4 1-1.8.9-.6-.4-4.3 1-4 1.5.1.2.4.2.6.1.2-.2.3 0 .2.3-.3.7.3 1.2.6.6.1-.2.4-.3.6-.3.3 0 .3.1 0 .4-.5.3-.5.3.1.2.4 0 .7-.3.6-.6 0-.2 0-.3.2-.3.1.1.7 0 1.1-.3l1-.5-1 .2c-.7.2-.8.2-.2-.2.5-.3.8-.3 1 0 .6.5-1.3 2.1-2.4 2.1-.5 0-.8.2-.8.3 0 .2-.5.5-1.2.8-.6.2-1 .5-.7.6.3 0 .4.3.3.5v.9c.3.4.5.4.7.2.1-.3 0-.4-.2-.4-.8 0 .8-1 2-1.2 1-.2 1-.2.3.3-1.2.9-1.6 1.2-1.6 1.6 0 .5.6.4 1-.2zm-1.7-1.6c0-.2.2-.4.4-.5.2-.1.3 0 .3.1 0 .2-.1.5-.3.6-.2.1-.4 0-.4-.2zm1.4-3.9c.5-.4 1-.6 1-.5.2.2-1 1.2-1.5 1.2-.2 0 0-.3.5-.7zm3.9-1.5c.8-1 1.4-1.2 1.4-.7 0 .2-.5.6-1.1 1l-1.2.6zM49 138l-.7.2-.7.5.7-.2.7-.5zm-6.4-.4c0-.4-.6-.4-.8 0-.1.4 0 .5.3.3.3 0 .5-.2.5-.3zm-.9-.7c.2-.4.5-.5 1.3-.3.5 0 1 0 1.2-.2.2-.2 0-.3-.3-.1-.4.1-.8 0-1-.5-.4-.4-.6-.5-.6-.2s-.2.4-.4.2c-.3-.1-.3 0-.2.2.2.2 0 .4-.3.4s-.5.1-.4.3c.1.2 0 .4-.2.5-.3.1-.2.2.1.2.3 0 .7-.2.8-.5zm7.3-.6c0-.3.1-.3.3.1.3.4.4.4.4 0 0-.2.2-.3.4-.1h.2c-.1-.2.1-.6.6-1 .4-.4.6-.7.3-.7-.2 0-.5.2-.6.4-.2.2-.5.2-1 0-.7-.5-.7-.4-.3.1.5.6.5.6 0 .5-.3 0-.5 0-.5.2s-.3.5-.6.6c-.3.3-.3.3.2.3.3 0 .6-.1.6-.4zm19-3.3c.7-.3 1-.6 1-.7-.1-.1-.7.1-1.4.5-1.4.9-1 1 .5.2zm-5-3.5c.6-.5.6-.5 0-1-.5-.3-.6-.6-.4-.6.2 0 .6.3.8.5.4.5.6.5 1.8 0l2-.9c.8-.2.9-.4.5-.8-.6-.7-3.1-.5-3.7.3a2 2 0 0 1-1 .6c-.5.1-.8.4-.7.8 0 .3 0 .5-.2.5-1 0-1.2.1-.8.6.6.7.7.7 1.6 0zM28.5 141c0-.2.2-.3.4-.2.2.1.3.3.3.4l-.3.1c-.2 0-.4-.1-.4-.3z" transform="translate(-16.8 -119.2)"/>
  <path style="fill:#996b43;stroke-width:.352778" d="M51.6 188.6c-1-.3-1.8-1.2-1.4-1.5.3-.4 2.6.7 2.8 1.3.2.7.2.7-1.4.2zm.2-.6c0-.2-.3-.3-.6-.3-.5 0-.5 0 0 .3.6.4.6.4.6 0zm2.1.8c.3 0 .8-.5 1-.9.4-.6.4-.7 0-.3-.5.5-1.3.5-1.3 0 0-.1.3-.4.6-.5.4 0 .9-.5 1-1l.4-.7.1.8c0 .5.1.7.2.5.3-.7.9-.5.9.2 0 .9-1.7 2.2-2.7 2.1-.4 0-.5 0-.2-.2zm-7.7-4.2c-2.6-2.7-5.3-6.7-5.3-7.9 0-.3.3 0 .6.5a26.4 26.4 0 0 0 8.2 9.8c0 .8-1 .1-3.5-2.4zm11.1.3c0-1.3-.1-3.2-.4-4.3l-.6-2.7c0-.4-.2-.7-.3-.6-.2 0-.3 0-.3-.4 0-.3-.2-.5-.4-.5s-.3-.2-.1-.4c.2-.4-.5-.8-1.1-.6-.5.2-.5.4.2 1.3.4.6.7 1.3.6 1.6-.2.3-.1.5 0 .4.4-.3 1.3 1.8 1.7 3.8.1.9 0 1.3-.2 1.1-.6-.4-.4.4.2 1 .7.7.4 1.2-.3.6-.3-.2-.6-1-.8-1.7-.4-2.7-1.4-5-3.1-7.7a24.3 24.3 0 0 0-5.2-6.4c-1-.1-3.3-1.5-2.8-1.5.3 0 .2-.2-.3-.4-.6-.2-1-.2-1.2.1-.1.3-.2.3-.3 0 0-.2-.4-.4-.8-.5-.6-.1-1 0-1 .3s.3.4.7.2c.5-.1.4 0-.2.8-.5.5-1 .8-1.2.7-.2-.2-.2-.3 0-.5.3-.2.4-.5.3-.9-.1-.3-.4-.5-.5-.4-.4.3-.5 1.8 0 4.1l.4 3.4.2 1.4-.5-1a11 11 0 0 1-.7-2.6l-.5-1.7c-.1 0-1 .3-1.8.9-1.6 1-1.7 1-2 .3-.4-.5-.4-.6 0-.4.4 0 .6 0 .5-.1l.4-1.3c.5-.9.4-1-.2-1.8-.3-.4-.4-.6-.2-.5.6.4.6-.3 0-.8-.7-.5-1.4-3-1.1-3.6.1-.2 0-.3-.2-.2-.2.2-.4.2-.4 0s-.9-1.8-2-3.5a19.7 19.7 0 0 0-5.5-6.2c-.4-.2-.6-.4-.5-.5.4-.4 3.2 1.8 5 4a13 13 0 0 0 2 2.2c.4 0-2.1-4-2.6-4.2-.1 0-.1-.3.1-.5.3-.4.3-.6 0-.7-.7-.5-.4-1 .3-.6.4.2.8.3.8.1l.5.8c.3.5.5 1 .4 1.1-.1.1-.3-.1-.4-.5-.1-.4-.4-.8-.6-.8-.2 0 0 .4.3 1 .3.4.7.7.8.6.4-.2 1.5 1.3 1.2 1.7 0 .1 0 .3.2.3s.6.4 1 1c.2.6.6 1 .7 1 .3-.2 1.2.5 3.2 2.8 1.3 1.4 2 1.5 1.6.4l-.2-.8.6.8c.4.6.9.8 1.5.7.4-.1.9 0 1 .1.3.4 2.9-1 3.1-1.7.2-.5.2-.5-.4 0l-.9.8c-.4.5-.3-.3.1-1.4.3-.7.6-1 1-.8.5.1.8 0 1-.5.2-.9-.1-5-.7-6.8l-.4-2c0-.3-.5-1.4-1-2.5-.7-1.5-.8-2-.5-2.2.6-.3-.6-.3-1.3 0-.8.3-.7 1 .1 1.9.6.5.6.7.2.8-.3.1-1-.6-1.9-2l-1.4-2.6c0-.2-.6-.8-1.2-1.5-.7-.6-1.2-1.3-1.1-1.4 0-.2-.2-.6-.6-.9-.5-.3-.7-.5-.5-.5.5 0 2.7 2.1 4.1 4 .7.9 1.5 1.6 1.9 1.6.5 0 .4-.2-.6-1.6l-1.9-2.5c-.4-.4-.7-.9-.6-1 .1 0 0-.2-.2-.2s-.4-.2-.3-.4c.1-.3 0-.7-.2-1.1-.3-.6-.2-.6.5-.4.5.1 1.2.5 1.6.7.5.3.9.4 1 .2.1-.2 0-.4-.2-.4s-.3-.2-.1-.4c.1-.2.4-.1.6.2.4.6.5.6 1.8 0 .7-.3 1.4-.5 1.5-.4 0 .1-.3.4-1 .6-1 .5-2.3 1.6-1.2 1.2.4-.1.6 0 .6.5 0 .3.3.8.7 1 .4.4.7.8.6 1.1-.1.5 0 .7.5.7.3 0 .6-.3.7-.6 0-.4 0-.4.2 0 .2.6 2.2-.7 2.4-1.7.2-.7.3-.7.7-.2.6.6 1 .6 1.4.2l1.4-.7c1-.4 1-.4-.4.8-.7.7-1.2 1.2-1 1.2.3 0 .6-.2.7-.5.2-.3.4-.5.6-.5.2 0 .2.2 0 .4 0 .1.6 0 1.4-.6.8-.4 1.5-1 1.4-1.3 0-.2 0-.4.1-.2.3.2 2-1.2 2-1.8 0-.3 2.2-1.5 2.7-1.4.6.1 1 0 .5-.4-.3-.2.4-.7 2.4-1.7 1.6-.9 3-1.5 3-1.3.2 0-.3.4-1 .7-.7.3-1.3.7-1.3.8 0 .4 1 .3 1.7 0 .3-.2.4-.1.2.3 0 .4 0 .4.3-.1.4-.8 1.3-1.3 1.6-1l.2.8c0 .4.2.7.3.6.3-.2.4.3.3 1 0 0 .3.2.7.2.8-.1 1.2-1 .7-1.5-.3-.3-.3-.2-.1.3.1.5.1.6-.2.4a1 1 0 0 1-.4-.8c0-.3-.2-.5-.5-.3-.3 0-.6 0-.6-.2s.3-.3.6-.3.5-.2.5-.3c0-.2.3-.4.7-.5.7-.2 1-1 .4-1a.3.3 0 0 1-.4-.3c0-.2.5 0 1 .2 1.3.8 1.4 1.1.4 2.3-.8 1-1 1.6-.2 1 .3-.3.6-.3.6-.2 0 .1.6-.1 1.3-.5 1.2-.6 1.4-.8 1.2-1.8 0-.6-.2-1-.3-.9-.1.1-.4-.1-.6-.6-.3-.6-.7-.8-1.5-.7-.9 0-1 0-.4-.4.8-.6.8-.8-.4-2l-1-1.4c0-.2-.4-.2-.7 0-.5 0-.7-.1-.7-.5l-.2-1c0-.2-.3-.5-.6-.5l-2.6-.5-2.2-.6c-.8 0-.4-.4.7-.6 6.6-1.2 14.3 8.9 12.6 16.6-.5 2.7-1.6 4-5 6.2l-2.6 1.7h2c4 0 8.7 3.5 11 8.3 1.5 2.9 2 6 1.3 8-.5 1.5-2.5 3.4-16 14.8l-9 7.4c-.6.6-.6.6-.6-1.7zm2-7.6.7-1.1-1 1c-1.3 1.1-1.4 1.3-.9 1.3.2 0 .7-.5 1.2-1.2zm-1.5-1.2c0-.4 0-.4-.5 0-.3.1-.5.4-.5.4h.5c.3 0 .5-.1.5-.4zm3.2-1c.5-.6.5-.6-.2 0l-1 .6c-.2 0 0-.3.2-.7.4-.5.4-.5-.2 0l-1 1c-.3.6-.2.6.7.1.6-.2 1.3-.7 1.5-1zm-7.5-1.3a50 50 0 0 0-5.2-5.3c-1.3-1.1-.7 0 .7 1.3.7.6 2 2 2.8 3.2.8 1 1.7 2 2 2 .4 0 .3-.3-.3-1.2zm4 .8c.2 0 .2-.3.1-.7 0-.5 0-.7.5-.7.3 0 .4-.1.3-.2-.1-.2 0-.5.2-.8l.2-.4c-.3 0-2 1.7-2.7 2.5-.3.5-.3.5.4.5l1-.2zm-1.1-.1.6-.7c.6-.4.6-.4.2.2-.5.6-.8.8-.8.5zm3-1.1c0-.3 0-.6-.3-.6-.2 0-.2.3-.1.6s0 .5-.1.5c-.2 0-.4.3-.5.6-.3.5-.2.5.4 0 .4-.3.7-.8.7-1.1zm3 1.2c0-.2 0-.4-.2-.4l-.3.4c-.2.2 0 .3.1.3.2 0 .4-.1.4-.3zm.9-.7c.1-.2 0-.4-.2-.4s-.3.2-.3.4l.1.3.4-.3zm1.4-1.4-.1-.5c-.2-.1-.3 0-.3.3 0 .6 0 .7.4.2zm-7.4-1.2c0-.5.2-.8.6-.9.4 0 .6 0 .5.3-.2.2 0 .3.3.1.4-.1.4-.3.2-.4-.3-.2-.2-.5 0-1.2.6-1.1 1-1.2 1-.3 0 1 .7 1.3 1.2.7a5 5 0 0 1 1.3-1c.9-.4.8-.4 0 .5-.6.5-1 1-1 1.2 0 .4 1.3.1 1.6-.3 0-.2.5-.2 1-.1s.9 0 .9-.2-.2-.4-.4-.4c-.3 0-.3-.1 0-.5.2-.3.3-.7.2-1-.2-.2-.2-.3 0-.2.1.1.6-.2 1-.7.5-.5 1-.7 1-.5 0 .2-.2.4-.3.4-.2 0-.6.5-1 1.1-.5 1-.5 1.2 0 1.6.5.5.6.4.5-.4 0-.3.8-.8 1.2-.8v.5c-.2.5-.1.6.4.4.5-.2.6-.2.2.3-.4.4-.4.5.1.3.3-.1.6-.5.6-.8 0-.5 0-.5.3-.1.2.4.5.2 1-.5.5-.5.7-1 .6-1.3-.2-.2.4-.4.7-.2l1-.5a3 3 0 0 1 1.3-.6c.6 0 2.3-1.4 2.4-2v-.7c0-.2.2-.1.4.1.2.4.5.3 1.2-.4.6-.5 1.1-1 1.3-1 0 0 .9-.6 1.7-1.4l1.5-1.5-.6-1.7c-.6-1.8-.7-2-1.5-1.2-.4.3-.4.3-.2-.5s.1-1-.4-.8c-.4.2-.5.1-.4-.1.4-.5-1.5-1.7-2.5-1.6-.7 0-.8 0-.4-.2.8-.6-.7-1.2-1.6-.7-1 .5-2.6 2.3-2.6 2.8 0 .2-.3.3-.6.2-.3-.2-.4-.1-.3.1v.3c-.3 0-.7.5-1 1.1-.4.6-.8 1-1 .9 0 0-.5.1-1 .5a3 3 0 0 1-1 .7l-1.7 1.4c-.8.8-1.4 1.4-1.2 1.4.1 0 .5-.2.7-.5.3-.3.6-.4.8-.3.3.2-.2.7-3.3 3-.8.7-1.5 1.4-1.5 1.6 0 .2-.3.9-.8 1.4-1 1-1.3 1.6-1.3 2.6 0 .2-.3.5-.6.6-1 .2-1.9 1.8-1.3 2 .8.3.9.2.8-.6zm13.2-5.4c.3-.2.3-.8.2-1.3l-.3-.8.7.8c1 1 1.3.6.6-.6-.5-1-.5-1-1.3-.4-.3.3-.7.4-.8.3-.1 0 .3-.5.9-.8.6-.4 1-.8 1-1 0 0 .2-.2.5-.2s.3.1 0 .5c-.6.6-.2 1.5.6 1.5.5 0 .6-.1.5-.4-.1-.3-.3-.5-.5-.3-.2 0-.2-.1-.1-.4.1-.3.4-.6.5-.6.2 0 .3.2.2.4-.2.2-.1.4 0 .4.2 0 .4.3.4.8 0 .7 0 .8-.6.7-.4 0-.7 0-.5.2.2.4-1 1.6-1.8 1.7-.4 0-.5-.1-.2-.5zm-3.4-1c.6-.5 1.1-.9 1.3-.9.2 0 0 .4-.6.9s-1.2.9-1.4.9l.7-1zm-5.4.2c-.3-.2-.4-.4-.1-.4.2 0 .5.2.6.4.3.4.2.4-.5 0zm13.2-1.3.1-1c.2-.1.4.1.4.7 0 1-.1 1-.5.3zm-5.8-.6c0-.1.3-.4.7-.6l.7-.2-.7.6-.7.2zm3.2-2.5.5-.4c.3 0 .5 0 .4.2-.3.3-1 .5-1 .2zm-6-.8c0-.4 2.4-2.4 2.4-2 0 .2-.5.8-1.2 1.3l-1.2.7zm4.3-3.5c.3-.4 1.1-1 1.7-1.4 1.2-.6 1.2-.6.6 0-.3.4-1.1 1-1.7 1.4-1.2.7-1.2.7-.6 0zm-6.3 14.7c.2-.2 0-.3-.3-.2-.6.3-.7.5-.2.5.2 0 .4-.1.5-.3zm-.5-.8c0-.2-.2-.2-.5 0l-.5.6h.5c.3-.2.5-.4.5-.6zm3 .4c-.1-.2-.4-.3-.5-.3-.2 0-.4.1-.4.3 0 .2.3.4.6.4s.4-.2.3-.4zm-10.7-.6c.4-.6.4-.6-.1-.1-.4.2-.7.5-.7.6 0 .3.3 0 .8-.5zm19.7-2.5c.5-.5.5-.5 0-.1l-.7.6c0 .3.3.1.7-.5zm2-.1c0-.2 0-.3-.2-.3-.5 0 0-1 .6-1.2.5-.2.5-.2 0 .4-.2.3-.3.5 0 .3.5-.3 1.5.1 1.3.6-.2.2 0 .2.4 0 .8-.5 1.7-1.8 2.3-3.2.3-.8.2-.8-.3-.6-.5.2-.5.1-.2-.2.5-.5.6-3.5.2-3.5a23 23 0 0 0-3.1 2.7 18.3 18.3 0 0 0-2.4 2.4c.2 0 .5 0 .5.4.1.6.2.6.8 0 .3-.4.6-.5.6-.3l-.3.6c-.2 0-.7.7-1 1.4-.7 1.1-.7 1.2 0 1 .3-.1.7-.3.8-.5zm-3.6 0s.2 0 .2-.4c0-.6 1-1.1 1.4-.8.2.1.4 0 .6-.2.1-.3 0-.3-.2-.2-.2.2-.4 0-.4-.3 0-.6-.2-.4-2.4 1.5-.8.7-.8.8-.2.5.4-.2.8-.3 1-.2zm-37.6-6.6c-.3-.4-.5-.7-.6-.6-.2.2.6 1.2.9 1.2 0 0 0-.3-.3-.6zm12.2-11.7c-.1 0-.5.1-.8.5-.6.6-.6.6.2.2.4-.3.7-.6.6-.7zm.1-1.6c0-.1-.3 0-.4.4-.2.5-.2.6.2.2.2-.2.3-.5.2-.6zm-.5-1.4c.1-.3 0-.5-.1-.4-.2.2-.4.4-.4.6 0 .5.3.4.5-.2zm-2.2-.2c0 .2.2.3.6.1.5-.2.5-.2-.1-.5-.5-.2-.6-.3-.2-.3h.8c.2 0 .2-.2 0-.4-.1-.3 0-.3.4-.2.4.2.5 0 .4-.3l-.4-.5a9 9 0 0 0-2.6 2.3c0 .1.3 0 .5-.2.4-.3.6-.3.6 0zm27.5-2.3c.2-.3.3-.5 0-.5-.1 0-.5.2-.7.5-.3.3-.3.6-.1.6.2 0 .5-.3.8-.6zm-15.9 0-.5-.3c-.3-.1-.5 0-.4.2.2.3 1 .5 1 .2zm15.3-.6c.9-.4 1.3-.9 1.7-1.9.6-1.9.6-2.2.2-2.2-.3 0-.7.2-1 .4-.3.3-.3.2 0-.3 1-1.2 1-1.4.4-1.5-.5 0-.6.1-.5.4.2.3 0 .2-.3 0-.6-.5-.6-.5-.4 0 .2.5.1.6-.2.5-.2-.2-.4 0-.4.4s.2.8.4.8.3.2.1.4c-.2.3-.3.3-.4 0-.2-.6-1.2-.5-2 .1-.7.5-.7.5 0 .5.4 0 1-.2 1.2-.4.2-.3.4-.3.4 0 0 .2-.3.4-.5.6-.3 0-.5.4-.4.7.2.3.4.4.6.3.1 0 .3 0 .3.2 0 .3.1.3.3.2.2-.1.4-.1.4 0l-1 .7c-1.2.7-.4.7 1.1 0zm-19-.5c0-.1-.4 0-.6.2-.4.4-.3.4.2.2.3-.1.5-.3.4-.4zm15.9-.1c-.1-.2-.4-.4-.6-.4-.1 0-.3.2-.3.4s.2.3.6.3c.3 0 .4-.1.3-.3zM56.7 141c.2-.4.6-.5.8-.4.1 0 .4-.2.5-.7.1-.5.4-.8.6-.7.1 0 .2 0 .2-.3 0-.2.3-.6.7-.8.7-.3 1-.9.6-.9-.5 0-2.3 1.2-2.3 1.5a9 9 0 0 1-2.2 2.7c-.3.3-.6.7-.6.9 0 .3 1-.4 1.7-1.3zm-13.5.5c-.1-.1-.4 0-.7.2-.3.4-.3.4.2.2.4 0 .6-.3.5-.4zm17-2.5c-.2-.4-.5-.6-.7-.5-.2.1 0 .4.3.7.9.6 1 .6.4-.2zm11 .1c-.2-.1-.5-.1-.8 0-.2 0-.2.2.3.2.3 0 .5 0 .4-.2zm.4-1.3c.2-.3.3-.2.3.3 0 .8.4.5.5-.4.1-.5.4-.6 1.5-.6 1.2.2 1.3.1 1-.7l-.1-1c0-.6-.8-.3-1.6.5-.4.4-1.2 1-1.7 1.2l-1.7 1.2-.9.6 1.2-.3c.7-.2 1.4-.5 1.5-.8zm-10.4.1c0-.2 0-.3-.2-.3s-.4.1-.4.3l.2.4.4-.4zm5.6 0c.1-.2 0-.3-.1-.3-.3 0-.4.1-.4.3l.1.4.4-.4zm-4.1-1H62c-.3.2-.2.3.2.3s.6 0 .5-.2zm4 0c0-.2-.2-.4-.4-.4s-.3.2-.2.3l.4.4.1-.4zm-3.6-1.5c0-.4-1.3.2-1.6.7-.1.2.2.2.7 0 .5-.2.9-.6.9-.7zm8-1.2c0-.4-.2-.4-.7-.1-1.1.6-1.1.6-.2.6.6 0 .9-.2.9-.5zm-38.8 38.4c-.8-.8-.7-1.2.3-.9.5.1.8.4.8.6 0 .1.2.4.5.6.3.2.2.3-.3.3-.4 0-1-.3-1.3-.6zm.8-.1c0-.2-.1-.4-.4-.4-.2 0-.2.2-.1.4s.3.3.4.3l.1-.3zm-3.7-2c-1-.8-1.6-1.5-1.4-1.5.5 0 3.5 2.7 3.3 3l-2-1.4zm-2.7-3a19 19 0 0 1-1.6-2.8c-.9-1.7-.7-1.5 1.4 1.8 1.4 2.3 1.5 2.7.2 1zM23 160c-.2-.7-.3-1.4-.1-1.4.3 0 .8 2.5.6 2.7-.1.1-.3-.5-.5-1.3zm-.6-2-.2-1.1v-1l.4 1c.3.8.3 1.6-.2 1.2zm23.4-.6c-.4-.5-.3-.5.1-.3.4 0 .6.3.6.5 0 .5-.2.4-.7-.2zm-1.4-4.1a9.8 9.8 0 0 1-.6-2.7c.1 0 .3.2.4.6.2.6.4.7.6.4.2-.4.4 0 .6.9.3 1 .3 1.4 0 1.8-.3.4-.3.5 0 .3.2-.1.4 0 .5.3.1.3 0 .6-.3.7-.3.1-.7-.6-1.2-2.3zm-21.2 0c-.4-.3-.3-.3.1-.2.4.1.6 0 .6-.1 0-.2.4-.4.8-.4.5 0 .6.1.2.5-.5.5-1.1.6-1.7.1zm4.3-2.6.5-.3c.3-.1.5 0 .4.1-.3.3-1 .5-1 .2zm1.2-3.7c-.1-.2 0-.4.2-.4s.3.2.3.4l-.1.3-.4-.3zm-.5-2.6c0-.6 0-.7.3-.2.5.6.5 1 0 1-.2 0-.3-.3-.3-.8zm19.2-2 .4-.4.1.4c0 .2-.1.3-.3.3-.2 0-.3-.1-.2-.3zm.2-1.7c0-.2.1-.5.3-.6.2-.1.4 0 .4.1 0 .2-.2.5-.4.6-.2.1-.3 0-.3-.1zm-17.4-1.4c.4 0 .8-.4.8-.6 0-.3.1-.5.3-.5.1 0 .3.3.3.7 0 .5-.3.7-1.1.6-.8 0-1 0-.3-.2zm17.2-1.2c1.8-1.2 3.7-2 3.7-1.7 0 .2-.2.3-.5.3-.2 0-1.2.5-2 1.1-2 1.2-2.8 1.5-1.2.3zm-5.1-2.9.5-.3c.4-.2.5-.1.4 0-.2.4-1 .6-1 .3zm1.9-.5c-.3-.2 1.2-1 4-2.4 2.3-1.2 4.3-2.1 4.3-2 0 .2-1.8 1.1-4 2.2-2.3 1-4 2-3.9 2.2.2.4.1.4-.4 0zm28-.5c0-.3.3-.5.6-.5.4 0 .4.1.1.5l-.7.4c-.1 0-.2-.2 0-.4zM53.3 130l3.3-1.7a156.4 156.4 0 0 0 5.9-2.8c.6 0-1.4 1.4-2.9 2-.8.3-1.5.7-1.5.9l-.6.2c-1 0-3 1.2-2.6 1.4.2.2-.1.3-.7.3s-1-.1-.9-.3zm10-4.9c.2-.3 1.5-.3 1.3 0-.1.2-.5.3-.9.3s-.6-.2-.5-.3z" transform="translate(-16.8 -119.2)"/>
  <path style="fill:#92633d;stroke-width:.352778" d="M54.9 188.5c-.3-.3.9-1.6 1.2-1.3.2 0 .3.3.3.5 0 .4-1.3 1-1.5.8zm-4.3-.5c-.2-.2-.2-.5-.1-.6 0 0 .3.1.4.4.2.6 0 .7-.3.2zm7-1.9c.1-.7 0-2.3-.6-5.8-.1-.4 0-.9.2-1 .2-.1.3 0 0 .2-.1.3 0 .4.2.2.2-.1.3-.4.2-.5 0-.2 0-.4.3-.4s1-.4 1.4-1c.4-.6 1-1 1-1 .6 0 2.4-1.6 2.3-1.9-.1-.1 0-.4.4-.7.4-.3.5-.3.3 0-.1.2 0 .4.2.4.3 0 .2.3-.3.8-.6.7-.5.7.5-.1.7-.5 1.2-1 1.2-1.2 0-.2-.2-.2-.4.1-.2.3-.4.4-.6.3-.3-.4.4-1.5 1-1.4.1 0 .3-.1.3-.4 0-.3.3-.5.6-.4.4 0 .6-.2.5-.5 0-.3 0-.4.2-.3.1.1.6-.2 1-.8a17 17 0 0 1 2.7-2.1c1-.6 1.6-1.3 1.5-1.4 0-.2 0-.4.2-.4l.7-.1c.3 0 3.7-2.7 6.3-5a120 120 0 0 1-9.1 8c-2.9 2.2-4.4 4.3-2.7 3.6.3 0 .5-.4.3-.6 0-.2.1-.2.5.1.3.3.5.4.4.1-.2-.2 0-.7.4-1 .4-.3.6-.8.5-1-.1-.2 0-.1.4.1.5.4.7.5 1.5 0 1-.5 1.1-1 .2-.8-.3.1-.2 0 .3-.4s.9-.8.8-1c0-.3.1-.7.4-.9.5-.4.5-.4.3.2-.2.5-.1.6.4.4.6-.2.5 0-.3.7a5 5 0 0 0-1 1.2c0 .4 2.2 0 2.5-.4l.6-.5c.2 0 .3-.2.2-.3 0-.2.1-.2.3 0 .2 0 .3.3.2.5-.1.2 0 .3.1.3.2 0 .4-.3.5-.8.2-.6.3-.7.6-.2.3.5.5.2.4-.6 0-.2 0-.2.2 0 .1 0 .6 0 1-.3.5-.3.9-.4.9-.3 0 .4-2.4 2.5-12.4 10.9-10.9 9.2-9.9 8.5-9.7 7.4zm1-1.6c.2-.2.1-.4 0-.6-.3 0-.4 0-.4.4 0 .6.2.7.5.2zm1-4.3c.8-1.3 1-2.4.5-2.3-.6.1-1.9 1.7-1.7 2.2 0 .2 0 .6-.4.8-.2.2-.4.7-.3 1.1.2.7.2.7.8 0l1.1-1.8zM47 185.4c-.8-1-1-1.6-.2-1 .6.5 1.4 1.8 1.1 1.8l-.9-.8zm8.6-2.8c-.8-2.5-.9-3.1-.7-3.3.1-.1.2 0 .2.2s.1.3.3.2c.2-.1.5.3.7 1 .1.6.2 1.2 0 1.2-.2.1-.3.3-.3.5s.2.3.3.1c.2 0 .4 0 .4.2 0 .5-.7.5-.9 0zm-12.7-2.2-.5-1c.1-.1.5.3.8.9.8 1.2.5 1.4-.3.1zm13.4-2-.1-.7.9-.5c.6-.4.7-.3.5.6-.1 1.2-1 1.6-1.3.6zm-14.6-.1c-.3-.3-.3-.5-.1-.5.2 0 .5.2.6.5v.5l-.5-.5zm10.7-3a35.6 35.6 0 0 0-4.2-5.6c-.7-.9-1-1-1.3-.7-.2.3-.3.2-.3-.3 0-.9 0-.8 1.5.3 1.7 1.4 4.3 4.6 5.6 7 1.6 2.8.6 2.3-1.3-.6zm3.6 1.4c0-.1 0-.3-.3-.4-.3-.1-.3-.3 0-.8.7-.8 1.7 0 1.1.9-.2.4-.5.7-.7.7-.2 0-.3-.2-.1-.4zm2.3-.1c0-.3.1-.6.3-.7.2-.2.2 0 .1.5-.2.8-.4.9-.4.2zm1.7-1.3c0-.2.2-.4.4-.4.7 0 .9 0 1.5-.6.7-.6.7-.6 0 .4-.3.5-.7.7-.8.6 0-.2-.3-.2-.6 0-.3.3-.5.3-.5 0zm-5.6-.5a217.8 217.8 0 0 1-3-3.8c-1.4-1.7-3.7-3.2-4.8-3.2-.6 0-1.6-.2-2.3-.6-1-.5-1.4-.5-1.6-.3-.2.4-.5.4-1.3 0-1.4-.5-2 .1-2 2.2 0 1.5-.2 1.7-3 3-.2 0-.4-.3-.5-.7 0-.4 0-.6.2-.5.6.4 0-4.5-.5-5-.2-.1-.5-.6-.5-1a195.7 195.7 0 0 1-.4-3.4c0-.2-.3-.3-.7-.3-.4 0-.4-.1-.2-.2.6-.3.2-.9-.5-.9-.3 0-.4.2-.3.6.2.5.1.5-.3 0-.5-.7-.5-.8 0-.9.3 0 .5-.2.5-.4a13 13 0 0 0-2.2-3.5c-.2-.2-.2-.4 0-.5.4-.2 1.9 1 1.9 1.4 0 .5 2.2 3 2.7 3 .2 0 .4.1.3.3-.4.6 4 3.8 4.7 3.4.2-.1.4 0 .6.2.2.4 2.4.4 3.3 0 .4-.2.6-.7.6-1-.1-.3 0-.4 0-.2.1.3.3.5.4.5.4 0 1.2-1 1.3-1.5l.5-1.5c.2-.6.3-1.6.2-2.2l-.4-2.3c0-.7-.3-1.7-.5-2.3-.2-.6-.2-1 0-1.3.4-.4 0-1.4-.3-1.1-.2 0-.5-.3-.7-.9-.3-.9-.3-1 .4-1.3l1-.3 1.8-1.6c.9-1 1.7-1.6 2-1.4.5.3 0 1-.7 1.2-.7.1-2 .8-1.8 1 .3.8 0 2-.5 2.2-.5.2-.5.1-.1-.3.2-.3.3-.6 0-.6-.4 0-.7.8-.5 1.4.3.7 1.1.5 1.9-.6.4-.6.8-1 1-1 .8 0 1.2-.2 1-.6-.1-.3.3-1 1-1.6.7-.6 1.2-1.2 1-1.4-.1-.1-.3 0-.4.2-.3.8-.8.5-.6-.4 0-.6 0-.8-.4-.7-.2.1-.4.5-.2.8.1.4 0 .4-.5.1-.4-.2-.8-.3-1-.2 0 .1-.3 0-.6-.4-.4-.5-.3-.5.6-.3 1 .2 1 .2-.1-.4-1.4-.6-1.4-.6-3.7 1.3-1.6 1.4-3.3 1.9-2.9.9.1-.3 0-.7-.4-1-.3-.2-.5-.5-.5-.7 0-.3-1-1.5-2-2.6-.4-.4-.3-.6.4-1 1.1-.7 2.6-1.1 2.6-.6 0 .2-.3.4-.6.5-.5.2-.6.5-.5.8 0 .3 0 .5-.3.5s-.1.2.3.4c.5.1 1 .2 1.2.1.2-.1.3 0 .3.2l.5 1c.5.4.5.5 0 1-.6.4-.6.4 0 .3 1-.1 2-.6 4-1.9 1-.6 2-1 2.2-1 .2.2.6.1.9-.1.3-.3.5-.3.5-.1 0 .2-.2.5-.5.8-.8.7-.3 1.3 1 1.1.6 0 1.3-.3 1.6-.5.5-.3.5-.3.1.1-.7.8-.5 1 .4.7.6-.3.8-.6.7-1-.2-.5-.2-.5.3 0 .3.2.5.7.4.9 0 .2 0 .5.3.7.3.1.3 0 .1-.2-.2-.4-.1-.5.4-.3.3.2 1 0 1.6-.5l1-.5c0 .1.5 0 1-.5l1.4-.7c.3 0 .3-.3.2-.6-.2-.5-.1-.6.3-.2.3.3.7.3 1 0 .4-.3.4-.3 0-.1l-.7-.1c0-.4 1.6-1.1 2.6-1.1.4 0 1.3-.4 2-.8 3.2-1.9 7.4-4.6 7.5-4.8.1-.1 0-1-.4-2-.5-1.5-.6-1.7-1.5-1.5-1 .1-1 .1-.5-.7.4-.6.4-.8 0-.6-.3.1-.5-.1-.7-.7-.2-1-1.6-1.7-2.6-1.4-.5.2-.5.1.1-.3.7-.5.7-.6 0-1.2-.4-.5-1.1-.7-2.5-.7-1.3 0-1.7 0-1.6-.4.1-.4-.3-.6-1.3-.5-.3 0-.4 0-.2-.3.3-.6 3-.2 4.9.7 6.3 2.8 10.2 12.7 7.1 18.2-.7 1.2-2 2.4-6.3 5.2-.5.3-.3.4 1.3.3 2.8-.2 5.8 1.3 8.4 4.1a18.2 18.2 0 0 1 4.4 8.3v2.6a4.8 4.8 0 0 1-1.3 3l-1 1.2.7-1.4c.5-1 .8-2 .9-4v-2.6l-.8.6-1 .6.7-1c.7-.8.8-2.3.1-2.3l-.5-.9c-.1-.7-.3-.8-1-.6-.7.2-.7.1-.2-.4.4-.5.3-.7-.4-1.5-1.3-1.3-2-1.6-2.9-1.1-.6.3-.7.3-.3 0 .3-.5.2-.7-.4-1.2a4 4 0 0 0-.8-.6 9 9 0 0 0-3.2 2.1c0 .3-.5.7-.8.8-.4 0-.7.4-.7.7 0 .3-.2.6-.4.6s-.3.2-.3.5-.2.5-.4.5c-.1 0-1.2.5-2.2 1.3-1.4 1-1.9 1.5-1.7 1.8.3.3.1.3-.4.2-.7 0-1 .1-1.5.9-.4.5-.7 1.1-.6 1.3 0 .1 0 .2-.3 0a1 1 0 0 0-.7.4c-.4.4-.4.6 0 .8.4.3-.3 1-3.3 3.4-1.6 1.2-2.2 1.5-1.8.9.2-.3.1-.4-.1-.2-.3.1-.4.4-.3.6.2.1.1.5 0 .7-.2.3-.3.2-.5-.2-.2-.5-.3-.5-.9.2-.4.4-.5.7-.3.5.3-.1.4.1.4.6l.2 2.2c.1.8 0 1.6-.2 1.9-.7.8.9 0 2.5-1.4.8-.6 1.7-1.2 2-1.1.3 0 .4-.2.3-.6-.1-.4 0-.7.2-.7s.4.1.4.4c0 .2.3.1.7-.3 1-.8.9-.2 0 .8-.5.5-.7.8-.4.8.2 0 .4.2.4.4s-.2.3-.3.2c-.2-.1-.5 0-.6.1-.1.2-.4.4-.6.4-.2 0-.2-.2-.1-.3.1-.2 0-.5-.2-.6-.4-.3-3.5 2.5-3.5 3.2 0 .2-.3.4-.7.4-.4 0-.7-.1-.7-.4zM42 166.5c-.1-.2-.5-.4-.8-.4-.5 0-.5 0 0 .4.6.4 1 .4.8 0zm15.7-.5c.5-.6.4-.7-.5-.4-.3.2-.5.4-.5.6 0 .5.5.3 1-.2zm.9-1.3c.1-.2 0-.3-.2-.3s-.3.1-.3.3l.1.4.4-.4zm2-1c.6-.5.5-1.1-.2-1-.2 0-.2 0 .1.2.4.3.3.4-.4.6-.5.1-1 .5-1 .7 0 .6.4.4 1.5-.5zm-12.2-5.5c0-.3 0-.6.2-.7.2-.2.2-.4 0-.6-.8-.4-1.2 0-.8.7.2.4.3.8.1.9 0 .1 0 .2.3.2.2 0 .3-.2.2-.5zm.6-5.1a3 3 0 0 0 .4-1.9c-.2-.8-.2-.8.4 0 .5.6.5.6.2-.1-.2-.4-.3-.9-.1-1 .1-.2-.3 0-1 .5s-1.3 1.2-1.3 1.4c-.1.3 0 .3.2 0 .3-.4.6-.6.8-.5.2.1-.2.7-.8 1.3-.7.6-1 1-.6.9.4-.2.6-.1.6 0 0 .8.6.4 1.2-.6zm6.4-6c.2-.3-.2-.2-.8.1-.6.3-1.2.8-1.3 1-.1.2.2.1.8-.2.6-.3 1.2-.7 1.3-1zm-2.7.4c0-.7.1-1.1.6-1.1.3 0 .5-.2.5-.4s-.4 0-1 .3c-1.1.6-1.3.8-.8 1.2.3.4.8.3.7 0zm6.8-2.5c0-.2-.2-.4-.4-.6-.2 0-.2 0 0 .4 0 .5 0 .6-.4.4-.4-.1-.6 0-.6.3 0 .4.1.5.7.2.4-.2.7-.6.7-.7zm-3.9 0c0-.2-.2-.3-.5-.2-.3.1-.6.4-.6.5 0 .2.3.3.6.1.3 0 .5-.3.5-.5zm1.6-.3c-.1-.1-.4 0-.6.2-.4.4-.3.4.2.2.3-.1.5-.3.4-.4zm11.6.3c.3-.5 0-.5-1 0-.7.3-.7.3 0 .3.5 0 1-.1 1-.3zm-5.8-.7c.5-.5.5-.5 0 0-.7.4-.9.7-.6.7.1 0 .4-.3.6-.7zm4.5-.6c.5-.1.5 0 0 .4-.4.6-.4.6.2.4l1-.2c.2 0 .6-.4 1-.7.4-.4.8-.6.9-.4.1.2-.1.5-.5.7-.4.2-.7.5-.7.7 0 .2.7 0 1.7-.5 2.1-1 2.5-1.1 1.4-.2-.5.3-.7.8-.6 1 .3.2 2-1.3 1.8-1.7 0-.2 0-.4.4-.6.8-.5 1.3-2.6 1-5.2l-.2-2.6c-.2-.2-3.5 2-3.7 2.5 0 .1-.3.3-.5.3l-2 1.1a14 14 0 0 1-1.8 1.1c-.2 0-2.8 1.7-2.8 1.8h.8c.6-.2 1 0 1.1.3.3.6-.5 1.7-1.2 1.7-.2 0-.4.1-.4.3 0 .6 1 .4 1.6-.2.4-.5.6-.5.5-.1v1c.1.4.1.4.3 0 0-.4.4-.7.7-.9zm1-1.6c.5-.5.4-.6-.1-.7-.5-.1-.4-.3.5-.8 1.3-.7 1.9-.8 1-.1l-.6 1c0 .5-.4.8-.7 1-.4 0-.4 0 0-.4zm-2-.3c0-.2.2-.3.4-.2.2.1.3 0 .4-.2 0-.7 1.6-2.6 1.8-2.2.2.2-.1.7-.6 1-.5.3-1 .9-1 1.2 0 .4-.1.7-.4.7-.3 0-.6-.1-.6-.3zm-4.5 2.3c.3-.2.8-.6 1.2-.7.6-.2.7-.4.6-1-.2-.6-1-.7-.9 0 0 .2-.1.3-.4.2-.3-.1-.6 0-.6.3s-.3.8-.7 1.1c-.7.5-.7.6-.2.6.3 0 .8-.2 1-.5zm-1.3-.8c0-.1-.5 0-.8.4-.6.6-.6.6.2.2.5-.2.8-.5.6-.6zm-10.7-.8-.2-.4-.4.4c-.1.2 0 .3.2.3s.4-.1.4-.3zm15.8-.4c0-.2-.2-.2-.5 0-.3 0-.5.3-.5.4 0 .2.2.2.5.1.3 0 .5-.3.5-.5zM63 172c0-.8 0-.8.3-.3.2.4.2.7 0 1-.2.2-.4 0-.4-.7zm10.4-1.7.6-.5c.3-.3.5-.3.5-.1 0 .2-.2.4-.5.5l-.6.1zm-9.1-1c0-.1.2-.4.6-.6.5-.5.6-.5.1 0-.4.7-.7.9-.7.6zm-6.2-.6.4-.4.1.4c0 .2-.1.4-.4.4-.2 0-.2-.2-.1-.4zm0-1.4.4-.4.1.4c0 .2-.1.3-.4.3-.2 0-.2-.1-.1-.3zm18.2-1.7c0-.2.1-.5.3-.6.2-.1.4 0 .4.1 0 .2-.2.5-.4.6-.2.1-.3 0-.3-.1zm-12.7-3.2c0-.2.3-.6.8-.8.7-.4.7-.4 0 .3-.7.9-.8 1-.8.5zm-30.2-.4c-.1-.2 0-.3.3-.2.8 0 1.1.5.5.5-.3 0-.7-.1-.8-.3zm32.6-3c0-.3.3-.6.6-.9.3-.2.5-.3.5 0l-.5.7c-.3.3-.6.3-.6.1zm1.8-1.6.9-.3c.2 0 0 .1-.2.3l-.9.4c-.2 0-.1-.2.2-.4zm-37.8-.6c-.4-.6-.4-.6.1-.1.4.2.6.5.6.6 0 .3-.2 0-.7-.5zm1-2.8h.7c.1.1 0 .2-.5.2-.4 0-.4 0-.2-.2zm12.4-5h.7c0 .2-.1.3-.5.3s-.5-.1-.2-.2zm5.5-.5c.2-.4.4-.6.5-.4 0 0 0 .3-.3.6s-.4.3-.2-.2zm-3.8-.5c.2-.4.1-.5-.2-.3-.2.1-.4 0-.4-.3 0-.7 1.4-1.5 1.5-.9v.8l.7-.2c.8-.4.8-.4 0 .6-1 1-2 1.2-1.6.3zm5.6-1.4c.5-.5 1-.8 1-.7.3.2-1.2 1.6-1.6 1.6-.2 0 0-.4.6-.9zm5.8-3.3c0-.2.2-.4.4-.4s.3.2.1.4c0 .2-.3.4-.3.4l-.2-.4zm1.4-.7c0-.2.2-.3.4-.2.2.1.3.3.3.4l-.3.1c-.2 0-.4-.1-.4-.3zm-2.1-1.9 1.3-1.3c.4 0-1.6 2.3-2 2.4-.3.1 0-.4.7-1.1zm-25.1-1.2h.7c0 .2-.1.3-.5.2-.4 0-.5 0-.2-.2zm31.5-.2c.4-.3.5-.6.3-1-.6-.9-.4-1.1.4-.3.8 1 .7 1.6-.4 1.6-.7 0-.8 0-.3-.3zm2-1.2c-.4 0-.6-.3-.4-.5.3-.5.7-.4 1 .2v.5l-.6-.2zm3.2-.2.6-.4c.3 0 .5 0 .5.2s-.2.3-.5.3l-.6-.1zm-.4-.8h.7c.1.1-.1.2-.5.2s-.5-.1-.2-.2zm-4.7-.5c.1-.2.4-.4.6-.4.2 0 .2.2.1.4 0 .2-.3.3-.5.3s-.3-.1-.2-.3zm2 0c0-.4.6-.9.9-.6l-.4.6c-.3.3-.5.3-.5 0zm-10.4-6.4c.1-.2 1.6-1 3.3-1.8 1.6-.7 3.5-1.6 4-2 1-.5 1-.5.7 0-.3.3-1.2.8-2 1.2a53 53 0 0 0-6 2.6z" transform="translate(-16.8 -119.2)"/>
  <path style="fill:#885837;stroke-width:.352778" d="M58.3 185.8c.6-.7.9-1.3.7-1.3-.1 0 0-.3.3-.6.3-.4.3-.5 0-.4-.3.2-.4 0-.3-.5 0-.5.3-.8.6-.7.2 0 .3 0 .2-.3-.4-.5.1-2 .7-2.3.3 0 .4 0 .3.2-.1.2 0 .3.2.3s.3-.2.2-.6c-.2-.4 0-.8.3-.9.3-.1.4-.5.3-1-.1-.6 0-.7.2-.4.2.4.4.4.7 0 .3-.3.4-.7.2-1-.1-.2 0-.3.4-.2.4 0 .6-.1.6-.4 0-.2.1-.4.3-.3.3 0 .5-.1.5-.3 0-.3.1-.6.3-.7.2-.2.2-.2.1 0l.1 1c.3.3.4.3.4-.2 0-.4.3-.5 1-.5.6 0 1 0 .9-.1-.1-.2 0-.4.2-.5.2-.2.3-.1.3 0 0 .7 1 .8 2 .3l1-.5c.2 0 .4 0 .5-.2.1-.2 0-.1-.3 0-.4.2-.4.2-.2-.1.2-.2.8-.5 1.3-.6l1-.1s0-.3-.3-.6-.4-.6-.2-.8c0 0 .2 0 .2.2 0 .3.4.2 1-.3l1.2-.7c.2 0 1-.6 2.1-1.3l1.9-1.2-1.1 1.1c-.8.9-11.5 10-19.7 17l-1.1.8zm7.1-9.7c-.1-.1-.4 0-.6.2-.4.4-.3.4.2.2.3-.1.5-.3.4-.4zm-7.8 7.2c0-.6.2-.8.7-.7.6.2.6.2 0 .9-.8.8-.8.8-.7-.2zm-.5-2.9c0-.5 3-3.4 3.3-3.1.1.1.3 0 .4-.3.2-.3 1.1-1.3 2.2-2.1s3.2-2.5 4.5-3.8a40.8 40.8 0 0 1 7.5-5.8 37 37 0 0 1-3.6 3 38 38 0 0 0-4 3.2c-.8 1-6.8 6-7.2 6-.2 0-1 .8-1.7 1.7-.8.9-1.4 1.4-1.4 1.2zm-1.1-3.7c.2-.3.5-.4.6-.3.1.1-.1.3-.4.5-.6.2-.6.1-.2-.2zm-1.6-2c.2-.5 0-1-.3-1.3-.7-.7-.7-1 0-.7.3.1.5.4.5.7 0 .7.6.6 2-.5 1.4-.9 1.4-.9-.2.7-1.7 1.8-2.3 2.1-2 1zm11.5-.5c0-.2.3-.3.6-.3l.5.1-.5.4c-.3 0-.6 0-.6-.2zm3.7-.5c0-.3.3-.8.7-1.1.5-.5.6-.5.4-.1a3 3 0 0 0-.5 1.4c0 .6-.6.4-.6-.2zm-17-1.5c0-.4-2-2.4-2.7-2.6-.3-.2-.5-.5-.4-.6.1-.2 0-.4-.2-.4-.3 0-.7-.2-1-.4-.4-.4-1-.7-2.2-.8-.3 0-.5-.2-.4-.4.1-.3-.4-.5-1.4-.6-1.3 0-1.7 0-1.7.4 0 .3-.1.2-.3-.2-.4-1-.8-1-2 0-1.3 1.1-1.7 2.4-1.1 3.5.2.4.2.7.1.5a4 4 0 0 0-1.5.7l-1.5.8v-2c.1-2.9-1.8-10-2.7-10-.3 0-.4-.1-.3-.3.2-.4-.4-1.7-1.1-2.4-.3-.3-.5-.7-.5-1 0-.3-.2-.5-.5-.5s-.5-.2-.4-.4c.4-.5.7-.4 1.4.8 1.7 2.9 7.3 7.8 8.3 7.2.2-.1.4 0 .4.2.1.2.8.4 1.5.4 1.6 0 4-1.5 4.6-2.8.2-.6.6-1.1.9-1.3.5-.3 1.2-2 1.1-2.6 0-.2.2-.4.4-.5.3 0 .2-.1-.2-.3-.6-.4-.6-.5.2-1.3.5-.5.6-.8.4-.7-.6.4-.6-.5 0-1.1.2-.2.2-.4 0-.4-.1 0 0-.3.5-.6.8-.5 1.2-1.8.4-1.3-.3.1 0-.2.5-.7 1-1 1.5-1.2 1.1-.5-.1.2 0 .1.5-.2.4-.4.7-.9.6-1-.2-.2 0-.3.5-.2.4.2.8.1.9 0 .1-.3 0-.4-.4-.2-.4 0-.2-.2.4-.7 1.7-1.5.7-1.1-2.1.8-1.5 1-2.6 1.5-2.6 1.3 0-.2-.3-.1-.7.2-.3.3-.8.6-1 .6a7 7 0 0 1 2-1.6c.5 0 3.9-2 3.9-2.4 0-.2 0-.3.2-.1.2.2 2.5-1.2 3.7-2.1 1.9-1.6 2.8-2.3 4.1-2.8.9-.3 1.4-.8 1.3-1-.2-.2 0-.3.3-.1.2 0 .9-.1 1.3-.5.5-.4 1-.7 1.3-.7.2 0 1.3-.6 2.3-1.4l2.2-1.4c.3 0 4.1-2.5 4.1-2.7 0 0-.3-1-.8-1.9-.6-1.4-.9-1.7-1.4-1.6-.7.3-.8-.2-.3-.7.6-.6-2.2-3-3-2.8-.6.2-.6.2-.2-.1.5-.3.4-.5-.3-1.1-.9-.8-2.9-1.3-3.5-1-.2.2-.4 0-.4-.2 0-.3-.3-.6-.6-.7-.3-.1 0-.1.8 0 5 .6 9.7 6 10.8 12a10 10 0 0 1 0 4.5l-.3.8a4 4 0 0 0-.2.9l-.6.6c-.3.2-.4.3-.2.3.1 0-.1.5-.5 1.1-.4.6-.9 1-1 1-.1-.2.2-.7.6-1.2.5-.5.8-.9.6-.9-.1 0 0-.3.3-.7.7-1.2 1-3.5.5-3.5-.3 0-.3-.1 0-.4.1-.3.2-1.2 0-2.1-.2-2 .2-2-4.6 1.1a57 57 0 0 1-7.8 4.7 17.5 17.5 0 0 0-4.5 2.8l-1.2 1c-1.2.7-1.7 1.7-.9 1.7.2 0 .4-.1.4-.3 0-.2.2-.3.5-.1.3 0 .4.3.3.5-.2.3 0 .3.7.2.5-.2 1-.1 1 0 0 .3.2.4.5.4s.4-.1.3-.3c-.1-.2 0-.3.4-.1.4.1.5 0 .4-.2-.2-.2.1-.7.8-1 .6-.4 1-.8 1-.9l1-.5c.7-.4.6-.2-.2.5-.7.6-1 1.1-.9 1.2.2 0 .1.1-.1 0-.3 0-.5.2-.5.4 0 .4-.7 1-1.4 1l-.6.4c-.1.2.3.3 1.2.1l2-.2c.3 0 .6-.3.8-.6.2-.5.1-.6-.2-.2l-.9.4c-.4 0 .9-1 1.3-1 .2 0 .3.2.3.5s.2.5.4.4c.2-.2.3-.4.2-.5-.3-.5 1-1.5 2.2-1.6.7-.1 1.4-.4 1.6-.6.2-.2.6-.3.9-.3.2 0 .8-.3 1.1-.6.4-.3.8-.5.9-.4 0 0-.3.5-1 1-.5.4-1 .9-1 1.1 0 .3.2.2.4 0 .2-.5.3-.5.3-.1s.1.4.6 0a24.1 24.1 0 0 1-2 1.8c-.7.5-.6.5 1.2.4 2.8-.2 5.8 1.3 8.5 4.2 2 2.3 2.6 3.3 1.6 3.3-.4 0-.6-.2-.4-.6.2-.8-1.8-2.7-2.8-2.7-.4 0-.6-.2-.5-.5.1-.2-.2-.7-.6-.9-1.1-.6-3-.4-2.8.3 0 .2-.1.3-.3.2-.2-.1-.7.3-1.2.9-.5.6-1 1-1.1 1-.5 0-1.3 1.1-1 1.4l-.1.4c-1-.2-1.6 0-1.5.5.1.2 0 .4-.5.5-.8 0-1.4.7-1 1.3 0 .2 0 .2-.1 0-.2 0-.6.2-1 .7-.4.5-1 .9-1.3.9-.3 0-1.1.4-1.8 1-.6.6-1.3 1-1.5.8-.2 0-.3 0-.1.2.1.2-.2.7-.8 1l-1.5 1.2-1.6 1.3c-.8.6-1 .8-.6 1.2.3.4 0 .9-1.3 2.2-1 1-1.7 1.8-1.6 2 .1.2 0 .5-.4.6-.4.3-.3.4.5.8.7.3.8.5.4.7-.6.4-1.4.5-1.4.1zm3.2-5.5c.5-.3.6-.5.3-.7-.5-.3-1.3.3-1.9 1.3-.3.6-.2.6.3.3l1.3-.9zm-4.3-14c0-.2-.2-.3-.4-.3s-.3.1-.2.3l.4.4.2-.4zm4.4-3.4c-.1-.1-.4 0-.7.2-.3.4-.3.4.2.2.4-.1.6-.3.5-.4zm2.1-.4c-.1-.1-.4 0-.6.3-.4.3-.3.3.2.1.3 0 .5-.3.4-.4zm1.8 22.1c.3-.3.4-.6.3-.7l.5-.1c.8 0 .6.4-.4 1-.7.3-.7.3-.4-.2zm-5.9-1.5.6-.4c.3.2-.2 1-.6 1-.3 0-.2-.3 0-.6zm18.5-.5c0-.6 0-.7.4-.3.2.2.4.5.3.7-.3.5-.7.3-.7-.4zM58 166l2.1-1.8c.7-.6.8-.6.6 0l-.5.5a8 8 0 0 0-1.7 1.3l-1.6 1.2c-.2 0 .3-.5 1-1.1zm23.8-.5c.4-.8.8-1.4.9-1.3.2.2-1 2.2-1.3 2.4-.2.2 0-.4.4-1.1zm-6.4-.5 1.1-1.2 1.1-1-1 1.1c-1 1-1.2 1.3-1.2 1zm-17.9-.6.4-.4.2.4c0 .2-.2.3-.4.3s-.3-.1-.2-.3zm25-1.8c0-.4 0-.7.2-.5.2 0 .3.4.2.7-.3.7-.5.6-.5-.2zm-4.7 0c0-.2.2-.4.4-.4s.3.2.2.4l-.4.4-.2-.4zm3.9-3.3c.2-.3.3-.8.2-1.2-.2-.5-.2-.5.1 0 .6.7.5 1.2-.2 1.5-.4.2-.5.1-.1-.3zM47 155.9c.1-.4.4-.7.7-.7.6 0 .6.4 0 1s-.9.5-.7-.3zm-.4-2.8c.1-.2 0-.4-.1-.4-.2 0-.4-.3-.3-.6 0-.4.2-.6.4-.5.3 0 .6 0 .7-.3.1-.2.4-.3.6-.3.2 0 0 .3-.4.7-.5.5-.6.9-.3 1 .2.2.1.4-.2.5-.4.1-.5 0-.4-.1zm-1-3c-.3-.8-.2-1 .5-.5.4.2.4.4.1.7-.3.2-.4.2-.6-.2zm6.8-.9c0-.2.2-.4.4-.4s.3.2.2.4l-.4.3c-.1 0-.2-.1-.2-.3zm-7.1-1.1c.2-.2.5-.4.6-.2.1 0 0 .3-.4.4-.5.2-.6.1-.2-.2zm14.2-1.2.7-.5.7-.2-.7.5-.7.2zm4.7-.5c0-.2 0-.4.2-.4s.4.2.4.4-.1.3-.2.3l-.4-.3zm-20.5-.7c.2-.4.5-.6.6-.6 0 .1.8-.2 1.7-.7l1.7-1-1.6 1.5c-1.7 1.6-3.2 2-2.4.8zm-.5-1c-.2-.6-.2-.8.1-.5.2.2.3.6.2.8 0 .3-.2.1-.3-.4zm21-1.9c0-.5 0-1 .2-1s.2.3.1.6c-.2.4 0 .5.6.4.8-.3.7.2-.3.7-.5.3-.6.2-.7-.7zm-22.6.2c0-.6.6-.5.9.1 0 .3-.1.5-.4.5-.3 0-.5-.3-.5-.6zm8.7-.5c.9-.7 1.4-.9 1.4-.5l-1.1.7-1.2.5zm-10-1.6c.8-.6 3-1.3 3-1a12 12 0 0 1-3.4 1.5c-.2 0 0-.2.5-.5zm28-1.2.3-.6c.2 0 .4 0 .4.4 0 .3-.2.5-.4.5-.1 0-.3-.1-.3-.3z" transform="translate(-16.8 -119.2)"/>
  <path style="fill:#754b2e;stroke-width:.352778" d="M59 185c.4-.4.8-.9 1-.9.1 0 .3-.2.3-.5s.2-.4.5-.3c.6.2 1.6-1.4 1.2-2-.2-.4-.4-.3-1.2.5-.4.5-1 1-1.1 1-.4 0 2-2.5 2.8-3 .6-.3.6-.2.4.1-.4.6-.6 1.8-.3 1.8.6 0 1.6-.8 1.6-1.3 0-.2.2-.6.6-.7 1-.3 3.1-2.4 3-3-.2-.3 0-.4.7-.3.7.2 1.8-.4 1.5-.8-.1-.1 0-.2.3-.2s.5.1.4.3L59 185.5c-.7.5-.7.5 0-.4zm5.2-6.3s.2-.4.6-.6c.5-.5.6-.4.1.1-.4.6-.7.8-.7.5zm7-3.6c-.3-.4.3-1 1.8-2.2.4-.3.7-.3.9 0 0 .1 0 .3-.2.2-.2 0-.8.5-1.3 1.1-.6.7-1.2 1-1.3.9zm-16-.8c.4-.4.7-.6.8-.5.2.1-.7 1.1-1.1 1.1-.2 0 0-.2.3-.6zm-18.8-4.8c0-1.2-.2-3-.4-4-1-4-1.3-4.7-1.5-4.7-.2 0-.2-.2-.1-.5s0-.5-.3-.5-.5-.3-.5-.7c0-.4.6 0 2 1.4 2.5 2.4 4.9 3.7 7 3.6 1.1 0 1.8-.3 3.4-1.5 1-.8 2.1-1.9 2.3-2.4l1.2-2 1-1.6c.1-.4.2-.4.2 0 0 .2.2.3.5.1.2-.1.3 0 0 .2 0 .3 0 .4.2.4.3-.1.4-.3.4-.5 0-.5 1.5-1.6 2.1-1.4.6 0 1.3-.7 1.1-1.4l.4-.4 1.2-.4 1-.2s.2-.2.2-.5c0-.2.1-.5.3-.4.2 0 .4 0 1-.3a91.8 91.8 0 0 1 1.9-.8c0-.3.2-.3 1.7-.5.4 0 .7-.1.6-.2-.1 0 0-.4.4-.6.4-.2.5-.6.4-.7-.1-.1-.7.1-1.3.5-.6.5-1.3.8-1.5.7-.2 0 1-.8 2.6-1.6 1.6-.9 2.6-1.3 2.3-1-.3.2-.5.6-.3.8.2.4.4.4.8 0 .3-.3.6-.5.7-.4l3 .3c2.9 0 5 .8 6.1 2.2.5.5.5.5-.3.1-1.3-.7-3.2-.5-4 .4-.4.3-.8.7-1 .7-.1 0-.4.2-.5.6-.1.3-1.2 1.3-2.3 2.2l-3 2.4c-.5.4-1.1.8-1.4.8-.2 0-.6.3-.9.7-.3.4-.6.7-.8.7-.5 0-4 2.9-3.9 3.2 0 .2 0 .3-.2.1-.3-.1-2.3 1.3-3 2.1-.1.3-.2.2-.2 0 0-.4-.1-.4-.7 0-.4.2-.7.5-.7.7 0 .1.1.2.3 0 .1 0 .3.1.3.4 0 .2-.3.4-.9.3-.8-.2-1.1.2-1.3 1.8-.1 1.2-1 1.4-1.8.6-.4-.4-.9-.6-1.1-.5-.3 0-.5 0-.5-.3 0-.2-.2-.3-.6-.2-.3 0-1.2-.2-1.8-.5-1.9-.9-4.5-1.2-5.6-.6-1 .5-1.8 2-1.8 3.4 0 .9-.3 1.2-1 1.6l-1.2.6-.2-2.3zm14.4-11.8-.2-.4-.4.4c0 .2 0 .3.2.3s.4-.1.4-.3zm14.5-9c.2-.4 0-.5-.3-.3-.3 0-.4.3-.3.5.3.4.4.4.6-.2zM52 169.3c.5-.6 1.3-1 1.6-1 .3 0 .8-.3 1-.5.4-.4.4-.3 0 .2-.5.7-3 2.4-3.4 2.4-.1 0 .2-.5.8-1.1zm.5-1.8c0-.2.2-.3.4-.1.2 0 .3.3.3.3 0 .1-.1.2-.3.2a.4.4 0 0 1-.4-.4zm-2.4-11.9c-.5-.4 2.3-2.8 3.5-3l1.4-.7 1-.8c.5-.2.5-.2.1.3-.2.3-.3.6-.1.8.1.2 0 .2-.2 0-.4-.2-3.3 1.2-3.3 1.6 0 .2.3.2.6.1.6-.2.6-.1 0 .2-.3.3-.5.6-.4.8.2.2.1.3-.1.1-.3 0-.4-.4-.2-.5.2-.4-.3-.5-1-.2-.4.2-.6.4-.4.6 0 .2 0 .3-.2.3-.3 0-.3.2-.2.3.2.5.1.5-.5.1zm-3.3-3.6c.2-.3.5-.4.6-.3.1.1 0 .3-.4.5-.5.2-.6.1-.2-.2zm30.8 0c-.3-.1-.4-.5-.3-.7.1-.4.3-.3.6.3.4.9.4.9-.3.5zm-18.3-1c-.3-.2-.4-.4-.1-.5.2-.2.4 0 .6.1.3.5 0 .7-.5.4zm-7.6-2.6c.3-.2.5-.3.7-.2 0 .1-.1.3-.5.4-.5.2-.5.2-.2-.2zM68 148l.6-.4c.3 0 .4 0 .3.2-.2.3-.9.5-.9.2zm-24.2-2c0-.2.5-.6 1-.7.9-.4.6.2-.5.8-.5.3-.6.2-.5-.1zm12.8-.2a85.7 85.7 0 0 1 1.7-1.2c-.3.4-1 1-1.4 1.1-.4.2-.5.3-.3 0zm2.6-2 .6-.6c.6-.5.6-.5.2 0-.5.7-.8.9-.8.6zM62 142l.6-.3c.3-.2.4-.1.3 0-.2.4-.9.6-.9.3zm1.5-.7.5-.4c.3 0 .5 0 .3.2-.2.3-.8.5-.8.2zm11.4-7.3c.1-.2.4-.3.6-.3.2 0 .2.1.1.3 0 .2-.3.4-.5.4s-.3-.2-.2-.4zm-1.5-3.7c-.2-.1-.4-.5-.4-.9 0-.3-.4-.9-.8-1.3-1-.8-1.6-1.5-.9-1.3.6.3 3.2 3.8 2.7 3.7l-.6-.2zM70 126c0-.3.2-.4.5-.3.3.1.4.3.3.5-.3.5-.8.4-.8-.2zm-3.7-2c.2-.2.5-.3.6-.2.1 0 0 .3-.4.4-.5.2-.6.2-.2-.2z" transform="translate(-16.8 -119.2)"/>
  <path style="fill:#53321c;stroke-width:.352778" d="m37 169.5-.1-2.9c0-.8-.2-1.4-.3-1.3l-.3-.1-.2-1c0-.2 0-.5.2-.4.2 0 .5-.3.8-.6.4-.6.5-.6 2 .1.8.5 2.1.9 3 1 1.3.1 1.8 0 6.7-3.4 7.3-4.8 17-11 18.8-12 1.6-.8 3.4-1 5-.4.9.3.9.3-.1.2-.8 0-1.4.3-2.2 1-1.3 1.3-2.4 3-2 3 .3 0 .4-.1.4-.2 0-.2.4-.5.8-.8.6-.4.7-.4.4.2-.2.3-1.2 1-2.1 1.7-3.4 2-4.7 3-4.7 3.4 0 .2-.2.3-.5.2-.6-.1-3.7 2-3.5 2.3 0 .1 0 .2-.4 0-.3 0-.5 0-.5.2s-.4.5-.7.6c-.4.1-.7.4-.6.5.1.2-.1.4-.6.6-.4.1-1.3.6-1.8 1l-1.7 1c-.4.1-.6.4-.6.6 0 .3-.2.4-.5.3-.5-.2-1.8.6-1.9 1.1 0 .8-.1.9-.4.4-.2-.3-.4-.3-.9.2-.3.3-.6.4-.6.3l-.7.2c-.4.2-.7.2-.7 0 0-.1-1-.5-2.2-.7-2-.4-2.4-.4-3.4.1-1.4.8-2.1 1.9-2.1 3.3 0 1-.4 1.6-1.3 1.7-.3 0-.5-.5-.5-1.4zm30.5-16.8a.4.4 0 0 0-.5-.1c-.2 0-.3.3-.2.5.1.2.4.2.6.1.2 0 .2-.3.1-.5zm-32 10.3c0-.2.4-.5.7-.8.5-.4.5-.4.1.3-.4.8-.7 1-.7.5zm37.7-13.6c.9-.7 1.4-.7.8 0-.2.3-.6.5-1 .5s-.4-.1.2-.5z" transform="translate(-16.8 -119.2)"/>
</svg>